G04 ================== begin FILE IDENTIFICATION RECORD ==================*
G04 Layout Name:  E:/PCB/PPC_JTAG.brd*
G04 Film Name:    BOTTOM*
G04 File Format:  Gerber RS274X*
G04 File Origin:  15.7-p007*
G04 Origin Date:  Thu Jan 17 16:59:20 2008*
G04 *
G04 Layer:  BOARD GEOMETRY/OUTLINE*
G04 Layer:  ETCH/BOTTOM*
G04 Layer:  PIN/BOTTOM*
G04 Layer:  VIA CLASS/BOTTOM*
G04 *
G04 Offset:    (0.0 0.0)*
G04 Mirror:    No*
G04 Mode:      Positive*
G04 Rotation:  0*
G04 FullContactRelief:  No*
G04 UndefLineWidth:     8.0*
G04 ================== end FILE IDENTIFICATION RECORD ====================*
%FSLAX55Y55*MOIN*%
%IR0*IPPOS*OFA0.00000B0.00000*MIA0B0*SFA1.00000B1.00000*%
%ADD12C,.25*%
%ADD17R,.05X.05*%
%ADD11C,.04*%
%ADD15C,.05*%
%ADD14C,.06*%
%ADD13R,.062X.062*%
%ADD10C,.062*%
%ADD16R,.06X.06*%
%ADD18C,.006*%
%ADD19C,.01*%
%ADD20C,.02*%
%ADD21C,.008*%
%ADD27O,.1802X.0522*%
%ADD22C,.2624*%
%ADD26C,.0624*%
%ADD25C,.0804*%
%ADD24C,.0824*%
%ADD23C,.0744*%
G75*
%LPD*%
G75*
G36*
G01X-223990Y-53790D02*
Y78790D01*
G02X-223790Y78990I200J0D01*
G01X41400D01*
G02X41600Y78790I0J-200D01*
G01Y-53790D01*
G02X41400Y-53990I-200J0D01*
G01X-223790D01*
G02X-223990Y-53790I0J200D01*
G37*
G36*
G01X56010Y-48790D02*
Y78790D01*
G02X56210Y78990I200J0D01*
G01X148940D01*
G02X149220Y78310I0J-398D01*
G01X143980Y73070D01*
Y68720D01*
G02X143850Y68530I-204J0D01*
G03X145930I1040J-2941D01*
G02X145800Y68720I74J190D01*
G01Y72310D01*
X146570Y73080D01*
G02X147250Y72840I283J-282D01*
G03X152290Y74060I2608J248D01*
G01X152270Y74120D01*
X152290Y74240D01*
X153650Y75590D01*
X160510D01*
G02X160790Y74910I0J-398D01*
G01X154280Y68400D01*
X154170Y68380D01*
X154100Y68410D01*
G03X155580Y66930I-1339J-2819D01*
G02X155620Y67160I180J87D01*
G01X162150Y73690D01*
X166480D01*
G02X166760Y73010I0J-398D01*
G01X162150Y68400D01*
X162040Y68380D01*
X161970Y68410D01*
G03X163450Y66930I-1339J-2819D01*
G01X163420Y67000D01*
X163440Y67110D01*
X168120Y71790D01*
X181740D01*
G02X182020Y71110I0J-398D01*
G01X179490Y68580D01*
Y67840D01*
G02X178780Y67580I-403J0D01*
G03X173560Y64250I-2402J-1991D01*
G02X173520Y64020I-180J-87D01*
G01X172070Y62570D01*
Y51930D01*
X172010Y51830D01*
X171950Y51810D01*
G03X174010I1030J-2410D01*
G01X173950Y51830D01*
X173890Y51930D01*
Y54890D01*
G02X174530Y55210I400J0D01*
G03X179200Y59060I1852J2511D01*
G02X179240Y59290I180J87D01*
G01X181310Y61360D01*
Y67820D01*
X183280Y69790D01*
X207020D01*
X214290Y62520D01*
Y62280D01*
G02X213950Y62140I-199J0D01*
G01X209590Y66500D01*
X203130D01*
G02X202940Y66630I0J204D01*
G03X197640Y63550I-2941J-1039D01*
G02X197330Y62890I-310J-257D01*
G01X194800D01*
G02X194490Y63550I0J403D01*
G03X189050Y65060I-2364J2039D01*
G02X188640Y64600I-394J-62D01*
G03X186060Y61080I-119J-2618D01*
G02X185520Y60570I-374J-145D01*
G03X187110Y58980I-1261J-2851D01*
G02X187620Y59520I365J166D01*
G03X188800Y59370I912J2458D01*
G02X189220Y58830I46J-398D01*
G03X190180Y55280I2912J-1117D01*
G02X190210Y54690I-252J-309D01*
G01X183130Y47610D01*
X177640D01*
X176340Y46310D01*
X168860D01*
X163310Y51860D01*
X157690D01*
X157600Y51910D01*
X157570Y51970D01*
G03Y49530I-2320J-1220D01*
G02X157750Y49640I180J-92D01*
G01X162390D01*
X167940Y44090D01*
X177260D01*
X178560Y45390D01*
X182490D01*
G02X182690Y45190I0J-200D01*
G01Y42750D01*
X182650Y42680D01*
X182600Y42650D01*
G03X186000Y42580I1646J-2650D01*
G02X185910Y42750I116J170D01*
G01Y45830D01*
X193740Y53660D01*
Y55000D01*
X193780Y55070D01*
X193830Y55100D01*
G03Y60330I-1701J2615D01*
G02X194050Y61070I220J337D01*
G01X198080D01*
G02X198300Y60330I0J-403D01*
G03X201340Y54900I1708J-2610D01*
G02X201570Y54860I87J-180D01*
G01X209290Y47140D01*
Y-22300D01*
X201520Y-30070D01*
X201410Y-30090D01*
X201340Y-30060D01*
G03X197720Y-35010I-1341J-2818D01*
G02X197420Y-35680I-300J-268D01*
G01X194710D01*
G02X194410Y-35010I0J402D01*
G03X191440Y-29840I-2281J2128D01*
G01X191380Y-29850D01*
X191300Y-29830D01*
X188920Y-27450D01*
Y-27030D01*
X188970Y-26980D01*
Y-26510D01*
G02X189170Y-26310I200J0D01*
G02X189350Y-26420I0J-202D01*
G03X193170Y-22070I2782J1409D01*
G01X193110Y-22050D01*
X193040Y-21950D01*
Y-18530D01*
X193100Y-18430D01*
X193160Y-18410D01*
G03X191100I-1030J2410D01*
G01X191160Y-18430D01*
X191220Y-18530D01*
Y-21880D01*
G02X191090Y-22070I-204J0D01*
G03X189350Y-23600I1042J-2939D01*
G02X189170Y-23710I-180J92D01*
G01X189080D01*
X188970Y-23600D01*
Y-23050D01*
X188910Y-22990D01*
Y-9880D01*
X188960Y-9830D01*
Y-9350D01*
G02X189160Y-9150I200J0D01*
G02X189340Y-9270I0J-195D01*
G03X194950Y-6530I2790J1400D01*
G01X194920Y-6460D01*
X194940Y-6350D01*
X196810Y-4480D01*
Y-3310D01*
G02X197010Y-3110I200J0D01*
G01X202510D01*
G02X202790Y-3790I0J-398D01*
G01X201520Y-5060D01*
X201410Y-5080D01*
X201340Y-5050D01*
G03X202820Y-6530I-1339J-2819D01*
G01X202790Y-6460D01*
X202810Y-6350D01*
X206210Y-2950D01*
Y27210D01*
X202860Y30560D01*
G02X202820Y30790I140J143D01*
G03X198150Y34640I-2818J1339D01*
G02X197510Y34960I-240J320D01*
G01Y36220D01*
X198180Y36890D01*
X203110D01*
Y43110D01*
X196890D01*
Y38180D01*
X195690Y36980D01*
Y22720D01*
X199090Y19320D01*
Y3310D01*
G02X198890Y3110I-200J0D01*
G01X197010D01*
G02X196810Y3310I0J200D01*
G01Y11310D01*
X193040Y15080D01*
Y29000D01*
G02X193170Y29190I204J0D01*
G03X191090I-1040J2941D01*
G02X191220Y29000I-74J-190D01*
G01Y14320D01*
X194990Y10550D01*
Y2520D01*
G02X194310Y2230I-402J0D01*
G03Y-2230I-2181J-2230D01*
G02X194990Y-2520I278J-290D01*
G01Y-3720D01*
X193650Y-5060D01*
X193540Y-5080D01*
X193470Y-5050D01*
G03X189340Y-6470I-1340J-2819D01*
G01X189310Y-6530D01*
X189220Y-6590D01*
X189160D01*
G02X188960Y-6390I0J200D01*
G01Y-5910D01*
X188910Y-5860D01*
Y-3040D01*
X187160Y-1290D01*
X187140Y-1180D01*
X187160Y-1120D01*
G03X185440Y-2880I-2909J1122D01*
G01X185500Y-2860D01*
X185610Y-2880D01*
X186690Y-3960D01*
Y-6780D01*
X186740Y-6830D01*
Y-8910D01*
X186690Y-8960D01*
Y-23910D01*
X186750Y-23970D01*
Y-26060D01*
X186700Y-26110D01*
Y-28300D01*
X187040Y-28710D01*
X189450Y-31120D01*
X189470Y-31250D01*
X189430Y-31310D01*
G03X189850Y-35010I2699J-1567D01*
G02X189550Y-35680I-300J-268D01*
G01X186840D01*
G02X186540Y-35010I0J402D01*
G03X183730Y-29800I-2279J2134D01*
G02X183270Y-29390I-62J394D01*
G03X179740Y-26810I-2619J121D01*
G02X179230Y-26280I-142J373D01*
G03X177650Y-27860I-2850J1270D01*
G02X178190Y-28360I167J-361D01*
G03X178050Y-29550I2462J-893D01*
G02X177500Y-29970I-398J-49D01*
G03X176530Y-36000I-1119J-2913D01*
G02X176680Y-36050I16J-201D01*
G01X179830Y-39210D01*
G02X179550Y-39890I-280J-282D01*
G01X167780D01*
X165510Y-37620D01*
Y-35250D01*
G02X166210Y-34980I402J0D01*
G03Y-30780I2298J2100D01*
G02X165510Y-30510I-298J270D01*
G01Y-28600D01*
X163490Y-26580D01*
G02X163450Y-26350I140J143D01*
G03X160100Y-21930I-2819J1343D01*
G02X159640Y-21520I-62J394D01*
G03X159450Y-20430I-2617J105D01*
G02X159500Y-20210I188J73D01*
G01X162800Y-16910D01*
X172620D01*
G02X172800Y-17030I0J-195D01*
G03Y-14970I2410J1030D01*
G02X172620Y-15090I-180J75D01*
G01X162040D01*
X158170Y-18970D01*
X158050Y-18990D01*
X157990Y-18970D01*
G03X154410Y-21680I-974J-2433D01*
G02X153870Y-22100I-398J-46D01*
G03X154100Y-27830I-1111J-2914D01*
G01X154170Y-27800D01*
X154280Y-27820D01*
X155890Y-29430D01*
Y-30660D01*
G02X155180Y-30910I-399J0D01*
G03Y-34850I-2420J-1970D01*
G02X155890Y-35100I311J-250D01*
G01Y-37980D01*
X161620Y-43710D01*
X205520D01*
G02X205660Y-44050I0J-199D01*
G01X205420Y-44290D01*
X156090D01*
X147130Y-35330D01*
G02Y-35050I141J140D01*
G03X142430Y-30970I-2238J2169D01*
G02X141710Y-30720I-317J250D01*
G01Y-29480D01*
X143320Y-27870D01*
G02X143550Y-27830I143J-140D01*
G03X142070Y-26350I1339J2819D01*
G02X142030Y-26580I-180J-87D01*
G01X139890Y-28720D01*
Y-30380D01*
G02X139210Y-30670I-402J0D01*
G03Y-35090I-2201J-2210D01*
G02X139890Y-35380I278J-290D01*
G01Y-37680D01*
X150320Y-48110D01*
X206670D01*
X224710Y-30070D01*
Y68580D01*
X214980Y78310D01*
G02X215260Y78990I280J282D01*
G01X228790D01*
G02X228990Y78790I0J-200D01*
G01Y-48790D01*
G02X228790Y-48990I-200J0D01*
G01X56210D01*
G02X56010Y-48790I0J200D01*
G37*
%LPC*%
G75*
G36*
G01X5700Y8570D02*
G02X2500I-1600J-2560D01*
G01X2550Y8600D01*
X2590Y8680D01*
Y10630D01*
X2550Y10710D01*
X2500Y10740D01*
G02X5700I1600J2560D01*
G03X5610Y10570I116J-170D01*
G01Y8680D01*
X5650Y8600D01*
X5700Y8570D01*
G37*
G36*
G01X-66480Y-51620D02*
X-176350D01*
X-185730Y-42240D01*
Y-40670D01*
G03X-185820Y-40500I-206J0D01*
G02X-186880Y-36500I1598J2564D01*
G03X-187230Y-35910I-350J191D01*
G01X-197880D01*
X-206260Y-27530D01*
Y17820D01*
X-210580Y22150D01*
X-210670Y22170D01*
X-210730Y22160D01*
G02X-208460Y24430I-671J2941D01*
G01X-208470Y24370D01*
X-208450Y24280D01*
X-203240Y19080D01*
Y-26270D01*
X-199770Y-29740D01*
G03X-199090Y-29510I284J282D01*
G02X-191560Y-32270I4091J-491D01*
G03X-191230Y-32890I330J-222D01*
G01X-188770D01*
G03X-188440Y-32270I0J398D01*
G02X-180980Y-30890I3438J2270D01*
G03X-180600Y-31380I390J-90D01*
G02X-179500Y-31620I-83J-3019D01*
G03X-178960Y-31140I157J368D01*
G02X-178830Y-28480I3960J1140D01*
G01X-178810Y-28420D01*
X-178830Y-28310D01*
X-180910Y-26230D01*
Y-22610D01*
G03X-181640Y-22380I-401J0D01*
G02Y-17620I-3361J2380D01*
G03X-180910Y-17390I329J230D01*
G01Y-3230D01*
X-194980Y10850D01*
X-195070Y10870D01*
X-195130Y10860D01*
G02X-197600Y11380I-670J2942D01*
G03X-198240Y11050I-235J-330D01*
G01Y5870D01*
X-198200Y5790D01*
X-198150Y5760D01*
G02X-201350I-1600J-2560D01*
G03X-201260Y5930I-116J170D01*
G01Y57080D01*
X-191130Y67210D01*
X-69070D01*
X-55890Y54030D01*
Y53510D01*
G03X-55170Y53270I400J0D01*
G02Y48330I3171J-2470D01*
G03X-55890Y48090I-320J-240D01*
G01Y43860D01*
G03X-55770Y43670I210J0D01*
G02X-54380Y42660I-1613J-3682D01*
G03X-53800Y42640I299J262D01*
G01X-45200Y51240D01*
X-45190Y51310D01*
G02X-43990Y47900I3989J-512D01*
G03X-44270I-140J-141D01*
G01X-47500Y44660D01*
G03X-47170Y43980I282J-283D01*
G02X-44970Y36330I565J-3979D01*
G01X-45030Y36300D01*
X-45090Y36200D01*
Y35780D01*
X-33970Y24660D01*
X-33530D01*
G03X-33160Y25220I0J402D01*
G02X-32000Y29010I2759J1228D01*
G01X-31950Y29040D01*
X-31910Y29120D01*
Y37290D01*
G03X-32630Y37530I-400J0D01*
G02Y42470I-3171J2470D01*
G03X-31910Y42710I320J240D01*
G01Y46940D01*
G03X-32030Y47130I-210J0D01*
G02X-28770I1630J3672D01*
G01X-28830Y47100D01*
X-28890Y47000D01*
Y44210D01*
G03X-28690Y44010I200J0D01*
G01X-20990D01*
Y35990D01*
X-28690D01*
G03X-28890Y35790I0J-200D01*
G01Y29120D01*
X-28850Y29040D01*
X-28800Y29010D01*
G02X-27640Y25220I-1599J-2562D01*
G03X-27270Y24660I370J-158D01*
G01X-16820D01*
X-5120Y12950D01*
X-5030Y12930D01*
X-4970Y12940D01*
G02X-7240Y10670I671J-2941D01*
G03X-7300Y10860I-197J42D01*
G01X-18080Y21640D01*
X-35230D01*
X-48110Y34520D01*
Y36140D01*
G03X-48230Y36330I-210J0D01*
G02X-50140Y38090I1623J3677D01*
G03X-50890Y37900I-351J-190D01*
G01Y36120D01*
X-56290Y30720D01*
Y15930D01*
G03X-55700Y15580I399J0D01*
G02X-50680Y11330I1700J-3081D01*
G03X-50170Y10820I379J-131D01*
G02X-45870Y9120I1173J-3320D01*
G03X-45700Y9010I170J76D01*
G01X-34770D01*
X-12890Y-12870D01*
Y-24970D01*
X-11690Y-26170D01*
X-11580Y-26190D01*
X-11520Y-26170D01*
G02X-13830Y-28480I1520J-3830D01*
G03X-13870Y-28260I-181J81D01*
G01X-15910Y-26230D01*
Y-21830D01*
G03X-16670Y-21660I-399J0D01*
G02X-22700Y-22560I-3330J1660D01*
G03X-23390Y-22840I-288J-280D01*
G01Y-26610D01*
G03X-22720Y-26910I402J0D01*
G02X-16170Y-31520I2721J-3093D01*
G03X-16130Y-31740I181J-81D01*
G01X-12980Y-34880D01*
X11590D01*
G03X11760Y-34790I0J206D01*
G02X16960Y-34920I2562J-1600D01*
G03X17710Y-34730I351J190D01*
G01Y-23240D01*
X6590Y-12120D01*
X-1530D01*
X-1610Y-12160D01*
X-1640Y-12210D01*
G02Y-9010I-2560J1600D01*
G01X-1610Y-9060D01*
X-1530Y-9100D01*
X7850D01*
X20730Y-21980D01*
Y-37530D01*
X10850Y-47410D01*
X9370D01*
X9290Y-47450D01*
X9260Y-47500D01*
G02Y-44300I-2560J1600D01*
G01X9290Y-44350D01*
X9370Y-44390D01*
X9590D01*
X13950Y-40030D01*
G03X13750Y-39360I-282J281D01*
G02X11760Y-37990I575J2966D01*
G03X11590Y-37900I-170J-116D01*
G01X-14240D01*
X-18310Y-33830D01*
X-18420Y-33810D01*
X-18480Y-33830D01*
G02X-22960Y-32870I-1522J3830D01*
G03X-23530Y-32860I-290J-278D01*
G01X-26570Y-35910D01*
X-50770D01*
X-66480Y-51620D01*
G37*
G36*
G01X149850Y51020D02*
G02X147790I-1030J-2410D01*
G03X147910Y51200I-75J180D01*
G01Y54160D01*
X149900Y56150D01*
G03X149940Y56380I-140J143D01*
G02X151420Y54900I2819J1339D01*
G03X151190Y54860I-87J-180D01*
G01X149730Y53400D01*
Y51200D01*
G03X149850Y51020I195J0D01*
G37*
G36*
G01X138710Y42620D02*
G02X135310I-1700J-2619D01*
G01X135360Y42650D01*
X135400Y42720D01*
Y55000D01*
X135360Y55070D01*
X135310Y55100D01*
G02X138710I1700J2619D01*
G03X138620Y54940I97J-160D01*
G01Y42720D01*
X138660Y42650D01*
X138710Y42620D01*
G37*
G36*
G01X83370Y42750D02*
G02X79960Y42450I-1476J-2749D01*
G01X80000Y42480D01*
X80040Y42560D01*
Y46520D01*
X88160Y54640D01*
Y55000D01*
X88120Y55070D01*
X88070Y55100D01*
G02X91470I1700J2619D01*
G03X91380Y54940I97J-160D01*
G01Y53300D01*
X83260Y45180D01*
Y42930D01*
G03X83370Y42750I202J0D01*
G37*
G36*
G01X131630Y1870D02*
G02X129850Y3040I-2502J-1867D01*
G01X129910Y3020D01*
X129990Y3050D01*
X131250Y4310D01*
X131360D01*
X131620Y4570D01*
Y29300D01*
G03X130980Y29620I-400J0D01*
G02Y34640I-1851J2510D01*
G03X131620Y34960I240J320D01*
G01Y36220D01*
X130700Y37140D01*
G03X130470Y37180I-143J-140D01*
G02X131950Y38660I-1339J2819D01*
G03X131990Y38430I180J-87D01*
G01X133440Y36980D01*
Y3810D01*
X132120Y2490D01*
X132010D01*
X131590Y2070D01*
X131580Y1940D01*
X131630Y1870D01*
G37*
G36*
G01X88420Y2820D02*
G02X86940Y1340I1339J-2819D01*
G03X86900Y1570I-180J87D01*
G01X85450Y3020D01*
Y36980D01*
X86900Y38430D01*
G03X86940Y38660I-140J143D01*
G02X88420Y37180I2819J1339D01*
G03X88190Y37140I-87J-180D01*
G01X87270Y36220D01*
Y3780D01*
X88190Y2860D01*
G03X88420Y2820I143J140D01*
G37*
G36*
G01X179200Y-6530D02*
G02X177720Y-5050I-2819J-1339D01*
G01X177790Y-5080D01*
X177900Y-5060D01*
X178870Y-4090D01*
Y-2830D01*
G03X178230Y-2510I-400J0D01*
G02Y2510I-1851J2510D01*
G03X178870Y2830I240J320D01*
G01Y28350D01*
X177900Y29320D01*
X177790Y29340D01*
X177720Y29310D01*
G02X179200Y30790I-1339J2819D01*
G01X179170Y30720D01*
X179190Y30610D01*
X180690Y29110D01*
Y-4850D01*
X179190Y-6350D01*
X179170Y-6460D01*
X179200Y-6530D01*
G37*
G36*
G01X147700D02*
G02X146220Y-5050I-2819J-1339D01*
G03X146450Y-5010I87J180D01*
G01X148090Y-3370D01*
Y-2120D01*
G03X147370Y-1880I-400J0D01*
G02X143840Y2940I-2490J1879D01*
G03X143970Y3130I-74J190D01*
G01Y22860D01*
X147890Y26780D01*
Y29770D01*
G03X147190Y30040I-402J0D01*
G02Y34220I-2312J2090D01*
G03X147890Y34490I298J270D01*
G01Y35000D01*
X145900Y36990D01*
X145800Y37020D01*
X145740Y37000D01*
G02X147460Y38240I-857J3001D01*
G03X147480Y37990I162J-113D01*
G01X149710Y35760D01*
Y34450D01*
G03X150410Y34180I402J0D01*
G02X155860Y31780I2350J-2051D01*
G03X155920Y31620I199J-17D01*
G01X157600Y29940D01*
Y2340D01*
G03X158300Y2070I402J0D01*
G02X159590Y2940I2333J-2069D01*
G03X159720Y3130I-74J190D01*
G01Y25970D01*
X163590Y29840D01*
Y30280D01*
G03X163390Y30480I-200J0D01*
G01X163330D01*
X163250Y30440D01*
X163220Y30400D01*
G02X162900Y34270I-2592J1734D01*
G03X163590Y34550I288J280D01*
G01Y37950D01*
X163410Y38130D01*
G03X163130I-140J-141D01*
G01X163120Y38120D01*
X163110Y38110D01*
G02X158710Y42460I-2482J1890D01*
G03X158690Y43110I-241J318D01*
G02X161960Y43420I1442J2189D01*
G03X162050Y42780I267J-289D01*
G02X163720Y40460I-1418J-2781D01*
G01X163730Y40390D01*
X164710Y39410D01*
G03X165390Y39720I282J282D01*
G02X171320Y38660I3109J277D01*
G01X171290Y38590D01*
X171310Y38480D01*
X172820Y36970D01*
Y3030D01*
X171310Y1520D01*
X171290Y1410D01*
X171320Y1340D01*
G02X166560Y-2440I-2818J-1338D01*
G03X165910Y-2760I-246J-320D01*
G01Y-3990D01*
X166980Y-5060D01*
X167090Y-5080D01*
X167160Y-5050D01*
G02X165680Y-6530I1339J-2819D01*
G01X165710Y-6460D01*
X165690Y-6350D01*
X164090Y-4750D01*
Y-1740D01*
G03X163340Y-1540I-402J0D01*
G02X158300Y-2070I-2710J1542D01*
G03X157600Y-2340I-298J-270D01*
G01Y-4320D01*
X155620Y-6300D01*
G03X155580Y-6530I140J-143D01*
G02X154100Y-5050I-2819J-1339D01*
G03X154330Y-5010I87J180D01*
G01X155780Y-3560D01*
Y-2350D01*
G03X155080Y-2080I-402J0D01*
G02X150590Y-2240I-2322J2081D01*
G03X149910Y-2530I-278J-290D01*
G01Y-4130D01*
X147740Y-6300D01*
G03X147700Y-6530I140J-143D01*
G37*
G36*
G01X100460D02*
G02X98980Y-5050I-2819J-1339D01*
G03X99210Y-5010I87J180D01*
G01X100790Y-3430D01*
Y-2200D01*
G03X100080Y-1950I-399J0D01*
G02Y1950I-2439J1950D01*
G03X100790Y2200I311J250D01*
G01Y6660D01*
X96730Y10720D01*
Y29070D01*
X96660Y29170D01*
X96600Y29190D01*
G02X99490Y34640I1037J2942D01*
G03X100130Y34960I240J320D01*
G01Y36220D01*
X99160Y37190D01*
X99050Y37210D01*
X98980Y37180D01*
G02X100460Y38660I-1339J2819D01*
G03X100500Y38430I180J-87D01*
G01X101950Y36980D01*
Y19690D01*
G03X102070Y19510I195J0D01*
G02X99230Y15210I-1027J-2409D01*
G03X98550Y14920I-278J-290D01*
G01Y11480D01*
X102610Y7420D01*
Y2480D01*
G03X103290Y2200I398J0D01*
G02X104470Y2940I2207J-2208D01*
G03X104600Y3130I-74J190D01*
G01Y11990D01*
X108490Y15880D01*
Y29730D01*
G03X107800Y30010I-402J0D01*
G02Y34250I-2290J2120D01*
G03X108490Y34530I288J280D01*
G01Y35730D01*
X107030Y37190D01*
X106920Y37210D01*
X106850Y37180D01*
G02X108330Y38660I-1339J2819D01*
G03X108370Y38430I180J-87D01*
G01X110310Y36490D01*
Y34410D01*
G03X111010Y34150I398J0D01*
G02X114430Y29190I2379J-2019D01*
G03X114300Y29000I74J-190D01*
G01Y9830D01*
X110310Y5840D01*
Y2280D01*
G03X111010Y2020I398J0D01*
G02X115780Y2000I2377J-2020D01*
G03X116490Y2260I307J260D01*
G01Y28650D01*
X118400Y30560D01*
G03X118440Y30790I-140J143D01*
G02X123110Y34640I2818J1339D01*
G03X123750Y34960I240J320D01*
G01Y36220D01*
X122780Y37190D01*
X122670Y37210D01*
X122600Y37180D01*
G02X124080Y38660I-1339J2819D01*
G01X124050Y38590D01*
X124070Y38480D01*
X125570Y36980D01*
Y3020D01*
X124120Y1570D01*
G03X124080Y1340I140J-143D01*
G02X119000Y-2150I-2818J-1340D01*
G03X118310Y-2430I-288J-280D01*
G01Y-3630D01*
X119740Y-5060D01*
X119850Y-5080D01*
X119920Y-5050D01*
G02X118440Y-6530I1339J-2819D01*
G01X118470Y-6460D01*
X118450Y-6350D01*
X116490Y-4390D01*
Y-2260D01*
G03X115780Y-2000I-403J0D01*
G02X111010Y-2020I-2393J2000D01*
G03X110310Y-2280I-302J-260D01*
G01Y-3500D01*
X111820Y-5010D01*
G03X112050Y-5050I143J140D01*
G02X110570Y-6530I1339J-2819D01*
G03X110530Y-6300I-180J87D01*
G01X108490Y-4260D01*
Y-2400D01*
G03X107800Y-2120I-402J0D01*
G02X103290Y-2200I-2293J2118D01*
G03X102610Y-2480I-282J-280D01*
G01Y-4190D01*
X100500Y-6300D01*
G03X100460Y-6530I140J-143D01*
G37*
G36*
G01X72680Y-22190D02*
G02X71200Y-23670I1339J-2819D01*
G01X71230Y-23600D01*
X71210Y-23490D01*
X65290Y-17570D01*
Y60480D01*
X70950Y66140D01*
X70960Y66190D01*
G02X71610Y63610I3061J-601D01*
G03X71020Y63630I-304J-260D01*
G01X67110Y59720D01*
Y44160D01*
G03X67790Y43880I398J0D01*
G01X77390Y53480D01*
Y54410D01*
G03X77190Y54610I-200J0D01*
G01X70910D01*
Y60830D01*
X77190D01*
G03X77390Y61030I0J200D01*
G01Y62380D01*
X79080Y64070D01*
X79100Y64180D01*
X79070Y64250D01*
G02X80550Y62770I2819J1339D01*
G01X80480Y62800D01*
X80370Y62780D01*
X79210Y61620D01*
Y60400D01*
G03X79870Y60100I398J0D01*
G02Y55340I2019J-2380D01*
G03X79210Y55040I-262J-300D01*
G01Y52720D01*
X69310Y42820D01*
Y37540D01*
G03X69990Y37260I398J0D01*
G01X71160Y38430D01*
G03X71200Y38660I-140J143D01*
G02X72680Y37180I2819J1339D01*
G03X72450Y37140I-87J-180D01*
G01X71530Y36220D01*
Y34960D01*
G03X72170Y34640I400J0D01*
G02Y29620I1851J-2510D01*
G03X71530Y29300I-240J-320D01*
G01Y3780D01*
X72450Y2860D01*
G03X72680Y2820I143J140D01*
G02X71200Y1340I1339J-2819D01*
G01X71230Y1410D01*
X71210Y1520D01*
X69990Y2740D01*
G03X69310Y2460I-282J-280D01*
G01Y-11140D01*
X80320Y-22150D01*
G03X80550Y-22190I143J140D01*
G02X79070Y-23670I1339J-2819D01*
G01X79100Y-23600D01*
X79080Y-23490D01*
X67790Y-12200D01*
G03X67110Y-12480I-282J-280D01*
G01Y-16810D01*
X72500Y-22200D01*
X72610Y-22220D01*
X72680Y-22190D01*
G37*
G36*
G01X104370Y-43190D02*
X69400D01*
X59290Y-33080D01*
Y64680D01*
X70820Y76210D01*
X112180D01*
X118210Y70180D01*
Y67910D01*
G03X118910Y67640I402J0D01*
G02Y63540I2351J-2050D01*
G03X118210Y63270I-298J-270D01*
G01Y61250D01*
X116200Y59240D01*
X116180Y59130D01*
X116210Y59060D01*
G02X114730Y60540I-2819J-1339D01*
G03X114960Y60580I87J180D01*
G01X116390Y62010D01*
Y63220D01*
G03X115690Y63490I-402J0D01*
G02X111060Y63520I-2301J2102D01*
G03X110360Y63250I-298J-270D01*
G01Y61270D01*
X108330Y59240D01*
X108310Y59130D01*
X108340Y59060D01*
G02X102790Y56220I-2817J-1338D01*
G03X102410Y56120I-177J-100D01*
G01Y55690D01*
X104380Y53720D01*
X115970D01*
X118450Y56200D01*
X118470Y56310D01*
X118440Y56380D01*
G02X119920Y54900I2819J1339D01*
G03X119690Y54860I-87J-180D01*
G01X116730Y51900D01*
X103620D01*
X100590Y54930D01*
Y55290D01*
G03X99900Y55570I-402J0D01*
G02Y59870I-2260J2150D01*
G03X100590Y60150I288J280D01*
G01Y63160D01*
G03X99900Y63440I-402J0D01*
G02Y67740I-2260J2150D01*
G03X100590Y68020I288J280D01*
G01Y68160D01*
X98660Y70090D01*
X72780D01*
X64710Y62020D01*
Y-30320D01*
X70230Y-35840D01*
G03X70910Y-35560I282J280D01*
G01Y-29770D01*
X77130D01*
Y-35990D01*
X71340D01*
G03X71060Y-36670I0J-398D01*
G01X71480Y-37090D01*
X99220D01*
X100590Y-35720D01*
Y-35310D01*
G03X99900Y-35030I-402J0D01*
G02Y-30730I-2260J2150D01*
G03X100590Y-30450I288J280D01*
G01Y-30100D01*
X102700Y-27990D01*
X103120D01*
G03X103400Y-27300I0J402D01*
G02X107640I2120J2290D01*
G03X107920Y-27990I280J-288D01*
G01X110990D01*
G03X111270Y-27300I0J402D01*
G02X115510I2120J2290D01*
G03X115790Y-27990I280J-288D01*
G01X117660D01*
X119690Y-30020D01*
G03X119920Y-30060I143J140D01*
G02X118440Y-31540I1339J-2819D01*
G03X118400Y-31310I-180J87D01*
G01X116900Y-29810D01*
X115680D01*
G03X115420Y-30510I0J-398D01*
G02X112050Y-35700I-2028J-2373D01*
G03X111820Y-35740I-87J-180D01*
G01X104370Y-43190D01*
G37*
G54D27*
X141200Y-14800D03*
G54D22*
X2300Y52700D03*
G54D26*
X168510Y65590D03*
X129140D03*
X168510Y57720D03*
X160630D03*
X144890D03*
X129140D03*
X192130Y40000D03*
X176380D03*
X152760D03*
X113390D03*
X81890Y32130D03*
X137010Y0D03*
X81890D03*
X160630Y-7870D03*
X129130D03*
X105510D03*
X81890D03*
X74020D03*
X200000Y-25010D03*
X168510D03*
X129140D03*
X121260D03*
X97640D03*
X129140Y-32880D03*
X89770D03*
X81890D03*
G54D24*
X-195000Y-20000D03*
X10000Y-30000D03*
X0D03*
G54D23*
Y-20000D03*
%LPD*%
G75*
G36*
G01X-169270Y-48600D02*
G02X-169640Y-48040I0J402D01*
G03X-170800Y-44250I-2759J1228D01*
G01X-170850Y-44220D01*
X-170890Y-44140D01*
Y-38270D01*
X-173490Y-35670D01*
Y-33970D01*
G02X-173370Y-33780I210J0D01*
G03X-176520Y-26170I-1631J3782D01*
G02X-176740Y-26130I-81J181D01*
G01X-177890Y-24970D01*
Y-1970D01*
X-192800Y12940D01*
G02X-192860Y13130I137J148D01*
G03X-197600Y16220I-2943J667D01*
G02X-198240Y16550I-235J330D01*
G01Y29890D01*
G02X-197560Y30170I398J0D01*
G01X-187830Y20440D01*
X-182230D01*
X-171610Y9820D01*
Y7470D01*
X-171650Y7390D01*
X-171700Y7360D01*
G03X-168500I1600J-2560D01*
G02X-168590Y7530I116J170D01*
G01Y11080D01*
X-180970Y23460D01*
X-186570D01*
X-189770Y26660D01*
G02X-189610Y27320I282J281D01*
G03X-187940Y28610I-895J2885D01*
G02X-187770Y28700I170J-116D01*
G01X-171220D01*
X-159290Y40640D01*
G02X-158610Y40320I280J-288D01*
G03X-158350Y38550I4009J-315D01*
G02X-158400Y38340I-189J-66D01*
G01X-160910Y35830D01*
Y-27390D01*
G02X-161640Y-27620I-401J0D01*
G03X-166630Y-33780I-3363J-2377D01*
G01X-166570Y-33810D01*
X-166510Y-33910D01*
Y-34970D01*
G02X-166600Y-35140I-206J0D01*
G03X-163400I1600J-2560D01*
G01X-163450Y-35110D01*
X-163490Y-35030D01*
Y-33970D01*
G02X-163370Y-33780I210J0D01*
G03X-161640Y-32380I-1629J3782D01*
G02X-160910Y-32610I329J-230D01*
G01Y-44010D01*
G02X-161000Y-44180I-206J0D01*
G03X-162130Y-48030I1600J-2561D01*
G02X-162490Y-48600I-360J-171D01*
G01X-169270D01*
G37*
G36*
G01X-71170Y-22890D02*
G02X-71540Y-22330I0J402D01*
G03X-76860Y-19500I-2758J1230D01*
G01X-76890Y-19550D01*
X-76970Y-19590D01*
X-120970D01*
X-125110Y-15450D01*
G02X-124940Y-14790I283J279D01*
G03X-124200Y-9330I-859J2897D01*
G02X-124290Y-9160I116J170D01*
G01Y470D01*
G02X-123700Y820I399J0D01*
G03X-120830Y580I1703J3080D01*
G02X-120320Y70I131J-379D01*
G03X-118170Y2220I3320J-1170D01*
G02X-118680Y2730I-131J379D01*
G03X-123700Y6980I-3320J1169D01*
G02X-124290Y7330I-191J350D01*
G01Y11470D01*
X-109890Y25870D01*
Y36140D01*
G02X-109770Y36330I210J0D01*
G03X-113030I-1630J3672D01*
G02X-112910Y36140I-90J-190D01*
G01Y27130D01*
X-127310Y12730D01*
Y2030D01*
G02X-127870Y1660I-402J0D01*
G03X-129560Y1890I-1236J-2758D01*
G02X-129970Y2470I-59J393D01*
G03X-135650Y3780I-2662J1429D01*
G02X-135710Y3630I-199J-7D01*
G01X-139010Y320D01*
X-139100Y290D01*
X-139140Y300D01*
G03X-141600Y-540I-349J-3000D01*
G02X-142280Y-250I-278J290D01*
G01Y33120D01*
X-142290Y33130D01*
Y36140D01*
G02X-142170Y36330I210J0D01*
G03X-140420Y42170I-1632J3671D01*
G02X-140080Y42790I340J217D01*
G01X-137930D01*
X-136750Y41620D01*
X-136730Y41500D01*
X-136750Y41450D01*
G03X-134450Y43750I3750J-1450D01*
G01X-134500Y43730D01*
X-134620Y43750D01*
X-136670Y45810D01*
X-158390D01*
X-172480Y31720D01*
X-187770D01*
G02X-187940Y31810I0J206D01*
G03X-193390Y31100I-2563J-1599D01*
G02X-194050Y30940I-379J122D01*
G01X-195290Y32180D01*
Y53170D01*
X-187070Y61390D01*
X-75530D01*
X-66600Y52460D01*
G02X-66550Y52250I-139J-144D01*
G03X-59630Y48330I3750J-1449D01*
G02X-58910Y48090I320J-240D01*
G01Y43860D01*
G02X-59030Y43670I-210J0D01*
G03X-56190Y36170I1630J-3670D01*
G02X-55780Y35500I128J-382D01*
G01X-59310Y31980D01*
Y-6630D01*
X-57110Y-8830D01*
Y-16720D01*
G02X-57750Y-17040I-400J0D01*
G03X-62960Y-22250I-2247J-2963D01*
G02X-63280Y-22890I-320J-240D01*
G01X-71170D01*
G37*
%LPC*%
G75*
G36*
G01X-92700Y7370D02*
G02X-95900I-1600J-2560D01*
G01X-95850Y7400D01*
X-95810Y7480D01*
Y36130D01*
X-93600Y38340D01*
G03X-93550Y38550I-139J144D01*
G02X-91250Y36250I3750J1450D01*
G03X-91460Y36200I-66J-189D01*
G01X-92790Y34870D01*
Y7480D01*
X-92750Y7400D01*
X-92700Y7370D01*
G37*
G36*
G01X-77400Y-5840D02*
G02X-80600I-1600J-2560D01*
G03X-80510Y-5670I-116J170D01*
G01Y670D01*
G03X-81160Y980I-399J0D01*
G02X-86720Y4870I-2240J2717D01*
G03X-87230Y5380I-379J131D01*
G02X-85080Y7530I-1170J3320D01*
G03X-84570Y7020I379J-131D01*
G02X-81160Y6420I1174J-3320D01*
G03X-80510Y6730I251J310D01*
G01Y36200D01*
X-80570Y36300D01*
X-80630Y36330D01*
G02X-77370I1630J3672D01*
G01X-77430Y36300D01*
X-77490Y36200D01*
Y-5730D01*
X-77450Y-5810D01*
X-77400Y-5840D01*
G37*
G36*
G01X-116940Y-10490D02*
G02Y-7290I-2560J1600D01*
G01X-116910Y-7340D01*
X-116830Y-7380D01*
X-116230D01*
X-102110Y6740D01*
Y36200D01*
X-102170Y36300D01*
X-102230Y36330D01*
G02X-98970I1630J3672D01*
G01X-99030Y36300D01*
X-99090Y36200D01*
Y5480D01*
X-114970Y-10400D01*
X-116770D01*
G03X-116940Y-10490I0J-206D01*
G37*
G36*
G01X-66600Y-11040D02*
G02X-69800I-1600J-2560D01*
G01X-69750Y-11010D01*
X-69710Y-10930D01*
Y36200D01*
X-69770Y36300D01*
X-69830Y36330D01*
G02X-66570I1630J3672D01*
G01X-66630Y36300D01*
X-66690Y36200D01*
Y-10930D01*
X-66650Y-11010D01*
X-66600Y-11040D01*
G37*
G54D22*
X-181600Y45400D03*
G54D25*
X-122200Y40000D03*
%LPD*%
G75*
G54D10*
X-195000Y-20000D03*
Y-30000D03*
X-165000Y-20000D03*
Y-30000D03*
X-175000Y-20000D03*
Y-30000D03*
X-185000Y-20000D03*
Y-30000D03*
X-155000D03*
X-60000Y-20000D03*
X-50000Y-30000D03*
Y-20000D03*
X-40000Y-30000D03*
Y-20000D03*
X-30000Y-30000D03*
Y-20000D03*
X-20000Y-30000D03*
Y-20000D03*
X-10000Y-30000D03*
Y-20000D03*
X0Y-30000D03*
Y-20000D03*
X10000Y-30000D03*
Y-20000D03*
X49200Y-52500D03*
Y-44400D03*
Y-36200D03*
Y-28100D03*
Y-19900D03*
Y-11800D03*
Y-3700D03*
Y4400D03*
Y12500D03*
Y20600D03*
Y28700D03*
Y36800D03*
Y44900D03*
Y53000D03*
Y61100D03*
Y69200D03*
Y77200D03*
G54D20*
G01X81890Y40000D02*
X81650Y40240D01*
Y45850D01*
X89770Y53970D01*
Y57720D01*
G01X137010D02*
Y40000D01*
G01X184300Y46500D02*
X192130Y54330D01*
Y57720D01*
G01X184250Y40000D02*
X184300Y40050D01*
Y46500D01*
G54D11*
G01X134800Y-14800D02*
X147600D01*
X-195800Y13800D03*
X-199750Y3200D03*
X-211400Y25100D03*
X-190500Y30210D03*
X-172400Y-46810D03*
X-184220Y-37940D03*
X-165000Y-37700D03*
X-159400Y-46740D03*
X-180680Y-34400D03*
X-170500Y-8710D03*
X-170100Y4800D03*
X-175000Y10550D03*
X-154400Y-43210D03*
X-143790Y-24400D03*
X-137290Y-20000D03*
X-139490Y-2700D03*
X-132630Y3900D03*
X-129100Y-1100D03*
X-148100Y33350D03*
X-122900Y-34400D03*
X-119500Y-8890D03*
X-125800Y-11890D03*
X-81300Y-39110D03*
X-74300Y-21100D03*
X-79000Y-8400D03*
X-68200Y-13600D03*
X-94300Y4810D03*
X-83400Y22910D03*
X-53300Y-1800D03*
X-25600Y-7310D03*
X-34200Y1100D03*
X-25400Y19500D03*
X-30400Y26450D03*
X6700Y-45900D03*
X14320Y-36390D03*
X-4200Y-10610D03*
X4100Y6010D03*
Y13300D03*
X-4300Y10000D03*
X101040Y17100D03*
X134800Y-14800D03*
X157020Y-21400D03*
X147600Y-14800D03*
X147780Y13500D03*
X148820Y48610D03*
X160130Y45300D03*
X155250Y50750D03*
X149860Y73090D03*
X180650Y-29270D03*
X175210Y-16000D03*
X192130D03*
X172980Y49400D03*
X188520Y61980D03*
X203610D03*
G54D21*
G01X-225000Y-55000D02*
Y80000D01*
X230000D01*
Y-55000D01*
X-225000D01*
G54D12*
X-181600Y45400D03*
X2300Y52700D03*
G54D13*
X-155000Y-20000D03*
X-60000Y-30000D03*
G54D14*
X-133000Y40000D03*
X-143800D03*
X-154600D03*
X-127600Y50800D03*
X-138400D03*
X-149200D03*
X-100600Y40000D03*
X-111400D03*
X-122200D03*
X-106000Y50800D03*
X-116800D03*
X-68200Y40000D03*
X-79000D03*
X-89800D03*
X-73600Y50800D03*
X-84400D03*
X-95200D03*
X-35800Y40000D03*
X-46600D03*
X-57400D03*
X-41200Y50800D03*
X-52000D03*
X-62800D03*
X-30400D03*
G54D15*
X-117000Y-1100D03*
X-122000Y3900D03*
X-117000Y8900D03*
X-83400Y3700D03*
X-88400Y8700D03*
X-83400Y13700D03*
X-49000Y7500D03*
X-54000Y12500D03*
X-49000Y17500D03*
X74020Y-25010D03*
X81890Y-32880D03*
Y-25010D03*
Y-7870D03*
X74020D03*
X81890Y0D03*
X74020D03*
X81890Y40000D03*
Y32130D03*
X74020Y40000D03*
Y32130D03*
Y65590D03*
X81890Y57720D03*
Y65590D03*
X89770Y-32880D03*
Y-25010D03*
X97640Y-32880D03*
Y-25010D03*
X105520Y-32880D03*
Y-25010D03*
X113390Y-32880D03*
Y-25010D03*
Y-7870D03*
X105510D03*
X97640D03*
X89760D03*
X113390Y0D03*
X105510D03*
X97640D03*
X89760D03*
X113390Y40000D03*
Y32130D03*
X105510Y40000D03*
Y32130D03*
X97640Y40000D03*
Y32130D03*
X89760Y40000D03*
Y32130D03*
X89770Y57720D03*
Y65590D03*
X97640Y57720D03*
Y65590D03*
X105520Y57720D03*
Y65590D03*
X113390Y57720D03*
Y65590D03*
X121260Y-32880D03*
Y-25010D03*
X129140Y-32880D03*
Y-25010D03*
X137010Y-32880D03*
Y-25010D03*
Y-7870D03*
X129130D03*
X121260D03*
X137010Y0D03*
X129130D03*
X121260D03*
X137010Y40000D03*
Y32130D03*
X129130Y40000D03*
Y32130D03*
X121260Y40000D03*
Y32130D03*
Y57720D03*
Y65590D03*
X129140Y57720D03*
Y65590D03*
X137010Y57720D03*
Y65590D03*
X144890Y-32880D03*
Y-25010D03*
X152760Y-32880D03*
Y-25010D03*
X160630Y-32880D03*
Y-25010D03*
X168510Y-32880D03*
Y-25010D03*
X168500Y-7870D03*
X160630D03*
X152760D03*
X144880D03*
X168500Y0D03*
X160630D03*
X152760D03*
X144880D03*
X168500Y40000D03*
Y32130D03*
X160630Y40000D03*
Y32130D03*
X152760Y40000D03*
Y32130D03*
X144880Y40000D03*
Y32130D03*
X144890Y57720D03*
Y65590D03*
X152760Y57720D03*
Y65590D03*
X160630Y57720D03*
Y65590D03*
X168510Y57720D03*
Y65590D03*
X176380Y-32880D03*
Y-25010D03*
X184260Y-32880D03*
Y-25010D03*
X192130Y-32880D03*
Y-25010D03*
X200000Y-32880D03*
Y-25010D03*
Y-7870D03*
X192130D03*
X184250D03*
X176380D03*
X192130Y0D03*
X184250D03*
X176380D03*
X200000Y32130D03*
X192130Y40000D03*
Y32130D03*
X184250Y40000D03*
Y32130D03*
X176380Y40000D03*
Y32130D03*
Y57720D03*
Y65590D03*
X184260Y57720D03*
Y65590D03*
X192130Y57720D03*
Y65590D03*
X200000Y57720D03*
Y65590D03*
G54D16*
X-25000Y40000D03*
G54D17*
X74020Y-32880D03*
Y57720D03*
X200000Y0D03*
Y40000D03*
G54D18*
G01X105520Y-32880D02*
Y-34780D01*
X100420Y-39880D01*
X70180D01*
X62000Y-31700D01*
Y63100D01*
X71800Y72900D01*
X106350D01*
X109450Y69800D01*
Y61650D01*
X105520Y57720D01*
G01X113390D02*
X117300Y61630D01*
Y69800D01*
X111800Y75300D01*
X71200D01*
X60200Y64300D01*
Y-32700D01*
X69780Y-42280D01*
X103990D01*
X113390Y-32880D01*
G01X121260D02*
X117280Y-28900D01*
X103080D01*
X101500Y-30480D01*
Y-36100D01*
X99600Y-38000D01*
X71100D01*
X63800Y-30700D01*
Y62400D01*
X72400Y71000D01*
X99040D01*
X101500Y68540D01*
Y55310D01*
X104000Y52810D01*
X116350D01*
X121260Y57720D01*
G01X81890Y65590D02*
X78300Y62000D01*
Y53100D01*
X68400Y43200D01*
Y-11520D01*
X81890Y-25010D01*
G01X74020D02*
X66200Y-17190D01*
Y60100D01*
X71690Y65590D01*
X74020D01*
G01Y40000D02*
X70620Y36600D01*
Y3400D01*
X74020Y0D01*
G01X113390Y-7870D02*
X109400Y-3880D01*
Y6220D01*
X113390Y10210D01*
Y32130D01*
G01X97640Y-7870D02*
X101700Y-3810D01*
Y7040D01*
X97640Y11100D01*
Y32130D01*
G01X105510Y40000D02*
X109400Y36110D01*
Y15500D01*
X105510Y11610D01*
Y0D01*
G01X97640Y40000D02*
X101040Y36600D01*
Y17100D01*
G01X89760Y40000D02*
X86360Y36600D01*
Y3400D01*
X89760Y0D01*
G01X121260Y32130D02*
X117400Y28270D01*
Y-4010D01*
X121260Y-7870D01*
G01X129130Y40000D02*
X132530Y36600D01*
Y4190D01*
X131740Y3400D01*
X131630D01*
X129130Y900D01*
Y0D01*
G01X121260Y40000D02*
X124660Y36600D01*
Y3400D01*
X121260Y0D01*
G01X144890Y-25010D02*
X140800Y-29100D01*
Y-37300D01*
X150700Y-47200D01*
X206290D01*
X223800Y-29690D01*
Y68200D01*
X213700Y78300D01*
X150500D01*
X144890Y72690D01*
Y65590D01*
G01X160630D02*
X167740Y72700D01*
X208600D01*
X217200Y64100D01*
Y-27900D01*
X204300Y-40800D01*
X167400D01*
X164600Y-38000D01*
Y-28980D01*
X160630Y-25010D01*
G01X149860Y73090D02*
X153270Y76500D01*
X212000D01*
X221600Y66900D01*
Y-29400D01*
X205800Y-45200D01*
X155710D01*
X144890Y-34380D01*
Y-32880D01*
G01X152760Y65590D02*
X161770Y74600D01*
X209700D01*
X219300Y65000D01*
Y-29000D01*
X205500Y-42800D01*
X162000D01*
X156800Y-37600D01*
Y-29050D01*
X152760Y-25010D01*
G01X157020Y-21400D02*
X162420Y-16000D01*
X175210D01*
G01X144880Y-7870D02*
X149000Y-3750D01*
Y9380D01*
X147780Y10600D01*
Y13500D01*
G01X152760Y32130D02*
X154120D01*
X156690Y29560D01*
Y-3940D01*
X152760Y-7870D01*
G01X168500D02*
X165000Y-4370D01*
Y23300D01*
X168500Y26800D01*
Y32130D01*
G01Y40000D02*
X171910Y36590D01*
Y3410D01*
X168500Y0D01*
G01X160630D02*
Y25590D01*
X164500Y29460D01*
Y38330D01*
X162830Y40000D01*
X160630D01*
G01X144880Y0D02*
Y22480D01*
X148800Y26400D01*
Y35380D01*
X144880Y39300D01*
Y40000D01*
G01X152760Y57720D02*
X148820Y53780D01*
Y48610D01*
G01X200000Y65590D02*
X209210D01*
X213000Y61800D01*
Y-25590D01*
X202000Y-36590D01*
X183150D01*
X180650Y-34090D01*
Y-29270D01*
G01X176380Y57720D02*
X180400Y61740D01*
Y68200D01*
X182900Y70700D01*
X207400D01*
X215200Y62900D01*
Y-26800D01*
X203000Y-39000D01*
X180910D01*
X176380Y-34470D01*
Y-32880D01*
G01X192130Y-25010D02*
Y-16000D01*
G01X200000Y-32880D02*
X210200Y-22680D01*
Y47520D01*
X200000Y57720D01*
G01X176380Y32130D02*
X179780Y28730D01*
Y-4470D01*
X176380Y-7870D01*
G01X192130D02*
X195900Y-4100D01*
Y10930D01*
X192130Y14700D01*
Y32130D01*
G01X200000Y-7870D02*
X205300Y-2570D01*
Y26830D01*
X200000Y32130D01*
G01Y40000D02*
X196600Y36600D01*
Y23100D01*
X200000Y19700D01*
Y0D01*
G01X176380Y65590D02*
X172980Y62190D01*
Y49400D01*
G01X188520Y61980D02*
X203610D01*
G54D19*
G01X-211400Y25100D02*
X-204750Y18450D01*
Y-26900D01*
X-197250Y-34400D01*
X-180680D01*
G01X-195800Y13800D02*
X-179400Y-2600D01*
Y-25600D01*
X-175000Y-30000D01*
G01X-57400Y40000D02*
Y53400D01*
X-69700Y65700D01*
X-190500D01*
X-199750Y56450D01*
Y3200D01*
G01X-62800Y50800D02*
X-74900Y62900D01*
X-187700D01*
X-196800Y53800D01*
Y31550D01*
X-187200Y21950D01*
X-181600D01*
X-170100Y10450D01*
Y4800D01*
G01X-133000Y40000D02*
X-137300Y44300D01*
X-157760D01*
X-171850Y30210D01*
X-190500D01*
G01X-175000Y-30000D02*
Y-36300D01*
X-172400Y-38900D01*
Y-46810D01*
G01X-51400Y-34400D02*
X-67110Y-50110D01*
X-175720D01*
X-184220Y-41610D01*
Y-37940D01*
G01X-165000Y-30000D02*
Y-37700D01*
G01X-175000Y-20000D02*
Y10550D01*
G01X-170500Y-20000D02*
Y-8710D01*
G01X-165000Y-20000D02*
X-170500D01*
G01D02*
X-175000D01*
G01X-154600Y40000D02*
X-159400Y35200D01*
Y-46740D01*
G01X-154400Y-43210D02*
X-148100Y-36910D01*
Y33350D01*
G01X-143790Y-24400D02*
X-138190Y-30000D01*
X-60000D01*
G01X-143800Y40000D02*
Y32500D01*
X-143790Y32490D01*
Y-24400D01*
G01X-137290Y-20000D02*
X-132890Y-24400D01*
X-55600D01*
G01X-139490Y-2700D02*
Y-2290D01*
X-133300Y3900D01*
X-132630D01*
G01X-149200Y50800D02*
X-138400D01*
G01X-129100Y-1100D02*
Y-13600D01*
X-121600Y-21100D01*
X-74300D01*
G01X-81300Y-39110D02*
X-86010Y-34400D01*
X-122900D01*
G01X-111400Y40000D02*
Y26500D01*
X-125800Y12100D01*
Y-11890D01*
G01X-100600Y40000D02*
Y6110D01*
X-115600Y-8890D01*
X-119500D01*
G01X-106500Y19400D02*
X-117000Y8900D01*
G01X-106500Y42800D02*
Y19400D01*
G01X-103600Y45700D02*
X-106500Y42800D01*
G01X-85700Y45700D02*
X-103600D01*
G01X-106000Y50800D02*
X-116800D01*
G01X-127600D02*
X-116800D01*
G01X-89800Y40000D02*
X-94300Y35500D01*
Y4810D01*
G01X-79000Y40000D02*
Y-8400D01*
G01X-83400Y13700D02*
Y22910D01*
G01X-84400Y23910D02*
Y44400D01*
G01D02*
Y50800D01*
G01X-83400Y22910D02*
X-84400Y23910D01*
G01Y44400D02*
X-85700Y45700D01*
G01X-84400Y50800D02*
X-95200D01*
G01X-73600D02*
X-84400D01*
G01X-50000Y-30000D02*
Y-33000D01*
X-51400Y-34400D01*
G01X-25600Y-7310D02*
X-24900Y-8010D01*
Y-32100D01*
X-27200Y-34400D01*
X-51400D01*
G01X-68200Y40000D02*
Y-13600D01*
G01X-40000Y-30000D02*
X-45600Y-24400D01*
X-55600D01*
G01D02*
Y-8200D01*
X-57800Y-6000D01*
Y31350D01*
X-52400Y36750D01*
Y41900D01*
X-43500Y50800D01*
X-41200D01*
G01X-10000Y-30000D02*
X-14400Y-25600D01*
Y-13500D01*
X-35400Y7500D01*
X-49000D01*
G01X-53300Y-1800D02*
X-49000Y2500D01*
Y7500D01*
G01X-46600Y40000D02*
Y35150D01*
X-34600Y23150D01*
X-17450D01*
X-4300Y10000D01*
G01X-20000Y-30000D02*
X-13610Y-36390D01*
X14320D01*
G01X-34200Y1100D02*
X-35000Y300D01*
Y-25000D01*
X-30000Y-30000D01*
G01X-10000Y-15400D02*
X-8800Y-14200D01*
G01X-10000Y-20000D02*
Y-15400D01*
G01X-25400Y16170D02*
X-8800Y-430D01*
G01X-25400Y19500D02*
Y16170D01*
G01X-30400Y50800D02*
Y26450D01*
G01X6700Y-45900D02*
X10220D01*
X19220Y-36900D01*
Y-22610D01*
X7220Y-10610D01*
X-4200D01*
G01X-8800Y-430D02*
Y-14200D01*
G01X4200D02*
X-8800D01*
G01X10000Y-20000D02*
X4200Y-14200D01*
G01X4100Y6010D02*
Y13300D01*
G01X155250Y50750D02*
X162850D01*
X168400Y45200D01*
X176800D01*
X178100Y46500D01*
X184300D01*
G01X192130Y-32880D02*
Y-32230D01*
X187860Y-27960D01*
X187810Y-27900D01*
Y-26570D01*
X187860Y-26520D01*
Y-23510D01*
X187800Y-23450D01*
Y-9420D01*
X187850Y-9370D01*
Y-6370D01*
X187800Y-6320D01*
Y-3500D01*
X184300Y0D01*
X184250D01*
M02*
