G04 ================== begin FILE IDENTIFICATION RECORD ==================*
G04 Layout Name:  E:/PCB/PPC_JTAG.brd*
G04 Film Name:    Solder_Bottom*
G04 File Format:  Gerber RS274X*
G04 File Origin:  15.7-p007*
G04 Origin Date:  Thu Jan 17 16:59:20 2008*
G04 *
G04 Layer:  PIN/SOLDERMASK_BOTTOM*
G04 Layer:  BOARD GEOMETRY/OUTLINE*
G04 *
G04 Offset:    (0.0 0.0)*
G04 Mirror:    No*
G04 Mode:      Positive*
G04 Rotation:  0*
G04 FullContactRelief:  No*
G04 UndefLineWidth:     8.0*
G04 ================== end FILE IDENTIFICATION RECORD ====================*
%FSLAX55Y55*MOIN*%
%IR0*IPPOS*OFA0.00000B0.00000*MIA0B0*SFA1.00000B1.00000*%
%ADD11C,.26*%
%ADD12R,.07X.07*%
%ADD10C,.07*%
%ADD13C,.075*%
%ADD15C,.058*%
%ADD16R,.058X.058*%
%ADD14R,.075X.075*%
%ADD17C,.008*%
G75*
%LPD*%
G75*
G54D10*
X-195000Y-20000D03*
Y-30000D03*
X-165000Y-20000D03*
Y-30000D03*
X-175000Y-20000D03*
Y-30000D03*
X-185000Y-20000D03*
Y-30000D03*
X-155000D03*
X-117000Y-1100D03*
X-122000Y3900D03*
X-117000Y8900D03*
X-83400Y3700D03*
X-88400Y8700D03*
X-83400Y13700D03*
X-60000Y-20000D03*
X-50000Y-30000D03*
Y-20000D03*
X-40000Y-30000D03*
Y-20000D03*
X-49000Y7500D03*
X-54000Y12500D03*
X-49000Y17500D03*
X-30000Y-30000D03*
Y-20000D03*
X-20000Y-30000D03*
Y-20000D03*
X-10000Y-30000D03*
Y-20000D03*
X0Y-30000D03*
Y-20000D03*
X10000Y-30000D03*
Y-20000D03*
X49200Y-52500D03*
Y-44400D03*
Y-36200D03*
Y-28100D03*
Y-19900D03*
Y-11800D03*
Y-3700D03*
Y4400D03*
Y12500D03*
Y20600D03*
Y28700D03*
Y36800D03*
Y44900D03*
Y53000D03*
Y61100D03*
Y69200D03*
Y77200D03*
G54D11*
X-181600Y45400D03*
X2300Y52700D03*
G54D12*
X-155000Y-20000D03*
X-60000Y-30000D03*
G54D13*
X-133000Y40000D03*
X-143800D03*
X-154600D03*
X-127600Y50800D03*
X-138400D03*
X-149200D03*
X-100600Y40000D03*
X-111400D03*
X-122200D03*
X-106000Y50800D03*
X-116800D03*
X-68200Y40000D03*
X-79000D03*
X-89800D03*
X-73600Y50800D03*
X-84400D03*
X-95200D03*
X-35800Y40000D03*
X-46600D03*
X-57400D03*
X-41200Y50800D03*
X-52000D03*
X-62800D03*
X-30400D03*
G54D14*
X-25000Y40000D03*
G54D15*
X74020Y-25010D03*
X81890Y-32880D03*
Y-25010D03*
Y-7870D03*
X74020D03*
X81890Y0D03*
X74020D03*
X81890Y40000D03*
Y32130D03*
X74020Y40000D03*
Y32130D03*
Y65590D03*
X81890Y57720D03*
Y65590D03*
X89770Y-32880D03*
Y-25010D03*
X97640Y-32880D03*
Y-25010D03*
X105520Y-32880D03*
Y-25010D03*
X113390Y-32880D03*
Y-25010D03*
Y-7870D03*
X105510D03*
X97640D03*
X89760D03*
X113390Y0D03*
X105510D03*
X97640D03*
X89760D03*
X113390Y40000D03*
Y32130D03*
X105510Y40000D03*
Y32130D03*
X97640Y40000D03*
Y32130D03*
X89760Y40000D03*
Y32130D03*
X89770Y57720D03*
Y65590D03*
X97640Y57720D03*
Y65590D03*
X105520Y57720D03*
Y65590D03*
X113390Y57720D03*
Y65590D03*
X121260Y-32880D03*
Y-25010D03*
X129140Y-32880D03*
Y-25010D03*
X137010Y-32880D03*
Y-25010D03*
Y-7870D03*
X129130D03*
X121260D03*
X137010Y0D03*
X129130D03*
X121260D03*
X137010Y40000D03*
Y32130D03*
X129130Y40000D03*
Y32130D03*
X121260Y40000D03*
Y32130D03*
Y57720D03*
Y65590D03*
X129140Y57720D03*
Y65590D03*
X137010Y57720D03*
Y65590D03*
X144890Y-32880D03*
Y-25010D03*
X152760Y-32880D03*
Y-25010D03*
X160630Y-32880D03*
Y-25010D03*
X168510Y-32880D03*
Y-25010D03*
X168500Y-7870D03*
X160630D03*
X152760D03*
X144880D03*
X168500Y0D03*
X160630D03*
X152760D03*
X144880D03*
X168500Y40000D03*
Y32130D03*
X160630Y40000D03*
Y32130D03*
X152760Y40000D03*
Y32130D03*
X144880Y40000D03*
Y32130D03*
X144890Y57720D03*
Y65590D03*
X152760Y57720D03*
Y65590D03*
X160630Y57720D03*
Y65590D03*
X168510Y57720D03*
Y65590D03*
X176380Y-32880D03*
Y-25010D03*
X184260Y-32880D03*
Y-25010D03*
X192130Y-32880D03*
Y-25010D03*
X200000Y-32880D03*
Y-25010D03*
Y-7870D03*
X192130D03*
X184250D03*
X176380D03*
X192130Y0D03*
X184250D03*
X176380D03*
X200000Y32130D03*
X192130Y40000D03*
Y32130D03*
X184250Y40000D03*
Y32130D03*
X176380Y40000D03*
Y32130D03*
Y57720D03*
Y65590D03*
X184260Y57720D03*
Y65590D03*
X192130Y57720D03*
Y65590D03*
X200000Y57720D03*
Y65590D03*
G54D16*
X74020Y-32880D03*
Y57720D03*
X200000Y0D03*
Y40000D03*
G54D17*
G01X-225000Y-55000D02*
Y80000D01*
X230000D01*
Y-55000D01*
X-225000D01*
M02*
