G04 ================== begin FILE IDENTIFICATION RECORD ==================*
G04 Layout Name:  E:/PCB/RTL8139/to6.brd*
G04 Film Name:    BOTTOM*
G04 File Format:  Gerber RS274X*
G04 File Origin:  15.7-p007*
G04 Origin Date:  Tue Mar 18 11:06:14 2008*
G04 *
G04 Layer:  BOARD GEOMETRY/OUTLINE*
G04 Layer:  ETCH/BOTTOM*
G04 Layer:  PIN/BOTTOM*
G04 Layer:  VIA CLASS/BOTTOM*
G04 *
G04 Offset:    (0.0 0.0)*
G04 Mirror:    No*
G04 Mode:      Positive*
G04 Rotation:  0*
G04 FullContactRelief:  No*
G04 UndefLineWidth:     10.0*
G04 ================== end FILE IDENTIFICATION RECORD ====================*
%FSLAX55Y55*MOIN*%
%IR0*IPPOS*OFA0.00000B0.00000*MIA0B0*SFA1.00000B1.00000*%
%ADD11C,.13*%
%ADD17R,.03X.04*%
%ADD16R,.04X.03*%
%ADD18R,.05X.06*%
%ADD14C,.03*%
%ADD13C,.05*%
%ADD12C,.06*%
%AMMACRO15*
4,1,38,-.02,-.11,
-.02,.11,
-.019696,.113473,
-.018794,.11684,
-.017321,.12,
-.015321,.122856,
-.012856,.125321,
-.01,.127321,
-.00684,.128794,
-.003473,.129696,
0.0,.13,
.003473,.129696,
.00684,.128794,
.01,.127321,
.012856,.125321,
.015321,.122856,
.017321,.12,
.018794,.11684,
.019696,.113473,
.02,.11,
.02,-.11,
.019696,-.113473,
.018794,-.11684,
.017321,-.12,
.015321,-.122856,
.012856,-.125321,
.01,-.127321,
.00684,-.128794,
.003473,-.129696,
0.0,-.13,
-.003473,-.129696,
-.00684,-.128794,
-.01,-.127321,
-.012856,-.125321,
-.015321,-.122856,
-.017321,-.12,
-.018794,-.11684,
-.019696,-.113473,
-.02,-.11,
0.0*
%
%ADD15MACRO15*%
%ADD10C,.08*%
%ADD19C,.01*%
%ADD20C,.012*%
%ADD21C,.015*%
%ADD23C,.1004*%
%ADD24C,.1504*%
%ADD22C,.0804*%
G75*
%LPD*%
G75*
G36*
G01X115000Y1010D02*
X114010Y2000D01*
Y187000D01*
X115000Y187990D01*
X306090D01*
G02X306370Y187310I0J-398D01*
G01X295690Y176630D01*
Y71570D01*
X305070Y62190D01*
X313370D01*
X340490Y35070D01*
Y34610D01*
G02X340420Y34460I-196J0D01*
G03X340250Y34310I1580J-1961D01*
G02X339690Y34320I-275J290D01*
G01X337000Y37010D01*
X331000D01*
X328990Y35000D01*
Y31200D01*
G02X328790Y31000I-200J0D01*
G01X322250D01*
X322240D01*
G03X321760I-240J-3000D01*
G01X321750D01*
X312250D01*
X312240D01*
G03X311760I-240J-3000D01*
G01X311750D01*
X307250D01*
X307240D01*
G03X306760I-240J-3000D01*
G01X306750D01*
X303710D01*
G02X303510Y31200I0J200D01*
G01Y32140D01*
X301130Y34520D01*
X301120D01*
G02X300940Y34640I0J195D01*
G01X300910Y34700D01*
X300940Y34810D01*
X311320Y45190D01*
X312930D01*
X313010Y45150D01*
X313040Y45120D01*
G03Y48280I1961J1580D01*
G01X313010Y48250D01*
X312930Y48210D01*
X310060D01*
X297430Y35570D01*
G02X297260Y35520I-135J144D01*
G03X294900Y31620I-259J-2507D01*
G02X294560Y31000I-340J-217D01*
G01X293710D01*
G02X293510Y31200I0J200D01*
G01Y49430D01*
X293550Y49510D01*
X293580Y49540D01*
G03X290420I-1580J1961D01*
G01X290450Y49510D01*
X290490Y49430D01*
Y31200D01*
G02X290290Y31000I-200J0D01*
G01X282250D01*
X282240D01*
G03X281760I-240J-3000D01*
G01X281750D01*
X277250D01*
X277240D01*
G03X276760I-240J-3000D01*
G01X276750D01*
X275210D01*
G02X275010Y31200I0J200D01*
G01Y40000D01*
X273000Y42010D01*
X171000D01*
X168990Y40000D01*
Y2000D01*
X168000Y1010D01*
X115000D01*
G37*
G36*
G01X378710Y31000D02*
G02X378510Y31200I0J200D01*
G01Y48600D01*
G02X378580Y48750I196J0D01*
G03X377630Y53150I-1581J1961D01*
G02X377450Y53820I101J386D01*
G01X394110Y70480D01*
Y121410D01*
G02X394270Y121600I193J0D01*
G03X396140Y125020I-469J2478D01*
G02X396510Y125570I370J151D01*
G01X420930D01*
G02X421080Y125500I0J-196D01*
G03Y128660I1961J1580D01*
G01X421050Y128630D01*
X420970Y128590D01*
X391740D01*
X390850Y127700D01*
G02X390510Y127860I-141J141D01*
G01X390520Y127930D01*
X390450Y128610D01*
X390250Y129290D01*
X389910Y129900D01*
X389480Y130410D01*
X388970Y130840D01*
X388360Y131180D01*
X387680Y131380D01*
X387080Y131440D01*
X372080D01*
X371900Y131460D01*
X371820Y131480D01*
X371750Y131520D01*
X371660Y131590D01*
X371590Y131680D01*
X371550Y131750D01*
X371530Y131830D01*
X371520Y131930D01*
X371530Y132030D01*
X371550Y132110D01*
X371590Y132180D01*
X371660Y132270D01*
X371750Y132340D01*
X371820Y132380D01*
X371900Y132400D01*
X372080Y132420D01*
X387000D01*
G03X390510Y135930I0J3510D01*
G01Y136790D01*
G02X390710Y136990I200J0D01*
G01X393590D01*
G02X393790Y136790I0J-200D01*
G01Y134310D01*
G02X393720Y134160I-196J0D01*
G03X396880I1580J-1961D01*
G01X396850Y134190D01*
X396810Y134270D01*
Y136790D01*
G02X397010Y136990I200J0D01*
G01X398010D01*
Y142010D01*
X385990D01*
Y136990D01*
X387290D01*
G02X387490Y136790I0J-200D01*
G01Y135930D01*
G02X387000Y135440I-490J0D01*
G01X371920D01*
X371320Y135380D01*
X370640Y135180D01*
X370030Y134840D01*
X369520Y134410D01*
X369090Y133900D01*
X368750Y133290D01*
X368550Y132610D01*
X368480Y131930D01*
X368550Y131250D01*
X368750Y130570D01*
X369090Y129960D01*
X369520Y129450D01*
X370030Y129020D01*
X370640Y128680D01*
X371320Y128480D01*
X371920Y128420D01*
X386920D01*
X387100Y128400D01*
X387180Y128380D01*
X387250Y128340D01*
X387340Y128270D01*
X387410Y128180D01*
X387450Y128110D01*
X387470Y128030D01*
X387480Y127930D01*
X387470Y127830D01*
X387450Y127750D01*
X387410Y127680D01*
X387340Y127590D01*
X387250Y127520D01*
X387180Y127480D01*
X387100Y127460D01*
X386920Y127440D01*
X371920D01*
X371320Y127380D01*
X370640Y127180D01*
X370030Y126840D01*
X369520Y126410D01*
X369090Y125900D01*
X368750Y125290D01*
X368550Y124610D01*
X368480Y123930D01*
X368550Y123250D01*
X368750Y122570D01*
X369090Y121960D01*
X369520Y121450D01*
X370030Y121020D01*
X370640Y120680D01*
X371320Y120480D01*
X371920Y120420D01*
X386920D01*
X387100Y120400D01*
X387180Y120380D01*
X387250Y120340D01*
X387340Y120270D01*
X387410Y120180D01*
X387450Y120110D01*
X387470Y120030D01*
X387480Y119930D01*
X387470Y119830D01*
X387450Y119750D01*
X387410Y119680D01*
X387340Y119590D01*
X387250Y119520D01*
X387180Y119480D01*
X387100Y119460D01*
X386920Y119440D01*
X371920D01*
X371320Y119380D01*
X370640Y119180D01*
X370030Y118840D01*
X369520Y118410D01*
X369090Y117900D01*
X368750Y117290D01*
X368550Y116610D01*
X368480Y115930D01*
X368550Y115250D01*
X368750Y114570D01*
X369090Y113960D01*
X369520Y113450D01*
X370030Y113020D01*
X370640Y112680D01*
X371320Y112480D01*
X371920Y112420D01*
X386920D01*
X387100Y112400D01*
X387180Y112380D01*
X387250Y112340D01*
X387340Y112270D01*
X387410Y112180D01*
X387450Y112110D01*
X387470Y112030D01*
X387480Y111930D01*
X387470Y111830D01*
X387450Y111750D01*
X387410Y111680D01*
X387340Y111590D01*
X387250Y111520D01*
X387180Y111480D01*
X387100Y111460D01*
X386920Y111440D01*
X371920D01*
X371320Y111380D01*
X370640Y111180D01*
X370030Y110840D01*
X369520Y110410D01*
X369090Y109900D01*
X368750Y109290D01*
X368550Y108610D01*
X368480Y107930D01*
X368550Y107250D01*
X368750Y106570D01*
X369090Y105960D01*
X369520Y105450D01*
X370030Y105020D01*
X370640Y104680D01*
X371320Y104480D01*
X371920Y104420D01*
X386920D01*
X387100Y104400D01*
X387180Y104380D01*
X387250Y104340D01*
X387340Y104270D01*
X387410Y104180D01*
X387450Y104110D01*
X387470Y104030D01*
X387480Y103930D01*
X387470Y103830D01*
X387450Y103750D01*
X387410Y103680D01*
X387340Y103590D01*
X387250Y103520D01*
X387180Y103480D01*
X387100Y103460D01*
X386920Y103440D01*
X371920D01*
X371320Y103380D01*
X370640Y103180D01*
X370030Y102840D01*
X369520Y102410D01*
X369090Y101900D01*
X368750Y101290D01*
X368550Y100610D01*
X368480Y99930D01*
X368550Y99250D01*
X368750Y98570D01*
X369090Y97960D01*
X369520Y97450D01*
X370030Y97020D01*
X370640Y96680D01*
X371320Y96480D01*
X371920Y96420D01*
X386920D01*
X387100Y96400D01*
X387180Y96380D01*
X387250Y96340D01*
X387340Y96270D01*
X387410Y96180D01*
X387450Y96110D01*
X387470Y96030D01*
X387480Y95930D01*
X387470Y95830D01*
X387450Y95750D01*
X387410Y95680D01*
X387340Y95590D01*
X387250Y95520D01*
X387180Y95480D01*
X387100Y95460D01*
X386920Y95440D01*
X371920D01*
X371320Y95380D01*
X370640Y95180D01*
X370030Y94840D01*
X369520Y94410D01*
X369090Y93900D01*
X368750Y93290D01*
X368550Y92610D01*
X368480Y91930D01*
X368550Y91250D01*
X368750Y90570D01*
X369090Y89960D01*
X369340Y89660D01*
G02X369190Y89330I-150J-131D01*
G01X360330D01*
X360250Y89370D01*
X360220Y89400D01*
G03X356300I-1960J-1581D01*
G01X356270Y89370D01*
X356190Y89330D01*
X354130D01*
X354060Y89400D01*
G02X354040Y89660I140J142D01*
G03X350420Y89180I-2038J1481D01*
G02X350490Y89030I-126J-150D01*
G01Y88690D01*
X352170Y87010D01*
G02X351890Y86330I-280J-282D01*
G01X314070D01*
X313990Y86370D01*
X313960Y86400D01*
G03Y83240I-1961J-1580D01*
G01X313990Y83270D01*
X314070Y83310D01*
X362190D01*
X362270Y83270D01*
X362300Y83240D01*
G03X366600Y85760I1961J1582D01*
G02X366970Y86310I370J151D01*
G01X369760D01*
G02X369920Y85980I0J-204D01*
G01X369790Y85830D01*
X369450Y85220D01*
X369250Y84540D01*
X369180Y83860D01*
X369250Y83180D01*
X369440Y82530D01*
X369760Y81910D01*
X370160Y81430D01*
X379580Y72000D01*
X379680Y71880D01*
X379720Y71810D01*
X379750Y71700D01*
X379760Y71600D01*
X379750Y71510D01*
X379730Y71430D01*
X379680Y71350D01*
X379620Y71270D01*
X379550Y71210D01*
X379460Y71160D01*
X379380Y71140D01*
X379280Y71130D01*
X379180Y71140D01*
X379100Y71160D01*
X379030Y71200D01*
X378890Y71320D01*
X369470Y80740D01*
X368990Y81140D01*
X368370Y81460D01*
X367720Y81650D01*
X367040Y81720D01*
X366360Y81650D01*
X365680Y81450D01*
X365070Y81110D01*
X364560Y80680D01*
X364130Y80170D01*
X363790Y79560D01*
X363590Y78880D01*
X363520Y78200D01*
X363590Y77520D01*
X363780Y76870D01*
X364100Y76250D01*
X364500Y75770D01*
X373920Y66340D01*
X374020Y66220D01*
X374060Y66150D01*
X374090Y66040D01*
X374100Y65940D01*
X374090Y65850D01*
X374070Y65770D01*
X374020Y65690D01*
X373960Y65610D01*
X373890Y65550D01*
X373800Y65500D01*
X373720Y65480D01*
X373620Y65470D01*
X373520Y65480D01*
X373440Y65500D01*
X373370Y65540D01*
X373230Y65660D01*
X363810Y75080D01*
X363330Y75480D01*
X362710Y75800D01*
X362060Y75990D01*
X361380Y76060D01*
X360700Y75990D01*
X360020Y75790D01*
X359410Y75450D01*
X358900Y75020D01*
X358470Y74510D01*
X358130Y73900D01*
X357930Y73220D01*
X357860Y72540D01*
X357930Y71860D01*
X358120Y71210D01*
X358440Y70590D01*
X358840Y70110D01*
X368260Y60680D01*
X368360Y60560D01*
X368400Y60490D01*
X368430Y60380D01*
X368440Y60280D01*
X368430Y60190D01*
X368410Y60110D01*
X368360Y60030D01*
X368300Y59950D01*
X368230Y59890D01*
X368140Y59840D01*
X368060Y59820D01*
X367960Y59810D01*
X367860Y59820D01*
X367780Y59840D01*
X367710Y59880D01*
X367570Y60000D01*
X358150Y69420D01*
X357670Y69820D01*
X357050Y70140D01*
X356400Y70330D01*
X355720Y70400D01*
X355040Y70330D01*
X354360Y70130D01*
X353750Y69790D01*
X353240Y69360D01*
X352810Y68850D01*
X352470Y68240D01*
X352270Y67560D01*
X352200Y66880D01*
X352270Y66200D01*
X352460Y65550D01*
X352780Y64930D01*
X353180Y64450D01*
X362600Y55020D01*
X362700Y54900D01*
X362740Y54830D01*
X362770Y54720D01*
X362780Y54620D01*
X362770Y54530D01*
X362750Y54450D01*
X362700Y54370D01*
X362640Y54290D01*
X362570Y54230D01*
X362480Y54180D01*
X362400Y54160D01*
X362300Y54150D01*
X362200Y54160D01*
X362120Y54180D01*
X362050Y54220D01*
X361910Y54340D01*
X352490Y63760D01*
X352010Y64160D01*
X351390Y64480D01*
X350740Y64670D01*
X350060Y64740D01*
X349380Y64670D01*
X348700Y64470D01*
X348090Y64130D01*
X347580Y63700D01*
X347150Y63190D01*
X346810Y62580D01*
X346610Y61900D01*
X346540Y61220D01*
X346610Y60540D01*
X346800Y59890D01*
X347120Y59270D01*
X347520Y58790D01*
X356940Y49360D01*
X357040Y49240D01*
X357080Y49170D01*
X357110Y49060D01*
X357120Y48960D01*
X357110Y48870D01*
X357090Y48790D01*
X357040Y48710D01*
X356980Y48630D01*
X356910Y48570D01*
X356820Y48520D01*
X356740Y48500D01*
X356640Y48490D01*
X356540Y48500D01*
X356460Y48520D01*
X356390Y48560D01*
X356250Y48680D01*
X346830Y58100D01*
X346350Y58500D01*
X345730Y58820D01*
X345080Y59010D01*
X344400Y59080D01*
X343720Y59010D01*
X343040Y58810D01*
X342430Y58470D01*
X341920Y58040D01*
X341490Y57530D01*
X341150Y56920D01*
X340950Y56240D01*
X340880Y55560D01*
X340950Y54880D01*
X341140Y54230D01*
X341460Y53610D01*
X341860Y53130D01*
X350490Y44500D01*
Y31200D01*
G02X350290Y31000I-200J0D01*
G01X344700D01*
G02X344330Y31550I0J399D01*
G03X343580Y34460I-2332J951D01*
G02X343510Y34610I126J150D01*
G01Y36330D01*
X315030Y64810D01*
G02X315310Y65490I280J282D01*
G01X317430D01*
X317510Y65450D01*
X317540Y65420D01*
G03Y68580I1961J1580D01*
G01X317510Y68550D01*
X317430Y68510D01*
X310070D01*
X309990Y68550D01*
X309960Y68580D01*
G03X305480Y67020I-1961J-1582D01*
G02X304800Y66740I-398J0D01*
G01X298710Y72830D01*
Y175370D01*
X308330Y184990D01*
X533900D01*
G02X534050Y184920I0J-196D01*
G03X538350Y187440I1961J1582D01*
G02X538720Y187990I370J151D01*
G01X582000D01*
X583990Y186000D01*
Y31200D01*
G02X583790Y31000I-200J0D01*
G01X583710D01*
G02X583510Y31200I0J200D01*
G01Y32360D01*
X581060Y34810D01*
X579110D01*
G02X578960Y34880I0J196D01*
G03X578580Y35260I-1961J-1581D01*
G01X578550Y35290D01*
X578510Y35370D01*
Y128430D01*
X527630Y179310D01*
X441070D01*
X440990Y179350D01*
X440960Y179380D01*
G03Y176220I-1961J-1580D01*
G01X440990Y176250D01*
X441070Y176290D01*
X526370D01*
X575490Y127170D01*
Y35410D01*
G02X575420Y35260I-196J0D01*
G03X575090Y31660I1581J-1960D01*
G02X574780Y31000I-310J-257D01*
G01X572250D01*
X572240D01*
G03X571760I-240J-3000D01*
G01X571750D01*
X569700D01*
G02X569330Y31550I0J399D01*
G03X568580Y34460I-2332J951D01*
G02X568510Y34610I126J150D01*
G01Y114920D01*
X558630Y124800D01*
X533030D01*
X532110Y125720D01*
Y155290D01*
G02X532180Y155440I196J0D01*
G03X529020I-1580J1961D01*
G01X529050Y155410D01*
X529090Y155330D01*
Y124460D01*
X530120Y123430D01*
G02Y123150I-141J-140D01*
G01X518480Y111510D01*
X504070D01*
X503990Y111550D01*
X503960Y111580D01*
G03X500250Y111820I-1965J-1579D01*
G01X500200Y111760D01*
X499710D01*
G02X499510Y111960I0J200D01*
G01Y112510D01*
X493490D01*
Y107490D01*
X499510D01*
Y108040D01*
G02X499710Y108240I200J0D01*
G01X500200D01*
X500250Y108180D01*
G03X503960Y108420I1745J1819D01*
G02X504110Y108490I150J-126D01*
G01X519740D01*
X533030Y121780D01*
X554520D01*
G02X554860Y121170I0J-400D01*
G03X557270Y117340I2148J-1322D01*
G01X557320Y117350D01*
X557410Y117320D01*
X560490Y114230D01*
Y31200D01*
G02X560290Y31000I-200J0D01*
G01X553710D01*
G02X553510Y31200I0J200D01*
G01Y40650D01*
X550510Y43650D01*
Y66390D01*
X551510Y67390D01*
Y68910D01*
G02X551580Y69060I196J0D01*
G03X548420I-1580J1961D01*
G01X548450Y69030D01*
X548490Y68950D01*
Y68650D01*
X547490Y67650D01*
Y60910D01*
G02X546810Y60630I-398J0D01*
G01X514130Y93310D01*
X499710D01*
G02X499510Y93510I0J200D01*
G01Y94410D01*
G02X499710Y94610I200J0D01*
G01X499830D01*
X499880Y94550D01*
G03X503590Y94790I1745J1819D01*
G01X503620Y94820D01*
X503700Y94860D01*
X505260D01*
X506020Y95620D01*
X536330D01*
X536410Y95580D01*
X536440Y95550D01*
G03Y98710I1961J1580D01*
G02X536290Y98640I-150J126D01*
G01X504760D01*
X504000Y97880D01*
X503700D01*
X503620Y97920D01*
X503590Y97950D01*
G03X499880Y98190I-1965J-1579D01*
G01X499830Y98130D01*
X499710D01*
G02X499510Y98330I0J200D01*
G01Y98510D01*
X493490D01*
Y94420D01*
X493390Y94310D01*
X493310Y94300D01*
G03X495550Y90220I278J-2502D01*
G02X495700Y90290I150J-126D01*
G01X512870D01*
X534800Y68370D01*
G02X534640Y67700I-279J-288D01*
G03X533820Y63340I762J-2400D01*
G01X533850Y63310D01*
X533890Y63230D01*
Y60910D01*
G02X533210Y60630I-398J0D01*
G01X531530Y62300D01*
X531500Y62390D01*
X531510Y62440D01*
G03X529260Y60190I-2509J259D01*
G01X529310Y60200D01*
X529400Y60170D01*
X530490Y59070D01*
Y31200D01*
G02X530290Y31000I-200J0D01*
G01X517250D01*
X517240D01*
G03X516760I-240J-3000D01*
G01X516750D01*
X513710D01*
G02X513510Y31200I0J200D01*
G01Y33010D01*
X511200D01*
X510510Y33700D01*
Y77620D01*
X512570Y79690D01*
G02X512740Y79740I135J-144D01*
G03X510490Y81990I259J2509D01*
G01X510500Y81940D01*
X510470Y81850D01*
X507490Y78880D01*
Y70340D01*
G02X506810Y70060I-398J0D01*
G01X494010Y82850D01*
X493980Y82940D01*
X493990Y82990D01*
G03X491740Y80740I-2509J259D01*
G01X491790Y80750D01*
X491880Y80720D01*
X505490Y67100D01*
Y31200D01*
G02X505290Y31000I-200J0D01*
G01X498710D01*
G02X498510Y31200I0J200D01*
G01Y32970D01*
X501510Y35970D01*
Y51730D01*
X501430Y51800D01*
X501400Y51890D01*
X501410Y51940D01*
G03X496600Y51180I-2506J261D01*
G02X496340Y50630I-369J-162D01*
G03X495040Y49780I661J-2430D01*
G01X495010Y49750D01*
X494930Y49710D01*
X487750D01*
G02X487550Y49910I0J200D01*
G01Y79790D01*
X485750Y81590D01*
Y83390D01*
X483800Y85330D01*
G02X483750Y85500I144J135D01*
G03X483060Y87510I-2509J262D01*
G01X483000Y87560D01*
Y89790D01*
G02X483200Y89990I200J0D01*
G01X483510D01*
Y96010D01*
X478490D01*
Y89990D01*
X479280D01*
G02X479480Y89790I0J-200D01*
G01Y87560D01*
X479420Y87510D01*
G03X478730Y86030I1819J-1749D01*
G02X478050Y85790I-396J40D01*
G01X474780Y89070D01*
X471500D01*
X469050Y86620D01*
Y55690D01*
X475490Y49250D01*
Y35570D01*
X475450Y35490D01*
X475420Y35460D01*
G03Y31540I1581J-1960D01*
G02X475490Y31390I-126J-150D01*
G01Y31200D01*
G02X475290Y31000I-200J0D01*
G01X473710D01*
G02X473510Y31200I0J200D01*
G01Y46090D01*
G02X473580Y46240I196J0D01*
G03X470420I-1580J1961D01*
G02X470490Y46090I-126J-150D01*
G01Y31200D01*
G02X470290Y31000I-200J0D01*
G01X467250D01*
X467240D01*
G03X466760I-240J-3000D01*
G01X466750D01*
X458710D01*
G02X458510Y31200I0J200D01*
G01Y45950D01*
X458550Y46030D01*
X458580Y46060D01*
G03X457960Y50350I-1581J1961D01*
G02X457830Y51000I152J368D01*
G01X462720Y55890D01*
Y91380D01*
X457840Y96260D01*
X452870D01*
X446690Y90080D01*
G02X446010Y90360I-282J280D01*
G01Y94510D01*
X440990D01*
Y88440D01*
G02X441160Y87940I-200J-347D01*
G03X440990Y86740I2339J-943D01*
G02X440940Y86570I-194J-35D01*
G01X434320Y79960D01*
X427630D01*
X427010Y80580D01*
Y81140D01*
G02X427080Y81290I196J0D01*
G03X423920I-1580J1961D01*
G02X423990Y81140I-126J-150D01*
G01Y79320D01*
X425880Y77440D01*
G02Y77150I-139J-145D01*
G01X425490Y76770D01*
Y54380D01*
X425450Y54300D01*
X425420Y54270D01*
G03Y50350I1581J-1960D01*
G01X425450Y50320D01*
X425490Y50240D01*
Y31200D01*
G02X425290Y31000I-200J0D01*
G01X423710D01*
G02X423510Y31200I0J200D01*
G01Y53240D01*
X423550Y53320D01*
X423580Y53350D01*
G03X420420I-1580J1961D01*
G01X420450Y53320D01*
X420490Y53240D01*
Y31200D01*
G02X420290Y31000I-200J0D01*
G01X418710D01*
G02X418510Y31200I0J200D01*
G01Y44080D01*
X417410Y45180D01*
Y48820D01*
X418510Y49920D01*
Y63500D01*
G02X418580Y63650I196J0D01*
G03X415420I-1580J1961D01*
G02X415490Y63500I-126J-150D01*
G01Y51180D01*
X414390Y50080D01*
Y43920D01*
X415490Y42820D01*
Y31200D01*
G02X415290Y31000I-200J0D01*
G01X408710D01*
G02X408510Y31200I0J200D01*
G01Y86630D01*
X408550Y86710D01*
X408580Y86740D01*
G03X405420I-1580J1961D01*
G01X405450Y86710D01*
X405490Y86630D01*
Y31200D01*
G02X405290Y31000I-200J0D01*
G01X403710D01*
G02X403510Y31200I0J200D01*
G01Y91740D01*
X403550Y91820D01*
X403580Y91850D01*
G03X402980Y96130I-1581J1960D01*
G02X402850Y96780I152J368D01*
G01X407130Y101060D01*
X418990D01*
G02X419190Y100860I0J-200D01*
G01Y99170D01*
X422970Y95400D01*
X423000Y95310D01*
X422990Y95260D01*
G03X427250Y93180I2509J-264D01*
G01X427300Y93240D01*
X427790D01*
G02X427990Y93040I0J-200D01*
G01Y92490D01*
X434010D01*
Y97510D01*
X427990D01*
Y96960D01*
G02X427790Y96760I-200J0D01*
G01X427300D01*
X427250Y96820D01*
G03X425240Y97510I-1748J-1819D01*
G01X425190Y97500D01*
X425100Y97530D01*
X424810Y97830D01*
G02X425150Y98500I284J277D01*
G03X427250Y99180I351J2499D01*
G01X427300Y99240D01*
X427790D01*
G02X427990Y99040I0J-200D01*
G01Y98490D01*
X434010D01*
Y103510D01*
X427990D01*
Y102960D01*
G02X427790Y102760I-200J0D01*
G01X427300D01*
X427250Y102820D01*
G03X423000Y100650I-1752J-1816D01*
G02X422330Y100310I-393J-56D01*
G01X422210Y100430D01*
Y101950D01*
X430500Y110240D01*
Y111790D01*
G02X430700Y111990I200J0D01*
G01X436510D01*
Y116790D01*
G02X436710Y116990I200J0D01*
G01X440930D01*
X441010Y116950D01*
X441040Y116920D01*
G03X444960I1960J1581D01*
G01X444990Y116950D01*
X445070Y116990D01*
X445370D01*
X446370Y115990D01*
X450930D01*
X451010Y115950D01*
X451040Y115920D01*
G03X455340Y118440I1961J1582D01*
G02X455710Y118990I370J151D01*
G01X456510D01*
Y127010D01*
X449490D01*
Y119210D01*
G02X449290Y119010I-200J0D01*
G01X447630D01*
X446630Y120010D01*
X445070D01*
X444990Y120050D01*
X444960Y120080D01*
G03X442060Y120840I-1963J-1579D01*
G02X441510Y121210I-151J370D01*
G01Y127010D01*
X434490D01*
Y118990D01*
X436290D01*
G02X436490Y118790I0J-200D01*
G01Y117210D01*
G02X436290Y117010I-200J0D01*
G01X430440D01*
G02X429940Y116830I-355J200D01*
G03X427410Y112540I-944J-2334D01*
G02X427480Y112390I-126J-150D01*
G01Y111500D01*
X426010Y110030D01*
G02X425360Y110150I-284J281D01*
G03X424250Y111380I-2321J-979D01*
G02Y112080I191J350D01*
G03X421830I-1210J2210D01*
G02Y111380I-191J-350D01*
G03X421080Y110750I1214J-2207D01*
G01X421050Y110720D01*
X420970Y110680D01*
X409870D01*
X395490Y96300D01*
Y50740D01*
X394370Y49620D01*
X388370D01*
X385490Y46740D01*
Y31200D01*
G02X385290Y31000I-200J0D01*
G01X378710D01*
G37*
G36*
G01X353510Y31200D02*
Y45760D01*
X344100Y55170D01*
X344000Y55290D01*
X343960Y55370D01*
X343930Y55460D01*
X343920Y55560D01*
X343930Y55660D01*
X343950Y55740D01*
X343990Y55810D01*
X344060Y55900D01*
X344150Y55970D01*
X344220Y56010D01*
X344300Y56030D01*
X344400Y56040D01*
X344500Y56030D01*
X344590Y56000D01*
X344670Y55960D01*
X344790Y55860D01*
X354210Y46440D01*
X354670Y46060D01*
X355280Y45720D01*
X355960Y45520D01*
X356640Y45450D01*
X357320Y45520D01*
X357980Y45720D01*
X358590Y46050D01*
X359120Y46470D01*
X359560Y47010D01*
X359890Y47610D01*
X360090Y48290D01*
X360160Y48960D01*
X360090Y49640D01*
X359900Y50290D01*
X359580Y50920D01*
X359180Y51400D01*
X349760Y60830D01*
X349660Y60950D01*
X349620Y61030D01*
X349590Y61120D01*
X349580Y61220D01*
X349590Y61320D01*
X349610Y61400D01*
X349650Y61470D01*
X349720Y61560D01*
X349810Y61630D01*
X349880Y61670D01*
X349960Y61690D01*
X350060Y61700D01*
X350160Y61690D01*
X350250Y61660D01*
X350330Y61620D01*
X350450Y61520D01*
X359870Y52100D01*
X360330Y51720D01*
X360940Y51380D01*
X361620Y51180D01*
X362300Y51110D01*
X362980Y51180D01*
X363640Y51380D01*
X364250Y51710D01*
X364780Y52130D01*
X365220Y52670D01*
X365550Y53270D01*
X365750Y53950D01*
X365820Y54620D01*
X365750Y55300D01*
X365560Y55950D01*
X365240Y56580D01*
X364840Y57060D01*
X355420Y66490D01*
X355320Y66610D01*
X355280Y66690D01*
X355250Y66780D01*
X355240Y66880D01*
X355250Y66980D01*
X355270Y67060D01*
X355310Y67130D01*
X355380Y67220D01*
X355470Y67290D01*
X355540Y67330D01*
X355620Y67350D01*
X355720Y67360D01*
X355820Y67350D01*
X355910Y67320D01*
X355990Y67280D01*
X356110Y67180D01*
X365530Y57760D01*
X365990Y57380D01*
X366600Y57040D01*
X367280Y56840D01*
X367960Y56770D01*
X368640Y56840D01*
X369300Y57040D01*
X369910Y57370D01*
X370440Y57790D01*
X370880Y58330D01*
X371210Y58930D01*
X371410Y59610D01*
X371480Y60280D01*
X371410Y60960D01*
X371220Y61610D01*
X370900Y62240D01*
X370500Y62720D01*
X361080Y72150D01*
X360980Y72270D01*
X360940Y72350D01*
X360910Y72440D01*
X360900Y72540D01*
X360910Y72640D01*
X360930Y72720D01*
X360970Y72790D01*
X361040Y72880D01*
X361130Y72950D01*
X361200Y72990D01*
X361280Y73010D01*
X361380Y73020D01*
X361480Y73010D01*
X361570Y72980D01*
X361650Y72940D01*
X361770Y72840D01*
X371190Y63420D01*
X371650Y63040D01*
X372260Y62700D01*
X372940Y62500D01*
X373620Y62430D01*
X374300Y62500D01*
X374960Y62700D01*
X375570Y63030D01*
X376100Y63450D01*
X376540Y63990D01*
X376870Y64590D01*
X377070Y65270D01*
X377140Y65940D01*
X377070Y66620D01*
X376880Y67270D01*
X376560Y67900D01*
X376160Y68380D01*
X366740Y77810D01*
X366640Y77930D01*
X366600Y78010D01*
X366570Y78100D01*
X366560Y78200D01*
X366570Y78300D01*
X366590Y78380D01*
X366630Y78450D01*
X366700Y78540D01*
X366790Y78610D01*
X366860Y78650D01*
X366940Y78670D01*
X367040Y78680D01*
X367140Y78670D01*
X367230Y78640D01*
X367310Y78600D01*
X367430Y78500D01*
X376850Y69080D01*
X377310Y68700D01*
X377920Y68360D01*
X378600Y68160D01*
X379280Y68090D01*
X379960Y68160D01*
X380620Y68360D01*
X381230Y68690D01*
X381760Y69110D01*
X382200Y69650D01*
X382530Y70250D01*
X382730Y70930D01*
X382800Y71600D01*
X382730Y72280D01*
X382540Y72930D01*
X382220Y73560D01*
X381820Y74040D01*
X372400Y83470D01*
X372300Y83590D01*
X372260Y83670D01*
X372230Y83760D01*
X372220Y83860D01*
X372230Y83960D01*
X372250Y84040D01*
X372290Y84110D01*
X372360Y84200D01*
X372450Y84270D01*
X372520Y84310D01*
X372600Y84330D01*
X372700Y84340D01*
X372800Y84330D01*
X372890Y84300D01*
X372970Y84260D01*
X373090Y84160D01*
X375760Y81490D01*
X384130D01*
X386510Y83870D01*
Y88630D01*
X383700Y91440D01*
X372080D01*
X371900Y91460D01*
X371820Y91480D01*
X371750Y91520D01*
X371660Y91590D01*
X371590Y91680D01*
X371550Y91750D01*
X371530Y91830D01*
X371520Y91930D01*
X371530Y92030D01*
X371550Y92110D01*
X371590Y92180D01*
X371660Y92270D01*
X371750Y92340D01*
X371820Y92380D01*
X371900Y92400D01*
X372080Y92420D01*
X387080D01*
X387680Y92480D01*
X388360Y92680D01*
X388970Y93020D01*
X389020Y93060D01*
X389120Y93080D01*
X389170Y93050D01*
G02X389290Y92870I-75J-180D01*
G01Y76040D01*
X366390Y53140D01*
Y49370D01*
X364660Y47630D01*
X364570Y47600D01*
X364520Y47610D01*
G03X366770Y45360I-259J-2509D01*
G02X366820Y45530I194J35D01*
G01X369410Y48110D01*
Y51880D01*
X390410Y72880D01*
G02X391090Y72600I282J-280D01*
G01Y71740D01*
X370490Y51140D01*
Y31200D01*
G02X370290Y31000I-200J0D01*
G01X368710D01*
G02X368510Y31200I0J200D01*
G01Y35430D01*
X362130Y41810D01*
X360330D01*
X360250Y41850D01*
X360220Y41880D01*
G03Y38720I-1961J-1580D01*
G01X360250Y38750D01*
X360330Y38790D01*
X360870D01*
X362380Y37290D01*
G02X362200Y36620I-280J-284D01*
G03X361300Y32230I680J-2427D01*
G02X361370Y32080I-126J-150D01*
G01Y31200D01*
G02X361170Y31000I-200J0D01*
G01X353710D01*
G02X353510Y31200I0J200D01*
G37*
G36*
G01X438710Y31000D02*
G02X438510Y31200I0J200D01*
G01Y33180D01*
X438430Y33260D01*
G02Y33540I141J140D01*
G01X438460Y33570D01*
X438550Y33600D01*
X438590D01*
G03X440470Y38060I297J2501D01*
G02X440400Y38210I126J150D01*
G01Y48930D01*
X442250Y50780D01*
Y52300D01*
G02X442320Y52450I196J0D01*
G03X439160I-1580J1961D01*
G02X439230Y52300I-126J-150D01*
G01Y52040D01*
X438080Y50890D01*
G02X437400Y51170I-282J280D01*
G01Y56580D01*
X454600Y73780D01*
Y86800D01*
G02X454670Y86950I196J0D01*
G03X453250Y91420I-1583J1958D01*
G02X452990Y92110I32J406D01*
G01X454130Y93240D01*
X456580D01*
X459700Y90120D01*
Y85960D01*
G02X459150Y85590I-399J0D01*
G03X456630Y81290I-938J-2339D01*
G01X456660Y81260D01*
X456700Y81180D01*
Y61350D01*
X448690Y53340D01*
Y33830D01*
X445860Y31000D01*
X438710D01*
G37*
%LPC*%
G75*
G36*
G01X160850Y96570D02*
G02X154150I-3350J-1074D01*
G03X154100Y96770I-200J56D01*
G01X151990Y98870D01*
Y156130D01*
X164370Y168510D01*
X197930D01*
X198010Y168550D01*
X198040Y168580D01*
G02Y165420I1961J-1580D01*
G03X197890Y165490I-150J-126D01*
G01X165630D01*
X165300Y165160D01*
G03X165530Y164480I282J-284D01*
G02X168670Y162130I-531J-3982D01*
G01X168700Y162070D01*
X168800Y162010D01*
X170130D01*
X171930Y160210D01*
X210590D01*
G03X210790Y160410I0J200D01*
G01Y160930D01*
X210750Y161010D01*
X210720Y161040D01*
G02X213880I1580J1961D01*
G03X213810Y160890I126J-150D01*
G01Y154660D01*
X208570Y149430D01*
G03X208520Y149260I144J-135D01*
G02X204050Y147420I-2507J-259D01*
G01X204020Y147450D01*
X203940Y147490D01*
X203630D01*
X203010Y146870D01*
Y136640D01*
X207610Y132030D01*
X207700Y132000D01*
X207750Y132010D01*
G02X205500Y129760I259J-2509D01*
G01X205510Y129810D01*
X205480Y129900D01*
X199990Y135380D01*
Y148130D01*
X202370Y150510D01*
X203940D01*
X204020Y150550D01*
X204050Y150580D01*
G02X206270Y151510I1966J-1577D01*
G01X206320Y151500D01*
X206410Y151530D01*
X210790Y155920D01*
Y156990D01*
G03X210590Y157190I-200J0D01*
G01X170670D01*
X169180Y158690D01*
G03X168540Y158600I-287J-279D01*
G02X161020Y159970I-3538J1904D01*
G03X160340Y160200I-396J-52D01*
G01X155010Y154870D01*
Y118820D01*
G03X155620Y118480I400J0D01*
G02X160630Y117120I1881J-2978D01*
G03X160800Y117010I170J76D01*
G01X202580D01*
X216680Y131100D01*
X216710Y131190D01*
X216700Y131240D01*
G02X221630Y132200I2507J264D01*
G03X222300Y132030I386J116D01*
G01X228390Y138130D01*
Y139430D01*
X228350Y139510D01*
X228320Y139540D01*
G02X231480I1580J1961D01*
G03X231410Y139390I126J-150D01*
G01Y139210D01*
G03X232090Y138930I398J0D01*
G01X236790Y143630D01*
Y154430D01*
X236750Y154510D01*
X236720Y154540D01*
G02X239880I1580J1961D01*
G03X239810Y154390I126J-150D01*
G01Y142370D01*
X201430Y103990D01*
X169910D01*
G03X169670Y103270I0J-400D01*
G02X164370Y98880I-2174J-2770D01*
G03X164200Y98990I-170J-76D01*
G01X163130D01*
X160900Y96770D01*
G03X160850Y96570I150J-144D01*
G37*
G36*
G01X169670Y83270D02*
G02X165330I-2170J-2771D01*
G03X165090Y83990I-240J320D01*
G01X160740D01*
X160650Y83940D01*
X160630Y83880D01*
G02Y87120I-3128J1620D01*
G03X160800Y87010I170J76D01*
G01X165090D01*
G03X165330Y87730I0J400D01*
G02X170630Y92120I2174J2770D01*
G03X170800Y92010I170J76D01*
G01X197870D01*
X246990Y141130D01*
Y164430D01*
X246950Y164510D01*
X246920Y164540D01*
G02X250080I1580J1961D01*
G01X250050Y164510D01*
X250010Y164430D01*
Y139870D01*
X199130Y88990D01*
X170800D01*
G03X170630Y88880I0J-186D01*
G02X169670Y87730I-3121J1630D01*
G03X169910Y87010I240J-320D01*
G01X199900D01*
G03X200050Y87080I0J196D01*
G02Y83920I1961J-1580D01*
G01X200020Y83950D01*
X199940Y83990D01*
X169910D01*
G03X169670Y83270I0J-400D01*
G37*
G36*
G01X310960Y178920D02*
G02Y182080I-1961J1580D01*
G01X310990Y182050D01*
X311070Y182010D01*
X315930D01*
X316010Y182050D01*
X316040Y182080D01*
G02Y178920I1961J-1580D01*
G03X315890Y178990I-150J-126D01*
G01X311070D01*
X310990Y178950D01*
X310960Y178920D01*
G37*
G36*
G01X468010Y129490D02*
X462990D01*
Y135510D01*
X463930D01*
G03X464130Y135710I0J200D01*
G01Y136590D01*
X464070Y136640D01*
G02X463600Y137340I1829J1736D01*
G03X462900Y137380I-361J-171D01*
G02X458270Y139050I-2130J1348D01*
G03X457820Y139500I-399J51D01*
G02X454990Y142260I-322J2501D01*
G01X455000Y142310D01*
X454970Y142400D01*
X442370Y154990D01*
X335570D01*
X335490Y154950D01*
X335460Y154920D01*
G02Y158080I-1961J1580D01*
G01X335490Y158050D01*
X335570Y158010D01*
X443630D01*
X457100Y144530D01*
X457190Y144500D01*
X457240Y144510D01*
G02X458670Y144230I251J-2508D01*
G03X459260Y144580I191J350D01*
G01Y153100D01*
X451370Y160990D01*
X336870D01*
X333930Y163940D01*
G03X333760Y163990I-135J-144D01*
G02X336010Y166240I-259J2509D01*
G01X336000Y166190D01*
X336030Y166100D01*
X338130Y164010D01*
X368290D01*
G03X368670Y164560I0J406D01*
G02X369420Y167470I2332J951D01*
G03X369490Y167620I-126J150D01*
G01Y177890D01*
G03X369420Y178040I-196J0D01*
G02X372580I1580J1961D01*
G03X372510Y177890I126J-150D01*
G01Y173720D01*
G03X372710Y173520I200J0D01*
G01X373390D01*
G03X373540Y173590I0J196D01*
G02Y170430I1961J-1580D01*
G03X373390Y170500I-150J-126D01*
G01X372710D01*
G03X372510Y170300I0J-200D01*
G01Y167580D01*
X372550Y167500D01*
X372580Y167470D01*
G02X373330Y164560I-1582J-1959D01*
G03X373710Y164010I380J-144D01*
G01X452630D01*
X462280Y154360D01*
Y140840D01*
G03X462350Y140690I196J0D01*
G02X463060Y139780I-1578J-1963D01*
G03X463760Y139740I361J171D01*
G02X467710Y136640I2124J-1360D01*
G01X467650Y136590D01*
Y135710D01*
G03X467850Y135510I200J0D01*
G01X468010D01*
Y129490D01*
G37*
G36*
G01X482510Y127990D02*
X475490D01*
Y129290D01*
G03X475290Y129490I-200J0D01*
G01X468990D01*
Y135510D01*
X474010D01*
Y134710D01*
G03X474210Y134510I200J0D01*
G01X475290D01*
G03X475490Y134710I0J200D01*
G01Y136010D01*
X476540D01*
G03X476740Y136210I0J200D01*
G01Y136700D01*
X476680Y136750D01*
G02X480320I1820J1748D01*
G01X480260Y136700D01*
Y136210D01*
G03X480460Y136010I200J0D01*
G01X482510D01*
Y127990D01*
G37*
G36*
G01X456510D02*
X449490D01*
Y129290D01*
G03X449290Y129490I-200J0D01*
G01X442990D01*
Y135510D01*
X448010D01*
Y134710D01*
G03X448210Y134510I200J0D01*
G01X449290D01*
G03X449490Y134710I0J200D01*
G01Y136010D01*
X451130D01*
G03X451330Y136210I0J200D01*
G01Y136790D01*
X451270Y136840D01*
G02X454910I1820J1748D01*
G01X454850Y136790D01*
Y136210D01*
G03X455050Y136010I200J0D01*
G01X456510D01*
Y127990D01*
G37*
G36*
G01X441510D02*
X434490D01*
Y129790D01*
G03X434290Y129990I-200J0D01*
G01X433210D01*
G03X433010Y129790I0J-200D01*
G01Y129490D01*
X427990D01*
Y135510D01*
X433010D01*
Y135210D01*
G03X433210Y135010I200J0D01*
G01X434290D01*
G03X434490Y135210I0J200D01*
G01Y136010D01*
X436040D01*
G03X436240Y136210I0J200D01*
G01Y136700D01*
X436180Y136750D01*
G02X435890Y139870I1821J1743D01*
G03X435550Y140490I-340J217D01*
G01X403370D01*
X400870Y142990D01*
X361130D01*
X354530Y136400D01*
X354500Y136310D01*
X354510Y136260D01*
G02X352260Y138510I-2509J-259D01*
G03X352430Y138560I35J194D01*
G01X359870Y146010D01*
X402130D01*
X404630Y143510D01*
X442390D01*
G03X442540Y143580I0J196D01*
G02X444850Y144500I1966J-1577D01*
G03X445190Y145170I56J393D01*
G01X443370Y146990D01*
X341630D01*
X336530Y141900D01*
X336500Y141810D01*
X336510Y141760D01*
G02X334260Y144010I-2509J-259D01*
G03X334430Y144060I35J194D01*
G01X340370Y150010D01*
X444630D01*
X449010Y145630D01*
Y141110D01*
G03X449080Y140960I196J0D01*
G02X444980Y139070I-1582J-1961D01*
G03X444570Y139480I-400J10D01*
G02X442540Y140420I-66J2519D01*
G01X442510Y140450D01*
X442430Y140490D01*
X440450D01*
G03X440110Y139870I0J-403D01*
G02X439820Y136750I-2111J-1377D01*
G01X439760Y136700D01*
Y136210D01*
G03X439960Y136010I200J0D01*
G01X441510D01*
Y127990D01*
G37*
G36*
G01X353960Y118920D02*
G02Y122080I-1961J1580D01*
G01X353990Y122050D01*
X354070Y122010D01*
X356430D01*
X356510Y122050D01*
X356540Y122080D01*
G02X358760Y123010I1966J-1577D01*
G03X358930Y123060I35J194D01*
G01X359990Y124130D01*
Y137130D01*
X364370Y141510D01*
X370930D01*
X371010Y141550D01*
X371040Y141580D01*
G02Y138420I1961J-1580D01*
G01X371010Y138450D01*
X370930Y138490D01*
X365630D01*
X363010Y135870D01*
Y122870D01*
X361030Y120900D01*
X361000Y120810D01*
X361010Y120760D01*
G02X356540Y118920I-2507J-259D01*
G03X356390Y118990I-150J-126D01*
G01X354070D01*
X353990Y118950D01*
X353960Y118920D01*
G37*
G36*
G01X481340Y118440D02*
G02X476660I-2340J-938D01*
G03X476290Y118990I-370J151D01*
G01X475490D01*
Y127010D01*
X482510D01*
Y118990D01*
X481710D01*
G03X481340Y118440I0J-399D01*
G37*
G36*
G01X487580Y115960D02*
G02X484420I-1580J-1961D01*
G03X484490Y116110I-126J150D01*
G01Y118340D01*
X484800Y118650D01*
G03X484660Y118990I-140J141D01*
G01X484490D01*
Y127010D01*
X491510D01*
Y124710D01*
G03X491710Y124510I200J0D01*
G01X493510D01*
Y121630D01*
X494630Y120510D01*
X496300D01*
X496990Y121200D01*
Y129290D01*
G03X496790Y129490I-200J0D01*
G01X491710D01*
G03X491510Y129290I0J-200D01*
G01Y127990D01*
X484490D01*
Y136010D01*
X485540D01*
G03X485740Y136210I0J200D01*
G01Y136700D01*
X485680Y136750D01*
G02X489320I1820J1748D01*
G01X489260Y136700D01*
Y136210D01*
G03X489460Y136010I200J0D01*
G01X491510D01*
Y134710D01*
G03X491710Y134510I200J0D01*
G01X492790D01*
G03X492990Y134710I0J200D01*
G01Y135510D01*
X496790D01*
G03X496990Y135710I0J200D01*
G01Y136130D01*
X499180Y138310D01*
X499210Y138400D01*
X499200Y138450D01*
G02X503530Y136960I2510J257D01*
G01X503470Y136910D01*
Y135710D01*
G03X503670Y135510I200J0D01*
G01X504010D01*
Y129490D01*
X500210D01*
G03X500010Y129290I0J-200D01*
G01Y119940D01*
X497560Y117490D01*
X493370D01*
X491850Y119020D01*
G03X491630Y119060I-140J-142D01*
G01X491510Y119010D01*
Y118990D01*
X489710D01*
G03X489510Y118790I0J-200D01*
G01Y116990D01*
X487710D01*
G03X487510Y116790I0J-200D01*
G01Y116110D01*
G03X487580Y115960I196J0D01*
G37*
G36*
G01X495550Y102470D02*
G02Y105630I-1961J1580D01*
G03X495700Y105560I150J126D01*
G01X497620D01*
X497700Y105600D01*
X497730Y105630D01*
G02Y102470I1961J-1580D01*
G03X497580Y102540I-150J-126D01*
G01X495700D01*
G03X495550Y102470I0J-196D01*
G37*
G54D23*
X145000Y127700D03*
Y68400D03*
G54D24*
X132300Y119100D03*
Y77000D03*
G54D22*
X145000Y160500D03*
X490500Y167500D03*
X470500D03*
%LPD*%
G75*
G54D10*
X145000Y68400D03*
Y127700D03*
G54D20*
G01X204500Y138000D02*
Y144500D01*
G01D02*
X216110D01*
G01D02*
X241210Y169600D01*
G01D02*
X265000D01*
G01D02*
Y180500D01*
G01X287000Y6000D02*
Y51100D01*
G01D02*
X290500Y54600D01*
G01D02*
X313500D01*
G01X327000Y37600D02*
Y6000D01*
G01X317000D02*
Y43600D01*
G01X319000Y45600D02*
X327000Y37600D01*
G01X313500Y54600D02*
X319000Y49100D01*
G01D02*
Y45600D01*
G01X317000Y43600D02*
X317500D01*
G01D02*
X319000Y45100D01*
G01D02*
Y45600D01*
G01X321900Y70080D02*
X337940D01*
G01X308900Y83080D02*
X321900Y70080D01*
G01X308900Y89080D02*
Y83080D01*
G01X340310Y120490D02*
X308900Y89080D01*
G01X307100Y169600D02*
X316300Y160400D01*
G01D02*
X361000D01*
G01X357000Y6000D02*
X357840D01*
Y32500D01*
G01X347000Y6000D02*
Y36540D01*
G01X357840Y32500D02*
X355070D01*
G01D02*
Y43970D01*
G01X357840Y32500D02*
X358740D01*
G01X337940Y45600D02*
Y70080D01*
G01X347000Y36540D02*
X337940Y45600D01*
G01X339740Y71880D02*
X355070D01*
G01X337940Y70080D02*
X339740Y71880D01*
G01X382000Y6000D02*
Y44110D01*
G01D02*
X389000Y51110D01*
G01D02*
X393400D01*
G01X382950Y142600D02*
X377250Y136900D01*
G01D02*
X369500D01*
G01D02*
X368100Y135500D01*
G01D02*
X365000D01*
G01X399600Y142600D02*
X382950D01*
G01X361000Y160400D02*
X361900Y159500D01*
G01D02*
X365000D01*
G01X412000Y6000D02*
Y78290D01*
G01X418900Y59810D02*
Y47000D01*
G01X420100Y86390D02*
Y61010D01*
G01D02*
X418900Y59810D01*
G01X412000Y78290D02*
X420100Y86390D01*
G01X393400Y51110D02*
X394500Y52210D01*
G01D02*
Y95910D01*
G01X433000Y86390D02*
X420100D01*
G01X394500Y95910D02*
X418000Y119410D01*
G01X426140Y128410D02*
X418140Y136410D01*
G01D02*
X405790D01*
G01D02*
X399600Y142600D01*
G01X418000Y119410D02*
X423040D01*
G01X442000Y6000D02*
Y35210D01*
G01D02*
X447000D01*
G01X442000D02*
Y47000D01*
G01X444000Y111010D02*
X443500Y110510D01*
G01X437000D02*
X443500D01*
G01X437000Y101000D02*
Y110510D01*
G01X443500Y97500D02*
Y102000D01*
G01D02*
Y110510D01*
G01X437000Y85500D02*
X433890D01*
G01D02*
X433000Y86390D01*
G01X437000Y95000D02*
Y85500D01*
G01X430500Y121990D02*
X426140D01*
G01Y119410D02*
Y121990D01*
G01D02*
Y128410D01*
G01X444000Y114500D02*
Y111010D01*
G01X445500Y126500D02*
Y121990D01*
G01X430500Y126500D02*
Y121990D01*
G01X439500Y114500D02*
X444000D01*
G01X423040Y119410D02*
X426140D01*
G01X462000Y6000D02*
Y34610D01*
G01X465890Y44920D02*
X461900D01*
G01X465890Y83250D02*
Y44920D01*
G01Y38500D02*
Y44920D01*
G01X462000Y34610D02*
X465890Y38500D01*
G01X471500Y126500D02*
Y122000D01*
G01X465500Y126500D02*
Y122000D01*
G01X463330Y165500D02*
Y169090D01*
G01D02*
X468830Y174590D01*
G01D02*
X473400D01*
G01D02*
X476500Y171490D01*
G01X502000Y60790D02*
Y6000D01*
G01X488380Y74410D02*
X502000Y60790D01*
G01X488380Y86900D02*
Y74410D01*
G01X540100Y100230D02*
X485990D01*
G01Y106890D02*
Y100230D01*
G01X486000Y106900D02*
X485990Y106890D01*
G01X486000Y110000D02*
Y106900D01*
G01X485990Y89290D02*
X488380Y86900D01*
G01D02*
X490180Y88700D01*
G01D02*
X506180D01*
G01X481000Y99000D02*
Y103500D01*
G01X490500Y110000D02*
X486000D01*
G01X490500Y96000D02*
X485990D01*
G01Y100230D02*
Y96000D01*
G01D02*
Y89290D01*
G01X501500Y122000D02*
X506180D01*
G01Y119410D02*
Y122000D01*
G01Y155700D02*
Y122000D01*
G01X495500Y126500D02*
Y122000D01*
G01X501500Y126500D02*
Y122000D01*
G01X502810Y159070D02*
X506180Y155700D01*
G01X488920Y157270D02*
X484500Y161690D01*
G01D02*
Y171490D01*
G01X502810Y161500D02*
Y159070D01*
G01X513810Y172500D02*
X502810Y161500D01*
G01Y159070D02*
X501010Y157270D01*
G01D02*
X488920D01*
G01X525000Y31600D02*
X527000Y29600D01*
Y6000D01*
G01X522000Y31600D02*
Y6000D01*
G01X517180Y34500D02*
Y49550D01*
G01D02*
X518100Y50470D01*
G01D02*
Y68400D01*
G01X512000Y34500D02*
X517180D01*
G01D02*
X520280D01*
G01D02*
Y34220D01*
G01D02*
X522000Y32500D01*
G01Y31600D02*
X525000D01*
G01X522000Y32500D02*
Y31600D01*
G01X555100Y85230D02*
X540100Y100230D01*
G01X517500Y172500D02*
X513810D01*
G01X557000Y6000D02*
Y43520D01*
G01X555100Y45420D02*
Y85230D01*
G01X557000Y43520D02*
X555100Y45420D01*
G01D02*
X552000D01*
G54D11*
X132300Y77000D03*
Y119100D03*
G54D21*
G01X431000Y101000D02*
X425500D01*
G01X443500Y91500D02*
Y87000D01*
G01X431000Y95000D02*
X425500D01*
G01X438000Y138500D02*
Y132000D01*
G01X481000Y93000D02*
X481240Y92760D01*
Y85760D01*
G01X465500Y132500D02*
X465890Y132890D01*
Y138390D01*
G01X453090Y138590D02*
Y132090D01*
X453000Y132000D01*
G01X478500Y138500D02*
Y132500D01*
X479000Y132000D01*
G01X496500Y110000D02*
X502000D01*
G01X496500Y96000D02*
X496870Y96370D01*
X501630D01*
G01X487500Y138500D02*
Y132500D01*
X488000Y132000D01*
G01X501500Y132500D02*
X501710Y132710D01*
Y138710D01*
G54D12*
X145000Y160500D03*
X165000D03*
X470500Y167500D03*
X490500D03*
G54D13*
X167500Y80500D03*
Y110500D03*
X157500Y105500D03*
X167500Y100500D03*
X157500Y95500D03*
X167500Y90500D03*
X157500Y85500D03*
Y115500D03*
G54D14*
G01X430500Y132500D02*
X437500D01*
X438000Y132000D01*
G01X445500Y132500D02*
X446000Y132000D01*
X453000D01*
G01X471500Y132500D02*
X472000Y132000D01*
X479000D01*
G01X495500Y132500D02*
X495000Y132000D01*
X488000D01*
X202010Y85500D03*
X204500Y138000D03*
X208010Y129500D03*
X204500Y144500D03*
X200000Y167000D03*
X206010Y149000D03*
X229900Y141500D03*
X219210Y131500D03*
X212300Y163000D03*
X238300Y156500D03*
X248500Y166500D03*
X265000Y169600D03*
Y180500D03*
X297000Y33010D03*
X292000Y51500D03*
X315000Y46700D03*
X319000Y45600D03*
X319500Y67000D03*
X308000D03*
X312000Y84820D03*
X307100Y169600D03*
X309000Y180500D03*
X318000D03*
X355070Y43970D03*
X358740Y32500D03*
X337940Y45600D03*
X342000Y32500D03*
X358260Y40300D03*
X355070Y71880D03*
X358260Y87820D03*
X352000Y91140D03*
X334000Y141500D03*
X340310Y120490D03*
X352000Y136000D03*
X358500Y120500D03*
X352000D03*
X333500Y166500D03*
Y156500D03*
X390300Y45110D03*
X377000Y50710D03*
X362880Y34190D03*
X364260Y45100D03*
Y84820D03*
X380000Y86000D03*
X365000Y135500D03*
X373000Y140000D03*
X365000Y159500D03*
X371000Y165510D03*
X375500Y172010D03*
X371000Y180000D03*
X418900Y47000D03*
X393400Y51110D03*
X422000Y55310D03*
X417000Y65610D03*
X407000Y88700D03*
X402000Y93810D03*
X393800Y124080D03*
X395300Y132200D03*
X447000Y35210D03*
X442000Y47000D03*
X438890Y36100D03*
X427000Y52310D03*
X440740Y54410D03*
X449500Y86080D03*
X423040Y109170D03*
X430060Y83250D03*
X437000Y110510D03*
X443500Y102000D03*
X425500Y101000D03*
Y83250D03*
X443500Y87000D03*
X425500Y95000D03*
X437000Y85500D03*
X447500Y139000D03*
X423040Y119410D03*
X445500Y121990D03*
X430500D03*
X444000Y114500D03*
X438000Y138500D03*
X423040Y127080D03*
X444500Y142000D03*
X423040Y114290D03*
X428990Y114500D03*
X443000Y118500D03*
X445410Y159500D03*
X439000Y177800D03*
X457000Y48020D03*
X461900Y44920D03*
X465890Y38500D03*
X472000Y48200D03*
X477000Y33500D03*
X453090Y88910D03*
X465890Y83250D03*
X481000Y103500D03*
X458210Y83250D03*
X473560D03*
X481240Y85760D03*
X460770Y138730D03*
X471500Y122000D03*
X465500D03*
X465890Y138390D03*
X453090Y138590D03*
X478500Y138500D03*
X457500Y142000D03*
X453000Y117500D03*
X479000D03*
X463330Y165500D03*
X473560Y142770D03*
X476500Y171490D03*
X458510Y183500D03*
X489010Y45200D03*
X512000Y34500D03*
X497000Y48200D03*
X498900Y52200D03*
X493590Y91800D03*
Y104050D03*
X499690D03*
X491480Y83250D03*
X506180Y88700D03*
X486000Y110000D03*
X485990Y96000D03*
X502000Y110000D03*
X501630Y96370D03*
X495500Y122000D03*
X501500D03*
X506180Y119410D03*
X487500Y138500D03*
X486000Y114000D03*
X501710Y138710D03*
X488920Y157270D03*
X484500Y171490D03*
X520280Y34500D03*
X539630Y40110D03*
X535400Y65300D03*
X529000Y62700D03*
X518100Y68400D03*
X513000Y82250D03*
X538400Y97130D03*
X526500Y171990D03*
X530600Y157400D03*
X517500Y172500D03*
X536010Y186500D03*
X552000Y45420D03*
X567000Y32500D03*
X550000Y71020D03*
X557010Y119850D03*
X577000Y33300D03*
G54D15*
X277000Y17000D03*
X282000D03*
X287000D03*
X292000D03*
X297000D03*
X302000D03*
X307000D03*
X312000D03*
X317000D03*
X322000D03*
X327000D03*
X342000D03*
X347000D03*
X352000D03*
X357000D03*
X362000D03*
X367000D03*
X372000D03*
X377000D03*
X382000D03*
X387000D03*
X392000D03*
X397000D03*
X402000D03*
X407000D03*
X412000D03*
X417000D03*
X422000D03*
X427000D03*
X432000D03*
X437000D03*
X442000D03*
X447000D03*
X452000D03*
X457000D03*
X462000D03*
X467000D03*
X472000D03*
X477000D03*
X482000D03*
X487000D03*
X492000D03*
X497000D03*
X502000D03*
X507000D03*
X512000D03*
X517000D03*
X522000D03*
X527000D03*
X532000D03*
X537000D03*
X542000D03*
X547000D03*
X552000D03*
X557000D03*
X562000D03*
X567000D03*
X572000D03*
X577000D03*
X582000D03*
G54D16*
X389000Y139500D03*
X395000D03*
X437000Y101000D03*
X431000D03*
X437000Y95000D03*
X431000D03*
X439500Y114500D03*
X433500D03*
X490500Y110000D03*
X496500D03*
X490500Y96000D03*
X496500D03*
G54D17*
X443500Y97500D03*
Y91500D03*
X445500Y126500D03*
Y132500D03*
X430500Y126500D03*
Y132500D03*
X481000Y99000D03*
Y93000D03*
X465500Y126500D03*
Y132500D03*
X471500Y126500D03*
Y132500D03*
X495500D03*
Y126500D03*
X501500Y132500D03*
Y126500D03*
G54D18*
X438000Y123000D03*
Y132000D03*
X479000Y123000D03*
Y132000D03*
X453000Y123000D03*
Y132000D03*
X488000D03*
Y123000D03*
G54D19*
G01X167500Y90500D02*
X198500D01*
X248500Y140500D01*
Y166500D01*
G01X167500Y100500D02*
X162500D01*
X157500Y95500D01*
G01X200000Y167000D02*
X165000D01*
X153500Y155500D01*
Y99500D01*
X157500Y95500D01*
G01X167500Y80500D02*
Y85500D01*
G01X157500D02*
X167500D01*
G01D02*
X202010D01*
G01X157500Y105500D02*
X200800D01*
X238300Y143000D01*
Y156500D01*
G01X167500Y110500D02*
X202900D01*
X229900Y137500D01*
Y141500D01*
G01X157500Y115500D02*
X203210D01*
X219210Y131500D01*
G01X212300Y158700D02*
X171300D01*
X169500Y160500D01*
X165000D01*
G01X208010Y129500D02*
X201500Y136010D01*
Y147500D01*
X203000Y149000D01*
X206010D01*
G01D02*
X212300Y155290D01*
Y158700D01*
G01D02*
Y163000D01*
G01X297000Y6000D02*
Y33010D01*
G01X292000Y6000D02*
Y51500D01*
G01X297000Y33010D02*
X310690Y46700D01*
X315000D01*
G01X302000Y6000D02*
Y31510D01*
X300500Y33010D01*
X297000D01*
G01X536010Y186500D02*
X307700D01*
X297200Y176000D01*
Y72200D01*
X305700Y63700D01*
X314000D01*
X342000Y35700D01*
Y32500D01*
G01X319500Y67000D02*
X308000D01*
G01X364260Y84820D02*
X312000D01*
G01X309000Y180500D02*
X318000D01*
G01X352000Y6000D02*
Y45130D01*
X342980Y54150D01*
X342730Y54450D01*
X342550Y54800D01*
X342440Y55170D01*
X342400Y55560D01*
X342440Y55950D01*
X342550Y56330D01*
X342740Y56670D01*
X342990Y56970D01*
X343290Y57220D01*
X343630Y57410D01*
X344010Y57520D01*
X344400Y57560D01*
X344790Y57520D01*
X345160Y57410D01*
X345510Y57230D01*
X345810Y56980D01*
X355230Y47560D01*
X355530Y47310D01*
X355870Y47120D01*
X356250Y47010D01*
X356640Y46970D01*
X357030Y47010D01*
X357400Y47120D01*
X357750Y47310D01*
X358050Y47550D01*
X358300Y47860D01*
X358490Y48200D01*
X358600Y48580D01*
X358640Y48960D01*
X358600Y49350D01*
X358490Y49730D01*
X358310Y50080D01*
X358060Y50380D01*
X348640Y59810D01*
X348390Y60110D01*
X348210Y60460D01*
X348100Y60830D01*
X348060Y61220D01*
X348100Y61610D01*
X348210Y61990D01*
X348400Y62330D01*
X348650Y62630D01*
X348950Y62880D01*
X349290Y63070D01*
X349670Y63180D01*
X350060Y63220D01*
X350450Y63180D01*
X350820Y63070D01*
X351170Y62890D01*
X351470Y62640D01*
X360890Y53220D01*
X361190Y52970D01*
X361530Y52780D01*
X361910Y52670D01*
X362300Y52630D01*
X362690Y52670D01*
X363060Y52780D01*
X363410Y52970D01*
X363710Y53210D01*
X363960Y53520D01*
X364150Y53860D01*
X364260Y54240D01*
X364300Y54620D01*
X364260Y55010D01*
X364150Y55390D01*
X363970Y55740D01*
X363720Y56040D01*
X354300Y65470D01*
X354050Y65770D01*
X353870Y66120D01*
X353760Y66490D01*
X353720Y66880D01*
X353760Y67270D01*
X353870Y67650D01*
X354060Y67990D01*
X354310Y68290D01*
X354610Y68540D01*
X354950Y68730D01*
X355330Y68840D01*
X355720Y68880D01*
X356110Y68840D01*
X356480Y68730D01*
X356830Y68550D01*
X357130Y68300D01*
X366550Y58880D01*
X366850Y58630D01*
X367190Y58440D01*
X367570Y58330D01*
X367960Y58290D01*
X368350Y58330D01*
X368720Y58440D01*
X369070Y58630D01*
X369370Y58870D01*
X369620Y59180D01*
X369810Y59520D01*
X369920Y59900D01*
X369960Y60280D01*
X369920Y60670D01*
X369810Y61050D01*
X369630Y61400D01*
X369380Y61700D01*
X359960Y71130D01*
X359710Y71430D01*
X359530Y71780D01*
X359420Y72150D01*
X359380Y72540D01*
X359420Y72930D01*
X359530Y73310D01*
X359720Y73650D01*
X359970Y73950D01*
X360270Y74200D01*
X360610Y74390D01*
X360990Y74500D01*
X361380Y74540D01*
X361770Y74500D01*
X362140Y74390D01*
X362490Y74210D01*
X362790Y73960D01*
X372210Y64540D01*
X372510Y64290D01*
X372850Y64100D01*
X373230Y63990D01*
X373620Y63950D01*
X374010Y63990D01*
X374380Y64100D01*
X374730Y64290D01*
X375030Y64530D01*
X375280Y64840D01*
X375470Y65180D01*
X375580Y65560D01*
X375620Y65940D01*
X375580Y66330D01*
X375470Y66710D01*
X375290Y67060D01*
X375040Y67360D01*
X365620Y76790D01*
X365370Y77090D01*
X365190Y77440D01*
X365080Y77810D01*
X365040Y78200D01*
X365080Y78590D01*
X365190Y78970D01*
X365380Y79310D01*
X365630Y79610D01*
X365930Y79860D01*
X366270Y80050D01*
X366650Y80160D01*
X367040Y80200D01*
X367430Y80160D01*
X367800Y80050D01*
X368150Y79870D01*
X368450Y79620D01*
X377870Y70200D01*
X378170Y69950D01*
X378510Y69760D01*
X378890Y69650D01*
X379280Y69610D01*
X379670Y69650D01*
X380040Y69760D01*
X380390Y69950D01*
X380690Y70190D01*
X380940Y70500D01*
X381130Y70840D01*
X381240Y71220D01*
X381280Y71600D01*
X381240Y71990D01*
X381130Y72370D01*
X380950Y72720D01*
X380700Y73020D01*
X371280Y82450D01*
X371030Y82750D01*
X370850Y83100D01*
X370740Y83470D01*
X370700Y83860D01*
X370740Y84250D01*
X370850Y84630D01*
X371040Y84970D01*
X371290Y85270D01*
X371590Y85520D01*
X371930Y85710D01*
X372310Y85820D01*
X372700Y85860D01*
X373090Y85820D01*
X373460Y85710D01*
X373810Y85530D01*
X374110Y85280D01*
X376390Y83000D01*
X383500D01*
X385000Y84500D01*
Y88000D01*
X383070Y89930D01*
X372000D01*
X371610Y89970D01*
X371230Y90080D01*
X370890Y90270D01*
X370590Y90520D01*
X370340Y90820D01*
X370150Y91160D01*
X370040Y91540D01*
X370000Y91930D01*
X370040Y92320D01*
X370150Y92700D01*
X370340Y93040D01*
X370590Y93340D01*
X370890Y93590D01*
X371230Y93780D01*
X371610Y93890D01*
X372000Y93930D01*
X387000D01*
X387390Y93970D01*
X387770Y94080D01*
X388110Y94270D01*
X388410Y94520D01*
X388660Y94820D01*
X388850Y95160D01*
X388960Y95540D01*
X389000Y95930D01*
X388960Y96320D01*
X388850Y96700D01*
X388660Y97040D01*
X388410Y97340D01*
X388110Y97590D01*
X387770Y97780D01*
X387390Y97890D01*
X387000Y97930D01*
X372000D01*
X371610Y97970D01*
X371230Y98080D01*
X370890Y98270D01*
X370590Y98520D01*
X370340Y98820D01*
X370150Y99160D01*
X370040Y99540D01*
X370000Y99930D01*
X370040Y100320D01*
X370150Y100700D01*
X370340Y101040D01*
X370590Y101340D01*
X370890Y101590D01*
X371230Y101780D01*
X371610Y101890D01*
X372000Y101930D01*
X387000D01*
X387390Y101970D01*
X387770Y102080D01*
X388110Y102270D01*
X388410Y102520D01*
X388660Y102820D01*
X388850Y103160D01*
X388960Y103540D01*
X389000Y103930D01*
X388960Y104320D01*
X388850Y104700D01*
X388660Y105040D01*
X388410Y105340D01*
X388110Y105590D01*
X387770Y105780D01*
X387390Y105890D01*
X387000Y105930D01*
X372000D01*
X371610Y105970D01*
X371230Y106080D01*
X370890Y106270D01*
X370590Y106520D01*
X370340Y106820D01*
X370150Y107160D01*
X370040Y107540D01*
X370000Y107930D01*
X370040Y108320D01*
X370150Y108700D01*
X370340Y109040D01*
X370590Y109340D01*
X370890Y109590D01*
X371230Y109780D01*
X371610Y109890D01*
X372000Y109930D01*
X387000D01*
X387390Y109970D01*
X387770Y110080D01*
X388110Y110270D01*
X388410Y110520D01*
X388660Y110820D01*
X388850Y111160D01*
X388960Y111540D01*
X389000Y111930D01*
X388960Y112320D01*
X388850Y112700D01*
X388660Y113040D01*
X388410Y113340D01*
X388110Y113590D01*
X387770Y113780D01*
X387390Y113890D01*
X387000Y113930D01*
X372000D01*
X371610Y113970D01*
X371230Y114080D01*
X370890Y114270D01*
X370590Y114520D01*
X370340Y114820D01*
X370150Y115160D01*
X370040Y115540D01*
X370000Y115930D01*
X370040Y116320D01*
X370150Y116700D01*
X370340Y117040D01*
X370590Y117340D01*
X370890Y117590D01*
X371230Y117780D01*
X371610Y117890D01*
X372000Y117930D01*
X387000D01*
X387390Y117970D01*
X387770Y118080D01*
X388110Y118270D01*
X388410Y118520D01*
X388660Y118820D01*
X388850Y119160D01*
X388960Y119540D01*
X389000Y119930D01*
X388960Y120320D01*
X388850Y120700D01*
X388660Y121040D01*
X388410Y121340D01*
X388110Y121590D01*
X387770Y121780D01*
X387390Y121890D01*
X387000Y121930D01*
X372000D01*
X371610Y121970D01*
X371230Y122080D01*
X370890Y122270D01*
X370590Y122520D01*
X370340Y122820D01*
X370150Y123160D01*
X370040Y123540D01*
X370000Y123930D01*
X370040Y124320D01*
X370150Y124700D01*
X370340Y125040D01*
X370590Y125340D01*
X370890Y125590D01*
X371230Y125780D01*
X371610Y125890D01*
X372000Y125930D01*
X387000D01*
X387390Y125970D01*
X387770Y126080D01*
X388110Y126270D01*
X388410Y126520D01*
X388660Y126820D01*
X388850Y127160D01*
X388960Y127540D01*
X389000Y127930D01*
X388960Y128320D01*
X388850Y128700D01*
X388660Y129040D01*
X388410Y129340D01*
X388110Y129590D01*
X387770Y129780D01*
X387390Y129890D01*
X387000Y129930D01*
X372000D01*
X371610Y129970D01*
X371230Y130080D01*
X370890Y130270D01*
X370590Y130520D01*
X370340Y130820D01*
X370150Y131160D01*
X370040Y131540D01*
X370000Y131930D01*
X370040Y132320D01*
X370150Y132700D01*
X370340Y133040D01*
X370590Y133340D01*
X370890Y133590D01*
X371230Y133780D01*
X371610Y133890D01*
X372000Y133930D01*
X387000D01*
G03X389000Y135930I0J2000D01*
G01Y139500D01*
G01X367000Y6000D02*
Y34800D01*
X361500Y40300D01*
X358260D01*
G01Y87820D02*
X353500D01*
X352000Y89320D01*
Y91140D01*
G01X380000Y86000D02*
X377000D01*
X375180Y87820D01*
X358260D01*
G01X352000Y136000D02*
X360500Y144500D01*
X401500D01*
X404000Y142000D01*
X444500D01*
G01X358500Y120500D02*
X361500Y123500D01*
Y136500D01*
X365000Y140000D01*
X373000D01*
G01X352000Y120500D02*
X358500D01*
G01X333500Y166500D02*
X337500Y162500D01*
X452000D01*
X460770Y153730D01*
Y138730D01*
G01X334000Y141500D02*
X341000Y148500D01*
X444000D01*
X447500Y145000D01*
Y139000D01*
G01X333500Y156500D02*
X443000D01*
X457500Y142000D01*
G01X387000Y6000D02*
Y46110D01*
X389000Y48110D01*
X395000D01*
X397000Y50110D01*
Y95670D01*
X410500Y109170D01*
X423040D01*
G01X377000Y6000D02*
Y50710D01*
G01X372000Y6000D02*
Y50510D01*
X392600Y71110D01*
Y122880D01*
X393800Y124080D01*
G01X362000Y6000D02*
X362880D01*
Y34190D01*
G01X392000Y6000D02*
Y31500D01*
X390300Y33200D01*
Y45110D01*
G01X364260Y45100D02*
X367900Y48740D01*
Y52510D01*
X390800Y75410D01*
Y125510D01*
X392370Y127080D01*
X423040D01*
G01X371000Y165510D02*
Y172010D01*
G01D02*
X375500D01*
G01X371000D02*
Y180000D01*
G01X417000Y6000D02*
Y43450D01*
X415900Y44550D01*
Y49450D01*
X417000Y50550D01*
Y65610D01*
G01X407000Y6000D02*
Y88700D01*
G01X402000Y6000D02*
Y93810D01*
G01X420690Y102570D02*
X406500D01*
X398800Y94870D01*
Y39600D01*
X397000Y37800D01*
Y6000D01*
G01X428990Y114500D02*
Y110870D01*
X420690Y102570D01*
G01X425500Y95000D02*
X420700Y99800D01*
Y102560D01*
X420690Y102570D01*
G01X395000Y139500D02*
X395300Y139200D01*
Y132200D01*
G01X432000Y6000D02*
Y63210D01*
X449500Y80710D01*
Y86080D01*
G01X422000Y6000D02*
Y55310D01*
G01X437000Y6000D02*
Y32550D01*
X435890Y33660D01*
Y57210D01*
X453090Y74410D01*
Y88910D01*
G01X427000Y6000D02*
Y52310D01*
G01X458210Y83250D02*
Y60720D01*
X450200Y52710D01*
Y33200D01*
X447000Y30000D01*
Y6000D01*
G01X440740Y54410D02*
Y51410D01*
X438890Y49560D01*
Y36100D01*
G01X428800Y78450D02*
X427000D01*
X425500Y79950D01*
Y83250D01*
G01X443500Y87000D02*
X434950Y78450D01*
X428800D01*
G01Y77940D02*
X439000D01*
X446500Y85440D01*
Y87750D01*
X453500Y94750D01*
X457210D01*
X461210Y90750D01*
Y56520D01*
X452000Y47310D01*
Y6000D01*
G01X427000Y52310D02*
Y76140D01*
X428800Y77940D01*
G01Y78450D02*
Y77940D01*
G01X443000Y118500D02*
X446000D01*
X447000Y117500D01*
X453000D01*
G01X433500Y114500D02*
X428990D01*
G01X438000Y123000D02*
Y118500D01*
X443000D01*
G01X577000Y33300D02*
Y127800D01*
X527000Y177800D01*
X439000D01*
G01X457000Y6000D02*
Y48020D01*
G01X472000Y6000D02*
Y48200D01*
G01X477000Y6000D02*
Y33500D01*
G01D02*
Y49880D01*
X470560Y56320D01*
Y85990D01*
X472130Y87560D01*
X474150D01*
X480750Y80960D01*
X484240D01*
G01X482000Y6000D02*
Y63280D01*
X473560Y71720D01*
Y83250D01*
G01X453000Y117500D02*
Y123000D01*
G01X479000D02*
Y117500D01*
G01X507000Y6000D02*
Y67730D01*
X491480Y83250D01*
G01X497000Y6000D02*
Y33600D01*
X500000Y36600D01*
Y51100D01*
X498900Y52200D01*
G01X492000Y6000D02*
Y39210D01*
X489010Y42200D01*
Y45200D01*
G01X487000Y6000D02*
Y35520D01*
X484240Y38280D01*
Y46400D01*
X486040Y48200D01*
G01X512000Y6000D02*
Y31500D01*
X510570D01*
X509000Y33070D01*
Y78250D01*
X513000Y82250D01*
G01X486040Y48200D02*
Y79160D01*
X484240Y80960D01*
G01X497000Y48200D02*
X486040D01*
G01X547000Y6000D02*
Y58300D01*
X513500Y91800D01*
X493590D01*
G01Y104050D02*
X499690D01*
G01X481240Y85760D02*
X484240Y82760D01*
Y80960D01*
G01X501630Y96370D02*
X504630D01*
X505390Y97130D01*
X538400D01*
G01X502000Y110000D02*
X519110D01*
X532400Y123290D01*
G01X486000Y114000D02*
Y117710D01*
X486790Y118500D01*
X488000D01*
Y123000D01*
G01X501710Y138710D02*
X498500Y135500D01*
Y120570D01*
X496930Y119000D01*
X494000D01*
X492000Y121000D01*
Y123000D01*
X488000D01*
G01X537000Y6000D02*
X535500Y7500D01*
Y29500D01*
X535460D01*
Y29890D01*
X535400D01*
Y65300D01*
G01X532000Y6000D02*
Y59700D01*
X529000Y62700D01*
G01X542000Y6000D02*
Y34740D01*
X539630Y37110D01*
Y40110D01*
G01X532400Y123290D02*
X558000D01*
X567000Y114290D01*
Y32500D01*
G01X532400Y123290D02*
X530600Y125090D01*
Y157400D01*
G01X562000Y6000D02*
Y114860D01*
X557010Y119850D01*
G01X552000Y6000D02*
Y40020D01*
X549000Y43020D01*
Y67020D01*
X550000Y68020D01*
Y71020D01*
G01X567000Y32500D02*
Y6000D01*
G01X582000D02*
Y31730D01*
X580430Y33300D01*
X577000D01*
G01Y6000D02*
Y33300D01*
G01X584500Y184000D02*
Y2000D01*
G02X582500Y0I-2000J0D01*
G01X341000D01*
G02X339500Y1500I0J1500D01*
G01Y31000D01*
G03X329500Y31500I-5012J0D01*
G01Y2000D01*
G02X327000Y0I-2050J0D01*
G01X275000D01*
G02X274500Y500I0J500D01*
G01Y40000D01*
X273500Y41000D01*
X170500D01*
X170000Y40500D01*
Y2000D01*
X168500Y500D01*
X114000D01*
X113500Y1000D01*
Y187000D01*
X115500Y189000D01*
X582000D01*
X584500Y186500D01*
Y184000D01*
M02*
