G04 ================== begin FILE IDENTIFICATION RECORD ==================*
G04 Layout Name:  E:/PCB/RTL8139/to6.brd*
G04 Film Name:    Silk_Bottom*
G04 File Format:  Gerber RS274X*
G04 File Origin:  15.7-p007*
G04 Origin Date:  Tue Mar 18 11:06:14 2008*
G04 *
G04 Layer:  REF DES/ASSEMBLY_BOTTOM*
G04 Layer:  PACKAGE GEOMETRY/SILKSCREEN_BOTTOM*
G04 Layer:  BOARD GEOMETRY/OUTLINE*
G04 *
G04 Offset:    (0.0 0.0)*
G04 Mirror:    No*
G04 Mode:      Positive*
G04 Rotation:  0*
G04 FullContactRelief:  No*
G04 UndefLineWidth:     10.0*
G04 ================== end FILE IDENTIFICATION RECORD ====================*
%FSLAX55Y55*MOIN*%
%IR0*IPPOS*OFA0.00000B0.00000*MIA0B0*SFA1.00000B1.00000*%
%ADD10C,.01*%
G75*
%LPD*%
G75*
G54D10*
G01X584500Y184000D02*
Y2000D01*
G02X582500Y0I-2000J0D01*
G01X341000D01*
G02X339500Y1500I0J1500D01*
G01Y31000D01*
G03X329500Y31500I-5012J0D01*
G01Y2000D01*
G02X327000Y0I-2050J0D01*
G01X275000D01*
G02X274500Y500I0J500D01*
G01Y40000D01*
X273500Y41000D01*
X170500D01*
X170000Y40500D01*
Y2000D01*
X168500Y500D01*
X114000D01*
X113500Y1000D01*
Y187000D01*
X115500Y189000D01*
X582000D01*
X584500Y186500D01*
Y184000D01*
G01X385800Y142300D02*
X398200D01*
Y136700D01*
X385800D01*
Y142300D01*
G01X388500Y137000D02*
X386000D01*
Y142000D01*
X387000D01*
G01X395270Y143500D02*
Y148500D01*
X393930D01*
X393510Y148250D01*
X393240Y147920D01*
X393130Y147250D01*
X393240Y146580D01*
X393560Y146170D01*
X393930Y145920D01*
X395270D01*
G01X393930D02*
X393130Y143500D01*
G01X389800D02*
X389430Y143580D01*
X389000Y143830D01*
X388730Y144250D01*
X388630Y144830D01*
X388730Y145420D01*
X389050Y145920D01*
X389530Y146170D01*
X390070D01*
X390390Y146330D01*
X390650Y146750D01*
X390760Y147330D01*
X390600Y147920D01*
X390230Y148330D01*
X389800Y148500D01*
X389370Y148330D01*
X389000Y147920D01*
X388840Y147330D01*
X388950Y146750D01*
X389210Y146330D01*
X389530Y146170D01*
X390070D01*
X390550Y145920D01*
X390870Y145420D01*
X390970Y144830D01*
X390870Y144250D01*
X390600Y143830D01*
X390170Y143580D01*
X389800Y143500D01*
G01X397000Y142000D02*
X398000D01*
Y137000D01*
X395500D01*
G01X441000Y99500D02*
Y100500D01*
X446000D01*
Y98000D01*
G01Y91000D02*
Y88500D01*
X441000D01*
Y89500D01*
G01X440700Y88300D02*
Y100700D01*
X446300D01*
Y88300D01*
X440700D01*
G01X439000Y103500D02*
X440000D01*
Y98500D01*
X437500D01*
G01X430500D02*
X428000D01*
Y103500D01*
X429000D01*
G01X427800Y103800D02*
X440200D01*
Y98200D01*
X427800D01*
Y103800D01*
G01X439000Y97500D02*
X440000D01*
Y92500D01*
X437500D01*
G01X430500D02*
X428000D01*
Y97500D01*
X429000D01*
G01X427800Y97800D02*
X440200D01*
Y92200D01*
X427800D01*
Y97800D01*
G01X457570Y110000D02*
Y115000D01*
X456510D01*
X456080Y114750D01*
X455760Y114420D01*
X455490Y113920D01*
X455280Y113330D01*
X455230Y112500D01*
X455280Y111670D01*
X455490Y111080D01*
X455760Y110580D01*
X456080Y110250D01*
X456510Y110000D01*
X457570D01*
G01X450830Y114580D02*
X451150Y114830D01*
X451520Y115000D01*
X451950D01*
X452430Y114750D01*
X452800Y114330D01*
X453070Y113830D01*
X453280Y113000D01*
X453330Y112250D01*
X453230Y111500D01*
X453070Y111000D01*
X452750Y110500D01*
X452370Y110170D01*
X452000Y110000D01*
X451630D01*
X451250Y110170D01*
X450930Y110420D01*
X450670Y110750D01*
G01X448770D02*
X448450Y110330D01*
X448080Y110080D01*
X447600Y110000D01*
X447120Y110170D01*
X446750Y110500D01*
X446480Y111080D01*
X446430Y111750D01*
X446530Y112420D01*
X446800Y112830D01*
X447170Y113170D01*
X447550Y113250D01*
X447920Y113170D01*
X448400Y112830D01*
X448240Y115000D01*
X446800D01*
G01X458570Y98500D02*
Y103500D01*
X457510D01*
X457080Y103250D01*
X456760Y102920D01*
X456490Y102420D01*
X456280Y101830D01*
X456230Y101000D01*
X456280Y100170D01*
X456490Y99580D01*
X456760Y99080D01*
X457080Y98750D01*
X457510Y98500D01*
X458570D01*
G01X451830Y103080D02*
X452150Y103330D01*
X452520Y103500D01*
X452950D01*
X453430Y103250D01*
X453800Y102830D01*
X454070Y102330D01*
X454280Y101500D01*
X454330Y100750D01*
X454230Y100000D01*
X454070Y99500D01*
X453750Y99000D01*
X453370Y98670D01*
X453000Y98500D01*
X452630D01*
X452250Y98670D01*
X451930Y98920D01*
X451670Y99250D01*
G01X448600Y98500D02*
X448230Y98580D01*
X447800Y98830D01*
X447530Y99250D01*
X447430Y99830D01*
X447530Y100420D01*
X447850Y100920D01*
X448330Y101170D01*
X448870D01*
X449190Y101330D01*
X449450Y101750D01*
X449560Y102330D01*
X449400Y102920D01*
X449030Y103330D01*
X448600Y103500D01*
X448170Y103330D01*
X447800Y102920D01*
X447640Y102330D01*
X447750Y101750D01*
X448010Y101330D01*
X448330Y101170D01*
X448870D01*
X449350Y100920D01*
X449670Y100420D01*
X449770Y99830D01*
X449670Y99250D01*
X449400Y98830D01*
X448970Y98580D01*
X448600Y98500D01*
G01X458570Y92000D02*
Y97000D01*
X457510D01*
X457080Y96750D01*
X456760Y96420D01*
X456490Y95920D01*
X456280Y95330D01*
X456230Y94500D01*
X456280Y93670D01*
X456490Y93080D01*
X456760Y92580D01*
X457080Y92250D01*
X457510Y92000D01*
X458570D01*
G01X451830Y96580D02*
X452150Y96830D01*
X452520Y97000D01*
X452950D01*
X453430Y96750D01*
X453800Y96330D01*
X454070Y95830D01*
X454280Y95000D01*
X454330Y94250D01*
X454230Y93500D01*
X454070Y93000D01*
X453750Y92500D01*
X453370Y92170D01*
X453000Y92000D01*
X452630D01*
X452250Y92170D01*
X451930Y92420D01*
X451670Y92750D01*
G01X449610Y94080D02*
X449240Y94670D01*
X448920Y95000D01*
X448490Y95170D01*
X448120Y95000D01*
X447850Y94670D01*
X447640Y94170D01*
X447590Y93580D01*
X447640Y93080D01*
X447850Y92580D01*
X448170Y92170D01*
X448550Y92000D01*
X448970Y92170D01*
X449350Y92670D01*
X449560Y93420D01*
X449610Y94250D01*
X449510Y95330D01*
X449350Y95920D01*
X449080Y96500D01*
X448710Y96920D01*
X448330Y97000D01*
X447960Y96830D01*
X447690Y96420D01*
G01X433500Y119000D02*
Y136000D01*
X442500D01*
Y119000D01*
X433500D01*
G01X442500Y124000D02*
Y119000D01*
X433500D01*
Y122500D01*
G01Y132500D02*
Y136000D01*
X442500D01*
Y131000D01*
G01X442700Y123300D02*
Y135700D01*
X448300D01*
Y123300D01*
X442700D01*
G01X448000Y126000D02*
Y123500D01*
X443000D01*
Y124500D01*
G01Y134500D02*
Y135500D01*
X448000D01*
Y133000D01*
G01X448500Y119000D02*
Y136000D01*
X457500D01*
Y119000D01*
X448500D01*
G01X457500Y124000D02*
Y119000D01*
X448500D01*
Y122500D01*
G01Y132500D02*
Y136000D01*
X457500D01*
Y131000D01*
G01X427700Y123300D02*
Y135700D01*
X433300D01*
Y123300D01*
X427700D01*
G01X433000Y126000D02*
Y123500D01*
X428000D01*
Y124500D01*
G01Y134500D02*
Y135500D01*
X433000D01*
Y133000D01*
G01X441500Y117000D02*
X442500D01*
Y112000D01*
X440000D01*
G01X433000D02*
X430500D01*
Y117000D01*
X431500D01*
G01X430300Y117300D02*
X442700D01*
Y111700D01*
X430300D01*
Y117300D01*
G01X432580Y148970D02*
X432830Y148650D01*
X433000Y148280D01*
Y147850D01*
X432750Y147370D01*
X432330Y147000D01*
X431830Y146730D01*
X431000Y146520D01*
X430250Y146470D01*
X429500Y146570D01*
X429000Y146730D01*
X428500Y147050D01*
X428170Y147430D01*
X428000Y147800D01*
Y148170D01*
X428170Y148550D01*
X428420Y148870D01*
X428750Y149130D01*
G01X428000Y152200D02*
X433000D01*
X432000Y151560D01*
G01X428000D02*
Y152840D01*
G01X437670Y148030D02*
X437920Y148240D01*
X438330Y148400D01*
X438920Y148510D01*
X439420Y148400D01*
X439750Y148190D01*
X440000Y147810D01*
Y146370D01*
X435000D01*
Y148130D01*
X435330Y148510D01*
X435830Y148720D01*
X436420Y148830D01*
X437000Y148720D01*
X437500Y148400D01*
X437670Y148030D01*
Y146370D01*
G01X435000Y152000D02*
X440000D01*
X439000Y151360D01*
G01X435000D02*
Y152640D01*
G01X447080Y148470D02*
X447330Y148150D01*
X447500Y147780D01*
Y147350D01*
X447250Y146870D01*
X446830Y146500D01*
X446330Y146230D01*
X445500Y146020D01*
X444750Y145970D01*
X444000Y146070D01*
X443500Y146230D01*
X443000Y146550D01*
X442670Y146930D01*
X442500Y147300D01*
Y147670D01*
X442670Y148050D01*
X442920Y148370D01*
X443250Y148630D01*
G01X446670Y150690D02*
X447170Y151010D01*
X447420Y151380D01*
X447500Y151810D01*
X447330Y152340D01*
X446920Y152710D01*
X446420Y152820D01*
X445920Y152770D01*
X445500Y152550D01*
X444670Y151490D01*
X444080Y151010D01*
X443250Y150690D01*
X442500Y150580D01*
Y152820D01*
G01X453670Y148030D02*
X453920Y148240D01*
X454330Y148400D01*
X454920Y148510D01*
X455420Y148400D01*
X455750Y148190D01*
X456000Y147810D01*
Y146370D01*
X451000D01*
Y148130D01*
X451330Y148510D01*
X451830Y148720D01*
X452420Y148830D01*
X453000Y148720D01*
X453500Y148400D01*
X453670Y148030D01*
Y146370D01*
G01X455170Y150990D02*
X455670Y151310D01*
X455920Y151680D01*
X456000Y152110D01*
X455830Y152640D01*
X455420Y153010D01*
X454920Y153120D01*
X454420Y153070D01*
X454000Y152850D01*
X453170Y151790D01*
X452580Y151310D01*
X451750Y150990D01*
X451000Y150880D01*
Y153120D01*
G01X478500Y101000D02*
Y102000D01*
X483500D01*
Y99500D01*
G01Y92500D02*
Y90000D01*
X478500D01*
Y91000D01*
G01X478200Y89800D02*
Y102200D01*
X483800D01*
Y89800D01*
X478200D01*
G01X460500Y92430D02*
X465500D01*
Y93490D01*
X465250Y93920D01*
X464920Y94240D01*
X464420Y94510D01*
X463830Y94720D01*
X463000Y94770D01*
X462170Y94720D01*
X461580Y94510D01*
X461080Y94240D01*
X460750Y93920D01*
X460500Y93490D01*
Y92430D01*
G01X465080Y99170D02*
X465330Y98850D01*
X465500Y98480D01*
Y98050D01*
X465250Y97570D01*
X464830Y97200D01*
X464330Y96930D01*
X463500Y96720D01*
X462750Y96670D01*
X462000Y96770D01*
X461500Y96930D01*
X461000Y97250D01*
X460670Y97630D01*
X460500Y98000D01*
Y98370D01*
X460670Y98750D01*
X460920Y99070D01*
X461250Y99330D01*
G01X460500Y102400D02*
X465500D01*
X464500Y101760D01*
G01X460500D02*
Y103040D01*
G01X472000Y90930D02*
X477000D01*
Y91990D01*
X476750Y92420D01*
X476420Y92740D01*
X475920Y93010D01*
X475330Y93220D01*
X474500Y93270D01*
X473670Y93220D01*
X473080Y93010D01*
X472580Y92740D01*
X472250Y92420D01*
X472000Y91990D01*
Y90930D01*
G01X476580Y97670D02*
X476830Y97350D01*
X477000Y96980D01*
Y96550D01*
X476750Y96070D01*
X476330Y95700D01*
X475830Y95430D01*
X475000Y95220D01*
X474250Y95170D01*
X473500Y95270D01*
X473000Y95430D01*
X472500Y95750D01*
X472170Y96130D01*
X472000Y96500D01*
Y96870D01*
X472170Y97250D01*
X472420Y97570D01*
X472750Y97830D01*
G01X476170Y99890D02*
X476670Y100210D01*
X476920Y100580D01*
X477000Y101010D01*
X476830Y101540D01*
X476420Y101910D01*
X475920Y102020D01*
X475420Y101970D01*
X475000Y101750D01*
X474170Y100690D01*
X473580Y100210D01*
X472750Y99890D01*
X472000Y99780D01*
Y102020D01*
G01X462700Y123300D02*
Y135700D01*
X468300D01*
Y123300D01*
X462700D01*
G01X468000Y126000D02*
Y123500D01*
X463000D01*
Y124500D01*
G01Y134500D02*
Y135500D01*
X468000D01*
Y133000D01*
G01X468700Y123300D02*
Y135700D01*
X474300D01*
Y123300D01*
X468700D01*
G01X474000Y126000D02*
Y123500D01*
X469000D01*
Y124500D01*
G01Y134500D02*
Y135500D01*
X474000D01*
Y133000D01*
G01X474500Y119000D02*
Y136000D01*
X483500D01*
Y119000D01*
X474500D01*
G01X483500Y124000D02*
Y119000D01*
X474500D01*
Y122500D01*
G01Y132500D02*
Y136000D01*
X483500D01*
Y131000D01*
G01X479670Y148530D02*
X479920Y148740D01*
X480330Y148900D01*
X480920Y149010D01*
X481420Y148900D01*
X481750Y148690D01*
X482000Y148310D01*
Y146870D01*
X477000D01*
Y148630D01*
X477330Y149010D01*
X477830Y149220D01*
X478420Y149330D01*
X479000Y149220D01*
X479500Y148900D01*
X479670Y148530D01*
Y146870D01*
G01X478000Y151330D02*
X477420Y151650D01*
X477080Y152070D01*
X477000Y152550D01*
X477080Y152980D01*
X477500Y153410D01*
X478000Y153670D01*
X478500Y153730D01*
X479080Y153620D01*
X479500Y153250D01*
X479670Y152870D01*
Y152390D01*
G01Y152870D02*
X479920Y153190D01*
X480330Y153460D01*
X480830Y153570D01*
X481330Y153460D01*
X481750Y153190D01*
X482000Y152710D01*
X481920Y152230D01*
X481580Y151750D01*
G01X474080Y148970D02*
X474330Y148650D01*
X474500Y148280D01*
Y147850D01*
X474250Y147370D01*
X473830Y147000D01*
X473330Y146730D01*
X472500Y146520D01*
X471750Y146470D01*
X471000Y146570D01*
X470500Y146730D01*
X470000Y147050D01*
X469670Y147430D01*
X469500Y147800D01*
Y148170D01*
X469670Y148550D01*
X469920Y148870D01*
X470250Y149130D01*
G01X470500Y151030D02*
X469920Y151350D01*
X469580Y151770D01*
X469500Y152250D01*
X469580Y152680D01*
X470000Y153110D01*
X470500Y153370D01*
X471000Y153430D01*
X471580Y153320D01*
X472000Y152950D01*
X472170Y152570D01*
Y152090D01*
G01Y152570D02*
X472420Y152890D01*
X472830Y153160D01*
X473330Y153270D01*
X473830Y153160D01*
X474250Y152890D01*
X474500Y152410D01*
X474420Y151930D01*
X474080Y151450D01*
G01X462500Y146730D02*
X467500D01*
Y148070D01*
X467250Y148490D01*
X466920Y148760D01*
X466250Y148870D01*
X465580Y148760D01*
X465170Y148440D01*
X464920Y148070D01*
Y146730D01*
G01Y148070D02*
X462500Y148870D01*
G01X463500Y151030D02*
X462920Y151350D01*
X462580Y151770D01*
X462500Y152250D01*
X462580Y152680D01*
X463000Y153110D01*
X463500Y153370D01*
X464000Y153430D01*
X464580Y153320D01*
X465000Y152950D01*
X465170Y152570D01*
Y152090D01*
G01Y152570D02*
X465420Y152890D01*
X465830Y153160D01*
X466330Y153270D01*
X466830Y153160D01*
X467250Y152890D01*
X467500Y152410D01*
X467420Y151930D01*
X467080Y151450D01*
G01X488500Y107500D02*
X487500D01*
Y112500D01*
X490000D01*
G01X497000D02*
X499500D01*
Y107500D01*
X498500D01*
G01X499700Y107200D02*
X487300D01*
Y112800D01*
X499700D01*
Y107200D01*
G01X488500Y93500D02*
X487500D01*
Y98500D01*
X490000D01*
G01X497000D02*
X499500D01*
Y93500D01*
X498500D01*
G01X499700Y93200D02*
X487300D01*
Y98800D01*
X499700D01*
Y93200D01*
G01X516570Y107000D02*
Y112000D01*
X515510D01*
X515080Y111750D01*
X514760Y111420D01*
X514490Y110920D01*
X514280Y110330D01*
X514230Y109500D01*
X514280Y108670D01*
X514490Y108080D01*
X514760Y107580D01*
X515080Y107250D01*
X515510Y107000D01*
X516570D01*
G01X509830Y111580D02*
X510150Y111830D01*
X510520Y112000D01*
X510950D01*
X511430Y111750D01*
X511800Y111330D01*
X512070Y110830D01*
X512280Y110000D01*
X512330Y109250D01*
X512230Y108500D01*
X512070Y108000D01*
X511750Y107500D01*
X511370Y107170D01*
X511000Y107000D01*
X510630D01*
X510250Y107170D01*
X509930Y107420D01*
X509670Y107750D01*
G01X505960Y107000D02*
Y112000D01*
X507930Y108420D01*
X505270D01*
G01X516570Y93500D02*
Y98500D01*
X515510D01*
X515080Y98250D01*
X514760Y97920D01*
X514490Y97420D01*
X514280Y96830D01*
X514230Y96000D01*
X514280Y95170D01*
X514490Y94580D01*
X514760Y94080D01*
X515080Y93750D01*
X515510Y93500D01*
X516570D01*
G01X509830Y98080D02*
X510150Y98330D01*
X510520Y98500D01*
X510950D01*
X511430Y98250D01*
X511800Y97830D01*
X512070Y97330D01*
X512280Y96500D01*
X512330Y95750D01*
X512230Y95000D01*
X512070Y94500D01*
X511750Y94000D01*
X511370Y93670D01*
X511000Y93500D01*
X510630D01*
X510250Y93670D01*
X509930Y93920D01*
X509670Y94250D01*
G01X507770Y94500D02*
X507450Y93920D01*
X507030Y93580D01*
X506550Y93500D01*
X506120Y93580D01*
X505690Y94000D01*
X505430Y94500D01*
X505370Y95000D01*
X505480Y95580D01*
X505850Y96000D01*
X506230Y96170D01*
X506710D01*
G01X506230D02*
X505910Y96420D01*
X505640Y96830D01*
X505530Y97330D01*
X505640Y97830D01*
X505910Y98250D01*
X506390Y98500D01*
X506870Y98420D01*
X507350Y98080D01*
G01X492500Y136000D02*
Y119000D01*
X483500D01*
Y136000D01*
X492500D01*
G01X483500Y131000D02*
Y136000D01*
X492500D01*
Y132500D01*
G01Y122500D02*
Y119000D01*
X483500D01*
Y124000D01*
G01X498300Y135700D02*
Y123300D01*
X492700D01*
Y135700D01*
X498300D01*
G01X493000Y133000D02*
Y135500D01*
X498000D01*
Y134500D01*
G01Y124500D02*
Y123500D01*
X493000D01*
Y126000D01*
G01X504300Y135700D02*
Y123300D01*
X498700D01*
Y135700D01*
X504300D01*
G01X499000Y133000D02*
Y135500D01*
X504000D01*
Y134500D01*
G01Y124500D02*
Y123500D01*
X499000D01*
Y126000D01*
G01X500500Y145430D02*
X505500D01*
Y146490D01*
X505250Y146920D01*
X504920Y147240D01*
X504420Y147510D01*
X503830Y147720D01*
X503000Y147770D01*
X502170Y147720D01*
X501580Y147510D01*
X501080Y147240D01*
X500750Y146920D01*
X500500Y146490D01*
Y145430D01*
G01X505080Y152170D02*
X505330Y151850D01*
X505500Y151480D01*
Y151050D01*
X505250Y150570D01*
X504830Y150200D01*
X504330Y149930D01*
X503500Y149720D01*
X502750Y149670D01*
X502000Y149770D01*
X501500Y149930D01*
X501000Y150250D01*
X500670Y150630D01*
X500500Y151000D01*
Y151370D01*
X500670Y151750D01*
X500920Y152070D01*
X501250Y152330D01*
G01X500500Y155290D02*
X501580Y155400D01*
X502500Y155560D01*
X503330Y155770D01*
X504250Y156040D01*
X505500Y156470D01*
Y154330D01*
G01X498080Y149970D02*
X498330Y149650D01*
X498500Y149280D01*
Y148850D01*
X498250Y148370D01*
X497830Y148000D01*
X497330Y147730D01*
X496500Y147520D01*
X495750Y147470D01*
X495000Y147570D01*
X494500Y147730D01*
X494000Y148050D01*
X493670Y148430D01*
X493500Y148800D01*
Y149170D01*
X493670Y149550D01*
X493920Y149870D01*
X494250Y150130D01*
G01X495580Y152190D02*
X496170Y152560D01*
X496500Y152880D01*
X496670Y153310D01*
X496500Y153680D01*
X496170Y153950D01*
X495670Y154160D01*
X495080Y154210D01*
X494580Y154160D01*
X494080Y153950D01*
X493670Y153630D01*
X493500Y153250D01*
X493670Y152830D01*
X494170Y152450D01*
X494920Y152240D01*
X495750Y152190D01*
X496830Y152290D01*
X497420Y152450D01*
X498000Y152720D01*
X498420Y153090D01*
X498500Y153470D01*
X498330Y153840D01*
X497920Y154110D01*
G01X487670Y148530D02*
X487920Y148740D01*
X488330Y148900D01*
X488920Y149010D01*
X489420Y148900D01*
X489750Y148690D01*
X490000Y148310D01*
Y146870D01*
X485000D01*
Y148630D01*
X485330Y149010D01*
X485830Y149220D01*
X486420Y149330D01*
X487000Y149220D01*
X487500Y148900D01*
X487670Y148530D01*
Y146870D01*
G01X485000Y153140D02*
X490000D01*
X486420Y151170D01*
Y153830D01*
M02*
