G04 ================== begin FILE IDENTIFICATION RECORD ==================*
G04 Layout Name:  E:/project/IRISking/ikemb-0001/project/hardware/OV7720/ov7725_v3/ov7725_V5.brd*
G04 Film Name:    silkscreen_TOP*
G04 File Format:  Gerber RS274X*
G04 File Origin:  16.0-p002*
G04 Origin Date:  Fri May 13 10:32:05 2011*
G04 *
G04 Layer:  REF DES/SILKSCREEN_TOP*
G04 Layer:  PACKAGE GEOMETRY/SILKSCREEN_TOP*
G04 Layer:  BOARD GEOMETRY/OUTLINE*
G04 *
G04 Offset:    (0.0000 0.0000)*
G04 Mirror:    No*
G04 Mode:      Positive*
G04 Rotation:  0*
G04 FullContactRelief:  No*
G04 UndefLineWidth:     8.0000*
G04 ================== end FILE IDENTIFICATION RECORD ====================*
%FSLAX55Y55*MOIN*%
%IR0*IPPOS*OFA0.00000B0.00000*MIA0B0*SFA1.00000B1.00000*%
%ADD10C,.008*%
G75*
%LPD*%
G75*
G36*
G01X66170Y64176D02*
G03I-332J0D01*
G37*
G54D10*
G01X-9436Y-11033D02*
X119364D01*
Y8967D01*
X139364D01*
Y140967D01*
G01X-9436Y-11033D02*
Y120967D01*
X10564D01*
Y160962D01*
X14979Y165377D01*
X132892D01*
X139361Y158908D01*
Y139769D01*
G01X5047Y14142D02*
Y11042D01*
X6581D01*
G01X9681D02*
X8147D01*
Y14142D01*
X9681D01*
G01X9067Y12644D02*
X8147D01*
G01X11171Y11042D02*
Y14142D01*
X11937D01*
X12244Y13987D01*
X12474Y13780D01*
X12666Y13470D01*
X12819Y13109D01*
X12857Y12592D01*
X12819Y12075D01*
X12666Y11714D01*
X12474Y11404D01*
X12244Y11197D01*
X11937Y11042D01*
X11171D01*
G01X14386Y13625D02*
X14616Y13935D01*
X14884Y14090D01*
X15191Y14142D01*
X15574Y14039D01*
X15842Y13780D01*
X15919Y13470D01*
X15881Y13160D01*
X15727Y12902D01*
X14961Y12385D01*
X14616Y12024D01*
X14386Y11507D01*
X14309Y11042D01*
X15919D01*
G01X27907Y-2617D02*
X18907D01*
Y14383D01*
X27907D01*
Y-2617D01*
G01X18907Y2383D02*
Y-2617D01*
X27907D01*
Y883D01*
G01Y10883D02*
Y14383D01*
X18907D01*
Y9383D01*
G01X105840Y19170D02*
X25840D01*
Y109170D01*
X105840D01*
Y19170D01*
G01X22107Y5283D02*
X24707D01*
X23307Y6683D01*
X21907Y5283D01*
X22107D01*
G01X32470Y139934D02*
X31963Y140017D01*
X31520Y140351D01*
X31140Y140851D01*
X30887Y141434D01*
X30760Y142101D01*
Y142767D01*
X30887Y143434D01*
X31140Y144017D01*
X31520Y144517D01*
X31963Y144851D01*
X32470Y144934D01*
X32977Y144851D01*
X33420Y144517D01*
X33800Y144017D01*
X34053Y143434D01*
X34180Y142767D01*
Y142101D01*
X34053Y141434D01*
X33800Y140851D01*
X33420Y140351D01*
X32977Y140017D01*
X32470Y139934D01*
G01X35987Y144934D02*
X37570Y139934D01*
X39153Y144934D01*
G01X42543Y139934D02*
X42670Y141017D01*
X42860Y141934D01*
X43113Y142767D01*
X43430Y143684D01*
X43937Y144934D01*
X41403D01*
G01X47643Y139934D02*
X47770Y141017D01*
X47960Y141934D01*
X48213Y142767D01*
X48530Y143684D01*
X49037Y144934D01*
X46503D01*
G01X51667Y144101D02*
X52047Y144601D01*
X52490Y144851D01*
X52997Y144934D01*
X53630Y144767D01*
X54073Y144351D01*
X54200Y143851D01*
X54137Y143351D01*
X53883Y142934D01*
X52617Y142101D01*
X52047Y141517D01*
X51667Y140684D01*
X51540Y139934D01*
X54200D01*
G01X56577Y140684D02*
X56957Y140267D01*
X57400Y140017D01*
X57970Y139934D01*
X58540Y140101D01*
X58983Y140434D01*
X59300Y141017D01*
X59363Y141684D01*
X59237Y142351D01*
X58920Y142767D01*
X58477Y143101D01*
X58033Y143184D01*
X57590Y143101D01*
X57020Y142767D01*
X57210Y144934D01*
X58920D01*
G01X61170Y138267D02*
X64970D01*
G01X66840Y140601D02*
X67347Y140184D01*
X67917Y139934D01*
X68423D01*
X68930Y140184D01*
X69310Y140601D01*
X69500Y141184D01*
X69373Y141767D01*
X69057Y142267D01*
X68487Y142601D01*
X67727Y142767D01*
X67283Y143101D01*
X67093Y143684D01*
X67220Y144267D01*
X67537Y144684D01*
X67980Y144934D01*
X68423D01*
X68867Y144767D01*
X69247Y144351D01*
G01X72510Y144934D02*
X74030D01*
G01X73270D02*
Y139934D01*
G01X72510D02*
X74030D01*
G01X76913D02*
Y144934D01*
X79827Y139934D01*
Y144934D01*
G01X83850Y142434D02*
X85117D01*
Y140934D01*
X84737Y140434D01*
X84293Y140101D01*
X83660Y139934D01*
X83027Y140101D01*
X82583Y140434D01*
X82203Y140934D01*
X81950Y141517D01*
X81823Y142184D01*
Y142767D01*
X81950Y143267D01*
X82203Y143851D01*
X82583Y144351D01*
X82963Y144684D01*
X83470Y144934D01*
X83913D01*
X84420Y144767D01*
X84800Y144434D01*
G01X87303Y144934D02*
Y139934D01*
X89837D01*
G01X94937D02*
X92403D01*
Y144934D01*
X94937D01*
G01X93923Y142517D02*
X92403D01*
G01X96870Y138267D02*
X100670D01*
G01X102287Y144934D02*
X103870Y139934D01*
X105453Y144934D01*
G01X107577Y140684D02*
X107957Y140267D01*
X108400Y140017D01*
X108970Y139934D01*
X109540Y140101D01*
X109983Y140434D01*
X110300Y141017D01*
X110363Y141684D01*
X110237Y142351D01*
X109920Y142767D01*
X109477Y143101D01*
X109033Y143184D01*
X108590Y143101D01*
X108020Y142767D01*
X108210Y144934D01*
X109920D01*
G01X78546Y57217D02*
X78780Y57077D01*
X78913Y56957D01*
X78980Y56797D01*
X78913Y56657D01*
X78780Y56557D01*
X78580Y56477D01*
X78346Y56457D01*
X78146Y56477D01*
X77946Y56557D01*
X77780Y56677D01*
X77713Y56817D01*
X77780Y56977D01*
X77980Y57117D01*
X78280Y57197D01*
X78613Y57217D01*
X79046Y57177D01*
X79280Y57117D01*
X79513Y57017D01*
X79680Y56877D01*
X79713Y56737D01*
X79646Y56597D01*
X79480Y56497D01*
G01X78013Y60230D02*
X77846Y60110D01*
X77746Y59970D01*
X77713Y59790D01*
X77780Y59610D01*
X77913Y59470D01*
X78146Y59369D01*
X78413Y59349D01*
X78680Y59389D01*
X78846Y59490D01*
X78980Y59630D01*
X79013Y59770D01*
X78980Y59910D01*
X78846Y60090D01*
X79713Y60030D01*
Y59490D01*
G01X77713Y62502D02*
X79713D01*
X78280Y63243D01*
Y62242D01*
G01X78113Y66726D02*
X77880Y66606D01*
X77746Y66446D01*
X77713Y66266D01*
X77746Y66106D01*
X77913Y65946D01*
X78113Y65846D01*
X78313Y65826D01*
X78546Y65866D01*
X78713Y66006D01*
X78780Y66146D01*
Y66326D01*
G01Y66146D02*
X78880Y66026D01*
X79046Y65926D01*
X79246Y65886D01*
X79446Y65926D01*
X79613Y66026D01*
X79713Y66206D01*
X79680Y66386D01*
X79546Y66566D01*
G01X79380Y69816D02*
X79580Y69696D01*
X79680Y69555D01*
X79713Y69395D01*
X79646Y69195D01*
X79480Y69055D01*
X79280Y69015D01*
X79080Y69035D01*
X78913Y69115D01*
X78580Y69515D01*
X78346Y69696D01*
X78013Y69816D01*
X77713Y69856D01*
Y69015D01*
G01Y72585D02*
X79713D01*
X79313Y72825D01*
G01X77713D02*
Y72345D01*
G01X57044Y78083D02*
X59044D01*
Y77323D01*
G01X58077Y77603D02*
Y78083D01*
G01X59996Y77303D02*
Y78103D01*
X61996D01*
Y77303D01*
G01X61030Y77623D02*
Y78103D01*
G01X62949Y78143D02*
X64949D01*
Y77743D01*
X64849Y77583D01*
X64716Y77463D01*
X64516Y77363D01*
X64282Y77283D01*
X63949Y77263D01*
X63616Y77283D01*
X63383Y77363D01*
X63182Y77463D01*
X63049Y77583D01*
X62949Y77743D01*
Y78143D01*
G01X67735Y77263D02*
X67835Y77383D01*
X67902Y77523D01*
Y77683D01*
X67802Y77863D01*
X67635Y78003D01*
X67435Y78103D01*
X67102Y78183D01*
X66802Y78203D01*
X66502Y78163D01*
X66302Y78103D01*
X66102Y77983D01*
X65969Y77843D01*
X65902Y77703D01*
Y77563D01*
X65969Y77423D01*
X66069Y77303D01*
X66202Y77203D01*
G01X69921Y77543D02*
X70021Y77463D01*
X70188Y77403D01*
X70421Y77363D01*
X70621Y77403D01*
X70755Y77483D01*
X70855Y77623D01*
Y78163D01*
X68855D01*
Y77503D01*
X68988Y77363D01*
X69188Y77283D01*
X69421Y77243D01*
X69655Y77283D01*
X69855Y77403D01*
X69921Y77543D01*
Y78163D01*
G01X72004Y78203D02*
X74004Y77703D01*
X72004Y77203D01*
G01X72704Y77383D02*
Y78023D01*
G01X64524Y64524D02*
Y64176D01*
X65837D01*
Y64524D01*
X64524D01*
G01Y53894D02*
Y75154D01*
G01X74957Y64524D02*
X54091D01*
G01X79774Y78697D02*
G03I-880J0D01*
G01X54091Y75154D02*
Y53894D01*
X74957D01*
Y75154D01*
X54091D01*
G01X75383Y84513D02*
Y82291D01*
X75536Y81826D01*
X75843Y81516D01*
X76226Y81413D01*
X76609Y81516D01*
X76916Y81826D01*
X77069Y82291D01*
Y84513D01*
G01X79326Y81413D02*
Y84513D01*
X78866Y83893D01*
G01Y81413D02*
X79786D01*
M02*
