G04 ================== begin FILE IDENTIFICATION RECORD ==================*
G04 Layout Name:  E:/project/IRISking/ikemb-0001/project/hardware/OV7720/µ¥²ãcmos_v5/ov7725_V6.brd*
G04 Film Name:    BOTTOM*
G04 File Format:  Gerber RS274X*
G04 File Origin:  16.0-p002*
G04 Origin Date:  Wed Jun 15 13:52:44 2011*
G04 *
G04 Layer:  BOARD GEOMETRY/OUTLINE*
G04 Layer:  ETCH/BOTTOM*
G04 Layer:  PIN/BOTTOM*
G04 Layer:  VIA CLASS/BOTTOM*
G04 *
G04 Offset:    (0.0000 0.0000)*
G04 Mirror:    No*
G04 Mode:      Positive*
G04 Rotation:  0*
G04 FullContactRelief:  No*
G04 UndefLineWidth:     8.0000*
G04 ================== end FILE IDENTIFICATION RECORD ====================*
%FSLAX55Y55*MOIN*%
%IR0*IPPOS*OFA0.00000B0.00000*MIA0B0*SFA1.00000B1.00000*%
%ADD14C,.023*%
%ADD10C,.09*%
%ADD18R,.06X.06*%
%ADD20R,.25X.14*%
%ADD19R,.03X.04*%
%ADD12R,.04X.03*%
%ADD13R,.04X.06*%
%ADD11R,.06X.05*%
%ADD15R,.018X.04*%
%ADD21R,.05X.09*%
%ADD17C,.2*%
%ADD16R,.04X.1*%
%ADD22C,.01*%
%ADD23C,.02*%
%ADD24C,.03*%
%ADD25C,.0061*%
%ADD26C,.008*%
G75*
%LPD*%
G75*
G54D10*
X0Y0D03*
X129921Y129921D03*
G54D11*
X4348Y20031D03*
X13348D03*
G54D20*
X99110Y1448D03*
G54D21*
X108110Y28448D03*
X99110D03*
X90110D03*
G54D12*
X9329Y37218D03*
X3329D03*
X39921Y9299D03*
X33921D03*
X39925Y15497D03*
X33925D03*
X39710Y22354D03*
X33710D03*
X39267Y65730D03*
X45267D03*
X79868Y6477D03*
X73868D03*
X79511Y64245D03*
X106495Y37551D03*
X85511Y64245D03*
X92877Y64097D03*
X98877D03*
X112495Y37551D03*
X123380Y64245D03*
X117380D03*
Y58157D03*
X123380D03*
G54D22*
G01X80916Y57742D02*
X80915Y57741D01*
G54D13*
X19694Y53405D03*
Y37405D03*
X41694Y53405D03*
Y37405D03*
G54D23*
G01X4348Y20031D02*
Y27015D01*
G01X23254Y37405D02*
X19694D01*
G01X9329Y37218D02*
X14648D01*
G01X39925Y15497D02*
X45194D01*
G01X39921Y9299D02*
X45582D01*
G01X41694Y53405D02*
Y48845D01*
G01X39710Y22354D02*
X45342D01*
G01X35852Y148346D02*
Y167292D01*
X36206Y167646D01*
G01X64131Y-2433D02*
X59571D01*
G01X73868Y6477D02*
X70308D01*
G01X77131Y-2433D02*
X83055D01*
G01X79868Y6477D02*
Y11884D01*
G01X63354Y48682D02*
Y52242D01*
G01X74996Y49741D02*
Y50591D01*
X76146Y51741D01*
X78056D01*
G01X71638Y42656D02*
X68584D01*
G01X78056Y38673D02*
X79823Y40440D01*
X81506D01*
G01X56969Y42682D02*
X56560Y42273D01*
X53207D01*
G01X81102Y45876D02*
X79052D01*
X78056Y44880D01*
Y44673D01*
G01X56969Y48682D02*
X52513D01*
G01X63354Y42682D02*
Y39122D01*
G01X76505Y72964D02*
X81018D01*
G01X81061Y73007D02*
X84519Y76465D01*
Y78804D01*
G01X81018Y72964D02*
X81061Y73007D01*
G01X79511Y64245D02*
Y71457D01*
X81018Y72964D01*
G01X99110Y1448D02*
Y11032D01*
G01X108110Y28448D02*
Y20049D01*
G01X86521Y41410D02*
Y46710D01*
G01X99110Y28448D02*
Y34019D01*
X97318Y35811D01*
G01X106495Y37551D02*
X103033D01*
X101915Y36433D01*
G01X90110Y28448D02*
Y35315D01*
G01X108351Y46905D02*
X115424D01*
G01X97213Y41707D02*
X101350D01*
X103282Y43639D01*
G01X108351Y59905D02*
Y53635D01*
G01X93900Y78804D02*
X101193D01*
X107095Y72902D01*
G01X91324Y167646D02*
X90970Y167292D01*
Y151100D01*
X92953Y149117D01*
G01X120813Y54024D02*
Y52016D01*
G01X121865Y50964D02*
Y50464D01*
G01Y44464D02*
Y40904D01*
G01X112495Y37551D02*
Y41589D01*
G01X123380Y64245D02*
X126940D01*
G01X123380Y58157D02*
X126940D01*
G01X130867Y75964D02*
Y82407D01*
G01X124655Y72902D02*
X120095D01*
G01X130867Y69964D02*
Y66404D01*
G54D14*
X-231Y37218D03*
X4348Y27015D03*
X14648Y37218D03*
X45194Y15497D03*
X45582Y9299D03*
X41694Y48845D03*
X23254Y37405D03*
X45342Y22354D03*
X29754Y45472D03*
X35563Y51716D03*
X27176Y51685D03*
X44053Y74590D03*
X48827Y65730D03*
X47305Y123505D03*
X47169Y138272D03*
X43901D03*
X45068Y146212D03*
X35852Y148346D03*
X33710Y145156D03*
X25001Y147331D03*
X59571Y-2433D03*
X70308Y6477D03*
X79868Y11884D03*
X74996Y49741D03*
X53207Y42273D03*
X68584Y42656D03*
X81506Y40440D03*
X52513Y48682D03*
X81102Y45876D03*
X63354Y39122D03*
Y52242D03*
X73610Y74263D03*
X53648Y62949D03*
X66906Y61781D03*
X62505Y59800D03*
X74316Y56350D03*
X52557Y68398D03*
X60119Y53223D03*
X53648Y56650D03*
Y72398D03*
X62810Y62949D03*
X62760Y66099D03*
X66540Y68948D03*
X74316Y62404D03*
X69498Y54240D03*
X76505Y72964D03*
X80916Y57742D03*
X55164Y52958D03*
X66960Y58861D03*
X69887Y121045D03*
X76555Y118160D03*
X66371Y128852D03*
X65653Y138272D03*
X69887Y138421D03*
X61885Y159317D03*
X53747Y158727D03*
X99110Y11032D03*
X83055Y-2433D03*
X108110Y20049D03*
X86521Y46710D03*
X97318Y35811D03*
X101915Y36433D03*
X90110Y35315D03*
X103282Y43639D03*
X85511Y68045D03*
X98621Y71142D03*
X108351Y53635D03*
X102437Y64097D03*
X88226Y70813D03*
X92653Y55272D03*
X93900Y78804D03*
X84519D03*
X89639Y123575D03*
X85513Y121423D03*
X89639Y138569D03*
X89054Y149327D03*
X92953Y149117D03*
X83096Y151243D03*
X86371Y142474D03*
X103387Y159472D03*
X98844Y154724D03*
X121865Y40904D03*
X112495Y41589D03*
X115424Y46905D03*
X120813Y54024D03*
X126940Y64245D03*
Y58157D03*
X124655Y72902D03*
X130867Y66404D03*
X113216Y58157D03*
X113820Y64245D03*
X130867Y82407D03*
G54D24*
G01X78056Y57741D02*
X80915D01*
G01D02*
X83190D01*
X86521Y54410D01*
G01D02*
X89187D01*
X91385Y52212D01*
X94718D01*
X97213Y54707D01*
G54D15*
X37365Y126838D03*
X40633D03*
X43901D03*
X47169D03*
Y134712D03*
X43901D03*
X40633D03*
X37365D03*
X69887Y126987D03*
X73155D03*
X76423D03*
X79691D03*
Y134861D03*
X76423D03*
X73155D03*
X69887D03*
X52067Y126838D03*
X55335D03*
X58603D03*
X61871D03*
Y134712D03*
X58603D03*
X55335D03*
X52067D03*
X86371Y127135D03*
X89639D03*
X92907D03*
X96175D03*
Y135009D03*
X92907D03*
X89639D03*
X86371D03*
G54D25*
G01X33921Y9299D02*
X24080D01*
X13348Y20031D01*
G01X3329Y37218D02*
X-231D01*
G01X25001Y51654D02*
Y42024D01*
X29845Y37180D01*
Y19077D01*
X33425Y15497D01*
X33925D01*
G01X39267Y65730D02*
X38767D01*
Y41332D01*
X41694Y38405D01*
Y37405D01*
G01X28332Y167646D02*
X27978Y167292D01*
Y58120D01*
X29754Y56344D01*
Y45472D01*
G01X33710Y22354D02*
Y51747D01*
G01X53648Y56650D02*
X50692Y59606D01*
Y67951D01*
X44053Y74590D01*
G01X43901Y126838D02*
Y82145D01*
X53648Y72398D01*
G01X40633Y126838D02*
Y82533D01*
X52633Y70533D01*
X55226D01*
X62810Y62949D01*
G01X45267Y65730D02*
X48827D01*
G01X33710Y51747D02*
Y145156D01*
G01X35563Y51716D02*
X33741D01*
X33710Y51747D01*
G01X25001Y147331D02*
Y51654D01*
G01X27176Y51685D02*
X27145Y51654D01*
X25001D01*
G01X47305Y123505D02*
Y126702D01*
X47169Y126838D01*
G01X51954Y167646D02*
X51600Y167292D01*
Y149729D01*
X40633Y138762D01*
Y134712D01*
G01X44080Y167646D02*
X43726Y167292D01*
Y149437D01*
X37365Y143077D01*
Y134712D01*
G01X47169D02*
Y138272D01*
G01X43901Y134712D02*
Y138272D01*
G01X74316Y62404D02*
X72451Y60539D01*
Y52184D01*
X71638Y51371D01*
Y48656D01*
G01X74316Y56350D02*
Y58512D01*
X76260Y60456D01*
X86233D01*
X90091Y64314D01*
Y84900D01*
X96175Y90984D01*
Y127135D01*
G01X79691Y126987D02*
X81599Y125079D01*
Y85783D01*
X71431Y75615D01*
Y53535D01*
X70271Y52375D01*
X67847D01*
X65462Y54760D01*
X61634D01*
X60891Y54017D01*
Y53995D01*
X60119Y53223D01*
G01X66540Y68948D02*
Y83377D01*
X78058Y94895D01*
Y110365D01*
X70263Y118160D01*
X62932D01*
X58603Y122489D01*
Y126838D01*
G01X61871D02*
Y121050D01*
X63741Y119180D01*
X71977D01*
X79860Y111297D01*
Y93245D01*
X69498Y82883D01*
Y54240D01*
G01X66960Y58861D02*
X66906D01*
X65508Y57463D01*
X61160D01*
X57370Y53673D01*
X55879D01*
X55164Y52958D01*
G01X69887Y126987D02*
Y121045D01*
G01X76423Y126987D02*
Y124272D01*
X76555Y124140D01*
Y118160D01*
G01X66371Y128852D02*
X67841D01*
X68691Y129702D01*
X71540D01*
X73155Y128087D01*
Y126987D01*
G01X61885Y159317D02*
X61531Y158963D01*
Y137767D01*
X61871Y137427D01*
Y134712D01*
G01X53747Y158727D02*
X53393Y158373D01*
Y148884D01*
X55335Y146942D01*
Y134712D01*
G01X59828Y167646D02*
X59474Y167292D01*
Y138298D01*
X58603Y137427D01*
Y134712D01*
G01X76423Y134861D02*
Y144570D01*
X83096Y151243D01*
G01X67702Y167646D02*
X67348Y167292D01*
Y152088D01*
X65653Y150393D01*
Y138272D01*
G01X75576Y167646D02*
X75222Y167292D01*
Y138007D01*
X73176Y135961D01*
X73155D01*
Y134861D01*
G01X69887D02*
Y138421D01*
G01X83450Y167646D02*
X83096Y167292D01*
Y154803D01*
X84961Y152938D01*
Y149672D01*
X79691Y144402D01*
Y134861D01*
G01X85511Y64245D02*
Y68045D01*
G01X94061Y73007D02*
X95926Y71142D01*
X98621D01*
G01X98877Y64097D02*
X102437D01*
G01X92907Y127135D02*
Y107622D01*
X88226Y102942D01*
Y70813D01*
G01X92877Y64097D02*
Y57361D01*
X92653Y57137D01*
Y55272D01*
G01X89639Y127135D02*
Y123575D01*
G01X85513Y121423D02*
Y126277D01*
X86371Y127135D01*
G01X107072Y167646D02*
X106718Y167292D01*
Y146652D01*
X96175Y136109D01*
Y135009D01*
G01X86371D02*
Y142474D01*
G01X103387Y159472D02*
X103033Y159118D01*
Y149869D01*
X92907Y139743D01*
Y135009D01*
G01X89639D02*
Y138569D01*
G01X99198Y167646D02*
Y155078D01*
X98844Y154724D01*
G01X120813Y52016D02*
X121865Y50964D01*
G01X117380Y58157D02*
X113216D01*
G01X117380Y64245D02*
X113820D01*
G54D16*
X51954Y167646D03*
X44080D03*
X36206D03*
X28332D03*
X75576D03*
X67702D03*
X59828D03*
X107072D03*
X99198D03*
X91324D03*
X83450D03*
G54D26*
G01X-9436Y-11033D02*
Y120038D01*
X-8424Y121050D01*
X10481D01*
X10564Y120967D01*
X10587Y120990D01*
Y170380D01*
G01Y158576D02*
Y172740D01*
X13818Y175971D01*
X133849D01*
X139813Y170007D01*
Y11457D01*
X137204Y8848D01*
X119483D01*
X119364Y8967D01*
Y-11033D01*
X-9436D01*
G01D02*
X119364D01*
Y8967D01*
X139364D01*
Y140967D01*
G54D17*
X65840Y24800D03*
Y103540D03*
G54D18*
X77131Y-2433D03*
X64131D03*
X81061Y73007D03*
X86521Y41410D03*
X108351Y46905D03*
X97213Y41707D03*
X86521Y54410D03*
X108351Y59905D03*
X97213Y54707D03*
X94061Y73007D03*
X107095Y72902D03*
X120095D03*
G54D19*
X78056Y51741D03*
X56969Y48682D03*
Y42682D03*
X78056Y44673D03*
Y38673D03*
X63354Y42682D03*
Y48682D03*
X71638Y42656D03*
Y48656D03*
X78056Y57741D03*
X121865Y44464D03*
Y50464D03*
X130867Y69964D03*
Y75964D03*
M02*
