G04 ================== begin FILE IDENTIFICATION RECORD ==================*
G04 Layout Name:  E:/project/IRISking/ikemb-0001/project/hardware/OV7720/µ¥²ãcmos_v5/ov7725_V6.brd*
G04 Film Name:    solder_BOTTOM*
G04 File Format:  Gerber RS274X*
G04 File Origin:  16.0-p002*
G04 Origin Date:  Wed Jun 15 13:52:44 2011*
G04 *
G04 Layer:  BOARD GEOMETRY/OUTLINE*
G04 Layer:  VIA CLASS/SOLDERMASK_BOTTOM*
G04 Layer:  PIN/SOLDERMASK_BOTTOM*
G04 Layer:  BOARD GEOMETRY/SOLDERMASK_BOTTOM*
G04 *
G04 Offset:    (0.0000 0.0000)*
G04 Mirror:    No*
G04 Mode:      Positive*
G04 Rotation:  0*
G04 FullContactRelief:  No*
G04 UndefLineWidth:     8.0000*
G04 ================== end FILE IDENTIFICATION RECORD ====================*
%FSLAX55Y55*MOIN*%
%IR0*IPPOS*OFA0.00000B0.00000*MIA0B0*SFA1.00000B1.00000*%
%ADD14C,.031*%
%ADD10C,.098*%
%ADD18R,.066X.066*%
%ADD20R,.28X.16*%
%ADD13R,.06X.08*%
%ADD17C,.22*%
%ADD19R,.036X.046*%
%ADD15R,.026X.048*%
%ADD12R,.046X.036*%
%ADD11R,.066X.056*%
%ADD21R,.058X.098*%
%ADD16R,.05X.11*%
%ADD22C,.008*%
G75*
%LPD*%
G75*
G54D10*
X0Y0D03*
X129921Y129921D03*
G54D11*
X4348Y20031D03*
X13348D03*
G54D20*
X99110Y1448D03*
G54D21*
X108110Y28448D03*
X99110D03*
X90110D03*
G54D12*
X9329Y37218D03*
X3329D03*
X39921Y9299D03*
X33921D03*
X39925Y15497D03*
X33925D03*
X39710Y22354D03*
X33710D03*
X39267Y65730D03*
X45267D03*
X79868Y6477D03*
X73868D03*
X79511Y64245D03*
X106495Y37551D03*
X85511Y64245D03*
X92877Y64097D03*
X98877D03*
X112495Y37551D03*
X123380Y64245D03*
X117380D03*
Y58157D03*
X123380D03*
G54D22*
G01X-9436Y-11033D02*
Y120038D01*
X-8424Y121050D01*
X10481D01*
X10564Y120967D01*
X10587Y120990D01*
Y170380D01*
G01Y158576D02*
Y172740D01*
X13818Y175971D01*
X133849D01*
X139813Y170007D01*
Y11457D01*
X137204Y8848D01*
X119483D01*
X119364Y8967D01*
Y-11033D01*
X-9436D01*
G01D02*
X119364D01*
Y8967D01*
X139364D01*
Y140967D01*
G54D13*
X19694Y53405D03*
Y37405D03*
X41694Y53405D03*
Y37405D03*
G54D14*
X-231Y37218D03*
X4348Y27015D03*
X14648Y37218D03*
X45194Y15497D03*
X45582Y9299D03*
X41694Y48845D03*
X23254Y37405D03*
X45342Y22354D03*
X29754Y45472D03*
X35563Y51716D03*
X27176Y51685D03*
X44053Y74590D03*
X48827Y65730D03*
X47305Y123505D03*
X47169Y138272D03*
X43901D03*
X45068Y146212D03*
X35852Y148346D03*
X33710Y145156D03*
X25001Y147331D03*
X59571Y-2433D03*
X70308Y6477D03*
X79868Y11884D03*
X74996Y49741D03*
X53207Y42273D03*
X68584Y42656D03*
X81506Y40440D03*
X52513Y48682D03*
X81102Y45876D03*
X63354Y39122D03*
Y52242D03*
X73610Y74263D03*
X53648Y62949D03*
X66906Y61781D03*
X62505Y59800D03*
X74316Y56350D03*
X52557Y68398D03*
X60119Y53223D03*
X53648Y56650D03*
Y72398D03*
X62810Y62949D03*
X62760Y66099D03*
X66540Y68948D03*
X74316Y62404D03*
X69498Y54240D03*
X76505Y72964D03*
X80916Y57742D03*
X55164Y52958D03*
X66960Y58861D03*
X69887Y121045D03*
X76555Y118160D03*
X66371Y128852D03*
X65653Y138272D03*
X69887Y138421D03*
X61885Y159317D03*
X53747Y158727D03*
X99110Y11032D03*
X83055Y-2433D03*
X108110Y20049D03*
X86521Y46710D03*
X97318Y35811D03*
X101915Y36433D03*
X90110Y35315D03*
X103282Y43639D03*
X85511Y68045D03*
X98621Y71142D03*
X108351Y53635D03*
X102437Y64097D03*
X88226Y70813D03*
X92653Y55272D03*
X93900Y78804D03*
X84519D03*
X89639Y123575D03*
X85513Y121423D03*
X89639Y138569D03*
X89054Y149327D03*
X92953Y149117D03*
X83096Y151243D03*
X86371Y142474D03*
X103387Y159472D03*
X98844Y154724D03*
X121865Y40904D03*
X112495Y41589D03*
X115424Y46905D03*
X120813Y54024D03*
X126940Y64245D03*
Y58157D03*
X124655Y72902D03*
X130867Y66404D03*
X113216Y58157D03*
X113820Y64245D03*
X130867Y82407D03*
G54D15*
X37365Y126838D03*
X40633D03*
X43901D03*
X47169D03*
Y134712D03*
X43901D03*
X40633D03*
X37365D03*
X69887Y126987D03*
X73155D03*
X76423D03*
X79691D03*
Y134861D03*
X76423D03*
X73155D03*
X69887D03*
X52067Y126838D03*
X55335D03*
X58603D03*
X61871D03*
Y134712D03*
X58603D03*
X55335D03*
X52067D03*
X86371Y127135D03*
X89639D03*
X92907D03*
X96175D03*
Y135009D03*
X92907D03*
X89639D03*
X86371D03*
G54D16*
X51954Y167646D03*
X44080D03*
X36206D03*
X28332D03*
X75576D03*
X67702D03*
X59828D03*
X107072D03*
X99198D03*
X91324D03*
X83450D03*
G54D17*
X65840Y24800D03*
Y103540D03*
G54D18*
X77131Y-2433D03*
X64131D03*
X81061Y73007D03*
X86521Y41410D03*
X108351Y46905D03*
X97213Y41707D03*
X86521Y54410D03*
X108351Y59905D03*
X97213Y54707D03*
X94061Y73007D03*
X107095Y72902D03*
X120095D03*
G54D19*
X78056Y51741D03*
X56969Y48682D03*
Y42682D03*
X78056Y44673D03*
Y38673D03*
X63354Y42682D03*
Y48682D03*
X71638Y42656D03*
Y48656D03*
X78056Y57741D03*
X121865Y44464D03*
Y50464D03*
X130867Y69964D03*
Y75964D03*
M02*
