G04 ================== begin FILE IDENTIFICATION RECORD ==================*
G04 Layout Name:  E:/EMB002/project/hardware/POWER/Power_PPC_V2.brd*
G04 Film Name:    Silk_Bottom*
G04 File Format:  Gerber RS274X*
G04 File Origin:  15.7-p007*
G04 Origin Date:  Fri Sep 05 15:11:19 2008*
G04 *
G04 Layer:  REF DES/ASSEMBLY_BOTTOM*
G04 Layer:  PACKAGE GEOMETRY/SILKSCREEN_BOTTOM*
G04 Layer:  BOARD GEOMETRY/OUTLINE*
G04 *
G04 Offset:    (0.000 0.000)*
G04 Mirror:    No*
G04 Mode:      Positive*
G04 Rotation:  0*
G04 FullContactRelief:  No*
G04 UndefLineWidth:     8.000*
G04 ================== end FILE IDENTIFICATION RECORD ====================*
%FSLAX53Y53*MOIN*%
%IR0*IPPOS*OFA0.00000B0.00000*MIA0B0*SFA1.00000B1.00000*%
%ADD10C,.008*%
G75*
%LPD*%
G75*
G54D10*
G01X-197Y3740D02*
X1850D01*
Y-197D01*
X-197D01*
Y50D01*
X-1200D01*
Y1450D01*
X-197D01*
Y3740D01*
G01X550Y345D02*
X540D01*
Y395D01*
X565D01*
G01X635D02*
X660D01*
Y345D01*
X650D01*
G01X662Y342D02*
X538D01*
Y398D01*
X662D01*
Y342D01*
G01X668Y398D02*
X792D01*
Y342D01*
X668D01*
Y398D01*
G01X695Y345D02*
X670D01*
Y395D01*
X680D01*
G01X780D02*
X790D01*
Y345D01*
X765D01*
G01X598Y532D02*
Y408D01*
X542D01*
Y532D01*
X598D01*
G01X545Y505D02*
Y530D01*
X595D01*
Y520D01*
G01Y420D02*
Y410D01*
X545D01*
Y435D01*
G01X662Y262D02*
X538D01*
Y318D01*
X662D01*
Y262D01*
G01X635Y315D02*
X660D01*
Y265D01*
X650D01*
G01X550D02*
X540D01*
Y315D01*
X565D01*
G01X792Y262D02*
X668D01*
Y318D01*
X792D01*
Y262D01*
G01X765Y315D02*
X790D01*
Y265D01*
X780D01*
G01X680D02*
X670D01*
Y315D01*
X695D01*
G01X100Y560D02*
Y740D01*
X120Y760D01*
X600D01*
Y540D01*
X120D01*
X100Y560D01*
G01X1100Y600D02*
Y420D01*
X1080Y400D01*
X600D01*
Y620D01*
X1080D01*
X1100Y600D01*
G01Y820D02*
Y640D01*
X1080Y620D01*
X600D01*
Y840D01*
X1080D01*
X1100Y820D01*
G01X403Y341D02*
X399Y338D01*
X395Y337D01*
X390D01*
X384Y339D01*
X380Y343D01*
X376Y348D01*
X374Y357D01*
X373Y364D01*
X374Y372D01*
X376Y377D01*
X380Y382D01*
X385Y385D01*
X389Y387D01*
X393D01*
X398Y385D01*
X402Y383D01*
X405Y379D01*
G01X426Y377D02*
X430Y383D01*
X435Y386D01*
X441Y387D01*
X446Y386D01*
X451Y382D01*
X454Y377D01*
X455Y372D01*
X453Y366D01*
X449Y362D01*
X444Y360D01*
X439D01*
G01X444D02*
X448Y358D01*
X451Y353D01*
X453Y348D01*
X451Y343D01*
X448Y339D01*
X443Y337D01*
X437Y338D01*
X431Y341D01*
G01X491Y387D02*
X495Y386D01*
X500Y383D01*
X504Y379D01*
X505Y373D01*
X504Y368D01*
X500Y363D01*
X494Y360D01*
X488D01*
X484Y358D01*
X481Y354D01*
X480Y348D01*
X481Y343D01*
X486Y338D01*
X491Y337D01*
X496Y338D01*
X500Y343D01*
X502Y348D01*
X501Y354D01*
X498Y358D01*
X494Y360D01*
X488D01*
X482Y363D01*
X478Y368D01*
X477Y373D01*
X478Y379D01*
X481Y383D01*
X487Y386D01*
X491Y387D01*
G01X526Y227D02*
Y177D01*
X542D01*
X547Y179D01*
X550Y183D01*
X552Y189D01*
X550Y196D01*
X547Y200D01*
X542Y203D01*
X526D01*
G01X542D02*
X552Y227D01*
G01X590D02*
Y177D01*
X582Y187D01*
G01Y227D02*
X598D01*
G01X627Y219D02*
X631Y223D01*
X635Y226D01*
X641Y227D01*
X647Y225D01*
X651Y222D01*
X654Y216D01*
X655Y209D01*
X654Y203D01*
X650Y198D01*
X646Y195D01*
X642Y194D01*
X637Y195D01*
X631Y198D01*
X633Y177D01*
X650D01*
G01X686Y227D02*
Y177D01*
X702D01*
X707Y179D01*
X710Y183D01*
X712Y189D01*
X710Y196D01*
X707Y200D01*
X702Y203D01*
X686D01*
G01X702D02*
X712Y227D01*
G01X750D02*
Y177D01*
X742Y187D01*
G01Y227D02*
X758D01*
G01X809D02*
Y177D01*
X785Y212D01*
X817D01*
G01X393Y461D02*
X389Y458D01*
X385Y457D01*
X380D01*
X374Y459D01*
X370Y463D01*
X366Y468D01*
X364Y477D01*
X363Y484D01*
X364Y492D01*
X366Y497D01*
X370Y502D01*
X375Y505D01*
X379Y507D01*
X383D01*
X388Y505D01*
X392Y503D01*
X395Y499D01*
G01X438Y507D02*
Y457D01*
X414Y492D01*
X446D01*
G01X469Y465D02*
X473Y460D01*
X477Y458D01*
X482Y457D01*
X489Y458D01*
X493Y463D01*
X494Y468D01*
X494Y473D01*
X491Y477D01*
X478Y485D01*
X473Y491D01*
X469Y499D01*
X468Y507D01*
X494D01*
G01X-27Y601D02*
X-31Y598D01*
X-35Y597D01*
X-40D01*
X-46Y599D01*
X-50Y603D01*
X-54Y608D01*
X-56Y617D01*
X-57Y624D01*
X-56Y632D01*
X-54Y637D01*
X-50Y642D01*
X-45Y645D01*
X-41Y647D01*
X-37D01*
X-32Y645D01*
X-28Y643D01*
X-25Y639D01*
G01X18Y647D02*
Y597D01*
X-6Y633D01*
X26D01*
G01X60Y647D02*
X61Y636D01*
X63Y627D01*
X65Y618D01*
X69Y609D01*
X74Y597D01*
X48D01*
G01X792Y852D02*
X668D01*
Y908D01*
X792D01*
Y852D01*
G01X765Y905D02*
X790D01*
Y855D01*
X780D01*
G01X680D02*
X670D01*
Y905D01*
X695D01*
G01X662Y852D02*
X538D01*
Y908D01*
X662D01*
Y852D01*
G01X635Y905D02*
X660D01*
Y855D01*
X650D01*
G01X550D02*
X540D01*
Y905D01*
X565D01*
G01X550Y935D02*
X540D01*
Y985D01*
X565D01*
G01X635D02*
X660D01*
Y935D01*
X650D01*
G01X662Y932D02*
X538D01*
Y988D01*
X662D01*
Y932D01*
G01X668Y988D02*
X792D01*
Y932D01*
X668D01*
Y988D01*
G01X695Y935D02*
X670D01*
Y985D01*
X680D01*
G01X780D02*
X790D01*
Y935D01*
X765D01*
G01X598Y1112D02*
Y988D01*
X542D01*
Y1112D01*
X598D01*
G01X545Y1085D02*
Y1110D01*
X595D01*
Y1100D01*
G01Y1000D02*
Y990D01*
X545D01*
Y1015D01*
G01X1130Y1190D02*
Y1010D01*
X1110Y990D01*
X630D01*
Y1210D01*
X1110D01*
X1130Y1190D01*
G01Y1410D02*
Y1230D01*
X1110Y1210D01*
X630D01*
Y1430D01*
X1110D01*
X1130Y1410D01*
G01X912Y1462D02*
X788D01*
Y1518D01*
X912D01*
Y1462D01*
G01X800Y1465D02*
X790D01*
Y1515D01*
X815D01*
G01X838Y1742D02*
Y1618D01*
X782D01*
Y1742D01*
X838D01*
G01X785Y1715D02*
Y1740D01*
X835D01*
Y1730D01*
G01Y1630D02*
Y1620D01*
X785D01*
Y1645D01*
G01X912Y1542D02*
X788D01*
Y1598D01*
X912D01*
Y1542D01*
G01X800Y1545D02*
X790D01*
Y1595D01*
X815D01*
G01X110Y1140D02*
Y1320D01*
X130Y1340D01*
X610D01*
Y1120D01*
X130D01*
X110Y1140D01*
G01X320Y1770D02*
Y1950D01*
X340Y1970D01*
X820D01*
Y1750D01*
X340D01*
X320Y1770D01*
G01X386Y907D02*
Y857D01*
X402D01*
X407Y859D01*
X410Y863D01*
X412Y869D01*
X410Y876D01*
X407Y880D01*
X402Y883D01*
X386D01*
G01X402D02*
X412Y907D01*
G01X438Y865D02*
X442Y860D01*
X446Y858D01*
X451Y857D01*
X458Y858D01*
X462Y863D01*
X463Y868D01*
X463Y873D01*
X460Y877D01*
X447Y885D01*
X442Y891D01*
X438Y899D01*
X437Y907D01*
X463D01*
G01X501Y857D02*
X496Y858D01*
X492Y863D01*
X490Y868D01*
X488Y874D01*
X487Y882D01*
X488Y889D01*
X490Y896D01*
X492Y901D01*
X496Y905D01*
X501Y907D01*
X506Y905D01*
X510Y901D01*
X512Y896D01*
X514Y889D01*
X515Y882D01*
X514Y874D01*
X512Y868D01*
X510Y863D01*
X506Y858D01*
X501Y857D01*
G01X413Y931D02*
X409Y928D01*
X405Y927D01*
X400D01*
X394Y929D01*
X390Y933D01*
X386Y938D01*
X384Y947D01*
X383Y954D01*
X384Y962D01*
X386Y967D01*
X390Y972D01*
X395Y975D01*
X399Y977D01*
X403D01*
X408Y975D01*
X412Y973D01*
X415Y969D01*
G01X436D02*
X440Y973D01*
X444Y976D01*
X450Y977D01*
X456Y975D01*
X460Y972D01*
X463Y966D01*
X464Y959D01*
X463Y953D01*
X459Y948D01*
X455Y945D01*
X451Y944D01*
X446Y945D01*
X441Y948D01*
X442Y927D01*
X459D01*
G01X501D02*
X496Y928D01*
X492Y933D01*
X490Y938D01*
X488Y944D01*
X487Y952D01*
X488Y959D01*
X490Y966D01*
X492Y971D01*
X496Y975D01*
X501Y977D01*
X506Y975D01*
X510Y971D01*
X512Y966D01*
X514Y959D01*
X515Y952D01*
X514Y944D01*
X512Y938D01*
X510Y933D01*
X506Y928D01*
X501Y927D01*
G01X672Y1517D02*
Y1467D01*
X688D01*
X693Y1469D01*
X696Y1473D01*
X697Y1479D01*
X696Y1486D01*
X692Y1490D01*
X688Y1493D01*
X672D01*
G01X688D02*
X697Y1517D01*
G01X722Y1509D02*
X725Y1513D01*
X730Y1516D01*
X735Y1517D01*
X741Y1515D01*
X746Y1512D01*
X749Y1506D01*
X749Y1499D01*
X748Y1493D01*
X745Y1488D01*
X741Y1485D01*
X736Y1484D01*
X732Y1485D01*
X726Y1488D01*
X728Y1467D01*
X745D01*
G01X698Y1561D02*
X695Y1558D01*
X690Y1557D01*
X685D01*
X679Y1559D01*
X675Y1563D01*
X672Y1568D01*
X669Y1577D01*
X669Y1584D01*
X670Y1592D01*
X672Y1597D01*
X676Y1602D01*
X680Y1605D01*
X685Y1607D01*
X689D01*
X693Y1605D01*
X697Y1603D01*
X700Y1599D01*
G01X722Y1597D02*
X725Y1603D01*
X730Y1606D01*
X736Y1607D01*
X741Y1606D01*
X746Y1602D01*
X749Y1597D01*
X750Y1592D01*
X749Y1586D01*
X744Y1582D01*
X740Y1580D01*
X734D01*
G01X740D02*
X744Y1578D01*
X747Y1573D01*
X748Y1568D01*
X747Y1563D01*
X744Y1559D01*
X738Y1557D01*
X732Y1558D01*
X727Y1561D01*
G01X238Y1841D02*
X235Y1838D01*
X230Y1837D01*
X225D01*
X219Y1839D01*
X215Y1843D01*
X212Y1848D01*
X209Y1857D01*
X209Y1864D01*
X210Y1872D01*
X212Y1877D01*
X216Y1882D01*
X220Y1885D01*
X225Y1887D01*
X229D01*
X233Y1885D01*
X237Y1883D01*
X240Y1879D01*
G01X275Y1887D02*
X280Y1886D01*
X285Y1883D01*
X288Y1879D01*
X289Y1873D01*
X288Y1868D01*
X284Y1863D01*
X279Y1860D01*
X272D01*
X269Y1858D01*
X265Y1854D01*
X264Y1848D01*
X266Y1843D01*
X270Y1838D01*
X275Y1837D01*
X281Y1838D01*
X285Y1843D01*
X287Y1848D01*
X286Y1854D01*
X282Y1858D01*
X279Y1860D01*
X272D01*
X267Y1863D01*
X263Y1868D01*
X262Y1873D01*
X263Y1879D01*
X266Y1883D01*
X271Y1886D01*
X275Y1887D01*
G01X-17Y1201D02*
X-21Y1198D01*
X-25Y1197D01*
X-30D01*
X-36Y1199D01*
X-40Y1203D01*
X-44Y1208D01*
X-46Y1217D01*
X-47Y1224D01*
X-46Y1232D01*
X-44Y1237D01*
X-40Y1242D01*
X-35Y1245D01*
X-31Y1247D01*
X-27D01*
X-22Y1245D01*
X-18Y1243D01*
X-15Y1239D01*
G01X8Y1226D02*
X12Y1220D01*
X16Y1217D01*
X21Y1215D01*
X26Y1217D01*
X29Y1220D01*
X31Y1225D01*
X32Y1231D01*
X31Y1236D01*
X29Y1241D01*
X25Y1245D01*
X21Y1247D01*
X16Y1245D01*
X11Y1240D01*
X9Y1232D01*
X8Y1224D01*
X9Y1213D01*
X11Y1208D01*
X14Y1202D01*
X19Y1198D01*
X23Y1197D01*
X28Y1198D01*
X31Y1203D01*
G01X57Y1239D02*
X61Y1243D01*
X65Y1246D01*
X71Y1247D01*
X77Y1245D01*
X81Y1242D01*
X84Y1236D01*
X85Y1229D01*
X84Y1223D01*
X80Y1218D01*
X76Y1215D01*
X72Y1214D01*
X67Y1215D01*
X61Y1218D01*
X63Y1197D01*
X80D01*
G01X668Y1661D02*
X665Y1658D01*
X660Y1657D01*
X655D01*
X649Y1659D01*
X645Y1663D01*
X642Y1668D01*
X639Y1677D01*
X639Y1684D01*
X640Y1692D01*
X642Y1697D01*
X646Y1702D01*
X650Y1705D01*
X655Y1707D01*
X659D01*
X663Y1705D01*
X667Y1703D01*
X670Y1699D01*
G01X693Y1686D02*
X698Y1680D01*
X702Y1677D01*
X707Y1675D01*
X711Y1677D01*
X714Y1680D01*
X717Y1685D01*
X718Y1691D01*
X717Y1696D01*
X714Y1701D01*
X711Y1705D01*
X706Y1707D01*
X701Y1705D01*
X697Y1700D01*
X694Y1693D01*
X693Y1684D01*
X695Y1673D01*
X697Y1668D01*
X700Y1662D01*
X704Y1658D01*
X709Y1657D01*
X713Y1658D01*
X716Y1663D01*
G01X403Y1051D02*
X399Y1048D01*
X395Y1047D01*
X390D01*
X384Y1049D01*
X380Y1053D01*
X376Y1058D01*
X374Y1067D01*
X373Y1074D01*
X374Y1082D01*
X376Y1087D01*
X380Y1092D01*
X385Y1095D01*
X389Y1097D01*
X393D01*
X398Y1095D01*
X402Y1093D01*
X405Y1089D01*
G01X428Y1076D02*
X432Y1070D01*
X436Y1067D01*
X441Y1065D01*
X446Y1067D01*
X449Y1070D01*
X451Y1075D01*
X452Y1081D01*
X451Y1086D01*
X449Y1091D01*
X445Y1095D01*
X441Y1097D01*
X436Y1095D01*
X431Y1090D01*
X429Y1082D01*
X428Y1074D01*
X429Y1063D01*
X431Y1058D01*
X434Y1052D01*
X439Y1048D01*
X443Y1047D01*
X448Y1048D01*
X451Y1053D01*
G01X491Y1097D02*
Y1047D01*
X483Y1057D01*
G01Y1097D02*
X499D01*
G01X5Y3290D02*
X375D01*
Y3050D01*
X5D01*
Y3290D01*
G01X458Y2868D02*
X582D01*
Y2812D01*
X458D01*
Y2868D01*
G01X922Y2062D02*
X798D01*
Y2118D01*
X922D01*
Y2062D01*
G01Y2142D02*
X798D01*
Y2198D01*
X922D01*
Y2142D01*
G01X848Y2322D02*
Y2198D01*
X792D01*
Y2322D01*
X848D01*
G01X795Y2295D02*
Y2320D01*
X845D01*
Y2310D01*
G01Y2210D02*
Y2200D01*
X795D01*
Y2225D01*
G01X458Y2968D02*
X582D01*
Y2912D01*
X458D01*
Y2968D01*
G01X485Y2915D02*
X460D01*
Y2965D01*
X470D01*
G01X570D02*
X580D01*
Y2915D01*
X555D01*
G01X485Y2815D02*
X460D01*
Y2865D01*
X470D01*
G01X570D02*
X580D01*
Y2815D01*
X555D01*
G01X20Y3050D02*
X200D01*
X220Y3030D01*
Y2550D01*
X0D01*
Y3030D01*
X20Y3050D01*
G01X250D02*
X430D01*
X450Y3030D01*
Y2550D01*
X230D01*
Y3030D01*
X250Y3050D01*
G01X165Y3130D02*
Y3230D01*
X225Y3170D01*
X165Y3110D01*
Y3130D01*
G01X502Y3038D02*
Y3162D01*
X558D01*
Y3038D01*
X502D01*
G01X555Y3065D02*
Y3040D01*
X505D01*
Y3050D01*
G01Y3150D02*
Y3160D01*
X555D01*
Y3135D01*
G01X340Y2350D02*
Y2530D01*
X360Y2550D01*
X840D01*
Y2330D01*
X360D01*
X340Y2350D01*
G01X549Y3203D02*
X552Y3199D01*
X553Y3195D01*
Y3190D01*
X551Y3184D01*
X547Y3180D01*
X542Y3176D01*
X533Y3174D01*
X526Y3173D01*
X518Y3174D01*
X513Y3176D01*
X508Y3180D01*
X505Y3185D01*
X503Y3189D01*
Y3193D01*
X505Y3198D01*
X507Y3202D01*
X511Y3205D01*
G01X545Y3228D02*
X550Y3232D01*
X552Y3236D01*
X553Y3241D01*
X552Y3248D01*
X547Y3252D01*
X542Y3253D01*
X537Y3253D01*
X533Y3250D01*
X525Y3237D01*
X519Y3232D01*
X511Y3228D01*
X503Y3227D01*
Y3253D01*
G01X513Y3277D02*
X507Y3281D01*
X504Y3286D01*
X503Y3292D01*
X504Y3297D01*
X508Y3302D01*
X513Y3305D01*
X518Y3306D01*
X524Y3304D01*
X528Y3300D01*
X530Y3295D01*
Y3290D01*
G01Y3295D02*
X532Y3299D01*
X537Y3302D01*
X542Y3304D01*
X547Y3302D01*
X551Y3299D01*
X553Y3294D01*
X552Y3288D01*
X549Y3282D01*
G01X483Y2751D02*
X479Y2748D01*
X475Y2747D01*
X470D01*
X464Y2749D01*
X460Y2753D01*
X456Y2758D01*
X454Y2767D01*
X453Y2774D01*
X454Y2782D01*
X456Y2787D01*
X460Y2792D01*
X465Y2795D01*
X469Y2797D01*
X473D01*
X478Y2795D01*
X482Y2793D01*
X485Y2789D01*
G01X506Y2787D02*
X510Y2793D01*
X515Y2796D01*
X521Y2797D01*
X526Y2796D01*
X531Y2792D01*
X534Y2787D01*
X535Y2782D01*
X533Y2776D01*
X529Y2772D01*
X524Y2770D01*
X519D01*
G01X524D02*
X528Y2768D01*
X531Y2763D01*
X533Y2758D01*
X531Y2753D01*
X528Y2749D01*
X523Y2747D01*
X517Y2748D01*
X511Y2751D01*
G01X579Y2797D02*
Y2747D01*
X555Y2782D01*
X587D01*
G01X456Y3027D02*
Y2977D01*
X472D01*
X477Y2979D01*
X480Y2983D01*
X482Y2989D01*
X480Y2996D01*
X477Y3000D01*
X472Y3003D01*
X456D01*
G01X472D02*
X482Y3027D01*
G01X508Y2985D02*
X512Y2980D01*
X516Y2978D01*
X521Y2977D01*
X528Y2978D01*
X532Y2983D01*
X533Y2988D01*
X533Y2993D01*
X530Y2997D01*
X517Y3005D01*
X512Y3011D01*
X508Y3019D01*
X507Y3027D01*
X533D01*
G01X571D02*
Y2977D01*
X563Y2987D01*
G01Y3027D02*
X579D01*
G01X-89Y3197D02*
Y3147D01*
X-77D01*
X-72Y3149D01*
X-68Y3153D01*
X-65Y3158D01*
X-62Y3163D01*
X-62Y3172D01*
X-62Y3180D01*
X-65Y3186D01*
X-68Y3191D01*
X-72Y3194D01*
X-77Y3197D01*
X-89D01*
G01X-25D02*
Y3147D01*
X-32Y3157D01*
G01Y3197D02*
X-17D01*
G01X-111Y2803D02*
X-108Y2799D01*
X-107Y2795D01*
Y2790D01*
X-109Y2784D01*
X-113Y2780D01*
X-118Y2776D01*
X-127Y2774D01*
X-134Y2773D01*
X-142Y2774D01*
X-147Y2776D01*
X-152Y2780D01*
X-155Y2785D01*
X-157Y2789D01*
Y2793D01*
X-155Y2798D01*
X-153Y2802D01*
X-149Y2805D01*
G01X-115Y2828D02*
X-110Y2832D01*
X-108Y2836D01*
X-107Y2841D01*
X-108Y2848D01*
X-113Y2852D01*
X-118Y2853D01*
X-123Y2853D01*
X-127Y2850D01*
X-135Y2837D01*
X-141Y2832D01*
X-149Y2828D01*
X-157Y2827D01*
Y2853D01*
G01X-136Y2879D02*
X-130Y2883D01*
X-127Y2887D01*
X-125Y2892D01*
X-127Y2897D01*
X-130Y2900D01*
X-135Y2902D01*
X-141Y2903D01*
X-146Y2902D01*
X-151Y2900D01*
X-155Y2896D01*
X-157Y2892D01*
X-155Y2887D01*
X-150Y2882D01*
X-143Y2880D01*
X-134Y2879D01*
X-123Y2880D01*
X-118Y2882D01*
X-112Y2885D01*
X-108Y2890D01*
X-107Y2894D01*
X-108Y2899D01*
X-113Y2902D01*
G01X-31Y2803D02*
X-28Y2799D01*
X-27Y2795D01*
Y2790D01*
X-29Y2784D01*
X-33Y2780D01*
X-38Y2776D01*
X-47Y2774D01*
X-54Y2773D01*
X-62Y2774D01*
X-67Y2776D01*
X-72Y2780D01*
X-75Y2785D01*
X-77Y2789D01*
Y2793D01*
X-75Y2798D01*
X-73Y2802D01*
X-69Y2805D01*
G01X-35Y2828D02*
X-30Y2832D01*
X-28Y2836D01*
X-27Y2841D01*
X-28Y2848D01*
X-33Y2852D01*
X-38Y2853D01*
X-43Y2853D01*
X-47Y2850D01*
X-55Y2837D01*
X-61Y2832D01*
X-69Y2828D01*
X-77Y2827D01*
Y2853D01*
G01X-69Y2877D02*
X-73Y2881D01*
X-76Y2885D01*
X-77Y2891D01*
X-75Y2897D01*
X-72Y2901D01*
X-66Y2904D01*
X-59Y2905D01*
X-53Y2904D01*
X-48Y2900D01*
X-45Y2896D01*
X-44Y2892D01*
X-45Y2887D01*
X-48Y2881D01*
X-27Y2883D01*
Y2900D01*
G01X626Y2117D02*
Y2067D01*
X642D01*
X647Y2069D01*
X650Y2073D01*
X652Y2079D01*
X650Y2086D01*
X647Y2090D01*
X642Y2093D01*
X626D01*
G01X642D02*
X652Y2117D01*
G01X690D02*
Y2067D01*
X682Y2077D01*
G01Y2117D02*
X698D01*
G01X741Y2067D02*
X736Y2068D01*
X732Y2073D01*
X730Y2078D01*
X728Y2084D01*
X727Y2092D01*
X728Y2099D01*
X730Y2106D01*
X732Y2111D01*
X736Y2115D01*
X741Y2117D01*
X746Y2115D01*
X750Y2111D01*
X752Y2106D01*
X754Y2099D01*
X755Y2092D01*
X754Y2084D01*
X752Y2078D01*
X750Y2073D01*
X746Y2068D01*
X741Y2067D01*
G01X653Y2141D02*
X649Y2138D01*
X645Y2137D01*
X640D01*
X634Y2139D01*
X630Y2143D01*
X626Y2148D01*
X624Y2157D01*
X623Y2164D01*
X624Y2172D01*
X626Y2177D01*
X630Y2182D01*
X635Y2185D01*
X639Y2187D01*
X643D01*
X648Y2185D01*
X652Y2183D01*
X655Y2179D01*
G01X678Y2145D02*
X682Y2140D01*
X686Y2138D01*
X691Y2137D01*
X698Y2138D01*
X702Y2143D01*
X703Y2148D01*
X703Y2153D01*
X700Y2157D01*
X687Y2165D01*
X682Y2171D01*
X678Y2179D01*
X677Y2187D01*
X703D01*
G01X741Y2137D02*
X736Y2138D01*
X732Y2143D01*
X730Y2148D01*
X728Y2154D01*
X727Y2162D01*
X728Y2169D01*
X730Y2176D01*
X732Y2181D01*
X736Y2185D01*
X741Y2187D01*
X746Y2185D01*
X750Y2181D01*
X752Y2176D01*
X754Y2169D01*
X755Y2162D01*
X754Y2154D01*
X752Y2148D01*
X750Y2143D01*
X746Y2138D01*
X741Y2137D01*
G01X653Y2251D02*
X649Y2248D01*
X645Y2247D01*
X640D01*
X634Y2249D01*
X630Y2253D01*
X626Y2258D01*
X624Y2267D01*
X623Y2274D01*
X624Y2282D01*
X626Y2287D01*
X630Y2292D01*
X635Y2295D01*
X639Y2297D01*
X643D01*
X648Y2295D01*
X652Y2293D01*
X655Y2289D01*
G01X678Y2255D02*
X682Y2250D01*
X686Y2248D01*
X691Y2247D01*
X698Y2248D01*
X702Y2253D01*
X703Y2258D01*
X703Y2263D01*
X700Y2267D01*
X687Y2275D01*
X682Y2281D01*
X678Y2289D01*
X677Y2297D01*
X703D01*
G01X740D02*
X741Y2286D01*
X743Y2277D01*
X745Y2268D01*
X749Y2259D01*
X754Y2247D01*
X728D01*
G01X603Y2581D02*
X599Y2578D01*
X595Y2577D01*
X590D01*
X584Y2579D01*
X580Y2583D01*
X576Y2588D01*
X574Y2597D01*
X573Y2604D01*
X574Y2612D01*
X576Y2617D01*
X580Y2622D01*
X585Y2625D01*
X589Y2627D01*
X593D01*
X598Y2625D01*
X602Y2623D01*
X605Y2619D01*
G01X626Y2617D02*
X630Y2623D01*
X635Y2626D01*
X641Y2627D01*
X646Y2626D01*
X651Y2622D01*
X654Y2617D01*
X655Y2612D01*
X653Y2606D01*
X649Y2602D01*
X644Y2600D01*
X639D01*
G01X644D02*
X648Y2598D01*
X651Y2593D01*
X653Y2588D01*
X651Y2583D01*
X648Y2579D01*
X643Y2577D01*
X637Y2578D01*
X631Y2581D01*
G01X677Y2617D02*
X681Y2623D01*
X686Y2626D01*
X692Y2627D01*
X697Y2626D01*
X702Y2622D01*
X705Y2617D01*
X706Y2612D01*
X704Y2606D01*
X700Y2602D01*
X695Y2600D01*
X690D01*
G01X695D02*
X699Y2598D01*
X702Y2593D01*
X704Y2588D01*
X702Y2583D01*
X699Y2579D01*
X694Y2577D01*
X688Y2578D01*
X682Y2581D01*
G01X783Y3631D02*
X779Y3628D01*
X775Y3627D01*
X770D01*
X764Y3629D01*
X760Y3633D01*
X756Y3638D01*
X754Y3647D01*
X753Y3654D01*
X754Y3662D01*
X756Y3667D01*
X760Y3672D01*
X765Y3675D01*
X769Y3677D01*
X773D01*
X778Y3675D01*
X782Y3673D01*
X785Y3669D01*
G01X820Y3677D02*
Y3627D01*
X812Y3637D01*
G01Y3677D02*
X828D01*
G01X857Y3669D02*
X861Y3673D01*
X865Y3676D01*
X871Y3677D01*
X877Y3675D01*
X881Y3672D01*
X884Y3666D01*
X885Y3659D01*
X884Y3653D01*
X880Y3648D01*
X876Y3645D01*
X872Y3644D01*
X867Y3645D01*
X861Y3648D01*
X863Y3627D01*
X880D01*
G01X1590Y70D02*
Y-110D01*
X1570Y-130D01*
X1090D01*
Y90D01*
X1570D01*
X1590Y70D01*
G01X1120Y454D02*
Y470D01*
X1220D01*
Y454D01*
X1120D01*
G01D02*
Y706D01*
X1220D01*
Y454D01*
X1120D01*
G01Y635D02*
Y705D01*
X1220D01*
Y685D01*
Y635D01*
G01Y785D02*
Y715D01*
X1120D01*
Y735D01*
Y785D01*
G01X1220Y966D02*
Y714D01*
X1120D01*
Y966D01*
X1220D01*
G01X1023Y201D02*
X1019Y198D01*
X1015Y197D01*
X1010D01*
X1004Y199D01*
X1000Y203D01*
X996Y208D01*
X994Y217D01*
X993Y224D01*
X994Y232D01*
X996Y237D01*
X1000Y242D01*
X1005Y245D01*
X1009Y247D01*
X1013D01*
X1018Y245D01*
X1022Y243D01*
X1025Y239D01*
G01X1068Y247D02*
Y197D01*
X1044Y232D01*
X1076D01*
G01X1097Y237D02*
X1101Y243D01*
X1106Y246D01*
X1112Y247D01*
X1117Y246D01*
X1122Y242D01*
X1125Y237D01*
X1126Y232D01*
X1124Y226D01*
X1120Y222D01*
X1115Y220D01*
X1110D01*
G01X1115D02*
X1119Y218D01*
X1122Y213D01*
X1124Y208D01*
X1122Y203D01*
X1119Y199D01*
X1114Y197D01*
X1108Y198D01*
X1102Y201D01*
G01X1023Y271D02*
X1019Y268D01*
X1015Y267D01*
X1010D01*
X1004Y269D01*
X1000Y273D01*
X996Y278D01*
X994Y287D01*
X993Y294D01*
X994Y302D01*
X996Y307D01*
X1000Y312D01*
X1005Y315D01*
X1009Y317D01*
X1013D01*
X1018Y315D01*
X1022Y313D01*
X1025Y309D01*
G01X1068Y317D02*
Y267D01*
X1044Y302D01*
X1076D01*
G01X1119Y317D02*
Y267D01*
X1095Y302D01*
X1127D01*
G01X883Y341D02*
X879Y338D01*
X875Y337D01*
X870D01*
X864Y339D01*
X860Y343D01*
X856Y348D01*
X854Y357D01*
X853Y364D01*
X854Y372D01*
X856Y377D01*
X860Y382D01*
X865Y385D01*
X869Y387D01*
X873D01*
X878Y385D01*
X882Y383D01*
X885Y379D01*
G01X906Y377D02*
X910Y383D01*
X915Y386D01*
X921Y387D01*
X926Y386D01*
X931Y382D01*
X934Y377D01*
X935Y372D01*
X933Y366D01*
X929Y362D01*
X924Y360D01*
X919D01*
G01X924D02*
X928Y358D01*
X931Y353D01*
X933Y348D01*
X931Y343D01*
X928Y339D01*
X923Y337D01*
X917Y338D01*
X911Y341D01*
G01X957Y379D02*
X961Y383D01*
X965Y386D01*
X971Y387D01*
X977Y385D01*
X981Y382D01*
X984Y376D01*
X985Y369D01*
X984Y363D01*
X980Y358D01*
X976Y355D01*
X972Y354D01*
X967Y355D01*
X961Y358D01*
X963Y337D01*
X980D01*
G01X1443Y121D02*
X1439Y118D01*
X1435Y117D01*
X1430D01*
X1424Y119D01*
X1420Y123D01*
X1416Y128D01*
X1414Y137D01*
X1413Y144D01*
X1414Y152D01*
X1416Y157D01*
X1420Y162D01*
X1425Y165D01*
X1429Y167D01*
X1433D01*
X1438Y165D01*
X1442Y163D01*
X1445Y159D01*
G01X1468Y146D02*
X1472Y140D01*
X1476Y137D01*
X1481Y135D01*
X1486Y137D01*
X1489Y140D01*
X1491Y145D01*
X1492Y151D01*
X1491Y156D01*
X1489Y161D01*
X1485Y165D01*
X1481Y167D01*
X1476Y165D01*
X1471Y160D01*
X1469Y152D01*
X1468Y144D01*
X1469Y133D01*
X1471Y128D01*
X1474Y122D01*
X1479Y118D01*
X1483Y117D01*
X1488Y118D01*
X1491Y123D01*
G01X1531Y117D02*
X1526Y118D01*
X1522Y123D01*
X1520Y128D01*
X1518Y134D01*
X1517Y142D01*
X1518Y149D01*
X1520Y156D01*
X1522Y161D01*
X1526Y165D01*
X1531Y167D01*
X1536Y165D01*
X1540Y161D01*
X1542Y156D01*
X1544Y149D01*
X1545Y142D01*
X1544Y134D01*
X1542Y128D01*
X1540Y123D01*
X1536Y118D01*
X1531Y117D01*
G01X1279Y573D02*
X1282Y569D01*
X1283Y565D01*
Y560D01*
X1281Y554D01*
X1277Y550D01*
X1272Y546D01*
X1263Y544D01*
X1256Y543D01*
X1248Y544D01*
X1243Y546D01*
X1238Y550D01*
X1235Y555D01*
X1233Y559D01*
Y563D01*
X1235Y568D01*
X1237Y572D01*
X1241Y575D01*
G01Y596D02*
X1237Y600D01*
X1234Y604D01*
X1233Y610D01*
X1235Y616D01*
X1238Y620D01*
X1244Y623D01*
X1251Y624D01*
X1257Y623D01*
X1262Y619D01*
X1265Y615D01*
X1266Y611D01*
X1265Y606D01*
X1262Y601D01*
X1283Y602D01*
Y619D01*
G01X1239Y650D02*
X1235Y655D01*
X1233Y660D01*
X1235Y665D01*
X1240Y669D01*
X1248Y672D01*
X1255Y674D01*
X1264D01*
X1272Y672D01*
X1278Y669D01*
X1282Y665D01*
X1283Y661D01*
X1282Y656D01*
X1278Y652D01*
X1273Y650D01*
X1267Y648D01*
X1261Y650D01*
X1255Y653D01*
X1252Y657D01*
X1251Y661D01*
X1252Y666D01*
X1257Y670D01*
X1264Y674D01*
G01X1279Y783D02*
X1282Y779D01*
X1283Y775D01*
Y770D01*
X1281Y764D01*
X1277Y760D01*
X1272Y756D01*
X1263Y754D01*
X1256Y753D01*
X1248Y754D01*
X1243Y756D01*
X1238Y760D01*
X1235Y765D01*
X1233Y769D01*
Y773D01*
X1235Y778D01*
X1237Y782D01*
X1241Y785D01*
G01Y806D02*
X1237Y810D01*
X1234Y814D01*
X1233Y820D01*
X1235Y826D01*
X1238Y830D01*
X1244Y833D01*
X1251Y834D01*
X1257Y833D01*
X1262Y829D01*
X1265Y825D01*
X1266Y821D01*
X1265Y816D01*
X1262Y811D01*
X1283Y812D01*
Y829D01*
G01X1233Y879D02*
X1283D01*
X1248Y855D01*
Y887D01*
G01X1220Y966D02*
Y950D01*
X1120D01*
Y966D01*
X1220D01*
G01X1500Y824D02*
Y840D01*
X1600D01*
Y824D01*
X1500D01*
G01D02*
Y1076D01*
X1600D01*
Y824D01*
X1500D01*
G01Y1005D02*
Y1075D01*
X1600D01*
Y1055D01*
Y1005D01*
G01X1042Y1462D02*
X918D01*
Y1518D01*
X1042D01*
Y1462D01*
G01X1015Y1515D02*
X1040D01*
Y1465D01*
X1030D01*
G01X930D02*
X920D01*
Y1515D01*
X945D01*
G01X885D02*
X910D01*
Y1465D01*
X900D01*
G01X1350Y1800D02*
Y1620D01*
X1330Y1600D01*
X850D01*
Y1820D01*
X1330D01*
X1350Y1800D01*
G01X1030Y1595D02*
X1040D01*
Y1545D01*
X1015D01*
G01X945D02*
X920D01*
Y1595D01*
X930D01*
G01X918Y1598D02*
X1042D01*
Y1542D01*
X918D01*
Y1598D01*
G01X1340Y2020D02*
Y1840D01*
X1320Y1820D01*
X840D01*
Y2040D01*
X1320D01*
X1340Y2020D01*
G01X885Y1595D02*
X910D01*
Y1545D01*
X900D01*
G01X1078Y1541D02*
X1075Y1538D01*
X1070Y1537D01*
X1065D01*
X1059Y1539D01*
X1055Y1543D01*
X1052Y1548D01*
X1049Y1557D01*
X1049Y1564D01*
X1050Y1572D01*
X1052Y1577D01*
X1056Y1582D01*
X1060Y1585D01*
X1065Y1587D01*
X1069D01*
X1073Y1585D01*
X1077Y1583D01*
X1080Y1579D01*
G01X1115Y1587D02*
Y1537D01*
X1108Y1547D01*
G01Y1587D02*
X1123D01*
G01X853Y931D02*
X849Y928D01*
X845Y927D01*
X840D01*
X834Y929D01*
X830Y933D01*
X826Y938D01*
X824Y947D01*
X823Y954D01*
X824Y962D01*
X826Y967D01*
X830Y972D01*
X835Y975D01*
X839Y977D01*
X843D01*
X848Y975D01*
X852Y973D01*
X855Y969D01*
G01X898Y977D02*
Y927D01*
X874Y962D01*
X906D01*
G01X930Y971D02*
X935Y975D01*
X940Y977D01*
X945Y975D01*
X949Y970D01*
X952Y962D01*
X954Y955D01*
Y946D01*
X952Y938D01*
X949Y932D01*
X945Y928D01*
X941Y927D01*
X936Y928D01*
X932Y932D01*
X930Y937D01*
X928Y943D01*
X930Y949D01*
X933Y955D01*
X937Y958D01*
X941Y959D01*
X946Y958D01*
X950Y953D01*
X954Y946D01*
G01X816Y897D02*
Y847D01*
X832D01*
X837Y849D01*
X840Y853D01*
X842Y859D01*
X840Y866D01*
X837Y870D01*
X832Y873D01*
X816D01*
G01X832D02*
X842Y897D01*
G01X880D02*
Y847D01*
X872Y857D01*
G01Y897D02*
X888D01*
G01X920Y891D02*
X925Y895D01*
X930Y897D01*
X935Y895D01*
X939Y890D01*
X942Y883D01*
X944Y875D01*
Y866D01*
X942Y858D01*
X939Y852D01*
X935Y848D01*
X931Y847D01*
X926Y848D01*
X922Y852D01*
X920Y857D01*
X918Y863D01*
X920Y869D01*
X923Y875D01*
X927Y878D01*
X931Y879D01*
X936Y878D01*
X940Y873D01*
X944Y866D01*
G01X1173Y1292D02*
X1169Y1290D01*
X1165Y1288D01*
X1160D01*
X1154Y1291D01*
X1149Y1295D01*
X1146Y1300D01*
X1144Y1308D01*
X1143Y1316D01*
X1144Y1323D01*
X1146Y1328D01*
X1150Y1333D01*
X1155Y1337D01*
X1159Y1338D01*
X1163D01*
X1168Y1337D01*
X1172Y1334D01*
X1175Y1331D01*
G01X1198Y1318D02*
X1202Y1312D01*
X1206Y1308D01*
X1211Y1307D01*
X1216Y1308D01*
X1219Y1312D01*
X1221Y1317D01*
X1222Y1322D01*
X1221Y1328D01*
X1219Y1333D01*
X1215Y1337D01*
X1211Y1338D01*
X1206Y1337D01*
X1201Y1332D01*
X1199Y1324D01*
X1198Y1316D01*
X1199Y1305D01*
X1201Y1299D01*
X1204Y1293D01*
X1209Y1289D01*
X1213Y1288D01*
X1218Y1290D01*
X1221Y1294D01*
G01X1247Y1328D02*
X1251Y1334D01*
X1256Y1338D01*
X1262Y1338D01*
X1267Y1338D01*
X1272Y1333D01*
X1275Y1328D01*
X1276Y1323D01*
X1274Y1318D01*
X1270Y1313D01*
X1265Y1312D01*
X1260D01*
G01X1265D02*
X1269Y1309D01*
X1272Y1305D01*
X1274Y1300D01*
X1272Y1295D01*
X1269Y1291D01*
X1263Y1288D01*
X1258Y1289D01*
X1252Y1292D01*
G01X1404Y1642D02*
X1400Y1640D01*
X1396Y1638D01*
X1391D01*
X1385Y1641D01*
X1380Y1645D01*
X1377Y1650D01*
X1375Y1658D01*
X1374Y1666D01*
X1375Y1673D01*
X1377Y1678D01*
X1381Y1683D01*
X1386Y1687D01*
X1390Y1688D01*
X1394D01*
X1399Y1687D01*
X1403Y1684D01*
X1406Y1681D01*
G01X1440Y1688D02*
X1441Y1678D01*
X1443Y1668D01*
X1445Y1660D01*
X1449Y1651D01*
X1454Y1638D01*
X1428D01*
G01X1383Y1832D02*
X1379Y1830D01*
X1375Y1828D01*
X1370D01*
X1364Y1831D01*
X1359Y1835D01*
X1356Y1840D01*
X1354Y1848D01*
X1353Y1856D01*
X1354Y1863D01*
X1356Y1868D01*
X1360Y1873D01*
X1365Y1877D01*
X1369Y1878D01*
X1373D01*
X1378Y1877D01*
X1382Y1874D01*
X1385Y1871D01*
G01X1420Y1878D02*
Y1828D01*
X1412Y1838D01*
G01Y1878D02*
X1428D01*
G01X1471Y1828D02*
X1466Y1830D01*
X1462Y1834D01*
X1460Y1839D01*
X1458Y1846D01*
X1457Y1853D01*
X1458Y1861D01*
X1460Y1868D01*
X1462Y1873D01*
X1466Y1877D01*
X1471Y1878D01*
X1476Y1877D01*
X1480Y1873D01*
X1482Y1868D01*
X1484Y1861D01*
X1485Y1853D01*
X1484Y1846D01*
X1482Y1839D01*
X1480Y1834D01*
X1476Y1830D01*
X1471Y1828D01*
G01X1569Y1123D02*
X1572Y1119D01*
X1573Y1115D01*
Y1110D01*
X1571Y1104D01*
X1567Y1099D01*
X1562Y1096D01*
X1553Y1094D01*
X1546Y1093D01*
X1538Y1094D01*
X1533Y1096D01*
X1528Y1100D01*
X1525Y1105D01*
X1523Y1109D01*
Y1113D01*
X1525Y1118D01*
X1527Y1122D01*
X1531Y1125D01*
G01Y1146D02*
X1527Y1150D01*
X1524Y1154D01*
X1523Y1160D01*
X1525Y1166D01*
X1528Y1170D01*
X1534Y1173D01*
X1541Y1174D01*
X1547Y1173D01*
X1552Y1169D01*
X1555Y1165D01*
X1556Y1161D01*
X1555Y1156D01*
X1552Y1150D01*
X1573Y1152D01*
Y1169D01*
G01X1523Y1210D02*
X1534Y1211D01*
X1543Y1213D01*
X1552Y1215D01*
X1561Y1219D01*
X1573Y1224D01*
Y1198D01*
G01X1112Y1517D02*
Y1467D01*
X1128D01*
X1133Y1469D01*
X1136Y1473D01*
X1137Y1479D01*
X1136Y1486D01*
X1132Y1490D01*
X1128Y1493D01*
X1112D01*
G01X1128D02*
X1137Y1517D01*
G01X1183D02*
Y1467D01*
X1160Y1502D01*
X1191D01*
G01X1173Y1121D02*
X1169Y1118D01*
X1165Y1117D01*
X1160D01*
X1154Y1119D01*
X1150Y1123D01*
X1146Y1128D01*
X1144Y1137D01*
X1143Y1144D01*
X1144Y1152D01*
X1146Y1157D01*
X1150Y1162D01*
X1155Y1165D01*
X1159Y1167D01*
X1163D01*
X1168Y1165D01*
X1172Y1163D01*
X1175Y1159D01*
G01X1198Y1146D02*
X1202Y1140D01*
X1206Y1137D01*
X1211Y1135D01*
X1216Y1137D01*
X1219Y1140D01*
X1221Y1145D01*
X1222Y1151D01*
X1221Y1156D01*
X1219Y1161D01*
X1215Y1165D01*
X1211Y1167D01*
X1206Y1165D01*
X1201Y1160D01*
X1199Y1152D01*
X1198Y1144D01*
X1199Y1133D01*
X1201Y1128D01*
X1204Y1122D01*
X1209Y1118D01*
X1213Y1117D01*
X1218Y1118D01*
X1221Y1123D01*
G01X1249Y1125D02*
X1253Y1120D01*
X1257Y1118D01*
X1262Y1117D01*
X1269Y1118D01*
X1273Y1123D01*
X1274Y1128D01*
X1274Y1133D01*
X1271Y1137D01*
X1258Y1145D01*
X1253Y1151D01*
X1249Y1159D01*
X1248Y1167D01*
X1274D01*
G01X895Y2115D02*
X920D01*
Y2065D01*
X910D01*
G01X810D02*
X800D01*
Y2115D01*
X825D01*
G01X1052Y2062D02*
X928D01*
Y2118D01*
X1052D01*
Y2062D01*
G01X1025Y2115D02*
X1050D01*
Y2065D01*
X1040D01*
G01X940D02*
X930D01*
Y2115D01*
X955D01*
G01X928Y2198D02*
X1052D01*
Y2142D01*
X928D01*
Y2198D01*
G01X955Y2145D02*
X930D01*
Y2195D01*
X940D01*
G01X1040D02*
X1050D01*
Y2145D01*
X1025D01*
G01X895Y2195D02*
X920D01*
Y2145D01*
X910D01*
G01X810D02*
X800D01*
Y2195D01*
X825D01*
G01X1350Y2400D02*
Y2220D01*
X1330Y2200D01*
X850D01*
Y2420D01*
X1330D01*
X1350Y2400D01*
G01Y2620D02*
Y2440D01*
X1330Y2420D01*
X850D01*
Y2640D01*
X1330D01*
X1350Y2620D01*
G01X1730Y2490D02*
X1550D01*
X1530Y2510D01*
Y2990D01*
X1750D01*
Y2510D01*
X1730Y2490D01*
G01X1509Y2763D02*
X1512Y2759D01*
X1513Y2755D01*
Y2750D01*
X1511Y2744D01*
X1507Y2740D01*
X1502Y2736D01*
X1493Y2734D01*
X1486Y2733D01*
X1478Y2734D01*
X1473Y2736D01*
X1468Y2740D01*
X1465Y2745D01*
X1463Y2749D01*
Y2753D01*
X1465Y2758D01*
X1467Y2762D01*
X1471Y2765D01*
G01X1463Y2800D02*
X1513D01*
X1503Y2792D01*
G01X1463D02*
Y2808D01*
G01Y2851D02*
X1464Y2855D01*
X1467Y2860D01*
X1471Y2864D01*
X1477Y2865D01*
X1482Y2864D01*
X1487Y2860D01*
X1490Y2854D01*
Y2848D01*
X1492Y2844D01*
X1496Y2841D01*
X1502Y2840D01*
X1507Y2841D01*
X1512Y2846D01*
X1513Y2851D01*
X1512Y2856D01*
X1507Y2860D01*
X1502Y2862D01*
X1496Y2861D01*
X1492Y2858D01*
X1490Y2854D01*
Y2848D01*
X1487Y2842D01*
X1482Y2838D01*
X1477Y2837D01*
X1471Y2838D01*
X1467Y2841D01*
X1464Y2847D01*
X1463Y2851D01*
G01X1403Y2461D02*
X1399Y2458D01*
X1395Y2457D01*
X1390D01*
X1384Y2459D01*
X1380Y2463D01*
X1376Y2468D01*
X1374Y2477D01*
X1373Y2484D01*
X1374Y2492D01*
X1376Y2497D01*
X1380Y2502D01*
X1385Y2505D01*
X1389Y2507D01*
X1393D01*
X1398Y2505D01*
X1402Y2503D01*
X1405Y2499D01*
G01X1426Y2497D02*
X1430Y2503D01*
X1435Y2506D01*
X1441Y2507D01*
X1446Y2506D01*
X1451Y2502D01*
X1454Y2497D01*
X1455Y2492D01*
X1453Y2486D01*
X1449Y2482D01*
X1444Y2480D01*
X1439D01*
G01X1444D02*
X1448Y2478D01*
X1451Y2473D01*
X1453Y2468D01*
X1451Y2463D01*
X1448Y2459D01*
X1443Y2457D01*
X1437Y2458D01*
X1431Y2461D01*
G01X1491Y2457D02*
X1486Y2458D01*
X1482Y2463D01*
X1480Y2468D01*
X1478Y2474D01*
X1477Y2482D01*
X1478Y2489D01*
X1480Y2496D01*
X1482Y2501D01*
X1486Y2505D01*
X1491Y2507D01*
X1496Y2505D01*
X1500Y2501D01*
X1502Y2496D01*
X1504Y2489D01*
X1505Y2482D01*
X1504Y2474D01*
X1502Y2468D01*
X1500Y2463D01*
X1496Y2458D01*
X1491Y2457D01*
G01X1403Y2291D02*
X1399Y2288D01*
X1395Y2287D01*
X1390D01*
X1384Y2289D01*
X1380Y2293D01*
X1376Y2298D01*
X1374Y2307D01*
X1373Y2314D01*
X1374Y2322D01*
X1376Y2327D01*
X1380Y2332D01*
X1385Y2335D01*
X1389Y2337D01*
X1393D01*
X1398Y2335D01*
X1402Y2333D01*
X1405Y2329D01*
G01X1428Y2295D02*
X1432Y2290D01*
X1436Y2288D01*
X1441Y2287D01*
X1448Y2288D01*
X1452Y2293D01*
X1453Y2298D01*
X1453Y2303D01*
X1450Y2307D01*
X1437Y2315D01*
X1432Y2321D01*
X1428Y2329D01*
X1427Y2337D01*
X1453D01*
G01X1491D02*
X1495Y2336D01*
X1500Y2333D01*
X1504Y2329D01*
X1505Y2323D01*
X1504Y2318D01*
X1500Y2313D01*
X1494Y2310D01*
X1488D01*
X1484Y2308D01*
X1481Y2304D01*
X1480Y2298D01*
X1481Y2293D01*
X1486Y2288D01*
X1491Y2287D01*
X1496Y2288D01*
X1500Y2293D01*
X1502Y2298D01*
X1501Y2304D01*
X1498Y2308D01*
X1494Y2310D01*
X1488D01*
X1482Y2313D01*
X1478Y2318D01*
X1477Y2323D01*
X1478Y2329D01*
X1481Y2333D01*
X1487Y2336D01*
X1491Y2337D01*
G01X1132Y2117D02*
Y2067D01*
X1148D01*
X1153Y2069D01*
X1156Y2073D01*
X1157Y2079D01*
X1156Y2086D01*
X1152Y2090D01*
X1148Y2093D01*
X1132D01*
G01X1148D02*
X1157Y2117D01*
G01X1185Y2111D02*
X1189Y2115D01*
X1194Y2117D01*
X1199Y2115D01*
X1204Y2110D01*
X1207Y2102D01*
X1208Y2095D01*
Y2086D01*
X1207Y2078D01*
X1204Y2072D01*
X1200Y2068D01*
X1195Y2067D01*
X1190Y2068D01*
X1187Y2072D01*
X1184Y2077D01*
X1183Y2083D01*
X1184Y2089D01*
X1187Y2095D01*
X1191Y2098D01*
X1195Y2099D01*
X1201Y2098D01*
X1204Y2093D01*
X1208Y2086D01*
G01X1113Y2141D02*
X1109Y2138D01*
X1105Y2137D01*
X1100D01*
X1094Y2139D01*
X1090Y2143D01*
X1086Y2148D01*
X1084Y2157D01*
X1083Y2164D01*
X1084Y2172D01*
X1086Y2177D01*
X1090Y2182D01*
X1095Y2185D01*
X1099Y2187D01*
X1103D01*
X1108Y2185D01*
X1112Y2183D01*
X1115Y2179D01*
G01X1150Y2187D02*
Y2137D01*
X1142Y2147D01*
G01Y2187D02*
X1158D01*
G01X1190Y2181D02*
X1195Y2185D01*
X1200Y2187D01*
X1205Y2185D01*
X1209Y2180D01*
X1212Y2172D01*
X1214Y2165D01*
Y2156D01*
X1212Y2148D01*
X1209Y2142D01*
X1205Y2138D01*
X1201Y2137D01*
X1196Y2138D01*
X1192Y2142D01*
X1190Y2147D01*
X1188Y2153D01*
X1190Y2159D01*
X1193Y2165D01*
X1197Y2168D01*
X1201Y2169D01*
X1206Y2168D01*
X1210Y2163D01*
X1214Y2156D01*
G01X1466Y3350D02*
X1450D01*
Y3450D01*
X1466D01*
Y3350D01*
G01D02*
X1214D01*
Y3450D01*
X1466D01*
Y3350D01*
G01X1285D02*
X1215D01*
Y3450D01*
X1235D01*
X1285D01*
G01X1410Y3680D02*
Y3500D01*
X1390Y3480D01*
X910D01*
Y3700D01*
X1390D01*
X1410Y3680D01*
G01X1303Y3281D02*
X1299Y3278D01*
X1295Y3277D01*
X1290D01*
X1284Y3279D01*
X1280Y3283D01*
X1276Y3288D01*
X1274Y3297D01*
X1273Y3304D01*
X1274Y3312D01*
X1276Y3317D01*
X1280Y3322D01*
X1285Y3325D01*
X1289Y3327D01*
X1293D01*
X1298Y3325D01*
X1302Y3323D01*
X1305Y3319D01*
G01X1340Y3327D02*
Y3277D01*
X1332Y3287D01*
G01Y3327D02*
X1348D01*
G01X1377Y3317D02*
X1381Y3323D01*
X1386Y3326D01*
X1392Y3327D01*
X1397Y3326D01*
X1402Y3322D01*
X1405Y3317D01*
X1406Y3312D01*
X1404Y3306D01*
X1400Y3302D01*
X1395Y3300D01*
X1390D01*
G01X1395D02*
X1399Y3298D01*
X1402Y3293D01*
X1404Y3288D01*
X1402Y3283D01*
X1399Y3279D01*
X1394Y3277D01*
X1388Y3278D01*
X1382Y3281D01*
M02*
