G04 ================== begin FILE IDENTIFICATION RECORD ==================*
G04 Layout Name:  E:/EMB002/project/hardware/POWER/Power_PPC_V2.brd*
G04 Film Name:    Solder_Bottom*
G04 File Format:  Gerber RS274X*
G04 File Origin:  15.7-p007*
G04 Origin Date:  Fri Sep 05 15:11:19 2008*
G04 *
G04 Layer:  PIN/SOLDERMASK_BOTTOM*
G04 Layer:  BOARD GEOMETRY/OUTLINE*
G04 *
G04 Offset:    (0.000 0.000)*
G04 Mirror:    No*
G04 Mode:      Positive*
G04 Rotation:  0*
G04 FullContactRelief:  No*
G04 UndefLineWidth:     8.000*
G04 ================== end FILE IDENTIFICATION RECORD ====================*
%FSLAX53Y53*MOIN*%
%IR0*IPPOS*OFA0.00000B0.00000*MIA0B0*SFA1.00000B1.00000*%
%ADD15C,.21*%
%ADD23C,.128*%
%ADD17R,.07X.07*%
%ADD11R,.07X.07*%
%ADD19R,.082988X.207988*%
%ADD13R,.036X.046*%
%ADD12R,.046X.036*%
%ADD10C,.07*%
%ADD14R,.158X.178*%
%ADD20C,.075*%
%ADD18R,.178X.158*%
%ADD16C,.088*%
%ADD21C,.098*%
%ADD22R,.066X.066*%
%ADD24C,.008*%
G75*
%LPD*%
G75*
G54D10*
X-1070Y600D03*
X-970Y500D03*
X-1070D03*
X-970Y400D03*
X-1070D03*
X-970Y300D03*
X-1070D03*
X-970Y200D03*
Y800D03*
X-1070D03*
X-970Y700D03*
X-1070D03*
X-970Y600D03*
Y900D03*
X-1070D03*
X30Y1950D03*
X1690Y2320D03*
G54D20*
X690Y3610D03*
Y3410D03*
X70Y3610D03*
Y3410D03*
G54D11*
X-1070Y200D03*
G54D21*
X394Y3567D03*
X1677Y0D03*
G54D12*
X570Y370D03*
X630D03*
X700D03*
X760D03*
X630Y290D03*
X570D03*
X760D03*
X700D03*
X760Y880D03*
X700D03*
X630D03*
X570D03*
Y960D03*
X630D03*
X700D03*
X760D03*
X820Y1490D03*
Y1570D03*
X490Y2940D03*
X550D03*
X490Y2840D03*
X550D03*
X1010Y1490D03*
X950D03*
X880D03*
Y1570D03*
X950D03*
X1010D03*
X1020Y2170D03*
X960D03*
X890Y2090D03*
X830D03*
X1020D03*
X960D03*
X890Y2170D03*
X830D03*
G54D22*
X1170Y515D03*
Y645D03*
Y775D03*
Y905D03*
X1550Y885D03*
Y1015D03*
X1405Y3400D03*
X1275D03*
G54D13*
X570Y500D03*
Y440D03*
Y1080D03*
Y1020D03*
X810Y1710D03*
Y1650D03*
X530Y3070D03*
Y3130D03*
X820Y2290D03*
Y2230D03*
G54D14*
X200Y650D03*
X500D03*
X700Y510D03*
Y730D03*
X730Y1100D03*
Y1320D03*
X510Y1230D03*
X210D03*
X720Y1860D03*
X420D03*
X440Y2440D03*
X740D03*
X1190Y-20D03*
X1490D03*
X1000Y730D03*
Y510D03*
X1030Y1100D03*
Y1320D03*
X950Y1710D03*
X1250D03*
X940Y1930D03*
X1240D03*
X950Y2310D03*
X1250D03*
X950Y2530D03*
X1250D03*
X1310Y3590D03*
X1010D03*
G54D23*
X1350Y710D03*
Y510D03*
Y310D03*
X1690Y710D03*
Y510D03*
Y310D03*
X1350Y910D03*
X1690D03*
X1620Y1950D03*
Y1750D03*
Y1550D03*
Y1350D03*
X1535Y3145D03*
X1705D03*
X1535Y3315D03*
X1705D03*
G54D24*
G01X-197Y3740D02*
X1850D01*
Y-197D01*
X-197D01*
Y50D01*
X-1200D01*
Y1450D01*
X-197D01*
Y3740D01*
G54D15*
X0Y0D03*
X1677Y3567D03*
G54D16*
X528Y-117D03*
X332D03*
X233Y80D03*
X627D03*
X430Y-117D03*
X627D03*
X233D03*
X430Y80D03*
G54D17*
X-70Y1950D03*
X1590Y2320D03*
G54D18*
X110Y2950D03*
Y2650D03*
X340Y2950D03*
Y2650D03*
X1640Y2590D03*
Y2890D03*
G54D19*
X315Y3170D03*
X65D03*
M02*
