G04 ================== begin FILE IDENTIFICATION RECORD ==================*
G04 Layout Name:  D:/project/IRISking/IKEMB001/project/hardware/CMOS/allegro/CMOS.brd*
G04 Film Name:    solder_BOTTOM*
G04 File Format:  Gerber RS274X*
G04 File Origin:  15.7-p007*
G04 Origin Date:  Mon Jul 16 10:49:41 2007*
G04 *
G04 Layer:  VIA CLASS/SOLDERMASK_BOTTOM*
G04 Layer:  PIN/SOLDERMASK_BOTTOM*
G04 Layer:  BOARD GEOMETRY/SOLDERMASK_BOTTOM*
G04 *
G04 Offset:    (0.000 0.000)*
G04 Mirror:    No*
G04 Mode:      Positive*
G04 Rotation:  0*
G04 FullContactRelief:  No*
G04 UndefLineWidth:     8.000*
G04 ================== end FILE IDENTIFICATION RECORD ====================*
%FSLAX55Y55*MOIN*%
%IR0*IPPOS*OFA0.00000B0.00000*MIA0B0*SFA1.00000B1.00000*%
%ADD16C,.22*%
%ADD18R,.08X.06*%
%ADD12C,.031*%
%ADD14R,.036X.046*%
%ADD17R,.026X.048*%
%ADD13R,.046X.036*%
%ADD19R,.058X.058*%
%ADD15C,.058*%
%ADD10C,.098*%
%ADD11R,.066X.066*%
%LPD*%
G75*
G54D10*
X8700Y82300D03*
X141500Y218500D03*
G54D11*
X14063Y110120D03*
X14353Y122140D03*
X14063Y134460D03*
X27063Y110120D03*
X27353Y122140D03*
X27063Y134460D03*
X105512Y82870D03*
X94094D03*
X105512Y95870D03*
X94094D03*
X117323Y82870D03*
Y95870D03*
G54D12*
X20639Y139886D03*
X16685Y156189D03*
Y169806D03*
X16950Y148379D03*
X47512Y98542D03*
X27063Y103180D03*
X47542Y87158D03*
X36093Y82246D03*
X33866Y137892D03*
X36776Y138170D03*
X44238Y140930D03*
X27353Y116813D03*
X31823Y134460D03*
X29993Y159449D03*
X51398Y168681D03*
X38878Y153321D03*
X72835Y77735D03*
X62598Y77843D03*
X52362Y77742D03*
X77165Y97219D03*
X57087Y97880D03*
X70476D03*
X65467Y98825D03*
X61364Y128049D03*
X54819Y118097D03*
X68596Y134642D03*
X52606Y129096D03*
X68596Y138579D03*
X64659Y162201D03*
X61201Y168565D03*
X75818Y149642D03*
X57933Y168681D03*
X64659Y166138D03*
X74681Y168203D03*
X53000Y142174D03*
X54471Y160282D03*
X80493Y162251D03*
X72292Y152486D03*
X78975Y145942D03*
X57186Y141905D03*
X73545Y143506D03*
X57933Y196690D03*
X54647Y175335D03*
X64428Y173196D03*
X73823Y175319D03*
X71349Y172664D03*
X79532Y203999D03*
X83071Y78011D03*
X105512Y102240D03*
X88185Y134546D03*
X104401Y138657D03*
X98353Y132063D03*
X111484Y125984D03*
X84344Y134642D03*
X88264Y158281D03*
X95225Y146453D03*
X92315D03*
X101724Y146137D03*
X101529Y150397D03*
X93315Y154365D03*
X103826Y161466D03*
X102852Y166756D03*
X92410Y162440D03*
X84369Y162301D03*
X84053Y154711D03*
X84330Y142467D03*
X100726Y194184D03*
X97457Y198152D03*
X94359Y203999D03*
X117323Y102217D03*
X122976Y119555D03*
X112704Y166535D03*
X136879D03*
X136980Y157480D03*
X122976Y142038D03*
X113781Y150606D03*
X117679Y159029D03*
X113687Y143307D03*
G54D13*
X16685Y166535D03*
Y159449D03*
X46606Y135827D03*
X47000Y150787D03*
Y164961D03*
X22685Y166535D03*
Y159449D03*
X52606Y135827D03*
X53000Y150787D03*
Y164961D03*
X101724Y125984D03*
X107724D03*
Y157874D03*
X101724D03*
X107724Y143307D03*
X101724D03*
X132134Y157480D03*
X126134D03*
X132134Y166535D03*
X126134D03*
G54D14*
X50394Y93158D03*
Y87158D03*
X43701D03*
Y93158D03*
X77165Y87158D03*
Y93158D03*
X57087D03*
Y87158D03*
X63780Y93158D03*
Y87158D03*
X70472Y93158D03*
Y87158D03*
X83858D03*
Y93158D03*
G54D15*
X52522Y217752D03*
Y209878D03*
X44648Y217752D03*
Y209878D03*
X36774Y217752D03*
Y209878D03*
X76144Y217752D03*
Y209878D03*
X68270Y217752D03*
Y209878D03*
X60396Y217752D03*
Y209878D03*
X107640Y217752D03*
Y209878D03*
X99766Y217752D03*
Y209878D03*
X91892Y217752D03*
Y209878D03*
X84018Y217752D03*
Y209878D03*
X115514D03*
G54D16*
X76470Y111020D03*
Y189760D03*
G54D17*
X99390Y171654D03*
X96122D03*
X92854D03*
X89587D03*
Y179528D03*
X92854D03*
X96122D03*
X99390D03*
G54D18*
X138976Y137795D03*
Y115795D03*
X122976D03*
Y137795D03*
G54D19*
X115514Y217752D03*
M02*
