G04 ================== begin FILE IDENTIFICATION RECORD ==================*
G04 Layout Name:  D:/project/IRISking/IKEMB001/project/hardware/CMOS/allegro/CMOS.brd*
G04 Film Name:    TOP*
G04 File Format:  Gerber RS274X*
G04 File Origin:  15.7-p007*
G04 Origin Date:  Mon Jul 16 10:49:41 2007*
G04 *
G04 Layer:  BOARD GEOMETRY/OUTLINE*
G04 Layer:  ETCH/TOP*
G04 Layer:  PIN/TOP*
G04 Layer:  VIA CLASS/TOP*
G04 *
G04 Offset:    (0.000 0.000)*
G04 Mirror:    No*
G04 Mode:      Positive*
G04 Rotation:  0*
G04 FullContactRelief:  No*
G04 UndefLineWidth:     8.000*
G04 ================== end FILE IDENTIFICATION RECORD ====================*
%FSLAX55Y55*MOIN*%
%IR0*IPPOS*OFA0.00000B0.00000*MIA0B0*SFA1.00000B1.00000*%
%ADD15C,.2*%
%ADD17R,.05X.05*%
%ADD12R,.05X.06*%
%ADD13R,.018X.04*%
%ADD16C,.02*%
%ADD14C,.05*%
%ADD11C,.023*%
%ADD10C,.09*%
%ADD18C,.0061*%
%ADD19C,.01*%
%ADD20C,.008*%
G75*
%LPD*%
G75*
G36*
G01X14999Y75633D02*
G02X14716Y76316I0J400D01*
G01X17200Y78800D01*
Y85800D01*
X12200Y90800D01*
X5200D01*
X2640Y88240D01*
G02X1957Y88523I-283J283D01*
G01Y204774D01*
G02X2157Y204974I200J0D01*
G01X21892D01*
X23006Y206088D01*
Y223142D01*
X24884Y225020D01*
G02X25166I141J-141D01*
G01X25512Y224674D01*
X134708D01*
G02X134991Y223991I0J-400D01*
G01X133000Y222000D01*
Y215000D01*
X137500Y210500D01*
X145500D01*
X147695Y212695D01*
G02X148378Y212412I283J-283D01*
G01Y96586D01*
X148030Y96238D01*
X129722D01*
X127843Y94359D01*
Y78001D01*
X125475Y75633D01*
X85536D01*
G02X85224Y76284I0J400D01*
G03X85812Y78338I-2153J1728D01*
G02X85869Y78503I199J24D01*
G01X86445Y79079D01*
X87181D01*
Y97299D01*
X80112D01*
G02X79913Y97480I0J200D01*
G03X79172Y99114I-2748J-261D01*
G02X79363Y99776I291J275D01*
G03X70095Y101317I-2893J11244D01*
G02X69951Y100590I-220J-334D01*
G03X68591Y99896I525J-2710D01*
G02X67957Y100016I-273J292D01*
G03X62835Y97993I-2490J-1191D01*
G02X62454Y97473I-381J-121D01*
G01X60512D01*
G03X60292Y97460I0J-1915D01*
G02X59847Y97860I-46J397D01*
G03X54327Y97941I-2760J20D01*
G01X54325Y97861D01*
X53764Y97299D01*
X50558D01*
G02X50172Y97806I0J400D01*
G03X44752Y98602I-2660J736D01*
G01X44751Y98522D01*
X43528Y97299D01*
X38016D01*
Y86120D01*
X36888Y84992D01*
G02X36702Y84938I-141J141D01*
G03X37529Y79889I-609J-2692D01*
G02X37685Y79911I104J-171D01*
G01X37868Y79863D01*
G02X38016Y79669I-52J-193D01*
G01Y79079D01*
X46236D01*
Y94591D01*
X47179Y95534D01*
X47212D01*
X47460Y95781D01*
X47541Y95782D01*
G03X47809Y95798I-28J2760D01*
G02X48252Y95400I43J-398D01*
G01Y79079D01*
X48988D01*
X49601Y78466D01*
G02X49656Y78285I-141J-141D01*
G03X50040Y76249I2706J-543D01*
G02X49704Y75633I-337J-216D01*
G01X14999D01*
G37*
%LPC*%
G75*
G36*
G01X121045Y121528D02*
G02Y117583I1931J-1972D01*
G01X120987Y117640D01*
X117120D01*
X111537Y123223D01*
X111455Y123224D01*
G02X114244Y126014I29J2760D01*
G01X114245Y125932D01*
X118707Y121470D01*
X120987D01*
X121045Y121528D01*
G37*
G36*
G01X57879Y113477D02*
X40908D01*
X24403Y129982D01*
Y208090D01*
X32664Y216350D01*
Y217752D01*
G02X40362Y219757I4110J0D01*
G03X41060I349J195D01*
G02X48236Y219757I3588J-2005D01*
G03X48934I349J195D01*
G02X56110I3588J-2005D01*
G03X56808I349J195D01*
G02X63327Y220633I3588J-2005D01*
G01X63328Y220632D01*
X63329Y220632D01*
G03X63611I141J141D01*
G01X66062Y223082D01*
X70478D01*
X72928Y220632D01*
G03X73211I141J141D01*
G01X73212Y220632D01*
X73212Y220633D01*
G02X79732Y219757I2931J-2881D01*
G03X80430I349J195D01*
G02X87606Y219757I3588J-2005D01*
G03X88304I349J195D01*
G02X95480Y219757I3588J-2005D01*
G03X96178I349J195D01*
G02X102037Y221178I3588J-2005D01*
G03X102289Y221203I111J167D01*
G01X104891Y223805D01*
X118844D01*
X121822Y220827D01*
Y213478D01*
X119624Y211280D01*
Y209878D01*
G02X111926Y207873I-4110J0D01*
G03X111228I-349J-195D01*
G02X110546Y206972I-3588J2005D01*
G01X109555Y205980D01*
Y189135D01*
X101900Y181480D01*
Y178373D01*
G03X102100Y178173I200J0D01*
G01X103775D01*
X112652Y169296D01*
X112734Y169295D01*
G02X111713Y163959I-29J-2760D01*
G03X111170Y163586I-144J-373D01*
G01Y145653D01*
G03X111838Y145356I400J0D01*
G02Y141258I1850J-2049D01*
G03X111170Y140961I-268J-297D01*
G01Y137599D01*
X103718Y130148D01*
X100342D01*
X100284Y130090D01*
G02X96363Y133975I-1931J1972D01*
G03X96074Y134653I-288J277D01*
G01X93833D01*
X93790Y134696D01*
X92025D01*
X91968Y134646D01*
G02X91020Y134117I-1718J1965D01*
G03X90884Y133968I59J-191D01*
G02X86341Y132491I-2699J578D01*
G03X86082Y132498I-134J-149D01*
G02X81660Y133999I-1738J2144D01*
G03X81530Y134141I-194J-47D01*
G02X80547Y134748I845J2470D01*
G03X80267I-140J-143D01*
G02X78537Y134002I-1828J1863D01*
G03X78344Y133802I7J-200D01*
G01Y133753D01*
X70726Y126134D01*
X63354D01*
X63296Y126077D01*
G02X61411Y125290I-1931J1972D01*
G01X61329Y125288D01*
X61215Y125171D01*
Y124943D01*
X60237Y123964D01*
Y115835D01*
X57879Y113477D01*
G37*
%LPD*%
G75*
G36*
G01X56406Y121026D02*
G02X55856Y120655I-400J0D01*
G03X54819Y120857I-1037J-2558D01*
G01X54459D01*
X50246Y125070D01*
X40831D01*
X34734Y131167D01*
G02X35017Y131850I283J283D01*
G01X46926D01*
X49850Y128926D01*
X49857Y128853D01*
G03X55227Y129964I2749J243D01*
G01X55216Y129994D01*
Y130942D01*
X49088Y137070D01*
X39858D01*
G02X39468Y137559I0J400D01*
G03X39536Y138170I-2692J611D01*
G01Y138802D01*
X45219Y144485D01*
X54898D01*
G02X55187Y143809I0J-400D01*
G03X57157Y139145I1999J-1904D01*
G01X57238Y139144D01*
X57750Y138632D01*
X60155D01*
G02X60492Y138017I0J-400D01*
G03X61352Y134370I2199J-1406D01*
G02X61430Y133744I-205J-343D01*
G01X57384Y129698D01*
Y126529D01*
X56406Y125551D01*
Y121026D01*
G37*
G36*
G01X28916Y144776D02*
G02X28233Y145058I-283J283D01*
G01Y156596D01*
G02X28805Y156957I400J0D01*
G03X31924Y157477I1188J2492D01*
G01X31982Y157534D01*
X38221D01*
X42485Y153270D01*
X42492D01*
X42827Y152935D01*
G02X42544Y152252I-283J-283D01*
G01X36392D01*
X28916Y144776D01*
G37*
G36*
G01X51713Y156229D02*
X50870Y157072D01*
Y165523D01*
G02X51286Y165923I400J0D01*
G03X54157Y168634I111J2758D01*
G02X54357Y168831I200J-3D01*
G01X54973D01*
G02X55173Y168634I0J-200D01*
G03X59375Y166327I2760J47D01*
G02X59596Y166320I105J-171D01*
G03X60026Y166067I1605J2245D01*
G01X60079Y166042D01*
X60141Y165944D01*
Y164730D01*
X60137Y164709D01*
G03X60828Y162341I2554J-540D01*
G02Y162061I-143J-140D01*
G03Y158404I1863J-1828D01*
G02Y158124I-143J-140D01*
G03X60083Y156419I1863J-1828D01*
G02X59884Y156229I-200J9D01*
G01X51713D01*
G37*
G36*
G01X95999Y140548D02*
G02X95716Y141231I0J400D01*
G01X99205Y144719D01*
Y154825D01*
G02X99888Y155108I400J0D01*
G01X106119Y148876D01*
Y141529D01*
G02X105552Y141166I-400J0D01*
G03X102470Y140629I-1151J-2509D01*
G01X102412Y140572D01*
X101741D01*
X101716Y140548D01*
X95999D01*
G37*
G36*
G01X107339Y154039D02*
G02X106656Y153756I-400J0D01*
G01X101008Y159404D01*
Y167843D01*
G02X101208Y168043I200J0D01*
G01X101900D01*
Y170139D01*
G02X102583Y170422I400J0D01*
G01X107339Y165665D01*
Y154039D01*
G37*
G36*
G01X80547Y166032D02*
G02X80267I-140J143D01*
G03X80264Y166035I-1810J-1880D01*
G01X80264Y166036D01*
X80263Y166037D01*
G02Y166319I141J141D01*
G01X86394Y172450D01*
G02X87076Y172167I283J-283D01*
G01Y168043D01*
X90841D01*
X92368Y166516D01*
Y166223D01*
G02X92168Y166023I-200J0D01*
G01X92089D01*
X92031Y166077D01*
G03X88421Y166032I-1782J-1907D01*
G02X88141I-140J143D01*
G03X84484I-1828J-1863D01*
G02X84204I-140J143D01*
G03X80547I-1828J-1863D01*
G37*
G54D10*
X8700Y82300D03*
X141500Y218500D03*
G54D20*
G01X800Y74400D02*
X129600D01*
Y94400D01*
X149600D01*
Y226400D01*
X20800D01*
Y206400D01*
X800D01*
Y74400D01*
G54D11*
X20639Y139886D03*
X16685Y156189D03*
Y169806D03*
X16950Y148379D03*
X47512Y98542D03*
X27063Y103180D03*
X47542Y87158D03*
X36093Y82246D03*
X33866Y137892D03*
X36776Y138170D03*
X44238Y140930D03*
X27353Y116813D03*
X31823Y134460D03*
X29993Y159449D03*
X51398Y168681D03*
X38878Y153321D03*
X72835Y77735D03*
X62598Y77843D03*
X52362Y77742D03*
X77165Y97219D03*
X57087Y97880D03*
X70476D03*
X65467Y98825D03*
X61364Y128049D03*
X54819Y118097D03*
X68596Y134642D03*
X52606Y129096D03*
X68596Y138579D03*
X64659Y162201D03*
X61201Y168565D03*
X75818Y149642D03*
X57933Y168681D03*
X64659Y166138D03*
X74681Y168203D03*
X53000Y142174D03*
X54471Y160282D03*
X80493Y162251D03*
X72292Y152486D03*
X78975Y145942D03*
X57186Y141905D03*
X73545Y143506D03*
X57933Y196690D03*
X54647Y175335D03*
X64428Y173196D03*
X73823Y175319D03*
X71349Y172664D03*
X79532Y203999D03*
X83071Y78011D03*
X105512Y102240D03*
X88185Y134546D03*
X104401Y138657D03*
X98353Y132063D03*
X111484Y125984D03*
X84344Y134642D03*
X88264Y158281D03*
X95225Y146453D03*
X92315D03*
X101724Y146137D03*
X101529Y150397D03*
X93315Y154365D03*
X103826Y161466D03*
X102852Y166756D03*
X92410Y162440D03*
X84369Y162301D03*
X84053Y154711D03*
X84330Y142467D03*
X100726Y194184D03*
X97457Y198152D03*
X94359Y203999D03*
X117323Y102217D03*
X122976Y119555D03*
X112704Y166535D03*
X136879D03*
X136980Y157480D03*
X122976Y142038D03*
X113781Y150606D03*
X117679Y159029D03*
X113687Y143307D03*
G54D12*
X52362Y83689D03*
Y92689D03*
X42126Y83689D03*
Y92689D03*
X62598Y83689D03*
Y92689D03*
X72835Y83689D03*
Y92689D03*
X83071Y83689D03*
Y92689D03*
G54D13*
X51398Y172441D03*
Y180315D03*
X54665Y172441D03*
X57933D03*
X61201D03*
Y180315D03*
X57933D03*
X54665D03*
X89587Y171654D03*
X92854D03*
X96122D03*
X99390D03*
Y179528D03*
X96122D03*
X92854D03*
X89587D03*
G54D14*
X52522Y217752D03*
Y209878D03*
X44648Y217752D03*
Y209878D03*
X36774Y217752D03*
Y209878D03*
X76144Y217752D03*
Y209878D03*
X68270Y217752D03*
Y209878D03*
X60396Y217752D03*
Y209878D03*
X107640Y217752D03*
Y209878D03*
X99766Y217752D03*
Y209878D03*
X91892Y217752D03*
Y209878D03*
X84018Y217752D03*
Y209878D03*
X115514D03*
G54D15*
X76470Y111020D03*
Y189760D03*
G54D16*
G01X52606Y129096D02*
Y129861D01*
X48007Y134460D01*
X31823D01*
G01X52591Y223282D02*
X52522Y223213D01*
G01D02*
Y217752D01*
G01X94359Y203999D02*
X79532D01*
G01X99441Y223073D02*
X99766Y222748D01*
G01D02*
Y217752D01*
X78439Y140548D03*
Y136611D03*
X74502Y140548D03*
Y136611D03*
X70565Y140548D03*
Y136611D03*
X66628Y140548D03*
Y136611D03*
X62691Y140548D03*
Y136611D03*
X78439Y164170D03*
Y160233D03*
X74502Y164170D03*
Y160233D03*
X70565Y164170D03*
Y160233D03*
Y156296D03*
Y144485D03*
X66628Y164170D03*
Y160233D03*
Y156296D03*
Y152359D03*
Y148422D03*
Y144485D03*
X62691Y164170D03*
Y160233D03*
Y156296D03*
Y152359D03*
Y148422D03*
Y144485D03*
X90250Y140548D03*
Y136611D03*
X86313Y140548D03*
Y136611D03*
X82376Y140548D03*
Y136611D03*
X90250Y164170D03*
Y160233D03*
Y156296D03*
Y152359D03*
Y148422D03*
Y144485D03*
X86313Y164170D03*
Y160233D03*
Y156296D03*
Y152359D03*
Y148422D03*
Y144485D03*
X82376Y164170D03*
Y160233D03*
Y156296D03*
Y144485D03*
G54D17*
X115514Y217752D03*
G54D18*
G01X46667Y97697D02*
Y98542D01*
G01Y97697D02*
X47512D01*
G01X46667D02*
X46419Y97449D01*
X46386D01*
X42126Y93189D01*
Y92689D01*
G01X47512Y98542D02*
X46667Y97697D01*
G01X66628Y136611D02*
Y135475D01*
X63242Y132089D01*
X62484D01*
X59300Y128905D01*
Y125736D01*
X58321Y124758D01*
Y116628D01*
X57085Y115392D01*
X41702D01*
X26318Y130776D01*
Y207296D01*
X34579Y215557D01*
G01X33866Y139087D02*
X34464Y138489D01*
G01X33866Y139087D02*
X33268Y138489D01*
G01X33866Y139087D02*
Y137892D01*
G01X62691Y148422D02*
X41866D01*
X33866Y140422D01*
Y139087D01*
G01X37621Y139595D02*
Y138170D01*
G01Y139595D02*
X36776Y139015D01*
G01X37621Y139595D02*
X44426Y146400D01*
X64713D01*
X66628Y144485D01*
G01X36776Y138170D02*
Y138750D01*
X37621Y139595D01*
G01X53666Y118942D02*
X49453Y123155D01*
X40038D01*
X28538Y134655D01*
Y141689D01*
X37186Y150337D01*
X67602D01*
X69020Y151755D01*
Y154260D01*
X67679Y155601D01*
G01X38969Y212073D02*
X40362Y213466D01*
X46453D01*
X48955Y210964D01*
Y156278D01*
X50920Y154314D01*
X64673D01*
X66628Y152359D01*
G01X31188Y159449D02*
X30591Y158851D01*
G01X31188Y159449D02*
X30591Y160046D01*
G01X31188Y159449D02*
X33587D01*
G01X29993D02*
X31188D01*
G01X33587D02*
X39014D01*
X43278Y155185D01*
X43285D01*
X46112Y152359D01*
X62691D01*
G01X33587Y159449D02*
X41105Y166967D01*
Y206335D01*
X42453Y207683D01*
G01X38969Y212073D02*
Y209878D01*
G01Y212073D02*
X36774D01*
G01Y209878D02*
X38969Y212073D01*
G01X34579Y215557D02*
Y217752D01*
G01Y215557D02*
X36774D01*
G01X34579D02*
X36774Y217752D01*
G01X42453Y207683D02*
Y209878D01*
G01Y207683D02*
X44648D01*
G01X42453D02*
X44648Y209878D01*
G01X77165Y96024D02*
X76568Y96622D01*
G01X77165Y96024D02*
X77763Y96622D01*
G01X77165Y96024D02*
Y94689D01*
X79165Y92689D01*
G01X80325D02*
X80571Y92443D01*
G01X80325Y92689D02*
X80571Y92935D01*
G01X79745Y92689D02*
X80571Y91863D01*
G01X79745Y92689D02*
X80571Y93515D01*
G01X79745Y92689D02*
X80325D01*
G01X79165D02*
X80571Y91284D01*
G01X79165Y92689D02*
X80571Y94095D01*
G01X79165Y92689D02*
X79745D01*
G01X77165Y97219D02*
Y96024D01*
G01X56652Y96482D02*
Y97470D01*
G01Y96482D02*
X56242Y96072D01*
G01D02*
Y97880D01*
G01Y96072D02*
X55937Y95768D01*
X54941D01*
X52362Y93189D01*
Y92689D01*
G01X57087Y97880D02*
Y96918D01*
X56652Y96482D01*
G01X72141Y96215D02*
Y92185D01*
G01Y96215D02*
X74498Y95044D01*
G01X72141Y96215D02*
X72835Y95521D01*
Y92689D01*
G01X71731Y96625D02*
Y91688D01*
G01Y96625D02*
X74619Y95190D01*
G01X71731Y96625D02*
X72141Y96215D01*
G01X71321Y97035D02*
Y91190D01*
G01Y97035D02*
X74739Y95337D01*
G01X71321Y97035D02*
X70476D01*
G01X71321D02*
Y97880D01*
G01Y97035D02*
X71731Y96625D01*
G01X70476Y97880D02*
X71321Y97035D01*
G01X65467Y95558D02*
X60512D01*
G01X65467D02*
X64990Y90126D01*
G01X65467Y95558D02*
X62598Y92689D01*
G01X65467Y97630D02*
X64870Y98228D01*
G01X65467Y97630D02*
X66064Y98228D01*
G01X65467Y97630D02*
Y95558D01*
G01Y98825D02*
Y97630D01*
G01X62560Y128049D02*
X61962Y127452D01*
G01X62560Y128049D02*
X61962Y128647D01*
G01X62560Y128049D02*
X61364D01*
G01X66628Y148422D02*
X71565D01*
X76429Y143557D01*
Y134546D01*
X69932Y128049D01*
X62560D01*
G01X53666Y118942D02*
X54819D01*
G01X53666D02*
X53974Y118097D01*
G01X54819D02*
X54511D01*
X53666Y118942D01*
G01X69441Y135487D02*
Y134642D01*
G01Y135487D02*
X68596D01*
G01X69441D02*
X70565Y136611D01*
G01X68596Y134642D02*
X69441Y135487D01*
G01Y139424D02*
Y138579D01*
G01Y139424D02*
X68596D01*
G01X69441D02*
X70565Y140548D01*
G01X68596Y138579D02*
X69441Y139424D01*
G01X61201Y169760D02*
X61798Y169162D01*
G01X61201Y169760D02*
X60603Y169162D01*
G01X61201Y169760D02*
Y168565D01*
G01X65504Y161356D02*
X64659D01*
G01X65504D02*
Y162201D01*
G01Y161356D02*
X66628Y160233D01*
G01X61201Y169846D02*
X61796Y170441D01*
G01X61201Y169846D02*
X60606Y170441D01*
G01X61201Y169846D02*
Y169760D01*
G01Y172441D02*
Y169846D01*
G01X64659Y162201D02*
X65504Y161356D01*
G01X57933Y169876D02*
X58498Y170441D01*
G01X57933Y169876D02*
X57368Y170441D01*
G01X57933Y169876D02*
X58531Y169279D01*
G01X57933Y169876D02*
X57336Y169279D01*
G01X57933Y169876D02*
Y172441D01*
G01X77013Y149642D02*
X76416Y149044D01*
G01X77013Y149642D02*
X76416Y150239D01*
G01X77013Y149642D02*
X75818D01*
G01X86313Y148422D02*
X82568D01*
X81348Y149642D01*
X77013D01*
G01X57933Y168681D02*
Y169876D01*
G01X67679Y155601D02*
X66628D01*
G01X67679D02*
X67323Y156296D01*
G01X67679Y155601D02*
X66984Y156296D01*
X66628D01*
G01X62056Y165787D02*
X63182Y164661D01*
G01X62056Y165787D02*
Y164804D01*
X62691Y164170D01*
G01X63861Y171434D02*
Y168304D01*
X62056Y166500D01*
Y165787D01*
G01X51398Y169846D02*
X51965Y169278D01*
G01X51398Y169846D02*
X50830Y169278D01*
G01X65504Y165293D02*
X64659D01*
G01X65504D02*
Y166138D01*
G01Y165293D02*
X66628Y164170D01*
G01X51398Y169846D02*
X51993Y170441D01*
G01X51398Y169846D02*
X50803Y170441D01*
G01X51398Y169846D02*
Y168681D01*
G01Y172441D02*
Y169846D01*
G01X64659Y166138D02*
X65504Y165293D01*
G01X70565Y164170D02*
Y168733D01*
X73439Y171607D01*
Y172483D01*
X73815Y172859D01*
Y174116D01*
G01X74502Y166829D02*
X74084Y167606D01*
G01X74502Y166829D02*
X75278Y167606D01*
G01X74502Y166829D02*
Y164170D01*
G01X74681Y168203D02*
X74502Y168024D01*
Y166829D01*
G01X70504Y171229D02*
X68650Y169374D01*
Y162148D01*
X70565Y160233D01*
G01X111859Y167380D02*
X102982Y176258D01*
X87493D01*
X76524Y165289D01*
Y162148D01*
X78439Y160233D01*
G01X57673Y159516D02*
X58995Y158194D01*
G01D02*
X61880D01*
X61897Y158211D01*
X72587D01*
X73807Y159431D01*
G01X75534Y171977D02*
X72587Y169029D01*
Y163376D01*
X74502Y161461D01*
Y160233D01*
G01X73807Y159431D02*
X74502Y160126D01*
Y160233D01*
G01X73807Y159431D02*
X74502Y159538D01*
G01X73807Y159431D02*
Y160233D01*
G01X79269Y163475D02*
X78439D01*
G01X79269D02*
X79134Y164170D01*
G01X79269Y163475D02*
X79648Y163096D01*
G01X72700Y144351D02*
X73545D01*
G01X72700D02*
Y143506D01*
G01Y144351D02*
X73545Y143506D01*
G01X58031Y141060D02*
X57186D01*
G01X58031D02*
Y141905D01*
G01Y141060D02*
X57186Y141905D01*
G01X79820Y145097D02*
X78975D01*
G01X79820D02*
Y145942D01*
G01Y145097D02*
X78975Y145942D01*
G01X71447Y153331D02*
X72292D01*
G01X71447D02*
Y152486D01*
G01Y153331D02*
X72292Y152486D01*
G01X79648Y163096D02*
X80493D01*
G01X79648D02*
Y162251D01*
G01Y163096D02*
X80493Y162251D01*
G01X78439Y164170D02*
X78574D01*
X79269Y163475D01*
G01X70565Y156296D02*
Y154213D01*
X71447Y153331D01*
G01X82376Y144485D02*
X80432D01*
X79820Y145097D01*
G01X62691Y140548D02*
X58543D01*
X58031Y141060D01*
G01X70565Y144485D02*
X72566D01*
X72700Y144351D01*
G01X73949Y212073D02*
X72729Y213293D01*
X65649D01*
X64147Y211791D01*
Y207132D01*
X54665Y197650D01*
Y182910D01*
G01D02*
X54070Y182315D01*
G01X54665Y182910D02*
X55260Y182315D01*
G01X54665Y182910D02*
Y180315D01*
G01X73949Y215557D02*
X73185Y214793D01*
X72185D01*
X71685Y215293D01*
Y219167D01*
X69685Y221167D01*
X66855D01*
X64855Y219167D01*
Y216733D01*
X62415Y214293D01*
X58937D01*
X55937Y211293D01*
Y206601D01*
X51398Y202062D01*
Y182910D01*
G01D02*
X50803Y182315D01*
G01X51398Y182910D02*
X51992Y182315D01*
G01X51398Y182910D02*
Y180315D01*
G01X68270Y206774D02*
Y203945D01*
X61201Y196876D01*
Y182910D01*
G01D02*
X60606Y182315D01*
G01X61201Y182910D02*
X61796Y182315D01*
G01X61201Y182910D02*
Y180315D01*
G01X57933Y195495D02*
X57336Y196092D01*
G01X57933Y195495D02*
X58531Y196092D01*
G01X57933Y195495D02*
Y196690D01*
G01Y182910D02*
X57338Y182315D01*
G01X57933Y182910D02*
X58528Y182315D01*
G01X57933Y182910D02*
Y195495D01*
G01Y180315D02*
Y182910D01*
G01X63861Y171434D02*
X63830Y172598D01*
G01X63861Y171434D02*
X65026Y172598D01*
G01X54647Y174140D02*
X54050Y174738D01*
G01X54647Y174140D02*
X55245Y174738D01*
G01X54647Y174140D02*
Y173559D01*
X54665Y173541D01*
Y172441D01*
G01X64428Y173196D02*
X63861D01*
Y171434D01*
G01X54647Y175335D02*
Y174140D01*
G01X73815Y174116D02*
X73226Y174722D01*
G01X73815Y174116D02*
X74420Y174722D01*
G01X73815Y174116D02*
Y175311D01*
X73823Y175319D01*
G01X70504Y171229D02*
Y172664D01*
G01Y171229D02*
X71349Y171820D01*
G01Y172664D02*
Y172074D01*
X70504Y171229D01*
G01X73949Y212073D02*
X76144D01*
G01X73949D02*
Y209878D01*
G01X76144D02*
X73949Y212073D01*
G01Y215557D02*
Y217752D01*
G01Y215557D02*
X76144D01*
G01Y217752D02*
X73949Y215557D01*
G01X68270Y206774D02*
X66718Y208326D01*
G01X68270Y206774D02*
X69822Y208326D01*
G01X68270Y209878D02*
Y206774D01*
G01X80325Y92689D02*
X83071D01*
G01X87340Y135584D02*
X88185Y135391D01*
G01X87340Y135584D02*
Y134546D01*
G01Y135584D02*
X86313Y136611D01*
G01X88185Y134546D02*
Y134739D01*
X87340Y135584D01*
G01X103206Y138657D02*
X103804Y139254D01*
G01X103206Y138657D02*
X103804Y138059D01*
G01X103206Y138657D02*
X102534D01*
X102510Y138633D01*
X88228D01*
X86313Y140548D01*
G01X104401Y138657D02*
X103206D01*
G01X90250Y136611D02*
X94583D01*
X94626Y136568D01*
X105704D01*
X108034Y138898D01*
Y149670D01*
X99093Y158611D01*
Y168762D01*
G01X99548Y132063D02*
X98950Y131465D01*
G01X99548Y132063D02*
X98950Y132660D01*
G01X99548Y132063D02*
X102925D01*
X109254Y138392D01*
Y166459D01*
X100863Y174850D01*
X90790D01*
X90487Y174546D01*
G01X98353Y132063D02*
X99548D01*
G01X83499Y135487D02*
X84344D01*
G01X83499D02*
Y134642D01*
G01Y135487D02*
X82376Y136611D01*
G01X84344Y134642D02*
X83499Y135487D01*
G01X87033Y158318D02*
X87667Y157684D01*
G01X87033Y158318D02*
X85519D01*
X83604Y160233D01*
X82376D01*
G01X88264Y158281D02*
X88228Y158318D01*
X87033D01*
G01X92854Y169059D02*
X93449Y169654D01*
G01X92854Y169059D02*
X92259Y169654D01*
G01X92854Y169059D02*
Y168739D01*
X94283Y167310D01*
Y163487D01*
X94475Y163296D01*
Y161584D01*
X94283Y161393D01*
Y156317D01*
X95380Y155220D01*
Y153510D01*
X94170Y152300D01*
X93251D01*
X91288Y150337D01*
X89228D01*
X88228Y149337D01*
Y146400D01*
X86313Y144485D01*
G01X92854Y171654D02*
Y169059D01*
G01X99093Y169342D02*
X99405Y169654D01*
G01X99093Y169342D02*
Y171357D01*
X99390Y171654D01*
G01X99093Y168762D02*
X99985Y169654D01*
G01X99093Y168762D02*
X98795Y169654D01*
G01X99093Y168762D02*
Y169342D01*
G01X90487Y174546D02*
Y169959D01*
G01X94790Y145103D02*
Y146043D01*
G01Y145103D02*
X95225Y145538D01*
Y146453D01*
G01X94380Y144693D02*
Y146453D01*
G01Y144693D02*
X94790Y145103D01*
G01X91329Y144388D02*
X90741Y143993D01*
G01X91329Y144388D02*
X90741Y144976D01*
G01X91329Y144388D02*
X94075D01*
X94380Y144693D01*
G01X90250Y144485D02*
X90346Y144388D01*
X91329D01*
G01X96122Y169059D02*
X96717Y169654D01*
G01X96122Y169059D02*
X95527Y169654D01*
G01X96122Y169059D02*
Y167211D01*
X97290Y166044D01*
Y145512D01*
X92325Y140548D01*
X90250D01*
G01X96122Y171654D02*
Y169059D01*
G01X91373Y147298D02*
X92315D01*
G01X91373D02*
X91470Y146453D01*
G01X91373Y147298D02*
X90250Y148422D01*
G01X92315Y146453D02*
X92218D01*
X91373Y147298D01*
G01X90182Y167313D02*
X90250Y167245D01*
G01X83484Y141612D02*
Y142467D01*
G01Y141612D02*
X84330Y141622D01*
G01X83484Y141612D02*
X83116Y141243D01*
G01D02*
X83071Y140548D01*
G01X83116Y141243D02*
X82376D01*
G01X83116D02*
X82421Y140548D01*
X82376D01*
G01X83208Y155561D02*
X84053Y155556D01*
G01X83208Y155561D02*
Y154711D01*
G01Y155561D02*
X83168Y155601D01*
G01D02*
X82376D01*
G01X83168D02*
X83071Y156296D01*
G01X83168Y155601D02*
X82473Y156296D01*
X82376D01*
G01X81371Y163096D02*
X81338Y162251D01*
G01X81371Y163096D02*
X80493D01*
G01X81371D02*
X81681Y163406D01*
G01D02*
Y164170D01*
G01Y163406D02*
X82376Y163475D01*
G01X81681Y163406D02*
X82376Y164101D01*
Y164170D01*
G01X84330Y142467D02*
X84335D01*
Y142462D01*
X83484Y141612D01*
G01X84053Y154711D02*
X84056D01*
Y154713D01*
X83208Y155561D01*
G01X80493Y162251D02*
X80526D01*
X81371Y163096D01*
G01X105445Y215557D02*
X103965Y214077D01*
Y195591D01*
X104011Y195545D01*
Y192225D01*
X96122Y184337D01*
Y182122D01*
G01D02*
X95527Y181528D01*
G01X96122Y182122D02*
X96717Y181528D01*
G01X96122Y182122D02*
Y179528D01*
G01X117709Y212073D02*
X119907Y214271D01*
Y220034D01*
X118051Y221890D01*
X105684D01*
X103757Y219963D01*
Y216390D01*
X101112Y213745D01*
X97561D01*
X95920Y212104D01*
Y208895D01*
X102745Y202069D01*
Y195085D01*
X102791Y195040D01*
Y193328D01*
X97268Y187805D01*
X96960D01*
X92854Y183699D01*
Y182122D01*
G01D02*
X92259Y181528D01*
G01X92854Y182122D02*
X93449Y181528D01*
G01X92854Y182122D02*
Y179528D01*
G01X107640Y206774D02*
Y189928D01*
X99390Y181678D01*
Y179528D01*
G01X100726Y195379D02*
X101323Y194782D01*
G01X100726Y195379D02*
X100128Y194782D01*
G01X100726Y195379D02*
Y194184D01*
G01X94087Y207683D02*
X100726Y201044D01*
Y195379D01*
G01X96612Y197307D02*
Y198152D01*
G01Y197307D02*
X97457D01*
G01X96612D02*
X95473Y196168D01*
X94707D01*
X89587Y191048D01*
Y182122D01*
G01D02*
X88992Y181528D01*
G01X89587Y182122D02*
X90182Y181528D01*
G01X89587Y182122D02*
Y179528D01*
G01X97457Y198152D02*
X96612Y197307D01*
G01X90077Y174136D02*
X89045Y173520D01*
G01X90077Y174136D02*
X90076Y170972D01*
G01X90077Y174136D02*
X89587Y173646D01*
Y171654D01*
G01X90487Y174546D02*
X88992Y173654D01*
G01X90487Y174546D02*
X90077Y174136D01*
G01X105445Y215557D02*
Y217752D01*
G01Y215557D02*
X107640D01*
G01Y217752D02*
X105445Y215557D01*
G01X107640Y209878D02*
Y206774D01*
G01X106859Y209097D02*
X107640Y209878D01*
G01Y206774D02*
X106088Y208326D01*
G01X107640Y206774D02*
X109192Y208326D01*
G01X94087Y207683D02*
X91892D01*
G01X94087D02*
Y209878D01*
G01X91892D02*
X94087Y207683D01*
G01X121781Y119555D02*
X122379Y120153D01*
G01X121781Y119555D02*
X122379Y118958D01*
G01X121781Y119555D02*
X122976D01*
G01X112329Y125139D02*
X111484D01*
G01X112329D02*
Y125984D01*
G01Y125139D02*
X117913Y119555D01*
X121781D01*
G01X111484Y125984D02*
X112329Y125139D01*
G01X111859Y167380D02*
X112704D01*
G01X111859D02*
Y166535D01*
G01X112704D02*
X111859Y167380D01*
G01X117709Y212073D02*
Y209878D01*
G01Y212073D02*
X115514D01*
G01Y209878D02*
X117709Y212073D01*
G54D19*
G01X52362Y78689D02*
X50362Y80689D01*
G01X39389Y82246D02*
X39626Y82483D01*
G01X39389Y82246D02*
X38257D01*
G01D02*
X39626Y83615D01*
G01X38257Y82246D02*
X37126D01*
G01D02*
X39626Y81576D01*
G01X37126Y82246D02*
X39626Y84746D01*
G01X37126Y82246D02*
X36093D01*
G01X42126Y83689D02*
X40683Y82246D01*
X39389D01*
G01X52362Y79820D02*
X53231Y80689D01*
G01X52362Y79820D02*
X51493Y80689D01*
G01X52362Y79820D02*
Y78689D01*
G01D02*
X54362Y80689D01*
G01X52362Y78689D02*
Y77742D01*
G01X62598Y79820D02*
X63467Y80689D01*
G01X62598Y79820D02*
X61730Y80689D01*
G01X62598Y79820D02*
Y78689D01*
G01D02*
X64598Y80689D01*
G01X62598Y78689D02*
X60598Y80689D01*
G01X62598Y78689D02*
Y77843D01*
G01X72835Y79820D02*
X73703Y80689D01*
G01X72835Y79820D02*
X71966Y80689D01*
G01X72835Y79820D02*
Y78689D01*
G01D02*
X74835Y80689D01*
G01X72835Y78689D02*
X70835Y80689D01*
G01X72835Y78689D02*
Y77735D01*
G01Y83689D02*
Y79820D01*
G01X62598Y83689D02*
Y79820D01*
G01X52362Y83689D02*
Y79820D01*
G01X59135Y133133D02*
X62613Y136611D01*
X62691D01*
G01X66628Y140548D02*
X62691Y144485D01*
G01X53914Y143366D02*
X55033Y144485D01*
X62691D01*
G01X83071Y79820D02*
X83940Y80689D01*
G01X83071Y79820D02*
X82202Y80689D01*
G01X83071Y79820D02*
Y78689D01*
G01D02*
X85071Y80689D01*
G01X83071Y78689D02*
X81071Y80689D01*
G01X83071Y78689D02*
Y78011D01*
G01Y83689D02*
Y79820D01*
G01X90250Y152359D02*
X86313D01*
G01X90250D02*
X91309D01*
X93315Y154365D01*
G01X90250Y167245D02*
Y164670D01*
G01Y164170D02*
X90680D01*
X91180Y163670D01*
G01X85623Y168323D02*
X89276Y164670D01*
G01D02*
X89776Y164170D01*
X90250D01*
G01X89276Y164670D02*
X89750Y164170D01*
G01X89276Y164670D02*
X90250D01*
G01X91180Y163670D02*
X92410Y162440D01*
G01X91180Y163670D02*
X90750Y164170D01*
G01X91180Y163670D02*
X90250D01*
G01Y164670D02*
Y164170D01*
G01X86313D02*
X86238D01*
X84369Y162301D01*
M02*
