G04 ================== begin FILE IDENTIFICATION RECORD ==================*
G04 Layout Name:  E:/project/IRISking/ikemb-0001/project/hardware/LED/v3/LED.brd*
G04 Film Name:    silk_BOTTOM*
G04 File Format:  Gerber RS274X*
G04 File Origin:  16.0-p002*
G04 Origin Date:  Mon Nov 21 11:11:36 2011*
G04 *
G04 Layer:  PACKAGE GEOMETRY/SILKSCREEN_BOTTOM*
G04 Layer:  BOARD GEOMETRY/OUTLINE*
G04 Layer:  BOARD GEOMETRY/SILKSCREEN_BOTTOM*
G04 *
G04 Offset:    (0.000 0.000)*
G04 Mirror:    No*
G04 Mode:      Positive*
G04 Rotation:  0*
G04 FullContactRelief:  No*
G04 UndefLineWidth:     8.000*
G04 ================== end FILE IDENTIFICATION RECORD ====================*
%FSLAX55Y55*MOIN*%
%IR0*IPPOS*OFA0.00000B0.00000*MIA0B0*SFA1.00000B1.00000*%
%ADD10C,.008*%
G75*
%LPD*%
G75*
G36*
G01X27013Y60543D02*
G02I-1414J0D01*
G37*
G54D10*
G01X216535Y157480D02*
Y0D01*
X0D01*
Y157480D01*
X216535D01*
G01X22598Y63543D02*
X42598D01*
Y43543D01*
X22598D01*
Y63543D01*
G01X22046Y106968D02*
X47246D01*
Y96968D01*
X22046D01*
Y106968D01*
G01D02*
X23646D01*
Y96968D01*
X22046D01*
Y106968D01*
G01X40146D02*
X47146D01*
Y96968D01*
X45146D01*
X40146D01*
G01X26477Y90202D02*
X38877D01*
Y84602D01*
X26477D01*
Y90202D01*
G01X37677Y89902D02*
X38677D01*
Y84902D01*
X36177D01*
G01X29177D02*
X26677D01*
Y89902D01*
X27677D01*
G01X22046Y120354D02*
X47246D01*
Y110354D01*
X22046D01*
Y120354D01*
G01D02*
X23646D01*
Y110354D01*
X22046D01*
Y120354D01*
G01X40146D02*
X47146D01*
Y110354D01*
X45146D01*
X40146D01*
G01X192128Y38701D02*
X166928D01*
Y48701D01*
X192128D01*
Y38701D01*
G01D02*
X190528D01*
Y48701D01*
X192128D01*
Y38701D01*
G01X174028D02*
X167028D01*
Y48701D01*
X169028D01*
X174028D01*
G01X192128Y61929D02*
X166928D01*
Y71929D01*
X192128D01*
Y61929D01*
G01D02*
X190528D01*
Y71929D01*
X192128D01*
Y61929D01*
G01X174028D02*
X167028D01*
Y71929D01*
X169028D01*
X174028D01*
G01X192128Y85158D02*
X166928D01*
Y95158D01*
X192128D01*
Y85158D01*
G01D02*
X190528D01*
Y95158D01*
X192128D01*
Y85158D01*
G01X174028D02*
X167028D01*
Y95158D01*
X169028D01*
X174028D01*
G01X191734Y108386D02*
X166534D01*
Y118386D01*
X191734D01*
Y108386D01*
G01D02*
X190134D01*
Y118386D01*
X191734D01*
Y108386D01*
G01X173634D02*
X166634D01*
Y118386D01*
X168634D01*
X173634D01*
M02*
