G04 ================== begin FILE IDENTIFICATION RECORD ==================*
G04 Layout Name:  D:/project/IRISking/IKEMB001/project/hardware/CMOS/allegro/CMOS.brd*
G04 Film Name:    silkscreen_TOP*
G04 File Format:  Gerber RS274X*
G04 File Origin:  15.7-p007*
G04 Origin Date:  Wed Aug 08 12:17:08 2007*
G04 *
G04 Layer:  BOARD GEOMETRY/SILKSCREEN_TOP*
G04 Layer:  REF DES/SILKSCREEN_TOP*
G04 Layer:  PACKAGE GEOMETRY/SILKSCREEN_TOP*
G04 Layer:  BOARD GEOMETRY/OUTLINE*
G04 *
G04 Offset:    (0.0000 0.0000)*
G04 Mirror:    No*
G04 Mode:      Positive*
G04 Rotation:  0*
G04 FullContactRelief:  No*
G04 UndefLineWidth:     8.0000*
G04 ================== end FILE IDENTIFICATION RECORD ====================*
%FSLAX55Y55*MOIN*%
%IR0*IPPOS*OFA0.00000B0.00000*MIA0B0*SFA1.00000B1.00000*%
%ADD10C,.008*%
G75*
%LPD*%
G75*
G54D10*
G01X-9436Y-11033D02*
X119364D01*
Y8967D01*
X139364D01*
Y140967D01*
X10564D01*
Y120967D01*
X-9436D01*
Y-11033D01*
G01X19883Y-6380D02*
X20075Y-6690D01*
X20305Y-6897D01*
X20573Y-7000D01*
X20880Y-6897D01*
X21110Y-6690D01*
X21340Y-6380D01*
X21417Y-5967D01*
Y-3900D01*
G01X22907Y-6380D02*
X23137Y-6742D01*
X23443Y-6948D01*
X23788Y-7000D01*
X24095Y-6948D01*
X24402Y-6690D01*
X24593Y-6380D01*
X24632Y-6070D01*
X24555Y-5708D01*
X24287Y-5450D01*
X24018Y-5347D01*
X23673D01*
G01X24018D02*
X24248Y-5192D01*
X24440Y-4933D01*
X24517Y-4623D01*
X24440Y-4313D01*
X24248Y-4055D01*
X23903Y-3900D01*
X23558Y-3952D01*
X23213Y-4158D01*
G01X26007Y-6380D02*
X26237Y-6742D01*
X26543Y-6948D01*
X26888Y-7000D01*
X27195Y-6948D01*
X27502Y-6690D01*
X27693Y-6380D01*
X27732Y-6070D01*
X27655Y-5708D01*
X27387Y-5450D01*
X27118Y-5347D01*
X26773D01*
G01X27118D02*
X27348Y-5192D01*
X27540Y-4933D01*
X27617Y-4623D01*
X27540Y-4313D01*
X27348Y-4055D01*
X27003Y-3900D01*
X26658Y-3952D01*
X26313Y-4158D01*
G01X5250Y16500D02*
Y17895D01*
X4483Y19600D01*
G01X6017D02*
X5250Y17895D01*
G01X8350Y16500D02*
Y19600D01*
X7890Y18980D01*
G01Y16500D02*
X8810D01*
G01X-6968Y52819D02*
X19032D01*
Y22819D01*
X-6968D01*
Y52819D01*
G01D02*
X19032D01*
Y22819D01*
X-6968D01*
Y52819D01*
G01X-1850Y76547D02*
X-5350D01*
Y67547D01*
X-350D01*
G01X6650D02*
X11650D01*
Y76547D01*
X8150D01*
G01X3750Y70747D02*
Y73347D01*
X2350Y71947D01*
X3750Y70547D01*
Y70747D01*
G01X11650Y76547D02*
Y67547D01*
X-5350D01*
Y76547D01*
X11650D01*
G01X14883Y73900D02*
Y70800D01*
X16417D01*
G01X19517D02*
X17983D01*
Y73900D01*
X19517D01*
G01X18903Y72402D02*
X17983D01*
G01X21007Y70800D02*
Y73900D01*
X21773D01*
X22080Y73745D01*
X22310Y73538D01*
X22502Y73228D01*
X22655Y72867D01*
X22693Y72350D01*
X22655Y71833D01*
X22502Y71472D01*
X22310Y71162D01*
X22080Y70955D01*
X21773Y70800D01*
X21007D01*
G01X24107Y71420D02*
X24337Y71058D01*
X24643Y70852D01*
X24988Y70800D01*
X25295Y70852D01*
X25602Y71110D01*
X25793Y71420D01*
X25832Y71730D01*
X25755Y72092D01*
X25487Y72350D01*
X25218Y72453D01*
X24873D01*
G01X25218D02*
X25448Y72608D01*
X25640Y72867D01*
X25717Y73177D01*
X25640Y73487D01*
X25448Y73745D01*
X25103Y73900D01*
X24758Y73848D01*
X24413Y73642D01*
G01X-1850Y85996D02*
X-5350D01*
Y76996D01*
X-350D01*
G01X6650D02*
X11650D01*
Y85996D01*
X8150D01*
G01X3750Y80196D02*
Y82796D01*
X2350Y81396D01*
X3750Y79996D01*
Y80196D01*
G01X11650Y85996D02*
Y76996D01*
X-5350D01*
Y85996D01*
X11650D01*
G01X14783Y83600D02*
Y80500D01*
X16317D01*
G01X19417D02*
X17883D01*
Y83600D01*
X19417D01*
G01X18803Y82102D02*
X17883D01*
G01X20907Y80500D02*
Y83600D01*
X21673D01*
X21980Y83445D01*
X22210Y83238D01*
X22402Y82928D01*
X22555Y82567D01*
X22593Y82050D01*
X22555Y81533D01*
X22402Y81172D01*
X22210Y80862D01*
X21980Y80655D01*
X21673Y80500D01*
X20907D01*
G01X25310D02*
Y83600D01*
X23892Y81378D01*
X25808D01*
G01X-1850Y66705D02*
X-5350D01*
Y57705D01*
X-350D01*
G01X6650D02*
X11650D01*
Y66705D01*
X8150D01*
G01X3750Y60905D02*
Y63505D01*
X2350Y62105D01*
X3750Y60705D01*
Y60905D01*
G01X11650Y66705D02*
Y57705D01*
X-5350D01*
Y66705D01*
X11650D01*
G01X15083Y64000D02*
Y60900D01*
X16617D01*
G01X19717D02*
X18183D01*
Y64000D01*
X19717D01*
G01X19103Y62502D02*
X18183D01*
G01X21207Y60900D02*
Y64000D01*
X21973D01*
X22280Y63845D01*
X22510Y63638D01*
X22702Y63328D01*
X22855Y62967D01*
X22893Y62450D01*
X22855Y61933D01*
X22702Y61572D01*
X22510Y61262D01*
X22280Y61055D01*
X21973Y60900D01*
X21207D01*
G01X24422Y62192D02*
X24690Y62553D01*
X24920Y62760D01*
X25227Y62863D01*
X25495Y62760D01*
X25687Y62553D01*
X25840Y62243D01*
X25878Y61882D01*
X25840Y61572D01*
X25687Y61262D01*
X25457Y61003D01*
X25188Y60900D01*
X24882Y61003D01*
X24613Y61313D01*
X24460Y61778D01*
X24422Y62295D01*
X24498Y62967D01*
X24613Y63328D01*
X24805Y63690D01*
X25073Y63948D01*
X25342Y64000D01*
X25610Y63897D01*
X25802Y63638D01*
G01X3532Y52819D02*
X9032D01*
Y50319D01*
X3532D01*
Y52819D01*
G01X-1850Y105287D02*
X-5350D01*
Y96287D01*
X-350D01*
G01X6650D02*
X11650D01*
Y105287D01*
X8150D01*
G01X3750Y99487D02*
Y102087D01*
X2350Y100687D01*
X3750Y99287D01*
Y99487D01*
G01X11650Y105287D02*
Y96287D01*
X-5350D01*
Y105287D01*
X11650D01*
G01X14883Y102700D02*
Y99600D01*
X16417D01*
G01X19517D02*
X17983D01*
Y102700D01*
X19517D01*
G01X18903Y101202D02*
X17983D01*
G01X21007Y99600D02*
Y102700D01*
X21773D01*
X22080Y102545D01*
X22310Y102338D01*
X22502Y102028D01*
X22655Y101667D01*
X22693Y101150D01*
X22655Y100633D01*
X22502Y100272D01*
X22310Y99962D01*
X22080Y99755D01*
X21773Y99600D01*
X21007D01*
G01X24222Y102183D02*
X24452Y102493D01*
X24720Y102648D01*
X25027Y102700D01*
X25410Y102597D01*
X25678Y102338D01*
X25755Y102028D01*
X25717Y101718D01*
X25563Y101460D01*
X24797Y100943D01*
X24452Y100582D01*
X24222Y100065D01*
X24145Y99600D01*
X25755D01*
G01X-1850Y95839D02*
X-5350D01*
Y86839D01*
X-350D01*
G01X6650D02*
X11650D01*
Y95839D01*
X8150D01*
G01X3750Y90039D02*
Y92639D01*
X2350Y91239D01*
X3750Y89839D01*
Y90039D01*
G01X11650Y95839D02*
Y86839D01*
X-5350D01*
Y95839D01*
X11650D01*
G01X14783Y93600D02*
Y90500D01*
X16317D01*
G01X19417D02*
X17883D01*
Y93600D01*
X19417D01*
G01X18803Y92102D02*
X17883D01*
G01X20907Y90500D02*
Y93600D01*
X21673D01*
X21980Y93445D01*
X22210Y93238D01*
X22402Y92928D01*
X22555Y92567D01*
X22593Y92050D01*
X22555Y91533D01*
X22402Y91172D01*
X22210Y90862D01*
X21980Y90655D01*
X21673Y90500D01*
X20907D01*
G01X24007Y90965D02*
X24237Y90707D01*
X24505Y90552D01*
X24850Y90500D01*
X25195Y90603D01*
X25463Y90810D01*
X25655Y91172D01*
X25693Y91585D01*
X25617Y91998D01*
X25425Y92257D01*
X25157Y92463D01*
X24888Y92515D01*
X24620Y92463D01*
X24275Y92257D01*
X24390Y93600D01*
X25425D01*
G01X100700Y-11000D02*
X30700D01*
Y9000D01*
X100700D01*
Y-11000D01*
G01X105840Y19170D02*
X25840D01*
Y109170D01*
X105840D01*
Y19170D01*
G01X48124Y81886D02*
Y46453D01*
X83557D01*
Y81886D01*
X48124D01*
G01X90800Y121000D02*
X40800D01*
Y141000D01*
X90800D01*
Y121000D01*
G01X30583Y133420D02*
X30775Y133110D01*
X31005Y132903D01*
X31273Y132800D01*
X31580Y132903D01*
X31810Y133110D01*
X32040Y133420D01*
X32117Y133833D01*
Y135900D01*
G01X33607Y133420D02*
X33837Y133058D01*
X34143Y132852D01*
X34488Y132800D01*
X34795Y132852D01*
X35102Y133110D01*
X35293Y133420D01*
X35332Y133730D01*
X35255Y134092D01*
X34987Y134350D01*
X34718Y134453D01*
X34373D01*
G01X34718D02*
X34948Y134608D01*
X35140Y134867D01*
X35217Y135177D01*
X35140Y135487D01*
X34948Y135745D01*
X34603Y135900D01*
X34258Y135848D01*
X33913Y135642D01*
G01X36822Y135383D02*
X37052Y135693D01*
X37320Y135848D01*
X37627Y135900D01*
X38010Y135797D01*
X38278Y135538D01*
X38355Y135228D01*
X38317Y134918D01*
X38163Y134660D01*
X37397Y134143D01*
X37052Y133782D01*
X36822Y133265D01*
X36745Y132800D01*
X38355D01*
G01X78635Y85631D02*
X81735Y84673D01*
X78635Y83714D01*
G01X79720Y84059D02*
Y85286D01*
G01X76352Y84366D02*
X76507Y84213D01*
X76765Y84098D01*
X77127Y84021D01*
X77437Y84098D01*
X77643Y84251D01*
X77798Y84519D01*
Y85554D01*
X74698D01*
Y84289D01*
X74905Y84021D01*
X75215Y83868D01*
X75577Y83791D01*
X75938Y83868D01*
X76248Y84098D01*
X76352Y84366D01*
Y85554D01*
G01X73603Y83829D02*
X73758Y84059D01*
X73861Y84328D01*
Y84634D01*
X73706Y84980D01*
X73448Y85248D01*
X73138Y85439D01*
X72621Y85593D01*
X72156Y85631D01*
X71691Y85554D01*
X71381Y85439D01*
X71071Y85209D01*
X70865Y84941D01*
X70761Y84673D01*
Y84404D01*
X70865Y84136D01*
X71020Y83906D01*
X71226Y83714D01*
G01X66824Y85516D02*
X69924D01*
Y84749D01*
X69769Y84443D01*
X69563Y84213D01*
X69253Y84021D01*
X68891Y83868D01*
X68374Y83829D01*
X67858Y83868D01*
X67496Y84021D01*
X67186Y84213D01*
X66979Y84443D01*
X66824Y84749D01*
Y85516D01*
G01X62887Y83906D02*
Y85439D01*
X65987D01*
Y83906D01*
G01X64489Y84519D02*
Y85439D01*
G01X58950Y85401D02*
X62050D01*
Y83944D01*
G01X60552Y84481D02*
Y85401D01*
G01X56563Y84443D02*
Y83676D01*
X55633D01*
X55323Y83906D01*
X55117Y84174D01*
X55013Y84558D01*
X55117Y84941D01*
X55323Y85209D01*
X55633Y85439D01*
X55995Y85593D01*
X56408Y85670D01*
X56770D01*
X57080Y85593D01*
X57442Y85439D01*
X57752Y85209D01*
X57958Y84980D01*
X58113Y84673D01*
Y84404D01*
X58010Y84098D01*
X57803Y83868D01*
G01X51076Y85478D02*
X54176D01*
G01Y83868D02*
X51076D01*
G01X52626D02*
Y85478D01*
G01X85525Y50224D02*
X85577Y49956D01*
X85732Y49649D01*
X85990Y49458D01*
X86352Y49381D01*
X86713Y49458D01*
X87024Y49688D01*
X87179Y50033D01*
Y50416D01*
X87282Y50646D01*
X87540Y50838D01*
X87902Y50914D01*
X88264Y50799D01*
X88522Y50531D01*
X88625Y50224D01*
X88522Y49918D01*
X88264Y49649D01*
X87902Y49534D01*
X87540Y49611D01*
X87282Y49803D01*
X87179Y50033D01*
Y50416D01*
X87024Y50761D01*
X86713Y50991D01*
X86352Y51068D01*
X85990Y50991D01*
X85732Y50799D01*
X85577Y50493D01*
X85525Y50224D01*
G01Y77784D02*
X88625D01*
X88005Y78244D01*
G01X85525D02*
Y77324D01*
G01X88109Y74575D02*
X88418Y74345D01*
X88574Y74076D01*
X88625Y73770D01*
X88522Y73386D01*
X88264Y73118D01*
X87954Y73041D01*
X87643Y73080D01*
X87385Y73233D01*
X86869Y74000D01*
X86507Y74345D01*
X85990Y74575D01*
X85525Y74652D01*
Y73041D01*
G01X86145Y70753D02*
X85783Y70523D01*
X85577Y70216D01*
X85525Y69871D01*
X85577Y69564D01*
X85835Y69258D01*
X86145Y69066D01*
X86455Y69028D01*
X86817Y69104D01*
X87075Y69373D01*
X87179Y69641D01*
Y69986D01*
G01Y69641D02*
X87334Y69411D01*
X87592Y69219D01*
X87902Y69143D01*
X88212Y69219D01*
X88470Y69411D01*
X88625Y69756D01*
X88574Y70101D01*
X88367Y70446D01*
G01X85525Y65512D02*
X88625D01*
X86404Y66931D01*
Y65014D01*
G01X85990Y62878D02*
X85732Y62648D01*
X85577Y62380D01*
X85525Y62035D01*
X85629Y61690D01*
X85835Y61422D01*
X86197Y61230D01*
X86610Y61192D01*
X87024Y61268D01*
X87282Y61460D01*
X87488Y61728D01*
X87540Y61997D01*
X87488Y62265D01*
X87282Y62610D01*
X88625Y62495D01*
Y61460D01*
G01X86817Y58826D02*
X87179Y58558D01*
X87385Y58328D01*
X87488Y58021D01*
X87385Y57753D01*
X87179Y57561D01*
X86869Y57408D01*
X86507Y57370D01*
X86197Y57408D01*
X85887Y57561D01*
X85629Y57791D01*
X85525Y58060D01*
X85629Y58366D01*
X85938Y58635D01*
X86404Y58788D01*
X86920Y58826D01*
X87592Y58750D01*
X87954Y58635D01*
X88315Y58443D01*
X88574Y58175D01*
X88625Y57906D01*
X88522Y57638D01*
X88264Y57446D01*
G01X85525Y54238D02*
X86197Y54161D01*
X86765Y54046D01*
X87282Y53893D01*
X87850Y53701D01*
X88625Y53395D01*
Y54928D01*
G01X92233Y84968D02*
Y82747D01*
X92386Y82282D01*
X92693Y81972D01*
X93076Y81868D01*
X93459Y81972D01*
X93766Y82282D01*
X93919Y82747D01*
Y84968D01*
G01X96176Y81868D02*
Y84968D01*
X95716Y84349D01*
G01Y81868D02*
X96636D01*
G01X114157Y17563D02*
Y112052D01*
X137779D01*
Y17563D01*
X114157D01*
M02*
