G04 ================== begin FILE IDENTIFICATION RECORD ==================*
G04 Layout Name:  D:/project/IRISking/IKEMB001/project/hardware/CMOS/allegro/CMOS.brd*
G04 Film Name:    solder_TOP*
G04 File Format:  Gerber RS274X*
G04 File Origin:  15.7-p007*
G04 Origin Date:  Wed Aug 08 12:17:08 2007*
G04 *
G04 Layer:  BOARD GEOMETRY/OUTLINE*
G04 Layer:  VIA CLASS/SOLDERMASK_TOP*
G04 Layer:  PIN/SOLDERMASK_TOP*
G04 Layer:  PACKAGE GEOMETRY/SOLDERMASK_TOP*
G04 *
G04 Offset:    (0.0000 0.0000)*
G04 Mirror:    No*
G04 Mode:      Positive*
G04 Rotation:  0*
G04 FullContactRelief:  No*
G04 UndefLineWidth:     8.0000*
G04 ================== end FILE IDENTIFICATION RECORD ====================*
%FSLAX55Y55*MOIN*%
%IR0*IPPOS*OFA0.00000B0.00000*MIA0B0*SFA1.00000B1.00000*%
%ADD10C,.031*%
%ADD15C,.07*%
%ADD17C,.028*%
%ADD18C,.058*%
%ADD11C,.098*%
%ADD14R,.07X.07*%
%ADD12R,.08X.06*%
%ADD16C,.22*%
%ADD13R,.066X.056*%
%ADD19R,.058X.058*%
%ADD20C,.008*%
G75*
%LPD*%
G75*
G54D10*
X14032Y19215D03*
X8940Y29200D03*
Y40400D03*
X18792Y48819D03*
X-1968Y23059D03*
X5460Y29200D03*
X-6110Y60200D03*
X-6060Y66500D03*
X13630Y72900D03*
X11565Y76307D03*
X13630Y79500D03*
X700Y56360D03*
X3610Y56711D03*
X-6110Y72047D03*
Y81496D03*
X15695Y91339D03*
X12410Y100787D03*
X-6110Y99339D03*
X-1350Y105047D03*
X31100Y12540D03*
X49500D03*
X37300D03*
X43400D03*
X46960Y43796D03*
X50146Y47235D03*
X25100Y30160D03*
X33440Y49300D03*
X44700Y46040D03*
X49301Y69058D03*
X46960Y61405D03*
X23090Y60200D03*
X48621Y55550D03*
X32130Y61100D03*
X33540Y72900D03*
X33440Y55200D03*
Y67000D03*
X33540Y79000D03*
X45167Y83106D03*
X38742Y83792D03*
X55998Y43796D03*
X75974Y39600D03*
X59630Y47630D03*
X79599Y46410D03*
X58340Y40162D03*
X71860Y47630D03*
X63649Y57615D03*
X65437Y80709D03*
X59746Y67000D03*
X64382Y70176D03*
X71045Y65367D03*
X57966Y72044D03*
X73526Y68353D03*
X69777Y79918D03*
X73714Y52359D03*
Y56296D03*
X62436Y60260D03*
X57966Y52359D03*
X59942Y83195D03*
X91374Y19091D03*
X106516Y44429D03*
X107056Y50965D03*
X108581Y41161D03*
X91122Y44429D03*
X88724Y50965D03*
X92484Y32091D03*
X107874Y24725D03*
X87730Y60024D03*
X106346Y62636D03*
Y72439D03*
X109898Y53750D03*
X106346Y65903D03*
X82380Y57959D03*
X85274Y54327D03*
X90127Y75064D03*
X97947Y53840D03*
X90365Y79194D03*
X82575Y67916D03*
X108685Y79134D03*
X83918Y79975D03*
X105283Y56190D03*
X89979Y95627D03*
X108451Y85913D03*
X106237Y95716D03*
Y92448D03*
X90170Y89181D03*
Y85913D03*
X94100Y98376D03*
X85983Y82502D03*
X90113Y82088D03*
X96444Y83068D03*
X82530Y82969D03*
X87800Y117460D03*
X94100D03*
X112634Y19091D03*
X114501Y76028D03*
X114926Y102311D03*
G54D20*
G01X-9436Y-11033D02*
X119364D01*
Y8967D01*
X139364D01*
Y140967D01*
X10564D01*
Y120967D01*
X-9436D01*
Y-11033D01*
G54D11*
X0Y0D03*
X129921Y129921D03*
G54D12*
X-1968Y48819D03*
Y26819D03*
X14032D03*
Y48819D03*
G54D13*
X-1350Y72047D03*
X7650D03*
X-1350Y81496D03*
X7650D03*
X-1350Y62205D03*
X7650D03*
X-1350Y100787D03*
X7650D03*
X-1350Y91339D03*
X7650D03*
G54D14*
X40700Y-1000D03*
X50800Y131000D03*
G54D15*
X50700Y-1000D03*
X60700D03*
X70700D03*
X80700D03*
X60800Y131000D03*
X70800D03*
X80800D03*
X90700Y-1000D03*
G54D16*
X65840Y24800D03*
Y103540D03*
G54D17*
X79620Y50390D03*
X75683D03*
X71746D03*
X67809D03*
X63872D03*
X59935D03*
X55998D03*
X52061D03*
X79620Y77949D03*
Y74012D03*
Y70075D03*
Y66138D03*
Y62201D03*
Y58264D03*
Y54327D03*
X75683Y77949D03*
Y74012D03*
Y70075D03*
Y66138D03*
Y62201D03*
Y58264D03*
Y54327D03*
X71746Y77949D03*
Y74012D03*
Y70075D03*
Y58264D03*
Y54327D03*
X67809Y77949D03*
Y74012D03*
Y54327D03*
X63872Y77949D03*
Y74012D03*
Y54327D03*
X59935Y77949D03*
Y74012D03*
Y70075D03*
Y58264D03*
Y54327D03*
X55998Y77949D03*
Y74012D03*
Y70075D03*
Y66138D03*
Y62201D03*
Y58264D03*
Y54327D03*
X52061Y77949D03*
Y74012D03*
Y70075D03*
Y66138D03*
Y62201D03*
Y58264D03*
Y54327D03*
G54D18*
X122031Y25437D03*
X129905Y33311D03*
X122031D03*
X129905Y41185D03*
X122031D03*
X129905Y49059D03*
X122031D03*
X129905Y56934D03*
X122031D03*
X129905Y64808D03*
X122031D03*
X129905Y72682D03*
X122031D03*
X129905Y80556D03*
X122031D03*
X129905Y88430D03*
X122031D03*
X129905Y96304D03*
X122031D03*
X129905Y104178D03*
X122031D03*
G54D19*
X129905Y25437D03*
M02*
