G04 ================== begin FILE IDENTIFICATION RECORD ==================*
G04 Layout Name:  D:/project/IRISking/ikemb-0001/project/hardware/POWER/POWER12-v7.brd*
G04 Film Name:    Bottom*
G04 File Format:  Gerber RS274X*
G04 File Origin:  15.7-p007*
G04 Origin Date:  Thu Oct 29 10:51:04 2009*
G04 *
G04 Layer:  VIA CLASS/BOTTOM*
G04 Layer:  PIN/BOTTOM*
G04 Layer:  ETCH/BOTTOM*
G04 Layer:  BOARD GEOMETRY/OUTLINE*
G04 *
G04 Offset:    (0.000 0.000)*
G04 Mirror:    No*
G04 Mode:      Positive*
G04 Rotation:  0*
G04 FullContactRelief:  No*
G04 UndefLineWidth:     8.000*
G04 ================== end FILE IDENTIFICATION RECORD ====================*
%FSLAX55Y55*MOIN*%
%IR0*IPPOS*OFA0.00000B0.00000*MIA0B0*SFA1.00000B1.00000*%
%ADD15R,.075X.2*%
%ADD27R,.2X.075*%
%ADD19C,.2*%
%ADD31C,.12*%
%ADD26R,.25X.3*%
%ADD14R,.03X.04*%
%ADD13R,.04X.03*%
%ADD10R,.15X.17*%
%ADD17R,.17X.15*%
%ADD25R,.057X.03*%
%ADD23R,.062X.062*%
%ADD22R,.062X.062*%
%ADD18C,.03*%
%ADD12C,.04*%
%ADD29C,.06*%
%ADD16C,.062*%
%ADD11C,.08*%
%ADD24C,.09*%
%ADD28R,.06X.06*%
%ADD20C,.04724*%
%ADD21C,.05984*%
%ADD30C,.017988*%
%ADD32C,.1*%
%ADD33C,.15*%
%ADD34C,.012*%
%ADD35C,.015*%
%ADD36C,.008*%
%ADD38C,.136004*%
%ADD37C,.076004*%
%ADD41C,.063244*%
%ADD39C,.078004*%
%ADD40R,.078004X.078004*%
%ADD42C,.075844*%
G75*
%LPD*%
G75*
G36*
G01X-16000Y-162000D02*
Y-12000D01*
X-15748D01*
Y22000D01*
X-88000D01*
Y142000D01*
X-15748D01*
Y369844D01*
X175234D01*
X180759Y364319D01*
Y273000D01*
X141000D01*
X140300Y272300D01*
X128700D01*
Y260700D01*
X122000Y254000D01*
X71000D01*
X69000Y252000D01*
Y216000D01*
X34000D01*
X29000Y211000D01*
X14000D01*
Y38000D01*
X38000Y14000D01*
X96000D01*
X101000Y9000D01*
Y-3000D01*
X105000Y-7000D01*
X134100D01*
Y-7900D01*
X141900D01*
Y-1100D01*
X155000Y12000D01*
Y43000D01*
X168000Y56000D01*
X180780D01*
Y-15748D01*
X76000D01*
Y-16000D01*
X74000D01*
Y-162000D01*
X-16000D01*
G37*
G36*
G01X105332Y-6200D02*
X101800Y-2668D01*
Y9332D01*
X96332Y14800D01*
X45048D01*
X45047D01*
G03X45000Y14800I-48J-5800D01*
G01X38332D01*
X36586Y16546D01*
X36580Y16554D01*
G03X36471Y16680I-4465J-3702D01*
G01X36226Y16960D01*
G03X35970Y17233I-4358J-3828D01*
G01X14800Y38402D01*
Y210200D01*
X29332D01*
X34332Y215200D01*
X69800D01*
Y251668D01*
X71332Y253200D01*
X122332D01*
X128014Y258882D01*
G02X128700Y258598I284J-284D01*
G01Y255700D01*
X147300D01*
Y260962D01*
G02X147754Y261360I402J0D01*
G01X156382Y260240D01*
G03X159747Y261064I618J4760D01*
G01X159799Y261100D01*
X160900D01*
Y262201D01*
X160936Y262253D01*
G03Y267747I-3936J2747D01*
G01X160900Y267799D01*
Y268900D01*
X159799D01*
X159747Y268936D01*
G03X157618Y269760I-2747J-3936D01*
G01X147300Y271100D01*
Y272200D01*
X180760D01*
Y56800D01*
X167668D01*
X154200Y43332D01*
Y12332D01*
X141768Y-100D01*
X140800D01*
Y3840D01*
X143980Y7020D01*
G03X140020Y10980I-1980J1980D01*
G01X135500Y6460D01*
X135160Y6800D01*
X125300D01*
Y13300D01*
X108700D01*
Y-5300D01*
X125300D01*
Y1200D01*
X132840D01*
X134100Y-60D01*
Y-6200D01*
X105332D01*
G37*
%LPC*%
G75*
G36*
G01X43370Y348693D02*
X35370D01*
X30870Y353193D01*
Y360193D01*
X35870Y365193D01*
X42870D01*
X47870Y360193D01*
Y353193D01*
X43370Y348693D01*
G37*
G36*
G01X172717Y344193D02*
X162716D01*
X155216Y351693D01*
Y361693D01*
X162716Y369193D01*
X172717D01*
X180217Y361693D01*
Y351693D01*
X172717Y344193D01*
G37*
G36*
G01X31800Y302950D02*
X10200D01*
Y304700D01*
X9340D01*
X7020Y307020D01*
G02X9698Y311712I1980J1980D01*
G03X10196Y312050I100J389D01*
G01X31800D01*
Y310300D01*
X32500D01*
G02Y304700I0J-2800D01*
G01X31800D01*
Y302950D01*
G37*
G36*
G01X49287Y299449D02*
G02X45890Y296048I-682J-2716D01*
G01X45851Y296200D01*
X41700D01*
Y307800D01*
X45313D01*
X45360Y307934D01*
G02X48556Y304256I2640J-934D01*
G01X48496Y304244D01*
X46953Y302700D01*
X46300D01*
Y301300D01*
X47395D01*
X49233Y299462D01*
X49287Y299449D01*
G37*
G36*
G01X159747Y286064D02*
G02X156011Y285303I-2747J3936D01*
G01X147785Y287035D01*
G03X147300Y286641I-83J-393D01*
G01Y285700D01*
X128700D01*
Y302300D01*
X147300D01*
Y296948D01*
X157989Y294697D01*
G02X159747Y293936I-989J-4697D01*
G01X159799Y293900D01*
X160900D01*
Y292799D01*
X160936Y292747D01*
G02Y287253I-3936J-2747D01*
G01X160900Y287201D01*
Y286100D01*
X159799D01*
X159747Y286064D01*
G37*
G36*
G01X47452Y288334D02*
G02Y283666I1548J-2334D01*
G01X47402Y283700D01*
X41200D01*
Y288300D01*
X47402D01*
X47452Y288334D01*
G37*
G36*
G01Y278334D02*
G02Y273666I1548J-2334D01*
G01X47402Y273700D01*
X44047D01*
X43047Y274700D01*
X41200D01*
Y279300D01*
X46800D01*
Y278300D01*
X47402D01*
X47452Y278334D01*
G37*
G36*
G01X88300Y256700D02*
X71700D01*
Y262200D01*
X66200D01*
Y297200D01*
X58668D01*
X57200Y298668D01*
Y300800D01*
X55100D01*
Y308400D01*
X57200D01*
Y319800D01*
X83800D01*
Y307332D01*
X90800Y300332D01*
Y262200D01*
X88300D01*
Y256700D01*
G37*
G36*
G01X9300Y112700D02*
X-9300D01*
Y129300D01*
X-2800D01*
Y144100D01*
X-3900D01*
Y151900D01*
X3900D01*
Y144100D01*
X2800D01*
Y129300D01*
X9300D01*
Y112700D01*
G37*
G36*
G01X-52700Y91700D02*
X-69300D01*
Y110300D01*
X-62074D01*
X-50761Y121613D01*
X-50752Y121679D01*
G02X-45321Y116248I4752J-679D01*
G01X-45387Y116239D01*
X-52700Y108926D01*
Y91700D01*
G37*
G36*
G01X2800Y75000D02*
G02X-2800I-2800J0D01*
G01Y82700D01*
X-9300D01*
Y99300D01*
X9300D01*
Y82700D01*
X2800D01*
Y75000D01*
G37*
G36*
G01X-70200Y41000D02*
G02X-81800I-5800J0D01*
G01Y53700D01*
X-84300D01*
Y72300D01*
X-67700D01*
Y53700D01*
X-70200D01*
Y41000D01*
G37*
G36*
G01X171717Y-8000D02*
X163716D01*
X159216Y-3500D01*
Y3500D01*
X164216Y8500D01*
X171217D01*
X176217Y3500D01*
Y-3500D01*
X171717Y-8000D01*
G37*
G36*
G01X5000Y-12500D02*
X-5000D01*
X-12500Y-5000D01*
Y5000D01*
X-5000Y12500D01*
X5000D01*
X12500Y5000D01*
Y-5000D01*
X5000Y-12500D01*
G37*
G36*
G01X65900Y-31900D02*
X58100D01*
Y-27353D01*
X58047Y-27300D01*
X54300D01*
Y-27800D01*
X49700D01*
Y-22200D01*
X54300D01*
Y-22700D01*
X59953D01*
X61353Y-24100D01*
X65900D01*
Y-31900D01*
G37*
G36*
G01X16800Y-98300D02*
X5200D01*
Y-95453D01*
X3374Y-93626D01*
G02X6626Y-90374I1627J1626D01*
G01X9953Y-93700D01*
X11700D01*
Y-91000D01*
G02X16300I2300J0D01*
G01Y-93700D01*
X16800D01*
Y-98300D01*
G37*
G36*
G01X44300Y-98800D02*
X39700D01*
Y-88000D01*
G02X44300I2300J0D01*
G01Y-98800D01*
G37*
G36*
G01X63800Y-127000D02*
G02X58200I-2800J0D01*
G01Y-123300D01*
X51700D01*
Y-117800D01*
X46160D01*
X44980Y-118980D01*
G02X41452Y-119334I-1980J1980D01*
G01X41402Y-119300D01*
X35047D01*
X25700Y-109953D01*
Y-93524D01*
G03X25014Y-93239I-402J0D01*
G01X23300Y-94953D01*
Y-98800D01*
X18700D01*
Y-93047D01*
X24047Y-87700D01*
X27000Y-87700D01*
G02X29128Y-89127I0J-2300D01*
G03X29872I372J153D01*
G02X33626Y-88374I2128J-873D01*
G01X37300Y-92047D01*
Y-98800D01*
X32700D01*
Y-98300D01*
X30300D01*
Y-108047D01*
X36953Y-114700D01*
X41340D01*
X43840Y-112200D01*
X51700D01*
Y-106700D01*
X58200D01*
Y-100300D01*
X51700D01*
Y-83700D01*
X70300D01*
Y-100300D01*
X63800D01*
Y-106700D01*
X70300D01*
Y-123300D01*
X63800D01*
Y-127000D01*
G37*
G36*
G01X300Y-148500D02*
G02X-5300I-2800J0D01*
G01Y-142800D01*
X-7050D01*
Y-121200D01*
X2050D01*
Y-142800D01*
X300D01*
Y-148500D01*
G37*
G36*
G01X154953Y201700D02*
X145200D01*
Y206300D01*
X153047D01*
X154770Y208023D01*
X154757Y208121D01*
G02X154742Y209753I6743J880D01*
G03X154342Y210200I-399J45D01*
G01X143700D01*
Y217800D01*
X158074D01*
X160199Y215675D01*
X160302Y215694D01*
G02X157222Y203714I1198J-6694D01*
G01X157081Y203828D01*
X154953Y201700D01*
G37*
G36*
G01X158727Y195209D02*
G02X155291Y191773I2773J-6209D01*
G01X155347Y191900D01*
X151547Y195700D01*
X145200D01*
Y200300D01*
X153453D01*
X158600Y195153D01*
X158727Y195209D01*
G37*
G36*
G01X89300Y176700D02*
X70700D01*
Y193300D01*
X71527D01*
G03X71811Y193986I0J402D01*
G01X66200Y199598D01*
Y204400D01*
G02X77800Y204484I5800J0D01*
G01X77801Y204402D01*
X85800Y196402D01*
Y193300D01*
X89300D01*
Y176700D01*
G37*
G36*
G01X141300Y175700D02*
X122700D01*
Y192300D01*
X127400D01*
Y195490D01*
X127393Y195515D01*
G02X137101Y201101I5607J1485D01*
G01X139000Y199203D01*
Y192300D01*
X141300D01*
Y175700D01*
G37*
G36*
G01X115200Y147100D02*
X103600D01*
Y151867D01*
X103560Y151920D01*
G02X107462Y152280I1840J1380D01*
G03X107822Y151700I360J-178D01*
G01X108287D01*
G03X108632Y152310I0J402D01*
G02X112900Y153478I1969J1190D01*
G01X112899Y153393D01*
X113950Y152342D01*
Y151700D01*
X115200D01*
Y147100D01*
G37*
G36*
G01X42744Y130444D02*
G02X39444Y133744I-2744J556D01*
G01X39504Y133756D01*
X41700Y135953D01*
Y153000D01*
G02X46300I2300J0D01*
G01Y149892D01*
X47014Y149179D01*
G03X47700Y149463I284J284D01*
G01Y153000D01*
G02X51725Y154522I2300J0D01*
G03X52394Y154626I301J266D01*
G02X56698Y153021I2106J-926D01*
G03X57082Y152500I384J-119D01*
G01X58018D01*
G03X58402Y153021I0J402D01*
G02X62900Y153678I2198J679D01*
G01X62899Y153593D01*
X63850Y152642D01*
Y152500D01*
X65100D01*
Y147900D01*
X53500D01*
Y150808D01*
X52950Y151358D01*
Y151999D01*
X52890Y152058D01*
G02X52662Y152317I1610J1643D01*
G01X52602Y152397D01*
X52300D01*
Y135953D01*
X54496Y133756D01*
X54556Y133744D01*
G02X51256Y130444I-556J-2744D01*
G01X51244Y130504D01*
X47700Y134047D01*
Y144108D01*
X46986Y144821D01*
G03X46300Y144537I-284J-284D01*
G01Y134047D01*
X42756Y130504D01*
X42744Y130444D01*
G37*
G36*
G01X113194Y115306D02*
G02X110987Y107843I-1351J-3659D01*
G01X110965Y107847D01*
X109878D01*
X98526Y119200D01*
X98426D01*
X91426Y126200D01*
X90000D01*
G02Y133800I0J3800D01*
G01X90547D01*
X91700Y134953D01*
Y151800D01*
X92418D01*
G03X92802Y152321I0J402D01*
G02X97128Y153873I2198J679D01*
G03X97872I372J153D01*
G02X102109Y152082I2128J-873D01*
G01X102092Y152043D01*
Y151800D01*
X102300D01*
Y137953D01*
X103866Y136387D01*
X103962Y136398D01*
G02X102726Y131281I311J-2783D01*
G01X102675Y131314D01*
X102433D01*
X97700Y136047D01*
Y143108D01*
X96986Y143821D01*
G03X96300Y143537I-284J-284D01*
G01Y133047D01*
X95814Y132561D01*
X101574Y126800D01*
X101674D01*
X113152Y115322D01*
X113194Y115306D01*
G37*
G54D38*
X147000Y331500D03*
Y314500D03*
X161500Y229000D03*
G54D37*
X49300Y333200D03*
X5900Y333000D03*
G54D41*
X103480Y38830D03*
X57020D03*
G54D39*
X0Y158000D03*
G54D40*
X42000Y-4000D03*
X170000Y96000D03*
G54D42*
X99940Y25170D03*
X60560D03*
%LPD*%
G75*
G36*
G01X30300Y-93700D02*
Y-93200D01*
X26024D01*
G02X25739Y-92514I0J402D01*
G01X25953Y-92300D01*
X27000Y-92300D01*
G03X29128Y-90873I0J2300D01*
G02X29872I372J-153D01*
G03X30374Y-91626I2128J873D01*
G01X31761Y-93014D01*
G02X31476Y-93700I-284J-284D01*
G01X30300D01*
G37*
G36*
G01X67000Y263000D02*
Y290966D01*
Y290968D01*
G03Y291032I-2800J32D01*
G01Y291034D01*
Y298000D01*
X59000D01*
X58000Y299000D01*
Y319000D01*
X83000D01*
Y307000D01*
X90000Y300000D01*
Y263000D01*
X67000D01*
G37*
G54D10*
X-76000Y63000D03*
X-46000D03*
X-61000Y101000D03*
X87000Y4000D03*
X-31000Y101000D03*
X80000Y266000D03*
Y290000D03*
X117000Y4000D03*
X110000Y266000D03*
Y290000D03*
G54D20*
X57020Y38830D03*
X103480D03*
G54D11*
G01X157000Y290000D02*
X138000Y294000D01*
G01X157000Y265000D02*
X141600Y267000D01*
X138600Y264000D01*
X138000D01*
X-76000Y41000D03*
X-46000Y121000D03*
X4000Y41000D03*
X-26000Y121000D03*
G54D30*
X142000Y9000D03*
G54D21*
X80250Y38830D03*
X60560Y25170D03*
X99940D03*
G54D12*
G01X-2500Y-132000D02*
Y-148500D01*
G01X22500Y-132000D02*
Y-148500D01*
G01X61000Y-115000D02*
Y-92000D01*
G01Y-115000D02*
X45000D01*
X43000Y-117000D01*
G01X61000Y-115000D02*
Y-127000D01*
G01Y-54000D02*
X68000Y-47000D01*
G01X61000Y-62000D02*
Y-54000D01*
G01X0Y91000D02*
Y75000D01*
G01Y121000D02*
Y148000D01*
G01X21000Y307500D02*
X10500D01*
X9000Y309000D01*
G01X21000Y307500D02*
X32500D01*
G01X117000Y4000D02*
X134000D01*
X138000Y0D01*
G01D02*
Y5000D01*
X142000Y9000D01*
G01X138000Y-4000D02*
Y0D01*
X68000Y-47000D03*
X-2500Y-148500D03*
X22500D03*
X43000Y-117000D03*
X61000Y-127000D03*
X9000Y-55000D03*
X16000D03*
X23000D03*
X30000D03*
X38000D03*
Y-46000D03*
X30000D03*
X23000D03*
X16000D03*
X9000D03*
Y-38000D03*
X16000D03*
X23000D03*
X30000D03*
X38000D03*
X0Y75000D03*
X38000Y-30000D03*
X30000D03*
X23000D03*
X16000D03*
X9000D03*
X29000Y158000D03*
X63000Y193000D03*
X40000Y131000D03*
X54000D03*
X43000Y166000D03*
X74000Y244000D03*
X65000Y315000D03*
Y310000D03*
Y300000D03*
Y305000D03*
X9000Y309000D03*
X32500Y307500D03*
X49000Y276000D03*
Y286000D03*
X48000Y307000D03*
X48605Y296733D03*
X64200Y291000D03*
X173000Y38000D03*
X120700Y187000D03*
X136000Y168000D03*
X90000Y130000D03*
X94000Y166000D03*
X104273Y133615D03*
X96000Y295000D03*
Y288000D03*
Y281000D03*
Y274000D03*
X110000Y278000D03*
X96000Y302000D03*
X101000Y307000D03*
X108000D03*
X115000D03*
Y313000D03*
X108000D03*
X101000D03*
G54D22*
X62000Y-28000D03*
X0Y148000D03*
G54D13*
X8000Y-96000D03*
X14000D03*
X56300Y150200D03*
X62300D03*
X38000Y277000D03*
X44000D03*
X38000Y286000D03*
X44000D03*
X148000Y198000D03*
X142000D03*
X112400Y149400D03*
X106400D03*
X148000Y204000D03*
X142000D03*
G54D31*
X161500Y169000D03*
Y189000D03*
Y209000D03*
Y229000D03*
X169000Y314500D03*
X147000D03*
X169000Y331500D03*
X147000D03*
G54D32*
G01X-76000Y63000D02*
Y41000D01*
G01X-18000Y63000D02*
X-46000D01*
G01X52000Y-4000D02*
X53000Y-3000D01*
G01D02*
Y1000D01*
G01D02*
X45000Y9000D01*
G01D02*
X35929D01*
G01D02*
X32237Y12692D01*
G01D02*
X32114Y12852D01*
G01X31869Y13131D02*
X4000Y41000D01*
G01X32114Y12852D02*
X31869Y13131D01*
G01X4000Y41000D02*
X-18000Y63000D01*
G01X72000Y204400D02*
Y202000D01*
X80000Y194000D01*
Y185000D01*
G01X132000Y184000D02*
X133200Y185200D01*
Y196800D01*
X133000Y197000D01*
G54D23*
X42000Y-4000D03*
X138000D03*
X170000Y96000D03*
X157000Y290000D03*
Y265000D03*
G54D14*
X21000Y-96000D03*
Y-102000D03*
X28000D03*
Y-96000D03*
X35000D03*
Y-102000D03*
X42000Y-96000D03*
Y-102000D03*
X52000Y-31000D03*
Y-25000D03*
X44000Y150000D03*
Y144000D03*
X50000Y150000D03*
Y144000D03*
X44000Y299000D03*
Y305000D03*
X100000Y149000D03*
Y143000D03*
X94000Y149000D03*
Y143000D03*
G54D33*
G01X80000Y266000D02*
Y290000D01*
G54D24*
X54430Y171672D03*
X39370Y356693D03*
X167716Y0D03*
X105590Y171832D03*
G54D15*
X22500Y-132000D03*
X-2500D03*
G54D34*
G01X44000Y153000D02*
Y150000D01*
G01X50000Y153000D02*
Y150000D01*
G01X100000Y153000D02*
Y149000D01*
G01X94000D02*
X95000Y150000D01*
Y153000D01*
G54D16*
X62000Y-38000D03*
X39000Y78000D03*
X52000Y-4000D03*
X0Y158000D03*
X39000Y105000D03*
X72000Y204400D03*
X23000Y223000D03*
X0D03*
X91000Y78000D03*
X148000Y-4000D03*
X91000Y104000D03*
X133000Y197000D03*
X111843Y111648D03*
X160000Y96000D03*
X132000Y224000D03*
X167000Y290000D03*
Y265000D03*
G54D25*
X74000Y214500D03*
G54D35*
G01X50000Y144000D02*
X44000Y150000D01*
G01X54500Y153700D02*
Y152000D01*
X56300Y150200D01*
G01X62300D02*
Y152000D01*
X60600Y153700D01*
G01X100000Y143000D02*
X94000Y149000D01*
G01X105400Y153300D02*
Y150400D01*
X106400Y149400D01*
G01X112400D02*
Y151700D01*
X110600Y153500D01*
G54D17*
X61000Y-92000D03*
Y-62000D03*
Y-115000D03*
Y-145000D03*
X0Y121000D03*
Y91000D03*
X80000Y155000D03*
Y185000D03*
X132000Y154000D03*
Y184000D03*
X138000Y264000D03*
Y294000D03*
G54D26*
X92000Y231500D03*
X56000D03*
G54D36*
G01X-19685Y374016D02*
Y145000D01*
X-90000D01*
Y20000D01*
X-19685D01*
Y-164685D01*
X-20000Y-165000D01*
X76000D01*
G01X-19685Y374016D02*
X185039D01*
Y-19685D01*
X77685D01*
Y-164685D01*
X78000Y-165000D01*
X76000D01*
G54D18*
G01X14000Y-91000D02*
Y-96000D01*
G01X8000D02*
Y-95000D01*
X5000Y-92000D01*
G01X42000Y-96000D02*
Y-88000D01*
G01X35000Y-96000D02*
X28000D01*
G01X35000D02*
Y-93000D01*
X32000Y-90000D01*
G01X27000D02*
X25000Y-90000D01*
X21000Y-94000D01*
Y-96000D01*
G01X43000Y-117000D02*
X36000D01*
X28000Y-109000D01*
Y-102000D01*
G01X52000Y-25000D02*
X59000D01*
X62000Y-28000D01*
G01X44000Y144000D02*
Y135000D01*
X40000Y131000D01*
G01X50000Y144000D02*
Y135000D01*
X54000Y131000D01*
G01X49000Y276000D02*
X45000D01*
X44000Y277000D01*
G01X49000Y286000D02*
X44000D01*
G01Y305000D02*
X46000D01*
X48000Y307000D01*
G01X48605Y296733D02*
Y296838D01*
X46442Y299000D01*
X44000D01*
G01X148000Y198000D02*
X152500D01*
X161500Y189000D01*
G01X100000Y143000D02*
Y137000D01*
X103385Y133615D01*
X104273D01*
G01X94000Y143000D02*
Y134000D01*
X90000Y130000D01*
G01X148000Y204000D02*
X154000D01*
X159000Y209000D01*
X161500D01*
X14000Y-91000D03*
X5000Y-92000D03*
X42000Y-88000D03*
X32000Y-90000D03*
X27000D03*
X22000Y-75000D03*
X34000Y198000D03*
X65000Y178000D03*
X50000Y153000D03*
X44000D03*
X54500Y153700D03*
X60600D03*
X46000Y204000D03*
X40000D03*
X90800Y187000D03*
X116000Y178000D03*
X100000Y153000D03*
X95000D03*
X105400Y153300D03*
X110600Y153500D03*
X97000Y205000D03*
X91000D03*
X116000Y212000D03*
X113000Y205000D03*
G54D27*
X21000Y282500D03*
Y307500D03*
G54D28*
X58900Y304600D03*
Y291600D03*
X134500Y214000D03*
X147500D03*
G54D19*
X0Y0D03*
X167716Y356693D03*
G54D29*
G01X-46000Y121000D02*
X-61000Y106000D01*
Y101000D01*
G01X76500Y293500D02*
X80000Y290000D01*
G01X90000Y130000D02*
X93000D01*
X100000Y123000D01*
X100100D01*
X111452Y111648D01*
X111843D01*
G01X147500Y214000D02*
X156500D01*
X161500Y209000D01*
G01X169000Y314500D02*
Y314000D01*
X49300Y333200D03*
Y363200D03*
X5900Y333000D03*
Y363000D03*
M02*
