G04 ================== begin FILE IDENTIFICATION RECORD ==================*
G04 Layout Name:  D:/project/IRISking/IKEMB001/project/hardware/CMOS_DOWN/allegro/CMOS_DOWN.brd*
G04 Film Name:    BOTTOM*
G04 File Format:  Gerber RS274X*
G04 File Origin:  15.7-p007*
G04 Origin Date:  Wed Aug 08 11:33:26 2007*
G04 *
G04 Layer:  BOARD GEOMETRY/OUTLINE*
G04 Layer:  ETCH/BOTTOM*
G04 Layer:  PIN/BOTTOM*
G04 Layer:  VIA CLASS/BOTTOM*
G04 *
G04 Offset:    (0.000 0.000)*
G04 Mirror:    No*
G04 Mode:      Positive*
G04 Rotation:  0*
G04 FullContactRelief:  No*
G04 UndefLineWidth:     8.000*
G04 ================== end FILE IDENTIFICATION RECORD ====================*
%FSLAX53Y53*MOIN*%
%IR0*IPPOS*OFA0.00000B0.00000*MIA0B0*SFA1.00000B1.00000*%
%ADD12R,.05X.05*%
%ADD13R,.062X.062*%
%ADD11C,.05*%
%ADD14C,.062*%
%ADD10C,.09*%
%ADD15C,.008*%
%ADD16C,.01*%
%ADD17C,.02*%
%ADD19R,.0902X.0902*%
%ADD18C,.0902*%
G75*
%LPD*%
G75*
G36*
G01X-71Y-89D02*
X-72Y-89D01*
G02X-73Y-87I1J2D01*
G01Y-57D01*
G02X-66Y-54I4J0D01*
G01X-40Y-80D01*
X40D01*
X85Y-35D01*
Y35D01*
X35Y85D01*
X-35D01*
X-66Y54D01*
G02X-73Y57I-3J3D01*
G01Y1180D01*
X-72Y1181D01*
X140D01*
Y1373D01*
G02X142Y1375I2J0D01*
G01X1245D01*
G02X1248Y1368I0J-4D01*
G01X1214Y1334D01*
Y1264D01*
X1259Y1219D01*
X1339D01*
X1359Y1239D01*
G02X1366Y1236I3J-3D01*
G01Y119D01*
G02X1364Y117I-2J0D01*
G01X1161D01*
X1163Y115D01*
Y-87D01*
X1161Y-89D01*
X-70D01*
X-71Y-89D01*
G37*
%LPC*%
G75*
G36*
G01X1259Y189D02*
X114D01*
X88Y215D01*
X35D01*
Y230D01*
G03X28Y232I-4J0D01*
G02X-21Y290I-32J22D01*
G03Y297I-2J4D01*
G02Y368I16J36D01*
G03Y376I-2J4D01*
G02Y447I16J36D01*
G03Y455I-2J4D01*
G02X-21Y526I16J36D01*
G03Y533I-2J4D01*
G02X-21Y605I16J36D01*
G03Y612I-2J4D01*
G02Y683I16J36D01*
G03Y691I-2J4D01*
G02Y762I16J36D01*
G03Y769I-2J4D01*
G02Y841I16J36D01*
G03Y848I-2J4D01*
G02Y920I16J36D01*
G03Y927I-2J4D01*
G02X-21Y998I16J36D01*
G03Y1006I-2J4D01*
G02X31Y1057I16J36D01*
G03X38I4J2D01*
G02X113Y1044I36J-16D01*
G01X116Y1029D01*
X124Y1021D01*
X1181D01*
G03X1184Y1027I0J4D01*
G02X1256Y1058I36J15D01*
G03X1263I4J2D01*
G02X1315Y1006I36J-16D01*
G03Y999I2J-4D01*
G02X1315Y927I-16J-36D01*
G03Y920I2J-4D01*
G02Y849I-16J-36D01*
G03Y841I2J-4D01*
G02Y770I-16J-36D01*
G03Y763I2J-4D01*
G02Y691I-16J-36D01*
G03Y684I2J-4D01*
G02Y612I-16J-36D01*
G03Y605I2J-4D01*
G02X1315Y534I-16J-36D01*
G03Y526I2J-4D01*
G02X1315Y455I-16J-36D01*
G03Y448I2J-4D01*
G02Y376I-16J-36D01*
G03Y369I2J-4D01*
G02X1321Y301I-16J-36D01*
G03X1323Y293I2J-3D01*
G01X1338D01*
Y215D01*
X1286D01*
X1259Y189D01*
G37*
G54D19*
X508Y1310D03*
X407Y-10D03*
G54D18*
X808Y1310D03*
X708D03*
X608D03*
X907Y-10D03*
X807D03*
X707D03*
X607D03*
X507D03*
%LPD*%
G75*
G36*
G01X35Y278D02*
G02X28Y276I-4J0D01*
G03X11Y290I-32J-22D01*
G02Y297I2J4D01*
G03X31Y317I-16J36D01*
G02X38I4J-2D01*
G03X52Y300I36J16D01*
G02X50Y293I-2J-3D01*
G01X35D01*
Y278D01*
G37*
G36*
G01X128Y225D02*
X113Y240D01*
Y293D01*
X98D01*
G02X96Y300I0J4D01*
G03X90Y368I-22J32D01*
G02Y376I2J4D01*
G03Y447I-16J36D01*
G02Y455I2J4D01*
G03X90Y526I-16J36D01*
G02Y533I2J4D01*
G03X113Y569I-16J36D01*
G01Y582D01*
X122Y591D01*
X1181D01*
G02X1185Y585I0J-4D01*
G03X1204Y534I36J-16D01*
G02Y526I-2J-4D01*
G03X1204Y455I16J-36D01*
G02Y448I-2J-4D01*
G03Y376I16J-36D01*
G02Y369I-2J-4D01*
G03Y297I16J-36D01*
G02Y290I-2J-4D01*
G03X1189Y231I16J-36D01*
G02X1185Y225I-3J-2D01*
G01X128D01*
G37*
G36*
G01X38Y349D02*
G02X31I-4J2D01*
G03X11Y368I-36J-16D01*
G02Y376I2J4D01*
G03X31Y396I-16J36D01*
G02X38I4J-2D01*
G03X58Y376I36J16D01*
G02Y368I-2J-4D01*
G03X38Y349I16J-36D01*
G37*
G36*
G01Y427D02*
G02X31I-4J2D01*
G03X11Y447I-36J-16D01*
G02Y455I2J4D01*
G03X31Y474I-16J36D01*
G02X38I4J-2D01*
G03X58Y455I36J16D01*
G02Y447I-2J-4D01*
G03X38Y427I16J-36D01*
G37*
G36*
G01X114Y784D02*
G02X110Y790I0J4D01*
G03X113Y804I-36J15D01*
G01X115Y818D01*
X122Y826D01*
X1180D01*
G02X1184Y820I0J-4D01*
G03X1185Y790I36J-15D01*
G02X1181Y784I-4J-2D01*
G01X114D01*
G37*
G36*
G01X114Y706D02*
G02X110Y712I0J4D01*
G03X113Y726I-36J15D01*
G01Y740D01*
X121Y748D01*
X1181D01*
G02X1184Y742I0J-4D01*
G03X1184Y712I36J-15D01*
G02X1181Y706I-4J-2D01*
G01X114D01*
G37*
G36*
G01X114Y627D02*
G02X110Y633I0J4D01*
G03X113Y646I-36J15D01*
G01X115Y660D01*
X125Y670D01*
X1181D01*
G02X1185Y664I0J-4D01*
G03X1184Y633I36J-16D01*
G02X1181Y627I-4J-2D01*
G01X114D01*
G37*
G36*
G01X38Y506D02*
G02X31I-4J2D01*
G03X11Y526I-36J-16D01*
G02Y533I2J4D01*
G03X31Y553I-16J36D01*
G02X38I4J-2D01*
G03X58Y533I36J16D01*
G02Y526I-2J-4D01*
G03X38Y506I16J-36D01*
G37*
G36*
G01Y585D02*
G02X31I-4J2D01*
G03X11Y605I-36J-16D01*
G02Y612I2J4D01*
G03X31Y632I-16J36D01*
G02X38I4J-2D01*
G03X58Y612I36J16D01*
G02Y605I-2J-4D01*
G03X38Y585I16J-36D01*
G37*
G36*
G01Y664D02*
G02X31I-4J2D01*
G03X11Y683I-36J-16D01*
G02Y691I2J4D01*
G03X31Y711I-16J36D01*
G02X38I4J-2D01*
G03X58Y691I36J16D01*
G02Y683I-2J-4D01*
G03X38Y664I16J-36D01*
G37*
G36*
G01Y742D02*
G02X31I-4J2D01*
G03X11Y762I-36J-16D01*
G02Y769I2J4D01*
G03X31Y789I-16J36D01*
G02X38I4J-2D01*
G03X58Y769I36J16D01*
G02Y762I-2J-4D01*
G03X38Y742I16J-36D01*
G37*
G36*
G01Y900D02*
G02X31I-4J2D01*
G03X11Y920I-36J-16D01*
G02Y927I2J4D01*
G03X31Y947I-16J36D01*
G02X38I4J-2D01*
G03X58Y927I36J16D01*
G02Y920I-2J-4D01*
G03X38Y900I16J-36D01*
G37*
G36*
G01Y979D02*
G02X31I-4J2D01*
G03X11Y998I-36J-16D01*
G02Y1006I2J4D01*
G03X31Y1025I-16J36D01*
G02X38I4J-2D01*
G03X58Y1006I36J16D01*
G02Y998I-2J-4D01*
G03X38Y979I16J-36D01*
G37*
G36*
G01X113Y862D02*
G02X110Y868I0J4D01*
G03X90Y920I-36J16D01*
G02Y927I2J4D01*
G03X109Y979I-16J36D01*
G02X113Y985I4J2D01*
G01X1181D01*
G02X1185Y979I0J-4D01*
G03X1204Y927I36J-16D01*
G02Y920I-2J-4D01*
G03X1185Y868I16J-36D01*
G02X1181Y862I-4J-2D01*
G01X113D01*
G37*
G36*
G01X38Y821D02*
G02X31I-4J2D01*
G03X11Y841I-36J-16D01*
G02Y848I2J4D01*
G03X31Y868I-16J36D01*
G02X38I4J-2D01*
G03X58Y848I36J16D01*
G02Y841I-2J-4D01*
G03X38Y821I16J-36D01*
G37*
G36*
G01X1260Y279D02*
G02X1253Y276I-4J0D01*
G03X1236Y290I-32J-22D01*
G02Y297I2J4D01*
G03X1256Y317I-16J36D01*
G02X1263I4J-2D01*
G03X1277Y301I36J16D01*
G02X1275Y293I-2J-3D01*
G01X1260D01*
Y279D01*
G37*
G36*
G01X1263Y428D02*
G02X1256I-4J2D01*
G03X1236Y448I-36J-16D01*
G02Y455I2J4D01*
G03X1256Y475I-16J36D01*
G02X1263I4J-2D01*
G03X1283Y455I36J16D01*
G02Y448I-2J-4D01*
G03X1263Y428I16J-36D01*
G37*
G36*
G01Y349D02*
G02X1256I-4J2D01*
G03X1236Y369I-36J-16D01*
G02Y376I2J4D01*
G03X1256Y396I-16J36D01*
G02X1263I4J-2D01*
G03X1283Y376I36J16D01*
G02Y369I-2J-4D01*
G03X1263Y349I16J-36D01*
G37*
G36*
G01Y507D02*
G02X1256I-4J2D01*
G03X1236Y526I-36J-16D01*
G02Y534I2J4D01*
G03X1256Y553I-16J36D01*
G02X1263I4J-2D01*
G03X1283Y534I36J16D01*
G02Y526I-2J-4D01*
G03X1263Y507I16J-36D01*
G37*
G36*
G01Y900D02*
G02X1256I-4J2D01*
G03X1236Y920I-36J-16D01*
G02Y927I2J4D01*
G03X1256Y947I-16J36D01*
G02X1263I4J-2D01*
G03X1283Y927I36J16D01*
G02Y920I-2J-4D01*
G03X1263Y900I16J-36D01*
G37*
G54D10*
X0Y0D03*
X1299Y1299D03*
G54D11*
X-5Y254D03*
X74Y333D03*
X-5D03*
X74Y411D03*
X-5D03*
X74Y490D03*
X-5D03*
X74Y569D03*
X-5D03*
X74Y648D03*
X-5D03*
X74Y726D03*
X-5D03*
X74Y805D03*
X-5D03*
X74Y884D03*
X-5D03*
X74Y963D03*
X-5D03*
X74Y1041D03*
X-5D03*
X1220Y254D03*
X1299Y333D03*
X1220D03*
X1299Y412D03*
X1220D03*
X1299Y491D03*
X1220D03*
X1299Y569D03*
X1220D03*
X1299Y648D03*
X1220D03*
X1299Y727D03*
X1220D03*
X1299Y806D03*
X1220D03*
X1299Y884D03*
X1220D03*
X1299Y963D03*
X1220D03*
X1299Y1042D03*
X1220D03*
G54D12*
X74Y254D03*
X1299Y254D03*
G54D13*
X407Y-10D03*
X508Y1310D03*
G54D14*
X507Y-10D03*
X607D03*
X707D03*
X807D03*
X608Y1310D03*
X708D03*
X808D03*
X907Y-10D03*
G54D15*
G01X-94Y-110D02*
X1194D01*
Y90D01*
X1394D01*
Y1410D01*
X106D01*
Y1210D01*
X-94D01*
Y-110D01*
G01X74Y254D02*
X121Y207D01*
X1252D01*
X1299Y254D01*
G01X1278Y590D02*
X1277Y591D01*
X1259Y609D01*
X114D01*
X95Y590D01*
G01D02*
Y569D01*
G01Y590D02*
X74D01*
G01X95D02*
X74Y569D01*
G01X98Y669D02*
X95Y648D01*
G01X98Y669D02*
X74D01*
G01X98D02*
X117Y688D01*
X1259D01*
X1278Y669D01*
G01X74Y648D02*
X77D01*
X98Y669D01*
G01X1277Y748D02*
X1277Y749D01*
X1260Y766D01*
X114D01*
X95Y747D01*
G01D02*
Y726D01*
G01Y747D02*
X74D01*
G01X95D02*
X74Y726D01*
G01X97Y826D02*
X76Y805D01*
X74D01*
G01X1278Y1021D02*
X1277Y1020D01*
X1260Y1003D01*
X117D01*
X100Y1020D01*
G01D02*
X74D01*
G01X100D02*
X95Y1041D01*
G01X100Y1020D02*
X79Y1041D01*
X74D01*
G01X1277Y827D02*
X1277Y828D01*
X1261Y844D01*
X115D01*
X97Y826D01*
G01D02*
X95Y805D01*
G01X97Y826D02*
X74D01*
G01X707Y-10D02*
X754D01*
G01X660D02*
X707D01*
G01D02*
Y37D01*
G01Y-57D02*
Y-10D01*
G01X760D02*
X807D01*
G01X708Y1310D02*
X755D01*
G01X661D02*
X708D01*
G01D02*
Y1357D01*
G01Y1263D02*
Y1310D01*
G01X761D02*
X808D01*
G01X807Y-10D02*
X854D01*
G01X807D02*
Y37D01*
G01Y-57D02*
Y-10D01*
G01X907D02*
X954D01*
G01X860D02*
X907D01*
G01D02*
Y37D01*
G01Y-57D02*
Y-10D01*
G01X808Y1310D02*
X855D01*
G01X808D02*
Y1357D01*
G01Y1263D02*
Y1310D01*
G01X1278Y590D02*
X1299D01*
G01X1278D02*
X1278Y569D01*
G01X1299D02*
X1278Y590D01*
G01X1278Y669D02*
X1299D01*
G01X1278D02*
Y648D01*
G01Y669D02*
X1299Y648D01*
G01X1277Y748D02*
X1299D01*
G01X1277D02*
X1278Y727D01*
G01X1299D02*
X1298D01*
X1277Y748D01*
G01X1299Y806D02*
X1298D01*
X1277Y827D01*
G01X1278Y1021D02*
X1278Y1042D01*
G01X1278Y1021D02*
X1299D01*
G01Y1042D02*
X1278Y1021D01*
G01X1277Y827D02*
X1299D01*
G01X1277D02*
X1278Y806D01*
G54D16*
G01X-30Y293D02*
X97D01*
X118Y314D01*
G01X-30Y373D02*
X110D01*
G01D02*
X115Y368D01*
G01X-35Y452D02*
X119D01*
G01D02*
X123Y456D01*
G01X-36Y765D02*
X88D01*
X119Y796D01*
G01X-26Y530D02*
X125D01*
G01D02*
X128Y533D01*
G01X-39Y768D02*
X-36Y765D01*
G01X-43Y686D02*
X91D01*
X109Y704D01*
Y705D01*
X120Y716D01*
G01X-34Y609D02*
X90D01*
X107Y626D01*
X117Y636D01*
G01X-20Y925D02*
X-21Y925D01*
G01D02*
X-43D01*
G01X-21Y1005D02*
X-18Y1002D01*
X35D01*
G01X90Y925D02*
X58D01*
G01X-41Y845D02*
X90D01*
X106Y861D01*
X109D01*
X123Y875D01*
G01X90Y925D02*
G01X11Y925D02*
X-20D01*
G01X11Y925D02*
G01X58D02*
X11D01*
G01X189D02*
X90D01*
G01X58Y925D02*
G01X52Y923D02*
X171D01*
G01X18Y904D02*
X-2Y884D01*
X-5D01*
G01X34Y920D02*
X18Y904D01*
G01D02*
X-5D01*
G01X15Y884D02*
X18Y904D01*
G01X-53Y1005D02*
X-21D01*
G01X35Y1002D02*
X38Y1004D01*
G01X125Y969D02*
X105Y989D01*
X102D01*
X88Y1003D01*
X67D01*
X67Y1004D01*
X53D01*
G01X38Y1004D02*
X42Y1000D01*
G01X1324Y371D02*
X1327Y374D01*
G01X1204Y296D02*
X1177D01*
G01X1205Y295D02*
X1204Y296D01*
G01X1236Y295D02*
X1205D01*
G01X1237Y296D02*
X1236Y295D01*
G01X1334Y297D02*
X1317D01*
X1315Y295D01*
X1238D01*
G01D02*
X1237Y296D01*
G01X1177D02*
X1166Y285D01*
G01X1278Y371D02*
X1324D01*
G01X1275Y374D02*
X1278Y371D01*
G01X1170Y374D02*
X1275D01*
G01X1256Y393D02*
X1275Y374D01*
G01X1267Y452D02*
X1155D01*
G01X1256Y446D02*
Y393D01*
G01X1242Y432D02*
X1256Y446D01*
G01X1242Y432D02*
X1222Y412D01*
X1220D01*
G01X1242Y432D02*
X1220D01*
G01X1240Y412D02*
X1242Y432D01*
G01X1256Y446D02*
X1260Y450D01*
G01X1267Y452D02*
X1350D01*
G01X1266Y451D02*
X1267Y452D01*
G01X1155D02*
X1154Y451D01*
G01X1328Y531D02*
X1173D01*
G01D02*
X1172Y532D01*
G01X1160Y925D02*
X1356D01*
G01X1279Y924D02*
X1340D01*
G01X1240Y904D02*
X1220Y884D01*
G01X1259Y923D02*
X1240Y904D01*
G01D02*
X1220Y904D01*
G01X1240Y884D02*
Y904D01*
G54D17*
G01X-59Y411D02*
X-5D01*
G01X-60Y410D02*
X-59Y411D01*
G01X-54Y884D02*
X-5D01*
G01X-55Y885D02*
X-54Y884D01*
G01X1137Y412D02*
X1220D01*
G01X1135Y410D02*
X1137Y412D01*
G01X1141Y884D02*
X1220D01*
G01X1138Y887D02*
X1141Y884D01*
M02*
