G04 ================== begin FILE IDENTIFICATION RECORD ==================*
G04 Layout Name:  E:/EMB002/project/hardware/LED_LCD_WIG/LCD.brd*
G04 Film Name:    Silk_Top*
G04 File Format:  Gerber RS274X*
G04 File Origin:  15.7-p007*
G04 Origin Date:  Thu May 14 13:59:49 2009*
G04 *
G04 Layer:  REF DES/ASSEMBLY_TOP*
G04 Layer:  PACKAGE GEOMETRY/SILKSCREEN_TOP*
G04 Layer:  BOARD GEOMETRY/OUTLINE*
G04 *
G04 Offset:    (0.000 0.000)*
G04 Mirror:    No*
G04 Mode:      Positive*
G04 Rotation:  0*
G04 FullContactRelief:  No*
G04 UndefLineWidth:     10.000*
G04 ================== end FILE IDENTIFICATION RECORD ====================*
%FSLAX53Y53*MOIN*%
%IR0*IPPOS*OFA0.00000B0.00000*MIA0B0*SFA1.00000B1.00000*%
%ADD10C,.01*%
G75*
%LPD*%
G75*
G54D10*
G01X5101Y2183D02*
X11006D01*
Y-1754D01*
X5101D01*
Y2183D01*
G01X7617Y489D02*
Y332D01*
X7921D01*
Y489D01*
X7617D01*
G01X7736Y820D02*
X7618D01*
Y1135D01*
X8760D01*
Y820D01*
X8646D01*
G01X7598Y866D02*
X7559Y906D01*
Y827D01*
X7598Y866D01*
G01X7719Y805D02*
X8664D01*
Y726D01*
X7719D01*
Y805D01*
G01X8050Y-1156D02*
Y-1056D01*
X8075D01*
X8085Y-1061D01*
X8092Y-1068D01*
X8099Y-1078D01*
X8104Y-1089D01*
X8105Y-1106D01*
X8104Y-1123D01*
X8099Y-1134D01*
X8092Y-1144D01*
X8085Y-1151D01*
X8075Y-1156D01*
X8050D01*
G01X8177D02*
X8167Y-1154D01*
X8159Y-1148D01*
X8151Y-1138D01*
X8146Y-1126D01*
X8144Y-1113D01*
Y-1099D01*
X8146Y-1086D01*
X8151Y-1074D01*
X8159Y-1064D01*
X8167Y-1058D01*
X8177Y-1056D01*
X8187Y-1058D01*
X8196Y-1064D01*
X8204Y-1074D01*
X8209Y-1086D01*
X8211Y-1099D01*
Y-1113D01*
X8209Y-1126D01*
X8204Y-1138D01*
X8196Y-1148D01*
X8187Y-1154D01*
X8177Y-1156D01*
G01X8240Y-1056D02*
X8257Y-1156D01*
X8277Y-1056D01*
X8297Y-1156D01*
X8315Y-1056D01*
G01X8349Y-1156D02*
Y-1056D01*
X8406Y-1156D01*
Y-1056D01*
G01X7885Y447D02*
G03I7J15D01*
G01X7957Y489D02*
Y332D01*
X8261D01*
Y489D01*
X7957D01*
G01X8225Y447D02*
G03I7J15D01*
G01X8297Y489D02*
Y332D01*
X8601D01*
Y489D01*
X8297D01*
G01X8167Y1698D02*
Y1627D01*
X8172Y1612D01*
X8182Y1602D01*
X8195Y1598D01*
X8207Y1602D01*
X8217Y1612D01*
X8222Y1627D01*
Y1698D01*
G01X8270Y1598D02*
Y1698D01*
X8300D01*
X8310Y1693D01*
X8317Y1682D01*
X8320Y1668D01*
X8317Y1655D01*
X8311Y1645D01*
X8300Y1640D01*
X8270D01*
G01X8565Y447D02*
G03I7J15D01*
G01X8937Y-329D02*
X8945D01*
Y-338D01*
X8943Y-341D01*
X8940Y-343D01*
X8936Y-344D01*
X8932Y-343D01*
X8930Y-341D01*
X8927Y-338D01*
X8926Y-335D01*
X8925Y-331D01*
Y-327D01*
X8926Y-324D01*
X8927Y-320D01*
X8930Y-317D01*
X8932Y-315D01*
X8935Y-313D01*
X8938D01*
X8941Y-315D01*
X8943Y-317D01*
G01X8957Y-344D02*
Y-313D01*
X8975Y-344D01*
Y-313D01*
G01X8989Y-344D02*
Y-313D01*
X8996D01*
X8999Y-315D01*
X9002Y-317D01*
X9004Y-320D01*
X9005Y-324D01*
X9006Y-329D01*
X9005Y-334D01*
X9004Y-338D01*
X9002Y-341D01*
X8999Y-343D01*
X8996Y-344D01*
X8989D01*
G01X8914Y50D02*
X8916Y46D01*
X8919Y44D01*
X8923Y44D01*
X8926Y44D01*
X8929Y47D01*
X8931Y50D01*
X8931Y53D01*
X8931Y57D01*
X8928Y59D01*
X8925Y60D01*
X8922D01*
G01X8925D02*
X8928Y62D01*
X8929Y64D01*
X8930Y67D01*
X8929Y71D01*
X8928Y73D01*
X8924Y75D01*
X8921Y74D01*
X8917Y72D01*
G01X8954Y43D02*
X8953Y43D01*
Y44D01*
X8954Y45D01*
X8954Y44D01*
Y43D01*
G01X8976Y50D02*
X8978Y46D01*
X8981Y44D01*
X8985Y44D01*
X8988Y44D01*
X8991Y47D01*
X8993Y50D01*
X8993Y53D01*
X8993Y57D01*
X8990Y59D01*
X8987Y60D01*
X8984D01*
G01X8987D02*
X8990Y62D01*
X8991Y64D01*
X8992Y67D01*
X8991Y71D01*
X8990Y73D01*
X8986Y75D01*
X8983Y74D01*
X8979Y72D01*
G01X9006Y75D02*
X9016Y44D01*
X9025Y75D01*
M02*
