G04 ================== begin FILE IDENTIFICATION RECORD ==================*
G04 Layout Name:  E:/EMB002/project/hardware/LED_LCD_WIG/LCD.brd*
G04 Film Name:    Silk_Bottom*
G04 File Format:  Gerber RS274X*
G04 File Origin:  15.7-p007*
G04 Origin Date:  Thu May 14 13:59:49 2009*
G04 *
G04 Layer:  REF DES/ASSEMBLY_BOTTOM*
G04 Layer:  PACKAGE GEOMETRY/SILKSCREEN_BOTTOM*
G04 Layer:  BOARD GEOMETRY/OUTLINE*
G04 *
G04 Offset:    (0.000 0.000)*
G04 Mirror:    No*
G04 Mode:      Positive*
G04 Rotation:  0*
G04 FullContactRelief:  No*
G04 UndefLineWidth:     10.000*
G04 ================== end FILE IDENTIFICATION RECORD ====================*
%FSLAX53Y53*MOIN*%
%IR0*IPPOS*OFA0.00000B0.00000*MIA0B0*SFA1.00000B1.00000*%
%ADD10C,.01*%
G75*
%LPD*%
G75*
G54D10*
G01X5101Y2183D02*
X11006D01*
Y-1754D01*
X5101D01*
Y2183D01*
G01X7736Y30D02*
X7618D01*
Y-285D01*
X8760D01*
Y30D01*
X8646D01*
G01X7559Y39D02*
X7598Y0D01*
X7559Y-39D01*
Y39D01*
G01X7777Y403D02*
X7781Y405D01*
X7786Y407D01*
X7791D01*
X7796Y405D01*
X7801Y400D01*
X7804Y395D01*
X7806Y387D01*
X7807Y380D01*
X7806Y372D01*
X7804Y367D01*
X7800Y362D01*
X7796Y359D01*
X7791Y357D01*
X7787D01*
X7782Y359D01*
X7779Y361D01*
X7775Y365D01*
G01X7752Y378D02*
X7748Y384D01*
X7744Y387D01*
X7739Y389D01*
X7735Y387D01*
X7731Y384D01*
X7729Y379D01*
X7728Y373D01*
X7729Y368D01*
X7731Y363D01*
X7735Y359D01*
X7740Y357D01*
X7745Y359D01*
X7749Y364D01*
X7752Y371D01*
X7752Y380D01*
X7751Y390D01*
X7749Y396D01*
X7746Y402D01*
X7742Y406D01*
X7737Y407D01*
X7733Y405D01*
X7729Y401D01*
G01X7790Y466D02*
X7794Y468D01*
X7799Y470D01*
X7804D01*
X7809Y468D01*
X7814Y463D01*
X7817Y458D01*
X7819Y450D01*
X7820Y443D01*
X7819Y435D01*
X7817Y430D01*
X7813Y425D01*
X7809Y422D01*
X7804Y420D01*
X7800D01*
X7795Y422D01*
X7792Y424D01*
X7788Y428D01*
G01X7767Y430D02*
X7763Y424D01*
X7758Y421D01*
X7753Y420D01*
X7748Y421D01*
X7742Y425D01*
X7739Y430D01*
X7739Y435D01*
X7740Y441D01*
X7744Y445D01*
X7749Y447D01*
X7755D01*
G01X7749D02*
X7745Y449D01*
X7742Y453D01*
X7741Y458D01*
X7742Y463D01*
X7745Y468D01*
X7751Y470D01*
X7756Y469D01*
X7762Y466D01*
G01X7791Y1068D02*
Y1078D01*
X7841D01*
Y1053D01*
G01Y983D02*
Y958D01*
X7791D01*
Y968D01*
G01X7788Y956D02*
Y1080D01*
X7844D01*
Y956D01*
X7788D01*
G01X7842Y1195D02*
X7792D01*
Y1179D01*
X7794Y1174D01*
X7798Y1171D01*
X7804Y1170D01*
X7811Y1171D01*
X7815Y1175D01*
X7818Y1179D01*
Y1195D01*
G01Y1179D02*
X7842Y1170D01*
G01X7800Y1143D02*
X7795Y1139D01*
X7793Y1135D01*
X7792Y1130D01*
X7793Y1124D01*
X7798Y1119D01*
X7803Y1118D01*
X7808Y1119D01*
X7812Y1121D01*
X7820Y1134D01*
X7826Y1139D01*
X7834Y1143D01*
X7842Y1144D01*
Y1118D01*
G01X7733Y1068D02*
Y1078D01*
X7783D01*
Y1053D01*
G01Y983D02*
Y958D01*
X7733D01*
Y968D01*
G01X7730Y956D02*
Y1080D01*
X7786D01*
Y956D01*
X7730D01*
G01X7780Y1195D02*
X7730D01*
Y1179D01*
X7733Y1174D01*
X7736Y1171D01*
X7743Y1170D01*
X7749Y1171D01*
X7754Y1175D01*
X7756Y1179D01*
Y1195D01*
G01Y1179D02*
X7780Y1170D01*
G01Y1131D02*
X7730D01*
X7740Y1139D01*
G01X7780D02*
Y1124D01*
G01X7931Y407D02*
X7941D01*
Y357D01*
X7916D01*
G01X7846D02*
X7821D01*
Y407D01*
X7831D01*
G01X7819Y410D02*
X7943D01*
Y354D01*
X7819D01*
Y410D01*
G01X8117Y404D02*
X8120Y406D01*
X8125Y408D01*
X8130D01*
X8136Y405D01*
X8140Y401D01*
X8143Y396D01*
X8146Y388D01*
X8146Y380D01*
X8145Y373D01*
X8143Y368D01*
X8139Y363D01*
X8135Y360D01*
X8131Y358D01*
X8126D01*
X8122Y360D01*
X8118Y362D01*
X8115Y365D01*
G01X8094D02*
X8090Y361D01*
X8085Y359D01*
X8080Y358D01*
X8074Y360D01*
X8069Y363D01*
X8066Y369D01*
X8066Y375D01*
X8067Y382D01*
X8070Y386D01*
X8075Y390D01*
X8079Y390D01*
X8083Y390D01*
X8089Y386D01*
X8087Y408D01*
X8070D01*
G01X7944Y464D02*
X7954D01*
Y414D01*
X7929D01*
G01X7859D02*
X7834D01*
Y464D01*
X7844D01*
G01X7832Y467D02*
X7956D01*
Y411D01*
X7832D01*
Y467D01*
G01X8119Y470D02*
X8122Y472D01*
X8127Y474D01*
X8132D01*
X8138Y472D01*
X8142Y467D01*
X8145Y462D01*
X8148Y454D01*
X8148Y447D01*
X8147Y439D01*
X8145Y434D01*
X8141Y429D01*
X8137Y426D01*
X8133Y424D01*
X8128D01*
X8124Y426D01*
X8120Y428D01*
X8117Y432D01*
G01X8094Y466D02*
X8090Y471D01*
X8085Y473D01*
X8080Y474D01*
X8074Y472D01*
X8070Y468D01*
X8068Y463D01*
X8069Y458D01*
X8071Y454D01*
X8084Y446D01*
X8090Y440D01*
X8094Y432D01*
X8095Y424D01*
X8068D01*
G01X8270Y407D02*
X8280D01*
Y357D01*
X8255D01*
G01X8185D02*
X8160D01*
Y407D01*
X8170D01*
G01X8158Y410D02*
X8282D01*
Y354D01*
X8158D01*
Y410D01*
G01X8282Y466D02*
X8292D01*
Y416D01*
X8267D01*
G01X8197D02*
X8172D01*
Y466D01*
X8182D01*
G01X8170Y469D02*
X8294D01*
Y413D01*
X8170D01*
Y469D01*
G01X8402Y1072D02*
Y1033D01*
X8283D01*
Y1072D01*
X8402D01*
G01X8256Y1107D02*
X8206D01*
Y1092D01*
X8208Y1086D01*
X8212Y1083D01*
X8218Y1082D01*
X8225Y1083D01*
X8229Y1087D01*
X8232Y1092D01*
Y1107D01*
G01Y1092D02*
X8256Y1082D01*
G01Y1058D02*
X8206D01*
X8256Y1029D01*
X8206D01*
G01X8256Y993D02*
X8206D01*
X8216Y1000D01*
G01X8256D02*
Y985D01*
G01X8613Y403D02*
X8623D01*
Y353D01*
X8598D01*
G01X8528D02*
X8503D01*
Y403D01*
X8513D01*
G01X8501Y406D02*
X8625D01*
Y350D01*
X8501D01*
Y406D01*
G01X8460Y400D02*
X8463Y403D01*
X8468Y404D01*
X8473D01*
X8479Y402D01*
X8483Y398D01*
X8486Y393D01*
X8489Y384D01*
X8489Y377D01*
X8488Y369D01*
X8486Y364D01*
X8482Y359D01*
X8478Y356D01*
X8474Y354D01*
X8469D01*
X8465Y356D01*
X8461Y358D01*
X8458Y362D01*
G01X8415Y354D02*
Y404D01*
X8438Y368D01*
X8407D01*
G01X8621Y462D02*
X8631D01*
Y412D01*
X8606D01*
G01X8536D02*
X8511D01*
Y462D01*
X8521D01*
G01X8509Y465D02*
X8633D01*
Y409D01*
X8509D01*
Y465D01*
G01X8457Y469D02*
X8461Y471D01*
X8465Y473D01*
X8471D01*
X8476Y470D01*
X8481Y466D01*
X8484Y461D01*
X8486Y453D01*
X8487Y445D01*
X8486Y438D01*
X8484Y433D01*
X8480Y428D01*
X8476Y425D01*
X8471Y423D01*
X8467D01*
X8462Y425D01*
X8459Y427D01*
X8455Y430D01*
G01X8420Y423D02*
Y473D01*
X8428Y463D01*
G01Y423D02*
X8413D01*
G01X8601Y1112D02*
Y1122D01*
X8651D01*
Y1097D01*
G01Y1027D02*
Y1002D01*
X8601D01*
Y1012D01*
G01X8598Y1000D02*
Y1124D01*
X8654D01*
Y1000D01*
X8598D01*
G01X8655Y1245D02*
X8605D01*
Y1229D01*
X8607Y1224D01*
X8611Y1221D01*
X8617Y1220D01*
X8624Y1221D01*
X8628Y1225D01*
X8631Y1229D01*
Y1245D01*
G01Y1229D02*
X8655Y1220D01*
G01X8634Y1193D02*
X8628Y1189D01*
X8625Y1185D01*
X8623Y1180D01*
X8625Y1175D01*
X8628Y1172D01*
X8633Y1170D01*
X8639Y1169D01*
X8644Y1170D01*
X8649Y1172D01*
X8653Y1176D01*
X8655Y1181D01*
X8653Y1186D01*
X8648Y1190D01*
X8641Y1193D01*
X8632Y1193D01*
X8621Y1192D01*
X8616Y1190D01*
X8610Y1187D01*
X8606Y1182D01*
X8605Y1178D01*
X8606Y1174D01*
X8611Y1170D01*
G01X8544Y1112D02*
Y1122D01*
X8594D01*
Y1097D01*
G01Y1027D02*
Y1002D01*
X8544D01*
Y1012D01*
G01X8541Y1000D02*
Y1124D01*
X8597D01*
Y1000D01*
X8541D01*
G01X8597Y1245D02*
X8547D01*
Y1229D01*
X8550Y1224D01*
X8553Y1221D01*
X8560Y1220D01*
X8566Y1221D01*
X8571Y1225D01*
X8573Y1229D01*
Y1245D01*
G01Y1229D02*
X8597Y1220D01*
G01X8590Y1195D02*
X8594Y1191D01*
X8596Y1187D01*
X8597Y1181D01*
X8596Y1175D01*
X8592Y1171D01*
X8586Y1168D01*
X8580Y1167D01*
X8573Y1169D01*
X8569Y1172D01*
X8566Y1176D01*
X8565Y1181D01*
X8566Y1185D01*
X8569Y1191D01*
X8547Y1189D01*
Y1172D01*
G01X8487Y1112D02*
Y1122D01*
X8537D01*
Y1097D01*
G01Y1027D02*
Y1002D01*
X8487D01*
Y1012D01*
G01X8484Y1000D02*
Y1124D01*
X8540D01*
Y1000D01*
X8484D01*
G01X8539Y1244D02*
X8489D01*
Y1228D01*
X8492Y1223D01*
X8495Y1220D01*
X8502Y1219D01*
X8509Y1220D01*
X8513Y1224D01*
X8515Y1228D01*
Y1244D01*
G01Y1228D02*
X8539Y1219D01*
G01Y1173D02*
X8489D01*
X8525Y1196D01*
Y1165D01*
G01X8431Y1112D02*
Y1122D01*
X8481D01*
Y1097D01*
G01Y1027D02*
Y1002D01*
X8431D01*
Y1012D01*
G01X8428Y1000D02*
Y1124D01*
X8484D01*
Y1000D01*
X8428D01*
G01X8481Y1244D02*
X8431D01*
Y1228D01*
X8433Y1223D01*
X8437Y1220D01*
X8443Y1219D01*
X8450Y1220D01*
X8454Y1224D01*
X8457Y1228D01*
Y1244D01*
G01Y1228D02*
X8481Y1219D01*
G01X8471Y1194D02*
X8477Y1191D01*
X8480Y1185D01*
X8481Y1180D01*
X8480Y1175D01*
X8476Y1170D01*
X8471Y1166D01*
X8466Y1166D01*
X8460Y1167D01*
X8456Y1172D01*
X8454Y1176D01*
Y1182D01*
G01Y1176D02*
X8452Y1172D01*
X8447Y1169D01*
X8442Y1168D01*
X8437Y1169D01*
X8433Y1172D01*
X8431Y1178D01*
X8432Y1184D01*
X8435Y1189D01*
G01X8937Y-329D02*
X8945D01*
Y-338D01*
X8943Y-341D01*
X8940Y-343D01*
X8936Y-344D01*
X8932Y-343D01*
X8930Y-341D01*
X8927Y-338D01*
X8926Y-335D01*
X8925Y-331D01*
Y-327D01*
X8926Y-324D01*
X8927Y-320D01*
X8930Y-317D01*
X8932Y-315D01*
X8935Y-313D01*
X8938D01*
X8941Y-315D01*
X8943Y-317D01*
G01X8957Y-344D02*
Y-313D01*
X8975Y-344D01*
Y-313D01*
G01X8989Y-344D02*
Y-313D01*
X8996D01*
X8999Y-315D01*
X9002Y-317D01*
X9004Y-320D01*
X9005Y-324D01*
X9006Y-329D01*
X9005Y-334D01*
X9004Y-338D01*
X9002Y-341D01*
X8999Y-343D01*
X8996Y-344D01*
X8989D01*
G01X9068Y-283D02*
X8868D01*
Y17D01*
X9068D01*
Y-283D01*
G01X8914Y50D02*
X8916Y46D01*
X8919Y44D01*
X8923Y44D01*
X8926Y44D01*
X8929Y47D01*
X8931Y50D01*
X8931Y53D01*
X8931Y57D01*
X8928Y59D01*
X8925Y60D01*
X8922D01*
G01X8925D02*
X8928Y62D01*
X8929Y64D01*
X8930Y67D01*
X8929Y71D01*
X8928Y73D01*
X8924Y75D01*
X8921Y74D01*
X8917Y72D01*
G01X8954Y43D02*
X8953Y43D01*
Y44D01*
X8954Y45D01*
X8954Y44D01*
Y43D01*
G01X8976Y50D02*
X8978Y46D01*
X8981Y44D01*
X8985Y44D01*
X8988Y44D01*
X8991Y47D01*
X8993Y50D01*
X8993Y53D01*
X8993Y57D01*
X8990Y59D01*
X8987Y60D01*
X8984D01*
G01X8987D02*
X8990Y62D01*
X8991Y64D01*
X8992Y67D01*
X8991Y71D01*
X8990Y73D01*
X8986Y75D01*
X8983Y74D01*
X8979Y72D01*
G01X9006Y75D02*
X9016Y44D01*
X9025Y75D01*
G01X9068Y-64D02*
X9022D01*
Y-206D01*
X9068D01*
M02*
