G04 ================== begin FILE IDENTIFICATION RECORD ==================*
G04 Layout Name:  E:/EMB002/project/hardware/LED_LCD_WIG/LCD.brd*
G04 Film Name:    TOP*
G04 File Format:  Gerber RS274X*
G04 File Origin:  15.7-p007*
G04 Origin Date:  Thu May 14 13:59:49 2009*
G04 *
G04 Layer:  BOARD GEOMETRY/OUTLINE*
G04 Layer:  ETCH/TOP*
G04 Layer:  PIN/TOP*
G04 Layer:  VIA CLASS/TOP*
G04 *
G04 Offset:    (0.000 0.000)*
G04 Mirror:    No*
G04 Mode:      Positive*
G04 Rotation:  0*
G04 FullContactRelief:  No*
G04 UndefLineWidth:     10.000*
G04 ================== end FILE IDENTIFICATION RECORD ====================*
%FSLAX53Y53*MOIN*%
%IR0*IPPOS*OFA0.00000B0.00000*MIA0B0*SFA1.00000B1.00000*%
%ADD10C,.14*%
%ADD13R,.008X.059*%
%ADD14R,.05X.06*%
%ADD12R,.015X.06*%
%ADD16R,.062X.062*%
%ADD15C,.03*%
%ADD11C,.024*%
%ADD17C,.062*%
%ADD18C,.008*%
%ADD19C,.007874*%
%ADD20C,.012*%
%ADD21C,.01*%
%ADD22C,.015748*%
%ADD23C,.074004*%
G75*
%LPD*%
G75*
G36*
G01X8598Y-283D02*
X8433Y-118D01*
G02X8432Y-116I1J1D01*
G01Y104D01*
X8557Y228D01*
Y354D01*
X8543Y368D01*
X8294D01*
X8272Y346D01*
Y264D01*
X8262Y254D01*
X8220D01*
X8216Y258D01*
Y363D01*
X8211Y368D01*
X7954D01*
X7931Y345D01*
Y265D01*
X7918Y252D01*
X7880D01*
G02X7878Y253I0J2D01*
G01X7876Y256D01*
Y438D01*
X7901Y463D01*
Y563D01*
X7905Y567D01*
X7922D01*
X7927Y562D01*
Y506D01*
X7941Y492D01*
Y463D01*
X7954Y449D01*
X8233D01*
X8241Y457D01*
Y564D01*
X8245Y567D01*
X8260D01*
X8265Y563D01*
Y504D01*
X8280Y489D01*
Y464D01*
X8294Y449D01*
X8557D01*
X8581Y473D01*
Y595D01*
X8461Y715D01*
G02X8460Y717I1J1D01*
G01Y949D01*
X8485Y974D01*
X8584D01*
X8593Y982D01*
Y1051D01*
X8564Y1080D01*
X7730D01*
X7715Y1095D01*
Y1135D01*
X7740Y1160D01*
X8674D01*
X8698Y1135D01*
Y989D01*
X8645Y936D01*
G02X8644Y935I-1J1D01*
G01X8500D01*
X8489Y923D01*
Y761D01*
X8661Y589D01*
Y217D01*
G02X8660Y216I-2J0D01*
G01X8569Y125D01*
Y35D01*
X8587Y18D01*
X9041D01*
X9067Y-8D01*
G02X9068Y-10I-1J-1D01*
G01Y-252D01*
X9037Y-283D01*
X8598D01*
G37*
%LPC*%
G75*
G54D23*
X8968Y-183D03*
%LPD*%
G75*
G54D10*
X5376Y-1636D03*
Y1947D03*
X10731Y-1636D03*
Y1947D03*
G54D20*
G01X8688Y143D02*
Y682D01*
X8602Y768D01*
Y850D01*
G01X8712Y113D02*
Y701D01*
X8622Y791D01*
Y850D01*
G54D11*
X7654Y238D03*
X7705Y237D03*
X7807Y234D03*
X7756Y235D03*
X7731Y206D03*
X7782Y203D03*
X7679Y206D03*
X7628Y474D03*
Y340D03*
X7758Y944D03*
Y1098D03*
X7739Y907D03*
X7797Y932D03*
X7820Y909D03*
X8096Y196D03*
X8045Y196D03*
X8019Y227D03*
X7994Y199D03*
X8071Y226D03*
X8122Y227D03*
X7924Y477D03*
X7910Y343D03*
X7851Y343D03*
X7865Y473D03*
X7968Y347D03*
Y475D03*
X7948Y907D03*
X7979D03*
X8105D03*
X8359Y239D03*
X8411Y240D03*
X8334Y207D03*
X8385Y208D03*
X8147Y194D03*
X8262Y476D03*
X8250Y346D03*
X8191Y346D03*
X8202Y476D03*
X8308Y478D03*
Y346D03*
X8294Y972D03*
X8326Y970D03*
X8359Y971D03*
X8392Y969D03*
X8294Y1141D03*
X8135Y907D03*
X8462Y239D03*
X8513Y238D03*
X8436Y209D03*
X8712Y113D03*
X8487Y209D03*
X8688Y143D03*
X8591Y342D03*
X8601Y476D03*
X8541Y474D03*
X8533Y343D03*
X8569Y993D03*
X8425Y999D03*
X8569Y1138D03*
X8456Y1141D03*
X8515Y914D03*
G54D21*
G01X5101Y2183D02*
X11006D01*
Y-1754D01*
X5101D01*
Y2183D01*
G54D12*
X7628Y288D03*
X7654D03*
X7679D03*
X7705D03*
X7731D03*
X7756D03*
X7782D03*
X7807D03*
Y533D03*
X7782D03*
X7756D03*
X7731D03*
X7705D03*
X7679D03*
X7654D03*
X7628D03*
X7833Y288D03*
X7859D03*
X7884D03*
X7910D03*
X7968D03*
X7994D03*
X8019D03*
X8045D03*
X8071D03*
X8096D03*
X7910Y533D03*
X7884D03*
X7859D03*
X7833D03*
X8096D03*
X8071D03*
X8045D03*
X8019D03*
X7994D03*
X7968D03*
X8122Y288D03*
X8147D03*
X8173D03*
X8199D03*
X8224D03*
X8250D03*
X8308D03*
X8334D03*
X8359D03*
X8385D03*
X8250Y533D03*
X8224D03*
X8199D03*
X8173D03*
X8147D03*
X8122D03*
X8385D03*
X8359D03*
X8334D03*
X8308D03*
X8411Y288D03*
X8436D03*
X8462D03*
X8487D03*
X8513D03*
X8539D03*
X8564D03*
X8590D03*
Y533D03*
X8564D03*
X8539D03*
X8513D03*
X8487D03*
X8462D03*
X8436D03*
X8411D03*
G54D22*
G01X7628D02*
X7654Y533D01*
G01X7628Y533D02*
Y474D01*
G01Y288D02*
Y340D01*
G01X7833Y288D02*
X7859D01*
G01D02*
X7859Y336D01*
X7851Y343D01*
G01X7884Y533D02*
Y492D01*
X7865Y473D01*
G01X7968Y288D02*
Y347D01*
G01Y533D02*
X7994Y533D01*
G01X7968Y533D02*
Y475D01*
G01X8173Y288D02*
X8199D01*
G01D02*
X8199Y338D01*
X8191Y346D01*
G01X8224Y533D02*
Y498D01*
X8202Y476D01*
G01X8334Y533D02*
X8308Y533D01*
G01Y533D02*
Y478D01*
G01Y288D02*
Y346D01*
G01X8564Y533D02*
Y497D01*
X8541Y474D01*
G01X8539Y288D02*
X8539Y337D01*
X8533Y343D01*
G54D13*
X7795Y850D03*
X7776D03*
X7756D03*
X8091D03*
X8071D03*
X8051D03*
X8031D03*
X8012D03*
X7992D03*
X7972D03*
X7953D03*
X7933D03*
X7913D03*
X7894D03*
X7874D03*
X7854D03*
X7835D03*
X7815D03*
X8386D03*
X8366D03*
X8346D03*
X8327D03*
X8307D03*
X8287D03*
X8268D03*
X8248D03*
X8228D03*
X8209D03*
X8189D03*
X8169D03*
X8150D03*
X8130D03*
X8110D03*
X8622D03*
X8602D03*
X8583D03*
X8563D03*
X8543D03*
X8524D03*
X8504D03*
X8484D03*
X8465D03*
X8445D03*
X8425D03*
X8406D03*
G54D14*
X7618Y1008D03*
X8760D03*
G54D15*
X8475Y-69D03*
G54D16*
X8968Y-83D03*
G54D17*
Y-183D03*
G54D18*
G01X7820Y909D02*
Y904D01*
X7815Y899D01*
Y850D01*
G01X7953D02*
Y902D01*
X7948Y907D01*
G01X7972Y850D02*
Y901D01*
X7979Y907D01*
G01X8504Y850D02*
Y903D01*
X8515Y914D01*
G54D19*
G01X7654Y288D02*
X7654Y238D01*
G01X7705Y288D02*
Y237D01*
G01X7756Y288D02*
Y235D01*
G01X7731Y288D02*
X7731Y206D01*
G01X7782Y288D02*
X7782Y203D01*
G01X7679Y288D02*
Y206D01*
G01X7782Y533D02*
X7781Y533D01*
Y630D01*
X7913Y762D01*
Y850D01*
G01X7705Y533D02*
X7705Y641D01*
X7854Y791D01*
Y850D01*
G01X7679Y533D02*
X7680Y533D01*
Y641D01*
X7835Y796D01*
Y850D01*
G01X7731Y533D02*
X7731Y639D01*
X7874Y782D01*
Y850D01*
G01X7756Y533D02*
X7756Y637D01*
X7894Y774D01*
Y850D01*
G01X7776D02*
Y927D01*
X7758Y944D01*
G01X7756Y850D02*
Y889D01*
X7739Y907D01*
G01X7795Y850D02*
Y930D01*
X7797Y932D01*
G01X8096Y288D02*
Y196D01*
G01X7807Y288D02*
Y234D01*
G01X8045Y288D02*
Y196D01*
G01X8019Y288D02*
Y227D01*
G01X7994Y288D02*
X7994Y199D01*
G01X8071Y288D02*
X8071Y226D01*
G01X7807Y533D02*
X7807Y624D01*
X7933Y750D01*
Y850D01*
G01X8051D02*
X8051Y665D01*
X8071Y646D01*
Y533D01*
G01X8031Y850D02*
Y655D01*
X8045Y641D01*
Y533D01*
G01X8019Y533D02*
Y635D01*
X8012Y643D01*
Y850D01*
G01X7833Y533D02*
X7833Y612D01*
X7992Y771D01*
Y850D01*
G01X8071D02*
Y672D01*
X8096Y647D01*
Y533D01*
G01X8091Y850D02*
Y680D01*
X8122Y649D01*
Y533D01*
G01X8105Y907D02*
Y905D01*
X8110Y900D01*
Y850D01*
G01X8359Y288D02*
Y239D01*
G01X8334Y288D02*
X8334Y207D01*
G01X8385Y288D02*
Y208D01*
G01X8147Y288D02*
Y194D01*
G01X8122Y288D02*
X8122Y227D01*
G01X8209Y850D02*
X8209Y752D01*
X8385Y575D01*
Y533D01*
G01X8150Y850D02*
X8150Y535D01*
X8147Y533D01*
G01X8189Y850D02*
Y743D01*
X8359Y572D01*
Y533D01*
G01X8169Y850D02*
Y536D01*
X8173Y533D01*
G01X8346Y850D02*
X8346Y895D01*
X8294Y948D01*
Y972D01*
G01X8366Y850D02*
X8366Y896D01*
X8326Y936D01*
Y970D01*
G01X8386Y850D02*
Y900D01*
X8359Y927D01*
Y971D01*
G01X8287Y850D02*
Y787D01*
X8488Y587D01*
Y533D01*
X8487Y533D01*
G01X8248Y850D02*
Y770D01*
X8436Y581D01*
Y533D01*
G01X8268Y850D02*
Y778D01*
X8462Y583D01*
Y533D01*
G01X8228Y850D02*
Y762D01*
X8411Y580D01*
Y533D01*
G01X8327Y850D02*
Y803D01*
X8539Y591D01*
Y533D01*
G01X8307Y850D02*
Y797D01*
X8513Y591D01*
Y533D01*
G01X8135Y907D02*
Y903D01*
X8130Y898D01*
Y850D01*
G01X8406D02*
Y910D01*
X8392Y924D01*
Y969D01*
G01X8411Y288D02*
X8411Y240D01*
G01X8462Y288D02*
X8462Y239D01*
G01X8513Y288D02*
Y238D01*
G01X8436Y288D02*
Y209D01*
G01X8487Y288D02*
Y209D01*
G01X8569Y993D02*
X8462D01*
X8445Y976D01*
Y850D01*
G01X8425D02*
X8425Y999D01*
M02*
