G04 ================== begin FILE IDENTIFICATION RECORD ==================*
G04 Layout Name:  D:/project/IRISking/IKEMB001/project/hardware/amplifier/allegro/AMPLIFIER.brd*
G04 Film Name:    Silk_Top*
G04 File Format:  Gerber RS274X*
G04 File Origin:  15.7-p007*
G04 Origin Date:  Sun Nov 25 09:28:42 2007*
G04 *
G04 Layer:  BOARD GEOMETRY/SILKSCREEN_TOP*
G04 Layer:  REF DES/SILKSCREEN_TOP*
G04 Layer:  PACKAGE GEOMETRY/SILKSCREEN_TOP*
G04 Layer:  BOARD GEOMETRY/OUTLINE*
G04 *
G04 Offset:    (0.000 0.000)*
G04 Mirror:    No*
G04 Mode:      Positive*
G04 Rotation:  0*
G04 FullContactRelief:  No*
G04 UndefLineWidth:     7.988*
G04 ================== end FILE IDENTIFICATION RECORD ====================*
%FSLAX55Y55*MOIN*%
%IR0*IPPOS*OFA0.00000B0.00000*MIA0B0*SFA1.00000B1.00000*%
%ADD10C,.007988*%
G75*
%LPD*%
G75*
G54D10*
G01X398552Y-47697D02*
Y-17697D01*
X418552D01*
Y-47697D01*
X398552D01*
G01X369016Y29860D02*
Y-49764D01*
X496340D01*
Y29860D01*
X369016D01*
G01X393858Y26968D02*
Y-23032D01*
X373858D01*
Y26968D01*
X393858D01*
G01X406833Y15454D02*
Y-4546D01*
G01X409083Y12954D02*
G03I-1000J0D01*
G01X405083Y-4546D02*
Y15454D01*
X418583D01*
Y-4546D01*
X405083D01*
G01X409727Y19480D02*
X410727D01*
Y24480D01*
X408227D01*
G01X401227D02*
X398727D01*
Y19480D01*
X399727D01*
G01X398527Y19180D02*
Y24780D01*
X410927D01*
Y19180D01*
X398527D01*
G01X412289Y16815D02*
Y26815D01*
X413889D01*
Y16815D01*
X412289D01*
G01D02*
Y26815D01*
X437489D01*
Y16815D01*
X412289D01*
G01X430389D02*
X437389D01*
Y26815D01*
X435389D01*
X430389D01*
G01X441226Y23291D02*
X440996Y23446D01*
X440728Y23549D01*
X440422D01*
X440077Y23394D01*
X439809Y23136D01*
X439617Y22826D01*
X439464Y22310D01*
X439426Y21845D01*
X439502Y21381D01*
X439617Y21071D01*
X439847Y20761D01*
X440115Y20554D01*
X440383Y20451D01*
X440652D01*
X440920Y20554D01*
X441150Y20709D01*
X441341Y20916D01*
G01X442753Y23033D02*
X442983Y23343D01*
X443251Y23498D01*
X443558Y23549D01*
X443941Y23446D01*
X444209Y23188D01*
X444286Y22878D01*
X444247Y22568D01*
X444094Y22310D01*
X443328Y21794D01*
X442983Y21432D01*
X442753Y20916D01*
X442676Y20451D01*
X444286D01*
G01X446579Y23549D02*
X446272Y23446D01*
X446042Y23188D01*
X445889Y22878D01*
X445774Y22465D01*
X445736Y22000D01*
X445774Y21536D01*
X445889Y21122D01*
X446042Y20813D01*
X446272Y20554D01*
X446579Y20451D01*
X446885Y20554D01*
X447115Y20813D01*
X447268Y21122D01*
X447383Y21536D01*
X447422Y22000D01*
X447383Y22465D01*
X447268Y22878D01*
X447115Y23188D01*
X446885Y23446D01*
X446579Y23549D01*
G01X401276Y25657D02*
Y28755D01*
X402234D01*
X402540Y28600D01*
X402732Y28394D01*
X402809Y27981D01*
X402732Y27568D01*
X402502Y27310D01*
X402234Y27155D01*
X401276D01*
G01X402234D02*
X402809Y25657D01*
G01X404412Y28239D02*
X404642Y28549D01*
X404910Y28704D01*
X405217Y28755D01*
X405600Y28652D01*
X405868Y28394D01*
X405945Y28084D01*
X405906Y27774D01*
X405753Y27516D01*
X404987Y27000D01*
X404642Y26638D01*
X404412Y26122D01*
X404335Y25657D01*
X405945D01*
G01X407586Y26019D02*
X407854Y25761D01*
X408161Y25657D01*
X408468Y25761D01*
X408736Y26070D01*
X408927Y26535D01*
X409004Y27000D01*
Y27568D01*
X408927Y28032D01*
X408736Y28446D01*
X408506Y28652D01*
X408238Y28755D01*
X407931Y28652D01*
X407701Y28446D01*
X407548Y28136D01*
X407471Y27723D01*
X407548Y27361D01*
X407740Y27000D01*
X407969Y26793D01*
X408238Y26742D01*
X408544Y26845D01*
X408774Y27103D01*
X409004Y27568D01*
G01X433669Y-14383D02*
X435236D01*
Y-16273D01*
X434766Y-16903D01*
X434218Y-17323D01*
X433434Y-17533D01*
X432651Y-17323D01*
X432102Y-16903D01*
X431632Y-16273D01*
X431318Y-15538D01*
X431162Y-14698D01*
Y-13963D01*
X431318Y-13334D01*
X431632Y-12598D01*
X432102Y-11969D01*
X432572Y-11549D01*
X433199Y-11234D01*
X433747D01*
X434374Y-11444D01*
X434844Y-11864D01*
G01X441065Y-17533D02*
X437931D01*
Y-11234D01*
X441065D01*
G01X439812Y-14278D02*
X437931D01*
G01X443995Y-17533D02*
Y-11234D01*
X447600Y-17533D01*
Y-11234D01*
G01X451078Y-15433D02*
X453115D01*
G01X456437Y-11234D02*
X458396Y-17533D01*
X460355Y-11234D01*
G01X464695Y-17533D02*
Y-11234D01*
X463755Y-12494D01*
G01Y-17533D02*
X465635D01*
G01X420000Y-27000D02*
X426000Y-33000D01*
Y-21000D01*
X420000Y-27000D01*
G01X396000Y-9000D02*
X402000Y-15000D01*
Y-3000D01*
X396000Y-9000D01*
G01X411562Y-5833D02*
Y-8054D01*
X411715Y-8518D01*
X412021Y-8828D01*
X412404Y-8931D01*
X412788Y-8828D01*
X413094Y-8518D01*
X413247Y-8054D01*
Y-5833D01*
G01X414774Y-7641D02*
X415042Y-7279D01*
X415272Y-7072D01*
X415579Y-6969D01*
X415847Y-7072D01*
X416038Y-7279D01*
X416192Y-7589D01*
X416230Y-7950D01*
X416192Y-8260D01*
X416038Y-8570D01*
X415808Y-8828D01*
X415540Y-8931D01*
X415234Y-8828D01*
X414966Y-8518D01*
X414812Y-8054D01*
X414774Y-7537D01*
X414851Y-6866D01*
X414966Y-6505D01*
X415157Y-6143D01*
X415425Y-5885D01*
X415694Y-5833D01*
X415962Y-5936D01*
X416153Y-6195D01*
G01X476220Y-44842D02*
Y25158D01*
X496220D01*
Y-44842D01*
X476220D01*
G01X475000Y15000D02*
X469000Y21000D01*
Y9000D01*
X475000Y15000D01*
M02*
