G04 ================== begin FILE IDENTIFICATION RECORD ==================*
G04 Layout Name:  D:/project/IRISking/IKEMB001/project/hardware/amplifier/allegro/AMPLIFIER.brd*
G04 Film Name:    Top*
G04 File Format:  Gerber RS274X*
G04 File Origin:  15.7-p007*
G04 Origin Date:  Fri Sep 07 16:39:02 2007*
G04 *
G04 Layer:  VIA CLASS/TOP*
G04 Layer:  PIN/TOP*
G04 Layer:  ETCH/TOP*
G04 Layer:  BOARD GEOMETRY/OUTLINE*
G04 *
G04 Offset:    (0.000 0.000)*
G04 Mirror:    No*
G04 Mode:      Positive*
G04 Rotation:  0*
G04 FullContactRelief:  No*
G04 UndefLineWidth:     8.000*
G04 ================== end FILE IDENTIFICATION RECORD ====================*
%FSLAX55Y55*MOIN*%
%IR0*IPPOS*OFA0.00000B0.00000*MIA0B0*SFA1.00000B1.00000*%
%ADD11C,.2*%
%ADD16R,.04X.03*%
%ADD17R,.05X.025*%
%ADD18R,.062X.062*%
%ADD13C,.04*%
%ADD10C,.062*%
%ADD12R,.06X.06*%
%ADD15C,.022988*%
%ADD14C,.017988*%
%ADD19C,.01*%
%ADD20C,.02*%
%ADD21C,.03*%
%ADD22C,.008*%
%ADD23C,.078004*%
%ADD24R,.078004X.078004*%
G75*
%LPD*%
G75*
G36*
G01X370142Y-48450D02*
Y28358D01*
X452800D01*
G02X453085Y27672I0J-402D01*
G01X448130Y22717D01*
Y12716D01*
X455630Y5216D01*
X465630D01*
X473130Y12716D01*
Y22717D01*
X468175Y27672D01*
G02X468459Y28358I284J284D01*
G01X495401D01*
Y-48450D01*
X391281D01*
G02X390997Y-47764I0J402D01*
G01X396359Y-42402D01*
Y-32402D01*
X388858Y-24901D01*
X378858D01*
X371358Y-32402D01*
Y-42402D01*
X376720Y-47764D01*
G02X376436Y-48450I-284J-284D01*
G01X370142D01*
G37*
%LPC*%
G75*
G36*
G01X400173Y-18412D02*
X400185Y-18432D01*
X401142Y-19389D01*
X428935D01*
X432088Y-22542D01*
X483069D01*
X483130Y-22464D01*
G02Y-27221I3091J-2379D01*
G01X483069Y-27143D01*
X430183D01*
X427029Y-23989D01*
X412452D01*
Y-31597D01*
X404652D01*
Y-23989D01*
X399236D01*
X395917Y-20670D01*
Y-19623D01*
G02X400173Y-18412I2300J0D01*
G37*
G36*
G01X410511Y654D02*
X400783D01*
X400732Y656D01*
G02X399831Y884I101J2298D01*
G01X399789Y904D01*
X397533D01*
Y5004D01*
X399789D01*
X399831Y5024D01*
G02X400732Y5252I1002J-2070D01*
G01X400783Y5254D01*
X410511D01*
G02Y654I0J-2300D01*
G37*
G36*
G01X398388Y-4366D02*
X395885D01*
G02Y234I0J2300D01*
G01X396482D01*
X396502Y254D01*
X400884D01*
X400934Y252D01*
G02X401835Y24I-101J-2298D01*
G01X401877Y4D01*
X404133D01*
Y-4096D01*
X401877D01*
X401835Y-4116D01*
G02X400833Y-4346I-1002J2070D01*
G01X398408D01*
X398388Y-4366D01*
G37*
G36*
G01X426133Y-4096D02*
X419533D01*
Y4D01*
X426133D01*
Y-246D01*
X426568D01*
Y1623D01*
X426540Y1670D01*
G02X426511Y1722I1555J907D01*
G01X426454Y1827D01*
X426133D01*
Y904D01*
X419533D01*
Y5004D01*
X426133D01*
Y4635D01*
G03X426820Y4351I402J0D01*
G02X428925Y4676I1274J-1272D01*
G01X428969Y4653D01*
X435154D01*
G02Y1053I0J-1800D01*
G01X430168D01*
Y-1550D01*
X428863Y-3846D01*
X426133D01*
Y-4096D01*
G37*
G36*
G01X395852Y5652D02*
G02X393928Y9560I-297J2281D01*
G01X394623Y10254D01*
X400924D01*
Y10648D01*
X400732Y10656D01*
G02X399831Y10884I101J2298D01*
G01X399789Y10904D01*
X397533D01*
Y15004D01*
X398533D01*
Y22039D01*
X398927Y22433D01*
Y24280D01*
X406129D01*
X406179Y24314D01*
G02X408643Y24626I1548J-2334D01*
G01X408675Y24615D01*
X414589D01*
Y25615D01*
X422189D01*
Y18015D01*
X414589D01*
Y19015D01*
X406732D01*
X406067Y19680D01*
X403133D01*
Y15004D01*
X404133D01*
Y10904D01*
X401877D01*
X401835Y10884D01*
G02X401706Y10826I-1002J2070D01*
G03Y10082I153J-372D01*
G02X401835Y10024I-873J-2128D01*
G01X401877Y10004D01*
X404133D01*
Y5904D01*
X401877D01*
X401835Y5884D01*
G02X400934Y5656I-1002J2070D01*
G01X400884Y5654D01*
X395865D01*
X395852Y5652D01*
G37*
G36*
G01X428970Y5654D02*
X422833D01*
G02X421831Y5884I0J2300D01*
G01X421789Y5904D01*
X419533D01*
Y10004D01*
X421789D01*
X421831Y10024D01*
G02X421960Y10082I1002J-2070D01*
G03Y10826I-153J372D01*
G02X421831Y10884I873J2128D01*
G01X421789Y10904D01*
X419533D01*
Y15004D01*
X421789D01*
X421831Y15024D01*
G02X422833Y15254I1002J-2070D01*
G01X425321D01*
X427739Y17672D01*
G03X427596Y18015I-142J142D01*
G01X427589D01*
Y25615D01*
X435189D01*
Y18015D01*
X433079D01*
G03X432725Y17804I0J-402D01*
G01Y16152D01*
X432058Y15485D01*
G02X432052Y15478I-1630J1623D01*
G01X430471Y13898D01*
G03X430756Y13212I284J-284D01*
G02X431005Y7623I0J-2800D01*
G01X430933Y7616D01*
X428970Y5654D01*
G37*
G54D23*
X383858Y16968D03*
Y6968D03*
X486221Y5158D03*
X383858Y-3032D03*
X486221Y-4842D03*
Y-14842D03*
Y-34843D03*
X408552Y-37697D03*
G54D24*
X486221Y15157D03*
X383858Y-13032D03*
%LPD*%
G75*
G54D10*
X408552Y-37697D03*
X383858Y-3032D03*
Y6968D03*
Y16968D03*
X486221Y5158D03*
Y-4842D03*
Y-14842D03*
Y-24842D03*
Y-34843D03*
G54D20*
G01X435154Y2853D02*
X428368D01*
G01X422833Y-2046D02*
X427815D01*
X428368Y-1074D01*
Y2853D01*
G01D02*
X428094Y2579D01*
G01X428368Y2853D02*
X428094Y3079D01*
G54D11*
X383858Y-37402D03*
X460630Y17716D03*
G54D21*
G01X431389Y21815D02*
X430425Y20851D01*
Y17105D01*
X426274Y12954D01*
X422833D01*
G01X400833D02*
Y21086D01*
X401727Y21980D01*
G01X430756Y10412D02*
X430475D01*
X428017Y7954D01*
X422833D01*
G01X400833Y2954D02*
X410511D01*
G01X395885Y-2066D02*
X397435D01*
X397455Y-2046D01*
X400833D01*
G01Y7954D02*
X395576D01*
X395555Y7933D01*
G01X398217Y-19623D02*
Y-19717D01*
X400189Y-21689D01*
X427982D01*
X431136Y-24842D01*
X486221D01*
G54D12*
X431389Y21815D03*
X418389D03*
G54D22*
G01X369016Y29860D02*
Y-49764D01*
X496340D01*
Y29860D01*
X369016D01*
G54D13*
G01X418389Y21815D02*
X407892D01*
X407727Y21980D01*
X430756Y10412D03*
G54D14*
X410511Y2954D03*
X395555Y7933D03*
X435154Y2853D03*
X398217Y-19623D03*
G54D15*
X395885Y-2066D03*
X395679Y21785D03*
G54D16*
X401727Y21980D03*
X407727D03*
G54D17*
X422833Y7954D03*
Y12954D03*
Y2954D03*
Y-2046D03*
X400833Y12954D03*
Y7954D03*
Y2954D03*
Y-2046D03*
G54D18*
X408552Y-27697D03*
X383858Y-13032D03*
X486221Y15157D03*
G54D19*
G01X419332Y2954D02*
X422833D01*
G01Y703D02*
Y2954D01*
G01X383858Y2868D02*
Y6968D01*
G01D02*
Y11070D01*
G01X379757Y6968D02*
X383858D01*
G01D02*
X387959D01*
G01X383858Y12868D02*
Y16968D01*
G01D02*
Y21070D01*
G01X379757Y16968D02*
X383858D01*
G01D02*
X387959D01*
G01X486221Y-18944D02*
Y-14842D01*
G01D02*
Y-10742D01*
G01X482119Y-14842D02*
X486221D01*
G01D02*
X490322D01*
G01X486221Y-38944D02*
Y-34843D01*
G01D02*
Y-30742D01*
G01X482119Y-34843D02*
X486221D01*
G01D02*
X490322D01*
M02*
