G04 ================== begin FILE IDENTIFICATION RECORD ==================*
G04 Layout Name:  E:/EMB002/project/hardware/Mini-8139/Mini.brd*
G04 Film Name:    Silk_Top*
G04 File Format:  Gerber RS274X*
G04 File Origin:  15.7-p007*
G04 Origin Date:  Mon Aug 18 11:20:27 2008*
G04 *
G04 Layer:  REF DES/ASSEMBLY_TOP*
G04 Layer:  PACKAGE GEOMETRY/SILKSCREEN_TOP*
G04 Layer:  BOARD GEOMETRY/OUTLINE*
G04 *
G04 Offset:    (0.00 0.00)*
G04 Mirror:    No*
G04 Mode:      Positive*
G04 Rotation:  0*
G04 FullContactRelief:  No*
G04 UndefLineWidth:     8.00*
G04 ================== end FILE IDENTIFICATION RECORD ====================*
%FSLAX53Y53*MOIN*%
%IR0*IPPOS*OFA0.00000B0.00000*MIA0B0*SFA1.00000B1.00000*%
%ADD10C,.008*%
G75*
%LPD*%
G75*
G54D10*
G01X0Y866D02*
G02Y709I0J-79D01*
G01Y0D01*
X199D01*
Y126D01*
G01D02*
G02X258I30J0D01*
G01Y0D01*
X2346D01*
Y709D01*
G01X187Y515D02*
Y585D01*
X87D01*
Y565D01*
Y515D01*
G01X187Y334D02*
X87D01*
Y350D01*
X187D01*
Y334D01*
G01D02*
X87D01*
Y586D01*
X187D01*
Y334D01*
G01X202Y469D02*
X200Y465D01*
X198Y461D01*
Y456D01*
X200Y450D01*
X205Y446D01*
X210Y442D01*
X218Y440D01*
X226Y439D01*
X233Y440D01*
X238Y442D01*
X243Y446D01*
X246Y451D01*
X248Y455D01*
Y459D01*
X246Y464D01*
X244Y468D01*
X240Y471D01*
G01X242Y495D02*
X246Y500D01*
X248Y505D01*
X246Y510D01*
X241Y514D01*
X234Y517D01*
X226Y519D01*
X217D01*
X210Y517D01*
X203Y514D01*
X200Y510D01*
X198Y506D01*
X200Y501D01*
X203Y497D01*
X208Y495D01*
X215Y493D01*
X220Y495D01*
X226Y498D01*
X230Y502D01*
X230Y506D01*
X229Y511D01*
X225Y515D01*
X217Y519D01*
G01X212Y980D02*
Y1006D01*
X198Y992D01*
X212Y978D01*
Y980D01*
G01X241Y948D02*
X291D01*
Y1038D01*
X256D01*
G01X156D02*
X121D01*
Y948D01*
X171D01*
G01X291Y1038D02*
Y948D01*
X121D01*
Y1038D01*
X291D01*
G01X171Y865D02*
Y915D01*
X184D01*
X189Y912D01*
X193Y909D01*
X196Y904D01*
X198Y898D01*
X199Y890D01*
X198Y882D01*
X196Y876D01*
X193Y871D01*
X189Y868D01*
X184Y865D01*
X171D01*
G01X236D02*
Y915D01*
X228Y905D01*
G01Y865D02*
X244D01*
G01X642Y1797D02*
X-208D01*
Y1147D01*
X642D01*
Y1197D01*
G01X2346Y709D02*
G02Y866I0J79D01*
G01Y2006D01*
X0D01*
Y866D01*
G01X642Y1986D02*
Y1836D01*
X242D01*
Y1986D01*
X642D01*
G01X452Y407D02*
Y417D01*
X402D01*
Y392D01*
G01Y322D02*
Y297D01*
X452D01*
Y307D01*
G01X455Y295D02*
X399D01*
Y419D01*
X455D01*
Y295D01*
G01X384Y297D02*
X334D01*
Y313D01*
X336Y318D01*
X340Y321D01*
X347Y323D01*
X353Y321D01*
X357Y318D01*
X360Y313D01*
Y297D01*
G01Y313D02*
X384Y323D01*
G01Y361D02*
X334D01*
X344Y353D01*
G01X384D02*
Y369D01*
G01Y420D02*
X334D01*
X370Y396D01*
Y428D01*
G01X557Y407D02*
Y417D01*
X507D01*
Y392D01*
G01Y322D02*
Y297D01*
X557D01*
Y307D01*
G01X560Y295D02*
X504D01*
Y419D01*
X560D01*
Y295D01*
G01X627Y310D02*
X577D01*
Y326D01*
X580Y331D01*
X583Y334D01*
X590Y335D01*
X596Y334D01*
X600Y330D01*
X603Y326D01*
Y310D01*
G01Y326D02*
X627Y335D01*
G01X620Y360D02*
X624Y363D01*
X626Y368D01*
X627Y374D01*
X625Y379D01*
X622Y384D01*
X616Y387D01*
X610Y387D01*
X603Y386D01*
X599Y383D01*
X595Y379D01*
X594Y374D01*
X595Y370D01*
X599Y364D01*
X577Y366D01*
Y383D01*
G01X788Y406D02*
Y370D01*
X790Y363D01*
X795Y358D01*
X802Y356D01*
X808Y358D01*
X813Y363D01*
X815Y370D01*
Y406D01*
G01X852Y356D02*
Y406D01*
X845Y396D01*
G01Y356D02*
X860D01*
G01X642Y1197D02*
Y1797D01*
G01X409Y968D02*
X419D01*
Y1018D01*
X394D01*
G01X324D02*
X299D01*
Y968D01*
X309D01*
G01X297Y965D02*
Y1021D01*
X421D01*
Y965D01*
X297D01*
G01X317Y890D02*
Y940D01*
X333D01*
X338Y938D01*
X341Y934D01*
X342Y928D01*
X341Y921D01*
X337Y917D01*
X333Y914D01*
X317D01*
G01X333D02*
X342Y890D01*
G01X388D02*
Y940D01*
X365Y904D01*
X396D01*
G01X739Y1045D02*
X749D01*
Y1095D01*
X724D01*
G01X654D02*
X629D01*
Y1045D01*
X639D01*
G01X627Y1042D02*
Y1098D01*
X751D01*
Y1042D01*
X627D01*
G01X649Y964D02*
Y1014D01*
X665D01*
X670Y1012D01*
X673Y1008D01*
X674Y1002D01*
X673Y995D01*
X669Y991D01*
X665Y988D01*
X649D01*
G01X665D02*
X674Y964D01*
G01X700Y1006D02*
X704Y1011D01*
X709Y1013D01*
X714Y1014D01*
X720Y1012D01*
X725Y1008D01*
X726Y1003D01*
X725Y998D01*
X723Y994D01*
X710Y986D01*
X704Y980D01*
X700Y972D01*
X699Y964D01*
X726D01*
G01X613Y1045D02*
X623D01*
Y1095D01*
X598D01*
G01X528D02*
X503D01*
Y1045D01*
X513D01*
G01X501Y1042D02*
Y1098D01*
X625D01*
Y1042D01*
X501D01*
G01X523Y964D02*
Y1014D01*
X539D01*
X544Y1012D01*
X547Y1008D01*
X548Y1002D01*
X547Y995D01*
X543Y991D01*
X539Y988D01*
X523D01*
G01X539D02*
X548Y964D01*
G01X586D02*
Y1014D01*
X579Y1004D01*
G01Y964D02*
X594D01*
G01X725Y1944D02*
X721Y1946D01*
X717Y1948D01*
X712D01*
X706Y1946D01*
X702Y1941D01*
X698Y1936D01*
X696Y1928D01*
X695Y1920D01*
X696Y1913D01*
X698Y1908D01*
X702Y1903D01*
X707Y1900D01*
X711Y1898D01*
X715D01*
X720Y1900D01*
X724Y1902D01*
X727Y1906D01*
G01X750Y1940D02*
X754Y1945D01*
X758Y1947D01*
X763Y1948D01*
X770Y1946D01*
X774Y1942D01*
X775Y1937D01*
X775Y1932D01*
X772Y1928D01*
X759Y1920D01*
X754Y1914D01*
X750Y1906D01*
X749Y1898D01*
X775D01*
G01X821D02*
Y1948D01*
X797Y1912D01*
X829D01*
G01X1710Y466D02*
Y1018D01*
X922D01*
Y466D01*
X1710D01*
G01X1024Y569D02*
G03I-39J-39D01*
G01Y529D02*
G03I-39J0D01*
G01X1286Y1826D02*
X910D01*
Y1326D01*
X1286D01*
Y1826D01*
G01X1208Y1366D02*
G03I-23J0D01*
G01X1097Y1893D02*
X1100Y1888D01*
X1104Y1885D01*
X1108Y1883D01*
X1113Y1885D01*
X1117Y1888D01*
X1121Y1893D01*
X1122Y1900D01*
Y1933D01*
G01X1160Y1883D02*
Y1933D01*
X1153Y1923D01*
G01Y1883D02*
X1168D01*
G01X1654Y1002D02*
G03I0J-39D01*
G01X2124Y597D02*
Y397D01*
G01X2146Y572D02*
G03I-10J0D01*
G01X2106Y397D02*
Y597D01*
X2242D01*
Y397D01*
X2106D01*
G01X2122Y693D02*
Y657D01*
X2125Y650D01*
X2130Y645D01*
X2136Y643D01*
X2142Y645D01*
X2147Y650D01*
X2150Y657D01*
Y693D01*
G01X2175Y685D02*
X2179Y690D01*
X2183Y692D01*
X2188Y693D01*
X2195Y691D01*
X2199Y687D01*
X2200Y682D01*
X2200Y677D01*
X2197Y673D01*
X2184Y665D01*
X2179Y659D01*
X2175Y650D01*
X2174Y643D01*
X2200D01*
G01X2150Y925D02*
X2033D01*
Y975D01*
X2150D01*
Y925D01*
G01X2078Y809D02*
X2073Y810D01*
X2068Y813D01*
X2065Y818D01*
X2062Y824D01*
X2061Y831D01*
Y837D01*
X2062Y844D01*
X2065Y850D01*
X2068Y855D01*
X2073Y858D01*
X2078Y859D01*
X2083Y858D01*
X2088Y855D01*
X2091Y850D01*
X2094Y844D01*
X2095Y837D01*
Y831D01*
X2094Y824D01*
X2091Y818D01*
X2088Y813D01*
X2083Y810D01*
X2078Y809D01*
G01X2083Y822D02*
X2091Y809D01*
G01X2129D02*
Y859D01*
X2121Y849D01*
G01Y809D02*
X2137D01*
G01X2298Y1321D02*
Y1331D01*
X2248D01*
Y1306D01*
G01Y1236D02*
Y1211D01*
X2298D01*
Y1221D01*
G01X2301Y1209D02*
X2245D01*
Y1333D01*
X2301D01*
Y1209D01*
G01X2176Y1263D02*
X2174Y1260D01*
X2172Y1255D01*
Y1250D01*
X2174Y1244D01*
X2179Y1240D01*
X2184Y1237D01*
X2192Y1234D01*
X2200Y1234D01*
X2207Y1235D01*
X2212Y1237D01*
X2217Y1241D01*
X2220Y1245D01*
X2222Y1250D01*
Y1254D01*
X2220Y1258D01*
X2218Y1262D01*
X2214Y1265D01*
G01Y1287D02*
X2219Y1290D01*
X2221Y1295D01*
X2222Y1300D01*
X2220Y1306D01*
X2217Y1311D01*
X2211Y1314D01*
X2204Y1314D01*
X2198Y1313D01*
X2194Y1310D01*
X2190Y1306D01*
X2190Y1301D01*
X2190Y1297D01*
X2194Y1291D01*
X2172Y1293D01*
Y1310D01*
G01X2263Y1071D02*
Y1081D01*
X2213D01*
Y1056D01*
G01Y986D02*
Y961D01*
X2263D01*
Y971D01*
G01X2266Y959D02*
X2210D01*
Y1083D01*
X2266D01*
Y959D01*
G01X2135Y1040D02*
X2133Y1036D01*
X2131Y1032D01*
Y1027D01*
X2134Y1021D01*
X2138Y1016D01*
X2143Y1013D01*
X2151Y1011D01*
X2158Y1010D01*
X2166Y1011D01*
X2171Y1013D01*
X2176Y1017D01*
X2179Y1022D01*
X2181Y1026D01*
Y1030D01*
X2179Y1035D01*
X2177Y1039D01*
X2174Y1042D01*
G01X2181Y1077D02*
X2131D01*
X2141Y1069D01*
G01X2181D02*
Y1085D01*
G01Y1127D02*
X2170Y1128D01*
X2161Y1130D01*
X2153Y1132D01*
X2144Y1136D01*
X2131Y1141D01*
Y1115D01*
G01X1979Y1601D02*
X2129D01*
Y1201D01*
X1979D01*
Y1601D01*
G01X2294Y1582D02*
Y1592D01*
X2244D01*
Y1567D01*
G01Y1497D02*
Y1472D01*
X2294D01*
Y1482D01*
G01X2297Y1470D02*
X2241D01*
Y1594D01*
X2297D01*
Y1470D01*
G01X2171Y1524D02*
X2169Y1521D01*
X2167Y1516D01*
Y1511D01*
X2170Y1505D01*
X2174Y1501D01*
X2179Y1498D01*
X2187Y1495D01*
X2194Y1495D01*
X2202Y1496D01*
X2207Y1498D01*
X2212Y1502D01*
X2215Y1506D01*
X2217Y1510D01*
Y1515D01*
X2215Y1519D01*
X2213Y1523D01*
X2210Y1526D01*
G01X2217Y1569D02*
X2167D01*
X2203Y1546D01*
Y1577D01*
G01X2060Y1699D02*
X2038D01*
X2010Y1686D01*
G01Y1712D02*
X2038Y1699D01*
G01X2060Y1750D02*
X2010D01*
X2020Y1742D01*
G01X2060D02*
Y1758D01*
M02*
