G04 ================== begin FILE IDENTIFICATION RECORD ==================*
G04 Layout Name:  E:/EMB002/project/hardware/Mini-8139/Mini.brd*
G04 Film Name:    Solder_Bottom*
G04 File Format:  Gerber RS274X*
G04 File Origin:  15.7-p007*
G04 Origin Date:  Mon Aug 18 11:20:27 2008*
G04 *
G04 Layer:  PIN/SOLDERMASK_BOTTOM*
G04 Layer:  BOARD GEOMETRY/OUTLINE*
G04 *
G04 Offset:    (0.00 0.00)*
G04 Mirror:    No*
G04 Mode:      Positive*
G04 Rotation:  0*
G04 FullContactRelief:  No*
G04 UndefLineWidth:     8.00*
G04 ================== end FILE IDENTIFICATION RECORD ====================*
%FSLAX53Y53*MOIN*%
%IR0*IPPOS*OFA0.00000B0.00000*MIA0B0*SFA1.00000B1.00000*%
%ADD15C,.075*%
%ADD12C,.058*%
%ADD13C,.088*%
%AMMACRO10*
4,1,4,-.01575,-.09154,
.01575,-.09154,
.01575,.09153,
-.01575,.09153,
-.01575,-.09154,
0.0*
%
%ADD10MACRO10*%
%ADD16R,.036X.046*%
%ADD14R,.046X.036*%
%ADD11C,.138*%
%ADD17C,.008*%
G75*
%LPD*%
G75*
G54D10*
X163Y92D03*
X327D03*
X358D03*
X390D03*
X421D03*
X453D03*
X484D03*
X516D03*
X547D03*
X579D03*
X610D03*
X642D03*
X673D03*
X705D03*
X736D03*
X768D03*
X799D03*
X831D03*
X862D03*
X894D03*
X925D03*
X957D03*
X988D03*
X1020D03*
X1051D03*
X1083D03*
X1114D03*
X1146D03*
X1177D03*
X1209D03*
X1240D03*
X1272D03*
X1303D03*
X1335D03*
X1366D03*
X1398D03*
X1429D03*
X1461D03*
X1492D03*
X1524D03*
X1555D03*
X1587D03*
X1618D03*
X1650D03*
X1681D03*
X1713D03*
X1744D03*
X1776D03*
X1807D03*
X1839D03*
X1870D03*
X1902D03*
X1933D03*
X1965D03*
X1996D03*
X2028D03*
X2059D03*
X2091D03*
X2122D03*
X2154D03*
X2185D03*
X2217D03*
G54D11*
X215Y1262D03*
Y1683D03*
G54D12*
X467Y1347D03*
X567Y1297D03*
X467Y1647D03*
X567Y1597D03*
X467Y1547D03*
X567Y1497D03*
X467Y1447D03*
X567Y1397D03*
G54D13*
X342Y1176D03*
Y1769D03*
G54D14*
X718Y1298D03*
X778D03*
X717Y1575D03*
X777D03*
X778Y1701D03*
X718D03*
X777Y1451D03*
X717D03*
X1042Y617D03*
X982D03*
X1042Y559D03*
X982D03*
X1042Y750D03*
X982D03*
X1580Y706D03*
X1640D03*
X1580Y578D03*
X1640D03*
X1585Y1451D03*
X1525D03*
X1522Y1702D03*
X1582D03*
X1680Y1451D03*
X1740D03*
X1735Y1702D03*
X1675D03*
X1525Y1510D03*
X1585D03*
X1525Y1393D03*
X1585D03*
X1582Y1644D03*
X1522D03*
X1582Y1763D03*
X1522D03*
G54D15*
X542Y1911D03*
X342D03*
X2054Y1301D03*
Y1501D03*
G54D16*
X1329Y962D03*
Y902D03*
X1071Y964D03*
Y904D03*
X1201Y963D03*
Y903D03*
X1481Y578D03*
Y518D03*
X1678Y903D03*
Y963D03*
X1525Y903D03*
Y963D03*
X1468D03*
Y903D03*
X2167Y512D03*
Y572D03*
G54D17*
G01X0Y866D02*
G02Y709I0J-79D01*
G01Y0D01*
X199D01*
Y126D01*
G01D02*
G02X258I30J0D01*
G01Y0D01*
X2346D01*
Y709D01*
G01D02*
G02Y866I0J79D01*
G01Y2006D01*
X0D01*
Y866D01*
M02*
