G04 ================== begin FILE IDENTIFICATION RECORD ==================*
G04 Layout Name:  E:/EMB002/project/hardware/ikemb-0002-v2/12-ikemb-0002-v2_H5007.brd*
G04 Film Name:    Gnd3*
G04 File Format:  Gerber RS274X*
G04 File Origin:  15.7-p007*
G04 Origin Date:  Wed Jun 18 10:19:01 2008*
G04 *
G04 Layer:  VIA CLASS/GND3*
G04 Layer:  PIN/GND3*
G04 Layer:  ETCH/GND3*
G04 Layer:  BOARD GEOMETRY/OUTLINE*
G04 *
G04 Offset:    (0.000 0.000)*
G04 Mirror:    No*
G04 Mode:      Positive*
G04 Rotation:  0*
G04 FullContactRelief:  No*
G04 UndefLineWidth:     8.000*
G04 ================== end FILE IDENTIFICATION RECORD ====================*
%FSLAX55Y55*MOIN*%
%IR0*IPPOS*OFA0.00000B0.00000*MIA0B0*SFA1.00000B1.00000*%
%ADD26R,.05X.12*%
%ADD25R,.12X.05*%
%ADD10C,.2*%
%ADD11C,.12*%
%ADD23C,.12598*%
%ADD17C,.04*%
%ADD13C,.05*%
%ADD16C,.032012*%
%ADD15C,.036*%
%ADD18C,.055*%
%ADD14C,.0433*%
%ADD21C,.083*%
%ADD24C,.04724*%
%ADD20C,.05984*%
%ADD19C,.06299*%
%ADD22R,.05984X.05984*%
%ADD12C,.017988*%
%ADD27C,.008*%
%ADD37C,.212204*%
%ADD30C,.132204*%
%ADD32R,.062204X.132204*%
%ADD31R,.132204X.062204*%
%ADD40C,.138184*%
%ADD35C,.052204*%
%ADD38C,.062204*%
%ADD28C,.030192*%
%ADD41C,.072044*%
%ADD33C,.044216*%
%ADD34C,.048204*%
%ADD39C,.055504*%
%ADD36C,.067204*%
%ADD29C,.026192*%
%ADD42R,.072044X.072044*%
%ADD43C,.059444*%
G75*
%LPD*%
G75*
G36*
G01X355000Y-48100D02*
Y500D01*
X93000D01*
X92500Y1000D01*
Y373500D01*
X127035D01*
G02X127350Y372848I0J-402D01*
G03X129718I1184J-937D01*
G02X130033Y373500I315J250D01*
G01X131223D01*
G02X131524Y372831I0J-402D01*
G03X133784I1130J-1001D01*
G02X134085Y373500I301J267D01*
G01X187891D01*
G02X188227Y372877I0J-402D01*
G03X190751I1262J-829D01*
G02X191087Y373500I336J221D01*
G01X195351D01*
G02X195687Y372877I0J-402D01*
G03X198211I1262J-829D01*
G02X198547Y373500I336J221D01*
G01X205824D01*
G02X206165Y372885I0J-402D01*
G03X208727I1281J-799D01*
G02X209068Y373500I341J213D01*
G01X211313D01*
G02X211649Y372877I0J-402D01*
G03X214173I1262J-829D01*
G02X214509Y373500I336J221D01*
G01X221156D01*
G02X221492Y372877I0J-402D01*
G03X224015I1262J-829D01*
G02X224351Y373500I336J221D01*
G01X225973D01*
G02X226309Y372877I0J-402D01*
G03X228778Y371142I1262J-829D01*
G02X229421I321J-241D01*
G03X231889Y372877I1207J907D01*
G02X232225Y373500I336J221D01*
G01X234935D01*
G02X235271Y372877I0J-402D01*
G03X237835Y371285I1262J-829D01*
G02X238529I347J-203D01*
G03X240860Y370944I1302J764D01*
G02X241409I274J-294D01*
G03X243700Y372877I1030J1104D01*
G02X244036Y373500I336J221D01*
G01X248289D01*
G02X248625Y372877I0J-402D01*
G03X251149I1262J-829D01*
G02X251485Y373500I336J221D01*
G01X253323D01*
G02X253664Y372886I0J-402D01*
G03X256228I1282J-797D01*
G02X256569Y373500I341J212D01*
G01X263423D01*
G02X263764Y372886I0J-402D01*
G03X266328I1282J-797D01*
G02X266669Y373500I341J212D01*
G01X590000D01*
Y158448D01*
G02X589291Y158188I-402J0D01*
G03Y154812I-1991J-1688D01*
G02X590000Y154552I307J-260D01*
G01Y139000D01*
X547352D01*
G02X546978Y139549I0J402D01*
G03X546356Y141391I-1405J552D01*
G02Y142078I209J344D01*
G03X546356Y144658I-784J1290D01*
G02Y145346I209J344D01*
G03X546356Y147926I-784J1290D01*
G02Y148613I209J344D01*
G03X544789I-784J1290D01*
G02Y147926I-209J-344D01*
G03X544789Y145346I784J-1290D01*
G02Y144658I-209J-344D01*
G03X544789Y142078I784J-1290D01*
G02Y141391I-209J-344D01*
G03X544167Y139549I784J-1290D01*
G02X543793Y139000I-374J-147D01*
G01X472714D01*
G02X472313Y139428I0J402D01*
G03X468759Y141320I-2206J140D01*
G02X468115Y141591I-245J319D01*
G03X467313Y140071I-1499J-181D01*
G02X467900Y139692I186J-357D01*
G03X467901Y139428I2207J-124D01*
G02X467500Y139000I-401J-25D01*
G01X447500D01*
X447400Y138900D01*
Y-47600D01*
X446900Y-48100D01*
X355000D01*
G37*
G36*
G01X451600D02*
Y105763D01*
X451612Y105795D01*
G03Y106813I-1421J509D01*
G01X451600Y106845D01*
Y110616D01*
X451619Y110656D01*
G03Y111932I-1368J638D01*
G01X451600Y111972D01*
Y120316D01*
X451624Y120360D01*
G03Y121780I-1332J710D01*
G01X451600Y121824D01*
Y137500D01*
X469324D01*
X469358Y137488D01*
G03X470856I749J2080D01*
G01X470890Y137500D01*
X590000D01*
Y9500D01*
X590000Y-47400D01*
X589300Y-48100D01*
X518482D01*
G02X518322Y-47329I0J402D01*
G03X509866I-4228J9731D01*
G02X509706Y-48100I-160J-369D01*
G01X451600D01*
G37*
%LPC*%
G75*
G36*
G01X249416Y365319D02*
G02X249212Y367617I-1072J1063D01*
G03X249728Y367663I231J329D01*
G02X251827Y367707I1072J-1063D01*
G03X252373I273J295D01*
G02Y365493I1027J-1107D01*
G03X251827I-273J-295D01*
G02X249932Y365365I-1027J1107D01*
G03X249416Y365319I-231J-329D01*
G37*
G36*
G01X216503Y367743D02*
G02X215909Y365533I654J-1361D01*
G03X215402Y365669I-332J-226D01*
G02X215996Y367879I-654J1361D01*
G03X216503Y367743I332J226D01*
G37*
G36*
G01X325878Y360885D02*
G02X325005Y361845I-1278J-285D01*
G03X325522Y362315I124J382D01*
G02X326395Y361355I1278J285D01*
G03X325878Y360885I-124J-382D01*
G37*
G36*
G01X477178Y359785D02*
G02X476305Y360745I-1278J-285D01*
G03X476822Y361215I124J382D01*
G02X477695Y360255I1278J285D01*
G03X477178Y359785I-124J-382D01*
G37*
G36*
G01X328078Y358485D02*
G02X327205Y359445I-1278J-285D01*
G03X327722Y359915I124J382D01*
G02X328595Y358955I1278J285D01*
G03X328078Y358485I-124J-382D01*
G37*
G36*
G01X456878Y357985D02*
G02X456005Y358945I-1278J-285D01*
G03X456522Y359415I124J382D01*
G02X457395Y358455I1278J285D01*
G03X456878Y357985I-124J-382D01*
G37*
G36*
G01X236479Y359168D02*
G02X235032Y357496I54J-1509D01*
G03X234618Y357855I-400J-44D01*
G02X236065Y359527I-54J1509D01*
G03X236479Y359168I400J44D01*
G37*
G36*
G01X305478Y357685D02*
G02X304605Y358645I-1278J-285D01*
G03X305122Y359115I124J382D01*
G02X305995Y358155I1278J285D01*
G03X305478Y357685I-124J-382D01*
G37*
G36*
G01X212864Y358863D02*
G02X211403Y357432I47J-1509D01*
G03X210989Y357854I-401J21D01*
G02X212450Y359285I-47J1509D01*
G03X212864Y358863I401J-21D01*
G37*
G36*
G01X192765Y357432D02*
G02X191304Y358863I-1508J-78D01*
G03X191718Y359285I12J402D01*
G02X193179Y357854I1508J78D01*
G03X192765Y357432I-12J-402D01*
G37*
G36*
G01X208929Y357354D02*
G02X207360Y355682I-68J-1508D01*
G03X206978Y356041I-400J-43D01*
G02X205539Y357474I68J1508D01*
G03X205116Y357856I-402J-20D01*
G02X206545Y359438I-79J1508D01*
G03X206967Y359056I402J20D01*
G02X208547Y357712I79J-1508D01*
G03X208929Y357354I400J43D01*
G37*
G36*
G01X200479Y355496D02*
G02X199152Y357150I-1502J154D01*
G03X199598Y357508I47J399D01*
G02X199618Y357639I1502J-154D01*
G03X199386Y357875I-197J38D01*
G02X200639Y359285I-255J1488D01*
G03X201053Y358863I401J-21D01*
G02X202601Y357517I47J-1509D01*
G03X203015Y357159I400J44D01*
G02X201568Y355487I54J-1509D01*
G03X201154Y355845I-400J-44D01*
G02X200925Y355854I-54J1509D01*
G03X200479Y355496I-47J-399D01*
G37*
G36*
G01X264045Y356853D02*
G02X262584Y355422I47J-1509D01*
G03X262171Y355845I-401J21D01*
G02X263631Y357276I-47J1509D01*
G03X264045Y356853I401J-21D01*
G37*
G36*
G01X217787Y355920D02*
G02X215722Y356034I-1093J-1041D01*
G03X215755Y356619I-259J308D01*
G02X217820Y356505I1093J1041D01*
G03X217787Y355920I259J-308D01*
G37*
G36*
G01X189357Y355455D02*
G02X187788Y353784I-68J-1508D01*
G03X187407Y354142I-400J-43D01*
G02X188975Y355814I68J1508D01*
G03X189357Y355455I400J43D01*
G37*
G36*
G01X252228Y352741D02*
G02X250779Y351384I53J-1509D01*
G03X250365Y351826I-400J40D01*
G02X251815Y353183I-53J1509D01*
G03X252228Y352741I400J-40D01*
G37*
G36*
G01X228577Y351208D02*
G02X226994Y349798I-77J-1508D01*
G03X226613Y350226I-401J26D01*
G02X225183Y351658I77J1508D01*
G03X224801Y352040I-402J-20D01*
G02X224702Y352048I74J1508D01*
G03X224255Y351690I-47J-399D01*
G02X221252I-1502J154D01*
G03X220805Y352048I-400J-41D01*
G02X220699Y352040I-175J1499D01*
G03X220317Y351682I18J-402D01*
G02X218749Y353353I-1501J163D01*
G03X219130Y353711I-18J402D01*
G02X219631Y354679I1501J-163D01*
G03X219649Y354962I-133J151D01*
G02X221785Y354825I1136J995D01*
G03X221767Y354542I133J-151D01*
G02X222133Y353702I-1136J-995D01*
G03X222579Y353344I400J41D01*
G02X222928I175J-1499D01*
G03X223374Y353702I47J399D01*
G02X224083Y354832I1502J-154D01*
G03X224018Y355548I-211J342D01*
G02X223568Y358086I550J1406D01*
G03X223586Y358369I-133J151D01*
G02X225722Y358232I1136J995D01*
G03X225704Y357949I133J-151D01*
G02X225361Y355670I-1136J-995D01*
G03X225426Y354954I211J-342D01*
G02X226384Y353623I-550J-1406D01*
G03X226765Y353241I402J20D01*
G02X228197Y351635I-75J-1508D01*
G03X228577Y351208I401J-26D01*
G37*
G36*
G01X184742Y338787D02*
G02X182458I-1142J-987D01*
G03Y339313I-304J263D01*
G02X184742I1142J987D01*
G03Y338787I304J-263D01*
G37*
G36*
G01X316569Y335709D02*
G02X316527Y336968I-1169J591D01*
G03X317231Y336991I346J205D01*
G02X317273Y335732I1169J-591D01*
G03X316569Y335709I-346J-205D01*
G37*
G36*
G01X446257Y336508D02*
G02X445924Y335304I943J-908D01*
G03X445243Y335492I-392J-91D01*
G02X445576Y336696I-943J908D01*
G03X446257Y336508I392J91D01*
G37*
G36*
G01X350889Y331431D02*
G02X349765Y332499I-1289J-231D01*
G03X350211Y332969I51J399D01*
G02X351335Y331901I1289J231D01*
G03X350889Y331431I-51J-399D01*
G37*
G36*
G01X305464Y331473D02*
G02X302936I-1264J-343D01*
G03X302420Y331959I-388J105D01*
G02X303264Y332857I-420J1241D01*
G03X303780Y332371I388J-105D01*
G02X304620I420J-1241D01*
G03X305136Y332857I129J381D01*
G02X305980Y331959I1264J343D01*
G03X305464Y331473I-129J-381D01*
G37*
G36*
G01X416182Y331524D02*
G02X416075Y330029I1018J-824D01*
G03X415418Y330076I-345J-206D01*
G02X415525Y331571I-1018J824D01*
G03X416182Y331524I345J206D01*
G37*
G36*
G01X287268Y329622D02*
G02X286160Y330302I-1149J-629D01*
G03X286525Y330897I13J402D01*
G02X288068Y332775I1149J629D01*
G03X288591Y333145I121J383D01*
G02X289506Y331851I1309J-45D01*
G03X288983Y331482I-121J-383D01*
G02X288940Y331189I-1309J44D01*
G01X289249Y330973D01*
G02X288691Y329922I751J-1073D01*
G03X288144Y330304I-402J7D01*
G02X287633Y330217I-470J1222D01*
G03X287268Y329622I-13J-402D01*
G37*
G36*
G01X435256Y328005D02*
G02X432992Y328970I-956J895D01*
G03X432617Y329393I-401J22D01*
G02X434008Y330630I84J1307D01*
G03X434384Y330207I401J-22D01*
G02X435256Y329795I-83J-1307D01*
G03X435844I294J275D01*
G02Y328005I956J-895D01*
G03X435256I-294J-275D01*
G37*
G36*
G01X483334Y328918D02*
G02X481466I-934J-918D01*
G03Y329482I-287J282D01*
G02X483334I934J918D01*
G03Y328918I287J-282D01*
G37*
G36*
G01X301383Y326514D02*
G02X300320Y325144I244J-1287D01*
G03X299844Y325513I-401J-25D01*
G02X300907Y326883I-244J1287D01*
G03X301383Y326514I401J25D01*
G37*
G36*
G01X429876Y325654D02*
G02X428206Y324599I-376J-1254D01*
G03X427924Y325046I-397J61D01*
G02X429594Y326101I376J1254D01*
G03X429876Y325654I397J-61D01*
G37*
G36*
G01X364773Y325176D02*
G02X363486Y325443I-873J-976D01*
G03X363627Y326124I-127J381D01*
G02X363767Y328186I873J976D01*
G03X363744Y328867I-225J333D01*
G02X363686Y331098I656J1133D01*
G03X363710Y331756I-219J337D01*
G02X365214Y331702I790J1044D01*
G03X365190Y331044I219J-337D01*
G02X365133Y328914I-790J-1044D01*
G03X365156Y328233I225J-333D01*
G02X364914Y325858I-656J-1133D01*
G03X364773Y325176I127J-381D01*
G37*
G36*
G01X475063Y325282D02*
G02X473325Y324678I-563J-1182D01*
G03X473137Y325218I-361J177D01*
G02X474875Y325822I563J1182D01*
G03X475063Y325282I361J-177D01*
G37*
G36*
G01X493654Y325128D02*
G02X492134Y324661I-454J-1228D01*
G03X491946Y325272I-327J234D01*
G02X493466Y325739I454J1228D01*
G03X493654Y325128I327J-234D01*
G37*
G36*
G01X417808Y324244D02*
G02X416380Y323821I-408J-1244D01*
G03X416192Y324456I-313J252D01*
G02X417620Y324879I408J1244D01*
G03X417808Y324244I313J-252D01*
G37*
G36*
G01X437349Y323638D02*
G02X435592Y323199I-649J-1138D01*
G03X435451Y323762I-340J214D01*
G02X437208Y324201I649J1138D01*
G03X437349Y323638I340J-214D01*
G37*
G36*
G01X464602Y321409D02*
G02X463368Y321286I-502J-1209D01*
G03X463298Y321991I-225J333D01*
G02X464532Y322114I502J1209D01*
G03X464602Y321409I225J-333D01*
G37*
G36*
G01X259728Y319918D02*
G02X258249Y321592I-1501J164D01*
G03X258654Y321950I6J402D01*
G02X260134Y320277I1501J-164D01*
G03X259728Y319918I-6J-402D01*
G37*
G36*
G01X245915Y320161D02*
G02X242899I-1508J-78D01*
G03X242486Y320583I-401J21D01*
G02X243946Y322014I-47J1509D01*
G03X244360Y321592I401J-21D01*
G02X244454I47J-1509D01*
G03X244868Y322014I12J402D01*
G02X247883I1508J78D01*
G03X248297Y321592I401J-21D01*
G02X248391I47J-1509D01*
G03X248805Y322014I13J402D01*
G02X250360Y323601I1508J78D01*
G03X250774Y324024I12J402D01*
G02X252234Y322593I1508J78D01*
G03X251820Y322170I-12J-402D01*
G02X250266Y320583I-1508J-78D01*
G03X249852Y320161I-13J-402D01*
G02X246836I-1508J-78D01*
G03X246422Y320583I-401J21D01*
G02X246328I-47J1509D01*
G03X245915Y320161I-12J-402D01*
G37*
G36*
G01X238454Y321592D02*
G02X236994Y320161I47J-1509D01*
G03X236580Y320583I-401J21D01*
G02X238041Y322014I-47J1509D01*
G03X238454Y321592I401J-21D01*
G37*
G36*
G01X228191Y319919D02*
G02X226744Y321591I-1501J163D01*
G03X227158Y321950I14J402D01*
G02X227185Y322110I1501J-164D01*
G03X226826Y322597I-393J86D01*
G02X226029Y322910I129J1504D01*
G03X225470Y322847I-247J-317D01*
G02X225227Y324992I-1170J953D01*
G03X225785Y325055I247J317D01*
G02X228430Y323777I1170J-953D01*
G03X228788Y323290I393J-86D01*
G02X228887Y323278I-130J-1504D01*
G03X229118Y323479I30J199D01*
G02X230574Y321981I1510J11D01*
G03X230160Y321623I-14J-402D01*
G02X228605Y320278I-1501J164D01*
G03X228191Y319919I-14J-402D01*
G37*
G36*
G01X212450Y320161D02*
G02X210989Y321592I-1508J-78D01*
G03X211403Y322014I12J402D01*
G02X214419I1508J78D01*
G03X214832Y321592I401J-21D01*
G02X214933Y321591I46J-1509D01*
G03X215347Y321950I14J402D01*
G02X216882Y323295I1501J-164D01*
G03X217292Y323677I9J402D01*
G02X220308Y323676I1508J-77D01*
G03X220725Y323295I401J20D01*
G02X222286Y321950I60J-1508D01*
G03X222700Y321591I400J44D01*
G02X221253Y319919I54J-1509D01*
G03X220839Y320278I-400J-44D01*
G02X219277Y321710I-54J1509D01*
G03X218860Y322092I-401J-20D01*
G02X218766Y322091I-60J1508D01*
G03X218356Y321709I-9J-402D01*
G02X216794Y320278I-1508J77D01*
G03X216380Y319919I-14J-402D01*
G02X213372Y320161I-1501J164D01*
G03X212958Y320583I-401J21D01*
G02X212864I-47J1509D01*
G03X212450Y320161I-12J-402D01*
G37*
G36*
G01X200639D02*
G02X197624I-1508J-78D01*
G03X197210Y320583I-401J21D01*
G02X195655Y322170I-47J1509D01*
G03X195241Y322593I-401J21D01*
G02X196702Y324024I-47J1509D01*
G03X197116Y323601I401J-21D01*
G02X198670Y322014I47J-1509D01*
G03X199084Y321592I401J-21D01*
G02X199178I47J-1509D01*
G03X199592Y322014I13J402D01*
G02X201269Y323592I1508J78D01*
G03X201715Y324015I45J399D01*
G02X203054Y322602I1507J87D01*
G03X202607Y322179I-45J-399D01*
G02X202608Y322015I-1507J-87D01*
G03X203013Y321592I401J-21D01*
G02X201520Y320160I15J-1510D01*
G03X201115Y320583I-401J21D01*
G02X201053Y320583I-16J1510D01*
G03X200639Y320161I-13J-402D01*
G37*
G36*
G01X191210Y321592D02*
G02X189750Y320161I47J-1509D01*
G03X189336Y320583I-401J21D01*
G02X190796Y322014I-47J1509D01*
G03X191210Y321592I401J-21D01*
G37*
G36*
G01X437953Y315271D02*
G02X436447I-753J-1071D01*
G03Y315929I-231J329D01*
G02X437953I753J1071D01*
G03Y315271I231J-329D01*
G37*
G36*
G01X248314Y312870D02*
G02X246803Y311196I-11J-1510D01*
G03X246406Y311554I-400J-44D01*
G02X247917Y313228I11J1510D01*
G03X248314Y312870I400J44D01*
G37*
G36*
G01X255757Y311133D02*
G02X252742Y311132I-1508J-78D01*
G03X252337Y311554I-401J21D01*
G02X253830Y312987I-15J1510D01*
G03X254235Y312564I401J-21D01*
G02X254297Y312564I16J-1510D01*
G03X254711Y312986I12J402D01*
G02X257726I1508J78D01*
G03X258140Y312564I401J-21D01*
G02X256679Y311133I47J-1509D01*
G03X256265Y311555I-401J21D01*
G02X256171I-47J1509D01*
G03X255757Y311133I-12J-402D01*
G37*
G36*
G01X204576D02*
G02X201561I-1508J-78D01*
G03X201147Y311555I-401J21D01*
G02X202608Y312986I-47J1509D01*
G03X203022Y312564I401J-21D01*
G02X203116I47J-1509D01*
G03X203529Y312986I12J402D01*
G02X206545I1508J78D01*
G03X206958Y312564I401J-21D01*
G02X205498Y311133I47J-1509D01*
G03X205084Y311555I-401J21D01*
G02X204990I-47J1509D01*
G03X204576Y311133I-12J-402D01*
G37*
G36*
G01X265205Y311718D02*
G02X263061I-1072J-1063D01*
G03Y312001I-143J142D01*
G02X265205I1072J1063D01*
G03Y311718I143J-141D01*
G37*
G36*
G01X214826Y310860D02*
G02X213379Y309188I54J-1509D01*
G03X212965Y309546I-400J-44D01*
G02X214412Y311218I-54J1509D01*
G03X214826Y310860I400J44D01*
G37*
G36*
G01X184840Y309042D02*
G02X183481Y310152I-1457J-396D01*
G03X183895Y310659I26J401D01*
G02X183844Y311133I1457J396D01*
G03X183430Y311555I-401J21D01*
G02X184891Y312986I-47J1509D01*
G03X185305Y312564I401J-21D01*
G02X185399I47J-1509D01*
G03X185813Y312986I12J402D01*
G02X188828I1508J78D01*
G03X189242Y312564I401J-21D01*
G02X189336I47J-1509D01*
G03X189750Y312986I12J402D01*
G02X192765I1508J78D01*
G03X193179Y312564I401J-21D01*
G02X194734Y310977I47J-1509D01*
G03X195147Y310554I401J-21D01*
G02X193687Y309123I47J-1509D01*
G03X193273Y309546I-401J21D01*
G02X191718Y311133I-47J1509D01*
G03X191304Y311555I-401J21D01*
G02X191210I-47J1509D01*
G03X190796Y311133I-12J-402D01*
G02X187781I-1508J-78D01*
G03X187367Y311555I-401J21D01*
G02X187273I-47J1509D01*
G03X186860Y311133I-12J-402D01*
G02X185254Y309548I-1508J-78D01*
G03X184840Y309042I-26J-401D01*
G37*
G36*
G01X225888Y308621D02*
G02X223796Y308311I-888J-1221D01*
G03X223712Y308879I-321J243D01*
G02X223697Y311310I888J1221D01*
G03X223722Y311933I-241J322D01*
G02X225625Y311854I1000J1131D01*
G03X225600Y311231I241J-322D01*
G02X225804Y309189I-1000J-1131D01*
G03X225888Y308621I321J-243D01*
G37*
G36*
G01X323563Y305935D02*
G02X323503Y307542I-1063J765D01*
G03X324137Y307565I308J258D01*
G02X324197Y305958I1063J-765D01*
G03X323563Y305935I-308J-258D01*
G37*
G36*
G01X263540Y302459D02*
G02X262681Y301379I621J-1376D01*
G03X262121Y301824I-394J79D01*
G02X262980Y302904I-621J1376D01*
G03X263540Y302459I394J-79D01*
G37*
G36*
G01X390865Y301514D02*
G02X389246Y300910I-465J-1224D01*
G03X389035Y301476I-354J190D01*
G02X390654Y302080I465J1224D01*
G03X390865Y301514I354J-190D01*
G37*
G36*
G01X184876Y294868D02*
G02X182732I-1072J-1063D01*
G03Y295152I-143J141D01*
G02X184876I1072J1063D01*
G03Y294868I143J-142D01*
G37*
G36*
G01X244334Y293864D02*
G02X243294Y292950I366J-1465D01*
G03X242822Y293487I-374J147D01*
G02X243862Y294401I-366J1465D01*
G03X244334Y293864I374J-147D01*
G37*
G36*
G01X250289Y290454D02*
G02X248811Y292210I-1489J246D01*
G03X249211Y292546I3J402D01*
G02X250689Y290790I1489J-246D01*
G03X250289Y290454I-3J-402D01*
G37*
G36*
G01X216113Y290235D02*
G02X215071Y291236I-1439J-455D01*
G03X215561Y291745I106J388D01*
G02X216603Y290744I1439J455D01*
G03X216113Y290235I-106J-388D01*
G37*
G36*
G01X254187Y288236D02*
G02X252740Y289908I-1501J163D01*
G03X253154Y290266I14J402D01*
G02X256155I1501J-164D01*
G03X256570Y289908I400J44D01*
G02X256677I54J-1509D01*
G03X257091Y290266I14J402D01*
G02X258538Y288594I1501J-163D01*
G03X258124Y288236I-14J-402D01*
G02X255123I-1501J164D01*
G03X254709Y288594I-400J-44D01*
G02X254601I-54J1509D01*
G03X254187Y288236I-14J-402D01*
G37*
G36*
G01X236088D02*
G02X233137Y287981I-1501J164D01*
G03X232635Y288254I-386J-112D01*
G02X231485Y288370I-435J1446D01*
G03X230939Y288202I-190J-354D01*
G02X228531Y287834I-1339J698D01*
G03X227942Y287813I-285J-284D01*
G02X227869Y289866I-1142J987D01*
G03X228458Y289887I285J284D01*
G02X230315Y290230I1142J-987D01*
G03X230861Y290398I190J354D01*
G02X233650Y290118I1339J-698D01*
G03X234153Y289845I386J112D01*
G02X234641Y289908I435J-1446D01*
G03X235055Y290266I14J402D01*
G02X238057Y290265I1501J-164D01*
G03X238479Y289907I400J43D01*
G02X237064Y288237I86J-1507D01*
G03X236642Y288596I-400J-43D01*
G02X236502Y288594I-85J1507D01*
G03X236088Y288236I-14J-402D01*
G37*
G36*
G01X219957Y287913D02*
G02X218511Y289585I-1501J163D01*
G03X218925Y289943I14J402D01*
G02X221926I1501J-164D01*
G03X222340Y289585I400J44D01*
G02X220893Y287913I54J-1509D01*
G03X220479Y288271I-400J-44D01*
G02X220372I-54J1509D01*
G03X219957Y287913I-14J-402D01*
G37*
G36*
G01X210190Y289567D02*
G02X208986Y287631I239J-1491D01*
G03X208539Y287909I-384J-119D01*
G02X207929Y287937I-239J1491D01*
G03X207445Y287663I-99J-390D01*
G02X204889Y287078I-1445J437D01*
G03X204342Y287120I-296J-272D01*
G02X202014Y287701I-942J1180D01*
G03X201552Y287932I-369J-160D01*
G02X200393Y288124I-352J1468D01*
G03X199825Y287977I-215J-340D01*
G02X197273Y287820I-1325J723D01*
G03X196768Y287946I-327J-234D01*
G02X195067Y288199I-669J1353D01*
G03X194542Y288220I-275J-293D01*
G02X193107Y287973I-941J1180D01*
G03X192603Y287742I-131J-380D01*
G02X191693Y289727I-1403J558D01*
G03X192197Y289958I131J380D01*
G02X194633Y290501I1403J-558D01*
G03X195158Y290480I275J293D01*
G02X197327Y290180I942J-1180D01*
G03X197832Y290054I327J234D01*
G02X199307Y289976I669J-1354D01*
G03X199875Y290123I215J340D01*
G02X202586Y289999I1325J-723D01*
G03X203048Y289768I369J160D01*
G02X204511Y289322I352J-1468D01*
G03X205058Y289280I296J272D01*
G02X206371Y289563I942J-1180D01*
G03X206855Y289837I99J390D01*
G02X209742Y289845I1445J-437D01*
G03X210190Y289567I384J119D01*
G37*
G36*
G01X264571Y286956D02*
G02X263182Y287250I-971J-1156D01*
G03X263329Y287944I-111J386D01*
G02X264718Y287650I971J1156D01*
G03X264571Y286956I111J-386D01*
G37*
G36*
G01X243807Y286727D02*
G02X241672Y286806I-1107J-1027D01*
G03X241693Y287373I-274J294D01*
G02X243787Y289542I1107J1027D01*
G03X244355Y289584I263J304D01*
G02X244513Y287458I1145J-984D01*
G03X243945Y287416I-263J-304D01*
G02X243828Y287294I-1145J984D01*
G03X243807Y286727I274J-294D01*
G37*
G36*
G01X552681Y274414D02*
G02X551619Y273455I360J-1466D01*
G03X551144Y273980I-379J135D01*
G02X552207Y274940I-360J1466D01*
G03X552681Y274414I379J-135D01*
G37*
G36*
G01X466376Y272631D02*
G02X464704Y271184I-163J-1501D01*
G03X464345Y271598I-402J14D01*
G02X466018Y273045I163J1501D01*
G03X466376Y272631I402J-14D01*
G37*
G36*
G01X237841Y269187D02*
G02X236604Y270747I-1285J251D01*
G03X237019Y271117I15J402D01*
G02X238296Y269508I1505J-117D01*
G03X237841Y269187I-61J-397D01*
G37*
G36*
G01X205292Y268145D02*
G02X203073Y269458I-992J855D01*
G03X202655Y269998I-377J141D01*
G02X202318Y270001I-155J1502D01*
G03X201877Y269686I-48J-399D01*
G02X198964Y269534I-1477J314D01*
G03X198523Y269807I-382J-124D01*
G02X197273Y270193I-223J1493D01*
G03X196706Y270172I-273J-295D01*
G02X194613Y270058I-1106J1028D01*
G03X194087I-263J-304D01*
G02X192113I-987J1142D01*
G03X191587I-263J-304D01*
G02X189522Y270143I-987J1142D01*
G03X188996Y270185I-287J-281D01*
G02X189178Y272457I-896J1215D01*
G03X189704Y272415I287J281D01*
G02X191587Y272342I896J-1215D01*
G03X192113I263J304D01*
G02X194087I987J-1142D01*
G03X194613I263J304D01*
G02X196627Y272307I987J-1142D01*
G03X197194Y272328I273J295D01*
G02X199736Y271766I1106J-1028D01*
G03X200177Y271493I382J124D01*
G02X200582Y271499I223J-1493D01*
G03X201023Y271814I48J399D01*
G02X203875Y270877I1477J-314D01*
G03X204255Y270309I366J-166D01*
G02X204424Y270304I45J-1309D01*
G03X204828Y270871I38J400D01*
G02X207476Y270693I1372J629D01*
G03X207577Y270154I340J-215D01*
G02X205879Y268169I-777J-1054D01*
G03X205292Y268145I-283J-286D01*
G37*
G36*
G01X262274Y269003D02*
G02X260763Y269988I-1274J-303D01*
G03X261071Y270513I-73J395D01*
G02X263552Y272083I1429J487D01*
G03X263832Y272083I140J144D01*
G02X263830Y269916I1050J-1084D01*
G03X263550Y269916I-140J-144D01*
G02X262630Y269496I-1050J1084D01*
G03X262274Y269003I35J-401D01*
G37*
G36*
G01X246927Y265708D02*
G02X245586Y265510I-507J-1208D01*
G03X245558Y266150I-256J310D01*
G02X244994Y267136I742J1079D01*
G03X244521Y267502I-401J-29D01*
G02X242999Y269024I-234J1289D01*
G03X242569Y269496I-396J71D01*
G02X243430Y272141I-128J1504D01*
G03X243693I132J152D01*
G02X245486Y269722I989J-1141D01*
G03X245419Y269451I107J-170D01*
G02X245594Y268885I-1131J-660D01*
G03X246066Y268518I401J29D01*
G02X247339Y268026I234J-1289D01*
G03X247858Y267922I319J245D01*
G02X249083Y267963I651J-1136D01*
G03X249602Y268114I176J361D01*
G02X250918Y268723I1116J-685D01*
G03X251380Y269090I62J397D01*
G02X253995Y268936I1306J-99D01*
G03X254457Y268522I402J-17D01*
G02X255499Y268229I198J-1295D01*
G03X256018Y268229I259J307D01*
G02X257135Y265948I846J-1000D01*
G03X256901Y265307I83J-393D01*
G02X254820Y265283I-1031J-807D01*
G03X254535Y265924I-322J240D01*
G02X253346Y267282I120J1304D01*
G03X252884Y267696I-402J17D01*
G02X252486Y267696I-198J1295D01*
G03X252024Y267330I-62J-397D01*
G02X250144Y266252I-1306J99D01*
G03X249625Y266101I-176J-361D01*
G02X249624Y266099I-1089J725D01*
G03X249765Y265795I171J-105D01*
G02X248360Y265001I-195J-1295D01*
G03X248111Y265538I-371J154D01*
G02X247470Y265989I398J1248D01*
G03X246951Y266093I-319J-245D01*
G02X246911Y266071I-652J1136D01*
G01X246927Y265708D01*
G37*
G36*
G01X222293Y265251D02*
G02X220931Y265777I-1073J-751D01*
G03X221171Y266400I-89J392D01*
G02X220938Y267252I1073J751D01*
G03X220511Y267684I-401J31D01*
G02X219118Y269075I-86J1307D01*
G03X218672Y269500I-401J26D01*
G02X219991Y270764I-172J1500D01*
G03X220397Y270300I397J-63D01*
G02X221731Y268890I28J-1309D01*
G03X222158Y268458I401J-31D01*
G02X222307Y268459I86J-1307D01*
G03X222515Y268693I10J201D01*
G02X222912Y269870I1291J219D01*
G03X222958Y270407I-274J294D01*
G02X225592Y271797I1201J914D01*
G03X226147Y271561I382J127D01*
G02X227984Y269263I653J-1361D01*
G03X228111Y268658I315J-249D01*
G02X228467Y268384I-611J-1158D01*
G03X229100Y268435I297J271D01*
G02X229395Y268755I1096J-717D01*
G03X229434Y269033I-123J159D01*
G02X230990Y271398I1216J895D01*
G03X231221Y271518I45J196D01*
G02X233756Y269954I1398J-571D01*
G03X233791Y269390I303J-264D01*
G02X234224Y268523I-872J-977D01*
G03X234590Y268156I401J34D01*
G02X233176Y266741I-110J-1305D01*
G03X232809Y267108I-401J-34D01*
G02X232062Y267422I110J1305D01*
G03X231423Y267259I-263J-304D01*
G02X229230Y266835I-1226J459D01*
G03X228596Y266784I-297J-271D01*
G02X228138Y266356I-1096J716D01*
G03X228143Y265652I196J-351D01*
G02X226882Y265644I-623J-1152D01*
G03X226877Y266348I-196J351D01*
G02X226403Y268215I623J1152D01*
G03X226220Y268806I-337J219D01*
G02X225313Y269938I580J1394D01*
G03X225003Y270070I-198J-35D01*
G02X224904Y270009I-844J1252D01*
G03X224844Y269711I99J-175D01*
G02X223920Y267608I-1038J-798D01*
G03X223553Y267194I35J-400D01*
G02X222533Y265874I-1309J-43D01*
G03X222293Y265251I89J-392D01*
G37*
G36*
G01X557060Y263279D02*
G02X555690Y264759I-1509J-23D01*
G03X556129Y265166I37J400D01*
G02X557499Y263686I1509J23D01*
G03X557060Y263279I-37J-400D01*
G37*
G36*
G01X543858Y261213D02*
G02X542276Y262796I-1508J75D01*
G03X542657Y263177I-20J402D01*
G02X542666Y263277I1508J-74D01*
G03X542307Y263723I-399J47D01*
G02X542298Y266726I154J1502D01*
G03X542656Y267140I-44J400D01*
G02Y267247I1509J54D01*
G03X542298Y267661I-402J14D01*
G02Y270662I164J1501D01*
G03X542656Y271076I-44J400D01*
G02Y271184I1509J54D01*
G03X542298Y271598I-402J14D01*
G02X543970Y273045I163J1501D01*
G03X544328Y272631I402J-14D01*
G02Y269630I-164J-1501D01*
G03X543970Y269216I44J-400D01*
G02Y269108I-1509J-54D01*
G03X544328Y268694I402J-14D01*
G02Y265693I-164J-1501D01*
G03X543970Y265279I44J-400D01*
G02X543961Y265050I-1509J-54D01*
G03X544319Y264604I399J-47D01*
G02X544240Y261595I-154J-1502D01*
G03X543858Y261213I20J-402D01*
G37*
G36*
G01X474740Y261342D02*
G02X473068Y262789I-1509J-54D01*
G03X473426Y263202I-44J400D01*
G02Y263310I1509J54D01*
G03X473068Y263724I-402J14D01*
G02Y266726I164J1501D01*
G03X473426Y267140I-44J400D01*
G02X475098Y265693I1509J54D01*
G03X474740Y265279I44J-400D01*
G02Y265171I-1509J-54D01*
G03X475098Y264757I402J-14D01*
G02Y261756I-164J-1501D01*
G03X474740Y261342I44J-400D01*
G37*
G36*
G01X466376Y262789D02*
G02X464704Y261342I-163J-1501D01*
G03X464345Y261756I-402J14D01*
G02Y264757I164J1501D01*
G03X464704Y265171I-44J400D01*
G02X466376Y263724I1509J54D01*
G03X466018Y263310I44J-400D01*
G02Y263202I-1509J-54D01*
G03X466376Y262789I402J-14D01*
G37*
G36*
G01X542592Y258124D02*
G02X542276Y256275I1008J-1124D01*
G03X541655Y256381I-353J-193D01*
G02X539140Y257430I-1008J1124D01*
G03X538758Y257812I-402J-20D01*
G02X540341Y259394I75J1508D01*
G03X540722Y259013I402J20D01*
G02X541971Y258230I-75J-1508D01*
G03X542592Y258124I353J193D01*
G37*
G36*
G01X462256Y256239D02*
G02X461631Y258252I-1344J686D01*
G03X462180Y258423I192J354D01*
G02X462806Y256409I1344J-686D01*
G03X462256Y256239I-192J-354D01*
G37*
G36*
G01X474740Y251492D02*
G02X473309Y252953I-1509J-47D01*
G03X473732Y253367I21J401D01*
G02X475077Y254915I1509J47D01*
G03X475435Y255328I-44J400D01*
G02X477105Y256883I1509J54D01*
G03X477547Y257330I43J400D01*
G02X477538Y257437I1499J176D01*
G03X477180Y257818I-402J-18D01*
G02X478851Y259387I163J1501D01*
G03X479209Y259006I402J18D01*
G02X478885Y256004I-163J-1501D01*
G03X478443Y255558I-43J-400D01*
G02X477107Y253882I-1499J-175D01*
G03X476749Y253468I44J-400D01*
G02X475162Y251906I-1509J-54D01*
G03X474740Y251492I-21J-401D01*
G37*
G36*
G01X556236Y251348D02*
G02X554877Y251348I-680J-1348D01*
G03Y252066I-181J359D01*
G02X555396Y254915I680J1348D01*
G03X555754Y255342I-43J400D01*
G02X555752Y255533I1506J105D01*
G03X555394Y255955I-401J23D01*
G02X557064Y257370I162J1501D01*
G03X557422Y256948I401J-23D01*
G02X557421Y253946I-162J-1501D01*
G03X557062Y253518I43J-400D01*
G02X556236Y252066I-1506J-104D01*
G03Y251348I181J-359D01*
G37*
G36*
G01X462437Y247071D02*
G02X462382Y245038I1088J-1046D01*
G03X461788Y245054I-304J-263D01*
G02X461843Y247087I-1088J1046D01*
G03X462437Y247071I304J263D01*
G37*
G36*
G01X475098Y247040D02*
G02X473426Y245594I-163J-1501D01*
G03X473068Y246007I-402J14D01*
G02X474740Y247454I163J1501D01*
G03X475098Y247040I402J-14D01*
G37*
G36*
G01X283987Y244547D02*
G02X281845Y244580I-1087J-1047D01*
G03X281849Y244863I-140J144D01*
G02X283823Y247132I1087J1047D01*
G03X284362Y247193I236J325D01*
G02X287010Y246186I1137J-992D01*
G03X287365Y245783I402J-4D01*
G02X285682Y244297I-174J-1500D01*
G03X285326Y244701I-402J4D01*
G02X284613Y244978I174J1500D01*
G03X284074Y244918I-236J-325D01*
G02X283992Y244830I-1138J992D01*
G03X283987Y244547I140J-144D01*
G37*
G36*
G01X336790Y243617D02*
G02X335233Y243449I-640J-1367D01*
G03X335160Y244133I-244J319D01*
G02X336717Y244301I640J1367D01*
G03X336790Y243617I244J-319D01*
G37*
G36*
G01X560945Y241340D02*
G02X559246Y239829I-190J-1498D01*
G03X558894Y240224I-402J-3D01*
G02X560594Y241735I190J1498D01*
G03X560945Y241340I402J3D01*
G37*
G36*
G01X466376Y241135D02*
G02X464704Y239688I-163J-1501D01*
G03X464345Y240102I-402J14D01*
G02Y243103I164J1501D01*
G03X464704Y243517I-44J400D01*
G02X466376Y242070I1509J54D01*
G03X466018Y241657I44J-400D01*
G02Y241549I-1509J-54D01*
G03X466376Y241135I402J-14D01*
G37*
G36*
G01X287366Y239536D02*
G02X285407Y238323I-467J-1436D01*
G03X285134Y238764I-398J59D01*
G02X284700Y238988I466J1436D01*
G03X284153Y238925I-240J-323D01*
G02X283900Y241112I-1153J975D01*
G03X284447Y241175I240J323D01*
G02X287093Y239977I1153J-975D01*
G03X287366Y239536I398J-59D01*
G37*
G36*
G01X161657Y236257D02*
G02X161622Y238401I-1081J1054D01*
G03X161905Y238405I139J145D01*
G02X161940Y236262I1081J-1054D01*
G03X161657Y236257I-139J-145D01*
G37*
G36*
G01X557433Y237352D02*
G02X555762Y235783I-163J-1501D01*
G03X555403Y236165I-402J-18D01*
G02X557074Y237734I163J1501D01*
G03X557433Y237352I402J18D01*
G37*
G36*
G01X451978Y237307D02*
G02X450304Y235774I-164J-1501D01*
G03X449946Y236165I-402J-9D01*
G02X451620Y237698I164J1501D01*
G03X451978Y237307I402J9D01*
G37*
G36*
G01X474740Y235751D02*
G02X473068Y237198I-1509J-54D01*
G03X473426Y237612I-44J400D01*
G02Y237720I1509J54D01*
G03X473068Y238134I-402J14D01*
G02Y241135I164J1501D01*
G03X473426Y241549I-44J400D01*
G02X475098Y240102I1509J54D01*
G03X474740Y239688I44J-400D01*
G02Y239580I-1509J-54D01*
G03X475098Y239166I402J-14D01*
G02Y236165I-164J-1501D01*
G03X474740Y235751I44J-400D01*
G37*
G36*
G01X544328Y233261D02*
G02X542656Y231814I-163J-1501D01*
G03X542298Y232228I-402J14D01*
G02Y235229I164J1501D01*
G03X542656Y235643I-44J400D01*
G02Y235751I1509J54D01*
G03X542298Y236165I-402J14D01*
G02X540953Y237720I164J1501D01*
G03X540595Y238134I-402J14D01*
G02Y241135I164J1501D01*
G03X540953Y241549I-44J400D01*
G02X542298Y243103I1509J54D01*
G03X542656Y243517I-44J400D01*
G02Y243625I1509J54D01*
G03X542298Y244039I-402J14D01*
G02X540960Y245690I164J1501D01*
G03X540412Y246104I-400J40D01*
G02Y248913I-553J1405D01*
G03X540960Y249327I147J374D01*
G02X542298Y250977I1502J150D01*
G03X542656Y251391I-44J400D01*
G02X544328Y249945I1509J54D01*
G03X543970Y249531I44J-400D01*
G02Y249423I-1509J-54D01*
G03X544328Y249009I402J-14D01*
G02Y246007I-164J-1501D01*
G03X543970Y245594I44J-400D01*
G02Y245486I-1509J-54D01*
G03X544328Y245072I402J-14D01*
G02Y242070I-164J-1501D01*
G03X543970Y241657I44J-400D01*
G02X542625Y240102I-1509J-54D01*
G03X542267Y239688I44J-400D01*
G02Y239580I-1509J-54D01*
G03X542625Y239166I402J-14D01*
G02X543970Y237612I-164J-1501D01*
G03X544328Y237198I402J-14D01*
G02Y234196I-164J-1501D01*
G03X543970Y233782I44J-400D01*
G02Y233675I-1509J-54D01*
G03X544328Y233261I402J-14D01*
G37*
G36*
G01X287607Y232010D02*
G02X286093Y230412I-7J-1510D01*
G03X285693Y230790I-401J-23D01*
G02X287207Y232388I7J1510D01*
G03X287607Y232010I401J23D01*
G37*
G36*
G01X466747Y231384D02*
G02X465038Y231677I-1063J-1072D01*
G03X465149Y232325I-172J363D01*
G02X466858Y232033I1063J1072D01*
G03X466747Y231384I172J-363D01*
G37*
G36*
G01X552663Y230091D02*
G02X551184Y231301I-1480J-300D01*
G03X551577Y231783I0J402D01*
G02X553057Y230573I1480J300D01*
G03X552663Y230091I0J-402D01*
G37*
G36*
G01X307189Y228299D02*
G02X304609Y228318I-1284J793D01*
G03X304040Y228446I-345J-206D01*
G02X304496Y230474I-840J1254D01*
G03X305065Y230346I345J206D01*
G02X306828Y230286I840J-1254D01*
G03X307416Y230393I246J318D01*
G02X307777Y228406I1284J-793D01*
G03X307189Y228299I-246J-318D01*
G37*
G36*
G01X473812Y225825D02*
G02X472090Y226083I-1044J-1091D01*
G03X472187Y226732I-181J359D01*
G02X473309Y229331I1044J1091D01*
G03X473732Y229745I21J401D01*
G02X475162Y228284I1509J47D01*
G03X474740Y227870I-21J-401D01*
G02X473909Y226474I-1509J-47D01*
G03X473812Y225825I181J-359D01*
G37*
G36*
G01X363303Y224394D02*
G02X361810Y223329I-203J-1294D01*
G03X361477Y223796I-396J70D01*
G02X362970Y224861I203J1294D01*
G03X363303Y224394I396J-70D01*
G37*
G36*
G01X172950Y223990D02*
G02X171278Y222544I-163J-1501D01*
G03X170920Y222958I-402J14D01*
G02Y225959I164J1501D01*
G03X171278Y226373I-44J400D01*
G02X172950Y224926I1509J54D01*
G03X172592Y224512I44J-400D01*
G02Y224404I-1509J-54D01*
G03X172950Y223990I402J-14D01*
G37*
G36*
G01X278695Y222939D02*
G02X277058Y223309I-1095J-1039D01*
G03X277205Y223961I-144J375D01*
G02X278842Y223591I1095J1039D01*
G03X278695Y222939I144J-375D01*
G37*
G36*
G01X272428Y221025D02*
G02X270795Y220067I-222J-1493D01*
G03X270478Y220607I-376J142D01*
G02X269593Y223127I222J1493D01*
G03X269572Y223694I-295J273D01*
G02X269482Y225815I1028J1106D01*
G03Y226085I-149J135D01*
G02Y228115I1118J1015D01*
G03Y228385I-149J135D01*
G02X269528Y230463I1118J1015D01*
G03X269540Y230734I-143J142D01*
G02X269582Y232715I1160J966D01*
G03Y232985I-149J135D01*
G02X269558Y234987I1118J1015D01*
G03Y235513I-304J263D01*
G02Y237487I1142J987D01*
G03Y238013I-304J263D01*
G02X270684Y240509I1142J987D01*
G03X271046Y241079I-4J402D01*
G02X272433Y240200I1372J630D01*
G03X272072Y239630I4J-402D01*
G02X271842Y238013I-1372J-630D01*
G03Y237487I304J-263D01*
G02Y235513I-1142J-987D01*
G03Y234987I304J-263D01*
G02X271818Y232985I-1142J-987D01*
G03Y232715I149J-135D01*
G02X271772Y230637I-1118J-1015D01*
G03X271760Y230366I143J-142D01*
G02X271718Y228385I-1160J-966D01*
G03Y228115I149J-135D01*
G02Y226085I-1118J-1015D01*
G03Y225815I149J-135D01*
G02X271707Y223773I-1118J-1015D01*
G03X271728Y223206I295J-273D01*
G02X272112Y221565I-1028J-1106D01*
G03X272428Y221025I376J-142D01*
G37*
G36*
G01X296647Y218938D02*
G02X294425I-1111J-1022D01*
G03Y219482I-296J272D01*
G02X296647I1111J1022D01*
G03Y218938I296J-272D01*
G37*
G36*
G01X172556Y208143D02*
G02X170956Y209316I-1473J-331D01*
G03X171314Y209804I-34J401D01*
G02X172623Y211636I1473J331D01*
G03X172981Y212050I-44J400D01*
G02X172984Y212211I1509J55D01*
G03X172469Y212625I-401J29D01*
G02X171875Y215573I-430J1447D01*
G03X172233Y215987I-44J400D01*
G02X173905Y214540I1509J54D01*
G03X173547Y214126I44J-400D01*
G02X173544Y213965I-1509J-55D01*
G03X174060Y213551I401J-29D01*
G02X174654Y210603I430J-1447D01*
G03X174295Y210189I44J-400D01*
G02X172914Y208631I-1509J-54D01*
G03X172556Y208143I34J-401D01*
G37*
G36*
G01X482627Y203323D02*
G02X480674Y202881I-727J-1323D01*
G03X480541Y203467I-327J234D01*
G02X482495Y203910I727J1323D01*
G03X482627Y203323I327J-234D01*
G37*
G36*
G01X179335Y203256D02*
G02X177722Y202056I-134J-1504D01*
G03X177364Y202537I-394J81D01*
G02X177734Y205532I134J1504D01*
G03X178199Y205912I63J397D01*
G02X179430Y204548I1308J-56D01*
G03X179005Y204124I-24J-401D01*
G02X178976Y203737I-1507J-83D01*
G03X179335Y203256I394J-81D01*
G37*
G36*
G01X313610Y200580D02*
G02X312173Y200685I-816J-1270D01*
G03X312224Y201390I-166J366D01*
G02X313662Y201284I816J1270D01*
G03X313610Y200580I166J-366D01*
G37*
G36*
G01X279207Y200227D02*
G02X277072Y200306I-1107J-1027D01*
G03X277093Y200873I-274J294D01*
G02X277134Y202969I1107J1027D01*
G03X277155Y203516I-284J285D01*
G02X277224Y205559I1145J984D01*
G03X277221Y205844I-143J141D01*
G02X277169Y207952I1054J1081D01*
G03X277174Y208494I-295J274D01*
G02X277364Y210684I1125J1006D01*
G03X277265Y211373I-249J315D01*
G02X278764Y211589I563J1401D01*
G03X278863Y210901I249J-315D01*
G02X279406Y208472I-563J-1401D01*
G03X279401Y207931I295J-274D01*
G02X279351Y205866I-1125J-1006D01*
G03X279354Y205581I143J-141D01*
G02X279366Y203431I-1054J-1081D01*
G03X279345Y202884I284J-285D01*
G02X279228Y200794I-1145J-984D01*
G03X279207Y200227I274J-294D01*
G37*
G36*
G01X297431Y200618D02*
G02X295945Y199102I23J-1509D01*
G03X295741Y199303I-201J-1D01*
G02X297227Y200818I-23J1509D01*
G03X297431Y200618I201J1D01*
G37*
G36*
G01X302989Y198003D02*
G02X300972Y198204I-1119J-1013D01*
G03X301031Y198797I-239J323D01*
G02X303048Y198596I1119J1013D01*
G03X302989Y198003I239J-323D01*
G37*
G36*
G01X272413Y193934D02*
G02X270598Y193404I-578J-1395D01*
G03X270422Y194005I-329J230D01*
G02X269656Y196088I578J1395D01*
G03X269509Y196614I-358J183D01*
G02X269158Y198887I791J1286D01*
G03Y199413I-304J263D01*
G02X269228Y201463I1142J987D01*
G03X269240Y201734I-143J142D01*
G02X269324Y203759I1160J966D01*
G03Y204041I-143J141D01*
G02X269282Y206115I1076J1059D01*
G03Y206385I-149J135D01*
G02X269073Y208119I1118J1015D01*
G03X269014Y208378I-177J96D01*
G02X269337Y211001I886J1222D01*
G03X269526Y211590I-150J373D01*
G02X270637Y213901I1274J810D01*
G03X270939Y214507I-43J400D01*
G02X272396Y213782I1295J776D01*
G03X272095Y213176I43J-400D01*
G02X271363Y210999I-1295J-776D01*
G03X271174Y210410I150J-373D01*
G02X271227Y208881I-1274J-810D01*
G03X271286Y208622I177J-96D01*
G02X271518Y206385I-886J-1222D01*
G03Y206115I149J-135D01*
G02X271476Y204041I-1118J-1015D01*
G03Y203759I143J-141D01*
G02X271472Y201637I-1076J-1059D01*
G03X271460Y201366I143J-142D01*
G02X271442Y199413I-1160J-966D01*
G03Y198887I304J-263D01*
G02X271644Y197212I-1142J-987D01*
G03X271791Y196686I358J-183D01*
G02X272238Y194535I-791J-1286D01*
G03X272413Y193934I329J-230D01*
G37*
G36*
G01X338809Y190921D02*
G02X336843Y189895I-509J-1421D01*
G03X336591Y190379I-388J105D01*
G02X338557Y191405I509J1421D01*
G03X338809Y190921I388J-105D01*
G37*
G36*
G01X177999Y187372D02*
G02X175072Y187823I-1508J-67D01*
G03X174952Y188080I-189J69D01*
G02X176726Y190335I517J1418D01*
G03X177364Y190293I335J223D01*
G02X178038Y190736I1136J-994D01*
G03X178306Y191210I-123J383D01*
G02X178367Y191997I1275J298D01*
G03X178179Y192504I-373J150D01*
G02X180198Y193114I697J1339D01*
G03X180322Y192588I352J-194D01*
G02X180128Y190318I-741J-1080D01*
G03X179919Y189815I168J-365D01*
G02X178421Y187792I-1419J-516D01*
G03X177999Y187372I-21J-401D01*
G37*
G36*
G01X305372Y186021D02*
G02X303912Y184590I47J-1509D01*
G03X303498Y185012I-401J21D01*
G02X304958Y186443I-47J1509D01*
G03X305372Y186021I401J-21D01*
G37*
G36*
G01X267051Y185505D02*
G02X265830Y184086I83J-1307D01*
G03X265403Y184453I-401J-34D01*
G02X266625Y185872I-83J1307D01*
G03X267051Y185505I401J34D01*
G37*
G36*
G01X284145Y184860D02*
G02X283548Y182656I655J-1360D01*
G03X283040Y182794I-333J-225D01*
G02X283637Y184998I-655J1360D01*
G03X284145Y184860I333J225D01*
G37*
G36*
G01X338509Y182942D02*
G02X336780Y184394I-1509J-42D01*
G03X337124Y184802I-58J398D01*
G02X338852Y183350I1509J42D01*
G03X338509Y182942I58J-398D01*
G37*
G36*
G01X531592Y184291D02*
G02X529922Y182869I-162J-1501D01*
G03X529564Y183289I-401J21D01*
G02X531234Y184711I162J1501D01*
G03X531592Y184291I401J-21D01*
G37*
G36*
G01X271654Y182188D02*
G02X270018Y183451I-1490J-239D01*
G03X270376Y183914I-39J400D01*
G02X272012Y182651I1490J239D01*
G03X271654Y182188I39J-400D01*
G37*
G36*
G01X339654Y178634D02*
G02X338143Y177056I-4J-1510D01*
G03X337784Y177438I-402J-18D01*
G02X337980Y180448I163J1501D01*
G03X338391Y180862I9J402D01*
G02X340557Y182266I1509J45D01*
G03X340825Y182358I88J181D01*
G02X341581Y180539I1175J-578D01*
G03X341326Y180414I-64J-190D01*
G02X339867Y179398I-1427J492D01*
G03X339456Y178984I-9J-402D01*
G02X339454Y178847I-1509J-45D01*
G03X339654Y178634I201J-12D01*
G37*
G36*
G01X310238Y180799D02*
G02X307866Y181836I-2428J-2323D01*
G03X308257Y182356I7J402D01*
G02X309477Y184293I1443J444D01*
G03X309818Y184717I-60J398D01*
G02X309815Y184829I1506J100D01*
G03X309584Y185029I-201J1D01*
G02X310857Y186685I-228J1492D01*
G03X311271Y186326I400J44D01*
G02X311548Y183325I54J-1509D01*
G03X311206Y182901I60J-398D01*
G02X310354Y181439I-1506J-100D01*
G03X310238Y180799I174J-362D01*
G37*
G36*
G01X232265Y175091D02*
G02X230755Y177368I-1290J784D01*
G03X231075Y177903I-58J398D01*
G02X233534Y177897I1231J448D01*
G03X233980Y177361I377J-139D01*
G02X235532Y176658I262J-1487D01*
G03X236220I344J209D01*
G02X238800Y176658I1290J-784D01*
G03X239487I344J209D01*
G02Y175091I1290J-784D01*
G03X238800I-344J-209D01*
G02X236220Y175091I-1290J784D01*
G03X235532I-344J-209D01*
G02X232952Y175091I-1290J784D01*
G03X232265I-344J-209D01*
G37*
G36*
G01X375194Y174193D02*
G02X372710Y174052I-1290J784D01*
G03X372078Y174057I-318J-246D01*
G02X369687Y175899I-1179J943D01*
G03X369408Y176538I-323J239D01*
G02X370649Y177128I142J1302D01*
G03X370968Y176508I337J-218D01*
G02X372093Y175925I-68J-1508D01*
G03X372725Y175920I318J246D01*
G02X372876Y176082I1178J-944D01*
G03X372810Y176720I-274J295D01*
G02X374458Y176958I680J1120D01*
G03X374576Y176328I297J-271D01*
G02X375194Y175760I-673J-1351D01*
G03X375881I344J209D01*
G02X376417Y176284I1290J-784D01*
G03X376502Y176916I-201J348D01*
G02X378178Y176765I928J924D01*
G03X378147Y176128I230J-330D01*
G02X378461Y175760I-976J-1152D01*
G03X379148I344J209D01*
G02X380081Y176443I1290J-784D01*
G03X380311Y177070I-95J391D01*
G02X381774Y176594I1059J770D01*
G03X381591Y175952I124J-382D01*
G02X379148Y174193I-1152J-976D01*
G03X378461I-344J-209D01*
G02X375881Y174193I-1290J784D01*
G03X375194I-344J-209D01*
G37*
G36*
G01X289792Y175127D02*
G02X287510Y174596I-925J-1193D01*
G03X287220Y175168I-361J176D01*
G02X289801Y175769I590J3308D01*
G03X289792Y175127I238J-324D01*
G37*
G36*
G01X271441Y175327D02*
G02X270244Y173960I308J-1478D01*
G03X269761Y174383I-401J29D01*
G02X268814Y174493I-308J1478D01*
G03X268243Y174163I-170J-364D01*
G02X267378Y175659I-1504J128D01*
G03X267949Y175989I170J364D01*
G02X270958Y175750I1504J-128D01*
G03X271441Y175327I401J-29D01*
G37*
G36*
G01X424489Y172447D02*
G02Y174014I-1290J784D01*
G03X425176I344J209D01*
G02X427756Y174014I1290J-784D01*
G03X428444I344J209D01*
G02X431024Y174014I1290J-784D01*
G03X431711I344J209D01*
G02Y172447I1290J-784D01*
G03X431024I-344J-209D01*
G02X428444Y172447I-1290J784D01*
G03X427756I-344J-209D01*
G02X425176Y172447I-1290J784D01*
G03X424489I-344J-209D01*
G37*
G36*
G01X483097Y174280D02*
G02X481293Y172892I-297J-1480D01*
G03X480971Y173310I-401J24D01*
G02X480196Y175853I297J1480D01*
G03X480196Y176136I-143J141D01*
G02X482340Y176136I1072J1063D01*
G03X482340Y175853I143J-141D01*
G02X482775Y174698I-1072J-1063D01*
G03X483097Y174280I401J-24D01*
G37*
G36*
G01X459451Y172992D02*
G02X457355Y172674I-887J-1222D01*
G03X457312Y172958I-161J120D01*
G02X459408Y173275I887J1222D01*
G03X459451Y172992I161J-120D01*
G37*
G36*
G01X305572Y170085D02*
G02Y172315I-1017J1115D01*
G03X306114I271J297D01*
G02Y170085I1017J-1115D01*
G03X305572I-271J-297D01*
G37*
G36*
G01X544367Y170020D02*
G02X543913Y172041I-1299J770D01*
G03X544484Y172170I225J333D01*
G02X544938Y170149I1299J-770D01*
G03X544367Y170020I-225J-333D01*
G37*
G36*
G01X219982Y168406D02*
G02X219899Y170612I-1071J1064D01*
G03X220447Y170633I263J304D01*
G02X220530Y168427I1071J-1064D01*
G03X219982Y168406I-263J-304D01*
G37*
G36*
G01X334530Y169464D02*
G02X332365Y169440I-1071J-1064D01*
G03X332359Y170000I-291J277D01*
G02X333266Y172565I1071J1064D01*
G03X333624Y172979I-44J400D01*
G02X334969Y174533I1509J54D01*
G03X335327Y174947I-44J400D01*
G02X338335Y174821I1509J54D01*
G03X338693Y174373I399J-48D01*
G02X339671Y173871I-154J-1502D01*
G03X340273I301J266D01*
G02X340274Y171872I1132J-999D01*
G03X339671I-301J-266D01*
G02X337162Y172254I-1132J999D01*
G03X336446Y172288I-367J-165D01*
G02X335296Y171532I-1313J745D01*
G03X334938Y171118I44J-400D01*
G02X334524Y170024I-1509J-54D01*
G03X334530Y169464I291J-277D01*
G37*
G36*
G01X385339Y167255D02*
G02Y168822I-1290J784D01*
G03X386026I344J209D01*
G02X388607Y168822I1290J-784D01*
G03X389294I344J209D01*
G02X391874Y168822I1290J-784D01*
G03X392561I344J209D01*
G02Y167255I1290J-784D01*
G03X391874I-344J-209D01*
G02X389294Y167255I-1290J784D01*
G03X388607I-344J-209D01*
G02X386026Y167255I-1290J784D01*
G03X385339I-344J-209D01*
G37*
G36*
G01X413477Y168643D02*
G02X411368Y168371I-917J-1199D01*
G03X411332Y168654I-159J123D01*
G02X413440Y168926I917J1199D01*
G03X413477Y168643I159J-123D01*
G37*
G36*
G01X296590Y168632D02*
G02X295004Y167106I-77J-1508D01*
G03X294623Y167502I-402J-5D01*
G02X296209Y169029I77J1508D01*
G03X296590Y168632I402J5D01*
G37*
G36*
G01X314715Y166980D02*
G02X312658Y166332I-711J-1332D01*
G03X312489Y166868I-358J182D01*
G02X313383Y169698I711J1332D01*
G03X313824Y170182I49J399D01*
G02X314700Y171885I1476J318D01*
G03X314910Y172411I-160J369D01*
G02X315901Y174456I1390J589D01*
G03X316196Y174876I-106J388D01*
G02Y175124I1505J123D01*
G03X315901Y175544I-401J33D01*
G02Y178456I399J1456D01*
G03X316196Y178877I-106J388D01*
G02X318099Y177544I1505J124D01*
G03X317804Y177124I106J-388D01*
G02Y176876I-1505J-123D01*
G03X318099Y176456I401J-33D01*
G02Y173544I-399J-1456D01*
G03X317804Y173124I106J-388D01*
G02X317806Y172896I-1504J-124D01*
G03X318121Y172475I401J-28D01*
G02X317034Y169700I-321J-1475D01*
G03X316508Y169594I-204J-346D01*
G02X315117Y169002I-1208J906D01*
G03X314676Y168518I-49J-399D01*
G02X314546Y167517I-1476J-318D01*
G03X314715Y166980I358J-182D01*
G37*
G36*
G01X427756Y164573D02*
G02Y166140I-1290J784D01*
G03X428444I344J209D01*
G02Y164573I1290J-784D01*
G03X427756I-344J-209D01*
G37*
G36*
G01X322543Y165801D02*
G02X321199Y164457I157J-1501D01*
G03X320757Y164899I-400J42D01*
G02X322101Y166243I-157J1501D01*
G03X322543Y165801I400J-42D01*
G37*
G36*
G01X293842Y164393D02*
G02X293454Y162104I757J-1306D01*
G03X292947Y162190I-305J-262D01*
G02X293335Y164479I-757J1306D01*
G03X293842Y164393I305J262D01*
G37*
G36*
G01X201850Y164073D02*
G02X201730Y161835I950J-1173D01*
G03X201192Y161864I-285J-284D01*
G02X201312Y164102I-950J1173D01*
G03X201850Y164073I285J284D01*
G37*
G36*
G01X225088Y160179D02*
G02Y162422I-1011J1122D01*
G03X225626I269J299D01*
G02Y160179I1011J-1121D01*
G03X225088I-269J-299D01*
G37*
G36*
G01X271440Y161390D02*
G02X269862Y162781I-1505J-117D01*
G03X270244Y163213I-19J402D01*
G02X271821Y161823I1505J117D01*
G03X271440Y161390I19J-402D01*
G37*
G36*
G01X232265Y160198D02*
G02Y161765I-1290J784D01*
G03X232952I344J209D01*
G02X235532Y161765I1290J-784D01*
G03X236220I344J209D01*
G02X238800Y161765I1290J-784D01*
G03X239487I344J209D01*
G02Y160198I1290J-784D01*
G03X238800I-344J-209D01*
G02X236220Y160198I-1290J784D01*
G03X235532I-344J-209D01*
G02X232952Y160198I-1290J784D01*
G03X232265I-344J-209D01*
G37*
G36*
G01X250255Y161698D02*
G02X248641I-807J-1276D01*
G03Y162378I-215J340D01*
G02X250255I807J1276D01*
G03Y161698I215J-340D01*
G37*
G36*
G01X217503Y161455D02*
G02X215301I-1101J-1032D01*
G03Y162005I-293J275D01*
G02X217503I1101J1032D01*
G03Y161455I293J-275D01*
G37*
G36*
G01X385339Y159381D02*
G02Y160948I-1290J784D01*
G03X386026I344J209D01*
G02X388607Y160948I1290J-784D01*
G03X389294I344J209D01*
G02X391874Y160948I1290J-784D01*
G03X392561I344J209D01*
G02Y159381I1290J-784D01*
G03X391874I-344J-209D01*
G02X389294Y159381I-1290J784D01*
G03X388607I-344J-209D01*
G02X386026Y159381I-1290J784D01*
G03X385339I-344J-209D01*
G37*
G36*
G01X371926Y159300D02*
G02Y160867I-1290J784D01*
G03X372613I344J209D01*
G02X375194Y160867I1290J-784D01*
G03X375881I344J209D01*
G02X378461Y160867I1290J-784D01*
G03X379148I344J209D01*
G02Y159300I1290J-784D01*
G03X378461I-344J-209D01*
G02X375881Y159300I-1290J784D01*
G03X375194I-344J-209D01*
G02X372613Y159300I-1290J784D01*
G03X371926I-344J-209D01*
G37*
G36*
G01X362752Y160490D02*
G02X361176I-788J-1287D01*
G03Y161175I-210J343D01*
G02X362752I788J1287D01*
G03Y160490I210J-343D01*
G37*
G36*
G01X502360Y159037D02*
G02X500938Y160707I-1501J162D01*
G03X501358Y161065I21J401D01*
G02X504292Y161379I1501J-162D01*
G03X504805Y161126I381J127D01*
G02X503868Y159224I495J-1426D01*
G03X503354Y159477I-381J-127D01*
G02X502780Y159395I-495J1426D01*
G03X502360Y159037I-21J-401D01*
G37*
G36*
G01X486360D02*
G02X484938Y160707I-1501J162D01*
G03X485358Y161065I21J401D01*
G02X486780Y159395I1501J-162D01*
G03X486360Y159037I-21J-401D01*
G37*
G36*
G01X474348Y158813D02*
G02X472859Y160487I-1501J164D01*
G03X473261Y160845I3J402D01*
G02X476265Y160826I1501J-164D01*
G03X476728Y160468I400J39D01*
G02X476979Y160487I239J-1491D01*
G03X477381Y160845I3J402D01*
G02X479373Y162108I1501J-164D01*
G03X479901Y162552I131J380D01*
G02X481229Y164291I1491J238D01*
G03X481587Y164711I-43J400D01*
G02X482142Y165961I1508J79D01*
G03X482227Y166489I-254J312D01*
G02X482025Y166979I1273J811D01*
G03X481582Y167292I-393J-86D01*
G02X482866Y169111I-190J1498D01*
G03X483310Y168798I393J86D01*
G02X484453Y166129I190J-1498D01*
G03X484368Y165601I254J-312D01*
G02X483257Y163289I-1273J-811D01*
G03X482899Y162869I43J-400D01*
G02X480900Y161362I-1508J-79D01*
G03X480373Y160919I-131J-380D01*
G02X478870Y159171I-1491J-238D01*
G03X478468Y158813I-3J-402D01*
G02X475464Y158832I-1501J164D01*
G03X475001Y159190I-400J-39D01*
G02X474750Y159171I-239J1491D01*
G03X474348Y158813I-3J-402D01*
G37*
G36*
G01X424270Y156992D02*
G02X422127I-1072J-1063D01*
G03Y157275I-143J142D01*
G02X424270I1072J1063D01*
G03Y156992I143J-141D01*
G37*
G36*
G01X305799Y153498D02*
G02Y155209I-1244J856D01*
G03X306461I331J228D01*
G02X308949I1244J-855D01*
G03X309611I331J228D01*
G02X312098Y155210I1244J-855D01*
G03X312761I331J228D01*
G02Y153497I1243J-856D01*
G03X312098I-331J-228D01*
G02X309611Y153498I-1243J856D01*
G03X308949I-331J-228D01*
G02X306461I-1244J855D01*
G03X305799I-331J-228D01*
G37*
G36*
G01X286901Y153497D02*
G02Y155210I-1243J856D01*
G03X287564I331J228D01*
G02X290051Y155209I1243J-856D01*
G03X290713I331J228D01*
G02X293201I1244J-855D01*
G03X293863I331J228D01*
G02X296350Y155210I1244J-855D01*
G03X297013I331J228D01*
G02Y153497I1243J-856D01*
G03X296350I-331J-228D01*
G02X293863Y153498I-1243J856D01*
G03X293201I-331J-228D01*
G02X290713I-1244J855D01*
G03X290051I-331J-228D01*
G02X287564Y153497I-1244J855D01*
G03X286901I-331J-228D01*
G37*
G36*
G01X274303Y153498D02*
G02Y155209I-1244J856D01*
G03X274965I331J228D01*
G02X277452Y155210I1244J-855D01*
G03X278115I331J228D01*
G02Y153497I1243J-856D01*
G03X277452I-331J-228D01*
G02X274965Y153498I-1243J856D01*
G03X274303I-331J-228D01*
G37*
G36*
G01X267828Y153286D02*
G02X267698Y155536I-1068J1067D01*
G03X268232Y155567I250J315D01*
G02X268362Y153317I1068J-1067D01*
G03X267828Y153286I-250J-315D01*
G37*
G36*
G01X255405Y153497D02*
G02Y155210I-1243J856D01*
G03X256068I331J228D01*
G02X257286Y155863I1243J-856D01*
G03X257668Y156369I-7J402D01*
G02X260568Y156319I1458J393D01*
G03X260849Y155812I384J-118D01*
G02X259217Y153498I-388J-1459D01*
G03X258555I-331J-228D01*
G02X256068Y153497I-1244J855D01*
G03X255405I-331J-228D01*
G37*
G36*
G01X245956D02*
G02Y155210I-1243J856D01*
G03X246619I331J228D01*
G02Y153497I1243J-856D01*
G03X245956I-331J-228D01*
G37*
G36*
G01X230208D02*
G02Y155210I-1243J856D01*
G03X230871I331J228D01*
G02X233358Y155209I1243J-856D01*
G03X234020I331J228D01*
G02X236508I1244J-855D01*
G03X237170I331J228D01*
G02X239374Y155518I1244J-856D01*
G03X239897Y155528I256J310D01*
G02X239940Y153235I1003J-1128D01*
G03X239417Y153225I-256J-310D01*
G02X237170Y153498I-1003J1128D01*
G03X236508I-331J-228D01*
G02X234020I-1244J855D01*
G03X233358I-331J-228D01*
G02X230871Y153497I-1244J855D01*
G03X230208I-331J-228D01*
G37*
G36*
G01X520780Y152385D02*
G02X519358Y150715I79J-1508D01*
G03X518938Y151073I-400J-43D01*
G02X520360Y152743I-79J1508D01*
G03X520780Y152385I400J43D01*
G37*
G36*
G01X535974Y148566D02*
G02X535968Y150017I-1327J720D01*
G03X536673Y150020I352J195D01*
G02X536679Y148569I1327J-720D01*
G03X535974Y148566I-352J-195D01*
G37*
G36*
G01X554230Y147926D02*
G02X552663I-784J-1290D01*
G03Y148613I-209J344D01*
G02X554230I784J1290D01*
G03Y147926I209J-344D01*
G37*
G36*
G01X561856Y146273D02*
G02Y148075I-2235J901D01*
G03X562597Y148064I373J150D01*
G02Y146284I2024J-890D01*
G03X561856Y146273I-368J-162D01*
G37*
G36*
G01X280110Y144532D02*
G02X280110Y142388I1063J-1072D01*
G03X279826Y142389I-142J-143D01*
G02X279827Y144533I-1063J1072D01*
G03X280110Y144532I142J143D01*
G37*
G36*
G01X319037Y142865D02*
G02X317467Y141510I-69J-1508D01*
G03X317085Y141953I-400J41D01*
G02X318656Y143308I69J1508D01*
G03X319037Y142865I400J-41D01*
G37*
G36*
G01X410594Y139436D02*
G02Y141580I-1063J1072D01*
G03X410877I142J143D01*
G02Y139436I1063J-1072D01*
G03X410594I-141J-143D01*
G37*
G36*
G01X234437Y137673D02*
G02X231719Y138867I-1249J848D01*
G03X231337Y139361I-391J92D01*
G02X230237Y139877I37J1509D01*
G03X229954Y139896I-151J-132D01*
G02X230102Y142030I-989J1141D01*
G03X230385Y142011I151J132D01*
G02X232843Y140524I989J-1141D01*
G03X233225Y140030I391J-92D01*
G02X234121Y139708I-37J-1509D01*
G03X234701Y139798I248J316D01*
G02X235018Y137763I1249J-848D01*
G03X234437Y137673I-248J-316D01*
G37*
G36*
G01X380288Y133080D02*
G02X378707Y134493I-1507J-95D01*
G03X379089Y134920I-20J402D01*
G02X380669Y133507I1507J95D01*
G03X380288Y133080I20J-402D01*
G37*
G36*
G01X425718Y131265D02*
G02X424716Y132913I-1493J221D01*
G03X425245Y133234I131J380D01*
G02X425617Y134024I1493J-221D01*
G03Y134562I-299J269D01*
G02X425617Y136583I1122J1011D01*
G03Y137121I-299J269D01*
G02X425617Y139142I1122J1010D01*
G03Y139680I-299J269D01*
G02X425277Y140312I1121J1011D01*
G03X424748Y140589I-389J-101D01*
G02X425686Y142383I-523J1416D01*
G03X426215Y142107I389J101D01*
G02X427860Y139680I523J-1416D01*
G03Y139142I299J-269D01*
G02X427860Y137121I-1122J-1011D01*
G03Y136583I299J-269D01*
G02X427860Y134562I-1122J-1010D01*
G03Y134024I299J-269D01*
G02X426247Y131586I-1122J-1010D01*
G03X425718Y131265I-131J-380D01*
G37*
G36*
G01X393732Y132352D02*
G02X394701Y130221I3737J413D01*
G03X394023Y130075I-296J-272D01*
G02X393176Y131938I-1434J472D01*
G03X393732Y132352I156J370D01*
G37*
G36*
G01X428677Y125966D02*
G02X427770Y124782I589J-1390D01*
G03X427215Y125207I-398J55D01*
G02X428122Y126390I-589J1390D01*
G03X428677Y125966I398J-55D01*
G37*
G36*
G01X326271Y121213D02*
G02Y122926I-1243J856D01*
G03X326934I331J228D01*
G02Y121213I1243J-856D01*
G03X326271I-331J-228D01*
G37*
G36*
G01X316823Y121214D02*
G02Y122925I-1244J856D01*
G03X317485I331J228D01*
G02Y121214I1244J-856D01*
G03X316823I-331J-228D01*
G37*
G36*
G01X307374D02*
G02Y122925I-1244J856D01*
G03X308036I331J228D01*
G02Y121214I1244J-856D01*
G03X307374I-331J-228D01*
G37*
G36*
G01X297925D02*
G02Y122925I-1244J856D01*
G03X298587I331J228D01*
G02X299806Y123579I1244J-856D01*
G03X300188Y124085I-7J402D01*
G02X301670Y122969I1458J393D01*
G03X301289Y122462I7J-402D01*
G02X298587Y121214I-1458J-393D01*
G03X297925I-331J-228D01*
G37*
G36*
G01X285326Y121213D02*
G02Y122926I-1243J856D01*
G03X285989I331J228D01*
G02X288476Y122925I1243J-856D01*
G03X289138I331J228D01*
G02Y121214I1244J-856D01*
G03X288476I-331J-228D01*
G02X285989Y121213I-1244J855D01*
G03X285326I-331J-228D01*
G37*
G36*
G01X263279D02*
G02Y122926I-1243J856D01*
G03X263942I331J228D01*
G02X266429Y122925I1243J-856D01*
G03X267091I331J228D01*
G02Y121214I1244J-856D01*
G03X266429I-331J-228D01*
G02X263942Y121213I-1244J855D01*
G03X263279I-331J-228D01*
G37*
G36*
G01X253830D02*
G02Y122926I-1243J856D01*
G03X254493I331J228D01*
G02Y121213I1243J-856D01*
G03X253830I-331J-228D01*
G37*
G36*
G01X244382Y121214D02*
G02Y122925I-1244J856D01*
G03X245044I331J228D01*
G02Y121214I1244J-856D01*
G03X244382I-331J-228D01*
G37*
G36*
G01X231065Y123485D02*
G02X229393Y123050I-525J-1415D01*
G03X229227Y123688I-306J261D01*
G02X230899Y124123I525J1415D01*
G03X231065Y123485I306J-261D01*
G37*
G36*
G01X380879Y115030D02*
G02X379780Y116635I-1502J150D01*
G03X380034Y116835I54J194D01*
G02X380041Y117032I1509J48D01*
G03X379786Y117245I-200J20D01*
G02X380885Y118761I-409J1453D01*
G03X381341Y118380I402J17D01*
G02X381335Y115388I202J-1496D01*
G03X380879Y115030I-55J-398D01*
G37*
G36*
G01X351339Y110157D02*
G02Y112196I-1114J1019D01*
G03X351932I296J271D01*
G02Y110157I1114J-1019D01*
G03X351339I-297J-271D01*
G37*
G36*
G01X383344Y111156D02*
G02X381671Y112603I-1509J-54D01*
G03X382030Y113017I-44J400D01*
G02X383702Y111570I1509J54D01*
G03X383344Y111156I44J-400D01*
G37*
G36*
G01X383318Y108421D02*
G02X383044Y106312I926J-1192D01*
G03X382761Y106349I-160J-122D01*
G02X383034Y108457I-926J1192D01*
G03X383318Y108421I160J122D01*
G37*
G36*
G01X373981Y106761D02*
G02X372306Y105264I-165J-1501D01*
G03X371948Y105665I-402J1D01*
G02X371949Y108666I165J1501D01*
G03X372307Y109080I-44J400D01*
G02X373980Y107633I1509J54D01*
G03X373621Y107219I44J-400D01*
G02X373622Y107161I-1509J-55D01*
G03X373981Y106761I402J-1D01*
G37*
G36*
G01X369285Y97376D02*
G02X367613Y98823I-1509J-54D01*
G03X367971Y99237I-44J400D01*
G02X369643Y97790I1509J54D01*
G03X369285Y97376I44J-400D01*
G37*
G36*
G01X254807Y96328D02*
G02Y98130I-2235J901D01*
G03X255548Y98119I373J150D01*
G02Y96339I2024J-890D01*
G03X254807Y96328I-368J-162D01*
G37*
G36*
G01X418420Y90442D02*
G02X418262Y92554I-1153J975D01*
G03X418548Y92575I132J151D01*
G02X418706Y90464I1153J-975D01*
G03X418420Y90442I-132J-151D01*
G37*
G36*
G01X383728Y91554D02*
G02X382497Y89638I218J-1494D01*
G03X382053Y89923I-386J-112D01*
G02X383284Y91839I-218J1494D01*
G03X383728Y91554I386J112D01*
G37*
G36*
G01X220045Y92026D02*
G02X218265I-890J-2024D01*
G03X218254Y92767I-162J368D01*
G02X221390Y95903I901J2235D01*
G03X222131Y95892I373J150D01*
G02Y94112I2024J-890D01*
G03X221390Y94101I-368J-162D01*
G02X220056Y92767I-2235J901D01*
G03X220045Y92026I150J-373D01*
G37*
G36*
G01X337076Y90042D02*
G02X334951Y89843I-963J-1162D01*
G03X334924Y90126I-155J128D01*
G02X337050Y90325I963J1162D01*
G03X337076Y90042I155J-128D01*
G37*
G36*
G01X409768Y87507D02*
G02X406970Y86654I-1290J-784D01*
G03X406527Y87036I-402J-18D01*
G02X407193Y89802I-158J1501D01*
G03X407781Y89978I219J337D01*
G02X409913Y88065I1385J-602D01*
G03X409768Y87507I199J-349D01*
G37*
G36*
G01X392504Y79600D02*
G02X391213Y78509I162J-1501D01*
G03X390783Y79017I-387J109D01*
G02X390386Y79027I-162J1501D01*
G03X389933Y78534I-63J-397D01*
G02X386997Y78516I-1466J-361D01*
G03X386622Y79010I-391J92D01*
G02X386339Y79048I62J1508D01*
G03X385856Y78561I-92J-391D01*
G02X384735Y79672I-1466J-359D01*
G03X385217Y80159I92J391D01*
G02X388154Y80174I1466J359D01*
G03X388529Y79681I391J-92D01*
G02X388702Y79664I-61J-1508D01*
G03X389155Y80157I63J397D01*
G02X392074Y80109I1466J361D01*
G03X392504Y79600I387J-109D01*
G37*
G36*
G01X397725Y79277D02*
G02X395621Y79049I-936J-1184D01*
G03X395590Y79334I-155J127D01*
G02X397694Y79562I936J1184D01*
G03X397725Y79277I155J-127D01*
G37*
G36*
G01X401825Y79187D02*
G02X399591Y78825I-957J-1167D01*
G03X399506Y79350I-340J215D01*
G02X401740Y79712I957J1167D01*
G03X401825Y79187I340J-215D01*
G37*
G36*
G01X405826Y79240D02*
G02X403640Y78761I-876J-1230D01*
G03X403525Y79288I-349J200D01*
G02X405710Y79767I876J1230D01*
G03X405826Y79240I349J-200D01*
G37*
G36*
G01X392225Y65461D02*
G02X391016Y66180I-1287J-789D01*
G03X391379Y66791I21J401D01*
G02X392589Y66073I1287J789D01*
G03X392225Y65461I-21J-401D01*
G37*
G36*
G01X311080Y47645D02*
G02X310857Y45717I1037J-1097D01*
G03X310245Y45788I-336J-221D01*
G02X310469Y47716I-1037J1097D01*
G03X311080Y47645I336J221D01*
G37*
G36*
G01X392562Y42322D02*
G02X391182Y43987I-1501J160D01*
G03X391614Y44345I32J401D01*
G02X391678Y44648I1501J-159D01*
G03X391290Y45174I-383J123D01*
G02X392708Y46220I-19J1510D01*
G03X393096Y45695I383J-123D01*
G02X392994Y42681I19J-1509D01*
G03X392562Y42322I-32J-401D01*
G37*
G36*
G01X311314Y41089D02*
G02X310603Y39608I786J-1289D01*
G03X309995Y39900I-399J-51D01*
G02X310706Y41381I-786J1289D01*
G03X311314Y41089I399J51D01*
G37*
G36*
G01X244471Y38156D02*
G02Y39723I-1290J784D01*
G03X245158I344J209D01*
G02X247738Y39723I1290J-784D01*
G03X248426I344J209D01*
G02X251006Y39723I1290J-784D01*
G03X251693I344J209D01*
G02Y38156I1290J-784D01*
G03X251006I-344J-209D01*
G02X248426Y38156I-1290J784D01*
G03X247738I-344J-209D01*
G02X245158Y38156I-1290J784D01*
G03X244471I-344J-209D01*
G37*
G36*
G01X392105Y35210D02*
G02X389792I-1156J-970D01*
G03Y35727I-308J258D01*
G02X392105I1156J970D01*
G03Y35210I308J-258D01*
G37*
G36*
G01X373067Y29643D02*
G02X371922Y28791I221J-1493D01*
G03X371499Y29360I-364J171D01*
G02X372645Y30212I-221J1493D01*
G03X373067Y29643I364J-171D01*
G37*
G36*
G01X244471Y23263D02*
G02Y24830I-1290J784D01*
G03X245158I344J209D01*
G02X247738Y24830I1290J-784D01*
G03X248426I344J209D01*
G02X251006Y24830I1290J-784D01*
G03X251693I344J209D01*
G02Y23263I1290J-784D01*
G03X251006I-344J-209D01*
G02X248426Y23263I-1290J784D01*
G03X247738I-344J-209D01*
G02X245158Y23263I-1290J784D01*
G03X244471I-344J-209D01*
G37*
G36*
G01X324873Y25480D02*
G02X323234Y24207I-147J-1502D01*
G03X322875Y24668I-397J61D01*
G02X323102Y27678I147J1502D01*
G03X323524Y28101I21J402D01*
G02X324952Y26673I1508J79D01*
G03X324530Y26250I-21J-402D01*
G02X324514Y25942I-1508J-79D01*
G03X324873Y25480I397J-61D01*
G37*
G36*
G01X230123Y23101D02*
G02Y24668I-1290J784D01*
G03X230811I344J209D01*
G02X233391Y24668I1290J-784D01*
G03X234078I344J209D01*
G02Y23101I1290J-784D01*
G03X233391I-344J-209D01*
G02X230811Y23101I-1290J784D01*
G03X230123I-344J-209D01*
G37*
G36*
G01X261818Y19586D02*
G02X260422Y20568I-1415J-527D01*
G03X260804Y21110I5J402D01*
G02X262200Y20128I1415J527D01*
G03X261818Y19586I-5J-402D01*
G37*
G36*
G01X350506Y17705D02*
G02X350033Y19776I-1282J797D01*
G03X350312Y19840I108J170D01*
G02X350784Y17768I1282J-797D01*
G03X350506Y17705I-108J-170D01*
G37*
G36*
G01X222683Y9422D02*
G02Y11224I-2235J901D01*
G03X223424Y11213I373J150D01*
G02Y9433I2024J-890D01*
G03X222683Y9422I-368J-162D01*
G37*
G54D37*
X570210Y272537D03*
Y175337D03*
G54D30*
X518500Y358500D03*
Y341500D03*
X134279Y297449D03*
Y257449D03*
X176291Y82537D03*
X135291Y62537D03*
X176291Y42537D03*
X135291Y22537D03*
G54D32*
X554284Y334837D03*
G54D31*
X567284Y352337D03*
G54D40*
X560000Y120000D03*
Y75000D03*
G54D35*
X320400Y286900D03*
X585800Y225800D03*
X468100Y146500D03*
X306123Y97477D03*
X408050Y50D03*
G54D38*
X135739Y227909D03*
X127865D03*
X135739Y220035D03*
X127865D03*
X135739Y212161D03*
Y204287D03*
X127865D03*
X135739Y196413D03*
X127865D03*
Y188539D03*
X135739Y180665D03*
X127865D03*
X135739Y172791D03*
X127865D03*
X135739Y164917D03*
X127865D03*
X135739Y157043D03*
Y149169D03*
X127865D03*
X135739Y141295D03*
X127865D03*
Y133421D03*
X135739Y125547D03*
X127865D03*
Y117673D03*
G54D28*
X151733Y371202D03*
X121394Y369641D03*
X282870Y369560D03*
X179400Y366800D03*
X264300Y366600D03*
X260200Y366400D03*
X244407Y366382D03*
X224722D03*
X238502Y366382D03*
X232596D03*
X207006D03*
X201540D03*
X195276D03*
X191257D03*
X272500Y366200D03*
X156207Y366086D03*
X270561Y362873D03*
X128534Y361392D03*
X230628Y359363D03*
X187320D03*
X183383D03*
X162118Y358184D03*
X248303Y357660D03*
X195194Y355650D03*
X173484Y355539D03*
X228659Y355251D03*
X258187Y354347D03*
X183400Y354200D03*
X103327Y352759D03*
X214880Y351844D03*
X151100Y351400D03*
X140106Y350595D03*
X205000Y349900D03*
X260155Y349622D03*
X274800Y348800D03*
X125327Y347759D03*
X103327D03*
X185600Y347600D03*
X255000Y347500D03*
X236379Y345758D03*
X193300Y345500D03*
X156900Y344800D03*
X210675Y343559D03*
X167605Y343361D03*
X248426Y343079D03*
X266546Y340494D03*
X168300Y339100D03*
X125382Y338621D03*
X275069Y338116D03*
X265312Y336302D03*
X246872Y334428D03*
X260350Y334050D03*
X142284Y333200D03*
X168600Y332600D03*
X224568Y330170D03*
X251687Y328356D03*
X256600Y327900D03*
X264092Y325916D03*
X525827Y324622D03*
X536900Y324300D03*
X513726Y323874D03*
X207046Y323796D03*
X185300Y321700D03*
X264092Y320083D03*
X254209D03*
X232596D03*
X207046D03*
X268070Y316573D03*
X242398Y313064D03*
X234565D03*
X230628D03*
X220785D03*
X216848D03*
X197081D03*
X514192Y309878D03*
X228659Y309657D03*
X199094Y308646D03*
X243401Y308372D03*
X269000Y308000D03*
X542700Y307700D03*
X205000Y307000D03*
X260155Y306636D03*
X256372Y306557D03*
X146669Y303555D03*
X220100Y301000D03*
X183804Y299843D03*
X513590Y299030D03*
X533467Y298868D03*
X242600Y298500D03*
X487846Y297423D03*
X499664Y294691D03*
X283100Y294300D03*
X507682Y289691D03*
X268900Y288500D03*
X543726Y287918D03*
X533726D03*
X513726D03*
X175434Y287040D03*
X183804Y285820D03*
X188200Y284600D03*
X498562Y284473D03*
X275254Y283945D03*
X519195Y281701D03*
X243000Y281700D03*
X507683Y279691D03*
X335636Y278135D03*
X496053Y276714D03*
X523726Y274900D03*
X335656Y273995D03*
X460952Y273045D03*
X450434D03*
X183598Y271644D03*
X179558D03*
X258601Y271000D03*
X268922Y270837D03*
X335652Y269943D03*
X211300Y269900D03*
X460954Y269032D03*
X450436D03*
X314810Y267220D03*
X335695Y265902D03*
X173504Y265873D03*
X460952Y264976D03*
X450434D03*
X275600Y263000D03*
X300010Y262080D03*
X335695Y261833D03*
X173503D03*
X460911Y260925D03*
X450393D03*
X335655Y257793D03*
X173503D03*
X312770Y257550D03*
X473231Y257351D03*
X450393Y256925D03*
X297549Y256651D03*
X146875Y256046D03*
X335612Y253743D03*
X173504Y253642D03*
X274900Y252700D03*
X461100Y250600D03*
X335614Y249922D03*
X293480Y249800D03*
X173504Y249551D03*
X304400Y248890D03*
X314170Y246990D03*
X272418Y245910D03*
X173665Y245431D03*
X535183Y245386D03*
X303150Y243850D03*
X294570Y241930D03*
X555566Y241656D03*
X173504Y241391D03*
X162986D03*
X305300Y241100D03*
X529309Y238650D03*
X173504Y237351D03*
X314180Y236090D03*
X310650Y236020D03*
X175208Y234301D03*
X131846Y234137D03*
X136048Y234136D03*
X477343Y233729D03*
X335532Y233472D03*
X330300Y231300D03*
X164064Y230364D03*
X171600Y230300D03*
X277739Y229886D03*
X292800Y229000D03*
X544165Y227823D03*
X286100Y227400D03*
X319695Y226349D03*
X452696Y226060D03*
X335555Y225254D03*
X519700Y224200D03*
X285614Y222430D03*
X452575Y221898D03*
X501300Y221500D03*
X306400D03*
X335559Y221174D03*
X319161Y220504D03*
X545000Y218800D03*
X452580Y217818D03*
X336818Y214802D03*
X305200Y214400D03*
X524859Y214381D03*
X508859D03*
X504859D03*
X496859D03*
X452580Y213778D03*
X545200Y213100D03*
X290656Y212709D03*
X313100Y212490D03*
X474650Y210790D03*
X463097Y209738D03*
X452579D03*
X337000Y209684D03*
X328550D03*
X481268Y208790D03*
X287000Y208410D03*
X313300Y208100D03*
X294140Y207170D03*
X474650Y206790D03*
X164065Y206280D03*
X462936Y205587D03*
X452418D03*
X336737Y205187D03*
X474650Y202790D03*
X164064Y202261D03*
X500742Y202242D03*
X525486Y202134D03*
X452211Y201496D03*
X544700Y200900D03*
X336737Y200069D03*
X328470D03*
X175428Y199938D03*
X474600Y198800D03*
X452050Y197294D03*
X307340Y196840D03*
X336818Y195733D03*
X175470Y195710D03*
X481700Y195200D03*
X277711Y195048D03*
X312632Y194990D03*
X466703Y194986D03*
X474600Y194900D03*
X545500Y194800D03*
X452050Y193093D03*
X282354Y192539D03*
X329200Y190600D03*
X493047Y190463D03*
X503526Y190261D03*
X293850Y190050D03*
X512430Y189362D03*
X451888Y189053D03*
X531430Y188790D03*
X282354Y188264D03*
X271836D03*
X562900Y186900D03*
X543600Y186800D03*
X474650Y186790D03*
X299500Y186600D03*
X512430Y185821D03*
X493047Y185463D03*
X463028D03*
X451932Y184902D03*
X178000Y183105D03*
X474650Y182790D03*
X292036Y181665D03*
X451932Y180863D03*
X481268Y180790D03*
X471300Y180500D03*
X485028Y180463D03*
X282304Y180033D03*
X543068Y178790D03*
X333530Y176970D03*
X451932Y176822D03*
X165600Y176700D03*
X161852Y176235D03*
X485028Y175463D03*
X471048D03*
X536450Y174790D03*
X226636Y174587D03*
X212362Y174496D03*
X208322D03*
X204282D03*
X200242D03*
X196202D03*
X192162Y174416D03*
X184003Y174344D03*
X216402Y174334D03*
X188122D03*
X249448Y174172D03*
X245408D03*
X261729Y174010D03*
X257689D03*
X253650D03*
X284900Y174000D03*
X361964Y172982D03*
X357924D03*
X366086Y172952D03*
X353767Y172872D03*
X349602Y172820D03*
X345526Y172790D03*
X492859Y172561D03*
X474100Y172400D03*
X446445Y171816D03*
X442405D03*
X450484Y171770D03*
X454560Y171768D03*
X466646Y171744D03*
X470686Y171744D03*
X462606D03*
X438365Y171740D03*
X503526Y171261D03*
X311400Y171200D03*
X277800Y168600D03*
X512430Y166752D03*
X557900Y166600D03*
X333460Y164300D03*
X196202Y163978D03*
X192162Y163897D03*
X283949Y163457D03*
X288069Y163416D03*
X279828Y163382D03*
X187686Y163037D03*
X184003D03*
X357924Y162463D03*
X337203Y162353D03*
X349602Y162301D03*
X446445Y161298D03*
X458564Y161252D03*
X244713Y161245D03*
X466646Y161226D03*
X462606D03*
X438365Y161222D03*
X261534Y161083D03*
X328293Y160541D03*
X540448Y159450D03*
X522859Y159199D03*
X433002Y158338D03*
X419570Y155095D03*
X378233D03*
X372450Y154353D03*
X339201D03*
X332902D03*
X326603D03*
X320303D03*
X216366D03*
X494859Y152581D03*
X514919Y152458D03*
X481048Y150805D03*
X462048D03*
X451638D03*
X386955Y150725D03*
X383473Y150709D03*
X491391Y150643D03*
X500000Y149800D03*
X518200Y148700D03*
X452848Y146132D03*
X393852Y145470D03*
X442619Y144691D03*
X351799Y143461D03*
X336051D03*
X196202D03*
X286649Y143381D03*
X306255Y143171D03*
X208322Y141037D03*
X290382Y139056D03*
X254797D03*
X273444Y138850D03*
X215518Y138144D03*
X189500D03*
X415034Y137574D03*
X411346Y135166D03*
X334477Y135015D03*
X216862Y134515D03*
X266521Y134207D03*
X244952Y134191D03*
X262036Y134176D03*
X388806Y134000D03*
X321377Y133469D03*
X370636Y132986D03*
X326842D03*
X315579Y132361D03*
X241324D03*
X165849Y131242D03*
X160849D03*
X150849D03*
X265185Y130547D03*
X174935Y127339D03*
X221330Y126918D03*
X404400Y123970D03*
X400463D03*
X396526D03*
X392589D03*
X388652D03*
X384715D03*
X380302D03*
X376673Y123884D03*
X361553Y122069D03*
X340776D03*
X334477D03*
X274634D03*
X236839D03*
X224240D03*
X144444Y121585D03*
X438200Y121100D03*
X182612Y116316D03*
X435874Y116118D03*
X406369Y115951D03*
X402432D03*
X398495D03*
X394558D03*
X386684D03*
X409707Y115180D03*
X421506Y114676D03*
X417268Y113071D03*
X331327Y111177D03*
X280933D03*
X239988D03*
X439300Y111000D03*
X357396Y109362D03*
X421200Y109000D03*
X435874Y106454D03*
X178872Y106297D03*
X175132D03*
X399558Y105726D03*
X395538D03*
X391538D03*
X387498D03*
X407597Y105721D03*
X403578D03*
X331584Y104276D03*
X285690Y104258D03*
X327382Y104114D03*
X280680D03*
X276604D03*
X241896Y104095D03*
X323306Y104033D03*
X319186D03*
X236932Y103952D03*
X232811D03*
X371989Y102327D03*
X227485Y101517D03*
X216967D03*
X419189Y97323D03*
X354334Y96713D03*
X345316Y96673D03*
X436782Y96118D03*
X396547Y95208D03*
X385854D03*
X391538Y95208D03*
X353525Y93116D03*
X349485D03*
X388652Y92569D03*
X435874Y91118D03*
X376968Y89308D03*
X363096Y88950D03*
X358975D03*
X344233Y88919D03*
X340153D03*
X332033D03*
X327912Y88914D03*
X402432Y88537D03*
X398495D03*
X394558D03*
X262339Y87575D03*
X437800Y86100D03*
X356034Y85357D03*
X346976D03*
X272694Y84988D03*
X250694D03*
X419566Y84528D03*
X379713Y84528D03*
X314131Y83548D03*
X187291Y80546D03*
X250694Y79988D03*
X303879Y79701D03*
X320921Y79489D03*
X363096Y78431D03*
X358975D03*
X367187Y78418D03*
X344233Y78401D03*
X340153D03*
X332033D03*
X327912Y78396D03*
X372191Y78363D03*
X336113Y78361D03*
X380350Y78202D03*
X417232Y78040D03*
X409100Y78018D03*
X413191Y78011D03*
X349000Y78000D03*
X354100Y77900D03*
X320921Y75287D03*
X272694D03*
X250694Y74988D03*
X332033Y72233D03*
X371278Y70224D03*
X367342D03*
X363404D03*
X359468D03*
X351594D03*
X347656D03*
X343720D03*
X323352Y70197D03*
X272694Y69988D03*
X250694D03*
X308122Y68022D03*
X384390Y67684D03*
X417232Y67522D03*
X400868Y67501D03*
X409100Y67500D03*
X371278Y66286D03*
X367342D03*
X363404D03*
X347656D03*
X343720D03*
X339782D03*
X335846D03*
X305694Y64988D03*
X272694D03*
X250694D03*
X380420Y64672D03*
X323351Y64298D03*
X371278Y62350D03*
X367342D03*
X363404D03*
X359468D03*
X343720D03*
X339782D03*
X335846D03*
X147291Y61528D03*
X424900Y61200D03*
X380421Y60551D03*
X272694Y59988D03*
X250694D03*
X294400Y59900D03*
X332033Y59369D03*
X323318D03*
X371278Y58412D03*
X367342D03*
X363404D03*
X343720D03*
X161300Y57300D03*
X380388Y55703D03*
X323237Y55248D03*
X311015D03*
X371278Y54476D03*
X367342D03*
X363404D03*
X343720D03*
X339782D03*
X335846D03*
X242364Y52703D03*
X310075Y51814D03*
X400874Y51573D03*
X395874D03*
X391109Y50723D03*
X380591D03*
X371278Y50538D03*
X367342D03*
X363404D03*
X343720D03*
X335846D03*
X218384Y50109D03*
X323271Y50077D03*
X235793Y49966D03*
X380753Y46683D03*
X425300Y46200D03*
X235788Y45926D03*
X246600Y45700D03*
X323076Y45067D03*
X228833Y44368D03*
X371278Y42664D03*
X367342D03*
X363404D03*
X343720D03*
X339782D03*
X380542Y42482D03*
X325485Y40785D03*
X187291Y40546D03*
X371278Y38728D03*
X339782D03*
X380430Y38280D03*
X323076Y36502D03*
X309208Y35533D03*
X237778Y35268D03*
X223000Y35200D03*
X209200Y35000D03*
X367342Y34790D03*
X363404D03*
X343720D03*
X398750Y34482D03*
X380430Y34240D03*
X217028Y33279D03*
X323072Y32301D03*
X233402Y31759D03*
X425300Y31500D03*
X343720Y30854D03*
X339782D03*
X335846D03*
X309208Y30645D03*
X390948Y30160D03*
X380430D03*
X347697Y26917D03*
X343679D03*
X339782D03*
X335846D03*
X309208Y26564D03*
X380420Y26140D03*
X214469Y25011D03*
X347862Y23184D03*
X343924D03*
X371278Y22980D03*
X367342D03*
X363404D03*
X355736D03*
X339782D03*
X335846D03*
X309208Y21635D03*
X380549Y21282D03*
X322907Y19748D03*
X371278Y19042D03*
X367342D03*
X363404D03*
X359468D03*
X335846D03*
X340000Y19000D03*
X345688Y18517D03*
X214954Y18253D03*
X210752D03*
X425500Y16200D03*
X324680Y15957D03*
X353521Y15906D03*
X333082Y15790D03*
X328962D03*
X316500Y14829D03*
X339500Y10500D03*
X372150Y8106D03*
X214954Y7735D03*
X210752D03*
X348500Y5100D03*
X362500Y-3400D03*
X367202Y-4474D03*
X413259Y-12200D03*
X402741D03*
X369800Y-21400D03*
X413401Y-21430D03*
X402883D03*
X413239Y-30318D03*
X402721D03*
X413259Y-39700D03*
X402741D03*
X463964Y130559D03*
X469874Y116118D03*
Y91118D03*
X486475Y91002D03*
X469500Y61200D03*
X534540Y53417D03*
X530456Y53378D03*
X468800Y46200D03*
X469200Y31300D03*
X482500Y26200D03*
Y21200D03*
X469400Y16300D03*
X482500Y11200D03*
Y6200D03*
G54D41*
X525020Y115000D03*
X535020Y110000D03*
X510492D03*
X525020Y105000D03*
X500492D03*
X535020Y100000D03*
X510492D03*
X525020Y95000D03*
X500492D03*
X535020Y90000D03*
X510492D03*
X525020Y85000D03*
X500492D03*
X510492Y80000D03*
X556440Y31830D03*
X517060D03*
X536750Y18170D03*
G54D33*
X562282Y302289D03*
X467600Y294600D03*
X306535Y284191D03*
X574621Y152174D03*
X569621D03*
X564621D03*
X579621Y147174D03*
X574621D03*
X569621D03*
X224155Y85002D03*
X219155D03*
X224155Y80002D03*
X219155D03*
Y75002D03*
Y70002D03*
X224155Y65002D03*
X219155D03*
X250448Y15323D03*
X245448D03*
X240448D03*
X235448D03*
X230448D03*
X225448D03*
X255448Y10323D03*
X250448D03*
X245448D03*
X240448D03*
X235448D03*
X230448D03*
X470107Y134568D03*
G54D34*
X577282Y302289D03*
X467600Y284600D03*
X306535Y269191D03*
G54D39*
X180933Y132765D03*
G54D36*
X283707Y287610D03*
Y267610D03*
X575610Y240237D03*
X564810Y234837D03*
X575610Y229437D03*
X564810Y224037D03*
X575610Y218637D03*
X564810Y213237D03*
X575610Y207837D03*
X564810Y202437D03*
X359683Y99114D03*
X339683D03*
X542429Y47837D03*
X460282Y-13534D03*
G54D29*
X463500Y371000D03*
X447400D03*
X341500Y370900D03*
X367600Y370700D03*
X393100Y370400D03*
X324600Y369200D03*
X453400Y368700D03*
X347400Y368600D03*
X302000Y368400D03*
X475900Y368100D03*
X430500D03*
X401700Y367900D03*
X388900D03*
X326800Y367000D03*
X455600Y366500D03*
X349600Y366400D03*
X304200Y366200D03*
X478100Y365900D03*
X432700D03*
X394900Y365800D03*
X329000Y364800D03*
X324600D03*
X457800Y364300D03*
X453400D03*
X351800Y364200D03*
X347400D03*
X306400Y364000D03*
X302000D03*
X480300Y363700D03*
X475900D03*
X435100D03*
X430300D03*
X400100Y363500D03*
X388900D03*
X455600Y362100D03*
X349600Y362000D03*
X304200Y361800D03*
X432700Y361700D03*
X394950Y361550D03*
X453400Y359900D03*
X351800Y359800D03*
X347400D03*
X400100Y359600D03*
X388900D03*
X302000D03*
X480300Y359300D03*
X434900D03*
X430500D03*
X349600Y357600D03*
X279514Y357354D03*
X394900Y357300D03*
X478100Y357100D03*
X432700D03*
X329000Y356000D03*
X324600D03*
X388800Y355600D03*
X457800Y355500D03*
X453400D03*
X400200D03*
X351800Y355400D03*
X347400D03*
X306400Y355200D03*
X302000D03*
X447100Y355000D03*
X480300Y354900D03*
X475900D03*
X434900D03*
X430500D03*
X364200Y354500D03*
X319500Y354400D03*
X326800Y353800D03*
X394900Y353400D03*
X455600Y353300D03*
X493354Y353254D03*
X349600Y353200D03*
X304200Y353000D03*
X478100Y352700D03*
X432700D03*
X388600Y351600D03*
X329000D03*
X324600D03*
X400200Y351500D03*
X457800Y351100D03*
X453400D03*
X351800Y351000D03*
X347400D03*
X306400Y350800D03*
X302000D03*
X480300Y350500D03*
X475900D03*
X434900D03*
X430500D03*
X326800Y349400D03*
X394800Y349300D03*
X455600Y348900D03*
X349600Y348800D03*
X304200Y348600D03*
X478100Y348300D03*
X432700D03*
X388500Y347600D03*
X400200Y347500D03*
X329000Y347200D03*
X324600D03*
X457800Y346700D03*
X453400D03*
X351800Y346600D03*
X347400D03*
X306400Y346400D03*
X302000D03*
X480300Y346100D03*
X475900D03*
X434900D03*
X430500D03*
X463700Y345800D03*
X290000Y345700D03*
X418400Y345600D03*
X394700Y345500D03*
X334900Y345200D03*
X326800Y345000D03*
X285736Y344596D03*
X455600Y344500D03*
X349600Y344400D03*
X304200Y344200D03*
X478100Y343900D03*
X432700D03*
X388500Y343800D03*
X400200Y343400D03*
X329000Y342800D03*
X324600D03*
X457800Y342300D03*
X453400D03*
X351800Y342200D03*
X347400D03*
X500700Y342100D03*
X306400Y342000D03*
X302000D03*
X480300Y341700D03*
X475900D03*
X434900D03*
X430500D03*
X394800Y341600D03*
X447900Y341200D03*
X326800Y340600D03*
X455600Y340100D03*
X349600Y340000D03*
X304200Y339800D03*
X478100Y339500D03*
X432700D03*
X388500D03*
X369000Y338600D03*
X329000Y338400D03*
X324600D03*
X400300Y338200D03*
X283400Y338100D03*
X457800Y337900D03*
X453400D03*
X361900D03*
X289000D03*
X351800Y337800D03*
X347400D03*
X306400Y337600D03*
X302000D03*
X490800Y337400D03*
X480300Y337300D03*
X475900D03*
X434900D03*
X430500D03*
X394700D03*
X326800Y336200D03*
X286300D03*
X388500Y335800D03*
X455600Y335700D03*
X349600Y335600D03*
X304200Y335400D03*
X478100Y335100D03*
X432700D03*
X496965Y334763D03*
X418000Y334700D03*
X493157Y334357D03*
X463400Y334300D03*
X334800Y334200D03*
X329000Y334000D03*
X324600D03*
X400200Y333800D03*
X458200Y333600D03*
X453400Y333500D03*
X347400Y333400D03*
X394600Y333100D03*
X480300Y332900D03*
X475900D03*
X434900D03*
X430500D03*
X326800Y331800D03*
X455600Y331300D03*
X493100Y331200D03*
X478100Y330700D03*
X357400Y330200D03*
X296400Y330000D03*
X293300D03*
X470400Y329700D03*
X318900D03*
X489300Y329600D03*
X443900D03*
X345500D03*
X463600Y329500D03*
X447500D03*
X381400Y329300D03*
X497165Y328603D03*
X332100Y328500D03*
X360500Y327000D03*
X357300D03*
X338500D03*
X335000D03*
X309000Y326900D03*
X305900D03*
X315300Y326800D03*
X467200Y326500D03*
X464100D03*
X443800D03*
X421800D03*
X324400D03*
X424900Y326400D03*
X347800Y326300D03*
X373900Y325900D03*
X353441Y325441D03*
X482108Y324908D03*
X448000Y324900D03*
X341600Y323900D03*
X334800Y323700D03*
X307900Y323600D03*
X318700Y323500D03*
X286201Y322529D03*
X497165Y322140D03*
X363700Y320700D03*
X335100Y320600D03*
X315300Y320500D03*
X289900Y320300D03*
X492600Y320200D03*
X443800Y320100D03*
X418500D03*
X324200Y319900D03*
X429200Y319500D03*
X335300Y317500D03*
X286120Y316307D03*
X345408Y315992D03*
X497165Y315981D03*
X353600Y315900D03*
X300200Y315700D03*
X456700Y315500D03*
X482341Y315459D03*
X474241D03*
X428730Y315430D03*
X318600Y314400D03*
X363700Y314300D03*
X308900Y314100D03*
X289900D03*
X492700Y313900D03*
X464000Y313800D03*
X443800D03*
X418500D03*
X329900Y313400D03*
X481700Y312300D03*
X363700Y311200D03*
X443900Y310700D03*
X453120Y310510D03*
X286201Y309843D03*
X497441Y309300D03*
X335300Y308100D03*
X318600Y308000D03*
X290100Y307900D03*
X451400Y307790D03*
X464100Y307600D03*
X418600D03*
X492600Y307400D03*
X440420Y280200D03*
X436480D03*
X432550D03*
X428610D03*
X424670D03*
X420740D03*
X416800D03*
X412860D03*
X408920D03*
X404990D03*
X401050D03*
X385500D03*
X381370D03*
X377430D03*
X373490D03*
X369550D03*
X365620D03*
X361680D03*
X357740D03*
X353810D03*
X349870D03*
X345930D03*
X444360Y276270D03*
X440420D03*
X436480D03*
X432550D03*
X428610D03*
X424670D03*
X420740D03*
X416800D03*
X412860D03*
X401050D03*
X397110D03*
X389240D03*
X385300D03*
X381370D03*
X377430D03*
X365620D03*
X361680D03*
X357740D03*
X353810D03*
X349870D03*
X432550Y272330D03*
X428610D03*
X424670D03*
X420740D03*
X416800D03*
X412860D03*
X408920D03*
X404990D03*
X401050D03*
X397110D03*
X389240D03*
X385300D03*
X381370D03*
X377430D03*
X373490D03*
X369550D03*
X365620D03*
X361680D03*
X444360Y268390D03*
X440420D03*
X436480D03*
X432550D03*
X428610D03*
X416800D03*
X412860D03*
X408920D03*
X404990D03*
X401050D03*
X397110D03*
X381370D03*
X377430D03*
X373490D03*
X369550D03*
X365620D03*
X361680D03*
X357740D03*
X345930D03*
X342000D03*
X216488Y268018D03*
X240493Y267875D03*
X268700Y266100D03*
X262170Y264500D03*
X259020D03*
X240120D03*
X236970D03*
X230670D03*
X224370D03*
X211770D03*
X208630D03*
X202330D03*
X199180D03*
X192880D03*
X189730D03*
X186580D03*
X440420Y264460D03*
X436480D03*
X432550D03*
X428610D03*
X420740D03*
X416800D03*
X412860D03*
X408920D03*
X404990D03*
X401050D03*
X397110D03*
X389240D03*
X385300D03*
X381370D03*
X377430D03*
X373490D03*
X369550D03*
X365620D03*
X361680D03*
X357740D03*
X353810D03*
X349870D03*
X345930D03*
X342000D03*
X179858Y262864D03*
X269186Y261350D03*
X265320D03*
X262170D03*
X259020D03*
X255870D03*
X252720D03*
X249570D03*
X246420D03*
X243270D03*
X240120D03*
X236970D03*
X233820D03*
X230670D03*
X227520D03*
X221220D03*
X218070D03*
X211770D03*
X208630D03*
X205480D03*
X202330D03*
X199180D03*
X196030D03*
X192880D03*
X189730D03*
X186580D03*
X183430D03*
X444360Y260520D03*
X440420D03*
X436480D03*
X432550D03*
X428610D03*
X361680D03*
X349870D03*
X345930D03*
X342000D03*
X417300Y258600D03*
X265320Y258200D03*
X259020D03*
X252720D03*
X249570D03*
X246420D03*
X243270D03*
X240120D03*
X236970D03*
X233820D03*
X230670D03*
X227520D03*
X224370D03*
X221220D03*
X218070D03*
X208630D03*
X205480D03*
X202330D03*
X199180D03*
X196030D03*
X189730D03*
X186580D03*
X183430D03*
X397500Y257100D03*
X377000D03*
X436480Y256580D03*
X432550D03*
X428610D03*
X353810D03*
X349870D03*
X342000D03*
X265320Y255050D03*
X262170D03*
X259020D03*
X255870D03*
X252720D03*
X249570D03*
X246420D03*
X243270D03*
X240120D03*
X236970D03*
X233820D03*
X230670D03*
X227520D03*
X224370D03*
X221220D03*
X218070D03*
X205480D03*
X202330D03*
X199180D03*
X192880D03*
X186580D03*
X183430D03*
X436480Y252640D03*
X432550D03*
X357740D03*
X353810D03*
X227570Y251924D03*
X262170Y251900D03*
X259020D03*
X252720D03*
X246420D03*
X243270D03*
X236970D03*
X233820D03*
X218070D03*
X211770D03*
X205480D03*
X202330D03*
X196030D03*
X189730D03*
X186580D03*
X180634Y250386D03*
X265320Y248750D03*
X262170D03*
X259020D03*
X255870D03*
X249570D03*
X246420D03*
X240120D03*
X230670D03*
X221220D03*
X208630D03*
X202330D03*
X199180D03*
X192880D03*
X189730D03*
X186580D03*
X183430D03*
X444360Y248710D03*
X440420D03*
X436480D03*
X432550D03*
X428610D03*
X353810D03*
X349870D03*
X345930D03*
X342000D03*
X268349Y247236D03*
X265320Y245600D03*
X262170D03*
X259020D03*
X255870D03*
X252720D03*
X249570D03*
X246420D03*
X243270D03*
X236970D03*
X233820D03*
X218070D03*
X211770D03*
X205480D03*
X202330D03*
X199180D03*
X196030D03*
X192880D03*
X189730D03*
X186580D03*
X183430D03*
X444360Y244770D03*
X440420D03*
X436480D03*
X432550D03*
X428610D03*
X424670D03*
X404990D03*
X401050D03*
X397110D03*
X393180D03*
X389240D03*
X385300D03*
X381370D03*
X377430D03*
X361680D03*
X357740D03*
X353810D03*
X349870D03*
X345930D03*
X259020Y242450D03*
X255870D03*
X252720D03*
X246420D03*
X202330D03*
X196030D03*
X192880D03*
X189730D03*
X225950Y241860D03*
X222800D03*
X440420Y240830D03*
X436480D03*
X377430D03*
X342000D03*
X249570Y239300D03*
X199180D03*
X186580D03*
X183430D03*
X444360Y236900D03*
X436480D03*
X428610D03*
X404990D03*
X377430D03*
X357740D03*
X349870D03*
X345930D03*
X265320Y236150D03*
X259020D03*
X255870D03*
X252720D03*
X246420D03*
X202330D03*
X196030D03*
X265320Y233000D03*
X262170D03*
X259020D03*
X255870D03*
X252720D03*
X246420D03*
X202330D03*
X183430D03*
X440420Y232960D03*
X377430D03*
X353810D03*
X345930D03*
X229100Y230440D03*
X222800D03*
X262170Y229850D03*
X259020D03*
X249570D03*
X199180D03*
X196030D03*
X183430D03*
X404990Y229020D03*
X419700Y228100D03*
X265320Y226700D03*
X227520D03*
X192880D03*
X189730D03*
X186580D03*
X242680Y225130D03*
X217480D03*
X206060D03*
X428610Y225090D03*
X377430D03*
X357740D03*
X353810D03*
X342000D03*
X262170Y223550D03*
X224370D03*
X196030D03*
X183430D03*
X242680Y221980D03*
X231260D03*
X206060D03*
X436480Y221150D03*
X432550D03*
X428610D03*
X404990D03*
X377430D03*
X342000D03*
X249570Y220400D03*
X199180D03*
X196030D03*
X192880D03*
X189730D03*
X186580D03*
X246420Y217250D03*
X202330D03*
X196030D03*
X192880D03*
X189730D03*
X444360Y217210D03*
X436480D03*
X432550D03*
X428610D03*
X377430D03*
X357740D03*
X353810D03*
X342000D03*
X225950Y216670D03*
X219650D03*
X444360Y213270D03*
X436480D03*
X432550D03*
X428610D03*
X404990D03*
X401050D03*
X397110D03*
X393180D03*
X389240D03*
X385300D03*
X381370D03*
X377430D03*
X353810D03*
X345930D03*
X252720Y210960D03*
X246420D03*
X202330D03*
X196030D03*
X192880D03*
X189730D03*
X186580D03*
X422700Y210400D03*
X444360Y209340D03*
X440420D03*
X436480D03*
X432550D03*
X428610D03*
X345930D03*
X249570Y207810D03*
X199180D03*
X192880D03*
X189730D03*
X186580D03*
X183430D03*
X444360Y205400D03*
X440420D03*
X436480D03*
X428610D03*
X361680D03*
X357740D03*
X349870D03*
X345930D03*
X225950Y205250D03*
X222800D03*
X265320Y204660D03*
X259020D03*
X255870D03*
X252720D03*
X246420D03*
X202330D03*
X196030D03*
X186580D03*
X262170Y201510D03*
X259020D03*
X255870D03*
X252720D03*
X249570D03*
X246420D03*
X236970D03*
X233820D03*
X218070D03*
X211770D03*
X205480D03*
X202330D03*
X199180D03*
X196030D03*
X183430D03*
X444360Y201460D03*
X440420D03*
X428610D03*
X357740D03*
X349870D03*
X345930D03*
X342000D03*
X376800Y201100D03*
X412300Y199500D03*
X262170Y198360D03*
X259020D03*
X255870D03*
X249570D03*
X246420D03*
X240120D03*
X230670D03*
X221220D03*
X208630D03*
X202330D03*
X199180D03*
X440420Y197530D03*
X436480D03*
X432550D03*
X428610D03*
X397110D03*
X361680D03*
X357740D03*
X353810D03*
X349870D03*
X345930D03*
X342000D03*
X262170Y195210D03*
X259020D03*
X252720D03*
X246420D03*
X243270D03*
X236970D03*
X227475D03*
X221220D03*
X218070D03*
X211770D03*
X205480D03*
X202330D03*
X196030D03*
X189730D03*
X186580D03*
X444360Y193590D03*
X440420D03*
X436480D03*
X432550D03*
X428610D03*
X420740D03*
X416800D03*
X412860D03*
X408920D03*
X404990D03*
X401050D03*
X397110D03*
X389240D03*
X385300D03*
X381370D03*
X377430D03*
X373490D03*
X365620D03*
X361680D03*
X357740D03*
X353810D03*
X349870D03*
X345930D03*
X342000D03*
X262170Y192060D03*
X246420D03*
X243270D03*
X240120D03*
X236970D03*
X227520D03*
X224370D03*
X221220D03*
X218070D03*
X211770D03*
X208630D03*
X205480D03*
X202330D03*
X199180D03*
X196030D03*
X192880D03*
X186580D03*
X444360Y189650D03*
X440420D03*
X432550D03*
X416800D03*
X412860D03*
X408920D03*
X404990D03*
X401050D03*
X397110D03*
X381370D03*
X377430D03*
X373490D03*
X369550D03*
X365620D03*
X361680D03*
X349870D03*
X345930D03*
X342000D03*
X246420Y188910D03*
X243270D03*
X240120D03*
X236970D03*
X233820D03*
X230670D03*
X227520D03*
X224370D03*
X221220D03*
X218070D03*
X211770D03*
X208630D03*
X205480D03*
X202330D03*
X199180D03*
X192880D03*
X189730D03*
X262170Y185760D03*
X255870D03*
X249570D03*
X246420D03*
X243270D03*
X240120D03*
X236970D03*
X233820D03*
X230670D03*
X224370D03*
X221220D03*
X218070D03*
X211770D03*
X208630D03*
X205480D03*
X202330D03*
X199180D03*
X196030D03*
X186580D03*
X183430D03*
X444360Y185710D03*
X440420D03*
X436480D03*
X428610D03*
X424670D03*
X420740D03*
X416800D03*
X412860D03*
X408920D03*
X404990D03*
X401050D03*
X397110D03*
X389240D03*
X385300D03*
X381370D03*
X377430D03*
X373490D03*
X369550D03*
X361680D03*
X357740D03*
X353810D03*
X349870D03*
X345930D03*
X262170Y182610D03*
X259020D03*
X249570D03*
X246420D03*
X240120D03*
X236970D03*
X230670D03*
X227520D03*
X224370D03*
X211770D03*
X208630D03*
X202330D03*
X199180D03*
X196030D03*
X189730D03*
X186580D03*
X444360Y181780D03*
X440420D03*
X436480D03*
X432550D03*
X428610D03*
X424670D03*
X420740D03*
X416800D03*
X412860D03*
X401050D03*
X397110D03*
X389240D03*
X385300D03*
X381370D03*
X377430D03*
X365620D03*
X361680D03*
X357740D03*
X353810D03*
X349870D03*
X205601Y179834D03*
X228451Y178814D03*
X440420Y177840D03*
X436480D03*
X432550D03*
X428610D03*
X424670D03*
X420740D03*
X416800D03*
X412860D03*
X408920D03*
X404990D03*
X401050D03*
X397110D03*
X389240D03*
X385300D03*
X365620D03*
X361680D03*
X357740D03*
X353810D03*
G54D42*
X500492Y115000D03*
X535020Y80000D03*
G54D43*
X559980Y18170D03*
X513520D03*
%LPD*%
G75*
G54D10*
X41654Y352402D03*
X514094Y-37598D03*
X570210Y175337D03*
Y272537D03*
G54D20*
X556440Y31830D03*
X517060D03*
X536750Y18170D03*
X510492Y80000D03*
Y90000D03*
Y100000D03*
Y110000D03*
X500492Y85000D03*
Y95000D03*
Y105000D03*
X525020Y115000D03*
Y105000D03*
Y95000D03*
Y85000D03*
X535020Y110000D03*
Y100000D03*
Y90000D03*
G54D11*
X176291Y22537D03*
Y42537D03*
Y62537D03*
Y82537D03*
X135291D03*
Y62537D03*
Y42537D03*
Y22537D03*
X134279Y317449D03*
Y297449D03*
Y277449D03*
Y257449D03*
X535500Y358500D03*
Y341500D03*
X518500D03*
Y358500D03*
G54D12*
X187291Y80546D03*
Y40546D03*
X147291Y61528D03*
X161300Y57300D03*
X187291Y58528D03*
Y18528D03*
X147291Y42546D03*
X143785Y52662D03*
X147291Y74528D03*
X200384Y29609D03*
X175469Y189499D03*
X179201Y201752D03*
X178876Y193843D03*
X178500Y189299D03*
X161852Y176235D03*
X184003Y174344D03*
X183430Y201510D03*
X175132Y106297D03*
X165600Y176700D03*
X186580Y182610D03*
X183430Y185760D03*
X186580D03*
X189730Y188910D03*
X192880Y192060D03*
X196030Y195210D03*
Y201510D03*
X176491Y187306D03*
X178000Y183105D03*
X175470Y195710D03*
X179582Y191508D03*
X175428Y199938D03*
X187686Y163037D03*
X200242D03*
X196202Y163978D03*
X192162Y163897D03*
X189500Y138144D03*
X199180Y198360D03*
Y201510D03*
Y182610D03*
X189730D03*
X196202Y143461D03*
X192162Y174416D03*
X196030Y185760D03*
X178872Y106297D03*
X184003Y163037D03*
X186580Y195210D03*
X150849Y131242D03*
X174935Y127339D03*
X182612Y116316D03*
X147229Y101430D03*
X165849Y117260D03*
X178872Y127339D03*
X182612D03*
X186580Y201510D03*
Y198360D03*
X181494Y99374D03*
X172601Y151466D03*
X156833Y173676D03*
X200618Y154353D03*
X196030Y198360D03*
X199180Y195210D03*
X192880D03*
X196030Y188910D03*
X189730Y192060D03*
X192880Y185760D03*
X186580Y188910D03*
X189730Y185760D03*
X183430Y198360D03*
X192880Y182610D03*
X183430Y188910D03*
Y182610D03*
X160862Y199938D03*
X170100Y181100D03*
X199180Y192060D03*
X200242Y174496D03*
X196030Y182610D03*
X196202Y174496D03*
X189730Y195210D03*
X192880Y188910D03*
X188122Y174334D03*
X196030Y192060D03*
X186580D03*
X199180Y185760D03*
X165849Y131242D03*
X144444Y121585D03*
X199180Y188910D03*
X160849Y131242D03*
X196030Y223550D03*
X164064Y202261D03*
X196030Y220400D03*
X179507Y205855D03*
X192880Y220400D03*
X189730D03*
X186580D03*
X196030Y217250D03*
X173742Y216041D03*
X192880Y217250D03*
X172038Y214072D03*
X189730Y217250D03*
X174490Y212104D03*
X172787Y210135D03*
X192880Y210960D03*
X171083Y207812D03*
X189730Y210960D03*
X164065Y206280D03*
X186580Y210960D03*
X164064Y230364D03*
X192880Y207810D03*
X172787Y226427D03*
X189730Y207810D03*
X171083Y224458D03*
X186580Y207810D03*
X172787Y222490D03*
X183430Y207810D03*
X186580Y204660D03*
X175208Y234301D03*
X183430Y223550D03*
X196030Y204660D03*
Y210960D03*
X199180Y207810D03*
X131846Y234137D03*
X136048Y234136D03*
X173504Y249551D03*
Y253642D03*
X183598Y271644D03*
X179558D03*
X173503Y261833D03*
Y257793D03*
X177498Y204041D03*
X162986Y237351D03*
Y241391D03*
X160577Y237311D03*
X183430Y261350D03*
X186580Y226700D03*
Y261350D03*
Y264500D03*
X189730Y258200D03*
X192880Y255050D03*
X196030Y236150D03*
Y242450D03*
Y245600D03*
Y251900D03*
X199180Y220400D03*
Y229850D03*
Y239300D03*
X193226Y311055D03*
X199131Y320083D03*
X183383Y313064D03*
X187320D03*
X173504Y265873D03*
X146875Y256046D03*
X146669Y303555D03*
X199180Y245600D03*
Y248750D03*
X185300Y321700D03*
X191257Y320083D03*
X180634Y250386D03*
X183804Y299843D03*
X189730Y264500D03*
Y261350D03*
X192880Y264500D03*
X201100Y313064D03*
X192880Y261350D03*
X197081Y313064D03*
X195194Y309045D03*
X196030Y258200D03*
X191257Y313064D03*
X196030Y261350D03*
X189289Y311055D03*
X199180Y258200D03*
X183804Y285820D03*
X179858Y262864D03*
X185352Y311055D03*
X199180Y261350D03*
Y255050D03*
Y264500D03*
X189730Y242450D03*
X192880D03*
X183430Y245600D03*
X192880D03*
X186580D03*
X189730D03*
X183430Y248750D03*
X192880D03*
X186580D03*
X189730D03*
X183430Y255050D03*
X189730Y251900D03*
X186580D03*
Y255050D03*
X183430Y258200D03*
X186580D03*
X183804Y293806D03*
Y296214D03*
X201200Y289400D03*
X199094Y308646D03*
X198500Y288700D03*
X196100Y289300D03*
X193600Y289400D03*
X191200Y288300D03*
X175434Y287040D03*
X188200Y284600D03*
X183383Y308646D03*
X173504Y241391D03*
X146875Y269046D03*
X187320Y320083D03*
X199131Y311055D03*
X183383Y320083D03*
X146669Y316555D03*
X199180Y251900D03*
Y242450D03*
Y236150D03*
Y233000D03*
Y226700D03*
Y223550D03*
Y217250D03*
X196030Y264500D03*
Y255050D03*
Y248750D03*
Y239300D03*
Y233000D03*
X192880Y258200D03*
Y251900D03*
Y239300D03*
Y223550D03*
X189730Y255050D03*
Y239300D03*
Y223550D03*
X186580Y242450D03*
Y223550D03*
X183430Y264500D03*
Y251900D03*
Y242450D03*
Y226700D03*
Y220400D03*
X163147Y245431D03*
X136048Y244655D03*
X131846D03*
X162986Y269913D03*
Y265873D03*
X162985Y257793D03*
Y261833D03*
X162986Y253642D03*
Y249551D03*
X199180Y210960D03*
Y204660D03*
X196030Y207810D03*
X183430Y204660D03*
X175434Y282201D03*
X179558Y282163D03*
X183598D03*
X187638D03*
X173665Y245431D03*
X200400Y270000D03*
X198300Y271300D03*
X195600Y271200D03*
X193100D03*
X190600D03*
X188100Y271400D03*
X192880Y226700D03*
X196030Y229850D03*
X186580Y239300D03*
X183430D03*
Y233000D03*
X171600Y230300D03*
X173504Y237351D03*
X189730Y226700D03*
X183430Y229850D03*
X151100Y351400D03*
X132654Y371830D03*
X128534Y371912D03*
X125382Y338621D03*
X196949Y372048D03*
X189489Y372048D03*
X179400Y366800D03*
X142284Y333200D03*
X193226Y359363D03*
X183383Y359363D03*
X187320D03*
X199131D03*
X167605Y343361D03*
X156207Y366086D03*
X103327Y347759D03*
X125327D03*
X140106Y350595D03*
X162118Y358184D03*
X156900Y344800D03*
X103327Y352759D03*
X121394Y369641D03*
X201540Y366382D03*
X193300Y345500D03*
X195276Y366382D03*
X191257Y357354D03*
X189289Y353947D03*
X183400Y354200D03*
X168600Y332600D03*
X189289Y322092D03*
X195194Y324102D03*
X197163Y322092D03*
X201100D03*
X168300Y339100D03*
X187474Y355650D03*
X191257Y366382D03*
X195194Y355650D03*
X198977D03*
X201100Y357354D03*
X185600Y347600D03*
X183600Y340300D03*
X173484Y355539D03*
X183600Y337800D03*
X128534Y361392D03*
X151733Y371202D03*
X167605Y356361D03*
X192580Y372048D03*
X193226Y322092D03*
X199131Y366382D03*
X183300Y366800D03*
X138303Y333200D03*
X103327Y362759D03*
X161733Y371202D03*
X139102Y354532D03*
X171670Y369579D03*
X125382Y328103D03*
X136694Y371830D03*
X162118Y354290D03*
X100857Y369641D03*
X162600Y351400D03*
X184489Y372048D03*
X310075Y51814D03*
X312117Y46548D03*
X294400Y59900D03*
X303879Y79701D03*
X309208Y21635D03*
Y26564D03*
X218384Y50109D03*
X210752Y7735D03*
X237778Y35268D03*
X233402Y31759D03*
X228833Y44368D03*
X223000Y35200D03*
X243180Y38939D03*
X249716D03*
X252984D03*
X246448D03*
X214954Y7735D03*
X217028Y33279D03*
X309208Y30645D03*
Y41189D03*
Y35533D03*
Y46885D03*
X311015Y55248D03*
X312100Y39800D03*
X272694Y59988D03*
X262218Y21638D03*
X243180Y24047D03*
X260404Y19059D03*
X308122Y68022D03*
X228833Y23885D03*
X235369D03*
X246600Y45700D03*
X305694Y64988D03*
X272694D03*
X316500Y14829D03*
X232101Y23885D03*
X209200Y35000D03*
X246448Y24047D03*
X242364Y52703D03*
X214469Y25011D03*
X249716Y24047D03*
X252984D03*
X214954Y18253D03*
X235788Y45926D03*
X235793Y49966D03*
X210752Y18253D03*
X250694Y69988D03*
Y74988D03*
Y64988D03*
Y79988D03*
Y59988D03*
X272694Y69988D03*
Y75287D03*
X211910Y25011D03*
X272694Y79988D03*
X256930Y80287D03*
X253981Y51899D03*
X312504Y28180D03*
X312554Y32301D03*
X283900Y33100D03*
X301100Y54500D03*
X297400Y26500D03*
X294900Y21600D03*
X297500Y30700D03*
X295200Y35500D03*
X295600Y41200D03*
X278622Y79701D03*
X312423Y23978D03*
X319509Y5320D03*
X308122Y79489D03*
X312719Y53086D03*
X310333Y64298D03*
X310334Y70197D03*
X312800Y59369D03*
X310403Y75287D03*
X312558Y36502D03*
X262339Y62917D03*
X312600Y42800D03*
X320921Y75287D03*
Y79489D03*
X287010Y195620D03*
X318968Y141357D03*
X240900Y154400D03*
X235950Y138950D03*
X255870Y201510D03*
X259020D03*
X262170D03*
X270300Y200400D03*
X255870Y198360D03*
X270300Y197900D03*
X259020Y198360D03*
X271000Y195400D03*
X262170Y198360D03*
X271836Y192539D03*
X259020Y195210D03*
X271836Y188264D03*
X262170Y195210D03*
X265320Y185760D03*
X262170D03*
Y182610D03*
X224370Y185760D03*
X252720Y195210D03*
Y201510D03*
X246420Y195210D03*
X243270D03*
X236970D03*
X202330D03*
X205480D03*
X208630Y198360D03*
X230670D03*
X221220D03*
X211770Y195210D03*
X288867Y173934D03*
X317154Y143461D03*
X239988Y111177D03*
X280933D03*
X319186Y104033D03*
X276604Y104114D03*
X236932Y103952D03*
X280680Y104114D03*
X232811Y103952D03*
X285690Y104258D03*
X241896Y104095D03*
X271749Y163331D03*
X253650Y174010D03*
X245408Y174172D03*
X314131Y83548D03*
X262339Y87575D03*
X312795Y199310D03*
X312632Y194990D03*
X309700Y182800D03*
X237510Y160982D03*
X240778D03*
X230974D03*
X234242D03*
X202800Y162900D03*
X282385Y184154D03*
X216402Y163037D03*
X282304Y180033D03*
X226636Y174587D03*
X272694Y84988D03*
X215518Y138144D03*
X233820Y201510D03*
X218070D03*
X249570Y198360D03*
Y201510D03*
X246420Y198360D03*
Y201510D03*
X202330Y198360D03*
X236970Y201510D03*
X202330D03*
X205480D03*
X211770D03*
X317700Y179000D03*
X315300Y170500D03*
X313200Y168200D03*
X311400Y171200D03*
X317800Y171000D03*
X316300Y173000D03*
X317700Y175000D03*
X316300Y177000D03*
X297455Y199109D03*
X278100Y199200D03*
X293850Y190050D03*
X299500Y186600D03*
X271749Y173850D03*
X240120Y198360D03*
X257689Y174010D03*
X261729D03*
X266739Y174292D03*
X291957Y154353D03*
X227520Y188910D03*
X267134Y184198D03*
X294599Y163087D03*
X276209Y154353D03*
X224370Y188910D03*
X230670D03*
X273059Y154353D03*
X266521Y134207D03*
X274634Y122069D03*
X230670Y185760D03*
X241324Y132361D03*
X202330Y188910D03*
X268335Y122069D03*
X230670Y182610D03*
X224370D03*
X284083Y122069D03*
X231374Y140870D03*
X205480Y192060D03*
X292036Y181665D03*
X279358Y154353D03*
X224370Y192060D03*
X266760Y154353D03*
X227520Y182610D03*
X261534Y161083D03*
X249448Y163654D03*
X211770Y188910D03*
X304555Y171200D03*
Y154353D03*
X283949Y163457D03*
X278764Y143461D03*
X208630Y185760D03*
X309280Y122069D03*
X230974Y175874D03*
X234242D03*
X287232Y122069D03*
X228451Y178814D03*
X306255Y143171D03*
X237510Y175874D03*
X265185Y122069D03*
X233820Y185760D03*
X265185Y130547D03*
X240120Y192060D03*
X244713Y154353D03*
X240778Y175874D03*
X286649Y143381D03*
X244713Y161245D03*
X202330Y182610D03*
X216862Y134515D03*
X320303Y154353D03*
X205480Y188910D03*
X296514Y167124D03*
X202330Y185760D03*
X314004Y154353D03*
X208630Y192060D03*
X269935Y161273D03*
X205480Y185760D03*
X318729Y122069D03*
X208630Y188910D03*
X310855Y154353D03*
X315579Y122069D03*
X208630Y182610D03*
X211770Y192060D03*
X307705Y154353D03*
X306130Y122069D03*
X211770Y182610D03*
X233188Y138521D03*
X218070Y192060D03*
X298256Y154353D03*
X232306Y178351D03*
X211770Y185760D03*
X299831Y122069D03*
X301645Y124478D03*
X295107Y154353D03*
X218070Y188910D03*
Y185760D03*
X296681Y122069D03*
X221330Y126918D03*
X221220Y192060D03*
X288807Y154353D03*
X281172Y143460D03*
X290382Y122069D03*
X221220Y185760D03*
X290382Y139056D03*
X229751Y125104D03*
X285658Y154353D03*
X221220Y188910D03*
X260461Y154353D03*
X233820Y188910D03*
X249448Y174172D03*
X236970Y182610D03*
X262036Y122069D03*
Y134176D03*
X294699Y169010D03*
X236970Y188910D03*
X257311Y154353D03*
X255736Y122069D03*
X236970Y185760D03*
X216402Y160422D03*
X254162Y154353D03*
X236970Y192060D03*
X240120Y182610D03*
X252587Y122069D03*
X273444Y138850D03*
X240120Y188910D03*
X247862Y154353D03*
X246288Y122069D03*
X240120Y185760D03*
X315579Y132361D03*
X243138Y122069D03*
X243270Y185760D03*
X244952Y134191D03*
X259125Y156762D03*
X243270Y192060D03*
X238414Y154353D03*
X254797Y139056D03*
X236839Y122069D03*
X246420Y182610D03*
X235264Y154353D03*
X243270Y188910D03*
X249448Y160422D03*
X230540Y122069D03*
X246420Y185760D03*
Y192060D03*
X232114Y154353D03*
X249570Y182610D03*
X224240Y122069D03*
X228965Y154353D03*
X246420Y188910D03*
X295718Y200812D03*
X224077Y161301D03*
X288069Y163416D03*
X292190Y163496D03*
X216366Y154353D03*
X309356Y186521D03*
X282354Y192539D03*
X311325Y184818D03*
X282354Y188264D03*
X269453Y175861D03*
X270163Y181948D03*
X259020Y182610D03*
X250694Y84988D03*
X271866Y184154D03*
X262170Y192060D03*
X212362Y174496D03*
X221220Y195210D03*
X284900Y174000D03*
X249570Y185760D03*
X307131Y171200D03*
X202330Y192060D03*
X204282Y174496D03*
X208322D03*
X218070Y195210D03*
X321377Y133469D03*
X314004Y165648D03*
X227485Y101517D03*
X228965Y141037D03*
X208322D03*
X205601Y179834D03*
X226636Y161301D03*
X224276Y170065D03*
X205500Y162800D03*
X221518Y161301D03*
X243270Y198360D03*
X282178Y175861D03*
X212362Y163037D03*
X275789Y163331D03*
X208322Y163037D03*
X315392Y188006D03*
X310928Y197140D03*
X294693Y102977D03*
X320140Y88539D03*
X278622D03*
X303200Y183200D03*
X257689Y163492D03*
X266739Y161273D03*
X261729Y163492D03*
X245408Y163654D03*
X253650Y163492D03*
X292190Y174014D03*
X241896Y91077D03*
X297681Y94749D03*
X278622Y91586D03*
X232811Y93434D03*
X319186Y93514D03*
X236932Y93434D03*
X208999Y89677D03*
X276604Y93596D03*
X258886Y122069D03*
X302981D03*
X321878D03*
X221091D03*
X219516Y154353D03*
X251012D03*
X263610D03*
X282508D03*
X271484Y122069D03*
X249437Y111177D03*
X301406Y143461D03*
X293532Y111177D03*
X211770Y198360D03*
X218070D03*
X205480D03*
X224370D03*
X227520D03*
X233820D03*
X236970D03*
X208630Y195210D03*
X224370D03*
X233820D03*
X240120D03*
X249570D03*
X252720Y198360D03*
X249570Y192060D03*
X252720D03*
X255870Y195210D03*
Y188910D03*
X227520Y185760D03*
X259020Y192060D03*
X252720Y185760D03*
X259020D03*
X218070Y182610D03*
X205480D03*
X233820D03*
X243270D03*
X252720D03*
X262170Y188910D03*
X265320Y201510D03*
Y182610D03*
X208630Y201510D03*
X240120D03*
X216967Y101517D03*
X305419Y184512D03*
X221518Y169568D03*
X216402Y174334D03*
X227520Y192060D03*
X277800Y168600D03*
X255870Y185760D03*
X277711Y195048D03*
X227475Y195210D03*
X218911Y169471D03*
X279828Y163382D03*
X320600Y166400D03*
X265185Y139056D03*
X304316Y124478D03*
X284800Y183500D03*
X269300Y154500D03*
X303451Y186521D03*
X307340Y196840D03*
X304840Y196880D03*
X301870Y196990D03*
X302150Y199810D03*
X305200Y214400D03*
X283500Y257500D03*
X312770Y257550D03*
X314750Y255480D03*
X314810Y267220D03*
X300010Y262080D03*
X307400Y257020D03*
X310650Y236020D03*
X314180Y236090D03*
X294570Y241930D03*
X303150Y243850D03*
X299370Y229740D03*
X298560Y244800D03*
X293480Y249800D03*
X309470Y246380D03*
X314170Y246990D03*
X297549Y256651D03*
X285500Y246200D03*
X287191Y244283D03*
X283000Y239900D03*
X285600Y240200D03*
X286900Y238100D03*
X285700Y232300D03*
X287600Y230500D03*
X286100Y227400D03*
X285614Y222430D03*
X303200Y229700D03*
X305904Y229092D03*
X308700Y229600D03*
X305300Y241100D03*
X304400Y248890D03*
X270800Y212400D03*
X255870Y204660D03*
X269900Y209600D03*
X259020Y204660D03*
X270400Y207400D03*
Y205100D03*
Y202700D03*
X272234Y215283D03*
X265320Y204660D03*
X270700Y239000D03*
X259020Y229850D03*
X270700Y236500D03*
X262170Y229850D03*
X270700Y234000D03*
X252720Y233000D03*
X270700Y231700D03*
X255870Y233000D03*
X270600Y229400D03*
X259020Y233000D03*
X270600Y227100D03*
X262170Y233000D03*
X270600Y224800D03*
X265320Y233000D03*
X270700Y222100D03*
X265320Y236150D03*
X272418Y241709D03*
X259020Y236150D03*
X272418Y245910D03*
X255870Y236150D03*
X272206Y219532D03*
X265320Y226700D03*
X238565Y288399D03*
X265320Y261350D03*
X262170Y264500D03*
Y261350D03*
X243270D03*
X262170Y223550D03*
X227520Y261350D03*
X259020Y258200D03*
X255870Y255050D03*
X252720Y251900D03*
Y242450D03*
Y245600D03*
X243270Y251900D03*
X246420D03*
X252720Y236150D03*
X236970Y251900D03*
X252720Y204660D03*
Y210960D03*
X249570Y239300D03*
X240120Y248750D03*
X249570Y229850D03*
X230670Y248750D03*
X249570Y220400D03*
X221220Y248750D03*
X249570Y207810D03*
X268922Y270837D03*
X214674Y289780D03*
X244288Y268791D03*
X224159Y271322D03*
X264882Y270999D03*
X262500Y271000D03*
X313300Y208100D03*
X205480Y251900D03*
X208630Y248750D03*
X202330Y251900D03*
X211770D03*
X256218Y313064D03*
X268070Y316573D03*
X264133Y310655D03*
X205037Y313064D03*
X244407Y320083D03*
X238502D03*
X210943D03*
X258601Y271000D03*
X242700Y285700D03*
X300200Y315700D03*
X308900Y314100D03*
X290100Y307900D03*
X289900Y314100D03*
X318600Y308000D03*
X286201Y309843D03*
X289900Y320300D03*
X315300Y320500D03*
X318600Y314400D03*
X286120Y316307D03*
X292800Y229000D03*
X218070Y245600D03*
X231260Y221980D03*
X225950Y216670D03*
X219650D03*
X202330Y242450D03*
Y233000D03*
X206060Y221980D03*
X249570Y248750D03*
Y245600D03*
X246420Y248750D03*
Y245600D03*
Y242450D03*
X243270Y245600D03*
X246420Y236150D03*
Y233000D03*
X236970Y245600D03*
X233820D03*
X246420Y204660D03*
Y217250D03*
Y210960D03*
X202330Y204660D03*
Y210960D03*
X227520Y226700D03*
X202330Y217250D03*
X206060Y225130D03*
X202330Y245600D03*
Y248750D03*
X205480Y245600D03*
X211770D03*
X217480Y225130D03*
X222800Y205250D03*
X224370Y223550D03*
X222800Y230440D03*
Y241860D03*
X225950Y205250D03*
Y241860D03*
X229100Y230440D03*
X242680Y221980D03*
Y225130D03*
X202330Y236150D03*
X277739Y229886D03*
X234565Y313064D03*
X243401Y308372D03*
X229600Y288900D03*
X230628Y313064D03*
X242600Y298500D03*
X228659Y309657D03*
X232200Y289700D03*
X232596Y320083D03*
X226800Y288800D03*
X265320Y258200D03*
Y255050D03*
X262170D03*
X259020D03*
X261500Y303200D03*
X259020Y251900D03*
X262170D03*
X259020Y248750D03*
X263600Y285800D03*
X262170Y248750D03*
X255870D03*
X269186Y261350D03*
X265320Y248750D03*
X259020Y245600D03*
X262170D03*
X255870D03*
X265320D03*
X203068Y311055D03*
X255870Y242450D03*
X259020D03*
X207006Y311055D03*
X243270Y255050D03*
X246420Y264500D03*
Y255050D03*
Y261350D03*
Y258200D03*
X268700Y266100D03*
X249570Y264500D03*
Y255050D03*
Y261350D03*
Y258200D03*
X252720Y255050D03*
X248303Y311361D03*
X252720Y261350D03*
Y258200D03*
X264161Y301083D03*
X254250Y311055D03*
X255870Y264500D03*
Y261350D03*
X258228Y320083D03*
X260155Y321786D03*
X259020Y261350D03*
Y264500D03*
X264133Y313064D03*
X207046Y320083D03*
X203028D03*
X202330Y258200D03*
Y261350D03*
Y255050D03*
Y264500D03*
X205480Y255050D03*
Y258200D03*
X264092Y320083D03*
X260155Y306636D03*
X275600Y263000D03*
X258187Y311055D03*
X254209Y320083D03*
X275254Y283945D03*
X252322Y313064D03*
X248344Y320083D03*
X246416Y313064D03*
X242398D03*
X264300Y289100D03*
X268900Y288500D03*
X269000Y308000D03*
X210429Y288076D03*
X220100Y301000D03*
X230196Y267719D03*
X236970Y255050D03*
X234481Y266851D03*
X240120Y258200D03*
X222244Y267151D03*
X240120Y261350D03*
X242441Y271000D03*
X240120Y264500D03*
X224600Y310100D03*
X236556Y290103D03*
X234587Y288399D03*
X242456Y294952D03*
X206000Y288100D03*
X220785Y321786D03*
X203400Y288300D03*
X226691Y320083D03*
X224722Y313064D03*
X222754Y320083D03*
X220785Y313064D03*
X244700Y292400D03*
X225000Y307400D03*
X216848Y313064D03*
X214880Y320083D03*
X222394Y288076D03*
X214880Y309351D03*
X220425Y289780D03*
X205000Y307000D03*
X216848Y321786D03*
X218457Y288076D03*
X217000Y292200D03*
X228659Y321786D03*
X208300Y289400D03*
X258592Y290103D03*
X256372Y306557D03*
X212911Y311055D03*
X256623Y288399D03*
X254655Y290103D03*
X252686Y288399D03*
X250700Y292300D03*
X248800Y290700D03*
X245500Y288600D03*
X242800Y288400D03*
X208630Y258200D03*
X226800Y270200D03*
X218070Y261350D03*
X232619Y270947D03*
X208630Y261350D03*
X227500Y267500D03*
X278300Y209500D03*
X278275Y206925D03*
X278300Y204500D03*
X278200Y201900D03*
X278300Y225000D03*
X268349Y247236D03*
X244682Y271000D03*
X243270Y258200D03*
X218070Y251900D03*
X208630Y264500D03*
X282900Y243500D03*
X277600Y221900D03*
X282936Y245910D03*
X283100Y294300D03*
X290656Y212709D03*
X277828Y212774D03*
X319161Y220504D03*
X319695Y226349D03*
X306400Y221500D03*
X295536Y220504D03*
X206200Y271500D03*
X205480Y261350D03*
X219650Y230440D03*
X210943Y313064D03*
X238502Y309351D03*
X250313D03*
X244407Y311055D03*
X275682Y309843D03*
X275601Y316307D03*
X312200Y311100D03*
X298100Y307300D03*
X308900Y320500D03*
X293300Y311100D03*
Y317300D03*
X312100Y320500D03*
X315300Y311100D03*
X262124Y308646D03*
X242680Y228280D03*
X225950Y230440D03*
X222800Y216670D03*
X211770Y248750D03*
X208630Y251900D03*
Y245600D03*
X205480Y264500D03*
Y248750D03*
X202330Y239300D03*
X206060Y218830D03*
X315149Y217093D03*
X314300Y269600D03*
X280394Y301093D03*
X285256Y275064D03*
Y279185D03*
X300892Y284801D03*
X300908Y268641D03*
X300932Y276761D03*
X290414Y292932D03*
X314610Y249423D03*
X317030Y226205D03*
X314100Y244300D03*
X307986Y214080D03*
X300300Y213400D03*
X264882Y281517D03*
X269000Y281600D03*
X240642Y290103D03*
X224370Y226700D03*
X227520Y223550D03*
X202330Y207810D03*
X246420D03*
Y239300D03*
X249570Y210960D03*
X218070Y248750D03*
X249570Y217250D03*
Y204660D03*
X224370Y248750D03*
X249570Y223550D03*
X227520Y248750D03*
X249570Y226700D03*
X233820Y248750D03*
X249570Y233000D03*
X236970Y248750D03*
X249570Y236150D03*
X243270Y248750D03*
X249570Y242450D03*
X252720Y207810D03*
X240120Y251900D03*
X252720Y239300D03*
X249570Y251900D03*
X252720Y248750D03*
X255870Y239300D03*
Y251900D03*
X259020Y239300D03*
X255870Y258200D03*
X262170Y210960D03*
Y220400D03*
Y204660D03*
X224370Y261350D03*
X262170Y226700D03*
Y242450D03*
Y258200D03*
X265320Y217250D03*
Y207810D03*
Y223550D03*
Y229850D03*
X233820Y264500D03*
X243270D03*
X265320Y242450D03*
X252720Y264500D03*
X265320Y251900D03*
Y264500D03*
X206060Y228280D03*
X219650Y205250D03*
X217480Y221980D03*
X219650Y241860D03*
X229100Y205250D03*
Y216670D03*
X231260Y225130D03*
X229100Y241860D03*
X242680Y218830D03*
X240120Y245600D03*
X224600Y282100D03*
X240493Y267875D03*
X240120Y255050D03*
X238524Y271000D03*
X236970Y258200D03*
Y261350D03*
X236556Y269438D03*
X232919Y268413D03*
X236970Y264500D03*
X204300Y269000D03*
X233820Y258200D03*
Y261350D03*
X202500Y271500D03*
X230670Y255050D03*
Y258200D03*
X227520Y255050D03*
Y258200D03*
Y264500D03*
X211300Y269900D03*
X224370Y255050D03*
X223806Y268913D03*
X224370Y258200D03*
X220425Y268991D03*
X224370Y264500D03*
X218500Y271000D03*
X221220Y255050D03*
X216488Y268018D03*
X221220Y258200D03*
X295536Y217916D03*
X211770Y261350D03*
X206800Y269100D03*
X261000Y268700D03*
X233820Y251900D03*
X274900Y252700D03*
X256864Y267229D03*
X233820Y255050D03*
X227570Y251924D03*
X254655Y267228D03*
X230670Y261350D03*
X252686Y268991D03*
X230670Y264500D03*
X250718Y267429D03*
X221220Y261350D03*
X248509Y266786D03*
X221220Y264500D03*
X218070Y255050D03*
X243000Y281700D03*
X246300Y267229D03*
X218070Y258200D03*
X230650Y269927D03*
X211770Y264500D03*
X313100Y212490D03*
X308810Y208670D03*
X287000Y208410D03*
X286940Y219770D03*
X294140Y207170D03*
X313040Y202660D03*
X282870Y369560D03*
X254946Y372089D03*
X214748Y367030D03*
X207446Y372086D03*
X249887Y372048D03*
X239831D03*
X265046Y372089D03*
X227571Y372048D03*
X262124Y357354D03*
X270561Y362873D03*
X205037Y359363D03*
X244407Y366382D03*
X250313Y322092D03*
X210943Y359363D03*
X238502Y366382D03*
X250313Y353335D03*
X283400Y338100D03*
X319500Y354400D03*
X285736Y344596D03*
X290000Y345700D03*
X286120Y328993D03*
X315400Y336300D03*
X299600Y326800D03*
X309000Y326900D03*
X290000Y329900D03*
X286201Y322529D03*
X289900Y333100D03*
X318400Y336400D03*
X234565Y359363D03*
X230628Y372048D03*
X228659Y355251D03*
X232596Y366382D03*
X224568Y330170D03*
X208861Y355846D03*
X266546Y340494D03*
X207046Y357549D03*
X272500Y366200D03*
X256600Y327900D03*
X255000Y347500D03*
X264092Y325916D03*
X265312Y336302D03*
X264092Y355344D03*
X260200Y366400D03*
X275069Y338116D03*
X258187Y354347D03*
X253400Y366600D03*
X279514Y357354D03*
X252281Y351232D03*
X248303Y357660D03*
X274800Y348800D03*
X242439Y372048D03*
Y322092D03*
X246376D03*
X252281Y324102D03*
X203068Y355650D03*
X207006Y366382D03*
X246872Y334428D03*
X248344Y366382D03*
X250800Y366600D03*
X260350Y334050D03*
X251687Y328356D03*
X260155Y349622D03*
X264300Y366600D03*
X226956Y324102D03*
X230628Y359363D03*
X203223Y324102D03*
X230628Y323489D03*
X222754Y372048D03*
X224300Y323800D03*
X224722Y359363D03*
X218800Y323600D03*
X224876Y353548D03*
X210675Y343559D03*
X224568Y356954D03*
X205000Y349900D03*
X226691Y351733D03*
X224722Y366382D03*
X222754Y351844D03*
X220785Y355957D03*
X218816Y351844D03*
X217157Y366382D03*
X236379Y345758D03*
X214880Y351844D03*
X207046Y323796D03*
X216694Y354879D03*
X216848Y357660D03*
X220631Y353548D03*
X228500Y349700D03*
X248426Y343079D03*
X212911Y357354D03*
X236533Y357660D03*
X212911Y322092D03*
Y372048D03*
X236533Y322092D03*
Y372048D03*
X302000Y346400D03*
Y342000D03*
X286300Y336200D03*
X302000Y368400D03*
Y333200D03*
X306400D03*
X302000Y337600D03*
X304200Y344200D03*
X301627Y325227D03*
X318700Y323500D03*
X287674Y331526D03*
X318900Y329700D03*
X305900Y326900D03*
X296400Y330000D03*
X315300Y326800D03*
X293300Y330000D03*
X307900Y323600D03*
X304200Y331130D03*
X289000Y337900D03*
X304200Y339800D03*
X306400Y337600D03*
X304200Y335400D03*
X306400Y359400D03*
X302000Y364000D03*
X306400D03*
X304200Y357400D03*
X306400Y346400D03*
X304200Y353000D03*
Y366200D03*
Y361800D03*
X302000Y355200D03*
X306400Y350800D03*
X302000Y359600D03*
X306400Y355200D03*
X304200Y348600D03*
X306400Y342000D03*
X302000Y350800D03*
X244400Y357800D03*
X205037Y372086D03*
Y322092D03*
X246600Y354800D03*
X300200Y322000D03*
X293300Y323700D03*
X312200Y323600D03*
X238502Y355650D03*
X210943Y366382D03*
X256218Y359363D03*
Y322092D03*
X266061D03*
X296400Y333100D03*
X293200D03*
X275682Y335295D03*
X275601Y328993D03*
X275682Y322529D03*
X268070Y364882D03*
X308600Y333800D03*
X319400Y348200D03*
X275217Y344596D03*
X315300Y330000D03*
X291705Y353395D03*
X225162Y372048D03*
X201981Y372086D03*
X270046Y372089D03*
X234081Y372048D03*
X244887Y372048D03*
X209855Y372086D03*
X219748Y367030D03*
X259946Y372089D03*
X275100Y366700D03*
X413259Y-39700D03*
X402741D03*
X369800Y-21400D03*
X323022Y26171D03*
X322907Y19748D03*
X384390Y67684D03*
X417232Y67522D03*
X409100Y67500D03*
X400868Y67501D03*
X392666Y67580D03*
X386684Y80518D03*
X390948Y36698D03*
X339782Y38728D03*
X343720Y42664D03*
X339782D03*
X335846Y50538D03*
Y54476D03*
X343720Y66286D03*
Y62350D03*
Y58412D03*
X339782Y66286D03*
Y54476D03*
X335846Y22980D03*
X343679Y26917D03*
X363096Y78431D03*
X367342Y70224D03*
X358975Y78431D03*
X363404Y70224D03*
X347656D03*
X354100Y77900D03*
X349000Y78000D03*
X343720Y70224D03*
X333082Y15790D03*
X359468Y70224D03*
X328962Y15790D03*
X351594Y70224D03*
X339782Y22980D03*
X396526Y80518D03*
X400463D03*
X390621Y80518D03*
X404400Y80518D03*
X343720Y30854D03*
X344233Y78401D03*
X339782Y30854D03*
X362500Y-3400D03*
X371278Y38728D03*
X413191Y78011D03*
X417232Y78040D03*
X409100Y78018D03*
X404950Y78010D03*
X396789Y78092D03*
X400868Y78019D03*
X388467Y78172D03*
X392666Y78099D03*
X380350Y78202D03*
X384390D03*
X335846Y26917D03*
X414680Y80776D03*
X380350Y67684D03*
X388467Y67654D03*
X404950Y67492D03*
X413191Y67493D03*
X325481Y33148D03*
X339782Y50538D03*
Y34790D03*
X381379Y-14992D03*
X351594Y38728D03*
X347656D03*
X351594Y30854D03*
Y42664D03*
X359468Y38728D03*
Y50538D03*
Y54476D03*
Y42664D03*
X363404Y38728D03*
X351634Y26917D03*
X359468D03*
X324680Y5439D03*
X347656Y58412D03*
Y34790D03*
Y42664D03*
X359468Y58412D03*
X347656Y30854D03*
X351594Y54476D03*
X393567Y21282D03*
X351594Y58412D03*
X363098Y-17170D03*
X367202Y-14992D03*
X372332Y-17455D03*
X351594Y34790D03*
X359468D03*
X347656Y50538D03*
X359468Y30854D03*
X351594Y50538D03*
X347656Y54476D03*
X324780Y47177D03*
X335846Y34790D03*
X369100Y500D03*
X330300Y3000D03*
X342500Y2000D03*
X377275Y-15085D03*
X343720Y38728D03*
X356500Y200D03*
X335846Y38728D03*
X400107Y31120D03*
X396789Y67574D03*
X347697Y26917D03*
X324680Y15957D03*
X371278Y22980D03*
X335846Y66286D03*
Y62350D03*
X371278Y30854D03*
X339782Y26917D03*
X380549Y21282D03*
X327912Y78396D03*
X323351Y64298D03*
X323318Y59369D03*
X332033Y72233D03*
Y59369D03*
Y78401D03*
X347656Y66286D03*
X335846Y30854D03*
X339782Y62350D03*
X367342Y34790D03*
X363404Y50538D03*
X380421Y60551D03*
X371278Y66286D03*
X380388Y55703D03*
X340153Y78401D03*
X372150Y8106D03*
X348500Y5100D03*
X339500Y10500D03*
X367342Y19042D03*
X371278D03*
X359468D03*
X363404D03*
X345688Y18517D03*
X349224Y18502D03*
X335846Y19042D03*
X371278Y70224D03*
X398750Y34482D03*
X391272Y46683D03*
X391109Y50723D03*
X400874Y51573D03*
X367342Y66286D03*
X391060Y42482D03*
X367342Y62350D03*
X380420Y64672D03*
X371278Y58412D03*
X390948Y30160D03*
X371278Y62350D03*
X390948Y34240D03*
X343720Y34790D03*
X323072Y32301D03*
X323076Y36502D03*
X325485Y40785D03*
X323237Y55248D03*
X323271Y50077D03*
X323352Y70197D03*
X359468Y62350D03*
X363404Y34790D03*
X343720Y54476D03*
Y50538D03*
X323076Y45067D03*
X363404Y58412D03*
Y54476D03*
Y62350D03*
X324726Y23978D03*
X325032Y28180D03*
X367342Y54476D03*
X380420Y26140D03*
X367342Y42664D03*
X380430Y34240D03*
X380542Y42482D03*
X371278Y42664D03*
X393115Y44185D03*
X371278Y50538D03*
X390938Y64672D03*
X363404Y42664D03*
X380430Y30160D03*
X367342Y50538D03*
X380430Y38280D03*
X395874Y51573D03*
X371278Y54476D03*
X380753Y46683D03*
X367342Y58412D03*
X380591Y50723D03*
X347862Y23184D03*
X336113Y78361D03*
X355736Y22980D03*
X363404Y66286D03*
Y22980D03*
X367342D03*
X373288Y28149D03*
X372191Y78363D03*
X367187Y78418D03*
X343924Y23184D03*
X353521Y15906D03*
X351594Y19042D03*
X367202Y-4474D03*
X340000Y19000D03*
X391200Y16500D03*
X413239Y-30318D03*
X413401Y-21430D03*
X413259Y-12200D03*
X402741D03*
X402883Y-21430D03*
X402721Y-30318D03*
X425300Y31500D03*
X437800Y61000D03*
X438200Y46100D03*
X441200Y38700D03*
X438300Y30700D03*
X438400Y16100D03*
X424900Y61200D03*
X425300Y46200D03*
X425500Y16200D03*
X390200Y9100D03*
X374400Y500D03*
X438500Y-2100D03*
X351799Y143461D03*
X328293Y160541D03*
X350225Y111177D03*
X336051Y143461D03*
X331327Y111177D03*
X331584Y104276D03*
X327382Y104114D03*
X323306Y104033D03*
X370636Y160084D03*
X380439D03*
X423198Y158338D03*
X366086Y172952D03*
X376968Y89308D03*
X391538Y95208D03*
X409707Y115180D03*
X409166Y89377D03*
X396547Y95208D03*
X383947Y90060D03*
X379377Y115180D03*
X429266Y124576D03*
X361964Y162463D03*
X357924D03*
X336737Y200069D03*
X337100Y191800D03*
X433002Y158338D03*
X429734Y165357D03*
X426466D03*
X387316Y160165D03*
X384048D03*
X377171Y160084D03*
X373903D03*
X393852Y160165D03*
X390584D03*
X424225Y131486D03*
X385300Y181780D03*
X440420Y185710D03*
X426738Y140691D03*
X404990Y189650D03*
X424670Y181780D03*
X420740D03*
X440420Y201460D03*
X428610Y197530D03*
X436480Y181780D03*
X440420D03*
X384715Y123970D03*
X389240Y181780D03*
X432550Y189650D03*
X440420Y177840D03*
X436480D03*
X408920Y189650D03*
X353810Y181780D03*
X357740D03*
X373490Y189650D03*
X369550D03*
X327912Y88914D03*
X332033Y88919D03*
X340153D03*
X336113Y88879D03*
X345930Y201460D03*
X397110Y197530D03*
X412300Y199500D03*
X376800Y201100D03*
X361680Y197530D03*
X322700Y164300D03*
X335887Y91288D03*
X349870Y197530D03*
X349602Y172820D03*
X345930Y189650D03*
X339651Y177124D03*
X337203Y162353D03*
X361964Y172982D03*
X373490Y193590D03*
X419566Y84528D03*
X417268Y91417D03*
X357924Y172982D03*
X361680Y177840D03*
X342000Y181780D03*
X344233Y88919D03*
X438200Y121100D03*
X338300Y189500D03*
X349870Y201460D03*
X337948Y178938D03*
X339900Y180907D03*
X336818Y195733D03*
X342000Y201460D03*
X337000Y182900D03*
X338633Y184844D03*
X363096Y88950D03*
X358975D03*
X353525Y93116D03*
X349485D03*
X356034Y85357D03*
X346976D03*
X436782Y96118D03*
X369480Y99291D03*
X435874Y106454D03*
X371989Y102327D03*
X365620Y193590D03*
X381835Y111102D03*
X361680Y181780D03*
X373816Y109134D03*
X365620Y189650D03*
X379377Y118698D03*
X372113Y107165D03*
X361680Y185710D03*
X381835Y107541D03*
X384244Y107229D03*
X357740Y185710D03*
X373816Y105260D03*
X357740Y177840D03*
X406369Y88537D03*
X353810Y185710D03*
X349870D03*
X402432Y88537D03*
X361680Y189650D03*
X394558Y88537D03*
X353810Y177840D03*
X361680Y193590D03*
X398495Y88537D03*
X357740Y193590D03*
X349870Y181780D03*
Y189650D03*
X353045Y111177D03*
X345930Y185710D03*
X383538Y113071D03*
X404990Y185710D03*
X389240D03*
X429734Y173231D03*
X389240Y177840D03*
X423198Y173231D03*
X412249Y169853D03*
X401050Y181780D03*
X390584Y168038D03*
X339201Y154353D03*
X381370Y193590D03*
X373903Y174977D03*
X369550Y185710D03*
X373490D03*
X377171Y174977D03*
X334477Y122069D03*
Y135015D03*
X380439Y174977D03*
X377430Y193590D03*
X370900Y175000D03*
X428610Y185710D03*
X326603Y154353D03*
X401050Y185710D03*
X387316Y168038D03*
X380595Y135015D03*
X401050Y189650D03*
X426466Y173231D03*
X393852Y145470D03*
X384048Y168038D03*
X365620Y177840D03*
X332902Y154353D03*
X365620Y181780D03*
X381370Y189650D03*
X404990Y177840D03*
X433002Y173231D03*
X397110Y189650D03*
X393852Y168038D03*
X420740Y177840D03*
X340776Y122069D03*
X438365Y161222D03*
X381370Y177840D03*
X378781Y132986D03*
X397110Y177840D03*
X401050Y193590D03*
X392589Y130547D03*
X416800Y189650D03*
X411940Y140508D03*
X328177Y122069D03*
X369550Y177840D03*
X326842Y132986D03*
X377430Y177840D03*
X325028Y122069D03*
X377430Y189650D03*
X376673Y123884D03*
X377430Y185710D03*
X372450Y154353D03*
X385300Y193590D03*
X361553Y122069D03*
X377430Y181780D03*
X381370Y185710D03*
X370636Y132986D03*
X373490Y177840D03*
X389240Y193590D03*
X380302Y123970D03*
X385300Y185710D03*
X381370Y181780D03*
X385300Y177840D03*
X397110Y181780D03*
Y185710D03*
X383473Y150709D03*
X401050Y177840D03*
X397110Y193590D03*
X416800Y177840D03*
X408920Y185710D03*
X412860Y181780D03*
X408920Y193590D03*
X411346Y135166D03*
X416800Y181780D03*
X412860Y193590D03*
Y185710D03*
X409531Y140508D03*
X412860Y189650D03*
X420740Y185710D03*
X415034Y137574D03*
X416800Y185710D03*
X412560Y167444D03*
X386955Y150725D03*
X424670Y177840D03*
X428610Y181780D03*
X423198Y155929D03*
X416800Y193590D03*
X388806Y134000D03*
X428610Y177840D03*
X419570Y155095D03*
X378233D03*
X432550Y177840D03*
X420740Y193590D03*
X440420Y197530D03*
X361964Y159202D03*
X396526Y123970D03*
X329200Y190600D03*
X328470Y200069D03*
X432550Y181780D03*
X333460Y164300D03*
X342000Y197530D03*
X341405Y172872D03*
X342000Y193590D03*
X333460Y168400D03*
X345930Y197530D03*
X345526Y172790D03*
X349870Y193590D03*
X353810D03*
X353767Y172872D03*
X342000Y189650D03*
X338539Y172871D03*
X426738Y135573D03*
Y133014D03*
Y138132D03*
X424225Y142004D03*
X412860Y177840D03*
X438365Y171740D03*
X404990Y193590D03*
X408920Y177840D03*
X419189Y97323D03*
X408478Y86722D03*
X394558Y115951D03*
X387498Y105726D03*
X400463Y123970D03*
X395538Y105726D03*
X402432Y115951D03*
X399558Y105726D03*
X404400Y123970D03*
X403578Y105721D03*
X435874Y91118D03*
X406369Y115951D03*
X407597Y105721D03*
X398495Y115951D03*
X391538Y105726D03*
X392589Y123970D03*
X381543Y116884D03*
X386684Y115951D03*
X345316Y96673D03*
X435874Y116118D03*
X354334Y96713D03*
X388652Y123970D03*
X424670Y185710D03*
X428610Y201460D03*
X388652Y92569D03*
X379713Y84528D03*
X381835Y91417D03*
X385854Y95208D03*
X367776Y97323D03*
X392589Y92569D03*
X373490Y181780D03*
X369550D03*
X353810Y189650D03*
X357740D03*
X345930Y177840D03*
Y181780D03*
X342000Y185710D03*
X353810Y201460D03*
X432550D03*
X408920Y181780D03*
X404990D03*
X389240Y189650D03*
X424670D03*
X385300D03*
X405588Y107425D03*
X396546Y92386D03*
X390621Y111177D03*
X407698Y111102D03*
X383844Y93386D03*
X420740Y189650D03*
X353767Y162353D03*
X345526Y162272D03*
X322600Y168400D03*
X341405Y162353D03*
X328700Y195600D03*
X369480Y94568D03*
X439672Y106304D03*
X431626Y126596D03*
X394138Y95208D03*
X388263D03*
X347825Y104432D03*
X351825Y104472D03*
X379377Y89308D03*
X382243Y87950D03*
X439514Y101234D03*
X367187Y88936D03*
X372191Y91382D03*
X432637Y150805D03*
X366086Y162433D03*
X418663Y151466D03*
X327382Y93596D03*
X323306Y93515D03*
X331584Y93758D03*
X343925Y122069D03*
X337626Y111177D03*
X329752Y143461D03*
X369000Y199500D03*
X437900Y130400D03*
X432550Y197530D03*
X436480D03*
X417268Y113071D03*
X421506Y114676D03*
X426626Y126596D03*
X440420Y193590D03*
X436480D03*
X432550D03*
X428610D03*
X440420Y189650D03*
X436480Y185710D03*
X357740Y201460D03*
X333429Y171064D03*
X353810Y197530D03*
X335133Y173033D03*
X345930Y193590D03*
X336836Y175001D03*
X357740Y197530D03*
X333530Y176970D03*
X439300Y111000D03*
X357396Y109362D03*
X349602Y162301D03*
X437800Y86100D03*
X419700Y91600D03*
X419800Y94400D03*
X421200Y109000D03*
X345930Y236900D03*
X337000Y209684D03*
X440420Y205400D03*
X353810Y256580D03*
Y252640D03*
X432550Y256580D03*
X428610Y225090D03*
X432550Y252640D03*
X440420Y268390D03*
X436480D03*
X432550Y221150D03*
Y217210D03*
X428610Y236900D03*
X335555Y225254D03*
X335559Y221174D03*
X345930Y205400D03*
X363100Y223100D03*
X377430Y213270D03*
Y221150D03*
Y217210D03*
X385300Y213270D03*
X389240D03*
X393180D03*
X381370D03*
X397110D03*
X401050D03*
X404990D03*
X361680Y244770D03*
X377430Y225090D03*
Y244770D03*
X361680Y225090D03*
X357740D03*
X385300Y244770D03*
X389240D03*
X393180D03*
X397110D03*
X424670D03*
X401050D03*
X404990D03*
X381370D03*
X345930Y209340D03*
Y213270D03*
X353810D03*
X342000Y217210D03*
X440420Y232960D03*
X361680Y260520D03*
Y205400D03*
X417300Y258600D03*
X404990Y229020D03*
Y236900D03*
X377430Y240830D03*
Y236900D03*
Y232960D03*
X377000Y257100D03*
X404990Y221150D03*
X422700Y210400D03*
X369550Y268390D03*
X373490D03*
X345408Y315992D03*
X353600Y315900D03*
X335300Y308100D03*
Y317500D03*
X363700Y311200D03*
X335100Y320600D03*
X363700Y314300D03*
Y320700D03*
X353810Y280200D03*
Y276270D03*
X428730Y315430D03*
X437200Y317000D03*
X418600Y307600D03*
X418500Y313800D03*
Y320100D03*
X436480Y276270D03*
X440420D03*
X389240D03*
X357740D03*
X385300D03*
X342000Y268390D03*
X349870Y276270D03*
X440420Y280200D03*
X436480D03*
X424670Y276270D03*
X420740D03*
X345930Y268390D03*
Y280200D03*
X349870D03*
X404990Y268390D03*
X408920D03*
X397110D03*
Y272330D03*
X349870Y236900D03*
X345930Y232960D03*
X353810Y264460D03*
X349870D03*
X345930D03*
X342000D03*
X357740Y205400D03*
X336737Y205187D03*
X336818Y214802D03*
X349870Y205400D03*
X353810Y217210D03*
X330300Y231300D03*
X342000Y225090D03*
X335532Y233472D03*
X342000Y221150D03*
X353810Y232960D03*
Y225090D03*
X342000Y240830D03*
X357740Y236900D03*
X329900Y313400D03*
X437200Y314200D03*
X324200Y319900D03*
X377430Y280200D03*
Y268390D03*
X390400Y300290D03*
X322500Y306700D03*
X357740Y264460D03*
X342000Y260520D03*
X357740Y217210D03*
X349870Y260520D03*
X436480Y264460D03*
X328550Y209684D03*
X345930Y260520D03*
X428610D03*
X436480Y213270D03*
Y217210D03*
X357740Y252640D03*
X335656Y273995D03*
X335695Y261833D03*
X349870Y248710D03*
X428610Y217210D03*
X432550Y213270D03*
X428610Y221150D03*
X357740Y268390D03*
X335636Y278135D03*
X436480Y221150D03*
X345930Y248710D03*
X335695Y265902D03*
X353810Y248710D03*
X335655Y257793D03*
X432550Y268390D03*
X436480Y236900D03*
X432550Y272330D03*
Y276270D03*
X412860D03*
X381370Y272330D03*
X377430Y276270D03*
X432550Y280200D03*
X416800Y276270D03*
X365620Y264460D03*
Y280200D03*
X428610Y276270D03*
Y272330D03*
X420740Y280200D03*
X424670D03*
X420740Y272330D03*
X424670D03*
X428610Y280200D03*
X416800Y264460D03*
Y272330D03*
Y268390D03*
X412860Y272330D03*
X404990Y264460D03*
X429200Y319500D03*
X408920Y264460D03*
Y280200D03*
X412860Y268390D03*
X416800Y280200D03*
X357740D03*
X361680Y268390D03*
X365620D03*
Y272330D03*
X361680D03*
Y276270D03*
Y280200D03*
X369550Y264460D03*
Y272330D03*
X377430Y264460D03*
X381370D03*
X373490D03*
Y272330D03*
X377430D03*
X373490Y280200D03*
X369550D03*
X420740Y264460D03*
X412860D03*
X361680D03*
X365620Y276270D03*
X397110D03*
X325200Y306800D03*
X389500Y302700D03*
X401050Y280200D03*
X412860D03*
X401050Y268390D03*
Y264460D03*
X404990Y272330D03*
X401050D03*
X404990Y280200D03*
X389240Y272330D03*
X408920D03*
X401050Y276270D03*
X397110Y264460D03*
X385300Y272330D03*
X389240Y264460D03*
X385500Y280200D03*
X381370D03*
Y276270D03*
Y268390D03*
X385300Y264460D03*
X342000Y248710D03*
X335652Y269943D03*
X349870Y244770D03*
X335614Y249922D03*
X345930Y244770D03*
X335612Y253743D03*
X353810Y244770D03*
X335800Y245500D03*
X336150Y242250D03*
X357740Y244770D03*
X349870Y256580D03*
X342000D03*
Y213270D03*
X353810Y205400D03*
Y209340D03*
X349870Y217210D03*
X361680Y213270D03*
X342000Y209340D03*
X361680Y217210D03*
X349870Y221150D03*
X357740Y213270D03*
X432550Y205400D03*
X422700Y202800D03*
X440420Y217210D03*
X399499Y202401D03*
X357740Y272330D03*
X349870D03*
X353810D03*
X345930Y276270D03*
X342000D03*
X353810Y268390D03*
X349870D03*
X345930Y272330D03*
X353810Y260520D03*
X373490Y276270D03*
X369550D03*
X361680Y240830D03*
X353810D03*
Y236900D03*
X349870Y225090D03*
X345930D03*
X353607Y309693D03*
X344900Y311400D03*
X341600Y311200D03*
Y317600D03*
X360500Y311300D03*
Y317500D03*
X342000Y232960D03*
X361680D03*
X349870D03*
X342000Y272330D03*
X345930Y221150D03*
X361680Y252640D03*
X345930Y256580D03*
Y252640D03*
X432550Y225090D03*
X428610Y232960D03*
X436480D03*
X440420Y236900D03*
X425000Y310700D03*
X440600D03*
X428729Y321729D03*
X440700Y320100D03*
Y313900D03*
X424900D03*
X425000Y317000D03*
X432550Y232960D03*
X389240Y260520D03*
X440420Y225090D03*
X424670Y232960D03*
Y240830D03*
X407000Y255800D03*
X432550Y240830D03*
X436480Y272330D03*
X440420D03*
X432550Y236900D03*
X424670Y268390D03*
X420740D03*
X381370Y260520D03*
X424670D03*
X385300Y268390D03*
X389240D03*
X404990Y276270D03*
X408920D03*
X440420Y221150D03*
X381370Y229020D03*
X440420Y256580D03*
Y252640D03*
X327900Y284800D03*
X328550Y214802D03*
X325162Y217162D03*
X438926Y296026D03*
X401050Y236900D03*
X397110D03*
X393180D03*
X385300D03*
X382499Y255601D03*
X420600Y252400D03*
X369000Y258600D03*
X401050Y221150D03*
X381370D03*
X385300D03*
X389240D03*
X393180D03*
X397110D03*
X406900Y202400D03*
X403000Y202200D03*
X389240Y236900D03*
X371500Y224900D03*
X338331Y294331D03*
X420200Y295400D03*
X373004Y210896D03*
X383300Y202300D03*
X391200Y202100D03*
X413500Y228900D03*
X403000Y255900D03*
X385300Y229020D03*
X389240D03*
X381370Y236900D03*
X401050Y229020D03*
X397110D03*
X420200Y215200D03*
Y219200D03*
X365696Y234896D03*
X393180Y229020D03*
X373004Y246896D03*
X328600Y205200D03*
X325040Y221174D03*
X432550Y260520D03*
X428610Y256580D03*
X436480Y260520D03*
X440420Y264460D03*
Y260520D03*
X436480Y256580D03*
Y252640D03*
X428610Y248710D03*
X432550D03*
X436480D03*
X440420D03*
X428610Y244770D03*
X432550D03*
X436480D03*
X440420D03*
X419700Y228100D03*
X397500Y257100D03*
X428610Y268390D03*
X432550Y264460D03*
X428610D03*
X436480Y240830D03*
X440420D03*
X428610Y213270D03*
X440420Y209340D03*
X436480D03*
X432550D03*
X428610D03*
X436480Y205400D03*
X428610D03*
X436100Y324900D03*
X345500Y329600D03*
X364500Y332800D03*
X335000Y327000D03*
X334800Y334200D03*
X334900Y345200D03*
X357300Y327000D03*
X367600Y370700D03*
X324400Y326500D03*
X364500Y327100D03*
X428300Y326300D03*
X373900Y325900D03*
X341500Y370900D03*
X364200Y354500D03*
X418000Y334700D03*
X418400Y345600D03*
X393100Y370400D03*
X421800Y326500D03*
X361900Y337900D03*
X369000Y338600D03*
X401700Y367900D03*
X388500Y347600D03*
X347400Y346600D03*
X430500Y346100D03*
X324600Y347200D03*
X388500Y343800D03*
X430500Y341700D03*
X347400Y342200D03*
X324600Y342800D03*
X414400Y330900D03*
X324600Y369200D03*
X430500Y368100D03*
X388900Y367900D03*
X347400Y368600D03*
Y333400D03*
X388500Y335800D03*
X430500Y332900D03*
X324600Y334000D03*
X400200Y333800D03*
X329000Y334000D03*
X351500Y333200D03*
X434900Y332900D03*
X388500Y339500D03*
X347400Y337800D03*
X324600Y338400D03*
X430500Y337300D03*
X394700Y345500D03*
X349600Y344400D03*
X326800Y345000D03*
X432700Y343900D03*
X429500Y324400D03*
X341600Y323900D03*
X417400Y323000D03*
X416600Y325700D03*
X436800Y328900D03*
X434300D03*
X424900Y326400D03*
X334800Y323700D03*
X363900Y324200D03*
X332100Y328500D03*
X364400Y330000D03*
X357400Y330200D03*
X347800Y326300D03*
X360500Y327000D03*
X338500D03*
X436700Y322500D03*
X353441Y325441D03*
X394600Y333100D03*
X432700Y330700D03*
X326800Y331800D03*
X349600Y331200D03*
X417200Y330700D03*
X394800Y341600D03*
X432700Y339500D03*
X326800Y340600D03*
X349600Y340000D03*
X400300Y338200D03*
X351800Y337800D03*
X329000Y338400D03*
X434900Y337300D03*
X349600Y335600D03*
X394700Y337300D03*
X326800Y336200D03*
X432700Y335100D03*
X400100Y359600D03*
X351800Y359800D03*
X329000Y360200D03*
X434900Y359300D03*
X388900Y363500D03*
X430300Y363700D03*
X347400Y364200D03*
X324600Y364800D03*
X435100Y363700D03*
X400100Y363500D03*
X351800Y364200D03*
X329000Y364800D03*
X432700Y357100D03*
X326800Y358200D03*
X349600Y357600D03*
X394900Y357300D03*
X400200Y347500D03*
X351800Y346600D03*
X434900Y346100D03*
X329000Y347200D03*
X394900Y353400D03*
X349600Y353200D03*
X432700Y352700D03*
X326800Y353800D03*
X394900Y365800D03*
X326800Y367000D03*
X349600Y366400D03*
X432700Y365900D03*
Y361700D03*
X326800Y362600D03*
X349600Y362000D03*
X394950Y361550D03*
X430500Y354900D03*
X324600Y356000D03*
X347400Y355400D03*
X388800Y355600D03*
X400200Y351500D03*
X434900Y350500D03*
X329000Y351600D03*
X351800Y351000D03*
X388900Y359600D03*
X430500Y359300D03*
X347400Y359800D03*
X324600Y360600D03*
X381400Y329300D03*
X400200Y355500D03*
X434900Y354900D03*
X351800Y355400D03*
X329000Y356000D03*
X394800Y349300D03*
X349600Y348800D03*
X432700Y348300D03*
X326800Y349400D03*
X400200Y343400D03*
X434900Y341700D03*
X329000Y342800D03*
X351800Y342200D03*
X430500Y350500D03*
X324600Y351600D03*
X347400Y351000D03*
X388600Y351600D03*
X344900Y323800D03*
X353600Y322200D03*
X373900Y322700D03*
X360500Y323900D03*
X421700Y323300D03*
X407530Y322970D03*
X440700Y323300D03*
X334800Y351400D03*
X324700Y329000D03*
X362600Y370700D03*
X341600Y327000D03*
X437100Y333500D03*
X407567Y339767D03*
X440600Y329600D03*
X334300Y370700D03*
X353700Y334100D03*
X360500Y330200D03*
X417800Y350600D03*
X424900Y332800D03*
X415200Y371300D03*
X364200Y348200D03*
X341700Y333300D03*
X530456Y53378D03*
X534540Y53417D03*
X452659Y-11300D03*
X442141D03*
X452659Y-7100D03*
X442141D03*
X469500Y61200D03*
X468800Y46200D03*
X469200Y31300D03*
X469400Y16300D03*
X482500Y26200D03*
Y21200D03*
Y11200D03*
Y6200D03*
X540448Y159450D03*
X502859Y160903D03*
X545782Y171400D03*
X505300Y159700D03*
X492859Y172561D03*
X545500Y194800D03*
X557900Y166600D03*
X518200Y148700D03*
X534647Y149286D03*
X452050Y197294D03*
Y193093D03*
X452211Y201496D03*
X451932Y180863D03*
Y184902D03*
X451888Y189053D03*
X470686Y171744D03*
X462606Y161226D03*
X466646D03*
X471048Y175463D03*
X544700Y200900D03*
X553446Y149904D03*
Y146636D03*
X458564Y161252D03*
X538000Y149300D03*
X543068Y178790D03*
X522859Y159199D03*
X494859Y152581D03*
X474600Y194900D03*
X474650Y186790D03*
X444360Y185710D03*
Y181780D03*
X543600Y186800D03*
X463028Y185463D03*
X462606Y171744D03*
X471300Y180500D03*
X466646Y171744D03*
X481391Y168790D03*
X545572Y149904D03*
Y140100D03*
X481391Y162790D03*
X483500Y167300D03*
X545572Y146636D03*
X483095Y164790D03*
X545572Y143368D03*
X450484Y171770D03*
X446445Y161298D03*
X518859Y152581D03*
X531430Y188790D03*
X520859Y150877D03*
X474650Y182790D03*
X451932Y176822D03*
X512430Y189362D03*
X503526Y190261D03*
X493047Y190463D03*
X472847Y158977D03*
X512430Y185821D03*
X503526Y171261D03*
X474762Y160681D03*
X493047Y185463D03*
X512430Y166752D03*
X476967Y158977D03*
X485028Y180463D03*
X462048Y150805D03*
X451638D03*
X478882Y160681D03*
X485028Y175463D03*
X481048Y150805D03*
X491391Y150643D03*
X466703Y194986D03*
X442619Y144691D03*
X466616Y141410D03*
X452848Y146132D03*
X463964Y130559D03*
X446445Y171816D03*
X442405D03*
X450291Y121070D03*
X450250Y111294D03*
X450190Y106304D03*
X486475Y91002D03*
X450032Y101234D03*
X449926Y85993D03*
Y96180D03*
X469874Y91118D03*
Y116118D03*
X514919Y152458D03*
X500000Y149800D03*
X529726Y184790D03*
X454560Y171768D03*
X458564Y171770D03*
X500859Y159199D03*
X543600Y190800D03*
X534440Y176790D03*
X533300Y199500D03*
X481268Y190790D03*
X474500Y192300D03*
X496859Y159199D03*
X524859Y152581D03*
X450484Y161252D03*
X454560Y161250D03*
X462450Y176822D03*
X502718Y141939D03*
X506839D03*
X531430Y166752D03*
X500000Y146800D03*
X471047Y190463D03*
X533300Y194100D03*
X470686Y161226D03*
X462406Y189053D03*
X462700Y179300D03*
X462450Y183054D03*
X462568Y193093D03*
X462729Y201496D03*
X462568Y197294D03*
X442405Y161298D03*
X553700Y185000D03*
X554300Y167400D03*
X531400Y141600D03*
X444700Y88600D03*
X445100Y113800D03*
X446200Y130100D03*
X486859Y160903D03*
X484859Y159199D03*
X474100Y172400D03*
X482800Y172800D03*
X481268Y174790D03*
X481268Y177199D03*
X458199Y174179D03*
X481268Y180790D03*
X481700Y195200D03*
X474600Y198800D03*
X444360Y193590D03*
Y189650D03*
Y201460D03*
X531430Y182790D03*
X536450Y174790D03*
X543068Y170790D03*
X449900Y127200D03*
X545200Y213100D03*
X514192Y309878D03*
X542700Y307700D03*
X499664Y294691D03*
X519195Y281701D03*
X545000Y218800D03*
X553057Y232082D03*
X553041Y272948D03*
X555556Y257456D03*
X555556Y250000D03*
X465684Y230312D03*
X463525Y246024D03*
Y257736D03*
X460952Y273045D03*
X460700Y246100D03*
X555556Y253414D03*
X475240Y229792D03*
X513590Y299030D03*
X533467Y298868D03*
X496859Y214381D03*
X524859D03*
X444360Y236900D03*
X501300Y221500D03*
X472768Y224734D03*
X519700Y224200D03*
X473231Y251445D03*
X550784Y275446D03*
X474241Y315459D03*
X443900Y310700D03*
X443800Y313800D03*
Y320100D03*
X464100Y307600D03*
X464000Y313800D03*
X464100Y320200D03*
X497165Y315981D03*
X482341Y315459D03*
X492600Y307400D03*
X492700Y313900D03*
X492600Y320200D03*
X497441Y309300D03*
X444360Y276270D03*
X481700Y312300D03*
X456700Y315500D03*
X453120Y310510D03*
X542462Y249477D03*
X538833Y259319D03*
X474934Y267193D03*
X466212Y271130D03*
X460912Y256925D03*
X460952Y264976D03*
X539859Y247508D03*
X540758Y239634D03*
X544165Y247508D03*
X543600Y257000D03*
X460911Y260925D03*
X460954Y269032D03*
X463097Y209738D03*
X452579D03*
X533726Y287918D03*
X513726D03*
X452575Y221898D03*
X452418Y205587D03*
X462936D03*
X444360Y217210D03*
X452580Y217818D03*
X444360Y268390D03*
X450434Y273045D03*
X500742Y202242D03*
X452696Y226060D03*
X444360Y213270D03*
X452580Y213778D03*
X450393Y260925D03*
X444360Y248710D03*
X450393Y256925D03*
X450434Y264976D03*
X450436Y269032D03*
X555566Y237666D03*
X560755Y239842D03*
X451814Y235806D03*
X508859Y214381D03*
X504859D03*
X525486Y202134D03*
X451400Y307790D03*
X557639Y265189D03*
X544165Y263102D03*
X485682Y279691D03*
X477664Y284691D03*
X488768Y202434D03*
X514858Y202234D03*
X527300Y214200D03*
X499600Y214300D03*
X467300Y313900D03*
X471987Y306987D03*
X474300Y321700D03*
X443900Y317000D03*
X467300D03*
X444360Y272330D03*
X464832Y235806D03*
X484500Y306800D03*
X482600Y319800D03*
X507900Y315981D03*
X486200Y310700D03*
Y317000D03*
X525827Y309878D03*
X555556Y247591D03*
X507900Y309300D03*
X463093Y221898D03*
X463214Y226060D03*
X463098Y217818D03*
Y213778D03*
X473231Y231842D03*
X475200Y269700D03*
X555556Y260096D03*
X455766Y252736D03*
Y248534D03*
X455165Y230312D03*
X559557Y245000D03*
X489382Y284554D03*
X487846Y286904D03*
X496064Y297341D03*
X527700Y288500D03*
X460960Y277200D03*
X554100Y207500D03*
X466212Y257477D03*
X544165Y243571D03*
X542462Y241603D03*
X543726Y287918D03*
X523726Y274900D03*
X473231Y265225D03*
Y261288D03*
Y257351D03*
X475240Y253414D03*
X473231Y247508D03*
X466212Y243571D03*
X444360Y260520D03*
X466212Y239634D03*
Y233397D03*
X474934Y263256D03*
X473231Y235697D03*
X477343Y259319D03*
X474934Y237666D03*
X476944Y255382D03*
X473231Y239634D03*
X461100Y250600D03*
X464509Y241603D03*
X474934Y245540D03*
X479046Y257505D03*
X474934Y241603D03*
X466212Y261288D03*
X450110Y237666D03*
X464509Y263256D03*
X477343Y233729D03*
X466212Y265225D03*
X487846Y297423D03*
X464509Y273099D03*
X542462D03*
X481900Y202000D03*
X544165Y271130D03*
X474650Y202790D03*
X542462Y269162D03*
X544165Y267193D03*
X542462Y265225D03*
X555550Y263256D03*
X529309Y238650D03*
X542351Y261288D03*
X555566Y241656D03*
X444360Y244770D03*
X535183Y245386D03*
X557270Y235851D03*
X542462Y237666D03*
X544165Y235697D03*
X542462Y233729D03*
X544165Y231760D03*
X551184Y229792D03*
X444360Y209340D03*
X544165Y227823D03*
X473231D03*
X540647Y257505D03*
X557260Y255447D03*
X444360Y205400D03*
X559084Y241722D03*
X481268Y204790D03*
X542462Y245540D03*
X474650Y206790D03*
X544165Y251445D03*
X481268Y208790D03*
X474650Y210790D03*
X507682Y289691D03*
X496053Y276714D03*
X498562Y284473D03*
X507683Y279691D03*
X525827Y324622D03*
X463400Y334300D03*
X463700Y345800D03*
X447100Y355000D03*
X473700Y326400D03*
X447400Y371000D03*
X443900Y329600D03*
X464100Y326500D03*
X482400Y328000D03*
X497165Y322140D03*
X493354Y353254D03*
X493157Y334357D03*
X496965Y334763D03*
X497165Y328603D03*
X463500Y371000D03*
X492400Y326500D03*
X447200Y335600D03*
X490800Y337400D03*
X444300Y336400D03*
X500700Y342100D03*
X447900Y341200D03*
X453400Y346700D03*
X475900Y346100D03*
X453400Y342300D03*
X475900Y341700D03*
X536900Y324300D03*
X513726Y323874D03*
X453400Y368700D03*
X475900Y368100D03*
X453400Y333500D03*
X475900Y332900D03*
X458200Y333600D03*
X480300Y332900D03*
X475900Y337300D03*
X453400Y337900D03*
X478100Y343900D03*
X455600Y344500D03*
X474500Y324100D03*
X463800Y323200D03*
X493200Y323900D03*
X463600Y329500D03*
X493100Y331200D03*
X482400Y330400D03*
X470400Y329700D03*
X489300Y329600D03*
X467200Y326500D03*
X448000Y324900D03*
X447500Y329500D03*
X443800Y326500D03*
X482108Y324908D03*
X478100Y330700D03*
X455600Y331300D03*
X478100Y339500D03*
X455600Y340100D03*
X480300Y337300D03*
X457800Y337900D03*
X478100Y335100D03*
X455600Y335700D03*
X480300Y359300D03*
X457800Y359700D03*
X453400Y364300D03*
X475900Y363700D03*
X457800Y364300D03*
X480300Y363700D03*
X478100Y357100D03*
X455600Y357700D03*
X457800Y346700D03*
X480300Y346100D03*
X455600Y353300D03*
X478100Y352700D03*
Y365900D03*
X455600Y366500D03*
X478100Y361500D03*
X455600Y362100D03*
X475900Y354900D03*
X453400Y355500D03*
X457800Y351100D03*
X480300Y350500D03*
X475900Y359500D03*
X453400Y359900D03*
X457800Y355500D03*
X480300Y354900D03*
X455600Y348900D03*
X478100Y348300D03*
X480300Y341700D03*
X457800Y342300D03*
X475900Y350500D03*
X453400Y351100D03*
X467300Y323300D03*
X486100D03*
X447500Y345200D03*
X467300Y348500D03*
X474200Y328800D03*
X442400Y371000D03*
X450100Y329700D03*
X467200Y329600D03*
X493155Y346955D03*
X507900Y322140D03*
Y334763D03*
X468500Y370900D03*
X507900Y339500D03*
X507483Y328603D03*
X486100Y332800D03*
X562900Y186900D03*
X578491Y193300D03*
G54D21*
X499100Y64000D03*
X524000Y66600D03*
X515100Y131000D03*
X537000Y128400D03*
X578000Y64000D03*
Y131000D03*
G54D22*
X535020Y80000D03*
X500492Y115000D03*
G54D13*
X127865Y117673D03*
X135739Y125547D03*
X127865D03*
X135739Y133421D03*
X127865D03*
X135739Y141295D03*
X127865D03*
X135739Y149169D03*
X127865D03*
X135739Y157043D03*
X127865D03*
X135739Y164917D03*
X127865D03*
X135739Y172791D03*
X127865D03*
X135739Y180665D03*
X127865D03*
X135739Y188539D03*
X127865D03*
X135739Y196413D03*
X127865D03*
X135739Y117673D03*
Y204287D03*
X127865D03*
X135739Y212161D03*
X127865D03*
X135739Y220035D03*
X127865D03*
X135739Y227909D03*
X127865D03*
G54D14*
X180933Y132765D03*
G54D23*
X560000Y75000D03*
Y120000D03*
G54D24*
X513520Y18170D03*
X559980D03*
G54D15*
X220448Y10323D03*
X219155Y95002D03*
X252572Y97229D03*
X306535Y269191D03*
X559621Y147174D03*
X467600Y284600D03*
X577282Y302289D03*
G54D16*
X220448Y15323D03*
X225448Y10323D03*
Y15323D03*
X230448Y10323D03*
Y15323D03*
X235448Y10323D03*
Y15323D03*
X240448Y10323D03*
Y15323D03*
X245448Y10323D03*
Y15323D03*
X250448Y10323D03*
Y15323D03*
X255448Y10323D03*
Y15323D03*
X219155Y80002D03*
X224155D03*
X219155Y75002D03*
X224155D03*
X219155Y70002D03*
X224155D03*
X219155Y65002D03*
X224155D03*
Y95002D03*
X219155Y90002D03*
X224155D03*
X219155Y85002D03*
X224155D03*
X262572Y97229D03*
X257572D03*
X306535Y274191D03*
Y279191D03*
Y284191D03*
X559621Y152174D03*
X470107Y134568D03*
Y139568D03*
X562282Y302289D03*
X467600Y289600D03*
Y294600D03*
X579621Y152174D03*
Y147174D03*
X574621Y152174D03*
Y147174D03*
X569621Y152174D03*
Y147174D03*
X564621Y152174D03*
Y147174D03*
X567282Y302289D03*
X572282D03*
G54D25*
X567284Y352337D03*
G54D17*
X306123Y97477D03*
X320400Y286900D03*
X408050Y50D03*
X468100Y146500D03*
X587300Y156500D03*
X585800Y225800D03*
G54D26*
X554284Y334837D03*
X580284D03*
G54D27*
G01X0Y374016D02*
X590551D01*
Y-137795D01*
X535433D01*
Y-49100D01*
X354324D01*
Y0D01*
X0D01*
Y374016D01*
G54D18*
X287810Y178476D03*
X307810D03*
X283707Y267610D03*
Y287610D03*
X339683Y99114D03*
X359683D03*
X562429Y47837D03*
X542429D03*
X460282Y-13534D03*
X480282D03*
X564810Y202437D03*
X575610Y240237D03*
Y229437D03*
Y218637D03*
Y207837D03*
X564810Y245637D03*
Y234837D03*
Y224037D03*
Y213237D03*
G54D19*
X397469Y132765D03*
M02*
