G04 ================== begin FILE IDENTIFICATION RECORD ==================*
G04 Layout Name:  E:/EMB002/project/hardware/ikemb-0002-v2/12-ikemb-0002-v2_H5007.brd*
G04 Film Name:    Solder_Bottom*
G04 File Format:  Gerber RS274X*
G04 File Origin:  15.7-p007*
G04 Origin Date:  Wed Jun 18 10:19:03 2008*
G04 *
G04 Layer:  PIN/BOTTOM*
G04 Layer:  BOARD GEOMETRY/OUTLINE*
G04 *
G04 Offset:    (0.000 0.000)*
G04 Mirror:    No*
G04 Mode:      Positive*
G04 Rotation:  0*
G04 FullContactRelief:  No*
G04 UndefLineWidth:     8.000*
G04 ================== end FILE IDENTIFICATION RECORD ====================*
%FSLAX55Y55*MOIN*%
%IR0*IPPOS*OFA0.00000B0.00000*MIA0B0*SFA1.00000B1.00000*%
%ADD36R,.06X.13*%
%ADD44R,.13X.06*%
%ADD10C,.2*%
%ADD12C,.12*%
%AMMACRO43*
21,1,.06,.04,0.0,0.0,.091*%
%ADD43MACRO43*%
%ADD40C,.12598*%
%ADD46R,.1X.2*%
%ADD45R,.2X.1*%
%ADD20R,.01X.04*%
%ADD30R,.04X.01*%
%ADD18R,.09843X.18898*%
%ADD25R,.03X.04*%
%ADD29R,.04X.03*%
%ADD14R,.02X.025*%
%ADD35R,.04X.014*%
%ADD13R,.025X.02*%
%ADD16R,.05X.05*%
%ADD21R,.06X.05*%
%ADD26R,.017012X.02*%
%ADD24R,.018X.04*%
%ADD22R,.05X.025*%
%ADD34R,.02X.017012*%
%ADD23R,.07X.018*%
%ADD31R,.036X.036*%
%ADD42R,.04402X.032012*%
%ADD27R,.036X.036*%
%ADD15C,.05*%
%ADD32C,.06*%
%ADD28C,.032012*%
%ADD19C,.0433*%
%ADD38C,.083*%
%ADD11R,.06X.06*%
%ADD41C,.04724*%
%ADD37C,.05984*%
%ADD33C,.06299*%
%ADD39R,.05984X.05984*%
%ADD17R,.01969X.07874*%
%ADD47C,.008*%
G75*
%LPD*%
G75*
G54D10*
X41654Y352402D03*
X514094Y-37598D03*
X570210Y175337D03*
Y272537D03*
G54D11*
X148294Y52662D03*
X161294D03*
X187291Y63037D03*
Y76037D03*
X147291Y79037D03*
Y66037D03*
X187291Y23037D03*
Y36037D03*
X147291Y38037D03*
Y25037D03*
X151738Y101430D03*
X164738D03*
X146669Y312046D03*
Y299046D03*
X146875Y273555D03*
Y260555D03*
X167605Y360870D03*
Y347870D03*
X133794Y333200D03*
X146794D03*
X208999Y85168D03*
Y98168D03*
X314652Y221696D03*
X301652D03*
X277500Y257500D03*
X290500D03*
X414680Y85285D03*
Y98285D03*
X400200Y313800D03*
Y300800D03*
X382700Y308100D03*
Y295100D03*
X525827Y305369D03*
Y318369D03*
X537301Y305530D03*
Y318530D03*
X514192Y305369D03*
Y318369D03*
X527686Y281701D03*
X514686D03*
X583000Y193300D03*
X570000D03*
X564810Y202437D03*
G54D20*
X201100Y316573D03*
X199131D03*
X197163D03*
X195194D03*
X193226D03*
X191257D03*
X189289D03*
X187320D03*
X185352D03*
X183383D03*
Y362873D03*
X185352D03*
X187320D03*
X189289D03*
X191257D03*
X193226D03*
X195194D03*
X197163D03*
X199131D03*
X201100D03*
X266061Y316573D03*
X264092D03*
X262124D03*
X260155D03*
X258187D03*
X256218D03*
X254250D03*
X252281D03*
X250313D03*
X248344D03*
X246376D03*
X244407D03*
X242439D03*
X240470D03*
X238502D03*
X236533D03*
X234565D03*
X232596D03*
X230628D03*
X228659D03*
X226691D03*
X224722D03*
X222754D03*
X220785D03*
X218816D03*
X216848D03*
X214880D03*
X212911D03*
X210943D03*
X208974D03*
X207006D03*
X205037D03*
X203068D03*
Y362873D03*
X205037D03*
X207006D03*
X208974D03*
X210943D03*
X212911D03*
X214880D03*
X216848D03*
X218816D03*
X220785D03*
X222754D03*
X224722D03*
X226691D03*
X228659D03*
X230628D03*
X232596D03*
X234565D03*
X236533D03*
X238502D03*
X240470D03*
X242439D03*
X244407D03*
X246376D03*
X248344D03*
X250313D03*
X252281D03*
X254250D03*
X256218D03*
X258187D03*
X260155D03*
X262124D03*
X264092D03*
X266061D03*
G54D21*
X151698Y366086D03*
X142698D03*
G54D30*
X274202Y197082D03*
X282076D03*
Y199051D03*
Y201019D03*
X274202D03*
Y199051D03*
X282076Y202988D03*
Y204956D03*
Y206925D03*
Y208893D03*
X274202Y210862D03*
Y208893D03*
Y206925D03*
Y204956D03*
Y202988D03*
X282076Y210862D03*
X274230Y223860D03*
X282104D03*
Y225829D03*
Y227797D03*
Y229766D03*
Y231734D03*
Y233703D03*
Y235671D03*
X274230Y237640D03*
Y235671D03*
Y233703D03*
Y231734D03*
Y229766D03*
Y227797D03*
Y225829D03*
X282104Y237640D03*
X469722Y273099D03*
Y271130D03*
Y269162D03*
Y267193D03*
Y265225D03*
Y263256D03*
Y261288D03*
Y259319D03*
Y257351D03*
Y255382D03*
Y253414D03*
Y251445D03*
Y249477D03*
Y247508D03*
Y245540D03*
Y243571D03*
Y241603D03*
Y239634D03*
Y237666D03*
Y235697D03*
Y233729D03*
Y231760D03*
Y229792D03*
Y227823D03*
X547674D03*
Y229792D03*
Y231760D03*
Y233729D03*
Y235697D03*
Y237666D03*
Y239634D03*
Y241603D03*
Y243571D03*
Y245540D03*
Y247508D03*
Y249477D03*
Y251445D03*
Y253414D03*
Y255382D03*
Y257351D03*
Y259319D03*
Y261288D03*
Y263256D03*
Y265225D03*
Y267193D03*
Y269162D03*
Y271130D03*
Y273099D03*
G54D12*
X176291Y22537D03*
Y42537D03*
Y62537D03*
Y82537D03*
X135291D03*
Y62537D03*
Y42537D03*
Y22537D03*
X134279Y317449D03*
Y297449D03*
Y277449D03*
Y257449D03*
X535500Y358500D03*
Y341500D03*
X518500D03*
Y358500D03*
G54D31*
X219155Y95002D03*
X306535Y269191D03*
X467600Y284600D03*
G54D22*
X99318Y362759D03*
Y357759D03*
Y352759D03*
Y347759D03*
X121318Y362759D03*
Y357759D03*
Y347759D03*
Y352759D03*
X467038Y190463D03*
Y185463D03*
Y180463D03*
Y175463D03*
X489038Y190463D03*
Y185463D03*
Y175463D03*
Y180463D03*
G54D13*
X167669Y199938D03*
X172669D03*
X178735Y99374D03*
X173735D03*
X167710Y191508D03*
X172710D03*
X167710Y195710D03*
X172710D03*
X167710Y183105D03*
X172710D03*
X167710Y187306D03*
X172710D03*
X178786Y103486D03*
X173786D03*
X147203Y125625D03*
X152203D03*
X147203Y121585D03*
X152203D03*
X165745Y269913D03*
X170745D03*
X167650Y204041D03*
X172650D03*
X165745Y265873D03*
X170745D03*
X165744Y257793D03*
X170744D03*
X165744Y261833D03*
X170744D03*
X165745Y253642D03*
X170745D03*
X165745Y249551D03*
X170745D03*
X165906Y245431D03*
X170906D03*
X165745Y241391D03*
X170745D03*
Y237351D03*
X165745D03*
X170745Y233311D03*
X165745D03*
X184489Y369539D03*
X189489D03*
X199589D03*
X194589D03*
X174429Y369579D03*
X179429D03*
X154359Y354290D03*
X159359D03*
X103616Y369641D03*
X108616D03*
X113635D03*
X118635D03*
X154359Y358330D03*
X159359D03*
X159279Y350170D03*
X154279D03*
X243552Y49966D03*
X238552D03*
X243547Y45926D03*
X238547D03*
X256930Y75287D03*
X261930D03*
X315182Y23978D03*
X320182D03*
X315263Y28180D03*
X320263D03*
X315313Y32301D03*
X320313D03*
X313162Y79489D03*
X318162D03*
X313162Y75287D03*
X318162D03*
X306011Y30645D03*
X301011D03*
X306127Y51814D03*
X301127D03*
X306010Y26564D03*
X301010D03*
X315559Y59369D03*
X320559D03*
X315478Y55248D03*
X320478D03*
X315317Y45067D03*
X320317D03*
X315317Y40785D03*
X320317D03*
X315317Y36502D03*
X320317D03*
X308400Y189400D03*
X303400D03*
X274595Y188264D03*
X279595D03*
X274595Y192539D03*
X279595D03*
X290020Y196090D03*
X295020D03*
X219726Y101517D03*
X224726D03*
X296728Y173671D03*
X301728D03*
X274419Y175861D03*
X279419D03*
X279545Y180033D03*
X274545D03*
X274626Y184154D03*
X279626D03*
X320554Y200525D03*
X315554D03*
X320391Y190990D03*
X315391D03*
X320392Y185496D03*
X315392D03*
X320392Y181294D03*
X315392D03*
X315391Y195030D03*
X320391D03*
X235367Y239228D03*
X240367D03*
X239241Y221676D03*
X234241D03*
X213218Y216120D03*
X208218D03*
X298128Y264601D03*
X293128D03*
X213218Y207878D03*
X208218D03*
X213703Y231230D03*
X208703D03*
X214300Y221600D03*
X209300D03*
X235393Y231048D03*
X240393D03*
X209280Y225623D03*
X214280D03*
X213703Y239472D03*
X208703D03*
X234300Y225700D03*
X239300D03*
X213218Y211999D03*
X208218D03*
X234827Y208101D03*
X239827D03*
X234801Y216201D03*
X239801D03*
X213703Y235351D03*
X208703D03*
X235367Y235188D03*
X240367D03*
X234801Y212161D03*
X239801D03*
X298000Y232400D03*
X303000D03*
X295300Y244800D03*
X290300D03*
X278441Y309843D03*
X283441D03*
X278360Y316307D03*
X283360D03*
X317530Y228858D03*
X274993Y215283D03*
X279993D03*
X275177Y245910D03*
X280177D03*
X274966Y219532D03*
X279966D03*
X275177Y241709D03*
X280177D03*
X312400Y238800D03*
X307400D03*
X308170Y264810D03*
X303170D03*
X308170Y260720D03*
X303170D03*
X297090Y240710D03*
X302090D03*
X301450Y248900D03*
X296450D03*
X287800Y202630D03*
X292800D03*
X320554Y204565D03*
X315554D03*
X320393Y210382D03*
X315393D03*
X320393Y214584D03*
X315393D03*
X277497Y279185D03*
X282497D03*
X277497Y275064D03*
X282497D03*
X292912Y224939D03*
X287912D03*
X317449Y241059D03*
Y236938D03*
X317530Y232898D03*
X317449Y265379D03*
X317369Y261339D03*
Y257299D03*
Y249219D03*
Y245099D03*
Y253259D03*
Y273702D03*
X317449Y269581D03*
X288153Y301093D03*
X283153D03*
X283073Y297053D03*
X288073D03*
X293173Y301174D03*
X298173D03*
Y297053D03*
X293173D03*
X298173Y292932D03*
X293173D03*
X293132Y284801D03*
X298132D03*
X298168Y288841D03*
X293168D03*
X298132Y280761D03*
X293132D03*
X293173Y276761D03*
X298173D03*
X298152Y272661D03*
X293152D03*
X293148Y268641D03*
X298148D03*
X297300Y206700D03*
X302300D03*
X310030Y201620D03*
X305030D03*
X259946Y369579D03*
X254946D03*
X209693Y369577D03*
X204693D03*
X219748Y369539D03*
X214748D03*
X270046Y369579D03*
X265046D03*
X234831Y369539D03*
X239831D03*
X244887D03*
X249887D03*
X224767D03*
X229767D03*
X275110Y369560D03*
X280110D03*
X277976Y344596D03*
X282976D03*
X278441Y322529D03*
X283441D03*
X278441Y335295D03*
X283441D03*
X278360Y328993D03*
X283360D03*
X405500Y-39700D03*
X410500D03*
X371059Y3264D03*
X366059D03*
X395915Y38401D03*
X400915D03*
X400107Y26120D03*
X395107D03*
X400874Y46573D03*
X395874D03*
X383179Y64672D03*
X388179D03*
X388342Y11940D03*
X383342D03*
X388261Y16222D03*
X383261D03*
X383301Y42482D03*
X388301D03*
X388179Y26140D03*
X383179D03*
X383189Y30160D03*
X388189D03*
X383189Y34240D03*
X388189D03*
X383189Y38280D03*
X388189D03*
X383350Y50723D03*
X388350D03*
X349086Y80751D03*
X354086D03*
X383180Y60551D03*
X388180D03*
X338600Y3200D03*
X333600D03*
X345778Y3264D03*
X350778D03*
X360800Y3300D03*
X355800D03*
X383512Y46683D03*
X388512D03*
X395915Y42482D03*
X400915D03*
X405500Y-12200D03*
X410500D03*
X405642Y-21430D03*
X410642D03*
X405480Y-30318D03*
X410480D03*
X435300Y16100D03*
X430300D03*
X435300Y30700D03*
X430300D03*
X435200Y46100D03*
X430200D03*
X434800Y61000D03*
X429800D03*
X424226Y110596D03*
X429226D03*
X391706Y90060D03*
X386706D03*
X330700Y164300D03*
X325700D03*
X429266Y114676D03*
X424266D03*
X425092Y106454D03*
X420092D03*
X330771Y176610D03*
X325771D03*
X330670Y172541D03*
X325670D03*
X330700Y168400D03*
X325700D03*
X327815Y237552D03*
X332815D03*
X411183Y251067D03*
X416183D03*
X420606Y255072D03*
X415606D03*
X372999Y206896D03*
X367999D03*
X368999Y210896D03*
X363999D03*
X368999Y234896D03*
X373999D03*
X372999Y242896D03*
X367999D03*
X368999Y230896D03*
X373999D03*
X368999Y238896D03*
X373999D03*
X368999Y254896D03*
X363999D03*
X415999Y226896D03*
X410999D03*
X411181Y247023D03*
X416181D03*
X415999Y222896D03*
X410999D03*
X412999Y206896D03*
X417999D03*
X368999Y202896D03*
X363999D03*
X412999Y210896D03*
X417999D03*
X415999Y218896D03*
X410999D03*
X415999Y214896D03*
X410999D03*
X417999Y202896D03*
X412999D03*
X368999Y246896D03*
X363999D03*
X372999Y250896D03*
X367999D03*
X322530Y228858D03*
X327796Y225254D03*
X332796D03*
X327800Y221174D03*
X332800D03*
X410999Y230896D03*
X415999D03*
X373999Y218896D03*
X368999D03*
X327892Y269943D03*
X332892D03*
X327853Y245663D03*
X332853D03*
X327853Y253743D03*
X332853D03*
X327876Y278135D03*
X332876D03*
X327855Y249713D03*
X332855D03*
X327853Y241623D03*
X332853D03*
X368999Y214896D03*
X373999D03*
X416181Y242938D03*
X411181D03*
X327876Y282175D03*
X332876D03*
X368999Y222896D03*
X373999D03*
X368999Y226896D03*
X373999D03*
X415999Y234896D03*
X410999D03*
X415999Y238896D03*
X410999D03*
X322449Y241059D03*
Y236938D03*
X322530Y232898D03*
X322449Y265379D03*
X322369Y261339D03*
Y257299D03*
Y249219D03*
Y245099D03*
Y253259D03*
Y273702D03*
X322449Y269581D03*
X332896Y273995D03*
X327896D03*
X332936Y265902D03*
X327936D03*
X332936Y261833D03*
X327936D03*
X332896Y257793D03*
X327896D03*
X332774Y229362D03*
X327774D03*
X332773Y233472D03*
X327773D03*
X362600Y368300D03*
X367600D03*
X335500D03*
X340500D03*
X385200Y370400D03*
X390200D03*
X411946Y370358D03*
X406946D03*
X401695D03*
X396695D03*
X444900Y-7100D03*
X449900D03*
X444900Y-11300D03*
X449900D03*
X465100Y61200D03*
X460100D03*
X465100Y46200D03*
X460100D03*
X465200Y31300D03*
X460200D03*
X465200Y16300D03*
X460200D03*
X442168Y91094D03*
X447168D03*
X459647Y189053D03*
X454647D03*
X459809Y193093D03*
X454809D03*
X459809Y197294D03*
X454809D03*
X459691Y184902D03*
X454691D03*
X459691Y180863D03*
X454691D03*
X447273Y101234D03*
X442273D03*
X442431Y106304D03*
X447431D03*
X447464Y116163D03*
X442464D03*
X548700Y188400D03*
X553700D03*
X548900Y154100D03*
X553900D03*
X549300Y171400D03*
X554300D03*
X459691Y176822D03*
X454691D03*
X447167Y85993D03*
X442167D03*
X447167Y96180D03*
X442167D03*
X442532Y121070D03*
X447532D03*
X483716Y91002D03*
X478716D03*
X483716Y116247D03*
X478716D03*
X442491Y111294D03*
X447491D03*
X459970Y201496D03*
X454970D03*
X458200Y277200D03*
X453200D03*
X458525Y252736D03*
X463525D03*
X458525Y248534D03*
X463525D03*
X457924Y230312D03*
X462924D03*
X505000Y309300D03*
X500000D03*
X504724Y315981D03*
X499724D03*
X460177Y205587D03*
X455177D03*
X460338Y209738D03*
X455338D03*
X458193Y273045D03*
X453193D03*
X460455Y226060D03*
X455455D03*
X460339Y217818D03*
X455339D03*
X460339Y213778D03*
X455339D03*
X460334Y221898D03*
X455334D03*
X546000Y207500D03*
X551000D03*
Y203500D03*
X546000D03*
X547000Y222000D03*
X552000D03*
X458193Y264976D03*
X453193D03*
X458152Y260925D03*
X453152D03*
X458195Y269032D03*
X453195D03*
X458152Y256925D03*
X453152D03*
X442400Y368600D03*
X447400D03*
X504724Y334763D03*
X499724D03*
X468500Y368500D03*
X463500D03*
X504724Y328603D03*
X499724D03*
X504724Y322140D03*
X499724D03*
X504800Y339500D03*
X499800D03*
X569000Y160000D03*
X564000D03*
G54D40*
X560000Y75000D03*
Y120000D03*
G54D41*
X513520Y18170D03*
X559980D03*
G54D32*
X287810Y178476D03*
X307810D03*
X283707Y267610D03*
Y287610D03*
X339683Y99114D03*
X359683D03*
X562429Y47837D03*
X542429D03*
X460282Y-13534D03*
X480282D03*
X575610Y240237D03*
Y229437D03*
Y218637D03*
Y207837D03*
X564810Y245637D03*
Y234837D03*
Y224037D03*
Y213237D03*
G54D23*
X134092Y350792D03*
Y354532D03*
Y358272D03*
X145116D03*
Y354532D03*
Y350595D03*
G54D14*
X184003Y171585D03*
Y166585D03*
X200242Y166737D03*
Y171737D03*
X196202Y166737D03*
Y171737D03*
X192162Y166656D03*
Y171656D03*
X188122Y171575D03*
Y166575D03*
X179558Y279404D03*
Y274404D03*
X183598Y279404D03*
Y274404D03*
X199758Y279404D03*
Y274404D03*
X187638Y279404D03*
Y274404D03*
X191678Y279404D03*
Y274404D03*
X175434Y279442D03*
Y274442D03*
X195719Y279361D03*
Y274361D03*
X136048Y241896D03*
Y236896D03*
X131846Y241896D03*
Y236896D03*
X125382Y330862D03*
Y335862D03*
X132654Y369071D03*
Y364071D03*
X128534Y369152D03*
Y364152D03*
X136694Y364071D03*
Y369071D03*
X253855Y79978D03*
X262339Y79816D03*
X253940Y64949D03*
Y69949D03*
X253981Y54658D03*
Y59658D03*
X214954Y10494D03*
Y15494D03*
X210752Y10494D03*
Y15494D03*
X262339Y65676D03*
Y70676D03*
X253855Y84978D03*
X262339Y84816D03*
X245408Y166413D03*
Y171413D03*
X253650Y166251D03*
Y171251D03*
X257689Y166251D03*
Y171251D03*
X261729Y166251D03*
Y171251D03*
X249448Y171413D03*
Y166413D03*
X279828Y166141D03*
Y171141D03*
X288069Y166175D03*
Y171175D03*
X216402Y171575D03*
Y166575D03*
X236932Y96193D03*
Y101193D03*
X232811Y96193D03*
Y101193D03*
X276604Y101355D03*
Y96355D03*
X319186Y101274D03*
Y96274D03*
X280680Y96355D03*
Y101355D03*
X296238Y183201D03*
Y178201D03*
X300359Y183201D03*
Y178201D03*
X212362Y166737D03*
Y171737D03*
X204282Y166737D03*
Y171737D03*
X208322Y166737D03*
Y171737D03*
X271749Y166090D03*
Y171090D03*
X275789Y166090D03*
Y171090D03*
X283949Y166216D03*
Y171216D03*
X292190Y171255D03*
Y166255D03*
X299530Y196590D03*
Y201590D03*
X306800Y206200D03*
Y211200D03*
X268922Y278596D03*
Y273596D03*
X226070Y208368D03*
Y213368D03*
X218393Y233739D03*
Y238739D03*
X260842Y278758D03*
Y273758D03*
X264882Y278758D03*
Y273758D03*
X222030Y208368D03*
Y213368D03*
X230191D03*
Y208368D03*
X217909Y213368D03*
Y208368D03*
X224159Y279081D03*
Y274081D03*
X252762Y278758D03*
Y273758D03*
X230675Y233658D03*
Y238658D03*
X222514Y238739D03*
Y233739D03*
X256802Y278758D03*
Y273758D03*
X248722Y278758D03*
Y273758D03*
X226635Y238658D03*
Y233658D03*
X220119Y279081D03*
Y274081D03*
X307410Y243890D03*
Y248890D03*
X311420Y243910D03*
Y248910D03*
X310800Y206200D03*
Y211200D03*
X286940Y216790D03*
Y211790D03*
X207999Y279243D03*
Y274243D03*
X312770Y260210D03*
Y265210D03*
X244682Y273920D03*
Y278920D03*
X240642Y278758D03*
Y273758D03*
X236441Y274081D03*
Y279081D03*
X232401Y274081D03*
Y279081D03*
X228361D03*
Y274081D03*
X216079D03*
Y279081D03*
X203959Y279243D03*
Y274243D03*
X272933Y278619D03*
Y273619D03*
X324680Y8198D03*
Y13198D03*
X328962Y8031D03*
Y13031D03*
X333082Y8031D03*
Y13031D03*
X369641Y8106D03*
Y13106D03*
X365641Y8147D03*
Y13147D03*
X361601Y8147D03*
Y13147D03*
X357561Y8187D03*
Y13187D03*
X353521Y8146D03*
Y13146D03*
X349481Y8106D03*
Y13106D03*
X345441Y8106D03*
Y13106D03*
X341361Y8066D03*
Y13066D03*
X337284Y8065D03*
Y13065D03*
X377275Y-12326D03*
Y-7326D03*
X381379Y-12233D03*
Y-7233D03*
X363098Y-12140D03*
Y-7140D03*
X367202Y-12233D03*
Y-7233D03*
X367187Y81177D03*
X363096Y81190D03*
X358975D03*
X344233Y81160D03*
X340153D03*
X336113Y81120D03*
X327912Y81155D03*
X332033Y81160D03*
X417232Y75281D03*
Y70281D03*
X409100Y75259D03*
Y70259D03*
X413191Y75252D03*
Y70252D03*
X404950Y75251D03*
Y70251D03*
X396789Y75333D03*
Y70333D03*
X400868Y75260D03*
Y70260D03*
X388467Y75413D03*
Y70413D03*
X392666Y75340D03*
Y70340D03*
X380350Y75443D03*
Y70443D03*
X384390Y75443D03*
Y70443D03*
X366086Y165192D03*
Y170192D03*
X379377Y97956D03*
Y102956D03*
X421768Y96867D03*
Y101867D03*
X371989Y94568D03*
Y99568D03*
X438365Y168981D03*
Y163981D03*
X424225Y134245D03*
Y139245D03*
X337203Y170112D03*
Y165112D03*
X323306Y101274D03*
Y96274D03*
X327382Y96355D03*
Y101355D03*
X331584Y96517D03*
Y101517D03*
X353525Y90357D03*
Y85357D03*
X349485Y90357D03*
Y85357D03*
X367187Y86177D03*
X363096Y86190D03*
X358975D03*
X344233Y86160D03*
X340153D03*
X336113Y86120D03*
X327912Y86155D03*
X332033Y86160D03*
X407597Y97962D03*
Y102962D03*
X347825Y101673D03*
Y96673D03*
X351825Y101713D03*
Y96713D03*
X403578Y102962D03*
Y97962D03*
X399558Y102967D03*
Y97967D03*
X395538D03*
Y102967D03*
X387498Y97967D03*
Y102967D03*
X391538D03*
Y97967D03*
X341405Y165112D03*
Y170112D03*
X345526Y165031D03*
Y170031D03*
X383458Y102967D03*
Y97967D03*
X361964Y165222D03*
Y170222D03*
X357924Y165222D03*
Y170222D03*
X353767Y170112D03*
Y165112D03*
X349602Y170060D03*
Y165060D03*
X378499Y249396D03*
Y254396D03*
X383299Y223696D03*
Y218696D03*
X387299Y223696D03*
Y218696D03*
X403099Y234396D03*
Y239396D03*
X399099Y234396D03*
Y239396D03*
X382499Y252396D03*
Y247396D03*
X383099Y234396D03*
Y239396D03*
X395099Y234396D03*
Y239396D03*
X407499Y205396D03*
Y210396D03*
X395299Y223696D03*
Y218696D03*
X403299Y223696D03*
Y218696D03*
X402499Y252396D03*
Y247396D03*
X391099Y234396D03*
Y239396D03*
X406499Y252396D03*
Y247396D03*
X387099Y234396D03*
Y239396D03*
X395499Y208396D03*
Y203396D03*
X403499Y205396D03*
Y210396D03*
X399499Y205396D03*
Y210396D03*
X383499Y205396D03*
Y210396D03*
X379499Y208396D03*
Y203396D03*
X387499Y205396D03*
Y210396D03*
X391499Y205396D03*
Y210396D03*
X391299Y223696D03*
Y218696D03*
X399299Y223696D03*
Y218696D03*
X354494Y290964D03*
Y285964D03*
X338331Y290923D03*
Y285923D03*
X342366Y290941D03*
Y285941D03*
X346406Y290981D03*
Y285981D03*
X358526Y290941D03*
Y285941D03*
X422486Y291890D03*
Y286890D03*
X406339Y291851D03*
Y286851D03*
X402327Y291842D03*
Y286842D03*
X362600Y291000D03*
Y286000D03*
X418447Y291889D03*
Y286889D03*
X410366Y291890D03*
Y286890D03*
X350446Y290981D03*
Y285981D03*
X438926Y289890D03*
Y284890D03*
X414388Y291842D03*
Y286842D03*
X394499Y247396D03*
Y252396D03*
X398499D03*
Y247396D03*
X390499Y252396D03*
Y247396D03*
X386499Y252396D03*
Y247396D03*
X371500Y322000D03*
Y327000D03*
X371300Y348900D03*
Y353900D03*
X409975Y339767D03*
Y334767D03*
Y351887D03*
Y346887D03*
Y322970D03*
Y327970D03*
X321600Y329000D03*
Y334000D03*
X371400Y342800D03*
Y337800D03*
X534540Y45658D03*
Y50658D03*
X530456Y45619D03*
Y50619D03*
X538937Y141405D03*
Y146405D03*
X534647Y141527D03*
Y146527D03*
X470686Y163985D03*
Y168985D03*
X446445Y169057D03*
Y164057D03*
X559800Y191900D03*
Y186900D03*
X466646Y163985D03*
Y168985D03*
X458564Y169011D03*
Y164011D03*
X450484D03*
Y169011D03*
X462606Y163985D03*
Y168985D03*
X558000Y201000D03*
X442405Y164057D03*
Y169057D03*
X454560Y164009D03*
Y169009D03*
X474762Y164056D03*
Y169056D03*
X478882Y164056D03*
Y169056D03*
X457515Y134245D03*
Y139245D03*
X461555Y134245D03*
Y139245D03*
X447031Y289923D03*
Y284923D03*
X553047Y245000D03*
Y250000D03*
Y260096D03*
Y255096D03*
X442966Y289890D03*
Y284890D03*
X496064Y294582D03*
Y289582D03*
X487846Y289664D03*
Y294664D03*
X553041Y265189D03*
Y270189D03*
X558000Y206000D03*
Y216000D03*
Y211000D03*
X553057Y234842D03*
Y239842D03*
X513590Y296270D03*
Y291270D03*
X533467Y296108D03*
Y291108D03*
X491915Y289664D03*
Y294664D03*
X491892Y279554D03*
Y284554D03*
X496053Y284473D03*
Y279473D03*
X450100Y333100D03*
Y338100D03*
X584100Y214000D03*
Y219000D03*
X584000Y204000D03*
Y209000D03*
G54D33*
X397469Y132765D03*
G54D15*
X127865Y117673D03*
X135739Y125547D03*
X127865D03*
X135739Y133421D03*
X127865D03*
X135739Y141295D03*
X127865D03*
X135739Y149169D03*
X127865D03*
X135739Y157043D03*
X127865D03*
X135739Y164917D03*
X127865D03*
X135739Y172791D03*
X127865D03*
X135739Y180665D03*
X127865D03*
X135739Y188539D03*
X127865D03*
X135739Y196413D03*
X127865D03*
X135739Y204287D03*
X127865D03*
X135739Y212161D03*
X127865D03*
X135739Y220035D03*
X127865D03*
X135739Y227909D03*
X127865D03*
G54D42*
X556500Y162850D03*
X548100Y166450D03*
Y159450D03*
X547800Y176600D03*
Y183600D03*
X556200Y180000D03*
G54D24*
X252984Y35430D03*
X249716D03*
X246448D03*
X243180D03*
Y27556D03*
X246448D03*
X249716D03*
X252984D03*
X235369Y35268D03*
X232101D03*
X228833D03*
X225565D03*
Y27394D03*
X228833D03*
X232101D03*
X235369D03*
X240778Y172365D03*
X237510D03*
X234242D03*
X230974D03*
Y164491D03*
X234242D03*
X237510D03*
X240778D03*
X370636Y163593D03*
X373903D03*
X377171D03*
X380439D03*
Y171467D03*
X377171D03*
X373903D03*
X370636D03*
X423198Y161847D03*
X426466D03*
X429734D03*
X433002D03*
Y169721D03*
X429734D03*
X426466D03*
X423198D03*
X384048Y163674D03*
X387316D03*
X390584D03*
X393852D03*
Y171548D03*
X390584D03*
X387316D03*
X384048D03*
G54D34*
X325960Y200069D03*
X334228D03*
X326041Y190615D03*
Y193174D03*
Y195733D03*
X334309D03*
Y190615D03*
X326041Y181323D03*
Y183882D03*
Y186441D03*
X334309D03*
Y181323D03*
X325960Y202628D03*
Y205187D03*
X334228D03*
X326041Y209684D03*
Y212243D03*
Y214802D03*
X334309D03*
Y209684D03*
G54D16*
X135739Y117673D03*
G54D25*
X319509Y8829D03*
Y14829D03*
X241896Y100586D03*
Y94586D03*
X285690Y94749D03*
Y100749D03*
X266739Y164782D03*
Y170782D03*
X372332Y-7946D03*
Y-13946D03*
X372191Y81872D03*
Y87872D03*
G54D43*
X511900Y198500D03*
X495900D03*
X522400D03*
X538400D03*
X469700D03*
X485700D03*
X511900Y220500D03*
X495900D03*
X522400D03*
X538400D03*
X469700D03*
X485700D03*
G54D17*
X200618Y148907D03*
X199044Y116623D03*
X197469Y148907D03*
X195894Y116623D03*
X194319Y148907D03*
X192744Y116623D03*
X191170Y148907D03*
X189595Y116623D03*
X188020Y148907D03*
X186445Y116623D03*
X184870Y148907D03*
X320303D03*
X318729Y116623D03*
X317154Y148907D03*
X315579Y116623D03*
X314004Y148907D03*
X312429Y116623D03*
X310855Y148907D03*
X309280Y116623D03*
X307705Y148907D03*
X306130Y116623D03*
X304555Y148907D03*
X302981Y116623D03*
X301406Y148907D03*
X299831Y116623D03*
X298256Y148907D03*
X296681Y116623D03*
X295107Y148907D03*
X293532Y116623D03*
X291957Y148907D03*
X290382Y116623D03*
X288807Y148907D03*
X287232Y116623D03*
X285658Y148907D03*
X284083Y116623D03*
X282508Y148907D03*
X280933Y116623D03*
X279358Y148907D03*
X277784Y116623D03*
X276209Y148907D03*
X274634Y116623D03*
X273059Y148907D03*
X271484Y116623D03*
X269910Y148907D03*
X268335Y116623D03*
X266760Y148907D03*
X265185Y116623D03*
X263610Y148907D03*
X262036Y116623D03*
X260461Y148907D03*
X258886Y116623D03*
X257311Y148907D03*
X255736Y116623D03*
X254162Y148907D03*
X252587Y116623D03*
X251012Y148907D03*
X249437Y116623D03*
X247862Y148907D03*
X246288Y116623D03*
X244713Y148907D03*
X243138Y116623D03*
X241563Y148907D03*
X239988Y116623D03*
X238414Y148907D03*
X236839Y116623D03*
X235264Y148907D03*
X233689Y116623D03*
X232114Y148907D03*
X230540Y116623D03*
X228965Y148907D03*
X227390Y116623D03*
X225815Y148907D03*
X224240Y116623D03*
X222666Y148907D03*
X221091Y116623D03*
X219516Y148907D03*
X217941Y116623D03*
X216366Y148907D03*
X214792Y116623D03*
X213217Y148907D03*
X211642Y116623D03*
X210067Y148907D03*
X208492Y116623D03*
X206918Y148907D03*
X205343Y116623D03*
X203768Y148907D03*
X202193Y116623D03*
X391760D03*
X390185Y148907D03*
X375421Y116623D03*
X373847Y148907D03*
X372272Y116623D03*
X370697Y148907D03*
X369122Y116623D03*
X367547Y148907D03*
X365973Y116623D03*
X364398Y148907D03*
X362823Y116623D03*
X361248Y148907D03*
X359673Y116623D03*
X358099Y148907D03*
X356524Y116623D03*
X354949Y148907D03*
X353374Y116623D03*
X351799Y148907D03*
X350225Y116623D03*
X348650Y148907D03*
X347075Y116623D03*
X345500Y148907D03*
X343925Y116623D03*
X342351Y148907D03*
X340776Y116623D03*
X339201Y148907D03*
X337626Y116623D03*
X336051Y148907D03*
X334477Y116623D03*
X332902Y148907D03*
X331327Y116623D03*
X329752Y148907D03*
X328177Y116623D03*
X326603Y148907D03*
X325028Y116623D03*
X323453Y148907D03*
X321878Y116623D03*
G54D26*
X217028Y27520D03*
X214469D03*
X211910D03*
Y35788D03*
X217028D03*
X226636Y163810D03*
X224077D03*
X221518D03*
Y172078D03*
X226636D03*
X552759Y192657D03*
X547641D03*
X550200Y199940D03*
X552159Y211257D03*
X547041D03*
X549600Y218540D03*
G54D35*
X430248Y140691D03*
Y138132D03*
Y135573D03*
Y133014D03*
X449933Y140691D03*
Y138132D03*
Y135573D03*
Y133014D03*
G54D44*
X503526Y166752D03*
Y185752D03*
G54D27*
X220448Y10323D03*
X252572Y97229D03*
X559621Y147174D03*
X577282Y302289D03*
G54D18*
X166170Y151466D03*
X412232D03*
G54D45*
X567284Y352337D03*
G54D36*
X428128Y150805D03*
X447128D03*
X476539D03*
X457539D03*
X486882Y150643D03*
X505882D03*
X516939Y185821D03*
X535939D03*
X516939Y166752D03*
X535939D03*
G54D37*
X556440Y31830D03*
X517060D03*
X536750Y18170D03*
X510492Y80000D03*
Y90000D03*
Y100000D03*
Y110000D03*
X500492Y85000D03*
Y95000D03*
Y105000D03*
X525020Y115000D03*
Y105000D03*
Y95000D03*
Y85000D03*
X535020Y110000D03*
Y100000D03*
Y90000D03*
G54D19*
X180933Y132765D03*
G54D28*
X220448Y15323D03*
X225448Y10323D03*
Y15323D03*
X230448Y10323D03*
Y15323D03*
X235448Y10323D03*
Y15323D03*
X240448Y10323D03*
Y15323D03*
X245448Y10323D03*
Y15323D03*
X250448Y10323D03*
Y15323D03*
X255448Y10323D03*
Y15323D03*
X219155Y80002D03*
X224155D03*
X219155Y75002D03*
X224155D03*
X219155Y70002D03*
X224155D03*
X219155Y65002D03*
X224155D03*
Y95002D03*
X219155Y90002D03*
X224155D03*
X219155Y85002D03*
X224155D03*
X262572Y97229D03*
X257572D03*
X306535Y274191D03*
Y279191D03*
Y284191D03*
X559621Y152174D03*
X470107Y134568D03*
Y139568D03*
X562282Y302289D03*
X467600Y289600D03*
Y294600D03*
X579621Y152174D03*
Y147174D03*
X574621Y152174D03*
Y147174D03*
X569621Y152174D03*
Y147174D03*
X564621Y152174D03*
Y147174D03*
X567282Y302289D03*
X572282D03*
G54D46*
X554284Y334837D03*
X580284D03*
G54D47*
G01X0Y374016D02*
X590551D01*
Y-137795D01*
X535433D01*
Y-49100D01*
X354324D01*
Y0D01*
X0D01*
Y374016D01*
G54D38*
X499100Y64000D03*
X524000Y66600D03*
X515100Y131000D03*
X537000Y128400D03*
X578000Y64000D03*
Y131000D03*
G54D29*
X313843Y70197D03*
X319843D03*
X294370Y79701D03*
X300370D03*
X299496Y41189D03*
X305496D03*
X299334Y35533D03*
X305334D03*
X299455Y46885D03*
X305455D03*
X299298Y21635D03*
X305298D03*
X319842Y64298D03*
X313842D03*
X319762Y50077D03*
X313762D03*
X294693Y97477D03*
X300693D03*
X384058Y21282D03*
X390058D03*
X389897Y55703D03*
X383897D03*
X436900Y38700D03*
X430900D03*
X400056Y92386D03*
X406056D03*
X461323Y235806D03*
X455323D03*
G54D39*
X535020Y80000D03*
X500492Y115000D03*
M02*
