G04 ================== begin FILE IDENTIFICATION RECORD ==================*
G04 Layout Name:  E:/EMB002/project/hardware/ikemb-0002-v2/12-ikemb-0002-v2_H5007.brd*
G04 Film Name:    Solder_Top*
G04 File Format:  Gerber RS274X*
G04 File Origin:  15.7-p007*
G04 Origin Date:  Wed Jun 18 10:19:03 2008*
G04 *
G04 Layer:  PIN/TOP*
G04 Layer:  BOARD GEOMETRY/OUTLINE*
G04 *
G04 Offset:    (0.000 0.000)*
G04 Mirror:    No*
G04 Mode:      Positive*
G04 Rotation:  0*
G04 FullContactRelief:  No*
G04 UndefLineWidth:     8.000*
G04 ================== end FILE IDENTIFICATION RECORD ====================*
%FSLAX55Y55*MOIN*%
%IR0*IPPOS*OFA0.00000B0.00000*MIA0B0*SFA1.00000B1.00000*%
%ADD31R,.12X.06*%
%ADD10C,.2*%
%ADD11C,.12*%
%AMMACRO16*
21,1,.06,.04,0.0,0.0,179.909*%
%ADD16MACRO16*%
%ADD46C,.12598*%
%ADD54R,.1X.2*%
%ADD53R,.2X.1*%
%ADD41R,.3X.1*%
%ADD22R,.01X.04*%
%ADD29R,.33X.5*%
%ADD12R,.04X.01*%
%ADD39R,.012X.05*%
%ADD27R,.14X.25*%
%ADD49R,.02X.025*%
%ADD38R,.05X.012*%
%ADD42R,.025X.02*%
%ADD30R,.07X.04*%
%ADD14R,.05X.05*%
%ADD51R,.012X.036*%
%ADD33R,.06X.05*%
%ADD21R,.025X.05*%
%ADD50R,.036X.012*%
%ADD26R,.05X.025*%
%ADD48R,.04X.018*%
%ADD15R,.02X.017012*%
%ADD35R,.08X.025*%
%ADD28R,.09X.05*%
%ADD19R,.018X.07*%
%ADD32R,.036X.036*%
%ADD37C,.023*%
%ADD24R,.036X.036*%
%ADD13C,.05*%
%ADD18C,.06*%
%ADD25C,.032012*%
%ADD17C,.017*%
%ADD20C,.0433*%
%ADD44C,.083*%
%ADD55R,.06X.06*%
%ADD47C,.04724*%
%ADD34C,.01969*%
%ADD43C,.05984*%
%ADD40C,.06299*%
%ADD45R,.05984X.05984*%
%ADD36R,.1X.03*%
%ADD23R,.05X.1*%
%ADD52R,.06X.1*%
%ADD56C,.008*%
G75*
%LPD*%
G75*
G54D10*
X41654Y352402D03*
X514094Y-37598D03*
X570210Y175337D03*
Y272537D03*
G54D20*
X180933Y132765D03*
G54D11*
X176291Y22537D03*
Y42537D03*
Y62537D03*
Y82537D03*
X135291D03*
Y62537D03*
Y42537D03*
Y22537D03*
X134279Y317449D03*
Y297449D03*
Y277449D03*
Y257449D03*
X535500Y358500D03*
Y341500D03*
X518500D03*
Y358500D03*
G54D21*
X165849Y113251D03*
X160849D03*
X155849D03*
X150849D03*
X165849Y135251D03*
X160849D03*
X150849D03*
X155849D03*
G54D30*
X317898Y46548D03*
Y39848D03*
Y33148D03*
Y26448D03*
Y19748D03*
G54D12*
X167574Y184000D03*
X159700D03*
Y185969D03*
Y187937D03*
Y189906D03*
Y191874D03*
Y193843D03*
Y195811D03*
X167574Y197780D03*
Y195811D03*
Y193843D03*
Y191874D03*
Y189906D03*
Y187937D03*
Y185969D03*
X159700Y197780D03*
X167574Y202261D03*
X159700D03*
Y204230D03*
Y206198D03*
Y208167D03*
Y210135D03*
Y212104D03*
Y214072D03*
X167574Y216041D03*
Y214072D03*
Y212104D03*
Y210135D03*
Y208167D03*
Y206198D03*
Y204230D03*
X159700Y216041D03*
X167574Y220521D03*
X159700D03*
Y222490D03*
Y224458D03*
Y226427D03*
Y228395D03*
Y230364D03*
Y232332D03*
X167574Y234301D03*
Y232332D03*
Y230364D03*
Y228395D03*
Y226427D03*
Y224458D03*
Y222490D03*
X159700Y234301D03*
X321066Y184844D03*
Y171064D03*
Y173033D03*
Y175001D03*
Y176970D03*
Y178938D03*
Y180907D03*
Y182875D03*
X318214Y200857D03*
Y198889D03*
Y196920D03*
X290656D03*
Y198889D03*
Y200857D03*
X290700Y246252D03*
Y244283D03*
Y242315D03*
Y240346D03*
Y238378D03*
Y236409D03*
Y234441D03*
Y232472D03*
X318260D03*
Y234441D03*
Y236409D03*
Y238378D03*
Y240346D03*
Y242315D03*
Y244283D03*
Y246252D03*
X318214Y210700D03*
Y208731D03*
Y206763D03*
Y204794D03*
Y202826D03*
X290656D03*
Y204794D03*
Y206763D03*
Y208731D03*
Y210700D03*
X328940Y184844D03*
Y182875D03*
Y180907D03*
Y178938D03*
Y176970D03*
Y175001D03*
Y173033D03*
Y171064D03*
X547674Y227823D03*
Y229792D03*
Y231760D03*
Y233729D03*
Y235697D03*
Y237666D03*
Y239634D03*
Y241603D03*
Y243571D03*
Y245540D03*
Y247508D03*
Y249477D03*
Y251445D03*
Y253414D03*
Y255382D03*
Y257351D03*
Y259319D03*
Y261288D03*
Y263256D03*
Y265225D03*
Y267193D03*
Y269162D03*
Y271130D03*
Y273099D03*
X469722D03*
Y271130D03*
Y269162D03*
Y267193D03*
Y265225D03*
Y263256D03*
Y261288D03*
Y259319D03*
Y257351D03*
Y255382D03*
Y253414D03*
Y251445D03*
Y249477D03*
Y247508D03*
Y245540D03*
Y243571D03*
Y241603D03*
Y239634D03*
Y237666D03*
Y235697D03*
Y233729D03*
Y231760D03*
Y229792D03*
Y227823D03*
G54D40*
X397469Y132765D03*
G54D13*
X127865Y117673D03*
X135739Y125547D03*
X127865D03*
X135739Y133421D03*
X127865D03*
X135739Y141295D03*
X127865D03*
X135739Y149169D03*
X127865D03*
X135739Y157043D03*
X127865D03*
X135739Y164917D03*
X127865D03*
X135739Y172791D03*
X127865D03*
X135739Y180665D03*
X127865D03*
X135739Y188539D03*
X127865D03*
X135739Y196413D03*
X127865D03*
X135739Y204287D03*
X127865D03*
X135739Y212161D03*
X127865D03*
X135739Y220035D03*
X127865D03*
X135739Y227909D03*
X127865D03*
G54D22*
X200358Y276693D03*
X198389D03*
X196421D03*
X194452D03*
X192484D03*
X190515Y284567D03*
X192484D03*
X194452D03*
X196421D03*
X198389D03*
X200358D03*
X190515Y276693D03*
X183383Y316573D03*
X185352D03*
X187320D03*
X189289D03*
X191257D03*
X193226D03*
X195194D03*
X197163D03*
X199131D03*
X201100D03*
Y362873D03*
X199131D03*
X197163D03*
X195194D03*
X193226D03*
X191257D03*
X189289D03*
X187320D03*
X185352D03*
X183383D03*
X311325Y190030D03*
X309356D03*
X307388D03*
X305419D03*
X303451D03*
X301482D03*
X299514D03*
X297545D03*
X222394Y284567D03*
Y276693D03*
X220425D03*
X218457D03*
X216488D03*
X214520D03*
X212551D03*
X210583D03*
X208614Y284567D03*
X210583D03*
X212551D03*
X214520D03*
X216488D03*
X218457D03*
X220425D03*
X208614Y276693D03*
X204295Y284567D03*
Y276693D03*
X202326D03*
Y284567D03*
X240493Y284890D03*
Y277016D03*
X238524D03*
X236556D03*
X234587D03*
X232619D03*
X230650D03*
X228682D03*
X226713Y284890D03*
X228682D03*
X230650D03*
X232619D03*
X234587D03*
X236556D03*
X238524D03*
X226713Y277016D03*
X258592Y284890D03*
Y277016D03*
X256623D03*
X254655D03*
X252686D03*
X250718D03*
X248749D03*
X246781D03*
X244812Y284890D03*
X246781D03*
X248749D03*
X250718D03*
X252686D03*
X254655D03*
X256623D03*
X244812Y277016D03*
X311370Y253142D03*
X309401D03*
X307433D03*
X305464D03*
X303496D03*
X301527D03*
X299559D03*
X297590D03*
Y225582D03*
X299559D03*
X301527D03*
X303496D03*
X305464D03*
X307433D03*
X309401D03*
X311370D03*
X203068Y316573D03*
X205037D03*
X207006D03*
X208974D03*
X210943D03*
X212911D03*
X214880D03*
X216848D03*
X218816D03*
X220785D03*
X222754D03*
X224722D03*
X226691D03*
X228659D03*
X230628D03*
X232596D03*
X234565D03*
X236533D03*
X238502D03*
X240470D03*
X242439D03*
X244407D03*
X246376D03*
X248344D03*
X250313D03*
X252281D03*
X254250D03*
X256218D03*
X258187D03*
X260155D03*
X262124D03*
X264092D03*
X266061D03*
X297545Y217590D03*
X299514D03*
X301482D03*
X303451D03*
X305419D03*
X307388D03*
X309356D03*
X311325D03*
X266061Y362873D03*
X264092D03*
X262124D03*
X260155D03*
X258187D03*
X256218D03*
X254250D03*
X252281D03*
X250313D03*
X248344D03*
X246376D03*
X244407D03*
X242439D03*
X240470D03*
X238502D03*
X236533D03*
X234565D03*
X232596D03*
X230628D03*
X228659D03*
X226691D03*
X224722D03*
X222754D03*
X220785D03*
X218816D03*
X216848D03*
X214880D03*
X212911D03*
X210943D03*
X208974D03*
X207006D03*
X205037D03*
X203068D03*
G54D31*
X207893Y29609D03*
X225893D03*
Y50109D03*
X207893D03*
X225893Y39859D03*
X207893Y39889D03*
G54D23*
X151733Y364693D03*
X161733D03*
Y344693D03*
X151733D03*
G54D32*
X219155Y95002D03*
X306535Y269191D03*
X467600Y284600D03*
G54D50*
X477959Y186790D03*
Y184790D03*
Y182790D03*
Y180790D03*
Y178790D03*
Y176790D03*
Y174790D03*
Y172790D03*
Y170790D03*
Y168790D03*
Y166790D03*
Y164790D03*
Y162790D03*
Y200790D03*
Y198790D03*
Y196790D03*
Y194790D03*
Y192790D03*
Y190790D03*
Y188790D03*
X539759Y162790D03*
Y164790D03*
Y166790D03*
Y168790D03*
Y170790D03*
Y172790D03*
Y174790D03*
Y176790D03*
Y178790D03*
Y180790D03*
Y182790D03*
Y184790D03*
Y186790D03*
Y188790D03*
Y190790D03*
Y192790D03*
Y194790D03*
Y196790D03*
Y198790D03*
Y200790D03*
X477959Y210790D03*
Y208790D03*
Y206790D03*
Y204790D03*
Y202790D03*
X539759D03*
Y204790D03*
Y206790D03*
Y208790D03*
Y210790D03*
G54D14*
X135739Y117673D03*
G54D41*
X450107Y137068D03*
G54D24*
X220448Y10323D03*
X252572Y97229D03*
X559621Y147174D03*
X577282Y302289D03*
G54D15*
X159342Y178794D03*
Y176235D03*
Y173676D03*
X167610D03*
Y178794D03*
G54D33*
X420000Y-39700D03*
X429000D03*
X420246Y-30399D03*
X429246D03*
X420206Y-21370D03*
X429206D03*
X420500Y-12200D03*
X429500D03*
G54D51*
X484859Y155890D03*
X486859D03*
X488859D03*
X490859D03*
X492859D03*
X494859D03*
X496859D03*
X498859D03*
X500859D03*
X502859D03*
X504859D03*
X506859D03*
X508859D03*
X510859D03*
X512859D03*
X514859D03*
X516859D03*
X518859D03*
X520859D03*
X522859D03*
X524859D03*
X526859D03*
X528859D03*
X530859D03*
X532859D03*
Y217690D03*
X530859D03*
X528859D03*
X526859D03*
X524859D03*
X522859D03*
X520859D03*
X518859D03*
X516859D03*
X514859D03*
X512859D03*
X510859D03*
X508859D03*
X506859D03*
X504859D03*
X502859D03*
X500859D03*
X498859D03*
X496859D03*
X494859D03*
X492859D03*
X490859D03*
X488859D03*
X486859D03*
X484859D03*
G54D42*
X401685Y370401D03*
X396685D03*
X411893Y370358D03*
X406893D03*
G54D52*
X513726Y316409D03*
X523726D03*
X533726D03*
X543726D03*
Y281409D03*
X533726D03*
X523726D03*
X513726D03*
G54D43*
X556440Y31830D03*
X517060D03*
X536750Y18170D03*
X510492Y80000D03*
Y90000D03*
Y100000D03*
Y110000D03*
X500492Y85000D03*
Y95000D03*
Y105000D03*
X525020Y115000D03*
Y105000D03*
Y95000D03*
Y85000D03*
X535020Y110000D03*
Y100000D03*
Y90000D03*
G54D34*
X337814Y68255D03*
X341751D03*
X345688D03*
X349625D03*
X353562D03*
X357499D03*
X361436D03*
X365373D03*
X369310D03*
X337814Y64318D03*
X341751D03*
X345688D03*
X349625D03*
X353562D03*
X357499D03*
X361436D03*
X365373D03*
X369310D03*
X337814Y60381D03*
X341751D03*
X345688D03*
X349625D03*
X353562D03*
X357499D03*
X361436D03*
X365373D03*
X369310D03*
X337814Y56444D03*
X341751D03*
X345688D03*
X349625D03*
X353562D03*
X357499D03*
X361436D03*
X365373D03*
X369310D03*
X337814Y52507D03*
X341751D03*
X345688D03*
X349625D03*
X353562D03*
X357499D03*
X361436D03*
X365373D03*
X369310D03*
X337814Y48570D03*
X341751D03*
X345688D03*
X349625D03*
X353562D03*
X357499D03*
X361436D03*
X365373D03*
X369310D03*
X337814Y44633D03*
X341751D03*
X345688D03*
X349625D03*
X353562D03*
X357499D03*
X361436D03*
X365373D03*
X369310D03*
X337814Y40696D03*
X341751D03*
X345688D03*
X349625D03*
X353562D03*
X357499D03*
X361436D03*
X365373D03*
X369310D03*
X337814Y36759D03*
X341751D03*
X345688D03*
X349625D03*
X353562D03*
X357499D03*
X361436D03*
X365373D03*
X369310D03*
X337814Y32822D03*
X341751D03*
X345688D03*
X349625D03*
X353562D03*
X357499D03*
X361436D03*
X365373D03*
X369310D03*
X337814Y28885D03*
X341751D03*
X345688D03*
X349625D03*
X353562D03*
X357499D03*
X361436D03*
X365373D03*
X369310D03*
X337814Y24948D03*
X341751D03*
X345688D03*
X349625D03*
X353562D03*
X357499D03*
X361436D03*
X365373D03*
X369310D03*
X337814Y21011D03*
X341751D03*
X345688D03*
X349625D03*
X353562D03*
X357499D03*
X361436D03*
X365373D03*
X369310D03*
G54D25*
X220448Y15323D03*
X225448Y10323D03*
Y15323D03*
X230448Y10323D03*
Y15323D03*
X235448Y10323D03*
Y15323D03*
X240448Y10323D03*
Y15323D03*
X245448Y10323D03*
Y15323D03*
X250448Y10323D03*
Y15323D03*
X255448Y10323D03*
Y15323D03*
X219155Y80002D03*
X224155D03*
X219155Y75002D03*
X224155D03*
X219155Y70002D03*
X224155D03*
X219155Y65002D03*
X224155D03*
Y95002D03*
X219155Y90002D03*
X224155D03*
X219155Y85002D03*
X224155D03*
X262572Y97229D03*
X257572D03*
X306535Y274191D03*
Y279191D03*
Y284191D03*
X559621Y152174D03*
X470107Y134568D03*
Y139568D03*
X562282Y302289D03*
X467600Y289600D03*
Y294600D03*
X579621Y152174D03*
Y147174D03*
X574621Y152174D03*
Y147174D03*
X569621Y152174D03*
Y147174D03*
X564621Y152174D03*
Y147174D03*
X567282Y302289D03*
X572282D03*
G54D16*
X202503Y144551D03*
Y166551D03*
X186503D03*
Y144551D03*
X228521D03*
Y166551D03*
X212521D03*
Y144551D03*
X380029Y-21472D03*
Y528D03*
X364029D03*
Y-21472D03*
G54D44*
X499100Y64000D03*
X524000Y66600D03*
X515100Y131000D03*
X537000Y128400D03*
X578000Y64000D03*
Y131000D03*
G54D17*
X185003Y184184D03*
Y187334D03*
Y190483D03*
Y193633D03*
Y196782D03*
Y199932D03*
X188152Y184184D03*
Y187334D03*
Y190483D03*
Y193633D03*
Y196782D03*
Y199932D03*
X191302Y184184D03*
Y187334D03*
Y190483D03*
Y193633D03*
Y196782D03*
Y199932D03*
X194452Y184184D03*
Y187334D03*
Y190483D03*
Y193633D03*
Y196782D03*
Y199932D03*
X197601Y184184D03*
Y187334D03*
Y190483D03*
Y193633D03*
Y196782D03*
Y199932D03*
X200751Y184184D03*
Y187334D03*
Y190483D03*
Y193633D03*
Y196782D03*
Y199932D03*
X185003Y203082D03*
Y206231D03*
Y209381D03*
Y212530D03*
Y215680D03*
Y218830D03*
Y221979D03*
Y225129D03*
Y228278D03*
Y231428D03*
Y234578D03*
Y237727D03*
Y240877D03*
Y244026D03*
Y247176D03*
Y250326D03*
Y253475D03*
Y256625D03*
Y259774D03*
Y262924D03*
X188152Y203082D03*
Y206231D03*
Y209381D03*
Y212530D03*
Y215680D03*
Y218830D03*
Y221979D03*
Y225129D03*
Y228278D03*
Y231428D03*
Y234578D03*
Y237727D03*
Y240877D03*
Y244026D03*
Y247176D03*
Y250326D03*
Y253475D03*
Y256625D03*
Y259774D03*
Y262924D03*
X191302Y203082D03*
Y206231D03*
Y209381D03*
Y212530D03*
Y215680D03*
Y218830D03*
Y221979D03*
Y225129D03*
Y228278D03*
Y231428D03*
Y234578D03*
Y237727D03*
Y240877D03*
Y244026D03*
Y247176D03*
Y250326D03*
Y253475D03*
Y256625D03*
Y259774D03*
Y262924D03*
X194452Y203082D03*
Y206231D03*
Y209381D03*
Y212530D03*
Y215680D03*
Y218830D03*
Y221979D03*
Y225129D03*
Y228278D03*
Y231428D03*
Y234578D03*
Y237727D03*
Y240877D03*
Y244026D03*
Y247176D03*
Y250326D03*
Y253475D03*
Y256625D03*
Y259774D03*
Y262924D03*
X197601Y203082D03*
Y206231D03*
Y209381D03*
Y212530D03*
Y215680D03*
Y218830D03*
Y221979D03*
Y225129D03*
Y228278D03*
Y231428D03*
Y234578D03*
Y237727D03*
Y240877D03*
Y244026D03*
Y247176D03*
Y250326D03*
Y253475D03*
Y256625D03*
Y259774D03*
Y262924D03*
X200751Y203082D03*
Y206231D03*
Y209381D03*
Y212530D03*
Y215680D03*
Y218830D03*
Y221979D03*
Y225129D03*
Y228278D03*
Y231428D03*
Y234578D03*
Y237727D03*
Y240877D03*
Y244026D03*
Y247176D03*
Y250326D03*
Y253475D03*
Y256625D03*
Y259774D03*
Y262924D03*
X203901Y184184D03*
Y187334D03*
Y190483D03*
Y193633D03*
Y196782D03*
Y199932D03*
X207050Y184184D03*
Y187334D03*
Y190483D03*
Y193633D03*
Y196782D03*
Y199932D03*
X210200Y184184D03*
Y187334D03*
Y190483D03*
Y193633D03*
Y196782D03*
Y199932D03*
X213349Y184184D03*
Y187334D03*
Y190483D03*
Y193633D03*
Y196782D03*
Y199932D03*
X216499Y184184D03*
Y187334D03*
Y190483D03*
Y193633D03*
Y196782D03*
Y199932D03*
X219649Y184184D03*
Y187334D03*
Y190483D03*
Y193633D03*
Y196782D03*
Y199932D03*
X222798Y184184D03*
Y187334D03*
Y190483D03*
Y193633D03*
Y196782D03*
Y199932D03*
X225948Y184184D03*
Y187334D03*
Y190483D03*
Y193633D03*
Y196782D03*
Y199932D03*
X229097Y184184D03*
Y187334D03*
Y190483D03*
Y193633D03*
Y196782D03*
Y199932D03*
X232247Y184184D03*
Y187334D03*
Y190483D03*
Y193633D03*
Y196782D03*
Y199932D03*
X235397Y184184D03*
Y187334D03*
Y190483D03*
Y193633D03*
Y196782D03*
Y199932D03*
X238546Y184184D03*
Y187334D03*
Y190483D03*
Y193633D03*
Y196782D03*
Y199932D03*
X241696Y184184D03*
Y187334D03*
Y190483D03*
Y193633D03*
Y196782D03*
Y199932D03*
X244845Y184184D03*
Y187334D03*
Y190483D03*
Y193633D03*
Y196782D03*
Y199932D03*
X247995Y184184D03*
Y187334D03*
Y190483D03*
Y193633D03*
Y196782D03*
Y199932D03*
X251145Y184184D03*
Y187334D03*
Y190483D03*
Y193633D03*
Y196782D03*
Y199932D03*
X254294Y184184D03*
Y187334D03*
Y190483D03*
Y193633D03*
Y196782D03*
Y199932D03*
X257444Y184184D03*
Y187334D03*
Y190483D03*
Y193633D03*
Y196782D03*
Y199932D03*
X260594Y184184D03*
Y187334D03*
Y190483D03*
Y193633D03*
Y196782D03*
Y199932D03*
X263743Y184184D03*
Y187334D03*
Y190483D03*
Y193633D03*
Y196782D03*
Y199932D03*
X203901Y203082D03*
Y206231D03*
Y209381D03*
Y212530D03*
Y215680D03*
Y218830D03*
Y221979D03*
Y225129D03*
Y228278D03*
Y231428D03*
Y234578D03*
Y237727D03*
Y240877D03*
Y244026D03*
Y247176D03*
Y250326D03*
Y253475D03*
Y256625D03*
Y259774D03*
Y262924D03*
X207050Y203082D03*
Y244026D03*
Y247176D03*
Y250326D03*
Y253475D03*
Y256625D03*
Y259774D03*
Y262924D03*
X210200Y203082D03*
Y244026D03*
Y247176D03*
Y250326D03*
Y253475D03*
Y256625D03*
Y259774D03*
Y262924D03*
X213349Y203082D03*
Y244026D03*
Y247176D03*
Y250326D03*
Y253475D03*
Y256625D03*
Y259774D03*
Y262924D03*
X216499Y203082D03*
Y244026D03*
Y247176D03*
Y250326D03*
Y253475D03*
Y256625D03*
Y259774D03*
Y262924D03*
X219649Y203082D03*
Y218830D03*
Y221979D03*
Y225129D03*
Y228278D03*
Y244026D03*
Y247176D03*
Y250326D03*
Y253475D03*
Y256625D03*
Y259774D03*
Y262924D03*
X222798Y203082D03*
Y218830D03*
Y221979D03*
Y225129D03*
Y228278D03*
Y244026D03*
Y247176D03*
Y250326D03*
Y253475D03*
Y256625D03*
Y259774D03*
Y262924D03*
X225948Y203082D03*
Y218830D03*
Y221979D03*
Y225129D03*
Y228278D03*
Y244026D03*
Y247176D03*
Y250326D03*
Y253475D03*
Y256625D03*
Y259774D03*
Y262924D03*
X229097Y203082D03*
Y218830D03*
Y221979D03*
Y225129D03*
Y228278D03*
Y244026D03*
Y247176D03*
Y250326D03*
Y253475D03*
Y256625D03*
Y259774D03*
Y262924D03*
X232247Y203082D03*
Y244026D03*
Y247176D03*
Y250326D03*
Y253475D03*
Y256625D03*
Y259774D03*
Y262924D03*
X235397Y203082D03*
Y244026D03*
Y247176D03*
Y250326D03*
Y253475D03*
Y256625D03*
Y259774D03*
Y262924D03*
X238546Y203082D03*
Y244026D03*
Y247176D03*
Y250326D03*
Y253475D03*
Y256625D03*
Y259774D03*
Y262924D03*
X241696Y203082D03*
Y244026D03*
Y247176D03*
Y250326D03*
Y253475D03*
Y256625D03*
Y259774D03*
Y262924D03*
X244845Y203082D03*
Y206231D03*
Y209381D03*
Y212530D03*
Y215680D03*
Y218830D03*
Y221979D03*
Y225129D03*
Y228278D03*
Y231428D03*
Y234578D03*
Y237727D03*
Y240877D03*
Y244026D03*
Y247176D03*
Y250326D03*
Y253475D03*
Y256625D03*
Y259774D03*
Y262924D03*
X247995Y203082D03*
Y206231D03*
Y209381D03*
Y212530D03*
Y215680D03*
Y218830D03*
Y221979D03*
Y225129D03*
Y228278D03*
Y231428D03*
Y234578D03*
Y237727D03*
Y240877D03*
Y244026D03*
Y247176D03*
Y250326D03*
Y253475D03*
Y256625D03*
Y259774D03*
Y262924D03*
X251145Y203082D03*
Y206231D03*
Y209381D03*
Y212530D03*
Y215680D03*
Y218830D03*
Y221979D03*
Y225129D03*
Y228278D03*
Y231428D03*
Y234578D03*
Y237727D03*
Y240877D03*
Y244026D03*
Y247176D03*
Y250326D03*
Y253475D03*
Y256625D03*
Y259774D03*
Y262924D03*
X254294Y203082D03*
Y206231D03*
Y209381D03*
Y212530D03*
Y215680D03*
Y218830D03*
Y221979D03*
Y225129D03*
Y228278D03*
Y231428D03*
Y234578D03*
Y237727D03*
Y240877D03*
Y244026D03*
Y247176D03*
Y250326D03*
Y253475D03*
Y256625D03*
Y259774D03*
Y262924D03*
X257444Y203082D03*
Y206231D03*
Y209381D03*
Y212530D03*
Y215680D03*
Y218830D03*
Y221979D03*
Y225129D03*
Y228278D03*
Y231428D03*
Y234578D03*
Y237727D03*
Y240877D03*
Y244026D03*
Y247176D03*
Y250326D03*
Y253475D03*
Y256625D03*
Y259774D03*
Y262924D03*
X260594Y203082D03*
Y206231D03*
Y209381D03*
Y212530D03*
Y215680D03*
Y218830D03*
Y221979D03*
Y225129D03*
Y228278D03*
Y231428D03*
Y234578D03*
Y237727D03*
Y240877D03*
Y244026D03*
Y247176D03*
Y250326D03*
Y253475D03*
Y256625D03*
Y259774D03*
Y262924D03*
X263743Y203082D03*
Y206231D03*
Y209381D03*
Y212530D03*
Y215680D03*
Y218830D03*
Y221979D03*
Y225129D03*
Y228278D03*
Y231428D03*
Y234578D03*
Y237727D03*
Y240877D03*
Y244026D03*
Y247176D03*
Y250326D03*
Y253475D03*
Y256625D03*
Y259774D03*
Y262924D03*
X310602Y318928D03*
Y315778D03*
Y309479D03*
Y312628D03*
X313752Y309479D03*
Y312628D03*
Y315778D03*
Y318928D03*
X316901Y309479D03*
Y312628D03*
Y315778D03*
Y318928D03*
X298004Y309479D03*
Y312628D03*
Y315778D03*
Y318928D03*
X294854Y309479D03*
Y312628D03*
Y315778D03*
Y318928D03*
X291705Y309479D03*
Y312628D03*
Y315778D03*
Y318928D03*
X310602Y353573D03*
Y350424D03*
Y347274D03*
Y344124D03*
Y340975D03*
Y337825D03*
Y334676D03*
Y331526D03*
Y328376D03*
Y325227D03*
Y322077D03*
X313752D03*
Y325227D03*
Y328376D03*
Y331526D03*
Y334676D03*
Y337825D03*
Y340975D03*
Y344124D03*
Y347274D03*
Y350424D03*
Y353573D03*
X316901Y322077D03*
Y325227D03*
Y328376D03*
Y334676D03*
Y331526D03*
Y340975D03*
Y347274D03*
Y353573D03*
X298004Y322077D03*
Y325227D03*
Y328376D03*
Y331526D03*
Y334676D03*
Y337825D03*
Y340975D03*
Y344124D03*
Y347274D03*
Y350424D03*
Y353573D03*
X294854Y322077D03*
Y325227D03*
Y328376D03*
Y331526D03*
Y334676D03*
Y337825D03*
Y340975D03*
Y344124D03*
Y347274D03*
Y350424D03*
Y353573D03*
X291705Y322077D03*
Y325227D03*
Y328376D03*
Y331526D03*
Y334676D03*
Y337825D03*
Y344124D03*
Y350424D03*
Y347274D03*
Y340975D03*
X420214Y318580D03*
Y315430D03*
Y312280D03*
Y309131D03*
X423363Y318580D03*
Y315430D03*
Y312280D03*
Y309131D03*
X426513Y318580D03*
Y315430D03*
Y312280D03*
Y309131D03*
X439111Y312280D03*
Y309131D03*
Y315430D03*
Y318580D03*
X336897Y319142D03*
Y315992D03*
Y312842D03*
Y309693D03*
X340046Y319142D03*
Y315992D03*
Y312842D03*
Y309693D03*
X343196Y319142D03*
Y315992D03*
Y312842D03*
Y309693D03*
X362093Y319142D03*
Y315992D03*
Y312842D03*
Y309693D03*
X358944Y319142D03*
Y315992D03*
Y312842D03*
Y309693D03*
X355794Y312842D03*
Y309693D03*
Y315992D03*
Y319142D03*
X420214Y340627D03*
Y346926D03*
Y350076D03*
Y343776D03*
Y337477D03*
Y334328D03*
Y331178D03*
Y328028D03*
Y324879D03*
Y321729D03*
X423363Y353225D03*
Y350076D03*
Y346926D03*
Y343776D03*
Y340627D03*
Y337477D03*
Y334328D03*
Y331178D03*
Y328028D03*
Y324879D03*
Y321729D03*
X426513Y353225D03*
Y350076D03*
Y346926D03*
Y343776D03*
Y340627D03*
Y337477D03*
Y334328D03*
Y331178D03*
Y328028D03*
Y324879D03*
Y321729D03*
X439111D03*
Y324879D03*
Y328028D03*
Y331178D03*
Y334328D03*
Y337477D03*
Y340627D03*
Y343776D03*
Y346926D03*
Y350076D03*
Y353225D03*
X336897Y341189D03*
Y347488D03*
Y350638D03*
Y344338D03*
Y338039D03*
Y334890D03*
Y331740D03*
Y328590D03*
Y325441D03*
Y322291D03*
X340046Y353787D03*
Y350638D03*
Y347488D03*
Y344338D03*
Y341189D03*
Y338039D03*
Y334890D03*
Y331740D03*
Y328590D03*
Y325441D03*
Y322291D03*
X343196Y353787D03*
Y350638D03*
Y347488D03*
Y344338D03*
Y341189D03*
Y338039D03*
Y334890D03*
Y331740D03*
Y328590D03*
Y325441D03*
Y322291D03*
X362093Y353787D03*
Y347488D03*
Y341189D03*
Y331740D03*
Y334890D03*
Y328590D03*
Y325441D03*
Y322291D03*
X358944Y353787D03*
Y350638D03*
Y347488D03*
Y344338D03*
Y341189D03*
Y338039D03*
Y334890D03*
Y331740D03*
Y328590D03*
Y325441D03*
Y322291D03*
X355794D03*
Y325441D03*
Y328590D03*
Y331740D03*
Y334890D03*
Y338039D03*
Y341189D03*
Y344338D03*
Y347488D03*
Y350638D03*
Y353787D03*
X484585Y318609D03*
Y315459D03*
Y309160D03*
Y312309D03*
X487735Y309160D03*
Y312309D03*
Y315459D03*
Y318609D03*
X490884Y309160D03*
Y312309D03*
Y315459D03*
Y318609D03*
X471987Y309160D03*
Y312309D03*
Y315459D03*
Y318609D03*
X468837Y309160D03*
Y312309D03*
Y315459D03*
Y318609D03*
X465688Y309160D03*
Y312309D03*
Y315459D03*
Y318609D03*
X445410Y318580D03*
Y315430D03*
Y312280D03*
Y309131D03*
X442261Y318580D03*
Y315430D03*
Y312280D03*
Y309131D03*
X484585Y353254D03*
Y350105D03*
Y346955D03*
Y343805D03*
Y340656D03*
Y337506D03*
Y334357D03*
Y331207D03*
Y328057D03*
Y324908D03*
Y321758D03*
X487735D03*
Y324908D03*
Y328057D03*
Y331207D03*
Y334357D03*
Y337506D03*
Y340656D03*
Y343805D03*
Y346955D03*
Y350105D03*
Y353254D03*
X490884Y321758D03*
Y324908D03*
Y328057D03*
Y334357D03*
Y331207D03*
Y340656D03*
Y346955D03*
Y353254D03*
X471987Y321758D03*
Y324908D03*
Y328057D03*
Y331207D03*
Y334357D03*
Y337506D03*
Y340656D03*
Y343805D03*
Y346955D03*
Y350105D03*
Y353254D03*
X468837Y321758D03*
Y324908D03*
Y328057D03*
Y331207D03*
Y334357D03*
Y337506D03*
Y340656D03*
Y343805D03*
Y346955D03*
Y350105D03*
Y353254D03*
X465688Y321758D03*
Y324908D03*
Y328057D03*
Y331207D03*
Y334357D03*
Y337506D03*
Y343805D03*
Y350105D03*
Y346955D03*
Y340656D03*
X445410Y353225D03*
Y346926D03*
Y340627D03*
Y331178D03*
Y334328D03*
Y328028D03*
Y324879D03*
Y321729D03*
X442261Y353225D03*
Y350076D03*
Y346926D03*
Y343776D03*
Y340627D03*
Y337477D03*
Y334328D03*
Y331178D03*
Y328028D03*
Y324879D03*
Y321729D03*
G54D35*
X418650Y61200D03*
Y56200D03*
Y51200D03*
Y46200D03*
Y41200D03*
Y36200D03*
Y31200D03*
Y26200D03*
Y21200D03*
Y16200D03*
Y11200D03*
Y6200D03*
X476250D03*
Y11200D03*
Y16200D03*
Y21200D03*
Y26200D03*
Y31200D03*
Y36200D03*
Y41200D03*
Y46200D03*
Y51200D03*
Y56200D03*
Y61200D03*
G54D26*
X268685Y79988D03*
Y74988D03*
Y64988D03*
Y69988D03*
Y59988D03*
Y49988D03*
Y54988D03*
X246685Y79988D03*
Y74988D03*
Y69988D03*
Y64988D03*
Y59988D03*
Y54988D03*
Y49988D03*
X268685Y84988D03*
X246685D03*
X481673Y279691D03*
Y284691D03*
Y289691D03*
Y294691D03*
X503673Y279691D03*
Y284691D03*
Y294691D03*
Y289691D03*
G54D53*
X567284Y352337D03*
G54D36*
X429365Y86118D03*
Y91118D03*
Y96118D03*
Y101118D03*
Y106118D03*
Y111118D03*
Y116118D03*
Y121118D03*
X463365Y86118D03*
Y121118D03*
Y116118D03*
Y111118D03*
Y106118D03*
Y101118D03*
Y96118D03*
Y91118D03*
G54D45*
X535020Y80000D03*
X500492Y115000D03*
G54D18*
X165318Y164499D03*
X287810Y178476D03*
X307810D03*
X283707Y267610D03*
Y287610D03*
X339683Y99114D03*
X359683D03*
X562429Y47837D03*
X542429D03*
X460282Y-13534D03*
X480282D03*
X575610Y240237D03*
Y229437D03*
Y218637D03*
Y207837D03*
X564810Y245637D03*
Y234837D03*
Y224037D03*
Y213237D03*
G54D27*
X287131Y88539D03*
G54D54*
X554284Y334837D03*
X580284D03*
G54D55*
X564810Y202437D03*
G54D37*
X343964Y199494D03*
X347901D03*
X351838D03*
X355775D03*
X359712D03*
X363649D03*
X371523D03*
X379397D03*
X383334D03*
X391208D03*
X395145D03*
X403019D03*
X406956D03*
X414830D03*
X422704D03*
X426641D03*
X430578D03*
X434515D03*
X438452D03*
X343964Y195557D03*
X347901D03*
X351838D03*
X355775D03*
X359712D03*
X363649D03*
X367586D03*
X371523D03*
X375460D03*
X379397D03*
X383334D03*
X387271D03*
X391208D03*
X395145D03*
X399082D03*
X403019D03*
X406956D03*
X410893D03*
X414830D03*
X418767D03*
X422704D03*
X426641D03*
X430578D03*
X434515D03*
X438452D03*
X343964Y191620D03*
X347901D03*
X351838D03*
X355775D03*
X359712D03*
X363649D03*
X367586D03*
X371523D03*
X375460D03*
X379397D03*
X383334D03*
X387271D03*
X391208D03*
X395145D03*
X399082D03*
X403019D03*
X406956D03*
X410893D03*
X414830D03*
X418767D03*
X422704D03*
X426641D03*
X430578D03*
X434515D03*
X438452D03*
X343964Y187683D03*
X347901D03*
X351838D03*
X355775D03*
X359712D03*
X363649D03*
X367586D03*
X371523D03*
X375460D03*
X379397D03*
X383334D03*
X387271D03*
X391208D03*
X395145D03*
X399082D03*
X403019D03*
X406956D03*
X410893D03*
X414830D03*
X418767D03*
X422704D03*
X426641D03*
X430578D03*
X434515D03*
X438452D03*
X343964Y183746D03*
X347901D03*
X351838D03*
X355775D03*
X359712D03*
X363649D03*
X367586D03*
X371523D03*
X375460D03*
X379397D03*
X383334D03*
X387271D03*
X391208D03*
X395145D03*
X399082D03*
X403019D03*
X406956D03*
X410893D03*
X414830D03*
X418767D03*
X422704D03*
X426641D03*
X430578D03*
X434515D03*
X438452D03*
X347901Y179809D03*
X351838D03*
X355775D03*
X359712D03*
X363649D03*
X367586D03*
X371523D03*
X375460D03*
X379397D03*
X383334D03*
X387271D03*
X391208D03*
X395145D03*
X399082D03*
X403019D03*
X406956D03*
X410893D03*
X414830D03*
X418767D03*
X422704D03*
X426641D03*
X430578D03*
X434515D03*
X438452D03*
X347901Y278235D03*
X351838D03*
X355775D03*
X359712D03*
X363649D03*
X367586D03*
X371523D03*
X375460D03*
X379397D03*
X383334D03*
X387271D03*
X391208D03*
X395145D03*
X399082D03*
X403019D03*
X406956D03*
X410893D03*
X414830D03*
X418767D03*
X422704D03*
X426641D03*
X430578D03*
X434515D03*
X438452D03*
X343964Y274298D03*
X347901D03*
X351838D03*
X355775D03*
X359712D03*
X363649D03*
X367586D03*
X371523D03*
X375460D03*
X379397D03*
X383334D03*
X387271D03*
X391208D03*
X395145D03*
X399082D03*
X403019D03*
X406956D03*
X410893D03*
X414830D03*
X418767D03*
X422704D03*
X426641D03*
X430578D03*
X434515D03*
X438452D03*
X343964Y270361D03*
X347901D03*
X351838D03*
X355775D03*
X359712D03*
X363649D03*
X367586D03*
X371523D03*
X375460D03*
X379397D03*
X383334D03*
X387271D03*
X391208D03*
X395145D03*
X399082D03*
X403019D03*
X406956D03*
X410893D03*
X414830D03*
X418767D03*
X422704D03*
X426641D03*
X430578D03*
X434515D03*
X438452D03*
X343964Y266424D03*
X347901D03*
X351838D03*
X355775D03*
X359712D03*
X363649D03*
X367586D03*
X371523D03*
X375460D03*
X379397D03*
X383334D03*
X387271D03*
X391208D03*
X395145D03*
X399082D03*
X403019D03*
X406956D03*
X410893D03*
X414830D03*
X418767D03*
X422704D03*
X426641D03*
X430578D03*
X434515D03*
X438452D03*
X343964Y262487D03*
X347901D03*
X351838D03*
X355775D03*
X359712D03*
X363649D03*
X367586D03*
X371523D03*
X375460D03*
X379397D03*
X383334D03*
X387271D03*
X391208D03*
X395145D03*
X399082D03*
X403019D03*
X406956D03*
X410893D03*
X414830D03*
X418767D03*
X422704D03*
X426641D03*
X430578D03*
X434515D03*
X438452D03*
X343964Y258550D03*
X347901D03*
X351838D03*
X355775D03*
X359712D03*
X363649D03*
X371523D03*
X379397D03*
X383334D03*
X391208D03*
X395145D03*
X403019D03*
X406956D03*
X414830D03*
X422704D03*
X426641D03*
X430578D03*
X434515D03*
X438452D03*
X343964Y254613D03*
X347901D03*
X351838D03*
X355775D03*
X359712D03*
X426641D03*
X430578D03*
X434515D03*
X438452D03*
X343964Y250676D03*
X347901D03*
X351838D03*
X355775D03*
X359712D03*
X363649D03*
X422704D03*
X426641D03*
X430578D03*
X434515D03*
X438452D03*
X343964Y246739D03*
X347901D03*
X351838D03*
X355775D03*
X359712D03*
X426641D03*
X430578D03*
X434515D03*
X438452D03*
X343964Y242801D03*
X347901D03*
X351838D03*
X355775D03*
X359712D03*
X363649D03*
X379397D03*
X383334D03*
X387271D03*
X391208D03*
X395145D03*
X399082D03*
X403019D03*
X406956D03*
X422704D03*
X426641D03*
X430578D03*
X434515D03*
X438452D03*
X343964Y238864D03*
X347901D03*
X351838D03*
X355775D03*
X359712D03*
X363649D03*
X379397D03*
X383334D03*
X387271D03*
X391208D03*
X395145D03*
X399082D03*
X403019D03*
X406956D03*
X422704D03*
X426641D03*
X430578D03*
X434515D03*
X438452D03*
X343964Y234928D03*
X347901D03*
X351838D03*
X355775D03*
X359712D03*
X379397D03*
X383334D03*
X387271D03*
X391208D03*
X395145D03*
X399082D03*
X403019D03*
X406956D03*
X426641D03*
X430578D03*
X434515D03*
X438452D03*
X343964Y230990D03*
X347901D03*
X351838D03*
X355775D03*
X359712D03*
X363649D03*
X379397D03*
X383334D03*
X387271D03*
X391208D03*
X395145D03*
X399082D03*
X403019D03*
X406956D03*
X422704D03*
X426641D03*
X430578D03*
X434515D03*
X438452D03*
X343964Y227053D03*
X347901D03*
X351838D03*
X355775D03*
X359712D03*
X363649D03*
X379397D03*
X383334D03*
X387271D03*
X391208D03*
X395145D03*
X399082D03*
X403019D03*
X406956D03*
X422704D03*
X426641D03*
X430578D03*
X434515D03*
X438452D03*
X343964Y223116D03*
X347901D03*
X351838D03*
X355775D03*
X359712D03*
X379397D03*
X383334D03*
X387271D03*
X391208D03*
X395145D03*
X399082D03*
X403019D03*
X406956D03*
X426641D03*
X430578D03*
X434515D03*
X438452D03*
X343964Y219180D03*
X347901D03*
X351838D03*
X355775D03*
X359712D03*
X363649D03*
X379397D03*
X383334D03*
X387271D03*
X391208D03*
X395145D03*
X399082D03*
X403019D03*
X406956D03*
X422704D03*
X426641D03*
X430578D03*
X434515D03*
X438452D03*
X343964Y215242D03*
X347901D03*
X351838D03*
X355775D03*
X359712D03*
X363649D03*
X379397D03*
X383334D03*
X387271D03*
X391208D03*
X395145D03*
X399082D03*
X403019D03*
X406956D03*
X422704D03*
X426641D03*
X430578D03*
X434515D03*
X438452D03*
X343964Y211305D03*
X347901D03*
X351838D03*
X355775D03*
X359712D03*
X426641D03*
X430578D03*
X434515D03*
X438452D03*
X343964Y207368D03*
X347901D03*
X351838D03*
X355775D03*
X359712D03*
X363649D03*
X422704D03*
X426641D03*
X430578D03*
X434515D03*
X438452D03*
X343964Y203431D03*
X347901D03*
X351838D03*
X355775D03*
X359712D03*
X426641D03*
X430578D03*
X434515D03*
X438452D03*
X442389Y199494D03*
Y195557D03*
Y191620D03*
Y187683D03*
Y183746D03*
Y274298D03*
Y270361D03*
Y266424D03*
Y262487D03*
Y258550D03*
Y254613D03*
Y250676D03*
Y246739D03*
Y242801D03*
Y238864D03*
Y234928D03*
Y230990D03*
Y227053D03*
Y223116D03*
Y219180D03*
Y215242D03*
Y211305D03*
Y207368D03*
Y203431D03*
G54D19*
X175132Y111306D03*
X178872D03*
X182612D03*
Y122330D03*
X178872D03*
X174935D03*
G54D28*
X314131Y79539D03*
Y97539D03*
Y88539D03*
G54D46*
X560000Y75000D03*
Y120000D03*
G54D56*
G01X0Y374016D02*
X590551D01*
Y-137795D01*
X535433D01*
Y-49100D01*
X354324D01*
Y0D01*
X0D01*
Y374016D01*
G54D47*
X513520Y18170D03*
X559980D03*
G54D38*
X377826Y113071D03*
Y111102D03*
Y109134D03*
Y107165D03*
Y105197D03*
Y103228D03*
Y101260D03*
Y99291D03*
Y97323D03*
Y95354D03*
Y93386D03*
Y91417D03*
X413258D03*
Y93386D03*
Y95354D03*
Y97323D03*
Y99291D03*
Y101260D03*
Y103228D03*
Y105197D03*
Y107165D03*
Y109134D03*
Y111102D03*
Y113071D03*
G54D29*
X291199Y33033D03*
G54D48*
X549937Y149904D03*
Y146636D03*
Y143368D03*
Y140100D03*
X542063D03*
Y143368D03*
Y146636D03*
Y149904D03*
G54D39*
X384715Y84528D03*
X386684D03*
X388652D03*
X390621D03*
X392589D03*
X394558D03*
X396526D03*
X398495D03*
X400463D03*
X402432D03*
X404400D03*
X406369D03*
Y119960D03*
X404400D03*
X402432D03*
X400463D03*
X398495D03*
X396526D03*
X394558D03*
X392589D03*
X390621D03*
X388652D03*
X384715D03*
X386684D03*
G54D49*
X502718Y149698D03*
Y144698D03*
X514919Y149698D03*
Y144698D03*
X510879D03*
Y149698D03*
X506839Y144698D03*
Y149698D03*
M02*
