G04 ================== begin FILE IDENTIFICATION RECORD ==================*
G04 Layout Name:  D:/project/IRISking/ikemb-0001/project/hardware/POWER/POWER12-v8.brd*
G04 Film Name:    Bottom*
G04 File Format:  Gerber RS274X*
G04 File Origin:  15.7-p007*
G04 Origin Date:  Tue Aug 03 14:38:55 2010*
G04 *
G04 Layer:  VIA CLASS/BOTTOM*
G04 Layer:  PIN/BOTTOM*
G04 Layer:  ETCH/BOTTOM*
G04 Layer:  BOARD GEOMETRY/OUTLINE*
G04 *
G04 Offset:    (0.000 0.000)*
G04 Mirror:    No*
G04 Mode:      Positive*
G04 Rotation:  0*
G04 FullContactRelief:  No*
G04 UndefLineWidth:     8.000*
G04 ================== end FILE IDENTIFICATION RECORD ====================*
%FSLAX55Y55*MOIN*%
%IR0*IPPOS*OFA0.00000B0.00000*MIA0B0*SFA1.00000B1.00000*%
%ADD16R,.075X.2*%
%ADD28R,.2X.075*%
%ADD20C,.2*%
%ADD34C,.12*%
%ADD27R,.25X.3*%
%ADD15R,.03X.04*%
%ADD14R,.04X.03*%
%ADD10R,.15X.17*%
%ADD31R,.025X.02*%
%ADD18R,.17X.15*%
%ADD26R,.057X.03*%
%ADD24R,.062X.062*%
%ADD23R,.062X.062*%
%ADD19C,.03*%
%ADD13C,.04*%
%ADD12R,.04402X.032012*%
%ADD30C,.06*%
%ADD17C,.062*%
%ADD11C,.08*%
%ADD25C,.09*%
%ADD29R,.06X.06*%
%ADD21C,.04724*%
%ADD22C,.05984*%
%ADD32C,.022988*%
%ADD33C,.017988*%
%ADD35C,.1*%
%ADD36C,.15*%
%ADD37C,.02*%
%ADD38C,.012*%
%ADD39C,.015*%
%ADD40C,.008*%
%ADD42C,.136004*%
%ADD41C,.076004*%
%ADD46C,.078004*%
%ADD44C,.063244*%
%ADD43R,.078004X.078004*%
%ADD45C,.075844*%
G75*
%LPD*%
G75*
G36*
G01X54854Y-1342D02*
X54800Y-1284D01*
Y3160D01*
X50572Y7388D01*
X50602Y7500D01*
G03X45000Y14800I-5603J1501D01*
G01X38332D01*
X36605Y16527D01*
X36596Y16538D01*
X36102Y17100D01*
X-15598Y68800D01*
X-15748D01*
Y75070D01*
X-33090D01*
X-42040Y84020D01*
Y118286D01*
X-42006Y118337D01*
G03Y123663I-3994J2663D01*
G01X-42040Y123714D01*
Y125600D01*
X-26510Y141130D01*
X-15748D01*
Y370079D01*
X174921D01*
X180760Y364240D01*
Y-15748D01*
X97825D01*
Y-12749D01*
X91826Y-6750D01*
X85814D01*
X82554Y-10010D01*
X82300D01*
Y-13610D01*
X86400D01*
Y-11256D01*
X87306Y-10350D01*
X90334D01*
X94225Y-14241D01*
Y-19766D01*
G02X93607Y-20105I-402J0D01*
G03X93338Y-19962I-1047J-1645D01*
G01X93303Y-19947D01*
X91610Y-18254D01*
Y-16130D01*
X87510D01*
Y-19730D01*
X87994D01*
X90757Y-22493D01*
X90772Y-22528D01*
G03X93906Y-23161I1788J778D01*
G02X94225Y-23554I-83J-393D01*
G01Y-40399D01*
X90625Y-43999D01*
X87769D01*
Y-48801D01*
X93195D01*
X94690Y-50296D01*
Y-60634D01*
X92454Y-62870D01*
X90750D01*
Y-60320D01*
X82950D01*
Y-68120D01*
X90750D01*
Y-66470D01*
X93946D01*
X96494Y-63922D01*
G02X97180Y-64206I284J-284D01*
G01Y-86884D01*
G02X96494Y-87168I-402J0D01*
G01X91510Y-82184D01*
Y-81850D01*
X87410D01*
Y-85450D01*
X89684D01*
X94265Y-90031D01*
Y-91387D01*
G02X93582Y-91675I-402J0D01*
G03X92998Y-91282I-1362J-1395D01*
G01X92963Y-91267D01*
X91440Y-89744D01*
Y-88280D01*
X87340D01*
Y-89513D01*
G02X86654Y-89798I-402J0D01*
G01X86440Y-89584D01*
Y-88280D01*
X82340D01*
Y-91880D01*
X83644D01*
X85050Y-93286D01*
Y-96530D01*
X82950D01*
Y-101784D01*
X76920Y-107814D01*
Y-117926D01*
X80209Y-121215D01*
Y-124341D01*
X86211D01*
Y-119539D01*
X83625D01*
X80520Y-116434D01*
Y-109306D01*
X85496Y-104330D01*
X90750D01*
Y-96530D01*
X88650D01*
Y-93017D01*
G02X89337Y-92732I402J0D01*
G01X90417Y-93813D01*
X90432Y-93848D01*
G03X93582Y-94465I1788J778D01*
G02X94265Y-94753I281J-288D01*
G01Y-111669D01*
X91816Y-114118D01*
X91706Y-114252D01*
G03X91306Y-115225I1392J-1142D01*
G01X91305Y-115238D01*
G03X91302Y-115540I1792J-169D01*
G01X91302Y-115548D01*
G03X91315Y-115669I1795J133D01*
G01X91317Y-115683D01*
Y-115777D01*
X91290Y-115914D01*
Y-116139D01*
X88609D01*
Y-120941D01*
X94545D01*
X95080Y-121476D01*
Y-130514D01*
X91134Y-134460D01*
X90750D01*
Y-132460D01*
X82950D01*
Y-140260D01*
X90750D01*
Y-138060D01*
X92626D01*
X96494Y-134192D01*
G02X97180Y-134476I284J-284D01*
G01Y-161390D01*
X-15710D01*
X-15740Y-161360D01*
Y-15748D01*
X-15748D01*
Y51575D01*
G02X-15062Y51859I402J0D01*
G01X27633Y9164D01*
X27869Y8858D01*
X33526Y3200D01*
X45000D01*
G03X46500Y3398I0J5800D01*
G01X46612Y3428D01*
X49200Y840D01*
Y-1284D01*
X49146Y-1342D01*
G03X54854I2854J-2658D01*
G37*
G36*
G01X97180Y-46724D02*
G02X96494Y-47008I-402J0D01*
G01X94601Y-45115D01*
X96494Y-43222D01*
G02X97180Y-43506I284J-284D01*
G01Y-46724D01*
G37*
%LPC*%
G75*
G36*
G01X43370Y348693D02*
X35370D01*
X30870Y353193D01*
Y360193D01*
X35870Y365193D01*
X42870D01*
X47870Y360193D01*
Y353193D01*
X43370Y348693D01*
G37*
G36*
G01X172717Y344193D02*
X162716D01*
X155216Y351693D01*
Y361693D01*
X162716Y369193D01*
X172717D01*
X180217Y361693D01*
Y351693D01*
X172717Y344193D01*
G37*
G36*
G01X31800Y302950D02*
X10200D01*
Y304700D01*
X9340D01*
X7020Y307020D01*
G02X9698Y311712I1980J1980D01*
G03X10196Y312050I100J389D01*
G01X31800D01*
Y310300D01*
X32500D01*
G02Y304700I0J-2800D01*
G01X31800D01*
Y302950D01*
G37*
G36*
G01X49287Y299449D02*
G02X45890Y296048I-682J-2716D01*
G01X45851Y296200D01*
X41700D01*
Y307800D01*
X45313D01*
X45360Y307934D01*
G02X48556Y304256I2640J-934D01*
G01X48496Y304244D01*
X46953Y302700D01*
X46300D01*
Y301300D01*
X47395D01*
X49233Y299462D01*
X49287Y299449D01*
G37*
G36*
G01X159747Y286064D02*
G02X156011Y285303I-2747J3936D01*
G01X147785Y287035D01*
G03X147300Y286641I-83J-393D01*
G01Y285700D01*
X128700D01*
Y302300D01*
X147300D01*
Y296948D01*
X157989Y294697D01*
G02X159747Y293936I-989J-4697D01*
G01X159799Y293900D01*
X160900D01*
Y292799D01*
X160936Y292747D01*
G02Y287253I-3936J-2747D01*
G01X160900Y287201D01*
Y286100D01*
X159799D01*
X159747Y286064D01*
G37*
G36*
G01X47452Y288334D02*
G02Y283666I1548J-2334D01*
G01X47402Y283700D01*
X41200D01*
Y288300D01*
X47402D01*
X47452Y288334D01*
G37*
G36*
G01Y278334D02*
G02Y273666I1548J-2334D01*
G01X47402Y273700D01*
X44047D01*
X43047Y274700D01*
X41200D01*
Y279300D01*
X46800D01*
Y278300D01*
X47402D01*
X47452Y278334D01*
G37*
G36*
G01X88300Y256700D02*
X71700D01*
Y262200D01*
X66200D01*
Y297200D01*
X58668D01*
X57200Y298668D01*
Y300800D01*
X55100D01*
Y308400D01*
X57200D01*
Y319800D01*
X83800D01*
Y307332D01*
X90800Y300332D01*
Y262200D01*
X88300D01*
Y256700D01*
G37*
G36*
G01X147300Y255700D02*
X128700D01*
Y272300D01*
X147300D01*
Y271100D01*
X157618Y269760D01*
G02X159747Y268936I-618J-4760D01*
G01X159799Y268900D01*
X160900D01*
Y267799D01*
X160936Y267747D01*
G02Y262253I-3936J-2747D01*
G01X160900Y262201D01*
Y261100D01*
X159799D01*
X159747Y261064D01*
G02X156382Y260240I-2747J3936D01*
G01X147754Y261360D01*
G03X147300Y260962I-52J-399D01*
G01Y255700D01*
G37*
G36*
G01X154953Y201700D02*
X145200D01*
Y206300D01*
X153047D01*
X154770Y208023D01*
X154757Y208121D01*
G02X154742Y209753I6743J880D01*
G03X154342Y210200I-399J45D01*
G01X143700D01*
Y217800D01*
X158074D01*
X160199Y215675D01*
X160302Y215694D01*
G02X157222Y203714I1198J-6694D01*
G01X157081Y203828D01*
X154953Y201700D01*
G37*
G36*
G01X158727Y195209D02*
G02X155291Y191773I2773J-6209D01*
G01X155347Y191900D01*
X151547Y195700D01*
X145200D01*
Y200300D01*
X153453D01*
X158600Y195153D01*
X158727Y195209D01*
G37*
G36*
G01X89300Y176700D02*
X70700D01*
Y193300D01*
X71527D01*
G03X71811Y193986I0J402D01*
G01X66200Y199598D01*
Y204400D01*
G02X77800Y204484I5800J0D01*
G01X77801Y204402D01*
X85800Y196402D01*
Y193300D01*
X89300D01*
Y176700D01*
G37*
G36*
G01X141300Y175700D02*
X122700D01*
Y192300D01*
X127400D01*
Y195490D01*
X127393Y195515D01*
G02X137101Y201101I5607J1485D01*
G01X139000Y199203D01*
Y192300D01*
X141300D01*
Y175700D01*
G37*
G36*
G01X115200Y147100D02*
X103600D01*
Y151867D01*
X103560Y151920D01*
G02X107462Y152280I1840J1380D01*
G03X107822Y151700I360J-178D01*
G01X108287D01*
G03X108632Y152310I0J402D01*
G02X112900Y153478I1969J1190D01*
G01X112899Y153393D01*
X113950Y152342D01*
Y151700D01*
X115200D01*
Y147100D01*
G37*
G36*
G01X42744Y130444D02*
G02X39444Y133744I-2744J556D01*
G01X39504Y133756D01*
X41700Y135953D01*
Y153000D01*
G02X46300I2300J0D01*
G01Y149892D01*
X47014Y149179D01*
G03X47700Y149463I284J284D01*
G01Y153000D01*
G02X51725Y154522I2300J0D01*
G03X52394Y154626I301J266D01*
G02X56698Y153021I2106J-926D01*
G03X57082Y152500I384J-119D01*
G01X58018D01*
G03X58402Y153021I0J402D01*
G02X62900Y153678I2198J679D01*
G01X62899Y153593D01*
X63850Y152642D01*
Y152500D01*
X65100D01*
Y147900D01*
X53500D01*
Y150808D01*
X52950Y151358D01*
Y151999D01*
X52890Y152058D01*
G02X52662Y152317I1610J1643D01*
G01X52602Y152397D01*
X52300D01*
Y135953D01*
X54496Y133756D01*
X54556Y133744D01*
G02X51256Y130444I-556J-2744D01*
G01X51244Y130504D01*
X47700Y134047D01*
Y144108D01*
X46986Y144821D01*
G03X46300Y144537I-284J-284D01*
G01Y134047D01*
X42756Y130504D01*
X42744Y130444D01*
G37*
G36*
G01X9300Y112700D02*
X-9300D01*
Y129300D01*
X-2800D01*
Y144100D01*
X-3900D01*
Y151900D01*
X3900D01*
Y144100D01*
X2800D01*
Y129300D01*
X9300D01*
Y112700D01*
G37*
G36*
G01X113194Y115306D02*
G02X110987Y107843I-1351J-3659D01*
G01X110965Y107847D01*
X109878D01*
X98526Y119200D01*
X98426D01*
X91426Y126200D01*
X90000D01*
G02Y133800I0J3800D01*
G01X90547D01*
X91700Y134953D01*
Y151800D01*
X92418D01*
G03X92802Y152321I0J402D01*
G02X97128Y153873I2198J679D01*
G03X97872I372J153D01*
G02X102109Y152082I2128J-873D01*
G01X102092Y152043D01*
Y151800D01*
X102300D01*
Y137953D01*
X103866Y136387D01*
X103962Y136398D01*
G02X102726Y131281I311J-2783D01*
G01X102675Y131314D01*
X102433D01*
X97700Y136047D01*
Y143108D01*
X96986Y143821D01*
G03X96300Y143537I-284J-284D01*
G01Y133047D01*
X95814Y132561D01*
X101574Y126800D01*
X101674D01*
X113152Y115322D01*
X113194Y115306D01*
G37*
G36*
G01X2800Y75000D02*
G02X-2800I-2800J0D01*
G01Y82700D01*
X-9300D01*
Y99300D01*
X9300D01*
Y82700D01*
X2800D01*
Y75000D01*
G37*
G36*
G01X141900Y-7900D02*
X134100D01*
Y-60D01*
X132840Y1200D01*
X125300D01*
Y-5300D01*
X108700D01*
Y13300D01*
X125300D01*
Y6800D01*
X135160D01*
X135500Y6460D01*
X140020Y10980D01*
G02X143980Y7020I1980J-1980D01*
G01X140800Y3840D01*
Y-100D01*
X141900D01*
Y-7900D01*
G37*
G36*
G01X171717Y-8000D02*
X163716D01*
X159216Y-3500D01*
Y3500D01*
X164216Y8500D01*
X171217D01*
X176217Y3500D01*
Y-3500D01*
X171717Y-8000D01*
G37*
G36*
G01X5000Y-12500D02*
X-5000D01*
X-12500Y-5000D01*
Y5000D01*
X-5000Y12500D01*
X5000D01*
X12500Y5000D01*
Y-5000D01*
X5000Y-12500D01*
G37*
G36*
G01X65900Y-31900D02*
X58100D01*
Y-27353D01*
X58047Y-27300D01*
X54300D01*
Y-27800D01*
X49700D01*
Y-22200D01*
X54300D01*
Y-22700D01*
X59953D01*
X61353Y-24100D01*
X65900D01*
Y-31900D01*
G37*
G36*
G01X16800Y-98300D02*
X5200D01*
Y-95453D01*
X3374Y-93626D01*
G02X6626Y-90374I1627J1626D01*
G01X9953Y-93700D01*
X11700D01*
Y-91000D01*
G02X16300I2300J0D01*
G01Y-93700D01*
X16800D01*
Y-98300D01*
G37*
G36*
G01X44300Y-98800D02*
X39700D01*
Y-88000D01*
G02X44300I2300J0D01*
G01Y-98800D01*
G37*
G36*
G01X63800Y-127000D02*
G02X58200I-2800J0D01*
G01Y-123300D01*
X51700D01*
Y-117800D01*
X46160D01*
X44980Y-118980D01*
G02X41452Y-119334I-1980J1980D01*
G01X41402Y-119300D01*
X35047D01*
X25700Y-109953D01*
Y-93524D01*
G03X25014Y-93239I-402J0D01*
G01X23300Y-94953D01*
Y-98800D01*
X18700D01*
Y-93047D01*
X24047Y-87700D01*
X27000Y-87700D01*
G02X29128Y-89127I0J-2300D01*
G03X29872I372J153D01*
G02X33626Y-88374I2128J-873D01*
G01X37300Y-92047D01*
Y-98800D01*
X32700D01*
Y-98300D01*
X30300D01*
Y-108047D01*
X36953Y-114700D01*
X41340D01*
X43840Y-112200D01*
X51700D01*
Y-106700D01*
X58200D01*
Y-100300D01*
X51700D01*
Y-83700D01*
X70300D01*
Y-100300D01*
X63800D01*
Y-106700D01*
X70300D01*
Y-123300D01*
X63800D01*
Y-127000D01*
G37*
G36*
G01X300Y-148500D02*
G02X-5300I-2800J0D01*
G01Y-142800D01*
X-7050D01*
Y-121200D01*
X2050D01*
Y-142800D01*
X300D01*
Y-148500D01*
G37*
G36*
G01X85371Y-52201D02*
X79369D01*
Y-49055D01*
X76920Y-46606D01*
Y-36234D01*
X82950Y-30204D01*
Y-27496D01*
X82760Y-27306D01*
Y-19730D01*
X82510D01*
Y-16130D01*
X86610D01*
Y-19730D01*
X86360D01*
Y-24950D01*
X90750D01*
Y-32750D01*
X85496D01*
X80520Y-37726D01*
Y-45114D01*
X82805Y-47399D01*
X85371D01*
Y-52201D01*
G37*
G54D42*
X147000Y331500D03*
Y314500D03*
X161500Y229000D03*
G54D41*
X49300Y333200D03*
X5900Y333000D03*
G54D46*
X86850Y-38850D03*
Y-110430D03*
G54D44*
X103480Y38830D03*
X57020D03*
G54D43*
X170000Y96000D03*
X42000Y-4000D03*
G54D45*
X99940Y25170D03*
X60560D03*
%LPD*%
G75*
G36*
G01X30300Y-93700D02*
Y-93200D01*
X26024D01*
G02X25739Y-92514I0J402D01*
G01X25953Y-92300D01*
X27000Y-92300D01*
G03X29128Y-90873I0J2300D01*
G02X29872I372J-153D01*
G03X30374Y-91626I2128J873D01*
G01X31761Y-93014D01*
G02X31476Y-93700I-284J-284D01*
G01X30300D01*
G37*
G36*
G01X90000Y300000D02*
Y263000D01*
X67000D01*
Y298000D01*
X59000D01*
X58000Y299000D01*
Y319000D01*
X83000D01*
Y307000D01*
X90000Y300000D01*
G37*
G54D10*
X-76000Y63000D03*
X-46000D03*
X-61000Y101000D03*
X87000Y4000D03*
X-31000Y101000D03*
X80000Y266000D03*
Y290000D03*
X117000Y4000D03*
X110000Y266000D03*
Y290000D03*
G54D11*
G01X157000D02*
X138000Y294000D01*
G01X157000Y265000D02*
X141600Y267000D01*
X138600Y264000D01*
X138000D01*
X-76000Y41000D03*
X-46000Y121000D03*
X4000Y41000D03*
X-26000Y121000D03*
G54D20*
X0Y0D03*
X167716Y356693D03*
G54D21*
X57020Y38830D03*
X103480D03*
G54D30*
G01X-46000Y121000D02*
X-61000Y106000D01*
Y101000D01*
G01X76500Y293500D02*
X80000Y290000D01*
G01X90000Y130000D02*
X93000D01*
X100000Y123000D01*
X100100D01*
X111452Y111648D01*
X111843D01*
G01X147500Y214000D02*
X156500D01*
X161500Y209000D01*
G01X169000Y314500D02*
Y314000D01*
X49300Y333200D03*
Y363200D03*
X5900Y333000D03*
Y363000D03*
G54D12*
X82370Y-49800D03*
X90770Y-46400D03*
Y-53400D03*
X91610Y-118540D03*
Y-125540D03*
X83210Y-121940D03*
G54D40*
G01X-19685Y374016D02*
Y145000D01*
X-90000D01*
Y20000D01*
X-19685D01*
Y-164685D01*
X-20000Y-165000D01*
X76000D01*
G01X78000D02*
X100720D01*
X100730Y-164990D01*
Y-19590D01*
X100660Y-19520D01*
X184874D01*
X185039Y-19685D01*
Y374016D01*
X-19685D01*
G01X78000Y-165000D02*
X76000D01*
G54D22*
X80250Y38830D03*
X60560Y25170D03*
X99940D03*
G54D13*
G01X-2500Y-132000D02*
Y-148500D01*
G01X61000Y-115000D02*
Y-92000D01*
G01Y-115000D02*
X45000D01*
X43000Y-117000D01*
G01X61000Y-115000D02*
Y-127000D01*
G01X22500Y-132000D02*
Y-148500D01*
G01X68000Y-47000D02*
X61000Y-54000D01*
G01D02*
Y-62000D01*
G01X52000Y-4000D02*
Y2000D01*
X45000Y9000D01*
G01X0Y91000D02*
Y75000D01*
G01Y121000D02*
Y148000D01*
G01X21000Y307500D02*
X10500D01*
X9000Y309000D01*
G01X21000Y307500D02*
X32500D01*
G01X117000Y4000D02*
X134000D01*
X138000Y0D01*
G01D02*
Y5000D01*
X142000Y9000D01*
G01X138000Y-4000D02*
Y0D01*
X68000Y-47000D03*
X-2500Y-148500D03*
X22500D03*
X43000Y-117000D03*
X61000Y-127000D03*
X9000Y-55000D03*
X16000D03*
X23000D03*
X30000D03*
X38000D03*
Y-46000D03*
X30000D03*
X16000D03*
X9000D03*
Y-38000D03*
X16000D03*
X23000D03*
X30000D03*
X38000D03*
X22000Y-75490D03*
X23090Y-45790D03*
X0Y75000D03*
X38000Y-30000D03*
X30000D03*
X23000D03*
X16000D03*
X9000D03*
X29000Y158000D03*
X40000Y131000D03*
X54000D03*
X43000Y166000D03*
X74000Y244000D03*
X65000Y315000D03*
Y310000D03*
Y300000D03*
Y305000D03*
X9000Y309000D03*
X32500Y307500D03*
X49000Y276000D03*
Y286000D03*
X48000Y307000D03*
X48605Y296733D03*
X0Y221720D03*
X23000Y221620D03*
X120700Y187000D03*
X136000Y168000D03*
X90000Y130000D03*
X94000Y166000D03*
X104273Y133615D03*
X96000Y295000D03*
Y281000D03*
Y274000D03*
X110000Y278000D03*
X96000Y302000D03*
X101000Y307000D03*
X108000D03*
X115000D03*
Y313000D03*
X108000D03*
X101000D03*
X95800Y288050D03*
G54D31*
X89460Y-83650D03*
X84460D03*
X84390Y-90080D03*
X89390D03*
X84560Y-17930D03*
X89560D03*
X89350Y-11810D03*
X84350D03*
G54D32*
X92220Y-93070D03*
X92560Y-21750D03*
G54D23*
X62000Y-28000D03*
X0Y148000D03*
X86850Y-136360D03*
Y-100430D03*
Y-64220D03*
Y-28850D03*
G54D14*
X8000Y-96000D03*
X14000D03*
X56300Y150200D03*
X62300D03*
X38000Y277000D03*
X44000D03*
X38000Y286000D03*
X44000D03*
X148000Y198000D03*
X142000D03*
X112400Y149400D03*
X106400D03*
X148000Y204000D03*
X142000D03*
G54D33*
Y9000D03*
G54D24*
X42000Y-4000D03*
X138000D03*
X170000Y96000D03*
X157000Y290000D03*
Y265000D03*
G54D15*
X21000Y-96000D03*
Y-102000D03*
X28000D03*
Y-96000D03*
X35000D03*
Y-102000D03*
X42000Y-96000D03*
Y-102000D03*
X52000Y-31000D03*
Y-25000D03*
X44000Y150000D03*
Y144000D03*
X50000Y150000D03*
Y144000D03*
X44000Y299000D03*
Y305000D03*
X100000Y149000D03*
Y143000D03*
X94000Y149000D03*
Y143000D03*
G54D25*
X54430Y171672D03*
X39370Y356693D03*
X167716Y0D03*
X105590Y171832D03*
G54D34*
X161500Y169000D03*
Y189000D03*
Y209000D03*
Y229000D03*
X169000Y314500D03*
X147000D03*
X169000Y331500D03*
X147000D03*
G54D16*
X22500Y-132000D03*
X-2500D03*
G54D35*
G01X-46000Y63000D02*
X-18000D01*
X4000Y41000D01*
G01X-76000Y63000D02*
Y41000D01*
G01X45000Y9000D02*
X35929D01*
X32237Y12692D01*
X32114Y12852D01*
X31869Y13131D01*
X4000Y41000D01*
G01X72000Y204400D02*
Y202000D01*
X80000Y194000D01*
Y185000D01*
G01X132000Y184000D02*
X133200Y185200D01*
Y196800D01*
X133000Y197000D01*
G54D17*
X62000Y-38000D03*
X39000Y78000D03*
X52000Y-4000D03*
X0Y158000D03*
X39000Y105000D03*
X72000Y204400D03*
X86850Y-146360D03*
Y-110430D03*
Y-74220D03*
Y-38850D03*
X91000Y78000D03*
X148000Y-4000D03*
X91000Y104000D03*
X133000Y197000D03*
X111843Y111648D03*
X160000Y96000D03*
X132000Y224000D03*
X167000Y290000D03*
Y265000D03*
G54D26*
X74000Y214500D03*
G54D36*
G01X80000Y266000D02*
Y290000D01*
G54D18*
X61000Y-92000D03*
Y-62000D03*
Y-115000D03*
Y-145000D03*
X0Y121000D03*
Y91000D03*
X80000Y155000D03*
Y185000D03*
X132000Y154000D03*
Y184000D03*
X138000Y264000D03*
Y294000D03*
G54D27*
X92000Y231500D03*
X56000D03*
G54D37*
G01X86850Y-100430D02*
X78720Y-108560D01*
Y-117180D01*
X83210Y-121670D01*
Y-121940D01*
G01X86850Y-28850D02*
X78720Y-36980D01*
Y-45860D01*
X82370Y-49510D01*
Y-49800D01*
G01X90770Y-46400D02*
X93340D01*
X96490Y-49550D01*
Y-61380D01*
X93200Y-64670D01*
X87300D01*
X86850Y-64220D01*
G01X91610Y-118540D02*
X94690D01*
X96880Y-120730D01*
Y-131260D01*
X91880Y-136260D01*
X86950D01*
X86850Y-136360D01*
G01Y-100430D02*
Y-92540D01*
X84390Y-90080D01*
G01X91610Y-118540D02*
X93090Y-117060D01*
Y-116092D01*
X93117Y-115954D01*
Y-115510D01*
X93098Y-115415D01*
X93097Y-115407D01*
X93098Y-115394D01*
X93152Y-115329D01*
X96065Y-112415D01*
Y-89285D01*
X90430Y-83650D01*
X89460D01*
G01X90770Y-46400D02*
X96025Y-41145D01*
Y-13495D01*
X91080Y-8550D01*
X86560D01*
X84350Y-10760D01*
Y-11810D01*
G01X89390Y-90080D02*
Y-90240D01*
X92220Y-93070D01*
G01X89660Y-17930D02*
X89560D01*
G01X84560D02*
Y-26560D01*
X86850Y-28850D01*
G01X89560Y-17930D02*
Y-18750D01*
X92560Y-21750D01*
G54D19*
G01X14000Y-91000D02*
Y-96000D01*
G01X8000D02*
Y-95000D01*
X5000Y-92000D01*
G01X42000Y-96000D02*
Y-88000D01*
G01X35000Y-96000D02*
X28000D01*
G01X35000D02*
Y-93000D01*
X32000Y-90000D01*
G01X27000D02*
X25000Y-90000D01*
X21000Y-94000D01*
Y-96000D01*
G01X43000Y-117000D02*
X36000D01*
X28000Y-109000D01*
Y-102000D01*
G01X52000Y-25000D02*
X59000D01*
X62000Y-28000D01*
G01X44000Y144000D02*
Y135000D01*
X40000Y131000D01*
G01X50000Y144000D02*
Y135000D01*
X54000Y131000D01*
G01X49000Y276000D02*
X45000D01*
X44000Y277000D01*
G01X49000Y286000D02*
X44000D01*
G01Y305000D02*
X46000D01*
X48000Y307000D01*
G01X48605Y296733D02*
Y296838D01*
X46442Y299000D01*
X44000D01*
G01X148000Y198000D02*
X152500D01*
X161500Y189000D01*
G01X100000Y143000D02*
Y137000D01*
X103385Y133615D01*
X104273D01*
G01X94000Y143000D02*
Y134000D01*
X90000Y130000D01*
G01X148000Y204000D02*
X154000D01*
X159000Y209000D01*
X161500D01*
X14000Y-91000D03*
X5000Y-92000D03*
X42000Y-88000D03*
X32000Y-90000D03*
X27000D03*
X34000Y198000D03*
X65000Y178000D03*
X50000Y153000D03*
X44000D03*
X54500Y153700D03*
X60600D03*
X46000Y204000D03*
X40000D03*
X63490Y291000D03*
X173960Y38620D03*
X90800Y187000D03*
X116000Y178000D03*
X100000Y153000D03*
X95000D03*
X105400Y153300D03*
X110600Y153500D03*
X97000Y205000D03*
X91000D03*
X116000Y212000D03*
X113000Y205000D03*
G54D28*
X21000Y282500D03*
Y307500D03*
G54D38*
G01X44000Y153000D02*
Y150000D01*
G01X50000Y153000D02*
Y150000D01*
G01X100000Y153000D02*
Y149000D01*
G01X94000D02*
X95000Y150000D01*
Y153000D01*
G54D29*
X58900Y304600D03*
Y291600D03*
X134500Y214000D03*
X147500D03*
G54D39*
G01X50000Y144000D02*
X44000Y150000D01*
G01X54500Y153700D02*
Y152000D01*
X56300Y150200D01*
G01X62300D02*
Y152000D01*
X60600Y153700D01*
G01X100000Y143000D02*
X94000Y149000D01*
G01X105400Y153300D02*
Y150400D01*
X106400Y149400D01*
G01X112400D02*
Y151700D01*
X110600Y153500D01*
M02*
