G04 ================== begin FILE IDENTIFICATION RECORD ==================*
G04 Layout Name:  D:/project/IRISking/ikemb-0001/project/hardware/POWER/POWER12-v8.brd*
G04 Film Name:    Solder_Bottom*
G04 File Format:  Gerber RS274X*
G04 File Origin:  15.7-p007*
G04 Origin Date:  Tue Aug 03 14:38:55 2010*
G04 *
G04 Layer:  PIN/SOLDERMASK_BOTTOM*
G04 Layer:  BOARD GEOMETRY/OUTLINE*
G04 *
G04 Offset:    (0.000 0.000)*
G04 Mirror:    No*
G04 Mode:      Positive*
G04 Rotation:  0*
G04 FullContactRelief:  No*
G04 UndefLineWidth:     8.000*
G04 ================== end FILE IDENTIFICATION RECORD ====================*
%FSLAX55Y55*MOIN*%
%IR0*IPPOS*OFA0.00000B0.00000*MIA0B0*SFA1.00000B1.00000*%
%ADD18C,.21*%
%ADD29C,.128*%
%ADD23R,.27X.32*%
%ADD21R,.07X.07*%
%ADD20R,.07X.07*%
%ADD15R,.082988X.207988*%
%ADD28R,.033X.028*%
%ADD24R,.207988X.082988*%
%ADD22R,.067X.04*%
%ADD14R,.036X.046*%
%ADD13R,.046X.036*%
%ADD16C,.07*%
%ADD12R,.06402X.052012*%
%ADD10R,.158X.178*%
%ADD27C,.075*%
%ADD17R,.178X.158*%
%ADD11C,.088*%
%ADD26C,.098*%
%ADD25R,.066X.066*%
%ADD19C,.05984*%
%ADD30C,.008*%
G75*
%LPD*%
G75*
G54D10*
X-76000Y63000D03*
X-46000D03*
X-61000Y101000D03*
X87000Y4000D03*
X-31000Y101000D03*
X80000Y266000D03*
Y290000D03*
X117000Y4000D03*
X110000Y266000D03*
Y290000D03*
G54D11*
X-76000Y41000D03*
X-46000Y121000D03*
X4000Y41000D03*
X-26000Y121000D03*
G54D20*
X62000Y-28000D03*
X0Y148000D03*
X86850Y-136360D03*
Y-100430D03*
Y-64220D03*
Y-28850D03*
G54D30*
G01X-19685Y374016D02*
Y145000D01*
X-90000D01*
Y20000D01*
X-19685D01*
Y-164685D01*
X-20000Y-165000D01*
X76000D01*
G01X78000D02*
X100720D01*
X100730Y-164990D01*
Y-19590D01*
X100660Y-19520D01*
X184874D01*
X185039Y-19685D01*
Y374016D01*
X-19685D01*
G01X78000Y-165000D02*
X76000D01*
G54D12*
X82370Y-49800D03*
X90770Y-46400D03*
Y-53400D03*
X91610Y-118540D03*
Y-125540D03*
X83210Y-121940D03*
G54D21*
X42000Y-4000D03*
X138000D03*
X170000Y96000D03*
X157000Y290000D03*
Y265000D03*
G54D13*
X8000Y-96000D03*
X14000D03*
X56300Y150200D03*
X62300D03*
X38000Y277000D03*
X44000D03*
X38000Y286000D03*
X44000D03*
X148000Y198000D03*
X142000D03*
X112400Y149400D03*
X106400D03*
X148000Y204000D03*
X142000D03*
G54D22*
X74000Y214500D03*
G54D14*
X21000Y-96000D03*
Y-102000D03*
X28000D03*
Y-96000D03*
X35000D03*
Y-102000D03*
X42000Y-96000D03*
Y-102000D03*
X52000Y-31000D03*
Y-25000D03*
X44000Y150000D03*
Y144000D03*
X50000Y150000D03*
Y144000D03*
X44000Y299000D03*
Y305000D03*
X100000Y149000D03*
Y143000D03*
X94000Y149000D03*
Y143000D03*
G54D23*
X92000Y231500D03*
X56000D03*
G54D24*
X21000Y282500D03*
Y307500D03*
G54D15*
X22500Y-132000D03*
X-2500D03*
G54D25*
X58900Y304600D03*
Y291600D03*
X134500Y214000D03*
X147500D03*
G54D16*
X62000Y-38000D03*
X52000Y-4000D03*
X0Y158000D03*
X86850Y-146360D03*
Y-110430D03*
Y-74220D03*
Y-38850D03*
X148000Y-4000D03*
X160000Y96000D03*
X167000Y290000D03*
Y265000D03*
G54D26*
X39370Y356693D03*
X167716Y0D03*
G54D17*
X61000Y-92000D03*
Y-62000D03*
Y-115000D03*
Y-145000D03*
X0Y121000D03*
Y91000D03*
X80000Y155000D03*
Y185000D03*
X132000Y154000D03*
Y184000D03*
X138000Y264000D03*
Y294000D03*
G54D27*
X49300Y333200D03*
Y363200D03*
X5900Y333000D03*
Y363000D03*
G54D18*
X0Y0D03*
X167716Y356693D03*
G54D19*
X80250Y38830D03*
X60560Y25170D03*
X99940D03*
G54D28*
X89460Y-83650D03*
X84460D03*
X84390Y-90080D03*
X89390D03*
X84560Y-17930D03*
X89560D03*
X89350Y-11810D03*
X84350D03*
G54D29*
X161500Y169000D03*
Y189000D03*
Y209000D03*
Y229000D03*
X169000Y314500D03*
X147000D03*
X169000Y331500D03*
X147000D03*
M02*
