G04 ================== begin FILE IDENTIFICATION RECORD ==================*
G04 Layout Name:  D:/project/IRISking/IKEMB001/project/hardware/tvp5150/TVP5150_a.brd*
G04 Film Name:    LAYER3*
G04 File Format:  Gerber RS274X*
G04 File Origin:  15.7-p007*
G04 Origin Date:  Fri Nov 02 16:46:20 2007*
G04 *
G04 Layer:  VIA CLASS/POWER*
G04 Layer:  PIN/POWER*
G04 Layer:  ETCH/POWER*
G04 Layer:  BOARD GEOMETRY/OUTLINE*
G04 *
G04 Offset:    (0.000 0.000)*
G04 Mirror:    No*
G04 Mode:      Positive*
G04 Rotation:  0*
G04 FullContactRelief:  No*
G04 UndefLineWidth:     0.000*
G04 ================== end FILE IDENTIFICATION RECORD ====================*
%FSLAX55Y55*MOIN*%
%IR0*IPPOS*OFA0.00000B0.00000*MIA0B0*SFA1.00000B1.00000*%
%ADD11C,.2*%
%ADD10C,.04*%
%ADD14C,.05*%
%ADD12C,.062*%
%ADD15C,.055*%
%ADD13C,.022988*%
%ADD16C,.03*%
%ADD19C,.0522*%
%ADD20C,.0622*%
%ADD21C,.0742*%
%ADD18C,.0672*%
%ADD17C,.035188*%
G75*
%LPD*%
G75*
G36*
G01X191973Y6968D02*
Y40938D01*
X191937Y40974D01*
X164936D01*
X164844Y41066D01*
Y66745D01*
X173387D01*
X180634Y59498D01*
Y53512D01*
X185832Y48314D01*
X188242D01*
X188282Y48164D01*
G03X192278Y46677I2523J668D01*
G01X192416Y46771D01*
X198906Y40281D01*
X208043D01*
X212124Y44362D01*
Y53040D01*
X203618D01*
X198892Y57766D01*
Y59814D01*
X200624Y61546D01*
X230396D01*
X233704Y64854D01*
Y82535D01*
X233898Y82542D01*
G03Y86058I-56J1758D01*
G01X233704Y86065D01*
Y93208D01*
X248826Y108330D01*
Y108331D01*
X248669Y108488D01*
Y114316D01*
X249930Y115577D01*
X262592D01*
X266653Y111515D01*
X276656D01*
X276674Y111333D01*
G03X279068Y113134I1752J163D01*
G02X278931Y113793I147J374D01*
G01X280715Y115577D01*
X303895D01*
X305439Y114033D01*
Y111546D01*
X303762Y109869D01*
X303140D01*
Y110157D01*
X303204Y110217D01*
G03X300553Y110500I-1204J1283D01*
G02X300222Y109869I-331J-229D01*
G01X296776D01*
X291691Y104784D01*
Y104675D01*
X288890Y101874D01*
Y95500D01*
G03X293110I2110J0D01*
G01Y100126D01*
X293361Y100377D01*
X300821Y92916D01*
Y92510D01*
X300785Y92458D01*
G03X300693Y89629I2146J-1486D01*
G02X300468Y89038I-345J-207D01*
G03X302681Y87851I524J-1680D01*
G02X303049Y88365I386J112D01*
G03X305077Y92458I-118J2607D01*
G01X305041Y92510D01*
Y94664D01*
X303473Y96232D01*
G02X303589Y96882I284J284D01*
G03X301254Y99216I-737J1598D01*
G02X300605Y99100I-365J168D01*
G01X296290Y103416D01*
X298524Y105649D01*
X300877D01*
G02X301244Y105084I0J-402D01*
G03X304460I1608J-714D01*
G02X304827Y105649I367J163D01*
G01X305510D01*
X306727Y106866D01*
G02X307411Y106627I284J-284D01*
G03X313699Y105390I3339J373D01*
G01X313756Y105495D01*
X315015D01*
X315061Y105358D01*
G03X315977Y104325I1669J557D01*
G02X316164Y103783I-172J-363D01*
G03X318493Y104590I1576J-783D01*
G02X318306Y105132I172J363D01*
G03X318399Y105358I-1576J783D01*
G01X318445Y105495D01*
X324390D01*
Y104919D01*
X324196Y104913D01*
G03X323530Y101553I63J-1758D01*
G02X323648Y100903I-167J-366D01*
G01X321354Y98610D01*
X318307D01*
G03Y94390I0J-2110D01*
G01X323102D01*
X328754Y100041D01*
G02X329439Y99778I284J-284D01*
G03X332422Y98610I1757J94D01*
G02X333092Y98418I280J-288D01*
G03X333574Y100103I1708J423D01*
G02X332904Y100295I-280J288D01*
G03X330247Y101353I-1708J-423D01*
G02X329628Y101692I-217J338D01*
G01Y102004D01*
G02X330175Y102379I402J0D01*
G03X332337Y104894I634J1641D01*
G02X332686Y105495I349J200D01*
G01X335608D01*
G02X335957Y104894I0J-402D01*
G03X339011I1527J-873D01*
G02X339360Y105495I349J200D01*
G01X343276D01*
X345166Y103605D01*
X352534D01*
G02X352936Y103193I0J-402D01*
G03X354158Y101474I1759J-44D01*
G02X354412Y100953I-123J-383D01*
G03X355221Y98804I1652J-604D01*
G01X355326Y98747D01*
Y98092D01*
X351309Y94075D01*
X344537D01*
X343985Y93523D01*
Y90656D01*
G02X343612Y90255I-402J0D01*
G03X342570Y87187I128J-1755D01*
G02X342569Y86585I-268J-300D01*
G03X344736Y83821I1165J-1319D01*
G02X345366Y83455I229J-330D01*
G03X348271Y84626I1752J-158D01*
G02X348534Y85332I263J304D01*
G01X354381D01*
X356711Y87662D01*
X356835Y87612D01*
G03X359204Y88804I665J1629D01*
G01X359243Y88955D01*
X361045D01*
Y76782D01*
G02X360416Y76451I-402J0D01*
G03Y73549I-995J-1451D01*
G02X361045Y73218I227J-332D01*
G01Y6996D01*
X361017Y6968D01*
X191973D01*
G37*
G36*
G01X200135Y42169D02*
X193416Y48888D01*
X193412Y48966D01*
G03X188856Y50567I-2607J-134D01*
G01X188796Y50500D01*
X186500D01*
X183000Y54000D01*
Y60500D01*
X174500Y69000D01*
X165000D01*
Y127276D01*
X164844Y127432D01*
Y179828D01*
X165125Y180109D01*
X360959D01*
X361045Y180023D01*
Y134092D01*
X361000D01*
Y129912D01*
G02X360314Y129628I-402J0D01*
G01X353425Y136516D01*
X343425D01*
X335925Y129016D01*
Y119016D01*
X340978Y113963D01*
G02X340751Y113280I-284J-284D01*
G03X342742Y111289I249J-1742D01*
G02X343424Y111517I398J-57D01*
G01X343425Y111515D01*
X353425D01*
X360314Y118404D01*
G02X361000Y118120I284J-284D01*
G01Y92500D01*
X359000D01*
X357502Y91002D01*
X357424Y90998D01*
G03X355742Y89317I76J-1758D01*
G01X355739Y89239D01*
X353500Y87000D01*
X347000D01*
X346000Y88000D01*
Y92500D01*
X351500D01*
X357000Y98000D01*
Y98855D01*
X357084Y98915D01*
G03Y101782I-1020J1434D01*
G01X357000Y101842D01*
Y104500D01*
X355824D01*
X355770Y104542D01*
G03X353620I-1075J-1393D01*
G01X353566Y104500D01*
X352190D01*
X352136Y104542D01*
G03X351001Y104908I-1076J-1392D01*
G03X349925Y104542I-1J-1759D01*
G01X349871Y104500D01*
X346500D01*
X344500Y106500D01*
X328794D01*
X328610Y106684D01*
Y109971D01*
X323971Y114610D01*
X319038D01*
X318986Y114646D01*
G03Y110354I-1486J-2146D01*
G01X319038Y110390D01*
X320684D01*
G02X320975Y109711I0J-402D01*
G03X321066Y107199I1276J-1211D01*
G02X320796Y106500I-271J-297D01*
G01X318394D01*
X318342Y106620D01*
G03X315455Y107128I-1612J-705D01*
G02X314880Y107120I-291J277D01*
G01X313938Y108062D01*
X313923Y108105D01*
G03X311855Y110173I-3173J-1105D01*
G01X311812Y110188D01*
X305000Y117000D01*
X283109D01*
G02X282824Y117686I0J402D01*
G01X284154Y119016D01*
Y129016D01*
X276654Y136516D01*
X276113D01*
G02X275833Y137206I0J402D01*
G03X273379I-1227J1261D01*
G02X273099Y136516I-280J-288D01*
G01X266653D01*
X259153Y129016D01*
Y119016D01*
X260482Y117686D01*
G02X260198Y117000I-284J-284D01*
G01X247000D01*
Y109500D01*
X232000Y94500D01*
Y66500D01*
X228500Y63000D01*
X208500D01*
X207955Y62455D01*
X207200D01*
X206711Y62944D01*
X198929D01*
X197083Y61098D01*
Y57076D01*
X202336Y51823D01*
X209789D01*
Y44913D01*
X207045Y42169D01*
X200135D01*
G37*
%LPC*%
G75*
G36*
G01X263712Y93028D02*
G02X262446Y95185I-1700J452D01*
G03X262947Y95575I99J390D01*
G01Y96218D01*
X262754Y96226D01*
G02X264422Y98722I71J1758D01*
G03X265072Y98606I365J168D01*
G01X266019Y99553D01*
Y99742D01*
G03X265478Y100119I-402J0D01*
G02Y103421I-608J1651D01*
G03X266019Y103798I139J377D01*
G01Y103997D01*
X262626Y107390D01*
X258038D01*
X257986Y107354D01*
G02X256239Y106903I-1486J2146D01*
G03X255830Y106342I-40J-400D01*
G02X253515Y108272I-3080J-1343D01*
G03X253993Y108775I92J392D01*
G02X257986Y111646I2507J725D01*
G01X258038Y111610D01*
X259619D01*
G03X259931Y112265I0J402D01*
G02X262669I1369J1105D01*
G03X262982Y111610I313J-253D01*
G01X264374D01*
X269003Y106981D01*
X270997D01*
X271508Y107492D01*
G02X274492Y104508I1492J-1492D01*
G01X272745Y102761D01*
X270239D01*
Y97805D01*
X267080Y94646D01*
X267065Y94600D01*
G02X264254Y93296I-2008J648D01*
G03X263712Y93028I-153J-372D01*
G37*
G36*
G01X320678Y87190D02*
G02X318159Y87417I-1369J-1105D01*
G03X318210Y87974I-263J304D01*
G02X320728Y87747I1369J1105D01*
G03X320678Y87190I263J-304D01*
G37*
G36*
G01X307847Y84361D02*
G02X306843Y86641I-1639J639D01*
G03X307390Y87014I145J375D01*
G02X308491Y84512I3360J-14D01*
G03X307847Y84361I-270J-298D01*
G37*
G36*
G01X257838Y77620D02*
G02X256233Y78444I-1492J-932D01*
G03X256548Y79058I-26J401D01*
G02X258153Y78234I1492J932D01*
G03X257838Y77620I26J-401D01*
G37*
G36*
G01X322422Y75479D02*
G02X320638Y77628I-1715J391D01*
G03X320921Y78298I-16J402D01*
G02X323936Y79042I1309J1176D01*
G03X324351Y78542I390J-99D01*
G02X323121Y75650I113J-1756D01*
G03X322422Y75479I-307J-260D01*
G37*
G36*
G01X323552Y58740D02*
G02X322236Y60239I-1747J-207D01*
G03X322734Y60676I99J390D01*
G02X324050Y59177I1747J207D01*
G03X323552Y58740I-99J-390D01*
G37*
G36*
G01X308221Y51386D02*
G02X306453Y53990I-3103J-205D01*
G03X307001Y54208I173J363D01*
G02X310380Y53845I1641J-634D01*
G03X311031Y53595I397J62D01*
G02X311788Y54048I1961J-2414D01*
G03X311990Y54602I-156J371D01*
G02X314723Y56720I1567J801D01*
G03X315270Y56733I266J301D01*
G02X315334Y54158I1230J-1258D01*
G03X314786Y54144I-266J-301D01*
G02X314713Y54077I-1230J1258D01*
G03X314732Y53759I132J-152D01*
G02X309904Y51545I-1740J-2577D01*
G03X309344Y51961I-399J47D01*
G02X308626Y51815I-702J1613D01*
G03X308221Y51386I-4J-402D01*
G37*
G36*
G01X300165Y52250D02*
G02X298664Y53948I-2921J-1068D01*
G03X299248Y54342I184J358D01*
G02X300628Y52780I1752J158D01*
G03X300165Y52250I-85J-393D01*
G37*
G36*
G01X275620Y53564D02*
G02X273763Y54288I-1998J-2383D01*
G03X274101Y54933I18J402D01*
G02X275808Y54268I1399J1067D01*
G03X275620Y53564I70J-396D01*
G37*
G36*
G01X250579Y54237D02*
G02X247766Y53345I-579J-3056D01*
G03X247696Y53963I-289J280D01*
G02X249003Y57165I954J1478D01*
G03X249485Y57547I81J394D01*
G02X250891Y55774I1759J-49D01*
G03X250409Y55392I-81J-394D01*
G02X250281Y54782I-1759J49D01*
G03X250579Y54237I373J-151D01*
G37*
G36*
G01X277060Y42258D02*
G02X275282Y40119I-60J-1758D01*
G03X274745Y40407I-392J-87D01*
G02X274736Y46211I-1123J2900D01*
G03X275281Y46611I144J375D01*
G02X276926Y44966I1756J111D01*
G03X276526Y44421I-25J-401D01*
G02X276679Y42734I-2904J-1114D01*
G03X277060Y42258I395J-74D01*
G37*
G36*
G01X321909Y39714D02*
G02X319823Y39714I-1043J-1417D01*
G03X319731Y40412I-238J324D01*
G02X318203Y44914I1135J2895D01*
G03X317783Y45516I-344J208D01*
G02X317783Y48972I-332J1728D01*
G03X318204Y49574I76J395D01*
G02X319652Y48318I2663J1607D01*
G03X319114Y47817I-157J-370D01*
G02X319114Y46671I-1663J-573D01*
G03X319652Y46170I380J-131D01*
G02X322001Y40412I1215J-2863D01*
G03X321909Y39714I147J-374D01*
G37*
G36*
G01X298320Y39723D02*
G02X296234Y39704I-1030J-1426D01*
G03X296136Y40401I-241J321D01*
G02X298405Y40422I1108J2906D01*
G03X298320Y39723I150J-373D01*
G37*
G36*
G01X327797Y20680D02*
G02X326253Y19583I944J-2963D01*
G03X325891Y20224I-322J241D01*
G02X325578Y23729I-176J1751D01*
G03X325912Y24297I-31J401D01*
G02X326632Y27877I2828J1294D01*
G03X326613Y28485I-272J296D01*
G02X329330Y29134I1110J1365D01*
G03X329588Y28583I367J-164D01*
G02X327966Y22578I-847J-2992D01*
G03X327466Y22149I-100J-389D01*
G02X327310Y21233I-1751J-174D01*
G03X327797Y20680I364J-170D01*
G37*
G36*
G01X210662Y8218D02*
X200662D01*
X193162Y15718D01*
Y25718D01*
X200662Y33218D01*
X210662D01*
X218162Y25718D01*
Y15718D01*
X210662Y8218D01*
G37*
G54D19*
X305000Y78000D03*
X354591Y76779D03*
X266911Y68000D03*
X307000Y60438D03*
X216124Y56719D03*
X171955Y52302D03*
Y45598D03*
X214390Y40611D03*
X195403Y34522D03*
X300000Y123500D03*
X238500Y122500D03*
X190884Y56719D03*
G54D20*
X352362Y51181D03*
X344488D03*
X336614D03*
X328740D03*
X289370D03*
X281496D03*
X265748D03*
X257874D03*
X242126D03*
X234252D03*
X226378D03*
X352362Y43307D03*
X336614D03*
X328740D03*
X312992D03*
X305118D03*
X281496D03*
X265748D03*
X257874D03*
X250000D03*
X234252D03*
X226378D03*
X352362Y25591D03*
X344488D03*
X320866D03*
X312992D03*
X305118D03*
X297244D03*
X281496D03*
X273622D03*
X265748D03*
X257874D03*
X250000D03*
X242126D03*
X226378D03*
X352362Y17717D03*
X344488D03*
X336614D03*
X320866D03*
X312992D03*
X305118D03*
X297244D03*
X289370D03*
X281496D03*
X273622D03*
X265748D03*
X257874D03*
X250000D03*
X242126D03*
X234252D03*
X226378D03*
G54D21*
X233586Y137552D03*
X223586D03*
X213586D03*
X203586D03*
X193586D03*
X183586D03*
G54D18*
X252750Y85000D03*
G54D17*
X285263Y113294D03*
X290747Y113189D03*
X291423Y107736D03*
X306500Y101000D03*
X285064Y100543D03*
X245240Y100000D03*
X277500Y99500D03*
X308724Y96500D03*
X245240Y94000D03*
X315336Y90974D03*
X264579Y89079D03*
X273897Y86792D03*
X284000Y84500D03*
X292500Y84000D03*
X316000Y81000D03*
X248348Y80818D03*
X348865Y79371D03*
X271000Y76500D03*
X301659Y73135D03*
X347000Y67915D03*
X301500Y67885D03*
X334272Y67822D03*
X298831Y61240D03*
X245086Y61040D03*
X317000Y60449D03*
X258004Y60303D03*
X356997Y59459D03*
X332155Y59001D03*
X347903Y57857D03*
X291436Y57788D03*
X284892Y57647D03*
X292785Y46722D03*
X284911Y38947D03*
X297290Y34167D03*
X308533Y30226D03*
X316606Y155150D03*
X304606D03*
X292606D03*
X280606D03*
X274606D03*
X262606D03*
X316606Y138467D03*
X304606D03*
X292606D03*
X280606D03*
X262606D03*
X332000Y131760D03*
X326000D03*
X286635Y131565D03*
X293072Y131564D03*
X332000Y118500D03*
X325800Y118428D03*
X355500Y110500D03*
X233842Y100479D03*
X221842D03*
X209842D03*
X197842D03*
X191842D03*
X179842D03*
X209842Y84319D03*
X221842Y84300D03*
X195264Y83638D03*
X174522Y83019D03*
%LPD*%
G75*
G54D10*
X201116Y59223D03*
X195403Y34522D03*
X202453Y47280D03*
X171955Y52302D03*
Y45598D03*
X190884Y56719D03*
X190805Y48832D03*
X216124Y56719D03*
X305000Y78000D03*
X307000Y60438D03*
X266911Y68000D03*
X283000D03*
X214390Y40611D03*
X256500Y109500D03*
X317500Y112500D03*
X300000Y123500D03*
X238500Y122500D03*
X307549Y122951D03*
X302931Y90972D03*
X244500Y121500D03*
X354591Y76779D03*
X326911Y68000D03*
X343922Y58253D03*
X358813Y97784D03*
G54D11*
X205662Y20718D03*
X271654Y124016D03*
X348425D03*
G54D12*
X203586Y137552D03*
X193586D03*
X183586D03*
X233586D03*
X223586D03*
X213586D03*
G54D13*
X195264Y83638D03*
X174522Y83019D03*
X179842Y100479D03*
X191842D03*
X197842D03*
X248348Y80818D03*
X256346Y76688D03*
X245086Y61040D03*
X297290Y34167D03*
Y38297D03*
X258004Y60303D03*
X284911Y38947D03*
X291436Y57788D03*
X248650Y55441D03*
X284892Y57647D03*
X251244Y57498D03*
X277037Y46722D03*
X321805Y58533D03*
X292785Y46722D03*
X308533Y30226D03*
X317000Y60449D03*
X320866Y38297D03*
X317451Y47244D03*
X301659Y73135D03*
X258040Y79990D03*
X293830Y75700D03*
X247070Y75180D03*
X310200Y80500D03*
X320707Y75870D03*
X316000Y81000D03*
X271000Y76500D03*
X298831Y61240D03*
X316500Y55475D03*
X301000Y54500D03*
X308642Y53574D03*
X313557Y55403D03*
X301500Y67885D03*
X277000Y40500D03*
X275500Y56000D03*
X285263Y113294D03*
X278425Y111496D03*
X290747Y113189D03*
X293072Y131564D03*
X286635Y131565D03*
X285064Y100543D03*
X291423Y107736D03*
X265057Y95247D03*
X233842Y84300D03*
X221842D03*
X209842Y84319D03*
X221842Y100479D03*
X209842D03*
X233842D03*
X306500Y101000D03*
X277512Y88500D03*
X277500Y94000D03*
X315336Y90974D03*
X319309Y86085D03*
X262012Y93480D03*
X264870Y101770D03*
X317740Y103000D03*
X245240Y100000D03*
Y94000D03*
X261300Y113370D03*
X316730Y105915D03*
X302852Y104370D03*
Y98479D03*
X273000Y106000D03*
X302000Y111500D03*
X294000Y110080D03*
X318307Y96500D03*
X271058Y109147D03*
X264579Y89079D03*
X262825Y97984D03*
X319579Y89079D03*
X292500Y84000D03*
X277500Y99500D03*
X300992Y87359D03*
X284000Y84500D03*
X308724Y96500D03*
X291000Y95500D03*
X299000Y104500D03*
X306207Y85000D03*
X271711Y82582D03*
X273897Y86792D03*
X262606Y155150D03*
Y138467D03*
X316606Y155150D03*
X304606D03*
X292606D03*
X304606Y138467D03*
X292606D03*
X316606D03*
X280606Y155150D03*
X274606D03*
X280606Y138467D03*
X274606D03*
X359778Y62657D03*
X322230Y79474D03*
X332155Y59001D03*
X327723Y29850D03*
X324481Y60883D03*
X324464Y76786D03*
X325715Y21975D03*
X347903Y57857D03*
X351000Y60150D03*
X356997Y59459D03*
X347000Y67915D03*
X348865Y79371D03*
X334272Y67822D03*
X359420Y75000D03*
X331196Y99872D03*
X324259Y103154D03*
X330810Y104020D03*
X337484D03*
X322251Y108500D03*
X354695Y103149D03*
X332000Y131760D03*
X326000D03*
X351060Y103150D03*
X325800Y118428D03*
X332000Y118500D03*
X326810Y105500D03*
X343741Y88500D03*
X327144Y82500D03*
X357500Y89241D03*
X343733Y85267D03*
X334800Y98842D03*
X341000Y111539D03*
X347118Y83297D03*
X337000Y88500D03*
X356064Y100348D03*
X347862Y90259D03*
X355500Y110500D03*
X351000Y103149D03*
G54D14*
X226378Y43307D03*
X257874Y51181D03*
X265748Y43307D03*
Y51181D03*
X273622Y43307D03*
Y51181D03*
X281496Y43307D03*
Y51181D03*
X289370Y43307D03*
Y51181D03*
X297244Y43307D03*
X226378Y51181D03*
X297244D03*
X305118Y43307D03*
Y51181D03*
X312992Y43307D03*
Y51181D03*
X320866Y43307D03*
Y51181D03*
X234252Y43307D03*
Y51181D03*
X242126Y43307D03*
Y51181D03*
X250000Y43307D03*
Y51181D03*
X257874Y43307D03*
X320866Y17717D03*
X312992Y25591D03*
Y17717D03*
X305118Y25591D03*
Y17717D03*
X297244Y25591D03*
Y17717D03*
X289370Y25591D03*
Y17717D03*
X281496Y25591D03*
Y17717D03*
X273622Y25591D03*
Y17717D03*
X265748Y25591D03*
Y17717D03*
X257874Y25591D03*
Y17717D03*
X250000Y25591D03*
Y17717D03*
X242126Y25591D03*
Y17717D03*
X234252Y25591D03*
Y17717D03*
X226378Y25591D03*
Y17717D03*
X320866Y25591D03*
X328740Y43307D03*
Y51181D03*
X336614Y43307D03*
Y51181D03*
X344488Y43307D03*
Y51181D03*
X352362Y43307D03*
Y51181D03*
X352362Y25591D03*
Y17717D03*
X344488Y25591D03*
Y17717D03*
X336614Y25591D03*
Y17717D03*
X328740Y25591D03*
Y17717D03*
G54D15*
X252750Y105000D03*
Y85000D03*
X310750Y107000D03*
Y87000D03*
G54D16*
G01X265057Y95247D02*
Y95607D01*
X268129Y98679D01*
Y104871D01*
G01D02*
X263500Y109500D01*
X256500D01*
G01X273000Y106000D02*
X271871Y104871D01*
X268129D01*
G01X317500Y112500D02*
X323097D01*
X326500Y109097D01*
Y105810D01*
X326810Y105500D01*
G01D02*
X327296Y105014D01*
Y104727D01*
X327518Y104504D01*
Y101790D01*
X322228Y96500D01*
X318307D01*
G01X307549Y122951D02*
Y110672D01*
X304636Y107759D01*
X297650D01*
X293801Y103910D01*
Y102921D01*
G01D02*
X302931Y93790D01*
Y90972D01*
G01X291000Y95500D02*
Y101000D01*
X292921Y102921D01*
X293801D01*
G01X351288Y90259D02*
X347862D01*
G01X358813Y97784D02*
X351288Y90259D01*
M02*
