G04 ================== begin FILE IDENTIFICATION RECORD ==================*
G04 Layout Name:  D:/project/IRISking/IKEMB001/project/hardware/tvp5150/TVP5150_a.brd*
G04 Film Name:    Silk_Top*
G04 File Format:  Gerber RS274X*
G04 File Origin:  15.7-p007*
G04 Origin Date:  Wed Nov 21 11:29:07 2007*
G04 *
G04 Layer:  BOARD GEOMETRY/SILKSCREEN_TOP*
G04 Layer:  REF DES/SILKSCREEN_TOP*
G04 Layer:  PACKAGE GEOMETRY/SILKSCREEN_TOP*
G04 Layer:  BOARD GEOMETRY/OUTLINE*
G04 *
G04 Offset:    (0.000 0.000)*
G04 Mirror:    No*
G04 Mode:      Positive*
G04 Rotation:  0*
G04 FullContactRelief:  No*
G04 UndefLineWidth:     7.988*
G04 ================== end FILE IDENTIFICATION RECORD ====================*
%FSLAX53Y53*MOIN*%
%IR0*IPPOS*OFA0.00000B0.00000*MIA0B0*SFA1.00000B1.00000*%
%ADD10C,.007988*%
G75*
%LPD*%
G75*
G54D10*
G01X1485Y569D02*
X1487Y572D01*
X1489Y575D01*
Y580D01*
X1486Y585D01*
X1482Y588D01*
X1477Y591D01*
X1469Y593D01*
X1461Y594D01*
X1454Y593D01*
X1449Y591D01*
X1444Y588D01*
X1441Y584D01*
X1439Y580D01*
Y577D01*
X1441Y573D01*
X1443Y570D01*
X1446Y567D01*
G01X1449Y548D02*
X1443Y545D01*
X1440Y541D01*
X1439Y536D01*
X1440Y531D01*
X1444Y527D01*
X1449Y525D01*
X1454Y524D01*
X1460Y525D01*
X1464Y529D01*
X1466Y533D01*
Y537D01*
G01Y533D02*
X1468Y529D01*
X1472Y527D01*
X1477Y526D01*
X1482Y527D01*
X1486Y529D01*
X1489Y534D01*
X1488Y539D01*
X1485Y544D01*
G01X1445Y501D02*
X1441Y498D01*
X1439Y493D01*
X1441Y489D01*
X1446Y485D01*
X1453Y483D01*
X1461Y482D01*
X1470D01*
X1477Y483D01*
X1484Y485D01*
X1487Y489D01*
X1489Y492D01*
X1487Y497D01*
X1484Y500D01*
X1479Y502D01*
X1472Y503D01*
X1466Y502D01*
X1461Y499D01*
X1457Y496D01*
X1456Y492D01*
X1458Y488D01*
X1462Y485D01*
X1470Y482D01*
G01X1580Y559D02*
X1582Y562D01*
X1584Y565D01*
Y570D01*
X1581Y575D01*
X1577Y578D01*
X1572Y581D01*
X1564Y583D01*
X1556Y584D01*
X1549Y583D01*
X1544Y581D01*
X1539Y578D01*
X1536Y574D01*
X1534Y570D01*
Y567D01*
X1536Y563D01*
X1538Y560D01*
X1541Y557D01*
G01X1544Y538D02*
X1538Y535D01*
X1535Y531D01*
X1534Y526D01*
X1535Y521D01*
X1539Y517D01*
X1544Y515D01*
X1549Y514D01*
X1555Y515D01*
X1559Y519D01*
X1561Y523D01*
Y527D01*
G01Y523D02*
X1563Y519D01*
X1567Y517D01*
X1572Y516D01*
X1577Y517D01*
X1581Y519D01*
X1584Y524D01*
X1583Y529D01*
X1580Y534D01*
G01X1534Y483D02*
X1545Y482D01*
X1554Y481D01*
X1562Y479D01*
X1571Y476D01*
X1584Y472D01*
Y493D01*
G01X1925Y597D02*
X2025D01*
Y581D01*
X1925D01*
Y597D01*
G01D02*
X2025D01*
Y345D01*
X1925D01*
Y597D01*
G01Y416D02*
Y346D01*
X2025D01*
Y366D01*
Y416D01*
G01X1920Y60D02*
X3620D01*
G01X1640Y1390D02*
Y400D01*
X1910D01*
G01D02*
Y60D01*
X1920D01*
G01X1640Y1390D02*
Y1420D01*
G01X1773Y1022D02*
Y1012D01*
X1823D01*
Y1037D01*
G01Y1107D02*
Y1132D01*
X1773D01*
Y1122D01*
G01X1883D02*
Y1132D01*
X1833D01*
Y1107D01*
G01Y1037D02*
Y1012D01*
X1883D01*
Y1022D01*
G01X1893D02*
Y1012D01*
X1943D01*
Y1037D01*
G01Y1107D02*
Y1132D01*
X1893D01*
Y1122D01*
G01X1953Y1022D02*
Y1012D01*
X2003D01*
Y1037D01*
G01Y1107D02*
Y1132D01*
X1953D01*
Y1122D01*
G01X1763D02*
Y1132D01*
X1713D01*
Y1107D01*
G01Y1037D02*
Y1012D01*
X1763D01*
Y1022D01*
G01X1953Y861D02*
Y851D01*
X2003D01*
Y876D01*
G01Y946D02*
Y971D01*
X1953D01*
Y961D01*
G01X1893Y861D02*
Y851D01*
X1943D01*
Y876D01*
G01Y946D02*
Y971D01*
X1893D01*
Y961D01*
G01X1883D02*
Y971D01*
X1833D01*
Y946D01*
G01Y876D02*
Y851D01*
X1883D01*
Y861D01*
G01X1773D02*
Y851D01*
X1823D01*
Y876D01*
G01Y946D02*
Y971D01*
X1773D01*
Y961D01*
G01X1763D02*
Y971D01*
X1713D01*
Y946D01*
G01Y876D02*
Y851D01*
X1763D01*
Y861D01*
G01X1309Y1574D02*
Y1538D01*
X1312Y1530D01*
X1317Y1525D01*
X1323Y1524D01*
X1329Y1525D01*
X1334Y1530D01*
X1337Y1538D01*
Y1574D01*
G01X1374Y1524D02*
Y1574D01*
X1366Y1564D01*
G01Y1524D02*
X1382D01*
G01X1329Y1254D02*
Y1218D01*
X1332Y1211D01*
X1337Y1206D01*
X1343Y1204D01*
X1350Y1206D01*
X1355Y1211D01*
X1357Y1218D01*
Y1254D01*
G01X1382Y1246D02*
X1386Y1251D01*
X1390Y1253D01*
X1396Y1254D01*
X1402Y1252D01*
X1406Y1248D01*
X1408Y1243D01*
X1407Y1238D01*
X1404Y1234D01*
X1392Y1226D01*
X1386Y1220D01*
X1382Y1211D01*
X1381Y1204D01*
X1408D01*
G01X1414Y1109D02*
X1419Y1112D01*
X1423Y1116D01*
X1424Y1121D01*
X1423Y1126D01*
X1419Y1129D01*
X1414Y1133D01*
X1408Y1134D01*
X1374D01*
G01X1414Y1159D02*
X1420Y1163D01*
X1423Y1168D01*
X1424Y1173D01*
X1423Y1179D01*
X1419Y1184D01*
X1414Y1187D01*
X1409Y1187D01*
X1403Y1186D01*
X1399Y1182D01*
X1398Y1177D01*
Y1172D01*
G01Y1177D02*
X1395Y1181D01*
X1391Y1184D01*
X1386Y1185D01*
X1381Y1184D01*
X1377Y1181D01*
X1374Y1175D01*
X1375Y1170D01*
X1378Y1164D01*
G01X1424Y1231D02*
X1374D01*
X1410Y1208D01*
Y1240D01*
G01X2436Y1276D02*
X1736D01*
Y1476D01*
X2436D01*
Y1276D01*
G01X1640Y1420D02*
Y1809D01*
X3620Y1809D01*
Y60D01*
X3620Y60D01*
G01X1806Y1707D02*
X1825Y1644D01*
X1845Y1707D01*
G01X1879D02*
X1898D01*
G01X1888D02*
Y1644D01*
G01X1879D02*
X1898D01*
G01X1934D02*
Y1707D01*
X1950D01*
X1956Y1704D01*
X1961Y1700D01*
X1964Y1693D01*
X1968Y1686D01*
X1968Y1676D01*
X1968Y1665D01*
X1964Y1658D01*
X1961Y1651D01*
X1956Y1647D01*
X1950Y1644D01*
X1934D01*
G01X2030D02*
X1998D01*
Y1707D01*
X2030D01*
G01X2017Y1677D02*
X1998D01*
G01X2077Y1644D02*
X2071Y1645D01*
X2065Y1649D01*
X2061Y1656D01*
X2058Y1663D01*
X2056Y1671D01*
Y1680D01*
X2058Y1688D01*
X2061Y1696D01*
X2065Y1702D01*
X2071Y1706D01*
X2077Y1707D01*
X2083Y1706D01*
X2089Y1702D01*
X2094Y1696D01*
X2097Y1688D01*
X2098Y1680D01*
Y1671D01*
X2097Y1663D01*
X2094Y1656D01*
X2089Y1649D01*
X2083Y1645D01*
X2077Y1644D01*
G01X2130Y1665D02*
X2150D01*
G01X2184Y1707D02*
X2203Y1644D01*
X2223Y1707D01*
G01X2249Y1657D02*
X2254Y1649D01*
X2260Y1645D01*
X2267Y1644D01*
X2273Y1645D01*
X2279Y1650D01*
X2283Y1657D01*
X2284Y1663D01*
X2283Y1670D01*
X2277Y1676D01*
X2272Y1678D01*
X2265D01*
G01X2272D02*
X2276Y1681D01*
X2280Y1686D01*
X2282Y1692D01*
X2280Y1699D01*
X2276Y1704D01*
X2269Y1707D01*
X2262Y1706D01*
X2255Y1702D01*
G01X1840Y1255D02*
X1810Y1225D01*
X1870D01*
X1840Y1255D01*
G01X2034Y597D02*
X2134D01*
Y581D01*
X2034D01*
Y597D01*
G01D02*
X2134D01*
Y345D01*
X2034D01*
Y597D01*
G01Y416D02*
Y346D01*
X2134D01*
Y366D01*
Y416D01*
G01X2185Y591D02*
X3602D01*
Y354D01*
X2185D01*
Y591D01*
G01X3602Y98D02*
X2185D01*
Y335D01*
X3602D01*
Y98D01*
G01X2969Y660D02*
Y700D01*
X2851D01*
Y660D01*
X2969D01*
G01X2809D02*
Y700D01*
X2691D01*
Y660D01*
X2809D01*
G01X2425Y630D02*
Y620D01*
X2475D01*
Y645D01*
G01Y715D02*
Y740D01*
X2425D01*
Y730D01*
G01X2485Y630D02*
Y620D01*
X2535D01*
Y645D01*
G01Y715D02*
Y740D01*
X2485D01*
Y730D01*
G01X2545Y630D02*
Y620D01*
X2595D01*
Y645D01*
G01Y715D02*
Y740D01*
X2545D01*
Y730D01*
G01X2605Y630D02*
Y620D01*
X2655D01*
Y645D01*
G01Y715D02*
Y740D01*
X2605D01*
Y730D01*
G01X3025Y630D02*
Y620D01*
X3075D01*
Y645D01*
G01Y715D02*
Y740D01*
X3025D01*
Y730D01*
G01X3085Y630D02*
Y620D01*
X3135D01*
Y645D01*
G01Y715D02*
Y740D01*
X3085D01*
Y730D01*
G01X3145Y630D02*
Y620D01*
X3195D01*
Y645D01*
G01Y715D02*
Y740D01*
X3145D01*
Y730D01*
G01X2541Y1417D02*
Y1392D01*
X2591D01*
Y1402D01*
G01Y1502D02*
Y1512D01*
X2541D01*
Y1487D01*
G01X2831D02*
Y1512D01*
X2781D01*
Y1502D01*
G01Y1402D02*
Y1392D01*
X2831D01*
Y1417D01*
G01X2771Y1487D02*
Y1512D01*
X2721D01*
Y1502D01*
G01Y1402D02*
Y1392D01*
X2771D01*
Y1417D01*
G01X2841D02*
Y1392D01*
X2891D01*
Y1402D01*
G01Y1502D02*
Y1512D01*
X2841D01*
Y1487D01*
G01Y1584D02*
Y1559D01*
X2891D01*
Y1569D01*
G01Y1669D02*
Y1679D01*
X2841D01*
Y1654D01*
G01X2771D02*
Y1679D01*
X2721D01*
Y1669D01*
G01Y1569D02*
Y1559D01*
X2771D01*
Y1584D01*
G01X2831Y1654D02*
Y1679D01*
X2781D01*
Y1669D01*
G01Y1569D02*
Y1559D01*
X2831D01*
Y1584D01*
G01X3191Y1487D02*
Y1512D01*
X3141D01*
Y1502D01*
G01Y1402D02*
Y1392D01*
X3191D01*
Y1417D01*
G01X3081D02*
Y1392D01*
X3131D01*
Y1402D01*
G01Y1502D02*
Y1512D01*
X3081D01*
Y1487D01*
G01X3071D02*
Y1512D01*
X3021D01*
Y1502D01*
G01Y1402D02*
Y1392D01*
X3071D01*
Y1417D01*
G01X2961D02*
Y1392D01*
X3011D01*
Y1402D01*
G01Y1502D02*
Y1512D01*
X2961D01*
Y1487D01*
G01X2951D02*
Y1512D01*
X2901D01*
Y1502D01*
G01Y1402D02*
Y1392D01*
X2951D01*
Y1417D01*
G01Y1654D02*
Y1679D01*
X2901D01*
Y1669D01*
G01Y1569D02*
Y1559D01*
X2951D01*
Y1584D01*
G01X2961D02*
Y1559D01*
X3011D01*
Y1569D01*
G01Y1669D02*
Y1679D01*
X2961D01*
Y1654D01*
G01X3071D02*
Y1679D01*
X3021D01*
Y1669D01*
G01Y1569D02*
Y1559D01*
X3071D01*
Y1584D01*
G01X3081D02*
Y1559D01*
X3131D01*
Y1569D01*
G01Y1669D02*
Y1679D01*
X3081D01*
Y1654D01*
G01X3191D02*
Y1679D01*
X3141D01*
Y1669D01*
G01Y1569D02*
Y1559D01*
X3191D01*
Y1584D01*
G01X2661Y1417D02*
Y1392D01*
X2711D01*
Y1402D01*
G01Y1502D02*
Y1512D01*
X2661D01*
Y1487D01*
G01X2651D02*
Y1512D01*
X2601D01*
Y1502D01*
G01Y1402D02*
Y1392D01*
X2651D01*
Y1417D01*
G01X2541Y1584D02*
Y1559D01*
X2591D01*
Y1569D01*
G01Y1669D02*
Y1679D01*
X2541D01*
Y1654D01*
G01X2651D02*
Y1679D01*
X2601D01*
Y1669D01*
G01Y1569D02*
Y1559D01*
X2651D01*
Y1584D01*
G01X2661D02*
Y1559D01*
X2711D01*
Y1569D01*
G01Y1669D02*
Y1679D01*
X2661D01*
Y1654D01*
G01X2732Y842D02*
X2928D01*
Y1038D01*
X2732D01*
Y842D01*
G01X2767Y1009D02*
G03I-11J4D01*
G01X2373Y1022D02*
Y1012D01*
X2423D01*
Y1037D01*
G01Y1107D02*
Y1132D01*
X2373D01*
Y1122D01*
G01X2313Y1022D02*
Y1012D01*
X2363D01*
Y1037D01*
G01Y1107D02*
Y1132D01*
X2313D01*
Y1122D01*
G01X2303D02*
Y1132D01*
X2253D01*
Y1107D01*
G01Y1037D02*
Y1012D01*
X2303D01*
Y1022D01*
G01X2193D02*
Y1012D01*
X2243D01*
Y1037D01*
G01Y1107D02*
Y1132D01*
X2193D01*
Y1122D01*
G01X2063D02*
Y1132D01*
X2013D01*
Y1107D01*
G01Y1037D02*
Y1012D01*
X2063D01*
Y1022D01*
G01X2183Y1122D02*
Y1132D01*
X2133D01*
Y1107D01*
G01Y1037D02*
Y1012D01*
X2183D01*
Y1022D01*
G01X2073D02*
Y1012D01*
X2123D01*
Y1037D01*
G01Y1107D02*
Y1132D01*
X2073D01*
Y1122D01*
G01Y861D02*
Y851D01*
X2123D01*
Y876D01*
G01Y946D02*
Y971D01*
X2073D01*
Y961D01*
G01X2313Y861D02*
Y851D01*
X2363D01*
Y876D01*
G01Y946D02*
Y971D01*
X2313D01*
Y961D01*
G01X2303D02*
Y971D01*
X2253D01*
Y946D01*
G01Y876D02*
Y851D01*
X2303D01*
Y861D01*
G01X2193D02*
Y851D01*
X2243D01*
Y876D01*
G01Y946D02*
Y971D01*
X2193D01*
Y961D01*
G01X2183D02*
Y971D01*
X2133D01*
Y946D01*
G01Y876D02*
Y851D01*
X2183D01*
Y861D01*
G01X2063Y961D02*
Y971D01*
X2013D01*
Y946D01*
G01Y876D02*
Y851D01*
X2063D01*
Y861D01*
G01X2373D02*
Y851D01*
X2423D01*
Y876D01*
G01Y946D02*
Y971D01*
X2373D01*
Y961D01*
G01X3569Y660D02*
Y700D01*
X3451D01*
Y660D01*
X3569D01*
G01X3409D02*
Y700D01*
X3291D01*
Y660D01*
X3409D01*
G01X3205Y630D02*
Y620D01*
X3255D01*
Y645D01*
G01Y715D02*
Y740D01*
X3205D01*
Y730D01*
G01X3251Y1487D02*
Y1512D01*
X3201D01*
Y1502D01*
G01Y1402D02*
Y1392D01*
X3251D01*
Y1417D01*
G01Y1654D02*
Y1679D01*
X3201D01*
Y1669D01*
G01Y1569D02*
Y1559D01*
X3251D01*
Y1584D01*
G01X3620Y1420D02*
Y1390D01*
G01X3317Y1009D02*
G03I-11J4D01*
G01X3282Y842D02*
X3478D01*
Y1038D01*
X3282D01*
Y842D01*
G01X3620Y1420D02*
Y1806D01*
M02*
