G04 ================== begin FILE IDENTIFICATION RECORD ==================*
G04 Layout Name:  D:/project/IRISking/IKEMB001/project/hardware/tvp5150/TVP5150_a.brd*
G04 Film Name:    Solder_Top*
G04 File Format:  Gerber RS274X*
G04 File Origin:  15.7-p007*
G04 Origin Date:  Fri Nov 02 16:46:20 2007*
G04 *
G04 Layer:  VIA CLASS/SOLDERMASK_TOP*
G04 Layer:  PIN/SOLDERMASK_TOP*
G04 Layer:  BOARD GEOMETRY/OUTLINE*
G04 *
G04 Offset:    (0.000 0.000)*
G04 Mirror:    No*
G04 Mode:      Positive*
G04 Rotation:  0*
G04 FullContactRelief:  No*
G04 UndefLineWidth:     8.000*
G04 ================== end FILE IDENTIFICATION RECORD ====================*
%FSLAX55Y55*MOIN*%
%IR0*IPPOS*OFA0.00000B0.00000*MIA0B0*SFA1.00000B1.00000*%
%ADD11C,.21*%
%ADD14R,.07X.07*%
%ADD16R,.036X.046*%
%ADD18R,.026X.048*%
%ADD17R,.018X.048*%
%ADD13C,.07*%
%ADD22R,.048X.018*%
%ADD21C,.075*%
%ADD19R,.058X.058*%
%ADD10C,.048*%
%ADD20C,.058*%
%ADD12R,.066X.066*%
%ADD15C,.03098*%
%ADD23C,.008*%
G75*
%LPD*%
G75*
G54D10*
X201116Y59223D03*
X195403Y34522D03*
X202453Y47280D03*
X171955Y52302D03*
Y45598D03*
X190884Y56719D03*
X190805Y48832D03*
X216124Y56719D03*
X305000Y78000D03*
X307000Y60438D03*
X266911Y68000D03*
X283000D03*
X214390Y40611D03*
X256500Y109500D03*
X317500Y112500D03*
X300000Y123500D03*
X238500Y122500D03*
X307549Y122951D03*
X302931Y90972D03*
X244500Y121500D03*
X354591Y76779D03*
X326911Y68000D03*
X343922Y58253D03*
X358813Y97784D03*
G54D20*
X257874Y51181D03*
X265748Y43307D03*
Y51181D03*
X273622Y43307D03*
Y51181D03*
X281496Y43307D03*
Y51181D03*
X289370Y43307D03*
Y51181D03*
X297244Y43307D03*
X226378Y51181D03*
X297244D03*
X305118Y43307D03*
Y51181D03*
X312992Y43307D03*
Y51181D03*
X320866Y43307D03*
Y51181D03*
X234252Y43307D03*
Y51181D03*
X242126Y43307D03*
Y51181D03*
X250000Y43307D03*
Y51181D03*
X257874Y43307D03*
X320866Y17717D03*
X312992Y25591D03*
Y17717D03*
X305118Y25591D03*
Y17717D03*
X297244Y25591D03*
Y17717D03*
X289370Y25591D03*
Y17717D03*
X281496Y25591D03*
Y17717D03*
X273622Y25591D03*
Y17717D03*
X265748Y25591D03*
Y17717D03*
X257874Y25591D03*
Y17717D03*
X250000Y25591D03*
Y17717D03*
X242126Y25591D03*
Y17717D03*
X234252Y25591D03*
Y17717D03*
X226378Y25591D03*
Y17717D03*
X320866Y25591D03*
X328740Y43307D03*
Y51181D03*
X336614Y43307D03*
Y51181D03*
X344488Y43307D03*
Y51181D03*
X352362Y43307D03*
Y51181D03*
X352362Y17717D03*
X344488Y25591D03*
Y17717D03*
X336614Y25591D03*
Y17717D03*
X328740Y25591D03*
Y17717D03*
G54D11*
X205662Y20718D03*
X271654Y124016D03*
X348425D03*
G54D12*
X197466Y40611D03*
Y53611D03*
X208405Y40611D03*
Y53611D03*
G54D21*
X252750Y105000D03*
Y85000D03*
X310750Y107000D03*
Y87000D03*
G54D22*
X296780Y100890D03*
Y98921D03*
Y96953D03*
Y94984D03*
Y93016D03*
Y91047D03*
Y89079D03*
Y87110D03*
X269220D03*
Y89079D03*
Y91047D03*
Y93016D03*
Y94984D03*
Y96953D03*
Y98921D03*
Y100890D03*
X324220D03*
Y98921D03*
Y96953D03*
Y94984D03*
Y93016D03*
Y91047D03*
Y89079D03*
Y87110D03*
X351780D03*
Y89079D03*
Y91047D03*
Y93016D03*
Y94984D03*
Y96953D03*
Y98921D03*
Y100890D03*
G54D13*
X203586Y137552D03*
X193586D03*
X233586D03*
X223586D03*
X213586D03*
G54D23*
G01X191000Y40000D02*
Y6000D01*
X192000D01*
G01X164000Y139000D02*
Y40000D01*
X191000D01*
G01X192000Y6000D02*
X362000D01*
G01X164000Y142000D02*
Y180914D01*
X164001Y180915D01*
X362001D01*
Y6001D01*
X362000Y6000D01*
D01*
G01X164000Y139000D02*
Y142000D01*
G01X362000D02*
Y180580D01*
G01Y142000D02*
Y139000D01*
G54D14*
X183586Y137552D03*
G54D15*
X195264Y83638D03*
X174522Y83019D03*
X179842Y100479D03*
X191842D03*
X197842D03*
X248348Y80818D03*
X256346Y76688D03*
X245086Y61040D03*
X297290Y34167D03*
Y38297D03*
X258004Y60303D03*
X284911Y38947D03*
X291436Y57788D03*
X248650Y55441D03*
X284892Y57647D03*
X251244Y57498D03*
X277037Y46722D03*
X321805Y58533D03*
X292785Y46722D03*
X308533Y30226D03*
X317000Y60449D03*
X320866Y38297D03*
X317451Y47244D03*
X301659Y73135D03*
X258040Y79990D03*
X293830Y75700D03*
X247070Y75180D03*
X310200Y80500D03*
X320707Y75870D03*
X316000Y81000D03*
X271000Y76500D03*
X298831Y61240D03*
X316500Y55475D03*
X301000Y54500D03*
X308642Y53574D03*
X313557Y55403D03*
X301500Y67885D03*
X277000Y40500D03*
X275500Y56000D03*
X285263Y113294D03*
X278425Y111496D03*
X290747Y113189D03*
X293072Y131564D03*
X286635Y131565D03*
X285064Y100543D03*
X291423Y107736D03*
X265057Y95247D03*
X233842Y84300D03*
X221842D03*
X209842Y84319D03*
X221842Y100479D03*
X209842D03*
X233842D03*
X306500Y101000D03*
X277512Y88500D03*
X277500Y94000D03*
X315336Y90974D03*
X319309Y86085D03*
X262012Y93480D03*
X264870Y101770D03*
X317740Y103000D03*
X245240Y100000D03*
Y94000D03*
X261300Y113370D03*
X316730Y105915D03*
X302852Y104370D03*
Y98479D03*
X273000Y106000D03*
X302000Y111500D03*
X294000Y110080D03*
X318307Y96500D03*
X271058Y109147D03*
X264579Y89079D03*
X262825Y97984D03*
X319579Y89079D03*
X292500Y84000D03*
X277500Y99500D03*
X300992Y87359D03*
X284000Y84500D03*
X308724Y96500D03*
X291000Y95500D03*
X299000Y104500D03*
X306207Y85000D03*
X271711Y82582D03*
X273897Y86792D03*
X262606Y155150D03*
Y138467D03*
X316606Y155150D03*
X304606D03*
X292606D03*
X304606Y138467D03*
X292606D03*
X316606D03*
X280606Y155150D03*
X274606D03*
X280606Y138467D03*
X274606D03*
X359778Y62657D03*
X322230Y79474D03*
X332155Y59001D03*
X327723Y29850D03*
X324481Y60883D03*
X324464Y76786D03*
X325715Y21975D03*
X347903Y57857D03*
X351000Y60150D03*
X356997Y59459D03*
X347000Y67915D03*
X348865Y79371D03*
X334272Y67822D03*
X359420Y75000D03*
X331196Y99872D03*
X324259Y103154D03*
X330810Y104020D03*
X337484D03*
X322251Y108500D03*
X354695Y103149D03*
X332000Y131760D03*
X326000D03*
X351060Y103150D03*
X325800Y118428D03*
X332000Y118500D03*
X326810Y105500D03*
X343741Y88500D03*
X327144Y82500D03*
X357500Y89241D03*
X343733Y85267D03*
X334800Y98842D03*
X341000Y111539D03*
X347118Y83297D03*
X337000Y88500D03*
X356064Y100348D03*
X347862Y90259D03*
X355500Y110500D03*
X351000Y103149D03*
G54D16*
X173842Y88060D03*
Y94060D03*
X179842D03*
Y88060D03*
X185842D03*
Y94060D03*
X191842D03*
Y88060D03*
X197842Y94060D03*
Y88060D03*
X173842Y104239D03*
Y110239D03*
X197842D03*
Y104239D03*
X191842Y110239D03*
Y104239D03*
X185842D03*
Y110239D03*
X179842D03*
Y104239D03*
X245000Y71000D03*
Y65000D03*
X305000Y71000D03*
Y65000D03*
X257000Y71000D03*
Y65000D03*
X263000Y71000D03*
Y65000D03*
X251000Y71000D03*
Y65000D03*
X317000Y71000D03*
Y65000D03*
X311000Y71000D03*
Y65000D03*
X203842Y88060D03*
Y94060D03*
X215842Y88060D03*
Y94060D03*
X221842D03*
Y88060D03*
X227842D03*
Y94060D03*
X233842D03*
Y88060D03*
X209842Y94060D03*
Y88060D03*
Y110239D03*
Y104239D03*
X215842D03*
Y110239D03*
X203842Y104239D03*
Y110239D03*
X221842D03*
Y104239D03*
X227842D03*
Y110239D03*
X233842D03*
Y104239D03*
X239842Y94060D03*
Y88060D03*
Y110239D03*
Y104239D03*
X268606Y164910D03*
Y158910D03*
X262606D03*
Y164910D03*
X256606D03*
Y158910D03*
X262606Y142227D03*
Y148227D03*
X268606D03*
Y142227D03*
X316606Y158910D03*
Y164910D03*
X310606D03*
Y158910D03*
X304606D03*
Y164910D03*
X298606D03*
Y158910D03*
X292606D03*
Y164910D03*
Y142227D03*
Y148227D03*
X298606D03*
Y142227D03*
X304606D03*
Y148227D03*
X310606D03*
Y142227D03*
X316606D03*
Y148227D03*
X280606Y158910D03*
Y164910D03*
X274606Y158910D03*
Y164910D03*
X286606D03*
Y158910D03*
Y148227D03*
Y142227D03*
X274606D03*
Y148227D03*
X280606Y142227D03*
Y148227D03*
X256606D03*
Y142227D03*
X323000Y71000D03*
Y65000D03*
X322606Y158910D03*
Y164910D03*
Y142227D03*
Y148227D03*
G54D17*
X289890Y80220D03*
X287921D03*
X285953D03*
X283984D03*
X282016D03*
X280047D03*
X278079D03*
X276110D03*
Y107780D03*
X278079D03*
X280047D03*
X282016D03*
X283984D03*
X285953D03*
X287921D03*
X289890D03*
X331110Y80220D03*
X333079D03*
X335047D03*
X337016D03*
X338984D03*
X340953D03*
X342921D03*
X344890D03*
Y107780D03*
X342921D03*
X340953D03*
X338984D03*
X337016D03*
X335047D03*
X333079D03*
X331110D03*
G54D18*
X270096Y64063D03*
X273364D03*
X276632D03*
X279900D03*
Y71937D03*
X276632D03*
X273364D03*
X270096D03*
X286096Y64063D03*
X289364D03*
X292632D03*
X295900D03*
Y71937D03*
X292632D03*
X289364D03*
X286096D03*
X330096Y64063D03*
X333364D03*
X336632D03*
X339900D03*
Y71937D03*
X336632D03*
X333364D03*
X330096D03*
X346096Y64063D03*
X349364D03*
X352632D03*
X355900D03*
Y71937D03*
X352632D03*
X349364D03*
X346096D03*
G54D19*
X226378Y43307D03*
X352362Y25591D03*
M02*
