G04 ================== begin FILE IDENTIFICATION RECORD ==================*
G04 Layout Name:  D:/project/IRISking/IKEMB001/project/hardware/tvp5150/TVP5150_a.brd*
G04 Film Name:    Top*
G04 File Format:  Gerber RS274X*
G04 File Origin:  15.7-p007*
G04 Origin Date:  Fri Nov 02 16:46:20 2007*
G04 *
G04 Layer:  VIA CLASS/TOP*
G04 Layer:  PIN/TOP*
G04 Layer:  ETCH/TOP*
G04 Layer:  BOARD GEOMETRY/OUTLINE*
G04 *
G04 Offset:    (0.000 0.000)*
G04 Mirror:    No*
G04 Mode:      Positive*
G04 Rotation:  0*
G04 FullContactRelief:  No*
G04 UndefLineWidth:     8.000*
G04 ================== end FILE IDENTIFICATION RECORD ====================*
%FSLAX55Y55*MOIN*%
%IR0*IPPOS*OFA0.00000B0.00000*MIA0B0*SFA1.00000B1.00000*%
%ADD11C,.2*%
%ADD17R,.01X.04*%
%ADD22R,.04X.01*%
%ADD16R,.03X.04*%
%ADD19R,.05X.05*%
%ADD18R,.018X.04*%
%ADD14R,.062X.062*%
%ADD10C,.04*%
%ADD20C,.05*%
%ADD21C,.06*%
%ADD13C,.062*%
%ADD12R,.06X.06*%
%ADD15C,.022988*%
%ADD23C,.006098*%
%ADD24C,.01*%
%ADD25C,.02*%
%ADD26C,.03*%
%ADD27C,.008*%
G75*
%LPD*%
G75*
G54D10*
X201116Y59223D03*
X195403Y34522D03*
X202453Y47280D03*
X171955Y52302D03*
Y45598D03*
X190884Y56719D03*
X190805Y48832D03*
X216124Y56719D03*
X305000Y78000D03*
X307000Y60438D03*
X266911Y68000D03*
X283000D03*
X214390Y40611D03*
X256500Y109500D03*
X317500Y112500D03*
X300000Y123500D03*
X238500Y122500D03*
X307549Y122951D03*
X302931Y90972D03*
X244500Y121500D03*
X354591Y76779D03*
X326911Y68000D03*
X343922Y58253D03*
X358813Y97784D03*
G54D20*
X257874Y51181D03*
X265748Y43307D03*
Y51181D03*
X273622Y43307D03*
Y51181D03*
X281496Y43307D03*
Y51181D03*
X289370Y43307D03*
Y51181D03*
X297244Y43307D03*
X226378Y51181D03*
X297244D03*
X305118Y43307D03*
Y51181D03*
X312992Y43307D03*
Y51181D03*
X320866Y43307D03*
Y51181D03*
X234252Y43307D03*
Y51181D03*
X242126Y43307D03*
Y51181D03*
X250000Y43307D03*
Y51181D03*
X257874Y43307D03*
X320866Y17717D03*
X312992Y25591D03*
Y17717D03*
X305118Y25591D03*
Y17717D03*
X297244Y25591D03*
Y17717D03*
X289370Y25591D03*
Y17717D03*
X281496Y25591D03*
Y17717D03*
X273622Y25591D03*
Y17717D03*
X265748Y25591D03*
Y17717D03*
X257874Y25591D03*
Y17717D03*
X250000Y25591D03*
Y17717D03*
X242126Y25591D03*
Y17717D03*
X234252Y25591D03*
Y17717D03*
X226378Y25591D03*
Y17717D03*
X320866Y25591D03*
X328740Y43307D03*
Y51181D03*
X336614Y43307D03*
Y51181D03*
X344488Y43307D03*
Y51181D03*
X352362Y43307D03*
Y51181D03*
X352362Y17717D03*
X344488Y25591D03*
Y17717D03*
X336614Y25591D03*
Y17717D03*
X328740Y25591D03*
Y17717D03*
G54D11*
X205662Y20718D03*
X271654Y124016D03*
X348425D03*
G54D12*
X197466Y40611D03*
Y53611D03*
X208405Y40611D03*
Y53611D03*
G54D21*
X252750Y105000D03*
Y85000D03*
X310750Y107000D03*
Y87000D03*
G54D13*
X203586Y137552D03*
X193586D03*
X233586D03*
X223586D03*
X213586D03*
G54D22*
X296780Y100890D03*
Y98921D03*
Y96953D03*
Y94984D03*
Y93016D03*
Y91047D03*
Y89079D03*
Y87110D03*
X269220D03*
Y89079D03*
Y91047D03*
Y93016D03*
Y94984D03*
Y96953D03*
Y98921D03*
Y100890D03*
X324220D03*
Y98921D03*
Y96953D03*
Y94984D03*
Y93016D03*
Y91047D03*
Y89079D03*
Y87110D03*
X351780D03*
Y89079D03*
Y91047D03*
Y93016D03*
Y94984D03*
Y96953D03*
Y98921D03*
Y100890D03*
G54D23*
G01X172320Y105761D02*
X173842Y104239D01*
G01X203586Y133599D02*
Y132774D01*
X192926Y122114D01*
X178860D01*
X170976Y114230D01*
Y107105D01*
X171842Y106239D01*
X172320Y105761D01*
G01Y89582D02*
X171842Y90060D01*
X168479Y93423D01*
Y116617D01*
X183586Y131724D01*
Y131952D01*
G01X173842Y88060D02*
X172320Y89582D01*
G01X191842Y110239D02*
X190842D01*
G01X183586Y131952D02*
X181086Y134452D01*
G01X183586Y131952D02*
X186086Y134452D01*
G01X183586Y131952D02*
Y132532D01*
G01D02*
X181665Y134452D01*
G01X183586Y132532D02*
X185507Y134452D01*
G01X183586Y132532D02*
Y133111D01*
G01D02*
X182245Y134452D01*
G01X183586Y133111D02*
X184927Y134452D01*
G01X183586Y133111D02*
Y133690D01*
G01D02*
X182824Y134452D01*
G01X183586Y133690D02*
X184348Y134452D01*
G01X183586Y133690D02*
Y134270D01*
G01D02*
Y137552D01*
G01Y134270D02*
X183404Y134452D01*
G01X183586Y134270D02*
X183768Y134452D01*
G01X172320Y89582D02*
X174688D01*
G01X172320D02*
X172691Y86843D01*
G01X172320Y105761D02*
X174688D01*
G01X172320D02*
X172691Y103022D01*
G01X276632Y71937D02*
Y72863D01*
X277706Y73937D01*
G01X281516Y77896D02*
X279692Y76071D01*
X276399D01*
X273364Y73037D01*
Y71937D01*
G01X272194Y76500D02*
X275102D01*
X275908Y77306D01*
X278958D01*
X279547Y77896D01*
G01X257000Y73925D02*
X267721Y84646D01*
X274465D01*
X274718Y84898D01*
X276829D01*
X290852Y98921D01*
X294584D01*
G01X277706Y73937D02*
X278621Y74852D01*
X280440D01*
X283484Y77896D01*
G01X251000Y74015D02*
X253673Y76688D01*
X255152D01*
G01X289364Y71937D02*
Y73037D01*
X289890Y73563D01*
Y74478D01*
G01X286096Y71937D02*
Y73037D01*
X287921Y74862D01*
Y78026D01*
G01X281138Y73037D02*
X279900D01*
Y71937D01*
G01X262333Y62297D02*
Y63833D01*
X263000Y64500D01*
Y65000D01*
G01X245000Y61805D02*
Y61126D01*
X245086Y61040D01*
G01X296096Y34167D02*
X262185D01*
X253415Y42937D01*
Y59575D01*
X251000Y61990D01*
G01X257000Y65000D02*
Y64500D01*
X258004Y63496D01*
Y62540D01*
G01X286096Y64063D02*
Y62963D01*
X284892Y61759D01*
Y58841D01*
G01X250000Y51181D02*
X251244Y52425D01*
Y55529D01*
G01X277037Y47916D02*
Y54618D01*
X277564Y55145D01*
Y60627D01*
X279900Y62963D01*
Y64063D01*
G01X273364Y61468D02*
Y57916D01*
X269163Y53715D01*
Y46722D01*
X267943Y45502D01*
G01X270096Y64063D02*
Y62963D01*
X265748Y58615D01*
Y54285D01*
G01X297714Y85980D02*
Y69558D01*
X297179Y69022D01*
X294447D01*
X292632Y70837D01*
Y71937D01*
G01X285953Y78026D02*
Y77272D01*
X281718Y73037D01*
G01X326545Y41057D02*
X321721Y36233D01*
X267993D01*
X262333Y41893D01*
Y61138D01*
G01X302724Y67915D02*
X312879D01*
X313415Y67379D01*
Y58560D01*
X315656Y56320D01*
G01X317451Y48438D02*
Y52595D01*
X321031Y56175D01*
X332606D01*
X336632Y60201D01*
Y61468D01*
G01X230837Y25591D02*
Y52595D01*
X236968Y58726D01*
X245691D01*
X248009Y61044D01*
Y72878D01*
X262146Y87015D01*
X266930D01*
G01X273915Y80220D02*
X267451D01*
X263000Y75769D01*
Y74195D01*
G01X342293Y48986D02*
X340439Y47132D01*
Y16712D01*
X338029Y14302D01*
X237667D01*
X236447Y15522D01*
G01X306207Y83806D02*
Y80915D01*
X307915Y79207D01*
Y74415D01*
X305000Y71500D01*
Y71000D01*
G01X228573Y15522D02*
X231012Y13082D01*
X352557D01*
X356270Y16795D01*
Y47273D01*
X354557Y48986D01*
G01X317321Y85240D02*
X313436Y81355D01*
Y80212D01*
X311000Y77776D01*
Y74195D01*
G01X317000D02*
Y75083D01*
X319852Y77934D01*
X320690D01*
X321386Y78630D01*
G01X301000Y55694D02*
Y60493D01*
X300253Y61240D01*
G01X303500Y62186D02*
X302554Y61240D01*
X300253D01*
G01X305000Y65000D02*
Y63686D01*
X303910Y62596D01*
G01X308533Y52271D02*
Y53465D01*
X308642Y53574D01*
G01X313557Y55403D02*
Y55443D01*
X312712Y56288D01*
G01X301500Y67885D02*
X301530Y67915D01*
X302724D01*
G01X289500Y61332D02*
Y59000D01*
X285955Y55455D01*
Y50811D01*
X282144Y47000D01*
X280360D01*
X277037Y43677D01*
Y41892D01*
X277000Y41856D01*
Y41694D01*
G01X289364Y64063D02*
X289500Y63927D01*
Y61332D01*
G01X284911Y40141D02*
Y43677D01*
X288234Y47000D01*
X290018D01*
X293500Y50482D01*
Y56930D01*
X295900Y59330D01*
Y61468D01*
G01X275179Y62610D02*
X276632Y64063D01*
G01X293979Y46722D02*
X305488D01*
X308533Y49767D01*
Y52271D01*
G01X275500Y56000D02*
X275179Y56321D01*
Y57515D01*
G01X283484Y77896D02*
X283984Y78396D01*
Y80220D01*
G01X282016D02*
Y78395D01*
X281516Y77896D01*
G01X279547D02*
X280047Y78395D01*
Y80220D01*
G01X230837Y25591D02*
Y24176D01*
X233242Y21771D01*
X324317D01*
X324521Y21975D01*
G01X255152Y76688D02*
X256346D01*
G01X255152D02*
X255749Y76091D01*
G01X255152Y76688D02*
X255749Y77285D01*
G01X251000Y74015D02*
X252015Y73000D01*
G01X251000Y74015D02*
X249985Y73000D01*
G01X251000Y71000D02*
Y73436D01*
G01D02*
Y74015D01*
G01Y73436D02*
X251436Y73000D01*
G01X251000Y73436D02*
X250564Y73000D01*
G01X294584Y89079D02*
X293864Y88358D01*
Y85555D01*
X295900Y83520D01*
Y74532D01*
G01D02*
Y71937D01*
G01Y74532D02*
X296495Y73937D01*
G01X295900Y74532D02*
X295305Y73937D01*
G01X311000Y74195D02*
X312195Y73000D01*
G01X311000Y74195D02*
X309805Y73000D01*
G01X311000Y74195D02*
Y73616D01*
G01D02*
Y71000D01*
G01Y73616D02*
X311616Y73000D01*
G01X311000Y73616D02*
X310384Y73000D01*
G01X317000Y74195D02*
X318195Y73000D01*
G01X317000Y74195D02*
X315805Y73000D01*
G01X317000Y71000D02*
Y73616D01*
G01D02*
Y74195D01*
G01Y73616D02*
X317616Y73000D01*
G01X317000Y73616D02*
X316384Y73000D01*
G01X270096Y71937D02*
Y74532D01*
G01D02*
Y75596D01*
X270156Y75656D01*
G01X270096Y74532D02*
X270692Y73937D01*
G01X270096Y74532D02*
X269502Y73937D01*
G01X270156Y75656D02*
X271000Y76500D01*
G01X270156Y75656D02*
X271000D01*
G01X270156D02*
Y76500D01*
G01X271000D02*
X272194D01*
G01D02*
X271597Y77097D01*
G01X272194Y76500D02*
X271597Y75903D01*
G01X279547Y77896D02*
Y81916D01*
G01X245000Y74195D02*
Y77470D01*
X247504Y79974D01*
G01D02*
X248348Y80818D01*
G01X247504Y79974D02*
X248348D01*
G01X247504D02*
Y80818D01*
G01X245000Y74195D02*
X246195Y73000D01*
G01X245000Y74195D02*
X243805Y73000D01*
G01X245000Y71000D02*
Y73616D01*
G01D02*
Y74195D01*
G01Y73616D02*
X245616Y73000D01*
G01X245000Y73616D02*
X244384Y73000D01*
G01X301659Y74329D02*
Y82740D01*
X303056Y84137D01*
Y85911D01*
X306139Y88994D01*
Y92578D01*
X303733Y94984D01*
X298974D01*
G01X301659Y74329D02*
Y73135D01*
G01Y74329D02*
X301062Y73732D01*
G01X301659Y74329D02*
X302256Y73732D01*
G01X236447Y15522D02*
X234252Y17717D01*
G01X236447Y15522D02*
Y17717D01*
G01Y15522D02*
X234252D01*
G01X228573D02*
X226378Y17717D01*
G01X228573Y15522D02*
Y17717D01*
G01Y15522D02*
X226378D01*
G01X281718Y73037D02*
X280800Y72119D01*
G01X281718Y73037D02*
X280800Y73232D01*
G01X281718Y73037D02*
X281138D01*
G01D02*
X280800Y72699D01*
G01X285953Y80220D02*
Y78026D01*
G01D02*
X285758Y78220D01*
G01X285953Y78026D02*
X286148Y78221D01*
G01X281516Y77896D02*
Y81916D01*
G01X263000Y74195D02*
X264195Y73000D01*
G01X263000Y74195D02*
X261805Y73000D01*
G01X263000Y74195D02*
Y73616D01*
G01D02*
Y71000D01*
G01Y73616D02*
X263616Y73000D01*
G01X263000Y73616D02*
X262384Y73000D01*
G01X273915Y80220D02*
X275610Y81916D01*
G01X273915Y80220D02*
X275610Y78526D01*
G01X274495Y80220D02*
X273915D01*
G01X274495D02*
X275610Y81336D01*
G01X274495Y80220D02*
X275610Y79105D01*
G01X276110Y80220D02*
X275074D01*
G01D02*
X274495D01*
G01X275074D02*
X275610Y80757D01*
G01X275074Y80220D02*
X275610Y79684D01*
G01X283484Y77896D02*
Y81916D01*
G01Y77896D02*
X284179Y78221D01*
G01X277706Y73937D02*
X277532Y70242D01*
G01X277706Y73937D02*
X276037D01*
G01X257000Y73925D02*
X257925Y73000D01*
G01X257000Y73925D02*
X256075Y73000D01*
G01X257000Y73925D02*
Y73345D01*
G01D02*
Y71000D01*
G01Y73345D02*
X257345Y73000D01*
G01X257000Y73345D02*
X256655Y73000D01*
G01X289890Y78026D02*
Y80220D01*
G01Y78026D02*
X289695Y78220D01*
G01X289890Y78026D02*
X290085Y78221D01*
G01X289890Y75058D02*
Y78026D01*
G01Y75058D02*
X289959Y73937D01*
G01X289890Y75058D02*
X288769Y73937D01*
G01X289890Y74478D02*
Y75058D01*
G01Y74478D02*
X289349Y73937D01*
G01X287921Y78026D02*
Y80220D01*
G01Y78026D02*
X287726Y78220D01*
G01X287921Y78026D02*
X288116Y78221D01*
G01X317000Y61643D02*
Y60449D01*
G01Y61643D02*
X316403Y61046D01*
G01X317000Y61643D02*
X317597Y61046D01*
G01X317000Y61805D02*
Y61643D01*
G01Y61805D02*
X315805Y63000D01*
G01X317000Y61805D02*
X318195Y63000D01*
G01X317000Y65000D02*
Y62385D01*
G01D02*
Y61805D01*
G01Y62385D02*
X316384Y63000D01*
G01X317000Y62385D02*
X317616Y63000D01*
G01X312712Y56288D02*
X311000Y58000D01*
Y61805D01*
G01D02*
X309805Y63000D01*
G01X311000Y61805D02*
X312195Y63000D01*
G01X311000Y61805D02*
Y62385D01*
G01D02*
Y65000D01*
G01Y62385D02*
X310384Y63000D01*
G01X311000Y62385D02*
X311616Y63000D01*
G01X312712Y56288D02*
Y55403D01*
G01Y56288D02*
X313557Y56247D01*
G01X257874Y25591D02*
X260069Y27786D01*
G01D02*
X262509Y30226D01*
X307339D01*
G01X260069Y27786D02*
X257874D01*
G01X260069D02*
Y25591D01*
G01X307339Y30226D02*
X308533D01*
G01X307339D02*
X307936Y29629D01*
G01X307339Y30226D02*
X307936Y30823D01*
G01X300253Y61240D02*
X300025D01*
G01D02*
X298831D01*
G01X300025D02*
X299428Y61837D01*
G01X300025Y61240D02*
X299428Y60643D01*
G01X303500Y62186D02*
Y66695D01*
G01X303910Y62596D02*
X303500Y62186D01*
G01X303910Y62596D02*
Y66133D01*
G01X301000Y54500D02*
Y55694D01*
G01D02*
X300403Y55097D01*
G01X301000Y55694D02*
X301597Y55097D01*
G01X318671Y41112D02*
X315856Y38297D01*
X298484D01*
G01D02*
X297290D01*
G01X298484D02*
X297887Y38894D01*
G01X298484Y38297D02*
X297887Y37700D01*
G01X297290Y34167D02*
X296096D01*
G01D02*
X296693Y33570D01*
G01X296096Y34167D02*
X296693Y34764D01*
G01X320866Y43307D02*
X318671Y41112D01*
G01D02*
X320866D01*
G01X318671D02*
Y43307D01*
G01X251000Y61990D02*
X249990Y63000D01*
G01X251000Y61990D02*
X252010Y63000D01*
G01X251000Y61990D02*
Y62570D01*
G01D02*
Y65000D01*
G01Y62570D02*
X250569Y63000D01*
G01X251000Y62570D02*
X251431Y63000D01*
G01X245000Y61805D02*
X243805Y63000D01*
G01X245000Y61805D02*
X246195Y63000D01*
G01X245000Y65000D02*
Y62385D01*
G01D02*
Y61805D01*
G01Y62385D02*
X244384Y63000D01*
G01X245000Y62385D02*
X245616Y63000D01*
G01X302724Y67915D02*
X302097Y68482D01*
G01X302724Y67915D02*
X302097Y67288D01*
G01X315656Y56320D02*
X316500Y55475D01*
G01X315656Y56320D02*
Y55475D01*
G01Y56320D02*
X316500D01*
G01X275179Y62610D02*
X275953Y65211D01*
G01X275179Y62610D02*
X277006D01*
G01X275179Y57515D02*
Y62610D01*
G01Y57515D02*
X274903Y56597D01*
G01X275179Y57515D02*
X276097Y56597D01*
G01X315187Y27786D02*
X317252Y29850D01*
X326529D01*
G01X312992Y25591D02*
X315187Y27786D01*
G01D02*
X312992D01*
G01X315187D02*
Y25591D01*
G01X277000Y41694D02*
Y40500D01*
G01Y41694D02*
X276403Y41097D01*
G01X277000Y41694D02*
X277597Y41097D01*
G01X289500Y61332D02*
X288769Y62063D01*
G01X289500Y61332D02*
X289959Y62063D01*
G01X251244Y56304D02*
Y57498D01*
G01Y56304D02*
X251841Y56901D01*
G01X251244Y56304D02*
X250647Y56901D01*
G01X284892Y58841D02*
Y57647D01*
G01Y58841D02*
X284295Y58244D01*
G01X284892Y58841D02*
X285489Y58244D01*
G01X251244Y55529D02*
Y56304D01*
G01Y55529D02*
X251552Y52733D01*
G01X317451Y47244D02*
Y48438D01*
G01D02*
X316854Y47841D01*
G01X317451Y48438D02*
X318048Y47841D01*
G01X277037Y46722D02*
Y47916D01*
G01D02*
X276440Y47319D01*
G01X277037Y47916D02*
X277634Y47319D01*
G01X308533Y52271D02*
X309239Y52977D01*
G01X308533Y52271D02*
X308045Y52977D01*
G01X292785Y46722D02*
X293979D01*
G01D02*
X293382Y47319D01*
G01X293979Y46722D02*
X293382Y46125D01*
G01X262333Y61138D02*
X261805Y63000D01*
G01X262333Y61138D02*
X264195Y63000D01*
G01X262333Y61138D02*
Y61718D01*
G01D02*
X263616Y63000D01*
G01X262333Y61718D02*
Y62297D01*
G01D02*
X263036Y63000D01*
G01X292632Y61468D02*
Y58984D01*
X292280Y58633D01*
G01D02*
X291436Y57788D01*
G01X292280Y58633D02*
X291436D01*
G01X292280D02*
Y57788D01*
G01X234252Y51181D02*
X236447Y53376D01*
G01D02*
X238512Y55441D01*
X247456D01*
G01X236447Y53376D02*
X234252D01*
G01X236447D02*
Y51181D01*
G01X247456Y55441D02*
X248650D01*
G01X247456D02*
X248053Y54844D01*
G01X247456Y55441D02*
X248053Y56038D01*
G01X292632Y64063D02*
Y61468D01*
G01D02*
X292037Y62063D01*
G01X292632Y61468D02*
X293227Y62063D01*
G01X265748Y54285D02*
Y51181D01*
G01Y54285D02*
X264196Y52733D01*
G01X265748Y54285D02*
X267300Y52733D01*
G01X267943Y45502D02*
X265748Y43307D01*
G01X267943Y45502D02*
X265748D01*
G01X267943D02*
Y43307D01*
G01X273364Y64063D02*
Y61468D01*
G01D02*
X272769Y62063D01*
G01X273364Y61468D02*
X273959Y62063D01*
G01X295900Y61468D02*
Y64063D01*
G01Y61468D02*
X295305Y62063D01*
G01X295900Y61468D02*
X296495Y62063D01*
G01X284911Y38947D02*
Y40141D01*
G01D02*
X284314Y39544D01*
G01X284911Y40141D02*
X285508Y39544D01*
G01X230837Y25591D02*
X229975D01*
G01D02*
X230837Y26453D01*
G01X229975Y25591D02*
X230837Y24728D01*
G01X229975Y25591D02*
X229482D01*
G01D02*
X226378D01*
G01X229482D02*
X227930Y27143D01*
G01X229482Y25591D02*
X227930Y24038D01*
G01X258004Y60801D02*
Y60303D01*
G01Y60801D02*
X255805Y63000D01*
G01X258004Y60801D02*
X258195Y63000D01*
G01X258004Y61380D02*
Y60801D01*
G01Y61380D02*
X256384Y63000D01*
G01X258004Y61960D02*
Y61380D01*
G01Y61960D02*
X256964Y63000D01*
G01X258004Y62540D02*
Y61960D01*
G01Y62540D02*
X257543Y63000D01*
G01X268534Y101928D02*
X269220Y101242D01*
Y100890D01*
G01X243037Y104239D02*
X244761D01*
X248110Y100890D01*
X255919D01*
X258863Y103834D01*
X266628D01*
X267304Y103158D01*
X268534Y101928D01*
G01X280047Y109416D02*
Y107780D01*
G01X290186D02*
X291380D01*
X291423Y107736D01*
G01X322318Y141940D02*
Y112836D01*
X320187Y110705D01*
Y100773D01*
X322039Y98921D01*
G01X267026D02*
X264807D01*
X263544Y100184D01*
X257991D01*
X245867Y88060D01*
X243037D01*
G01X274777Y88696D02*
X277581Y91500D01*
X280982D01*
X290372Y100890D01*
X294584D01*
G01X310750Y87000D02*
X310985Y87235D01*
X314217D01*
G01X315886Y105070D02*
X313900Y103085D01*
X304137D01*
X303697Y103526D01*
G01X262012Y93480D02*
X262476Y93016D01*
X263671D01*
G01X266930Y91143D02*
X267429D01*
X267525Y91047D01*
X269220D01*
G01X266930Y87015D02*
X267429D01*
X267525Y87110D01*
X269220D01*
G01X319309Y86085D02*
X318166D01*
X317731Y85650D01*
G01X296780Y87110D02*
Y86915D01*
X297714Y85980D01*
G01X274777Y88696D02*
Y86710D01*
G01X274367Y88286D02*
X274777Y88696D01*
G01X274367Y87120D02*
Y88286D01*
G01X294584Y89079D02*
X296780D01*
G01X314796Y87235D02*
X314816D01*
X318724Y91143D01*
X321930D01*
X322026Y91047D01*
G01X273897Y86792D02*
X273932Y86828D01*
Y87852D01*
X274367Y88286D01*
G01X268534Y101928D02*
X269714Y101390D01*
G01X268534Y101928D02*
Y101390D01*
G01X243037Y104239D02*
X241342Y102544D01*
G01X243037Y104239D02*
X241342Y105934D01*
G01X242458Y104239D02*
X243037D01*
G01X242458D02*
X241342Y103123D01*
G01X242458Y104239D02*
X241342Y105355D01*
G01X239842Y104239D02*
X241878D01*
G01D02*
X242458D01*
G01X241878D02*
X241342Y103703D01*
G01X241878Y104239D02*
X241342Y104775D01*
G01X243037Y88060D02*
X241342Y86365D01*
G01X243037Y88060D02*
X241342Y89755D01*
G01X243037Y88060D02*
X242458D01*
G01D02*
X241342Y86944D01*
G01X242458Y88060D02*
X241342Y89176D01*
G01X242458Y88060D02*
X241878D01*
G01D02*
X239842D01*
G01X241878D02*
X241342Y87524D01*
G01X241878Y88060D02*
X241342Y88596D01*
G01X269220Y98921D02*
X267026D01*
G01D02*
X267221Y99116D01*
G01X267026Y98921D02*
X267220Y98726D01*
G01X203586Y133599D02*
X205562Y135576D01*
G01X203586Y133599D02*
X201610Y135576D01*
G01X203586Y137552D02*
Y134179D01*
G01D02*
Y133599D01*
G01Y134179D02*
X204983Y135576D01*
G01X203586Y134179D02*
X202189Y135576D01*
G01X267026Y93016D02*
X269220D01*
G01X267026D02*
X267221Y93211D01*
G01X267026Y93016D02*
X267220Y92821D01*
G01X263671Y93016D02*
X267026D01*
G01X263671D02*
X262609Y94077D01*
G01X263671Y93016D02*
X262609Y92883D01*
G01X255445Y87695D02*
X258893Y91143D01*
X266930D01*
G01D02*
X267221Y91242D01*
G01X266930Y91143D02*
X267220Y90852D01*
G01X255445Y87695D02*
X252750D01*
G01X255445D02*
Y85000D01*
G01X252750D02*
X255035Y87285D01*
G01D02*
X255445Y87695D01*
G01X255035Y87285D02*
X253160D01*
G01X255035D02*
Y85410D01*
G01X306207Y85000D02*
Y83806D01*
G01D02*
X306805Y84403D01*
G01X306207Y83806D02*
X305610Y84403D01*
G01X274367Y88286D02*
Y87166D01*
G01X294584Y100890D02*
X296780D01*
G01X294584D02*
X294780Y101085D01*
G01X294584Y100890D02*
X294780Y100695D01*
G01X294584Y89079D02*
X294780Y89274D01*
G01X294584Y89079D02*
X294780Y88884D01*
G01X317321Y85240D02*
X319309D01*
G01X317731Y85650D02*
X317321Y85240D01*
G01X317731Y85650D02*
X318899D01*
G01X314796Y87235D02*
X312656Y88906D01*
G01X314796Y87235D02*
X312656Y85094D01*
G01X314217Y87235D02*
X314796D01*
G01X314217D02*
X312656Y88453D01*
G01X314217Y87235D02*
X312656Y85674D01*
G01X289890Y107780D02*
X290186D01*
G01D02*
X290826Y107139D01*
G01X290186Y107780D02*
X290826Y108333D01*
G01X297714Y85980D02*
X295976Y86778D01*
G01X297714Y85980D02*
Y87105D01*
G01X253411Y142227D02*
X238261D01*
X236381Y140347D01*
G01X253411Y142227D02*
X255106Y143922D01*
G01X253411Y142227D02*
X255106Y140532D01*
G01X253411Y142227D02*
X253990D01*
G01D02*
X255106Y143343D01*
G01X253990Y142227D02*
X255106Y141111D01*
G01X253990Y142227D02*
X254570D01*
G01D02*
X256606D01*
G01X254570D02*
X255106Y142763D01*
G01X254570Y142227D02*
X255106Y141691D01*
G01X236381Y140347D02*
X233586D01*
G01X236381D02*
Y137552D01*
G01Y140347D02*
X235971Y139937D01*
G01D02*
X233586Y137552D01*
G01X235971Y139937D02*
X233996D01*
G01X235971D02*
Y137962D01*
G01X298974Y94984D02*
X296780D01*
G01X298974D02*
X298780Y94789D01*
G01X298974Y94984D02*
X298780Y95179D01*
G01X302008Y97634D02*
X301326Y96953D01*
X298974D01*
G01D02*
X296780D01*
G01X298974D02*
X298780Y96758D01*
G01X298974Y96953D02*
X298780Y97148D01*
G01X302852Y98479D02*
X302008Y97634D01*
G01D02*
X302852D01*
G01X302008D02*
Y98479D01*
G01X303697Y103526D02*
X302852Y104370D01*
G01X303697Y103526D02*
Y104370D01*
G01Y103526D02*
X302852D01*
G01X316730Y105915D02*
X315886Y105070D01*
G01D02*
X316730D01*
G01X315886D02*
Y105915D01*
G01X316180Y91818D02*
X317378Y93016D01*
X322026D01*
G01X315336Y90974D02*
X316180Y91818D01*
G01D02*
X315336D01*
G01X316180D02*
Y90974D01*
G01X294584Y98921D02*
X296780D01*
G01X294584D02*
X294780Y99116D01*
G01X294584Y98921D02*
X294780Y98726D01*
G01X253411Y158910D02*
X234944D01*
X216381Y140347D01*
G01X253411Y158910D02*
X255106Y160605D01*
G01X253411Y158910D02*
X255106Y157215D01*
G01X253990Y158910D02*
X253411D01*
G01X253990D02*
X255106Y160026D01*
G01X253990Y158910D02*
X255106Y157794D01*
G01X256606Y158910D02*
X254570D01*
G01D02*
X253990D01*
G01X254570D02*
X255106Y159446D01*
G01X254570Y158910D02*
X255106Y158374D01*
G01X216381Y140347D02*
X213586D01*
G01X216381D02*
Y137552D01*
G01Y140347D02*
X215971Y139937D01*
G01D02*
X213586Y137552D01*
G01X215971Y139937D02*
X213996D01*
G01X215971D02*
Y137962D01*
G01X266930Y87015D02*
X267221Y87305D01*
G01X266930Y87015D02*
X267221Y86915D01*
G01X335047Y78202D02*
Y80220D01*
G01X344890D02*
Y78721D01*
X345390Y78221D01*
G01X337016Y78026D02*
Y80220D01*
G01X330610Y78220D02*
X331110Y78720D01*
Y80220D01*
G01X345390Y78221D02*
X349364Y74247D01*
G01X345606Y74387D02*
X345197Y74797D01*
X342921Y77072D01*
Y78026D01*
G01X346096Y71937D02*
Y73897D01*
X345606Y74387D01*
G01X330096Y71937D02*
Y73251D01*
X330996Y74151D01*
G01X356500Y74565D02*
Y72537D01*
X355900Y71937D01*
G01X354557Y53376D02*
X359061Y57880D01*
Y60314D01*
X357714Y61661D01*
Y63893D01*
X359420Y65598D01*
Y73806D01*
G01X339900Y71937D02*
Y73037D01*
X340953Y74090D01*
Y78026D01*
G01X337532Y74072D02*
X336632Y73172D01*
Y71937D01*
G01X323000Y65000D02*
Y64500D01*
X321805Y63305D01*
Y59727D01*
G01X321710Y39142D02*
X324281Y41712D01*
Y51551D01*
X327326Y54596D01*
X333457D01*
X339900Y61039D01*
Y61468D01*
G01X330096Y64063D02*
Y62963D01*
X328016Y60883D01*
X325675D01*
G01X353064Y61783D02*
X352632Y62215D01*
Y64063D01*
G01X325000Y73000D02*
X325915Y73915D01*
X326305D01*
X330610Y78220D01*
G01X346683Y19912D02*
X348236Y21464D01*
Y53689D01*
X353064Y58517D01*
Y61783D01*
G01X328740Y43307D02*
Y43252D01*
X326545Y41057D01*
G01X333364Y71937D02*
Y74374D01*
G01D02*
X337016Y78026D01*
G01X349364Y74247D02*
Y71937D01*
G01X348464Y62061D02*
X349364Y62961D01*
Y64063D01*
G01X345019Y62097D02*
X346096D01*
Y64063D01*
G01X345806Y67915D02*
X347000D01*
G01X345713Y67822D02*
X346907D01*
X347000Y67915D01*
G01X352632Y74532D02*
Y71937D01*
G01X324521Y21975D02*
X325715D01*
G01X353974Y96953D02*
X354725D01*
X359617Y92061D01*
Y76391D01*
X359420Y76194D01*
G01D02*
Y75000D01*
G01X356500Y74565D02*
X357356Y75421D01*
Y75855D01*
X357924Y76423D01*
Y85898D01*
X354743Y89079D01*
X353974D01*
G01X351677Y84812D02*
Y75487D01*
X352632Y74532D01*
G01X342700Y62097D02*
X332642Y52038D01*
Y21618D01*
X330935Y19912D01*
G01X321386Y78630D02*
X322230Y79474D01*
G01X321386Y78630D02*
X322230D01*
G01X321386D02*
Y79474D01*
G01X342921Y78026D02*
Y80220D01*
G01Y78026D02*
X342726Y78220D01*
G01X342921Y78026D02*
X343116Y78221D01*
G01X345606Y74387D02*
X346572Y73937D01*
G01X345606Y74387D02*
Y73937D01*
G01X340953Y78026D02*
Y80220D01*
G01Y78026D02*
X340758Y78220D01*
G01X340953Y78026D02*
X341148Y78221D01*
G01X337016Y78026D02*
X336821Y78220D01*
G01X337016Y78026D02*
X337210Y78221D01*
G01X333364Y74374D02*
X333802Y73937D01*
G01X333364Y74374D02*
X332927Y73937D01*
G01X356500Y74565D02*
X356759Y70343D01*
G01X356500Y74565D02*
X355468Y73533D01*
G01X330610Y78220D02*
Y81916D01*
G01Y78220D02*
X331305Y78221D01*
G01X323000Y71000D02*
X325000Y73000D01*
G01D02*
X321805D01*
G01X352632Y74532D02*
X353227Y73937D01*
G01X352632Y74532D02*
X352037Y73937D01*
G01X338984Y78026D02*
Y75524D01*
X337532Y74072D01*
G01D02*
Y70242D01*
G01Y74072D02*
X336037Y73937D01*
G01X338984Y80220D02*
Y78026D01*
G01D02*
X338789Y78220D01*
G01X338984Y78026D02*
X339179Y78221D01*
G01X349364Y74247D02*
X349674Y73937D01*
G01X349364Y74247D02*
X349055Y73937D01*
G01X345390Y78221D02*
X344695D01*
G01X345390D02*
X345390Y81916D01*
G01X330996Y74151D02*
X335047Y78202D01*
G01X330996Y74151D02*
Y70242D01*
G01Y74151D02*
X329502Y73937D01*
G01X335047Y82416D02*
Y80220D01*
G01Y78202D02*
X335028Y78221D01*
G01X335047Y78202D02*
X335066Y78221D01*
G01X342293Y48986D02*
X344488Y51181D01*
G01X342293Y48986D02*
X344488D01*
G01X342293D02*
Y51181D01*
G01X348865Y80566D02*
Y79371D01*
G01Y80566D02*
X348268Y79968D01*
G01X348865Y80566D02*
X349462Y79968D01*
G01X354557Y48986D02*
X352362Y51181D01*
G01X354557Y48986D02*
Y51181D01*
G01Y48986D02*
X352362D01*
G01Y51181D02*
X354557Y53376D01*
G01D02*
X352362D01*
G01X354557D02*
Y51181D01*
G01X359420Y76194D02*
X358823Y75597D01*
G01X359420Y76194D02*
X360017Y75597D01*
G01X359420Y73806D02*
Y75000D01*
G01Y73806D02*
X360017Y74403D01*
G01X359420Y73806D02*
X358823Y74403D01*
G01X346683Y19912D02*
X344488Y17717D01*
G01X346683Y19912D02*
X344488D01*
G01X346683D02*
Y17717D01*
G01X353064Y61783D02*
X352116Y62258D01*
G01X353064Y61783D02*
Y64602D01*
G01X326529Y29850D02*
X327723D01*
G01X326529D02*
X327126Y29253D01*
G01X326529Y29850D02*
X327126Y30447D01*
G01X333364Y64063D02*
Y61468D01*
G01D02*
Y60210D01*
X333000Y59846D01*
G01X333364Y61468D02*
X332769Y62063D01*
G01X333364Y61468D02*
X333959Y62063D01*
G01X333000Y59846D02*
X332155Y59001D01*
G01X333000Y59846D02*
X332155D01*
G01X333000D02*
Y59001D01*
G01X342700Y62097D02*
X345532Y64928D01*
G01X342700Y62097D02*
X346689Y62071D01*
G01X342700Y62097D02*
X343280D01*
G01D02*
X345699Y64516D01*
G01X343280Y62097D02*
X343860D01*
G01D02*
X345866Y64103D01*
G01X343860Y62097D02*
X344439D01*
G01D02*
X346033Y63691D01*
G01X344439Y62097D02*
X345019D01*
G01D02*
X346200Y63278D01*
G01X330935Y19912D02*
X328740Y17717D01*
G01X330935Y19912D02*
X328740D01*
G01X330935D02*
Y17717D01*
G01X355900Y61468D02*
Y60556D01*
X356152Y60304D01*
G01D02*
X356997Y59459D01*
G01X356152Y60304D02*
Y59459D01*
G01Y60304D02*
X356997D01*
G01X355900Y64063D02*
Y61468D01*
G01D02*
X355305Y62063D01*
G01X355900Y61468D02*
X356495Y62063D01*
G01X336632Y61468D02*
Y64063D01*
G01Y61468D02*
X336037Y62063D01*
G01X336632Y61468D02*
X337227Y62063D01*
G01X321805Y59727D02*
Y58533D01*
G01Y59727D02*
X321208Y59130D01*
G01X321805Y59727D02*
X322402Y59130D01*
G01X347903Y59051D02*
Y61500D01*
X348464Y62061D01*
G01D02*
Y65758D01*
G01Y62061D02*
X349959Y62063D01*
G01X347903Y57857D02*
Y59051D01*
G01D02*
X347306Y58454D01*
G01X347903Y59051D02*
X348500Y58454D01*
G01X326545Y41057D02*
X328740Y41112D01*
G01X326545Y41057D02*
Y43307D01*
G01X325675Y60883D02*
X324481D01*
G01X325675D02*
X325078Y61480D01*
G01X325675Y60883D02*
X325078Y60286D01*
G01X339900Y61468D02*
Y64063D01*
G01Y61468D02*
X339305Y62063D01*
G01X339900Y61468D02*
X340495Y62063D01*
G01X320866Y38297D02*
X321710Y39142D01*
G01D02*
X320866D01*
G01X321710D02*
Y38297D01*
G01X324464Y85854D02*
Y77980D01*
G01D02*
Y76786D01*
G01Y77980D02*
X323867Y77383D01*
G01X324464Y77980D02*
X325061Y77383D01*
G01X324521Y21975D02*
X325118Y21378D01*
G01X324521Y21975D02*
X325118Y22572D01*
G01X345713Y67822D02*
X346403Y67318D01*
G01X345713Y67822D02*
X346403Y68512D01*
G01X345806Y67915D02*
X346403Y67318D01*
G01X345806Y67915D02*
X346403Y68512D01*
G01X334272Y67822D02*
X335467D01*
G01D02*
X345713D01*
G01X335467D02*
X334870Y68419D01*
G01X335467Y67822D02*
X334870Y67225D01*
G01X337016Y113484D02*
X337058Y113442D01*
Y110252D01*
X337016Y110209D01*
G01X325459Y103149D02*
X327702D01*
X328915Y101936D01*
X343012D01*
X346631Y98317D01*
X346635D01*
X348000Y96953D01*
X349584D01*
G01X325459Y103149D02*
X324271D01*
X324265Y103154D01*
X324259D01*
G01X337484Y104020D02*
X337352D01*
X337332Y104000D01*
G01X322039Y98921D02*
X324220D01*
G01X344695Y109800D02*
X344890Y109605D01*
Y107780D01*
G01X351780Y100890D02*
Y101084D01*
X352630D01*
X353370Y101824D01*
G01X351780Y87110D02*
X351677Y87007D01*
Y85971D01*
G01X324220Y87110D02*
X325720D01*
X324874Y86264D01*
G01X342233Y111500D02*
X342994D01*
X344390Y110105D01*
X344695Y109800D01*
G01X341000Y111539D02*
X341039Y111500D01*
X342233D01*
G01X355220Y99462D02*
X356064Y100307D01*
Y100348D01*
G01X349584Y94984D02*
X347984D01*
X345448Y92448D01*
Y89712D01*
X345805Y89355D01*
Y87530D01*
X349182Y84152D01*
Y80883D01*
X348865Y80566D01*
G01X322026Y91047D02*
X324220D01*
G01X324128Y157388D02*
X324606Y156910D01*
X325856Y155660D01*
Y139118D01*
X323635Y136897D01*
Y117673D01*
X324648Y116661D01*
Y106685D01*
X321972Y104009D01*
Y102299D01*
X322221Y102051D01*
X322526Y101746D01*
G01D02*
X323182Y101090D01*
X324020D01*
X324220Y100890D01*
G01X324128Y157388D02*
X322606Y158910D01*
G01X322237Y139541D02*
X321874Y140227D01*
G01X322318Y141940D02*
X322237Y141858D01*
Y139541D01*
G01X321411Y140227D02*
X322237Y138663D01*
Y139541D01*
G01X322318Y141940D02*
X322606Y142227D01*
G01X344695Y109800D02*
X345085Y109780D01*
G01X344695Y109800D02*
Y109780D01*
G01X342233Y111500D02*
X341597Y112136D01*
G01X342233Y111500D02*
X341597Y110942D01*
G01X353850Y102304D02*
X354695Y103149D01*
G01X353850Y102304D02*
X354695D01*
G01X353850D02*
Y103149D01*
G01X353780Y102234D02*
X353850Y102304D01*
G01X353780Y102234D02*
Y100695D01*
G01X353370Y101824D02*
X353780Y102234D01*
G01X353370Y101824D02*
Y100772D01*
G01X351780Y98921D02*
X353974D01*
G01D02*
X354679D01*
X355220Y99462D01*
G01X353974Y98921D02*
X353780Y98726D01*
G01X353974Y98921D02*
X353780Y99116D01*
G01X355220Y99462D02*
X356064Y99504D01*
G01X355220Y99462D02*
Y100348D01*
G01X324128Y157388D02*
X324106D01*
G01X324128D02*
X324106Y157767D01*
G01X322526Y101746D02*
Y101390D01*
G01X322026Y91047D02*
X322221Y91242D01*
G01X322026Y91047D02*
X322220Y90852D01*
G01X322039Y98921D02*
X322221Y99103D01*
G01X322039Y98921D02*
X322220Y98740D01*
G01X353974Y89079D02*
X351780D01*
G01X353974D02*
X353780Y88884D01*
G01X353974Y89079D02*
X353780Y89274D01*
G01X351677Y84812D02*
X350084Y86610D01*
G01X351677Y84812D02*
X353475Y86610D01*
G01X351677Y85392D02*
Y84812D01*
G01Y85392D02*
X350598Y86610D01*
G01X351677Y85392D02*
X352895Y86610D01*
G01X351677Y85971D02*
Y85392D01*
G01Y85971D02*
X351111Y86610D01*
G01X351677Y85971D02*
X352316Y86610D01*
G01X338984Y107780D02*
Y105585D01*
G01D02*
Y105521D01*
X338328Y104865D01*
G01X338984Y105585D02*
X338789Y105780D01*
G01X338984Y105585D02*
X339179Y105780D01*
G01X338328Y104865D02*
X337484Y104020D01*
G01X338328Y104865D02*
X337484D01*
G01X338328D02*
Y104020D01*
G01X335047Y82416D02*
X335242Y82221D01*
G01X335047Y82416D02*
X334852Y82221D01*
G01X343741Y88500D02*
X342896Y87656D01*
G01D02*
X343741D01*
G01X342896D02*
Y88500D01*
G01X351780Y94984D02*
X349584D01*
G01D02*
X349780Y95179D01*
G01X349584Y94984D02*
X349780Y94789D01*
G01X325459Y103149D02*
X324856Y103752D01*
G01X325459Y103149D02*
X324856Y102557D01*
G01X353974Y96953D02*
X351780D01*
G01X353974D02*
X353780Y96758D01*
G01X353974Y96953D02*
X353780Y97148D01*
G01X349584Y96953D02*
X351780D01*
G01X349584D02*
X349780Y97148D01*
G01X349584Y96953D02*
X349780Y96758D01*
G01X322026Y93016D02*
X324220D01*
G01X322026D02*
X322221Y93211D01*
G01X322026Y93016D02*
X322220Y92821D01*
G01X324464Y85854D02*
Y86883D01*
G01Y85854D02*
X325493Y86690D01*
G01X324874Y86264D02*
X324464Y85854D01*
G01X324874Y86264D02*
Y86806D01*
G01X342896Y87656D02*
X339159Y83918D01*
X336550D01*
X335047Y82416D01*
G54D14*
X183586Y137552D03*
G54D24*
G01X273279Y83231D02*
X275051D01*
X275151Y83330D01*
X277070D01*
X278079Y82322D01*
Y80220D01*
G01X290747Y113189D02*
X288451D01*
X286297Y111035D01*
X283170D01*
X282374Y110239D01*
Y110029D01*
X282016Y109670D01*
Y107780D01*
G01X285263Y113294D02*
X285165Y113196D01*
X282772D01*
X280709Y111133D01*
Y110640D01*
X280406Y110337D01*
Y109775D01*
X280047Y109416D01*
G01X278425Y111496D02*
X278079Y111150D01*
Y110231D01*
G01X283984Y107780D02*
Y101623D01*
X285064Y100543D01*
G01X262825Y97984D02*
X263000D01*
X263478Y97507D01*
X264221D01*
G01D02*
X266239D01*
X266792Y96953D01*
X269220D01*
G01X265057Y95247D02*
X265763D01*
X266026Y94984D01*
X266238D01*
G01X324220Y89079D02*
X319579D01*
G01X324220Y94984D02*
X319516D01*
X318956Y95544D01*
G01X276110Y107780D02*
X274780D01*
X273000Y106000D01*
G01X318956Y95544D02*
X318307Y96193D01*
Y96500D01*
G01X296780Y91047D02*
X299453D01*
X299821Y90679D01*
Y90106D01*
X299889Y90038D01*
Y89616D01*
X300992Y88513D01*
Y87359D01*
G01X296780Y93016D02*
X294679D01*
X292194Y95500D01*
X291000D01*
G01X269220Y89079D02*
X264579D01*
G01X271711Y82582D02*
X272360Y83231D01*
X273279D01*
G01X266238Y94984D02*
X269220D01*
G01X266238D02*
X265516Y95707D01*
G01X266238Y94984D02*
X265516Y94788D01*
G01X318956Y95544D02*
Y96500D01*
G01Y95544D02*
X318307Y95851D01*
G01X273279Y83231D02*
X272170Y82123D01*
G01X278079Y110231D02*
Y107780D01*
G01Y110231D02*
X278884Y111037D01*
G01X278079Y110231D02*
X277966Y111037D01*
G01X264221Y97507D02*
X263284Y98444D01*
G01X333079Y80220D02*
Y82982D01*
X331252Y84809D01*
X329453D01*
X327144Y82500D01*
G01X337016Y107780D02*
Y110209D01*
G01X325800Y118428D02*
X328600Y115628D01*
X331032D01*
X335047Y111613D01*
Y107780D01*
G01X337016Y113484D02*
X332000Y118500D01*
G01X337016Y110209D02*
Y113484D01*
G01X332070Y104670D02*
X331420Y104020D01*
X330810D01*
G01X333079Y107780D02*
Y105679D01*
X332070Y104670D01*
G01X331196Y99872D02*
Y99196D01*
X330547Y98547D01*
G01X331110Y107780D02*
X329089D01*
X326810Y105500D01*
G01X351780Y91047D02*
X356163D01*
X356851Y90359D01*
G01X324220Y96953D02*
X328953D01*
X330547Y98547D01*
G01D02*
Y99878D01*
G01X356851Y90359D02*
X357500Y89710D01*
Y89241D01*
G01X347512Y91527D02*
Y90609D01*
X347862Y90259D01*
G01X347512Y91527D02*
X347402Y90718D01*
G01X347512Y91527D02*
X348321Y90718D01*
G01X332070Y104670D02*
X330810D01*
G01X332070D02*
X331459Y104020D01*
G01X330547Y98547D02*
Y99872D01*
G01X356851Y90359D02*
Y89241D01*
G01Y90359D02*
X357500Y89890D01*
G01X351780Y93016D02*
X349000D01*
X347512Y91527D01*
G54D15*
X195264Y83638D03*
X174522Y83019D03*
X179842Y100479D03*
X191842D03*
X197842D03*
X248348Y80818D03*
X256346Y76688D03*
X245086Y61040D03*
X297290Y34167D03*
Y38297D03*
X258004Y60303D03*
X284911Y38947D03*
X291436Y57788D03*
X248650Y55441D03*
X284892Y57647D03*
X251244Y57498D03*
X277037Y46722D03*
X321805Y58533D03*
X292785Y46722D03*
X308533Y30226D03*
X317000Y60449D03*
X320866Y38297D03*
X317451Y47244D03*
X301659Y73135D03*
X258040Y79990D03*
X293830Y75700D03*
X247070Y75180D03*
X310200Y80500D03*
X320707Y75870D03*
X316000Y81000D03*
X271000Y76500D03*
X298831Y61240D03*
X316500Y55475D03*
X301000Y54500D03*
X308642Y53574D03*
X313557Y55403D03*
X301500Y67885D03*
X277000Y40500D03*
X275500Y56000D03*
X285263Y113294D03*
X278425Y111496D03*
X290747Y113189D03*
X293072Y131564D03*
X286635Y131565D03*
X285064Y100543D03*
X291423Y107736D03*
X265057Y95247D03*
X233842Y84300D03*
X221842D03*
X209842Y84319D03*
X221842Y100479D03*
X209842D03*
X233842D03*
X306500Y101000D03*
X277512Y88500D03*
X277500Y94000D03*
X315336Y90974D03*
X319309Y86085D03*
X262012Y93480D03*
X264870Y101770D03*
X317740Y103000D03*
X245240Y100000D03*
Y94000D03*
X261300Y113370D03*
X316730Y105915D03*
X302852Y104370D03*
Y98479D03*
X273000Y106000D03*
X302000Y111500D03*
X294000Y110080D03*
X318307Y96500D03*
X271058Y109147D03*
X264579Y89079D03*
X262825Y97984D03*
X319579Y89079D03*
X292500Y84000D03*
X277500Y99500D03*
X300992Y87359D03*
X284000Y84500D03*
X308724Y96500D03*
X291000Y95500D03*
X299000Y104500D03*
X306207Y85000D03*
X271711Y82582D03*
X273897Y86792D03*
X262606Y155150D03*
Y138467D03*
X316606Y155150D03*
X304606D03*
X292606D03*
X304606Y138467D03*
X292606D03*
X316606D03*
X280606Y155150D03*
X274606D03*
X280606Y138467D03*
X274606D03*
X359778Y62657D03*
X322230Y79474D03*
X332155Y59001D03*
X327723Y29850D03*
X324481Y60883D03*
X324464Y76786D03*
X325715Y21975D03*
X347903Y57857D03*
X351000Y60150D03*
X356997Y59459D03*
X347000Y67915D03*
X348865Y79371D03*
X334272Y67822D03*
X359420Y75000D03*
X331196Y99872D03*
X324259Y103154D03*
X330810Y104020D03*
X337484D03*
X322251Y108500D03*
X354695Y103149D03*
X332000Y131760D03*
X326000D03*
X351060Y103150D03*
X325800Y118428D03*
X332000Y118500D03*
X326810Y105500D03*
X343741Y88500D03*
X327144Y82500D03*
X357500Y89241D03*
X343733Y85267D03*
X334800Y98842D03*
X341000Y111539D03*
X347118Y83297D03*
X337000Y88500D03*
X356064Y100348D03*
X347862Y90259D03*
X355500Y110500D03*
X351000Y103149D03*
G54D25*
G01X192342Y86060D02*
X191842Y85560D01*
G01X180342Y86060D02*
X179842Y85560D01*
G01X197842D02*
X198342Y86060D01*
G01X197342D02*
X197842Y85560D01*
G01X185842Y88060D02*
X183842Y90060D01*
G01D02*
X181842Y92060D01*
G01D02*
X179842Y94060D01*
G01X201842Y90060D02*
X199842Y92060D01*
G01D02*
X197842Y94060D01*
G01X195264Y83638D02*
X193764D01*
X191842Y85560D01*
G01X174522Y83019D02*
X177301D01*
X179842Y85560D01*
G01X197842Y86216D02*
Y88060D01*
G01Y85560D02*
Y86216D01*
G01X195264Y83638D02*
X197842Y86216D01*
G01X179842Y85560D02*
Y88060D01*
G01X191842Y85560D02*
Y88060D01*
G01X197842Y110239D02*
X199842Y108239D01*
G01D02*
X201842Y106239D01*
G01X179842Y110239D02*
X181842Y108239D01*
G01D02*
X183842Y106239D01*
G01X185842Y104239D02*
X183842Y106239D01*
G01D02*
X184342Y103239D01*
G01X179842Y101739D02*
Y100479D01*
G01X180342Y102239D02*
X179842Y101739D01*
G01X191842D02*
Y100479D01*
G01X192342Y102239D02*
X191842Y101739D01*
G01X197842D02*
Y100479D01*
G01X198342Y102239D02*
X197842Y101739D01*
G01D02*
Y104239D01*
G01X191842Y101739D02*
Y104239D01*
G01X179842Y101739D02*
Y104239D01*
G01X199842Y92060D02*
X197342D01*
G01X199842D02*
X199342Y95060D01*
G01X199842Y108239D02*
X197342D01*
G01X199842D02*
X199342Y111239D01*
G01X183842Y106239D02*
X186342D01*
G01X183842D02*
X184342Y103239D01*
G01X181842Y108239D02*
X179342D01*
G01X181842D02*
X181342Y111239D01*
G01X181842Y92060D02*
X179342D01*
G01X181842D02*
X181342Y95060D01*
G01X183842Y90060D02*
X186342D01*
G01X183842D02*
X184342Y87060D01*
G01X191842Y85560D02*
X191342Y86060D01*
G01X191842Y85560D02*
X192342Y86060D01*
G01X179842Y85560D02*
X179342Y86060D01*
G01X179842Y85560D02*
X180342Y86060D01*
G01X179842Y101739D02*
X179342Y102239D01*
G01X179842Y101739D02*
X180342Y102239D01*
G01X191842Y101739D02*
X191342Y102239D01*
G01X191842Y101739D02*
X192342Y102239D01*
G01X197842Y101739D02*
X197342Y102239D01*
G01X197842Y101739D02*
X198342Y102239D01*
G01X201842Y90060D02*
X202342Y87060D01*
G01X203842Y88060D02*
X201842Y90060D01*
G01X234342Y86060D02*
X233842Y85560D01*
G01D02*
Y88060D01*
G01Y84300D02*
Y85560D01*
G01X222342Y86060D02*
X221842Y85560D01*
G01D02*
Y88060D01*
G01Y84300D02*
Y85560D01*
G01X210342Y86060D02*
X209842Y85560D01*
G01D02*
Y88060D01*
G01Y84319D02*
Y85560D01*
G01X204342Y90060D02*
X201842D01*
G01X225842D02*
X223842Y92060D01*
G01D02*
X221842Y94060D01*
G01X227842Y88060D02*
X225842Y90060D01*
G01X211842Y92060D02*
X213842Y90060D01*
G01D02*
X215842Y88060D01*
G01X209842Y94060D02*
X211842Y92060D01*
G01X226065Y106239D02*
X225981D01*
X224065Y108155D01*
Y108239D01*
G01X209842Y110239D02*
X211842Y108239D01*
G01D02*
X213842Y106239D01*
G01X224065Y108239D02*
X222480Y109824D01*
X222257D01*
X221842Y110239D01*
G01X215842Y104239D02*
X213842Y106239D01*
G01X227842Y104239D02*
Y104462D01*
X226065Y106239D01*
G01X213842D02*
X214342Y103239D01*
G01X226065Y106239D02*
X226342Y103239D01*
G01X221842Y101739D02*
Y100479D01*
G01X222342Y102239D02*
X221842Y101739D01*
G01X209842D02*
Y100479D01*
G01X210342Y102239D02*
X209842Y101739D01*
G01X233842D02*
Y100479D01*
G01X234342Y102239D02*
X233842Y101739D01*
G01X203842Y104239D02*
X201842Y106239D01*
G01D02*
X202342Y103239D01*
G01X209842Y101739D02*
Y104239D01*
G01X221842Y101739D02*
Y104239D01*
G01X233842Y101739D02*
Y104239D01*
G01X262606Y156410D02*
Y158910D01*
G01Y139727D02*
Y142227D01*
G01X316606Y156410D02*
Y158910D01*
G01X304606Y156410D02*
Y158910D01*
G01X292606Y156410D02*
Y158910D01*
G01Y139727D02*
Y142227D01*
G01X304606Y139727D02*
Y142227D01*
G01X316606Y139727D02*
Y142227D01*
G01X280606Y156410D02*
Y158910D01*
G01X274606Y156410D02*
Y158910D01*
G01Y139727D02*
Y142227D01*
G01X280606Y139727D02*
Y142227D01*
G01X263106Y156910D02*
X262606Y156410D01*
G01Y155150D02*
Y156410D01*
G01X264606Y146227D02*
X262606Y148227D01*
G01X266606Y144227D02*
X264606Y146227D01*
G01X268606Y142227D02*
X266606Y144227D01*
G01X262106Y140227D02*
X262606Y139727D01*
G01Y138467D02*
Y139727D01*
G01X263106Y140227D02*
X262606Y139727D01*
G01X266383Y160910D02*
X264383Y162910D01*
G01X268606Y158910D02*
X268383D01*
X266383Y160910D01*
G01X264383Y162910D02*
X262606Y164687D01*
Y164910D01*
G01X317106Y156910D02*
X316606Y156410D01*
G01Y155150D02*
Y156410D01*
G01X305106Y156910D02*
X304606Y156410D01*
G01Y155150D02*
Y156410D01*
G01X293106Y156910D02*
X292606Y156410D01*
G01Y155150D02*
Y156410D01*
G01X308606Y160910D02*
X310606Y158910D01*
G01X296606Y160910D02*
X298606Y158910D01*
G01X294606Y146227D02*
X292606Y148227D01*
G01X296606Y144227D02*
X298606Y142227D01*
G01X294606Y146227D02*
X296606Y144227D01*
G01X306606Y146227D02*
X305106Y147727D01*
X304606D01*
G01X308606Y144227D02*
X310606Y142227D01*
G01X306606Y146227D02*
X308606Y144227D01*
G01X304106Y140227D02*
X304606Y139727D01*
G01Y138467D02*
Y139727D01*
G01X305106Y140227D02*
X304606Y139727D01*
G01X292106Y140227D02*
X292606Y139727D01*
G01Y138467D02*
Y139727D01*
G01X293106Y140227D02*
X292606Y139727D01*
G01X316106Y140227D02*
X316606Y139727D01*
G01Y138467D02*
Y139727D01*
G01X317106Y140227D02*
X316606Y139727D01*
G01X281106Y156910D02*
X280606Y156410D01*
G01Y155150D02*
Y156410D01*
G01X275106Y156910D02*
X274606Y156410D01*
G01Y155150D02*
Y156410D01*
G01X284606Y160910D02*
X286606Y158910D01*
G01X282606Y146227D02*
X280606Y148227D01*
G01X284606Y144227D02*
X286606Y142227D01*
G01X282606Y146227D02*
X284606Y144227D01*
G01X280106Y140227D02*
X280606Y139727D01*
G01Y138467D02*
Y139727D01*
G01X281106Y140227D02*
X280606Y139727D01*
G01X274106Y140227D02*
X274606Y139727D01*
G01Y138467D02*
Y139727D01*
G01X275106Y140227D02*
X274606Y139727D01*
G01X306606Y162910D02*
X308606Y160910D01*
G01X304606Y164910D02*
X306606Y162910D01*
G01X294606D02*
X296606Y160910D01*
G01X292606Y164910D02*
X294606Y162910D01*
G01X282606D02*
X284606Y160910D01*
G01X280606Y164910D02*
X282606Y162910D01*
G01X213842Y90060D02*
X216342D01*
G01X213842D02*
X214342Y87060D01*
G01X211842Y92060D02*
X209342D01*
G01X211842D02*
X211342Y95060D01*
G01X201842Y90060D02*
X204342D01*
G01X201842D02*
X202342Y87060D01*
G01X284606Y160910D02*
X287106D01*
G01X284606D02*
X285106Y157910D01*
G01X282606Y162910D02*
X280106D01*
G01X282606D02*
X282106Y165910D01*
G01X296606Y160910D02*
X299106D01*
G01X296606D02*
X297106Y157910D01*
G01X294606Y162910D02*
X292106D01*
G01X294606D02*
X294106Y165910D01*
G01X266383Y160910D02*
X269106D01*
G01X266383D02*
X267106Y157910D01*
G01X264383Y162910D02*
X262106D01*
G01X264383D02*
X264106Y165910D01*
G01X223842Y92060D02*
X221342D01*
G01X223842D02*
X223342Y95060D01*
G01X225842Y90060D02*
X228342D01*
G01X225842D02*
X226342Y87060D01*
G01X201842Y106239D02*
X204342D01*
G01X201842D02*
X202342Y103239D01*
G01X308606Y160910D02*
X311106D01*
G01X308606D02*
X309106Y157910D01*
G01X306606Y162910D02*
X304106D01*
G01X306606D02*
X306106Y165910D01*
G01X213842Y106239D02*
X216342D01*
G01X213842D02*
X214342Y103239D01*
G01X211842Y108239D02*
X209342D01*
G01X211842D02*
X211342Y111239D01*
G01X224065Y108239D02*
X221342D01*
G01X224065D02*
X223342Y111239D01*
G01X226065Y106239D02*
X228342D01*
G01X226065D02*
X226342Y103239D01*
G01X282606Y146227D02*
X280106D01*
G01X282606D02*
X282106Y149227D01*
G01X284606Y144227D02*
X287106D01*
G01X284606D02*
X285106Y141227D01*
G01X264606Y146227D02*
X262106D01*
G01X264606D02*
X264106Y149227D01*
G01X266606Y144227D02*
X269106D01*
G01X266606D02*
X267106Y141227D01*
G01X294606Y146227D02*
X292106D01*
G01X294606D02*
X294106Y149227D01*
G01X296606Y144227D02*
X299106D01*
G01X296606D02*
X297106Y141227D01*
G01X306606Y146227D02*
X304106D01*
G01X306606D02*
X306106Y149227D01*
G01X308606Y144227D02*
X311106D01*
G01X308606D02*
X309106Y141227D01*
G01X209842Y85560D02*
X209342Y86060D01*
G01X209842Y85560D02*
X210342Y86060D01*
G01X221842Y85560D02*
X221342Y86060D01*
G01X221842Y85560D02*
X222342Y86060D01*
G01X233842Y85560D02*
X233342Y86060D01*
G01X233842Y85560D02*
X234342Y86060D01*
G01X221842Y101739D02*
X221342Y102239D01*
G01X221842Y101739D02*
X222342Y102239D01*
G01X209842Y101739D02*
X209342Y102239D01*
G01X209842Y101739D02*
X210342Y102239D01*
G01X233842Y101739D02*
X233342Y102239D01*
G01X233842Y101739D02*
X234342Y102239D01*
G01X274606Y139727D02*
X274106Y140227D01*
G01X274606Y139727D02*
X275106Y140227D01*
G01X280606Y139727D02*
X280106Y140227D01*
G01X280606Y139727D02*
X281106Y140227D01*
G01X274606Y156410D02*
X274106Y156910D01*
G01X274606Y156410D02*
X275106Y156910D01*
G01X280606Y156410D02*
X280106Y156910D01*
G01X280606Y156410D02*
X281106Y156910D01*
G01X316606Y139727D02*
X316106Y140227D01*
G01X316606Y139727D02*
X317106Y140227D01*
G01X292606Y139727D02*
X292106Y140227D01*
G01X292606Y139727D02*
X293106Y140227D01*
G01X304606Y139727D02*
X304106Y140227D01*
G01X304606Y139727D02*
X305106Y140227D01*
G01X292606Y156410D02*
X292106Y156910D01*
G01X292606Y156410D02*
X293106Y156910D01*
G01X304606Y156410D02*
X304106Y156910D01*
G01X304606Y156410D02*
X305106Y156910D01*
G01X316606Y156410D02*
X316106Y156910D01*
G01X316606Y156410D02*
X317106Y156910D01*
G01X262606Y139727D02*
X262106Y140227D01*
G01X262606Y139727D02*
X263106Y140227D01*
G01X262606Y156410D02*
X262106Y156910D01*
G01X262606Y156410D02*
X263106Y156910D01*
G54D16*
X173842Y88060D03*
Y94060D03*
X179842D03*
Y88060D03*
X185842D03*
Y94060D03*
X191842D03*
Y88060D03*
X197842Y94060D03*
Y88060D03*
X173842Y104239D03*
Y110239D03*
X197842D03*
Y104239D03*
X191842Y110239D03*
Y104239D03*
X185842D03*
Y110239D03*
X179842D03*
Y104239D03*
X245000Y71000D03*
Y65000D03*
X305000Y71000D03*
Y65000D03*
X257000Y71000D03*
Y65000D03*
X263000Y71000D03*
Y65000D03*
X251000Y71000D03*
Y65000D03*
X317000Y71000D03*
Y65000D03*
X311000Y71000D03*
Y65000D03*
X203842Y88060D03*
Y94060D03*
X215842Y88060D03*
Y94060D03*
X221842D03*
Y88060D03*
X227842D03*
Y94060D03*
X233842D03*
Y88060D03*
X209842Y94060D03*
Y88060D03*
Y110239D03*
Y104239D03*
X215842D03*
Y110239D03*
X203842Y104239D03*
Y110239D03*
X221842D03*
Y104239D03*
X227842D03*
Y110239D03*
X233842D03*
Y104239D03*
X239842Y94060D03*
Y88060D03*
Y110239D03*
Y104239D03*
X268606Y164910D03*
Y158910D03*
X262606D03*
Y164910D03*
X256606D03*
Y158910D03*
X262606Y142227D03*
Y148227D03*
X268606D03*
Y142227D03*
X316606Y158910D03*
Y164910D03*
X310606D03*
Y158910D03*
X304606D03*
Y164910D03*
X298606D03*
Y158910D03*
X292606D03*
Y164910D03*
Y142227D03*
Y148227D03*
X298606D03*
Y142227D03*
X304606D03*
Y148227D03*
X310606D03*
Y142227D03*
X316606D03*
Y148227D03*
X280606Y158910D03*
Y164910D03*
X274606Y158910D03*
Y164910D03*
X286606D03*
Y158910D03*
Y148227D03*
Y142227D03*
X274606D03*
Y148227D03*
X280606Y142227D03*
Y148227D03*
X256606D03*
Y142227D03*
X323000Y71000D03*
Y65000D03*
X322606Y158910D03*
Y164910D03*
Y142227D03*
Y148227D03*
G54D26*
G01X200272Y58379D02*
X197466Y55573D01*
Y53611D01*
G01Y40611D02*
Y36585D01*
G01D02*
X195403Y34522D01*
G01X201116Y59223D02*
X200272Y58379D01*
G01D02*
Y52305D01*
G01Y58379D02*
X196042Y56535D01*
G01X197466Y36585D02*
X196440Y37611D01*
G01X197466Y36585D02*
X198492Y37611D01*
G01X173842Y94060D02*
X179842D01*
G01X191842D02*
Y94560D01*
X192342Y94060D01*
X197842D01*
G01X185842D02*
X191842D01*
G01X190842Y110239D02*
X185842D01*
G01X190842D02*
X190976Y110373D01*
X197708D01*
X197842Y110239D01*
G01X173842D02*
X179842D01*
G01X208405Y53611D02*
X207981D01*
X205176Y50806D01*
G01D02*
X203069Y48699D01*
Y47896D01*
X202453Y47280D01*
G01X205176Y50806D02*
X205566Y54950D01*
G01X205176Y50806D02*
X209711D01*
G01X205176D02*
X202953Y47280D01*
G01X208405Y40611D02*
X212905D01*
G01D02*
X214390D01*
G01X212905D02*
X211405Y39111D01*
G01X212905Y40611D02*
X211405Y42111D01*
G01X233842Y94060D02*
X227842D01*
G01X239842D02*
X233842D01*
G01X221842D02*
X215842D01*
G01X203842D02*
X209842D01*
G01X221842Y110239D02*
X215842D01*
G01X203842D02*
X209842D01*
G01X239842D02*
X233842D01*
G01X227842D02*
X233842D01*
G01X256606Y164910D02*
X262606D01*
G01X298606Y148227D02*
X304606D01*
G01X316606D02*
X310606D01*
G01X322606D02*
X316606D01*
G01X304606Y147727D02*
Y148227D01*
G01X286606D02*
X292606D01*
G01X274606D02*
X268606D01*
G01X280606D02*
X274606D01*
G01X298606Y164910D02*
X304606D01*
G01X316606D02*
X322606D01*
G01X316606D02*
X310606D01*
G01X268606D02*
X274606D01*
G01D02*
X280606D01*
G01X292606D02*
X286606D01*
G01X256606Y148227D02*
X262606D01*
G54D17*
X289890Y80220D03*
X287921D03*
X285953D03*
X283984D03*
X282016D03*
X280047D03*
X278079D03*
X276110D03*
Y107780D03*
X278079D03*
X280047D03*
X282016D03*
X283984D03*
X285953D03*
X287921D03*
X289890D03*
X331110Y80220D03*
X333079D03*
X335047D03*
X337016D03*
X338984D03*
X340953D03*
X342921D03*
X344890D03*
Y107780D03*
X342921D03*
X340953D03*
X338984D03*
X337016D03*
X335047D03*
X333079D03*
X331110D03*
G54D27*
G01X191000Y40000D02*
Y6000D01*
X192000D01*
G01X164000Y139000D02*
Y40000D01*
X191000D01*
G01X192000Y6000D02*
X362000D01*
G01X164000Y142000D02*
Y180914D01*
X164001Y180915D01*
X362001D01*
Y6001D01*
X362000Y6000D01*
D01*
G01X164000Y139000D02*
Y142000D01*
G01X362000D02*
Y180580D01*
G01Y142000D02*
Y139000D01*
G54D18*
X270096Y64063D03*
X273364D03*
X276632D03*
X279900D03*
Y71937D03*
X276632D03*
X273364D03*
X270096D03*
X286096Y64063D03*
X289364D03*
X292632D03*
X295900D03*
Y71937D03*
X292632D03*
X289364D03*
X286096D03*
X330096Y64063D03*
X333364D03*
X336632D03*
X339900D03*
Y71937D03*
X336632D03*
X333364D03*
X330096D03*
X346096Y64063D03*
X349364D03*
X352632D03*
X355900D03*
Y71937D03*
X352632D03*
X349364D03*
X346096D03*
G54D19*
X226378Y43307D03*
X352362Y25591D03*
M02*
