G04 ================== begin FILE IDENTIFICATION RECORD ==================*
G04 Layout Name:  E:/EMB002/project/hardware/LED_LCD_WIG/LED.brd*
G04 Film Name:    Silk_Top*
G04 File Format:  Gerber RS274X*
G04 File Origin:  15.7-p007*
G04 Origin Date:  Fri May 15 15:32:19 2009*
G04 *
G04 Layer:  REF DES/ASSEMBLY_TOP*
G04 Layer:  PACKAGE GEOMETRY/SILKSCREEN_TOP*
G04 Layer:  BOARD GEOMETRY/OUTLINE*
G04 *
G04 Offset:    (0.000 0.000)*
G04 Mirror:    No*
G04 Mode:      Positive*
G04 Rotation:  0*
G04 FullContactRelief:  No*
G04 UndefLineWidth:     10.000*
G04 ================== end FILE IDENTIFICATION RECORD ====================*
%FSLAX53Y53*MOIN*%
%IR0*IPPOS*OFA0.00000B0.00000*MIA0B0*SFA1.00000B1.00000*%
%ADD10C,.01*%
G75*
%LPD*%
G75*
G54D10*
G01X6460Y675D02*
X8224D01*
Y-372D01*
X6389D01*
Y675D01*
X6460D01*
G01X6471Y-318D02*
Y-293D01*
X6468Y-298D01*
G01Y-318D02*
X6475D01*
G01X6488Y-297D02*
X6490Y-295D01*
X6492Y-294D01*
X6494Y-293D01*
X6497Y-294D01*
X6498Y-296D01*
X6499Y-299D01*
X6499Y-301D01*
X6498Y-303D01*
X6492Y-307D01*
X6490Y-310D01*
X6488Y-314D01*
X6488Y-318D01*
X6499D01*
G01X6509Y-293D02*
X6515Y-318D01*
X6522Y-293D01*
G01X6591Y-318D02*
X6593Y-318D01*
X6595Y-316D01*
X6596Y-314D01*
X6597Y-311D01*
X6596Y-309D01*
X6594Y-306D01*
X6592Y-305D01*
X6589D01*
X6588Y-304D01*
X6586Y-302D01*
X6586Y-299D01*
X6587Y-296D01*
X6589Y-294D01*
X6591Y-293D01*
X6593Y-294D01*
X6595Y-296D01*
X6595Y-299D01*
X6595Y-302D01*
X6594Y-304D01*
X6592Y-305D01*
X6589D01*
X6587Y-306D01*
X6585Y-309D01*
X6585Y-311D01*
X6585Y-314D01*
X6587Y-316D01*
X6589Y-318D01*
X6591Y-318D01*
G01X6694Y-316D02*
X6695Y-310D01*
X6695Y-306D01*
X6696Y-302D01*
X6698Y-297D01*
X6700Y-291D01*
X6689D01*
G01X6540Y-81D02*
Y-56D01*
X6547D01*
X6549Y-58D01*
X6551Y-59D01*
X6551Y-63D01*
X6551Y-66D01*
X6549Y-68D01*
X6547Y-69D01*
X6540D01*
G01X6547D02*
X6551Y-81D01*
G01X6565Y-56D02*
X6571D01*
G01X6568D02*
Y-81D01*
G01X6565D02*
X6571D01*
G01X6591Y-69D02*
X6597D01*
Y-76D01*
X6595Y-79D01*
X6593Y-81D01*
X6591Y-81D01*
X6588Y-81D01*
X6586Y-79D01*
X6584Y-76D01*
X6583Y-74D01*
X6583Y-70D01*
Y-67D01*
X6583Y-65D01*
X6584Y-62D01*
X6586Y-59D01*
X6588Y-58D01*
X6590Y-56D01*
X6592D01*
X6594Y-57D01*
X6595Y-59D01*
G01X6606Y-81D02*
Y-56D01*
G01X6617D02*
Y-81D01*
G01Y-69D02*
X6606D01*
G01X6634Y-56D02*
Y-81D01*
G01X6628Y-56D02*
X6640D01*
G01X6811Y151D02*
G03I-115J0D01*
G01X6554Y378D02*
Y353D01*
X6565D01*
G01X6587D02*
X6576D01*
Y378D01*
X6587D01*
G01X6583Y366D02*
X6576D01*
G01X6599Y353D02*
Y378D01*
X6609D01*
G01X6605Y366D02*
X6599D01*
G01X6626Y378D02*
Y353D01*
G01X6619Y378D02*
X6632D01*
G01X6473Y595D02*
Y620D01*
X6470Y615D01*
G01Y595D02*
X6477D01*
G01X6490Y616D02*
X6492Y619D01*
X6494Y620D01*
X6496Y620D01*
X6499Y619D01*
X6500Y617D01*
X6501Y615D01*
X6501Y612D01*
X6500Y610D01*
X6494Y606D01*
X6492Y603D01*
X6490Y599D01*
X6490Y595D01*
X6501D01*
G01X6511Y620D02*
X6517Y595D01*
X6524Y620D01*
G01X6700Y594D02*
X6700Y599D01*
X6701Y604D01*
X6702Y608D01*
X6703Y612D01*
X6705Y619D01*
X6695D01*
G01X6594Y594D02*
X6596Y594D01*
X6598Y595D01*
X6600Y597D01*
X6600Y600D01*
X6600Y603D01*
X6598Y606D01*
X6596Y607D01*
X6593D01*
X6591Y608D01*
X6590Y610D01*
X6589Y613D01*
X6590Y616D01*
X6592Y618D01*
X6594Y619D01*
X6596Y618D01*
X6598Y616D01*
X6599Y613D01*
X6598Y610D01*
X6597Y608D01*
X6596Y607D01*
X6593D01*
X6590Y606D01*
X6589Y603D01*
X6588Y600D01*
X6589Y597D01*
X6590Y595D01*
X6592Y594D01*
X6594Y594D01*
G01X6877Y-220D02*
Y-280D01*
X6907Y-250D01*
X6877Y-220D01*
G01X6907D02*
Y-280D01*
G01Y-250D02*
X6937D01*
G01X6877D02*
X6837D01*
G01X7002Y-180D02*
G03I-115J0D01*
G01X6988Y-276D02*
G03I-101J96D01*
G01X7068Y81D02*
X7028D01*
G01X7193Y151D02*
G03I-115J0D01*
G01X7126Y20D02*
G03I-48J132D01*
G01X6766Y141D02*
Y101D01*
G01X6877Y443D02*
Y383D01*
X6907Y413D01*
X6877Y443D01*
G01X6907D02*
Y383D01*
G01Y413D02*
X6937D01*
G01X6877D02*
X6837D01*
G01X7002Y483D02*
G03I-115J0D01*
G01X6909Y335D02*
G03I-22J148D01*
G01X6736Y141D02*
X6796D01*
X6766Y171D01*
X6736Y141D01*
G01Y171D02*
X6796D01*
G01X6766D02*
Y201D01*
G01X7260Y-220D02*
Y-280D01*
X7290Y-250D01*
X7260Y-220D01*
G01X7290D02*
Y-280D01*
G01Y-250D02*
X7320D01*
G01X7260D02*
X7220D01*
G01X7385Y-180D02*
G03I-115J0D01*
G01X7068Y111D02*
Y51D01*
X7098Y81D01*
X7068Y111D01*
G01X7098D02*
Y51D01*
G01Y81D02*
X7128D01*
G01X7260Y443D02*
Y383D01*
X7290Y413D01*
X7260Y443D01*
G01X7290D02*
Y383D01*
G01Y413D02*
X7320D01*
G01X7260D02*
X7220D01*
G01X7385Y483D02*
G03I-115J0D01*
G01X7642Y-250D02*
X7602D01*
G01X7767Y-180D02*
G03I-115J0D01*
G01X7795Y-177D02*
G03I-143J-3D01*
G01X7451Y111D02*
Y51D01*
X7481Y81D01*
X7451Y111D01*
G01X7481D02*
Y51D01*
G01Y81D02*
X7511D01*
G01X7451D02*
X7411D01*
G01X7576Y151D02*
G03I-115J0D01*
G01X7642Y413D02*
X7602D01*
G01X7767Y483D02*
G03I-115J0D01*
G01X7677Y335D02*
G03I-25J148D01*
G01X8150Y-180D02*
G03I-115J0D01*
G01X7642Y-220D02*
Y-280D01*
X7672Y-250D01*
X7642Y-220D01*
G01X7672D02*
Y-280D01*
G01Y-250D02*
X7702D01*
G01X7834Y111D02*
Y51D01*
X7864Y81D01*
X7834Y111D01*
G01X7864D02*
Y51D01*
G01Y81D02*
X7894D01*
G01X7834D02*
X7794D01*
G01X7959Y151D02*
G03I-115J0D01*
G01X7815Y20D02*
G03I29J132D01*
G01X7642Y443D02*
Y383D01*
X7672Y413D01*
X7642Y443D01*
G01X7672D02*
Y383D01*
G01Y413D02*
X7702D01*
G01X8150Y483D02*
G03I-115J0D01*
G01X8025Y-220D02*
Y-280D01*
X8055Y-250D01*
X8025Y-220D01*
G01X8055D02*
Y-280D01*
G01Y-250D02*
X8085D01*
G01X8025D02*
X7985D01*
G01X7974Y9D02*
Y-22D01*
G01Y-17D02*
X7973Y-20D01*
X7970Y-21D01*
X7968Y-22D01*
X7965Y-21D01*
X7962Y-18D01*
X7961Y-15D01*
X7961Y-11D01*
X7961Y-8D01*
X7962Y-5D01*
X7965Y-2D01*
X7968Y-1D01*
X7970Y-2D01*
X7972Y-3D01*
X7974Y-5D01*
G01X7998Y-22D02*
X7996Y-21D01*
X7994Y-19D01*
X7992Y-15D01*
X7992Y-11D01*
X7992Y-7D01*
X7994Y-4D01*
X7996Y-2D01*
X7998Y-1D01*
X8001Y-2D01*
X8003Y-4D01*
X8005Y-7D01*
X8005Y-11D01*
X8005Y-15D01*
X8003Y-19D01*
X8001Y-21D01*
X7998Y-22D01*
G01X8023Y-1D02*
Y-15D01*
X8024Y-19D01*
X8027Y-21D01*
X8029Y-22D01*
X8032Y-21D01*
X8034Y-19D01*
X8036Y-15D01*
G01Y-22D02*
Y-1D01*
G01X8054Y-22D02*
Y9D01*
G01Y-6D02*
X8055Y-3D01*
X8058Y-2D01*
X8060Y-1D01*
X8063Y-2D01*
X8066Y-4D01*
X8067Y-8D01*
Y-12D01*
X8067Y-16D01*
X8065Y-19D01*
X8062Y-21D01*
X8060Y-22D01*
X8058Y-21D01*
X8055Y-20D01*
X8054Y-17D01*
G01X8091Y-22D02*
Y9D01*
G01X8117Y-8D02*
X8129D01*
X8128Y-4D01*
X8126Y-2D01*
X8123Y-1D01*
X8120Y-2D01*
X8118Y-3D01*
X8117Y-7D01*
X8116Y-10D01*
Y-13D01*
X8117Y-16D01*
X8119Y-19D01*
X8121Y-21D01*
X8124Y-22D01*
X8126Y-21D01*
X8129Y-18D01*
G01X8148Y-11D02*
X8158D01*
G01X8184Y-22D02*
X8187Y-21D01*
X8190Y-20D01*
X8192Y-17D01*
X8193Y-13D01*
X8192Y-10D01*
X8190Y-7D01*
X8186Y-5D01*
X8182D01*
X8180Y-4D01*
X8178Y-2D01*
X8178Y2D01*
X8179Y6D01*
X8181Y8D01*
X8184Y9D01*
X8187Y8D01*
X8190Y6D01*
X8191Y2D01*
X8191Y-2D01*
X8189Y-4D01*
X8186Y-5D01*
X8182D01*
X8179Y-7D01*
X8177Y-10D01*
X8176Y-13D01*
X8177Y-17D01*
X8179Y-20D01*
X8182Y-21D01*
X8184Y-22D01*
G01X8025Y443D02*
Y383D01*
X8055Y413D01*
X8025Y443D01*
G01X8055D02*
Y383D01*
G01Y413D02*
X8085D01*
G01X8025D02*
X7985D01*
G01X7962Y305D02*
X7964Y303D01*
X7966Y301D01*
X7969D01*
X7971Y302D01*
X7972Y304D01*
X7973Y306D01*
X7973Y309D01*
X7971Y310D01*
X7964Y314D01*
X7963Y317D01*
X7964Y320D01*
X7965Y321D01*
X7967Y322D01*
X7970Y321D01*
X7972Y320D01*
G01X7998Y322D02*
Y301D01*
G01Y330D02*
X7998Y331D01*
Y332D01*
X7999D01*
Y331D01*
X7998Y330D01*
G01X8023Y301D02*
Y322D01*
G01Y317D02*
X8024Y319D01*
X8027Y321D01*
X8030Y322D01*
X8032Y321D01*
X8035Y319D01*
X8036Y316D01*
Y301D01*
G01X8055Y293D02*
X8058Y291D01*
X8061Y291D01*
X8063Y291D01*
X8066Y294D01*
X8067Y298D01*
Y322D01*
G01Y318D02*
X8066Y320D01*
X8063Y321D01*
X8061Y322D01*
X8058Y321D01*
X8056Y319D01*
X8054Y315D01*
X8054Y312D01*
X8054Y308D01*
X8055Y305D01*
X8058Y302D01*
X8061Y301D01*
X8063Y302D01*
X8066Y304D01*
X8067Y306D01*
G01X8091Y301D02*
Y332D01*
G01X8117Y315D02*
X8129D01*
X8128Y319D01*
X8126Y321D01*
X8123Y322D01*
X8120Y321D01*
X8118Y320D01*
X8117Y316D01*
X8116Y313D01*
Y310D01*
X8117Y307D01*
X8119Y304D01*
X8121Y302D01*
X8124Y301D01*
X8126Y302D01*
X8129Y305D01*
G01X8148Y312D02*
X8158D01*
G01X8184Y301D02*
X8184Y308D01*
X8186Y314D01*
X8187Y319D01*
X8189Y324D01*
X8192Y332D01*
X8177D01*
M02*
