G04 ================== begin FILE IDENTIFICATION RECORD ==================*
G04 Layout Name:  D:/project/IRISking/IKEMB001/project/hardware/DM642/allegro/DM642_new.brd*
G04 Film Name:    Layer2*
G04 File Format:  Gerber RS274X*
G04 File Origin:  15.7-p007*
G04 Origin Date:  Wed Sep 12 09:01:40 2007*
G04 *
G04 Layer:  VIA CLASS/LAYER2*
G04 Layer:  PIN/LAYER2*
G04 Layer:  ETCH/LAYER2*
G04 Layer:  BOARD GEOMETRY/OUTLINE*
G04 *
G04 Offset:    (0.000 0.000)*
G04 Mirror:    No*
G04 Mode:      Positive*
G04 Rotation:  0*
G04 FullContactRelief:  No*
G04 UndefLineWidth:     8.000*
G04 ================== end FILE IDENTIFICATION RECORD ====================*
%FSLAX55Y55*MOIN*%
%IR0*IPPOS*OFA0.00000B0.00000*MIA0B0*SFA1.00000B1.00000*%
%ADD21R,.05X.12*%
%ADD20R,.12X.05*%
%ADD14C,.2*%
%ADD16C,.12*%
%ADD22C,.13*%
%ADD19C,.03*%
%ADD15C,.04*%
%ADD13C,.05*%
%ADD17C,.08*%
%ADD10C,.062*%
%ADD11C,.055*%
%ADD18C,.022988*%
%ADD12C,.017988*%
%ADD23C,.004098*%
%ADD24C,.006098*%
%ADD25C,.01*%
%ADD26C,.02*%
%ADD27C,.008*%
G75*
%LPD*%
G75*
G54D10*
X10748Y46929D03*
X20748Y56929D03*
X10748D03*
X20748Y66929D03*
X10748D03*
X20748Y76929D03*
X10748D03*
X20748Y46929D03*
X11811Y120827D03*
Y130827D03*
Y140827D03*
Y150827D03*
X20748Y86929D03*
X10748D03*
X11457Y362816D03*
Y352816D03*
X80773Y362370D03*
Y352370D03*
X116946Y24656D03*
X126946D03*
X136946D03*
X177000Y13000D03*
X167000D03*
X157000D03*
X202266Y362370D03*
Y352370D03*
X192266Y362370D03*
Y352370D03*
X182266Y362370D03*
Y352370D03*
X120773D03*
X110773Y362370D03*
Y352370D03*
X100773Y362370D03*
Y352370D03*
X90773Y362370D03*
Y352370D03*
X140773Y362370D03*
Y352370D03*
X130773Y362370D03*
Y352370D03*
X120773Y362370D03*
X222266Y352370D03*
X212266Y362370D03*
Y352370D03*
X222266Y362370D03*
X383858Y16968D03*
Y6968D03*
Y-3032D03*
Y-13032D03*
X540650Y-38861D03*
X520330Y-859D03*
Y9141D03*
X540650Y-28861D03*
X486221Y-34843D03*
Y-24842D03*
Y-14842D03*
Y-4842D03*
Y5158D03*
Y15157D03*
X488053Y277363D03*
Y287363D03*
X488221Y311351D03*
Y321351D03*
X490748Y362205D03*
X500748D03*
X510748D03*
X520748D03*
X530748D03*
X540748D03*
G54D11*
X72677Y33717D03*
X92677D03*
X429292Y21905D03*
X409292D03*
X556929Y57337D03*
X576929D03*
X564810Y202437D03*
Y213237D03*
Y224037D03*
Y234837D03*
Y245637D03*
X575610Y207837D03*
Y218637D03*
Y229437D03*
Y240237D03*
G54D20*
X567284Y352337D03*
G54D12*
X27214Y55044D03*
X27235Y62992D03*
X75606Y80524D03*
X76640Y78456D03*
X40560Y31693D03*
X51575Y59449D03*
X70521Y53102D03*
X51623D03*
X70863Y49091D03*
Y39974D03*
X54677Y62551D03*
X51684Y31693D03*
Y39173D03*
X54725Y75197D03*
X70473Y59449D03*
X67323Y68898D03*
X51575Y56300D03*
X64961Y39974D03*
X39974Y70866D03*
X54725Y53150D03*
X61072Y59401D03*
X26956Y70866D03*
X64221Y62551D03*
X78655Y35364D03*
X45228Y65796D03*
X41194Y61088D03*
X45228Y56347D03*
Y53102D03*
X70521Y65796D03*
X76724D03*
Y56252D03*
Y59497D03*
X63934Y49384D03*
X26562Y47244D03*
X51181Y35433D03*
X79874Y62551D03*
X76820Y62647D03*
X79874Y50048D03*
Y56252D03*
X40499Y64174D03*
X67371Y49684D03*
X76820Y53102D03*
X79874Y59401D03*
X53150Y49384D03*
X79874Y81496D03*
X25142Y73670D03*
X61024Y75173D03*
X31125Y34934D03*
X64126Y68850D03*
X38685Y66929D03*
X46864Y43633D03*
X45276Y59449D03*
Y75197D03*
X65371Y4944D03*
X70866Y4864D03*
X76772Y4904D03*
X40660Y35433D03*
X51575Y65748D03*
X64961Y26956D03*
X62589Y72835D03*
X70473Y62599D03*
Y56300D03*
X57874Y75197D03*
X54725Y78347D03*
X57874Y62599D03*
X54725Y56300D03*
X79921Y68898D03*
X79916Y65749D03*
X76772Y75197D03*
X79921Y78347D03*
Y75197D03*
X59055Y4860D03*
X62589Y80709D03*
X26956Y39370D03*
X45228Y62647D03*
X59320Y28770D03*
X57874Y59401D03*
X57827Y72095D03*
X48378Y68946D03*
X70425D03*
X55084Y6842D03*
X54725Y72048D03*
X61024Y68898D03*
X67323Y62599D03*
Y59449D03*
X75208Y72835D03*
X39974Y78146D03*
X67323Y65749D03*
X57827Y78299D03*
X70521Y75644D03*
X76769Y68850D03*
X48473Y78395D03*
X41290Y54725D03*
X45228Y72000D03*
X48473Y65749D03*
X76038Y47870D03*
X64142Y56235D03*
X64197Y59445D03*
X57902Y68946D03*
X57875Y56382D03*
X67335Y53139D03*
X43831Y191074D03*
X39974Y173122D03*
X39510Y165358D03*
X51139Y189401D03*
X25400Y185451D03*
X27147Y143650D03*
X27154Y133858D03*
Y126846D03*
X25995Y164453D03*
X38854Y102362D03*
X39446Y110236D03*
Y118110D03*
X38247Y82734D03*
X76711Y87760D03*
X76797Y84692D03*
X70504Y94161D03*
X70521Y97223D03*
X40864Y143451D03*
X40403Y140256D03*
X48895Y180498D03*
X79460Y131109D03*
X80020Y134791D03*
X79872Y94141D03*
X75776Y166935D03*
X80088Y154135D03*
X78357Y140145D03*
X79845Y97245D03*
X79859Y100360D03*
X64292Y84626D03*
X70473Y87759D03*
X62992Y113756D03*
X70773D03*
X39974Y86614D03*
X62992Y119475D03*
X57874Y87795D03*
X36465Y97498D03*
X64174Y103543D03*
X73973Y190203D03*
X57996Y154179D03*
X61024Y87795D03*
X26956Y102362D03*
Y110236D03*
X67275Y90897D03*
X26956Y86614D03*
Y181102D03*
Y173228D03*
X59031Y112688D03*
X61146Y191775D03*
X73182Y112688D03*
X71291Y200793D03*
X70964Y189376D03*
X80697Y189766D03*
X78202Y182280D03*
X78634Y107318D03*
X80740Y145161D03*
X70964Y157502D03*
X79874Y84694D03*
X72794Y117466D03*
X74390Y106772D03*
X72778Y154934D03*
X76724Y90993D03*
X61024Y97197D03*
X76724D03*
X76724Y94047D03*
X51623Y87748D03*
X48378Y84598D03*
X42126Y94095D03*
X51181Y131088D03*
X33465Y162349D03*
X74803Y119475D03*
X70473Y103543D03*
X48426Y90945D03*
X64174D03*
X57874D03*
X64484Y169044D03*
X67323Y84646D03*
X57874Y103543D03*
X79921Y90945D03*
X79922Y87796D03*
X56202Y141732D03*
X52213Y153923D03*
X20103Y164213D03*
X64295Y190635D03*
X73744Y145160D03*
X73973Y175977D03*
X52685Y197040D03*
X45228Y90993D03*
X54677Y84598D03*
X51181Y109070D03*
X57874Y84646D03*
X54725Y90945D03*
X64174Y97245D03*
X61024Y90945D03*
X48426Y103543D03*
X57217Y133987D03*
X70521Y84598D03*
X72287Y109060D03*
X56910Y131579D03*
X48378Y97197D03*
X76769Y103785D03*
X67039Y106894D03*
X63152Y108967D03*
X63831Y132493D03*
X64962Y155455D03*
X65051Y145161D03*
X39139Y176763D03*
X26215Y170127D03*
X48776Y108212D03*
X45268Y208844D03*
X8600Y321625D03*
X57248Y257582D03*
X70152Y258285D03*
X72030Y249296D03*
X70057Y243120D03*
X81237Y244659D03*
X71686Y240749D03*
X62063Y316568D03*
X46078Y307087D03*
X61853Y287118D03*
X58758Y307087D03*
X42824Y283545D03*
X43210Y258317D03*
X67925Y266064D03*
X80770Y205892D03*
X45468Y204724D03*
X46078Y248032D03*
X73209Y260582D03*
X59078Y204724D03*
X55970Y235378D03*
X46825Y257263D03*
X75238Y258377D03*
X78177Y300418D03*
X58723Y248032D03*
X64420Y278124D03*
X43323Y288444D03*
X43275Y298989D03*
X64236Y274310D03*
X70493Y272496D03*
X73199Y282581D03*
X67964Y280923D03*
X20029Y338292D03*
X38759Y327974D03*
X46078Y330709D03*
X59078D03*
X141052Y68423D03*
X140650Y70798D03*
X130850Y71112D03*
X129573Y59446D03*
X127530Y62535D03*
X129393Y64210D03*
X126843Y64843D03*
X128605Y66486D03*
X162591Y80208D03*
X172646Y78354D03*
X171106Y75984D03*
X168667Y73907D03*
X186112Y75056D03*
X165486Y73762D03*
X128006Y51823D03*
X150860Y65137D03*
X146801Y66357D03*
X137339Y62613D03*
X135412Y64058D03*
X127657Y70998D03*
X128132Y55451D03*
X189951Y58239D03*
X160060Y56159D03*
X162367Y56852D03*
X155728Y55685D03*
X102875Y73709D03*
X108152Y70675D03*
X111780D03*
X96054Y71382D03*
X96433Y75407D03*
X99714Y78072D03*
X95473Y65836D03*
X95475Y68984D03*
X111780Y74851D03*
X92442Y68895D03*
X88583Y26194D03*
X139921Y41339D03*
X85256Y19239D03*
X113000Y64961D03*
X186404Y45276D03*
X186024Y62992D03*
X156877Y45276D03*
X169895Y37402D03*
X95669Y56300D03*
X100394Y39974D03*
X82677D03*
X83071Y68898D03*
X86221Y78347D03*
X149872Y35337D03*
X180728Y48330D03*
X83023Y56252D03*
X154750Y39524D03*
X129339Y41819D03*
X122695Y41339D03*
X104699Y40005D03*
X111780Y67369D03*
X83119Y50048D03*
X120881Y49181D03*
X92472Y56347D03*
X102290Y58718D03*
X89323Y59497D03*
X101992Y51562D03*
X89323Y56300D03*
X111901Y52183D03*
X96025Y50048D03*
X112085Y58718D03*
X82677Y26194D03*
X114219Y49748D03*
X83023Y59497D03*
X113138Y34532D03*
X101932Y65294D03*
X119067Y41819D03*
X83119Y62647D03*
X174165Y48285D03*
X177152Y41706D03*
X170728Y47989D03*
X169895Y39816D03*
X156877Y37402D03*
X177080Y25423D03*
X170728Y26330D03*
X165728D03*
X155728D03*
X127525Y74803D03*
X139249Y78740D03*
X89418Y81544D03*
X83119Y81449D03*
X86173Y81544D03*
X83023Y75245D03*
X86209Y59483D03*
X162431Y66357D03*
X92506Y62557D03*
X111780Y62489D03*
X86174Y26194D03*
X95997Y39974D03*
X94488Y5028D03*
X89363Y72031D03*
X92520Y50001D03*
X88583Y4904D03*
X169895Y45276D03*
X199422Y62992D03*
X183674Y45276D03*
X143723Y70866D03*
X86214Y56214D03*
X183674Y37402D03*
X152741Y41339D03*
X166386Y58650D03*
X85687Y30478D03*
X188456Y17878D03*
X89371Y78347D03*
X86221Y68898D03*
X89371Y50001D03*
X86173Y75149D03*
X89323D03*
X83023Y78299D03*
X89323Y68946D03*
X105620Y52971D03*
X83023Y65796D03*
X86173D03*
X89323D03*
X86173Y62647D03*
X92472Y65796D03*
X89323Y62647D03*
X104524Y62489D03*
X109966Y41819D03*
X100616Y26950D03*
X109159Y21743D03*
X124000Y29606D03*
X93864Y25570D03*
X107148Y20417D03*
X100000Y24087D03*
X92369Y39974D03*
X105376Y36344D03*
X86225Y97234D03*
X86302Y100378D03*
X98165Y144790D03*
X162561Y190403D03*
X196184Y156129D03*
X174862Y148754D03*
X187469Y155312D03*
X184965Y154165D03*
X169678Y143085D03*
X159884Y146547D03*
X160461Y142919D03*
X86614Y132939D03*
X96430Y165953D03*
X162914Y172030D03*
X161195Y175463D03*
X144998Y165127D03*
X168219Y145092D03*
X142067Y171753D03*
X143514Y173678D03*
X145297Y172059D03*
X84763Y138873D03*
X83056Y90945D03*
X86173Y84608D03*
X86187Y87765D03*
X115352Y169568D03*
X129409Y82277D03*
X112546Y145312D03*
X119979Y109145D03*
X127525Y86577D03*
X108390Y154488D03*
X100975Y144988D03*
X111857Y157256D03*
X160045Y82556D03*
X172412Y84053D03*
X123447Y166014D03*
X122235Y201020D03*
X144636Y151859D03*
X149930Y142821D03*
X174340Y130166D03*
X176912D03*
X176912Y142126D03*
X175286Y135826D03*
X166853Y122092D03*
X187008Y120079D03*
X176228Y116929D03*
X176912Y112799D03*
X185930Y110630D03*
X176912Y107480D03*
X185930Y88069D03*
X176040Y94882D03*
X187838Y114613D03*
X158620Y84542D03*
X193280Y107480D03*
X198488Y113779D03*
X189541Y116929D03*
X195626Y135826D03*
X191466Y148754D03*
X120078Y114005D03*
X133272Y82930D03*
X145349Y157182D03*
X105063Y184883D03*
X105406Y189136D03*
X105947Y175237D03*
X111173Y129741D03*
X120506Y106145D03*
X127031Y82663D03*
X130269Y104635D03*
X119289Y122536D03*
X143184Y167558D03*
X140813Y200793D03*
X153117Y162540D03*
X152483Y122047D03*
X190171Y97152D03*
X186867Y100344D03*
X190957Y88892D03*
X103888Y141184D03*
X120988Y145161D03*
X113344Y200793D03*
X113604Y118169D03*
X111198Y118052D03*
X112543Y121973D03*
X110730Y113958D03*
X111098Y99922D03*
X111233Y90551D03*
X110014Y84419D03*
X105166Y90397D03*
X99714Y82605D03*
X103752Y169105D03*
X92313Y144832D03*
X112000Y107099D03*
X98390Y131926D03*
X99254Y135551D03*
X174226Y125126D03*
X133587Y145161D03*
X92723Y190429D03*
X193944Y173228D03*
X186024Y104331D03*
X187008Y141732D03*
X92520Y94095D03*
X172196Y190797D03*
X135232Y129047D03*
X113570Y100394D03*
X83009Y155461D03*
X172244Y173228D03*
X99386Y155187D03*
X95669Y87812D03*
X194859Y82677D03*
X86614Y119475D03*
X139712Y155019D03*
X112585Y82677D03*
X138568Y92520D03*
X142196Y96148D03*
X137435Y96457D03*
X176676Y97962D03*
X136964Y99776D03*
X119651Y90397D03*
Y86614D03*
X111669D03*
X152552Y94334D03*
X148893Y184045D03*
X105240Y191775D03*
X141254Y108113D03*
X160793Y194275D03*
X83890Y200793D03*
X87518D03*
X101434Y126731D03*
X85815Y112949D03*
X86009Y93995D03*
X93659Y200793D03*
X87796Y104199D03*
X96351Y142158D03*
X98507Y200793D03*
X85742Y117066D03*
X88274Y110836D03*
X89371Y97197D03*
X85864Y145161D03*
X92472Y100442D03*
X90633Y142017D03*
X87518Y115252D03*
X87518Y157502D03*
X92472Y97292D03*
X89023Y119475D03*
X88623Y137059D03*
X95622Y94143D03*
Y90993D03*
X191466Y112444D03*
X178470Y163147D03*
X86173Y90897D03*
X83119Y84694D03*
X161410Y196766D03*
X92568Y90897D03*
X163420Y194797D03*
X173048Y156219D03*
X89371Y90897D03*
X95758Y97222D03*
X104404Y131947D03*
X185001Y165274D03*
X183520Y172606D03*
X189652Y137641D03*
X191030Y152591D03*
X92568Y87748D03*
X176656Y181018D03*
X173028Y179049D03*
X89418Y84694D03*
X161121Y165115D03*
X162935Y163301D03*
X117126Y200793D03*
X115416Y186729D03*
X117839Y191775D03*
X139249Y102362D03*
X156211Y101143D03*
X156775Y90706D03*
X136964Y106145D03*
X135150Y108113D03*
X148893Y186453D03*
X176912Y103425D03*
X123447Y179197D03*
X98941Y191775D03*
X83193D03*
X199422Y104331D03*
X92723Y175381D03*
X184435Y170191D03*
X181706D03*
X163420Y186923D03*
X198841Y82677D03*
X126588Y100394D03*
X99726Y169795D03*
X170438Y165270D03*
X200407Y120079D03*
Y141732D03*
X83071Y87796D03*
X163420Y198734D03*
Y177081D03*
X195703D03*
X181706Y193813D03*
X83009Y169306D03*
X201626Y157355D03*
X195703Y181018D03*
X194000Y163301D03*
X173048Y161333D03*
X195703D03*
X89371Y94095D03*
X101885Y123103D03*
X86460Y109133D03*
X88623Y134307D03*
X112230Y133858D03*
X106643Y104190D03*
X172412Y116729D03*
X170296Y115510D03*
X127618Y114173D03*
X167108Y114647D03*
X166191Y111026D03*
X133161Y112359D03*
X130605Y158381D03*
X135532Y200793D03*
X139647Y168382D03*
X137697Y190556D03*
X138879Y188456D03*
X137435Y184650D03*
X152922Y150496D03*
X137046Y111687D03*
X129082Y120503D03*
X129561Y116085D03*
X130723Y122266D03*
X160101Y112679D03*
X160101Y132082D03*
X127533Y132201D03*
X129769Y130438D03*
X128446Y189237D03*
X97186Y100504D03*
X107138Y126446D03*
X107930Y124171D03*
X110348Y95708D03*
X101043Y94854D03*
X102804Y99754D03*
X101251Y97254D03*
X95260Y104008D03*
X98374Y119862D03*
X102764Y120821D03*
X128245Y128572D03*
X128012Y126175D03*
X160678Y120391D03*
X115923Y154639D03*
X166563Y83897D03*
X160798Y156732D03*
X129228Y134682D03*
X193944Y190797D03*
X184435Y193813D03*
X83148Y276189D03*
X193495Y289118D03*
X198727Y291118D03*
X91686Y295276D03*
X166339Y316004D03*
X166291Y298808D03*
X154575Y318492D03*
X88209Y282582D03*
X166291Y306161D03*
X198913Y270906D03*
X109252Y274218D03*
Y320512D03*
X194913Y277527D03*
X111220Y317248D03*
X158704Y301118D03*
X158704Y305118D03*
X107283Y313873D03*
X157001Y317118D03*
X165322Y319118D03*
X125000Y318120D03*
X170913Y270909D03*
X120909Y281004D03*
X172913Y277527D03*
X187540D03*
X174913Y270909D03*
X134913Y283657D03*
X128706Y319662D03*
X157282Y272282D03*
X92632Y307204D03*
X158086Y311125D03*
X127730Y278650D03*
X129561Y315533D03*
X131483Y279473D03*
X132947Y317638D03*
X137523Y288351D03*
X140635Y292286D03*
X159112Y315118D03*
X96311Y238963D03*
X125000Y208232D03*
X126836Y205653D03*
X96540Y205985D03*
X95020Y208615D03*
X98736Y208921D03*
X103271Y209623D03*
X102143Y207486D03*
X107366Y208613D03*
X135157Y208787D03*
X88209Y268600D03*
X193898Y230315D03*
X193944Y247047D03*
X172196D03*
X83209Y260582D03*
X125000Y239220D03*
X140807Y239219D03*
X117126Y254759D03*
X194080Y204724D03*
X105315Y239220D03*
X125002Y217472D03*
X172244Y230315D03*
X105315Y217472D03*
X95473Y265405D03*
X97441Y269445D03*
X159666D03*
X183664Y212585D03*
X193075D03*
X159244Y207355D03*
X192678Y259778D03*
X179891D03*
X162762Y211578D03*
X200913Y268896D03*
X170438Y215818D03*
X163420Y261289D03*
Y204640D03*
X109252Y206992D03*
X144793Y258387D03*
X152522Y252026D03*
X134688Y248192D03*
X163420Y251447D03*
X143228Y243418D03*
X148893Y245541D03*
X141414Y241604D03*
X144240Y239636D03*
X150622Y237667D03*
X143514Y233777D03*
X134784Y230171D03*
X87518Y210532D03*
X125886Y221482D03*
X127700Y223887D03*
X154164Y217982D03*
X171250Y202671D03*
X115158Y202607D03*
X119095Y204421D03*
X123032Y206652D03*
X128937Y208695D03*
X136811Y206992D03*
X162021Y216168D03*
X137711Y222073D03*
X171376Y258228D03*
X181706Y250463D03*
X195703Y233730D03*
X184435Y226840D03*
X170438Y221919D03*
X195703Y255384D03*
X97382Y223472D03*
X119094Y261777D03*
X93504Y215714D03*
X138780D03*
X121063Y208661D03*
X111221Y247997D03*
X121063Y248032D03*
X134784Y233219D03*
X132874Y240979D03*
X118051Y233220D03*
Y223472D03*
X111221Y215714D03*
X132424Y216535D03*
X97382Y233220D03*
X99410Y250405D03*
X195703Y221919D03*
X184435Y250463D03*
X161451Y233689D03*
Y243532D03*
X181706Y226840D03*
X181080Y204724D03*
X195703Y261289D03*
X103346Y247997D03*
X105315Y263591D03*
X124072Y226543D03*
X109252Y250006D03*
X126968Y235591D03*
X163265Y227979D03*
X155979Y255229D03*
X128937Y251820D03*
X130776Y204291D03*
X137622Y201990D03*
X154705Y268879D03*
X128005Y231607D03*
X190067Y282863D03*
X185493Y279327D03*
X189135Y262122D03*
X198913Y281431D03*
X158072Y295118D03*
X146902Y288932D03*
X143793Y278563D03*
X157733Y291144D03*
X166847Y296092D03*
X175658Y283376D03*
X171584Y317403D03*
X181790Y315057D03*
X199106Y296591D03*
X175268Y304369D03*
X185535Y287304D03*
X184429Y267380D03*
X180850Y269912D03*
X183258Y269948D03*
X166093Y273531D03*
X159676Y278348D03*
X111027Y285011D03*
X82058Y311817D03*
X186174Y327151D03*
X192285Y330332D03*
X182913Y339327D03*
X117126Y340551D03*
X130906Y322835D03*
Y332268D03*
X130525Y344488D03*
X119094Y332711D03*
X162013Y333718D03*
X196913Y332709D03*
X141642Y326424D03*
X147316Y328437D03*
X154546Y327110D03*
X148838Y355785D03*
X154949Y355282D03*
X160221Y347159D03*
X89682Y327494D03*
X85814Y327194D03*
X271350Y79552D03*
X271476Y67795D03*
X247980Y63380D03*
X232978Y63385D03*
X204512Y66535D03*
X217884Y72834D03*
Y75984D03*
X204865Y71020D03*
X222081Y79120D03*
X292404Y58818D03*
X255518Y59444D03*
X263103Y55190D03*
X253814Y57630D03*
X290590Y60633D03*
X308738Y65705D03*
X270977Y57004D03*
X296032D03*
X311178Y80030D03*
X278851D03*
X310552Y77439D03*
X306924Y68241D03*
X298451Y78216D03*
X297846Y67422D03*
X223425Y62992D03*
X214240Y47766D03*
X207304Y51363D03*
X232545Y34148D03*
X202023Y68898D03*
X209380Y53178D03*
X229793Y37776D03*
X216054Y58718D03*
X318221Y61223D03*
X254459Y21131D03*
X287863Y163676D03*
X301968Y191338D03*
X308268Y175590D03*
X257874Y188189D03*
X267323Y200787D03*
X236536Y92240D03*
X263925Y112536D03*
X267177Y89185D03*
X255263Y103403D03*
X223530Y104330D03*
X209432Y87615D03*
X221529Y82283D03*
X211840Y85433D03*
X204629Y98031D03*
X232545Y120078D03*
X202221Y122783D03*
X223236Y132330D03*
X223526Y138976D03*
X223526Y145275D03*
X210825Y89618D03*
X286172Y188140D03*
X276711Y174036D03*
X292706Y162932D03*
X283071Y184991D03*
X301647Y162932D03*
X279969Y191290D03*
X283119Y181841D03*
X280800Y134930D03*
X283071Y178692D03*
X300427Y112811D03*
X257565Y168445D03*
X276772Y181841D03*
X270294Y140449D03*
X273574Y181841D03*
X260663Y114348D03*
X276748Y184991D03*
X272108Y138635D03*
X273574Y178692D03*
X277037Y94173D03*
X270424Y184991D03*
Y181841D03*
X267275Y184991D03*
Y181841D03*
Y178692D03*
X264125Y184991D03*
Y181937D03*
X252595Y127188D03*
X260963Y174705D03*
X261024Y181841D03*
X246508Y160493D03*
X260976Y178692D03*
X316407Y106439D03*
X246217Y174705D03*
X257778Y96792D03*
X289370Y110067D03*
X273622Y173066D03*
X286238Y184991D03*
X254460Y113753D03*
X286172Y181841D03*
X270670Y90754D03*
X289322Y188236D03*
X289418Y184991D03*
X289322Y181841D03*
X292472Y188236D03*
X292520Y184991D03*
X292568Y181841D03*
X293908Y168793D03*
X295621Y188140D03*
X292580Y173886D03*
X290892Y144290D03*
X295621Y184991D03*
Y181841D03*
X295669Y178692D03*
X309055Y134284D03*
Y89027D03*
X298771Y188140D03*
Y184991D03*
X298867Y181937D03*
X300594Y165341D03*
X305110Y178692D03*
Y174705D03*
X301920Y181841D03*
Y184991D03*
X320035Y132470D03*
X259379Y163723D03*
X253814Y161909D03*
X286220Y191338D03*
X273622D03*
X295669D03*
X261024Y194488D03*
Y197637D03*
X316929Y145066D03*
X217900Y165354D03*
X217900Y149606D03*
X223428Y129921D03*
X317716Y188189D03*
X320866Y185039D03*
X305118Y191338D03*
X295669Y197697D03*
X223427Y110236D03*
X253937Y136993D03*
X230918Y188976D03*
X217900Y157480D03*
X253937Y158084D03*
X246063D03*
X293307D03*
X301181D03*
X285433D03*
X309055D03*
X277559D03*
X269685Y145066D03*
X261811Y158281D03*
X230918Y173228D03*
X280453Y198032D03*
X317716Y197637D03*
Y194488D03*
X270472Y188189D03*
X276772D03*
X261024D03*
X267323D03*
X308268D03*
X251575Y178740D03*
X248425D03*
X251575Y175590D03*
X289370Y178740D03*
X311417Y188189D03*
X301968D03*
X314567Y200787D03*
X283119Y197590D03*
X286238Y194576D03*
X289554Y194564D03*
X298819Y194488D03*
X314567Y191338D03*
X311417D03*
X314567Y194488D03*
X311417D03*
Y197637D03*
X301968Y194488D03*
X308268D03*
X264173Y191338D03*
X270472Y194488D03*
X264173D03*
X267323D03*
Y191338D03*
X276772Y194488D03*
X289370Y136993D03*
X308015Y201181D03*
X270532Y200835D03*
X319291Y173547D03*
X320914Y181841D03*
X317716D03*
X320806Y138213D03*
X317765Y178692D03*
X314615Y181841D03*
Y184991D03*
X312992Y174170D03*
X311369Y181841D03*
Y178692D03*
Y185087D03*
X307683Y198872D03*
X308220Y184991D03*
Y181841D03*
X320818Y197613D03*
Y194440D03*
Y191290D03*
X320866Y188236D03*
X264173Y200739D03*
X257922Y175614D03*
X270351Y173066D03*
X251575Y191386D03*
X267242Y197673D03*
X251575Y181889D03*
X248425Y175590D03*
X254724Y178740D03*
X283071Y175590D03*
X251575Y188189D03*
X292520Y178740D03*
X286220D03*
X270472D03*
X267323Y175590D03*
X289370D03*
X295669D03*
X305118Y188189D03*
Y185039D03*
Y181889D03*
X308268Y178740D03*
X248425Y188189D03*
X314567D03*
X317716Y191338D03*
X276772Y178740D03*
X257874Y181889D03*
X254724Y185039D03*
X273622Y175590D03*
Y188189D03*
X264173D03*
X261024Y185039D03*
X210026Y110236D03*
Y129921D03*
X289452Y197783D03*
X286689Y197976D03*
X253937Y145066D03*
X261811D03*
X277559D03*
X293307D03*
X285433D03*
X309055D03*
X301181D03*
X246063D03*
X289370Y114975D03*
X253937Y123993D03*
X289370Y191338D03*
X276772D03*
X317716Y175590D03*
X283119Y194536D03*
X202721Y198734D03*
X273622Y194488D03*
X270472Y191338D03*
X283071D03*
X292568Y194536D03*
X298819Y191338D03*
X292520D03*
X217900Y188976D03*
X300256Y198672D03*
X278091D03*
X305118Y194488D03*
X317716Y185039D03*
X314567Y197637D03*
X308268Y191338D03*
X261024D03*
X257874D03*
X317716Y200787D03*
X311417D03*
X272046Y198626D03*
X230919Y149606D03*
X224495Y153543D03*
X320818Y200787D03*
X227214Y185331D03*
X224493Y185967D03*
X244978Y94978D03*
X251527Y184991D03*
X268856Y100771D03*
X309539Y165371D03*
X205644Y200548D03*
X282614Y132154D03*
X245459Y82149D03*
X254724Y200787D03*
X248966Y88892D03*
X251575Y200787D03*
Y197637D03*
X257874D03*
X238935Y175290D03*
X264125Y197673D03*
X254724Y197637D03*
X251575Y194488D03*
X202721Y169207D03*
X257874Y194488D03*
X248425Y191338D03*
X276950Y141462D03*
X254724Y194488D03*
X300427Y119228D03*
X274230Y197993D03*
X232556Y184649D03*
X217572Y172621D03*
X217994Y170250D03*
X202588Y165383D03*
X246219Y197597D03*
X248427Y197637D03*
X235308Y189530D03*
X202460Y179049D03*
X232246Y198432D03*
X217900Y196618D03*
X211667Y174810D03*
X211856Y160037D03*
X231971Y177104D03*
X245391Y180270D03*
X242028Y187295D03*
X239126Y194277D03*
X234519Y194991D03*
X202721Y172857D03*
X203788Y175017D03*
X211976Y167222D03*
X205493Y163301D03*
X204725Y167223D03*
X202406Y194773D03*
X206330Y196835D03*
X204981Y194782D03*
X211607Y181955D03*
Y179375D03*
X206164Y187677D03*
X202536Y186923D03*
X210051Y190646D03*
X211836Y193951D03*
X248447Y167352D03*
X221049Y184418D03*
X221409Y178022D03*
X218520Y184291D03*
X211747Y184428D03*
X244978Y92473D03*
X258959Y103957D03*
X249121Y105259D03*
X237866Y106591D03*
X258478Y100394D03*
X247446Y103403D03*
X281901Y88602D03*
X279997Y94475D03*
X287378Y89079D03*
X237157Y103444D03*
X238127Y84713D03*
X288848Y264167D03*
X277570Y259677D03*
X228398Y298750D03*
X240522Y274562D03*
X298968Y304952D03*
X287107Y309985D03*
X315340Y310085D03*
X290922D03*
X291522Y304896D03*
X301746Y303494D03*
X261358Y284228D03*
X267313Y247983D03*
X261010Y251098D03*
X254718Y241732D03*
X257819Y238680D03*
X319323Y299838D03*
X250326Y316743D03*
X239459Y252458D03*
X275917Y310408D03*
X274187Y297426D03*
X209173Y283159D03*
X251011Y262017D03*
X233807Y266791D03*
X217734Y264908D03*
X213537Y268635D03*
X211220Y264380D03*
X216963Y260708D03*
X206934Y310429D03*
X313526Y299241D03*
X311712Y301055D03*
X269193Y288408D03*
X220504Y289118D03*
X291925Y312994D03*
X219106Y312992D03*
X265748Y274987D03*
X257874Y288006D03*
X297244Y274987D03*
X289370Y274987D03*
X251968Y292140D03*
X219107Y292323D03*
X320869Y274985D03*
X220504Y281118D03*
X202913Y277527D03*
X208727D03*
X218690Y278416D03*
X251968Y314919D03*
X312995Y288003D03*
X276956Y312818D03*
X261516Y288408D03*
X265748Y288006D03*
X298917Y312818D03*
X227122Y301118D03*
X301476Y312818D03*
X261516Y321837D03*
X289370Y288006D03*
X297244Y288005D03*
X316326Y312818D03*
X261502Y280430D03*
X256060Y272978D03*
X273622Y274253D03*
X318382Y274149D03*
X220504Y303118D03*
X297638Y214204D03*
X234977Y240248D03*
X233548Y205867D03*
X298150Y224934D03*
X295632Y224531D03*
X270983Y229144D03*
X289418Y244930D03*
X283023D03*
X286172Y247983D03*
Y251133D03*
Y254330D03*
X279969Y241780D03*
X283023Y247983D03*
Y254282D03*
X279873Y244930D03*
X279904Y247983D03*
X281509Y258064D03*
X276820Y257480D03*
X276724Y254282D03*
X270520Y251133D03*
X270172Y261839D03*
X297068Y261662D03*
X267371Y251133D03*
X270424Y247983D03*
X270472Y254282D03*
X289322Y257748D03*
X268898Y259294D03*
X264173Y232283D03*
X233455Y230005D03*
X226204Y232828D03*
X261024Y229134D03*
Y238582D03*
Y244882D03*
X251575Y257480D03*
X248425Y254330D03*
X257874Y248031D03*
X251575Y254330D03*
X308268Y244882D03*
X295669Y241732D03*
X276772Y244882D03*
X270472D03*
X230918Y244094D03*
X216963Y254272D03*
Y251004D03*
X307815Y226032D03*
X280492Y234624D03*
X270435Y225925D03*
X314567Y232283D03*
X307815Y207038D03*
X216963Y257540D03*
X267323Y244882D03*
X286220Y241732D03*
X264173Y210236D03*
X251575Y216535D03*
X273622Y241732D03*
X292520Y254330D03*
X305118Y241732D03*
X254724Y251181D03*
X261024Y235433D03*
X301968Y244882D03*
X311417D03*
X261024Y203937D03*
X314567Y219685D03*
Y210236D03*
X264285Y222821D03*
X233493Y212598D03*
X295874Y235015D03*
X317716Y203937D03*
Y244882D03*
X320866Y248031D03*
X317716Y235433D03*
Y238582D03*
Y229134D03*
X270532Y207050D03*
X267323Y203937D03*
Y207086D03*
X311417Y203937D03*
Y207086D03*
Y229134D03*
Y225984D03*
X289370Y207874D03*
X292520D03*
X288189Y223622D03*
X307874Y222835D03*
Y209843D03*
X297632Y218345D03*
X270472Y210236D03*
X281102Y218504D03*
Y214173D03*
X270630Y222759D03*
X283118Y238630D03*
X285433Y223622D03*
X267323Y222834D03*
X286172Y213434D03*
X267481Y213488D03*
X267443Y216591D03*
X311335Y219494D03*
X311389Y216436D03*
X289370Y219685D03*
X292520Y216535D03*
X287795Y209451D03*
X294094D03*
X292568Y219637D03*
X282298Y220470D03*
X290945Y223618D03*
X289358Y234841D03*
X289322Y238534D03*
X264173Y241732D03*
X267323D03*
Y235433D03*
X264173Y238582D03*
X267323D03*
X270472D03*
X267323Y229134D03*
X276772Y238582D03*
X298819D03*
X301968D03*
X311417Y241732D03*
X314567Y238582D03*
Y241732D03*
X311417Y238582D03*
Y235433D03*
X307815Y232235D03*
X308268Y238582D03*
X320818Y241684D03*
X320914Y238534D03*
X320866Y235385D03*
X308268Y251133D03*
X308220Y248079D03*
X308341Y259689D03*
X311417Y248079D03*
X311478Y258064D03*
X311369Y251133D03*
X314567Y247983D03*
Y258994D03*
Y251181D03*
X317716Y251133D03*
X317669Y254282D03*
X320818Y203889D03*
X317669Y210188D03*
X320914Y229181D03*
X230917Y204724D03*
X317669Y219733D03*
X282270Y209115D03*
X251575Y207134D03*
X212361Y209869D03*
X248223Y210188D03*
X206913Y269133D03*
X261024Y219733D03*
X317669Y222882D03*
X308316Y229085D03*
X251527Y244834D03*
X257922Y210188D03*
X320866Y232235D03*
X233600Y222969D03*
X267420Y219684D03*
X248425Y222834D03*
X317716Y257480D03*
X320866Y251181D03*
X317716Y232283D03*
Y241732D03*
Y248031D03*
X320866Y244882D03*
X212010Y212598D03*
X292568Y238534D03*
X286216Y219655D03*
X217898Y204724D03*
X297697Y209843D03*
X298819Y244882D03*
X217604Y219270D03*
X289370Y248031D03*
X248425Y207086D03*
X283071Y241732D03*
X248425Y235433D03*
X270472Y257480D03*
X289370Y241732D03*
X307735Y219451D03*
X314567Y229134D03*
X267323Y254330D03*
X202721Y243572D03*
X261024Y248031D03*
X257874Y251181D03*
X254724Y254330D03*
X248425Y248031D03*
X254724Y257480D03*
X248425D03*
X264173D03*
Y244882D03*
Y254330D03*
X251575Y251181D03*
Y248031D03*
X254724Y244882D03*
X307721Y214360D03*
X292520Y241732D03*
X273622Y244882D03*
X276772Y241732D03*
X270472D03*
X273622Y238582D03*
X284646Y234891D03*
X251575Y213385D03*
X289370Y251181D03*
Y254330D03*
X292520Y257480D03*
X286220D03*
X212361Y228346D03*
X298819Y241732D03*
X314567Y235433D03*
X305118Y238582D03*
X314567Y244882D03*
X301968Y241732D03*
X305118Y244882D03*
X308268Y241732D03*
X311417Y232283D03*
X305118Y248031D03*
Y251181D03*
X308268Y254330D03*
Y257480D03*
X311417Y222835D03*
X297638Y222441D03*
X264173Y203937D03*
X282854Y224148D03*
X280570Y225176D03*
X285039Y230315D03*
X291732Y234829D03*
X300256Y233611D03*
X278091D03*
X295669Y207709D03*
X298279Y207284D03*
X289370Y216535D03*
X292568Y213434D03*
X293455Y223618D03*
X289370Y213385D03*
X290945Y209451D03*
X284646D03*
X286172Y216583D03*
X280709Y211024D03*
X270472Y219685D03*
X280650Y222668D03*
X280514Y207553D03*
X270526Y213542D03*
X261024Y241732D03*
X264173Y235433D03*
X261024Y207086D03*
Y232283D03*
Y216535D03*
X267455Y210268D03*
X264173Y207086D03*
Y213385D03*
X264246Y226015D03*
X264173Y216535D03*
Y229134D03*
X267323Y232283D03*
X314567Y203937D03*
X311389Y210307D03*
X314567Y207086D03*
Y213385D03*
Y216535D03*
X217894Y244160D03*
X221260Y239232D03*
X215528Y222326D03*
X231786Y220960D03*
X284646Y207087D03*
X257850Y241780D03*
X231855Y260808D03*
X241273Y254272D03*
X256060Y267937D03*
X264125Y248007D03*
X312995Y267982D03*
X270424Y203889D03*
X257826Y216487D03*
X320818Y210212D03*
Y213433D03*
Y216583D03*
Y219637D03*
X292568Y248031D03*
X298771Y254282D03*
X265471Y263684D03*
X304518Y261203D03*
X297244Y259453D03*
X246709Y251059D03*
X254724Y247983D03*
X257874Y244882D03*
X272046Y234848D03*
X292568Y251229D03*
X202721Y216013D03*
X254676Y235481D03*
X213670Y257352D03*
X247275Y238522D03*
X204535Y253415D03*
X257826Y232235D03*
X211856Y251447D03*
X251623Y235385D03*
X224837Y249008D03*
X205644Y221764D03*
X238935Y221951D03*
X257874Y229085D03*
X204536Y239636D03*
X260976Y225936D03*
X202721Y235698D03*
X251575Y229085D03*
X205130Y229263D03*
X202721Y229793D03*
X254676Y222882D03*
X204425Y225856D03*
X251575Y222834D03*
X257826Y219733D03*
X211856Y216236D03*
X246709Y219624D03*
X203011Y219950D03*
X204810Y217982D03*
X254772Y219637D03*
X205644Y204240D03*
X254724Y207086D03*
X248425Y203937D03*
X254724D03*
X251575D03*
X257874D03*
X246709Y213325D03*
X203830Y206055D03*
X241258Y212146D03*
X254676Y210188D03*
X261024Y210284D03*
X317716Y207134D03*
X320818D03*
X303604Y233411D03*
X314615Y225936D03*
X320818Y222882D03*
X223269Y241010D03*
X221379Y231355D03*
X254772Y213337D03*
X257826Y222882D03*
X241111Y303477D03*
X244021Y272786D03*
X228203Y287163D03*
X228379Y284392D03*
X239680Y294347D03*
X214583Y317364D03*
X213193Y301193D03*
X203790Y321865D03*
X211597Y289265D03*
X279353Y297384D03*
X227122Y317536D03*
X298917Y297261D03*
X304035Y297426D03*
X305680Y302499D03*
X264480Y298529D03*
X271747Y297428D03*
X319390Y288937D03*
X260976Y213433D03*
X262066Y299436D03*
X258902Y297953D03*
X265685Y310072D03*
X258214Y320223D03*
X269275Y310023D03*
X291951Y297058D03*
X289547Y297205D03*
X309395Y279838D03*
X304748Y275295D03*
X269394Y273375D03*
X286266Y282836D03*
X286361Y280430D03*
X284521Y286266D03*
X284548Y288864D03*
X292220Y289771D03*
Y287362D03*
X305339Y288256D03*
X273622Y282210D03*
X275756Y288405D03*
X282304Y274486D03*
X269127Y278174D03*
X269192Y282947D03*
X282623Y281883D03*
X247008Y305211D03*
X285275Y298646D03*
X287277Y297307D03*
X283099Y297541D03*
X230745Y268276D03*
X224245Y262597D03*
X227141Y307118D03*
X289020Y327693D03*
X313589Y333681D03*
X289034Y335391D03*
X282395Y327491D03*
X283995Y329291D03*
X282499Y335428D03*
X265954Y340350D03*
X246085Y334545D03*
X214637Y339624D03*
X285986Y327731D03*
X264874D03*
X268041Y327764D03*
X271340Y327797D03*
X274572Y327863D03*
X309935Y327764D03*
X306768Y327896D03*
X303404D03*
X321216Y328061D03*
X317917D03*
X300237Y327929D03*
X211614Y328740D03*
X255103Y322835D03*
X237199Y344190D03*
X229873Y323615D03*
X231592Y331762D03*
X301357Y339926D03*
X303570Y334929D03*
X227908Y327256D03*
X227273Y324932D03*
X430300Y-41339D03*
X418960Y43342D03*
X402498Y-26583D03*
X347903Y54016D03*
X324281Y29157D03*
X408282Y5906D03*
X438976Y-10223D03*
X417448Y36658D03*
X382874Y65886D03*
X423228Y43307D03*
X394685Y44291D03*
X391580Y60288D03*
X385448Y36657D03*
X389448Y34148D03*
X436872Y-5023D03*
X378966Y6706D03*
X377152Y4242D03*
X437077Y30521D03*
X380998Y44769D03*
X373448Y55347D03*
X384905Y60096D03*
X433448Y36053D03*
X381858Y48172D03*
X438976Y-23241D03*
X394305Y68898D03*
Y51181D03*
X435644Y45277D03*
X429448Y33952D03*
X413448Y36658D03*
X381858Y60866D03*
X375239Y58866D03*
X436872Y-27517D03*
X438976Y15145D03*
X439432Y2995D03*
X430300Y5906D03*
X408282Y-5906D03*
X391311Y1027D03*
X399607Y15145D03*
X394304Y80708D03*
X391175Y-11691D03*
X368527Y46867D03*
X370320Y80866D03*
X364253Y78866D03*
X360625D03*
X373687Y76866D03*
X360030Y58529D03*
X349717Y37776D03*
X407448Y76764D03*
X401448Y74240D03*
X397448Y73811D03*
X395448Y36657D03*
X374020Y62866D03*
X405447Y-17716D03*
X435913Y60931D03*
X435770Y57634D03*
X383512Y54051D03*
X421458Y46015D03*
X421526Y77423D03*
X421354Y66732D03*
X436879Y78866D03*
X433474Y62118D03*
X437126Y66876D03*
X412291Y56170D03*
X429800Y50997D03*
X438865Y35183D03*
X437563Y38859D03*
X415448Y50320D03*
X411448Y34460D03*
X409411Y48845D03*
X391233Y6981D03*
X405273Y3727D03*
X369665Y32334D03*
X417477Y-37655D03*
X328740Y106439D03*
X326617Y96358D03*
X324494Y104399D03*
X332155Y100771D03*
X334419Y130655D03*
X340029Y101791D03*
Y112507D03*
X330554Y125921D03*
X322680Y89534D03*
X398241Y122047D03*
Y112205D03*
X332677Y158084D03*
X324803D03*
X422242Y167323D03*
X376588Y173565D03*
X422244Y179134D03*
X422244Y139764D03*
X422244Y192913D03*
X413386Y84042D03*
X366943Y196850D03*
X345472Y188976D03*
X422244Y114173D03*
Y127953D03*
X419291Y97060D03*
X376588Y149606D03*
X327165Y197637D03*
X324016Y181889D03*
X346457Y177165D03*
X347822Y149606D03*
X324803Y136993D03*
X347822Y165354D03*
X340551Y158084D03*
X327165Y175590D03*
Y178740D03*
X330315D03*
X389766Y97059D03*
X361777Y196020D03*
X401245Y166499D03*
X400651Y159448D03*
X366194Y199958D03*
X408114Y170812D03*
X382488Y159898D03*
X427687Y135826D03*
X328740Y154454D03*
X439325Y129921D03*
X328740Y164541D03*
X425873Y153859D03*
X429049Y124015D03*
X431505Y120078D03*
X439525Y114173D03*
X387037Y137872D03*
X413262Y115458D03*
X370457Y127456D03*
X388851Y127644D03*
X406002Y124015D03*
X424059Y182143D03*
X379455Y131889D03*
X377641Y135826D03*
X439568Y192913D03*
X332060Y196063D03*
X437457Y175042D03*
X323968Y194464D03*
X440491Y164495D03*
X333643Y167168D03*
X331364Y191290D03*
X323968D03*
X385341Y171751D03*
X408115Y182916D03*
X373588D03*
X327117Y188164D03*
X410136Y179288D03*
X412544Y181102D03*
X323968Y188236D03*
X330267Y184991D03*
X400651Y177388D03*
X327117Y184991D03*
X408598Y187008D03*
X390182D03*
X330315Y181937D03*
X382933Y167323D03*
X383572Y187210D03*
X323968Y200739D03*
X327117Y200787D03*
X363554Y165354D03*
X418095Y199346D03*
X421594Y151574D03*
X409082Y201772D03*
X413067Y152045D03*
X364490Y197835D03*
X398837Y170951D03*
Y149606D03*
X361777Y199803D03*
X367897Y201772D03*
X428281Y155511D03*
X432535Y153543D03*
X430095Y149606D03*
X393394Y143700D03*
X395208Y145669D03*
X397022Y147637D03*
X406895Y157480D03*
X402047Y141732D03*
X412600Y166309D03*
X409634Y108196D03*
X415448D03*
X425197Y105983D03*
X431102Y97061D03*
X431448Y105076D03*
X375239Y94588D03*
X395669Y97776D03*
X413386Y98457D03*
X385223Y112205D03*
Y122047D03*
X323968Y197637D03*
X372271Y106439D03*
X378402Y175574D03*
X423273Y122087D03*
X330315Y188189D03*
Y175590D03*
X418799Y107065D03*
X330315Y197637D03*
X360840Y149606D03*
Y165354D03*
X437008Y84042D03*
X421304Y133858D03*
X332677Y145066D03*
X362205Y177165D03*
X421304Y173228D03*
X363189Y189024D03*
X414286Y185039D03*
X340551Y145066D03*
X324803D03*
X376588Y165354D03*
X379944Y196850D03*
X324803Y114975D03*
X324016Y178740D03*
X419291Y84042D03*
X435643Y192913D03*
Y179134D03*
Y167323D03*
Y127953D03*
Y139764D03*
X435841Y157480D03*
X435643Y114173D03*
X381858Y94866D03*
X381858Y84866D03*
X395669Y84042D03*
X389766Y84041D03*
X324016Y185039D03*
X376588Y157480D03*
X431102Y84042D03*
X425197Y84042D03*
X409448Y105076D03*
X342354Y187770D03*
X354459Y200738D03*
X341540Y197989D03*
X343852Y199803D03*
X341551Y201772D03*
X362439Y136821D03*
X358811Y82149D03*
X383672Y88681D03*
X403448Y92774D03*
X399448Y95275D03*
X387262Y98172D03*
X369994Y182916D03*
X365574Y111388D03*
X441611Y180670D03*
X360812Y157471D03*
X347450D03*
X366067Y86866D03*
X334056Y289028D03*
X343966Y274843D03*
X340704Y304952D03*
X327067Y310085D03*
X324508Y309983D03*
X393190Y295028D03*
X400428Y320618D03*
X393179Y311289D03*
X398413Y311145D03*
X384404Y300454D03*
X380790Y299406D03*
X378158Y300706D03*
X370698Y303922D03*
X375519Y295917D03*
X379966Y295780D03*
X368792Y308021D03*
X368700Y288102D03*
X415472Y304422D03*
X398194Y299725D03*
X428987Y311120D03*
X330416Y310156D03*
X388180Y299776D03*
X420659Y298601D03*
X424930Y298520D03*
X340283Y311138D03*
X333289Y317703D03*
X349114Y299240D03*
X329344Y312992D03*
X364469Y309986D03*
X328743Y274985D03*
X329344Y293307D03*
X334646Y301159D03*
X336615Y274987D03*
X360840Y275591D03*
X361910Y297422D03*
X422244Y287402D03*
Y273622D03*
X364469Y297422D03*
X439338Y281496D03*
X437652Y275590D03*
X440191Y271653D03*
X413283Y269685D03*
X413338Y274452D03*
X409684Y271499D03*
X407572Y287401D03*
X329326Y318408D03*
X325418Y274985D03*
X361910Y308664D03*
X333665Y291337D03*
X421304Y279527D03*
X359351Y297422D03*
X435643Y273622D03*
Y287402D03*
X357236Y298808D03*
X351573Y310110D03*
X346555Y308174D03*
X327165Y254330D03*
X330315D03*
X422244Y222441D03*
Y208661D03*
X422242Y261811D03*
X360840Y267717D03*
X366943Y238189D03*
X422244Y234252D03*
X327165Y213385D03*
Y257480D03*
X345472Y228346D03*
X324016Y251181D03*
X354758Y208661D03*
X361777Y225932D03*
X366943Y235236D03*
X381757Y255905D03*
X387200D03*
X333343Y207368D03*
X330267Y251181D03*
X327117D03*
X331877Y255905D03*
X327166Y247983D03*
X323968Y244834D03*
X327166Y244906D03*
X323968Y241684D03*
X327117D03*
X392084Y223423D03*
X424058Y253125D03*
X370715Y257999D03*
X323968Y238534D03*
X393898Y242146D03*
X396306Y242012D03*
X365436Y248942D03*
X392048Y247128D03*
X408115Y233194D03*
X334657Y235804D03*
X412842Y226378D03*
X327117Y235385D03*
X412481Y230315D03*
X432747Y265748D03*
X334457Y261839D03*
X383982Y267870D03*
X425872Y251311D03*
X428281Y265439D03*
X328889Y262487D03*
X331298Y261839D03*
X421594Y246063D03*
X413291D03*
X390233Y238189D03*
X399934Y243960D03*
X431315Y205400D03*
X361777D03*
X399744Y216445D03*
X437457Y246063D03*
X414286Y212598D03*
X433129Y244094D03*
Y212598D03*
X437457Y210784D03*
X388967Y214925D03*
X392974Y216205D03*
X439944Y214721D03*
X364490Y217520D03*
X410482Y238189D03*
X366194Y220083D03*
X399934Y223178D03*
Y238189D03*
X367592Y230161D03*
X388419Y228346D03*
X383572Y257719D03*
X362359Y235236D03*
X364534Y238864D03*
X362067Y239173D03*
X375962Y240003D03*
X376748Y237050D03*
X407187Y236822D03*
X379943Y257804D03*
X327117Y222786D03*
X324064Y232235D03*
X334657Y230708D03*
X336471Y255565D03*
X324016Y248031D03*
X379949Y216739D03*
X364173Y228346D03*
X330315Y244882D03*
X421304Y228346D03*
X435643Y222441D03*
X437810Y251968D03*
X421304Y216535D03*
X379943Y238189D03*
X364173Y263134D03*
X330315Y257480D03*
Y235433D03*
X327165Y216535D03*
X330315Y207086D03*
X421304Y267716D03*
X435643Y261811D03*
Y234252D03*
Y208661D03*
X323968Y203985D03*
Y207038D03*
X327117Y207086D03*
X323968Y210284D03*
X343365Y203740D03*
X337691Y211823D03*
X323968Y213385D03*
X343811Y207677D03*
X330267Y213433D03*
X339711Y209646D03*
X338759Y214412D03*
X323968Y216535D03*
X336098Y216226D03*
X344302Y219488D03*
X342602Y230161D03*
X323968Y229085D03*
X327117Y229133D03*
X345830Y232522D03*
X355122Y254978D03*
X341741Y235236D03*
X324380Y261328D03*
X341319Y256323D03*
X333538Y214293D03*
X331781Y216462D03*
X346884Y238035D03*
X332476Y229085D03*
X324064Y222786D03*
X338112Y230708D03*
X340130Y249497D03*
X344805Y254509D03*
X330267Y229085D03*
X345429Y212510D03*
X338193Y221569D03*
X429794Y251927D03*
X361950Y221457D03*
X364158Y212612D03*
X362334Y207743D03*
X365972Y208970D03*
X368285Y210809D03*
X365339Y204661D03*
X366911Y216739D03*
X425872Y244859D03*
X368514Y207181D03*
X339155Y297426D03*
X403194Y299709D03*
X327067Y300473D03*
X321949Y299481D03*
X421786Y321797D03*
X351674Y287417D03*
X367777Y292565D03*
X407103Y295004D03*
X324508Y288937D03*
X418200Y321797D03*
X341494Y289243D03*
X406928Y328554D03*
X426906D03*
X437853Y336867D03*
X436791Y322533D03*
X403883Y322807D03*
X400486Y323216D03*
X425266Y353438D03*
X400988Y352852D03*
X350926Y334518D03*
X338285Y339792D03*
X344145Y336694D03*
X324449Y327995D03*
X327747Y327962D03*
X335697Y327797D03*
X338864D03*
X342130Y327896D03*
X353346Y327929D03*
X356644Y327896D03*
X359877Y327863D03*
X363176Y327962D03*
X327736Y336228D03*
X426499Y331463D03*
X446850Y-23241D03*
X459904Y-27517D03*
X502145Y77461D03*
X462598Y-10223D03*
X454724Y-5809D03*
X470472Y-8213D03*
X459904Y-5897D03*
X462463D03*
X465022Y2995D03*
X447109Y-27517D03*
X462463D03*
X470472Y-23241D03*
X462598D03*
X454724D03*
X446850Y-10223D03*
X465022Y-10027D03*
X455019Y47461D03*
X453520Y70248D03*
X452562Y75267D03*
X447743Y61642D03*
X454512Y77422D03*
X452099Y52587D03*
X448590Y32165D03*
X445740Y55588D03*
X452042Y58494D03*
X451817Y43059D03*
X510644Y61024D03*
X501478Y52461D03*
X504691Y77779D03*
X507768D03*
X511010Y74828D03*
X523916Y74803D03*
X470042Y183750D03*
X509066Y170199D03*
X459646Y185039D03*
X457859Y157480D03*
X459646Y133858D03*
Y122047D03*
Y173228D03*
X460573Y157480D03*
X467893Y131889D03*
X442813Y118110D03*
X445338Y188976D03*
X443271Y175196D03*
X467893Y171259D03*
X454877Y151574D03*
X449870Y147637D03*
X454877Y145669D03*
X453062Y143700D03*
X446057Y147483D03*
X460585Y165354D03*
X442913Y98875D03*
X511207Y82677D03*
X446247Y185039D03*
Y173228D03*
Y133858D03*
Y122047D03*
X469572Y190985D03*
X460585Y179134D03*
X467604Y167322D03*
Y116141D03*
Y127993D03*
Y139763D03*
X445922Y90866D03*
X467604Y194882D03*
Y112204D03*
X445923Y87551D03*
X450308Y97036D03*
X456365Y98719D03*
X471640Y142480D03*
X501158Y92515D03*
X466286Y108460D03*
X446286Y159448D03*
X523916Y82635D03*
X475000Y119000D03*
X488667Y176347D03*
X509462Y142069D03*
X509369Y122136D03*
X544034Y193393D03*
X523134Y205370D03*
X509346Y215282D03*
X464554Y298076D03*
X464497Y301816D03*
X450800Y309738D03*
X532104Y255413D03*
X538486Y242914D03*
X543405Y228826D03*
Y281976D03*
Y246543D03*
X459646Y279528D03*
X451096Y285392D03*
X456692Y283464D03*
X443121Y277559D03*
X446247Y279528D03*
X467604Y285473D03*
Y273622D03*
Y289370D03*
X493986Y278425D03*
X496063Y265040D03*
X469951Y224409D03*
X513780Y256509D03*
X496063Y243009D03*
X459646Y216535D03*
Y228346D03*
Y267715D03*
X450810Y251968D03*
X460207Y251968D03*
X467893Y230315D03*
X467644Y226378D03*
X451547Y220472D03*
X448656Y232881D03*
X454877Y213526D03*
X442430Y208661D03*
X448801Y253937D03*
X454877Y203586D03*
X444544Y218553D03*
X444244Y236220D03*
X449119Y259842D03*
X508915Y247000D03*
X505906Y256509D03*
X533262Y230177D03*
X482284Y256509D03*
X491063Y243009D03*
X511063D03*
X506063D03*
X498032Y256509D03*
X446247Y228346D03*
Y216535D03*
X446247Y267715D03*
X467604Y222481D03*
Y234252D03*
Y261811D03*
X460585Y206693D03*
Y210630D03*
X490158Y256509D03*
X482355Y267868D03*
X488853Y216307D03*
X444723Y295751D03*
X443773Y309672D03*
X483609Y279647D03*
X458122Y291797D03*
X457162Y327318D03*
X447032Y327402D03*
X460176Y358209D03*
X448623Y356451D03*
X446982Y331304D03*
X457101Y331344D03*
X447024Y323593D03*
G54D21*
X554284Y334837D03*
X580284D03*
G54D13*
X14222Y13880D03*
X33465Y192913D03*
X19685D03*
Y224409D03*
X33465D03*
X19685Y208661D03*
X33465D03*
X101961Y15563D03*
Y8063D03*
X320866Y25591D03*
X226378Y17717D03*
Y25591D03*
X234252Y17717D03*
Y25591D03*
X242126Y17717D03*
Y25591D03*
X250000Y17717D03*
Y25591D03*
X257874Y17717D03*
Y25591D03*
X265748Y17717D03*
Y25591D03*
X273622Y17717D03*
Y25591D03*
X281496Y17717D03*
Y25591D03*
X289370Y17717D03*
Y25591D03*
X297244Y17717D03*
Y25591D03*
X305118Y17717D03*
Y25591D03*
X312992Y17717D03*
Y25591D03*
X320866Y17717D03*
X257874Y43307D03*
X250000Y51181D03*
Y43307D03*
X242126Y51181D03*
Y43307D03*
X234252Y51181D03*
Y43307D03*
X320866Y51181D03*
Y43307D03*
X312992Y51181D03*
Y43307D03*
X305118Y51181D03*
Y43307D03*
X297244Y51181D03*
X226378D03*
X297244Y43307D03*
X289370Y51181D03*
Y43307D03*
X281496Y51181D03*
Y43307D03*
X273622Y51181D03*
Y43307D03*
X265748Y51181D03*
Y43307D03*
X257874Y51181D03*
X226378Y43307D03*
X238754Y149598D03*
X234252Y301181D03*
X234230Y309410D03*
Y284810D03*
X253859Y345155D03*
Y353029D03*
X261733Y345155D03*
Y353029D03*
X269607Y345155D03*
Y353029D03*
X277481Y345155D03*
Y353029D03*
X285355Y345155D03*
Y353029D03*
X293229Y345155D03*
Y353029D03*
X301103Y345155D03*
Y353029D03*
X308977Y345155D03*
Y353029D03*
X316851Y345155D03*
Y353029D03*
X328740Y17717D03*
Y25591D03*
X336614Y17717D03*
Y25591D03*
X344488Y17717D03*
Y25591D03*
X352362Y17717D03*
Y25591D03*
X352362Y51181D03*
Y43307D03*
X344488Y51181D03*
Y43307D03*
X336614Y51181D03*
Y43307D03*
X328740Y51181D03*
Y43307D03*
X441691Y315460D03*
X348347Y353029D03*
X356221Y345155D03*
Y353029D03*
X364095Y345155D03*
Y353029D03*
X371969Y345155D03*
Y353029D03*
X379843Y345155D03*
X324725D03*
Y353029D03*
X332599Y345155D03*
Y353029D03*
X340473Y345155D03*
Y353029D03*
X348347Y345155D03*
X379843Y353029D03*
X532716Y119660D03*
X542716Y114660D03*
X532716Y109660D03*
X542716Y104660D03*
X532716Y99660D03*
X542716Y94660D03*
X532716Y89660D03*
X542716Y84660D03*
G54D22*
X567916Y81060D03*
Y123160D03*
G54D23*
G01X44533Y63342D02*
X45228D01*
G01X44533D02*
Y62647D01*
G01Y63342D02*
X45228Y62647D01*
G01X40390Y75312D02*
X42013Y73689D01*
Y65862D01*
X44533Y63342D01*
G01X52368Y52407D02*
X51623D01*
G01X52368D02*
X52318Y53102D01*
G01X52368Y52407D02*
X51673Y53102D01*
X51623D01*
G01X56905Y47870D02*
X52368Y52407D01*
G01X72677Y50290D02*
Y50946D01*
X71216Y52407D01*
G01D02*
X70521D01*
G01X71216D02*
Y53102D01*
G01Y52407D02*
X70521Y53102D01*
G01X70863Y48109D02*
X70372Y48600D01*
G01X70863Y48109D02*
X71354Y48600D01*
G01X70863Y48109D02*
Y47870D01*
G01Y49091D02*
Y48109D01*
G01X67371Y48702D02*
X66880Y49193D01*
G01X67371Y48702D02*
X67862Y49193D01*
G01X67371Y48702D02*
Y47870D01*
G01Y49684D02*
Y48702D01*
G01X80568Y61856D02*
X79874D01*
G01X80568D02*
X79874Y62551D01*
G01X41194Y61088D02*
X40390D01*
G01X69730Y69641D02*
X70425D01*
G01X69730D02*
Y68946D01*
G01Y69641D02*
X70425Y68946D01*
G01X68959Y105319D02*
Y70412D01*
X69730Y69641D01*
G01X75344Y48565D02*
X76038D01*
G01X75344D02*
Y47870D01*
G01Y48565D02*
X75120Y48788D01*
Y70197D01*
X78331Y73408D01*
Y102223D01*
X77464Y103090D01*
G01X76038Y47870D02*
X75344Y48565D01*
G01X71216Y66491D02*
Y65796D01*
G01Y66491D02*
X70521D01*
G01X71216D02*
X70521Y65796D01*
G01X75737Y105319D02*
X72035Y101617D01*
Y67310D01*
X71216Y66491D01*
G01X64914Y60140D02*
X64892Y59445D01*
G01X64914Y60140D02*
X64197D01*
G01X64914D02*
X65806Y61031D01*
Y85254D01*
X65735Y85324D01*
Y99422D01*
X59838Y105319D01*
G01X64197Y59445D02*
X64326Y59574D01*
X64349D01*
X64914Y60140D01*
G01X49168Y79090D02*
Y78395D01*
G01Y79090D02*
X48473D01*
G01X49168D02*
X48473Y78395D01*
G01X53163Y105319D02*
Y83085D01*
X49168Y79090D01*
G01X77464Y68155D02*
X76769D01*
G01X77464D02*
Y68850D01*
G01Y68155D02*
X76769Y68850D01*
G01X94566Y103313D02*
X94082Y102830D01*
Y86359D01*
X92199Y84476D01*
Y78711D01*
X90321Y76833D01*
X88603D01*
X87687Y75917D01*
Y74522D01*
X84659Y71493D01*
Y65203D01*
X83617Y64161D01*
X79003D01*
X78238Y64926D01*
Y67382D01*
X77464Y68155D01*
G01X70521Y83615D02*
Y76626D01*
G01D02*
X71012Y76135D01*
G01X70521Y76626D02*
X70030Y76135D01*
G01X70521Y76626D02*
Y75644D01*
G01X57827Y79281D02*
X58318Y78790D01*
G01X57827Y79281D02*
X57336Y78790D01*
G01X57827Y79281D02*
Y78299D01*
G01X56239Y105319D02*
Y83877D01*
X57827Y82290D01*
Y79281D01*
G01X44533Y72694D02*
X45228D01*
G01X44533D02*
Y72000D01*
G01Y72694D02*
X45228Y72000D01*
G01X47683Y96502D02*
X43714Y92533D01*
Y73514D01*
X44533Y72694D01*
G01X66353Y53139D02*
X66844Y53630D01*
G01X66353Y53139D02*
X66844Y52648D01*
G01X61777Y47870D02*
Y48664D01*
X55777Y54664D01*
X54163D01*
X53163Y55664D01*
Y72828D01*
X53944Y73609D01*
X58607D01*
X59388Y74390D01*
Y95561D01*
X60330Y96502D01*
G01X46864Y47870D02*
Y83084D01*
X47683Y83903D01*
G01X54677Y83615D02*
Y82169D01*
X50061Y77553D01*
Y49700D01*
X51891Y47870D01*
G01X69007D02*
Y53835D01*
X69788Y54616D01*
X71105D01*
X72855Y56366D01*
Y93328D01*
X76029Y96502D01*
G01X73693Y49200D02*
Y91017D01*
X76029Y93352D01*
G01X66353Y53139D02*
X67335D01*
G01X66844Y53630D02*
X66353Y53139D01*
G01D02*
X64213D01*
X59416Y57936D01*
Y69775D01*
X60537Y70896D01*
X63183D01*
X64663Y72376D01*
Y81478D01*
X62555Y83586D01*
Y101019D01*
X58255Y105319D01*
X58113D01*
G01X80566Y94836D02*
X79872D01*
G01X80566D02*
X79872Y94141D01*
G01X54677Y83615D02*
X54186Y84106D01*
G01X54677Y83615D02*
X55168Y84106D01*
G01X54677Y84598D02*
Y83615D01*
G01X76029Y93352D02*
Y94047D01*
G01Y93352D02*
X76724D01*
G01X76029D02*
X76724Y94047D01*
G01X76029Y96502D02*
Y97197D01*
G01Y96502D02*
X76724D01*
G01X76029D02*
X76724Y97197D01*
G01X47683Y83903D02*
Y84598D01*
G01Y83903D02*
X48378D01*
G01X47683D02*
X48378Y84598D01*
G01X60330Y96502D02*
Y97197D01*
G01Y96502D02*
X61024D01*
G01X60330D02*
X61024Y97197D01*
G01X77464Y103090D02*
X76769D01*
G01X77464D02*
Y103785D01*
G01Y103090D02*
X76769Y103785D01*
G01X80554Y101054D02*
X79859D01*
G01X80554D02*
X79859Y100360D01*
G01X70521Y83615D02*
X70030Y84106D01*
G01X70521Y83615D02*
X71012Y84106D01*
G01X70521Y84598D02*
Y83615D01*
G01X47683Y96502D02*
Y97197D01*
G01Y96502D02*
X48378D01*
G01Y97197D02*
X47683Y96502D01*
G01X82543Y105319D02*
Y96812D01*
X80566Y94836D01*
G01X81422Y101923D02*
X80554Y101054D01*
G01X83023Y55270D02*
X82532Y55761D01*
G01X83023Y55270D02*
X83514Y55761D01*
G01X83023Y55270D02*
Y56252D01*
G01X91006Y47870D02*
X88741D01*
X83023Y53588D01*
Y55270D01*
G01X83722Y60192D02*
X83717Y59497D01*
G01X83722Y60192D02*
X83023D01*
G01X83722D02*
X84541Y61011D01*
X97839D01*
G01X83023Y59497D02*
X83027D01*
X83722Y60192D01*
G01X80568Y61856D02*
Y62551D01*
G01X94034Y49345D02*
Y50632D01*
X92284Y52382D01*
X87492D01*
X84537Y55338D01*
Y56887D01*
X83537Y57887D01*
X82388D01*
X81388Y58887D01*
Y61037D01*
X80568Y61856D01*
G01X93166Y57042D02*
Y56347D01*
G01Y57042D02*
X92472D01*
G01X93166D02*
X93938Y57814D01*
X96934D01*
X97839Y58718D01*
G01X92472Y56347D02*
X93166Y57042D01*
G01X86867Y63342D02*
Y62647D01*
G01Y63342D02*
X86173D01*
G01X86867D02*
X87687Y64161D01*
Y66455D01*
X88613Y67381D01*
X93112D01*
X93956Y68225D01*
Y76228D01*
X96383Y78655D01*
Y82861D01*
X97839Y84317D01*
G01X86173Y62647D02*
X86867Y63342D01*
G01X92442Y69877D02*
X92933Y69386D01*
G01X92442Y69877D02*
X91950Y69386D01*
G01X92442Y69877D02*
Y68895D01*
G01X97839Y86051D02*
X95561Y83773D01*
Y78992D01*
X92442Y75873D01*
Y69877D01*
G01X90017Y63342D02*
Y62647D01*
G01Y63342D02*
X89323D01*
G01X90017D02*
X90866Y64190D01*
X96477D01*
X97084Y64797D01*
G01X89323Y62647D02*
X90017Y63342D01*
G01X95970Y72378D02*
X96476Y71873D01*
G01X95970Y72378D02*
X95612Y71873D01*
G01X86608Y66866D02*
Y66056D01*
G01Y66866D02*
X86867Y67125D01*
G01X86173Y65796D02*
Y66431D01*
X86608Y66866D01*
G01X86867Y67125D02*
Y65796D01*
G01Y67125D02*
X86173Y66491D01*
G01X86867Y67125D02*
X87735Y67993D01*
Y72567D01*
X88713Y73545D01*
X90598D01*
X91608Y74555D01*
Y76199D01*
X93374Y77965D01*
Y83302D01*
X97839Y87767D01*
G01X83717Y78993D02*
Y78299D01*
G01Y78993D02*
X83023D01*
G01X83717D02*
X83023Y78299D01*
G01X93936Y105173D02*
X90918Y102155D01*
Y85336D01*
X90932Y85321D01*
Y80917D01*
X89876Y79861D01*
X84585D01*
X83717Y78993D01*
G01X82328Y66491D02*
X83023D01*
G01X82328D02*
Y65796D01*
G01Y66491D02*
X83023Y65796D01*
G01X83928Y105319D02*
Y94878D01*
X81509Y92459D01*
Y67310D01*
X82328Y66491D01*
G01X96054Y71382D02*
X95970Y71466D01*
Y72378D01*
G01X80566Y94836D02*
Y94141D01*
G01X86882Y87070D02*
X86187D01*
G01X86882D02*
Y87765D01*
G01Y87070D02*
X87805Y86147D01*
Y83176D01*
X86867Y82238D01*
G01X86187Y87765D02*
X86882Y87070D01*
G01X86867Y82238D02*
Y81544D01*
G01Y82238D02*
X86173D01*
G01X86867D02*
X86173Y81544D01*
G01X88778Y104199D02*
X88287Y103708D01*
G01X88778Y104199D02*
X88287Y104690D01*
G01X88778Y104199D02*
X90524D01*
X91643Y105319D01*
G01X87796Y104199D02*
X88778D01*
G01X83814Y85388D02*
Y84694D01*
G01Y85388D02*
X83119D01*
G01X83814D02*
X84585Y86160D01*
Y89309D01*
X85478Y90202D01*
G01X83119Y84694D02*
X83814Y85388D01*
G01X85478Y90202D02*
Y90897D01*
G01Y90202D02*
X86173D01*
G01X85478D02*
X86173Y90897D01*
G01X80554Y101054D02*
Y100360D01*
G01X89418Y85676D02*
X89909Y85185D01*
G01X89418Y85676D02*
X88927Y85185D01*
G01X89418Y85676D02*
Y84694D01*
G01X86282Y105319D02*
Y102685D01*
X87846Y101121D01*
Y87744D01*
X89418Y86172D01*
Y85676D01*
G01X94566Y103313D02*
Y104008D01*
G01Y103313D02*
X95260D01*
G01Y104008D02*
X94566Y103313D01*
G01X294034Y261839D02*
Y252695D01*
X293262Y251923D01*
G01X288628Y187542D02*
X287644Y186558D01*
X282391D01*
X281557Y185724D01*
Y173794D01*
X282698Y172653D01*
Y171252D01*
G01X269730Y184296D02*
X268837Y183403D01*
Y171252D01*
G01X266580Y177997D02*
X264975Y176392D01*
Y173256D01*
X262971Y171252D01*
X260353D01*
G01X280737D02*
Y177876D01*
X277466Y181147D01*
G01X244075Y181435D02*
X246089Y183449D01*
X262614D01*
X263431Y182632D01*
G01X290113Y184296D02*
X290884Y183525D01*
Y173372D01*
X291950Y172306D01*
X303547D01*
X304601Y171252D01*
G01X305821D02*
Y171941D01*
X304571Y173191D01*
X295844D01*
X294094Y174941D01*
Y180314D01*
X293262Y181147D01*
G01X307241Y171252D02*
Y172924D01*
X306640Y173524D01*
Y175438D01*
X305859Y176219D01*
X302433D01*
X297183Y181469D01*
Y182574D01*
X296402Y183355D01*
X294155D01*
X293214Y184296D01*
G01X258855Y171478D02*
X259848Y172472D01*
X260923D01*
X263323Y174872D01*
Y178353D01*
X265639Y180670D01*
Y183355D01*
X266580Y184296D01*
G01X284658Y171252D02*
Y180302D01*
X283813Y181147D01*
G01X290590Y171252D02*
X287856Y173986D01*
Y180375D01*
X288628Y181147D01*
G01X253677Y195182D02*
X254724D01*
G01X253677D02*
X254030Y194488D01*
G01X253677Y195182D02*
X254371Y194488D01*
X254724D01*
G01X244075Y196097D02*
X244090Y196083D01*
X252776D01*
X253677Y195182D01*
G01X308630Y198872D02*
X308174Y198416D01*
G01X308630Y198872D02*
X308174Y199328D01*
G01X288628Y187542D02*
Y188236D01*
G01Y187542D02*
X289322D01*
G01Y188236D02*
X288628Y187542D01*
G01X269730Y184296D02*
Y184991D01*
G01Y184296D02*
X270424D01*
G01Y184991D02*
X269730Y184296D01*
G01X250545Y184991D02*
X251036Y185482D01*
G01X250545Y184991D02*
X251036Y184500D01*
G01X250545Y184991D02*
X251527D01*
G01X244075Y183304D02*
X245762Y184991D01*
X250545D01*
G01X272880Y181147D02*
Y181841D01*
G01Y181147D02*
X273574D01*
G01X272880D02*
X273574Y181841D01*
G01X271986Y171252D02*
Y180254D01*
X272880Y181147D01*
G01X312064D02*
X311369D01*
G01X312064D02*
Y181841D01*
G01Y181147D02*
X311369Y181841D01*
G01X322502Y171252D02*
Y176206D01*
X318502Y180206D01*
X313005D01*
X312064Y181147D01*
G01X277693Y174036D02*
X277202Y173545D01*
G01X277693Y174036D02*
X277202Y174527D01*
G01X277693Y174036D02*
X276711D01*
G01X279518Y171252D02*
Y172786D01*
X278268Y174036D01*
X277693D01*
G01X293214Y184296D02*
X292520D01*
G01X293214D02*
Y184991D01*
G01Y184296D02*
X292520Y184991D01*
G01X266580Y184296D02*
Y184991D01*
G01Y184296D02*
X267275D01*
G01X266580D02*
X267275Y184991D01*
G01X299561Y181243D02*
X298867D01*
G01X299561D02*
Y181937D01*
G01Y181243D02*
X298867Y181937D01*
G01X315233Y171252D02*
Y174710D01*
X313503Y176440D01*
X311454D01*
X309853Y178041D01*
Y179770D01*
X309296Y180327D01*
X300477D01*
X299561Y181243D01*
G01X266580Y177997D02*
Y178692D01*
G01Y177997D02*
X267275D01*
G01X266580D02*
X267275Y178692D01*
G01X277466Y181147D02*
X276772D01*
G01X277466D02*
Y181841D01*
G01Y181147D02*
X276772Y181841D01*
G01X293262Y181147D02*
X292568D01*
G01X293262D02*
Y181841D01*
G01Y181147D02*
X292568Y181841D01*
G01X263431Y182632D02*
X264125D01*
G01X263431D02*
Y181937D01*
G01Y182632D02*
X264125Y181937D01*
G01X290113Y184296D02*
X289418D01*
G01X290113D02*
Y184991D01*
G01X289418D02*
X290113Y184296D01*
G01X288628Y181147D02*
Y181841D01*
G01Y181147D02*
X289322D01*
G01X288628D02*
X289322Y181841D01*
G01X283813Y181147D02*
X283119D01*
G01X283813D02*
Y181841D01*
G01Y181147D02*
X283119Y181841D01*
G01X318459Y177997D02*
X317765D01*
G01X318459D02*
Y178692D01*
G01Y177997D02*
X317765Y178692D01*
G01X320806Y171252D02*
Y175651D01*
X318459Y177997D01*
G01X308914Y184296D02*
X308220D01*
G01X308914D02*
Y184991D01*
G01Y184296D02*
X309807Y183404D01*
X324651D01*
X325651Y182404D01*
Y171252D01*
G01X308220Y184991D02*
X308914Y184296D01*
G01X247128Y191653D02*
X247934Y191829D01*
G01X247128Y191653D02*
X247934Y190847D01*
G01X247128Y191653D02*
X244075D01*
G01X248425Y191338D02*
X248111Y191653D01*
X247128D01*
G01X259993Y178692D02*
X260484Y179183D01*
G01X259993Y178692D02*
X260484Y178201D01*
G01X259993Y178692D02*
X260976D01*
G01X246508Y171252D02*
X248448Y173191D01*
X252488D01*
X257989Y178692D01*
X259993D01*
G01X254030Y198592D02*
X254724Y198332D01*
G01X254030Y198592D02*
Y197637D01*
G01Y198592D02*
X253154Y199468D01*
Y201441D01*
X252294Y202301D01*
X249039D01*
X247626Y200888D01*
X244075D01*
G01X254724Y197637D02*
Y197898D01*
X254030Y198592D01*
G01X255419Y198332D02*
Y197637D01*
G01Y198332D02*
X254724D01*
G01X255419D02*
X254724Y197637D01*
G01X263431Y198367D02*
X262646Y199152D01*
X256239D01*
X255419Y198332D01*
G01X263431Y198367D02*
X264125D01*
G01X263431D02*
Y197673D01*
G01X264125D02*
X263431Y198367D01*
G01X257180Y193793D02*
Y194488D01*
G01Y193793D02*
X257874D01*
G01X257180D02*
X256290Y192904D01*
X244075D01*
G01X257874Y194488D02*
X257180Y193793D01*
G01X272046Y197644D02*
X271555Y198135D01*
G01X272046Y197644D02*
X272537Y198135D01*
G01X272046Y197644D02*
Y187553D01*
X271046Y186553D01*
X245290D01*
X244075Y185338D01*
G01X272046Y198626D02*
Y197644D01*
G01X244516Y179576D02*
X244696Y180270D01*
G01X244516Y179576D02*
X245391D01*
G01X244516D02*
X245211Y180270D01*
X245391D01*
G01X244075Y179134D02*
X244516Y179576D01*
G01X257180Y196943D02*
Y197637D01*
G01Y196943D02*
X257874D01*
G01X257180D02*
X257874Y197637D01*
G01X244075Y199230D02*
X252233D01*
X253210Y198253D01*
Y197010D01*
X254138Y196083D01*
X256319D01*
X257180Y196943D01*
G01X305804Y177997D02*
X305110D01*
G01X305804D02*
Y178692D01*
G01Y177997D02*
X306697Y177104D01*
X308978D01*
X311478Y174604D01*
Y171252D01*
G01X305110Y178692D02*
X305804Y177997D01*
G01X244075Y189839D02*
X246209D01*
X246224Y189824D01*
X250013D01*
X250880Y190692D01*
G01D02*
Y191386D01*
G01Y190692D02*
X251575D01*
G01X250880D02*
X251575Y191386D01*
G01X275136Y171252D02*
Y196449D01*
X275744Y197056D01*
Y198620D01*
X272015Y202349D01*
X256312D01*
X255419Y203242D01*
G01X332513Y186601D02*
X304377D01*
X303596Y187382D01*
Y197719D01*
X296596Y204719D01*
X284770D01*
X282270Y207219D01*
Y208133D01*
G01X308630Y198872D02*
X309530Y199771D01*
Y201051D01*
X310780Y202301D01*
X328276D01*
X332649Y206674D01*
G01X307683Y198872D02*
X308630D01*
G01X244075Y211951D02*
X244278Y212153D01*
Y250959D01*
X244378Y251059D01*
G01X315261Y248678D02*
Y247983D01*
G01Y248678D02*
X314567D01*
G01X315261D02*
X316081Y249497D01*
Y258064D01*
X317831Y259814D01*
X334657D01*
G01X314567Y247983D02*
X315261Y248678D01*
G01X307573Y251827D02*
X308268D01*
G01X307573D02*
Y251133D01*
G01Y251827D02*
X306754Y252647D01*
Y261839D01*
G01X308268Y251133D02*
X307573Y251827D01*
G01X311478Y259046D02*
X311969Y258555D01*
G01X311478Y259046D02*
X310987Y258555D01*
G01X311478Y259046D02*
Y261839D01*
G01Y258064D02*
Y259046D01*
G01X310675Y251827D02*
X311369D01*
G01X310675D02*
Y251133D01*
G01Y251827D02*
X309964Y252538D01*
Y261839D01*
G01X311369Y251133D02*
X310675Y251827D01*
G01X254724Y201769D02*
X255216Y201278D01*
G01X254724Y201769D02*
X254233Y201278D01*
G01X254724Y201769D02*
Y201795D01*
X253210Y203309D01*
Y208722D01*
X253982Y209493D01*
G01X254724Y200787D02*
Y201769D01*
G01X253982Y209493D02*
Y210188D01*
G01Y209493D02*
X254676D01*
G01X253982D02*
X254676Y210188D01*
G01X323397Y261328D02*
X314742D01*
X312992Y259578D01*
Y250593D01*
X311992Y249593D01*
X304385D01*
X303604Y248812D01*
Y234393D01*
G01D02*
X304095Y233902D01*
G01X303604Y234393D02*
X303113Y233902D01*
G01X303604Y234393D02*
Y233411D01*
G01X320124Y207829D02*
X320818D01*
G01X320124D02*
Y207134D01*
G01Y207829D02*
X319304Y208648D01*
Y232968D01*
X320085Y233749D01*
X334657D01*
G01X320818Y207134D02*
X320124Y207829D01*
G01X315310Y226630D02*
Y225936D01*
G01Y226630D02*
X314615D01*
G01X315310D02*
X316081Y227402D01*
Y242246D01*
X317081Y243246D01*
X324530D01*
X325530Y244246D01*
Y248497D01*
X326530Y249497D01*
X334657D01*
G01X314615Y225936D02*
X315310Y226630D01*
G01X272046Y235830D02*
X272537Y235339D01*
G01X272046Y235830D02*
X271555Y235339D01*
G01X272046Y235830D02*
Y234848D01*
G01X274486Y261839D02*
Y255526D01*
X273622Y254662D01*
Y247184D01*
X272046Y245607D01*
Y235830D01*
G01X245727Y251059D02*
X246218Y251550D01*
G01X245727Y251059D02*
X246218Y250568D01*
G01X245727Y251059D02*
X246709D01*
G01X244378D02*
X245727D01*
G01X271240Y254977D02*
X270472D01*
G01X271240D02*
X270545Y254282D01*
X270472D01*
G01X271987Y261839D02*
Y255724D01*
X271240Y254977D01*
G01X261670Y214128D02*
Y213433D01*
G01Y214128D02*
X260976D01*
G01X317022Y207829D02*
X317716D01*
G01X317022D02*
Y207134D01*
G01Y207829D02*
X316250Y208600D01*
X314053D01*
X313053Y209600D01*
Y245614D01*
X313834Y246396D01*
X321380D01*
X322380Y247396D01*
Y254994D01*
X326380Y258994D01*
X330942D01*
X331799Y258137D01*
X334657D01*
G01X317716Y207134D02*
X317022Y207829D01*
G01X299058Y261839D02*
Y255552D01*
G01D02*
X299262Y254773D01*
G01X299058Y255552D02*
X298280Y254773D01*
G01X299058Y255552D02*
Y254570D01*
X298771Y254282D01*
G01X295253Y261839D02*
Y261239D01*
X296344Y260148D01*
G01D02*
X297244D01*
G01X296344D02*
X296550Y259453D01*
G01X296344Y260148D02*
X297039Y259453D01*
X297244D01*
G01X293262Y251923D02*
Y251229D01*
G01Y251923D02*
X292568D01*
G01X293262D02*
X292568Y251229D01*
G01X276029Y254977D02*
X276724D01*
G01X276029D02*
Y254282D01*
G01Y254977D02*
X276724Y254282D01*
G01X275794Y261801D02*
Y259717D01*
X275306Y259229D01*
Y255700D01*
X276029Y254977D01*
G01X271215Y251827D02*
X271987Y252599D01*
Y254307D01*
X273266Y255586D01*
Y261839D01*
G01X271215Y251827D02*
Y251133D01*
G01Y251827D02*
X270520D01*
G01X271215D02*
X270520Y251133D01*
G01X283717Y248678D02*
Y247983D01*
G01Y248678D02*
X283023D01*
G01X283717D02*
X283023Y247983D01*
G01X300731Y261839D02*
Y254045D01*
X296231Y249545D01*
X284585D01*
X283717Y248678D01*
G01X280568Y244235D02*
X279873D01*
G01X280568D02*
Y244930D01*
G01Y244235D02*
X281387Y243415D01*
X292592D01*
X301951Y252774D01*
Y261839D01*
G01X279873Y244930D02*
X280568Y244235D01*
G01X277802Y257480D02*
X277311Y256989D01*
G01X277802Y257480D02*
X277311Y257971D01*
G01X277802Y257480D02*
X276820D01*
G01X279430Y261839D02*
Y258480D01*
X278430Y257480D01*
X277802D01*
G01X281509Y261839D02*
Y259046D01*
G01D02*
X282000Y258555D01*
G01X281509Y259046D02*
X281018Y258555D01*
G01X281509Y259046D02*
Y258064D01*
G01X282270Y208133D02*
X281779Y208624D01*
G01X282270Y208133D02*
X282762Y208624D01*
G01X282270Y208133D02*
Y209115D01*
G01X283023Y255264D02*
X283514Y254773D01*
G01X283023Y255264D02*
X282532Y254773D01*
G01X283023Y255264D02*
Y254282D01*
G01Y261839D02*
Y255264D01*
G01X282328Y245624D02*
X283023D01*
G01X282328D02*
Y244930D01*
G01Y245624D02*
X283023Y244930D01*
G01X284537Y261839D02*
Y253081D01*
X281509Y250052D01*
Y246444D01*
X282328Y245624D01*
G01X311417Y204919D02*
X311908Y204428D01*
G01X311417Y204919D02*
X310926Y204428D01*
G01X311417Y204919D02*
Y206104D01*
G01Y203937D02*
Y204919D01*
G01Y206104D02*
X310926Y206595D01*
G01X311417Y206104D02*
X311908Y206595D01*
G01X311417Y206104D02*
Y207086D01*
G01X255419Y203242D02*
X254724D01*
G01X255419D02*
Y203937D01*
G01Y203242D02*
X254724Y203937D01*
G01X258521Y215792D02*
X257826D01*
G01X258521D02*
Y216487D01*
G01Y215792D02*
X259436Y214877D01*
Y209480D01*
X260316Y208600D01*
X261651D01*
X262538Y207714D01*
Y206378D01*
X263465Y205451D01*
X268862D01*
X269730Y204583D01*
G01X257826Y216487D02*
X258521Y215792D01*
G01X269730Y204583D02*
X270424D01*
G01X269730D02*
Y203889D01*
G01Y204583D02*
X270424Y203889D01*
G01X260982Y252108D02*
X261501Y251589D01*
G01X260982Y252108D02*
X260519Y251589D01*
G01X260982Y252108D02*
Y257096D01*
X256239Y261839D01*
G01X261010Y251098D02*
X260982Y251126D01*
Y252108D01*
G01X267313Y248934D02*
X267773Y248474D01*
G01X267313Y248934D02*
X266854Y248474D01*
G01X258808Y222882D02*
X258317Y222391D01*
G01X258808Y222882D02*
X258317Y223373D01*
G01X258808Y222882D02*
X257826D01*
G01X261923Y261839D02*
X262538Y261224D01*
Y224362D01*
X261058Y222882D01*
X258808D01*
G01X304518Y261839D02*
Y261203D01*
G01X261670Y214128D02*
X262442Y214899D01*
X264799D01*
X265799Y215900D01*
Y259697D01*
X263657Y261839D01*
G01X267313Y248934D02*
Y247983D01*
G01X267580Y261061D02*
X267384Y260864D01*
Y258667D01*
X268885Y257165D01*
Y250505D01*
X267313Y248934D01*
G01X244378Y261839D02*
Y251059D01*
G01X261670Y214128D02*
X260976Y213433D01*
G01X261670D02*
Y214128D01*
G01X321513Y200092D02*
X320818D01*
G01X321513D02*
Y200787D01*
G01Y200092D02*
X322454Y199152D01*
X334657D01*
G01X320818Y200787D02*
X321513Y200092D01*
G01X321561Y188931D02*
Y188236D01*
G01Y188931D02*
X320866D01*
G01X321561D02*
X320866Y188236D01*
G01X334583Y192878D02*
X323406D01*
X322332Y191804D01*
Y189703D01*
X321561Y188931D01*
G01X327117Y184009D02*
X326626Y184500D01*
G01X327117Y184009D02*
X327608Y184500D01*
G01X327117Y184009D02*
Y182754D01*
X329617Y180254D01*
X331048D01*
X331829Y179473D01*
Y171252D01*
G01X327117Y184991D02*
Y184009D01*
G01X324950Y191290D02*
X324459Y190799D01*
G01X324950Y191290D02*
X324459Y191781D01*
G01X324950Y191290D02*
X325682D01*
X327221Y189751D01*
X334657D01*
G01X323968Y191290D02*
X324950D01*
G01X331297Y181937D02*
X330806Y181446D01*
G01X331297Y181937D02*
X330806Y182428D01*
G01X331297Y181937D02*
X334657D01*
G01X330315D02*
X331297D01*
G01X324662Y240989D02*
X325494Y240157D01*
X334657D01*
G01Y219795D02*
X324300D01*
X322550Y221545D01*
Y223629D01*
X325675Y226754D01*
X327936D01*
X329572Y228391D01*
G01X328148Y247983D02*
X327657Y247492D01*
G01X328148Y247983D02*
X327657Y248474D01*
G01X328148Y247983D02*
X333802D01*
X334657Y247128D01*
G01X327166Y247983D02*
X328148D01*
G01X328100Y241684D02*
X327608Y241193D01*
G01X328100Y241684D02*
X327608Y242175D01*
G01X328100Y241684D02*
X327117D01*
G01X334657Y245314D02*
X331027Y241684D01*
X328100D01*
G01X327812Y251875D02*
Y251181D01*
G01Y251875D02*
X327117D01*
G01X327812D02*
X328632Y252695D01*
X334657D01*
G01X327117Y251181D02*
X327812Y251875D01*
G01X324662Y240989D02*
X323968D01*
G01X324662D02*
Y241684D01*
G01X323968D02*
X324662Y240989D01*
G01X323397Y261328D02*
X323888Y261819D01*
G01X323397Y261328D02*
X323888Y260837D01*
G01X324380Y261328D02*
X323397D01*
G01X324950Y210284D02*
X324459Y209793D01*
G01X324950Y210284D02*
X324459Y210775D01*
G01X324950Y210284D02*
X334657D01*
G01X323968D02*
X324950D01*
G01X329572Y228391D02*
Y229085D01*
G01Y228391D02*
X330267D01*
G01X329572D02*
X330267Y229085D01*
G01X332649Y206674D02*
Y207368D01*
G01Y206674D02*
X333343D01*
G01X332649D02*
X333343Y207368D01*
G01X334657Y229726D02*
X334166Y230217D01*
G01X334657Y229726D02*
Y230708D01*
G01Y223282D02*
Y229726D01*
G01X324662Y217230D02*
Y216535D01*
G01Y217230D02*
X323968D01*
G01X324662D02*
X325482Y218049D01*
X334276D01*
G01X323968Y216535D02*
X324662Y217230D01*
G01X321513Y212739D02*
X320818D01*
G01X321513D02*
Y213433D01*
G01Y212739D02*
X322428Y211823D01*
X334657D01*
G01X320818Y213433D02*
X321513Y212739D01*
G01X331781Y228391D02*
Y229085D01*
G01Y228391D02*
X332476D01*
G01X331781D02*
X328508Y225117D01*
X326395D01*
X324758Y223481D01*
G01X332476Y229085D02*
X331781Y228391D01*
G01X324758Y223481D02*
Y222786D01*
G01Y223481D02*
X324064D01*
G01X324758D02*
X324064Y222786D01*
G54D14*
X41654Y15748D03*
Y352402D03*
X205662Y20718D03*
X271654Y124016D03*
X383858Y-37402D03*
X348425Y124016D03*
X379561Y324312D03*
X514094Y-37598D03*
X460630Y17716D03*
X570210Y175337D03*
X562378Y303640D03*
X570210Y272537D03*
G54D24*
G01X13083Y49264D02*
X13083Y47389D01*
G01X13083Y49264D02*
X11208D01*
G01X13083D02*
X10748Y46929D01*
G01X13543Y49724D02*
X13083Y49264D01*
G01X13543Y49724D02*
Y46929D01*
G01Y49724D02*
X10748D01*
G01X26956Y70866D02*
X25421Y69331D01*
Y55319D01*
X22031Y51929D01*
X15748D01*
X13543Y49724D01*
G01X107283Y313873D02*
X72160D01*
X51160Y292873D01*
Y230857D01*
X34910Y214607D01*
X34375D01*
X29989Y210222D01*
Y84562D01*
X39240Y75312D01*
X40390D01*
G01X88583Y26194D02*
Y24357D01*
X86333Y22107D01*
X72405D01*
X56905Y37607D01*
Y47870D01*
G01X72677Y37175D02*
X74406Y35446D01*
G01X72677Y37175D02*
X70948Y35446D01*
G01X72677Y37175D02*
Y48774D01*
X72674Y48778D01*
Y50286D01*
X72677Y50290D01*
G01Y33717D02*
Y37175D01*
G01X70863Y47870D02*
Y39974D01*
G01X67371Y47870D02*
Y31694D01*
X72871Y26194D01*
X82677D01*
G01X39796Y61683D02*
X41194D01*
G01X39796D02*
X28770Y72708D01*
Y108422D01*
X26956Y110236D01*
G01X40390Y61088D02*
X39796Y61683D01*
G01X125000Y318120D02*
Y259043D01*
X108750Y242793D01*
X92709D01*
X68959Y219043D01*
Y105319D01*
G01X80770Y205892D02*
X76285Y201407D01*
Y170010D01*
X73962Y167686D01*
Y166183D01*
X75834Y164311D01*
Y121009D01*
X76617Y120226D01*
Y106199D01*
X75737Y105319D01*
G01X59838D02*
X57217Y107940D01*
Y122341D01*
X62017Y127141D01*
Y154390D01*
X58580Y157827D01*
Y191775D01*
X63901Y197096D01*
Y273135D01*
G01X56910Y131579D02*
X53163Y127831D01*
Y105319D01*
G01X57217Y133987D02*
X59013Y132191D01*
Y130134D01*
X54573Y125694D01*
Y106985D01*
X56239Y105319D01*
G01X86174Y26194D02*
X84360Y24380D01*
X72777D01*
X61777Y35380D01*
Y47870D01*
G01X46864Y43633D02*
Y47870D01*
G01X51891D02*
X55084Y44677D01*
Y6842D01*
G01X26562Y47244D02*
X39370D01*
X51181Y35433D01*
G01X98975Y23902D02*
X98098D01*
X93992Y28008D01*
X73007D01*
X69007Y32008D01*
Y47870D01*
G01X39974Y78146D02*
X33151Y84969D01*
Y150219D01*
X36880Y153948D01*
Y207799D01*
G01X377152Y4242D02*
X120758D01*
X104000Y21000D01*
Y27000D01*
X101772Y29228D01*
X91757D01*
X88257Y32728D01*
Y38146D01*
X81409Y44994D01*
X75922D01*
X74131Y46785D01*
Y48762D01*
X73693Y49200D01*
G01X58113Y105319D02*
X55998Y107435D01*
Y124249D01*
X60492Y128743D01*
Y149416D01*
X57543Y152365D01*
X57245D01*
X56182Y153427D01*
Y153726D01*
X53048Y156860D01*
Y192195D01*
X56098Y195245D01*
Y221434D01*
X62422Y227758D01*
Y278692D01*
X64652Y280923D01*
X67964D01*
G01X25586Y101767D02*
X26956D01*
G01X25586D02*
X13543Y89724D01*
G01X26956Y102362D02*
X26181D01*
X25586Y101767D01*
G01X13083Y89264D02*
Y87389D01*
G01Y89264D02*
X11208D01*
G01X13083D02*
X10748Y86929D01*
G01X13543Y89724D02*
X13083Y89264D01*
G01X13543Y89724D02*
Y86929D01*
G01Y89724D02*
X10748D01*
G01X74996Y108218D02*
X73970Y107192D01*
G01X74996Y108218D02*
Y113570D01*
X72996Y115570D01*
X71948D01*
X70198Y117320D01*
Y152354D01*
X72778Y154934D01*
G01X74390Y106772D02*
X74996Y107377D01*
Y108218D01*
G01X51139Y189401D02*
X48522Y192018D01*
Y205590D01*
X45268Y208844D01*
G01X80697Y189766D02*
Y181956D01*
X78273Y179532D01*
Y144519D01*
X82246Y140546D01*
Y137647D01*
X84825Y135068D01*
Y134126D01*
X82543Y131844D01*
Y105319D01*
G01X87518Y210532D02*
X85704Y208718D01*
Y185238D01*
X80088Y179622D01*
Y154135D01*
G01X78357Y140145D02*
X77646Y139434D01*
Y130357D01*
X78634Y129369D01*
Y107318D01*
G01X64420Y278124D02*
X66109Y276435D01*
Y175287D01*
X62240Y171418D01*
Y155891D01*
X63237Y154895D01*
Y135653D01*
X65645Y133244D01*
Y129044D01*
X60845Y124244D01*
Y108448D01*
X62399Y106894D01*
X67039D01*
G01X109252Y274218D02*
X81507Y246473D01*
X80485D01*
X79423Y245411D01*
Y244389D01*
X67620Y232587D01*
Y111856D01*
X64731Y108967D01*
X63152D01*
G01X75776Y166935D02*
X77054Y165657D01*
Y144014D01*
X80171Y140896D01*
Y137997D01*
X82283Y135885D01*
Y133309D01*
X81323Y132349D01*
Y102024D01*
X81422Y101925D01*
Y101923D01*
G01X70964Y189376D02*
Y193629D01*
X75057Y197722D01*
Y213555D01*
X98907Y237405D01*
X125938D01*
X134688Y246155D01*
Y248192D01*
G01X65687Y112688D02*
G01X36569Y208661D02*
X35017Y207109D01*
G01X36569Y208661D02*
X35017Y210213D01*
G01X36569Y208661D02*
X33465D01*
G01X36880D02*
X36569D01*
G01X71750Y248175D02*
X71610Y248876D01*
G01X71750Y248175D02*
X72450Y248876D01*
G01X71750Y248175D02*
Y244813D01*
X70057Y243120D01*
G01X72030Y249296D02*
X71750Y249016D01*
Y248175D01*
G01X63901Y273135D02*
X63815Y273890D01*
G01X63901Y273135D02*
X64656Y273890D01*
G01X63901Y273135D02*
Y273975D01*
X64236Y274310D01*
G01X73199Y282581D02*
X68871D01*
X68715Y282737D01*
X64742D01*
X56024Y274019D01*
Y265434D01*
X60828Y260630D01*
Y231566D01*
X37922Y208661D01*
X36880D01*
G01Y207799D02*
Y208661D01*
G01Y207799D02*
X36017Y208661D01*
G01X75238Y258377D02*
X76233Y259372D01*
Y291761D01*
X78177Y293706D01*
Y300418D01*
G01X82058Y311817D02*
X75013Y304772D01*
Y279157D01*
X70493Y274637D01*
Y272496D01*
G01X162431Y57757D02*
X162787Y57272D01*
G01X162431Y57757D02*
X161946Y57272D01*
G01X162431Y57757D02*
Y56916D01*
X162367Y56852D01*
G01X162431Y66357D02*
Y57757D01*
G01X98975Y23902D02*
X99580Y24507D01*
G01X98975Y23902D02*
X99580Y23666D01*
G01X100000Y24087D02*
X99815Y23902D01*
X98975D01*
G01X207304Y51363D02*
X171319D01*
X163569Y43614D01*
Y41468D01*
X154819Y32718D01*
X106208D01*
X102492Y36434D01*
Y40951D01*
X98742Y44701D01*
X94175D01*
X91006Y47870D01*
G01X94488Y24106D02*
X93444Y25150D01*
G01X94488Y24106D02*
Y15536D01*
X99766Y10258D01*
G01X93864Y25570D02*
X94488Y24946D01*
Y24106D01*
G01X99766Y10258D02*
X101961D01*
G01X99766D02*
Y8063D01*
G01Y10258D02*
X101961Y8063D01*
G01X114814Y51184D02*
X113799Y50169D01*
G01X114814Y51184D02*
Y50343D01*
X114219Y49748D01*
G01X110348Y95708D02*
Y92970D01*
X109419Y92041D01*
Y89293D01*
X110284Y88428D01*
X112564D01*
X114814Y86178D01*
Y51184D01*
G01X97839Y61011D02*
X99345Y62517D01*
Y71569D01*
X101061Y73286D01*
Y74461D01*
X105166Y78566D01*
Y90397D01*
G01X118692Y43034D02*
X119487Y42239D01*
G01X118692Y43034D02*
X118647Y42239D01*
G01X118692Y43034D02*
Y42194D01*
X119067Y41819D01*
G01X119651Y86614D02*
X118692Y85655D01*
Y43034D01*
G01X104699Y40005D02*
Y41870D01*
X98699Y47870D01*
X95509D01*
X94034Y49345D01*
G01X97839Y58718D02*
X102290D01*
G01X97839Y84317D02*
X100288Y86766D01*
Y91534D01*
X103093Y94339D01*
Y98624D01*
G01X106643Y104190D02*
X105096Y102643D01*
X101890D01*
X99068Y99820D01*
Y87271D01*
X97848Y86051D01*
X97839D01*
G01X97084Y64797D02*
X98125Y65838D01*
Y72368D01*
X99841Y74084D01*
Y74966D01*
X103352Y78476D01*
Y91148D01*
X105838Y93634D01*
Y98952D01*
X110186Y103301D01*
Y112573D01*
G01X97839Y87767D02*
Y97424D01*
X95372Y99891D01*
Y101256D01*
X97387Y103271D01*
Y105726D01*
X95758Y107354D01*
Y113512D01*
X99087Y116841D01*
X103559D01*
X109509Y122791D01*
Y123230D01*
X109954Y123674D01*
Y128395D01*
X109359Y128990D01*
Y132433D01*
X110784Y133858D01*
X112230D01*
G01X107699Y123190D02*
X102569Y118060D01*
X98582D01*
X93936Y113415D01*
Y105173D01*
G01X88623Y134307D02*
Y132382D01*
X83928Y127687D01*
Y105319D01*
G01X169335Y15335D02*
Y13460D01*
G01Y15335D02*
X167460Y15335D01*
G01X169335Y15335D02*
X169795Y15795D01*
G01X167000Y13000D02*
X169335Y15335D01*
G01X169795Y15795D02*
Y13000D01*
G01Y15795D02*
X167000D01*
G01X169795D02*
X175197Y21197D01*
Y39752D01*
X177152Y41706D01*
G01X158866Y17866D02*
Y13929D01*
G01Y17866D02*
X161000Y20000D01*
X168000D01*
X173796Y25796D01*
Y47074D01*
G01X157000Y13000D02*
Y16000D01*
X158866Y17866D01*
G01X173796Y47074D02*
X173745Y47864D01*
G01X173796Y47074D02*
X174586Y47864D01*
G01X173796Y47074D02*
Y47915D01*
X174165Y48285D01*
G01X186112Y75056D02*
X178560Y82608D01*
Y101777D01*
X176912Y103425D01*
G01X150860Y65137D02*
X149518Y66479D01*
Y97396D01*
X155717Y103594D01*
Y166338D01*
X150707Y171348D01*
Y185276D01*
X150125Y185859D01*
G01X378966Y6706D02*
X127294D01*
X104473Y29527D01*
Y31498D01*
X95997Y39974D01*
G01X113138Y34532D02*
X117253Y38647D01*
Y87999D01*
X119651Y90397D01*
G01X112543Y121973D02*
X109384Y118814D01*
Y117301D01*
X110745Y115940D01*
X111314D01*
X114213Y113041D01*
Y105603D01*
X107057Y98447D01*
Y93129D01*
X106980Y93052D01*
Y77814D01*
X102875Y73709D01*
G01X110014Y84419D02*
X109966Y84372D01*
Y41819D01*
G01X146801Y66357D02*
X147871Y67427D01*
Y97942D01*
X154497Y104568D01*
Y148921D01*
X152922Y150496D01*
G01X140650Y70798D02*
X140781D01*
X145537Y75554D01*
Y89616D01*
X146651Y90730D01*
Y99310D01*
X150034Y102693D01*
Y123197D01*
X152003Y125166D01*
Y147608D01*
X148893Y150718D01*
Y184045D01*
G01X128605Y66486D02*
X128161Y66929D01*
X127154D01*
X123972Y70111D01*
Y76877D01*
X129372Y82277D01*
X129409D01*
G01X129393Y64210D02*
X129377D01*
X129344Y64177D01*
Y61783D01*
X126562Y59001D01*
X125215D01*
X121465Y62751D01*
Y82720D01*
X122824Y84079D01*
Y93767D01*
X118692Y97898D01*
X118165Y98426D01*
Y120724D01*
X115264Y123625D01*
Y135115D01*
X113487Y136892D01*
X111939D01*
X108141Y140690D01*
Y142946D01*
X106734Y144353D01*
Y152898D01*
X108324Y154488D01*
X108390D01*
G01X127530Y62535D02*
X125702D01*
X122685Y65552D01*
Y82215D01*
X124044Y83574D01*
Y94463D01*
X120506Y98000D01*
Y106145D01*
G01X128132Y55451D02*
X130313Y57632D01*
X130324D01*
X131659Y58967D01*
Y66236D01*
X128952Y68943D01*
X127147D01*
X125192Y70898D01*
Y75494D01*
X131223Y81525D01*
Y83029D01*
X130678Y83574D01*
Y101660D01*
X125338Y107000D01*
Y114678D01*
X128305Y117646D01*
Y118714D01*
X126819Y120200D01*
X125958D01*
X123618Y122540D01*
Y124668D01*
X119103Y129183D01*
Y137956D01*
X114394Y142665D01*
Y146164D01*
X114814Y146584D01*
Y149110D01*
X117936Y152232D01*
Y174114D01*
X111881Y180169D01*
Y198819D01*
X107068Y203632D01*
Y205888D01*
X103333Y209623D01*
X103271D01*
G01X162591Y80208D02*
X162935Y80552D01*
Y81393D01*
G01X172646Y78354D02*
X172666Y78374D01*
Y78504D01*
X174226Y80064D01*
Y125126D01*
G01X135412Y64058D02*
Y64511D01*
X136507Y65605D01*
Y67204D01*
X135287Y68424D01*
Y83480D01*
X134681Y84086D01*
Y107644D01*
X135150Y108113D01*
G01X171106Y75984D02*
X170598Y76492D01*
Y89810D01*
X169988Y90420D01*
X168169D01*
X167559Y91029D01*
Y92249D01*
X168169Y92859D01*
X169988D01*
X170598Y93469D01*
Y94688D01*
X169988Y95298D01*
X168169D01*
X167559Y95908D01*
Y97127D01*
X168169Y97737D01*
X169988D01*
X170598Y98347D01*
Y99567D01*
X169988Y100176D01*
X168169D01*
X167559Y100786D01*
Y102006D01*
X168169Y102616D01*
X169988D01*
X170598Y103225D01*
Y104445D01*
X169988Y105055D01*
X168169D01*
X167559Y105665D01*
Y106884D01*
X168169Y107494D01*
X169988D01*
X170598Y108104D01*
Y115208D01*
X170296Y115510D01*
G01X168667Y73907D02*
X168377Y74197D01*
Y75698D01*
X167768Y76308D01*
X166578D01*
X165969Y76918D01*
Y78137D01*
X166578Y78747D01*
X167768D01*
X168377Y79357D01*
Y84648D01*
X166189Y86837D01*
Y107889D01*
X168005Y109705D01*
Y111778D01*
X166820Y112963D01*
Y114359D01*
X167108Y114647D01*
G01X165486Y73762D02*
X164749Y74499D01*
Y109903D01*
X164377Y110275D01*
Y127797D01*
X167268Y130688D01*
X174379D01*
G01X105406Y189136D02*
X107761Y186781D01*
Y168444D01*
X105514Y166197D01*
Y143848D01*
X106922Y142440D01*
Y139655D01*
X110905Y135672D01*
X112982D01*
X114044Y134610D01*
Y123120D01*
X115036Y122128D01*
Y120774D01*
X116945Y118864D01*
Y97852D01*
X121604Y93193D01*
Y84584D01*
X119912Y82892D01*
Y58906D01*
X126996Y51823D01*
X128006D01*
G01X143184Y167558D02*
Y155531D01*
X142713Y155060D01*
Y146738D01*
X144212Y145239D01*
Y93533D01*
X141665Y90986D01*
Y87483D01*
X136943Y82761D01*
Y68493D01*
X137727Y67709D01*
Y63225D01*
X137339Y62837D01*
Y62613D01*
G01X95970Y72378D02*
X98247Y74655D01*
Y76159D01*
X97900Y76506D01*
Y78824D01*
X99867Y80791D01*
X100466D01*
X102132Y82458D01*
Y91653D01*
X104618Y94139D01*
Y99458D01*
X108967Y103807D01*
Y113512D01*
X106690Y115789D01*
Y118167D01*
X110729Y122206D01*
Y122725D01*
X111173Y123169D01*
Y129741D01*
G01X111792Y117273D02*
X115726Y113340D01*
Y99929D01*
X113905Y98108D01*
X109846D01*
X108277Y96539D01*
Y92624D01*
X108200Y92546D01*
Y75055D01*
X104524Y71379D01*
Y62489D01*
G01X139249Y78740D02*
X144010Y83501D01*
Y89814D01*
X145432Y91236D01*
Y147093D01*
X144479Y148046D01*
Y151702D01*
X144636Y151859D01*
G01X188456Y17878D02*
Y21457D01*
X211706Y44707D01*
X213965D01*
X219714Y50457D01*
Y148763D01*
X224495Y153543D01*
G01X210208Y263786D02*
X208789Y262367D01*
Y194020D01*
X210348Y192460D01*
X210803D01*
X211865Y191398D01*
Y189088D01*
X208574Y185796D01*
Y178118D01*
X209794Y176898D01*
Y154209D01*
X211840Y152162D01*
Y93199D01*
X209011Y90370D01*
Y90238D01*
X172629Y53856D01*
X169082D01*
X154750Y39524D01*
G01X162935Y81393D02*
X163011Y80629D01*
G01X162935Y81393D02*
X162171Y80629D01*
G01X162935Y81393D02*
Y135826D01*
G01X163797D02*
X162935Y134964D01*
G01X163797Y135826D02*
X162935Y136689D01*
G01X163797Y135826D02*
X162935D01*
G01X175286D02*
X163797D01*
G01X91643Y105319D02*
Y114087D01*
X96351Y118795D01*
Y142158D01*
G01X150125Y185859D02*
X148893D01*
G01X150125D02*
X149530Y186453D01*
X148893D01*
G01X96430Y165953D02*
X94537Y164060D01*
Y122109D01*
X90088Y117661D01*
Y109125D01*
X86282Y105319D01*
G01X111792Y117273D02*
X111198Y117458D01*
G01X111792Y117273D02*
Y118052D01*
G01X111198D02*
Y117868D01*
X111792Y117273D01*
G01X103093Y98624D02*
X102384Y99334D01*
G01X103093Y98624D02*
X103224Y99334D01*
G01X103093Y98624D02*
Y99465D01*
X102804Y99754D01*
G01X110186Y112573D02*
X111151Y113537D01*
G01X110186Y112573D02*
Y113414D01*
X110730Y113958D01*
G01X107699Y123190D02*
X107536Y123751D01*
G01X107699Y123190D02*
X108260Y123751D01*
G01X189541Y116929D02*
X187501D01*
X184965Y119464D01*
Y154165D01*
G01X88623Y137059D02*
X90438Y135245D01*
Y120889D01*
X89023Y119475D01*
G01X105947Y175237D02*
Y168734D01*
X104295Y167082D01*
Y143342D01*
X105702Y141935D01*
Y138471D01*
X106541Y137632D01*
Y129964D01*
X103308Y126731D01*
X101434D01*
G01X176912Y142126D02*
X175952Y143085D01*
X169678D01*
G01X134784Y230171D02*
Y224676D01*
X123284Y213176D01*
X95291D01*
X90552Y208437D01*
Y149848D01*
X85864Y145161D01*
G01X145297Y172059D02*
X145328Y172090D01*
Y235590D01*
X145327Y235591D01*
X142078D01*
X140151Y233664D01*
Y220565D01*
X135157Y215571D01*
Y208787D01*
G01X146902Y288932D02*
Y173020D01*
X147112Y172811D01*
Y158945D01*
X145349Y157182D01*
G01X96540Y205985D02*
X110661Y191864D01*
Y177305D01*
X115352Y172614D01*
Y169568D01*
G01X103752Y169105D02*
X102982Y168335D01*
Y142089D01*
X103888Y141184D01*
G01X190957Y88892D02*
X195626Y93561D01*
Y135826D01*
G01D02*
Y150562D01*
X190876Y155312D01*
X187469D01*
G01X185001Y165274D02*
Y154201D01*
X184965Y154165D01*
G01X161195Y175463D02*
X157430Y179227D01*
Y235205D01*
X158028Y235802D01*
Y267806D01*
X159666Y269445D01*
G01X143514Y173678D02*
Y233777D01*
G01X129561Y116085D02*
Y118333D01*
X132938Y121710D01*
Y134257D01*
X131738Y135456D01*
Y136676D01*
X131163Y137251D01*
X127009D01*
X126400Y137861D01*
Y139081D01*
X127009Y139690D01*
X131163D01*
X131773Y140300D01*
Y142159D01*
X131163Y142769D01*
X123412D01*
X122802Y143378D01*
Y144598D01*
X123412Y145208D01*
X131163D01*
X131773Y145818D01*
Y147437D01*
X131021Y148189D01*
X123021D01*
X122370Y148840D01*
Y150402D01*
X122934Y150966D01*
X130823D01*
X131773Y151916D01*
Y153121D01*
X130978Y153916D01*
X123754D01*
X122934Y154736D01*
Y156341D01*
X123802Y157209D01*
X129433D01*
X130605Y158381D01*
G01X95020Y208615D02*
Y207965D01*
X94726Y207671D01*
Y204059D01*
X95891Y202894D01*
Y199812D01*
X97704Y197999D01*
X97755D01*
X102165Y193589D01*
X106086D01*
X109086Y190589D01*
Y156357D01*
X110204Y155240D01*
Y153736D01*
X108383Y151916D01*
Y144428D01*
X109361Y143451D01*
Y143334D01*
X116688Y136007D01*
Y127703D01*
X121104Y123287D01*
Y119659D01*
X122570Y118192D01*
Y97662D01*
X127525Y92707D01*
Y86577D01*
G01X136964Y106145D02*
X139107Y108288D01*
Y129448D01*
X142791Y133131D01*
Y134351D01*
X142181Y134961D01*
X139470D01*
X138860Y135570D01*
Y136790D01*
X139470Y137400D01*
X142181D01*
X142791Y138010D01*
Y139229D01*
X142181Y139839D01*
X139470D01*
X138860Y140449D01*
Y141668D01*
X139470Y142278D01*
X142181D01*
X142791Y142888D01*
Y144108D01*
X142181Y144718D01*
X139470D01*
X138860Y145327D01*
Y147294D01*
X137854Y148301D01*
Y158241D01*
X138463Y158850D01*
X141283D01*
X141893Y159460D01*
Y160680D01*
X141283Y161290D01*
X138463D01*
X137688Y162066D01*
Y169133D01*
X139732Y171178D01*
Y183581D01*
X139249Y184064D01*
Y188086D01*
X138879Y188456D01*
G01X174340Y130166D02*
X174379Y130205D01*
Y130688D01*
G01X133272Y82930D02*
X131925Y84276D01*
Y89090D01*
X132535Y89700D01*
X132852D01*
X133461Y90310D01*
Y91530D01*
X132852Y92139D01*
X132535D01*
X131925Y92749D01*
Y93969D01*
X132535Y94578D01*
X132852D01*
X133461Y95188D01*
Y96408D01*
X132852Y97018D01*
X132535D01*
X131925Y97628D01*
Y98847D01*
X132535Y99457D01*
X132852D01*
X133461Y100067D01*
Y101286D01*
X132852Y101896D01*
X132535D01*
X131925Y102506D01*
Y103726D01*
X132083Y103883D01*
Y105386D01*
X131020Y106449D01*
X128857D01*
X127200Y108106D01*
Y109326D01*
X127810Y109935D01*
X132551D01*
X133161Y110545D01*
Y112359D01*
G01X162935Y135826D02*
Y163301D01*
G01X176912Y107480D02*
X180284Y110853D01*
Y164210D01*
X176656Y167838D01*
Y181018D01*
G01X160101Y112679D02*
X158867Y111445D01*
Y106680D01*
X158620Y106433D01*
Y84542D01*
G01X191030Y152591D02*
X193280Y150341D01*
Y107480D01*
G01X191466Y148754D02*
Y112444D01*
G01X160793Y194275D02*
X159596Y195471D01*
Y201508D01*
X161059Y202970D01*
Y206883D01*
X165079Y210904D01*
Y249787D01*
X163420Y251447D01*
G01X125886Y221482D02*
X101864D01*
X89332Y208950D01*
Y153753D01*
X80740Y145161D01*
G01X178470Y163147D02*
X174842Y166775D01*
Y199079D01*
X171250Y202671D01*
G01X174379Y130688D02*
X178726Y135035D01*
Y153276D01*
X173226Y158776D01*
X172503D01*
X166164Y165115D01*
X161121D01*
G01X173048Y161333D02*
Y165265D01*
X168798Y169515D01*
X160728D01*
X155979Y174265D01*
Y255229D01*
G01X137697Y190556D02*
X136649D01*
X135430Y189336D01*
Y188357D01*
X134583Y187510D01*
X129943D01*
X129333Y186900D01*
Y185859D01*
X129884Y185308D01*
X134879D01*
X135430Y184757D01*
Y183934D01*
X136040Y183324D01*
Y182104D01*
X135430Y181495D01*
X133602D01*
X132992Y180885D01*
Y179665D01*
X133602Y179056D01*
X135430D01*
X136040Y178446D01*
Y177226D01*
X135430Y176616D01*
X133602D01*
X132992Y176006D01*
Y174787D01*
X133602Y174177D01*
X135430D01*
X136040Y173567D01*
Y172348D01*
X135430Y171738D01*
X133602D01*
X132992Y171128D01*
Y169909D01*
X133602Y169299D01*
X135430D01*
X136040Y168689D01*
Y167469D01*
X135430Y166860D01*
X133602D01*
X132992Y166250D01*
Y165030D01*
X133602Y164420D01*
X135430D01*
X136040Y163810D01*
Y162515D01*
X135430Y161905D01*
X134196D01*
X133587Y161295D01*
Y160076D01*
X134196Y159466D01*
X135430D01*
X136040Y158856D01*
Y156928D01*
X135430Y156318D01*
X133602D01*
X132992Y155708D01*
Y154488D01*
X133602Y153879D01*
X135430D01*
X136040Y153269D01*
Y152049D01*
X135430Y151439D01*
X133602D01*
X132992Y150830D01*
Y149610D01*
X133602Y149000D01*
X135430D01*
X137046Y147384D01*
Y145078D01*
X136437Y144468D01*
X136009D01*
X135399Y143858D01*
Y142639D01*
X136009Y142029D01*
X136437D01*
X137046Y141419D01*
Y140199D01*
X136437Y139590D01*
X136009D01*
X135399Y138980D01*
Y137760D01*
X136009Y137150D01*
X136437D01*
X137046Y136541D01*
Y134516D01*
X136437Y133906D01*
X135968D01*
X135359Y133296D01*
Y132077D01*
X135968Y131467D01*
X136437D01*
X137046Y130857D01*
Y127395D01*
X135982Y126330D01*
Y124956D01*
X137046Y123891D01*
Y122517D01*
X135982Y121452D01*
Y120078D01*
X137046Y119013D01*
Y115442D01*
X135150Y113545D01*
Y108113D01*
G01X107930Y124171D02*
X107699Y123940D01*
Y123190D01*
G01X115158Y202607D02*
Y199398D01*
X115683Y198873D01*
Y190330D01*
X119707Y186306D01*
Y151830D01*
X117834Y149956D01*
Y143140D01*
X121422Y139552D01*
Y137115D01*
X122860Y135677D01*
Y127151D01*
X124838Y125173D01*
Y124220D01*
X127134Y121922D01*
X128394Y120662D01*
X128553Y120503D01*
X129082D01*
G01X111857Y157256D02*
X111271Y157842D01*
X110933D01*
X110323Y158452D01*
Y159314D01*
X111206Y160197D01*
X113952D01*
X114562Y160807D01*
Y162002D01*
X113952Y162612D01*
X110933D01*
X110323Y163222D01*
Y164319D01*
X111030Y165026D01*
X112265D01*
X112854Y165615D01*
Y166793D01*
X112207Y167440D01*
X110815D01*
X110205Y168050D01*
Y169325D01*
X110793Y169913D01*
X111500D01*
X111981Y170394D01*
Y171493D01*
X111500Y171974D01*
X110617D01*
X110312Y172279D01*
Y173141D01*
X110853Y173682D01*
X112207D01*
X113208Y172681D01*
Y169147D01*
X115916Y166439D01*
Y158255D01*
X109973Y152312D01*
Y150366D01*
X110858Y149481D01*
X112913D01*
X113561Y148833D01*
Y147656D01*
X113031Y147126D01*
X110794D01*
X110146Y146478D01*
X110060D01*
X109973Y146392D01*
Y145319D01*
X117883Y137409D01*
Y128678D01*
X122398Y124163D01*
Y121271D01*
X123925Y119744D01*
Y98899D01*
X129224Y93600D01*
Y88277D01*
X127525Y86577D01*
G01X117126Y200793D02*
X120927Y196993D01*
Y193398D01*
X121536Y192788D01*
X125254D01*
X125864Y192179D01*
Y190959D01*
X125254Y190349D01*
X121536D01*
X120927Y189740D01*
Y188520D01*
X121536Y187910D01*
X125254D01*
X125864Y187300D01*
Y186081D01*
X125254Y185471D01*
X121536D01*
X120927Y184861D01*
Y176253D01*
X121536Y175643D01*
X124932D01*
X125542Y175034D01*
Y173814D01*
X124932Y173204D01*
X121536D01*
X120927Y172594D01*
Y147665D01*
X119174Y145912D01*
Y143825D01*
X119539Y143460D01*
X122963Y140036D01*
Y137546D01*
X124298Y136211D01*
Y127437D01*
X126198Y125537D01*
Y125016D01*
X128897Y122317D01*
X129833D01*
X129885Y122266D01*
X130723D01*
G01X172412Y84053D02*
X173006Y84648D01*
Y86938D01*
X171868Y88076D01*
Y89806D01*
X172981Y90919D01*
Y92197D01*
X171827Y93351D01*
Y95041D01*
X173006Y96220D01*
Y97860D01*
X171868Y98998D01*
Y100852D01*
X172981Y101965D01*
Y103820D01*
X171786Y105015D01*
Y106581D01*
X172981Y107776D01*
Y109384D01*
X171868Y110497D01*
Y112022D01*
X173006Y113160D01*
Y114718D01*
X172412Y115312D01*
Y116729D01*
G01X201626Y157355D02*
X199688Y159294D01*
Y216013D01*
G01X190068Y262028D02*
X189555Y261701D01*
G01X190068Y262028D02*
X189555Y262542D01*
G01X190068Y262028D02*
X195109D01*
G01X189135Y262122D02*
X189335D01*
X189428Y262028D01*
X190068D01*
G01X195109D02*
X195703Y261884D01*
G01X195109Y262028D02*
Y261289D01*
G01X200550Y216013D02*
X199688Y215151D01*
G01X200550Y216013D02*
X199688Y216876D01*
G01X199688Y216013D02*
X200550D01*
G01X167316Y215818D02*
X166453Y214956D01*
G01X167316Y215818D02*
X166453Y216681D01*
G01X167316Y215818D02*
X170438D01*
G01X166453D02*
X167316D01*
G01X93206Y202087D02*
X94079Y201214D01*
G01X93206Y202087D02*
Y201246D01*
X93659Y200793D01*
G01X141414Y241604D02*
X139598D01*
X136598Y238604D01*
Y224733D01*
X123302Y211437D01*
X95277D01*
X93206Y209366D01*
Y202087D01*
G01X111220Y286046D02*
X111447Y285432D01*
G01X111220Y286046D02*
X110606Y285432D01*
G01X111220Y286046D02*
Y317248D01*
G01X111027Y285011D02*
Y285135D01*
X111220Y285329D01*
Y286046D01*
G01X183258Y269948D02*
X186918Y273608D01*
X205015D01*
X213171Y265452D01*
Y262550D01*
X210042Y259422D01*
Y215412D01*
X211042Y214412D01*
X212804D01*
X215861Y211355D01*
Y186021D01*
X214922Y185082D01*
Y183190D01*
X215758Y182354D01*
Y59855D01*
G01X187540Y277527D02*
X189354Y275713D01*
X212714D01*
X219714Y268713D01*
Y249399D01*
X216080Y245765D01*
Y236655D01*
X221379Y231355D01*
G01X128706Y319662D02*
X133489D01*
X134913Y318238D01*
Y283657D01*
G01X127730Y278650D02*
Y313702D01*
X129561Y315533D01*
G01X131483Y279473D02*
Y316174D01*
X132947Y317638D01*
G01X137523Y288351D02*
Y322305D01*
X141642Y326424D01*
G01X140635Y292286D02*
Y321756D01*
X147316Y328437D01*
G01X195109Y262028D02*
X195703Y261434D01*
Y261289D01*
G01X163420D02*
X166453Y258255D01*
Y215818D01*
G01X163420Y204640D02*
X166453Y207674D01*
Y215818D01*
G01X195703Y261289D02*
X199688Y257304D01*
Y216013D01*
G01X143793Y278563D02*
X142482D01*
X128937Y265018D01*
Y251820D01*
G01X109252Y320512D02*
Y285926D01*
X109089Y285763D01*
Y283412D01*
X109252Y283249D01*
Y274218D01*
G01X127470Y352370D02*
X128796Y353696D01*
G01X127470Y352370D02*
X128796Y351044D01*
G01X127470Y352370D02*
X126820D01*
G01X130773D02*
X127470D01*
G01X126820D02*
X128796Y354346D01*
G01X126820Y352370D02*
X128796Y350394D01*
G01X126820Y352370D02*
X124726D01*
G01X124076D02*
X122749Y351044D01*
G01X124076Y352370D02*
X122749Y353696D01*
G01X124076Y352370D02*
X120773D01*
G01X124726D02*
X124076D01*
G01X124726D02*
X122750Y350394D01*
G01X124726Y352370D02*
X122750Y354346D01*
G01X143108Y354705D02*
X143108Y352830D01*
G01X143108Y354705D02*
X141233D01*
G01X143108D02*
X143568Y355165D01*
G01X140773Y352370D02*
X143108Y354705D01*
G01X143568Y355165D02*
Y352370D01*
G01Y355165D02*
X140773D01*
G01X143568D02*
X146277Y357874D01*
X171084D01*
X183554Y345404D01*
X215192D01*
X234245Y326351D01*
X244281D01*
X250299Y320333D01*
Y316770D01*
X250326Y316743D01*
G01X226360Y325004D02*
X191422D01*
X168941Y347485D01*
X161388D01*
G01D02*
X160641Y346739D01*
G01X161388Y347485D02*
X160641Y347579D01*
G01X161388Y347485D02*
X160547D01*
X160221Y347159D01*
G01X148838Y355785D02*
X154367Y350256D01*
X168258D01*
X176208Y342306D01*
X216222D01*
X257052Y301476D01*
X290784D01*
X294034Y298226D01*
Y261839D01*
G01X228573Y15522D02*
X226378D01*
G01X228573D02*
Y17717D01*
G01X224183Y27786D02*
X226378D01*
G01X224183D02*
Y25591D01*
G01Y27786D02*
X226378Y25591D01*
G01X224183Y27786D02*
X221611Y30357D01*
Y66338D01*
X227013Y71740D01*
Y165745D01*
X217300Y175458D01*
Y182536D01*
X216141Y183695D01*
Y184577D01*
X221459Y189895D01*
Y205147D01*
X232709Y216396D01*
X239158D01*
X243158Y220397D01*
Y267604D01*
X237593Y273169D01*
Y281447D01*
X236425Y282615D01*
G01X215758Y59855D02*
X216474Y59139D01*
G01X215758Y59855D02*
X215633Y59139D01*
G01X215758Y59855D02*
Y59014D01*
X216054Y58718D01*
G01X267943Y27786D02*
Y25591D01*
G01Y27786D02*
X265748D01*
G01X267943D02*
X269542Y29385D01*
Y55874D01*
X268771Y56645D01*
Y87040D01*
X270670Y88940D01*
Y90754D01*
G01X265748Y25591D02*
X267943Y27786D01*
G01X291184Y62068D02*
X290169Y61053D01*
G01X291184Y62068D02*
Y61227D01*
X290590Y60633D01*
G01X282698Y171252D02*
Y145229D01*
X287448Y140479D01*
X288684D01*
X291184Y137979D01*
Y62068D01*
G01X265748Y54285D02*
X267300Y52733D01*
G01X265748Y54285D02*
X264196Y52733D01*
G01X265748Y54285D02*
Y51181D01*
G01X268837Y171252D02*
Y156753D01*
X258849Y146764D01*
Y110212D01*
X263876Y105184D01*
Y73127D01*
X265748Y71255D01*
Y54285D01*
G01X247805Y27786D02*
X250000D01*
G01X247805D02*
Y25591D01*
G01Y27786D02*
X250000Y25591D01*
G01X253814Y161909D02*
X250781Y158876D01*
Y108172D01*
X252155Y106798D01*
Y64989D01*
X245929Y58763D01*
Y29662D01*
X247805Y27786D01*
G01X279301D02*
X281496D01*
G01X279301D02*
Y25591D01*
G01Y27786D02*
X277445Y29642D01*
Y78624D01*
X278851Y80030D01*
G01X281496Y25591D02*
X279301Y27786D01*
G01X302923Y19912D02*
X305118D01*
G01X302923D02*
Y17717D01*
G01Y19912D02*
X301703Y21131D01*
X296829D01*
X293541Y24420D01*
Y55317D01*
X294218Y55994D01*
Y116349D01*
X295121Y117252D01*
Y167580D01*
X293908Y168793D01*
G01X305118Y17717D02*
X302923Y19912D01*
G01X250000Y54285D02*
X251552Y52733D01*
G01X250000Y54285D02*
X248448Y52733D01*
G01X250000Y54285D02*
Y51181D01*
G01X260353Y171252D02*
X259360Y170259D01*
X256814D01*
X255751Y169196D01*
Y121101D01*
X252575Y117925D01*
Y108102D01*
X253374Y107303D01*
Y60629D01*
X250000Y57254D01*
Y54285D01*
G01X283691Y53376D02*
Y51181D01*
G01Y53376D02*
X281496D01*
G01X283691D02*
X284911Y54596D01*
Y91795D01*
X286617Y93501D01*
Y137630D01*
X280737Y143510D01*
Y171252D01*
G01X281496Y51181D02*
X283691Y53376D01*
G01X307313Y23396D02*
X305118D01*
G01X307313D02*
Y25591D01*
G01Y23396D02*
X309061Y21648D01*
X329627D01*
X332155Y24176D01*
Y100771D01*
G01X305118Y25591D02*
X307313Y23396D01*
G01X235145Y53878D02*
X234000Y52733D01*
G01X235145Y53878D02*
Y54528D01*
G01X234252Y51181D02*
X235145Y52074D01*
Y53878D01*
G01Y54528D02*
X233350Y52733D01*
G01X235145Y54528D02*
Y55179D01*
G01D02*
X235804Y52733D01*
G01X235145Y55179D02*
X232700Y52733D01*
G01X235145Y55179D02*
Y66086D01*
X235157Y66098D01*
Y83882D01*
X235145Y83894D01*
Y84735D01*
X232575Y87305D01*
Y107650D01*
X242169Y117244D01*
Y179528D01*
X244075Y181435D01*
G01X310797Y45502D02*
X312992D01*
G01X310797D02*
Y43307D01*
G01Y45502D02*
X312992Y43307D01*
G01X301647Y162932D02*
X302995Y161584D01*
Y62243D01*
X308533Y56705D01*
Y47766D01*
X310797Y45502D01*
G01X273622Y54285D02*
X275174Y52733D01*
G01X273622Y54285D02*
X272070Y52733D01*
G01X273622Y54285D02*
Y51181D01*
G01X263925Y112536D02*
X273622Y102839D01*
Y54285D01*
G01X318671Y45502D02*
X320866D01*
G01X318671D02*
Y43307D01*
G01Y45502D02*
X320866Y43307D01*
G01X316407Y106439D02*
Y47766D01*
X318671Y45502D01*
G01X304601Y171252D02*
Y67955D01*
X306851Y65705D01*
X308738D01*
G01X306924Y68241D02*
X305821Y69344D01*
Y171252D01*
G01X310552Y77439D02*
X307241Y80750D01*
Y171252D01*
G01X247980Y63380D02*
X241128Y70232D01*
Y93855D01*
X250935Y103663D01*
Y106292D01*
X249561Y107666D01*
Y161110D01*
X254532Y166080D01*
Y169702D01*
X256308Y171478D01*
X258855D01*
G01X231971Y177104D02*
X228233Y173366D01*
Y55811D01*
X229793Y54252D01*
Y37776D01*
G01X255518Y59444D02*
Y100765D01*
X257078Y102325D01*
Y167116D01*
G01X292404Y58818D02*
Y139199D01*
X288163Y143440D01*
Y158756D01*
X284658Y162260D01*
Y171252D01*
G01X300594Y165341D02*
X298613Y163360D01*
Y81053D01*
X300659Y79007D01*
Y42915D01*
X307409Y36165D01*
X321740D01*
X328740Y29165D01*
Y28695D01*
G01X296032Y57004D02*
Y92254D01*
X296341Y92563D01*
Y169364D01*
X294858Y170847D01*
X290995D01*
X290590Y171252D01*
G01X214240Y47766D02*
Y182147D01*
X213702Y182685D01*
Y185588D01*
X214641Y186527D01*
Y207589D01*
X212361Y209869D01*
G01X228573Y15522D02*
X226378Y17717D01*
G01Y15522D02*
X228573D01*
G01D02*
X231410Y12684D01*
X257799D01*
X261289Y16174D01*
Y97583D01*
X258478Y100394D01*
G01X239126Y194277D02*
X240946Y196097D01*
X244075D01*
G01X236559Y151793D02*
X235339Y153013D01*
Y174568D01*
X244075Y183304D01*
G01X236559Y151793D02*
X238754D01*
G01X236559D02*
Y149598D01*
G01X238754D02*
X236559Y151793D01*
G01X270294Y140449D02*
X271986Y142142D01*
Y171252D01*
G01X388851Y127644D02*
X378521D01*
X354135Y152030D01*
X336002D01*
X322502Y165530D01*
Y171252D01*
G01X281901Y88602D02*
Y94349D01*
X284458Y96907D01*
Y137259D01*
X279518Y142200D01*
Y171252D01*
G01X330935Y15522D02*
X333387Y13070D01*
X352643D01*
X356997Y17424D01*
Y92814D01*
X332368Y117442D01*
Y126784D01*
X324868Y134284D01*
X321993D01*
X318743Y137534D01*
Y164591D01*
X315233Y168101D01*
Y171252D01*
G01X257078Y167116D02*
X257986Y168024D01*
G01X257078Y167116D02*
Y167957D01*
X257565Y168445D01*
G01X320806Y138213D02*
Y171252D01*
G01X325651D02*
Y164859D01*
X329401Y161109D01*
X359955D01*
X379455Y141609D01*
Y131889D01*
G01X244075Y191653D02*
X240792D01*
X240383Y191243D01*
X237869D01*
X237638Y191475D01*
X234304D01*
X232732Y189903D01*
Y185666D01*
G01D02*
X232976Y185070D01*
G01X232732Y185666D02*
X232135Y185070D01*
G01X232732Y185666D02*
Y184826D01*
X232556Y184649D01*
G01X246508Y160493D02*
Y171252D01*
G01X244075Y200888D02*
X234702D01*
X232246Y198432D01*
G01X244075Y192904D02*
X240319D01*
X239878Y192463D01*
X238374D01*
X237933Y192904D01*
X231878D01*
X229028Y190054D01*
Y184579D01*
X227966Y183517D01*
X221950D01*
X221049Y184418D01*
G01X244075Y185338D02*
X233952Y175215D01*
Y152640D01*
X230919Y149606D01*
G01X237532Y85470D02*
X234083Y88919D01*
Y106222D01*
X243917Y116056D01*
Y178976D01*
X244075Y179134D01*
G01X237532Y85470D02*
X238127Y85308D01*
G01X237532Y85470D02*
Y84713D01*
G01Y85470D02*
X238127Y84875D01*
Y84713D01*
G01X234519Y194991D02*
X238758Y199230D01*
X244075D01*
G01X311478Y171252D02*
Y133178D01*
X347903Y96753D01*
Y54016D01*
G01X236458Y189839D02*
X235729Y189110D01*
G01X236458Y189839D02*
X235729Y189951D01*
G01X236458Y189839D02*
X244075D01*
G01X235308Y189530D02*
X235617Y189839D01*
X236458D01*
G01X282614Y132154D02*
Y135821D01*
X280061Y138373D01*
X277334D01*
X275136Y140571D01*
Y171252D01*
G01X391580Y60288D02*
Y167692D01*
X391996Y168108D01*
Y187822D01*
X390996Y188822D01*
X389368D01*
X388368Y187822D01*
Y172187D01*
X386118Y169937D01*
X349177D01*
X332513Y186601D01*
G01X309055Y134284D02*
Y89027D01*
G01X202721Y172857D02*
X204644D01*
X205844Y174057D01*
Y175673D01*
X204350Y177168D01*
Y191420D01*
X206988Y194058D01*
Y196177D01*
X206330Y196835D01*
G01X211836Y193951D02*
X213421Y192366D01*
Y188919D01*
X209793Y185291D01*
Y178623D01*
X211667Y176749D01*
Y174810D01*
G01X206164Y187677D02*
X206134Y187647D01*
Y177108D01*
X207354Y175888D01*
Y173839D01*
X202721Y169207D01*
G01X210051Y190646D02*
Y188998D01*
X207354Y186301D01*
Y177613D01*
X208574Y176393D01*
Y166382D01*
X205493Y163301D01*
G01X218520Y184291D02*
Y185231D01*
X222679Y189390D01*
Y204412D01*
X232679Y214412D01*
X238992D01*
X241258Y212146D01*
G01X227214Y185331D02*
Y203832D01*
X233714Y210332D01*
X242456D01*
X244075Y211951D01*
G01X237866Y106591D02*
X239198Y105259D01*
X249121D01*
G01X237157Y103444D02*
X237198Y103403D01*
X247446D01*
G01X334657Y259814D02*
X426813D01*
X432747Y265748D01*
G01X306754Y261839D02*
Y268542D01*
X323604Y285392D01*
X451096D01*
G01X311478Y261839D02*
X314587Y264948D01*
X422121D01*
X432762Y275590D01*
X437652D01*
G01X309964Y261839D02*
Y262918D01*
X313214Y266168D01*
X342567D01*
X353804Y277405D01*
X438441D01*
X440191Y275655D01*
Y271653D01*
G01X334657Y233749D02*
X340254D01*
X341741Y235236D01*
G01X334657Y249497D02*
X340130D01*
G01X273622Y274253D02*
Y267411D01*
X274486Y266547D01*
Y261839D01*
G01X244378Y271701D02*
X243712Y272366D01*
G01X244378Y271701D02*
X244432Y272366D01*
G01X269394Y273375D02*
Y273322D01*
X270173Y272543D01*
Y266524D01*
X271987Y264710D01*
Y261839D01*
G01X262795Y284597D02*
X263657Y283735D01*
G01X262795Y284597D02*
X263657Y285459D01*
G01X262795Y284597D02*
X262568D01*
G01X263657D02*
X262795D01*
G01X262568D02*
X261778Y283808D01*
G01X262568Y284597D02*
X261778Y284648D01*
G01X262568Y284597D02*
X261727D01*
X261358Y284228D01*
G01X236425Y282615D02*
X234230D01*
G01X236425D02*
Y284810D01*
G01Y282615D02*
X234230Y284810D01*
G01X200550Y216013D02*
X202721D01*
G01X334657Y258137D02*
X351963D01*
X355122Y254978D01*
G01X301152Y302698D02*
Y303494D01*
G01Y302698D02*
X301746Y302899D01*
G01X301152Y302698D02*
X297016Y298562D01*
Y293323D01*
X299058Y291281D01*
Y261839D01*
G01X301746Y303494D02*
Y303292D01*
X301152Y302698D01*
G01X292116Y303461D02*
X291101Y304476D01*
G01X292116Y303461D02*
Y302667D01*
X295253Y299529D01*
Y261839D01*
G01X291522Y304896D02*
X292116Y304302D01*
Y303461D01*
G01X275756Y288405D02*
Y261839D01*
X275794Y261801D01*
G01X273592Y296708D02*
Y297426D01*
G01Y296708D02*
X274187Y296832D01*
G01X273592Y296708D02*
X274187Y297302D01*
Y297426D01*
G01X273266Y261839D02*
Y266003D01*
X271987Y267283D01*
Y271616D01*
X271808Y271794D01*
Y294924D01*
X273592Y296708D01*
G01X305680Y302499D02*
X300731Y297550D01*
Y261839D01*
G01X301951D02*
Y291293D01*
X311712Y301055D01*
G01X279353Y297384D02*
Y287761D01*
X277240Y285648D01*
Y266226D01*
X279353Y264113D01*
Y261916D01*
X279430Y261839D01*
G01X282504Y296730D02*
Y297541D01*
G01Y296730D02*
X283099Y296946D01*
G01X282504Y296730D02*
X281265Y295490D01*
Y286532D01*
X278715Y283982D01*
Y267013D01*
X281265Y264463D01*
Y262083D01*
X281509Y261839D01*
G01X283099Y297541D02*
Y297324D01*
X282504Y296730D01*
G01X285275Y298646D02*
Y295257D01*
X282513Y292495D01*
Y284664D01*
X280140Y282291D01*
Y268390D01*
X282513Y266017D01*
Y262568D01*
X283023Y262058D01*
Y261839D01*
G01X291951Y297058D02*
Y295960D01*
X286362Y290371D01*
Y285542D01*
X284437Y283617D01*
Y267987D01*
X284537Y267887D01*
Y261839D01*
G01X256239D02*
Y266918D01*
G01D02*
X255640Y267517D01*
G01X256239Y266918D02*
X256480Y267517D01*
G01X256239Y266918D02*
Y267758D01*
X256060Y267937D01*
G01X210208Y263786D02*
X210626Y264380D01*
G01X210208Y263786D02*
X211220D01*
G01Y264380D02*
X210802D01*
X210208Y263786D01*
G01X258902Y297953D02*
Y295297D01*
X259688Y294511D01*
Y287254D01*
X258369Y285935D01*
Y279163D01*
X260115Y277417D01*
Y263647D01*
X261923Y261839D01*
G01X315340Y310085D02*
Y283158D01*
X304518Y272335D01*
Y261839D01*
G01X263657Y284597D02*
Y291866D01*
X262066Y293457D01*
Y299436D01*
G01X263657Y261839D02*
Y284597D01*
G01X269127Y278174D02*
X267580Y276627D01*
Y261061D01*
G01X233807Y266791D02*
X232803Y265787D01*
X230156D01*
X223538Y272406D01*
Y286084D01*
X220504Y289118D01*
G01X218690Y278416D02*
X220934Y276172D01*
Y245913D01*
X228018Y238828D01*
Y228550D01*
X233600Y222969D01*
G01X234977Y240248D02*
Y242625D01*
X228594Y249008D01*
X224837D01*
G01X244378Y271701D02*
Y261839D01*
G01X243520Y272558D02*
X244378Y271701D01*
G01D02*
Y272349D01*
X244021Y272706D01*
Y272786D01*
G01X228379Y284392D02*
X228753D01*
G01X228379D02*
Y284431D01*
X232753Y288805D01*
X236533D01*
X239680Y291952D01*
Y294347D01*
G01X258214Y320223D02*
Y324292D01*
X250744Y331762D01*
X231592D01*
G01X269193Y288408D02*
Y282948D01*
X269192Y282947D01*
G01X282977Y329885D02*
X283995D01*
G01X282977D02*
X283401Y329291D01*
G01X282977Y329885D02*
X280228Y332634D01*
Y340127D01*
X281442Y341341D01*
Y349116D01*
X283160Y350834D01*
G01X283995Y329291D02*
X283624Y329662D01*
X283200D01*
X282977Y329885D01*
G01X283160Y350834D02*
Y353029D01*
G01Y350834D02*
X285355D01*
G01X283160D02*
X285355Y353029D01*
G01X291034Y342960D02*
Y345155D01*
G01Y342960D02*
X293229D01*
G01X291034D02*
X293229Y345155D01*
G01X282499Y335428D02*
X283502D01*
X291034Y342960D01*
G01X226360Y325004D02*
X226852Y325353D01*
G01X226360Y325004D02*
X226852Y324512D01*
G01X227273Y324932D02*
X227201Y325004D01*
X226360D01*
G01X279775Y355224D02*
X279676Y353029D01*
G01X279775Y355224D02*
X277481D01*
G01X279775D02*
X281442Y356891D01*
X294794D01*
X297348Y354337D01*
Y343371D01*
X289963Y335986D01*
G01X277481Y353029D02*
X277580D01*
X279775Y355224D01*
G01X289963Y335986D02*
X289629Y335391D01*
G01X289963Y335986D02*
X289034D01*
G01X289963D02*
X289368Y335391D01*
X289034D01*
G01X313589Y333681D02*
X321125D01*
X330404Y342960D01*
G01X303570Y334929D02*
X306340Y337699D01*
X322295D01*
X328155Y343559D01*
Y346489D01*
X330583Y348917D01*
X336361D01*
X338278Y350834D01*
G01X346683Y27786D02*
Y25591D01*
G01Y27786D02*
X344488D01*
G01X346683D02*
X344488Y25591D01*
G01X330554Y125921D02*
Y116973D01*
X355777Y91750D01*
Y36879D01*
X346683Y27786D01*
G01X342293Y19912D02*
X344488D01*
G01X342293D02*
Y17717D01*
G01Y19912D02*
X340029Y22176D01*
Y101791D01*
G01X344488Y17717D02*
X342293Y19912D01*
G01X326545Y45502D02*
X328740D01*
G01X326545D02*
Y43307D01*
G01Y45502D02*
X324494Y47553D01*
Y104399D01*
G01X328740Y43307D02*
X326545Y45502D01*
G01X330935Y15522D02*
X328740D01*
G01X330935D02*
Y17717D01*
G01X328740D02*
X330935Y15522D01*
G01X328740Y28695D02*
X330292Y27143D01*
G01X328740Y28695D02*
X327188Y27143D01*
G01X328740Y28695D02*
Y25591D01*
G01Y54285D02*
X330292Y52733D01*
G01X328740Y54285D02*
X327188Y52733D01*
G01X328740Y54285D02*
Y106439D01*
G01Y51181D02*
Y54285D01*
G01X360625Y78866D02*
X364253D01*
G01X387262Y98172D02*
Y44843D01*
X395448Y36657D01*
G01X334657Y199152D02*
X342354Y191454D01*
Y187770D01*
G01X373588Y182916D02*
X370713Y180041D01*
X347421D01*
X334583Y192878D01*
G01X331829Y171252D02*
Y166290D01*
X334579Y163540D01*
X381932D01*
X390182Y171790D01*
Y187008D01*
G01X334657Y189751D02*
X337896Y186511D01*
Y183001D01*
X349146Y171751D01*
X385341D01*
G01X334657Y181937D02*
X349272Y167323D01*
X382933D01*
G01X361777Y196020D02*
X365740Y192057D01*
X371577D01*
X372186Y192667D01*
Y196336D01*
X372796Y196946D01*
X374016D01*
X374626Y196336D01*
Y192667D01*
X375236Y192057D01*
X376455D01*
X377065Y192667D01*
Y194374D01*
X377675Y194984D01*
X378894D01*
X379504Y194374D01*
Y192667D01*
X380114Y192057D01*
X381334D01*
X381943Y192667D01*
Y195075D01*
X382553Y195684D01*
X383773D01*
X384382Y195075D01*
Y192667D01*
X384992Y192057D01*
X386212D01*
X386822Y192667D01*
Y195075D01*
X387432Y195684D01*
X388651D01*
X389261Y195075D01*
Y192667D01*
X389871Y192057D01*
X391410D01*
X395340Y188127D01*
Y186111D01*
X395950Y185501D01*
X397007D01*
X397617Y184891D01*
Y183672D01*
X397007Y183062D01*
X395950D01*
X395340Y182452D01*
Y181232D01*
X395950Y180623D01*
X397007D01*
X397617Y180013D01*
Y178793D01*
X397007Y178183D01*
X395950D01*
X395340Y177574D01*
Y176354D01*
X395950Y175744D01*
X397007D01*
X397617Y175134D01*
Y173915D01*
X397007Y173305D01*
X395950D01*
X395340Y172695D01*
Y168886D01*
X397727Y166499D01*
X401245D01*
G01X460573Y157480D02*
Y148636D01*
X453823Y141886D01*
X417861D01*
X403861Y155886D01*
Y185750D01*
X389654Y199958D01*
X366194D01*
G01X334657Y240157D02*
X340847D01*
X351597Y229408D01*
Y197960D01*
X362347Y187210D01*
X383572D01*
G01X409082Y201772D02*
X410897Y199958D01*
Y185666D01*
X415257Y181306D01*
Y154236D01*
X413067Y152045D01*
G01X390233Y238189D02*
X386605Y241817D01*
X361993D01*
X358743Y238567D01*
Y203867D01*
X360993Y201617D01*
X362623D01*
X364186Y200055D01*
Y198140D01*
X364490Y197835D01*
G01X398837Y149606D02*
X394078Y154365D01*
Y187588D01*
X390828Y190838D01*
X363103D01*
X359353Y194588D01*
Y197379D01*
X361777Y199803D01*
G01D02*
X359774D01*
X357524Y202053D01*
Y239210D01*
X362274Y243960D01*
X399934D01*
G01X367897Y201772D02*
X390331D01*
X405081Y187022D01*
Y156541D01*
X413081Y148541D01*
X423281D01*
X428281Y153541D01*
Y155511D01*
G01X365339Y204661D02*
X365486Y204808D01*
X408814D01*
X412472Y201150D01*
Y196884D01*
X432535Y176822D01*
Y153543D01*
G01X362067Y239173D02*
X359963Y237069D01*
Y204586D01*
X361702Y202847D01*
X366091D01*
X366829Y203586D01*
X391800D01*
X406300Y189086D01*
Y170059D01*
X410050Y166309D01*
X412600D01*
G01X409634Y108196D02*
X415448D01*
G01X369994Y182916D02*
X363036D01*
X347286Y198666D01*
Y207578D01*
X342167Y212697D01*
Y213795D01*
X337426Y218536D01*
X335916D01*
X334657Y219795D01*
G01X398837Y170951D02*
Y189050D01*
X389222Y198664D01*
X371323D01*
X367695Y195036D01*
X366192D01*
X365129Y196099D01*
Y197196D01*
X364490Y197835D01*
G01X365972Y208970D02*
X367413D01*
X367438Y208995D01*
X415852D01*
X449870Y174978D01*
Y147637D01*
G01X368514Y207181D02*
X414204D01*
X439797Y181588D01*
Y175256D01*
X446286Y168767D01*
Y159448D01*
G01X334657Y247128D02*
X376016D01*
X377984Y249096D01*
X439047D01*
X451547Y236596D01*
Y220472D01*
G01X442430Y208661D02*
Y243877D01*
X438430Y247877D01*
X397582D01*
X395019Y245314D01*
X334657D01*
G01Y252695D02*
X404068D01*
X408108Y256735D01*
X450460D01*
X464460Y242735D01*
Y229561D01*
X467644Y226378D01*
G01X334657Y210284D02*
X341201Y203740D01*
X343365D01*
G01X345429Y212510D02*
X338184Y219755D01*
X337441D01*
X334657Y222540D01*
Y223282D01*
G01X334276Y218049D02*
X336098Y216226D01*
G01X334657Y211823D02*
X337691D01*
G01X338193Y229787D02*
X337692Y230288D01*
G01X338193Y229787D02*
X338533Y230288D01*
G01X338193Y229787D02*
Y221569D01*
G01X338112Y230708D02*
X338193Y230628D01*
Y229787D01*
G01X407103Y295004D02*
X411040D01*
X423136Y307100D01*
Y319878D01*
X422381Y320634D01*
G01X383982Y267870D02*
X390563Y274452D01*
X413338D01*
G01X399744Y216445D02*
X399833D01*
X401558Y214721D01*
X422207D01*
X437457Y229971D01*
Y235030D01*
X438067Y235640D01*
X440405D01*
X441015Y236250D01*
Y237469D01*
X440405Y238079D01*
X438067D01*
X437457Y238689D01*
Y239908D01*
X438067Y240518D01*
X440405D01*
X441015Y241128D01*
Y242348D01*
X440405Y242957D01*
X438067D01*
X437457Y243567D01*
Y246063D01*
G01X433129Y244094D02*
Y242280D01*
X433738Y241670D01*
X435628D01*
X436237Y241060D01*
Y239841D01*
X435628Y239231D01*
X433738D01*
X433129Y238621D01*
Y237599D01*
X430992Y235463D01*
Y234600D01*
X433482Y232110D01*
Y231248D01*
X432620Y230386D01*
X431757D01*
X429267Y232876D01*
X428405D01*
X427543Y232013D01*
Y231151D01*
X430033Y228661D01*
Y227799D01*
X429170Y226936D01*
X428308D01*
X425818Y229426D01*
X424956D01*
X424093Y228563D01*
Y227701D01*
X426583Y225211D01*
Y224349D01*
X425720Y223486D01*
X424858D01*
X422368Y225976D01*
X421506D01*
X420643Y225114D01*
X419781D01*
X417610Y227284D01*
X416748D01*
X415886Y226422D01*
Y225560D01*
X418056Y223389D01*
Y221371D01*
X414944Y218259D01*
X410735Y218259D01*
X410125Y217650D01*
Y216691D01*
X409516Y216081D01*
X408296D01*
X407686Y216691D01*
Y217650D01*
X407076Y218259D01*
X405857D01*
X405247Y217650D01*
Y216691D01*
X404637Y216081D01*
X403418D01*
X402808Y216691D01*
Y217650D01*
X402198Y218259D01*
X397594D01*
X391933Y212598D01*
X369062D01*
X369037Y212623D01*
X366764D01*
X364925Y210784D01*
X364730D01*
X362334Y208388D01*
Y207743D01*
G01X368285Y210809D02*
Y210796D01*
X368298Y210784D01*
X416691D01*
X417301Y211394D01*
Y212892D01*
X417910Y213501D01*
X419130D01*
X419740Y212892D01*
Y211394D01*
X420350Y210784D01*
X421569D01*
X422179Y211394D01*
Y212892D01*
X422789Y213501D01*
X424008D01*
X424618Y212892D01*
Y211394D01*
X425228Y210784D01*
X426814D01*
X427424Y211394D01*
Y216362D01*
X428033Y216972D01*
X429253D01*
X429863Y216362D01*
Y211394D01*
X430473Y210784D01*
X437457D01*
G01X410482Y238189D02*
Y221797D01*
X408254Y219569D01*
X405407D01*
X404798Y220178D01*
Y226003D01*
X404188Y226613D01*
X402968D01*
X402358Y226003D01*
Y220178D01*
X401749Y219569D01*
X397556D01*
X396947Y220178D01*
Y226091D01*
X396337Y226701D01*
X395117D01*
X394508Y226091D01*
X394589Y226010D01*
Y221272D01*
X392050Y218733D01*
X391919D01*
Y217814D01*
X391263Y217158D01*
X390212D01*
X389544Y217826D01*
Y221128D01*
X388904Y221769D01*
X387684D01*
X387074Y221159D01*
Y217624D01*
X386465Y217014D01*
X383969D01*
X381880Y214925D01*
X372755D01*
X372145Y215535D01*
Y220842D01*
X371509Y221478D01*
X370281D01*
X369706Y220903D01*
Y215535D01*
X369096Y214925D01*
X365240D01*
X364490Y215675D01*
Y217520D01*
G01X361950Y221457D02*
Y222773D01*
X365078Y225901D01*
X368003D01*
X368019Y225885D01*
X369562D01*
X370172Y226495D01*
Y234626D01*
X370782Y235236D01*
X372001D01*
X372611Y234626D01*
Y226495D01*
X373221Y225885D01*
X374440D01*
X375050Y226495D01*
Y234626D01*
X375660Y235236D01*
X376880D01*
X377489Y234626D01*
Y226495D01*
X378099Y225885D01*
X379319D01*
X379928Y226495D01*
Y230562D01*
X380576Y231209D01*
X381729D01*
X382368Y230570D01*
Y226495D01*
X382978Y225885D01*
X389684D01*
X392240Y228441D01*
Y229303D01*
X388850Y232694D01*
Y233556D01*
X389712Y234418D01*
X390574D01*
X393965Y231028D01*
X394827D01*
X395690Y231890D01*
Y232752D01*
X392299Y236143D01*
Y237005D01*
X393483Y238189D01*
X399934D01*
G01X387200Y255905D02*
X385242Y253947D01*
X383161D01*
X381757Y255351D01*
Y255905D01*
G01X448801Y253937D02*
X445646D01*
X445037Y253327D01*
Y248490D01*
X444427Y247880D01*
X443207D01*
X442597Y248490D01*
Y253327D01*
X441988Y253937D01*
X431804D01*
X429794Y251927D01*
G01X425872Y244859D02*
X425262Y244248D01*
X420054D01*
X417426Y241620D01*
X407267D01*
X389450Y223803D01*
X367057D01*
X362644Y219390D01*
Y214166D01*
X364158Y212652D01*
Y212612D01*
G01X370234Y343110D02*
Y344695D01*
G01Y343110D02*
X371969Y344845D01*
Y345155D01*
G01X369774Y342650D02*
X370234Y343110D01*
G01X369774Y342650D02*
Y345155D01*
G01Y342650D02*
X371969Y342960D01*
G01X344145Y336694D02*
X363818D01*
X369774Y342650D01*
G01X338278Y350834D02*
Y353029D01*
G01Y350834D02*
X340473D01*
G01X338278D02*
X340473Y353029D01*
G01X377380Y346890D02*
X379384D01*
G01X377380D02*
X376920Y347350D01*
G01X379843Y345155D02*
X379115D01*
X377380Y346890D01*
G01X376920Y347350D02*
X379843D01*
G01X376920D02*
X377648Y345155D01*
G01X376920Y347350D02*
X375102Y349168D01*
X370097D01*
X368172Y347243D01*
Y343894D01*
X364070Y339792D01*
X338285D01*
G01X330404Y342960D02*
Y345155D01*
G01Y342960D02*
X332599D01*
G01X330404D02*
X332599Y345155D01*
G01X422381Y320634D02*
X421786Y321203D01*
G01X422381Y320634D02*
Y321797D01*
G01Y320634D02*
X421786Y321228D01*
Y321797D01*
G01X400428Y320618D02*
X414455D01*
X417448Y323611D01*
X428428D01*
X437853Y333036D01*
Y336867D01*
G01X454877Y203586D02*
Y151574D01*
G01X444544Y218553D02*
X446812D01*
X453062Y212303D01*
Y143700D01*
G54D15*
X9518Y36201D03*
X51807Y319552D03*
X60052Y293669D03*
X58939Y266641D03*
X41400Y226267D03*
X42258Y217267D03*
X71874Y210804D03*
X88335Y232493D03*
X257241Y358903D03*
X407644Y314289D03*
X439942Y298041D03*
X502234Y275086D03*
X501888Y284617D03*
X456829Y308978D03*
X495041Y330749D03*
X494929Y344554D03*
G54D25*
G01X511010Y74828D02*
X514705Y78523D01*
Y86355D01*
X526454Y98104D01*
Y113399D01*
X530715Y117660D01*
G01D02*
X530716Y119660D01*
G01X530715Y117660D02*
X532716D01*
G01X530715D02*
X532715Y119660D01*
X532716D01*
G01X572428Y207837D02*
X556958D01*
X555501Y207938D01*
X533262Y230177D01*
G01X486678Y273953D02*
X485660Y276346D01*
G01X486678Y273953D02*
X489070Y274970D01*
G01X486678Y273953D02*
X486221Y272819D01*
Y260446D01*
X482284Y256509D01*
G01X488053Y277363D02*
X486678Y273953D01*
G01X482284Y256509D02*
Y251789D01*
X491063Y243009D01*
G01X572428Y207837D02*
X574019Y209428D01*
G01X572428Y207837D02*
X574019Y206246D01*
G01X575610Y207837D02*
X572428D01*
G54D16*
X17185Y315433D03*
Y295433D03*
Y275433D03*
Y255433D03*
X561654Y-61382D03*
Y-41382D03*
Y-116513D03*
Y-96513D03*
X530152Y309865D03*
X513152D03*
Y331865D03*
X530152D03*
X581654Y-61382D03*
Y-41382D03*
X571654Y-51382D03*
X581654Y-116513D03*
Y-96513D03*
X571654Y-106513D03*
G54D26*
G01X327067Y310085D02*
Y310715D01*
X329344Y312992D01*
G54D17*
X68665Y294922D03*
X149394D03*
X555216Y72460D03*
X562179Y35106D03*
Y-4264D03*
Y15421D03*
Y25264D03*
Y5578D03*
X555216Y131760D03*
X581864Y15421D03*
Y-4264D03*
Y35106D03*
G54D27*
G01X0Y0D02*
Y374016D01*
G01X535361Y-49100D02*
X354324D01*
Y0D01*
X0D01*
G01Y374014D02*
Y374016D01*
X590551D01*
Y-137795D01*
X535433D01*
Y-55118D01*
G01Y-55119D02*
Y-49100D01*
X535361D01*
G54D18*
X41200Y235378D03*
X47973Y276605D03*
X238874Y230641D03*
X212106Y231327D03*
X242678Y323145D03*
X247272Y349269D03*
X418460Y311354D03*
X426083Y311222D03*
X429218Y298670D03*
X408761Y301815D03*
X408470Y308056D03*
X435471Y295765D03*
X367258Y312903D03*
X407201Y363724D03*
X417231Y364058D03*
X427231Y363915D03*
X437231D03*
X396862Y362813D03*
X523418Y52413D03*
X504000Y66000D03*
X508000Y62000D03*
Y56000D03*
X504000Y60000D03*
X538000Y82000D03*
X532000Y72000D03*
X538000D03*
X530000Y52000D03*
X512000Y48000D03*
X508000D03*
X544000Y72000D03*
X550000Y78000D03*
X506003Y73997D03*
X529818Y104457D03*
X506000Y90000D03*
X512000D03*
X506000Y84000D03*
X512000Y86000D03*
X528000Y88000D03*
X524000D03*
X528000Y84000D03*
X538000Y94000D03*
X524000Y108000D03*
Y102000D03*
Y114000D03*
X528000Y120000D03*
X540000D03*
X550000Y100000D03*
X554000Y94000D03*
Y86000D03*
X523211Y200459D03*
X489159Y189018D03*
X524738Y173553D03*
X471924Y127000D03*
X471772Y151384D03*
X474532Y159767D03*
X471772Y169920D03*
X524218Y146398D03*
X523027Y132222D03*
X487891Y164548D03*
X478514Y111672D03*
X476337Y151827D03*
X523621Y215375D03*
X471737Y216307D03*
X523251Y227870D03*
X509037Y233185D03*
X447231Y363771D03*
X467231Y364344D03*
X480259Y364869D03*
G54D19*
G01X290922Y310085D02*
Y309544D01*
X288338Y306961D01*
X280605D01*
G01X291925Y312994D02*
X290922Y311991D01*
Y310085D01*
G01X277481Y345155D02*
Y329210D01*
X277581Y329110D01*
Y318957D01*
X281191Y315347D01*
Y307547D01*
X280605Y306961D01*
G01X329344Y312992D02*
X326059Y316277D01*
X297775D01*
X294493Y312994D01*
X291925D01*
G01X280605Y306961D02*
X254982D01*
X242678Y319265D01*
Y323145D01*
G01X277481Y345155D02*
X269607Y353029D01*
G01X329344Y312992D02*
X330956Y314604D01*
X365557D01*
X367258Y312903D01*
G01X523916Y74803D02*
Y82635D01*
X534454Y61024D03*
X520952Y98425D03*
M02*
