G04 ================== begin FILE IDENTIFICATION RECORD ==================*
G04 Layout Name:  D:/project/IRISking/IKEMB001/project/hardware/DM642/allegro/DM642_new.brd*
G04 Film Name:    Silk_Top*
G04 File Format:  Gerber RS274X*
G04 File Origin:  15.7-p007*
G04 Origin Date:  Sun Nov 25 09:51:18 2007*
G04 *
G04 Layer:  BOARD GEOMETRY/SILKSCREEN_TOP*
G04 Layer:  REF DES/SILKSCREEN_TOP*
G04 Layer:  PACKAGE GEOMETRY/SILKSCREEN_TOP*
G04 Layer:  BOARD GEOMETRY/OUTLINE*
G04 *
G04 Offset:    (0.000 0.000)*
G04 Mirror:    No*
G04 Mode:      Positive*
G04 Rotation:  0*
G04 FullContactRelief:  No*
G04 UndefLineWidth:     7.988*
G04 ================== end FILE IDENTIFICATION RECORD ====================*
%FSLAX53Y53*MOIN*%
%IR0*IPPOS*OFA0.00000B0.00000*MIA0B0*SFA1.00000B1.00000*%
%ADD10C,.007988*%
G75*
%LPD*%
G75*
G36*
G01X2895Y3112D02*
G03I0J6D01*
G37*
G36*
G01X3643Y3112D02*
G03I0J6D01*
G37*
G36*
G01X3269Y3112D02*
G03I0J6D01*
G37*
G54D10*
G01X5354Y-491D02*
X3543D01*
Y0D01*
X0D01*
G01X102Y99D02*
Y179D01*
X182D01*
Y99D01*
X102D01*
G01X1060Y36D02*
X555D01*
Y201D01*
X1060D01*
Y36D01*
G01X627Y262D02*
Y412D01*
X1027D01*
Y262D01*
X627D01*
G01X307Y1069D02*
Y269D01*
X7D01*
Y1069D01*
X307D01*
G01X413Y1043D02*
Y492D01*
X965D01*
Y1043D01*
X413D01*
G01X0Y0D02*
Y3740D01*
G01X94Y221D02*
X104Y190D01*
X113Y221D01*
G01X125Y190D02*
X135Y221D01*
X144Y190D01*
G01X141Y201D02*
X128D01*
G01X157Y190D02*
Y221D01*
X165D01*
X168Y219D01*
X170Y217D01*
X172Y214D01*
X174Y210D01*
X174Y205D01*
X174Y200D01*
X172Y196D01*
X170Y193D01*
X168Y191D01*
X165Y190D01*
X157D01*
G01X205Y218D02*
X203Y220D01*
X200Y221D01*
X197D01*
X193Y219D01*
X191Y217D01*
X189Y213D01*
X187Y208D01*
X187Y204D01*
X188Y199D01*
X189Y196D01*
X191Y193D01*
X194Y191D01*
X196Y190D01*
X199D01*
X202Y191D01*
X204Y192D01*
X206Y194D01*
G01X575Y421D02*
Y435D01*
X567Y452D01*
G01X583D02*
X575Y435D01*
G01X599Y447D02*
X601Y450D01*
X604Y452D01*
X607Y452D01*
X611Y451D01*
X613Y449D01*
X614Y446D01*
X614Y443D01*
X612Y440D01*
X604Y435D01*
X601Y431D01*
X599Y426D01*
X598Y421D01*
X614D01*
G01X321Y291D02*
X323Y288D01*
X325Y286D01*
X328Y285D01*
X331Y286D01*
X333Y288D01*
X335Y291D01*
X336Y295D01*
Y316D01*
G01X359Y285D02*
X359Y292D01*
X361Y297D01*
X362Y303D01*
X364Y308D01*
X367Y316D01*
X352D01*
G01X157Y1889D02*
Y1969D01*
X237D01*
Y1889D01*
X157D01*
G01X295D02*
Y1969D01*
X375D01*
Y1889D01*
X295D01*
G01X152Y1682D02*
Y1647D01*
X242D01*
Y1697D01*
G01Y1767D02*
Y1817D01*
X152D01*
Y1782D01*
G01X210Y1738D02*
X184D01*
X198Y1724D01*
X212Y1738D01*
X210D01*
G01X152Y1817D02*
X242D01*
Y1647D01*
X152D01*
Y1817D01*
G01X290Y1682D02*
Y1647D01*
X380D01*
Y1697D01*
G01Y1767D02*
Y1817D01*
X290D01*
Y1782D01*
G01X348Y1738D02*
X322D01*
X336Y1724D01*
X350Y1738D01*
X348D01*
G01X290Y1817D02*
X380D01*
Y1647D01*
X290D01*
Y1817D01*
G01X18Y1108D02*
Y1608D01*
X218D01*
Y1108D01*
X18D01*
G01X286Y1998D02*
Y2018D01*
G01Y2013D02*
X287Y2016D01*
X290Y2018D01*
X293Y2018D01*
X295Y2018D01*
X298Y2016D01*
X299Y2012D01*
Y1998D01*
G01X316D02*
Y2029D01*
X325D01*
X328Y2027D01*
X330Y2025D01*
X331Y2021D01*
X330Y2017D01*
X328Y2014D01*
X325Y2013D01*
X316D01*
G01X325D02*
X331Y1998D01*
G01X346Y2002D02*
X349Y1999D01*
X353Y1998D01*
X356D01*
X359Y1999D01*
X361Y2002D01*
X362Y2005D01*
X362Y2009D01*
X360Y2012D01*
X356Y2014D01*
X352Y2015D01*
X349Y2017D01*
X348Y2021D01*
X349Y2024D01*
X350Y2027D01*
X353Y2029D01*
X356D01*
X359Y2028D01*
X361Y2025D01*
G01X385Y2029D02*
Y1998D01*
G01X376Y2029D02*
X394D01*
G01X416Y1998D02*
Y2029D01*
X412Y2022D01*
G01Y1998D02*
X421D01*
G01X173Y1845D02*
X175Y1842D01*
X178Y1841D01*
X181Y1840D01*
X185Y1841D01*
X188Y1843D01*
X189Y1847D01*
X190Y1851D01*
X189Y1855D01*
X187Y1858D01*
X184Y1860D01*
X182Y1860D01*
X179Y1860D01*
X176Y1858D01*
X177Y1871D01*
X187D01*
G01X203D02*
X212Y1840D01*
X222Y1871D01*
G01X280Y1846D02*
X282Y1843D01*
X285Y1841D01*
X289Y1840D01*
X292Y1841D01*
X295Y1843D01*
X297Y1846D01*
X297Y1849D01*
X296Y1853D01*
X294Y1856D01*
X291Y1857D01*
X287D01*
G01X291D02*
X293Y1858D01*
X295Y1861D01*
X296Y1864D01*
X295Y1867D01*
X293Y1870D01*
X290Y1871D01*
X286Y1871D01*
X283Y1868D01*
G01X319Y1839D02*
X318Y1840D01*
Y1841D01*
X319Y1841D01*
X320Y1841D01*
Y1840D01*
X319Y1839D01*
G01X342Y1846D02*
X344Y1843D01*
X347Y1841D01*
X351Y1840D01*
X354Y1841D01*
X357Y1843D01*
X359Y1846D01*
X359Y1849D01*
X358Y1853D01*
X355Y1856D01*
X353Y1857D01*
X349D01*
G01X353D02*
X355Y1858D01*
X357Y1861D01*
X358Y1864D01*
X357Y1867D01*
X355Y1870D01*
X352Y1871D01*
X348Y1871D01*
X345Y1868D01*
G01X372Y1871D02*
X381Y1840D01*
X391Y1871D01*
G01X150Y1998D02*
Y2029D01*
X146Y2022D01*
G01Y1998D02*
X155D01*
G01X181Y1997D02*
X181Y1998D01*
X181Y1999D01*
X182Y1998D01*
Y1997D01*
X181Y1997D01*
G01X212Y1998D02*
X215Y1998D01*
X218Y2000D01*
X220Y2002D01*
X221Y2006D01*
X220Y2009D01*
X218Y2013D01*
X214Y2014D01*
X210D01*
X208Y2015D01*
X206Y2018D01*
X205Y2021D01*
X207Y2025D01*
X209Y2028D01*
X212Y2029D01*
X215Y2028D01*
X218Y2025D01*
X219Y2021D01*
X218Y2018D01*
X217Y2015D01*
X214Y2014D01*
X210D01*
X207Y2013D01*
X205Y2009D01*
X204Y2006D01*
X205Y2002D01*
X207Y2000D01*
X210Y1998D01*
X212Y1998D01*
G01X234Y2029D02*
X243Y1998D01*
X253Y2029D01*
G01X1427Y1530D02*
Y1930D01*
X552D01*
Y1530D01*
X1427D01*
G01X587Y1553D02*
G03I-11J0D01*
G01X508Y1639D02*
X485D01*
X481Y1637D01*
X478Y1634D01*
X477Y1631D01*
X478Y1627D01*
X481Y1624D01*
X485Y1622D01*
X508D01*
G01X477Y1600D02*
X508D01*
X501Y1604D01*
G01X477D02*
Y1595D01*
G01X481Y1577D02*
X479Y1575D01*
X477Y1572D01*
X477Y1569D01*
X478Y1565D01*
X480Y1562D01*
X483Y1561D01*
X488Y1560D01*
X492Y1561D01*
X494Y1563D01*
X496Y1566D01*
X497Y1568D01*
X496Y1571D01*
X494Y1574D01*
X508Y1573D01*
Y1563D01*
G01X776Y1096D02*
X796D01*
Y1089D01*
G01X786Y1091D02*
Y1096D01*
G01X754Y1091D02*
Y1087D01*
X748D01*
X746Y1088D01*
X745Y1090D01*
X744Y1092D01*
X745Y1094D01*
X746Y1095D01*
X748Y1096D01*
X750Y1097D01*
X753Y1098D01*
X755D01*
X757Y1097D01*
X760Y1096D01*
X762Y1095D01*
X763Y1094D01*
X764Y1092D01*
Y1091D01*
X763Y1089D01*
X762Y1088D01*
G01X713Y1097D02*
X733D01*
G01Y1088D02*
X713D01*
G01X723D02*
Y1097D01*
G01X685Y1096D02*
X683Y1095D01*
X682Y1094D01*
X681Y1093D01*
X682Y1091D01*
X683Y1090D01*
X685Y1089D01*
X688Y1088D01*
X701D01*
G01X650Y1097D02*
X670D01*
G01Y1089D02*
X657Y1097D01*
G01X650Y1088D02*
X663Y1093D01*
G01X638Y1096D02*
X618D01*
Y1088D01*
G01X587Y1098D02*
X607D01*
X590Y1092D01*
X607Y1087D01*
X587D01*
G01X555Y1097D02*
X575D01*
X555Y1088D01*
X575D01*
G01X524Y1096D02*
X544D01*
Y1092D01*
X543Y1090D01*
X540Y1089D01*
X538Y1088D01*
X535Y1089D01*
X533Y1090D01*
X532Y1092D01*
Y1096D01*
G01X492D02*
X512D01*
Y1091D01*
X511Y1090D01*
X510Y1089D01*
X507Y1088D01*
X504Y1089D01*
X503Y1090D01*
X502Y1091D01*
Y1096D01*
G01Y1091D02*
X492Y1088D01*
G01X481Y1092D02*
X461D01*
G01X481Y1097D02*
Y1088D01*
G01X449Y1097D02*
X435D01*
X432Y1096D01*
X430Y1094D01*
X429Y1092D01*
X430Y1090D01*
X432Y1089D01*
X435Y1088D01*
X449D01*
G01X458Y1768D02*
X427D01*
Y1753D01*
G01Y1722D02*
Y1737D01*
X458D01*
Y1722D01*
G01X443Y1728D02*
Y1737D01*
G01X427Y1707D02*
X458D01*
Y1699D01*
X456Y1696D01*
X454Y1694D01*
X451Y1692D01*
X447Y1690D01*
X442Y1690D01*
X437Y1690D01*
X433Y1692D01*
X430Y1694D01*
X428Y1696D01*
X427Y1699D01*
Y1707D01*
G01Y1667D02*
X458D01*
X451Y1672D01*
G01X427D02*
Y1663D01*
G01X130Y1778D02*
X99D01*
Y1763D01*
G01Y1732D02*
Y1747D01*
X130D01*
Y1732D01*
G01X115Y1738D02*
Y1747D01*
G01X99Y1717D02*
X130D01*
Y1709D01*
X129Y1706D01*
X126Y1704D01*
X123Y1702D01*
X120Y1700D01*
X115Y1700D01*
X109Y1700D01*
X106Y1702D01*
X103Y1704D01*
X101Y1706D01*
X99Y1709D01*
Y1717D01*
G01X125Y1685D02*
X128Y1682D01*
X130Y1680D01*
X130Y1677D01*
X129Y1673D01*
X126Y1670D01*
X123Y1669D01*
X120Y1670D01*
X118Y1671D01*
X113Y1679D01*
X109Y1682D01*
X104Y1685D01*
X99Y1686D01*
Y1669D01*
G01X232Y1123D02*
X234Y1120D01*
X237Y1118D01*
X239Y1117D01*
X242Y1118D01*
X245Y1120D01*
X247Y1123D01*
X248Y1127D01*
Y1148D01*
G01X264Y1143D02*
X266Y1146D01*
X269Y1147D01*
X272Y1148D01*
X276Y1147D01*
X278Y1144D01*
X279Y1141D01*
X279Y1138D01*
X277Y1136D01*
X270Y1130D01*
X266Y1127D01*
X264Y1122D01*
X263Y1117D01*
X279D01*
G01X302D02*
Y1148D01*
X297Y1142D01*
G01Y1117D02*
X307D01*
G01X248Y1509D02*
X288Y1469D01*
Y1549D01*
X248Y1509D01*
G01X122Y2354D02*
X22Y2454D01*
Y3254D01*
X122Y3354D01*
G01X322Y2354D02*
X22D01*
Y3354D01*
X322D01*
Y2354D01*
G01X372Y2404D02*
X322D01*
Y2454D01*
X372D01*
Y2404D01*
G01Y2604D02*
X322D01*
Y2654D01*
X372D01*
Y2604D01*
G01Y2804D02*
X322D01*
Y2854D01*
X372D01*
Y2804D01*
G01Y3004D02*
X322D01*
Y3054D01*
X372D01*
Y3004D01*
G01X354Y3081D02*
Y3181D01*
X370D01*
Y3081D01*
X354D01*
G01D02*
Y3181D01*
X606D01*
Y3081D01*
X354D01*
G01X535D02*
X605D01*
Y3181D01*
X585D01*
X535D01*
G01X354Y2679D02*
Y2779D01*
X370D01*
Y2679D01*
X354D01*
G01D02*
Y2779D01*
X606D01*
Y2679D01*
X354D01*
G01X535D02*
X605D01*
Y2779D01*
X585D01*
X535D01*
G01X355Y2887D02*
Y2987D01*
X371D01*
Y2887D01*
X355D01*
G01D02*
Y2987D01*
X607D01*
Y2887D01*
X355D01*
G01X536D02*
X606D01*
Y2987D01*
X586D01*
X536D01*
G01X295Y2047D02*
Y2127D01*
X375D01*
Y2047D01*
X295D01*
G01X157D02*
Y2127D01*
X237D01*
Y2047D01*
X157D01*
G01X295Y2204D02*
Y2284D01*
X375D01*
Y2204D01*
X295D01*
G01X157D02*
Y2284D01*
X237D01*
Y2204D01*
X157D01*
G01X559Y2383D02*
X859D01*
Y2183D01*
X559D01*
Y2383D01*
G01X288Y2155D02*
Y2186D01*
X284Y2180D01*
G01Y2155D02*
X293D01*
G01X319Y2154D02*
X318Y2155D01*
Y2156D01*
X319Y2156D01*
X320Y2156D01*
Y2155D01*
X319Y2154D01*
G01X355Y2155D02*
Y2186D01*
X341Y2164D01*
X360D01*
G01X372Y2186D02*
X381Y2155D01*
X391Y2186D01*
G01X168Y2171D02*
X176D01*
Y2161D01*
X174Y2158D01*
X171Y2156D01*
X167Y2155D01*
X163Y2156D01*
X160Y2158D01*
X158Y2161D01*
X157Y2165D01*
X156Y2169D01*
Y2173D01*
X157Y2176D01*
X158Y2179D01*
X160Y2182D01*
X163Y2184D01*
X166Y2186D01*
X169D01*
X172Y2185D01*
X174Y2183D01*
G01X188Y2155D02*
Y2186D01*
X206Y2155D01*
Y2186D01*
G01X219Y2155D02*
Y2186D01*
X227D01*
X230Y2184D01*
X232Y2182D01*
X234Y2179D01*
X236Y2176D01*
X236Y2171D01*
X236Y2165D01*
X234Y2162D01*
X232Y2159D01*
X230Y2157D01*
X227Y2155D01*
X219D01*
G01X667Y3048D02*
G03I413J-98D01*
G01X394Y3020D02*
X391Y3021D01*
X389Y3022D01*
X386D01*
X382Y3021D01*
X379Y3018D01*
X378Y3015D01*
X376Y3010D01*
X376Y3005D01*
X376Y3001D01*
X378Y2997D01*
X380Y2994D01*
X383Y2992D01*
X385Y2991D01*
X388D01*
X391Y2992D01*
X393Y2994D01*
X395Y2996D01*
G01X409Y3017D02*
X411Y3020D01*
X414Y3022D01*
X417Y3022D01*
X421Y3021D01*
X423Y3019D01*
X424Y3016D01*
X424Y3012D01*
X422Y3010D01*
X415Y3005D01*
X411Y3001D01*
X409Y2996D01*
X408Y2991D01*
X424D01*
G01X446D02*
X447Y2998D01*
X448Y3004D01*
X450Y3009D01*
X452Y3015D01*
X455Y3022D01*
X440D01*
G01X478Y2991D02*
Y3022D01*
X474Y3016D01*
G01Y2991D02*
X483D01*
G01X395Y2825D02*
X392Y2827D01*
X390Y2828D01*
X387D01*
X383Y2826D01*
X380Y2824D01*
X379Y2820D01*
X377Y2815D01*
X377Y2811D01*
X377Y2806D01*
X379Y2803D01*
X381Y2800D01*
X383Y2798D01*
X386Y2797D01*
X389D01*
X392Y2798D01*
X394Y2799D01*
X396Y2801D01*
G01X410Y2823D02*
X412Y2826D01*
X415Y2827D01*
X418Y2828D01*
X422Y2827D01*
X424Y2824D01*
X425Y2821D01*
X425Y2818D01*
X423Y2815D01*
X416Y2810D01*
X412Y2806D01*
X410Y2801D01*
X409Y2797D01*
X425D01*
G01X447D02*
X448Y2803D01*
X449Y2809D01*
X451Y2814D01*
X453Y2820D01*
X456Y2828D01*
X440D01*
G01X484Y2797D02*
Y2828D01*
X470Y2805D01*
X489D01*
G01X394Y2617D02*
X391Y2619D01*
X389Y2620D01*
X386D01*
X382Y2618D01*
X379Y2616D01*
X378Y2612D01*
X376Y2607D01*
X376Y2603D01*
X376Y2598D01*
X378Y2595D01*
X380Y2592D01*
X383Y2590D01*
X385Y2589D01*
X388D01*
X391Y2590D01*
X393Y2591D01*
X395Y2593D01*
G01X409Y2614D02*
X411Y2618D01*
X414Y2619D01*
X417Y2620D01*
X421Y2619D01*
X423Y2616D01*
X424Y2613D01*
X424Y2610D01*
X422Y2607D01*
X415Y2602D01*
X411Y2598D01*
X409Y2593D01*
X408Y2589D01*
X424D01*
G01X446D02*
X447Y2595D01*
X448Y2601D01*
X450Y2606D01*
X452Y2612D01*
X455Y2620D01*
X440D01*
G01X470Y2593D02*
X472Y2591D01*
X475Y2589D01*
X478Y2589D01*
X482Y2590D01*
X484Y2592D01*
X486Y2595D01*
X487Y2600D01*
X486Y2604D01*
X484Y2606D01*
X481Y2608D01*
X479Y2609D01*
X476Y2608D01*
X472Y2606D01*
X474Y2620D01*
X484D01*
G01X336Y2362D02*
X338Y2359D01*
X341Y2357D01*
X343Y2356D01*
X346Y2357D01*
X349Y2359D01*
X351Y2362D01*
X352Y2367D01*
Y2387D01*
G01X380Y2356D02*
Y2387D01*
X366Y2365D01*
X385D01*
G01X399Y2382D02*
X401Y2385D01*
X404Y2387D01*
X407Y2387D01*
X411Y2386D01*
X413Y2384D01*
X414Y2381D01*
X414Y2377D01*
X412Y2375D01*
X405Y2370D01*
X401Y2366D01*
X399Y2361D01*
X398Y2356D01*
X414D01*
G01X372Y3204D02*
X322D01*
Y3254D01*
X372D01*
Y3204D01*
G01X0Y3740D02*
X5906Y3740D01*
Y-1378D01*
X5354D01*
Y-551D01*
G01X608Y3724D02*
X1608D01*
Y3424D01*
X608D01*
Y3724D01*
G01X215Y3728D02*
Y3428D01*
X15D01*
Y3728D01*
X215D01*
G01X48Y3389D02*
X50Y3386D01*
X52Y3384D01*
X55Y3383D01*
X58Y3384D01*
X60Y3386D01*
X62Y3389D01*
X63Y3393D01*
Y3414D01*
G01X91Y3383D02*
Y3414D01*
X77Y3392D01*
X96D01*
G01X109Y3388D02*
X111Y3385D01*
X114Y3383D01*
X117Y3383D01*
X121Y3384D01*
X123Y3386D01*
X125Y3390D01*
X126Y3394D01*
X125Y3398D01*
X123Y3401D01*
X120Y3403D01*
X118Y3403D01*
X115Y3403D01*
X112Y3401D01*
X113Y3414D01*
X123D01*
G01X673Y3387D02*
X675Y3384D01*
X677Y3382D01*
X679Y3381D01*
X683Y3382D01*
X685Y3384D01*
X687Y3387D01*
X688Y3391D01*
Y3412D01*
G01X704Y3406D02*
X706Y3410D01*
X709Y3411D01*
X712Y3412D01*
X716Y3411D01*
X719Y3408D01*
X719Y3405D01*
X719Y3402D01*
X717Y3399D01*
X710Y3394D01*
X706Y3390D01*
X704Y3385D01*
X703Y3381D01*
X719D01*
G01X234Y3526D02*
X274Y3486D01*
Y3566D01*
X234Y3526D01*
G01X1845Y30D02*
Y230D01*
X1495D01*
Y30D01*
X1845D01*
G01X1532Y363D02*
X1932D01*
G01X1557Y391D02*
G03I0J-10D01*
G01X1932Y346D02*
X1532D01*
Y481D01*
X1932D01*
Y346D01*
G01X1220Y630D02*
X1181D01*
Y512D01*
X1220D01*
Y630D01*
G01X1171Y656D02*
X1230D01*
Y821D01*
X1171D01*
Y656D01*
G01X2146Y335D02*
X1949D01*
Y59D01*
X3622D01*
Y1378D01*
X2165D01*
Y335D01*
X2146D01*
G01X1847Y606D02*
X2247D01*
Y1481D01*
X1847D01*
Y606D01*
G01X1294Y711D02*
Y742D01*
X1303D01*
X1307Y741D01*
X1308Y739D01*
X1309Y735D01*
X1308Y730D01*
X1306Y728D01*
X1303Y726D01*
X1294D01*
G01X1303D02*
X1309Y711D01*
G01X1325D02*
Y742D01*
X1334D01*
X1337Y741D01*
X1339Y737D01*
X1340Y733D01*
X1339Y729D01*
X1337Y726D01*
X1334Y724D01*
X1325D01*
G01X1357Y715D02*
X1360Y712D01*
X1363Y711D01*
X1366Y712D01*
X1368Y715D01*
X1370Y720D01*
X1371Y725D01*
Y730D01*
X1370Y735D01*
X1368Y739D01*
X1366Y741D01*
X1363Y742D01*
X1360Y741D01*
X1358Y739D01*
X1357Y736D01*
X1356Y732D01*
X1357Y728D01*
X1358Y725D01*
X1361Y723D01*
X1363Y722D01*
X1367Y723D01*
X1369Y726D01*
X1371Y730D01*
G01X996Y801D02*
X996Y800D01*
X997Y798D01*
X999Y797D01*
X1001Y797D01*
X1004Y797D01*
X1006Y798D01*
X1007Y800D01*
Y802D01*
X1007Y803D01*
X1009Y804D01*
X1011Y805D01*
X1014Y804D01*
X1015Y803D01*
X1016Y801D01*
X1015Y799D01*
X1014Y798D01*
X1011Y797D01*
X1009Y798D01*
X1007Y799D01*
X1007Y800D01*
Y802D01*
X1006Y804D01*
X1004Y805D01*
X1001Y805D01*
X999Y805D01*
X997Y804D01*
X996Y802D01*
X996Y801D01*
G01X998Y773D02*
X997Y772D01*
X996Y770D01*
X997Y768D01*
X999Y767D01*
X1002Y766D01*
X1005Y766D01*
X1008D01*
X1011Y766D01*
X1014Y767D01*
X1015Y768D01*
X1016Y770D01*
X1015Y771D01*
X1014Y772D01*
X1012Y773D01*
X1009Y774D01*
X1007Y773D01*
X1005Y772D01*
X1003Y771D01*
X1003Y770D01*
X1004Y768D01*
X1005Y767D01*
X1008Y766D01*
G01X996Y746D02*
X1016D01*
X1012Y748D01*
G01X996D02*
Y744D01*
G01X1016Y733D02*
X1015Y735D01*
X1014Y736D01*
X1012Y737D01*
X1009Y737D01*
X1006Y737D01*
X1003Y737D01*
X1000Y737D01*
X998Y736D01*
X997Y735D01*
X996Y733D01*
X997Y731D01*
X998Y730D01*
X1000Y729D01*
X1003Y729D01*
X1006Y729D01*
X1009Y729D01*
X1012Y729D01*
X1014Y730D01*
X1015Y731D01*
X1016Y733D01*
G01X996Y714D02*
X1016D01*
X1012Y717D01*
G01X996D02*
Y712D01*
G01Y701D02*
X1016D01*
X1012Y704D01*
G01X996D02*
Y699D01*
G01Y683D02*
X1016D01*
X1012Y685D01*
G01X996D02*
Y681D01*
G01X1013Y674D02*
X1015Y673D01*
X1016Y671D01*
X1016Y670D01*
X1015Y668D01*
X1014Y666D01*
X1012Y666D01*
X1010Y666D01*
X1008Y667D01*
X1005Y671D01*
X1002Y673D01*
X999Y674D01*
X996Y674D01*
Y666D01*
G01Y651D02*
X1016D01*
X1012Y654D01*
G01X996D02*
Y649D01*
G01X1000Y643D02*
X998Y642D01*
X996Y640D01*
X996Y638D01*
X996Y637D01*
X998Y635D01*
X1000Y634D01*
X1002Y634D01*
X1004Y634D01*
X1006Y636D01*
X1007Y637D01*
Y639D01*
G01Y637D02*
X1008Y636D01*
X1009Y635D01*
X1011Y634D01*
X1013Y635D01*
X1015Y636D01*
X1016Y638D01*
X1016Y639D01*
X1014Y641D01*
G01X996Y620D02*
X1016D01*
X1012Y622D01*
G01X996D02*
Y618D01*
G01Y605D02*
X1016D01*
X1002Y612D01*
Y602D01*
G01X996Y588D02*
X1016D01*
X1012Y591D01*
G01X996D02*
Y586D01*
G01X999Y580D02*
X997Y579D01*
X996Y577D01*
X996Y575D01*
X997Y574D01*
X998Y572D01*
X1000Y571D01*
X1003Y571D01*
X1006Y571D01*
X1007Y572D01*
X1009Y574D01*
X1009Y575D01*
X1009Y577D01*
X1007Y578D01*
X1016Y578D01*
Y572D01*
G01X996Y557D02*
X1016D01*
X1012Y559D01*
G01X996D02*
Y555D01*
G01X1004Y548D02*
X1007Y546D01*
X1008Y545D01*
X1009Y544D01*
X1008Y542D01*
X1007Y541D01*
X1005Y540D01*
X1002Y540D01*
X1000Y540D01*
X998Y541D01*
X997Y542D01*
X996Y544D01*
X997Y545D01*
X999Y547D01*
X1002Y548D01*
X1005Y548D01*
X1009Y547D01*
X1012Y547D01*
X1014Y546D01*
X1016Y544D01*
X1016Y543D01*
X1015Y542D01*
X1014Y541D01*
G01X996Y525D02*
X1016D01*
X1012Y528D01*
G01X996D02*
Y523D01*
G01Y513D02*
X1000Y513D01*
X1004Y512D01*
X1007Y511D01*
X1011Y510D01*
X1016Y508D01*
Y517D01*
G01X1998Y456D02*
X1976D01*
X1971Y454D01*
X1968Y451D01*
X1967Y447D01*
X1968Y444D01*
X1971Y441D01*
X1976Y439D01*
X1998D01*
G01X1967Y416D02*
X1998D01*
X1992Y421D01*
G01X1967D02*
Y412D01*
G01X1980Y393D02*
X1983Y390D01*
X1986Y388D01*
X1987Y385D01*
X1986Y382D01*
X1983Y380D01*
X1980Y379D01*
X1977Y378D01*
X1974Y379D01*
X1971Y380D01*
X1968Y382D01*
X1967Y385D01*
X1968Y388D01*
X1971Y391D01*
X1976Y392D01*
X1981Y393D01*
X1988Y392D01*
X1991Y391D01*
X1995Y389D01*
X1997Y386D01*
X1998Y384D01*
X1997Y381D01*
X1994Y379D01*
G01X1295Y554D02*
Y585D01*
X1304D01*
X1307Y584D01*
X1309Y582D01*
X1310Y577D01*
X1309Y573D01*
X1307Y571D01*
X1304Y569D01*
X1295D01*
G01X1304D02*
X1310Y554D01*
G01X1326D02*
Y585D01*
X1335D01*
X1338Y584D01*
X1340Y580D01*
X1341Y576D01*
X1340Y572D01*
X1338Y569D01*
X1335Y567D01*
X1326D01*
G01X1369Y554D02*
Y585D01*
X1355Y563D01*
X1374D01*
G01X1400Y554D02*
Y585D01*
X1386Y563D01*
X1405D01*
G01X1094Y347D02*
Y147D01*
X1444D01*
Y347D01*
X1094D01*
G01X1482Y268D02*
X1484Y265D01*
X1486Y263D01*
X1489Y262D01*
X1492Y263D01*
X1494Y265D01*
X1496Y268D01*
X1497Y272D01*
Y293D01*
G01X1512Y268D02*
X1514Y264D01*
X1517Y262D01*
X1521Y262D01*
X1524Y262D01*
X1527Y265D01*
X1529Y268D01*
X1529Y271D01*
X1529Y275D01*
X1526Y277D01*
X1523Y278D01*
X1520D01*
G01X1523D02*
X1526Y280D01*
X1527Y282D01*
X1528Y285D01*
X1527Y288D01*
X1526Y291D01*
X1522Y293D01*
X1519Y292D01*
X1515Y290D01*
G01X1380Y120D02*
X1340Y80D01*
X1420D01*
X1380Y120D01*
G01X1281Y85D02*
X1283Y82D01*
X1285Y80D01*
X1288Y79D01*
X1291Y80D01*
X1293Y82D01*
X1296Y85D01*
X1296Y89D01*
Y110D01*
G01X1320Y79D02*
Y110D01*
X1315Y104D01*
G01Y79D02*
X1324D01*
G01X1564Y263D02*
X1604Y303D01*
X1524D01*
X1564Y263D01*
G01X1230Y998D02*
X1171D01*
Y833D01*
X1230D01*
Y998D01*
G01X1171Y1010D02*
X1230D01*
Y1175D01*
X1171D01*
Y1010D01*
G01Y1187D02*
X1230D01*
Y1352D01*
X1171D01*
Y1187D01*
G01X1939Y2066D02*
X1722D01*
Y1574D01*
X1939D01*
Y2066D01*
G01X1917Y1603D02*
G03I0J-12D01*
G01X1878Y1449D02*
G03I-8J8D01*
G01X1294Y1242D02*
Y1273D01*
X1303D01*
X1307Y1272D01*
X1308Y1270D01*
X1309Y1265D01*
X1308Y1261D01*
X1306Y1259D01*
X1303Y1257D01*
X1294D01*
G01X1303D02*
X1309Y1242D01*
G01X1325D02*
Y1273D01*
X1334D01*
X1337Y1272D01*
X1339Y1268D01*
X1340Y1264D01*
X1339Y1260D01*
X1337Y1257D01*
X1334Y1255D01*
X1325D01*
G01X1368Y1242D02*
Y1273D01*
X1354Y1251D01*
X1373D01*
G01X1294Y1082D02*
Y1113D01*
X1303D01*
X1307Y1111D01*
X1308Y1109D01*
X1309Y1105D01*
X1308Y1101D01*
X1306Y1098D01*
X1303Y1097D01*
X1294D01*
G01X1303D02*
X1309Y1082D01*
G01X1325D02*
Y1113D01*
X1334D01*
X1337Y1111D01*
X1339Y1108D01*
X1340Y1104D01*
X1339Y1099D01*
X1337Y1096D01*
X1334Y1095D01*
X1325D01*
G01X1356Y1108D02*
X1358Y1111D01*
X1361Y1112D01*
X1364Y1113D01*
X1368Y1112D01*
X1371Y1109D01*
X1372Y1106D01*
X1371Y1103D01*
X1370Y1101D01*
X1362Y1095D01*
X1358Y1092D01*
X1356Y1087D01*
X1355Y1082D01*
X1372D01*
G01X1294Y902D02*
Y933D01*
X1303D01*
X1307Y931D01*
X1308Y929D01*
X1309Y925D01*
X1308Y921D01*
X1306Y918D01*
X1303Y917D01*
X1294D01*
G01X1303D02*
X1309Y902D01*
G01X1325D02*
Y933D01*
X1334D01*
X1337Y931D01*
X1339Y927D01*
X1340Y923D01*
X1339Y919D01*
X1337Y916D01*
X1334Y915D01*
X1325D01*
G01X1355Y908D02*
X1357Y904D01*
X1360Y902D01*
X1364Y902D01*
X1367Y902D01*
X1370Y905D01*
X1372Y908D01*
X1372Y911D01*
X1372Y915D01*
X1369Y917D01*
X1366Y918D01*
X1363D01*
G01X1366D02*
X1368Y920D01*
X1370Y922D01*
X1371Y925D01*
X1370Y928D01*
X1368Y931D01*
X1365Y933D01*
X1362Y932D01*
X1358Y930D01*
G01X933Y1097D02*
X953Y1092D01*
X933Y1087D01*
G01X940Y1089D02*
Y1096D01*
G01X912Y1091D02*
X913Y1090D01*
X915Y1089D01*
X917Y1089D01*
X919Y1089D01*
X921Y1090D01*
X922Y1092D01*
Y1097D01*
X902D01*
Y1090D01*
X903Y1089D01*
X905Y1088D01*
X907Y1088D01*
X910Y1088D01*
X912Y1089D01*
X912Y1091D01*
Y1097D01*
G01X888Y1088D02*
X889Y1089D01*
X890Y1091D01*
Y1092D01*
X889Y1094D01*
X887Y1095D01*
X885Y1096D01*
X882Y1097D01*
X879Y1097D01*
X876Y1097D01*
X874Y1096D01*
X872Y1095D01*
X871Y1094D01*
X870Y1092D01*
Y1091D01*
X871Y1090D01*
X872Y1088D01*
X873Y1087D01*
G01X839Y1097D02*
X859D01*
Y1093D01*
X858Y1091D01*
X856Y1090D01*
X854Y1089D01*
X852Y1088D01*
X849Y1088D01*
X845Y1088D01*
X843Y1089D01*
X841Y1090D01*
X840Y1091D01*
X839Y1093D01*
Y1097D01*
G01X807Y1088D02*
Y1096D01*
X827D01*
Y1088D01*
G01X817Y1092D02*
Y1096D01*
G01X1000Y963D02*
X998Y962D01*
X996Y960D01*
X996Y958D01*
X996Y957D01*
X998Y955D01*
X1000Y954D01*
X1002Y954D01*
X1004Y954D01*
X1006Y956D01*
X1007Y957D01*
Y959D01*
G01Y957D02*
X1008Y956D01*
X1009Y955D01*
X1011Y955D01*
X1013Y955D01*
X1015Y956D01*
X1016Y958D01*
X1016Y960D01*
X1014Y961D01*
G01X996Y925D02*
X1016D01*
X1002Y932D01*
Y922D01*
G01X999Y900D02*
X997Y899D01*
X996Y897D01*
X996Y896D01*
X997Y894D01*
X998Y892D01*
X1000Y891D01*
X1003Y891D01*
X1006Y892D01*
X1007Y893D01*
X1009Y894D01*
X1009Y895D01*
X1009Y897D01*
X1007Y899D01*
X1016Y898D01*
Y893D01*
G01X1004Y868D02*
X1007Y866D01*
X1008Y865D01*
X1009Y864D01*
X1008Y862D01*
X1007Y861D01*
X1005Y860D01*
X1002Y860D01*
X1000Y860D01*
X998Y861D01*
X997Y862D01*
X996Y864D01*
X997Y865D01*
X999Y867D01*
X1002Y868D01*
X1005Y868D01*
X1009Y867D01*
X1012Y867D01*
X1014Y866D01*
X1016Y864D01*
X1016Y863D01*
X1015Y862D01*
X1014Y861D01*
G01X996Y833D02*
X1000Y833D01*
X1004Y832D01*
X1007Y831D01*
X1011Y830D01*
X1016Y829D01*
Y837D01*
G01X996Y1022D02*
X1016D01*
X1012Y1024D01*
G01X996D02*
Y1019D01*
G01X1013Y994D02*
X1015Y993D01*
X1016Y991D01*
X1016Y990D01*
X1015Y988D01*
X1014Y986D01*
X1012Y986D01*
X1010Y986D01*
X1008Y987D01*
X1005Y991D01*
X1002Y993D01*
X999Y994D01*
X996Y994D01*
Y986D01*
G01X1007Y1095D02*
Y1073D01*
X1008Y1068D01*
X1011Y1065D01*
X1015Y1064D01*
X1019Y1065D01*
X1022Y1068D01*
X1024Y1073D01*
Y1095D01*
G01X1046Y1064D02*
Y1095D01*
X1041Y1089D01*
G01Y1064D02*
X1051D01*
G01X1802Y1532D02*
Y1509D01*
X1804Y1505D01*
X1807Y1502D01*
X1811Y1501D01*
X1814Y1502D01*
X1817Y1505D01*
X1819Y1509D01*
Y1532D01*
G01X1842Y1501D02*
Y1532D01*
X1837Y1525D01*
G01Y1501D02*
X1846D01*
G01X1877D02*
Y1532D01*
X1863Y1509D01*
X1882D01*
G01X1905Y1553D02*
Y1530D01*
X1906Y1526D01*
X1909Y1523D01*
X1913Y1522D01*
X1917Y1523D01*
X1920Y1526D01*
X1922Y1530D01*
Y1553D01*
G01X1937Y1548D02*
X1939Y1551D01*
X1942Y1552D01*
X1945Y1553D01*
X1949Y1552D01*
X1951Y1549D01*
X1952Y1546D01*
X1952Y1543D01*
X1950Y1540D01*
X1943Y1535D01*
X1939Y1532D01*
X1937Y1526D01*
X1936Y1522D01*
X1952D01*
G01X1939Y2633D02*
X1722D01*
Y2140D01*
X1939D01*
Y2633D01*
G01X1917Y2170D02*
G03I0J-12D01*
G01X915Y2392D02*
Y2175D01*
X1407D01*
Y2392D01*
X915D01*
G01X1378Y2370D02*
G03I12J0D01*
G01X2189Y3327D02*
X1669D01*
X1653Y3311D01*
Y2791D01*
X1669Y2775D01*
X2189D01*
X2205Y2791D01*
Y3311D01*
X2189Y3327D01*
G01X1479Y2380D02*
X1456D01*
X1452Y2378D01*
X1449Y2375D01*
X1448Y2371D01*
X1449Y2368D01*
X1452Y2365D01*
X1456Y2363D01*
X1479D01*
G01X1454Y2349D02*
X1450Y2347D01*
X1448Y2344D01*
X1448Y2340D01*
X1448Y2337D01*
X1451Y2334D01*
X1454Y2332D01*
X1457Y2332D01*
X1460Y2332D01*
X1463Y2335D01*
X1464Y2338D01*
Y2341D01*
G01Y2338D02*
X1466Y2335D01*
X1468Y2334D01*
X1471Y2333D01*
X1474Y2334D01*
X1477Y2335D01*
X1479Y2339D01*
X1478Y2342D01*
X1476Y2346D01*
G01X1932Y2127D02*
Y2104D01*
X1933Y2100D01*
X1936Y2097D01*
X1940Y2096D01*
X1944Y2097D01*
X1947Y2100D01*
X1949Y2104D01*
Y2127D01*
G01X1976Y2096D02*
Y2127D01*
X1962Y2104D01*
X1981D01*
G01X1573Y3087D02*
Y2811D01*
X1455D01*
Y3087D01*
X1573D01*
G01X1623Y3724D02*
X2423D01*
Y3424D01*
X1623D01*
Y3724D01*
G01X1636Y3376D02*
X1638Y3373D01*
X1640Y3371D01*
X1643Y3370D01*
X1646Y3371D01*
X1649Y3373D01*
X1651Y3376D01*
X1652Y3381D01*
Y3401D01*
G01X1675Y3370D02*
X1678Y3371D01*
X1681Y3372D01*
X1683Y3375D01*
X1683Y3378D01*
X1683Y3382D01*
X1680Y3385D01*
X1677Y3387D01*
X1673D01*
X1671Y3388D01*
X1669Y3390D01*
X1668Y3394D01*
X1669Y3398D01*
X1672Y3400D01*
X1675Y3401D01*
X1678Y3400D01*
X1681Y3398D01*
X1682Y3394D01*
X1681Y3390D01*
X1679Y3388D01*
X1677Y3387D01*
X1673D01*
X1670Y3385D01*
X1667Y3382D01*
X1666Y3378D01*
X1667Y3375D01*
X1669Y3372D01*
X1672Y3371D01*
X1675Y3370D01*
G01X2185Y591D02*
X3602D01*
Y354D01*
X2185D01*
Y591D01*
G01X3602Y98D02*
X2185D01*
Y335D01*
X3602D01*
Y98D01*
G01X2972Y644D02*
X2712D01*
Y944D01*
X2972D01*
Y644D01*
G01D02*
X2712D01*
Y944D01*
X2972D01*
Y644D01*
G01X2867D02*
X2812D01*
Y669D01*
X2867D01*
Y644D01*
G01X2972D02*
X2712D01*
Y944D01*
X2972D01*
Y644D01*
G01X2867D02*
X2812D01*
Y669D01*
X2867D01*
Y644D01*
G01X2120Y460D02*
X2080Y420D01*
X2160D01*
X2120Y460D01*
G01X2441Y1713D02*
X3346D01*
Y2618D01*
X2441D01*
Y1713D01*
G01X2348Y1456D02*
Y1536D01*
X2428D01*
Y1456D01*
X2348D01*
G01X2341Y1588D02*
X2339Y1589D01*
X2336Y1590D01*
X2333D01*
X2330Y1589D01*
X2327Y1586D01*
X2325Y1583D01*
X2324Y1578D01*
X2323Y1573D01*
X2324Y1569D01*
X2325Y1566D01*
X2328Y1563D01*
X2330Y1561D01*
X2333Y1559D01*
X2336D01*
X2338Y1561D01*
X2341Y1562D01*
X2342Y1564D01*
G01X2356Y1590D02*
Y1559D01*
X2372D01*
G01X2386D02*
Y1590D01*
G01X2401D02*
X2386Y1571D01*
G01X2403Y1559D02*
X2393Y1580D01*
G01X2426Y1559D02*
Y1590D01*
X2421Y1584D01*
G01Y1559D02*
X2430D01*
G01X2382Y2004D02*
X2385Y1984D01*
X2388Y2004D01*
X2391Y1984D01*
X2394Y2004D01*
G01X2383Y1921D02*
X2388Y1941D01*
X2393Y1921D01*
G01X2391Y1928D02*
X2385D01*
G01X2396Y1921D02*
X2401Y1941D01*
X2406Y1921D01*
G01X2404Y1928D02*
X2398D01*
G01X2383Y1890D02*
X2388Y1910D01*
X2393Y1890D01*
G01X2391Y1897D02*
X2385D01*
G01X2402Y1900D02*
X2403Y1901D01*
X2404Y1903D01*
X2404Y1905D01*
X2404Y1907D01*
X2403Y1909D01*
X2402Y1910D01*
X2396D01*
Y1890D01*
X2403D01*
X2404Y1891D01*
X2405Y1893D01*
X2405Y1895D01*
X2405Y1898D01*
X2404Y1900D01*
X2402Y1900D01*
X2396D01*
G01X2383Y1858D02*
X2388Y1878D01*
X2393Y1858D01*
G01X2391Y1865D02*
X2385D01*
G01X2405Y1877D02*
X2404Y1878D01*
X2403Y1878D01*
X2401D01*
X2399Y1877D01*
X2398Y1876D01*
X2397Y1874D01*
X2396Y1870D01*
X2396Y1867D01*
X2396Y1864D01*
X2397Y1862D01*
X2398Y1860D01*
X2399Y1859D01*
X2401Y1858D01*
X2402D01*
X2404Y1859D01*
X2405Y1860D01*
X2406Y1861D01*
G01X2383Y1827D02*
X2388Y1847D01*
X2393Y1827D01*
G01X2391Y1834D02*
X2385D01*
G01X2396Y1827D02*
Y1847D01*
X2400D01*
X2402Y1846D01*
X2403Y1844D01*
X2404Y1842D01*
X2405Y1840D01*
X2405Y1837D01*
X2405Y1833D01*
X2404Y1831D01*
X2403Y1829D01*
X2402Y1828D01*
X2400Y1827D01*
X2396D01*
G01X2383Y1795D02*
X2388Y1815D01*
X2393Y1795D01*
G01X2391Y1802D02*
X2385D01*
G01X2405Y1795D02*
X2397D01*
Y1815D01*
X2405D01*
G01X2402Y1806D02*
X2397D01*
G01X2383Y1764D02*
X2388Y1784D01*
X2393Y1764D01*
G01X2391Y1771D02*
X2385D01*
G01X2397Y1764D02*
Y1784D01*
X2405D01*
G01X2402Y1774D02*
X2397D01*
G01X2388Y1953D02*
Y1962D01*
X2384Y1973D01*
G01X2392D02*
X2388Y1962D01*
G01X2169Y2041D02*
X2171Y2043D01*
X2172Y2046D01*
Y2049D01*
X2170Y2052D01*
X2168Y2055D01*
X2165Y2057D01*
X2160Y2059D01*
X2155Y2059D01*
X2150Y2058D01*
X2147Y2057D01*
X2144Y2055D01*
X2142Y2052D01*
X2141Y2049D01*
Y2047D01*
X2142Y2044D01*
X2144Y2042D01*
X2146Y2040D01*
G01X2167Y2026D02*
X2170Y2023D01*
X2171Y2021D01*
X2172Y2018D01*
X2171Y2014D01*
X2168Y2011D01*
X2165Y2010D01*
X2162Y2011D01*
X2160Y2012D01*
X2154Y2020D01*
X2151Y2023D01*
X2146Y2026D01*
X2141Y2026D01*
Y2010D01*
G01Y1988D02*
X2148Y1987D01*
X2153Y1986D01*
X2158Y1985D01*
X2164Y1983D01*
X2172Y1980D01*
Y1995D01*
G01Y1956D02*
X2171Y1959D01*
X2168Y1962D01*
X2165Y1963D01*
X2161Y1964D01*
X2156Y1965D01*
X2152Y1964D01*
X2148Y1963D01*
X2145Y1962D01*
X2142Y1959D01*
X2141Y1956D01*
X2142Y1953D01*
X2145Y1951D01*
X2148Y1949D01*
X2152Y1948D01*
X2156Y1948D01*
X2161Y1948D01*
X2165Y1949D01*
X2168Y1951D01*
X2171Y1953D01*
X2172Y1956D01*
G01X2719Y1006D02*
Y984D01*
X2720Y979D01*
X2723Y976D01*
X2727Y975D01*
X2731Y976D01*
X2734Y979D01*
X2735Y984D01*
Y1006D01*
G01X2758Y975D02*
Y1006D01*
X2753Y1000D01*
G01Y975D02*
X2763D01*
G01X2788D02*
X2789Y982D01*
X2790Y987D01*
X2792Y992D01*
X2794Y998D01*
X2797Y1006D01*
X2781D01*
G01X2297Y2068D02*
X2274D01*
X2270Y2067D01*
X2267Y2063D01*
X2266Y2060D01*
X2267Y2056D01*
X2270Y2053D01*
X2274Y2051D01*
X2297D01*
G01X2266Y2024D02*
X2297D01*
X2274Y2038D01*
Y2019D01*
G01X2292Y2005D02*
X2295Y2003D01*
X2296Y2000D01*
X2297Y1997D01*
X2296Y1993D01*
X2293Y1990D01*
X2290Y1990D01*
X2287Y1990D01*
X2284Y1992D01*
X2279Y1999D01*
X2276Y2003D01*
X2270Y2005D01*
X2266Y2006D01*
Y1990D01*
G01X2331Y2332D02*
Y2092D01*
X2231D01*
Y2332D01*
X2331D01*
G01D02*
Y2092D01*
X2231D01*
Y2332D01*
X2331D01*
G01X2169Y2440D02*
X2099D01*
Y2340D01*
X2119D01*
X2169D01*
G01X2350Y2440D02*
Y2340D01*
X2098D01*
Y2440D01*
X2350D01*
G01D02*
Y2340D01*
X2334D01*
Y2440D01*
X2350D01*
G01X2219Y2261D02*
Y2331D01*
X2119D01*
Y2311D01*
Y2261D01*
G01X2219Y2080D02*
X2119D01*
Y2332D01*
X2219D01*
Y2080D01*
G01D02*
X2119D01*
Y2096D01*
X2219D01*
Y2080D01*
G01X2604Y3130D02*
Y2972D01*
X2907D01*
Y3130D01*
X2604D01*
G01X2978D02*
Y2972D01*
X3281D01*
Y3130D01*
X2978D01*
G01X2405Y3032D02*
X2414Y3002D01*
X2424Y3032D01*
G01X2454Y3030D02*
X2451Y3031D01*
X2449Y3032D01*
X2446D01*
X2442Y3031D01*
X2439Y3028D01*
X2437Y3025D01*
X2436Y3020D01*
X2436Y3015D01*
X2436Y3011D01*
X2437Y3008D01*
X2440Y3005D01*
X2442Y3003D01*
X2445Y3002D01*
X2448D01*
X2451Y3003D01*
X2453Y3004D01*
X2455Y3006D01*
G01X2468Y3032D02*
Y3002D01*
X2484D01*
G01X2499D02*
Y3032D01*
G01X2513D02*
X2499Y3013D01*
G01X2516Y3002D02*
X2505Y3022D01*
G01X2302Y2808D02*
Y2888D01*
X2382D01*
Y2808D01*
X2302D01*
G01Y3054D02*
Y3134D01*
X2382D01*
Y3054D01*
X2302D01*
G01X2303Y2972D02*
Y3052D01*
X2383D01*
Y2972D01*
X2303D01*
G01X2383Y2551D02*
X2388Y2571D01*
X2393Y2551D01*
G01X2391Y2558D02*
X2385D01*
G01X2389Y2530D02*
X2390Y2531D01*
X2391Y2533D01*
X2391Y2535D01*
X2391Y2537D01*
X2390Y2539D01*
X2389Y2540D01*
X2383D01*
Y2520D01*
X2390D01*
X2391Y2521D01*
X2392Y2523D01*
X2393Y2525D01*
X2392Y2528D01*
X2391Y2530D01*
X2389Y2530D01*
X2383D01*
G01X2392Y2507D02*
X2391Y2508D01*
X2390Y2508D01*
X2388D01*
X2386Y2507D01*
X2385Y2506D01*
X2384Y2504D01*
X2383Y2500D01*
X2383Y2497D01*
X2383Y2494D01*
X2384Y2492D01*
X2385Y2490D01*
X2386Y2489D01*
X2388Y2488D01*
X2389D01*
X2391Y2489D01*
X2392Y2490D01*
X2393Y2491D01*
G01X2383Y2457D02*
Y2477D01*
X2387D01*
X2389Y2476D01*
X2390Y2474D01*
X2391Y2472D01*
X2392Y2470D01*
X2392Y2467D01*
X2392Y2463D01*
X2391Y2461D01*
X2390Y2459D01*
X2389Y2458D01*
X2387Y2457D01*
X2383D01*
G01X2392Y2425D02*
X2384D01*
Y2445D01*
X2392D01*
G01X2389Y2436D02*
X2384D01*
G01X2384Y2394D02*
Y2414D01*
X2392D01*
G01X2389Y2404D02*
X2384D01*
G01X2389Y2372D02*
X2393D01*
Y2366D01*
X2392Y2364D01*
X2390Y2363D01*
X2388Y2362D01*
X2386Y2363D01*
X2385Y2364D01*
X2384Y2366D01*
X2383Y2369D01*
X2383Y2371D01*
Y2374D01*
X2383Y2376D01*
X2384Y2378D01*
X2385Y2380D01*
X2386Y2381D01*
X2388Y2382D01*
X2389D01*
X2391Y2382D01*
X2392Y2380D01*
G01X2384Y2331D02*
Y2351D01*
G01X2392D02*
Y2331D01*
G01Y2341D02*
X2384D01*
G01X2384Y2303D02*
X2385Y2301D01*
X2386Y2300D01*
X2387Y2299D01*
X2389Y2300D01*
X2390Y2301D01*
X2392Y2303D01*
X2392Y2306D01*
Y2319D01*
G01X2383Y2268D02*
Y2288D01*
G01X2391D02*
X2383Y2275D01*
G01X2392Y2268D02*
X2387Y2281D01*
G01X2384Y2256D02*
Y2236D01*
X2392D01*
G01X2383Y2205D02*
Y2225D01*
X2388Y2208D01*
X2393Y2225D01*
Y2205D01*
G01X2383Y2173D02*
Y2193D01*
X2393Y2173D01*
Y2193D01*
G01X2384Y2142D02*
Y2162D01*
X2389D01*
X2390Y2161D01*
X2392Y2158D01*
X2392Y2156D01*
X2392Y2153D01*
X2390Y2151D01*
X2389Y2150D01*
X2384D01*
G01Y2110D02*
Y2130D01*
X2389D01*
X2390Y2129D01*
X2392Y2128D01*
X2392Y2125D01*
X2392Y2123D01*
X2390Y2121D01*
X2389Y2120D01*
X2384D01*
G01X2389D02*
X2392Y2110D01*
G01X2388Y2099D02*
Y2079D01*
G01X2383Y2099D02*
X2393D01*
G01X2383Y2067D02*
Y2053D01*
X2384Y2050D01*
X2386Y2048D01*
X2388Y2047D01*
X2390Y2048D01*
X2392Y2050D01*
X2392Y2053D01*
Y2067D01*
G01X2383Y2036D02*
X2388Y2016D01*
X2393Y2036D01*
G01X2498Y2661D02*
Y2681D01*
X2496Y2677D01*
G01Y2661D02*
X2501D01*
G01X2526Y2678D02*
X2527Y2680D01*
X2528Y2681D01*
X2530Y2681D01*
X2532Y2681D01*
X2533Y2679D01*
X2534Y2677D01*
X2534Y2675D01*
X2533Y2673D01*
X2529Y2670D01*
X2527Y2668D01*
X2526Y2664D01*
X2525Y2661D01*
X2534D01*
G01X2557Y2665D02*
X2558Y2663D01*
X2560Y2662D01*
X2561Y2661D01*
X2563Y2662D01*
X2565Y2663D01*
X2566Y2665D01*
X2566Y2667D01*
X2565Y2670D01*
X2564Y2671D01*
X2563Y2672D01*
X2561D01*
G01X2563D02*
X2564Y2673D01*
X2565Y2675D01*
X2565Y2677D01*
X2565Y2679D01*
X2564Y2680D01*
X2562Y2681D01*
X2560Y2681D01*
X2558Y2680D01*
G01X2595Y2661D02*
Y2681D01*
X2588Y2667D01*
X2598D01*
G01X2620Y2664D02*
X2621Y2663D01*
X2622Y2662D01*
X2624Y2661D01*
X2626Y2662D01*
X2627Y2663D01*
X2628Y2666D01*
X2629Y2668D01*
X2628Y2671D01*
X2627Y2673D01*
X2626Y2674D01*
X2624Y2674D01*
X2623Y2674D01*
X2621Y2673D01*
X2622Y2681D01*
X2627D01*
G01X2652Y2670D02*
X2653Y2672D01*
X2654Y2673D01*
X2656Y2674D01*
X2657Y2673D01*
X2658Y2672D01*
X2659Y2670D01*
X2659Y2668D01*
X2659Y2666D01*
X2658Y2664D01*
X2657Y2662D01*
X2656Y2661D01*
X2654Y2662D01*
X2653Y2664D01*
X2652Y2667D01*
X2652Y2670D01*
X2652Y2675D01*
X2653Y2677D01*
X2654Y2679D01*
X2655Y2681D01*
X2657Y2681D01*
X2658Y2681D01*
X2659Y2679D01*
G01X2687Y2661D02*
X2687Y2666D01*
X2688Y2669D01*
X2689Y2673D01*
X2690Y2676D01*
X2691Y2681D01*
X2683D01*
G01X2719Y2661D02*
X2720Y2662D01*
X2722Y2663D01*
X2723Y2664D01*
X2723Y2667D01*
X2723Y2669D01*
X2721Y2671D01*
X2720Y2672D01*
X2718D01*
X2716Y2673D01*
X2715Y2674D01*
X2715Y2677D01*
X2716Y2679D01*
X2717Y2681D01*
X2719Y2681D01*
X2720Y2681D01*
X2722Y2679D01*
X2722Y2677D01*
X2722Y2674D01*
X2721Y2673D01*
X2720Y2672D01*
X2718D01*
X2716Y2671D01*
X2715Y2669D01*
X2714Y2667D01*
X2715Y2664D01*
X2716Y2663D01*
X2717Y2662D01*
X2719Y2661D01*
G01X2747Y2664D02*
X2748Y2662D01*
X2750Y2661D01*
X2751Y2662D01*
X2753Y2664D01*
X2754Y2667D01*
X2754Y2670D01*
Y2674D01*
X2754Y2677D01*
X2753Y2679D01*
X2751Y2681D01*
X2750Y2681D01*
X2748Y2681D01*
X2747Y2679D01*
X2746Y2677D01*
X2746Y2675D01*
X2746Y2672D01*
X2747Y2670D01*
X2749Y2669D01*
X2750Y2668D01*
X2752Y2669D01*
X2753Y2671D01*
X2754Y2674D01*
G01X2774Y2661D02*
Y2681D01*
X2771Y2677D01*
G01Y2661D02*
X2776D01*
G01X2787Y2681D02*
X2785Y2681D01*
X2784Y2679D01*
X2783Y2677D01*
X2783Y2674D01*
X2782Y2671D01*
X2783Y2668D01*
X2783Y2666D01*
X2784Y2664D01*
X2785Y2662D01*
X2787Y2661D01*
X2788Y2662D01*
X2790Y2664D01*
X2790Y2666D01*
X2791Y2668D01*
X2791Y2671D01*
X2791Y2674D01*
X2790Y2677D01*
X2790Y2679D01*
X2788Y2681D01*
X2787Y2681D01*
G01X2805Y2661D02*
Y2681D01*
X2803Y2677D01*
G01Y2661D02*
X2808D01*
G01X2818D02*
Y2681D01*
X2816Y2677D01*
G01Y2661D02*
X2821D01*
G01X2837D02*
Y2681D01*
X2834Y2677D01*
G01Y2661D02*
X2839D01*
G01X2846Y2678D02*
X2847Y2680D01*
X2849Y2681D01*
X2850Y2681D01*
X2852Y2681D01*
X2854Y2679D01*
X2854Y2677D01*
X2854Y2675D01*
X2853Y2673D01*
X2849Y2670D01*
X2847Y2668D01*
X2846Y2664D01*
X2846Y2661D01*
X2854D01*
G01X2868D02*
Y2681D01*
X2866Y2677D01*
G01Y2661D02*
X2871D01*
G01X2877Y2665D02*
X2878Y2663D01*
X2880Y2662D01*
X2881Y2661D01*
X2883Y2662D01*
X2885Y2663D01*
X2886Y2665D01*
X2886Y2667D01*
X2885Y2670D01*
X2884Y2671D01*
X2883Y2672D01*
X2881D01*
G01X2883D02*
X2884Y2673D01*
X2885Y2675D01*
X2885Y2677D01*
X2885Y2679D01*
X2884Y2680D01*
X2882Y2681D01*
X2880Y2681D01*
X2878Y2680D01*
G01X2900Y2661D02*
Y2681D01*
X2897Y2677D01*
G01Y2661D02*
X2902D01*
G01X2915D02*
Y2681D01*
X2908Y2667D01*
X2918D01*
G01X2931Y2661D02*
Y2681D01*
X2929Y2677D01*
G01Y2661D02*
X2934D01*
G01X2940Y2664D02*
X2941Y2663D01*
X2942Y2662D01*
X2944Y2661D01*
X2946Y2662D01*
X2947Y2663D01*
X2948Y2666D01*
X2949Y2668D01*
X2948Y2671D01*
X2947Y2673D01*
X2946Y2674D01*
X2944Y2674D01*
X2943Y2674D01*
X2941Y2673D01*
X2942Y2681D01*
X2947D01*
G01X2963Y2661D02*
Y2681D01*
X2960Y2677D01*
G01Y2661D02*
X2965D01*
G01X2972Y2670D02*
X2973Y2672D01*
X2974Y2673D01*
X2976Y2674D01*
X2977Y2673D01*
X2978Y2672D01*
X2979Y2670D01*
X2979Y2668D01*
X2979Y2666D01*
X2978Y2664D01*
X2977Y2662D01*
X2976Y2661D01*
X2974Y2662D01*
X2973Y2664D01*
X2972Y2667D01*
X2972Y2670D01*
X2972Y2675D01*
X2973Y2677D01*
X2974Y2679D01*
X2975Y2681D01*
X2977Y2681D01*
X2978Y2681D01*
X2979Y2679D01*
G01X2994Y2661D02*
Y2681D01*
X2992Y2677D01*
G01Y2661D02*
X2997D01*
G01X3007D02*
X3007Y2666D01*
X3008Y2669D01*
X3009Y2673D01*
X3010Y2676D01*
X3011Y2681D01*
X3003D01*
G01X3026Y2661D02*
Y2681D01*
X3023Y2677D01*
G01Y2661D02*
X3028D01*
G01X3039D02*
X3040Y2662D01*
X3042Y2663D01*
X3043Y2664D01*
X3043Y2667D01*
X3043Y2669D01*
X3041Y2671D01*
X3040Y2672D01*
X3038D01*
X3036Y2673D01*
X3035Y2674D01*
X3035Y2677D01*
X3036Y2679D01*
X3037Y2681D01*
X3039Y2681D01*
X3040Y2681D01*
X3042Y2679D01*
X3042Y2677D01*
X3042Y2674D01*
X3041Y2673D01*
X3040Y2672D01*
X3038D01*
X3036Y2671D01*
X3035Y2669D01*
X3034Y2667D01*
X3035Y2664D01*
X3036Y2663D01*
X3037Y2662D01*
X3039Y2661D01*
G01X3057D02*
Y2681D01*
X3055Y2677D01*
G01Y2661D02*
X3060D01*
G01X3067Y2664D02*
X3068Y2662D01*
X3070Y2661D01*
X3071Y2662D01*
X3073Y2664D01*
X3074Y2667D01*
X3074Y2670D01*
Y2674D01*
X3074Y2677D01*
X3073Y2679D01*
X3072Y2681D01*
X3070Y2681D01*
X3069Y2681D01*
X3067Y2679D01*
X3067Y2677D01*
X3066Y2675D01*
X3067Y2672D01*
X3068Y2670D01*
X3069Y2669D01*
X3070Y2668D01*
X3072Y2669D01*
X3073Y2671D01*
X3074Y2674D01*
G01X3085Y2678D02*
X3086Y2680D01*
X3087Y2681D01*
X3089Y2681D01*
X3091Y2681D01*
X3092Y2679D01*
X3093Y2677D01*
X3093Y2675D01*
X3092Y2673D01*
X3088Y2670D01*
X3086Y2668D01*
X3085Y2664D01*
X3084Y2661D01*
X3093D01*
G01X3102Y2681D02*
X3100Y2681D01*
X3099Y2679D01*
X3098Y2677D01*
X3097Y2674D01*
X3097Y2671D01*
X3097Y2668D01*
X3098Y2666D01*
X3099Y2664D01*
X3100Y2662D01*
X3102Y2661D01*
X3103Y2662D01*
X3104Y2664D01*
X3105Y2666D01*
X3106Y2668D01*
X3106Y2671D01*
X3106Y2674D01*
X3105Y2677D01*
X3104Y2679D01*
X3103Y2681D01*
X3102Y2681D01*
G01X3148Y2678D02*
X3149Y2680D01*
X3150Y2681D01*
X3152Y2681D01*
X3154Y2681D01*
X3155Y2679D01*
X3156Y2677D01*
X3156Y2675D01*
X3155Y2673D01*
X3151Y2670D01*
X3149Y2668D01*
X3148Y2664D01*
X3147Y2661D01*
X3156D01*
G01X3161Y2678D02*
X3162Y2680D01*
X3163Y2681D01*
X3165Y2681D01*
X3167Y2681D01*
X3168Y2679D01*
X3169Y2677D01*
X3169Y2675D01*
X3168Y2673D01*
X3164Y2670D01*
X3162Y2668D01*
X3161Y2664D01*
X3160Y2661D01*
X3169D01*
G01X3179Y2678D02*
X3181Y2680D01*
X3182Y2681D01*
X3184Y2681D01*
X3186Y2681D01*
X3187Y2679D01*
X3187Y2677D01*
X3187Y2675D01*
X3186Y2673D01*
X3182Y2670D01*
X3181Y2668D01*
X3179Y2664D01*
X3179Y2661D01*
X3187D01*
G01X3192Y2665D02*
X3193Y2663D01*
X3195Y2662D01*
X3196Y2661D01*
X3198Y2662D01*
X3200Y2663D01*
X3201Y2665D01*
X3201Y2667D01*
X3200Y2670D01*
X3199Y2671D01*
X3198Y2672D01*
X3196D01*
G01X3198D02*
X3199Y2673D01*
X3200Y2675D01*
X3200Y2677D01*
X3200Y2679D01*
X3199Y2680D01*
X3197Y2681D01*
X3195Y2681D01*
X3193Y2680D01*
G01X3116Y2678D02*
X3118Y2680D01*
X3119Y2681D01*
X3121Y2681D01*
X3123Y2681D01*
X3124Y2679D01*
X3124Y2677D01*
X3124Y2675D01*
X3123Y2673D01*
X3119Y2670D01*
X3118Y2668D01*
X3116Y2664D01*
X3116Y2661D01*
X3124D01*
G01X3133D02*
Y2681D01*
X3131Y2677D01*
G01Y2661D02*
X3136D01*
G01X2175Y2502D02*
X2172Y2504D01*
X2170Y2505D01*
X2167D01*
X2163Y2503D01*
X2160Y2500D01*
X2159Y2497D01*
X2157Y2492D01*
X2157Y2488D01*
X2157Y2483D01*
X2159Y2480D01*
X2161Y2477D01*
X2164Y2475D01*
X2166Y2474D01*
X2169D01*
X2172Y2475D01*
X2174Y2476D01*
X2176Y2478D01*
G01X2197Y2474D02*
Y2505D01*
X2193Y2498D01*
G01Y2474D02*
X2202D01*
G01X2221Y2486D02*
X2224Y2490D01*
X2226Y2492D01*
X2229Y2493D01*
X2232Y2492D01*
X2234Y2490D01*
X2235Y2487D01*
X2235Y2483D01*
X2235Y2480D01*
X2234Y2477D01*
X2231Y2475D01*
X2229Y2474D01*
X2225Y2475D01*
X2223Y2478D01*
X2221Y2482D01*
X2221Y2488D01*
X2222Y2494D01*
X2223Y2498D01*
X2225Y2501D01*
X2227Y2504D01*
X2230Y2505D01*
X2233Y2504D01*
X2235Y2501D01*
G01X2253Y2477D02*
X2255Y2475D01*
X2258Y2474D01*
X2261Y2475D01*
X2264Y2478D01*
X2266Y2482D01*
X2267Y2487D01*
Y2493D01*
X2266Y2497D01*
X2264Y2501D01*
X2262Y2504D01*
X2259Y2505D01*
X2256Y2504D01*
X2254Y2501D01*
X2252Y2498D01*
X2251Y2494D01*
X2252Y2491D01*
X2254Y2487D01*
X2256Y2485D01*
X2259Y2484D01*
X2262Y2485D01*
X2265Y2488D01*
X2267Y2493D01*
G01X2337Y2663D02*
Y2641D01*
X2339Y2636D01*
X2342Y2633D01*
X2345Y2632D01*
X2349Y2633D01*
X2352Y2636D01*
X2354Y2641D01*
Y2663D01*
G01X2376Y2632D02*
Y2663D01*
X2372Y2657D01*
G01Y2632D02*
X2381D01*
G01X2407D02*
X2410Y2633D01*
X2413Y2634D01*
X2415Y2637D01*
X2416Y2640D01*
X2415Y2644D01*
X2413Y2647D01*
X2409Y2649D01*
X2406D01*
X2403Y2650D01*
X2401Y2652D01*
X2401Y2656D01*
X2402Y2660D01*
X2404Y2662D01*
X2407Y2663D01*
X2410Y2662D01*
X2413Y2660D01*
X2414Y2656D01*
X2414Y2652D01*
X2412Y2650D01*
X2409Y2649D01*
X2406D01*
X2402Y2647D01*
X2400Y2644D01*
X2399Y2640D01*
X2400Y2637D01*
X2402Y2634D01*
X2405Y2633D01*
X2407Y2632D01*
G01X2419Y2945D02*
X2416Y2946D01*
X2414Y2947D01*
X2411D01*
X2407Y2946D01*
X2404Y2943D01*
X2402Y2940D01*
X2401Y2935D01*
X2401Y2930D01*
X2401Y2926D01*
X2402Y2922D01*
X2405Y2919D01*
X2407Y2917D01*
X2410Y2916D01*
X2413D01*
X2416Y2917D01*
X2418Y2919D01*
X2420Y2921D01*
G01X2433Y2947D02*
Y2916D01*
X2449D01*
G01X2464D02*
Y2947D01*
G01X2478D02*
X2464Y2928D01*
G01X2481Y2916D02*
X2470Y2937D01*
G01X2503Y2916D02*
X2500Y2917D01*
X2497Y2919D01*
X2495Y2922D01*
X2494Y2926D01*
X2493Y2930D01*
Y2934D01*
X2494Y2938D01*
X2495Y2942D01*
X2497Y2945D01*
X2500Y2947D01*
X2503Y2947D01*
X2506Y2947D01*
X2509Y2945D01*
X2511Y2942D01*
X2513Y2938D01*
X2513Y2934D01*
Y2930D01*
X2513Y2926D01*
X2511Y2922D01*
X2509Y2919D01*
X2506Y2917D01*
X2503Y2916D01*
G01X2526Y2947D02*
Y2925D01*
X2527Y2920D01*
X2530Y2917D01*
X2534Y2916D01*
X2538Y2917D01*
X2541Y2920D01*
X2542Y2925D01*
Y2947D01*
G01X2565D02*
Y2916D01*
G01X2556Y2947D02*
X2574D01*
G01X2589Y2942D02*
X2591Y2945D01*
X2594Y2947D01*
X2597Y2947D01*
X2601Y2946D01*
X2603Y2944D01*
X2604Y2941D01*
X2604Y2937D01*
X2602Y2935D01*
X2594Y2930D01*
X2591Y2926D01*
X2589Y2921D01*
X2588Y2916D01*
X2604D01*
G01X2416Y3106D02*
X2414Y3107D01*
X2411Y3108D01*
X2408D01*
X2405Y3107D01*
X2402Y3104D01*
X2400Y3101D01*
X2398Y3096D01*
X2398Y3091D01*
X2399Y3087D01*
X2400Y3084D01*
X2402Y3081D01*
X2405Y3078D01*
X2408Y3077D01*
X2410D01*
X2413Y3078D01*
X2415Y3080D01*
X2417Y3082D01*
G01X2431Y3108D02*
Y3077D01*
X2446D01*
G01X2461D02*
Y3108D01*
G01X2476D02*
X2461Y3089D01*
G01X2478Y3077D02*
X2468Y3098D01*
G01X2501Y3077D02*
X2497Y3078D01*
X2495Y3080D01*
X2492Y3083D01*
X2491Y3087D01*
X2490Y3091D01*
Y3095D01*
X2491Y3099D01*
X2492Y3103D01*
X2495Y3106D01*
X2497Y3108D01*
X2501Y3108D01*
X2504Y3108D01*
X2506Y3106D01*
X2509Y3103D01*
X2510Y3099D01*
X2511Y3095D01*
Y3091D01*
X2510Y3087D01*
X2509Y3083D01*
X2506Y3080D01*
X2504Y3078D01*
X2501Y3077D01*
G01X2523Y3108D02*
Y3086D01*
X2525Y3082D01*
X2528Y3078D01*
X2532Y3077D01*
X2535Y3078D01*
X2538Y3082D01*
X2540Y3086D01*
Y3108D01*
G01X2562D02*
Y3077D01*
G01X2554Y3108D02*
X2571D01*
G01X2593Y3077D02*
Y3108D01*
X2589Y3102D01*
G01Y3077D02*
X2598D01*
G01X2960Y3093D02*
X2938D01*
X2933Y3091D01*
X2930Y3088D01*
X2929Y3084D01*
X2930Y3080D01*
X2933Y3077D01*
X2938Y3076D01*
X2960D01*
G01X2935Y3062D02*
X2932Y3059D01*
X2930Y3056D01*
X2929Y3053D01*
X2930Y3050D01*
X2932Y3047D01*
X2935Y3045D01*
X2938Y3044D01*
X2942Y3045D01*
X2945Y3048D01*
X2946Y3051D01*
Y3054D01*
G01Y3051D02*
X2947Y3048D01*
X2950Y3046D01*
X2953Y3046D01*
X2956Y3046D01*
X2958Y3048D01*
X2960Y3052D01*
X2959Y3055D01*
X2957Y3059D01*
G01X2935Y3031D02*
X2932Y3028D01*
X2930Y3025D01*
X2929Y3022D01*
X2930Y3019D01*
X2932Y3016D01*
X2935Y3014D01*
X2938Y3013D01*
X2942Y3014D01*
X2945Y3017D01*
X2946Y3020D01*
Y3023D01*
G01Y3020D02*
X2947Y3017D01*
X2950Y3015D01*
X2953Y3015D01*
X2956Y3015D01*
X2958Y3017D01*
X2960Y3021D01*
X2959Y3024D01*
X2957Y3028D01*
G01X2404Y2831D02*
Y2851D01*
G01Y2846D02*
X2405Y2849D01*
X2408Y2851D01*
X2411Y2851D01*
X2414Y2851D01*
X2416Y2849D01*
X2417Y2845D01*
Y2831D01*
G01X2434D02*
Y2861D01*
X2443D01*
X2446Y2860D01*
X2448Y2858D01*
X2449Y2854D01*
X2448Y2850D01*
X2446Y2847D01*
X2443Y2845D01*
X2434D01*
G01X2443D02*
X2449Y2831D01*
G01X2464Y2835D02*
X2467Y2832D01*
X2471Y2831D01*
X2474D01*
X2477Y2832D01*
X2479Y2835D01*
X2480Y2838D01*
X2480Y2842D01*
X2478Y2845D01*
X2474Y2847D01*
X2470Y2848D01*
X2467Y2850D01*
X2466Y2854D01*
X2467Y2857D01*
X2469Y2860D01*
X2471Y2861D01*
X2474D01*
X2477Y2860D01*
X2479Y2858D01*
G01X2503Y2861D02*
Y2831D01*
G01X2495Y2861D02*
X2512D01*
G01X2527Y2856D02*
X2529Y2859D01*
X2532Y2861D01*
X2535Y2861D01*
X2539Y2860D01*
X2542Y2858D01*
X2542Y2855D01*
X2542Y2852D01*
X2540Y2849D01*
X2533Y2844D01*
X2529Y2840D01*
X2527Y2835D01*
X2526Y2831D01*
X2542D01*
G01X3877Y3373D02*
X2460D01*
Y3609D01*
X3877D01*
Y3373D01*
G01X2173Y3270D02*
G03I0J25D01*
G01X2274Y3364D02*
Y3342D01*
X2275Y3337D01*
X2278Y3334D01*
X2282Y3333D01*
X2286Y3334D01*
X2289Y3337D01*
X2290Y3342D01*
Y3364D01*
G01X2305Y3338D02*
X2307Y3335D01*
X2310Y3334D01*
X2313Y3333D01*
X2316Y3334D01*
X2319Y3336D01*
X2321Y3340D01*
X2321Y3344D01*
X2321Y3348D01*
X2319Y3351D01*
X2316Y3353D01*
X2313Y3353D01*
X2311Y3353D01*
X2307Y3351D01*
X2308Y3364D01*
X2319D01*
G01X2463Y3317D02*
X2465Y3314D01*
X2467Y3312D01*
X2470Y3311D01*
X2473Y3312D01*
X2475Y3314D01*
X2478Y3317D01*
X2478Y3322D01*
Y3342D01*
G01X2502Y3311D02*
Y3342D01*
X2497Y3336D01*
G01Y3311D02*
X2506D01*
G01X2537D02*
Y3342D01*
X2523Y3320D01*
X2542D01*
G01X3106Y3637D02*
X3075D01*
Y3700D01*
X3106D01*
G01X3093Y3669D02*
X3075D01*
G01X3133Y3637D02*
Y3700D01*
X3153Y3647D01*
X3174Y3700D01*
Y3637D01*
G01X3222Y3670D02*
X3226Y3673D01*
X3228Y3679D01*
X3229Y3686D01*
X3228Y3692D01*
X3225Y3696D01*
X3219Y3700D01*
X3198D01*
Y3637D01*
X3224D01*
X3229Y3641D01*
X3233Y3647D01*
X3234Y3654D01*
X3233Y3662D01*
X3228Y3668D01*
X3222Y3670D01*
X3198D01*
G01X3279Y3700D02*
X3273Y3698D01*
X3268Y3692D01*
X3265Y3686D01*
X3263Y3678D01*
X3262Y3668D01*
X3263Y3659D01*
X3265Y3650D01*
X3268Y3644D01*
X3273Y3639D01*
X3279Y3637D01*
X3285Y3639D01*
X3290Y3644D01*
X3293Y3650D01*
X3296Y3659D01*
X3296Y3668D01*
X3296Y3678D01*
X3293Y3686D01*
X3290Y3692D01*
X3285Y3698D01*
X3279Y3700D01*
G01X3342D02*
X3336Y3698D01*
X3331Y3692D01*
X3328Y3686D01*
X3326Y3678D01*
X3325Y3668D01*
X3326Y3659D01*
X3328Y3650D01*
X3331Y3644D01*
X3336Y3639D01*
X3342Y3637D01*
X3348Y3639D01*
X3353Y3644D01*
X3356Y3650D01*
X3359Y3659D01*
X3359Y3668D01*
X3359Y3678D01*
X3356Y3686D01*
X3353Y3692D01*
X3348Y3698D01*
X3342Y3700D01*
G01X3405Y3637D02*
Y3700D01*
X3396Y3687D01*
G01Y3637D02*
X3415D01*
G01X3458Y3658D02*
X3478D01*
G01X3512Y3700D02*
X3531Y3637D01*
X3551Y3700D01*
G01X3577Y3649D02*
X3582Y3642D01*
X3588Y3638D01*
X3595Y3637D01*
X3601Y3638D01*
X3607Y3643D01*
X3611Y3649D01*
X3612Y3656D01*
X3611Y3663D01*
X3605Y3668D01*
X3600Y3670D01*
X3593D01*
G01X3600D02*
X3604Y3673D01*
X3608Y3679D01*
X3610Y3685D01*
X3608Y3691D01*
X3604Y3696D01*
X3597Y3700D01*
X3590Y3699D01*
X3583Y3694D01*
G01X4248Y-463D02*
X4318D01*
Y-363D01*
X4298D01*
X4248D01*
G01X4067Y-463D02*
Y-363D01*
X4319D01*
Y-463D01*
X4067D01*
G01D02*
Y-363D01*
X4083D01*
Y-463D01*
X4067D01*
G01X3681Y-492D02*
Y295D01*
X4980D01*
Y-492D01*
X3681D01*
G01X3984Y-405D02*
X3981Y-403D01*
X3979Y-402D01*
X3976D01*
X3972Y-404D01*
X3970Y-406D01*
X3968Y-409D01*
X3966Y-415D01*
X3966Y-419D01*
X3967Y-424D01*
X3968Y-427D01*
X3970Y-430D01*
X3973Y-432D01*
X3975Y-433D01*
X3978D01*
X3981Y-432D01*
X3983Y-431D01*
X3985Y-428D01*
G01X4006Y-433D02*
X4009Y-433D01*
X4012Y-431D01*
X4014Y-428D01*
X4015Y-425D01*
X4014Y-421D01*
X4012Y-418D01*
X4008Y-417D01*
X4004D01*
X4002Y-416D01*
X4000Y-413D01*
X3999Y-409D01*
X4001Y-406D01*
X4003Y-403D01*
X4006Y-402D01*
X4009Y-403D01*
X4012Y-406D01*
X4013Y-409D01*
X4012Y-413D01*
X4011Y-416D01*
X4008Y-417D01*
X4004D01*
X4001Y-418D01*
X3999Y-421D01*
X3998Y-425D01*
X3999Y-428D01*
X4001Y-431D01*
X4004Y-433D01*
X4006Y-433D01*
G01X4037Y-402D02*
X4034Y-403D01*
X4032Y-406D01*
X4030Y-409D01*
X4029Y-413D01*
X4029Y-418D01*
X4029Y-422D01*
X4030Y-426D01*
X4032Y-429D01*
X4034Y-432D01*
X4037Y-433D01*
X4040Y-432D01*
X4043Y-429D01*
X4044Y-426D01*
X4045Y-422D01*
X4046Y-418D01*
X4045Y-413D01*
X4044Y-409D01*
X4043Y-406D01*
X4040Y-403D01*
X4037Y-402D01*
G01X4138Y-127D02*
X4068D01*
Y-227D01*
X4088D01*
X4138D01*
G01X4319Y-127D02*
Y-227D01*
X4067D01*
Y-127D01*
X4319D01*
G01D02*
Y-227D01*
X4303D01*
Y-127D01*
X4319D01*
G01X4138Y-245D02*
X4068D01*
Y-345D01*
X4088D01*
X4138D01*
G01X4319Y-245D02*
Y-345D01*
X4067D01*
Y-245D01*
X4319D01*
G01D02*
Y-345D01*
X4303D01*
Y-245D01*
X4319D01*
G01X4138Y-9D02*
X4068D01*
Y-109D01*
X4088D01*
X4138D01*
G01X4319Y-9D02*
Y-109D01*
X4067D01*
Y-9D01*
X4319D01*
G01D02*
Y-109D01*
X4303D01*
Y-9D01*
X4319D01*
G01X4248Y9D02*
X4318D01*
Y109D01*
X4298D01*
X4248D01*
G01X4067Y9D02*
Y109D01*
X4319D01*
Y9D01*
X4067D01*
G01D02*
Y109D01*
X4083D01*
Y9D01*
X4067D01*
G01X4736Y-267D02*
Y-58D01*
X4334D01*
Y-267D01*
X4736D01*
G01X4358Y-238D02*
G03I-4J-8D01*
G01X3993Y144D02*
Y294D01*
X4393D01*
Y144D01*
X3993D01*
G01X4079Y318D02*
Y332D01*
X4072Y349D01*
G01X4087D02*
X4079Y332D01*
G01X4110Y318D02*
Y349D01*
X4106Y343D01*
G01Y318D02*
X4115D01*
G01X3834Y433D02*
X4354D01*
X4370Y449D01*
Y969D01*
X4354Y985D01*
X3834D01*
X3818Y969D01*
Y449D01*
X3834Y433D01*
G01X3850Y490D02*
G03I0J-25D01*
G01X3939Y270D02*
Y-230D01*
X3739D01*
Y270D01*
X3939D01*
G01X3991Y-283D02*
X3989Y-282D01*
X3986Y-281D01*
X3983D01*
X3980Y-282D01*
X3977Y-285D01*
X3975Y-288D01*
X3974Y-293D01*
X3973Y-298D01*
X3974Y-302D01*
X3975Y-305D01*
X3978Y-308D01*
X3980Y-311D01*
X3983Y-312D01*
X3986D01*
X3988Y-311D01*
X3991Y-309D01*
X3993Y-307D01*
G01X4014Y-312D02*
X4017Y-311D01*
X4020Y-310D01*
X4022Y-307D01*
X4022Y-303D01*
X4022Y-300D01*
X4019Y-297D01*
X4016Y-295D01*
X4012D01*
X4010Y-294D01*
X4008Y-291D01*
X4007Y-288D01*
X4008Y-284D01*
X4011Y-282D01*
X4014Y-281D01*
X4017Y-282D01*
X4020Y-284D01*
X4021Y-288D01*
X4020Y-291D01*
X4018Y-294D01*
X4016Y-295D01*
X4012D01*
X4009Y-297D01*
X4006Y-300D01*
X4006Y-303D01*
X4006Y-307D01*
X4008Y-310D01*
X4011Y-311D01*
X4014Y-312D01*
G01X4050D02*
Y-281D01*
X4035Y-303D01*
X4055D01*
G01X3976Y-167D02*
X3974Y-165D01*
X3971Y-164D01*
X3968D01*
X3965Y-166D01*
X3962Y-168D01*
X3960Y-171D01*
X3958Y-177D01*
X3958Y-181D01*
X3959Y-186D01*
X3960Y-189D01*
X3962Y-192D01*
X3965Y-194D01*
X3968Y-195D01*
X3970D01*
X3973Y-194D01*
X3975Y-193D01*
X3977Y-191D01*
G01X3999Y-195D02*
X4001Y-195D01*
X4004Y-193D01*
X4006Y-191D01*
X4007Y-187D01*
X4006Y-183D01*
X4004Y-180D01*
X4001Y-179D01*
X3997D01*
X3994Y-178D01*
X3993Y-175D01*
X3992Y-171D01*
X3993Y-168D01*
X3996Y-165D01*
X3999Y-164D01*
X4002Y-165D01*
X4004Y-168D01*
X4006Y-171D01*
X4005Y-175D01*
X4003Y-178D01*
X4001Y-179D01*
X3997D01*
X3993Y-180D01*
X3991Y-183D01*
X3990Y-187D01*
X3991Y-191D01*
X3993Y-193D01*
X3996Y-195D01*
X3999Y-195D01*
G01X4021Y-189D02*
X4023Y-193D01*
X4027Y-195D01*
X4030Y-195D01*
X4033Y-195D01*
X4036Y-192D01*
X4038Y-189D01*
X4038Y-186D01*
X4038Y-182D01*
X4035Y-180D01*
X4032Y-179D01*
X4029D01*
G01X4032D02*
X4035Y-177D01*
X4037Y-174D01*
X4037Y-171D01*
X4037Y-168D01*
X4035Y-166D01*
X4031Y-164D01*
X4028Y-165D01*
X4024Y-167D01*
G01X3979Y-45D02*
X3976Y-44D01*
X3974Y-43D01*
X3971D01*
X3967Y-44D01*
X3964Y-47D01*
X3963Y-50D01*
X3961Y-55D01*
X3961Y-60D01*
X3961Y-64D01*
X3963Y-67D01*
X3965Y-71D01*
X3968Y-73D01*
X3970Y-74D01*
X3973D01*
X3976Y-73D01*
X3978Y-71D01*
X3980Y-69D01*
G01X4000Y-74D02*
X4001Y-67D01*
X4002Y-61D01*
X4004Y-56D01*
X4006Y-50D01*
X4009Y-43D01*
X3994D01*
G01X4026Y-70D02*
X4028Y-73D01*
X4031Y-74D01*
X4034Y-73D01*
X4037Y-69D01*
X4039Y-65D01*
X4040Y-60D01*
Y-55D01*
X4039Y-50D01*
X4037Y-46D01*
X4035Y-44D01*
X4032Y-43D01*
X4029Y-44D01*
X4027Y-46D01*
X4025Y-49D01*
X4025Y-53D01*
X4025Y-57D01*
X4027Y-60D01*
X4030Y-62D01*
X4032Y-63D01*
X4035Y-62D01*
X4038Y-59D01*
X4040Y-55D01*
G01X3954Y78D02*
X3952Y79D01*
X3949Y80D01*
X3946D01*
X3943Y79D01*
X3940Y76D01*
X3938Y73D01*
X3937Y68D01*
X3936Y63D01*
X3937Y58D01*
X3938Y55D01*
X3940Y52D01*
X3943Y50D01*
X3946Y49D01*
X3948D01*
X3951Y50D01*
X3953Y52D01*
X3955Y54D01*
G01X3977Y49D02*
Y80D01*
X3972Y74D01*
G01Y49D02*
X3981D01*
G01X4000Y62D02*
X4003Y66D01*
X4005Y68D01*
X4009Y69D01*
X4011Y68D01*
X4013Y66D01*
X4015Y63D01*
X4015Y59D01*
X4015Y56D01*
X4013Y53D01*
X4011Y50D01*
X4008Y49D01*
X4005Y50D01*
X4002Y53D01*
X4001Y58D01*
X4000Y63D01*
X4001Y70D01*
X4002Y73D01*
X4004Y77D01*
X4007Y80D01*
X4010Y80D01*
X4012Y79D01*
X4014Y77D01*
G01X4031Y75D02*
X4034Y78D01*
X4036Y80D01*
X4039Y80D01*
X4043Y79D01*
X4046Y77D01*
X4047Y73D01*
X4046Y70D01*
X4045Y68D01*
X4037Y63D01*
X4034Y59D01*
X4031Y54D01*
X4031Y49D01*
X4047D01*
G01X3796Y-286D02*
X3798Y-289D01*
X3800Y-291D01*
X3803Y-292D01*
X3806Y-291D01*
X3808Y-289D01*
X3811Y-286D01*
X3811Y-282D01*
Y-261D01*
G01X3839Y-292D02*
Y-261D01*
X3825Y-283D01*
X3844D01*
G01X3858Y-279D02*
X3861Y-276D01*
X3863Y-274D01*
X3866Y-272D01*
X3869Y-274D01*
X3871Y-276D01*
X3873Y-279D01*
X3873Y-282D01*
X3873Y-285D01*
X3871Y-289D01*
X3869Y-291D01*
X3866Y-292D01*
X3863Y-291D01*
X3860Y-288D01*
X3859Y-283D01*
X3858Y-278D01*
X3859Y-271D01*
X3860Y-268D01*
X3862Y-264D01*
X3865Y-262D01*
X3868Y-261D01*
X3870Y-262D01*
X3872Y-265D01*
G01X3676Y-150D02*
X3636Y-110D01*
Y-190D01*
X3676Y-150D01*
G01X3670Y343D02*
X3630Y303D01*
X3710D01*
X3670Y343D01*
G01X3710Y1167D02*
X3675D01*
Y1077D01*
X3725D01*
G01X3795D02*
X3845D01*
Y1167D01*
X3810D01*
G01X3766Y1109D02*
Y1135D01*
X3752Y1121D01*
X3766Y1107D01*
Y1109D01*
G01X3845Y1167D02*
Y1077D01*
X3675D01*
Y1167D01*
X3845D01*
G01X3710Y1265D02*
X3675D01*
Y1175D01*
X3725D01*
G01X3795D02*
X3845D01*
Y1265D01*
X3810D01*
G01X3766Y1207D02*
Y1233D01*
X3752Y1219D01*
X3766Y1205D01*
Y1207D01*
G01X3845Y1265D02*
Y1175D01*
X3675D01*
Y1265D01*
X3845D01*
G01X3514Y1787D02*
X3573D01*
Y1953D01*
X3514D01*
Y1787D01*
G01Y1965D02*
X3573D01*
Y2130D01*
X3514D01*
Y1965D01*
G01X4209Y1098D02*
X4609D01*
Y1973D01*
X4209D01*
Y1098D01*
G01X4256Y1929D02*
G03I-12J8D01*
G01X3981Y1984D02*
Y1962D01*
X3983Y1957D01*
X3986Y1954D01*
X3990Y1953D01*
X3993Y1954D01*
X3997Y1957D01*
X3998Y1962D01*
Y1984D01*
G01X4013Y1979D02*
X4016Y1982D01*
X4018Y1984D01*
X4021Y1984D01*
X4025Y1983D01*
X4028Y1981D01*
X4029Y1978D01*
X4028Y1975D01*
X4027Y1972D01*
X4019Y1967D01*
X4016Y1963D01*
X4013Y1958D01*
X4013Y1953D01*
X4029D01*
G01X4045Y1957D02*
X4048Y1954D01*
X4051Y1953D01*
X4054Y1954D01*
X4057Y1957D01*
X4058Y1962D01*
X4059Y1967D01*
Y1972D01*
X4058Y1977D01*
X4057Y1981D01*
X4054Y1983D01*
X4052Y1984D01*
X4049Y1983D01*
X4046Y1981D01*
X4045Y1978D01*
X4044Y1974D01*
X4045Y1970D01*
X4047Y1967D01*
X4049Y1965D01*
X4052Y1964D01*
X4055Y1965D01*
X4057Y1968D01*
X4059Y1972D01*
G01X3624Y1853D02*
Y1884D01*
X3633D01*
X3637Y1882D01*
X3638Y1880D01*
X3639Y1876D01*
X3638Y1872D01*
X3636Y1870D01*
X3633Y1868D01*
X3624D01*
G01X3633D02*
X3639Y1853D01*
G01X3655D02*
Y1884D01*
X3664D01*
X3667Y1882D01*
X3669Y1879D01*
X3670Y1875D01*
X3669Y1871D01*
X3667Y1867D01*
X3664Y1866D01*
X3655D01*
G01X3693Y1853D02*
X3693Y1860D01*
X3695Y1865D01*
X3696Y1871D01*
X3698Y1876D01*
X3701Y1884D01*
X3686D01*
G01X4379Y1051D02*
Y1029D01*
X4381Y1024D01*
X4384Y1021D01*
X4387Y1020D01*
X4391Y1021D01*
X4394Y1024D01*
X4396Y1029D01*
Y1051D01*
G01X4418Y1020D02*
X4418Y1027D01*
X4420Y1033D01*
X4421Y1038D01*
X4423Y1043D01*
X4426Y1051D01*
X4411D01*
G01X3865Y1138D02*
Y1107D01*
X3881D01*
G01X3912D02*
X3896D01*
Y1138D01*
X3912D01*
G01X3905Y1123D02*
X3896D01*
G01X3926Y1107D02*
Y1138D01*
X3934D01*
X3937Y1137D01*
X3939Y1135D01*
X3941Y1131D01*
X3943Y1128D01*
X3943Y1123D01*
X3943Y1118D01*
X3941Y1114D01*
X3939Y1111D01*
X3937Y1109D01*
X3934Y1107D01*
X3926D01*
G01X3970D02*
Y1138D01*
X3956Y1116D01*
X3975D01*
G01X3873Y1233D02*
Y1202D01*
X3888D01*
G01X3919D02*
X3904D01*
Y1233D01*
X3919D01*
G01X3913Y1218D02*
X3904D01*
G01X3934Y1202D02*
Y1233D01*
X3942D01*
X3945Y1231D01*
X3947Y1229D01*
X3949Y1226D01*
X3951Y1223D01*
X3951Y1217D01*
X3951Y1212D01*
X3949Y1209D01*
X3947Y1206D01*
X3945Y1203D01*
X3942Y1202D01*
X3934D01*
G01X3965Y1208D02*
X3967Y1204D01*
X3970Y1202D01*
X3974Y1202D01*
X3977Y1202D01*
X3980Y1205D01*
X3982Y1208D01*
X3982Y1211D01*
X3982Y1215D01*
X3979Y1217D01*
X3976Y1218D01*
X3973D01*
G01X3976D02*
X3978Y1220D01*
X3980Y1223D01*
X3981Y1226D01*
X3980Y1229D01*
X3978Y1231D01*
X3975Y1233D01*
X3972Y1232D01*
X3968Y1230D01*
G01X4307Y2994D02*
X4107D01*
Y3129D01*
X4307D01*
Y2994D01*
G01X4142Y3024D02*
G03I-10J0D01*
G01X4107Y3012D02*
X4307D01*
G01X3514Y2319D02*
X3573D01*
Y2484D01*
X3514D01*
Y2319D01*
G01Y2142D02*
X3573D01*
Y2307D01*
X3514D01*
Y2142D01*
G01X3352Y3130D02*
Y2972D01*
X3656D01*
Y3130D01*
X3352D01*
G01X4209Y2043D02*
X4609D01*
Y2918D01*
X4209D01*
Y2043D01*
G01X4256Y2874D02*
G03I-12J8D01*
G01X3624Y2197D02*
Y2228D01*
X3633D01*
X3637Y2226D01*
X3638Y2224D01*
X3639Y2220D01*
X3638Y2216D01*
X3636Y2213D01*
X3633Y2212D01*
X3624D01*
G01X3633D02*
X3639Y2197D01*
G01X3655D02*
Y2228D01*
X3664D01*
X3667Y2226D01*
X3669Y2223D01*
X3670Y2218D01*
X3669Y2214D01*
X3667Y2211D01*
X3664Y2210D01*
X3655D01*
G01X3685Y2201D02*
X3687Y2199D01*
X3690Y2197D01*
X3693Y2197D01*
X3697Y2198D01*
X3700Y2200D01*
X3702Y2204D01*
X3702Y2208D01*
X3701Y2212D01*
X3699Y2214D01*
X3697Y2216D01*
X3694Y2217D01*
X3691Y2216D01*
X3688Y2214D01*
X3689Y2228D01*
X3699D01*
G01X3624Y2391D02*
Y2422D01*
X3633D01*
X3637Y2420D01*
X3638Y2418D01*
X3639Y2414D01*
X3638Y2410D01*
X3636Y2407D01*
X3633Y2406D01*
X3624D01*
G01X3633D02*
X3639Y2391D01*
G01X3655D02*
Y2422D01*
X3664D01*
X3667Y2420D01*
X3669Y2417D01*
X3670Y2413D01*
X3669Y2408D01*
X3667Y2405D01*
X3664Y2404D01*
X3655D01*
G01X3693Y2391D02*
X3696Y2391D01*
X3699Y2393D01*
X3701Y2395D01*
X3702Y2399D01*
X3701Y2403D01*
X3699Y2406D01*
X3695Y2407D01*
X3692D01*
X3689Y2408D01*
X3687Y2411D01*
X3687Y2415D01*
X3688Y2418D01*
X3690Y2421D01*
X3693Y2422D01*
X3697Y2421D01*
X3699Y2418D01*
X3700Y2415D01*
X3700Y2411D01*
X3698Y2408D01*
X3695Y2407D01*
X3692D01*
X3688Y2406D01*
X3686Y2403D01*
X3685Y2399D01*
X3686Y2395D01*
X3688Y2393D01*
X3691Y2391D01*
X3693Y2391D01*
G01X3624Y2033D02*
Y2064D01*
X3633D01*
X3637Y2063D01*
X3638Y2061D01*
X3639Y2057D01*
X3638Y2052D01*
X3636Y2050D01*
X3633Y2048D01*
X3624D01*
G01X3633D02*
X3639Y2033D01*
G01X3655D02*
Y2064D01*
X3664D01*
X3667Y2063D01*
X3669Y2059D01*
X3670Y2055D01*
X3669Y2051D01*
X3667Y2048D01*
X3664Y2046D01*
X3655D01*
G01X3686D02*
X3689Y2050D01*
X3691Y2052D01*
X3694Y2053D01*
X3697Y2052D01*
X3699Y2050D01*
X3700Y2047D01*
X3701Y2043D01*
X3700Y2040D01*
X3699Y2037D01*
X3697Y2034D01*
X3694Y2033D01*
X3691Y2034D01*
X3688Y2037D01*
X3687Y2042D01*
X3686Y2047D01*
X3687Y2054D01*
X3688Y2058D01*
X3690Y2061D01*
X3693Y2064D01*
X3695Y2064D01*
X3698Y2063D01*
X3700Y2061D01*
G01X3211Y2678D02*
X3212Y2680D01*
X3213Y2681D01*
X3215Y2681D01*
X3217Y2681D01*
X3218Y2679D01*
X3219Y2677D01*
X3219Y2675D01*
X3218Y2673D01*
X3214Y2670D01*
X3212Y2668D01*
X3211Y2664D01*
X3210Y2661D01*
X3219D01*
G01X3230D02*
Y2681D01*
X3223Y2667D01*
X3233D01*
G01X3242Y2678D02*
X3244Y2680D01*
X3245Y2681D01*
X3247Y2681D01*
X3249Y2681D01*
X3250Y2679D01*
X3250Y2677D01*
X3250Y2675D01*
X3249Y2673D01*
X3245Y2670D01*
X3244Y2668D01*
X3242Y2664D01*
X3242Y2661D01*
X3250D01*
G01X3255Y2664D02*
X3256Y2663D01*
X3257Y2662D01*
X3259Y2661D01*
X3261Y2662D01*
X3262Y2663D01*
X3263Y2666D01*
X3264Y2668D01*
X3263Y2671D01*
X3262Y2673D01*
X3261Y2674D01*
X3259Y2674D01*
X3258Y2674D01*
X3256Y2673D01*
X3257Y2681D01*
X3262D01*
G01X3274Y2678D02*
X3275Y2680D01*
X3276Y2681D01*
X3278Y2681D01*
X3280Y2681D01*
X3281Y2679D01*
X3282Y2677D01*
X3282Y2675D01*
X3281Y2673D01*
X3277Y2670D01*
X3275Y2668D01*
X3274Y2664D01*
X3273Y2661D01*
X3282D01*
G01X3287Y2670D02*
X3288Y2672D01*
X3289Y2673D01*
X3291Y2674D01*
X3292Y2673D01*
X3293Y2672D01*
X3294Y2670D01*
X3294Y2668D01*
X3294Y2666D01*
X3293Y2664D01*
X3292Y2662D01*
X3291Y2661D01*
X3289Y2662D01*
X3288Y2664D01*
X3287Y2667D01*
X3287Y2670D01*
X3287Y2675D01*
X3288Y2677D01*
X3289Y2679D01*
X3290Y2681D01*
X3292Y2681D01*
X3293Y2681D01*
X3294Y2679D01*
G01X3325Y3085D02*
X3302D01*
X3298Y3083D01*
X3295Y3080D01*
X3294Y3077D01*
X3295Y3073D01*
X3298Y3070D01*
X3302Y3068D01*
X3325D01*
G01X3300Y3054D02*
X3296Y3052D01*
X3294Y3049D01*
X3294Y3045D01*
X3294Y3042D01*
X3297Y3039D01*
X3300Y3037D01*
X3303Y3037D01*
X3307Y3037D01*
X3309Y3040D01*
X3310Y3043D01*
Y3046D01*
G01Y3043D02*
X3312Y3041D01*
X3314Y3039D01*
X3317Y3038D01*
X3320Y3039D01*
X3323Y3041D01*
X3325Y3044D01*
X3324Y3047D01*
X3322Y3051D01*
G01X3294Y3015D02*
X3325D01*
X3318Y3019D01*
G01X3294D02*
Y3010D01*
G01X3696Y3094D02*
X3674D01*
X3669Y3093D01*
X3666Y3090D01*
X3665Y3086D01*
X3666Y3082D01*
X3669Y3079D01*
X3674Y3077D01*
X3696D01*
G01X3671Y3063D02*
X3668Y3061D01*
X3666Y3058D01*
X3665Y3054D01*
X3666Y3051D01*
X3668Y3048D01*
X3671Y3046D01*
X3674Y3046D01*
X3678Y3047D01*
X3681Y3049D01*
X3682Y3052D01*
Y3056D01*
G01Y3052D02*
X3683Y3050D01*
X3686Y3048D01*
X3689Y3047D01*
X3692Y3048D01*
X3694Y3050D01*
X3696Y3053D01*
X3695Y3057D01*
X3693Y3060D01*
G01X3691Y3031D02*
X3694Y3029D01*
X3695Y3026D01*
X3696Y3023D01*
X3695Y3019D01*
X3692Y3017D01*
X3689Y3016D01*
X3686Y3016D01*
X3684Y3018D01*
X3678Y3025D01*
X3675Y3029D01*
X3670Y3031D01*
X3665Y3032D01*
Y3016D01*
G01X4050Y2904D02*
Y2882D01*
X4051Y2877D01*
X4054Y2874D01*
X4058Y2873D01*
X4062Y2874D01*
X4065Y2877D01*
X4066Y2882D01*
Y2904D01*
G01X4082Y2899D02*
X4084Y2902D01*
X4087Y2903D01*
X4090Y2904D01*
X4094Y2903D01*
X4096Y2900D01*
X4097Y2897D01*
X4097Y2894D01*
X4095Y2891D01*
X4087Y2886D01*
X4084Y2883D01*
X4082Y2877D01*
X4081Y2873D01*
X4097D01*
G01X4120D02*
X4123Y2873D01*
X4126Y2875D01*
X4128Y2877D01*
X4128Y2881D01*
X4128Y2885D01*
X4125Y2888D01*
X4122Y2889D01*
X4118D01*
X4116Y2890D01*
X4114Y2893D01*
X4113Y2896D01*
X4114Y2900D01*
X4117Y2903D01*
X4120Y2904D01*
X4123Y2903D01*
X4126Y2900D01*
X4127Y2896D01*
X4126Y2893D01*
X4124Y2890D01*
X4122Y2889D01*
X4118D01*
X4115Y2888D01*
X4112Y2885D01*
X4112Y2881D01*
X4112Y2877D01*
X4114Y2875D01*
X4117Y2873D01*
X4120Y2873D01*
G01X4350Y3088D02*
X4328D01*
X4323Y3086D01*
X4320Y3083D01*
X4319Y3080D01*
X4320Y3076D01*
X4323Y3073D01*
X4328Y3071D01*
X4350D01*
G01X4324Y3057D02*
X4321Y3055D01*
X4319Y3052D01*
X4319Y3049D01*
X4320Y3045D01*
X4322Y3042D01*
X4326Y3041D01*
X4330Y3040D01*
X4334Y3041D01*
X4336Y3043D01*
X4338Y3046D01*
X4339Y3048D01*
X4338Y3051D01*
X4336Y3054D01*
X4350Y3053D01*
Y3043D01*
G01Y3018D02*
X4349Y3021D01*
X4346Y3023D01*
X4343Y3025D01*
X4339Y3026D01*
X4334Y3026D01*
X4330Y3026D01*
X4326Y3025D01*
X4322Y3023D01*
X4320Y3021D01*
X4319Y3018D01*
X4320Y3015D01*
X4322Y3012D01*
X4326Y3011D01*
X4330Y3010D01*
X4334Y3009D01*
X4339Y3010D01*
X4343Y3011D01*
X4346Y3012D01*
X4349Y3015D01*
X4350Y3018D01*
G01X4377Y3115D02*
Y3195D01*
X4457D01*
Y3115D01*
X4377D01*
G01X3707Y2915D02*
X4057D01*
G01X3742Y2933D02*
G03I-10J0D01*
G01X4096Y3009D02*
X4074D01*
X4069Y3008D01*
X4066Y3004D01*
X4065Y3001D01*
X4066Y2997D01*
X4069Y2994D01*
X4074Y2992D01*
X4096D01*
G01X4091Y2977D02*
X4094Y2975D01*
X4095Y2972D01*
X4096Y2969D01*
X4095Y2965D01*
X4092Y2962D01*
X4089Y2962D01*
X4086Y2962D01*
X4083Y2964D01*
X4078Y2971D01*
X4075Y2975D01*
X4069Y2977D01*
X4065Y2978D01*
Y2962D01*
G01X4091Y2946D02*
X4094Y2944D01*
X4095Y2941D01*
X4096Y2938D01*
X4095Y2934D01*
X4092Y2931D01*
X4089Y2931D01*
X4086Y2931D01*
X4083Y2933D01*
X4078Y2940D01*
X4075Y2944D01*
X4069Y2946D01*
X4065Y2947D01*
Y2931D01*
G01X4057Y2898D02*
X3707D01*
Y3033D01*
X4057D01*
Y2898D01*
G01X3940Y3438D02*
X3918D01*
X3913Y3437D01*
X3910Y3434D01*
X3909Y3430D01*
X3910Y3426D01*
X3913Y3423D01*
X3918Y3421D01*
X3940D01*
G01X3913Y3407D02*
X3911Y3405D01*
X3909Y3402D01*
X3909Y3399D01*
X3910Y3395D01*
X3912Y3393D01*
X3915Y3391D01*
X3920Y3390D01*
X3924Y3391D01*
X3926Y3393D01*
X3928Y3396D01*
X3929Y3398D01*
X3928Y3401D01*
X3926Y3405D01*
X3940Y3403D01*
Y3393D01*
G01X3909Y3368D02*
X3940D01*
X3934Y3372D01*
G01X3909D02*
Y3363D01*
G01X4031Y3437D02*
G03I-17J-17D01*
G01X4770Y3376D02*
Y3576D01*
X3970D01*
Y3376D01*
X4770D01*
G01X3793Y3631D02*
X3833Y3671D01*
X3753D01*
X3793Y3631D01*
G01X5354Y-551D02*
Y-491D01*
G01X5306Y-489D02*
Y-189D01*
X5506D01*
Y-489D01*
X5306D01*
G01X5567Y-664D02*
Y-364D01*
X5867D01*
Y-664D01*
X5567D01*
G01X5517Y-714D02*
Y-314D01*
X5917D01*
Y-714D01*
X5517D01*
G01X5567Y-1215D02*
Y-915D01*
X5867D01*
Y-1215D01*
X5567D01*
G01X5517Y-1265D02*
Y-865D01*
X5917D01*
Y-1265D01*
X5517D01*
G01X4762Y-448D02*
Y252D01*
X4962D01*
Y-448D01*
X4762D01*
G01X5103Y-109D02*
Y191D01*
X5303D01*
Y-109D01*
X5103D01*
G01X5116Y227D02*
X5118Y224D01*
X5121Y222D01*
X5123Y221D01*
X5126Y222D01*
X5129Y224D01*
X5131Y227D01*
X5132Y231D01*
Y252D01*
G01X5147Y227D02*
X5149Y224D01*
X5152Y222D01*
X5155Y221D01*
X5158Y222D01*
X5162Y224D01*
X5163Y227D01*
X5164Y230D01*
X5163Y234D01*
X5160Y236D01*
X5158Y238D01*
X5154D01*
G01X5158D02*
X5160Y239D01*
X5162Y242D01*
X5163Y245D01*
X5162Y248D01*
X5160Y250D01*
X5157Y252D01*
X5153Y251D01*
X5150Y249D01*
G01X5179Y225D02*
X5182Y222D01*
X5185Y221D01*
X5188Y222D01*
X5191Y225D01*
X5193Y230D01*
X5194Y234D01*
Y240D01*
X5193Y245D01*
X5191Y249D01*
X5189Y251D01*
X5186Y252D01*
X5183Y251D01*
X5181Y249D01*
X5179Y246D01*
X5178Y242D01*
X5179Y238D01*
X5181Y234D01*
X5183Y232D01*
X5186Y232D01*
X5189Y233D01*
X5191Y235D01*
X5194Y240D01*
G01X5425Y449D02*
X5917D01*
Y-141D01*
X5425D01*
Y449D01*
G01X5252Y697D02*
X6102D01*
Y1347D01*
X5252D01*
Y1297D01*
G01D02*
Y697D01*
G01X5272Y560D02*
X5342D01*
Y660D01*
X5322D01*
X5272D01*
G01X5091Y560D02*
Y660D01*
X5343D01*
Y560D01*
X5091D01*
G01D02*
Y660D01*
X5107D01*
Y560D01*
X5091D01*
G01X4595Y400D02*
X4971D01*
Y900D01*
X4595D01*
Y400D01*
G01X5469Y498D02*
Y648D01*
X5869D01*
Y498D01*
X5469D01*
G01X5387Y611D02*
X5385Y613D01*
X5382Y614D01*
X5379D01*
X5376Y612D01*
X5373Y609D01*
X5371Y606D01*
X5370Y601D01*
X5369Y597D01*
X5370Y592D01*
X5371Y589D01*
X5373Y586D01*
X5376Y584D01*
X5379Y583D01*
X5382D01*
X5384Y584D01*
X5386Y585D01*
X5388Y587D01*
G01X5409Y583D02*
X5410Y589D01*
X5411Y595D01*
X5412Y600D01*
X5414Y606D01*
X5417Y614D01*
X5402D01*
G01X5445Y583D02*
Y614D01*
X5431Y591D01*
X5450D01*
G01X5082Y715D02*
X5080Y716D01*
X5077Y717D01*
X5074D01*
X5071Y716D01*
X5068Y713D01*
X5066Y710D01*
X5064Y705D01*
X5064Y700D01*
X5065Y696D01*
X5066Y693D01*
X5068Y689D01*
X5071Y687D01*
X5074Y686D01*
X5076D01*
X5079Y687D01*
X5081Y689D01*
X5083Y691D01*
G01X5104Y686D02*
X5105Y693D01*
X5106Y699D01*
X5107Y704D01*
X5109Y710D01*
X5112Y717D01*
X5097D01*
G01X5135Y686D02*
X5136Y693D01*
X5137Y699D01*
X5138Y704D01*
X5140Y710D01*
X5143Y717D01*
X5128D01*
G01X4726Y21D02*
X4703D01*
X4699Y19D01*
X4696Y16D01*
X4695Y12D01*
X4696Y8D01*
X4699Y5D01*
X4703Y4D01*
X4726D01*
G01X4698Y-12D02*
X4696Y-15D01*
X4695Y-18D01*
X4696Y-21D01*
X4699Y-24D01*
X4703Y-26D01*
X4708Y-26D01*
X4714D01*
X4718Y-26D01*
X4722Y-24D01*
X4724Y-21D01*
X4726Y-19D01*
X4724Y-16D01*
X4722Y-13D01*
X4719Y-12D01*
X4715Y-11D01*
X4712Y-12D01*
X4708Y-14D01*
X4706Y-16D01*
X4705Y-19D01*
X4706Y-22D01*
X4709Y-24D01*
X4714Y-26D01*
G01X4652Y215D02*
X4654Y212D01*
X4656Y210D01*
X4659Y209D01*
X4662Y210D01*
X4664Y212D01*
X4667Y215D01*
X4668Y219D01*
Y240D01*
G01X4695Y209D02*
Y240D01*
X4681Y218D01*
X4700D01*
G01X4721Y209D02*
X4722Y215D01*
X4723Y221D01*
X4724Y226D01*
X4726Y232D01*
X4729Y240D01*
X4714D01*
G01X5321Y-161D02*
X5323Y-164D01*
X5325Y-166D01*
X5328Y-167D01*
X5331Y-166D01*
X5333Y-164D01*
X5336Y-161D01*
X5337Y-157D01*
Y-136D01*
G01X5364Y-167D02*
Y-136D01*
X5350Y-159D01*
X5369D01*
G01X5391Y-136D02*
X5388Y-137D01*
X5385Y-140D01*
X5384Y-143D01*
X5383Y-147D01*
X5382Y-152D01*
X5383Y-156D01*
X5384Y-161D01*
X5385Y-164D01*
X5388Y-166D01*
X5391Y-167D01*
X5394Y-166D01*
X5396Y-164D01*
X5398Y-161D01*
X5399Y-156D01*
X5399Y-152D01*
X5399Y-147D01*
X5398Y-143D01*
X5396Y-140D01*
X5394Y-137D01*
X5391Y-136D01*
G01X5317Y137D02*
X5357Y97D01*
Y177D01*
X5317Y137D01*
G01X4983Y156D02*
X5023Y116D01*
Y196D01*
X4983Y156D01*
G01X5519Y-254D02*
X5559Y-294D01*
Y-214D01*
X5519Y-254D01*
G01X5090Y1520D02*
Y1120D01*
X4890D01*
Y1520D01*
X5090D01*
G01X5070Y1164D02*
G03I-24J0D01*
G01X5553Y2892D02*
X6102D01*
Y1592D01*
X5553D01*
Y2892D01*
G01X5134Y934D02*
X5204D01*
Y1034D01*
X5184D01*
X5134D01*
G01X4953Y934D02*
Y1034D01*
X5205D01*
Y934D01*
X4953D01*
G01D02*
Y1034D01*
X4969D01*
Y934D01*
X4953D01*
G01X4716Y849D02*
G03I-20J11D01*
G01X5032Y1073D02*
X5029Y1075D01*
X5027Y1076D01*
X5024D01*
X5020Y1074D01*
X5017Y1071D01*
X5016Y1068D01*
X5014Y1063D01*
X5014Y1059D01*
X5014Y1054D01*
X5016Y1051D01*
X5018Y1048D01*
X5021Y1046D01*
X5023Y1045D01*
X5026D01*
X5029Y1046D01*
X5031Y1047D01*
X5033Y1049D01*
G01X5053Y1045D02*
X5054Y1051D01*
X5055Y1057D01*
X5057Y1062D01*
X5059Y1068D01*
X5062Y1076D01*
X5047D01*
G01X5085Y1045D02*
X5088Y1045D01*
X5091Y1047D01*
X5093Y1049D01*
X5094Y1053D01*
X5093Y1056D01*
X5091Y1060D01*
X5087Y1061D01*
X5083D01*
X5081Y1062D01*
X5079Y1065D01*
X5078Y1068D01*
X5079Y1072D01*
X5082Y1075D01*
X5085Y1076D01*
X5088Y1075D01*
X5091Y1072D01*
X5092Y1068D01*
X5091Y1065D01*
X5089Y1062D01*
X5087Y1061D01*
X5083D01*
X5080Y1060D01*
X5077Y1056D01*
X5077Y1053D01*
X5077Y1049D01*
X5079Y1047D01*
X5082Y1045D01*
X5085Y1045D01*
G01X4605Y947D02*
X4607Y944D01*
X4609Y942D01*
X4612Y941D01*
X4615Y942D01*
X4617Y944D01*
X4619Y947D01*
X4620Y951D01*
Y972D01*
G01X4648Y941D02*
Y972D01*
X4634Y950D01*
X4653D01*
G01X4890Y1955D02*
Y2355D01*
X5090D01*
Y1955D01*
X4890D01*
G01X5070Y1584D02*
G03I-24J0D01*
G01X5090Y1940D02*
Y1540D01*
X4890D01*
Y1940D01*
X5090D01*
G01X5282Y1488D02*
Y1466D01*
X5283Y1462D01*
X5286Y1458D01*
X5290Y1457D01*
X5294Y1458D01*
X5297Y1462D01*
X5299Y1466D01*
Y1488D01*
G01X5313Y1462D02*
X5315Y1460D01*
X5318Y1458D01*
X5321Y1457D01*
X5325Y1458D01*
X5327Y1461D01*
X5329Y1464D01*
X5330Y1468D01*
X5329Y1472D01*
X5327Y1475D01*
X5324Y1477D01*
X5322Y1478D01*
X5319Y1477D01*
X5316Y1475D01*
X5317Y1488D01*
X5327D01*
G01X5357Y1457D02*
Y1488D01*
X5343Y1466D01*
X5362D01*
G01X5277Y1614D02*
Y1592D01*
X5278Y1587D01*
X5281Y1584D01*
X5285Y1583D01*
X5289Y1584D01*
X5292Y1587D01*
X5294Y1592D01*
Y1614D01*
G01X5309Y1596D02*
X5312Y1599D01*
X5314Y1601D01*
X5317Y1602D01*
X5320Y1601D01*
X5322Y1599D01*
X5323Y1596D01*
X5324Y1593D01*
X5323Y1590D01*
X5322Y1586D01*
X5319Y1584D01*
X5317Y1583D01*
X5314Y1584D01*
X5311Y1587D01*
X5309Y1592D01*
X5309Y1597D01*
X5310Y1603D01*
X5311Y1607D01*
X5313Y1611D01*
X5316Y1613D01*
X5318Y1614D01*
X5321Y1613D01*
X5323Y1610D01*
G01X5347Y1614D02*
X5344Y1613D01*
X5342Y1610D01*
X5340Y1607D01*
X5339Y1603D01*
X5339Y1598D01*
X5339Y1594D01*
X5340Y1590D01*
X5342Y1586D01*
X5344Y1584D01*
X5347Y1583D01*
X5350Y1584D01*
X5353Y1586D01*
X5354Y1590D01*
X5355Y1594D01*
X5356Y1598D01*
X5355Y1603D01*
X5354Y1607D01*
X5353Y1610D01*
X5350Y1613D01*
X5347Y1614D01*
G01X5277Y2022D02*
Y2000D01*
X5278Y1996D01*
X5281Y1993D01*
X5285Y1991D01*
X5289Y1993D01*
X5292Y1996D01*
X5294Y2000D01*
Y2022D01*
G01X5308Y1996D02*
X5310Y1994D01*
X5313Y1992D01*
X5316Y1991D01*
X5320Y1993D01*
X5322Y1995D01*
X5324Y1998D01*
X5325Y2002D01*
X5324Y2006D01*
X5322Y2009D01*
X5319Y2011D01*
X5317Y2012D01*
X5314Y2011D01*
X5311Y2009D01*
X5312Y2022D01*
X5322D01*
G01X5341Y1995D02*
X5343Y1993D01*
X5346Y1991D01*
X5350Y1993D01*
X5352Y1996D01*
X5354Y2000D01*
X5355Y2005D01*
Y2011D01*
X5354Y2015D01*
X5352Y2019D01*
X5350Y2021D01*
X5347Y2022D01*
X5344Y2021D01*
X5342Y2019D01*
X5340Y2016D01*
X5340Y2012D01*
X5340Y2009D01*
X5342Y2005D01*
X5345Y2003D01*
X5347Y2002D01*
X5350Y2003D01*
X5353Y2006D01*
X5355Y2011D01*
G01X6103Y3173D02*
X5543D01*
Y3523D01*
X6103D01*
Y3173D01*
G01X4786Y2450D02*
X5136D01*
G01X4821Y2468D02*
G03I-10J0D01*
G01X5136Y2432D02*
X4786D01*
Y2568D01*
X5136D01*
Y2432D01*
G01X5392Y3409D02*
Y3009D01*
X5042D01*
Y3409D01*
X5392D01*
G01X4749Y2541D02*
X4726D01*
X4722Y2540D01*
X4719Y2537D01*
X4718Y2533D01*
X4719Y2529D01*
X4722Y2526D01*
X4726Y2524D01*
X4749D01*
G01X4722Y2510D02*
X4720Y2508D01*
X4718Y2505D01*
X4718Y2502D01*
X4719Y2498D01*
X4721Y2496D01*
X4724Y2494D01*
X4728Y2493D01*
X4733Y2494D01*
X4735Y2496D01*
X4737Y2499D01*
X4738Y2501D01*
X4737Y2504D01*
X4735Y2508D01*
X4749Y2506D01*
Y2496D01*
G01X4718Y2471D02*
X4718Y2468D01*
X4720Y2465D01*
X4722Y2463D01*
X4726Y2462D01*
X4729Y2463D01*
X4733Y2465D01*
X4734Y2469D01*
Y2473D01*
X4735Y2475D01*
X4738Y2477D01*
X4741Y2478D01*
X4745Y2477D01*
X4748Y2474D01*
X4749Y2471D01*
X4748Y2468D01*
X4745Y2465D01*
X4741Y2464D01*
X4738Y2465D01*
X4735Y2467D01*
X4734Y2469D01*
Y2473D01*
X4733Y2476D01*
X4729Y2478D01*
X4726Y2479D01*
X4722Y2478D01*
X4720Y2477D01*
X4718Y2474D01*
X4718Y2471D01*
G01X4505Y2961D02*
X4572D01*
Y3075D01*
X4505D01*
Y2961D01*
G01X4542Y3050D02*
G03I-4J8D01*
G01X4782Y3014D02*
Y3314D01*
X4982D01*
Y3014D01*
X4782D01*
G01X4997Y2944D02*
X4999Y2941D01*
X5001Y2939D01*
X5004Y2938D01*
X5007Y2939D01*
X5009Y2941D01*
X5011Y2944D01*
X5012Y2948D01*
Y2969D01*
G01X5040Y2938D02*
Y2969D01*
X5026Y2946D01*
X5045D01*
G01X5058Y2944D02*
X5060Y2940D01*
X5063Y2938D01*
X5067Y2938D01*
X5070Y2938D01*
X5073Y2941D01*
X5075Y2944D01*
X5075Y2947D01*
X5074Y2951D01*
X5072Y2953D01*
X5069Y2954D01*
X5066D01*
G01X5069D02*
X5071Y2956D01*
X5073Y2958D01*
X5074Y2961D01*
X5073Y2965D01*
X5071Y2967D01*
X5068Y2969D01*
X5064Y2968D01*
X5061Y2966D01*
G01X4781Y2674D02*
Y2974D01*
X4981D01*
Y2674D01*
X4781D01*
G01X4951Y2294D02*
G03I-17J17D01*
G01X4619Y3049D02*
Y3027D01*
X4620Y3022D01*
X4623Y3019D01*
X4627Y3018D01*
X4631Y3019D01*
X4634Y3022D01*
X4635Y3027D01*
Y3049D01*
G01X4663Y3018D02*
Y3049D01*
X4648Y3027D01*
X4668D01*
G01X4682Y3022D02*
X4685Y3019D01*
X4688Y3018D01*
X4691Y3019D01*
X4694Y3022D01*
X4696Y3027D01*
X4697Y3032D01*
Y3037D01*
X4696Y3042D01*
X4694Y3046D01*
X4692Y3048D01*
X4689Y3049D01*
X4686Y3048D01*
X4684Y3046D01*
X4682Y3043D01*
X4681Y3039D01*
X4682Y3035D01*
X4684Y3032D01*
X4686Y3030D01*
X4689Y3029D01*
X4692Y3030D01*
X4694Y3033D01*
X4697Y3037D01*
G01X4478Y3210D02*
X4488Y3179D01*
X4497Y3210D01*
G01X4510Y3179D02*
Y3210D01*
X4518D01*
X4521Y3208D01*
X4523Y3206D01*
X4525Y3203D01*
X4527Y3199D01*
X4527Y3194D01*
X4527Y3189D01*
X4525Y3185D01*
X4523Y3182D01*
X4521Y3180D01*
X4518Y3179D01*
X4510D01*
G01X4541D02*
Y3210D01*
X4549D01*
X4552Y3208D01*
X4554Y3206D01*
X4556Y3203D01*
X4558Y3199D01*
X4558Y3194D01*
X4558Y3189D01*
X4556Y3185D01*
X4554Y3182D01*
X4552Y3180D01*
X4549Y3179D01*
X4541D01*
G01X4569Y3168D02*
X4592D01*
G01X4607Y3210D02*
X4616D01*
G01X4611D02*
Y3179D01*
G01X4607D02*
X4616D01*
G01X4638Y3210D02*
X4647D01*
G01X4642D02*
Y3179D01*
G01X4638D02*
X4647D01*
G01X4682Y3207D02*
X4679Y3209D01*
X4677Y3210D01*
X4674D01*
X4670Y3208D01*
X4668Y3206D01*
X4666Y3203D01*
X4664Y3197D01*
X4664Y3193D01*
X4665Y3188D01*
X4666Y3185D01*
X4668Y3182D01*
X4671Y3180D01*
X4673Y3179D01*
X4676D01*
X4679Y3180D01*
X4681Y3181D01*
X4683Y3183D01*
G01X4766Y2896D02*
X4726Y2936D01*
Y2856D01*
X4766Y2896D01*
G01Y3235D02*
X4726Y3275D01*
Y3195D01*
X4766Y3235D01*
G01X4807Y3722D02*
X5507D01*
Y3522D01*
X4807D01*
Y3722D01*
G01X5292Y3459D02*
Y3409D01*
X5142D01*
Y3459D01*
X5292D01*
G01X5042Y3435D02*
X5044Y3432D01*
X5046Y3430D01*
X5049Y3429D01*
X5052Y3430D01*
X5054Y3432D01*
X5057Y3435D01*
X5058Y3439D01*
Y3460D01*
G01X5085Y3429D02*
Y3460D01*
X5071Y3438D01*
X5090D01*
G01X5112Y3429D02*
Y3460D01*
X5107Y3454D01*
G01Y3429D02*
X5116D01*
G01X4796Y3340D02*
X4798Y3337D01*
X4800Y3335D01*
X4803Y3334D01*
X4806Y3335D01*
X4808Y3337D01*
X4811Y3340D01*
X4811Y3344D01*
Y3365D01*
G01X4839Y3334D02*
Y3365D01*
X4825Y3343D01*
X4844D01*
G01X4870Y3334D02*
Y3365D01*
X4856Y3343D01*
X4875D01*
G01X4812Y3472D02*
X4813Y3469D01*
X4816Y3467D01*
X4818Y3466D01*
X4822Y3467D01*
X4824Y3469D01*
X4826Y3472D01*
X4827Y3476D01*
Y3497D01*
G01X4844Y3469D02*
X4846Y3467D01*
X4849Y3466D01*
X4852Y3467D01*
X4855Y3470D01*
X4857Y3474D01*
X4858Y3479D01*
Y3485D01*
X4857Y3489D01*
X4855Y3493D01*
X4853Y3495D01*
X4850Y3497D01*
X4847Y3495D01*
X4845Y3493D01*
X4843Y3490D01*
X4843Y3486D01*
X4843Y3483D01*
X4845Y3479D01*
X4848Y3477D01*
X4850Y3476D01*
X4853Y3477D01*
X4856Y3480D01*
X4858Y3485D01*
G01X5413Y3501D02*
X5373Y3461D01*
X5453D01*
X5413Y3501D01*
G01X6102Y3740D02*
Y-1378D01*
M02*
