G04 ================== begin FILE IDENTIFICATION RECORD ==================*
G04 Layout Name:  D:/SVNUpdate/ikemb-0002/project/hardware/power_test/power_test.brd*
G04 Film Name:    BOTTOM*
G04 File Format:  Gerber RS274X*
G04 File Origin:  15.7-p007*
G04 Origin Date:  Sat Feb 02 11:40:53 2008*
G04 *
G04 Layer:  BOARD GEOMETRY/OUTLINE*
G04 Layer:  ETCH/BOTTOM*
G04 Layer:  PIN/BOTTOM*
G04 Layer:  VIA CLASS/BOTTOM*
G04 *
G04 Offset:    (0.000 0.000)*
G04 Mirror:    No*
G04 Mode:      Positive*
G04 Rotation:  0*
G04 FullContactRelief:  No*
G04 UndefLineWidth:     10.000*
G04 ================== end FILE IDENTIFICATION RECORD ====================*
%FSLAX53Y53*MOIN*%
%IR0*IPPOS*OFA0.00000B0.00000*MIA0B0*SFA1.00000B1.00000*%
%ADD14C,.12*%
%ADD10C,.145*%
%ADD11C,.155*%
%ADD12R,.062X.062*%
%ADD13C,.062*%
%ADD15C,.01*%
%ADD18C,.140004*%
%ADD19C,.175004*%
%ADD17C,.082004*%
%ADD16R,.082004X.082004*%
G75*
%LPD*%
G75*
G36*
G01X3700Y802D02*
Y9098D01*
G02X3702Y9100I2J0D01*
G01X9098D01*
G02X9100Y9098I0J-2D01*
G01Y802D01*
G02X9098Y800I-2J0D01*
G01X3702D01*
G02X3700Y802I0J2D01*
G37*
%LPC*%
G75*
G54D18*
X6325Y8875D03*
X6125D03*
X5925D03*
X5725D03*
X7750Y8800D03*
X7550D03*
X7350D03*
X7150D03*
X6275Y8375D03*
X6075D03*
X5875D03*
X5675D03*
G54D19*
X8025Y7309D03*
X6800D03*
X5250Y7284D03*
X4150D03*
X8789Y5715D03*
X7564D03*
X6014Y5690D03*
X4914D03*
X8025Y5555D03*
X6800D03*
X5250Y5530D03*
X4150D03*
X7875Y3509D03*
X6600Y3484D03*
X5400D03*
X4125D03*
X8639Y1915D03*
X7364Y1890D03*
X6164D03*
X4889D03*
X7875Y1755D03*
X6600Y1730D03*
X5400D03*
X4125D03*
G54D17*
X4500Y8900D03*
G54D16*
X4600D03*
%LPD*%
G75*
G54D10*
X4350Y2300D03*
X4750Y2275D03*
X4525Y1875D03*
Y3525D03*
X4350Y3125D03*
X4750Y3100D03*
X4350Y2725D03*
X4750D03*
X4575Y5625D03*
X4775Y6050D03*
X4350Y6025D03*
X4750Y6550D03*
X4325Y6525D03*
X4750Y7000D03*
X4350Y6975D03*
X4575Y7350D03*
X5825Y1850D03*
X5625Y2375D03*
X5975D03*
Y2750D03*
X5625D03*
X5825Y3450D03*
X6000Y3050D03*
X5600D03*
X5625Y5700D03*
X5875Y6050D03*
X5475D03*
X5850Y6525D03*
X5475D03*
X5875Y6975D03*
X5475D03*
X5675Y7375D03*
X7025Y1825D03*
X7225Y2375D03*
X6825D03*
X7225Y2775D03*
X6825D03*
X7200Y3125D03*
X6800D03*
X7050Y3425D03*
X7225Y5625D03*
X7025Y6575D03*
Y6150D03*
Y6975D03*
X8325Y1825D03*
X8100Y2350D03*
Y2775D03*
X8350Y3575D03*
X8100Y3200D03*
X8450Y5675D03*
X7425Y6575D03*
X7450Y6150D03*
X7425Y6975D03*
X8225Y6625D03*
Y7000D03*
Y6150D03*
X7300Y7375D03*
X8525Y2350D03*
X8500Y2750D03*
Y3200D03*
X8625Y6625D03*
X8600Y7000D03*
X8625Y6150D03*
X8525Y7325D03*
G54D11*
X4125Y1730D03*
Y3484D03*
X4150Y5530D03*
Y7284D03*
X4889Y1890D03*
X5400Y1730D03*
Y3484D03*
X4914Y5690D03*
X6014D03*
X5250Y5530D03*
Y7284D03*
X6164Y1890D03*
X6600Y1730D03*
Y3484D03*
X6800Y5555D03*
Y7309D03*
X7364Y1890D03*
X7875Y1755D03*
Y3509D03*
X7564Y5715D03*
X8025Y5555D03*
Y7309D03*
X8639Y1915D03*
X8789Y5715D03*
G54D12*
X4600Y8900D03*
G54D13*
X4500D03*
G54D14*
X5675Y8375D03*
X5875D03*
X5925Y8875D03*
X5725D03*
X6075Y8375D03*
X6275D03*
X7150Y8800D03*
X6325Y8875D03*
X6125D03*
X7750Y8800D03*
X7550D03*
X7350D03*
G54D15*
G01X9100Y700D02*
X3600D01*
Y9200D01*
X9200D01*
Y700D01*
X9100D01*
M02*
