G04 ================== begin FILE IDENTIFICATION RECORD ==================*
G04 Layout Name:  E:/EMB002/project/hardware/POWER/Power_PPC_V1.brd*
G04 Film Name:    Silk_Bottom*
G04 File Format:  Gerber RS274X*
G04 File Origin:  15.7-p007*
G04 Origin Date:  Thu Jan 17 14:55:20 2008*
G04 *
G04 Layer:  REF DES/ASSEMBLY_BOTTOM*
G04 Layer:  PACKAGE GEOMETRY/SILKSCREEN_BOTTOM*
G04 Layer:  BOARD GEOMETRY/OUTLINE*
G04 *
G04 Offset:    (0.000 0.000)*
G04 Mirror:    No*
G04 Mode:      Positive*
G04 Rotation:  0*
G04 FullContactRelief:  No*
G04 UndefLineWidth:     8.000*
G04 ================== end FILE IDENTIFICATION RECORD ====================*
%FSLAX53Y53*MOIN*%
%IR0*IPPOS*OFA0.00000B0.00000*MIA0B0*SFA1.00000B1.00000*%
%ADD10C,.008*%
G75*
%LPD*%
G75*
G54D10*
G01X-197Y3740D02*
X1850D01*
Y-197D01*
X-197D01*
Y200D01*
X-1200D01*
Y1450D01*
X-197D01*
Y3740D01*
G01X-1020Y540D02*
Y720D01*
X-1000Y740D01*
X-520D01*
Y520D01*
X-1000D01*
X-1020Y540D01*
G01X-476Y555D02*
X-478Y554D01*
X-480Y553D01*
X-482D01*
X-484Y555D01*
X-486Y557D01*
X-487Y559D01*
X-488Y563D01*
X-489Y567D01*
X-488Y571D01*
X-487Y573D01*
X-486Y576D01*
X-484Y578D01*
X-482Y578D01*
X-480D01*
X-478Y578D01*
X-477Y576D01*
X-475Y575D01*
G01X-466Y573D02*
X-464Y576D01*
X-462Y578D01*
X-460Y578D01*
X-458Y578D01*
X-455Y576D01*
X-454Y573D01*
X-454Y571D01*
X-454Y568D01*
X-456Y566D01*
X-458Y565D01*
X-461D01*
G01X-458D02*
X-457Y564D01*
X-455Y562D01*
X-455Y559D01*
X-455Y557D01*
X-457Y555D01*
X-459Y553D01*
X-461Y554D01*
X-464Y555D01*
G01X-443Y575D02*
X-441Y578D01*
X-439Y578D01*
X-436Y578D01*
X-435Y575D01*
X-433Y571D01*
X-433Y568D01*
Y563D01*
X-433Y559D01*
X-435Y556D01*
X-436Y554D01*
X-438Y553D01*
X-440Y554D01*
X-442Y556D01*
X-443Y558D01*
X-443Y562D01*
X-443Y565D01*
X-441Y568D01*
X-440Y569D01*
X-438Y570D01*
X-436Y569D01*
X-434Y567D01*
X-433Y563D01*
G01X-1020Y870D02*
Y1050D01*
X-1000Y1070D01*
X-520D01*
Y850D01*
X-1000D01*
X-1020Y870D01*
G01X-476Y915D02*
X-478Y914D01*
X-480Y913D01*
X-482D01*
X-484Y915D01*
X-486Y917D01*
X-487Y919D01*
X-488Y923D01*
X-489Y927D01*
X-488Y931D01*
X-487Y933D01*
X-486Y936D01*
X-484Y938D01*
X-482Y938D01*
X-480D01*
X-478Y938D01*
X-477Y936D01*
X-475Y935D01*
G01X-457Y938D02*
Y913D01*
X-467Y931D01*
X-453D01*
G01X-438Y938D02*
Y913D01*
X-441Y918D01*
G01Y938D02*
X-435D01*
G01X54Y675D02*
X52Y674D01*
X50Y673D01*
X48D01*
X46Y675D01*
X44Y677D01*
X43Y679D01*
X42Y683D01*
X41Y687D01*
X42Y691D01*
X43Y693D01*
X44Y696D01*
X46Y698D01*
X48Y698D01*
X50D01*
X52Y698D01*
X53Y696D01*
X55Y695D01*
G01X73Y698D02*
Y673D01*
X63Y691D01*
X77D01*
G01X91Y698D02*
X92Y693D01*
X93Y688D01*
X94Y684D01*
X95Y680D01*
X97Y673D01*
X87D01*
G01X1100Y820D02*
Y640D01*
X1080Y620D01*
X600D01*
Y840D01*
X1080D01*
X1100Y820D01*
G01Y600D02*
Y420D01*
X1080Y400D01*
X600D01*
Y620D01*
X1080D01*
X1100Y600D01*
G01X100Y560D02*
Y740D01*
X120Y760D01*
X600D01*
Y540D01*
X120D01*
X100Y560D01*
G01X680Y265D02*
X670D01*
Y315D01*
X695D01*
G01X765D02*
X790D01*
Y265D01*
X780D01*
G01X792Y262D02*
X668D01*
Y318D01*
X792D01*
Y262D01*
G01X550Y265D02*
X540D01*
Y315D01*
X565D01*
G01X635D02*
X660D01*
Y265D01*
X650D01*
G01X662Y262D02*
X538D01*
Y318D01*
X662D01*
Y262D01*
G01X595Y420D02*
Y410D01*
X545D01*
Y435D01*
G01Y505D02*
Y530D01*
X595D01*
Y520D01*
G01X598Y532D02*
Y408D01*
X542D01*
Y532D01*
X598D01*
G01X780Y395D02*
X790D01*
Y345D01*
X765D01*
G01X695D02*
X670D01*
Y395D01*
X680D01*
G01X668Y398D02*
X792D01*
Y342D01*
X668D01*
Y398D01*
G01X662Y342D02*
X538D01*
Y398D01*
X662D01*
Y342D01*
G01X635Y395D02*
X660D01*
Y345D01*
X650D01*
G01X550D02*
X540D01*
Y395D01*
X565D01*
G01X408Y341D02*
X405Y338D01*
X401Y337D01*
X397D01*
X392Y339D01*
X388Y343D01*
X385Y348D01*
X383Y357D01*
X383Y364D01*
X384Y372D01*
X385Y377D01*
X389Y382D01*
X392Y385D01*
X396Y387D01*
X400D01*
X403Y385D01*
X407Y383D01*
X409Y379D01*
G01X428Y377D02*
X431Y383D01*
X436Y386D01*
X441Y387D01*
X445Y386D01*
X449Y382D01*
X452Y377D01*
X452Y372D01*
X451Y366D01*
X447Y362D01*
X444Y360D01*
X439D01*
G01X444D02*
X447Y358D01*
X450Y353D01*
X451Y348D01*
X450Y343D01*
X447Y339D01*
X442Y337D01*
X437Y338D01*
X433Y341D01*
G01X484Y387D02*
X488Y386D01*
X492Y383D01*
X495Y379D01*
X496Y373D01*
X495Y368D01*
X491Y363D01*
X487Y360D01*
X481D01*
X478Y358D01*
X475Y354D01*
X474Y348D01*
X476Y343D01*
X480Y338D01*
X484Y337D01*
X488Y338D01*
X492Y343D01*
X494Y348D01*
X493Y354D01*
X490Y358D01*
X487Y360D01*
X481D01*
X477Y363D01*
X473Y368D01*
X472Y373D01*
X473Y379D01*
X476Y383D01*
X480Y386D01*
X484Y387D01*
G01X499Y448D02*
X502Y445D01*
X503Y441D01*
Y437D01*
X501Y432D01*
X497Y428D01*
X492Y425D01*
X483Y423D01*
X476Y423D01*
X468Y424D01*
X463Y425D01*
X458Y429D01*
X455Y432D01*
X453Y436D01*
Y440D01*
X455Y443D01*
X457Y447D01*
X461Y449D01*
G01X453Y486D02*
X503D01*
X468Y467D01*
Y493D01*
G01X495Y514D02*
X500Y517D01*
X503Y521D01*
X503Y525D01*
X502Y530D01*
X497Y534D01*
X492Y535D01*
X487Y535D01*
X483Y533D01*
X475Y522D01*
X469Y517D01*
X461Y514D01*
X453Y513D01*
Y535D01*
G01X715Y247D02*
Y197D01*
X729D01*
X733Y199D01*
X736Y203D01*
X737Y209D01*
X736Y216D01*
X732Y220D01*
X729Y223D01*
X715D01*
G01X729D02*
X737Y247D01*
G01X770D02*
Y197D01*
X764Y207D01*
G01Y247D02*
X776D01*
G01X820D02*
Y197D01*
X801Y232D01*
X827D01*
G01X545Y257D02*
Y207D01*
X559D01*
X563Y209D01*
X566Y213D01*
X567Y219D01*
X566Y226D01*
X562Y230D01*
X559Y233D01*
X545D01*
G01X559D02*
X567Y257D01*
G01X600D02*
Y207D01*
X594Y217D01*
G01Y257D02*
X606D01*
G01X632Y249D02*
X635Y253D01*
X639Y256D01*
X644Y257D01*
X649Y255D01*
X653Y252D01*
X655Y246D01*
X656Y239D01*
X655Y233D01*
X652Y228D01*
X648Y225D01*
X645Y224D01*
X641Y225D01*
X636Y228D01*
X638Y207D01*
X652D01*
G01X64Y1255D02*
X62Y1254D01*
X60Y1253D01*
X58D01*
X56Y1255D01*
X54Y1257D01*
X53Y1259D01*
X52Y1263D01*
X51Y1267D01*
X52Y1271D01*
X53Y1273D01*
X54Y1276D01*
X56Y1278D01*
X58Y1278D01*
X60D01*
X62Y1278D01*
X63Y1276D01*
X65Y1275D01*
G01X75Y1268D02*
X77Y1265D01*
X78Y1263D01*
X81Y1263D01*
X82Y1263D01*
X84Y1265D01*
X85Y1268D01*
X85Y1270D01*
X85Y1273D01*
X84Y1275D01*
X82Y1278D01*
X80Y1278D01*
X78Y1278D01*
X76Y1275D01*
X75Y1271D01*
X75Y1267D01*
X75Y1262D01*
X76Y1259D01*
X78Y1256D01*
X79Y1254D01*
X81Y1253D01*
X83Y1254D01*
X85Y1256D01*
G01X96Y1275D02*
X98Y1277D01*
X100Y1278D01*
X102Y1278D01*
X104Y1278D01*
X106Y1276D01*
X108Y1273D01*
X108Y1270D01*
X107Y1266D01*
X106Y1264D01*
X104Y1263D01*
X102Y1262D01*
X100Y1263D01*
X98Y1264D01*
X99Y1253D01*
X106D01*
G01X285Y1885D02*
X283Y1884D01*
X281Y1883D01*
X279D01*
X277Y1885D01*
X275Y1887D01*
X274Y1889D01*
X273Y1893D01*
X272Y1897D01*
X273Y1901D01*
X274Y1903D01*
X275Y1906D01*
X277Y1908D01*
X279Y1908D01*
X281D01*
X283Y1908D01*
X284Y1906D01*
X286Y1905D01*
G01X301Y1908D02*
X303Y1908D01*
X305Y1907D01*
X306Y1905D01*
X307Y1902D01*
X306Y1899D01*
X305Y1896D01*
X302Y1895D01*
X300D01*
X298Y1894D01*
X297Y1892D01*
X296Y1889D01*
X297Y1886D01*
X299Y1884D01*
X301Y1883D01*
X303Y1884D01*
X305Y1886D01*
X306Y1889D01*
X305Y1892D01*
X304Y1894D01*
X302Y1895D01*
X300D01*
X297Y1896D01*
X296Y1899D01*
X295Y1902D01*
X296Y1905D01*
X297Y1907D01*
X299Y1908D01*
X301Y1908D01*
G01X320Y1770D02*
Y1950D01*
X340Y1970D01*
X820D01*
Y1750D01*
X340D01*
X320Y1770D01*
G01X110Y1140D02*
Y1320D01*
X130Y1340D01*
X610D01*
Y1120D01*
X130D01*
X110Y1140D01*
G01X800Y1545D02*
X790D01*
Y1595D01*
X815D01*
G01X912Y1542D02*
X788D01*
Y1598D01*
X912D01*
Y1542D01*
G01X835Y1630D02*
Y1620D01*
X785D01*
Y1645D01*
G01Y1715D02*
Y1740D01*
X835D01*
Y1730D01*
G01X838Y1742D02*
Y1618D01*
X782D01*
Y1742D01*
X838D01*
G01X800Y1465D02*
X790D01*
Y1515D01*
X815D01*
G01X912Y1462D02*
X788D01*
Y1518D01*
X912D01*
Y1462D01*
G01X1130Y1410D02*
Y1230D01*
X1110Y1210D01*
X630D01*
Y1430D01*
X1110D01*
X1130Y1410D01*
G01Y1190D02*
Y1010D01*
X1110Y990D01*
X630D01*
Y1210D01*
X1110D01*
X1130Y1190D01*
G01X595Y1000D02*
Y990D01*
X545D01*
Y1015D01*
G01Y1085D02*
Y1110D01*
X595D01*
Y1100D01*
G01X598Y1112D02*
Y988D01*
X542D01*
Y1112D01*
X598D01*
G01X780Y985D02*
X790D01*
Y935D01*
X765D01*
G01X695D02*
X670D01*
Y985D01*
X680D01*
G01X668Y988D02*
X792D01*
Y932D01*
X668D01*
Y988D01*
G01X662Y932D02*
X538D01*
Y988D01*
X662D01*
Y932D01*
G01X635Y985D02*
X660D01*
Y935D01*
X650D01*
G01X550D02*
X540D01*
Y985D01*
X565D01*
G01X550Y855D02*
X540D01*
Y905D01*
X565D01*
G01X635D02*
X660D01*
Y855D01*
X650D01*
G01X662Y852D02*
X538D01*
Y908D01*
X662D01*
Y852D01*
G01X680Y855D02*
X670D01*
Y905D01*
X695D01*
G01X765D02*
X790D01*
Y855D01*
X780D01*
G01X792Y852D02*
X668D01*
Y908D01*
X792D01*
Y852D01*
G01X395Y907D02*
Y857D01*
X409D01*
X413Y859D01*
X416Y863D01*
X417Y869D01*
X416Y876D01*
X412Y880D01*
X409Y883D01*
X395D01*
G01X409D02*
X417Y907D01*
G01X440Y865D02*
X443Y860D01*
X447Y858D01*
X451Y857D01*
X456Y858D01*
X460Y863D01*
X461Y868D01*
X461Y873D01*
X459Y877D01*
X448Y885D01*
X443Y891D01*
X440Y899D01*
X439Y907D01*
X461D01*
G01X494Y857D02*
X490Y858D01*
X487Y863D01*
X484Y868D01*
X483Y874D01*
X482Y882D01*
X483Y889D01*
X484Y896D01*
X487Y901D01*
X490Y905D01*
X494Y907D01*
X498Y905D01*
X501Y901D01*
X504Y896D01*
X505Y889D01*
X506Y882D01*
X505Y874D01*
X504Y868D01*
X501Y863D01*
X498Y858D01*
X494Y857D01*
G01X418Y931D02*
X415Y928D01*
X411Y927D01*
X407D01*
X402Y929D01*
X398Y933D01*
X395Y938D01*
X393Y947D01*
X393Y954D01*
X394Y962D01*
X395Y967D01*
X399Y972D01*
X402Y975D01*
X406Y977D01*
X410D01*
X413Y975D01*
X417Y973D01*
X419Y969D01*
G01X438D02*
X441Y973D01*
X445Y976D01*
X450Y977D01*
X455Y975D01*
X459Y972D01*
X461Y966D01*
X462Y959D01*
X461Y953D01*
X458Y948D01*
X454Y945D01*
X451Y944D01*
X447Y945D01*
X442Y948D01*
X444Y927D01*
X458D01*
G01X494D02*
X490Y928D01*
X487Y933D01*
X484Y938D01*
X483Y944D01*
X482Y952D01*
X483Y959D01*
X484Y966D01*
X487Y971D01*
X490Y975D01*
X494Y977D01*
X498Y975D01*
X501Y971D01*
X504Y966D01*
X505Y959D01*
X506Y952D01*
X505Y944D01*
X504Y938D01*
X501Y933D01*
X498Y928D01*
X494Y927D01*
G01X499Y1018D02*
X502Y1015D01*
X503Y1011D01*
Y1007D01*
X501Y1002D01*
X497Y998D01*
X492Y995D01*
X483Y993D01*
X476Y993D01*
X468Y994D01*
X463Y995D01*
X458Y999D01*
X455Y1002D01*
X453Y1006D01*
Y1010D01*
X455Y1013D01*
X457Y1017D01*
X461Y1019D01*
G01X474Y1040D02*
X480Y1044D01*
X483Y1047D01*
X485Y1051D01*
X483Y1055D01*
X480Y1057D01*
X475Y1060D01*
X469Y1060D01*
X464Y1060D01*
X459Y1057D01*
X455Y1054D01*
X453Y1051D01*
X455Y1046D01*
X460Y1043D01*
X468Y1040D01*
X476Y1040D01*
X487Y1041D01*
X492Y1043D01*
X498Y1045D01*
X503Y1049D01*
X503Y1053D01*
X502Y1056D01*
X497Y1059D01*
G01X453Y1094D02*
X503D01*
X493Y1088D01*
G01X453D02*
Y1100D01*
G01X677Y1517D02*
Y1467D01*
X691D01*
X695Y1469D01*
X698Y1473D01*
X699Y1479D01*
X698Y1486D01*
X694Y1490D01*
X691Y1493D01*
X677D01*
G01X691D02*
X699Y1517D01*
G01X720Y1509D02*
X723Y1513D01*
X727Y1516D01*
X732Y1517D01*
X737Y1515D01*
X741Y1512D01*
X743Y1506D01*
X744Y1499D01*
X743Y1493D01*
X740Y1488D01*
X736Y1485D01*
X733Y1484D01*
X729Y1485D01*
X724Y1488D01*
X726Y1467D01*
X740D01*
G01X729Y1680D02*
X732Y1677D01*
X733Y1673D01*
Y1669D01*
X731Y1664D01*
X727Y1660D01*
X722Y1657D01*
X713Y1655D01*
X706Y1655D01*
X698Y1656D01*
X693Y1657D01*
X688Y1661D01*
X685Y1664D01*
X683Y1668D01*
Y1672D01*
X685Y1675D01*
X687Y1679D01*
X691Y1681D01*
G01X704Y1702D02*
X710Y1706D01*
X713Y1709D01*
X715Y1713D01*
X713Y1717D01*
X710Y1719D01*
X705Y1722D01*
X699Y1722D01*
X694Y1722D01*
X689Y1719D01*
X685Y1716D01*
X683Y1713D01*
X685Y1708D01*
X690Y1705D01*
X698Y1702D01*
X706Y1702D01*
X717Y1703D01*
X722Y1705D01*
X728Y1707D01*
X732Y1711D01*
X733Y1715D01*
X732Y1718D01*
X727Y1721D01*
G01X700Y1561D02*
X697Y1558D01*
X693Y1557D01*
X689D01*
X684Y1559D01*
X680Y1563D01*
X677Y1568D01*
X675Y1577D01*
X675Y1584D01*
X676Y1592D01*
X677Y1597D01*
X681Y1602D01*
X684Y1605D01*
X688Y1607D01*
X692D01*
X695Y1605D01*
X699Y1603D01*
X701Y1599D01*
G01X720Y1597D02*
X723Y1603D01*
X728Y1606D01*
X733Y1607D01*
X737Y1606D01*
X741Y1602D01*
X744Y1597D01*
X744Y1592D01*
X743Y1586D01*
X739Y1582D01*
X736Y1580D01*
X731D01*
G01X736D02*
X739Y1578D01*
X742Y1573D01*
X743Y1568D01*
X742Y1563D01*
X739Y1559D01*
X734Y1557D01*
X729Y1558D01*
X725Y1561D01*
G01X554Y2565D02*
X552Y2564D01*
X550Y2563D01*
X548D01*
X546Y2565D01*
X544Y2567D01*
X543Y2569D01*
X542Y2573D01*
X541Y2577D01*
X542Y2581D01*
X543Y2583D01*
X544Y2586D01*
X546Y2588D01*
X548Y2588D01*
X550D01*
X552Y2588D01*
X553Y2586D01*
X555Y2585D01*
G01X564Y2583D02*
X566Y2586D01*
X568Y2588D01*
X570Y2588D01*
X572Y2588D01*
X575Y2586D01*
X576Y2583D01*
X576Y2581D01*
X576Y2578D01*
X574Y2576D01*
X572Y2575D01*
X569D01*
G01X572D02*
X573Y2574D01*
X575Y2572D01*
X575Y2569D01*
X575Y2567D01*
X573Y2565D01*
X571Y2563D01*
X569Y2564D01*
X566Y2565D01*
G01X586Y2583D02*
X588Y2586D01*
X590Y2588D01*
X592Y2588D01*
X594Y2588D01*
X597Y2586D01*
X598Y2583D01*
X598Y2581D01*
X598Y2578D01*
X596Y2576D01*
X594Y2575D01*
X591D01*
G01X594D02*
X595Y2574D01*
X597Y2572D01*
X597Y2569D01*
X597Y2567D01*
X595Y2565D01*
X593Y2563D01*
X591Y2564D01*
X588Y2565D01*
G01X549Y3208D02*
X552Y3205D01*
X553Y3201D01*
Y3197D01*
X551Y3192D01*
X547Y3188D01*
X542Y3185D01*
X533Y3183D01*
X526Y3183D01*
X518Y3184D01*
X513Y3185D01*
X508Y3189D01*
X505Y3192D01*
X503Y3196D01*
Y3200D01*
X505Y3203D01*
X507Y3207D01*
X511Y3209D01*
G01X545Y3230D02*
X550Y3233D01*
X552Y3237D01*
X553Y3241D01*
X552Y3246D01*
X547Y3250D01*
X542Y3251D01*
X537Y3251D01*
X533Y3249D01*
X525Y3238D01*
X519Y3233D01*
X511Y3230D01*
X503Y3229D01*
Y3251D01*
G01X513Y3272D02*
X507Y3275D01*
X504Y3280D01*
X503Y3285D01*
X504Y3289D01*
X508Y3293D01*
X513Y3296D01*
X518Y3296D01*
X524Y3295D01*
X528Y3291D01*
X530Y3288D01*
Y3283D01*
G01Y3288D02*
X532Y3291D01*
X537Y3294D01*
X542Y3295D01*
X547Y3294D01*
X551Y3291D01*
X553Y3286D01*
X552Y3281D01*
X549Y3277D01*
G01X488Y2751D02*
X485Y2748D01*
X481Y2747D01*
X477D01*
X472Y2749D01*
X468Y2753D01*
X465Y2758D01*
X463Y2767D01*
X463Y2774D01*
X464Y2782D01*
X465Y2787D01*
X469Y2792D01*
X472Y2795D01*
X476Y2797D01*
X480D01*
X483Y2795D01*
X487Y2793D01*
X489Y2789D01*
G01X508Y2787D02*
X511Y2793D01*
X516Y2796D01*
X521Y2797D01*
X525Y2796D01*
X529Y2792D01*
X532Y2787D01*
X532Y2782D01*
X531Y2776D01*
X527Y2772D01*
X524Y2770D01*
X519D01*
G01X524D02*
X527Y2768D01*
X530Y2763D01*
X531Y2758D01*
X530Y2753D01*
X527Y2749D01*
X522Y2747D01*
X517Y2748D01*
X513Y2751D01*
G01X570Y2797D02*
Y2747D01*
X551Y2782D01*
X577D01*
G01X340Y2350D02*
Y2530D01*
X360Y2550D01*
X840D01*
Y2330D01*
X360D01*
X340Y2350D01*
G01X505Y3150D02*
Y3160D01*
X555D01*
Y3135D01*
G01Y3065D02*
Y3040D01*
X505D01*
Y3050D01*
G01X502Y3038D02*
Y3162D01*
X558D01*
Y3038D01*
X502D01*
G01X165Y3130D02*
Y3230D01*
X225Y3170D01*
X165Y3110D01*
Y3130D01*
G01X5Y3290D02*
X375D01*
Y3050D01*
X5D01*
Y3290D01*
G01X250Y3050D02*
X430D01*
X450Y3030D01*
Y2550D01*
X230D01*
Y3030D01*
X250Y3050D01*
G01X20D02*
X200D01*
X220Y3030D01*
Y2550D01*
X0D01*
Y3030D01*
X20Y3050D01*
G01X570Y2865D02*
X580D01*
Y2815D01*
X555D01*
G01X485D02*
X460D01*
Y2865D01*
X470D01*
G01X570Y2965D02*
X580D01*
Y2915D01*
X555D01*
G01X485D02*
X460D01*
Y2965D01*
X470D01*
G01X458Y2968D02*
X582D01*
Y2912D01*
X458D01*
Y2968D01*
G01X845Y2210D02*
Y2200D01*
X795D01*
Y2225D01*
G01Y2295D02*
Y2320D01*
X845D01*
Y2310D01*
G01X848Y2322D02*
Y2198D01*
X792D01*
Y2322D01*
X848D01*
G01X922Y2142D02*
X798D01*
Y2198D01*
X922D01*
Y2142D01*
G01Y2062D02*
X798D01*
Y2118D01*
X922D01*
Y2062D01*
G01X458Y2868D02*
X582D01*
Y2812D01*
X458D01*
Y2868D01*
G01X465Y3027D02*
Y2977D01*
X479D01*
X483Y2979D01*
X486Y2983D01*
X487Y2989D01*
X486Y2996D01*
X482Y3000D01*
X479Y3003D01*
X465D01*
G01X479D02*
X487Y3027D01*
G01X510Y2985D02*
X513Y2980D01*
X517Y2978D01*
X521Y2977D01*
X526Y2978D01*
X530Y2983D01*
X531Y2988D01*
X531Y2993D01*
X529Y2997D01*
X518Y3005D01*
X513Y3011D01*
X510Y3019D01*
X509Y3027D01*
X531D01*
G01X564D02*
Y2977D01*
X558Y2987D01*
G01Y3027D02*
X570D01*
G01X645Y2127D02*
Y2077D01*
X659D01*
X663Y2079D01*
X666Y2083D01*
X667Y2089D01*
X666Y2096D01*
X662Y2100D01*
X659Y2103D01*
X645D01*
G01X659D02*
X667Y2127D01*
G01X700D02*
Y2077D01*
X694Y2087D01*
G01Y2127D02*
X706D01*
G01X744Y2077D02*
X740Y2078D01*
X737Y2083D01*
X734Y2088D01*
X733Y2094D01*
X732Y2102D01*
X733Y2109D01*
X734Y2116D01*
X737Y2121D01*
X740Y2125D01*
X744Y2127D01*
X748Y2125D01*
X751Y2121D01*
X754Y2116D01*
X755Y2109D01*
X756Y2102D01*
X755Y2094D01*
X754Y2088D01*
X751Y2083D01*
X748Y2078D01*
X744Y2077D01*
G01X668Y2151D02*
X665Y2148D01*
X661Y2147D01*
X657D01*
X652Y2149D01*
X648Y2153D01*
X645Y2158D01*
X643Y2167D01*
X643Y2174D01*
X644Y2182D01*
X645Y2187D01*
X649Y2192D01*
X652Y2195D01*
X656Y2197D01*
X660D01*
X663Y2195D01*
X667Y2193D01*
X669Y2189D01*
G01X690Y2155D02*
X693Y2150D01*
X697Y2148D01*
X701Y2147D01*
X706Y2148D01*
X710Y2153D01*
X711Y2158D01*
X711Y2163D01*
X709Y2167D01*
X698Y2175D01*
X693Y2181D01*
X690Y2189D01*
X689Y2197D01*
X711D01*
G01X744Y2147D02*
X740Y2148D01*
X737Y2153D01*
X734Y2158D01*
X733Y2164D01*
X732Y2172D01*
X733Y2179D01*
X734Y2186D01*
X737Y2191D01*
X740Y2195D01*
X744Y2197D01*
X748Y2195D01*
X751Y2191D01*
X754Y2186D01*
X755Y2179D01*
X756Y2172D01*
X755Y2164D01*
X754Y2158D01*
X751Y2153D01*
X748Y2148D01*
X744Y2147D01*
G01X739Y2238D02*
X742Y2235D01*
X743Y2231D01*
Y2227D01*
X741Y2222D01*
X737Y2218D01*
X732Y2215D01*
X723Y2213D01*
X716Y2213D01*
X708Y2214D01*
X703Y2215D01*
X698Y2219D01*
X695Y2222D01*
X693Y2226D01*
Y2230D01*
X695Y2233D01*
X697Y2237D01*
X701Y2239D01*
G01X735Y2260D02*
X740Y2263D01*
X742Y2267D01*
X743Y2271D01*
X742Y2276D01*
X737Y2280D01*
X732Y2281D01*
X727Y2281D01*
X723Y2279D01*
X715Y2268D01*
X709Y2263D01*
X701Y2260D01*
X693Y2259D01*
Y2281D01*
G01Y2313D02*
X704Y2314D01*
X713Y2316D01*
X722Y2318D01*
X731Y2320D01*
X743Y2325D01*
Y2303D01*
G01X285Y2494D02*
X286Y2492D01*
X287Y2490D01*
Y2488D01*
X285Y2486D01*
X283Y2484D01*
X281Y2483D01*
X277Y2482D01*
X273Y2481D01*
X269Y2482D01*
X267Y2483D01*
X264Y2484D01*
X262Y2486D01*
X262Y2488D01*
Y2490D01*
X262Y2492D01*
X264Y2493D01*
X265Y2495D01*
G01X282Y2505D02*
X285Y2507D01*
X286Y2508D01*
X287Y2511D01*
X286Y2513D01*
X284Y2515D01*
X281Y2516D01*
X279Y2515D01*
X277Y2514D01*
X272Y2509D01*
X270Y2507D01*
X265Y2505D01*
X262Y2504D01*
Y2516D01*
G01X265Y2526D02*
X263Y2528D01*
X262Y2530D01*
X262Y2532D01*
X262Y2534D01*
X264Y2536D01*
X267Y2538D01*
X270Y2538D01*
X274Y2537D01*
X276Y2536D01*
X277Y2534D01*
X278Y2532D01*
X277Y2530D01*
X276Y2528D01*
X287Y2529D01*
Y2536D01*
G01X-15Y2824D02*
X-14Y2822D01*
X-13Y2820D01*
Y2818D01*
X-15Y2816D01*
X-17Y2814D01*
X-19Y2813D01*
X-23Y2812D01*
X-27Y2811D01*
X-31Y2812D01*
X-33Y2813D01*
X-36Y2814D01*
X-38Y2816D01*
X-38Y2818D01*
Y2820D01*
X-38Y2822D01*
X-36Y2823D01*
X-35Y2825D01*
G01X-18Y2835D02*
X-15Y2837D01*
X-14Y2838D01*
X-13Y2841D01*
X-14Y2843D01*
X-16Y2845D01*
X-19Y2846D01*
X-21Y2845D01*
X-23Y2844D01*
X-28Y2839D01*
X-30Y2837D01*
X-35Y2835D01*
X-38Y2834D01*
Y2846D01*
G01X-28Y2857D02*
X-25Y2859D01*
X-23Y2860D01*
X-22Y2863D01*
X-23Y2864D01*
X-25Y2866D01*
X-28Y2867D01*
X-30Y2867D01*
X-33Y2867D01*
X-35Y2866D01*
X-38Y2864D01*
X-38Y2862D01*
X-38Y2860D01*
X-35Y2858D01*
X-31Y2857D01*
X-27Y2857D01*
X-22Y2857D01*
X-19Y2858D01*
X-16Y2860D01*
X-14Y2861D01*
X-13Y2863D01*
X-14Y2865D01*
X-16Y2867D01*
G01X-37Y3238D02*
Y3213D01*
X-32D01*
X-29Y3215D01*
X-28Y3216D01*
X-26Y3219D01*
X-25Y3222D01*
X-25Y3226D01*
X-25Y3230D01*
X-26Y3233D01*
X-28Y3235D01*
X-29Y3237D01*
X-32Y3238D01*
X-37D01*
G01X-9D02*
Y3213D01*
X-12Y3218D01*
G01Y3238D02*
X-6D01*
G01X858Y341D02*
X855Y338D01*
X851Y337D01*
X847D01*
X842Y339D01*
X838Y343D01*
X835Y348D01*
X833Y357D01*
X833Y364D01*
X834Y372D01*
X835Y377D01*
X839Y382D01*
X842Y385D01*
X846Y387D01*
X850D01*
X853Y385D01*
X857Y383D01*
X859Y379D01*
G01X878Y377D02*
X881Y383D01*
X886Y386D01*
X891Y387D01*
X895Y386D01*
X899Y382D01*
X902Y377D01*
X902Y372D01*
X901Y366D01*
X897Y362D01*
X894Y360D01*
X889D01*
G01X894D02*
X897Y358D01*
X900Y353D01*
X901Y348D01*
X900Y343D01*
X897Y339D01*
X892Y337D01*
X887Y338D01*
X883Y341D01*
G01X922Y379D02*
X925Y383D01*
X929Y386D01*
X934Y387D01*
X939Y385D01*
X943Y382D01*
X945Y376D01*
X946Y369D01*
X945Y363D01*
X942Y358D01*
X938Y355D01*
X935Y354D01*
X931Y355D01*
X926Y358D01*
X928Y337D01*
X942D01*
G01X1230Y375D02*
Y305D01*
X1130D01*
Y325D01*
Y375D01*
G01X1230Y556D02*
Y304D01*
X1130D01*
Y556D01*
X1230D01*
G01D02*
Y540D01*
X1130D01*
Y556D01*
X1230D01*
G01X1580Y210D02*
Y30D01*
X1560Y10D01*
X1080D01*
Y230D01*
X1560D01*
X1580Y210D01*
G01X1220Y966D02*
Y714D01*
X1120D01*
Y966D01*
X1220D01*
G01Y785D02*
Y715D01*
X1120D01*
Y735D01*
Y785D01*
G01X1114Y665D02*
X1112Y664D01*
X1110Y663D01*
X1108D01*
X1106Y665D01*
X1104Y667D01*
X1103Y669D01*
X1102Y673D01*
X1101Y677D01*
X1102Y681D01*
X1103Y683D01*
X1104Y686D01*
X1106Y688D01*
X1108Y688D01*
X1110D01*
X1112Y688D01*
X1113Y686D01*
X1115Y685D01*
G01X1133Y688D02*
Y663D01*
X1123Y681D01*
X1137D01*
G01X1155Y688D02*
Y663D01*
X1145Y681D01*
X1159D01*
G01X1124Y575D02*
X1122Y574D01*
X1120Y573D01*
X1118D01*
X1116Y575D01*
X1114Y577D01*
X1113Y579D01*
X1112Y583D01*
X1111Y587D01*
X1112Y591D01*
X1113Y593D01*
X1114Y596D01*
X1116Y598D01*
X1118Y598D01*
X1120D01*
X1122Y598D01*
X1123Y596D01*
X1125Y595D01*
G01X1143Y598D02*
Y573D01*
X1133Y591D01*
X1147D01*
G01X1156Y593D02*
X1158Y596D01*
X1160Y598D01*
X1162Y598D01*
X1164Y598D01*
X1167Y596D01*
X1168Y593D01*
X1168Y591D01*
X1168Y588D01*
X1166Y586D01*
X1164Y585D01*
X1161D01*
G01X1164D02*
X1165Y584D01*
X1167Y582D01*
X1167Y579D01*
X1167Y577D01*
X1165Y575D01*
X1163Y573D01*
X1161Y574D01*
X1158Y575D01*
G01X1444Y-45D02*
X1442Y-46D01*
X1440Y-47D01*
X1438D01*
X1436Y-45D01*
X1434Y-43D01*
X1433Y-41D01*
X1432Y-37D01*
X1431Y-33D01*
X1432Y-29D01*
X1433Y-27D01*
X1434Y-24D01*
X1436Y-22D01*
X1438Y-22D01*
X1440D01*
X1442Y-22D01*
X1443Y-24D01*
X1445Y-25D01*
G01X1455Y-32D02*
X1457Y-35D01*
X1458Y-37D01*
X1461Y-38D01*
X1462Y-37D01*
X1464Y-35D01*
X1465Y-32D01*
X1465Y-30D01*
X1465Y-27D01*
X1464Y-25D01*
X1462Y-22D01*
X1460Y-22D01*
X1458Y-22D01*
X1456Y-25D01*
X1455Y-29D01*
X1455Y-33D01*
X1455Y-38D01*
X1456Y-41D01*
X1458Y-44D01*
X1459Y-46D01*
X1461Y-47D01*
X1463Y-46D01*
X1465Y-44D01*
G01X1482Y-47D02*
X1480Y-46D01*
X1478Y-44D01*
X1477Y-41D01*
X1476Y-38D01*
X1476Y-34D01*
X1476Y-30D01*
X1477Y-27D01*
X1478Y-25D01*
X1480Y-22D01*
X1482Y-22D01*
X1484Y-22D01*
X1486Y-25D01*
X1487Y-27D01*
X1488Y-30D01*
X1488Y-34D01*
X1488Y-38D01*
X1487Y-41D01*
X1486Y-44D01*
X1484Y-46D01*
X1482Y-47D01*
G01X1299Y428D02*
X1302Y425D01*
X1303Y421D01*
Y417D01*
X1301Y412D01*
X1297Y408D01*
X1292Y405D01*
X1283Y403D01*
X1276Y403D01*
X1268Y404D01*
X1263Y405D01*
X1258Y409D01*
X1255Y412D01*
X1253Y416D01*
Y420D01*
X1255Y423D01*
X1257Y427D01*
X1261Y429D01*
G01Y448D02*
X1257Y451D01*
X1254Y455D01*
X1253Y460D01*
X1255Y465D01*
X1258Y469D01*
X1264Y471D01*
X1271Y472D01*
X1277Y471D01*
X1282Y468D01*
X1285Y464D01*
X1286Y461D01*
X1285Y457D01*
X1282Y452D01*
X1303Y454D01*
Y468D01*
G01X1259Y495D02*
X1255Y499D01*
X1253Y503D01*
X1255Y507D01*
X1260Y511D01*
X1268Y514D01*
X1275Y515D01*
X1284D01*
X1292Y514D01*
X1298Y511D01*
X1302Y508D01*
X1303Y504D01*
X1302Y500D01*
X1298Y497D01*
X1293Y494D01*
X1287Y493D01*
X1281Y494D01*
X1275Y497D01*
X1272Y500D01*
X1271Y504D01*
X1272Y508D01*
X1277Y511D01*
X1284Y515D01*
G01X1080Y1541D02*
X1077Y1538D01*
X1073Y1537D01*
X1069D01*
X1064Y1539D01*
X1060Y1543D01*
X1057Y1548D01*
X1055Y1557D01*
X1055Y1564D01*
X1056Y1572D01*
X1057Y1577D01*
X1061Y1582D01*
X1064Y1585D01*
X1068Y1587D01*
X1072D01*
X1075Y1585D01*
X1079Y1583D01*
X1081Y1579D01*
G01X1112Y1587D02*
Y1537D01*
X1106Y1547D01*
G01Y1587D02*
X1118D01*
G01X858Y931D02*
X855Y928D01*
X851Y927D01*
X847D01*
X842Y929D01*
X838Y933D01*
X835Y938D01*
X833Y947D01*
X833Y954D01*
X834Y962D01*
X835Y967D01*
X839Y972D01*
X842Y975D01*
X846Y977D01*
X850D01*
X853Y975D01*
X857Y973D01*
X859Y969D01*
G01X896Y977D02*
Y927D01*
X877Y962D01*
X903D01*
G01X925Y971D02*
X929Y975D01*
X933Y977D01*
X937Y975D01*
X941Y970D01*
X944Y962D01*
X945Y955D01*
Y946D01*
X944Y938D01*
X941Y932D01*
X938Y928D01*
X934Y927D01*
X930Y928D01*
X927Y932D01*
X924Y937D01*
X923Y943D01*
X924Y949D01*
X927Y955D01*
X930Y958D01*
X934Y959D01*
X938Y958D01*
X941Y953D01*
X945Y946D01*
G01X885Y1595D02*
X910D01*
Y1545D01*
X900D01*
G01X1340Y2020D02*
Y1840D01*
X1320Y1820D01*
X840D01*
Y2040D01*
X1320D01*
X1340Y2020D01*
G01X918Y1598D02*
X1042D01*
Y1542D01*
X918D01*
Y1598D01*
G01X945Y1545D02*
X920D01*
Y1595D01*
X930D01*
G01X1030D02*
X1040D01*
Y1545D01*
X1015D01*
G01X1350Y1800D02*
Y1620D01*
X1330Y1600D01*
X850D01*
Y1820D01*
X1330D01*
X1350Y1800D01*
G01X885Y1515D02*
X910D01*
Y1465D01*
X900D01*
G01X930D02*
X920D01*
Y1515D01*
X945D01*
G01X1015D02*
X1040D01*
Y1465D01*
X1030D01*
G01X1042Y1462D02*
X918D01*
Y1518D01*
X1042D01*
Y1462D01*
G01X825Y897D02*
Y847D01*
X839D01*
X843Y849D01*
X846Y853D01*
X847Y859D01*
X846Y866D01*
X842Y870D01*
X839Y873D01*
X825D01*
G01X839D02*
X847Y897D01*
G01X880D02*
Y847D01*
X874Y857D01*
G01Y897D02*
X886D01*
G01X915Y891D02*
X919Y895D01*
X923Y897D01*
X927Y895D01*
X931Y890D01*
X934Y883D01*
X935Y875D01*
Y866D01*
X934Y858D01*
X931Y852D01*
X928Y848D01*
X924Y847D01*
X920Y848D01*
X917Y852D01*
X914Y857D01*
X913Y863D01*
X914Y869D01*
X917Y875D01*
X920Y878D01*
X924Y879D01*
X928Y878D01*
X931Y873D01*
X935Y866D01*
G01X1154Y1315D02*
X1152Y1314D01*
X1150Y1313D01*
X1148D01*
X1146Y1315D01*
X1144Y1317D01*
X1143Y1319D01*
X1142Y1323D01*
X1141Y1327D01*
X1142Y1331D01*
X1143Y1333D01*
X1144Y1336D01*
X1146Y1338D01*
X1148Y1338D01*
X1150D01*
X1152Y1338D01*
X1153Y1336D01*
X1155Y1335D01*
G01X1165Y1328D02*
X1167Y1325D01*
X1168Y1323D01*
X1171Y1322D01*
X1172Y1323D01*
X1174Y1325D01*
X1175Y1328D01*
X1175Y1330D01*
X1175Y1333D01*
X1174Y1335D01*
X1172Y1338D01*
X1170Y1338D01*
X1168Y1338D01*
X1166Y1335D01*
X1165Y1331D01*
X1165Y1327D01*
X1165Y1322D01*
X1166Y1319D01*
X1168Y1316D01*
X1169Y1314D01*
X1171Y1313D01*
X1173Y1314D01*
X1175Y1316D01*
G01X1186Y1333D02*
X1188Y1336D01*
X1190Y1338D01*
X1192Y1338D01*
X1194Y1338D01*
X1197Y1336D01*
X1198Y1333D01*
X1198Y1331D01*
X1198Y1328D01*
X1196Y1326D01*
X1194Y1325D01*
X1191D01*
G01X1194D02*
X1195Y1324D01*
X1197Y1322D01*
X1197Y1319D01*
X1197Y1317D01*
X1195Y1315D01*
X1193Y1313D01*
X1191Y1314D01*
X1188Y1315D01*
G01X1127Y1507D02*
Y1457D01*
X1141D01*
X1145Y1459D01*
X1148Y1463D01*
X1149Y1469D01*
X1148Y1476D01*
X1144Y1480D01*
X1141Y1483D01*
X1127D01*
G01X1141D02*
X1149Y1507D01*
G01X1188D02*
Y1457D01*
X1169Y1492D01*
X1195D01*
G01X1385Y1665D02*
X1383Y1664D01*
X1381Y1663D01*
X1379D01*
X1377Y1665D01*
X1375Y1667D01*
X1374Y1669D01*
X1373Y1673D01*
X1372Y1677D01*
X1373Y1681D01*
X1374Y1683D01*
X1375Y1686D01*
X1377Y1688D01*
X1379Y1688D01*
X1381D01*
X1383Y1688D01*
X1384Y1686D01*
X1386Y1685D01*
G01X1400Y1688D02*
X1401Y1683D01*
X1402Y1678D01*
X1403Y1674D01*
X1404Y1670D01*
X1406Y1663D01*
X1396D01*
G01X1364Y1855D02*
X1362Y1854D01*
X1360Y1853D01*
X1358D01*
X1356Y1855D01*
X1354Y1857D01*
X1353Y1859D01*
X1352Y1863D01*
X1351Y1867D01*
X1352Y1871D01*
X1353Y1873D01*
X1354Y1876D01*
X1356Y1878D01*
X1358Y1878D01*
X1360D01*
X1362Y1878D01*
X1363Y1876D01*
X1365Y1875D01*
G01X1380Y1878D02*
Y1853D01*
X1377Y1858D01*
G01Y1878D02*
X1383D01*
G01X1402Y1853D02*
X1400Y1854D01*
X1398Y1856D01*
X1397Y1859D01*
X1396Y1862D01*
X1396Y1866D01*
X1396Y1870D01*
X1397Y1873D01*
X1398Y1875D01*
X1400Y1878D01*
X1402Y1878D01*
X1404Y1878D01*
X1406Y1875D01*
X1407Y1873D01*
X1408Y1870D01*
X1408Y1866D01*
X1408Y1862D01*
X1407Y1859D01*
X1406Y1856D01*
X1404Y1854D01*
X1402Y1853D01*
G01X1500Y1005D02*
Y1075D01*
X1600D01*
Y1055D01*
Y1005D01*
G01X1500Y824D02*
Y1076D01*
X1600D01*
Y824D01*
X1500D01*
G01D02*
Y840D01*
X1600D01*
Y824D01*
X1500D01*
G01X1220Y966D02*
Y950D01*
X1120D01*
Y966D01*
X1220D01*
G01X1144Y1145D02*
X1142Y1144D01*
X1140Y1143D01*
X1138D01*
X1136Y1145D01*
X1134Y1147D01*
X1133Y1149D01*
X1132Y1153D01*
X1131Y1157D01*
X1132Y1161D01*
X1133Y1163D01*
X1134Y1166D01*
X1136Y1168D01*
X1138Y1168D01*
X1140D01*
X1142Y1168D01*
X1143Y1166D01*
X1145Y1165D01*
G01X1155Y1158D02*
X1157Y1155D01*
X1158Y1153D01*
X1161Y1153D01*
X1162Y1153D01*
X1164Y1155D01*
X1165Y1158D01*
X1165Y1160D01*
X1165Y1163D01*
X1164Y1165D01*
X1162Y1168D01*
X1160Y1168D01*
X1158Y1168D01*
X1156Y1165D01*
X1155Y1161D01*
X1155Y1157D01*
X1155Y1152D01*
X1156Y1149D01*
X1158Y1146D01*
X1159Y1144D01*
X1161Y1143D01*
X1163Y1144D01*
X1165Y1146D01*
G01X1177Y1148D02*
X1179Y1145D01*
X1180Y1144D01*
X1183Y1143D01*
X1185Y1144D01*
X1187Y1146D01*
X1188Y1149D01*
X1187Y1151D01*
X1186Y1153D01*
X1181Y1158D01*
X1179Y1160D01*
X1177Y1165D01*
X1176Y1168D01*
X1188D01*
G01X1289Y828D02*
X1292Y825D01*
X1293Y821D01*
Y817D01*
X1291Y812D01*
X1287Y808D01*
X1282Y805D01*
X1273Y803D01*
X1266Y803D01*
X1258Y804D01*
X1253Y805D01*
X1248Y809D01*
X1245Y812D01*
X1243Y816D01*
Y820D01*
X1245Y823D01*
X1247Y827D01*
X1251Y829D01*
G01Y848D02*
X1247Y851D01*
X1244Y855D01*
X1243Y860D01*
X1245Y865D01*
X1248Y869D01*
X1254Y871D01*
X1261Y872D01*
X1267Y871D01*
X1272Y868D01*
X1275Y864D01*
X1276Y861D01*
X1275Y857D01*
X1272Y852D01*
X1293Y854D01*
Y868D01*
G01X1243Y910D02*
X1293D01*
X1258Y891D01*
Y917D01*
G01X1569Y1118D02*
X1572Y1115D01*
X1573Y1111D01*
Y1107D01*
X1571Y1102D01*
X1567Y1098D01*
X1562Y1095D01*
X1553Y1093D01*
X1546Y1093D01*
X1538Y1094D01*
X1533Y1095D01*
X1528Y1099D01*
X1525Y1102D01*
X1523Y1106D01*
Y1110D01*
X1525Y1113D01*
X1527Y1117D01*
X1531Y1119D01*
G01Y1138D02*
X1527Y1141D01*
X1524Y1145D01*
X1523Y1150D01*
X1525Y1155D01*
X1528Y1159D01*
X1534Y1161D01*
X1541Y1162D01*
X1547Y1161D01*
X1552Y1158D01*
X1555Y1154D01*
X1556Y1151D01*
X1555Y1147D01*
X1552Y1142D01*
X1573Y1144D01*
Y1158D01*
G01X1523Y1193D02*
X1534Y1194D01*
X1543Y1196D01*
X1552Y1198D01*
X1561Y1200D01*
X1573Y1205D01*
Y1183D01*
G01X1078Y2151D02*
X1075Y2148D01*
X1071Y2147D01*
X1067D01*
X1062Y2149D01*
X1058Y2153D01*
X1055Y2158D01*
X1053Y2167D01*
X1053Y2174D01*
X1054Y2182D01*
X1055Y2187D01*
X1059Y2192D01*
X1062Y2195D01*
X1066Y2197D01*
X1070D01*
X1073Y2195D01*
X1077Y2193D01*
X1079Y2189D01*
G01X1110Y2197D02*
Y2147D01*
X1104Y2157D01*
G01Y2197D02*
X1116D01*
G01X1145Y2191D02*
X1149Y2195D01*
X1153Y2197D01*
X1157Y2195D01*
X1161Y2190D01*
X1164Y2182D01*
X1165Y2175D01*
Y2166D01*
X1164Y2158D01*
X1161Y2152D01*
X1158Y2148D01*
X1154Y2147D01*
X1150Y2148D01*
X1147Y2152D01*
X1144Y2157D01*
X1143Y2163D01*
X1144Y2169D01*
X1147Y2175D01*
X1150Y2178D01*
X1154Y2179D01*
X1158Y2178D01*
X1161Y2173D01*
X1165Y2166D01*
G01X1730Y2490D02*
X1550D01*
X1530Y2510D01*
Y2990D01*
X1750D01*
Y2510D01*
X1730Y2490D01*
G01X1350Y2620D02*
Y2440D01*
X1330Y2420D01*
X850D01*
Y2640D01*
X1330D01*
X1350Y2620D01*
G01Y2400D02*
Y2220D01*
X1330Y2200D01*
X850D01*
Y2420D01*
X1330D01*
X1350Y2400D01*
G01X810Y2145D02*
X800D01*
Y2195D01*
X825D01*
G01X895D02*
X920D01*
Y2145D01*
X910D01*
G01X1040Y2195D02*
X1050D01*
Y2145D01*
X1025D01*
G01X955D02*
X930D01*
Y2195D01*
X940D01*
G01X928Y2198D02*
X1052D01*
Y2142D01*
X928D01*
Y2198D01*
G01X940Y2065D02*
X930D01*
Y2115D01*
X955D01*
G01X1025D02*
X1050D01*
Y2065D01*
X1040D01*
G01X1052Y2062D02*
X928D01*
Y2118D01*
X1052D01*
Y2062D01*
G01X810Y2065D02*
X800D01*
Y2115D01*
X825D01*
G01X895D02*
X920D01*
Y2065D01*
X910D01*
G01X1384Y2555D02*
X1382Y2554D01*
X1380Y2553D01*
X1378D01*
X1376Y2555D01*
X1374Y2557D01*
X1373Y2559D01*
X1372Y2563D01*
X1371Y2567D01*
X1372Y2571D01*
X1373Y2573D01*
X1374Y2576D01*
X1376Y2578D01*
X1378Y2578D01*
X1380D01*
X1382Y2578D01*
X1383Y2576D01*
X1385Y2575D01*
G01X1394Y2573D02*
X1396Y2576D01*
X1398Y2578D01*
X1400Y2578D01*
X1402Y2578D01*
X1405Y2576D01*
X1406Y2573D01*
X1406Y2571D01*
X1406Y2568D01*
X1404Y2566D01*
X1402Y2565D01*
X1399D01*
G01X1402D02*
X1403Y2564D01*
X1405Y2562D01*
X1405Y2559D01*
X1405Y2557D01*
X1403Y2555D01*
X1401Y2553D01*
X1399Y2554D01*
X1396Y2555D01*
G01X1422Y2553D02*
X1420Y2554D01*
X1418Y2556D01*
X1417Y2559D01*
X1416Y2562D01*
X1416Y2566D01*
X1416Y2570D01*
X1417Y2573D01*
X1418Y2575D01*
X1420Y2578D01*
X1422Y2578D01*
X1424Y2578D01*
X1426Y2575D01*
X1427Y2573D01*
X1428Y2570D01*
X1428Y2566D01*
X1428Y2562D01*
X1427Y2559D01*
X1426Y2556D01*
X1424Y2554D01*
X1422Y2553D01*
G01X1374Y2305D02*
X1372Y2304D01*
X1370Y2303D01*
X1368D01*
X1366Y2305D01*
X1364Y2307D01*
X1363Y2309D01*
X1362Y2313D01*
X1361Y2317D01*
X1362Y2321D01*
X1363Y2323D01*
X1364Y2326D01*
X1366Y2328D01*
X1368Y2328D01*
X1370D01*
X1372Y2328D01*
X1373Y2326D01*
X1375Y2325D01*
G01X1385Y2308D02*
X1387Y2305D01*
X1388Y2304D01*
X1391Y2303D01*
X1393Y2304D01*
X1395Y2306D01*
X1396Y2309D01*
X1395Y2311D01*
X1394Y2313D01*
X1389Y2318D01*
X1387Y2320D01*
X1385Y2325D01*
X1384Y2328D01*
X1396D01*
G01X1412D02*
X1414Y2328D01*
X1416Y2327D01*
X1417Y2325D01*
X1418Y2322D01*
X1417Y2319D01*
X1416Y2316D01*
X1413Y2315D01*
X1411D01*
X1409Y2314D01*
X1408Y2312D01*
X1407Y2309D01*
X1408Y2306D01*
X1410Y2304D01*
X1412Y2303D01*
X1414Y2304D01*
X1416Y2306D01*
X1417Y2309D01*
X1416Y2312D01*
X1415Y2314D01*
X1413Y2315D01*
X1411D01*
X1408Y2316D01*
X1407Y2319D01*
X1406Y2322D01*
X1407Y2325D01*
X1408Y2327D01*
X1410Y2328D01*
X1412Y2328D01*
G01X1117Y2117D02*
Y2067D01*
X1131D01*
X1135Y2069D01*
X1138Y2073D01*
X1139Y2079D01*
X1138Y2086D01*
X1134Y2090D01*
X1131Y2093D01*
X1117D01*
G01X1131D02*
X1139Y2117D01*
G01X1163Y2111D02*
X1167Y2115D01*
X1171Y2117D01*
X1175Y2115D01*
X1179Y2110D01*
X1182Y2102D01*
X1183Y2095D01*
Y2086D01*
X1182Y2078D01*
X1179Y2072D01*
X1176Y2068D01*
X1172Y2067D01*
X1168Y2068D01*
X1165Y2072D01*
X1162Y2077D01*
X1161Y2083D01*
X1162Y2089D01*
X1165Y2095D01*
X1168Y2098D01*
X1172Y2099D01*
X1176Y2098D01*
X1179Y2093D01*
X1183Y2086D01*
G01X1785Y2654D02*
X1786Y2652D01*
X1787Y2650D01*
Y2648D01*
X1785Y2646D01*
X1783Y2644D01*
X1781Y2643D01*
X1777Y2642D01*
X1773Y2641D01*
X1769Y2642D01*
X1767Y2643D01*
X1764Y2644D01*
X1762Y2646D01*
X1762Y2648D01*
Y2650D01*
X1762Y2652D01*
X1764Y2653D01*
X1765Y2655D01*
G01X1762Y2670D02*
X1787D01*
X1782Y2667D01*
G01X1762D02*
Y2673D01*
G01Y2692D02*
X1762Y2694D01*
X1763Y2696D01*
X1765Y2697D01*
X1768Y2698D01*
X1771Y2697D01*
X1774Y2696D01*
X1775Y2693D01*
Y2691D01*
X1776Y2689D01*
X1778Y2688D01*
X1781Y2687D01*
X1784Y2688D01*
X1786Y2690D01*
X1787Y2692D01*
X1786Y2694D01*
X1784Y2696D01*
X1781Y2697D01*
X1778Y2696D01*
X1776Y2695D01*
X1775Y2693D01*
Y2691D01*
X1774Y2688D01*
X1771Y2687D01*
X1768Y2686D01*
X1765Y2687D01*
X1763Y2688D01*
X1762Y2690D01*
X1762Y2692D01*
G01X1410Y3680D02*
Y3500D01*
X1390Y3480D01*
X910D01*
Y3700D01*
X1390D01*
X1410Y3680D01*
G01X1285Y3350D02*
X1215D01*
Y3450D01*
X1235D01*
X1285D01*
G01X1466Y3350D02*
X1214D01*
Y3450D01*
X1466D01*
Y3350D01*
G01D02*
X1450D01*
Y3450D01*
X1466D01*
Y3350D01*
G01X844Y3655D02*
X842Y3654D01*
X840Y3653D01*
X838D01*
X836Y3655D01*
X834Y3657D01*
X833Y3659D01*
X832Y3663D01*
X831Y3667D01*
X832Y3671D01*
X833Y3673D01*
X834Y3676D01*
X836Y3678D01*
X838Y3678D01*
X840D01*
X842Y3678D01*
X843Y3676D01*
X845Y3675D01*
G01X860Y3678D02*
Y3653D01*
X857Y3658D01*
G01Y3678D02*
X863D01*
G01X876Y3675D02*
X878Y3677D01*
X880Y3678D01*
X882Y3678D01*
X884Y3678D01*
X886Y3676D01*
X888Y3673D01*
X888Y3670D01*
X887Y3666D01*
X886Y3664D01*
X884Y3663D01*
X882Y3662D01*
X880Y3663D01*
X878Y3664D01*
X879Y3653D01*
X886D01*
G01X1328Y3281D02*
X1325Y3278D01*
X1321Y3277D01*
X1317D01*
X1312Y3279D01*
X1308Y3283D01*
X1305Y3288D01*
X1303Y3297D01*
X1303Y3304D01*
X1304Y3312D01*
X1305Y3317D01*
X1309Y3322D01*
X1312Y3325D01*
X1316Y3327D01*
X1320D01*
X1323Y3325D01*
X1327Y3323D01*
X1329Y3319D01*
G01X1360Y3327D02*
Y3277D01*
X1354Y3287D01*
G01Y3327D02*
X1366D01*
G01X1392Y3317D02*
X1395Y3323D01*
X1400Y3326D01*
X1405Y3327D01*
X1409Y3326D01*
X1413Y3322D01*
X1416Y3317D01*
X1416Y3312D01*
X1415Y3306D01*
X1411Y3302D01*
X1408Y3300D01*
X1403D01*
G01X1408D02*
X1411Y3298D01*
X1414Y3293D01*
X1415Y3288D01*
X1414Y3283D01*
X1411Y3279D01*
X1406Y3277D01*
X1401Y3278D01*
X1397Y3281D01*
M02*
