G04 ================== begin FILE IDENTIFICATION RECORD ==================*
G04 Layout Name:  E:/EMB001/project/hardware/POWER/POWER12-v5.brd*
G04 Film Name:    Silk_Bottom*
G04 File Format:  Gerber RS274X*
G04 File Origin:  15.7-p007*
G04 Origin Date:  Sat Dec 29 12:51:34 2007*
G04 *
G04 Layer:  REF DES/ASSEMBLY_BOTTOM*
G04 Layer:  BOARD GEOMETRY/SILKSCREEN_BOTTOM*
G04 Layer:  REF DES/SILKSCREEN_BOTTOM*
G04 Layer:  PACKAGE GEOMETRY/SILKSCREEN_BOTTOM*
G04 Layer:  BOARD GEOMETRY/OUTLINE*
G04 *
G04 Offset:    (0.000 0.000)*
G04 Mirror:    No*
G04 Mode:      Positive*
G04 Rotation:  0*
G04 FullContactRelief:  No*
G04 UndefLineWidth:     8.000*
G04 ================== end FILE IDENTIFICATION RECORD ====================*
%FSLAX53Y53*MOIN*%
%IR0*IPPOS*OFA0.00000B0.00000*MIA0B0*SFA1.00000B1.00000*%
%ADD10C,.008*%
G75*
%LPD*%
G75*
G54D10*
G01X-797Y765D02*
X-799Y764D01*
X-801Y763D01*
X-803D01*
X-805Y765D01*
X-807Y767D01*
X-808Y769D01*
X-809Y773D01*
X-810Y777D01*
X-809Y781D01*
X-808Y783D01*
X-807Y786D01*
X-805Y788D01*
X-803Y788D01*
X-801D01*
X-799Y788D01*
X-798Y786D01*
X-796Y785D01*
G01X-786Y768D02*
X-784Y765D01*
X-783Y764D01*
X-780Y763D01*
X-778Y764D01*
X-776Y766D01*
X-775Y769D01*
X-776Y771D01*
X-777Y773D01*
X-782Y778D01*
X-784Y780D01*
X-786Y785D01*
X-787Y788D01*
X-775D01*
G01X-764Y785D02*
X-762Y788D01*
X-760Y788D01*
X-757Y788D01*
X-756Y785D01*
X-754Y781D01*
X-754Y778D01*
Y773D01*
X-754Y769D01*
X-756Y766D01*
X-757Y764D01*
X-759Y763D01*
X-761Y764D01*
X-763Y766D01*
X-764Y768D01*
X-764Y772D01*
X-764Y775D01*
X-762Y778D01*
X-761Y779D01*
X-759Y780D01*
X-757Y779D01*
X-755Y777D01*
X-754Y773D01*
G01X-743Y785D02*
X-741Y787D01*
X-739Y788D01*
X-737Y788D01*
X-735Y788D01*
X-733Y786D01*
X-731Y783D01*
X-731Y780D01*
X-732Y776D01*
X-733Y774D01*
X-735Y773D01*
X-737Y772D01*
X-739Y773D01*
X-741Y774D01*
X-740Y763D01*
X-733D01*
G01X-860Y540D02*
Y720D01*
X-840Y740D01*
X-360D01*
Y520D01*
X-840D01*
X-860Y540D01*
G01X-780Y520D02*
X-360D01*
Y740D01*
X-840D01*
X-860Y720D01*
Y540D01*
X-840Y520D01*
X-780D01*
G01X-197Y3740D02*
X1850D01*
Y-197D01*
X-197D01*
Y200D01*
X-900D01*
Y1450D01*
X-197D01*
Y3740D01*
G01X-647Y1135D02*
X-649Y1134D01*
X-651Y1133D01*
X-653D01*
X-655Y1135D01*
X-657Y1137D01*
X-658Y1139D01*
X-659Y1143D01*
X-660Y1147D01*
X-659Y1151D01*
X-658Y1153D01*
X-657Y1156D01*
X-655Y1158D01*
X-653Y1158D01*
X-651D01*
X-649Y1158D01*
X-648Y1156D01*
X-646Y1155D01*
G01X-636Y1138D02*
X-634Y1135D01*
X-633Y1134D01*
X-630Y1133D01*
X-628Y1134D01*
X-626Y1136D01*
X-625Y1139D01*
X-626Y1141D01*
X-627Y1143D01*
X-632Y1148D01*
X-634Y1150D01*
X-636Y1155D01*
X-637Y1158D01*
X-625D01*
G01X-614Y1155D02*
X-612Y1158D01*
X-610Y1158D01*
X-607Y1158D01*
X-606Y1155D01*
X-604Y1151D01*
X-604Y1148D01*
Y1143D01*
X-604Y1139D01*
X-606Y1136D01*
X-607Y1134D01*
X-609Y1133D01*
X-611Y1134D01*
X-613Y1136D01*
X-614Y1138D01*
X-614Y1142D01*
X-614Y1145D01*
X-612Y1148D01*
X-611Y1149D01*
X-609Y1150D01*
X-607Y1149D01*
X-605Y1147D01*
X-604Y1143D01*
G01X-584Y1158D02*
Y1133D01*
X-594Y1151D01*
X-580D01*
G01X-710Y920D02*
Y1100D01*
X-690Y1120D01*
X-210D01*
Y900D01*
X-690D01*
X-710Y920D01*
G01X-630Y900D02*
X-210D01*
Y1120D01*
X-690D01*
X-710Y1100D01*
Y920D01*
X-690Y900D01*
X-630D01*
G01X1270Y130D02*
Y-50D01*
X1250Y-70D01*
X770D01*
Y150D01*
X1250D01*
X1270Y130D01*
G01X1190Y150D02*
X770D01*
Y-70D01*
X1250D01*
X1270Y-50D01*
Y130D01*
X1250Y150D01*
X1190D01*
G01X659Y1545D02*
X657Y1547D01*
X656Y1550D01*
Y1553D01*
X658Y1557D01*
X660Y1559D01*
X664Y1561D01*
X669Y1563D01*
X673Y1563D01*
X678Y1562D01*
X681Y1561D01*
X684Y1559D01*
X686Y1556D01*
X687Y1553D01*
Y1551D01*
X686Y1548D01*
X685Y1546D01*
X683Y1544D01*
G01X662Y1530D02*
X658Y1527D01*
X657Y1525D01*
X656Y1522D01*
X657Y1518D01*
X660Y1515D01*
X663Y1514D01*
X666Y1515D01*
X669Y1516D01*
X674Y1524D01*
X678Y1527D01*
X683Y1530D01*
X687Y1531D01*
Y1514D01*
G01Y1492D02*
X687Y1489D01*
X685Y1486D01*
X683Y1484D01*
X679Y1483D01*
X675Y1484D01*
X672Y1486D01*
X671Y1490D01*
Y1493D01*
X670Y1496D01*
X667Y1498D01*
X664Y1498D01*
X660Y1497D01*
X657Y1495D01*
X656Y1492D01*
X657Y1488D01*
X660Y1486D01*
X664Y1485D01*
X667Y1485D01*
X670Y1487D01*
X671Y1490D01*
Y1493D01*
X672Y1497D01*
X675Y1499D01*
X679Y1500D01*
X683Y1499D01*
X685Y1497D01*
X687Y1494D01*
X687Y1492D01*
G01X684Y1467D02*
X686Y1464D01*
X687Y1461D01*
X686Y1458D01*
X683Y1456D01*
X679Y1454D01*
X674Y1453D01*
X668D01*
X664Y1454D01*
X659Y1456D01*
X657Y1458D01*
X656Y1461D01*
X657Y1464D01*
X659Y1466D01*
X663Y1467D01*
X667Y1468D01*
X670Y1467D01*
X674Y1466D01*
X676Y1463D01*
X676Y1461D01*
X675Y1457D01*
X673Y1455D01*
X668Y1453D01*
G01X637Y1458D02*
X639Y1460D01*
X642Y1461D01*
X645D01*
X649Y1459D01*
X651Y1457D01*
X653Y1453D01*
X655Y1448D01*
X655Y1444D01*
X654Y1439D01*
X653Y1436D01*
X651Y1433D01*
X648Y1431D01*
X645Y1430D01*
X643D01*
X640Y1431D01*
X638Y1432D01*
X636Y1434D01*
G01X622Y1455D02*
X619Y1459D01*
X617Y1460D01*
X614Y1461D01*
X610Y1460D01*
X607Y1457D01*
X606Y1454D01*
X607Y1451D01*
X608Y1448D01*
X616Y1443D01*
X619Y1439D01*
X622Y1434D01*
X623Y1430D01*
X606D01*
G01X592Y1434D02*
X590Y1432D01*
X587Y1430D01*
X584Y1430D01*
X580Y1431D01*
X577Y1433D01*
X575Y1436D01*
X575Y1441D01*
X576Y1445D01*
X578Y1447D01*
X580Y1449D01*
X583Y1450D01*
X586Y1449D01*
X589Y1447D01*
X588Y1461D01*
X578D01*
G01X559Y1433D02*
X556Y1431D01*
X553Y1430D01*
X550Y1431D01*
X548Y1434D01*
X546Y1438D01*
X545Y1443D01*
Y1449D01*
X546Y1453D01*
X548Y1458D01*
X550Y1460D01*
X553Y1461D01*
X556Y1460D01*
X558Y1458D01*
X559Y1454D01*
X560Y1450D01*
X559Y1447D01*
X558Y1443D01*
X555Y1441D01*
X553Y1441D01*
X549Y1442D01*
X547Y1444D01*
X545Y1449D01*
G01X655Y1474D02*
X531D01*
Y1530D01*
X655D01*
Y1474D01*
G01X628Y1527D02*
X653D01*
Y1477D01*
X643D01*
G01X543D02*
X533D01*
Y1527D01*
X558D01*
G01X472Y1408D02*
Y1532D01*
X528D01*
Y1408D01*
X472D01*
G01X525Y1435D02*
Y1410D01*
X475D01*
Y1420D01*
G01Y1520D02*
Y1530D01*
X525D01*
Y1505D01*
G01X710Y1950D02*
X890D01*
X910Y1930D01*
Y1450D01*
X690D01*
Y1930D01*
X710Y1950D01*
G01X690Y1870D02*
Y1450D01*
X910D01*
Y1930D01*
X890Y1950D01*
X710D01*
X690Y1930D01*
Y1870D01*
G01X412Y1408D02*
Y1532D01*
X468D01*
Y1408D01*
X412D01*
G01X465Y1435D02*
Y1410D01*
X415D01*
Y1420D01*
G01Y1520D02*
Y1530D01*
X465D01*
Y1505D01*
G01X450Y1664D02*
X419D01*
Y1655D01*
X421Y1651D01*
X423Y1650D01*
X427Y1649D01*
X431Y1650D01*
X434Y1652D01*
X435Y1655D01*
Y1664D01*
G01Y1655D02*
X450Y1649D01*
G01Y1625D02*
X419D01*
X426Y1630D01*
G01X450D02*
Y1621D01*
G01Y1595D02*
X450Y1592D01*
X448Y1589D01*
X446Y1587D01*
X442Y1586D01*
X438Y1587D01*
X435Y1589D01*
X434Y1593D01*
Y1596D01*
X433Y1599D01*
X430Y1601D01*
X427Y1601D01*
X423Y1600D01*
X420Y1598D01*
X419Y1595D01*
X420Y1591D01*
X423Y1589D01*
X427Y1588D01*
X430Y1588D01*
X433Y1590D01*
X434Y1593D01*
Y1596D01*
X435Y1600D01*
X438Y1602D01*
X442Y1603D01*
X446Y1602D01*
X448Y1600D01*
X450Y1597D01*
X450Y1595D01*
G01Y1564D02*
X450Y1561D01*
X448Y1558D01*
X446Y1556D01*
X442Y1555D01*
X438Y1556D01*
X435Y1558D01*
X434Y1562D01*
Y1565D01*
X433Y1568D01*
X430Y1570D01*
X427Y1570D01*
X423Y1569D01*
X420Y1567D01*
X419Y1564D01*
X420Y1560D01*
X423Y1558D01*
X427Y1557D01*
X430Y1557D01*
X433Y1559D01*
X434Y1562D01*
Y1565D01*
X435Y1569D01*
X438Y1571D01*
X442Y1572D01*
X446Y1571D01*
X448Y1569D01*
X450Y1566D01*
X450Y1564D01*
G01X482Y1638D02*
X480Y1640D01*
X479Y1643D01*
Y1646D01*
X481Y1650D01*
X483Y1652D01*
X487Y1654D01*
X492Y1656D01*
X496Y1656D01*
X501Y1655D01*
X504Y1654D01*
X507Y1652D01*
X509Y1649D01*
X510Y1646D01*
Y1644D01*
X509Y1641D01*
X508Y1639D01*
X506Y1637D01*
G01X485Y1623D02*
X481Y1620D01*
X480Y1618D01*
X479Y1615D01*
X480Y1611D01*
X483Y1608D01*
X486Y1607D01*
X489Y1608D01*
X492Y1609D01*
X497Y1617D01*
X501Y1620D01*
X506Y1623D01*
X510Y1624D01*
Y1607D01*
G01Y1585D02*
X510Y1582D01*
X508Y1579D01*
X506Y1577D01*
X502Y1576D01*
X498Y1577D01*
X495Y1579D01*
X494Y1583D01*
Y1586D01*
X493Y1589D01*
X490Y1591D01*
X487Y1591D01*
X483Y1590D01*
X480Y1588D01*
X479Y1585D01*
X480Y1581D01*
X483Y1579D01*
X487Y1578D01*
X490Y1578D01*
X493Y1580D01*
X494Y1583D01*
Y1586D01*
X495Y1590D01*
X498Y1592D01*
X502Y1593D01*
X506Y1592D01*
X508Y1590D01*
X510Y1587D01*
X510Y1585D01*
G01Y1554D02*
X479D01*
X486Y1558D01*
G01X510D02*
Y1549D01*
G01X639Y3107D02*
Y3091D01*
X539D01*
Y3107D01*
X639D01*
G01D02*
Y2855D01*
X539D01*
Y3107D01*
X639D01*
G01X659Y3084D02*
X657Y3086D01*
X656Y3089D01*
Y3092D01*
X658Y3096D01*
X660Y3098D01*
X664Y3100D01*
X669Y3102D01*
X673Y3102D01*
X678Y3101D01*
X681Y3100D01*
X684Y3098D01*
X686Y3095D01*
X687Y3092D01*
Y3090D01*
X686Y3087D01*
X685Y3085D01*
X683Y3083D01*
G01X662Y3069D02*
X658Y3066D01*
X657Y3064D01*
X656Y3061D01*
X657Y3057D01*
X660Y3054D01*
X663Y3053D01*
X666Y3054D01*
X669Y3055D01*
X674Y3063D01*
X678Y3066D01*
X683Y3069D01*
X687Y3070D01*
Y3053D01*
G01Y3031D02*
X687Y3028D01*
X685Y3025D01*
X683Y3023D01*
X679Y3022D01*
X675Y3023D01*
X672Y3025D01*
X671Y3029D01*
Y3032D01*
X670Y3035D01*
X667Y3037D01*
X664Y3037D01*
X660Y3036D01*
X657Y3034D01*
X656Y3031D01*
X657Y3027D01*
X660Y3025D01*
X664Y3024D01*
X667Y3024D01*
X670Y3026D01*
X671Y3029D01*
Y3032D01*
X672Y3036D01*
X675Y3038D01*
X679Y3039D01*
X683Y3038D01*
X685Y3036D01*
X687Y3033D01*
X687Y3031D01*
G01X674Y3007D02*
X671Y3004D01*
X669Y3002D01*
X668Y2999D01*
X669Y2996D01*
X671Y2994D01*
X674Y2993D01*
X678Y2992D01*
X681Y2993D01*
X684Y2994D01*
X686Y2996D01*
X687Y2999D01*
X686Y3002D01*
X683Y3005D01*
X679Y3006D01*
X673Y3007D01*
X667Y3006D01*
X663Y3005D01*
X659Y3003D01*
X657Y3000D01*
X656Y2998D01*
X657Y2995D01*
X660Y2993D01*
G01X659Y3084D02*
X657Y3086D01*
X656Y3089D01*
Y3092D01*
X658Y3096D01*
X660Y3098D01*
X664Y3100D01*
X669Y3102D01*
X673Y3102D01*
X678Y3101D01*
X681Y3100D01*
X684Y3098D01*
X686Y3095D01*
X687Y3092D01*
Y3090D01*
X686Y3087D01*
X685Y3085D01*
X683Y3083D01*
G01X662Y3069D02*
X658Y3066D01*
X657Y3064D01*
X656Y3061D01*
X657Y3057D01*
X660Y3054D01*
X663Y3053D01*
X666Y3054D01*
X669Y3055D01*
X674Y3063D01*
X678Y3066D01*
X683Y3069D01*
X687Y3070D01*
Y3053D01*
G01Y3031D02*
X687Y3028D01*
X685Y3025D01*
X683Y3023D01*
X679Y3022D01*
X675Y3023D01*
X672Y3025D01*
X671Y3029D01*
Y3032D01*
X670Y3035D01*
X667Y3037D01*
X664Y3037D01*
X660Y3036D01*
X657Y3034D01*
X656Y3031D01*
X657Y3027D01*
X660Y3025D01*
X664Y3024D01*
X667Y3024D01*
X670Y3026D01*
X671Y3029D01*
Y3032D01*
X672Y3036D01*
X675Y3038D01*
X679Y3039D01*
X683Y3038D01*
X685Y3036D01*
X687Y3033D01*
X687Y3031D01*
G01X674Y3007D02*
X671Y3004D01*
X669Y3002D01*
X668Y2999D01*
X669Y2996D01*
X671Y2994D01*
X674Y2993D01*
X678Y2992D01*
X681Y2993D01*
X684Y2994D01*
X686Y2996D01*
X687Y2999D01*
X686Y3002D01*
X683Y3005D01*
X679Y3006D01*
X673Y3007D01*
X667Y3006D01*
X663Y3005D01*
X659Y3003D01*
X657Y3000D01*
X656Y2998D01*
X657Y2995D01*
X660Y2993D01*
G01X639Y2926D02*
Y2856D01*
X539D01*
Y2876D01*
Y2926D01*
G01X780Y2790D02*
X1200D01*
Y3010D01*
X720D01*
X700Y2990D01*
Y2810D01*
X720Y2790D01*
X780D01*
G01X700Y2810D02*
Y2990D01*
X720Y3010D01*
X1200D01*
Y2790D01*
X720D01*
X700Y2810D01*
G01X214Y2720D02*
Y2751D01*
X206D01*
X203Y2749D01*
X201Y2747D01*
X199Y2744D01*
X197Y2740D01*
X197Y2735D01*
X197Y2730D01*
X199Y2726D01*
X201Y2723D01*
X203Y2721D01*
X206Y2720D01*
X214D01*
G01X182Y2733D02*
X179Y2736D01*
X177Y2738D01*
X174Y2739D01*
X171Y2738D01*
X169Y2736D01*
X168Y2733D01*
X167Y2729D01*
X168Y2726D01*
X169Y2723D01*
X171Y2721D01*
X174Y2720D01*
X177Y2721D01*
X180Y2724D01*
X181Y2728D01*
X182Y2734D01*
X181Y2740D01*
X180Y2744D01*
X178Y2748D01*
X175Y2750D01*
X173Y2751D01*
X170Y2750D01*
X168Y2747D01*
G01X433Y2900D02*
Y2931D01*
X424D01*
X421Y2929D01*
X419Y2927D01*
X418Y2923D01*
X419Y2919D01*
X421Y2916D01*
X424Y2915D01*
X433D01*
G01X424D02*
X418Y2900D01*
G01X390D02*
Y2931D01*
X404Y2908D01*
X385D01*
G01X403Y2702D02*
X401Y2700D01*
X398Y2699D01*
X395D01*
X391Y2701D01*
X389Y2703D01*
X387Y2707D01*
X385Y2712D01*
X385Y2716D01*
X386Y2721D01*
X387Y2724D01*
X389Y2727D01*
X392Y2729D01*
X395Y2730D01*
X397D01*
X400Y2729D01*
X402Y2728D01*
X404Y2726D01*
G01X419Y2727D02*
X422Y2729D01*
X425Y2730D01*
X428Y2729D01*
X430Y2726D01*
X432Y2722D01*
X433Y2717D01*
Y2711D01*
X432Y2707D01*
X430Y2702D01*
X428Y2700D01*
X425Y2699D01*
X422Y2700D01*
X420Y2702D01*
X419Y2706D01*
X418Y2710D01*
X419Y2713D01*
X421Y2717D01*
X423Y2719D01*
X425Y2719D01*
X429Y2718D01*
X431Y2716D01*
X433Y2711D01*
G01X362Y3037D02*
X360Y3039D01*
X359Y3042D01*
Y3045D01*
X361Y3049D01*
X363Y3051D01*
X367Y3053D01*
X372Y3055D01*
X376Y3055D01*
X381Y3054D01*
X384Y3053D01*
X387Y3051D01*
X389Y3048D01*
X390Y3045D01*
Y3043D01*
X389Y3040D01*
X388Y3038D01*
X386Y3036D01*
G01X390Y3015D02*
X359D01*
X366Y3019D01*
G01X390D02*
Y3010D01*
G01X415Y3070D02*
Y3080D01*
X465D01*
Y3055D01*
G01Y2985D02*
Y2960D01*
X415D01*
Y2970D01*
G01X412Y2958D02*
Y3082D01*
X468D01*
Y2958D01*
X412D01*
G01X460Y2795D02*
X470D01*
Y2745D01*
X445D01*
G01X375D02*
X350D01*
Y2795D01*
X360D01*
G01X348Y2798D02*
X472D01*
Y2742D01*
X348D01*
Y2798D01*
G01X460Y2885D02*
X470D01*
Y2835D01*
X445D01*
G01X375D02*
X350D01*
Y2885D01*
X360D01*
G01X348Y2888D02*
X472D01*
Y2832D01*
X348D01*
Y2888D01*
G01X250Y2925D02*
X150D01*
X210Y2985D01*
X270Y2925D01*
X250D01*
G01X90Y2765D02*
Y3135D01*
X330D01*
Y2765D01*
X90D01*
G01X780Y2550D02*
X1200D01*
Y2770D01*
X720D01*
X700Y2750D01*
Y2570D01*
X720Y2550D01*
X780D01*
G01X700Y2570D02*
Y2750D01*
X720Y2770D01*
X1200D01*
Y2550D01*
X720D01*
X700Y2570D01*
G01X1110Y2525D02*
Y2115D01*
X370D01*
Y2525D01*
X1110D01*
G01X1211Y210D02*
X1213Y212D01*
X1216Y213D01*
X1219D01*
X1223Y211D01*
X1225Y209D01*
X1227Y205D01*
X1229Y200D01*
X1229Y196D01*
X1228Y191D01*
X1227Y188D01*
X1225Y185D01*
X1222Y183D01*
X1220Y182D01*
X1217D01*
X1214Y183D01*
X1212Y184D01*
X1210Y186D01*
G01X1196Y207D02*
X1194Y211D01*
X1191Y212D01*
X1188Y213D01*
X1184Y212D01*
X1181Y209D01*
X1180Y206D01*
X1181Y203D01*
X1182Y200D01*
X1190Y195D01*
X1194Y191D01*
X1196Y186D01*
X1197Y182D01*
X1180D01*
G01X1158D02*
X1158Y188D01*
X1156Y194D01*
X1155Y199D01*
X1153Y205D01*
X1150Y213D01*
X1165D01*
G01X1127Y182D02*
Y213D01*
X1131Y206D01*
G01Y182D02*
X1122D01*
G01X1170Y1527D02*
X1168Y1529D01*
X1167Y1532D01*
Y1535D01*
X1169Y1539D01*
X1171Y1541D01*
X1175Y1543D01*
X1180Y1545D01*
X1184Y1545D01*
X1189Y1544D01*
X1192Y1543D01*
X1195Y1541D01*
X1197Y1538D01*
X1198Y1535D01*
Y1533D01*
X1197Y1530D01*
X1196Y1528D01*
X1194Y1526D01*
G01X1173Y1512D02*
X1169Y1509D01*
X1168Y1507D01*
X1167Y1504D01*
X1168Y1500D01*
X1171Y1497D01*
X1174Y1496D01*
X1177Y1497D01*
X1180Y1498D01*
X1185Y1506D01*
X1189Y1509D01*
X1194Y1512D01*
X1198Y1513D01*
Y1496D01*
G01Y1474D02*
X1198Y1471D01*
X1196Y1468D01*
X1194Y1466D01*
X1190Y1465D01*
X1186Y1466D01*
X1183Y1468D01*
X1182Y1472D01*
Y1475D01*
X1181Y1478D01*
X1178Y1480D01*
X1175Y1480D01*
X1171Y1479D01*
X1168Y1477D01*
X1167Y1474D01*
X1168Y1470D01*
X1171Y1468D01*
X1175Y1467D01*
X1178Y1467D01*
X1181Y1469D01*
X1182Y1472D01*
Y1475D01*
X1183Y1479D01*
X1186Y1481D01*
X1190Y1482D01*
X1194Y1481D01*
X1196Y1479D01*
X1198Y1476D01*
X1198Y1474D01*
G01Y1443D02*
X1198Y1440D01*
X1196Y1437D01*
X1194Y1435D01*
X1190Y1434D01*
X1186Y1435D01*
X1183Y1437D01*
X1182Y1441D01*
Y1444D01*
X1181Y1447D01*
X1178Y1449D01*
X1175Y1449D01*
X1171Y1448D01*
X1168Y1446D01*
X1167Y1443D01*
X1168Y1439D01*
X1171Y1437D01*
X1175Y1436D01*
X1178Y1436D01*
X1181Y1438D01*
X1182Y1441D01*
Y1444D01*
X1183Y1448D01*
X1186Y1450D01*
X1190Y1451D01*
X1194Y1450D01*
X1196Y1448D01*
X1198Y1445D01*
X1198Y1443D01*
G01X1127Y1453D02*
X1129Y1455D01*
X1132Y1456D01*
X1135D01*
X1139Y1454D01*
X1141Y1452D01*
X1143Y1448D01*
X1145Y1443D01*
X1145Y1439D01*
X1144Y1434D01*
X1143Y1431D01*
X1141Y1428D01*
X1138Y1426D01*
X1135Y1425D01*
X1133D01*
X1130Y1426D01*
X1128Y1427D01*
X1126Y1429D01*
G01X1112Y1450D02*
X1109Y1454D01*
X1107Y1455D01*
X1104Y1456D01*
X1100Y1455D01*
X1097Y1452D01*
X1096Y1449D01*
X1097Y1446D01*
X1098Y1443D01*
X1106Y1438D01*
X1109Y1434D01*
X1112Y1429D01*
X1113Y1425D01*
X1096D01*
G01X1081Y1438D02*
X1078Y1441D01*
X1076Y1443D01*
X1073Y1444D01*
X1070Y1443D01*
X1068Y1441D01*
X1067Y1438D01*
X1066Y1434D01*
X1067Y1431D01*
X1068Y1428D01*
X1070Y1426D01*
X1073Y1425D01*
X1076Y1426D01*
X1079Y1429D01*
X1080Y1433D01*
X1081Y1439D01*
X1080Y1445D01*
X1079Y1449D01*
X1077Y1453D01*
X1074Y1455D01*
X1072Y1456D01*
X1069Y1455D01*
X1067Y1452D01*
G01X1043Y1456D02*
X1046Y1455D01*
X1048Y1452D01*
X1049Y1449D01*
X1051Y1445D01*
X1051Y1440D01*
X1051Y1436D01*
X1049Y1431D01*
X1048Y1428D01*
X1046Y1426D01*
X1043Y1425D01*
X1039Y1426D01*
X1037Y1428D01*
X1036Y1431D01*
X1034Y1436D01*
X1034Y1440D01*
X1034Y1445D01*
X1036Y1449D01*
X1037Y1452D01*
X1039Y1455D01*
X1043Y1456D01*
G01X1044Y1469D02*
X1034D01*
Y1519D01*
X1059D01*
G01X1129D02*
X1154D01*
Y1469D01*
X1144D01*
G01X1156Y1466D02*
X1032D01*
Y1522D01*
X1156D01*
Y1466D01*
G01X912Y1398D02*
Y1522D01*
X968D01*
Y1398D01*
X912D01*
G01X965Y1425D02*
Y1400D01*
X915D01*
Y1410D01*
G01Y1510D02*
Y1520D01*
X965D01*
Y1495D01*
G01X972Y1398D02*
Y1522D01*
X1028D01*
Y1398D01*
X972D01*
G01X1025Y1425D02*
Y1400D01*
X975D01*
Y1410D01*
G01Y1510D02*
Y1520D01*
X1025D01*
Y1495D01*
G01X1210Y1860D02*
Y1440D01*
X1430D01*
Y1920D01*
X1410Y1940D01*
X1230D01*
X1210Y1920D01*
Y1860D01*
G01X1230Y1940D02*
X1410D01*
X1430Y1920D01*
Y1440D01*
X1210D01*
Y1920D01*
X1230Y1940D01*
G01X1400Y1955D02*
X1390D01*
Y2005D01*
X1415D01*
G01X1485D02*
X1510D01*
Y1955D01*
X1500D01*
G01X1348Y1988D02*
X1350Y1990D01*
X1353Y1991D01*
X1356D01*
X1360Y1989D01*
X1362Y1987D01*
X1364Y1983D01*
X1366Y1978D01*
X1366Y1974D01*
X1365Y1969D01*
X1364Y1966D01*
X1362Y1963D01*
X1359Y1961D01*
X1356Y1960D01*
X1354D01*
X1351Y1961D01*
X1349Y1962D01*
X1347Y1964D01*
G01X1333Y1985D02*
X1330Y1989D01*
X1328Y1990D01*
X1325Y1991D01*
X1321Y1990D01*
X1318Y1987D01*
X1317Y1984D01*
X1318Y1981D01*
X1319Y1978D01*
X1327Y1973D01*
X1330Y1969D01*
X1333Y1964D01*
X1334Y1960D01*
X1317D01*
G01X1303Y1964D02*
X1301Y1962D01*
X1298Y1960D01*
X1295Y1960D01*
X1291Y1961D01*
X1288Y1963D01*
X1286Y1966D01*
X1286Y1971D01*
X1287Y1975D01*
X1289Y1977D01*
X1291Y1979D01*
X1294Y1980D01*
X1297Y1979D01*
X1300Y1977D01*
X1299Y1991D01*
X1289D01*
G01X1272Y1964D02*
X1270Y1962D01*
X1267Y1960D01*
X1264Y1960D01*
X1260Y1961D01*
X1257Y1963D01*
X1255Y1966D01*
X1255Y1971D01*
X1256Y1975D01*
X1258Y1977D01*
X1260Y1979D01*
X1263Y1980D01*
X1266Y1979D01*
X1269Y1977D01*
X1268Y1991D01*
X1258D01*
G01X1512Y1952D02*
X1388D01*
Y2008D01*
X1512D01*
Y1952D01*
G01X960Y1644D02*
X929D01*
Y1635D01*
X931Y1631D01*
X933Y1630D01*
X937Y1629D01*
X941Y1630D01*
X944Y1632D01*
X945Y1635D01*
Y1644D01*
G01Y1635D02*
X960Y1629D01*
G01Y1605D02*
X929D01*
X936Y1610D01*
G01X960D02*
Y1601D01*
G01X957Y1581D02*
X959Y1578D01*
X960Y1575D01*
X959Y1572D01*
X956Y1570D01*
X952Y1568D01*
X947Y1567D01*
X941D01*
X937Y1568D01*
X932Y1570D01*
X930Y1572D01*
X929Y1575D01*
X930Y1578D01*
X932Y1580D01*
X936Y1581D01*
X940Y1582D01*
X943Y1581D01*
X947Y1579D01*
X949Y1577D01*
X949Y1575D01*
X948Y1571D01*
X946Y1569D01*
X941Y1567D01*
G01X935Y1551D02*
X931Y1549D01*
X930Y1546D01*
X929Y1543D01*
X930Y1539D01*
X933Y1536D01*
X936Y1535D01*
X939Y1536D01*
X942Y1537D01*
X947Y1545D01*
X951Y1549D01*
X956Y1551D01*
X960Y1552D01*
Y1535D01*
G01X982Y1628D02*
X980Y1630D01*
X979Y1633D01*
Y1636D01*
X981Y1640D01*
X983Y1642D01*
X987Y1644D01*
X992Y1646D01*
X996Y1646D01*
X1001Y1645D01*
X1004Y1644D01*
X1007Y1642D01*
X1009Y1639D01*
X1010Y1636D01*
Y1634D01*
X1009Y1631D01*
X1008Y1629D01*
X1006Y1627D01*
G01X985Y1613D02*
X981Y1610D01*
X980Y1608D01*
X979Y1605D01*
X980Y1601D01*
X983Y1598D01*
X986Y1597D01*
X989Y1598D01*
X992Y1599D01*
X997Y1607D01*
X1001Y1610D01*
X1006Y1613D01*
X1010Y1614D01*
Y1597D01*
G01Y1575D02*
X1010Y1572D01*
X1008Y1569D01*
X1006Y1567D01*
X1002Y1566D01*
X998Y1567D01*
X995Y1569D01*
X994Y1573D01*
Y1576D01*
X993Y1579D01*
X990Y1581D01*
X987Y1581D01*
X983Y1580D01*
X980Y1578D01*
X979Y1575D01*
X980Y1571D01*
X983Y1569D01*
X987Y1568D01*
X990Y1568D01*
X993Y1570D01*
X994Y1573D01*
Y1576D01*
X995Y1580D01*
X998Y1582D01*
X1002Y1583D01*
X1006Y1582D01*
X1008Y1580D01*
X1010Y1577D01*
X1010Y1575D01*
G01Y1539D02*
X979D01*
X1002Y1553D01*
Y1534D01*
G01X1178Y3078D02*
X1180Y3080D01*
X1183Y3081D01*
X1186D01*
X1190Y3079D01*
X1192Y3077D01*
X1194Y3073D01*
X1196Y3068D01*
X1196Y3064D01*
X1195Y3059D01*
X1194Y3056D01*
X1192Y3053D01*
X1189Y3051D01*
X1186Y3050D01*
X1184D01*
X1181Y3051D01*
X1179Y3052D01*
X1177Y3054D01*
G01X1163Y3075D02*
X1160Y3079D01*
X1158Y3080D01*
X1155Y3081D01*
X1151Y3080D01*
X1148Y3077D01*
X1147Y3074D01*
X1148Y3071D01*
X1149Y3068D01*
X1157Y3063D01*
X1160Y3059D01*
X1163Y3054D01*
X1164Y3050D01*
X1147D01*
G01X1125D02*
X1125Y3056D01*
X1123Y3062D01*
X1122Y3067D01*
X1120Y3073D01*
X1117Y3081D01*
X1132D01*
G01X1094Y3050D02*
X1091Y3050D01*
X1088Y3052D01*
X1086Y3054D01*
X1085Y3058D01*
X1086Y3062D01*
X1088Y3065D01*
X1092Y3066D01*
X1095D01*
X1098Y3067D01*
X1100Y3070D01*
X1100Y3073D01*
X1099Y3077D01*
X1097Y3080D01*
X1094Y3081D01*
X1090Y3080D01*
X1088Y3077D01*
X1087Y3073D01*
X1087Y3070D01*
X1089Y3067D01*
X1092Y3066D01*
X1095D01*
X1099Y3065D01*
X1101Y3062D01*
X1102Y3058D01*
X1101Y3054D01*
X1099Y3052D01*
X1096Y3050D01*
X1094Y3050D01*
G01X1424Y3060D02*
Y3091D01*
X1415D01*
X1411Y3089D01*
X1410Y3087D01*
X1409Y3083D01*
X1410Y3079D01*
X1412Y3076D01*
X1415Y3075D01*
X1424D01*
G01X1415D02*
X1409Y3060D01*
G01X1385D02*
Y3091D01*
X1390Y3084D01*
G01Y3060D02*
X1381D01*
G01X1361Y3063D02*
X1358Y3061D01*
X1355Y3060D01*
X1352Y3061D01*
X1350Y3064D01*
X1348Y3068D01*
X1347Y3073D01*
Y3079D01*
X1348Y3083D01*
X1350Y3088D01*
X1352Y3090D01*
X1355Y3091D01*
X1358Y3090D01*
X1360Y3088D01*
X1361Y3084D01*
X1362Y3080D01*
X1361Y3077D01*
X1359Y3073D01*
X1357Y3071D01*
X1355Y3071D01*
X1351Y3072D01*
X1349Y3074D01*
X1347Y3079D01*
G01X1324Y3060D02*
X1324Y3066D01*
X1322Y3072D01*
X1321Y3077D01*
X1319Y3083D01*
X1316Y3091D01*
X1331D01*
G01X1470Y2540D02*
X1290D01*
X1270Y2560D01*
Y3040D01*
X1490D01*
Y2560D01*
X1470Y2540D01*
G01X1490Y2620D02*
Y3040D01*
X1270D01*
Y2560D01*
X1290Y2540D01*
X1470D01*
X1490Y2560D01*
Y2620D01*
G01X1188Y2528D02*
X1190Y2530D01*
X1193Y2531D01*
X1196D01*
X1200Y2529D01*
X1202Y2527D01*
X1204Y2523D01*
X1206Y2518D01*
X1206Y2514D01*
X1205Y2509D01*
X1204Y2506D01*
X1202Y2503D01*
X1199Y2501D01*
X1196Y2500D01*
X1194D01*
X1191Y2501D01*
X1189Y2502D01*
X1187Y2504D01*
G01X1173Y2525D02*
X1170Y2529D01*
X1168Y2530D01*
X1165Y2531D01*
X1161Y2530D01*
X1158Y2527D01*
X1157Y2524D01*
X1158Y2521D01*
X1159Y2518D01*
X1167Y2513D01*
X1170Y2509D01*
X1173Y2504D01*
X1174Y2500D01*
X1157D01*
G01X1135D02*
X1135Y2506D01*
X1133Y2512D01*
X1132Y2517D01*
X1130Y2523D01*
X1127Y2531D01*
X1142D01*
G01X1104Y2500D02*
X1104Y2506D01*
X1102Y2512D01*
X1101Y2517D01*
X1099Y2523D01*
X1096Y2531D01*
X1111D01*
G01X1129Y2369D02*
X1152D01*
X1156Y2368D01*
X1159Y2365D01*
X1160Y2361D01*
X1159Y2357D01*
X1156Y2354D01*
X1152Y2353D01*
X1129D01*
G01X1160Y2325D02*
X1129D01*
X1152Y2340D01*
Y2320D01*
G01X1135Y2306D02*
X1131Y2304D01*
X1130Y2301D01*
X1129Y2298D01*
X1130Y2294D01*
X1133Y2292D01*
X1136Y2291D01*
X1139Y2291D01*
X1142Y2293D01*
X1147Y2301D01*
X1151Y2304D01*
X1156Y2306D01*
X1160Y2307D01*
Y2291D01*
G01X1355Y2090D02*
X1285D01*
Y2190D01*
X1305D01*
X1355D01*
G01X1248Y2158D02*
X1250Y2160D01*
X1253Y2161D01*
X1256D01*
X1260Y2159D01*
X1262Y2157D01*
X1264Y2153D01*
X1266Y2148D01*
X1266Y2144D01*
X1265Y2139D01*
X1264Y2136D01*
X1262Y2133D01*
X1259Y2131D01*
X1256Y2130D01*
X1254D01*
X1251Y2131D01*
X1249Y2132D01*
X1247Y2134D01*
G01X1233Y2155D02*
X1230Y2159D01*
X1228Y2160D01*
X1225Y2161D01*
X1221Y2160D01*
X1218Y2157D01*
X1217Y2154D01*
X1218Y2151D01*
X1219Y2148D01*
X1227Y2143D01*
X1230Y2139D01*
X1233Y2134D01*
X1234Y2130D01*
X1217D01*
G01X1201Y2133D02*
X1198Y2131D01*
X1195Y2130D01*
X1192Y2131D01*
X1190Y2134D01*
X1188Y2138D01*
X1187Y2143D01*
Y2149D01*
X1188Y2153D01*
X1190Y2158D01*
X1192Y2160D01*
X1195Y2161D01*
X1198Y2160D01*
X1200Y2158D01*
X1201Y2154D01*
X1202Y2150D01*
X1201Y2147D01*
X1199Y2143D01*
X1197Y2141D01*
X1195Y2141D01*
X1191Y2142D01*
X1189Y2144D01*
X1187Y2149D01*
G01X1164Y2161D02*
X1167Y2160D01*
X1169Y2157D01*
X1170Y2154D01*
X1172Y2150D01*
X1172Y2145D01*
X1172Y2141D01*
X1170Y2136D01*
X1169Y2133D01*
X1167Y2131D01*
X1164Y2130D01*
X1160Y2131D01*
X1158Y2133D01*
X1157Y2136D01*
X1155Y2141D01*
X1155Y2145D01*
X1155Y2150D01*
X1157Y2154D01*
X1158Y2157D01*
X1160Y2160D01*
X1164Y2161D01*
G01X1248Y2158D02*
X1250Y2160D01*
X1253Y2161D01*
X1256D01*
X1260Y2159D01*
X1262Y2157D01*
X1264Y2153D01*
X1266Y2148D01*
X1266Y2144D01*
X1265Y2139D01*
X1264Y2136D01*
X1262Y2133D01*
X1259Y2131D01*
X1256Y2130D01*
X1254D01*
X1251Y2131D01*
X1249Y2132D01*
X1247Y2134D01*
G01X1233Y2155D02*
X1230Y2159D01*
X1228Y2160D01*
X1225Y2161D01*
X1221Y2160D01*
X1218Y2157D01*
X1217Y2154D01*
X1218Y2151D01*
X1219Y2148D01*
X1227Y2143D01*
X1230Y2139D01*
X1233Y2134D01*
X1234Y2130D01*
X1217D01*
G01X1201Y2133D02*
X1198Y2131D01*
X1195Y2130D01*
X1192Y2131D01*
X1190Y2134D01*
X1188Y2138D01*
X1187Y2143D01*
Y2149D01*
X1188Y2153D01*
X1190Y2158D01*
X1192Y2160D01*
X1195Y2161D01*
X1198Y2160D01*
X1200Y2158D01*
X1201Y2154D01*
X1202Y2150D01*
X1201Y2147D01*
X1199Y2143D01*
X1197Y2141D01*
X1195Y2141D01*
X1191Y2142D01*
X1189Y2144D01*
X1187Y2149D01*
G01X1164Y2161D02*
X1167Y2160D01*
X1169Y2157D01*
X1170Y2154D01*
X1172Y2150D01*
X1172Y2145D01*
X1172Y2141D01*
X1170Y2136D01*
X1169Y2133D01*
X1167Y2131D01*
X1164Y2130D01*
X1160Y2131D01*
X1158Y2133D01*
X1157Y2136D01*
X1155Y2141D01*
X1155Y2145D01*
X1155Y2150D01*
X1157Y2154D01*
X1158Y2157D01*
X1160Y2160D01*
X1164Y2161D01*
G01X1536Y2090D02*
X1284D01*
Y2190D01*
X1536D01*
Y2090D01*
G01D02*
X1520D01*
Y2190D01*
X1536D01*
Y2090D01*
G01X1400Y2015D02*
X1390D01*
Y2065D01*
X1415D01*
G01X1485D02*
X1510D01*
Y2015D01*
X1500D01*
G01X1358Y2058D02*
X1360Y2060D01*
X1363Y2061D01*
X1366D01*
X1370Y2059D01*
X1372Y2057D01*
X1374Y2053D01*
X1376Y2048D01*
X1376Y2044D01*
X1375Y2039D01*
X1374Y2036D01*
X1372Y2033D01*
X1369Y2031D01*
X1366Y2030D01*
X1364D01*
X1361Y2031D01*
X1359Y2032D01*
X1357Y2034D01*
G01X1343Y2055D02*
X1340Y2059D01*
X1338Y2060D01*
X1335Y2061D01*
X1331Y2060D01*
X1328Y2057D01*
X1327Y2054D01*
X1328Y2051D01*
X1329Y2048D01*
X1337Y2043D01*
X1340Y2039D01*
X1343Y2034D01*
X1344Y2030D01*
X1327D01*
G01X1313Y2034D02*
X1311Y2032D01*
X1308Y2030D01*
X1305Y2030D01*
X1301Y2031D01*
X1298Y2033D01*
X1296Y2036D01*
X1296Y2041D01*
X1297Y2045D01*
X1299Y2047D01*
X1301Y2049D01*
X1304Y2050D01*
X1307Y2049D01*
X1310Y2047D01*
X1309Y2061D01*
X1299D01*
G01X1281Y2043D02*
X1278Y2046D01*
X1276Y2048D01*
X1273Y2049D01*
X1270Y2048D01*
X1268Y2046D01*
X1267Y2043D01*
X1266Y2039D01*
X1267Y2036D01*
X1268Y2033D01*
X1270Y2031D01*
X1273Y2030D01*
X1276Y2031D01*
X1279Y2034D01*
X1280Y2038D01*
X1281Y2044D01*
X1280Y2050D01*
X1279Y2054D01*
X1277Y2058D01*
X1274Y2060D01*
X1272Y2061D01*
X1269Y2060D01*
X1267Y2057D01*
G01X1512Y2012D02*
X1388D01*
Y2068D01*
X1512D01*
Y2012D01*
M02*
