G04 ================== begin FILE IDENTIFICATION RECORD ==================*
G04 Layout Name:  E:/project/IRISking/ikemb-0001/project/hardware/OV7720_v2/ov7720_V2.brd*
G04 Film Name:    BOTTOM*
G04 File Format:  Gerber RS274X*
G04 File Origin:  16.0-p002*
G04 Origin Date:  Tue Mar 01 10:09:53 2011*
G04 *
G04 Layer:  BOARD GEOMETRY/OUTLINE*
G04 Layer:  ETCH/BOTTOM*
G04 Layer:  PIN/BOTTOM*
G04 Layer:  VIA CLASS/BOTTOM*
G04 *
G04 Offset:    (0.0000 0.0000)*
G04 Mirror:    No*
G04 Mode:      Positive*
G04 Rotation:  0*
G04 FullContactRelief:  No*
G04 UndefLineWidth:     8.0000*
G04 ================== end FILE IDENTIFICATION RECORD ====================*
%FSLAX55Y55*MOIN*%
%IR0*IPPOS*OFA0.00000B0.00000*MIA0B0*SFA1.00000B1.00000*%
%ADD11C,.023*%
%ADD10C,.05*%
%ADD18C,.062*%
%ADD22C,.018*%
%ADD13C,.09*%
%ADD21R,.06X.06*%
%ADD23R,.25X.14*%
%ADD16R,.03X.04*%
%ADD14R,.04X.03*%
%ADD15R,.04X.06*%
%ADD12R,.05X.05*%
%ADD24R,.05X.09*%
%ADD17R,.04X.018*%
%ADD20C,.2*%
%ADD19R,.062X.062*%
%ADD25C,.01*%
%ADD26C,.02*%
%ADD27C,.0041*%
%ADD28C,.0061*%
%ADD29C,.008*%
G75*
%LPD*%
G75*
G54D10*
X-29010Y-8708D03*
X-21136D03*
X-29010Y22788D03*
X-21136D03*
X-29010Y14914D03*
X-21136D03*
X-29010Y7040D03*
X-21136D03*
X-29010Y-834D03*
X-21136D03*
X-29010Y46410D03*
X-21136D03*
X-29010Y38536D03*
X-21136D03*
X-29010Y30662D03*
X-21136D03*
X-29010Y77906D03*
X-21136D03*
X-29010Y70032D03*
X-21136D03*
X-29010Y62158D03*
X-21136D03*
X-29010Y54284D03*
X-21136D03*
X-29010Y109402D03*
X-21136D03*
X-29010Y101528D03*
X-21136D03*
X-29010Y93654D03*
X-21136D03*
X-29010Y85780D03*
X-21136D03*
Y117276D03*
G54D20*
X65840Y24800D03*
Y103540D03*
G54D11*
X-15058Y90080D03*
X20536Y74691D03*
X15705Y110882D03*
X-241Y99657D03*
X9259Y82141D03*
X20318Y119375D03*
X43050Y43587D03*
Y47507D03*
X44745Y37748D03*
Y34838D03*
X46786Y32901D03*
X50055Y55429D03*
X46709Y78859D03*
X50302Y69241D03*
X51112Y71827D03*
X40823Y53672D03*
X46515Y52752D03*
X29450Y69241D03*
X36570Y79454D03*
X45253Y72573D03*
X44644Y62705D03*
Y65973D03*
X47294Y58542D03*
X44812Y103362D03*
X50138Y84009D03*
X44644Y85395D03*
X29198Y108052D03*
X50812Y113041D03*
X33010Y114061D03*
X71441Y8078D03*
X71436Y-2197D03*
X63402Y2993D03*
X80679Y12638D03*
X78073Y39003D03*
X81724Y51745D03*
X72275Y77376D03*
X78073Y53454D03*
X62505Y69988D03*
X56080Y75143D03*
X76314Y69717D03*
X60130Y53339D03*
X62849Y65115D03*
X54548Y60239D03*
X74892Y67116D03*
X66358Y69893D03*
X60210Y76794D03*
X76024Y76447D03*
X66475Y66974D03*
X75443Y60884D03*
X54075Y91065D03*
X60210Y90836D03*
X75351Y86923D03*
X68853Y86869D03*
X99110Y19906D03*
X83900Y1448D03*
X90110Y20948D03*
X105392Y20228D03*
X100902Y80631D03*
X101845Y72506D03*
X107435Y79379D03*
X86970Y55881D03*
X81822Y60129D03*
X101419Y54971D03*
X87082Y75698D03*
X97037Y55593D03*
X107435Y66406D03*
X82896Y69446D03*
X101741Y95190D03*
X93038Y101153D03*
X89869Y114140D03*
X113460Y1448D03*
X115751Y51529D03*
G54D12*
X-29010Y117276D03*
G54D21*
X82096Y80631D03*
Y90892D03*
X86816Y50302D03*
X97037D03*
X86816Y63302D03*
X107435Y60976D03*
Y73976D03*
X97037Y63302D03*
X95096Y80631D03*
X86668Y101153D03*
X99668D03*
X95096Y90892D03*
G54D13*
X0Y0D03*
X129921Y129921D03*
G54D22*
X68953Y75450D03*
X53552Y62949D03*
X65438Y64504D03*
X62754Y59800D03*
G54D14*
X17251Y84614D03*
X23251D03*
X50812Y108186D03*
X44812D03*
X67402Y-2197D03*
X61402D03*
X79193Y72506D03*
X59783Y55429D03*
X53783D03*
X111646Y51529D03*
X105646D03*
X91954Y72506D03*
X97954D03*
X85193D03*
X83869Y109179D03*
X89869D03*
G54D23*
X99110Y1448D03*
G54D24*
X108110Y28448D03*
X99110D03*
X90110D03*
G54D15*
X-241Y110882D03*
X21759D03*
Y94882D03*
X-241D03*
G54D25*
G01Y99657D02*
Y94882D01*
G01X15705Y110882D02*
X21759D01*
G01X43050Y43587D02*
X43866Y42771D01*
X47267D01*
G01X43050Y47507D02*
X44314Y48771D01*
X47267D01*
G01X50055Y55429D02*
X53783D01*
G01X44812Y103362D02*
Y108186D01*
G01X71436Y-2197D02*
X67402D01*
G01X78073Y39003D02*
Y42681D01*
G01Y53454D02*
Y48681D01*
G01X59783Y55429D02*
X60130Y55082D01*
Y53339D01*
G01X50812Y113041D02*
Y108186D01*
G01X101419Y54971D02*
X104861Y51529D01*
X105646D01*
G01X115751D02*
X111646D01*
G54D16*
X47267Y48771D03*
Y42771D03*
X78073Y48681D03*
Y42681D03*
X78785Y66129D03*
Y60129D03*
X60210Y80869D03*
X66358D03*
X72275Y80923D03*
X54075D03*
X60210Y86869D03*
X66358D03*
X72275Y86923D03*
X54075D03*
G54D26*
G01X50138Y84009D02*
X53224Y80923D01*
X54075D01*
G01X81822Y60129D02*
X78785D01*
G01X72275Y77376D02*
Y80923D01*
G01X76024Y76447D02*
X77912D01*
X82096Y80631D01*
G01X75646Y64556D02*
X77212D01*
X78785Y66129D01*
G01X86816Y63302D02*
X83989Y66129D01*
X78785D01*
G01X75646Y64556D02*
X70705D01*
X68287Y66974D01*
X66475D01*
G01X54075Y91065D02*
Y86923D01*
G01X60210Y90836D02*
Y86869D01*
G01X75351Y86923D02*
X72275D01*
G01X68853Y86869D02*
X66358D01*
G01X99110Y19906D02*
Y28448D01*
G01X83900Y1448D02*
X99110D01*
G01X113460D02*
X99110D01*
G01X90110Y20948D02*
Y28448D01*
G01X105392Y20228D02*
X108110Y22946D01*
Y28448D01*
G01X86970Y55881D02*
X86816Y55727D01*
Y50302D01*
G01X97037Y55593D02*
Y50302D01*
G01X100902Y80631D02*
X95096D01*
G01X101845Y72506D02*
X97954D01*
G01X107435Y79379D02*
Y73976D01*
G01X87082Y75698D02*
X85193Y73809D01*
Y72506D01*
G01X107435Y66406D02*
Y60976D01*
G01X82096Y90892D02*
Y80631D01*
G01X91954Y72506D02*
Y75496D01*
X90486Y76964D01*
Y77180D01*
X87189Y80477D01*
X82250D01*
X82096Y80631D01*
G01X97037Y63302D02*
X86816D01*
G01X89869Y114140D02*
Y109179D01*
G01X101741Y95190D02*
X99668Y97263D01*
Y101153D01*
G01X93038D02*
X86668D01*
G01X95096Y90892D02*
X86668Y99320D01*
Y101153D01*
G01D02*
X83869Y103952D01*
Y109179D01*
G54D17*
X35843Y43868D03*
Y47136D03*
Y50404D03*
X27969D03*
Y47136D03*
Y43868D03*
X40985Y27944D03*
Y31212D03*
Y34480D03*
Y37748D03*
X33111D03*
Y34480D03*
Y31212D03*
Y27944D03*
X40884Y75591D03*
Y78859D03*
X33010D03*
Y75591D03*
X35843Y53672D03*
X27969D03*
X40884Y59437D03*
Y62705D03*
Y65973D03*
Y69241D03*
X33010D03*
Y65973D03*
Y62705D03*
Y59437D03*
X40884Y82127D03*
Y85395D03*
X33010D03*
Y82127D03*
G54D27*
G01X47379Y56112D02*
X49274Y58007D01*
X55423D01*
X57133Y59717D01*
Y64616D01*
X62505Y69988D01*
G01X48151Y54617D02*
X48229D01*
X49282Y53564D01*
X49305D01*
X50132Y52737D01*
X55804D01*
X56716Y53649D01*
Y57368D01*
X60740Y61392D01*
Y65598D01*
X64270Y69128D01*
Y71704D01*
X61145Y74829D01*
X58202D01*
X57888Y75143D01*
X56080D01*
G01X53528Y60239D02*
X54548D01*
G01X82896Y69446D02*
X76645D01*
X76374Y69717D01*
X76314D01*
G01X66358Y69893D02*
Y75610D01*
G54D18*
X46738Y126157D03*
X36738D03*
X56738D03*
G54D28*
G01X33111Y31212D02*
X14367D01*
X1283Y18129D01*
X-25795D01*
X-29010Y14914D01*
G01X33111Y27944D02*
X32011D01*
X22105Y18038D01*
Y17739D01*
X18105Y13739D01*
X-16901D01*
X-18941Y11699D01*
X-24351D01*
X-29010Y7040D01*
G01X71978Y49181D02*
X71324Y48527D01*
X66122D01*
X63175Y51474D01*
X51625D01*
X51200Y51049D01*
Y39749D01*
X49868Y38417D01*
Y32620D01*
X29368Y12120D01*
X-2708D01*
X-4574Y10255D01*
X-22788D01*
X-24351Y8692D01*
Y-5493D01*
X-21136Y-8708D01*
G01X33111Y34480D02*
X22290D01*
X-21136Y77906D01*
G01X27969Y47136D02*
X22348D01*
X-19511Y88995D01*
X-25795D01*
X-29010Y85780D01*
G01X27969Y43868D02*
X20775D01*
X-21136Y85780D01*
G01X-15058Y90080D02*
X-14667D01*
X25009Y50404D01*
X27969D01*
G01X33010Y82127D02*
X34110D01*
X35725Y83742D01*
Y114151D01*
X32600Y117276D01*
X-21136D01*
G01X27969Y53672D02*
X24759D01*
X9259Y69172D01*
Y82141D01*
G01X21759Y94882D02*
Y88592D01*
X20196Y87029D01*
X20166D01*
X17751Y84614D01*
X17251D01*
G01X35843Y43868D02*
X34743D01*
X32928Y45683D01*
Y55112D01*
X33928Y56112D01*
X47379D01*
G01X35843Y50404D02*
X40888D01*
X45101Y54617D01*
X48151D01*
G01X35843Y47136D02*
X39418D01*
X45033Y52752D01*
X46515D01*
G01X40985Y37748D02*
X44745D01*
G01X40985Y34480D02*
X42085D01*
X42443Y34838D01*
X44745D01*
G01X33111Y37748D02*
X32011D01*
X30684Y39075D01*
Y56307D01*
X20536Y66455D01*
Y74691D01*
G01X40985Y31212D02*
X45097D01*
X46786Y32901D01*
G01X40884Y78859D02*
X46709D01*
G01X40884Y75591D02*
X44862D01*
X46015Y74438D01*
X46026D01*
X47118Y73346D01*
Y73335D01*
X48862Y71591D01*
Y70681D01*
X50302Y69241D01*
G01X40884Y82127D02*
X46427D01*
X50927Y77627D01*
Y72012D01*
X51112Y71827D01*
G01X35843Y53672D02*
X40823D01*
G01X33010Y69241D02*
X29450D01*
G01X33010Y75591D02*
X31910D01*
X29198Y78303D01*
Y108052D01*
G01X33010Y78859D02*
X34110D01*
X34705Y79454D01*
X36570D01*
G01X40884Y69241D02*
X44216Y72573D01*
X45253D01*
G01X44644Y62705D02*
X48768D01*
X51234Y60239D01*
X53528D01*
G01X40884Y62705D02*
X44644D01*
G01X40884Y65973D02*
X44644D01*
G01X23251Y84614D02*
X23751D01*
X26138Y82227D01*
Y78346D01*
X30638Y73846D01*
X33758D01*
X37573Y70031D01*
X37950Y69655D01*
Y57818D01*
X38145Y57622D01*
X45219D01*
X46138Y58542D01*
X47294D01*
G01X40884Y85395D02*
X44644D01*
G01X33010D02*
Y114061D01*
G01X61402Y-2197D02*
Y622D01*
X63402Y2622D01*
Y2993D01*
G01X71978Y48681D02*
Y49181D01*
G01D02*
X75443Y52646D01*
Y60884D01*
G01X60130Y53339D02*
Y53135D01*
X62849D01*
Y57611D01*
X64369Y59131D01*
Y60469D01*
X62849Y61988D01*
Y65115D01*
G01X75646Y72506D02*
X75637D01*
X74015Y70884D01*
Y67993D01*
X74892Y67116D01*
G01X79193Y72506D02*
X75646D01*
G01X66358Y75610D02*
Y75615D01*
G01Y80869D02*
Y75615D01*
G01X60210Y80869D02*
Y76794D01*
G01X81724Y51745D02*
X83101Y50368D01*
Y47006D01*
X83520Y46587D01*
Y39979D01*
X80679Y37138D01*
Y12638D01*
G54D19*
X26738Y126157D03*
G54D29*
G01X10128Y121443D02*
X-801D01*
X-8880Y129522D01*
X-37393D01*
X-41432Y125483D01*
Y-17433D01*
X-37511Y-21354D01*
X-13751D01*
X-8999Y-16602D01*
Y-11470D01*
X-9436Y-11033D01*
X119364D01*
Y8967D01*
X139364D01*
Y140967D01*
X10564D01*
Y120967D01*
M02*
