G04 ================== begin FILE IDENTIFICATION RECORD ==================*
G04 Layout Name:  E:/project/IRISking/ikemb-0001/project/hardware/OV7720_v2/ov7720_V2.brd*
G04 Film Name:    silkscreen_TOP*
G04 File Format:  Gerber RS274X*
G04 File Origin:  16.0-p002*
G04 Origin Date:  Tue Mar 01 10:09:53 2011*
G04 *
G04 Layer:  REF DES/SILKSCREEN_TOP*
G04 Layer:  PACKAGE GEOMETRY/SILKSCREEN_TOP*
G04 Layer:  BOARD GEOMETRY/OUTLINE*
G04 *
G04 Offset:    (0.0000 0.0000)*
G04 Mirror:    No*
G04 Mode:      Positive*
G04 Rotation:  0*
G04 FullContactRelief:  No*
G04 UndefLineWidth:     8.0000*
G04 ================== end FILE IDENTIFICATION RECORD ====================*
%FSLAX55Y55*MOIN*%
%IR0*IPPOS*OFA0.00000B0.00000*MIA0B0*SFA1.00000B1.00000*%
%ADD10C,.008*%
G75*
%LPD*%
G75*
G36*
G01X66170Y64176D02*
G03I-332J0D01*
G37*
G54D10*
G01X10128Y121443D02*
X-801D01*
X-8880Y129522D01*
X-37393D01*
X-41432Y125483D01*
Y-17433D01*
X-37511Y-21354D01*
X-13751D01*
X-8999Y-16602D01*
Y-11470D01*
X-9436Y-11033D01*
X119364D01*
Y8967D01*
X139364D01*
Y140967D01*
X10564D01*
Y120967D01*
G01X-13262Y125150D02*
Y-16582D01*
X-36884D01*
Y125150D01*
X-13262D01*
G01X66738Y116157D02*
X16738D01*
Y136157D01*
X66738D01*
Y116157D01*
G01X105840Y19170D02*
X25840D01*
Y109170D01*
X105840D01*
Y19170D01*
G01X58710Y11837D02*
Y8737D01*
X60244D01*
G01X63344D02*
X61810D01*
Y11837D01*
X63344D01*
G01X62730Y10339D02*
X61810D01*
G01X64834Y8737D02*
Y11837D01*
X65600D01*
X65907Y11682D01*
X66137Y11475D01*
X66329Y11165D01*
X66482Y10804D01*
X66520Y10287D01*
X66482Y9770D01*
X66329Y9409D01*
X66137Y9099D01*
X65907Y8892D01*
X65600Y8737D01*
X64834D01*
G01X68049Y11320D02*
X68279Y11630D01*
X68547Y11785D01*
X68854Y11837D01*
X69237Y11734D01*
X69505Y11475D01*
X69582Y11165D01*
X69544Y10855D01*
X69390Y10597D01*
X68624Y10080D01*
X68279Y9719D01*
X68049Y9202D01*
X67972Y8737D01*
X69582D01*
G01X81570Y-4922D02*
X72570D01*
Y12078D01*
X81570D01*
Y-4922D01*
G01X75770Y2978D02*
X78370D01*
X76970Y4378D01*
X75570Y2978D01*
X75770D01*
G01X72570Y78D02*
Y-4922D01*
X81570D01*
Y-1422D01*
G01Y8578D02*
Y12078D01*
X72570D01*
Y7078D01*
G01X78546Y57217D02*
X78780Y57077D01*
X78913Y56957D01*
X78980Y56797D01*
X78913Y56657D01*
X78780Y56557D01*
X78580Y56477D01*
X78346Y56457D01*
X78146Y56477D01*
X77946Y56557D01*
X77780Y56677D01*
X77713Y56817D01*
X77780Y56977D01*
X77980Y57117D01*
X78280Y57197D01*
X78613Y57217D01*
X79046Y57177D01*
X79280Y57117D01*
X79513Y57017D01*
X79680Y56877D01*
X79713Y56737D01*
X79646Y56597D01*
X79480Y56497D01*
G01X78013Y60230D02*
X77846Y60110D01*
X77746Y59970D01*
X77713Y59790D01*
X77780Y59610D01*
X77913Y59470D01*
X78146Y59369D01*
X78413Y59349D01*
X78680Y59389D01*
X78846Y59490D01*
X78980Y59630D01*
X79013Y59770D01*
X78980Y59910D01*
X78846Y60090D01*
X79713Y60030D01*
Y59490D01*
G01X77713Y62502D02*
X79713D01*
X78280Y63243D01*
Y62242D01*
G01X78113Y66726D02*
X77880Y66606D01*
X77746Y66446D01*
X77713Y66266D01*
X77746Y66106D01*
X77913Y65946D01*
X78113Y65846D01*
X78313Y65826D01*
X78546Y65866D01*
X78713Y66006D01*
X78780Y66146D01*
Y66326D01*
G01Y66146D02*
X78880Y66026D01*
X79046Y65926D01*
X79246Y65886D01*
X79446Y65926D01*
X79613Y66026D01*
X79713Y66206D01*
X79680Y66386D01*
X79546Y66566D01*
G01X79380Y69816D02*
X79580Y69696D01*
X79680Y69555D01*
X79713Y69395D01*
X79646Y69195D01*
X79480Y69055D01*
X79280Y69015D01*
X79080Y69035D01*
X78913Y69115D01*
X78580Y69515D01*
X78346Y69696D01*
X78013Y69816D01*
X77713Y69856D01*
Y69015D01*
G01Y72585D02*
X79713D01*
X79313Y72825D01*
G01X77713D02*
Y72345D01*
G01X57044Y78083D02*
X59044D01*
Y77323D01*
G01X58077Y77603D02*
Y78083D01*
G01X59996Y77303D02*
Y78103D01*
X61996D01*
Y77303D01*
G01X61030Y77623D02*
Y78103D01*
G01X62949Y78143D02*
X64949D01*
Y77743D01*
X64849Y77583D01*
X64716Y77463D01*
X64516Y77363D01*
X64282Y77283D01*
X63949Y77263D01*
X63616Y77283D01*
X63383Y77363D01*
X63182Y77463D01*
X63049Y77583D01*
X62949Y77743D01*
Y78143D01*
G01X67735Y77263D02*
X67835Y77383D01*
X67902Y77523D01*
Y77683D01*
X67802Y77863D01*
X67635Y78003D01*
X67435Y78103D01*
X67102Y78183D01*
X66802Y78203D01*
X66502Y78163D01*
X66302Y78103D01*
X66102Y77983D01*
X65969Y77843D01*
X65902Y77703D01*
Y77563D01*
X65969Y77423D01*
X66069Y77303D01*
X66202Y77203D01*
G01X69921Y77543D02*
X70021Y77463D01*
X70188Y77403D01*
X70421Y77363D01*
X70621Y77403D01*
X70755Y77483D01*
X70855Y77623D01*
Y78163D01*
X68855D01*
Y77503D01*
X68988Y77363D01*
X69188Y77283D01*
X69421Y77243D01*
X69655Y77283D01*
X69855Y77403D01*
X69921Y77543D01*
Y78163D01*
G01X72004Y78203D02*
X74004Y77703D01*
X72004Y77203D01*
G01X72704Y77383D02*
Y78023D01*
G01X64524Y64524D02*
Y64176D01*
X65837D01*
Y64524D01*
X64524D01*
G01Y53894D02*
Y75154D01*
G01X74957Y64524D02*
X54091D01*
G01X79774Y78697D02*
G03I-880J0D01*
G01X54091Y75154D02*
Y53894D01*
X74957D01*
Y75154D01*
X54091D01*
G01X79550Y86692D02*
X77328D01*
X76863Y86539D01*
X76553Y86232D01*
X76450Y85849D01*
X76553Y85466D01*
X76863Y85159D01*
X77328Y85006D01*
X79550D01*
G01X76450Y82749D02*
X79550D01*
X78930Y83209D01*
G01X76450D02*
Y82289D01*
G01X69529Y131438D02*
X69721Y131128D01*
X69951Y130921D01*
X70219Y130818D01*
X70526Y130921D01*
X70756Y131128D01*
X70986Y131438D01*
X71063Y131851D01*
Y133918D01*
G01X72553Y131438D02*
X72783Y131076D01*
X73089Y130870D01*
X73434Y130818D01*
X73741Y130870D01*
X74048Y131128D01*
X74239Y131438D01*
X74278Y131748D01*
X74201Y132110D01*
X73933Y132368D01*
X73664Y132471D01*
X73319D01*
G01X73664D02*
X73894Y132626D01*
X74086Y132885D01*
X74163Y133195D01*
X74086Y133505D01*
X73894Y133763D01*
X73549Y133918D01*
X73204Y133866D01*
X72859Y133660D01*
G01X75768Y133401D02*
X75998Y133711D01*
X76266Y133866D01*
X76573Y133918D01*
X76956Y133815D01*
X77224Y133556D01*
X77301Y133246D01*
X77263Y132936D01*
X77109Y132678D01*
X76343Y132161D01*
X75998Y131800D01*
X75768Y131283D01*
X75691Y130818D01*
X77301D01*
M02*
