G04 ================== begin FILE IDENTIFICATION RECORD ==================*
G04 Layout Name:  E:/project/IRISking/ikemb-0001/project/hardware/OV7720_v2/ov7720_V2.brd*
G04 Film Name:    solder_TOP*
G04 File Format:  Gerber RS274X*
G04 File Origin:  16.0-p002*
G04 Origin Date:  Tue Mar 01 10:09:53 2011*
G04 *
G04 Layer:  BOARD GEOMETRY/OUTLINE*
G04 Layer:  VIA CLASS/SOLDERMASK_TOP*
G04 Layer:  PIN/SOLDERMASK_TOP*
G04 Layer:  PACKAGE GEOMETRY/SOLDERMASK_TOP*
G04 *
G04 Offset:    (0.0000 0.0000)*
G04 Mirror:    No*
G04 Mode:      Positive*
G04 Rotation:  0*
G04 FullContactRelief:  No*
G04 UndefLineWidth:     8.0000*
G04 ================== end FILE IDENTIFICATION RECORD ====================*
%FSLAX55Y55*MOIN*%
%IR0*IPPOS*OFA0.00000B0.00000*MIA0B0*SFA1.00000B1.00000*%
%ADD11C,.031*%
%ADD18C,.025*%
%ADD14C,.07*%
%ADD19C,.026*%
%ADD10C,.058*%
%ADD13C,.098*%
%ADD15R,.07X.07*%
%ADD16C,.22*%
%ADD17R,.056X.066*%
%ADD12R,.058X.058*%
%ADD20C,.008*%
G75*
%LPD*%
G75*
G54D10*
X-29010Y-8708D03*
X-21136D03*
X-29010Y22788D03*
X-21136D03*
X-29010Y14914D03*
X-21136D03*
X-29010Y7040D03*
X-21136D03*
X-29010Y-834D03*
X-21136D03*
X-29010Y46410D03*
X-21136D03*
X-29010Y38536D03*
X-21136D03*
X-29010Y30662D03*
X-21136D03*
X-29010Y77906D03*
X-21136D03*
X-29010Y70032D03*
X-21136D03*
X-29010Y62158D03*
X-21136D03*
X-29010Y54284D03*
X-21136D03*
X-29010Y109402D03*
X-21136D03*
X-29010Y101528D03*
X-21136D03*
X-29010Y93654D03*
X-21136D03*
X-29010Y85780D03*
X-21136D03*
Y117276D03*
G54D20*
G01X10128Y121443D02*
X-801D01*
X-8880Y129522D01*
X-37393D01*
X-41432Y125483D01*
Y-17433D01*
X-37511Y-21354D01*
X-13751D01*
X-8999Y-16602D01*
Y-11470D01*
X-9436Y-11033D01*
X119364D01*
Y8967D01*
X139364D01*
Y140967D01*
X10564D01*
Y120967D01*
G54D11*
X-15058Y90080D03*
X20536Y74691D03*
X15705Y110882D03*
X-241Y99657D03*
X9259Y82141D03*
X20318Y119375D03*
X43050Y43587D03*
Y47507D03*
X44745Y37748D03*
Y34838D03*
X46786Y32901D03*
X50055Y55429D03*
X46709Y78859D03*
X50302Y69241D03*
X51112Y71827D03*
X40823Y53672D03*
X46515Y52752D03*
X29450Y69241D03*
X36570Y79454D03*
X45253Y72573D03*
X44644Y62705D03*
Y65973D03*
X47294Y58542D03*
X44812Y103362D03*
X50138Y84009D03*
X44644Y85395D03*
X29198Y108052D03*
X50812Y113041D03*
X33010Y114061D03*
X71441Y8078D03*
X71436Y-2197D03*
X63402Y2993D03*
X80679Y12638D03*
X78073Y39003D03*
X81724Y51745D03*
X72275Y77376D03*
X78073Y53454D03*
X62505Y69988D03*
X56080Y75143D03*
X76314Y69717D03*
X60130Y53339D03*
X62849Y65115D03*
X54548Y60239D03*
X74892Y67116D03*
X66358Y69893D03*
X60210Y76794D03*
X76024Y76447D03*
X66475Y66974D03*
X75443Y60884D03*
X54075Y91065D03*
X60210Y90836D03*
X75351Y86923D03*
X68853Y86869D03*
X99110Y19906D03*
X83900Y1448D03*
X90110Y20948D03*
X105392Y20228D03*
X100902Y80631D03*
X101845Y72506D03*
X107435Y79379D03*
X86970Y55881D03*
X81822Y60129D03*
X101419Y54971D03*
X87082Y75698D03*
X97037Y55593D03*
X107435Y66406D03*
X82896Y69446D03*
X101741Y95190D03*
X93038Y101153D03*
X89869Y114140D03*
X113460Y1448D03*
X115751Y51529D03*
G54D12*
X-29010Y117276D03*
G54D13*
X0Y0D03*
X129921Y129921D03*
G54D14*
X46738Y126157D03*
X36738D03*
X56738D03*
G54D15*
X26738D03*
G54D16*
X65840Y24800D03*
Y103540D03*
G54D17*
X77070Y-922D03*
Y8078D03*
G54D18*
X57142Y56650D03*
Y59800D03*
Y62949D03*
Y66099D03*
Y69248D03*
Y72398D03*
X60095Y56650D03*
Y59800D03*
Y62949D03*
Y66099D03*
Y69248D03*
Y72398D03*
X63048Y56650D03*
Y72398D03*
X66000Y56650D03*
Y72398D03*
X68953Y56650D03*
Y59800D03*
Y62949D03*
Y66099D03*
Y69248D03*
Y72398D03*
X71906Y56650D03*
Y59800D03*
Y62949D03*
Y66099D03*
Y69248D03*
Y72398D03*
G54D19*
X68953Y75450D03*
X53552Y62949D03*
X65438Y64504D03*
X62754Y59800D03*
M02*
