G04 ================== begin FILE IDENTIFICATION RECORD ==================*
G04 Layout Name:  E:/project/IRISking/ikemb-0001/project/hardware/OV7720_v2/ov7720_V2.brd*
G04 Film Name:    TOP*
G04 File Format:  Gerber RS274X*
G04 File Origin:  16.0-p002*
G04 Origin Date:  Tue Mar 01 10:09:53 2011*
G04 *
G04 Layer:  BOARD GEOMETRY/OUTLINE*
G04 Layer:  ETCH/TOP*
G04 Layer:  PIN/TOP*
G04 Layer:  VIA CLASS/TOP*
G04 *
G04 Offset:    (0.0000 0.0000)*
G04 Mirror:    No*
G04 Mode:      Positive*
G04 Rotation:  0*
G04 FullContactRelief:  No*
G04 UndefLineWidth:     8.0000*
G04 ================== end FILE IDENTIFICATION RECORD ====================*
%FSLAX55Y55*MOIN*%
%IR0*IPPOS*OFA0.00000B0.00000*MIA0B0*SFA1.00000B1.00000*%
%ADD11C,.023*%
%ADD10C,.05*%
%ADD18C,.017*%
%ADD14C,.062*%
%ADD19C,.018*%
%ADD13C,.09*%
%ADD17R,.05X.06*%
%ADD12R,.05X.05*%
%ADD16C,.2*%
%ADD15R,.062X.062*%
%ADD20C,.01*%
%ADD21C,.0041*%
%ADD22C,.0061*%
%ADD23C,.008*%
G75*
%LPD*%
G75*
G54D10*
X-29010Y-8708D03*
X-21136D03*
X-29010Y22788D03*
X-21136D03*
X-29010Y14914D03*
X-21136D03*
X-29010Y7040D03*
X-21136D03*
X-29010Y-834D03*
X-21136D03*
X-29010Y46410D03*
X-21136D03*
X-29010Y38536D03*
X-21136D03*
X-29010Y30662D03*
X-21136D03*
X-29010Y77906D03*
X-21136D03*
X-29010Y70032D03*
X-21136D03*
X-29010Y62158D03*
X-21136D03*
X-29010Y54284D03*
X-21136D03*
X-29010Y109402D03*
X-21136D03*
X-29010Y101528D03*
X-21136D03*
X-29010Y93654D03*
X-21136D03*
X-29010Y85780D03*
X-21136D03*
Y117276D03*
G54D20*
G01X71441Y8078D02*
X77070D01*
G01X68953Y75450D02*
Y72398D01*
G01X53552Y62949D02*
X57142D01*
G01X68953D02*
X66914D01*
X65359Y64504D01*
X65438D01*
G01X62754Y59800D02*
X60095D01*
G54D11*
X-15058Y90080D03*
X20536Y74691D03*
X15705Y110882D03*
X-241Y99657D03*
X9259Y82141D03*
X20318Y119375D03*
X43050Y43587D03*
Y47507D03*
X44745Y37748D03*
Y34838D03*
X46786Y32901D03*
X50055Y55429D03*
X46709Y78859D03*
X50302Y69241D03*
X51112Y71827D03*
X40823Y53672D03*
X46515Y52752D03*
X29450Y69241D03*
X36570Y79454D03*
X45253Y72573D03*
X44644Y62705D03*
Y65973D03*
X47294Y58542D03*
X44812Y103362D03*
X50138Y84009D03*
X44644Y85395D03*
X29198Y108052D03*
X50812Y113041D03*
X33010Y114061D03*
X71441Y8078D03*
X71436Y-2197D03*
X63402Y2993D03*
X80679Y12638D03*
X78073Y39003D03*
X81724Y51745D03*
X72275Y77376D03*
X78073Y53454D03*
X62505Y69988D03*
X56080Y75143D03*
X76314Y69717D03*
X60130Y53339D03*
X62849Y65115D03*
X54548Y60239D03*
X74892Y67116D03*
X66358Y69893D03*
X60210Y76794D03*
X76024Y76447D03*
X66475Y66974D03*
X75443Y60884D03*
X54075Y91065D03*
X60210Y90836D03*
X75351Y86923D03*
X68853Y86869D03*
X99110Y19906D03*
X83900Y1448D03*
X90110Y20948D03*
X105392Y20228D03*
X100902Y80631D03*
X101845Y72506D03*
X107435Y79379D03*
X86970Y55881D03*
X81822Y60129D03*
X101419Y54971D03*
X87082Y75698D03*
X97037Y55593D03*
X107435Y66406D03*
X82896Y69446D03*
X101741Y95190D03*
X93038Y101153D03*
X89869Y114140D03*
X113460Y1448D03*
X115751Y51529D03*
G54D21*
G01X70441Y53403D02*
Y58580D01*
X71661Y59800D01*
X71906D01*
G01X57142Y56650D02*
X54778D01*
X54173Y57255D01*
G01X53528Y73378D02*
X54508Y72398D01*
X57142D01*
G01X60095Y62949D02*
X65258D01*
X67465Y60742D01*
Y54842D01*
G01X68953Y56650D02*
Y53403D01*
G01X53528Y69248D02*
X53648D01*
G01Y54785D02*
X53528D01*
G01X75443Y62949D02*
X71906D01*
G01X53528Y66234D02*
X53648D01*
G01X71906Y56650D02*
X72551Y57295D01*
X75192D01*
G01X57142Y59800D02*
Y61465D01*
X57826D01*
X58607Y62246D01*
Y66783D01*
X59388Y67564D01*
X62950D01*
X64513Y69126D01*
Y73267D01*
X62950Y74829D01*
X58384D01*
X58145Y75068D01*
Y75610D01*
G01X57142Y69248D02*
X53648D01*
G01X53528Y70933D02*
X53648D01*
G01X60095Y69248D02*
X58410Y70933D01*
X53648D01*
G01X60095Y72398D02*
X62505Y69988D01*
G01X63048Y72398D02*
X61437Y74009D01*
X57214D01*
X56080Y75143D01*
G01X63048Y56650D02*
X62512Y56114D01*
Y54569D01*
G01X60095Y56650D02*
X58230Y54785D01*
X53648D01*
G01X75646Y69248D02*
X75785D01*
X76254Y69717D01*
X76314D01*
G01X71906Y69248D02*
X75646D01*
G01X66000Y56650D02*
X64535Y58115D01*
X56672D01*
X54548Y60239D01*
G01X68953Y69248D02*
X68308Y69893D01*
X66358D01*
G01X57142Y66099D02*
X55545D01*
X55409Y66234D01*
X53648D01*
G01X66000Y72398D02*
Y74499D01*
G01X68953Y59800D02*
X70418Y61265D01*
X75443D01*
G54D12*
X-29010Y117276D03*
G54D22*
G01Y-8708D02*
X-25127Y-4825D01*
X-17724D01*
X-261Y12638D01*
X80679D01*
G01X-21136Y-834D02*
X-17582D01*
X10699Y27447D01*
X46692D01*
X70441Y51196D01*
Y53403D01*
G01X-21136Y22788D02*
X-13841Y30083D01*
Y50241D01*
X5159Y69241D01*
X29450D01*
G01X-29010Y77906D02*
X-25795Y74691D01*
X20536D01*
G01X-21136Y101528D02*
X-20684D01*
G01X-21136Y93654D02*
X-18632D01*
X-15058Y90080D01*
G01X-21136Y109402D02*
X-16556D01*
X-15206Y108052D01*
X29198D01*
G01X-29010Y109402D02*
X-25795Y106187D01*
X9837D01*
X36570Y79454D01*
G01X-29010Y93654D02*
X-25795Y90439D01*
Y85641D01*
X-22295Y82141D01*
X9259D01*
G01X-29010Y117276D02*
X-25795Y114061D01*
X33010D01*
G01X54173Y57255D02*
X54134Y57294D01*
X49282D01*
X48666Y56677D01*
X46522D01*
X45944Y57255D01*
X41008D01*
X38758Y55005D01*
Y43735D01*
X44745Y37748D01*
G01Y34838D02*
X42538D01*
X37538Y39838D01*
Y55300D01*
X41078Y58839D01*
X44954D01*
X48437Y62322D01*
Y71981D01*
X50148Y73692D01*
X53214D01*
X53528Y73378D01*
G01X67465Y54842D02*
Y54008D01*
X61506Y48048D01*
X56253D01*
X48860Y40655D01*
Y34146D01*
X47615Y32901D01*
X46786D01*
G01X68953Y53403D02*
Y52153D01*
X62955Y46155D01*
X58372D01*
X51384Y39167D01*
Y33893D01*
X47236Y29745D01*
X41195D01*
X36056Y34884D01*
Y55260D01*
X40655Y59859D01*
X44531D01*
X47417Y62745D01*
Y70409D01*
X45253Y72573D01*
G01X58145Y75610D02*
Y76632D01*
X55917Y78859D01*
X46709D01*
G01X50302Y69241D02*
X50309Y69248D01*
X53528D01*
G01X62512Y54569D02*
X62986Y54096D01*
Y53135D01*
X60299Y50448D01*
X44047D01*
X40823Y53672D01*
G01X53528Y54785D02*
X51570Y52827D01*
X46590D01*
X46515Y52752D01*
G01X41163Y64121D02*
X42579Y62705D01*
X44644D01*
G01X42204Y71675D02*
Y79644D01*
X44704Y82144D01*
X55517D01*
X57048Y80614D01*
X75936D01*
X79487Y77064D01*
Y70032D01*
X79498Y70021D01*
Y68476D01*
X79487Y68464D01*
Y66993D01*
X75443Y62949D01*
G01X44644Y65973D02*
Y69235D01*
X42204Y71675D01*
G01X38233Y67704D02*
X42204Y71675D01*
G01X47294Y58542D02*
X47872Y59120D01*
X49561D01*
X51463Y61022D01*
Y64169D01*
X53528Y66234D01*
G01X75192Y57295D02*
X80518Y62621D01*
Y77475D01*
X79910Y78084D01*
X76359Y81634D01*
X57470D01*
X53152Y85952D01*
X45201D01*
X44644Y85395D01*
G01X77070Y-922D02*
Y-422D01*
X75850Y798D01*
Y2993D01*
X63402D01*
G01X51112Y71827D02*
X52006Y70933D01*
X53528D01*
G01X60095Y66099D02*
X61865D01*
X62849Y65115D01*
G01X71906Y66099D02*
X73875D01*
X74892Y67116D01*
G01X66000Y74499D02*
Y75427D01*
X64633Y76794D01*
X60210D01*
G01X71906Y72398D02*
X71975D01*
X75192Y75615D01*
G01D02*
X76024Y76447D01*
G01X68953Y66099D02*
X67350D01*
X66475Y66974D01*
G01X75443Y61265D02*
Y60884D01*
G01X81724Y51745D02*
X85105Y55126D01*
Y61528D01*
X82896Y63737D01*
Y69446D01*
G54D13*
X0Y0D03*
X129921Y129921D03*
G54D23*
G01X10128Y121443D02*
X-801D01*
X-8880Y129522D01*
X-37393D01*
X-41432Y125483D01*
Y-17433D01*
X-37511Y-21354D01*
X-13751D01*
X-8999Y-16602D01*
Y-11470D01*
X-9436Y-11033D01*
X119364D01*
Y8967D01*
X139364D01*
Y140967D01*
X10564D01*
Y120967D01*
G54D14*
X46738Y126157D03*
X36738D03*
X56738D03*
G54D15*
X26738D03*
G54D16*
X65840Y24800D03*
Y103540D03*
G54D17*
X77070Y-922D03*
Y8078D03*
G54D18*
X57142Y56650D03*
Y59800D03*
Y62949D03*
Y66099D03*
Y69248D03*
Y72398D03*
X60095Y56650D03*
Y59800D03*
Y62949D03*
Y66099D03*
Y69248D03*
Y72398D03*
X63048Y56650D03*
Y72398D03*
X66000Y56650D03*
Y72398D03*
X68953Y56650D03*
Y59800D03*
Y62949D03*
Y66099D03*
Y69248D03*
Y72398D03*
X71906Y56650D03*
Y59800D03*
Y62949D03*
Y66099D03*
Y69248D03*
Y72398D03*
G54D19*
X68953Y75450D03*
X53552Y62949D03*
X65438Y64504D03*
X62754Y59800D03*
M02*
