G04 ================== begin FILE IDENTIFICATION RECORD ==================*
G04 Layout Name:  D:/project/IRISking/IKEMB001/project/hardware/POWER5_2679/POWER_2679.brd*
G04 Film Name:    Silk_Top*
G04 File Format:  Gerber RS274X*
G04 File Origin:  15.7-p007*
G04 Origin Date:  Sun Nov 25 09:41:35 2007*
G04 *
G04 Layer:  REF DES/ASSEMBLY_TOP*
G04 Layer:  BOARD GEOMETRY/SILKSCREEN_TOP*
G04 Layer:  REF DES/SILKSCREEN_TOP*
G04 Layer:  PACKAGE GEOMETRY/SILKSCREEN_TOP*
G04 Layer:  BOARD GEOMETRY/OUTLINE*
G04 *
G04 Offset:    (0.000 0.000)*
G04 Mirror:    No*
G04 Mode:      Positive*
G04 Rotation:  0*
G04 FullContactRelief:  No*
G04 UndefLineWidth:     8.000*
G04 ================== end FILE IDENTIFICATION RECORD ====================*
%FSLAX53Y53*MOIN*%
%IR0*IPPOS*OFA0.00000B0.00000*MIA0B0*SFA1.00000B1.00000*%
%ADD10C,.008*%
G75*
%LPD*%
G75*
G54D10*
G01X790Y590D02*
Y770D01*
X770Y790D01*
X290D01*
Y570D01*
X770D01*
X790Y590D01*
G01X710Y570D02*
X290D01*
Y790D01*
X770D01*
X790Y770D01*
Y590D01*
X770Y570D01*
X710D01*
G01X1850Y3740D02*
Y-197D01*
X-197D01*
Y3740D01*
X1850D01*
G01X312Y548D02*
X310Y550D01*
X307Y551D01*
X304D01*
X300Y549D01*
X298Y547D01*
X296Y543D01*
X294Y538D01*
X294Y534D01*
X295Y529D01*
X296Y526D01*
X298Y523D01*
X301Y521D01*
X304Y520D01*
X306D01*
X309Y521D01*
X311Y522D01*
X313Y524D01*
G01X327Y545D02*
X330Y549D01*
X332Y550D01*
X335Y551D01*
X339Y550D01*
X342Y547D01*
X343Y544D01*
X342Y541D01*
X341Y538D01*
X333Y533D01*
X330Y529D01*
X327Y524D01*
X326Y520D01*
X343D01*
G01X358Y533D02*
X361Y536D01*
X363Y538D01*
X366Y539D01*
X369Y538D01*
X371Y536D01*
X372Y533D01*
X373Y529D01*
X372Y526D01*
X371Y523D01*
X369Y521D01*
X366Y520D01*
X363Y521D01*
X360Y524D01*
X359Y528D01*
X358Y534D01*
X359Y540D01*
X360Y544D01*
X362Y548D01*
X365Y550D01*
X367Y551D01*
X370Y550D01*
X372Y547D01*
G01X388Y524D02*
X390Y522D01*
X393Y520D01*
X396Y520D01*
X400Y521D01*
X403Y523D01*
X405Y526D01*
X405Y531D01*
X404Y535D01*
X402Y537D01*
X400Y539D01*
X397Y540D01*
X394Y539D01*
X391Y537D01*
X392Y551D01*
X402D01*
G01X268Y249D02*
Y312D01*
X287D01*
X293Y309D01*
X298Y301D01*
X299Y293D01*
X298Y285D01*
X294Y278D01*
X287Y275D01*
X268D01*
G01X346Y249D02*
X340Y250D01*
X335Y254D01*
X330Y261D01*
X327Y268D01*
X325Y276D01*
Y285D01*
X327Y293D01*
X330Y300D01*
X335Y307D01*
X340Y311D01*
X346Y312D01*
X353Y311D01*
X358Y307D01*
X363Y300D01*
X366Y293D01*
X368Y285D01*
Y276D01*
X366Y268D01*
X363Y261D01*
X358Y254D01*
X353Y250D01*
X346Y249D01*
G01X386Y312D02*
X397Y249D01*
X409Y312D01*
X422Y249D01*
X433Y312D01*
G01X488Y249D02*
X457D01*
Y312D01*
X488D01*
G01X476Y282D02*
X457D01*
G01X520Y249D02*
Y312D01*
X539D01*
X546Y309D01*
X550Y305D01*
X551Y296D01*
X550Y288D01*
X545Y283D01*
X539Y279D01*
X520D01*
G01X539D02*
X551Y249D01*
G01X598D02*
Y312D01*
X589Y299D01*
G01Y249D02*
X608D01*
G01X647Y301D02*
X651Y308D01*
X657Y311D01*
X663Y312D01*
X671Y310D01*
X676Y305D01*
X678Y298D01*
X677Y292D01*
X674Y287D01*
X658Y276D01*
X651Y269D01*
X647Y258D01*
X645Y249D01*
X678D01*
G01X714Y270D02*
X735D01*
G01X768Y312D02*
X787Y249D01*
X807Y312D01*
G01X860Y249D02*
Y312D01*
X831Y267D01*
X870D01*
G01X840Y1075D02*
X540D01*
Y1525D01*
X840D01*
Y1075D01*
G01X489Y1101D02*
X520D01*
Y1117D01*
G01X495Y1133D02*
X491Y1135D01*
X490Y1138D01*
X489Y1141D01*
X490Y1145D01*
X493Y1147D01*
X496Y1148D01*
X499Y1148D01*
X502Y1146D01*
X507Y1138D01*
X511Y1135D01*
X516Y1133D01*
X520Y1132D01*
Y1148D01*
G01X516Y1163D02*
X518Y1165D01*
X520Y1168D01*
X520Y1171D01*
X519Y1174D01*
X517Y1177D01*
X514Y1179D01*
X509Y1179D01*
X505Y1179D01*
X503Y1177D01*
X501Y1174D01*
X500Y1171D01*
X501Y1169D01*
X503Y1165D01*
X489Y1166D01*
Y1177D01*
G01X790Y830D02*
Y1010D01*
X770Y1030D01*
X290D01*
Y810D01*
X770D01*
X790Y830D01*
G01X710Y810D02*
X290D01*
Y1030D01*
X770D01*
X790Y1010D01*
Y830D01*
X770Y810D01*
X710D01*
G01X398Y1538D02*
X342D01*
Y1662D01*
X398D01*
Y1538D01*
G01X345Y1565D02*
Y1540D01*
X395D01*
Y1550D01*
G01Y1650D02*
Y1660D01*
X345D01*
Y1635D01*
G01X468Y1278D02*
X412D01*
Y1402D01*
X468D01*
Y1278D01*
G01X415Y1305D02*
Y1280D01*
X465D01*
Y1290D01*
G01Y1390D02*
Y1400D01*
X415D01*
Y1375D01*
G01X468Y1408D02*
X412D01*
Y1532D01*
X468D01*
Y1408D01*
G01X415Y1435D02*
Y1410D01*
X465D01*
Y1420D01*
G01Y1520D02*
Y1530D01*
X415D01*
Y1505D01*
G01X528Y1278D02*
X472D01*
Y1402D01*
X528D01*
Y1278D01*
G01X475Y1305D02*
Y1280D01*
X525D01*
Y1290D01*
G01Y1390D02*
Y1400D01*
X475D01*
Y1375D01*
G01X528Y1408D02*
X472D01*
Y1532D01*
X528D01*
Y1408D01*
G01X475Y1435D02*
Y1410D01*
X525D01*
Y1420D01*
G01Y1520D02*
Y1530D01*
X475D01*
Y1505D01*
G01X182Y1968D02*
X180Y1970D01*
X177Y1971D01*
X174D01*
X170Y1969D01*
X168Y1967D01*
X166Y1963D01*
X164Y1958D01*
X164Y1954D01*
X165Y1949D01*
X166Y1946D01*
X168Y1943D01*
X171Y1941D01*
X174Y1940D01*
X176D01*
X179Y1941D01*
X181Y1942D01*
X183Y1944D01*
G01X197Y1965D02*
X200Y1969D01*
X202Y1970D01*
X205Y1971D01*
X209Y1970D01*
X212Y1967D01*
X213Y1964D01*
X212Y1961D01*
X211Y1958D01*
X203Y1953D01*
X200Y1949D01*
X197Y1944D01*
X196Y1940D01*
X213D01*
G01X235D02*
X235Y1946D01*
X237Y1952D01*
X238Y1957D01*
X240Y1963D01*
X243Y1971D01*
X228D01*
G01X266D02*
X263Y1970D01*
X261Y1967D01*
X260Y1964D01*
X258Y1960D01*
X258Y1955D01*
X258Y1951D01*
X260Y1946D01*
X261Y1943D01*
X263Y1941D01*
X266Y1940D01*
X270Y1941D01*
X272Y1943D01*
X273Y1946D01*
X275Y1951D01*
X275Y1955D01*
X275Y1960D01*
X273Y1964D01*
X272Y1967D01*
X270Y1970D01*
X266Y1971D01*
G01X-38Y1968D02*
X-40Y1970D01*
X-43Y1971D01*
X-46D01*
X-50Y1969D01*
X-52Y1967D01*
X-54Y1963D01*
X-56Y1958D01*
X-56Y1954D01*
X-55Y1949D01*
X-54Y1946D01*
X-52Y1943D01*
X-49Y1941D01*
X-46Y1940D01*
X-44D01*
X-41Y1941D01*
X-39Y1942D01*
X-37Y1944D01*
G01X-23Y1965D02*
X-20Y1969D01*
X-18Y1970D01*
X-15Y1971D01*
X-11Y1970D01*
X-8Y1967D01*
X-7Y1964D01*
X-8Y1961D01*
X-9Y1958D01*
X-17Y1953D01*
X-20Y1949D01*
X-23Y1944D01*
X-24Y1940D01*
X-7D01*
G01X15D02*
X15Y1946D01*
X17Y1952D01*
X18Y1957D01*
X20Y1963D01*
X23Y1971D01*
X8D01*
G01X39Y1953D02*
X42Y1956D01*
X44Y1958D01*
X47Y1959D01*
X50Y1958D01*
X52Y1956D01*
X53Y1953D01*
X54Y1949D01*
X53Y1946D01*
X52Y1943D01*
X50Y1941D01*
X47Y1940D01*
X44Y1941D01*
X41Y1944D01*
X40Y1948D01*
X39Y1954D01*
X40Y1960D01*
X41Y1964D01*
X43Y1968D01*
X46Y1970D01*
X48Y1971D01*
X51Y1970D01*
X53Y1967D01*
G01X672Y1630D02*
Y1803D01*
X416D01*
Y1630D01*
X672D01*
G01X272Y1362D02*
X270Y1360D01*
X269Y1357D01*
Y1354D01*
X271Y1350D01*
X273Y1348D01*
X277Y1346D01*
X282Y1344D01*
X286Y1344D01*
X291Y1345D01*
X294Y1346D01*
X297Y1348D01*
X299Y1351D01*
X300Y1354D01*
Y1356D01*
X299Y1359D01*
X298Y1361D01*
X296Y1363D01*
G01X275Y1377D02*
X271Y1380D01*
X270Y1382D01*
X269Y1385D01*
X270Y1389D01*
X273Y1392D01*
X276Y1393D01*
X279Y1392D01*
X282Y1391D01*
X287Y1383D01*
X291Y1380D01*
X296Y1377D01*
X300Y1376D01*
Y1393D01*
G01Y1415D02*
X294Y1415D01*
X288Y1417D01*
X283Y1418D01*
X277Y1420D01*
X269Y1423D01*
Y1408D01*
G01X297Y1440D02*
X299Y1443D01*
X300Y1446D01*
X299Y1449D01*
X296Y1451D01*
X292Y1453D01*
X287Y1454D01*
X281D01*
X277Y1453D01*
X272Y1451D01*
X270Y1449D01*
X269Y1446D01*
X270Y1443D01*
X272Y1441D01*
X276Y1440D01*
X280Y1439D01*
X283Y1440D01*
X287Y1441D01*
X289Y1444D01*
X289Y1446D01*
X288Y1450D01*
X286Y1452D01*
X281Y1454D01*
G01X260Y1346D02*
X229D01*
Y1355D01*
X231Y1359D01*
X233Y1360D01*
X237Y1361D01*
X241Y1360D01*
X244Y1358D01*
X245Y1355D01*
Y1346D01*
G01Y1355D02*
X260Y1361D01*
G01Y1385D02*
X229D01*
X236Y1380D01*
G01X260D02*
Y1389D01*
G01Y1415D02*
X260Y1418D01*
X258Y1421D01*
X256Y1423D01*
X252Y1424D01*
X248Y1423D01*
X245Y1421D01*
X244Y1417D01*
Y1414D01*
X243Y1411D01*
X240Y1409D01*
X237Y1409D01*
X233Y1410D01*
X230Y1412D01*
X229Y1415D01*
X230Y1419D01*
X233Y1421D01*
X237Y1422D01*
X240Y1422D01*
X243Y1420D01*
X244Y1417D01*
Y1414D01*
X245Y1410D01*
X248Y1408D01*
X252Y1407D01*
X256Y1408D01*
X258Y1410D01*
X260Y1413D01*
X260Y1415D01*
G01X257Y1440D02*
X259Y1443D01*
X260Y1446D01*
X259Y1449D01*
X256Y1451D01*
X252Y1453D01*
X247Y1454D01*
X241D01*
X237Y1453D01*
X232Y1451D01*
X230Y1449D01*
X229Y1446D01*
X230Y1443D01*
X232Y1441D01*
X236Y1440D01*
X240Y1439D01*
X243Y1440D01*
X247Y1441D01*
X249Y1444D01*
X249Y1446D01*
X248Y1450D01*
X246Y1452D01*
X241Y1454D01*
G01X272Y1232D02*
X270Y1230D01*
X269Y1227D01*
Y1224D01*
X271Y1220D01*
X273Y1218D01*
X277Y1216D01*
X282Y1214D01*
X286Y1214D01*
X291Y1215D01*
X294Y1216D01*
X297Y1218D01*
X299Y1221D01*
X300Y1224D01*
Y1226D01*
X299Y1229D01*
X298Y1231D01*
X296Y1233D01*
G01X275Y1247D02*
X271Y1250D01*
X270Y1252D01*
X269Y1255D01*
X270Y1259D01*
X273Y1262D01*
X276Y1263D01*
X279Y1262D01*
X282Y1261D01*
X287Y1253D01*
X291Y1250D01*
X296Y1247D01*
X300Y1246D01*
Y1263D01*
G01Y1285D02*
X300Y1288D01*
X298Y1291D01*
X296Y1293D01*
X292Y1294D01*
X288Y1293D01*
X285Y1291D01*
X284Y1287D01*
Y1284D01*
X283Y1281D01*
X280Y1279D01*
X277Y1279D01*
X273Y1280D01*
X270Y1282D01*
X269Y1285D01*
X270Y1289D01*
X273Y1291D01*
X277Y1292D01*
X280Y1292D01*
X283Y1290D01*
X284Y1287D01*
Y1284D01*
X285Y1280D01*
X288Y1278D01*
X292Y1277D01*
X296Y1278D01*
X298Y1280D01*
X300Y1283D01*
X300Y1285D01*
G01X269Y1316D02*
X270Y1313D01*
X273Y1311D01*
X276Y1310D01*
X280Y1308D01*
X285Y1308D01*
X289Y1308D01*
X294Y1310D01*
X297Y1311D01*
X299Y1313D01*
X300Y1316D01*
X299Y1320D01*
X297Y1322D01*
X294Y1323D01*
X289Y1325D01*
X285Y1325D01*
X280Y1325D01*
X276Y1323D01*
X273Y1322D01*
X270Y1320D01*
X269Y1316D01*
G01X260Y1216D02*
X229D01*
Y1225D01*
X231Y1229D01*
X233Y1230D01*
X237Y1231D01*
X241Y1230D01*
X244Y1228D01*
X245Y1225D01*
Y1216D01*
G01Y1225D02*
X260Y1231D01*
G01Y1255D02*
X229D01*
X236Y1250D01*
G01X260D02*
Y1259D01*
G01Y1285D02*
X260Y1288D01*
X258Y1291D01*
X256Y1293D01*
X252Y1294D01*
X248Y1293D01*
X245Y1291D01*
X244Y1287D01*
Y1284D01*
X243Y1281D01*
X240Y1279D01*
X237Y1279D01*
X233Y1280D01*
X230Y1282D01*
X229Y1285D01*
X230Y1289D01*
X233Y1291D01*
X237Y1292D01*
X240Y1292D01*
X243Y1290D01*
X244Y1287D01*
Y1284D01*
X245Y1280D01*
X248Y1278D01*
X252Y1277D01*
X256Y1278D01*
X258Y1280D01*
X260Y1283D01*
X260Y1285D01*
G01Y1316D02*
X254Y1316D01*
X248Y1318D01*
X243Y1319D01*
X237Y1321D01*
X229Y1324D01*
Y1309D01*
G01X312Y1078D02*
X310Y1080D01*
X307Y1081D01*
X304D01*
X300Y1079D01*
X298Y1077D01*
X296Y1073D01*
X294Y1068D01*
X294Y1064D01*
X295Y1059D01*
X296Y1056D01*
X298Y1053D01*
X301Y1051D01*
X304Y1050D01*
X306D01*
X309Y1051D01*
X311Y1052D01*
X313Y1054D01*
G01X327Y1075D02*
X330Y1079D01*
X332Y1080D01*
X335Y1081D01*
X339Y1080D01*
X342Y1077D01*
X343Y1074D01*
X342Y1071D01*
X341Y1068D01*
X333Y1063D01*
X330Y1059D01*
X327Y1054D01*
X326Y1050D01*
X343D01*
G01X358Y1063D02*
X361Y1066D01*
X363Y1068D01*
X366Y1069D01*
X369Y1068D01*
X371Y1066D01*
X372Y1063D01*
X373Y1059D01*
X372Y1056D01*
X371Y1053D01*
X369Y1051D01*
X366Y1050D01*
X363Y1051D01*
X360Y1054D01*
X359Y1058D01*
X358Y1064D01*
X359Y1070D01*
X360Y1074D01*
X362Y1078D01*
X365Y1080D01*
X367Y1081D01*
X370Y1080D01*
X372Y1077D01*
G01X401Y1050D02*
Y1081D01*
X387Y1058D01*
X406D01*
G01X369Y1701D02*
X392D01*
X396Y1702D01*
X399Y1705D01*
X400Y1709D01*
X399Y1713D01*
X396Y1716D01*
X392Y1717D01*
X369D01*
G01X400Y1745D02*
X369D01*
X392Y1730D01*
Y1750D01*
G01X394Y1763D02*
X398Y1765D01*
X400Y1768D01*
X400Y1771D01*
X400Y1774D01*
X397Y1777D01*
X394Y1779D01*
X391Y1780D01*
X387Y1779D01*
X385Y1776D01*
X384Y1774D01*
Y1770D01*
G01Y1774D02*
X382Y1776D01*
X380Y1778D01*
X377Y1779D01*
X373Y1778D01*
X371Y1776D01*
X369Y1773D01*
X370Y1769D01*
X372Y1766D01*
G01X220Y1460D02*
Y1200D01*
X360D01*
Y1460D01*
X220D01*
G01X360D02*
X380D01*
X400Y1480D01*
X380D01*
G01X400D02*
Y1460D01*
G01X435Y1930D02*
Y1920D01*
X485D01*
Y1945D01*
G01X432Y2042D02*
X488D01*
Y1918D01*
X432D01*
Y2042D01*
G01X375Y1930D02*
Y1920D01*
X425D01*
Y1945D01*
G01X372Y2042D02*
X428D01*
Y1918D01*
X372D01*
Y2042D01*
G01X315Y1870D02*
Y1860D01*
X365D01*
Y1885D01*
G01Y1955D02*
Y1980D01*
X315D01*
Y1970D01*
G01X312Y1982D02*
X368D01*
Y1858D01*
X312D01*
Y1982D01*
G01X675Y1880D02*
X745D01*
Y1980D01*
X725D01*
X675D01*
G01X494Y1880D02*
Y1980D01*
X510D01*
Y1880D01*
X494D01*
G01X320Y1546D02*
X289D01*
Y1555D01*
X291Y1559D01*
X293Y1560D01*
X297Y1561D01*
X301Y1560D01*
X304Y1558D01*
X305Y1555D01*
Y1546D01*
G01Y1555D02*
X320Y1561D01*
G01Y1585D02*
X289D01*
X296Y1580D01*
G01X320D02*
Y1589D01*
G01X317Y1609D02*
X319Y1612D01*
X320Y1615D01*
X319Y1618D01*
X316Y1620D01*
X312Y1622D01*
X307Y1623D01*
X301D01*
X297Y1622D01*
X292Y1620D01*
X290Y1618D01*
X289Y1615D01*
X290Y1612D01*
X292Y1610D01*
X296Y1609D01*
X300Y1608D01*
X303Y1609D01*
X307Y1611D01*
X309Y1613D01*
X309Y1615D01*
X308Y1619D01*
X306Y1621D01*
X301Y1623D01*
G01X289Y1646D02*
X290Y1643D01*
X293Y1641D01*
X296Y1640D01*
X300Y1638D01*
X305Y1638D01*
X309Y1638D01*
X314Y1640D01*
X317Y1641D01*
X319Y1643D01*
X320Y1646D01*
X319Y1650D01*
X317Y1652D01*
X314Y1653D01*
X309Y1655D01*
X305Y1655D01*
X300Y1655D01*
X296Y1653D01*
X293Y1652D01*
X290Y1650D01*
X289Y1646D01*
G01X650Y1985D02*
X660D01*
Y2035D01*
X635D01*
G01X565D02*
X540D01*
Y1985D01*
X550D01*
G01X538Y1982D02*
Y2038D01*
X662D01*
Y1982D01*
X538D01*
G01X494Y1880D02*
Y1980D01*
X746D01*
Y1880D01*
X494D01*
G01X245Y1835D02*
X885D01*
X935Y1885D01*
X915D01*
G01X160Y1835D02*
Y1705D01*
X360D01*
Y1835D01*
X160D01*
Y1775D01*
G01X312Y1732D02*
X310Y1730D01*
X309Y1727D01*
Y1724D01*
X311Y1720D01*
X313Y1718D01*
X317Y1716D01*
X322Y1714D01*
X326Y1714D01*
X331Y1715D01*
X334Y1716D01*
X337Y1718D01*
X339Y1721D01*
X340Y1724D01*
Y1726D01*
X339Y1729D01*
X338Y1731D01*
X336Y1733D01*
G01X315Y1747D02*
X311Y1750D01*
X310Y1752D01*
X309Y1755D01*
X310Y1759D01*
X313Y1762D01*
X316Y1763D01*
X319Y1762D01*
X322Y1761D01*
X327Y1753D01*
X331Y1750D01*
X336Y1747D01*
X340Y1746D01*
Y1763D01*
G01Y1785D02*
X334Y1785D01*
X328Y1787D01*
X323Y1788D01*
X317Y1790D01*
X309Y1793D01*
Y1778D01*
G01X334Y1808D02*
X338Y1810D01*
X340Y1813D01*
X340Y1817D01*
X340Y1820D01*
X337Y1823D01*
X334Y1825D01*
X331Y1825D01*
X327Y1825D01*
X325Y1822D01*
X324Y1819D01*
Y1816D01*
G01Y1819D02*
X322Y1821D01*
X320Y1823D01*
X317Y1824D01*
X313Y1823D01*
X311Y1821D01*
X309Y1818D01*
X310Y1815D01*
X312Y1811D01*
G01X262Y1732D02*
X260Y1730D01*
X259Y1727D01*
Y1724D01*
X261Y1720D01*
X263Y1718D01*
X267Y1716D01*
X272Y1714D01*
X276Y1714D01*
X281Y1715D01*
X284Y1716D01*
X287Y1718D01*
X289Y1721D01*
X290Y1724D01*
Y1726D01*
X289Y1729D01*
X288Y1731D01*
X286Y1733D01*
G01X265Y1747D02*
X261Y1750D01*
X260Y1752D01*
X259Y1755D01*
X260Y1759D01*
X263Y1762D01*
X266Y1763D01*
X269Y1762D01*
X272Y1761D01*
X277Y1753D01*
X281Y1750D01*
X286Y1747D01*
X290Y1746D01*
Y1763D01*
G01X277Y1778D02*
X274Y1781D01*
X272Y1783D01*
X271Y1786D01*
X272Y1789D01*
X274Y1791D01*
X277Y1792D01*
X281Y1793D01*
X284Y1792D01*
X287Y1791D01*
X289Y1789D01*
X290Y1786D01*
X289Y1783D01*
X286Y1780D01*
X282Y1779D01*
X276Y1778D01*
X270Y1779D01*
X266Y1780D01*
X262Y1782D01*
X260Y1785D01*
X259Y1787D01*
X260Y1790D01*
X263Y1792D01*
G01X287Y1810D02*
X289Y1813D01*
X290Y1816D01*
X289Y1819D01*
X286Y1821D01*
X282Y1823D01*
X277Y1824D01*
X271D01*
X267Y1823D01*
X262Y1821D01*
X260Y1819D01*
X259Y1816D01*
X260Y1813D01*
X262Y1811D01*
X266Y1810D01*
X270Y1809D01*
X273Y1810D01*
X277Y1811D01*
X279Y1814D01*
X279Y1816D01*
X278Y1820D01*
X276Y1822D01*
X271Y1824D01*
G01X240Y1716D02*
X209D01*
Y1725D01*
X211Y1729D01*
X213Y1730D01*
X217Y1731D01*
X221Y1730D01*
X224Y1728D01*
X225Y1725D01*
Y1716D01*
G01Y1725D02*
X240Y1731D01*
G01Y1755D02*
X209D01*
X216Y1750D01*
G01X240D02*
Y1759D01*
G01Y1785D02*
X234Y1785D01*
X228Y1787D01*
X223Y1788D01*
X217Y1790D01*
X209Y1793D01*
Y1778D01*
G01X240Y1816D02*
X234Y1816D01*
X228Y1818D01*
X223Y1819D01*
X217Y1821D01*
X209Y1824D01*
Y1809D01*
G01X100Y1855D02*
Y1715D01*
X-100D01*
Y1855D01*
X410D01*
X460Y1905D01*
X440D01*
G01X460Y1900D02*
Y1880D01*
G01X-40Y1726D02*
X-71D01*
Y1735D01*
X-69Y1739D01*
X-67Y1740D01*
X-63Y1741D01*
X-59Y1740D01*
X-56Y1738D01*
X-55Y1735D01*
Y1726D01*
G01Y1735D02*
X-40Y1741D01*
G01Y1765D02*
X-71D01*
X-64Y1760D01*
G01X-40D02*
Y1769D01*
G01Y1795D02*
X-46Y1795D01*
X-52Y1797D01*
X-57Y1798D01*
X-63Y1800D01*
X-71Y1803D01*
Y1788D01*
G01X-53Y1819D02*
X-56Y1822D01*
X-58Y1824D01*
X-59Y1827D01*
X-58Y1830D01*
X-56Y1832D01*
X-53Y1833D01*
X-49Y1834D01*
X-46Y1833D01*
X-43Y1832D01*
X-41Y1830D01*
X-40Y1827D01*
X-41Y1824D01*
X-44Y1821D01*
X-48Y1820D01*
X-54Y1819D01*
X-60Y1820D01*
X-64Y1821D01*
X-68Y1823D01*
X-70Y1826D01*
X-71Y1828D01*
X-70Y1831D01*
X-67Y1833D01*
G01X-18Y1742D02*
X-20Y1740D01*
X-21Y1737D01*
Y1734D01*
X-19Y1730D01*
X-17Y1728D01*
X-13Y1726D01*
X-8Y1724D01*
X-4Y1724D01*
X1Y1725D01*
X4Y1726D01*
X7Y1728D01*
X9Y1731D01*
X10Y1734D01*
Y1736D01*
X9Y1739D01*
X8Y1741D01*
X6Y1743D01*
G01X-15Y1757D02*
X-19Y1760D01*
X-20Y1762D01*
X-21Y1765D01*
X-20Y1769D01*
X-17Y1772D01*
X-14Y1773D01*
X-11Y1772D01*
X-8Y1771D01*
X-3Y1763D01*
X1Y1760D01*
X6Y1757D01*
X10Y1756D01*
Y1773D01*
G01X-3Y1788D02*
X-6Y1791D01*
X-8Y1793D01*
X-9Y1796D01*
X-8Y1799D01*
X-6Y1801D01*
X-3Y1802D01*
X1Y1803D01*
X4Y1802D01*
X7Y1801D01*
X9Y1799D01*
X10Y1796D01*
X9Y1793D01*
X6Y1790D01*
X2Y1789D01*
X-4Y1788D01*
X-10Y1789D01*
X-14Y1790D01*
X-18Y1792D01*
X-20Y1795D01*
X-21Y1797D01*
X-20Y1800D01*
X-17Y1802D01*
G01X10Y1826D02*
X10Y1829D01*
X8Y1832D01*
X6Y1834D01*
X2Y1835D01*
X-2Y1834D01*
X-5Y1832D01*
X-6Y1828D01*
Y1825D01*
X-7Y1822D01*
X-10Y1820D01*
X-13Y1820D01*
X-17Y1821D01*
X-20Y1823D01*
X-21Y1826D01*
X-20Y1830D01*
X-17Y1832D01*
X-13Y1833D01*
X-10Y1833D01*
X-7Y1831D01*
X-6Y1828D01*
Y1825D01*
X-5Y1821D01*
X-2Y1819D01*
X2Y1818D01*
X6Y1819D01*
X8Y1821D01*
X10Y1824D01*
X10Y1826D01*
G01X32Y1742D02*
X30Y1740D01*
X29Y1737D01*
Y1734D01*
X31Y1730D01*
X33Y1728D01*
X37Y1726D01*
X42Y1724D01*
X46Y1724D01*
X51Y1725D01*
X54Y1726D01*
X57Y1728D01*
X59Y1731D01*
X60Y1734D01*
Y1736D01*
X59Y1739D01*
X58Y1741D01*
X56Y1743D01*
G01X35Y1757D02*
X31Y1760D01*
X30Y1762D01*
X29Y1765D01*
X30Y1769D01*
X33Y1772D01*
X36Y1773D01*
X39Y1772D01*
X42Y1771D01*
X47Y1763D01*
X51Y1760D01*
X56Y1757D01*
X60Y1756D01*
Y1773D01*
G01Y1795D02*
X54Y1795D01*
X48Y1797D01*
X43Y1798D01*
X37Y1800D01*
X29Y1803D01*
Y1788D01*
G01X35Y1819D02*
X31Y1821D01*
X30Y1824D01*
X29Y1827D01*
X30Y1831D01*
X33Y1834D01*
X36Y1835D01*
X39Y1834D01*
X42Y1833D01*
X47Y1825D01*
X51Y1821D01*
X56Y1819D01*
X60Y1818D01*
Y1835D01*
G01X830Y1546D02*
X799D01*
Y1555D01*
X801Y1559D01*
X803Y1560D01*
X807Y1561D01*
X811Y1560D01*
X814Y1558D01*
X815Y1555D01*
Y1546D01*
G01Y1555D02*
X830Y1561D01*
G01Y1585D02*
X799D01*
X806Y1580D01*
G01X830D02*
Y1589D01*
G01X827Y1609D02*
X829Y1612D01*
X830Y1615D01*
X829Y1618D01*
X826Y1620D01*
X822Y1622D01*
X817Y1623D01*
X811D01*
X807Y1622D01*
X802Y1620D01*
X800Y1618D01*
X799Y1615D01*
X800Y1612D01*
X802Y1610D01*
X806Y1609D01*
X810Y1608D01*
X813Y1609D01*
X817Y1611D01*
X819Y1613D01*
X819Y1615D01*
X818Y1619D01*
X816Y1621D01*
X811Y1623D01*
G01X830Y1651D02*
X799D01*
X822Y1637D01*
Y1656D01*
G01X712Y2028D02*
X710Y2030D01*
X707Y2031D01*
X704D01*
X700Y2029D01*
X698Y2027D01*
X696Y2023D01*
X694Y2018D01*
X694Y2014D01*
X695Y2009D01*
X696Y2006D01*
X698Y2003D01*
X701Y2001D01*
X704Y2000D01*
X706D01*
X709Y2001D01*
X711Y2002D01*
X713Y2004D01*
G01X727Y2025D02*
X730Y2029D01*
X732Y2030D01*
X735Y2031D01*
X739Y2030D01*
X742Y2027D01*
X743Y2024D01*
X742Y2021D01*
X741Y2018D01*
X733Y2013D01*
X730Y2009D01*
X727Y2004D01*
X726Y2000D01*
X743D01*
G01X758Y2013D02*
X761Y2016D01*
X763Y2018D01*
X766Y2019D01*
X769Y2018D01*
X771Y2016D01*
X772Y2013D01*
X773Y2009D01*
X772Y2006D01*
X771Y2003D01*
X769Y2001D01*
X766Y2000D01*
X763Y2001D01*
X760Y2004D01*
X759Y2008D01*
X758Y2014D01*
X759Y2020D01*
X760Y2024D01*
X762Y2028D01*
X765Y2030D01*
X767Y2031D01*
X770Y2030D01*
X772Y2027D01*
G01X788Y2006D02*
X790Y2002D01*
X793Y2000D01*
X797Y2000D01*
X800Y2000D01*
X803Y2003D01*
X805Y2006D01*
X805Y2009D01*
X805Y2013D01*
X802Y2015D01*
X799Y2016D01*
X796D01*
G01X799D02*
X801Y2018D01*
X803Y2020D01*
X804Y2023D01*
X803Y2027D01*
X801Y2029D01*
X798Y2031D01*
X795Y2030D01*
X791Y2028D01*
G01X-54Y3200D02*
Y3256D01*
G01X-94Y3225D02*
X-13D01*
G01X373Y3216D02*
Y3273D01*
G01X332Y3242D02*
X414D01*
G01X-16Y3227D02*
Y3202D01*
X-6D01*
G01X11D02*
Y3227D01*
X8Y3222D01*
G01Y3202D02*
X14D01*
G01X-40Y3185D02*
X460D01*
Y2535D01*
X-40D01*
Y3185D01*
G01X110Y2430D02*
Y2010D01*
X-110D01*
Y2490D01*
X-90Y2510D01*
X90D01*
X110Y2490D01*
Y2430D01*
G01X90Y2510D02*
X-90D01*
X-110Y2490D01*
Y2010D01*
X110D01*
Y2490D01*
X90Y2510D01*
G01X340Y2430D02*
Y2010D01*
X120D01*
Y2490D01*
X140Y2510D01*
X320D01*
X340Y2490D01*
Y2430D01*
G01X320Y2510D02*
X140D01*
X120Y2490D01*
Y2010D01*
X340D01*
Y2490D01*
X320Y2510D01*
G01X1110Y2105D02*
X370D01*
Y2515D01*
X1110D01*
Y2105D01*
G01X490Y3180D02*
X1210D01*
Y2640D01*
X490D01*
Y3180D01*
G01X485Y2015D02*
Y2040D01*
X435D01*
Y2030D01*
G01X425Y2015D02*
Y2040D01*
X375D01*
Y2030D01*
G01X562Y2078D02*
X560Y2080D01*
X557Y2081D01*
X554D01*
X550Y2079D01*
X548Y2077D01*
X546Y2073D01*
X544Y2068D01*
X544Y2064D01*
X545Y2059D01*
X546Y2056D01*
X548Y2053D01*
X551Y2051D01*
X554Y2050D01*
X556D01*
X559Y2051D01*
X561Y2052D01*
X563Y2054D01*
G01X577Y2075D02*
X580Y2079D01*
X582Y2080D01*
X585Y2081D01*
X589Y2080D01*
X592Y2077D01*
X593Y2074D01*
X592Y2071D01*
X591Y2068D01*
X583Y2063D01*
X580Y2059D01*
X577Y2054D01*
X576Y2050D01*
X593D01*
G01X615D02*
X615Y2056D01*
X617Y2062D01*
X618Y2067D01*
X620Y2073D01*
X623Y2081D01*
X608D01*
G01X651Y2050D02*
Y2081D01*
X637Y2058D01*
X656D01*
G01X562Y2078D02*
X560Y2080D01*
X557Y2081D01*
X554D01*
X550Y2079D01*
X548Y2077D01*
X546Y2073D01*
X544Y2068D01*
X544Y2064D01*
X545Y2059D01*
X546Y2056D01*
X548Y2053D01*
X551Y2051D01*
X554Y2050D01*
X556D01*
X559Y2051D01*
X561Y2052D01*
X563Y2054D01*
G01X577Y2075D02*
X580Y2079D01*
X582Y2080D01*
X585Y2081D01*
X589Y2080D01*
X592Y2077D01*
X593Y2074D01*
X592Y2071D01*
X591Y2068D01*
X583Y2063D01*
X580Y2059D01*
X577Y2054D01*
X576Y2050D01*
X593D01*
G01X615D02*
X615Y2056D01*
X617Y2062D01*
X618Y2067D01*
X620Y2073D01*
X623Y2081D01*
X608D01*
G01X651Y2050D02*
Y2081D01*
X637Y2058D01*
X656D01*
G01X283Y3670D02*
X281Y3672D01*
X278Y3673D01*
X275D01*
X271Y3671D01*
X269Y3669D01*
X267Y3665D01*
X265Y3660D01*
X265Y3656D01*
X266Y3651D01*
X267Y3648D01*
X269Y3645D01*
X272Y3643D01*
X275Y3642D01*
X277D01*
X280Y3643D01*
X282Y3644D01*
X284Y3646D01*
G01X298Y3667D02*
X301Y3671D01*
X303Y3672D01*
X306Y3673D01*
X310Y3672D01*
X313Y3669D01*
X314Y3666D01*
X313Y3663D01*
X312Y3660D01*
X304Y3655D01*
X301Y3651D01*
X298Y3646D01*
X297Y3642D01*
X314D01*
G01X336D02*
X339Y3642D01*
X342Y3644D01*
X344Y3646D01*
X345Y3650D01*
X344Y3654D01*
X342Y3657D01*
X338Y3658D01*
X335D01*
X332Y3659D01*
X330Y3662D01*
X330Y3665D01*
X331Y3669D01*
X333Y3672D01*
X336Y3673D01*
X340Y3672D01*
X342Y3669D01*
X343Y3665D01*
X343Y3662D01*
X341Y3659D01*
X338Y3658D01*
X335D01*
X331Y3657D01*
X329Y3654D01*
X328Y3650D01*
X329Y3646D01*
X331Y3644D01*
X334Y3642D01*
X336Y3642D01*
G01X367D02*
X367Y3648D01*
X369Y3654D01*
X370Y3659D01*
X372Y3665D01*
X375Y3673D01*
X360D01*
G01X-119Y3660D02*
X-121Y3662D01*
X-124Y3663D01*
X-127D01*
X-131Y3661D01*
X-133Y3659D01*
X-135Y3655D01*
X-137Y3650D01*
X-137Y3646D01*
X-136Y3641D01*
X-135Y3638D01*
X-133Y3635D01*
X-130Y3633D01*
X-127Y3632D01*
X-125D01*
X-122Y3633D01*
X-120Y3634D01*
X-118Y3636D01*
G01X-104Y3657D02*
X-101Y3661D01*
X-99Y3662D01*
X-96Y3663D01*
X-92Y3662D01*
X-89Y3659D01*
X-88Y3656D01*
X-89Y3653D01*
X-90Y3650D01*
X-98Y3645D01*
X-101Y3641D01*
X-104Y3636D01*
X-105Y3632D01*
X-88D01*
G01X-66D02*
X-63Y3632D01*
X-60Y3634D01*
X-58Y3636D01*
X-57Y3640D01*
X-58Y3644D01*
X-60Y3647D01*
X-64Y3648D01*
X-67D01*
X-70Y3649D01*
X-72Y3652D01*
X-72Y3655D01*
X-71Y3659D01*
X-69Y3662D01*
X-66Y3663D01*
X-62Y3662D01*
X-60Y3659D01*
X-59Y3655D01*
X-59Y3652D01*
X-61Y3649D01*
X-64Y3648D01*
X-67D01*
X-71Y3647D01*
X-73Y3644D01*
X-74Y3640D01*
X-73Y3636D01*
X-71Y3634D01*
X-68Y3632D01*
X-66Y3632D01*
G01X-43Y3636D02*
X-41Y3634D01*
X-38Y3632D01*
X-35Y3632D01*
X-31Y3633D01*
X-28Y3635D01*
X-26Y3638D01*
X-26Y3643D01*
X-27Y3647D01*
X-29Y3649D01*
X-31Y3651D01*
X-34Y3652D01*
X-37Y3651D01*
X-40Y3649D01*
X-39Y3663D01*
X-29D01*
G01X713Y3200D02*
Y3700D01*
X1363D01*
Y3200D01*
X713D01*
G01X273Y3480D02*
G03I-214J0D01*
G01X707Y3482D02*
G03I-214J0D01*
G01X1310Y580D02*
Y760D01*
X1290Y780D01*
X810D01*
Y560D01*
X1290D01*
X1310Y580D01*
G01X1230Y560D02*
X810D01*
Y780D01*
X1290D01*
X1310Y760D01*
Y580D01*
X1290Y560D01*
X1230D01*
G01X1601Y-124D02*
X1603Y-127D01*
X1606Y-129D01*
X1608Y-130D01*
X1611Y-129D01*
X1614Y-127D01*
X1616Y-124D01*
X1617Y-120D01*
Y-99D01*
G01X1645Y-130D02*
Y-99D01*
X1630Y-122D01*
X1650D01*
G01X1670Y-130D02*
X1671Y-124D01*
X1672Y-118D01*
X1674Y-113D01*
X1676Y-107D01*
X1679Y-99D01*
X1663D01*
G01X1325Y90D02*
Y830D01*
X1735D01*
Y90D01*
X1325D01*
G01X1580Y-140D02*
X1280D01*
Y60D01*
X1580D01*
Y-140D01*
G01X822Y538D02*
X820Y540D01*
X817Y541D01*
X814D01*
X810Y539D01*
X808Y537D01*
X806Y533D01*
X804Y528D01*
X804Y524D01*
X805Y519D01*
X806Y516D01*
X808Y513D01*
X811Y511D01*
X814Y510D01*
X816D01*
X819Y511D01*
X821Y512D01*
X823Y514D01*
G01X837Y535D02*
X840Y539D01*
X842Y540D01*
X845Y541D01*
X849Y540D01*
X852Y537D01*
X853Y534D01*
X852Y531D01*
X851Y528D01*
X843Y523D01*
X840Y519D01*
X837Y514D01*
X836Y510D01*
X853D01*
G01X868Y523D02*
X871Y526D01*
X873Y528D01*
X876Y529D01*
X879Y528D01*
X881Y526D01*
X882Y523D01*
X883Y519D01*
X882Y516D01*
X881Y513D01*
X879Y511D01*
X876Y510D01*
X873Y511D01*
X870Y514D01*
X869Y518D01*
X868Y524D01*
X869Y530D01*
X870Y534D01*
X872Y538D01*
X875Y540D01*
X877Y541D01*
X880Y540D01*
X882Y537D01*
G01X899Y523D02*
X902Y526D01*
X904Y528D01*
X907Y529D01*
X910Y528D01*
X912Y526D01*
X913Y523D01*
X914Y519D01*
X913Y516D01*
X912Y513D01*
X910Y511D01*
X907Y510D01*
X904Y511D01*
X901Y514D01*
X900Y518D01*
X899Y524D01*
X900Y530D01*
X901Y534D01*
X903Y538D01*
X906Y540D01*
X908Y541D01*
X911Y540D01*
X913Y537D01*
G01X1601Y-124D02*
X1603Y-127D01*
X1606Y-129D01*
X1608Y-130D01*
X1611Y-129D01*
X1614Y-127D01*
X1616Y-124D01*
X1617Y-120D01*
Y-99D01*
G01X1645Y-130D02*
Y-99D01*
X1630Y-122D01*
X1650D01*
G01X1670Y-130D02*
X1671Y-124D01*
X1672Y-118D01*
X1674Y-113D01*
X1676Y-107D01*
X1679Y-99D01*
X1663D01*
G01X1170Y-5D02*
X1100Y-75D01*
X1240D01*
X1170Y-5D01*
G01X1340Y1075D02*
X1040D01*
Y1525D01*
X1340D01*
Y1075D01*
G01X989Y1101D02*
X1020D01*
Y1117D01*
G01X995Y1133D02*
X991Y1135D01*
X990Y1138D01*
X989Y1141D01*
X990Y1145D01*
X993Y1147D01*
X996Y1148D01*
X999Y1148D01*
X1002Y1146D01*
X1007Y1138D01*
X1011Y1135D01*
X1016Y1133D01*
X1020Y1132D01*
Y1148D01*
G01X1007Y1164D02*
X1004Y1166D01*
X1002Y1169D01*
X1001Y1172D01*
X1002Y1174D01*
X1004Y1176D01*
X1007Y1178D01*
X1011Y1178D01*
X1014Y1178D01*
X1017Y1176D01*
X1019Y1174D01*
X1020Y1171D01*
X1019Y1168D01*
X1016Y1166D01*
X1012Y1164D01*
X1006Y1164D01*
X1000Y1164D01*
X996Y1166D01*
X992Y1168D01*
X990Y1170D01*
X989Y1173D01*
X990Y1176D01*
X993Y1177D01*
G01X1310Y830D02*
Y1010D01*
X1290Y1030D01*
X810D01*
Y810D01*
X1290D01*
X1310Y830D01*
G01X1230Y810D02*
X810D01*
Y1030D01*
X1290D01*
X1310Y1010D01*
Y830D01*
X1290Y810D01*
X1230D01*
G01X1310Y1745D02*
Y1675D01*
X1410D01*
Y1695D01*
Y1745D01*
G01X1342Y1572D02*
X1340Y1570D01*
X1339Y1567D01*
Y1564D01*
X1341Y1560D01*
X1343Y1558D01*
X1347Y1556D01*
X1352Y1554D01*
X1356Y1554D01*
X1361Y1555D01*
X1364Y1556D01*
X1367Y1558D01*
X1369Y1561D01*
X1370Y1564D01*
Y1566D01*
X1369Y1569D01*
X1368Y1571D01*
X1366Y1573D01*
G01X1345Y1587D02*
X1341Y1590D01*
X1340Y1592D01*
X1339Y1595D01*
X1340Y1599D01*
X1343Y1602D01*
X1346Y1603D01*
X1349Y1602D01*
X1352Y1601D01*
X1357Y1593D01*
X1361Y1590D01*
X1366Y1587D01*
X1370Y1586D01*
Y1603D01*
G01X1367Y1619D02*
X1369Y1622D01*
X1370Y1625D01*
X1369Y1628D01*
X1366Y1630D01*
X1362Y1632D01*
X1357Y1633D01*
X1351D01*
X1347Y1632D01*
X1342Y1630D01*
X1340Y1628D01*
X1339Y1625D01*
X1340Y1622D01*
X1342Y1620D01*
X1346Y1619D01*
X1350Y1618D01*
X1353Y1619D01*
X1357Y1621D01*
X1359Y1623D01*
X1359Y1625D01*
X1358Y1629D01*
X1356Y1631D01*
X1351Y1633D01*
G01X1370Y1656D02*
X1339D01*
X1346Y1652D01*
G01X1370D02*
Y1661D01*
G01X1342Y1572D02*
X1340Y1570D01*
X1339Y1567D01*
Y1564D01*
X1341Y1560D01*
X1343Y1558D01*
X1347Y1556D01*
X1352Y1554D01*
X1356Y1554D01*
X1361Y1555D01*
X1364Y1556D01*
X1367Y1558D01*
X1369Y1561D01*
X1370Y1564D01*
Y1566D01*
X1369Y1569D01*
X1368Y1571D01*
X1366Y1573D01*
G01X1345Y1587D02*
X1341Y1590D01*
X1340Y1592D01*
X1339Y1595D01*
X1340Y1599D01*
X1343Y1602D01*
X1346Y1603D01*
X1349Y1602D01*
X1352Y1601D01*
X1357Y1593D01*
X1361Y1590D01*
X1366Y1587D01*
X1370Y1586D01*
Y1603D01*
G01X1367Y1619D02*
X1369Y1622D01*
X1370Y1625D01*
X1369Y1628D01*
X1366Y1630D01*
X1362Y1632D01*
X1357Y1633D01*
X1351D01*
X1347Y1632D01*
X1342Y1630D01*
X1340Y1628D01*
X1339Y1625D01*
X1340Y1622D01*
X1342Y1620D01*
X1346Y1619D01*
X1350Y1618D01*
X1353Y1619D01*
X1357Y1621D01*
X1359Y1623D01*
X1359Y1625D01*
X1358Y1629D01*
X1356Y1631D01*
X1351Y1633D01*
G01X1370Y1656D02*
X1339D01*
X1346Y1652D01*
G01X1370D02*
Y1661D01*
G01X1310Y1926D02*
X1410D01*
Y1674D01*
X1310D01*
Y1926D01*
G01D02*
X1410D01*
Y1910D01*
X1310D01*
Y1926D01*
G01X968Y1398D02*
X912D01*
Y1522D01*
X968D01*
Y1398D01*
G01X915Y1425D02*
Y1400D01*
X965D01*
Y1410D01*
G01Y1510D02*
Y1520D01*
X915D01*
Y1495D01*
G01X908Y1538D02*
X852D01*
Y1662D01*
X908D01*
Y1538D01*
G01X855Y1565D02*
Y1540D01*
X905D01*
Y1550D01*
G01Y1650D02*
Y1660D01*
X855D01*
Y1635D01*
G01X1025Y1510D02*
Y1520D01*
X975D01*
Y1495D01*
G01Y1425D02*
Y1400D01*
X1025D01*
Y1410D01*
G01X1028Y1398D02*
X972D01*
Y1522D01*
X1028D01*
Y1398D01*
G01X968Y1268D02*
X912D01*
Y1392D01*
X968D01*
Y1268D01*
G01X915Y1295D02*
Y1270D01*
X965D01*
Y1280D01*
G01Y1380D02*
Y1390D01*
X915D01*
Y1365D01*
G01X1028Y1268D02*
X972D01*
Y1392D01*
X1028D01*
Y1268D01*
G01X975Y1295D02*
Y1270D01*
X1025D01*
Y1280D01*
G01Y1380D02*
Y1390D01*
X975D01*
Y1365D01*
G01X1815Y1940D02*
X1765D01*
Y1990D01*
X1815D01*
Y1940D01*
G01Y1740D02*
X1765D01*
Y1790D01*
X1815D01*
Y1740D01*
G01Y1540D02*
X1765D01*
Y1590D01*
X1815D01*
Y1540D01*
G01X1765Y1490D02*
X1465D01*
Y2490D01*
X1765D01*
Y1490D01*
G01X1597Y1424D02*
X1599Y1420D01*
X1601Y1418D01*
X1604Y1417D01*
X1607Y1418D01*
X1609Y1420D01*
X1612Y1424D01*
X1612Y1428D01*
Y1448D01*
G01X1640Y1417D02*
Y1448D01*
X1626Y1426D01*
X1645D01*
G01X1659Y1443D02*
X1662Y1446D01*
X1664Y1448D01*
X1668Y1448D01*
X1671Y1447D01*
X1674Y1445D01*
X1675Y1442D01*
X1674Y1439D01*
X1673Y1436D01*
X1665Y1431D01*
X1662Y1427D01*
X1659Y1422D01*
X1659Y1417D01*
X1675D01*
G01X1565Y1490D02*
X1465Y1590D01*
Y2390D01*
X1565Y2490D01*
G01X1184Y1632D02*
Y1805D01*
X928D01*
Y1632D01*
X1184D01*
G01X832Y1068D02*
X830Y1070D01*
X827Y1071D01*
X824D01*
X820Y1069D01*
X818Y1067D01*
X816Y1063D01*
X814Y1058D01*
X814Y1054D01*
X815Y1049D01*
X816Y1046D01*
X818Y1043D01*
X821Y1041D01*
X824Y1040D01*
X826D01*
X829Y1041D01*
X831Y1042D01*
X833Y1044D01*
G01X847Y1065D02*
X850Y1069D01*
X852Y1070D01*
X855Y1071D01*
X859Y1070D01*
X862Y1067D01*
X863Y1064D01*
X862Y1061D01*
X861Y1058D01*
X853Y1053D01*
X850Y1049D01*
X847Y1044D01*
X846Y1040D01*
X863D01*
G01X878Y1053D02*
X881Y1056D01*
X883Y1058D01*
X886Y1059D01*
X889Y1058D01*
X891Y1056D01*
X892Y1053D01*
X893Y1049D01*
X892Y1046D01*
X891Y1043D01*
X889Y1041D01*
X886Y1040D01*
X883Y1041D01*
X880Y1044D01*
X879Y1048D01*
X878Y1054D01*
X879Y1060D01*
X880Y1064D01*
X882Y1068D01*
X885Y1070D01*
X887Y1071D01*
X890Y1070D01*
X892Y1067D01*
G01X916Y1040D02*
X916Y1046D01*
X918Y1052D01*
X919Y1057D01*
X921Y1063D01*
X924Y1071D01*
X909D01*
G01X1611Y891D02*
Y868D01*
X1612Y864D01*
X1615Y861D01*
X1619Y860D01*
X1623Y861D01*
X1626Y864D01*
X1627Y868D01*
Y891D01*
G01X1655Y860D02*
Y891D01*
X1640Y868D01*
X1660D01*
G01X1680Y860D02*
X1681Y866D01*
X1682Y872D01*
X1684Y877D01*
X1686Y883D01*
X1689Y891D01*
X1673D01*
G01X1502Y1222D02*
X1500Y1220D01*
X1499Y1217D01*
Y1214D01*
X1501Y1210D01*
X1503Y1208D01*
X1507Y1206D01*
X1512Y1204D01*
X1516Y1204D01*
X1521Y1205D01*
X1524Y1206D01*
X1527Y1208D01*
X1529Y1211D01*
X1530Y1214D01*
Y1216D01*
X1529Y1219D01*
X1528Y1221D01*
X1526Y1223D01*
G01X1505Y1237D02*
X1501Y1240D01*
X1500Y1242D01*
X1499Y1245D01*
X1500Y1249D01*
X1503Y1252D01*
X1506Y1253D01*
X1509Y1252D01*
X1512Y1251D01*
X1517Y1243D01*
X1521Y1240D01*
X1526Y1237D01*
X1530Y1236D01*
Y1253D01*
G01Y1275D02*
X1530Y1278D01*
X1528Y1281D01*
X1526Y1283D01*
X1522Y1284D01*
X1518Y1283D01*
X1515Y1281D01*
X1514Y1277D01*
Y1274D01*
X1513Y1271D01*
X1510Y1269D01*
X1507Y1269D01*
X1503Y1270D01*
X1500Y1272D01*
X1499Y1275D01*
X1500Y1279D01*
X1503Y1281D01*
X1507Y1282D01*
X1510Y1282D01*
X1513Y1280D01*
X1514Y1277D01*
Y1274D01*
X1515Y1270D01*
X1518Y1268D01*
X1522Y1267D01*
X1526Y1268D01*
X1528Y1270D01*
X1530Y1273D01*
X1530Y1275D01*
G01X1505Y1299D02*
X1501Y1301D01*
X1500Y1304D01*
X1499Y1307D01*
X1500Y1311D01*
X1503Y1314D01*
X1506Y1315D01*
X1509Y1314D01*
X1512Y1313D01*
X1517Y1305D01*
X1521Y1301D01*
X1526Y1299D01*
X1530Y1298D01*
Y1315D01*
G01X1580Y1206D02*
X1549D01*
Y1215D01*
X1551Y1219D01*
X1553Y1220D01*
X1557Y1221D01*
X1561Y1220D01*
X1564Y1218D01*
X1565Y1215D01*
Y1206D01*
G01Y1215D02*
X1580Y1221D01*
G01Y1245D02*
X1549D01*
X1556Y1240D01*
G01X1580D02*
Y1249D01*
G01X1577Y1269D02*
X1579Y1272D01*
X1580Y1275D01*
X1579Y1278D01*
X1576Y1280D01*
X1572Y1282D01*
X1567Y1283D01*
X1561D01*
X1557Y1282D01*
X1552Y1280D01*
X1550Y1278D01*
X1549Y1275D01*
X1550Y1272D01*
X1552Y1270D01*
X1556Y1269D01*
X1560Y1268D01*
X1563Y1269D01*
X1567Y1271D01*
X1569Y1273D01*
X1569Y1275D01*
X1568Y1279D01*
X1566Y1281D01*
X1561Y1283D01*
G01X1574Y1298D02*
X1578Y1300D01*
X1580Y1303D01*
X1580Y1307D01*
X1580Y1310D01*
X1577Y1313D01*
X1574Y1315D01*
X1571Y1315D01*
X1567Y1315D01*
X1565Y1312D01*
X1564Y1309D01*
Y1306D01*
G01Y1309D02*
X1562Y1311D01*
X1560Y1313D01*
X1557Y1314D01*
X1553Y1313D01*
X1551Y1311D01*
X1549Y1308D01*
X1550Y1305D01*
X1552Y1301D01*
G01Y1082D02*
X1550Y1080D01*
X1549Y1077D01*
Y1074D01*
X1551Y1070D01*
X1553Y1068D01*
X1557Y1066D01*
X1562Y1064D01*
X1566Y1064D01*
X1571Y1065D01*
X1574Y1066D01*
X1577Y1068D01*
X1579Y1071D01*
X1580Y1074D01*
Y1076D01*
X1579Y1079D01*
X1578Y1081D01*
X1576Y1083D01*
G01X1555Y1097D02*
X1551Y1100D01*
X1550Y1102D01*
X1549Y1105D01*
X1550Y1109D01*
X1553Y1112D01*
X1556Y1113D01*
X1559Y1112D01*
X1562Y1111D01*
X1567Y1103D01*
X1571Y1100D01*
X1576Y1097D01*
X1580Y1096D01*
Y1113D01*
G01Y1135D02*
X1580Y1138D01*
X1578Y1141D01*
X1576Y1143D01*
X1572Y1144D01*
X1568Y1143D01*
X1565Y1141D01*
X1564Y1137D01*
Y1134D01*
X1563Y1131D01*
X1560Y1129D01*
X1557Y1129D01*
X1553Y1130D01*
X1550Y1132D01*
X1549Y1135D01*
X1550Y1139D01*
X1553Y1141D01*
X1557Y1142D01*
X1560Y1142D01*
X1563Y1140D01*
X1564Y1137D01*
Y1134D01*
X1565Y1130D01*
X1568Y1128D01*
X1572Y1127D01*
X1576Y1128D01*
X1578Y1130D01*
X1580Y1133D01*
X1580Y1135D01*
G01X1574Y1158D02*
X1578Y1160D01*
X1580Y1163D01*
X1580Y1167D01*
X1580Y1170D01*
X1577Y1173D01*
X1574Y1175D01*
X1571Y1175D01*
X1567Y1175D01*
X1565Y1172D01*
X1564Y1169D01*
Y1166D01*
G01Y1169D02*
X1562Y1171D01*
X1560Y1173D01*
X1557Y1174D01*
X1553Y1173D01*
X1551Y1171D01*
X1549Y1168D01*
X1550Y1165D01*
X1552Y1161D01*
G01X1530Y1066D02*
X1499D01*
Y1075D01*
X1501Y1079D01*
X1503Y1080D01*
X1507Y1081D01*
X1511Y1080D01*
X1514Y1078D01*
X1515Y1075D01*
Y1066D01*
G01Y1075D02*
X1530Y1081D01*
G01Y1105D02*
X1499D01*
X1506Y1100D01*
G01X1530D02*
Y1109D01*
G01X1527Y1129D02*
X1529Y1132D01*
X1530Y1135D01*
X1529Y1138D01*
X1526Y1140D01*
X1522Y1142D01*
X1517Y1143D01*
X1511D01*
X1507Y1142D01*
X1502Y1140D01*
X1500Y1138D01*
X1499Y1135D01*
X1500Y1132D01*
X1502Y1130D01*
X1506Y1129D01*
X1510Y1128D01*
X1513Y1129D01*
X1517Y1131D01*
X1519Y1133D01*
X1519Y1135D01*
X1518Y1139D01*
X1516Y1141D01*
X1511Y1143D01*
G01X1530Y1166D02*
X1499D01*
X1506Y1162D01*
G01X1530D02*
Y1171D01*
G01X1480Y1330D02*
Y1050D01*
X1650D01*
Y1330D01*
X1480D01*
G01Y1050D02*
X1050D01*
X970Y1130D01*
Y1260D01*
X950Y1240D01*
G01X970Y1260D02*
X990Y1240D01*
G01X835Y1790D02*
Y1780D01*
X885D01*
Y1805D01*
G01Y1875D02*
Y1900D01*
X835D01*
Y1890D01*
G01X832Y1902D02*
X888D01*
Y1778D01*
X832D01*
Y1902D01*
G01X885Y1920D02*
Y1910D01*
X935D01*
Y1935D01*
G01X882Y2032D02*
X938D01*
Y1908D01*
X882D01*
Y2032D01*
G01X1185Y1890D02*
X1255D01*
Y1990D01*
X1235D01*
X1185D01*
G01X1358Y1922D02*
X1360Y1920D01*
X1363Y1919D01*
X1366D01*
X1370Y1921D01*
X1372Y1923D01*
X1374Y1927D01*
X1376Y1932D01*
X1376Y1936D01*
X1375Y1941D01*
X1374Y1944D01*
X1372Y1947D01*
X1369Y1949D01*
X1366Y1950D01*
X1364D01*
X1361Y1949D01*
X1359Y1948D01*
X1357Y1946D01*
G01X1343Y1925D02*
X1340Y1921D01*
X1338Y1920D01*
X1335Y1919D01*
X1331Y1920D01*
X1328Y1923D01*
X1327Y1926D01*
X1328Y1929D01*
X1329Y1932D01*
X1337Y1937D01*
X1340Y1941D01*
X1343Y1946D01*
X1344Y1950D01*
X1327D01*
G01X1305D02*
X1305Y1944D01*
X1303Y1938D01*
X1302Y1933D01*
X1300Y1927D01*
X1297Y1919D01*
X1312D01*
G01X1282Y1946D02*
X1280Y1948D01*
X1277Y1950D01*
X1274Y1950D01*
X1270Y1949D01*
X1267Y1947D01*
X1265Y1944D01*
X1265Y1939D01*
X1266Y1935D01*
X1268Y1933D01*
X1270Y1931D01*
X1273Y1930D01*
X1276Y1931D01*
X1279Y1933D01*
X1278Y1919D01*
X1268D01*
G01X1004Y1890D02*
Y1990D01*
X1020D01*
Y1890D01*
X1004D01*
G01X1140Y1995D02*
X1150D01*
Y2045D01*
X1125D01*
G01X1055D02*
X1030D01*
Y1995D01*
X1040D01*
G01X1028Y1992D02*
Y2048D01*
X1152D01*
Y1992D01*
X1028D01*
G01X1004Y1890D02*
Y1990D01*
X1256D01*
Y1890D01*
X1004D01*
G01X940Y1880D02*
Y1860D01*
G01X942Y2032D02*
X998D01*
Y1908D01*
X942D01*
Y2032D01*
G01X945Y1920D02*
Y1910D01*
X995D01*
Y1935D01*
G01X869Y1681D02*
X892D01*
X896Y1682D01*
X899Y1685D01*
X900Y1689D01*
X899Y1693D01*
X896Y1696D01*
X892Y1697D01*
X869D01*
G01X900Y1725D02*
X869D01*
X892Y1710D01*
Y1730D01*
G01X900Y1756D02*
X869D01*
X892Y1741D01*
Y1761D01*
G01X1182Y2028D02*
X1180Y2030D01*
X1177Y2031D01*
X1174D01*
X1170Y2029D01*
X1168Y2027D01*
X1166Y2023D01*
X1164Y2018D01*
X1164Y2014D01*
X1165Y2009D01*
X1166Y2006D01*
X1168Y2003D01*
X1171Y2001D01*
X1174Y2000D01*
X1176D01*
X1179Y2001D01*
X1181Y2002D01*
X1183Y2004D01*
G01X1197Y2025D02*
X1200Y2029D01*
X1202Y2030D01*
X1205Y2031D01*
X1209Y2030D01*
X1212Y2027D01*
X1213Y2024D01*
X1212Y2021D01*
X1211Y2018D01*
X1203Y2013D01*
X1200Y2009D01*
X1197Y2004D01*
X1196Y2000D01*
X1213D01*
G01X1235D02*
X1235Y2006D01*
X1237Y2012D01*
X1238Y2017D01*
X1240Y2023D01*
X1243Y2031D01*
X1228D01*
G01X1258Y2004D02*
X1260Y2002D01*
X1263Y2000D01*
X1266Y2000D01*
X1270Y2001D01*
X1273Y2003D01*
X1275Y2006D01*
X1275Y2011D01*
X1274Y2015D01*
X1272Y2017D01*
X1270Y2019D01*
X1267Y2020D01*
X1264Y2019D01*
X1261Y2017D01*
X1262Y2031D01*
X1272D01*
G01X1770Y2550D02*
X1470D01*
Y2750D01*
X1770D01*
Y2550D01*
G01X1361Y2636D02*
X1363Y2633D01*
X1366Y2631D01*
X1368Y2630D01*
X1371Y2631D01*
X1374Y2633D01*
X1376Y2636D01*
X1377Y2640D01*
Y2661D01*
G01X1405Y2630D02*
Y2661D01*
X1390Y2638D01*
X1410D01*
G01X1424Y2643D02*
X1426Y2646D01*
X1429Y2648D01*
X1432Y2649D01*
X1434Y2648D01*
X1436Y2646D01*
X1438Y2643D01*
X1438Y2639D01*
X1438Y2636D01*
X1436Y2633D01*
X1434Y2631D01*
X1431Y2630D01*
X1428Y2631D01*
X1426Y2634D01*
X1424Y2638D01*
X1424Y2644D01*
X1424Y2650D01*
X1426Y2654D01*
X1428Y2658D01*
X1430Y2660D01*
X1433Y2661D01*
X1436Y2660D01*
X1437Y2657D01*
G01X1142Y2302D02*
X1140Y2300D01*
X1139Y2297D01*
Y2294D01*
X1141Y2290D01*
X1143Y2288D01*
X1147Y2286D01*
X1152Y2284D01*
X1156Y2284D01*
X1161Y2285D01*
X1164Y2286D01*
X1167Y2288D01*
X1169Y2291D01*
X1170Y2294D01*
Y2296D01*
X1169Y2299D01*
X1168Y2301D01*
X1166Y2303D01*
G01X1145Y2317D02*
X1141Y2320D01*
X1140Y2322D01*
X1139Y2325D01*
X1140Y2329D01*
X1143Y2332D01*
X1146Y2333D01*
X1149Y2332D01*
X1152Y2331D01*
X1157Y2323D01*
X1161Y2320D01*
X1166Y2317D01*
X1170Y2316D01*
Y2333D01*
G01X1167Y2349D02*
X1169Y2352D01*
X1170Y2355D01*
X1169Y2358D01*
X1166Y2360D01*
X1162Y2362D01*
X1157Y2363D01*
X1151D01*
X1147Y2362D01*
X1142Y2360D01*
X1140Y2358D01*
X1139Y2355D01*
X1140Y2352D01*
X1142Y2350D01*
X1146Y2349D01*
X1150Y2348D01*
X1153Y2349D01*
X1157Y2351D01*
X1159Y2353D01*
X1159Y2355D01*
X1158Y2359D01*
X1156Y2361D01*
X1151Y2363D01*
G01X1164Y2378D02*
X1168Y2380D01*
X1170Y2383D01*
X1170Y2387D01*
X1170Y2390D01*
X1167Y2393D01*
X1164Y2395D01*
X1161Y2395D01*
X1157Y2395D01*
X1155Y2392D01*
X1154Y2389D01*
Y2386D01*
G01Y2389D02*
X1152Y2391D01*
X1150Y2393D01*
X1147Y2394D01*
X1143Y2393D01*
X1141Y2391D01*
X1139Y2388D01*
X1140Y2385D01*
X1142Y2381D01*
G01X1129Y2431D02*
X1152D01*
X1156Y2432D01*
X1159Y2435D01*
X1160Y2439D01*
X1159Y2443D01*
X1156Y2446D01*
X1152Y2447D01*
X1129D01*
G01X1160Y2475D02*
X1129D01*
X1152Y2460D01*
Y2480D01*
G01X1147Y2494D02*
X1144Y2496D01*
X1142Y2499D01*
X1141Y2502D01*
X1142Y2504D01*
X1144Y2506D01*
X1147Y2508D01*
X1151Y2508D01*
X1154Y2508D01*
X1157Y2506D01*
X1159Y2504D01*
X1160Y2501D01*
X1159Y2498D01*
X1156Y2496D01*
X1152Y2494D01*
X1146Y2494D01*
X1140Y2494D01*
X1136Y2496D01*
X1132Y2498D01*
X1130Y2500D01*
X1129Y2503D01*
X1130Y2506D01*
X1133Y2507D01*
G01X1132Y2252D02*
X1188D01*
Y2128D01*
X1132D01*
Y2252D01*
G01X1185Y2225D02*
Y2250D01*
X1135D01*
Y2240D01*
G01Y2140D02*
Y2130D01*
X1185D01*
Y2155D01*
G01X1410Y2530D02*
X1230D01*
X1210Y2510D01*
Y2030D01*
X1430D01*
Y2510D01*
X1410Y2530D01*
G01X1430Y2450D02*
Y2030D01*
X1210D01*
Y2510D01*
X1230Y2530D01*
X1410D01*
X1430Y2510D01*
Y2450D01*
G01X1519Y3010D02*
Y3041D01*
X1514Y3034D01*
G01Y3010D02*
X1524D01*
G01X1543Y3035D02*
X1545Y3039D01*
X1548Y3040D01*
X1551Y3041D01*
X1555Y3040D01*
X1557Y3037D01*
X1558Y3034D01*
X1558Y3031D01*
X1556Y3028D01*
X1548Y3023D01*
X1545Y3019D01*
X1543Y3014D01*
X1542Y3010D01*
X1558D01*
G01X1571Y3041D02*
X1581Y3010D01*
X1591Y3041D01*
G01X1681Y3025D02*
X1689D01*
Y3016D01*
X1687Y3013D01*
X1684Y3011D01*
X1680Y3010D01*
X1676Y3011D01*
X1674Y3013D01*
X1671Y3016D01*
X1670Y3019D01*
X1669Y3024D01*
Y3027D01*
X1670Y3030D01*
X1671Y3034D01*
X1674Y3037D01*
X1676Y3039D01*
X1679Y3041D01*
X1682D01*
X1685Y3040D01*
X1687Y3038D01*
G01X1701Y3010D02*
Y3041D01*
X1719Y3010D01*
Y3041D01*
G01X1733Y3010D02*
Y3041D01*
X1740D01*
X1743Y3039D01*
X1746Y3037D01*
X1747Y3034D01*
X1749Y3030D01*
X1749Y3025D01*
X1749Y3020D01*
X1747Y3016D01*
X1746Y3013D01*
X1743Y3011D01*
X1740Y3010D01*
X1733D01*
G01X1546Y2514D02*
X1548Y2512D01*
X1551Y2510D01*
X1555Y2510D01*
X1558Y2511D01*
X1561Y2513D01*
X1563Y2516D01*
X1563Y2521D01*
X1562Y2525D01*
X1560Y2527D01*
X1558Y2529D01*
X1555Y2530D01*
X1552Y2529D01*
X1549Y2527D01*
X1550Y2541D01*
X1560D01*
G01X1576D02*
X1585Y2510D01*
X1595Y2541D01*
G01X1681Y2525D02*
X1689D01*
Y2516D01*
X1687Y2513D01*
X1684Y2511D01*
X1680Y2510D01*
X1676Y2511D01*
X1674Y2513D01*
X1671Y2516D01*
X1670Y2519D01*
X1669Y2524D01*
Y2527D01*
X1670Y2530D01*
X1671Y2534D01*
X1674Y2537D01*
X1676Y2539D01*
X1679Y2541D01*
X1682D01*
X1685Y2540D01*
X1687Y2538D01*
G01X1701Y2510D02*
Y2541D01*
X1719Y2510D01*
Y2541D01*
G01X1733Y2510D02*
Y2541D01*
X1740D01*
X1743Y2539D01*
X1746Y2537D01*
X1747Y2534D01*
X1749Y2530D01*
X1749Y2525D01*
X1749Y2520D01*
X1747Y2516D01*
X1746Y2513D01*
X1743Y2511D01*
X1740Y2510D01*
X1733D01*
G01X1380Y3405D02*
X1780D01*
Y3055D01*
X1380D01*
Y3405D01*
G01X1330Y3305D02*
X1380D01*
Y3155D01*
X1330D01*
Y3305D01*
G01X1361Y2886D02*
X1363Y2883D01*
X1366Y2881D01*
X1368Y2880D01*
X1371Y2881D01*
X1374Y2883D01*
X1376Y2886D01*
X1377Y2890D01*
Y2911D01*
G01X1405Y2880D02*
Y2911D01*
X1390Y2888D01*
X1410D01*
G01X1423Y2884D02*
X1425Y2882D01*
X1428Y2880D01*
X1431Y2880D01*
X1434Y2881D01*
X1437Y2883D01*
X1439Y2886D01*
X1439Y2891D01*
X1439Y2895D01*
X1437Y2897D01*
X1434Y2899D01*
X1431Y2900D01*
X1429Y2899D01*
X1425Y2897D01*
X1426Y2911D01*
X1437D01*
G01X1770Y2800D02*
X1470D01*
Y3000D01*
X1770D01*
Y2800D01*
G01X1815Y2340D02*
X1765D01*
Y2390D01*
X1815D01*
Y2340D01*
G01Y2140D02*
X1765D01*
Y2190D01*
X1815D01*
Y2140D01*
G01X1167Y2584D02*
X1190D01*
X1194Y2586D01*
X1197Y2589D01*
X1198Y2593D01*
X1197Y2596D01*
X1194Y2599D01*
X1190Y2601D01*
X1167D01*
G01X1173Y2616D02*
X1169Y2619D01*
X1168Y2621D01*
X1167Y2624D01*
X1168Y2628D01*
X1171Y2631D01*
X1174Y2632D01*
X1177Y2631D01*
X1180Y2630D01*
X1185Y2622D01*
X1189Y2619D01*
X1194Y2616D01*
X1198Y2615D01*
Y2632D01*
G01X935Y2005D02*
Y2030D01*
X885D01*
Y2020D01*
G01X1042Y2088D02*
X1040Y2090D01*
X1037Y2091D01*
X1034D01*
X1030Y2089D01*
X1028Y2087D01*
X1026Y2083D01*
X1024Y2078D01*
X1024Y2074D01*
X1025Y2069D01*
X1026Y2066D01*
X1028Y2063D01*
X1031Y2061D01*
X1034Y2060D01*
X1036D01*
X1039Y2061D01*
X1041Y2062D01*
X1043Y2064D01*
G01X1057Y2085D02*
X1060Y2089D01*
X1062Y2090D01*
X1065Y2091D01*
X1069Y2090D01*
X1072Y2087D01*
X1073Y2084D01*
X1072Y2081D01*
X1071Y2078D01*
X1063Y2073D01*
X1060Y2069D01*
X1057Y2064D01*
X1056Y2060D01*
X1073D01*
G01X1088Y2073D02*
X1091Y2076D01*
X1093Y2078D01*
X1096Y2079D01*
X1099Y2078D01*
X1101Y2076D01*
X1102Y2073D01*
X1103Y2069D01*
X1102Y2066D01*
X1101Y2063D01*
X1099Y2061D01*
X1096Y2060D01*
X1093Y2061D01*
X1090Y2064D01*
X1089Y2068D01*
X1088Y2074D01*
X1089Y2080D01*
X1090Y2084D01*
X1092Y2088D01*
X1095Y2090D01*
X1097Y2091D01*
X1100Y2090D01*
X1102Y2087D01*
G01X1119Y2085D02*
X1121Y2089D01*
X1124Y2090D01*
X1127Y2091D01*
X1131Y2090D01*
X1134Y2087D01*
X1135Y2084D01*
X1134Y2081D01*
X1133Y2078D01*
X1125Y2073D01*
X1121Y2069D01*
X1119Y2064D01*
X1118Y2060D01*
X1135D01*
G01X995Y2005D02*
Y2030D01*
X945D01*
Y2020D01*
G01X1282Y2578D02*
X1280Y2580D01*
X1277Y2581D01*
X1274D01*
X1270Y2579D01*
X1268Y2577D01*
X1266Y2573D01*
X1264Y2568D01*
X1264Y2564D01*
X1265Y2559D01*
X1266Y2556D01*
X1268Y2553D01*
X1271Y2551D01*
X1274Y2550D01*
X1276D01*
X1279Y2551D01*
X1281Y2552D01*
X1283Y2554D01*
G01X1297Y2575D02*
X1300Y2579D01*
X1302Y2580D01*
X1305Y2581D01*
X1309Y2580D01*
X1312Y2577D01*
X1313Y2574D01*
X1312Y2571D01*
X1311Y2568D01*
X1303Y2563D01*
X1300Y2559D01*
X1297Y2554D01*
X1296Y2550D01*
X1313D01*
G01X1329Y2553D02*
X1332Y2551D01*
X1335Y2550D01*
X1338Y2551D01*
X1340Y2554D01*
X1342Y2558D01*
X1343Y2563D01*
Y2569D01*
X1342Y2573D01*
X1340Y2578D01*
X1338Y2580D01*
X1335Y2581D01*
X1332Y2580D01*
X1330Y2578D01*
X1329Y2574D01*
X1328Y2570D01*
X1329Y2567D01*
X1331Y2563D01*
X1333Y2561D01*
X1335Y2561D01*
X1339Y2562D01*
X1341Y2564D01*
X1343Y2569D01*
G01X1359Y2575D02*
X1361Y2579D01*
X1364Y2580D01*
X1367Y2581D01*
X1371Y2580D01*
X1374Y2577D01*
X1375Y2574D01*
X1374Y2571D01*
X1373Y2568D01*
X1365Y2563D01*
X1361Y2559D01*
X1359Y2554D01*
X1358Y2550D01*
X1375D01*
G01X1390Y2755D02*
X1320Y2685D01*
X1460D01*
X1390Y2755D01*
G01X1380Y2995D02*
X1310Y2925D01*
X1450D01*
X1380Y2995D01*
G01X1397Y3687D02*
Y3662D01*
X1407D01*
G01X1419Y3682D02*
X1421Y3685D01*
X1422Y3686D01*
X1425Y3687D01*
X1427Y3686D01*
X1429Y3684D01*
X1430Y3681D01*
X1429Y3679D01*
X1428Y3677D01*
X1423Y3672D01*
X1421Y3670D01*
X1419Y3665D01*
X1418Y3662D01*
X1430D01*
G01X1571Y3456D02*
X1573Y3453D01*
X1576Y3451D01*
X1578Y3450D01*
X1581Y3451D01*
X1584Y3453D01*
X1586Y3456D01*
X1587Y3460D01*
Y3481D01*
G01X1615Y3450D02*
Y3481D01*
X1600Y3458D01*
X1620D01*
G01X1641Y3450D02*
Y3481D01*
X1636Y3474D01*
G01Y3450D02*
X1646D01*
M02*
