G04 ================== begin FILE IDENTIFICATION RECORD ==================*
G04 Layout Name:  D:/project/IRISking/IKEMB001/project/hardware/POWER5_2679/POWER_2679.brd*
G04 Film Name:    Solder_Bottom*
G04 File Format:  Gerber RS274X*
G04 File Origin:  15.7-p007*
G04 Origin Date:  Fri Oct 19 13:04:50 2007*
G04 *
G04 Layer:  VIA CLASS/SOLDERMASK_BOTTOM*
G04 Layer:  PIN/SOLDERMASK_BOTTOM*
G04 Layer:  BOARD GEOMETRY/OUTLINE*
G04 *
G04 Offset:    (0.000 0.000)*
G04 Mirror:    No*
G04 Mode:      Positive*
G04 Rotation:  0*
G04 FullContactRelief:  No*
G04 UndefLineWidth:     8.000*
G04 ================== end FILE IDENTIFICATION RECORD ====================*
%FSLAX55Y55*MOIN*%
%IR0*IPPOS*OFA0.00000B0.00000*MIA0B0*SFA1.00000B1.00000*%
%ADD11C,.21*%
%ADD25C,.128*%
%ADD19R,.27X.32*%
%ADD24R,.07X.07*%
%ADD21R,.207988X.082988*%
%ADD20R,.067X.04*%
%ADD16R,.036X.046*%
%ADD18R,.046X.036*%
%ADD10C,.07*%
%ADD12R,.158X.178*%
%ADD23C,.075*%
%ADD17R,.178X.158*%
%ADD13C,.048*%
%ADD15C,.098*%
%ADD22R,.066X.066*%
%ADD14C,.037988*%
%ADD26C,.008*%
G75*
%LPD*%
G75*
G54D10*
X39000Y78000D03*
Y105000D03*
X72000Y204400D03*
X23000Y223000D03*
X0D03*
X91000Y78000D03*
X148000Y-4000D03*
X139000Y7000D03*
X91000Y104000D03*
X133000Y197000D03*
X111843Y111648D03*
X132000Y224000D03*
X167000Y290000D03*
Y265000D03*
G54D20*
X74000Y214500D03*
G54D11*
X0Y0D03*
X167716Y356693D03*
G54D12*
X87000Y4000D03*
X80000Y266000D03*
Y290000D03*
X117000Y4000D03*
X110000Y266000D03*
Y290000D03*
G54D21*
X21000Y307500D03*
Y282500D03*
G54D22*
X58900Y291600D03*
Y304600D03*
X147500Y214000D03*
X134500D03*
G54D13*
X63000Y193000D03*
X40000Y131000D03*
X54000D03*
X43000Y166000D03*
X74000Y244000D03*
X65000Y315000D03*
Y310000D03*
Y300000D03*
Y305000D03*
X9000Y309000D03*
X32500Y307500D03*
X49000Y276000D03*
Y286000D03*
X48000Y307000D03*
X48605Y296733D03*
X64200Y291000D03*
X176000Y37000D03*
X120700Y187000D03*
X136000Y168000D03*
X90000Y130000D03*
X94000Y166000D03*
X104273Y133615D03*
X96000Y295000D03*
Y288000D03*
Y281000D03*
Y274000D03*
X110000Y278000D03*
X96000Y302000D03*
X101000Y307000D03*
X108000D03*
X115000D03*
Y313000D03*
X108000D03*
X101000D03*
G54D14*
X34000Y198000D03*
X65000Y178000D03*
X50000Y153000D03*
X44000D03*
X54500Y153700D03*
X60600D03*
X46000Y204000D03*
X40000D03*
X90800Y187000D03*
X116000Y178000D03*
X100000Y153000D03*
X95000D03*
X105400Y153300D03*
X110600Y153500D03*
X97000Y205000D03*
X91000D03*
X116000Y212000D03*
X113000Y205000D03*
G54D23*
X49300Y363200D03*
Y333200D03*
X5900Y363000D03*
Y333000D03*
G54D15*
X54430Y171672D03*
X39370Y356693D03*
X167716Y0D03*
X105590Y171832D03*
G54D24*
X138000Y-4000D03*
X157000Y290000D03*
Y265000D03*
G54D16*
X44000Y150000D03*
Y144000D03*
X50000Y150000D03*
Y144000D03*
X44000Y299000D03*
Y305000D03*
X100000Y149000D03*
Y143000D03*
X94000Y149000D03*
Y143000D03*
G54D25*
X161500Y169000D03*
Y189000D03*
Y209000D03*
Y229000D03*
X169000Y314500D03*
X147000D03*
X169000Y331500D03*
X147000D03*
G54D26*
G01X185039Y374016D02*
Y-19685D01*
X-19685D01*
Y374016D01*
X185039D01*
G54D17*
X80000Y185000D03*
Y155000D03*
X132000Y154000D03*
Y184000D03*
X138000Y264000D03*
Y294000D03*
G54D18*
X56300Y150200D03*
X62300D03*
X38000Y286000D03*
X44000D03*
X38000Y277000D03*
X44000D03*
X148000Y198000D03*
X142000D03*
X112400Y149400D03*
X106400D03*
X148000Y204000D03*
X142000D03*
G54D19*
X56000Y231500D03*
X92000D03*
M02*
