G04 ================== begin FILE IDENTIFICATION RECORD ==================*
G04 Layout Name:  D:/project/IRISking/IKEMB001/project/hardware/POWER5_2679/POWER_2679.brd*
G04 Film Name:    Top*
G04 File Format:  Gerber RS274X*
G04 File Origin:  15.7-p007*
G04 Origin Date:  Fri Oct 19 13:04:50 2007*
G04 *
G04 Layer:  VIA CLASS/TOP*
G04 Layer:  PIN/TOP*
G04 Layer:  ETCH/TOP*
G04 Layer:  BOARD GEOMETRY/OUTLINE*
G04 *
G04 Offset:    (0.000 0.000)*
G04 Mirror:    No*
G04 Mode:      Positive*
G04 Rotation:  0*
G04 FullContactRelief:  No*
G04 UndefLineWidth:     8.000*
G04 ================== end FILE IDENTIFICATION RECORD ====================*
%FSLAX55Y55*MOIN*%
%IR0*IPPOS*OFA0.00000B0.00000*MIA0B0*SFA1.00000B1.00000*%
%ADD11C,.2*%
%ADD30C,.12*%
%ADD21R,.12X.12*%
%ADD24R,.25X.3*%
%ADD23R,.5X.5*%
%ADD28R,.3X.25*%
%ADD17R,.03X.04*%
%ADD13R,.04X.03*%
%ADD12R,.15X.17*%
%ADD19R,.17X.15*%
%ADD22R,.08X.03*%
%ADD20R,.015X.06*%
%ADD25R,.057X.03*%
%ADD29R,.062X.062*%
%ADD27R,.03X.057*%
%ADD16C,.03*%
%ADD14C,.04*%
%ADD26C,.06*%
%ADD10C,.062*%
%ADD18C,.09*%
%ADD15R,.06X.06*%
%ADD31C,.15*%
%ADD32C,.02*%
%ADD33C,.012*%
%ADD34C,.015*%
%ADD35C,.08*%
%ADD36C,.008*%
%ADD38C,.078004*%
%ADD37R,.078004X.078004*%
G75*
%LPD*%
G75*
G36*
G01X107368Y112368D02*
X104000Y109000D01*
X87000D01*
X79000Y101000D01*
Y58000D01*
X75000Y54000D01*
X62000D01*
X58000Y58000D01*
Y108000D01*
X37000Y129000D01*
Y132000D01*
X39000Y134000D01*
X46000D01*
X47000Y133000D01*
Y128000D01*
X48000Y127000D01*
X67000D01*
X69000Y125000D01*
X100000D01*
X102200Y127200D01*
X102300D01*
Y127300D01*
X107800Y132800D01*
X129400D01*
X139000Y142400D01*
Y169700D01*
X139800D01*
Y177300D01*
X139000D01*
Y190000D01*
X147000Y198000D01*
X164000D01*
X168000Y194000D01*
Y183000D01*
X164000Y179000D01*
X158000D01*
X154000Y175000D01*
Y130000D01*
X144000Y120000D01*
X115000D01*
X114300Y119300D01*
X112200D01*
Y117200D01*
X110380Y115380D01*
X110321Y115367D01*
G03X107380Y112427I779J-3720D01*
G01X107368Y112368D01*
G37*
G36*
G01X155300Y331500D02*
G03X152869Y337369I-8300J0D01*
G01X145924Y344314D01*
G02X146209Y345000I284J284D01*
G01X153000D01*
X157000Y341000D01*
Y310000D01*
X162000Y305000D01*
Y283970D01*
G02X161314Y283686I-402J0D01*
G01X161000Y284000D01*
X131000D01*
X119800Y295200D01*
Y316800D01*
X68200D01*
Y316000D01*
X68000D01*
Y299000D01*
X66000Y297000D01*
X63000D01*
X61000Y299000D01*
X51000D01*
Y303000D01*
X61000D01*
Y316000D01*
X55000Y322000D01*
X11000D01*
X1000Y312000D01*
Y274000D01*
X-8000Y265000D01*
Y249300D01*
X-9300D01*
Y232700D01*
X-8000D01*
Y219300D01*
X-9300D01*
Y202700D01*
X-8000D01*
Y200000D01*
X24000Y168000D01*
Y57000D01*
X35000Y46000D01*
X129000D01*
X166000Y83000D01*
X181102D01*
Y-15748D01*
X-15748D01*
Y345000D01*
X66700D01*
Y356000D01*
X72500Y361800D01*
X92000D01*
X96400Y357400D01*
Y345000D01*
X118000D01*
Y335700D01*
X131062D01*
X138700Y328062D01*
Y314500D01*
G03X155300I8300J0D01*
G01Y331500D01*
G37*
G36*
G01X91385Y181203D02*
G03X91498Y181305I-984J1199D01*
G01X91857Y181664D01*
G02X92524Y181362I266J-302D01*
G01Y180630D01*
X102238D01*
X103668Y179200D01*
X110332D01*
X111800Y180668D01*
Y187668D01*
X112132Y188000D01*
X114000D01*
Y188200D01*
X114800D01*
Y198200D01*
X125200D01*
Y187200D01*
X125229D01*
G02X125514Y186514I0J-402D01*
G01X118000Y179000D01*
Y166000D01*
X115034Y163034D01*
X95083D01*
Y163000D01*
X95000D01*
Y156000D01*
X91546D01*
X90300Y157246D01*
Y159800D01*
X85700D01*
Y157271D01*
G02X85014Y156986I-402J0D01*
G01X77000Y165000D01*
Y184000D01*
X85000Y192000D01*
Y204000D01*
X89000Y208000D01*
X98000D01*
X101000Y205000D01*
Y193163D01*
G02X100314Y192879I-402J0D01*
G01X99300Y193892D01*
Y196800D01*
X94700D01*
Y193463D01*
G02X94014Y193179I-402J0D01*
G01X93300Y193892D01*
Y196800D01*
X88700D01*
Y191200D01*
X91608D01*
X93891Y188917D01*
G02X93607Y188231I-284J-284D01*
G01X92524D01*
Y185501D01*
X91307D01*
X89708Y183902D01*
X89704D01*
X89526Y183964D01*
X88956Y184044D01*
X88574D01*
X88152Y184018D01*
X87683Y183896D01*
G03X87662Y183890I395J-1500D01*
G01X87633Y183883D01*
G03X87396Y183800I392J-1501D01*
G01X83700D01*
Y178200D01*
X88300D01*
Y180693D01*
X88403Y180809D01*
X88441Y180847D01*
X88491Y180885D01*
X88563Y180920D01*
X88640Y180940D01*
X88667Y180942D01*
X88740D01*
X88796Y180934D01*
X88955Y180878D01*
X89128Y180839D01*
G03X89474Y180800I345J1512D01*
G01X90286D01*
G03X90440Y180808I0J1551D01*
G01X90500Y180814D01*
G03X91330Y181158I-154J1543D01*
G01X91385Y181203D01*
G37*
G36*
G01X48300Y194892D02*
Y197800D01*
X43700D01*
Y194463D01*
G02X43014Y194179I-402J0D01*
G01X42300Y194892D01*
Y197800D01*
X37700D01*
Y192200D01*
X40608D01*
X44051Y188757D01*
G02X43767Y188071I-284J-284D01*
G01X41122D01*
X38642Y190550D01*
X36300D01*
Y191800D01*
X31700D01*
Y186200D01*
X36300D01*
Y187450D01*
X37358D01*
X41364Y183444D01*
Y180470D01*
X51200D01*
Y180200D01*
X53800D01*
X54000Y180000D01*
X58000D01*
X58200Y180200D01*
X59800D01*
Y180470D01*
X59819D01*
Y188000D01*
X60000D01*
Y197000D01*
X74000D01*
Y187000D01*
X68000Y181000D01*
Y164000D01*
X67000Y163000D01*
X44000D01*
Y162874D01*
X43923D01*
Y156000D01*
X41000D01*
Y160000D01*
X34000D01*
X31000Y163000D01*
Y172000D01*
X27000Y176000D01*
Y198000D01*
X31700Y202700D01*
X32300D01*
Y203300D01*
X35000Y206000D01*
X49000D01*
Y201000D01*
X51000Y199000D01*
Y193163D01*
G02X50314Y192879I-402J0D01*
G01X48300Y194892D01*
G37*
G36*
G01X110437Y188231D02*
Y180437D01*
X110132Y180132D01*
X103868D01*
X103302Y180698D01*
Y189699D01*
X102000Y191000D01*
Y191192D01*
X102000Y206000D01*
X99000Y209000D01*
X88000D01*
X84000Y205000D01*
Y195000D01*
X77000Y188000D01*
X75000D01*
Y198000D01*
X65300D01*
Y198700D01*
X65800D01*
Y203300D01*
X60200D01*
Y198700D01*
X60700D01*
Y198000D01*
X59000D01*
Y181000D01*
X52142D01*
Y188071D01*
X52000D01*
Y191192D01*
X52000Y203000D01*
X62000Y213000D01*
X76000D01*
X79000Y216000D01*
Y247000D01*
X82000Y250000D01*
X118100D01*
X143200Y275100D01*
X159700D01*
X163000Y271800D01*
Y254000D01*
X168000Y249000D01*
Y219000D01*
X149000D01*
X142000Y212000D01*
Y200000D01*
X132300Y190300D01*
X132200D01*
Y190200D01*
X130000Y188000D01*
X126000D01*
Y199000D01*
X114000D01*
Y189000D01*
X112000D01*
X111231Y188231D01*
X110437D01*
G37*
G36*
G01X53565Y151598D02*
G03X55145Y155908I935J2102D01*
G01X55000Y155950D01*
Y162000D01*
X77000D01*
X84000Y155000D01*
Y140000D01*
X80000Y136000D01*
X57000D01*
X53000Y140000D01*
Y151231D01*
G02X53565Y151598I402J0D01*
G37*
G36*
G01X55000Y320000D02*
X60000Y315000D01*
Y304000D01*
X40000D01*
X33000Y297000D01*
X11000D01*
X7000Y301000D01*
Y315000D01*
X12000Y320000D01*
X55000D01*
G37*
G36*
G01X20346Y227000D02*
X2654D01*
X2604Y227032D01*
G03X-2604I-2604J-4032D01*
G01X-2654Y227000D01*
X-7000D01*
Y263000D01*
X1000Y271000D01*
X9000D01*
X13000Y275000D01*
X30000D01*
X38000Y283000D01*
X60000D01*
X61000Y282000D01*
Y280000D01*
X60000Y279000D01*
X47000D01*
X39000Y271000D01*
Y253000D01*
X64000D01*
X69000Y248000D01*
Y216000D01*
X68000Y215000D01*
X45000D01*
X33000Y227000D01*
X25654D01*
X25605Y227032D01*
G03X20396I-2605J-4032D01*
G01X20346Y227000D01*
G37*
G36*
G01X137700Y77300D02*
Y59700D01*
X129000Y51000D01*
X112000D01*
X107000Y56000D01*
Y108000D01*
X117000Y118000D01*
X145000D01*
X169000Y142000D01*
Y195000D01*
X165000Y199000D01*
X149000D01*
X144000Y204000D01*
Y211000D01*
X150000Y217000D01*
X178000D01*
X181102Y213898D01*
Y103102D01*
X155300Y77300D01*
X137700D01*
G37*
G36*
G01X104551Y151162D02*
G03X106137Y155479I850J2138D01*
G01X106000Y155525D01*
Y162000D01*
X125000D01*
X134000Y153000D01*
Y139000D01*
X129000Y134000D01*
X110000D01*
X104000Y140000D01*
Y150789D01*
G02X104551Y151162I402J0D01*
G37*
%LPC*%
G75*
G36*
G01X5000Y-12500D02*
X-5000D01*
X-12500Y-5000D01*
Y5000D01*
X-5000Y12500D01*
X5000D01*
X12500Y5000D01*
Y-5000D01*
X5000Y-12500D01*
G37*
G36*
G01X171717Y-8000D02*
X163716D01*
X159216Y-3500D01*
Y3500D01*
X164216Y8500D01*
X171217D01*
X176217Y3500D01*
Y-3500D01*
X171717Y-8000D01*
G37*
G36*
G01X142805Y7856D02*
G02X135195I-3805J-856D01*
G01X135200Y7878D01*
Y15074D01*
X137700Y17574D01*
Y41300D01*
X168200D01*
Y49650D01*
X172800D01*
Y43453D01*
X174000Y42253D01*
Y42172D01*
X175172Y41000D01*
X175253D01*
X176496Y39756D01*
X176556Y39744D01*
G02X173277Y36347I-556J-2744D01*
G01X173264Y36402D01*
X169986Y39679D01*
G03X169300Y39395I-284J-284D01*
G01Y14700D01*
X145574D01*
X142800Y11926D01*
Y7878D01*
X142805Y7856D01*
G37*
G36*
G01X135800Y223122D02*
Y221300D01*
X141300D01*
Y204700D01*
X122700D01*
Y221300D01*
X128200D01*
Y223122D01*
X128195Y223144D01*
G02X135805I3805J856D01*
G01X135800Y223122D01*
G37*
G36*
G01X113700Y218800D02*
X118300D01*
Y212000D01*
G02X113700I-2300J0D01*
G01Y218800D01*
G37*
G36*
G01X114800Y203567D02*
Y199700D01*
X109200D01*
Y204300D01*
X109700D01*
Y204953D01*
X111373Y206626D01*
G02X114840Y203620I1627J-1626D01*
G01X114800Y203567D01*
G37*
G54D38*
X148000Y-4000D03*
G54D37*
X138000D03*
%LPD*%
G75*
G54D10*
X39000Y78000D03*
Y105000D03*
X72000Y204400D03*
X23000Y223000D03*
X0D03*
X91000Y78000D03*
X148000Y-4000D03*
X139000Y7000D03*
X91000Y104000D03*
X133000Y197000D03*
X111843Y111648D03*
X132000Y224000D03*
X167000Y290000D03*
Y265000D03*
G54D20*
X42914Y184270D03*
X45473D03*
X48032D03*
X50591D03*
X53150D03*
X55710D03*
X58269D03*
X60828D03*
X63387D03*
X65946D03*
Y159074D03*
X63387D03*
X60828D03*
X58269D03*
X55710D03*
X53150D03*
X50591D03*
X48032D03*
X45473D03*
X42914D03*
X94074Y184430D03*
X96633D03*
X99192D03*
X101751D03*
X104310D03*
X106870D03*
X109429D03*
X111988D03*
X114547D03*
X117106D03*
Y159234D03*
X114547D03*
X111988D03*
X109429D03*
X106870D03*
X104310D03*
X101751D03*
X99192D03*
X96633D03*
X94074D03*
G54D11*
X0Y0D03*
X167716Y356693D03*
G54D12*
X69000Y68000D03*
X39000D03*
X69000Y92000D03*
X39000D03*
X81300Y345000D03*
X121000Y67000D03*
X91000D03*
X121000Y92000D03*
X91000D03*
X126300Y345000D03*
G54D21*
X69000Y112500D03*
Y147500D03*
X119000Y112500D03*
Y147500D03*
G54D30*
X161500Y169000D03*
Y189000D03*
Y209000D03*
Y229000D03*
X169000Y314500D03*
X147000D03*
X169000Y331500D03*
X147000D03*
G54D31*
G01Y314500D02*
Y331500D01*
G01X126300Y345000D02*
X133700Y344800D01*
X147000Y331500D01*
G54D22*
X56000Y276000D03*
Y281000D03*
Y286000D03*
Y291000D03*
Y296000D03*
Y301000D03*
Y306000D03*
G54D13*
X57000Y201000D03*
X63000D03*
X106000Y202000D03*
X112000D03*
G54D32*
G01X50000Y150000D02*
Y153000D01*
G01X44000Y150000D02*
Y153000D01*
G01D02*
X41000D01*
X37000Y157000D01*
G01X100000Y153000D02*
Y149000D01*
G01X94000D02*
Y152000D01*
X95000Y153000D01*
G01D02*
X92000D01*
X88000Y157000D01*
G54D14*
G01X68000Y193000D02*
X68500D01*
G01X21000Y308500D02*
X31500D01*
G01D02*
X32500Y307500D01*
G01X21000Y308500D02*
X9500D01*
G01D02*
X9000Y309000D01*
G01X74000Y248500D02*
Y244000D01*
X63000Y193000D03*
X40000Y131000D03*
X54000D03*
X43000Y166000D03*
X74000Y244000D03*
X65000Y315000D03*
Y310000D03*
Y300000D03*
Y305000D03*
X9000Y309000D03*
X32500Y307500D03*
X49000Y276000D03*
Y286000D03*
X48000Y307000D03*
X48605Y296733D03*
X64200Y291000D03*
X176000Y37000D03*
X120700Y187000D03*
X136000Y168000D03*
X90000Y130000D03*
X94000Y166000D03*
X104273Y133615D03*
X96000Y295000D03*
Y288000D03*
Y281000D03*
Y274000D03*
X110000Y278000D03*
X96000Y302000D03*
X101000Y307000D03*
X108000D03*
X115000D03*
Y313000D03*
X108000D03*
X101000D03*
G54D23*
X94000Y291000D03*
G54D33*
G01X49100Y150900D02*
X50000Y150000D01*
G54D15*
X55500Y193000D03*
X68500D03*
X106500Y194000D03*
X119500D03*
X136000Y186500D03*
Y173500D03*
G54D24*
X56000Y231500D03*
X92000D03*
G54D34*
G01X34000Y189000D02*
X38000D01*
X42730Y184270D01*
X42914D01*
G01X40000Y195000D02*
X45000Y190000D01*
X46000D01*
X48032Y187968D01*
Y184270D01*
G01X50591D02*
Y186521D01*
X50450D01*
Y190550D01*
X46000Y195000D01*
G01X48032Y159074D02*
Y154968D01*
X50000Y153000D01*
G01X45473Y159074D02*
Y154473D01*
X44000Y153000D01*
G01X53150Y159074D02*
Y155050D01*
X54500Y153700D01*
G01X42914Y165914D02*
Y159074D01*
G01X43000Y166000D02*
X42914Y165914D01*
G01X65946Y178946D02*
X65000Y178000D01*
G01X65946Y184270D02*
Y178946D01*
G01X63387Y179613D02*
X65000Y178000D01*
G01X63387Y184270D02*
Y179613D01*
G01X60828Y178070D02*
X54430Y171672D01*
G01X60828Y184270D02*
Y178070D01*
G01X101751Y184430D02*
Y189056D01*
X100450Y190358D01*
Y190550D01*
X97000Y194000D01*
G01X94074Y184430D02*
X93594Y183950D01*
X91949D01*
X90401Y182402D01*
X90346Y182357D01*
X90286Y182351D01*
X89474D01*
X89383Y182372D01*
X89161Y182449D01*
X88848Y182492D01*
X88620D01*
X88396Y182479D01*
X88074Y182395D01*
X88072Y182394D01*
X88024Y182382D01*
X88001Y182371D01*
X87999Y182370D01*
X87678Y182214D01*
X87677Y182214D01*
X87622Y182172D01*
X87420Y182020D01*
X87274Y181874D01*
X87117Y181696D01*
X86696D01*
X86000Y181000D01*
G01X91000Y194000D02*
X95000Y190000D01*
X97000D01*
X98020Y188980D01*
X98025D01*
X98933Y188072D01*
Y188067D01*
X99192Y187808D01*
Y184430D01*
G01Y159234D02*
Y153808D01*
X100000Y153000D01*
G01X96633Y159234D02*
Y154633D01*
X95000Y153000D01*
G01X104310Y159234D02*
Y154390D01*
X105400Y153300D01*
G01X94074Y165926D02*
Y159234D01*
G01X94000Y166000D02*
X94074Y165926D01*
G01X111988Y178230D02*
X105590Y171832D01*
G01X111988Y184430D02*
Y178230D01*
G01X117106Y179106D02*
X116000Y178000D01*
G01X117106Y184430D02*
Y179106D01*
G01X114547Y179453D02*
Y184430D01*
G01X116000Y178000D02*
X114547Y179453D01*
G54D16*
G01X63000Y201000D02*
Y193000D01*
G01X46000Y201000D02*
Y204000D01*
G01X40000Y201000D02*
Y204000D01*
G01X34000Y195000D02*
Y198000D01*
G01X40000Y131000D02*
X44000D01*
G01X50000Y144000D02*
Y137000D01*
G01X44000Y144000D02*
Y137000D01*
G01X54000Y131000D02*
X50000D01*
G01X40000Y166000D02*
X43000D01*
G01X37000Y163000D02*
X40000Y166000D01*
G01X48758D02*
X54430Y171672D01*
G01X43000Y166000D02*
X48758D01*
G01X63000Y193000D02*
X68000D01*
G01X56000Y276000D02*
X49000D01*
G01X56000Y286000D02*
X49000D01*
G01X56000Y296000D02*
X49691D01*
X49316Y296402D01*
X49074Y296644D01*
X49013Y296733D01*
X48605D01*
G01X56000Y291000D02*
X64200D01*
G01X170500Y46000D02*
Y42500D01*
X171700Y41300D01*
Y41219D01*
X174219Y38700D01*
X174300D01*
X176000Y37000D01*
G01X97000Y200000D02*
Y205000D01*
G01X86000Y187000D02*
X90800D01*
G01X91000Y200000D02*
Y205000D01*
G01X136000Y173500D02*
Y168000D01*
G01X90000Y130000D02*
X94000D01*
G01X100000Y136000D02*
Y143000D01*
G01X94000Y136000D02*
Y143000D01*
G01X104273Y133615D02*
X103800Y133141D01*
Y133047D01*
X101300Y130547D01*
X100547D01*
X100000Y130000D01*
G01X119500Y188500D02*
Y194000D01*
G01X120700Y187000D02*
Y187300D01*
G01D02*
X119500Y188500D01*
G01X99758Y166000D02*
X94000D01*
G01X105590Y171832D02*
X99758Y166000D01*
G01X91000D02*
X88000Y163000D01*
G01X94000Y166000D02*
X91000D01*
G01X112000Y202000D02*
Y204000D01*
X113000Y205000D01*
G01X116000Y216000D02*
Y212000D01*
X34000Y198000D03*
X65000Y178000D03*
X50000Y153000D03*
X44000D03*
X54500Y153700D03*
X60600D03*
X46000Y204000D03*
X40000D03*
X90800Y187000D03*
X116000Y178000D03*
X100000Y153000D03*
X95000D03*
X105400Y153300D03*
X110600Y153500D03*
X97000Y205000D03*
X91000D03*
X116000Y212000D03*
X113000Y205000D03*
G54D25*
X74000Y248500D03*
G54D35*
G01X23000Y211000D02*
Y223000D01*
G01X0Y211000D02*
Y223000D01*
G01X153500Y64000D02*
X159000Y69500D01*
G54D26*
G01X39000Y68000D02*
Y78000D01*
G01Y92000D02*
Y105000D01*
G01X91000Y67000D02*
Y78000D01*
G01X139000Y7000D02*
Y13500D01*
X153500Y28000D01*
G01X91000Y92000D02*
Y104000D01*
G01X116500Y111500D02*
X119000Y112500D01*
G01X118252Y113248D02*
X119000Y112500D01*
G01X115242Y113248D02*
X118252D01*
G01X113642Y111648D02*
X115242Y113248D01*
G01X111843Y111648D02*
X113642D01*
G01X111843D02*
X111100D01*
G01X141500Y186500D02*
X136000D01*
G01X142000Y187000D02*
X141500Y186500D01*
G01X132000Y213000D02*
Y224000D01*
X49300Y363200D03*
Y333200D03*
X5900Y363000D03*
Y333000D03*
G54D17*
X34000Y195000D03*
Y189000D03*
X40000Y201000D03*
Y195000D03*
X46000Y201000D03*
Y195000D03*
X50000Y137000D03*
Y131000D03*
Y150000D03*
Y144000D03*
X37000Y163000D03*
Y157000D03*
X44000Y150000D03*
Y144000D03*
Y137000D03*
Y131000D03*
X97000Y194000D03*
Y200000D03*
X91000D03*
Y194000D03*
X86000Y187000D03*
Y181000D03*
X100000Y136000D03*
Y130000D03*
Y149000D03*
Y143000D03*
X88000Y163000D03*
Y157000D03*
X94000Y136000D03*
Y130000D03*
Y149000D03*
Y143000D03*
X116000Y216000D03*
Y222000D03*
G54D36*
G01X185039Y374016D02*
Y-19685D01*
X-19685D01*
Y374016D01*
X185039D01*
G54D18*
X54430Y171672D03*
X39370Y356693D03*
X167716Y0D03*
X105590Y171832D03*
G54D27*
X170500Y46000D03*
G54D19*
X54430Y171672D03*
X23000Y211000D03*
Y241000D03*
X0Y211000D03*
Y241000D03*
X21000Y263500D03*
Y308500D03*
X105590Y171832D03*
X132000Y243000D03*
Y213000D03*
G54D28*
X153500Y28000D03*
Y64000D03*
G54D29*
X138000Y-4000D03*
X157000Y290000D03*
Y265000D03*
M02*
