  0
SECTION
  2
HEADER
  9
$ACADVER
  1
AC1018
  9
$ACADMAINTVER
 70
    76
  9
$DWGCODEPAGE
  3
ANSI_936
  9
$INSBASE
 10
0.0
 20
0.0
 30
0.0
  9
$EXTMIN
 10
-27.137793098
 20
-23.6176257317
 30
0.0
  9
$EXTMAX
 10
35.862206902
 20
34.3823742683
 30
0.0
  9
$LIMMIN
 10
0.0
 20
0.0
  9
$LIMMAX
 10
11.6929133858
 20
8.267716535399999
  9
$ORTHOMODE
 70
     0
  9
$REGENMODE
 70
     1
  9
$FILLMODE
 70
     1
  9
$QTEXTMODE
 70
     0
  9
$MIRRTEXT
 70
     1
  9
$LTSCALE
 40
0.6431102362
  9
$ATTMODE
 70
     1
  9
$TEXTSIZE
 40
0.2
  9
$TRACEWID
 40
0.05
  9
$TEXTSTYLE
  7
STANDARD
  9
$CLAYER
  8
0
  9
$CELTYPE
  6
BYLAYER
  9
$CECOLOR
 62
   256
  9
$CELTSCALE
 40
1.0
  9
$DISPSILH
 70
     0
  9
$DIMSCALE
 40
1.0
  9
$DIMASZ
 40
0.1875
  9
$DIMEXO
 40
0.0730807087
  9
$DIMDLI
 40
0.4443307087
  9
$DIMRND
 40
0.0
  9
$DIMDLE
 40
0.0
  9
$DIMEXE
 40
0.2104724409
  9
$DIMTP
 40
0.0
  9
$DIMTM
 40
0.0
  9
$DIMTXT
 40
0.15625
  9
$DIMCEN
 40
0.1052362205
  9
$DIMTSZ
 40
0.0
  9
$DIMTOL
 70
     0
  9
$DIMLIM
 70
     0
  9
$DIMTIH
 70
     1
  9
$DIMTOH
 70
     1
  9
$DIMSE1
 70
     0
  9
$DIMSE2
 70
     0
  9
$DIMTAD
 70
     0
  9
$DIMZIN
 70
     0
  9
$DIMBLK
  1
Closed
  9
$DIMASO
 70
     1
  9
$DIMSHO
 70
     1
  9
$DIMPOST
  1

  9
$DIMAPOST
  1

  9
$DIMALT
 70
     0
  9
$DIMALTD
 70
     2
  9
$DIMALTF
 40
25.4
  9
$DIMLFAC
 40
1.0
  9
$DIMTOFL
 70
     0
  9
$DIMTVP
 40
0.0
  9
$DIMTIX
 70
     0
  9
$DIMSOXD
 70
     0
  9
$DIMSAH
 70
     0
  9
$DIMBLK1
  1

  9
$DIMBLK2
  1

  9
$DIMSTYLE
  2
STANDARD
  9
$DIMCLRD
 70
     0
  9
$DIMCLRE
 70
     0
  9
$DIMCLRT
 70
     0
  9
$DIMTFAC
 40
1.0
  9
$DIMGAP
 40
0.09
  9
$DIMJUST
 70
     0
  9
$DIMSD1
 70
     0
  9
$DIMSD2
 70
     0
  9
$DIMTOLJ
 70
     1
  9
$DIMTZIN
 70
     0
  9
$DIMALTZ
 70
     0
  9
$DIMALTTZ
 70
     0
  9
$DIMUPT
 70
     0
  9
$DIMDEC
 70
     4
  9
$DIMTDEC
 70
     4
  9
$DIMALTU
 70
     2
  9
$DIMALTTD
 70
     2
  9
$DIMTXSTY
  7
STANDARD
  9
$DIMAUNIT
 70
     0
  9
$DIMADEC
 70
     0
  9
$DIMALTRND
 40
0.0
  9
$DIMAZIN
 70
     0
  9
$DIMDSEP
 70
    46
  9
$DIMATFIT
 70
     3
  9
$DIMFRAC
 70
     0
  9
$DIMLDRBLK
  1

  9
$DIMLUNIT
 70
     2
  9
$DIMLWD
 70
    -2
  9
$DIMLWE
 70
    -2
  9
$DIMTMOVE
 70
     0
  9
$LUNITS
 70
     2
  9
$LUPREC
 70
     4
  9
$SKETCHINC
 40
0.1
  9
$FILLETRAD
 40
0.5
  9
$AUNITS
 70
     0
  9
$AUPREC
 70
     0
  9
$MENU
  1
.
  9
$ELEVATION
 40
0.0
  9
$PELEVATION
 40
0.0
  9
$THICKNESS
 40
0.0
  9
$LIMCHECK
 70
     0
  9
$CHAMFERA
 40
0.5
  9
$CHAMFERB
 40
0.5
  9
$CHAMFERC
 40
1.0
  9
$CHAMFERD
 40
0.0
  9
$SKPOLY
 70
     0
  9
$TDCREATE
 40
2444972.333333334
  9
$TDUCREATE
 40
2444972.000000000
  9
$TDUPDATE
 40
2454967.661353623
  9
$TDUUPDATE
 40
2454967.328020289
  9
$TDINDWG
 40
0.0008233912
  9
$TDUSRTIMER
 40
0.0008233912
  9
$USRTIMER
 70
     1
  9
$ANGBASE
 50
0.0
  9
$ANGDIR
 70
     0
  9
$PDMODE
 70
     3
  9
$PDSIZE
 40
0.3125
  9
$PLINEWID
 40
0.0
  9
$SPLFRAME
 70
     0
  9
$SPLINETYPE
 70
     6
  9
$SPLINESEGS
 70
     8
  9
$HANDSEED
  5
2C2
  9
$SURFTAB1
 70
     6
  9
$SURFTAB2
 70
     6
  9
$SURFTYPE
 70
     6
  9
$SURFU
 70
     6
  9
$SURFV
 70
     6
  9
$UCSBASE
  2

  9
$UCSNAME
  2

  9
$UCSORG
 10
0.0
 20
0.0
 30
0.0
  9
$UCSXDIR
 10
1.0
 20
0.0
 30
0.0
  9
$UCSYDIR
 10
0.0
 20
1.0
 30
0.0
  9
$UCSORTHOREF
  2

  9
$UCSORTHOVIEW
 70
     0
  9
$UCSORGTOP
 10
0.0
 20
0.0
 30
0.0
  9
$UCSORGBOTTOM
 10
0.0
 20
0.0
 30
0.0
  9
$UCSORGLEFT
 10
0.0
 20
0.0
 30
0.0
  9
$UCSORGRIGHT
 10
0.0
 20
0.0
 30
0.0
  9
$UCSORGFRONT
 10
0.0
 20
0.0
 30
0.0
  9
$UCSORGBACK
 10
0.0
 20
0.0
 30
0.0
  9
$PUCSBASE
  2

  9
$PUCSNAME
  2

  9
$PUCSORG
 10
0.0
 20
0.0
 30
0.0
  9
$PUCSXDIR
 10
1.0
 20
0.0
 30
0.0
  9
$PUCSYDIR
 10
0.0
 20
1.0
 30
0.0
  9
$PUCSORTHOREF
  2

  9
$PUCSORTHOVIEW
 70
     0
  9
$PUCSORGTOP
 10
0.0
 20
0.0
 30
0.0
  9
$PUCSORGBOTTOM
 10
0.0
 20
0.0
 30
0.0
  9
$PUCSORGLEFT
 10
0.0
 20
0.0
 30
0.0
  9
$PUCSORGRIGHT
 10
0.0
 20
0.0
 30
0.0
  9
$PUCSORGFRONT
 10
0.0
 20
0.0
 30
0.0
  9
$PUCSORGBACK
 10
0.0
 20
0.0
 30
0.0
  9
$USERI1
 70
     0
  9
$USERI2
 70
     0
  9
$USERI3
 70
     0
  9
$USERI4
 70
     0
  9
$USERI5
 70
     0
  9
$USERR1
 40
0.0
  9
$USERR2
 40
0.0
  9
$USERR3
 40
0.0
  9
$USERR4
 40
0.0
  9
$USERR5
 40
0.0
  9
$WORLDVIEW
 70
     1
  9
$SHADEDGE
 70
     3
  9
$SHADEDIF
 70
    70
  9
$TILEMODE
 70
     1
  9
$MAXACTVP
 70
    64
  9
$PINSBASE
 10
0.0
 20
0.0
 30
0.0
  9
$PLIMCHECK
 70
     0
  9
$PEXTMIN
 10
1.000000000000000E+20
 20
1.000000000000000E+20
 30
1.000000000000000E+20
  9
$PEXTMAX
 10
-1.000000000000000E+20
 20
-1.000000000000000E+20
 30
-1.000000000000000E+20
  9
$PLIMMIN
 10
0.0
 20
0.0
  9
$PLIMMAX
 10
12.0
 20
9.0
  9
$UNITMODE
 70
     0
  9
$VISRETAIN
 70
     1
  9
$PLINEGEN
 70
     0
  9
$PSLTSCALE
 70
     1
  9
$TREEDEPTH
 70
  3020
  9
$CMLSTYLE
  2
STANDARD
  9
$CMLJUST
 70
     0
  9
$CMLSCALE
 40
1.0
  9
$PROXYGRAPHICS
 70
     1
  9
$MEASUREMENT
 70
     0
  9
$CELWEIGHT
370
    -1
  9
$ENDCAPS
280
     0
  9
$JOINSTYLE
280
     0
  9
$LWDISPLAY
290
     0
  9
$INSUNITS
 70
     0
  9
$HYPERLINKBASE
  1

  9
$STYLESHEET
  1

  9
$XEDIT
290
     1
  9
$CEPSNTYPE
380
     0
  9
$PSTYLEMODE
290
     1
  9
$FINGERPRINTGUID
  2
{08E474A2-8864-4989-AF79-39C07D3532D3}
  9
$VERSIONGUID
  2
{07C77CA0-98AE-494C-B88A-57BDDB0AB9EA}
  9
$EXTNAMES
290
     1
  9
$PSVPSCALE
 40
0.0
  9
$OLESTARTUP
290
     0
  9
$SORTENTS
280
   127
  9
$INDEXCTL
280
     0
  9
$HIDETEXT
280
     0
  9
$XCLIPFRAME
290
     0
  9
$HALOGAP
280
     0
  9
$OBSCOLOR
 70
   257
  9
$OBSLTYPE
280
     0
  9
$INTERSECTIONDISPLAY
280
     0
  9
$INTERSECTIONCOLOR
 70
   257
  9
$DIMASSOC
280
     1
  9
$PROJECTNAME
  1

  0
ENDSEC
  0
SECTION
  2
CLASSES
  0
CLASS
  1
ACDBDICTIONARYWDFLT
  2
AcDbDictionaryWithDefault
  3
ObjectDBX Classes
 90
        0
 91
        1
280
     0
281
     0
  0
CLASS
  1
TABLESTYLE
  2
AcDbTableStyle
  3
ObjectDBX Classes
 90
     2047
 91
        1
280
     0
281
     0
  0
CLASS
  1
DICTIONARYVAR
  2
AcDbDictionaryVar
  3
ObjectDBX Classes
 90
        0
 91
        1
280
     0
281
     0
  0
ENDSEC
  0
SECTION
  2
TABLES
  0
TABLE
  2
VPORT
  5
8
330
0
100
AcDbSymbolTable
 70
     2
  0
VPORT
  5
2C1
330
8
100
AcDbSymbolTableRecord
100
AcDbViewportTableRecord
  2
*Active
 70
     0
 10
0.0
 20
0.0
 11
1.0
 21
1.0
 12
20.29616915669078
 22
49.338256358723
 13
0.0
 23
0.0
 14
1.0
 24
1.0
 15
0.0
 25
0.0
 16
0.0
 26
0.0
 36
1.0
 17
0.0
 27
0.0
 37
0.0
 40
151.3647453680543
 41
1.534351145038167
 42
50.0
 43
0.0
 44
0.0
 50
0.0
 51
0.0
 71
     0
 72
   100
 73
     1
 74
     1
 75
     0
 76
     0
 77
     0
 78
     0
281
     0
 65
     1
110
0.0
120
0.0
130
0.0
111
1.0
121
0.0
131
0.0
112
0.0
122
1.0
132
0.0
 79
     0
146
0.0
  0
ENDTAB
  0
TABLE
  2
LTYPE
  5
5
330
0
100
AcDbSymbolTable
 70
     6
  0
LTYPE
  5
14
330
5
100
AcDbSymbolTableRecord
100
AcDbLinetypeTableRecord
  2
BYBLOCK
 70
     0
  3

 72
    65
 73
     0
 40
0.0
  0
LTYPE
  5
15
330
5
100
AcDbSymbolTableRecord
100
AcDbLinetypeTableRecord
  2
BYLAYER
 70
     0
  3

 72
    65
 73
     0
 40
0.0
  0
LTYPE
  5
16
330
5
100
AcDbSymbolTableRecord
100
AcDbLinetypeTableRecord
  2
CONTINUOUS
 70
     0
  3
Solid line
 72
    65
 73
     0
 40
0.0
  0
LTYPE
  5
1F5
330
5
100
AcDbSymbolTableRecord
100
AcDbLinetypeTableRecord
  2
CENTER
 70
     0
  3
____ _ ____ _ ____ _ ____ _ ____ _ ____ _ ____
 72
    65
 73
     4
 40
0.6
 49
0.375
 74
     0
 49
-0.075
 74
     0
 49
0.075
 74
     0
 49
-0.075
 74
     0
  0
LTYPE
  5
1F6
330
5
100
AcDbSymbolTableRecord
100
AcDbLinetypeTableRecord
  2
HIDDEN
 70
     0
  3
- - - - - - - - - - - - - - - - - - - -
 72
    65
 73
     2
 40
0.2
 49
0.1
 74
     0
 49
-0.1
 74
     0
  0
LTYPE
  5
1F7
330
5
100
AcDbSymbolTableRecord
100
AcDbLinetypeTableRecord
  2
PHANTOM
 70
     0
  3
_____ _ _ _____ _ _ _____ _ _ _____
 72
    65
 73
     6
 40
0.8
 49
0.45
 74
     0
 49
-0.05
 74
     0
 49
0.1
 74
     0
 49
-0.05
 74
     0
 49
0.1
 74
     0
 49
-0.05
 74
     0
  0
LTYPE
  5
1F8
330
5
100
AcDbSymbolTableRecord
100
AcDbLinetypeTableRecord
  2
DOT
 70
     0
  3
. . . . . . . . . . . . . . . . . . . .
 72
    65
 73
     2
 40
0.2
 49
0.1
 74
     0
 49
-0.1
 74
     0
  0
LTYPE
  5
1F9
330
5
100
AcDbSymbolTableRecord
100
AcDbLinetypeTableRecord
  2
DASHED
 70
     0
  3
- - - - - - - - - - - - - - - - - - - -
 72
    65
 73
     2
 40
0.2
 49
0.1
 74
     0
 49
-0.1
 74
     0
  0
ENDTAB
  0
TABLE
  2
LAYER
  5
2
330
0
100
AcDbSymbolTable
 70
     9
  0
LAYER
  5
10
330
2
100
AcDbSymbolTableRecord
100
AcDbLayerTableRecord
  2
0
 70
     0
 62
     7
  6
CONTINUOUS
370
    -3
390
2B0
  0
LAYER
  5
1FA
330
2
100
AcDbSymbolTableRecord
100
AcDbLayerTableRecord
  2
DEFAULT_1
 70
     0
 62
     7
  6
CENTER
370
    -3
390
2B0
  0
LAYER
  5
1FB
330
2
100
AcDbSymbolTableRecord
100
AcDbLayerTableRecord
  2
DEFAULT_2
 70
     0
 62
     8
  6
HIDDEN
370
    -3
390
2B1
  0
LAYER
  5
1FC
330
2
100
AcDbSymbolTableRecord
100
AcDbLayerTableRecord
  2
DEFAULT_3
 70
     0
 62
     7
  6
PHANTOM
370
    -3
390
2B0
  0
LAYER
  5
1FD
330
2
100
AcDbSymbolTableRecord
100
AcDbLayerTableRecord
  2
1_ALL_PLANES
 70
     0
 62
     7
  6
CONTINUOUS
370
    -3
390
2B0
  0
LAYER
  5
1FE
330
2
100
AcDbSymbolTableRecord
100
AcDbLayerTableRecord
  2
2_ALL_CSYS
 70
     0
 62
     7
  6
CONTINUOUS
370
    -3
390
2B0
  0
LAYER
  5
1FF
330
2
100
AcDbSymbolTableRecord
100
AcDbLayerTableRecord
  2
2_ALL_NOTES
 70
     0
 62
     7
  6
CONTINUOUS
370
    -3
390
2B0
  0
LAYER
  5
200
330
2
100
AcDbSymbolTableRecord
100
AcDbLayerTableRecord
  2
3_ALL_AXES
 70
     0
 62
     7
  6
CONTINUOUS
370
    -3
390
2B0
  0
LAYER
  5
201
330
2
100
AcDbSymbolTableRecord
100
AcDbLayerTableRecord
  2
5_ALL_CURVES
 70
     0
 62
     7
  6
CONTINUOUS
370
    -3
390
2B0
  0
ENDTAB
  0
TABLE
  2
STYLE
  5
3
330
0
100
AcDbSymbolTable
 70
     2
  0
STYLE
  5
11
330
3
100
AcDbSymbolTableRecord
100
AcDbTextStyleTableRecord
  2
STANDARD
 70
     0
 40
0.0
 41
0.8
 50
0.0
 71
     0
 42
0.2
  3
txt
  4

  0
STYLE
  5
202
330
3
100
AcDbSymbolTableRecord
100
AcDbTextStyleTableRecord
  2
TEXTSTYLE_1
 70
     0
 40
0.0
 41
0.8
 50
0.0
 71
     0
 42
0.2
  3
gdt
  4

  0
ENDTAB
  0
TABLE
  2
VIEW
  5
6
330
0
100
AcDbSymbolTable
 70
     0
  0
ENDTAB
  0
TABLE
  2
UCS
  5
7
330
0
100
AcDbSymbolTable
 70
     0
  0
ENDTAB
  0
TABLE
  2
APPID
  5
9
330
0
100
AcDbSymbolTable
 70
     1
  0
APPID
  5
203
330
9
100
AcDbSymbolTableRecord
100
AcDbRegAppTableRecord
  2
ACAD
 70
     0
  0
ENDTAB
  0
TABLE
  2
DIMSTYLE
  5
A
330
0
100
AcDbSymbolTable
 70
     1
100
AcDbDimStyleTable
 71
     0
  0
DIMSTYLE
105
204
330
A
100
AcDbSymbolTableRecord
100
AcDbDimStyleTableRecord
  2
STANDARD
 70
     0
 41
0.1875
 47
0.01
 48
0.01
 78
     4
140
0.15625
271
     2
272
     2
284
     4
340
11
341
261
342
261
343
261
344
261
  0
ENDTAB
  0
TABLE
  2
BLOCK_RECORD
  5
1
330
0
100
AcDbSymbolTable
 70
     1
  0
BLOCK_RECORD
  5
1F
102
{ACAD_XDICTIONARY
360
28C
102
}
330
1
100
AcDbSymbolTableRecord
100
AcDbBlockTableRecord
  2
*MODEL_SPACE
340
269
  0
BLOCK_RECORD
  5
1B
102
{ACAD_XDICTIONARY
360
28E
102
}
330
1
100
AcDbSymbolTableRecord
100
AcDbBlockTableRecord
  2
*PAPER_SPACE
340
26A
  0
BLOCK_RECORD
  5
261
330
1
100
AcDbSymbolTableRecord
100
AcDbBlockTableRecord
  2
_Closed
340
0
  0
ENDTAB
  0
ENDSEC
  0
SECTION
  2
BLOCKS
  0
BLOCK
  5
20
330
1F
100
AcDbEntity
  8
0
100
AcDbBlockBegin
  2
*MODEL_SPACE
 70
     0
 10
0.0
 20
0.0
 30
0.0
  3
*MODEL_SPACE
  1

  0
ENDBLK
  5
21
330
1F
100
AcDbEntity
  8
0
100
AcDbBlockEnd
  0
BLOCK
  5
1C
330
1B
100
AcDbEntity
 67
     1
  8
0
100
AcDbBlockBegin
  2
*PAPER_SPACE
 70
     0
 10
0.0
 20
0.0
 30
0.0
  3
*PAPER_SPACE
  1

  0
ENDBLK
  5
1D
330
1B
100
AcDbEntity
 67
     1
  8
0
100
AcDbBlockEnd
  0
BLOCK
  5
262
330
261
100
AcDbEntity
  8
0
100
AcDbBlockBegin
  2
_Closed
 70
     0
 10
0.0
 20
0.0
 30
0.0
  3
_Closed
  1

  0
LINE
  5
264
330
261
100
AcDbEntity
  8
0
  6
ByBlock
 62
     0
370
    -2
100
AcDbLine
 10
-1.0
 20
0.166667
 30
0.0
 11
0.0
 21
0.0
 31
0.0
  0
LINE
  5
265
330
261
100
AcDbEntity
  8
0
  6
ByBlock
 62
     0
370
    -2
100
AcDbLine
 10
0.0
 20
0.0
 30
0.0
 11
-1.0
 21
-0.166667
 31
0.0
  0
LINE
  5
266
330
261
100
AcDbEntity
  8
0
  6
ByBlock
 62
     0
370
    -2
100
AcDbLine
 10
-1.0
 20
0.166667
 30
0.0
 11
-1.0
 21
-0.166667
 31
0.0
  0
LINE
  5
267
330
261
100
AcDbEntity
  8
0
  6
ByBlock
 62
     0
370
    -2
100
AcDbLine
 10
0.0
 20
0.0
 30
0.0
 11
-1.0
 21
0.0
 31
0.0
  0
ENDBLK
  5
263
330
261
100
AcDbEntity
  8
0
100
AcDbBlockEnd
  0
ENDSEC
  0
SECTION
  2
ENTITIES
  0
LINE
  5
20A
330
1F
100
AcDbEntity
  8
3_ALL_AXES
  6
Continuous
 62
     7
100
AcDbLine
 10
-27.137793098
 20
-23.6176257317
 30
0.0
 11
-27.137793098
 21
34.3823742683
 31
0.0
  0
LINE
  5
20B
330
1F
100
AcDbEntity
  8
3_ALL_AXES
  6
Continuous
 62
     7
100
AcDbLine
 10
35.862206902
 20
-23.6176257317
 30
0.0
 11
-27.137793098
 21
-23.6176257317
 31
0.0
  0
LINE
  5
20C
330
1F
100
AcDbEntity
  8
0
  6
Continuous
 62
     7
100
AcDbLine
 10
-13.987793098
 20
24.1323742683
 30
0.0
 11
-13.987793098
 21
19.6323742683
 31
0.0
  0
LINE
  5
20D
330
1F
100
AcDbEntity
  8
0
  6
Continuous
 62
     7
100
AcDbLine
 10
-13.987793098
 20
13.1323742683
 30
0.0
 11
-13.987793098
 21
8.632374268299999
 31
0.0
  0
LINE
  5
20E
330
1F
100
AcDbEntity
  8
0
  6
Continuous
 62
     7
100
AcDbLine
 10
-13.987793098
 20
2.132374268299999
 30
0.0
 11
-13.987793098
 21
-2.3676257317
 31
0.0
  0
LINE
  5
20F
330
1F
100
AcDbEntity
  8
0
  6
Continuous
 62
     7
100
AcDbLine
 10
-13.987793098
 20
-8.8676257317
 30
0.0
 11
-13.987793098
 21
-13.3676257317
 31
0.0
  0
LINE
  5
210
330
1F
100
AcDbEntity
  8
0
  6
Continuous
 62
     7
100
AcDbLine
 10
-13.987793098
 20
-13.3676257317
 30
0.0
 11
-9.487793097999999
 21
-13.3676257317
 31
0.0
  0
LINE
  5
211
330
1F
100
AcDbEntity
  8
0
  6
Continuous
 62
     7
100
AcDbLine
 10
2.012206901999999
 20
-13.3676257317
 30
0.0
 11
6.512206901999999
 21
-13.3676257317
 31
0.0
  0
LINE
  5
212
330
1F
100
AcDbEntity
  8
0
  6
Continuous
 62
     7
100
AcDbLine
 10
18.012206902
 20
-13.3676257317
 30
0.0
 11
22.512206902
 21
-13.3676257317
 31
0.0
  0
LINE
  5
213
330
1F
100
AcDbEntity
  8
0
  6
Continuous
 62
     7
100
AcDbLine
 10
22.512206902
 20
-8.8676257317
 30
0.0
 11
18.012206902
 21
-8.8676257317
 31
0.0
  0
LINE
  5
214
330
1F
100
AcDbEntity
  8
0
  6
Continuous
 62
     7
100
AcDbLine
 10
6.512206901999999
 20
-8.8676257317
 30
0.0
 11
2.012206901999999
 21
-8.8676257317
 31
0.0
  0
LINE
  5
215
330
1F
100
AcDbEntity
  8
0
  6
Continuous
 62
     7
100
AcDbLine
 10
-9.487793097999999
 20
-8.8676257317
 30
0.0
 11
-13.987793098
 21
-8.8676257317
 31
0.0
  0
LINE
  5
216
330
1F
100
AcDbEntity
  8
0
  6
Continuous
 62
     7
100
AcDbLine
 10
-9.487793097999999
 20
-13.3676257317
 30
0.0
 11
-9.487793097999999
 21
-8.8676257317
 31
0.0
  0
LINE
  5
217
330
1F
100
AcDbEntity
  8
0
  6
Continuous
 62
     7
100
AcDbLine
 10
-9.487793097999999
 20
-2.3676257317
 30
0.0
 11
-9.487793097999999
 21
2.132374268299999
 31
0.0
  0
LINE
  5
218
330
1F
100
AcDbEntity
  8
0
  6
Continuous
 62
     7
100
AcDbLine
 10
-9.487793097999999
 20
8.632374268299999
 30
0.0
 11
-9.487793097999999
 21
13.1323742683
 31
0.0
  0
LINE
  5
219
330
1F
100
AcDbEntity
  8
0
  6
Continuous
 62
     7
100
AcDbLine
 10
-9.487793097999999
 20
19.6323742683
 30
0.0
 11
-9.487793097999999
 21
24.1323742683
 31
0.0
  0
LINE
  5
21A
330
1F
100
AcDbEntity
  8
0
  6
Continuous
 62
     7
100
AcDbLine
 10
-13.987793098
 20
-2.3676257317
 30
0.0
 11
-9.487793097999999
 21
-2.3676257317
 31
0.0
  0
LINE
  5
21B
330
1F
100
AcDbEntity
  8
0
  6
Continuous
 62
     7
100
AcDbLine
 10
2.012206901999999
 20
-2.3676257317
 30
0.0
 11
6.512206901999999
 21
-2.3676257317
 31
0.0
  0
LINE
  5
21C
330
1F
100
AcDbEntity
  8
0
  6
Continuous
 62
     7
100
AcDbLine
 10
18.012206902
 20
-2.3676257317
 30
0.0
 11
22.512206902
 21
-2.3676257317
 31
0.0
  0
LINE
  5
21D
330
1F
100
AcDbEntity
  8
0
  6
Continuous
 62
     7
100
AcDbLine
 10
22.512206902
 20
2.132374268299999
 30
0.0
 11
18.012206902
 21
2.132374268299999
 31
0.0
  0
LINE
  5
21E
330
1F
100
AcDbEntity
  8
0
  6
Continuous
 62
     7
100
AcDbLine
 10
6.512206901999999
 20
2.132374268299999
 30
0.0
 11
2.012206901999999
 21
2.132374268299999
 31
0.0
  0
LINE
  5
21F
330
1F
100
AcDbEntity
  8
0
  6
Continuous
 62
     7
100
AcDbLine
 10
-9.487793097999999
 20
2.132374268299999
 30
0.0
 11
-13.987793098
 21
2.132374268299999
 31
0.0
  0
LINE
  5
220
330
1F
100
AcDbEntity
  8
0
  6
Continuous
 62
     7
100
AcDbLine
 10
2.012206901999999
 20
24.1323742683
 30
0.0
 11
2.012206901999999
 21
19.6323742683
 31
0.0
  0
LINE
  5
221
330
1F
100
AcDbEntity
  8
0
  6
Continuous
 62
     7
100
AcDbLine
 10
2.012206901999999
 20
13.1323742683
 30
0.0
 11
2.012206901999999
 21
8.632374268299999
 31
0.0
  0
LINE
  5
222
330
1F
100
AcDbEntity
  8
0
  6
Continuous
 62
     7
100
AcDbLine
 10
2.012206901999999
 20
2.132374268299999
 30
0.0
 11
2.012206901999999
 21
-2.3676257317
 31
0.0
  0
LINE
  5
223
330
1F
100
AcDbEntity
  8
0
  6
Continuous
 62
     7
100
AcDbLine
 10
2.012206901999999
 20
-8.8676257317
 30
0.0
 11
2.012206901999999
 21
-13.3676257317
 31
0.0
  0
LINE
  5
224
330
1F
100
AcDbEntity
  8
0
  6
Continuous
 62
     7
100
AcDbLine
 10
6.512206901999999
 20
-13.3676257317
 30
0.0
 11
6.512206901999999
 21
-8.8676257317
 31
0.0
  0
LINE
  5
225
330
1F
100
AcDbEntity
  8
0
  6
Continuous
 62
     7
100
AcDbLine
 10
6.512206901999999
 20
-2.3676257317
 30
0.0
 11
6.512206901999999
 21
2.132374268299999
 31
0.0
  0
LINE
  5
226
330
1F
100
AcDbEntity
  8
0
  6
Continuous
 62
     7
100
AcDbLine
 10
6.512206901999999
 20
8.632374268299999
 30
0.0
 11
6.512206901999999
 21
13.1323742683
 31
0.0
  0
LINE
  5
227
330
1F
100
AcDbEntity
  8
0
  6
Continuous
 62
     7
100
AcDbLine
 10
6.512206901999999
 20
19.6323742683
 30
0.0
 11
6.512206901999999
 21
24.1323742683
 31
0.0
  0
LINE
  5
228
330
1F
100
AcDbEntity
  8
0
  6
Continuous
 62
     7
100
AcDbLine
 10
-13.987793098
 20
8.632374268299999
 30
0.0
 11
-9.487793097999999
 21
8.632374268299999
 31
0.0
  0
LINE
  5
229
330
1F
100
AcDbEntity
  8
0
  6
Continuous
 62
     7
100
AcDbLine
 10
2.012206901999999
 20
8.632374268299999
 30
0.0
 11
6.512206901999999
 21
8.632374268299999
 31
0.0
  0
LINE
  5
22A
330
1F
100
AcDbEntity
  8
0
  6
Continuous
 62
     7
100
AcDbLine
 10
18.012206902
 20
8.632374268299999
 30
0.0
 11
22.512206902
 21
8.632374268299999
 31
0.0
  0
LINE
  5
22B
330
1F
100
AcDbEntity
  8
0
  6
Continuous
 62
     7
100
AcDbLine
 10
22.512206902
 20
13.1323742683
 30
0.0
 11
18.012206902
 21
13.1323742683
 31
0.0
  0
LINE
  5
22C
330
1F
100
AcDbEntity
  8
0
  6
Continuous
 62
     7
100
AcDbLine
 10
6.512206901999999
 20
13.1323742683
 30
0.0
 11
2.012206901999999
 21
13.1323742683
 31
0.0
  0
LINE
  5
22D
330
1F
100
AcDbEntity
  8
0
  6
Continuous
 62
     7
100
AcDbLine
 10
-9.487793097999999
 20
13.1323742683
 30
0.0
 11
-13.987793098
 21
13.1323742683
 31
0.0
  0
LINE
  5
22E
330
1F
100
AcDbEntity
  8
0
  6
Continuous
 62
     7
100
AcDbLine
 10
18.012206902
 20
24.1323742683
 30
0.0
 11
18.012206902
 21
19.6323742683
 31
0.0
  0
LINE
  5
22F
330
1F
100
AcDbEntity
  8
0
  6
Continuous
 62
     7
100
AcDbLine
 10
18.012206902
 20
13.1323742683
 30
0.0
 11
18.012206902
 21
8.632374268299999
 31
0.0
  0
LINE
  5
230
330
1F
100
AcDbEntity
  8
0
  6
Continuous
 62
     7
100
AcDbLine
 10
18.012206902
 20
2.132374268299999
 30
0.0
 11
18.012206902
 21
-2.3676257317
 31
0.0
  0
LINE
  5
231
330
1F
100
AcDbEntity
  8
0
  6
Continuous
 62
     7
100
AcDbLine
 10
18.012206902
 20
-8.8676257317
 30
0.0
 11
18.012206902
 21
-13.3676257317
 31
0.0
  0
LINE
  5
232
330
1F
100
AcDbEntity
  8
0
  6
Continuous
 62
     7
100
AcDbLine
 10
-13.987793098
 20
19.6323742683
 30
0.0
 11
-9.487793097999999
 21
19.6323742683
 31
0.0
  0
LINE
  5
233
330
1F
100
AcDbEntity
  8
0
  6
Continuous
 62
     7
100
AcDbLine
 10
2.012206901999999
 20
19.6323742683
 30
0.0
 11
6.512206901999999
 21
19.6323742683
 31
0.0
  0
LINE
  5
234
330
1F
100
AcDbEntity
  8
0
  6
Continuous
 62
     7
100
AcDbLine
 10
18.012206902
 20
19.6323742683
 30
0.0
 11
22.512206902
 21
19.6323742683
 31
0.0
  0
LINE
  5
235
330
1F
100
AcDbEntity
  8
0
  6
Continuous
 62
     7
100
AcDbLine
 10
22.512206902
 20
-13.3676257317
 30
0.0
 11
22.512206902
 21
-8.8676257317
 31
0.0
  0
LINE
  5
236
330
1F
100
AcDbEntity
  8
0
  6
Continuous
 62
     7
100
AcDbLine
 10
22.512206902
 20
-2.3676257317
 30
0.0
 11
22.512206902
 21
2.132374268299999
 31
0.0
  0
LINE
  5
237
330
1F
100
AcDbEntity
  8
0
  6
Continuous
 62
     7
100
AcDbLine
 10
22.512206902
 20
8.632374268299999
 30
0.0
 11
22.512206902
 21
13.1323742683
 31
0.0
  0
LINE
  5
238
330
1F
100
AcDbEntity
  8
0
  6
Continuous
 62
     7
100
AcDbLine
 10
22.512206902
 20
19.6323742683
 30
0.0
 11
22.512206902
 21
24.1323742683
 31
0.0
  0
LINE
  5
239
330
1F
100
AcDbEntity
  8
0
  6
Continuous
 62
     7
100
AcDbLine
 10
22.512206902
 20
24.1323742683
 30
0.0
 11
18.012206902
 21
24.1323742683
 31
0.0
  0
LINE
  5
23A
330
1F
100
AcDbEntity
  8
0
  6
Continuous
 62
     7
100
AcDbLine
 10
6.512206901999999
 20
24.1323742683
 30
0.0
 11
2.012206901999999
 21
24.1323742683
 31
0.0
  0
LINE
  5
23B
330
1F
100
AcDbEntity
  8
0
  6
Continuous
 62
     7
100
AcDbLine
 10
-9.487793097999999
 20
24.1323742683
 30
0.0
 11
-13.987793098
 21
24.1323742683
 31
0.0
  0
LINE
  5
23C
330
1F
100
AcDbEntity
  8
3_ALL_AXES
  6
Continuous
 62
     7
100
AcDbLine
 10
35.862206902
 20
34.3823742683
 30
0.0
 11
35.862206902
 21
-23.6176257317
 31
0.0
  0
LINE
  5
23D
330
1F
100
AcDbEntity
  8
3_ALL_AXES
  6
Continuous
 62
     7
100
AcDbLine
 10
-27.137793098
 20
34.3823742683
 30
0.0
 11
35.862206902
 21
34.3823742683
 31
0.0
  0
CIRCLE
  5
23E
330
1F
100
AcDbEntity
  8
3_ALL_AXES
  6
Continuous
 62
     7
100
AcDbCircle
 10
-11.737793098
 20
-11.1176257317
 30
0.0
 40
1.25
  0
CIRCLE
  5
23F
330
1F
100
AcDbEntity
  8
3_ALL_AXES
  6
Continuous
 62
     7
100
AcDbCircle
 10
4.262206901999999
 20
-11.1176257317
 30
0.0
 40
1.25
  0
CIRCLE
  5
240
330
1F
100
AcDbEntity
  8
3_ALL_AXES
  6
Continuous
 62
     7
100
AcDbCircle
 10
20.262206902
 20
-11.1176257317
 30
0.0
 40
1.25
  0
CIRCLE
  5
241
330
1F
100
AcDbEntity
  8
3_ALL_AXES
  6
Continuous
 62
     7
100
AcDbCircle
 10
20.262206902
 20
-0.1176257317
 30
0.0
 40
1.25
  0
CIRCLE
  5
242
330
1F
100
AcDbEntity
  8
3_ALL_AXES
  6
Continuous
 62
     7
100
AcDbCircle
 10
4.262206901999999
 20
-0.1176257317
 30
0.0
 40
1.25
  0
CIRCLE
  5
243
330
1F
100
AcDbEntity
  8
3_ALL_AXES
  6
Continuous
 62
     7
100
AcDbCircle
 10
-11.737793098
 20
-0.1176257317
 30
0.0
 40
1.25
  0
CIRCLE
  5
244
330
1F
100
AcDbEntity
  8
3_ALL_AXES
  6
Continuous
 62
     7
100
AcDbCircle
 10
-11.737793098
 20
10.8823742683
 30
0.0
 40
1.25
  0
CIRCLE
  5
245
330
1F
100
AcDbEntity
  8
3_ALL_AXES
  6
Continuous
 62
     7
100
AcDbCircle
 10
4.262206901999999
 20
10.8823742683
 30
0.0
 40
1.25
  0
CIRCLE
  5
246
330
1F
100
AcDbEntity
  8
3_ALL_AXES
  6
Continuous
 62
     7
100
AcDbCircle
 10
20.262206902
 20
10.8823742683
 30
0.0
 40
1.25
  0
CIRCLE
  5
247
330
1F
100
AcDbEntity
  8
3_ALL_AXES
  6
Continuous
 62
     7
100
AcDbCircle
 10
20.262206902
 20
21.8823742683
 30
0.0
 40
1.25
  0
CIRCLE
  5
248
330
1F
100
AcDbEntity
  8
3_ALL_AXES
  6
Continuous
 62
     7
100
AcDbCircle
 10
4.262206901999999
 20
21.8823742683
 30
0.0
 40
1.25
  0
CIRCLE
  5
249
330
1F
100
AcDbEntity
  8
3_ALL_AXES
  6
Continuous
 62
     7
100
AcDbCircle
 10
-11.737793098
 20
21.8823742683
 30
0.0
 40
1.25
  0
CIRCLE
  5
24A
330
1F
100
AcDbEntity
  8
3_ALL_AXES
  6
Continuous
 62
     7
100
AcDbCircle
 10
4.362206901999999
 20
31.8823742683
 30
0.0
 40
1.1
  0
CIRCLE
  5
24B
330
1F
100
AcDbEntity
  8
3_ALL_AXES
  6
Continuous
 62
     7
100
AcDbCircle
 10
32.362206902
 20
7.3823742683
 30
0.0
 40
1.1
  0
CIRCLE
  5
24C
330
1F
100
AcDbEntity
  8
3_ALL_AXES
  6
Continuous
 62
     7
100
AcDbCircle
 10
-23.637793098
 20
7.3823742683
 30
0.0
 40
1.1
  0
CIRCLE
  5
24D
330
1F
100
AcDbEntity
  8
3_ALL_AXES
  6
Continuous
 62
     7
100
AcDbCircle
 10
4.362206901999999
 20
-21.1176257317
 30
0.0
 40
1.1
  0
CIRCLE
  5
24E
330
1F
100
AcDbEntity
  8
3_ALL_AXES
  6
Continuous
 62
     7
100
AcDbCircle
 10
16.862206902
 20
31.3823742683
 30
0.0
 40
0.9
  0
CIRCLE
  5
24F
330
1F
100
AcDbEntity
  8
3_ALL_AXES
  6
Continuous
 62
     7
100
AcDbCircle
 10
-8.137793097999999
 20
31.3823742683
 30
0.0
 40
0.9
  0
CIRCLE
  5
250
330
1F
100
AcDbEntity
  8
3_ALL_AXES
  6
Continuous
 62
     7
100
AcDbCircle
 10
12.862206902
 20
-20.6176257317
 30
0.0
 40
0.9
  0
ELLIPSE
  5
251
330
1F
100
AcDbEntity
  8
5_ALL_CURVES
  6
Continuous
 62
    40
100
AcDbEllipse
 10
20.262206902
 20
-0.1176257317
 30
0.0
 11
6.0
 21
0.0
 31
0.0
210
0.0
220
0.0
230
1.0
 40
0.5833333333000001
 41
0.0
 42
6.283185307179586
  0
ELLIPSE
  5
252
330
1F
100
AcDbEntity
  8
5_ALL_CURVES
  6
Continuous
 62
    40
100
AcDbEllipse
 10
4.262206901999999
 20
-0.1176257317
 30
0.0
 11
6.0
 21
0.0
 31
0.0
210
0.0
220
0.0
230
1.0
 40
0.5833333333000001
 41
0.0
 42
6.283185307179586
  0
ELLIPSE
  5
253
330
1F
100
AcDbEntity
  8
5_ALL_CURVES
  6
Continuous
 62
    40
100
AcDbEllipse
 10
-11.737793098
 20
-0.1176257317
 30
0.0
 11
6.0
 21
0.0
 31
0.0
210
0.0
220
0.0
230
1.0
 40
0.5833333333000001
 41
0.0
 42
6.283185307179586
  0
ELLIPSE
  5
254
330
1F
100
AcDbEntity
  8
5_ALL_CURVES
  6
Continuous
 62
    40
100
AcDbEllipse
 10
-11.737793098
 20
10.8823742683
 30
0.0
 11
6.0
 21
0.0
 31
0.0
210
0.0
220
0.0
230
1.0
 40
0.5833333333000001
 41
0.0
 42
6.283185307179586
  0
ELLIPSE
  5
255
330
1F
100
AcDbEntity
  8
5_ALL_CURVES
  6
Continuous
 62
    40
100
AcDbEllipse
 10
4.262206901999999
 20
10.8823742683
 30
0.0
 11
6.0
 21
0.0
 31
0.0
210
0.0
220
0.0
230
1.0
 40
0.5833333333000001
 41
0.0
 42
6.283185307179586
  0
ELLIPSE
  5
256
330
1F
100
AcDbEntity
  8
5_ALL_CURVES
  6
Continuous
 62
    40
100
AcDbEllipse
 10
20.262206902
 20
10.8823742683
 30
0.0
 11
6.0
 21
0.0
 31
0.0
210
0.0
220
0.0
230
1.0
 40
0.5833333333000001
 41
0.0
 42
6.283185307179586
  0
ELLIPSE
  5
257
330
1F
100
AcDbEntity
  8
5_ALL_CURVES
  6
Continuous
 62
    40
100
AcDbEllipse
 10
20.262206902
 20
21.8823742683
 30
0.0
 11
6.0
 21
0.0
 31
0.0
210
0.0
220
0.0
230
1.0
 40
0.5833333333000001
 41
0.0
 42
6.283185307179586
  0
ELLIPSE
  5
258
330
1F
100
AcDbEntity
  8
5_ALL_CURVES
  6
Continuous
 62
    40
100
AcDbEllipse
 10
4.262206901999999
 20
21.8823742683
 30
0.0
 11
6.0
 21
0.0
 31
0.0
210
0.0
220
0.0
230
1.0
 40
0.5833333333000001
 41
0.0
 42
6.283185307179586
  0
ELLIPSE
  5
259
330
1F
100
AcDbEntity
  8
5_ALL_CURVES
  6
Continuous
 62
    40
100
AcDbEllipse
 10
-11.737793098
 20
21.8823742683
 30
0.0
 11
6.0
 21
0.0
 31
0.0
210
0.0
220
0.0
230
1.0
 40
0.5833333333000001
 41
0.0
 42
6.283185307179586
  0
ELLIPSE
  5
25A
330
1F
100
AcDbEntity
  8
5_ALL_CURVES
  6
Continuous
 62
    40
100
AcDbEllipse
 10
-11.737793098
 20
-11.1176257317
 30
0.0
 11
6.0
 21
0.0
 31
0.0
210
0.0
220
0.0
230
1.0
 40
0.5833333333000001
 41
0.0
 42
6.283185307179586
  0
ELLIPSE
  5
25B
330
1F
100
AcDbEntity
  8
5_ALL_CURVES
  6
Continuous
 62
    40
100
AcDbEllipse
 10
4.262206901999999
 20
-11.1176257317
 30
0.0
 11
6.0
 21
0.0
 31
0.0
210
0.0
220
0.0
230
1.0
 40
0.5833333333000001
 41
0.0
 42
6.283185307179586
  0
ELLIPSE
  5
25C
330
1F
100
AcDbEntity
  8
5_ALL_CURVES
  6
Continuous
 62
    40
100
AcDbEllipse
 10
20.262206902
 20
-11.1176257317
 30
0.0
 11
6.0
 21
0.0
 31
0.0
210
0.0
220
0.0
230
1.0
 40
0.5833333333000001
 41
0.0
 42
6.283185307179586
  0
ENDSEC
  0
SECTION
  2
OBJECTS
  0
DICTIONARY
  5
25D
330
0
100
AcDbDictionary
281
     1
  3
ACAD_COLOR
350
2AE
  3
ACAD_GROUP
350
25E
  3
ACAD_LAYOUT
350
268
  3
ACAD_MATERIAL
350
2AD
  3
ACAD_MLINESTYLE
350
25F
  3
ACAD_PLOTSETTINGS
350
2AF
  3
ACAD_PLOTSTYLENAME
350
2AB
  3
ACAD_TABLESTYLE
350
2B9
  3
AcDbVariableDictionary
350
2BF
  0
DICTIONARY
  5
28C
330
1F
100
AcDbDictionary
280
     1
281
     1
  3
ACAD_LAYOUTSELFREF
360
28D
  0
DICTIONARY
  5
28E
330
1B
100
AcDbDictionary
280
     1
281
     1
  3
ACAD_LAYOUTSELFREF
360
28F
  0
DICTIONARY
  5
2AE
102
{ACAD_REACTORS
330
25D
102
}
330
25D
100
AcDbDictionary
281
     1
  0
DICTIONARY
  5
25E
102
{ACAD_REACTORS
330
25D
102
}
330
25D
100
AcDbDictionary
281
     1
  0
DICTIONARY
  5
268
102
{ACAD_REACTORS
330
25D
102
}
330
25D
100
AcDbDictionary
281
     1
  3
Layout1
350
26A
  3
Model
350
269
  0
DICTIONARY
  5
2AD
102
{ACAD_REACTORS
330
25D
102
}
330
25D
100
AcDbDictionary
281
     1
  0
DICTIONARY
  5
25F
102
{ACAD_REACTORS
330
25D
102
}
330
25D
100
AcDbDictionary
281
     1
  3
STANDARD
350
260
  0
DICTIONARY
  5
2AF
102
{ACAD_REACTORS
330
25D
102
}
330
25D
100
AcDbDictionary
281
     1
  0
ACDBDICTIONARYWDFLT
  5
2AB
102
{ACAD_REACTORS
330
25D
102
}
330
25D
100
AcDbDictionary
281
     1
  3
Color_7
350
2B0
  3
Color_8
350
2B1
  3
Normal
350
2AC
100
AcDbDictionaryWithDefault
340
2AC
  0
DICTIONARY
  5
2B9
102
{ACAD_REACTORS
330
25D
102
}
330
25D
100
AcDbDictionary
281
     1
  3
Standard
350
2BA
  0
DICTIONARY
  5
2BF
102
{ACAD_REACTORS
330
25D
102
}
330
25D
100
AcDbDictionary
281
     1
  3
CTABLESTYLE
350
2C0
  0
XRECORD
  5
28D
102
{ACAD_REACTORS
330
28C
102
}
330
28C
100
AcDbXrecord
280
     1
340
1F
  0
XRECORD
  5
28F
102
{ACAD_REACTORS
330
28E
102
}
330
28E
100
AcDbXrecord
280
     1
340
1B
  0
LAYOUT
  5
26A
102
{ACAD_REACTORS
330
268
102
}
330
268
100
AcDbPlotSettings
  1

  2

  4

  6

 40
0.0
 41
0.0
 42
0.0
 43
0.0
 44
0.0
 45
0.0
 46
0.0
 47
0.0
 48
0.0
 49
0.0
140
0.0
141
0.0
142
1.0
143
1.0
 70
   688
 72
     0
 73
     0
 74
     5
  7

 75
    16
147
1.0
 76
     0
 77
     2
 78
   300
148
0.0
149
0.0
100
AcDbLayout
  1
Layout1
 70
     1
 71
     1
 10
0.0
 20
0.0
 11
12.0
 21
9.0
 12
0.0
 22
0.0
 32
0.0
 14
1.000000000000000E+20
 24
1.000000000000000E+20
 34
1.000000000000000E+20
 15
-1.000000000000000E+20
 25
-1.000000000000000E+20
 35
-1.000000000000000E+20
146
0.0
 13
0.0
 23
0.0
 33
0.0
 16
1.0
 26
0.0
 36
0.0
 17
0.0
 27
1.0
 37
0.0
 76
     0
330
1B
  0
LAYOUT
  5
269
102
{ACAD_REACTORS
330
268
102
}
330
268
100
AcDbPlotSettings
  1

  2

  4

  6

 40
0.0
 41
0.0
 42
0.0
 43
0.0
 44
0.0
 45
0.0
 46
0.0
 47
0.0
 48
0.0
 49
0.0
140
0.0
141
0.0
142
1.0
143
1.0
 70
   688
 72
     0
 73
     0
 74
     5
  7

 75
    16
147
1.0
 76
     0
 77
     2
 78
   300
148
0.0
149
0.0
100
AcDbLayout
  1
Model
 70
     1
 71
     0
 10
0.0
 20
0.0
 11
0.0
 21
0.0
 12
0.0
 22
0.0
 32
0.0
 14
0.0
 24
0.0
 34
0.0
 15
0.0
 25
0.0
 35
0.0
146
0.0
 13
0.0
 23
0.0
 33
0.0
 16
1.0
 26
0.0
 36
0.0
 17
0.0
 27
1.0
 37
0.0
 76
     0
330
1F
  0
MLINESTYLE
  5
260
102
{ACAD_REACTORS
330
25F
102
}
330
25F
100
AcDbMlineStyle
  2
STANDARD
 70
     0
  3

 62
   256
 51
90.0
 52
90.0
 71
     2
 49
0.5
 62
   256
  6
BYLAYER
 49
-0.5
 62
   256
  6
BYLAYER
  0
ACDBPLACEHOLDER
  5
2B0
102
{ACAD_REACTORS
330
2AB
102
}
330
2AB
  0
ACDBPLACEHOLDER
  5
2B1
102
{ACAD_REACTORS
330
2AB
102
}
330
2AB
  0
ACDBPLACEHOLDER
  5
2AC
102
{ACAD_REACTORS
330
2AB
102
}
330
2AB
  0
TABLESTYLE
  5
2BA
102
{ACAD_REACTORS
330
2B9
102
}
330
2B9
100
AcDbTableStyle
  3
Standard
 70
     0
 71
     0
 40
0.06
 41
0.06
280
     0
281
     0
  7
STANDARD
140
0.18
170
     2
 62
     0
 63
     7
283
     0
274
    -2
284
     1
 64
     0
275
    -2
285
     1
 65
     0
276
    -2
286
     1
 66
     0
277
    -2
287
     1
 67
     0
278
    -2
288
     1
 68
     0
279
    -2
289
     1
 69
     0
  7
STANDARD
140
0.25
170
     5
 62
     0
 63
     7
283
     0
274
    -2
284
     1
 64
     0
275
    -2
285
     1
 65
     0
276
    -2
286
     1
 66
     0
277
    -2
287
     1
 67
     0
278
    -2
288
     1
 68
     0
279
    -2
289
     1
 69
     0
  7
STANDARD
140
0.18
170
     5
 62
     0
 63
     7
283
     0
274
    -2
284
     1
 64
     0
275
    -2
285
     1
 65
     0
276
    -2
286
     1
 66
     0
277
    -2
287
     1
 67
     0
278
    -2
288
     1
 68
     0
279
    -2
289
     1
 69
     0
  0
DICTIONARYVAR
  5
2C0
102
{ACAD_REACTORS
330
2BF
102
}
330
2BF
100
DictionaryVariables
280
     0
  1
STANDARD
  0
ENDSEC
  0
EOF
