G04 ================== begin FILE IDENTIFICATION RECORD ==================*
G04 Layout Name:  D:/project/IRISking/ikemb-0001/project/hardware/POWER/POWER12-v6.brd*
G04 Film Name:    Silk_Top*
G04 File Format:  Gerber RS274X*
G04 File Origin:  15.7-p007*
G04 Origin Date:  Thu Aug 06 10:28:25 2009*
G04 *
G04 Layer:  REF DES/ASSEMBLY_TOP*
G04 Layer:  BOARD GEOMETRY/SILKSCREEN_TOP*
G04 Layer:  REF DES/SILKSCREEN_TOP*
G04 Layer:  PACKAGE GEOMETRY/SILKSCREEN_TOP*
G04 Layer:  BOARD GEOMETRY/OUTLINE*
G04 *
G04 Offset:    (0.000 0.000)*
G04 Mirror:    No*
G04 Mode:      Positive*
G04 Rotation:  0*
G04 FullContactRelief:  No*
G04 UndefLineWidth:     8.000*
G04 ================== end FILE IDENTIFICATION RECORD ====================*
%FSLAX55Y55*MOIN*%
%IR0*IPPOS*OFA0.00000B0.00000*MIA0B0*SFA1.00000B1.00000*%
%ADD10C,.006*%
%ADD11C,.008*%
G75*
%LPD*%
G75*
G54D10*
G01X124550Y44700D02*
X35950D01*
Y19300D01*
X124550D01*
Y44700D01*
G54D11*
G01X-86000Y31000D02*
X14000D01*
Y131000D01*
X-86000D01*
Y31000D01*
G01X-19685Y374016D02*
X185039D01*
Y-19685D01*
X-19685D01*
Y20000D01*
X-90000D01*
Y145000D01*
X-19685D01*
Y374016D01*
G01X-42694Y138265D02*
Y136044D01*
X-42540Y135580D01*
X-42234Y135270D01*
X-41851Y135167D01*
X-41467Y135270D01*
X-41161Y135580D01*
X-41008Y136044D01*
Y138265D01*
G01X-38293Y135167D02*
Y138265D01*
X-39711Y136044D01*
X-37795D01*
G01X-35655Y135167D02*
X-35387Y135218D01*
X-35081Y135373D01*
X-34889Y135631D01*
X-34812Y135993D01*
X-34889Y136354D01*
X-35119Y136664D01*
X-35464Y136819D01*
X-35847D01*
X-36077Y136922D01*
X-36268Y137180D01*
X-36345Y137542D01*
X-36230Y137903D01*
X-35962Y138162D01*
X-35655Y138265D01*
X-35349Y138162D01*
X-35081Y137903D01*
X-34966Y137542D01*
X-35042Y137180D01*
X-35234Y136922D01*
X-35464Y136819D01*
X-35847D01*
X-36192Y136664D01*
X-36422Y136354D01*
X-36498Y135993D01*
X-36422Y135631D01*
X-36230Y135373D01*
X-35924Y135218D01*
X-35655Y135167D01*
G01X71000Y57000D02*
X29000D01*
Y79000D01*
X77000D01*
X79000Y77000D01*
Y59000D01*
X77000Y57000D01*
X71000D01*
G01X79000Y59000D02*
Y77000D01*
X77000Y79000D01*
X29000D01*
Y57000D01*
X77000D01*
X79000Y59000D01*
G01X62000Y-14000D02*
X32000D01*
Y6000D01*
X62000D01*
Y-14000D01*
G01X39000D02*
Y-10000D01*
X55000D01*
Y-14000D01*
G01X20000Y0D02*
X13000Y-7000D01*
X27000D01*
X20000Y0D01*
G01X-9914Y9900D02*
Y16199D01*
X-8033D01*
X-7406Y15884D01*
X-6936Y15149D01*
X-6779Y14310D01*
X-6936Y13470D01*
X-7328Y12840D01*
X-8033Y12525D01*
X-9914D01*
G01X-2047Y9900D02*
X-2674Y10005D01*
X-3223Y10425D01*
X-3693Y11055D01*
X-4006Y11790D01*
X-4163Y12630D01*
Y13470D01*
X-4006Y14310D01*
X-3693Y15044D01*
X-3223Y15674D01*
X-2674Y16094D01*
X-2047Y16199D01*
X-1420Y16094D01*
X-872Y15674D01*
X-402Y15044D01*
X-88Y14310D01*
X68Y13470D01*
Y12630D01*
X-88Y11790D01*
X-402Y11055D01*
X-872Y10425D01*
X-1420Y10005D01*
X-2047Y9900D01*
G01X1901Y16199D02*
X2998Y9900D01*
X4252Y16199D01*
X5506Y9900D01*
X6603Y16199D01*
G01X12118Y9900D02*
X8984D01*
Y16199D01*
X12118D01*
G01X10865Y13155D02*
X8984D01*
G01X15283Y9900D02*
Y16199D01*
X17242D01*
X17869Y15884D01*
X18261Y15464D01*
X18418Y14625D01*
X18261Y13785D01*
X17791Y13260D01*
X17242Y12945D01*
X15283D01*
G01X17242D02*
X18418Y9900D01*
G01X23150D02*
Y16199D01*
X22209Y14940D01*
G01Y9900D02*
X24090D01*
G01X27960Y15149D02*
X28430Y15779D01*
X28979Y16094D01*
X29606Y16199D01*
X30389Y15989D01*
X30938Y15464D01*
X31094Y14835D01*
X31016Y14204D01*
X30702Y13680D01*
X29135Y12630D01*
X28430Y11895D01*
X27960Y10845D01*
X27803Y9900D01*
X31094D01*
G01X34729Y12000D02*
X36767D01*
G01X40088Y16199D02*
X42047Y9900D01*
X44006Y16199D01*
G01X46623Y10845D02*
X47093Y10320D01*
X47641Y10005D01*
X48346Y9900D01*
X49052Y10110D01*
X49600Y10530D01*
X49992Y11265D01*
X50070Y12105D01*
X49914Y12945D01*
X49522Y13470D01*
X48973Y13890D01*
X48425Y13994D01*
X47876Y13890D01*
X47171Y13470D01*
X47406Y16199D01*
X49522D01*
G01X70047Y-11617D02*
X70357Y-11425D01*
X70564Y-11196D01*
X70667Y-10927D01*
X70564Y-10621D01*
X70357Y-10391D01*
X70047Y-10161D01*
X69634Y-10084D01*
X67569D01*
G01X70667Y-7293D02*
X67569D01*
X69789Y-8711D01*
Y-6795D01*
G01X70667Y-4655D02*
X70615Y-4387D01*
X70460Y-4081D01*
X70202Y-3889D01*
X69841Y-3812D01*
X69479Y-3889D01*
X69169Y-4119D01*
X69014Y-4464D01*
Y-4847D01*
X68911Y-5077D01*
X68653Y-5268D01*
X68292Y-5345D01*
X67930Y-5230D01*
X67672Y-4962D01*
X67569Y-4655D01*
X67672Y-4349D01*
X67930Y-4081D01*
X68292Y-3966D01*
X68653Y-4042D01*
X68911Y-4234D01*
X69014Y-4464D01*
Y-4847D01*
X69169Y-5192D01*
X69479Y-5422D01*
X69841Y-5498D01*
X70202Y-5422D01*
X70460Y-5230D01*
X70615Y-4924D01*
X70667Y-4655D01*
G01X26056Y45065D02*
Y42844D01*
X26210Y42380D01*
X26516Y42070D01*
X26899Y41967D01*
X27283Y42070D01*
X27589Y42380D01*
X27742Y42844D01*
Y45065D01*
G01X30457Y41967D02*
Y45065D01*
X29039Y42844D01*
X30955D01*
G01X32252Y42431D02*
X32482Y42173D01*
X32750Y42018D01*
X33095Y41967D01*
X33440Y42070D01*
X33708Y42276D01*
X33899Y42638D01*
X33938Y43051D01*
X33861Y43464D01*
X33669Y43722D01*
X33401Y43929D01*
X33133Y43980D01*
X32865Y43929D01*
X32520Y43722D01*
X32635Y45065D01*
X33669D01*
G01X26056Y45065D02*
Y42844D01*
X26210Y42380D01*
X26516Y42070D01*
X26899Y41967D01*
X27283Y42070D01*
X27589Y42380D01*
X27742Y42844D01*
Y45065D01*
G01X30457Y41967D02*
Y45065D01*
X29039Y42844D01*
X30955D01*
G01X32252Y42431D02*
X32482Y42173D01*
X32750Y42018D01*
X33095Y41967D01*
X33440Y42070D01*
X33708Y42276D01*
X33899Y42638D01*
X33938Y43051D01*
X33861Y43464D01*
X33669Y43722D01*
X33401Y43929D01*
X33133Y43980D01*
X32865Y43929D01*
X32520Y43722D01*
X32635Y45065D01*
X33669D01*
G01X70047Y-8864D02*
X70357Y-8672D01*
X70564Y-8442D01*
X70667Y-8174D01*
X70564Y-7868D01*
X70357Y-7638D01*
X70047Y-7408D01*
X69634Y-7331D01*
X67569D01*
G01X70667Y-4540D02*
X67569D01*
X69789Y-5958D01*
Y-4042D01*
G01X70667Y-1902D02*
X70615Y-1634D01*
X70460Y-1328D01*
X70202Y-1136D01*
X69841Y-1060D01*
X69479Y-1136D01*
X69169Y-1366D01*
X69014Y-1711D01*
Y-2094D01*
X68911Y-2324D01*
X68653Y-2516D01*
X68292Y-2592D01*
X67930Y-2477D01*
X67672Y-2209D01*
X67569Y-1902D01*
X67672Y-1596D01*
X67930Y-1328D01*
X68292Y-1213D01*
X68653Y-1289D01*
X68911Y-1481D01*
X69014Y-1711D01*
Y-2094D01*
X69169Y-2439D01*
X69479Y-2669D01*
X69841Y-2745D01*
X70202Y-2669D01*
X70460Y-2477D01*
X70615Y-2171D01*
X70667Y-1902D01*
G01X31196Y54807D02*
X30967Y54962D01*
X30698Y55065D01*
X30392D01*
X30047Y54910D01*
X29779Y54652D01*
X29587Y54342D01*
X29434Y53826D01*
X29396Y53361D01*
X29472Y52897D01*
X29587Y52587D01*
X29817Y52277D01*
X30085Y52071D01*
X30354Y51967D01*
X30622D01*
X30890Y52071D01*
X31120Y52225D01*
X31312Y52432D01*
G01X32723Y54549D02*
X32953Y54859D01*
X33221Y55014D01*
X33528Y55065D01*
X33911Y54962D01*
X34179Y54704D01*
X34256Y54394D01*
X34218Y54084D01*
X34064Y53826D01*
X33298Y53310D01*
X32953Y52948D01*
X32723Y52432D01*
X32647Y51967D01*
X34256D01*
G01X35821Y53258D02*
X36089Y53620D01*
X36319Y53826D01*
X36625Y53929D01*
X36894Y53826D01*
X37085Y53620D01*
X37238Y53310D01*
X37277Y52948D01*
X37238Y52638D01*
X37085Y52329D01*
X36855Y52071D01*
X36587Y51967D01*
X36281Y52071D01*
X36012Y52380D01*
X35859Y52845D01*
X35821Y53361D01*
X35897Y54033D01*
X36012Y54394D01*
X36204Y54756D01*
X36472Y55014D01*
X36740Y55065D01*
X37009Y54962D01*
X37200Y54704D01*
G01X38804Y52432D02*
X39033Y52174D01*
X39302Y52019D01*
X39646Y51967D01*
X39991Y52071D01*
X40259Y52277D01*
X40451Y52638D01*
X40489Y53052D01*
X40413Y53465D01*
X40221Y53723D01*
X39953Y53929D01*
X39685Y53981D01*
X39417Y53929D01*
X39072Y53723D01*
X39187Y55065D01*
X40221D01*
G01X10000Y168000D02*
Y138000D01*
X-10000D01*
Y168000D01*
X10000D01*
G01X46000Y190000D02*
Y188000D01*
G01X10000Y185500D02*
Y171500D01*
X-10000D01*
Y185500D01*
X41000D01*
X46000Y190500D01*
X44000D01*
G01X16000Y183500D02*
Y170500D01*
X36000D01*
Y183500D01*
X16000D01*
Y177500D01*
G01X24500Y183500D02*
X88500D01*
X93500Y188500D01*
X91500D01*
G01X49400Y188000D02*
Y198000D01*
X74600D01*
Y188000D01*
X49400D01*
G01X53800Y198200D02*
Y203800D01*
X66200D01*
Y198200D01*
X53800D01*
G01X56500Y203500D02*
X54000D01*
Y198500D01*
X55000D01*
G01X65000D02*
X66000D01*
Y203500D01*
X63500D01*
G01X49400Y188000D02*
Y198000D01*
X51000D01*
Y188000D01*
X49400D01*
G01X67500D02*
X74500D01*
Y198000D01*
X72500D01*
X67500D01*
G01X31200Y198200D02*
X36800D01*
Y185800D01*
X31200D01*
Y198200D01*
G01X36500Y195500D02*
Y198000D01*
X31500D01*
Y197000D01*
G01Y187000D02*
Y186000D01*
X36500D01*
Y188500D01*
G01X37200Y204200D02*
X42800D01*
Y191800D01*
X37200D01*
Y204200D01*
G01X37500Y193000D02*
Y192000D01*
X42500D01*
Y194500D01*
G01X43200Y204200D02*
X48800D01*
Y191800D01*
X43200D01*
Y204200D01*
G01X43500Y193000D02*
Y192000D01*
X48500D01*
Y194500D01*
G01X40000Y148000D02*
Y146000D01*
G01X36000D02*
X38000D01*
X40000Y148000D01*
X38000D01*
G01X22000Y146000D02*
Y120000D01*
X36000D01*
Y146000D01*
X22000D01*
G01X67225Y163011D02*
Y180333D01*
X41635D01*
Y163011D01*
X67225D01*
G01X52500Y152000D02*
Y153000D01*
X47500D01*
Y150500D01*
G01Y143500D02*
Y141000D01*
X52500D01*
Y142000D01*
G01X52800Y140800D02*
X47200D01*
Y153200D01*
X52800D01*
Y140800D01*
G01X52500Y139000D02*
Y140000D01*
X47500D01*
Y137500D01*
G01Y130500D02*
Y128000D01*
X52500D01*
Y129000D01*
G01X52800Y127800D02*
X47200D01*
Y140200D01*
X52800D01*
Y127800D01*
G01X46500Y152000D02*
Y153000D01*
X41500D01*
Y150500D01*
G01Y143500D02*
Y141000D01*
X46500D01*
Y142000D01*
G01X46800Y140800D02*
X41200D01*
Y153200D01*
X46800D01*
Y140800D01*
G01X46500Y139000D02*
Y140000D01*
X41500D01*
Y137500D01*
G01Y130500D02*
Y128000D01*
X46500D01*
Y129000D01*
G01X46800Y127800D02*
X41200D01*
Y140200D01*
X46800D01*
Y127800D01*
G01X39500Y165000D02*
Y166000D01*
X34500D01*
Y163500D01*
G01Y156500D02*
Y154000D01*
X39500D01*
Y155000D01*
G01X39800Y153800D02*
X34200D01*
Y166200D01*
X39800D01*
Y153800D01*
G01X71000Y81000D02*
X29000D01*
Y103000D01*
X77000D01*
X79000Y101000D01*
Y83000D01*
X77000Y81000D01*
X71000D01*
G01X79000Y83000D02*
Y101000D01*
X77000Y103000D01*
X29000D01*
Y81000D01*
X77000D01*
X79000Y83000D01*
G01X84000Y107500D02*
X54000D01*
Y152500D01*
X84000D01*
Y107500D01*
G01X30033Y134587D02*
X26935D01*
Y135545D01*
X27090Y135852D01*
X27296Y136043D01*
X27709Y136120D01*
X28122Y136043D01*
X28380Y135813D01*
X28535Y135545D01*
Y134587D01*
G01Y135545D02*
X30033Y136120D01*
G01Y138451D02*
X26935D01*
X27554Y137991D01*
G01X30033D02*
Y138911D01*
G01Y141549D02*
X29981Y141817D01*
X29826Y142124D01*
X29568Y142315D01*
X29207Y142392D01*
X28845Y142315D01*
X28535Y142085D01*
X28380Y141740D01*
Y141357D01*
X28277Y141127D01*
X28019Y140936D01*
X27658Y140859D01*
X27296Y140974D01*
X27038Y141242D01*
X26935Y141549D01*
X27038Y141855D01*
X27296Y142124D01*
X27658Y142238D01*
X28019Y142162D01*
X28277Y141970D01*
X28380Y141740D01*
Y141357D01*
X28535Y141012D01*
X28845Y140782D01*
X29207Y140706D01*
X29568Y140782D01*
X29826Y140974D01*
X29981Y141281D01*
X30033Y141549D01*
G01X29671Y143995D02*
X29930Y144263D01*
X30033Y144570D01*
X29930Y144876D01*
X29620Y145144D01*
X29155Y145336D01*
X28690Y145413D01*
X28122D01*
X27658Y145336D01*
X27244Y145144D01*
X27038Y144915D01*
X26935Y144646D01*
X27038Y144340D01*
X27244Y144110D01*
X27554Y143957D01*
X27967Y143880D01*
X28329Y143957D01*
X28690Y144148D01*
X28897Y144378D01*
X28948Y144646D01*
X28845Y144953D01*
X28587Y145183D01*
X28122Y145413D01*
G01X23193Y136196D02*
X23038Y135967D01*
X22935Y135698D01*
Y135392D01*
X23090Y135047D01*
X23348Y134779D01*
X23658Y134587D01*
X24174Y134434D01*
X24639Y134396D01*
X25103Y134472D01*
X25413Y134587D01*
X25723Y134817D01*
X25930Y135085D01*
X26033Y135354D01*
Y135622D01*
X25930Y135890D01*
X25775Y136120D01*
X25568Y136312D01*
G01X23451Y137723D02*
X23141Y137953D01*
X22986Y138221D01*
X22935Y138528D01*
X23038Y138911D01*
X23296Y139179D01*
X23606Y139256D01*
X23916Y139218D01*
X24174Y139064D01*
X24690Y138298D01*
X25052Y137953D01*
X25568Y137723D01*
X26033Y137647D01*
Y139256D01*
G01Y141472D02*
X25362Y141549D01*
X24794Y141664D01*
X24277Y141817D01*
X23709Y142009D01*
X22935Y142315D01*
Y140782D01*
G01X25671Y143995D02*
X25930Y144263D01*
X26033Y144570D01*
X25930Y144876D01*
X25620Y145144D01*
X25155Y145336D01*
X24690Y145413D01*
X24122D01*
X23658Y145336D01*
X23244Y145144D01*
X23038Y144915D01*
X22935Y144646D01*
X23038Y144340D01*
X23244Y144110D01*
X23554Y143957D01*
X23967Y143880D01*
X24329Y143957D01*
X24690Y144148D01*
X24897Y144378D01*
X24948Y144646D01*
X24845Y144953D01*
X24587Y145183D01*
X24122Y145413D01*
G01X71196Y201807D02*
X70967Y201962D01*
X70698Y202065D01*
X70392D01*
X70047Y201910D01*
X69779Y201652D01*
X69587Y201342D01*
X69434Y200826D01*
X69396Y200361D01*
X69472Y199897D01*
X69587Y199587D01*
X69817Y199277D01*
X70085Y199070D01*
X70354Y198967D01*
X70622D01*
X70890Y199070D01*
X71120Y199225D01*
X71312Y199432D01*
G01X72723Y201549D02*
X72953Y201859D01*
X73221Y202014D01*
X73528Y202065D01*
X73911Y201962D01*
X74179Y201704D01*
X74256Y201394D01*
X74217Y201084D01*
X74064Y200826D01*
X73298Y200310D01*
X72953Y199948D01*
X72723Y199432D01*
X72647Y198967D01*
X74256D01*
G01X76472D02*
X76549Y199638D01*
X76664Y200206D01*
X76817Y200723D01*
X77009Y201291D01*
X77315Y202065D01*
X75783D01*
G01X80106Y198967D02*
Y202065D01*
X78688Y199845D01*
X80604D01*
G01X71196Y201807D02*
X70967Y201962D01*
X70698Y202065D01*
X70392D01*
X70047Y201910D01*
X69779Y201652D01*
X69587Y201342D01*
X69434Y200826D01*
X69396Y200361D01*
X69472Y199897D01*
X69587Y199587D01*
X69817Y199277D01*
X70085Y199070D01*
X70354Y198967D01*
X70622D01*
X70890Y199070D01*
X71120Y199225D01*
X71312Y199432D01*
G01X72723Y201549D02*
X72953Y201859D01*
X73221Y202014D01*
X73528Y202065D01*
X73911Y201962D01*
X74179Y201704D01*
X74256Y201394D01*
X74217Y201084D01*
X74064Y200826D01*
X73298Y200310D01*
X72953Y199948D01*
X72723Y199432D01*
X72647Y198967D01*
X74256D01*
G01X76472D02*
X76549Y199638D01*
X76664Y200206D01*
X76817Y200723D01*
X77009Y201291D01*
X77315Y202065D01*
X75783D01*
G01X80106Y198967D02*
Y202065D01*
X78688Y199845D01*
X80604D01*
G01X48935Y110136D02*
X52033D01*
Y111669D01*
G01X49451Y113272D02*
X49141Y113502D01*
X48986Y113770D01*
X48935Y114077D01*
X49038Y114460D01*
X49296Y114728D01*
X49606Y114805D01*
X49916Y114766D01*
X50174Y114613D01*
X50690Y113847D01*
X51052Y113502D01*
X51568Y113272D01*
X52033Y113195D01*
Y114805D01*
G01X51568Y116255D02*
X51826Y116485D01*
X51981Y116753D01*
X52033Y117098D01*
X51929Y117442D01*
X51723Y117711D01*
X51362Y117902D01*
X50948Y117940D01*
X50535Y117864D01*
X50277Y117672D01*
X50071Y117404D01*
X50019Y117136D01*
X50071Y116868D01*
X50277Y116523D01*
X48935Y116638D01*
Y117672D01*
G01X18196Y196807D02*
X17967Y196962D01*
X17699Y197065D01*
X17392D01*
X17047Y196910D01*
X16779Y196652D01*
X16587Y196342D01*
X16434Y195826D01*
X16396Y195361D01*
X16472Y194897D01*
X16587Y194587D01*
X16817Y194277D01*
X17085Y194070D01*
X17354Y193967D01*
X17622D01*
X17890Y194070D01*
X18120Y194225D01*
X18312Y194432D01*
G01X19723Y196549D02*
X19953Y196859D01*
X20221Y197014D01*
X20528Y197065D01*
X20911Y196962D01*
X21179Y196704D01*
X21256Y196394D01*
X21218Y196084D01*
X21064Y195826D01*
X20298Y195310D01*
X19953Y194948D01*
X19723Y194432D01*
X19647Y193967D01*
X21256D01*
G01X23472D02*
X23549Y194638D01*
X23664Y195206D01*
X23817Y195723D01*
X24009Y196291D01*
X24315Y197065D01*
X22782D01*
G01X26646D02*
X26340Y196962D01*
X26110Y196704D01*
X25957Y196394D01*
X25842Y195981D01*
X25804Y195516D01*
X25842Y195052D01*
X25957Y194638D01*
X26110Y194329D01*
X26340Y194070D01*
X26646Y193967D01*
X26953Y194070D01*
X27183Y194329D01*
X27336Y194638D01*
X27451Y195052D01*
X27489Y195516D01*
X27451Y195981D01*
X27336Y196394D01*
X27183Y196704D01*
X26953Y196962D01*
X26646Y197065D01*
G01X-3804Y196807D02*
X-4033Y196962D01*
X-4302Y197065D01*
X-4608D01*
X-4953Y196910D01*
X-5221Y196652D01*
X-5413Y196342D01*
X-5566Y195826D01*
X-5604Y195361D01*
X-5528Y194897D01*
X-5413Y194587D01*
X-5183Y194277D01*
X-4915Y194070D01*
X-4646Y193967D01*
X-4378D01*
X-4110Y194070D01*
X-3880Y194225D01*
X-3688Y194432D01*
G01X-2277Y196549D02*
X-2047Y196859D01*
X-1779Y197014D01*
X-1472Y197065D01*
X-1089Y196962D01*
X-821Y196704D01*
X-744Y196394D01*
X-782Y196084D01*
X-936Y195826D01*
X-1702Y195310D01*
X-2047Y194948D01*
X-2277Y194432D01*
X-2353Y193967D01*
X-744D01*
G01X1472D02*
X1549Y194638D01*
X1664Y195206D01*
X1817Y195723D01*
X2009Y196291D01*
X2315Y197065D01*
X782D01*
G01X3918Y195258D02*
X4187Y195620D01*
X4416Y195826D01*
X4723Y195929D01*
X4991Y195826D01*
X5183Y195620D01*
X5336Y195310D01*
X5374Y194948D01*
X5336Y194638D01*
X5183Y194329D01*
X4953Y194070D01*
X4685Y193967D01*
X4378Y194070D01*
X4110Y194380D01*
X3957Y194845D01*
X3918Y195361D01*
X3995Y196033D01*
X4110Y196394D01*
X4302Y196756D01*
X4570Y197014D01*
X4838Y197065D01*
X5106Y196962D01*
X5298Y196704D01*
G01X27193Y123196D02*
X27038Y122967D01*
X26935Y122698D01*
Y122392D01*
X27090Y122047D01*
X27348Y121779D01*
X27658Y121587D01*
X28174Y121434D01*
X28639Y121396D01*
X29103Y121472D01*
X29413Y121587D01*
X29723Y121817D01*
X29930Y122085D01*
X30033Y122354D01*
Y122622D01*
X29930Y122890D01*
X29775Y123120D01*
X29568Y123312D01*
G01X27451Y124723D02*
X27141Y124953D01*
X26986Y125221D01*
X26935Y125528D01*
X27038Y125911D01*
X27296Y126179D01*
X27606Y126256D01*
X27916Y126218D01*
X28174Y126064D01*
X28690Y125298D01*
X29052Y124953D01*
X29568Y124723D01*
X30033Y124647D01*
Y126256D01*
G01Y128549D02*
X29981Y128817D01*
X29826Y129123D01*
X29568Y129315D01*
X29207Y129392D01*
X28845Y129315D01*
X28535Y129085D01*
X28380Y128740D01*
Y128357D01*
X28277Y128127D01*
X28019Y127936D01*
X27658Y127859D01*
X27296Y127974D01*
X27038Y128242D01*
X26935Y128549D01*
X27038Y128855D01*
X27296Y129123D01*
X27658Y129239D01*
X28019Y129162D01*
X28277Y128970D01*
X28380Y128740D01*
Y128357D01*
X28535Y128012D01*
X28845Y127782D01*
X29207Y127706D01*
X29568Y127782D01*
X29826Y127974D01*
X29981Y128281D01*
X30033Y128549D01*
G01X26935Y131646D02*
X27038Y131340D01*
X27296Y131110D01*
X27606Y130957D01*
X28019Y130842D01*
X28484Y130804D01*
X28948Y130842D01*
X29362Y130957D01*
X29671Y131110D01*
X29930Y131340D01*
X30033Y131646D01*
X29930Y131953D01*
X29671Y132183D01*
X29362Y132336D01*
X28948Y132451D01*
X28484Y132489D01*
X28019Y132451D01*
X27606Y132336D01*
X27296Y132183D01*
X27038Y131953D01*
X26935Y131646D01*
G01X26033Y121587D02*
X22935D01*
Y122545D01*
X23090Y122852D01*
X23296Y123043D01*
X23709Y123120D01*
X24122Y123043D01*
X24380Y122813D01*
X24535Y122545D01*
Y121587D01*
G01Y122545D02*
X26033Y123120D01*
G01Y125451D02*
X22935D01*
X23554Y124991D01*
G01X26033D02*
Y125911D01*
G01Y128549D02*
X25981Y128817D01*
X25826Y129123D01*
X25568Y129315D01*
X25207Y129392D01*
X24845Y129315D01*
X24535Y129085D01*
X24380Y128740D01*
Y128357D01*
X24277Y128127D01*
X24019Y127936D01*
X23658Y127859D01*
X23296Y127974D01*
X23038Y128242D01*
X22935Y128549D01*
X23038Y128855D01*
X23296Y129123D01*
X23658Y129239D01*
X24019Y129162D01*
X24277Y128970D01*
X24380Y128740D01*
Y128357D01*
X24535Y128012D01*
X24845Y127782D01*
X25207Y127706D01*
X25568Y127782D01*
X25826Y127974D01*
X25981Y128281D01*
X26033Y128549D01*
G01Y131570D02*
X25362Y131646D01*
X24794Y131761D01*
X24277Y131915D01*
X23709Y132106D01*
X22935Y132413D01*
Y130880D01*
G01X31196Y107807D02*
X30967Y107962D01*
X30698Y108065D01*
X30392D01*
X30047Y107910D01*
X29779Y107652D01*
X29587Y107342D01*
X29434Y106826D01*
X29396Y106361D01*
X29472Y105897D01*
X29587Y105587D01*
X29817Y105277D01*
X30085Y105070D01*
X30354Y104967D01*
X30622D01*
X30890Y105070D01*
X31120Y105225D01*
X31312Y105432D01*
G01X32723Y107549D02*
X32953Y107859D01*
X33221Y108014D01*
X33528Y108065D01*
X33911Y107962D01*
X34179Y107704D01*
X34256Y107394D01*
X34218Y107084D01*
X34064Y106826D01*
X33298Y106310D01*
X32953Y105948D01*
X32723Y105432D01*
X32647Y104967D01*
X34256D01*
G01X35821Y106258D02*
X36089Y106620D01*
X36319Y106826D01*
X36625Y106929D01*
X36894Y106826D01*
X37085Y106620D01*
X37238Y106310D01*
X37277Y105948D01*
X37238Y105638D01*
X37085Y105329D01*
X36855Y105070D01*
X36587Y104967D01*
X36281Y105070D01*
X36012Y105380D01*
X35859Y105845D01*
X35821Y106361D01*
X35897Y107033D01*
X36012Y107394D01*
X36204Y107756D01*
X36472Y108014D01*
X36740Y108065D01*
X37009Y107962D01*
X37200Y107704D01*
G01X40106Y104967D02*
Y108065D01*
X38688Y105845D01*
X40604D01*
G01X36935Y170060D02*
X39155D01*
X39620Y170213D01*
X39930Y170519D01*
X40033Y170902D01*
X39930Y171286D01*
X39620Y171592D01*
X39155Y171745D01*
X36935D01*
G01X40033Y174460D02*
X36935D01*
X39155Y173042D01*
Y174958D01*
G01X39413Y176255D02*
X39775Y176484D01*
X39981Y176791D01*
X40033Y177136D01*
X39981Y177442D01*
X39723Y177749D01*
X39413Y177940D01*
X39103Y177979D01*
X38742Y177902D01*
X38484Y177634D01*
X38380Y177366D01*
Y177021D01*
G01Y177366D02*
X38226Y177596D01*
X37967Y177787D01*
X37658Y177864D01*
X37348Y177787D01*
X37090Y177596D01*
X36935Y177251D01*
X36986Y176906D01*
X37193Y176561D01*
G01X32033Y154587D02*
X28935D01*
Y155545D01*
X29090Y155852D01*
X29296Y156043D01*
X29709Y156120D01*
X30122Y156043D01*
X30380Y155813D01*
X30535Y155545D01*
Y154587D01*
G01Y155545D02*
X32033Y156120D01*
G01Y158451D02*
X28935D01*
X29554Y157991D01*
G01X32033D02*
Y158911D01*
G01X31671Y160897D02*
X31930Y161166D01*
X32033Y161472D01*
X31930Y161779D01*
X31620Y162047D01*
X31155Y162238D01*
X30690Y162315D01*
X30122D01*
X29658Y162238D01*
X29244Y162047D01*
X29038Y161817D01*
X28935Y161549D01*
X29038Y161242D01*
X29244Y161012D01*
X29554Y160859D01*
X29967Y160782D01*
X30329Y160859D01*
X30690Y161051D01*
X30897Y161281D01*
X30948Y161549D01*
X30845Y161855D01*
X30587Y162085D01*
X30122Y162315D01*
G01X28935Y164646D02*
X29038Y164340D01*
X29296Y164110D01*
X29606Y163957D01*
X30019Y163842D01*
X30484Y163804D01*
X30948Y163842D01*
X31362Y163957D01*
X31671Y164110D01*
X31930Y164340D01*
X32033Y164646D01*
X31930Y164953D01*
X31671Y165183D01*
X31362Y165336D01*
X30948Y165451D01*
X30484Y165489D01*
X30019Y165451D01*
X29606Y165336D01*
X29296Y165183D01*
X29038Y164953D01*
X28935Y164646D01*
G01X31193Y173196D02*
X31038Y172967D01*
X30935Y172698D01*
Y172392D01*
X31090Y172047D01*
X31348Y171779D01*
X31658Y171587D01*
X32174Y171434D01*
X32639Y171396D01*
X33103Y171472D01*
X33413Y171587D01*
X33723Y171817D01*
X33930Y172085D01*
X34033Y172354D01*
Y172622D01*
X33930Y172890D01*
X33775Y173120D01*
X33568Y173312D01*
G01X31451Y174723D02*
X31141Y174953D01*
X30986Y175221D01*
X30935Y175528D01*
X31038Y175911D01*
X31296Y176179D01*
X31606Y176256D01*
X31916Y176218D01*
X32174Y176064D01*
X32690Y175298D01*
X33052Y174953D01*
X33568Y174723D01*
X34033Y174647D01*
Y176256D01*
G01Y178472D02*
X33362Y178549D01*
X32794Y178664D01*
X32277Y178817D01*
X31709Y179009D01*
X30935Y179315D01*
Y177782D01*
G01X33413Y180804D02*
X33775Y181033D01*
X33981Y181340D01*
X34033Y181685D01*
X33981Y181991D01*
X33723Y182298D01*
X33413Y182489D01*
X33103Y182528D01*
X32742Y182451D01*
X32484Y182183D01*
X32380Y181915D01*
Y181570D01*
G01Y181915D02*
X32226Y182144D01*
X31967Y182336D01*
X31658Y182413D01*
X31348Y182336D01*
X31090Y182144D01*
X30935Y181800D01*
X30986Y181455D01*
X31193Y181110D01*
G01X26193Y173196D02*
X26038Y172967D01*
X25935Y172698D01*
Y172392D01*
X26090Y172047D01*
X26348Y171779D01*
X26658Y171587D01*
X27174Y171434D01*
X27639Y171396D01*
X28103Y171472D01*
X28413Y171587D01*
X28723Y171817D01*
X28930Y172085D01*
X29033Y172354D01*
Y172622D01*
X28930Y172890D01*
X28775Y173120D01*
X28568Y173312D01*
G01X26451Y174723D02*
X26141Y174953D01*
X25986Y175221D01*
X25935Y175528D01*
X26038Y175911D01*
X26296Y176179D01*
X26606Y176256D01*
X26916Y176218D01*
X27174Y176064D01*
X27690Y175298D01*
X28052Y174953D01*
X28568Y174723D01*
X29033Y174647D01*
Y176256D01*
G01X27742Y177821D02*
X27380Y178089D01*
X27174Y178319D01*
X27071Y178625D01*
X27174Y178894D01*
X27380Y179085D01*
X27690Y179238D01*
X28052Y179277D01*
X28362Y179238D01*
X28671Y179085D01*
X28930Y178855D01*
X29033Y178587D01*
X28930Y178281D01*
X28620Y178012D01*
X28155Y177859D01*
X27639Y177821D01*
X26967Y177897D01*
X26606Y178012D01*
X26244Y178204D01*
X25986Y178472D01*
X25935Y178740D01*
X26038Y179009D01*
X26296Y179200D01*
G01X28671Y180995D02*
X28930Y181263D01*
X29033Y181570D01*
X28930Y181876D01*
X28620Y182144D01*
X28155Y182336D01*
X27690Y182413D01*
X27122D01*
X26658Y182336D01*
X26244Y182144D01*
X26038Y181915D01*
X25935Y181646D01*
X26038Y181340D01*
X26244Y181110D01*
X26554Y180957D01*
X26967Y180880D01*
X27329Y180957D01*
X27690Y181148D01*
X27897Y181378D01*
X27948Y181646D01*
X27845Y181953D01*
X27587Y182183D01*
X27122Y182413D01*
G01X24033Y171587D02*
X20935D01*
Y172545D01*
X21090Y172852D01*
X21296Y173043D01*
X21709Y173120D01*
X22122Y173043D01*
X22380Y172813D01*
X22535Y172545D01*
Y171587D01*
G01Y172545D02*
X24033Y173120D01*
G01Y175451D02*
X20935D01*
X21554Y174991D01*
G01X24033D02*
Y175911D01*
G01Y178472D02*
X23362Y178549D01*
X22794Y178664D01*
X22277Y178817D01*
X21709Y179009D01*
X20935Y179315D01*
Y177782D01*
G01X24033Y181570D02*
X23362Y181646D01*
X22794Y181761D01*
X22277Y181915D01*
X21709Y182106D01*
X20935Y182413D01*
Y180880D01*
G01X-3967Y172587D02*
X-7065D01*
Y173545D01*
X-6910Y173852D01*
X-6704Y174043D01*
X-6291Y174120D01*
X-5878Y174043D01*
X-5620Y173813D01*
X-5465Y173545D01*
Y172587D01*
G01Y173545D02*
X-3967Y174120D01*
G01Y176451D02*
X-7065D01*
X-6446Y175991D01*
G01X-3967D02*
Y176911D01*
G01Y179472D02*
X-4638Y179549D01*
X-5206Y179664D01*
X-5723Y179817D01*
X-6291Y180009D01*
X-7065Y180315D01*
Y178782D01*
G01X-5258Y181918D02*
X-5620Y182187D01*
X-5826Y182416D01*
X-5929Y182723D01*
X-5826Y182991D01*
X-5620Y183183D01*
X-5310Y183336D01*
X-4948Y183374D01*
X-4638Y183336D01*
X-4329Y183183D01*
X-4070Y182953D01*
X-3967Y182685D01*
X-4070Y182378D01*
X-4380Y182110D01*
X-4845Y181957D01*
X-5361Y181918D01*
X-6033Y181995D01*
X-6394Y182110D01*
X-6756Y182302D01*
X-7014Y182570D01*
X-7065Y182838D01*
X-6962Y183106D01*
X-6704Y183298D01*
G01X-1807Y174196D02*
X-1962Y173967D01*
X-2065Y173698D01*
Y173392D01*
X-1910Y173047D01*
X-1652Y172779D01*
X-1342Y172587D01*
X-826Y172434D01*
X-361Y172396D01*
X103Y172472D01*
X413Y172587D01*
X723Y172817D01*
X930Y173085D01*
X1033Y173354D01*
Y173622D01*
X930Y173890D01*
X775Y174120D01*
X568Y174312D01*
G01X-1549Y175723D02*
X-1859Y175953D01*
X-2014Y176221D01*
X-2065Y176528D01*
X-1962Y176911D01*
X-1704Y177179D01*
X-1394Y177256D01*
X-1084Y177218D01*
X-826Y177064D01*
X-310Y176298D01*
X52Y175953D01*
X568Y175723D01*
X1033Y175647D01*
Y177256D01*
G01X-258Y178821D02*
X-620Y179089D01*
X-826Y179319D01*
X-929Y179625D01*
X-826Y179894D01*
X-620Y180085D01*
X-310Y180238D01*
X52Y180277D01*
X362Y180238D01*
X671Y180085D01*
X930Y179855D01*
X1033Y179587D01*
X930Y179281D01*
X620Y179012D01*
X155Y178859D01*
X-361Y178821D01*
X-1033Y178897D01*
X-1394Y179012D01*
X-1756Y179204D01*
X-2014Y179472D01*
X-2065Y179740D01*
X-1962Y180009D01*
X-1704Y180200D01*
G01X1033Y182646D02*
X981Y182915D01*
X826Y183221D01*
X568Y183413D01*
X207Y183489D01*
X-155Y183413D01*
X-465Y183183D01*
X-620Y182838D01*
Y182455D01*
X-723Y182225D01*
X-981Y182033D01*
X-1342Y181957D01*
X-1704Y182072D01*
X-1962Y182340D01*
X-2065Y182646D01*
X-1962Y182953D01*
X-1704Y183221D01*
X-1342Y183336D01*
X-981Y183259D01*
X-723Y183068D01*
X-620Y182838D01*
Y182455D01*
X-465Y182110D01*
X-155Y181880D01*
X207Y181804D01*
X568Y181880D01*
X826Y182072D01*
X981Y182378D01*
X1033Y182646D01*
G01X3193Y174196D02*
X3038Y173967D01*
X2935Y173698D01*
Y173392D01*
X3090Y173047D01*
X3348Y172779D01*
X3658Y172587D01*
X4174Y172434D01*
X4639Y172396D01*
X5103Y172472D01*
X5413Y172587D01*
X5723Y172817D01*
X5930Y173085D01*
X6033Y173354D01*
Y173622D01*
X5930Y173890D01*
X5775Y174120D01*
X5568Y174312D01*
G01X3451Y175723D02*
X3141Y175953D01*
X2986Y176221D01*
X2935Y176528D01*
X3038Y176911D01*
X3296Y177179D01*
X3606Y177256D01*
X3916Y177218D01*
X4174Y177064D01*
X4690Y176298D01*
X5052Y175953D01*
X5568Y175723D01*
X6033Y175647D01*
Y177256D01*
G01Y179472D02*
X5362Y179549D01*
X4794Y179664D01*
X4277Y179817D01*
X3709Y180009D01*
X2935Y180315D01*
Y178782D01*
G01X3451Y181918D02*
X3141Y182148D01*
X2986Y182416D01*
X2935Y182723D01*
X3038Y183106D01*
X3296Y183374D01*
X3606Y183451D01*
X3916Y183413D01*
X4174Y183259D01*
X4690Y182493D01*
X5052Y182148D01*
X5568Y181918D01*
X6033Y181842D01*
Y183451D01*
G01X83033Y154587D02*
X79935D01*
Y155545D01*
X80090Y155852D01*
X80296Y156043D01*
X80709Y156120D01*
X81122Y156043D01*
X81380Y155813D01*
X81535Y155545D01*
Y154587D01*
G01Y155545D02*
X83033Y156120D01*
G01Y158451D02*
X79935D01*
X80554Y157991D01*
G01X83033D02*
Y158911D01*
G01X82671Y160897D02*
X82930Y161166D01*
X83033Y161472D01*
X82930Y161779D01*
X82620Y162047D01*
X82155Y162238D01*
X81690Y162315D01*
X81122D01*
X80658Y162238D01*
X80245Y162047D01*
X80038Y161817D01*
X79935Y161549D01*
X80038Y161242D01*
X80245Y161012D01*
X80554Y160859D01*
X80967Y160782D01*
X81329Y160859D01*
X81690Y161051D01*
X81897Y161281D01*
X81948Y161549D01*
X81845Y161855D01*
X81587Y162085D01*
X81122Y162315D01*
G01X83033Y165106D02*
X79935D01*
X82155Y163688D01*
Y165604D01*
G01X42500Y201500D02*
Y204000D01*
X37500D01*
Y203000D01*
G01X48500Y201500D02*
Y204000D01*
X43500D01*
Y203000D01*
G01X49000Y318000D02*
X121000D01*
Y264000D01*
X49000D01*
Y318000D01*
G01X111000Y210500D02*
X37000D01*
Y251500D01*
X111000D01*
Y210500D01*
G01X32000Y251000D02*
X14000D01*
X12000Y249000D01*
Y201000D01*
X34000D01*
Y249000D01*
X32000Y251000D01*
G01X34000Y243000D02*
Y201000D01*
X12000D01*
Y249000D01*
X14000Y251000D01*
X32000D01*
X34000Y249000D01*
Y243000D01*
G01X9000Y251000D02*
X-9000D01*
X-11000Y249000D01*
Y201000D01*
X11000D01*
Y249000D01*
X9000Y251000D01*
G01X11000Y243000D02*
Y201000D01*
X-11000D01*
Y249000D01*
X-9000Y251000D01*
X9000D01*
X11000Y249000D01*
Y243000D01*
G01X-4000Y318500D02*
X46000D01*
Y253500D01*
X-4000D01*
Y318500D01*
G01X37300Y321615D02*
Y327255D01*
G01X33227Y324200D02*
X41374D01*
G01X-5366Y319965D02*
Y325605D01*
G01X-9440Y322550D02*
X-1293D01*
G01X56197Y207807D02*
X55967Y207962D01*
X55699Y208065D01*
X55392D01*
X55047Y207910D01*
X54779Y207652D01*
X54587Y207342D01*
X54434Y206826D01*
X54396Y206361D01*
X54472Y205897D01*
X54587Y205587D01*
X54817Y205277D01*
X55085Y205070D01*
X55354Y204967D01*
X55622D01*
X55890Y205070D01*
X56120Y205225D01*
X56312Y205432D01*
G01X57723Y207549D02*
X57953Y207859D01*
X58221Y208014D01*
X58528Y208065D01*
X58911Y207962D01*
X59179Y207704D01*
X59256Y207394D01*
X59218Y207084D01*
X59064Y206826D01*
X58298Y206310D01*
X57953Y205948D01*
X57723Y205432D01*
X57647Y204967D01*
X59256D01*
G01X60821Y206258D02*
X61089Y206620D01*
X61319Y206826D01*
X61625Y206929D01*
X61894Y206826D01*
X62085Y206620D01*
X62238Y206310D01*
X62277Y205948D01*
X62238Y205638D01*
X62085Y205329D01*
X61855Y205070D01*
X61587Y204967D01*
X61281Y205070D01*
X61012Y205380D01*
X60859Y205845D01*
X60821Y206361D01*
X60897Y207033D01*
X61012Y207394D01*
X61204Y207755D01*
X61472Y208014D01*
X61740Y208065D01*
X62009Y207962D01*
X62200Y207704D01*
G01X63804Y205587D02*
X64033Y205225D01*
X64340Y205019D01*
X64685Y204967D01*
X64991Y205019D01*
X65298Y205277D01*
X65489Y205587D01*
X65528Y205897D01*
X65451Y206258D01*
X65183Y206516D01*
X64915Y206620D01*
X64570D01*
G01X64915D02*
X65145Y206774D01*
X65336Y207033D01*
X65413Y207342D01*
X65336Y207652D01*
X65145Y207910D01*
X64800Y208065D01*
X64455Y208014D01*
X64110Y207807D01*
G01X-1517Y323265D02*
Y320167D01*
X16D01*
G01X2347D02*
Y323265D01*
X1887Y322645D01*
G01Y320167D02*
X2807D01*
G01X71000Y370000D02*
X130000D01*
X136000Y364000D01*
Y326000D01*
X130000Y320000D01*
X71000D01*
Y370000D01*
G01X70660Y348200D02*
G03I-21360J0D01*
G01X27260Y348000D02*
G03I-21360J0D01*
G01X71300Y320000D02*
Y370000D01*
X136300D01*
Y320000D01*
X71300D01*
G01X28296Y367007D02*
X28067Y367162D01*
X27799Y367265D01*
X27492D01*
X27147Y367110D01*
X26879Y366852D01*
X26687Y366542D01*
X26534Y366026D01*
X26496Y365561D01*
X26572Y365097D01*
X26687Y364787D01*
X26917Y364477D01*
X27185Y364270D01*
X27454Y364167D01*
X27722D01*
X27990Y364270D01*
X28220Y364425D01*
X28412Y364632D01*
G01X29823Y366749D02*
X30053Y367059D01*
X30321Y367214D01*
X30628Y367265D01*
X31011Y367162D01*
X31279Y366904D01*
X31356Y366594D01*
X31318Y366284D01*
X31164Y366026D01*
X30398Y365510D01*
X30053Y365148D01*
X29823Y364632D01*
X29747Y364167D01*
X31356D01*
G01X33649D02*
X33917Y364219D01*
X34224Y364374D01*
X34415Y364632D01*
X34492Y364993D01*
X34415Y365355D01*
X34185Y365665D01*
X33840Y365820D01*
X33457D01*
X33227Y365923D01*
X33036Y366181D01*
X32959Y366542D01*
X33074Y366904D01*
X33342Y367162D01*
X33649Y367265D01*
X33955Y367162D01*
X34224Y366904D01*
X34338Y366542D01*
X34262Y366181D01*
X34070Y365923D01*
X33840Y365820D01*
X33457D01*
X33112Y365665D01*
X32882Y365355D01*
X32806Y364993D01*
X32882Y364632D01*
X33074Y364374D01*
X33381Y364219D01*
X33649Y364167D01*
G01X36670D02*
X36746Y364838D01*
X36861Y365406D01*
X37015Y365923D01*
X37206Y366491D01*
X37513Y367265D01*
X35980D01*
G01X-11904Y366007D02*
X-12133Y366162D01*
X-12402Y366265D01*
X-12708D01*
X-13053Y366110D01*
X-13321Y365852D01*
X-13513Y365542D01*
X-13666Y365026D01*
X-13704Y364561D01*
X-13628Y364097D01*
X-13513Y363787D01*
X-13283Y363477D01*
X-13015Y363270D01*
X-12746Y363167D01*
X-12478D01*
X-12210Y363270D01*
X-11980Y363425D01*
X-11788Y363632D01*
G01X-10377Y365749D02*
X-10147Y366059D01*
X-9879Y366214D01*
X-9572Y366265D01*
X-9189Y366162D01*
X-8921Y365904D01*
X-8844Y365594D01*
X-8882Y365284D01*
X-9036Y365026D01*
X-9802Y364510D01*
X-10147Y364148D01*
X-10377Y363632D01*
X-10453Y363167D01*
X-8844D01*
G01X-6551D02*
X-6283Y363219D01*
X-5976Y363374D01*
X-5785Y363632D01*
X-5708Y363993D01*
X-5785Y364355D01*
X-6015Y364665D01*
X-6360Y364820D01*
X-6743D01*
X-6973Y364923D01*
X-7164Y365181D01*
X-7241Y365542D01*
X-7126Y365904D01*
X-6858Y366162D01*
X-6551Y366265D01*
X-6245Y366162D01*
X-5976Y365904D01*
X-5862Y365542D01*
X-5938Y365181D01*
X-6130Y364923D01*
X-6360Y364820D01*
X-6743D01*
X-7088Y364665D01*
X-7318Y364355D01*
X-7394Y363993D01*
X-7318Y363632D01*
X-7126Y363374D01*
X-6819Y363219D01*
X-6551Y363167D01*
G01X-4296Y363632D02*
X-4067Y363374D01*
X-3798Y363219D01*
X-3454Y363167D01*
X-3109Y363270D01*
X-2841Y363477D01*
X-2649Y363839D01*
X-2611Y364252D01*
X-2687Y364665D01*
X-2879Y364923D01*
X-3147Y365129D01*
X-3415Y365181D01*
X-3684Y365129D01*
X-4028Y364923D01*
X-3913Y366265D01*
X-2879D01*
G01X117000Y-500D02*
X110000Y-7500D01*
X124000D01*
X117000Y-500D01*
G01X158000Y-14000D02*
X128000D01*
Y6000D01*
X158000D01*
Y-14000D01*
G01X132500Y9000D02*
Y83000D01*
X173500D01*
Y9000D01*
X132500D01*
G01X123000Y56000D02*
X81000D01*
Y78000D01*
X129000D01*
X131000Y76000D01*
Y58000D01*
X129000Y56000D01*
X123000D01*
G01X131000Y58000D02*
Y76000D01*
X129000Y78000D01*
X81000D01*
Y56000D01*
X129000D01*
X131000Y58000D01*
G01X134000Y-14000D02*
Y-10000D01*
X151000D01*
Y-14000D01*
G01X160136Y-12413D02*
X160328Y-12723D01*
X160558Y-12930D01*
X160826Y-13033D01*
X161132Y-12930D01*
X161362Y-12723D01*
X161592Y-12413D01*
X161669Y-12000D01*
Y-9935D01*
G01X164460Y-13033D02*
Y-9935D01*
X163042Y-12155D01*
X164958D01*
G01X167021Y-13033D02*
X167098Y-12362D01*
X167213Y-11794D01*
X167366Y-11277D01*
X167557Y-10709D01*
X167864Y-9935D01*
X166331D01*
G01X82196Y53807D02*
X81967Y53962D01*
X81698Y54065D01*
X81392D01*
X81047Y53910D01*
X80779Y53652D01*
X80587Y53342D01*
X80434Y52826D01*
X80396Y52361D01*
X80472Y51897D01*
X80587Y51587D01*
X80817Y51277D01*
X81085Y51070D01*
X81354Y50967D01*
X81622D01*
X81890Y51070D01*
X82120Y51225D01*
X82312Y51432D01*
G01X83723Y53549D02*
X83953Y53859D01*
X84221Y54014D01*
X84528Y54065D01*
X84911Y53962D01*
X85179Y53704D01*
X85256Y53394D01*
X85218Y53084D01*
X85064Y52826D01*
X84298Y52310D01*
X83953Y51948D01*
X83723Y51432D01*
X83647Y50967D01*
X85256D01*
G01X86821Y52258D02*
X87089Y52620D01*
X87319Y52826D01*
X87625Y52929D01*
X87894Y52826D01*
X88085Y52620D01*
X88238Y52310D01*
X88277Y51948D01*
X88238Y51638D01*
X88085Y51329D01*
X87855Y51070D01*
X87587Y50967D01*
X87281Y51070D01*
X87012Y51380D01*
X86859Y51845D01*
X86821Y52361D01*
X86897Y53033D01*
X87012Y53394D01*
X87204Y53756D01*
X87472Y54014D01*
X87740Y54065D01*
X88009Y53962D01*
X88200Y53704D01*
G01X89918Y52258D02*
X90187Y52620D01*
X90416Y52826D01*
X90723Y52929D01*
X90991Y52826D01*
X91183Y52620D01*
X91336Y52310D01*
X91374Y51948D01*
X91336Y51638D01*
X91183Y51329D01*
X90953Y51070D01*
X90685Y50967D01*
X90378Y51070D01*
X90110Y51380D01*
X89957Y51845D01*
X89918Y52361D01*
X89995Y53033D01*
X90110Y53394D01*
X90302Y53756D01*
X90570Y54014D01*
X90838Y54065D01*
X91106Y53962D01*
X91298Y53704D01*
G01X160136Y-12413D02*
X160328Y-12723D01*
X160558Y-12930D01*
X160826Y-13033D01*
X161132Y-12930D01*
X161362Y-12723D01*
X161592Y-12413D01*
X161669Y-12000D01*
Y-9935D01*
G01X164460Y-13033D02*
Y-9935D01*
X163042Y-12155D01*
X164958D01*
G01X167021Y-13033D02*
X167098Y-12362D01*
X167213Y-11794D01*
X167366Y-11277D01*
X167557Y-10709D01*
X167864Y-9935D01*
X166331D01*
G01X94500Y192000D02*
Y191000D01*
X99500D01*
Y193500D01*
G01X94200Y203200D02*
X99800D01*
Y190800D01*
X94200D01*
Y203200D01*
G01X94000Y188000D02*
Y186000D01*
G01X100400Y189000D02*
Y199000D01*
X125600D01*
Y189000D01*
X100400D01*
G01X102800Y199200D02*
Y204800D01*
X115200D01*
Y199200D01*
X102800D01*
G01X105500Y204500D02*
X103000D01*
Y199500D01*
X104000D01*
G01X114000D02*
X115000D01*
Y204500D01*
X112500D01*
G01X100400Y189000D02*
Y199000D01*
X102000D01*
Y189000D01*
X100400D01*
G01X118500D02*
X125500D01*
Y199000D01*
X123500D01*
X118500D01*
G01X88200Y203200D02*
X93800D01*
Y190800D01*
X88200D01*
Y203200D01*
G01X88500Y192000D02*
Y191000D01*
X93500D01*
Y193500D01*
G01X83200Y190200D02*
X88800D01*
Y177800D01*
X83200D01*
Y190200D01*
G01X88500Y187500D02*
Y190000D01*
X83500D01*
Y189000D01*
G01Y179000D02*
Y178000D01*
X88500D01*
Y180500D01*
G01X97000Y126000D02*
X99000Y124000D01*
G01X148000Y105000D02*
X105000D01*
X97000Y113000D01*
Y126000D01*
X95000Y124000D01*
G01X148000Y133000D02*
Y105000D01*
X165000D01*
Y133000D01*
X148000D01*
G01X118385Y163171D02*
Y180493D01*
X92795D01*
Y163171D01*
X118385D01*
G01X156500Y149000D02*
X146500Y159000D01*
Y239000D01*
X156500Y249000D01*
G01X176500Y149000D02*
X146500D01*
Y249000D01*
X176500D01*
Y149000D01*
G01X181500Y154000D02*
X176500D01*
Y159000D01*
X181500D01*
Y154000D01*
G01Y174000D02*
X176500D01*
Y179000D01*
X181500D01*
Y174000D01*
G01Y194000D02*
X176500D01*
Y199000D01*
X181500D01*
Y194000D01*
G01X102500Y138000D02*
Y139000D01*
X97500D01*
Y136500D01*
G01Y129500D02*
Y127000D01*
X102500D01*
Y128000D01*
G01X102800Y126800D02*
X97200D01*
Y139200D01*
X102800D01*
Y126800D01*
G01X96500Y138000D02*
Y139000D01*
X91500D01*
Y136500D01*
G01Y129500D02*
Y127000D01*
X96500D01*
Y128000D01*
G01X96800Y126800D02*
X91200D01*
Y139200D01*
X96800D01*
Y126800D01*
G01X102800Y139800D02*
X97200D01*
Y152200D01*
X102800D01*
Y139800D01*
G01X97500Y142500D02*
Y140000D01*
X102500D01*
Y141000D01*
G01Y151000D02*
Y152000D01*
X97500D01*
Y149500D01*
G01X90500Y165000D02*
Y166000D01*
X85500D01*
Y163500D01*
G01Y156500D02*
Y154000D01*
X90500D01*
Y155000D01*
G01X90800Y153800D02*
X85200D01*
Y166200D01*
X90800D01*
Y153800D01*
G01X96500Y151000D02*
Y152000D01*
X91500D01*
Y149500D01*
G01Y142500D02*
Y140000D01*
X96500D01*
Y141000D01*
G01X96800Y139800D02*
X91200D01*
Y152200D01*
X96800D01*
Y139800D01*
G01X131000Y192600D02*
X141000D01*
Y191000D01*
X131000D01*
Y192600D01*
G01D02*
X141000D01*
Y167400D01*
X131000D01*
Y192600D01*
G01Y174500D02*
Y167500D01*
X141000D01*
Y169500D01*
Y174500D01*
G01X123000Y81000D02*
X81000D01*
Y103000D01*
X129000D01*
X131000Y101000D01*
Y83000D01*
X129000Y81000D01*
X123000D01*
G01X131000Y83000D02*
Y101000D01*
X129000Y103000D01*
X81000D01*
Y81000D01*
X129000D01*
X131000Y83000D01*
G01X134000Y107500D02*
X104000D01*
Y152500D01*
X134000D01*
Y107500D01*
G01X150000Y106000D02*
X180000D01*
Y86000D01*
X150000D01*
Y106000D01*
G01X169136Y110587D02*
X169328Y110277D01*
X169558Y110070D01*
X169826Y109967D01*
X170132Y110070D01*
X170362Y110277D01*
X170592Y110587D01*
X170669Y111000D01*
Y113065D01*
G01X172157Y110432D02*
X172387Y110174D01*
X172655Y110019D01*
X173000Y109967D01*
X173345Y110070D01*
X173613Y110277D01*
X173805Y110638D01*
X173843Y111052D01*
X173766Y111465D01*
X173575Y111723D01*
X173306Y111929D01*
X173038Y111981D01*
X172770Y111929D01*
X172425Y111723D01*
X172540Y113065D01*
X173575D01*
G01X176098D02*
X175791Y112962D01*
X175561Y112704D01*
X175408Y112394D01*
X175293Y111981D01*
X175255Y111516D01*
X175293Y111052D01*
X175408Y110638D01*
X175561Y110329D01*
X175791Y110070D01*
X176098Y109967D01*
X176404Y110070D01*
X176634Y110329D01*
X176787Y110638D01*
X176902Y111052D01*
X176940Y111516D01*
X176902Y111981D01*
X176787Y112394D01*
X176634Y112704D01*
X176404Y112962D01*
X176098Y113065D01*
G01X161033Y123587D02*
X157935D01*
Y124545D01*
X158090Y124852D01*
X158296Y125043D01*
X158709Y125120D01*
X159122Y125043D01*
X159380Y124813D01*
X159535Y124545D01*
Y123587D01*
G01Y124545D02*
X161033Y125120D01*
G01Y127451D02*
X157935D01*
X158554Y126991D01*
G01X161033D02*
Y127911D01*
G01X160671Y129897D02*
X160930Y130166D01*
X161033Y130472D01*
X160930Y130779D01*
X160620Y131047D01*
X160155Y131238D01*
X159690Y131315D01*
X159122D01*
X158658Y131238D01*
X158244Y131047D01*
X158038Y130817D01*
X157935Y130549D01*
X158038Y130242D01*
X158244Y130012D01*
X158554Y129859D01*
X158967Y129782D01*
X159329Y129859D01*
X159690Y130051D01*
X159897Y130281D01*
X159948Y130549D01*
X159845Y130855D01*
X159587Y131085D01*
X159122Y131315D01*
G01X160413Y132804D02*
X160775Y133033D01*
X160981Y133340D01*
X161033Y133685D01*
X160981Y133991D01*
X160723Y134298D01*
X160413Y134489D01*
X160103Y134528D01*
X159742Y134451D01*
X159484Y134183D01*
X159380Y133915D01*
Y133570D01*
G01Y133915D02*
X159226Y134144D01*
X158967Y134336D01*
X158658Y134413D01*
X158348Y134336D01*
X158090Y134144D01*
X157935Y133800D01*
X157986Y133455D01*
X158193Y133110D01*
G01X151193Y125196D02*
X151038Y124967D01*
X150935Y124698D01*
Y124392D01*
X151090Y124047D01*
X151348Y123779D01*
X151658Y123587D01*
X152174Y123434D01*
X152639Y123396D01*
X153103Y123472D01*
X153413Y123587D01*
X153723Y123817D01*
X153930Y124085D01*
X154033Y124354D01*
Y124622D01*
X153930Y124890D01*
X153775Y125120D01*
X153568Y125312D01*
G01X151451Y126723D02*
X151141Y126953D01*
X150986Y127221D01*
X150935Y127528D01*
X151038Y127911D01*
X151296Y128179D01*
X151606Y128256D01*
X151916Y128218D01*
X152174Y128064D01*
X152690Y127298D01*
X153052Y126953D01*
X153568Y126723D01*
X154033Y126647D01*
Y128256D01*
G01Y130549D02*
X153981Y130817D01*
X153826Y131124D01*
X153568Y131315D01*
X153207Y131392D01*
X152845Y131315D01*
X152535Y131085D01*
X152380Y130740D01*
Y130357D01*
X152277Y130127D01*
X152019Y129936D01*
X151658Y129859D01*
X151296Y129974D01*
X151038Y130242D01*
X150935Y130549D01*
X151038Y130855D01*
X151296Y131124D01*
X151658Y131238D01*
X152019Y131162D01*
X152277Y130970D01*
X152380Y130740D01*
Y130357D01*
X152535Y130012D01*
X152845Y129782D01*
X153207Y129706D01*
X153568Y129782D01*
X153826Y129974D01*
X153981Y130281D01*
X154033Y130549D01*
G01X151451Y132918D02*
X151141Y133148D01*
X150986Y133416D01*
X150935Y133723D01*
X151038Y134106D01*
X151296Y134374D01*
X151606Y134451D01*
X151916Y134413D01*
X152174Y134259D01*
X152690Y133493D01*
X153052Y133148D01*
X153568Y132918D01*
X154033Y132842D01*
Y134451D01*
G01X158193Y110196D02*
X158038Y109967D01*
X157935Y109698D01*
Y109392D01*
X158090Y109047D01*
X158348Y108779D01*
X158658Y108587D01*
X159174Y108434D01*
X159639Y108396D01*
X160103Y108472D01*
X160413Y108587D01*
X160723Y108817D01*
X160930Y109085D01*
X161033Y109354D01*
Y109622D01*
X160930Y109890D01*
X160775Y110120D01*
X160568Y110312D01*
G01X158451Y111723D02*
X158141Y111953D01*
X157986Y112221D01*
X157935Y112528D01*
X158038Y112911D01*
X158296Y113179D01*
X158606Y113256D01*
X158916Y113218D01*
X159174Y113064D01*
X159690Y112298D01*
X160052Y111953D01*
X160568Y111723D01*
X161033Y111647D01*
Y113256D01*
G01Y115549D02*
X160981Y115817D01*
X160826Y116124D01*
X160568Y116315D01*
X160207Y116392D01*
X159845Y116315D01*
X159535Y116085D01*
X159380Y115740D01*
Y115357D01*
X159277Y115127D01*
X159019Y114936D01*
X158658Y114859D01*
X158296Y114974D01*
X158038Y115242D01*
X157935Y115549D01*
X158038Y115855D01*
X158296Y116124D01*
X158658Y116238D01*
X159019Y116162D01*
X159277Y115970D01*
X159380Y115740D01*
Y115357D01*
X159535Y115012D01*
X159845Y114783D01*
X160207Y114706D01*
X160568Y114783D01*
X160826Y114974D01*
X160981Y115281D01*
X161033Y115549D01*
G01X160413Y117804D02*
X160775Y118033D01*
X160981Y118340D01*
X161033Y118685D01*
X160981Y118991D01*
X160723Y119298D01*
X160413Y119489D01*
X160103Y119528D01*
X159742Y119451D01*
X159484Y119183D01*
X159380Y118915D01*
Y118570D01*
G01Y118915D02*
X159226Y119144D01*
X158967Y119336D01*
X158658Y119413D01*
X158348Y119336D01*
X158090Y119144D01*
X157935Y118800D01*
X157986Y118455D01*
X158193Y118110D01*
G01X154033Y109587D02*
X150935D01*
Y110545D01*
X151090Y110852D01*
X151296Y111043D01*
X151709Y111120D01*
X152122Y111043D01*
X152380Y110813D01*
X152535Y110545D01*
Y109587D01*
G01Y110545D02*
X154033Y111120D01*
G01Y113451D02*
X150935D01*
X151554Y112991D01*
G01X154033D02*
Y113911D01*
G01X153671Y115897D02*
X153930Y116166D01*
X154033Y116472D01*
X153930Y116779D01*
X153620Y117047D01*
X153155Y117238D01*
X152690Y117315D01*
X152122D01*
X151658Y117238D01*
X151244Y117047D01*
X151038Y116817D01*
X150935Y116549D01*
X151038Y116242D01*
X151244Y116012D01*
X151554Y115859D01*
X151967Y115783D01*
X152329Y115859D01*
X152690Y116051D01*
X152897Y116281D01*
X152948Y116549D01*
X152845Y116855D01*
X152587Y117085D01*
X152122Y117315D01*
G01X154033Y119646D02*
X150935D01*
X151554Y119187D01*
G01X154033D02*
Y120106D01*
G01X136060Y90065D02*
Y87845D01*
X136213Y87380D01*
X136519Y87070D01*
X136902Y86967D01*
X137286Y87070D01*
X137592Y87380D01*
X137745Y87845D01*
Y90065D01*
G01X140460Y86967D02*
Y90065D01*
X139042Y87845D01*
X140958D01*
G01X143021Y86967D02*
X143098Y87638D01*
X143213Y88206D01*
X143366Y88723D01*
X143557Y89291D01*
X143864Y90065D01*
X142331D01*
G01X118196Y201807D02*
X117967Y201962D01*
X117698Y202065D01*
X117392D01*
X117047Y201910D01*
X116779Y201652D01*
X116587Y201342D01*
X116434Y200826D01*
X116396Y200361D01*
X116472Y199897D01*
X116587Y199587D01*
X116817Y199277D01*
X117085Y199070D01*
X117354Y198967D01*
X117622D01*
X117890Y199070D01*
X118120Y199225D01*
X118312Y199432D01*
G01X119723Y201549D02*
X119953Y201859D01*
X120221Y202014D01*
X120528Y202065D01*
X120911Y201962D01*
X121179Y201704D01*
X121256Y201394D01*
X121218Y201084D01*
X121064Y200826D01*
X120298Y200310D01*
X119953Y199948D01*
X119723Y199432D01*
X119647Y198967D01*
X121256D01*
G01X123472D02*
X123549Y199638D01*
X123664Y200206D01*
X123817Y200723D01*
X124009Y201291D01*
X124315Y202065D01*
X122783D01*
G01X125804Y199432D02*
X126033Y199174D01*
X126302Y199019D01*
X126646Y198967D01*
X126991Y199070D01*
X127259Y199277D01*
X127451Y199638D01*
X127489Y200052D01*
X127413Y200465D01*
X127221Y200723D01*
X126953Y200929D01*
X126685Y200981D01*
X126416Y200929D01*
X126072Y200723D01*
X126187Y202065D01*
X127221D01*
G01X118196Y201807D02*
X117967Y201962D01*
X117698Y202065D01*
X117392D01*
X117047Y201910D01*
X116779Y201652D01*
X116587Y201342D01*
X116434Y200826D01*
X116396Y200361D01*
X116472Y199897D01*
X116587Y199587D01*
X116817Y199277D01*
X117085Y199070D01*
X117354Y198967D01*
X117622D01*
X117890Y199070D01*
X118120Y199225D01*
X118312Y199432D01*
G01X119723Y201549D02*
X119953Y201859D01*
X120221Y202014D01*
X120528Y202065D01*
X120911Y201962D01*
X121179Y201704D01*
X121256Y201394D01*
X121218Y201084D01*
X121064Y200826D01*
X120298Y200310D01*
X119953Y199948D01*
X119723Y199432D01*
X119647Y198967D01*
X121256D01*
G01X123472D02*
X123549Y199638D01*
X123664Y200206D01*
X123817Y200723D01*
X124009Y201291D01*
X124315Y202065D01*
X122783D01*
G01X125804Y199432D02*
X126033Y199174D01*
X126302Y199019D01*
X126646Y198967D01*
X126991Y199070D01*
X127259Y199277D01*
X127451Y199638D01*
X127489Y200052D01*
X127413Y200465D01*
X127221Y200723D01*
X126953Y200929D01*
X126685Y200981D01*
X126416Y200929D01*
X126072Y200723D01*
X126187Y202065D01*
X127221D01*
G01X98935Y110136D02*
X102033D01*
Y111669D01*
G01X99451Y113272D02*
X99141Y113502D01*
X98986Y113770D01*
X98935Y114077D01*
X99038Y114460D01*
X99296Y114728D01*
X99606Y114805D01*
X99916Y114766D01*
X100174Y114613D01*
X100690Y113847D01*
X101052Y113502D01*
X101568Y113272D01*
X102033Y113195D01*
Y114805D01*
G01X100742Y116370D02*
X100380Y116638D01*
X100174Y116868D01*
X100071Y117174D01*
X100174Y117442D01*
X100380Y117634D01*
X100690Y117787D01*
X101052Y117826D01*
X101362Y117787D01*
X101671Y117634D01*
X101930Y117404D01*
X102033Y117136D01*
X101930Y116829D01*
X101620Y116561D01*
X101155Y116408D01*
X100639Y116370D01*
X99967Y116446D01*
X99606Y116561D01*
X99244Y116753D01*
X98986Y117021D01*
X98935Y117289D01*
X99038Y117557D01*
X99296Y117749D01*
G01X134193Y157196D02*
X134038Y156967D01*
X133935Y156698D01*
Y156392D01*
X134090Y156047D01*
X134348Y155779D01*
X134658Y155587D01*
X135174Y155434D01*
X135639Y155396D01*
X136103Y155472D01*
X136413Y155587D01*
X136723Y155817D01*
X136930Y156085D01*
X137033Y156354D01*
Y156622D01*
X136930Y156890D01*
X136775Y157120D01*
X136568Y157312D01*
G01X134451Y158723D02*
X134141Y158953D01*
X133986Y159221D01*
X133935Y159528D01*
X134038Y159911D01*
X134296Y160179D01*
X134606Y160256D01*
X134916Y160218D01*
X135174Y160064D01*
X135690Y159298D01*
X136052Y158953D01*
X136568Y158723D01*
X137033Y158647D01*
Y160256D01*
G01X136671Y161897D02*
X136930Y162166D01*
X137033Y162472D01*
X136930Y162779D01*
X136620Y163047D01*
X136155Y163238D01*
X135690Y163315D01*
X135122D01*
X134658Y163238D01*
X134244Y163047D01*
X134038Y162817D01*
X133935Y162549D01*
X134038Y162242D01*
X134244Y162012D01*
X134554Y161859D01*
X134967Y161782D01*
X135329Y161859D01*
X135690Y162051D01*
X135897Y162281D01*
X135948Y162549D01*
X135845Y162855D01*
X135587Y163085D01*
X135122Y163315D01*
G01X137033Y165646D02*
X133935D01*
X134554Y165187D01*
G01X137033D02*
Y166106D01*
G01X134193Y157196D02*
X134038Y156967D01*
X133935Y156698D01*
Y156392D01*
X134090Y156047D01*
X134348Y155779D01*
X134658Y155587D01*
X135174Y155434D01*
X135639Y155396D01*
X136103Y155472D01*
X136413Y155587D01*
X136723Y155817D01*
X136930Y156085D01*
X137033Y156354D01*
Y156622D01*
X136930Y156890D01*
X136775Y157120D01*
X136568Y157312D01*
G01X134451Y158723D02*
X134141Y158953D01*
X133986Y159221D01*
X133935Y159528D01*
X134038Y159911D01*
X134296Y160179D01*
X134606Y160256D01*
X134916Y160218D01*
X135174Y160064D01*
X135690Y159298D01*
X136052Y158953D01*
X136568Y158723D01*
X137033Y158647D01*
Y160256D01*
G01X136671Y161897D02*
X136930Y162166D01*
X137033Y162472D01*
X136930Y162779D01*
X136620Y163047D01*
X136155Y163238D01*
X135690Y163315D01*
X135122D01*
X134658Y163238D01*
X134244Y163047D01*
X134038Y162817D01*
X133935Y162549D01*
X134038Y162242D01*
X134244Y162012D01*
X134554Y161859D01*
X134967Y161782D01*
X135329Y161859D01*
X135690Y162051D01*
X135897Y162281D01*
X135948Y162549D01*
X135845Y162855D01*
X135587Y163085D01*
X135122Y163315D01*
G01X137033Y165646D02*
X133935D01*
X134554Y165187D01*
G01X137033D02*
Y166106D01*
G01X159716Y142357D02*
X159908Y142047D01*
X160138Y141840D01*
X160406Y141737D01*
X160712Y141840D01*
X160942Y142047D01*
X161172Y142357D01*
X161249Y142770D01*
Y144835D01*
G01X164040Y141737D02*
Y144835D01*
X162622Y142615D01*
X164538D01*
G01X165950Y144319D02*
X166180Y144629D01*
X166448Y144784D01*
X166754Y144835D01*
X167137Y144732D01*
X167406Y144474D01*
X167482Y144164D01*
X167444Y143854D01*
X167291Y143596D01*
X166524Y143080D01*
X166180Y142718D01*
X165950Y142202D01*
X165873Y141737D01*
X167482D01*
G01X83196Y106807D02*
X82967Y106962D01*
X82699Y107065D01*
X82392D01*
X82047Y106910D01*
X81779Y106652D01*
X81587Y106342D01*
X81434Y105826D01*
X81396Y105361D01*
X81472Y104897D01*
X81587Y104587D01*
X81817Y104277D01*
X82085Y104070D01*
X82354Y103967D01*
X82622D01*
X82890Y104070D01*
X83120Y104225D01*
X83312Y104432D01*
G01X84723Y106549D02*
X84953Y106859D01*
X85221Y107014D01*
X85528Y107065D01*
X85911Y106962D01*
X86179Y106704D01*
X86256Y106394D01*
X86218Y106084D01*
X86064Y105826D01*
X85298Y105310D01*
X84953Y104948D01*
X84723Y104432D01*
X84647Y103967D01*
X86256D01*
G01X87821Y105258D02*
X88089Y105620D01*
X88319Y105826D01*
X88625Y105929D01*
X88894Y105826D01*
X89085Y105620D01*
X89238Y105310D01*
X89277Y104948D01*
X89238Y104639D01*
X89085Y104329D01*
X88855Y104070D01*
X88587Y103967D01*
X88281Y104070D01*
X88012Y104380D01*
X87859Y104845D01*
X87821Y105361D01*
X87897Y106033D01*
X88012Y106394D01*
X88204Y106756D01*
X88472Y107014D01*
X88740Y107065D01*
X89009Y106962D01*
X89200Y106704D01*
G01X91570Y103967D02*
X91646Y104639D01*
X91761Y105206D01*
X91915Y105723D01*
X92106Y106291D01*
X92413Y107065D01*
X90880D01*
G01X86935Y168060D02*
X89155D01*
X89620Y168213D01*
X89930Y168519D01*
X90033Y168902D01*
X89930Y169286D01*
X89620Y169592D01*
X89155Y169745D01*
X86935D01*
G01X90033Y172460D02*
X86935D01*
X89155Y171042D01*
Y172958D01*
G01X90033Y175557D02*
X86935D01*
X89155Y174140D01*
Y176056D01*
G01X138000Y299500D02*
X131000Y292500D01*
X145000D01*
X138000Y299500D01*
G01X139000Y275500D02*
X132000Y268500D01*
X146000D01*
X139000Y275500D01*
G01X99500Y200500D02*
Y203000D01*
X94500D01*
Y202000D01*
G01X93500Y200500D02*
Y203000D01*
X88500D01*
Y202000D01*
G01X181500Y214000D02*
X176500D01*
Y219000D01*
X181500D01*
Y214000D01*
G01Y234000D02*
X176500D01*
Y239000D01*
X181500D01*
Y234000D01*
G01X177000Y280000D02*
X147000D01*
Y300000D01*
X177000D01*
Y280000D01*
G01X136136Y288587D02*
X136328Y288277D01*
X136558Y288070D01*
X136826Y287967D01*
X137132Y288070D01*
X137362Y288277D01*
X137592Y288587D01*
X137669Y289000D01*
Y291065D01*
G01X140460Y287967D02*
Y291065D01*
X139042Y288845D01*
X140958D01*
G01X142255Y288432D02*
X142484Y288174D01*
X142753Y288019D01*
X143098Y287967D01*
X143442Y288070D01*
X143711Y288277D01*
X143902Y288638D01*
X143940Y289052D01*
X143864Y289465D01*
X143672Y289723D01*
X143404Y289929D01*
X143136Y289981D01*
X142868Y289929D01*
X142523Y289723D01*
X142638Y291065D01*
X143672D01*
G01X133000Y330500D02*
X138000D01*
Y315500D01*
X133000D01*
Y330500D01*
G01X138000Y340500D02*
X178000D01*
Y305500D01*
X138000D01*
Y340500D01*
G01X168132Y252516D02*
X168899D01*
Y251587D01*
X168669Y251277D01*
X168401Y251071D01*
X168017Y250967D01*
X167634Y251071D01*
X167366Y251277D01*
X167136Y251587D01*
X166983Y251948D01*
X166906Y252361D01*
Y252723D01*
X166983Y253033D01*
X167136Y253394D01*
X167366Y253704D01*
X167596Y253910D01*
X167902Y254065D01*
X168171D01*
X168477Y253962D01*
X168707Y253755D01*
G01X170119Y250967D02*
Y254065D01*
X171881Y250967D01*
Y254065D01*
G01X173255Y250967D02*
Y254065D01*
X174021D01*
X174328Y253910D01*
X174557Y253704D01*
X174749Y253394D01*
X174902Y253033D01*
X174940Y252516D01*
X174902Y252000D01*
X174749Y251638D01*
X174557Y251329D01*
X174328Y251122D01*
X174021Y250967D01*
X173255D01*
G01X154608Y251432D02*
X154838Y251174D01*
X155106Y251019D01*
X155451Y250967D01*
X155796Y251071D01*
X156064Y251277D01*
X156256Y251638D01*
X156294Y252052D01*
X156218Y252465D01*
X156026Y252723D01*
X155758Y252929D01*
X155490Y252981D01*
X155221Y252929D01*
X154877Y252723D01*
X154991Y254065D01*
X156026D01*
G01X157591D02*
X158549Y250967D01*
X159507Y254065D01*
G01X168132Y302516D02*
X168899D01*
Y301587D01*
X168669Y301277D01*
X168401Y301070D01*
X168017Y300967D01*
X167634Y301070D01*
X167366Y301277D01*
X167136Y301587D01*
X166983Y301948D01*
X166906Y302361D01*
Y302723D01*
X166983Y303033D01*
X167136Y303394D01*
X167366Y303704D01*
X167596Y303910D01*
X167902Y304065D01*
X168171D01*
X168477Y303962D01*
X168707Y303756D01*
G01X170119Y300967D02*
Y304065D01*
X171881Y300967D01*
Y304065D01*
G01X173255Y300967D02*
Y304065D01*
X174021D01*
X174328Y303910D01*
X174557Y303704D01*
X174749Y303394D01*
X174902Y303033D01*
X174940Y302516D01*
X174902Y302000D01*
X174749Y301638D01*
X174557Y301329D01*
X174328Y301122D01*
X174021Y300967D01*
X173255D01*
G01X151902D02*
Y304065D01*
X151443Y303446D01*
G01Y300967D02*
X152362D01*
G01X154272Y303549D02*
X154502Y303859D01*
X154770Y304014D01*
X155077Y304065D01*
X155460Y303962D01*
X155728Y303704D01*
X155805Y303394D01*
X155766Y303084D01*
X155613Y302826D01*
X154847Y302310D01*
X154502Y301948D01*
X154272Y301432D01*
X154195Y300967D01*
X155805D01*
G01X157140Y304065D02*
X158098Y300967D01*
X159056Y304065D01*
G01X143000Y245000D02*
Y203000D01*
X121000D01*
Y251000D01*
X123000Y253000D01*
X141000D01*
X143000Y251000D01*
Y245000D01*
G01X141000Y253000D02*
X123000D01*
X121000Y251000D01*
Y203000D01*
X143000D01*
Y251000D01*
X141000Y253000D01*
G01X113500Y214000D02*
Y213000D01*
X118500D01*
Y215500D01*
G01Y222500D02*
Y225000D01*
X113500D01*
Y224000D01*
G01X113200Y225200D02*
X118800D01*
Y212800D01*
X113200D01*
Y225200D01*
G01X136136Y263587D02*
X136328Y263277D01*
X136558Y263070D01*
X136826Y262967D01*
X137132Y263070D01*
X137362Y263277D01*
X137592Y263587D01*
X137669Y264000D01*
Y266065D01*
G01X140460Y262967D02*
Y266065D01*
X139042Y263845D01*
X140958D01*
G01X142370Y264258D02*
X142638Y264620D01*
X142868Y264826D01*
X143174Y264929D01*
X143442Y264826D01*
X143634Y264620D01*
X143787Y264310D01*
X143826Y263948D01*
X143787Y263638D01*
X143634Y263329D01*
X143404Y263070D01*
X143136Y262967D01*
X142829Y263070D01*
X142561Y263380D01*
X142408Y263845D01*
X142370Y264361D01*
X142446Y265033D01*
X142561Y265394D01*
X142753Y265756D01*
X143021Y266014D01*
X143289Y266065D01*
X143557Y265962D01*
X143749Y265704D01*
G01X177000Y255000D02*
X147000D01*
Y275000D01*
X177000D01*
Y255000D01*
G01X154000Y280000D02*
Y285000D01*
X170000D01*
Y280000D01*
G01X154000Y255000D02*
Y260000D01*
X170000D01*
Y255000D01*
G01X114193Y230196D02*
X114038Y229967D01*
X113935Y229699D01*
Y229392D01*
X114090Y229047D01*
X114348Y228779D01*
X114658Y228587D01*
X115174Y228434D01*
X115639Y228396D01*
X116103Y228472D01*
X116413Y228587D01*
X116723Y228817D01*
X116930Y229085D01*
X117033Y229354D01*
Y229622D01*
X116930Y229890D01*
X116775Y230120D01*
X116568Y230312D01*
G01X114451Y231723D02*
X114141Y231953D01*
X113986Y232221D01*
X113935Y232528D01*
X114038Y232911D01*
X114296Y233179D01*
X114606Y233256D01*
X114916Y233218D01*
X115174Y233064D01*
X115690Y232298D01*
X116052Y231953D01*
X116568Y231723D01*
X117033Y231647D01*
Y233256D01*
G01X116671Y234897D02*
X116930Y235166D01*
X117033Y235472D01*
X116930Y235779D01*
X116620Y236047D01*
X116155Y236239D01*
X115690Y236315D01*
X115122D01*
X114658Y236239D01*
X114244Y236047D01*
X114038Y235817D01*
X113935Y235549D01*
X114038Y235242D01*
X114244Y235012D01*
X114554Y234859D01*
X114967Y234782D01*
X115329Y234859D01*
X115690Y235051D01*
X115897Y235281D01*
X115948Y235549D01*
X115845Y235855D01*
X115587Y236085D01*
X115122Y236315D01*
G01X116413Y237804D02*
X116775Y238033D01*
X116981Y238340D01*
X117033Y238685D01*
X116981Y238991D01*
X116723Y239298D01*
X116413Y239489D01*
X116103Y239528D01*
X115742Y239451D01*
X115484Y239183D01*
X115380Y238915D01*
Y238570D01*
G01Y238915D02*
X115226Y239144D01*
X114967Y239336D01*
X114658Y239413D01*
X114348Y239336D01*
X114090Y239144D01*
X113935Y238800D01*
X113986Y238455D01*
X114193Y238110D01*
G01X112935Y243059D02*
X115155D01*
X115620Y243213D01*
X115930Y243519D01*
X116033Y243902D01*
X115930Y244286D01*
X115620Y244592D01*
X115155Y244745D01*
X112935D01*
G01X116033Y247460D02*
X112935D01*
X115155Y246042D01*
Y247958D01*
G01X114742Y249370D02*
X114380Y249638D01*
X114174Y249868D01*
X114071Y250174D01*
X114174Y250443D01*
X114380Y250634D01*
X114690Y250787D01*
X115052Y250826D01*
X115362Y250787D01*
X115671Y250634D01*
X115930Y250404D01*
X116033Y250136D01*
X115930Y249829D01*
X115620Y249561D01*
X115155Y249408D01*
X114639Y249370D01*
X113967Y249446D01*
X113606Y249561D01*
X113244Y249753D01*
X112986Y250021D01*
X112935Y250289D01*
X113038Y250557D01*
X113296Y250749D01*
G01X116735Y258410D02*
X118956D01*
X119420Y258563D01*
X119730Y258869D01*
X119833Y259252D01*
X119730Y259636D01*
X119420Y259942D01*
X118956Y260095D01*
X116735D01*
G01X117252Y261622D02*
X116942Y261852D01*
X116787Y262120D01*
X116735Y262427D01*
X116838Y262810D01*
X117097Y263078D01*
X117407Y263155D01*
X117716Y263116D01*
X117974Y262963D01*
X118491Y262197D01*
X118852Y261852D01*
X119369Y261622D01*
X119833Y261545D01*
Y263155D01*
G01X104196Y208807D02*
X103967Y208962D01*
X103698Y209065D01*
X103392D01*
X103047Y208910D01*
X102779Y208652D01*
X102587Y208342D01*
X102434Y207826D01*
X102396Y207361D01*
X102472Y206897D01*
X102587Y206587D01*
X102817Y206277D01*
X103085Y206070D01*
X103354Y205967D01*
X103622D01*
X103890Y206070D01*
X104120Y206225D01*
X104312Y206432D01*
G01X105723Y208549D02*
X105953Y208859D01*
X106221Y209014D01*
X106528Y209065D01*
X106911Y208962D01*
X107179Y208704D01*
X107256Y208394D01*
X107217Y208084D01*
X107064Y207826D01*
X106298Y207310D01*
X105953Y206948D01*
X105723Y206432D01*
X105647Y205967D01*
X107256D01*
G01X108821Y207258D02*
X109089Y207620D01*
X109319Y207826D01*
X109625Y207929D01*
X109894Y207826D01*
X110085Y207620D01*
X110238Y207310D01*
X110277Y206948D01*
X110238Y206639D01*
X110085Y206329D01*
X109855Y206070D01*
X109587Y205967D01*
X109281Y206070D01*
X109012Y206380D01*
X108859Y206845D01*
X108821Y207361D01*
X108897Y208033D01*
X109012Y208394D01*
X109204Y208756D01*
X109472Y209014D01*
X109740Y209065D01*
X110009Y208962D01*
X110200Y208704D01*
G01X111918Y208549D02*
X112148Y208859D01*
X112417Y209014D01*
X112723Y209065D01*
X113106Y208962D01*
X113374Y208704D01*
X113451Y208394D01*
X113413Y208084D01*
X113259Y207826D01*
X112493Y207310D01*
X112148Y206948D01*
X111918Y206432D01*
X111842Y205967D01*
X113451D01*
G01X128196Y257807D02*
X127967Y257962D01*
X127698Y258065D01*
X127392D01*
X127047Y257910D01*
X126779Y257652D01*
X126587Y257342D01*
X126434Y256826D01*
X126396Y256361D01*
X126472Y255897D01*
X126587Y255587D01*
X126817Y255277D01*
X127085Y255070D01*
X127354Y254967D01*
X127622D01*
X127890Y255070D01*
X128120Y255225D01*
X128312Y255432D01*
G01X129723Y257549D02*
X129953Y257859D01*
X130221Y258014D01*
X130528Y258065D01*
X130911Y257962D01*
X131179Y257704D01*
X131256Y257394D01*
X131218Y257084D01*
X131064Y256826D01*
X130298Y256310D01*
X129953Y255948D01*
X129723Y255432D01*
X129647Y254967D01*
X131256D01*
G01X132897Y255329D02*
X133166Y255070D01*
X133472Y254967D01*
X133779Y255070D01*
X134047Y255380D01*
X134238Y255845D01*
X134315Y256310D01*
Y256878D01*
X134238Y257342D01*
X134047Y257755D01*
X133817Y257962D01*
X133549Y258065D01*
X133242Y257962D01*
X133012Y257755D01*
X132859Y257446D01*
X132782Y257033D01*
X132859Y256671D01*
X133051Y256310D01*
X133281Y256103D01*
X133549Y256052D01*
X133855Y256155D01*
X134085Y256413D01*
X134315Y256878D01*
G01X135918Y257549D02*
X136148Y257859D01*
X136416Y258014D01*
X136723Y258065D01*
X137106Y257962D01*
X137374Y257704D01*
X137451Y257394D01*
X137413Y257084D01*
X137259Y256826D01*
X136493Y256310D01*
X136148Y255948D01*
X135918Y255432D01*
X135842Y254967D01*
X137451D01*
G01X139783Y369265D02*
Y366167D01*
X141316D01*
G01X142919Y368748D02*
X143149Y369058D01*
X143417Y369213D01*
X143724Y369265D01*
X144107Y369161D01*
X144375Y368903D01*
X144452Y368594D01*
X144413Y368284D01*
X144260Y368026D01*
X143494Y367509D01*
X143149Y367148D01*
X142919Y366631D01*
X142842Y366167D01*
X144452D01*
G01X157136Y345587D02*
X157328Y345277D01*
X157558Y345070D01*
X157826Y344967D01*
X158132Y345070D01*
X158362Y345277D01*
X158592Y345587D01*
X158669Y346000D01*
Y348065D01*
G01X161460Y344967D02*
Y348065D01*
X160042Y345845D01*
X161958D01*
G01X164098Y344967D02*
Y348065D01*
X163638Y347446D01*
G01Y344967D02*
X164557D01*
M02*
