G04 ================== begin FILE IDENTIFICATION RECORD ==================*
G04 Layout Name:  D:/project/IRISking/ikemb-0001/project/hardware/POWER/POWER12-v6.brd*
G04 Film Name:    Silk_Bottom*
G04 File Format:  Gerber RS274X*
G04 File Origin:  15.7-p007*
G04 Origin Date:  Thu Aug 06 10:28:25 2009*
G04 *
G04 Layer:  REF DES/ASSEMBLY_BOTTOM*
G04 Layer:  BOARD GEOMETRY/SILKSCREEN_BOTTOM*
G04 Layer:  REF DES/SILKSCREEN_BOTTOM*
G04 Layer:  PACKAGE GEOMETRY/SILKSCREEN_BOTTOM*
G04 Layer:  BOARD GEOMETRY/OUTLINE*
G04 *
G04 Offset:    (0.000 0.000)*
G04 Mirror:    No*
G04 Mode:      Positive*
G04 Rotation:  0*
G04 FullContactRelief:  No*
G04 UndefLineWidth:     8.000*
G04 ================== end FILE IDENTIFICATION RECORD ====================*
%FSLAX55Y55*MOIN*%
%IR0*IPPOS*OFA0.00000B0.00000*MIA0B0*SFA1.00000B1.00000*%
%ADD10C,.008*%
G75*
%LPD*%
G75*
G54D10*
G01X-19685Y374016D02*
X185039D01*
Y-19685D01*
X-19685D01*
Y20000D01*
X-90000D01*
Y145000D01*
X-19685D01*
Y374016D01*
G01X-78000Y52000D02*
X-36000D01*
Y74000D01*
X-84000D01*
X-86000Y72000D01*
Y54000D01*
X-84000Y52000D01*
X-78000D01*
G01X-86000Y54000D02*
Y72000D01*
X-84000Y74000D01*
X-36000D01*
Y52000D01*
X-84000D01*
X-86000Y54000D01*
G01X-76892Y79006D02*
X-76662Y79161D01*
X-76394Y79265D01*
X-76088D01*
X-75743Y79110D01*
X-75475Y78852D01*
X-75283Y78542D01*
X-75130Y78025D01*
X-75092Y77561D01*
X-75168Y77096D01*
X-75283Y76786D01*
X-75513Y76476D01*
X-75781Y76270D01*
X-76049Y76167D01*
X-76318D01*
X-76586Y76270D01*
X-76816Y76425D01*
X-77007Y76631D01*
G01X-78419Y78748D02*
X-78649Y79058D01*
X-78917Y79213D01*
X-79224Y79265D01*
X-79607Y79161D01*
X-79875Y78903D01*
X-79952Y78593D01*
X-79913Y78284D01*
X-79760Y78025D01*
X-78994Y77509D01*
X-78649Y77148D01*
X-78419Y76631D01*
X-78342Y76167D01*
X-79952D01*
G01X-81593Y76528D02*
X-81861Y76270D01*
X-82168Y76167D01*
X-82474Y76270D01*
X-82743Y76580D01*
X-82934Y77044D01*
X-83011Y77509D01*
Y78077D01*
X-82934Y78542D01*
X-82743Y78955D01*
X-82513Y79161D01*
X-82245Y79265D01*
X-81938Y79161D01*
X-81708Y78955D01*
X-81555Y78645D01*
X-81478Y78232D01*
X-81555Y77871D01*
X-81746Y77509D01*
X-81976Y77302D01*
X-82245Y77251D01*
X-82551Y77354D01*
X-82781Y77612D01*
X-83011Y78077D01*
G01X-84499Y76631D02*
X-84729Y76373D01*
X-84997Y76218D01*
X-85342Y76167D01*
X-85687Y76270D01*
X-85955Y76476D01*
X-86147Y76838D01*
X-86185Y77251D01*
X-86109Y77664D01*
X-85917Y77922D01*
X-85649Y78129D01*
X-85380Y78180D01*
X-85112Y78129D01*
X-84768Y77922D01*
X-84882Y79265D01*
X-85917D01*
G01X-63000Y90000D02*
X-21000D01*
Y112000D01*
X-69000D01*
X-71000Y110000D01*
Y92000D01*
X-69000Y90000D01*
X-63000D01*
G01X-71000Y92000D02*
Y110000D01*
X-69000Y112000D01*
X-21000D01*
Y90000D01*
X-69000D01*
X-71000Y92000D01*
G01X-61892Y117006D02*
X-61662Y117161D01*
X-61394Y117265D01*
X-61088D01*
X-60743Y117110D01*
X-60475Y116852D01*
X-60283Y116542D01*
X-60130Y116025D01*
X-60092Y115561D01*
X-60168Y115096D01*
X-60283Y114786D01*
X-60513Y114476D01*
X-60781Y114270D01*
X-61049Y114167D01*
X-61318D01*
X-61586Y114270D01*
X-61816Y114425D01*
X-62007Y114631D01*
G01X-63419Y116748D02*
X-63649Y117058D01*
X-63917Y117213D01*
X-64224Y117265D01*
X-64607Y117161D01*
X-64875Y116903D01*
X-64952Y116593D01*
X-64913Y116284D01*
X-64760Y116025D01*
X-63994Y115509D01*
X-63649Y115148D01*
X-63419Y114631D01*
X-63342Y114167D01*
X-64952D01*
G01X-66593Y114528D02*
X-66861Y114270D01*
X-67168Y114167D01*
X-67474Y114270D01*
X-67743Y114580D01*
X-67934Y115044D01*
X-68011Y115509D01*
Y116077D01*
X-67934Y116542D01*
X-67743Y116955D01*
X-67513Y117161D01*
X-67245Y117265D01*
X-66938Y117161D01*
X-66708Y116955D01*
X-66555Y116645D01*
X-66478Y116232D01*
X-66555Y115870D01*
X-66747Y115509D01*
X-66976Y115303D01*
X-67245Y115251D01*
X-67551Y115354D01*
X-67781Y115612D01*
X-68011Y116077D01*
G01X-70802Y114167D02*
Y117265D01*
X-69384Y115044D01*
X-71300D01*
G01X119000Y15000D02*
X77000D01*
Y-7000D01*
X125000D01*
X127000Y-5000D01*
Y13000D01*
X125000Y15000D01*
X119000D01*
G01X127000Y13000D02*
Y-5000D01*
X125000Y-7000D01*
X77000D01*
Y15000D01*
X125000D01*
X127000Y13000D01*
G01X5413Y74967D02*
Y78065D01*
X4455D01*
X4148Y77910D01*
X3957Y77704D01*
X3880Y77291D01*
X3957Y76878D01*
X4187Y76620D01*
X4455Y76465D01*
X5413D01*
G01X4455D02*
X3880Y74967D01*
G01X1549D02*
Y78065D01*
X2009Y77446D01*
G01Y74967D02*
X1089D01*
G01X-897Y75329D02*
X-1166Y75070D01*
X-1472Y74967D01*
X-1779Y75070D01*
X-2047Y75380D01*
X-2238Y75845D01*
X-2315Y76310D01*
Y76878D01*
X-2238Y77342D01*
X-2047Y77756D01*
X-1817Y77962D01*
X-1549Y78065D01*
X-1242Y77962D01*
X-1012Y77756D01*
X-859Y77446D01*
X-782Y77033D01*
X-859Y76671D01*
X-1051Y76310D01*
X-1281Y76103D01*
X-1549Y76052D01*
X-1855Y76155D01*
X-2085Y76413D01*
X-2315Y76878D01*
G01X-4646Y74967D02*
X-4915Y75019D01*
X-5221Y75174D01*
X-5413Y75432D01*
X-5489Y75793D01*
X-5413Y76155D01*
X-5183Y76465D01*
X-4838Y76620D01*
X-4455D01*
X-4225Y76723D01*
X-4033Y76981D01*
X-3957Y77342D01*
X-4072Y77704D01*
X-4340Y77962D01*
X-4646Y78065D01*
X-4953Y77962D01*
X-5221Y77704D01*
X-5336Y77342D01*
X-5259Y76981D01*
X-5068Y76723D01*
X-4838Y76620D01*
X-4455D01*
X-4110Y76465D01*
X-3880Y76155D01*
X-3804Y75793D01*
X-3880Y75432D01*
X-4072Y75174D01*
X-4378Y75019D01*
X-4646Y74967D01*
G01X9000Y81000D02*
X-9000D01*
X-11000Y83000D01*
Y131000D01*
X11000D01*
Y83000D01*
X9000Y81000D01*
G01X11000Y89000D02*
Y131000D01*
X-11000D01*
Y83000D01*
X-9000Y81000D01*
X9000D01*
X11000Y83000D01*
Y89000D01*
G01X41500Y152000D02*
Y153000D01*
X46500D01*
Y150500D01*
G01Y143500D02*
Y141000D01*
X41500D01*
Y142000D01*
G01X41200Y140800D02*
Y153200D01*
X46800D01*
Y140800D01*
X41200D01*
G01X69000Y187000D02*
Y145000D01*
X91000D01*
Y193000D01*
X89000Y195000D01*
X71000D01*
X69000Y193000D01*
Y187000D01*
G01X71000Y195000D02*
X89000D01*
X91000Y193000D01*
Y145000D01*
X69000D01*
Y193000D01*
X71000Y195000D01*
G01X47500Y152000D02*
Y153000D01*
X52500D01*
Y150500D01*
G01Y143500D02*
Y141000D01*
X47500D01*
Y142000D01*
G01X47200Y140800D02*
Y153200D01*
X52800D01*
Y140800D01*
X47200D01*
G01X54300Y147700D02*
X53300D01*
Y152700D01*
X55800D01*
G01X62800D02*
X65300D01*
Y147700D01*
X64300D01*
G01X65500Y147400D02*
X53100D01*
Y153000D01*
X65500D01*
Y147400D01*
G01X13136Y162587D02*
X13328Y162277D01*
X13558Y162070D01*
X13826Y161967D01*
X14132Y162070D01*
X14362Y162277D01*
X14592Y162587D01*
X14669Y163000D01*
Y165065D01*
G01X17460Y161967D02*
Y165065D01*
X16042Y162845D01*
X17958D01*
G01X19446Y162329D02*
X19714Y162070D01*
X20021Y161967D01*
X20328Y162070D01*
X20596Y162380D01*
X20787Y162845D01*
X20864Y163310D01*
Y163878D01*
X20787Y164342D01*
X20596Y164756D01*
X20366Y164962D01*
X20098Y165065D01*
X19791Y164962D01*
X19561Y164756D01*
X19408Y164446D01*
X19331Y164033D01*
X19408Y163671D01*
X19600Y163310D01*
X19829Y163103D01*
X20098Y163052D01*
X20404Y163155D01*
X20634Y163413D01*
X20864Y163878D01*
G01X13136Y162587D02*
X13328Y162277D01*
X13558Y162070D01*
X13826Y161967D01*
X14132Y162070D01*
X14362Y162277D01*
X14592Y162587D01*
X14669Y163000D01*
Y165065D01*
G01X17460Y161967D02*
Y165065D01*
X16042Y162845D01*
X17958D01*
G01X19446Y162329D02*
X19714Y162070D01*
X20021Y161967D01*
X20328Y162070D01*
X20596Y162380D01*
X20787Y162845D01*
X20864Y163310D01*
Y163878D01*
X20787Y164342D01*
X20596Y164756D01*
X20366Y164962D01*
X20098Y165065D01*
X19791Y164962D01*
X19561Y164756D01*
X19408Y164446D01*
X19331Y164033D01*
X19408Y163671D01*
X19600Y163310D01*
X19829Y163103D01*
X20098Y163052D01*
X20404Y163155D01*
X20634Y163413D01*
X20864Y163878D01*
G01X48193Y164804D02*
X48038Y165033D01*
X47935Y165302D01*
Y165608D01*
X48090Y165953D01*
X48348Y166221D01*
X48658Y166413D01*
X49174Y166566D01*
X49639Y166604D01*
X50103Y166528D01*
X50413Y166413D01*
X50723Y166183D01*
X50930Y165915D01*
X51033Y165646D01*
Y165378D01*
X50930Y165110D01*
X50775Y164880D01*
X50568Y164688D01*
G01X48451Y163277D02*
X48141Y163047D01*
X47986Y162779D01*
X47935Y162472D01*
X48038Y162089D01*
X48296Y161821D01*
X48606Y161744D01*
X48916Y161782D01*
X49174Y161936D01*
X49690Y162702D01*
X50052Y163047D01*
X50568Y163277D01*
X51033Y163353D01*
Y161744D01*
G01Y159451D02*
X50981Y159183D01*
X50826Y158877D01*
X50568Y158685D01*
X50207Y158608D01*
X49845Y158685D01*
X49535Y158915D01*
X49380Y159260D01*
Y159643D01*
X49277Y159873D01*
X49019Y160064D01*
X48658Y160141D01*
X48296Y160026D01*
X48038Y159758D01*
X47935Y159451D01*
X48038Y159145D01*
X48296Y158877D01*
X48658Y158762D01*
X49019Y158838D01*
X49277Y159030D01*
X49380Y159260D01*
Y159643D01*
X49535Y159988D01*
X49845Y160218D01*
X50207Y160294D01*
X50568Y160218D01*
X50826Y160026D01*
X50981Y159719D01*
X51033Y159451D01*
G01Y156354D02*
X47935D01*
X48554Y156813D01*
G01X51033D02*
Y155894D01*
G01X66193Y154804D02*
X66038Y155033D01*
X65935Y155302D01*
Y155608D01*
X66090Y155953D01*
X66348Y156221D01*
X66658Y156413D01*
X67174Y156566D01*
X67639Y156604D01*
X68103Y156528D01*
X68413Y156413D01*
X68723Y156183D01*
X68930Y155915D01*
X69033Y155646D01*
Y155378D01*
X68930Y155110D01*
X68775Y154880D01*
X68568Y154688D01*
G01X66451Y153277D02*
X66141Y153047D01*
X65986Y152779D01*
X65935Y152472D01*
X66038Y152089D01*
X66296Y151821D01*
X66606Y151744D01*
X66916Y151782D01*
X67174Y151936D01*
X67690Y152702D01*
X68052Y153047D01*
X68568Y153277D01*
X69033Y153353D01*
Y151744D01*
G01Y149451D02*
X68981Y149183D01*
X68826Y148876D01*
X68568Y148685D01*
X68207Y148608D01*
X67845Y148685D01*
X67535Y148915D01*
X67380Y149260D01*
Y149643D01*
X67277Y149873D01*
X67019Y150064D01*
X66658Y150141D01*
X66296Y150026D01*
X66038Y149758D01*
X65935Y149451D01*
X66038Y149145D01*
X66296Y148876D01*
X66658Y148762D01*
X67019Y148838D01*
X67277Y149030D01*
X67380Y149260D01*
Y149643D01*
X67535Y149988D01*
X67845Y150218D01*
X68207Y150294D01*
X68568Y150218D01*
X68826Y150026D01*
X68981Y149719D01*
X69033Y149451D01*
G01X68671Y147005D02*
X68930Y146737D01*
X69033Y146430D01*
X68930Y146124D01*
X68620Y145856D01*
X68155Y145664D01*
X67690Y145587D01*
X67122D01*
X66658Y145664D01*
X66244Y145856D01*
X66038Y146085D01*
X65935Y146354D01*
X66038Y146660D01*
X66244Y146890D01*
X66554Y147043D01*
X66967Y147120D01*
X67329Y147043D01*
X67690Y146852D01*
X67897Y146622D01*
X67948Y146354D01*
X67845Y146047D01*
X67587Y145817D01*
X67122Y145587D01*
G01X63704Y145807D02*
X63933Y145962D01*
X64202Y146065D01*
X64508D01*
X64853Y145910D01*
X65121Y145652D01*
X65313Y145342D01*
X65466Y144826D01*
X65504Y144361D01*
X65428Y143897D01*
X65313Y143587D01*
X65083Y143277D01*
X64815Y143070D01*
X64546Y142967D01*
X64278D01*
X64010Y143070D01*
X63780Y143225D01*
X63588Y143432D01*
G01X62177Y145549D02*
X61947Y145859D01*
X61679Y146014D01*
X61372Y146065D01*
X60989Y145962D01*
X60721Y145704D01*
X60644Y145394D01*
X60683Y145084D01*
X60836Y144826D01*
X61602Y144310D01*
X61947Y143948D01*
X62177Y143432D01*
X62253Y142967D01*
X60644D01*
G01X59194Y143432D02*
X58964Y143174D01*
X58696Y143019D01*
X58351Y142967D01*
X58006Y143070D01*
X57738Y143277D01*
X57547Y143638D01*
X57508Y144052D01*
X57585Y144465D01*
X57776Y144723D01*
X58045Y144929D01*
X58313Y144981D01*
X58581Y144929D01*
X58926Y144723D01*
X58811Y146065D01*
X57776D01*
G01X55905Y143329D02*
X55637Y143070D01*
X55330Y142967D01*
X55024Y143070D01*
X54756Y143380D01*
X54564Y143845D01*
X54487Y144310D01*
Y144878D01*
X54564Y145342D01*
X54756Y145756D01*
X54985Y145962D01*
X55254Y146065D01*
X55560Y145962D01*
X55790Y145756D01*
X55943Y145446D01*
X56020Y145033D01*
X55943Y144671D01*
X55752Y144310D01*
X55522Y144103D01*
X55254Y144052D01*
X54947Y144155D01*
X54717Y144413D01*
X54487Y144878D01*
G01X45033Y166413D02*
X41935D01*
Y165455D01*
X42090Y165148D01*
X42296Y164957D01*
X42709Y164880D01*
X43122Y164957D01*
X43380Y165187D01*
X43535Y165455D01*
Y166413D01*
G01Y165455D02*
X45033Y164880D01*
G01Y162549D02*
X41935D01*
X42554Y163009D01*
G01X45033D02*
Y162089D01*
G01Y159451D02*
X44981Y159183D01*
X44826Y158877D01*
X44568Y158685D01*
X44207Y158608D01*
X43845Y158685D01*
X43535Y158915D01*
X43380Y159260D01*
Y159643D01*
X43277Y159873D01*
X43019Y160064D01*
X42658Y160141D01*
X42296Y160026D01*
X42038Y159758D01*
X41935Y159451D01*
X42038Y159145D01*
X42296Y158877D01*
X42658Y158762D01*
X43019Y158838D01*
X43277Y159030D01*
X43380Y159260D01*
Y159643D01*
X43535Y159988D01*
X43845Y160218D01*
X44207Y160294D01*
X44568Y160218D01*
X44826Y160026D01*
X44981Y159719D01*
X45033Y159451D01*
G01Y156354D02*
X44981Y156085D01*
X44826Y155779D01*
X44568Y155587D01*
X44207Y155511D01*
X43845Y155587D01*
X43535Y155817D01*
X43380Y156162D01*
Y156545D01*
X43277Y156775D01*
X43019Y156967D01*
X42658Y157043D01*
X42296Y156928D01*
X42038Y156660D01*
X41935Y156354D01*
X42038Y156047D01*
X42296Y155779D01*
X42658Y155664D01*
X43019Y155741D01*
X43277Y155932D01*
X43380Y156162D01*
Y156545D01*
X43535Y156890D01*
X43845Y157120D01*
X44207Y157196D01*
X44568Y157120D01*
X44826Y156928D01*
X44981Y156622D01*
X45033Y156354D01*
G01X111000Y252500D02*
Y211500D01*
X37000D01*
Y252500D01*
X111000D01*
G01X70000Y257000D02*
Y275000D01*
X72000Y277000D01*
X120000D01*
Y255000D01*
X72000D01*
X70000Y257000D01*
G01X78000Y255000D02*
X120000D01*
Y277000D01*
X72000D01*
X70000Y275000D01*
Y257000D01*
X72000Y255000D01*
X78000D01*
G01X9000Y276500D02*
Y313500D01*
X33000D01*
Y276500D01*
X9000D01*
G01X25000Y292500D02*
X15000D01*
X21000Y298500D01*
X27000Y292500D01*
X25000D01*
G01X34800Y288800D02*
X47200D01*
Y283200D01*
X34800D01*
Y288800D01*
G01X37500Y283500D02*
X35000D01*
Y288500D01*
X36000D01*
G01X46000D02*
X47000D01*
Y283500D01*
X44500D01*
G01X34800Y279800D02*
X47200D01*
Y274200D01*
X34800D01*
Y279800D01*
G01X37500Y274500D02*
X35000D01*
Y279500D01*
X36000D01*
G01X46000D02*
X47000D01*
Y274500D01*
X44500D01*
G01X41200Y295800D02*
Y308200D01*
X46800D01*
Y295800D01*
X41200D01*
G01X46500Y298500D02*
Y296000D01*
X41500D01*
Y297000D01*
G01Y307000D02*
Y308000D01*
X46500D01*
Y305500D01*
G01X70000Y281000D02*
Y299000D01*
X72000Y301000D01*
X120000D01*
Y279000D01*
X72000D01*
X70000Y281000D01*
G01X78000Y279000D02*
X120000D01*
Y301000D01*
X72000D01*
X70000Y299000D01*
Y281000D01*
X72000Y279000D01*
X78000D01*
G01X63900Y292600D02*
Y285600D01*
X53900D01*
Y287600D01*
Y292600D01*
G01X63900Y310700D02*
Y285500D01*
X53900D01*
Y310700D01*
X63900D01*
G01D02*
Y309100D01*
X53900D01*
Y310700D01*
X63900D01*
G01X65893Y308404D02*
X65738Y308633D01*
X65635Y308902D01*
Y309208D01*
X65790Y309553D01*
X66048Y309821D01*
X66358Y310013D01*
X66874Y310166D01*
X67339Y310204D01*
X67803Y310128D01*
X68113Y310013D01*
X68423Y309783D01*
X68630Y309515D01*
X68733Y309246D01*
Y308978D01*
X68630Y308710D01*
X68475Y308480D01*
X68268Y308288D01*
G01X66151Y306877D02*
X65841Y306647D01*
X65686Y306379D01*
X65635Y306072D01*
X65738Y305689D01*
X65996Y305421D01*
X66306Y305344D01*
X66616Y305382D01*
X66874Y305536D01*
X67390Y306302D01*
X67752Y306647D01*
X68268Y306877D01*
X68733Y306953D01*
Y305344D01*
G01Y303051D02*
X68681Y302783D01*
X68526Y302476D01*
X68268Y302285D01*
X67907Y302208D01*
X67545Y302285D01*
X67235Y302515D01*
X67080Y302860D01*
Y303243D01*
X66977Y303473D01*
X66719Y303664D01*
X66358Y303741D01*
X65996Y303626D01*
X65738Y303358D01*
X65635Y303051D01*
X65738Y302745D01*
X65996Y302476D01*
X66358Y302362D01*
X66719Y302438D01*
X66977Y302630D01*
X67080Y302860D01*
Y303243D01*
X67235Y303588D01*
X67545Y303818D01*
X67907Y303894D01*
X68268Y303818D01*
X68526Y303626D01*
X68681Y303319D01*
X68733Y303051D01*
G01X67442Y300682D02*
X67080Y300413D01*
X66874Y300184D01*
X66771Y299877D01*
X66874Y299609D01*
X67080Y299417D01*
X67390Y299264D01*
X67752Y299226D01*
X68062Y299264D01*
X68371Y299417D01*
X68630Y299647D01*
X68733Y299915D01*
X68630Y300222D01*
X68320Y300490D01*
X67855Y300643D01*
X67339Y300682D01*
X66667Y300605D01*
X66306Y300490D01*
X65944Y300298D01*
X65686Y300030D01*
X65635Y299762D01*
X65738Y299494D01*
X65996Y299302D01*
G01X65893Y308404D02*
X65738Y308633D01*
X65635Y308902D01*
Y309208D01*
X65790Y309553D01*
X66048Y309821D01*
X66358Y310013D01*
X66874Y310166D01*
X67339Y310204D01*
X67803Y310128D01*
X68113Y310013D01*
X68423Y309783D01*
X68630Y309515D01*
X68733Y309246D01*
Y308978D01*
X68630Y308710D01*
X68475Y308480D01*
X68268Y308288D01*
G01X66151Y306877D02*
X65841Y306647D01*
X65686Y306379D01*
X65635Y306072D01*
X65738Y305689D01*
X65996Y305421D01*
X66306Y305344D01*
X66616Y305382D01*
X66874Y305536D01*
X67390Y306302D01*
X67752Y306647D01*
X68268Y306877D01*
X68733Y306953D01*
Y305344D01*
G01Y303051D02*
X68681Y302783D01*
X68526Y302476D01*
X68268Y302285D01*
X67907Y302208D01*
X67545Y302285D01*
X67235Y302515D01*
X67080Y302860D01*
Y303243D01*
X66977Y303473D01*
X66719Y303664D01*
X66358Y303741D01*
X65996Y303626D01*
X65738Y303358D01*
X65635Y303051D01*
X65738Y302745D01*
X65996Y302476D01*
X66358Y302362D01*
X66719Y302438D01*
X66977Y302630D01*
X67080Y302860D01*
Y303243D01*
X67235Y303588D01*
X67545Y303818D01*
X67907Y303894D01*
X68268Y303818D01*
X68526Y303626D01*
X68681Y303319D01*
X68733Y303051D01*
G01X67442Y300682D02*
X67080Y300413D01*
X66874Y300184D01*
X66771Y299877D01*
X66874Y299609D01*
X67080Y299417D01*
X67390Y299264D01*
X67752Y299226D01*
X68062Y299264D01*
X68371Y299417D01*
X68630Y299647D01*
X68733Y299915D01*
X68630Y300222D01*
X68320Y300490D01*
X67855Y300643D01*
X67339Y300682D01*
X66667Y300605D01*
X66306Y300490D01*
X65944Y300298D01*
X65686Y300030D01*
X65635Y299762D01*
X65738Y299494D01*
X65996Y299302D01*
G01X21392Y271967D02*
Y275065D01*
X20625D01*
X20319Y274910D01*
X20089Y274704D01*
X19897Y274394D01*
X19744Y274033D01*
X19706Y273516D01*
X19744Y273000D01*
X19897Y272638D01*
X20089Y272329D01*
X20319Y272122D01*
X20625Y271967D01*
X21392D01*
G01X18179Y273258D02*
X17911Y273620D01*
X17681Y273826D01*
X17375Y273929D01*
X17106Y273826D01*
X16915Y273620D01*
X16762Y273310D01*
X16723Y272948D01*
X16762Y272638D01*
X16915Y272329D01*
X17145Y272070D01*
X17413Y271967D01*
X17719Y272070D01*
X17988Y272380D01*
X18141Y272845D01*
X18179Y273361D01*
X18103Y274033D01*
X17988Y274394D01*
X17796Y274756D01*
X17528Y275014D01*
X17260Y275065D01*
X16991Y274962D01*
X16800Y274704D01*
G01X43315Y289967D02*
Y293065D01*
X42357D01*
X42051Y292910D01*
X41859Y292704D01*
X41782Y292291D01*
X41859Y291878D01*
X42089Y291620D01*
X42357Y291465D01*
X43315D01*
G01X42357D02*
X41782Y289967D01*
G01X38991D02*
Y293065D01*
X40409Y290845D01*
X38493D01*
G01X40294Y270193D02*
X40064Y270038D01*
X39796Y269935D01*
X39490D01*
X39145Y270090D01*
X38876Y270348D01*
X38685Y270658D01*
X38532Y271174D01*
X38493Y271639D01*
X38570Y272103D01*
X38685Y272413D01*
X38915Y272723D01*
X39183Y272930D01*
X39451Y273033D01*
X39719D01*
X39988Y272930D01*
X40218Y272775D01*
X40409Y272568D01*
G01X41897Y272671D02*
X42166Y272930D01*
X42472Y273033D01*
X42779Y272930D01*
X43047Y272620D01*
X43238Y272155D01*
X43315Y271690D01*
Y271122D01*
X43238Y270658D01*
X43047Y270245D01*
X42817Y270038D01*
X42549Y269935D01*
X42242Y270038D01*
X42012Y270245D01*
X41859Y270554D01*
X41782Y270967D01*
X41859Y271329D01*
X42051Y271690D01*
X42281Y271897D01*
X42549Y271948D01*
X42855Y271845D01*
X43085Y271587D01*
X43315Y271122D01*
G01X36193Y303706D02*
X36038Y303936D01*
X35935Y304204D01*
Y304510D01*
X36090Y304855D01*
X36348Y305124D01*
X36658Y305315D01*
X37174Y305468D01*
X37639Y305507D01*
X38103Y305430D01*
X38413Y305315D01*
X38723Y305085D01*
X38930Y304817D01*
X39033Y304549D01*
Y304281D01*
X38930Y304012D01*
X38775Y303782D01*
X38568Y303591D01*
G01X39033Y301451D02*
X35935D01*
X36554Y301911D01*
G01X39033D02*
Y300992D01*
G01X121108Y21006D02*
X121338Y21162D01*
X121606Y21265D01*
X121912D01*
X122257Y21110D01*
X122525Y20852D01*
X122717Y20542D01*
X122870Y20026D01*
X122908Y19561D01*
X122832Y19096D01*
X122717Y18786D01*
X122487Y18476D01*
X122219Y18270D01*
X121951Y18167D01*
X121682D01*
X121414Y18270D01*
X121184Y18425D01*
X120993Y18631D01*
G01X119581Y20748D02*
X119351Y21058D01*
X119083Y21213D01*
X118776Y21265D01*
X118393Y21162D01*
X118125Y20903D01*
X118048Y20594D01*
X118087Y20284D01*
X118240Y20026D01*
X119006Y19509D01*
X119351Y19148D01*
X119581Y18631D01*
X119658Y18167D01*
X118048D01*
G01X115832D02*
X115755Y18838D01*
X115640Y19406D01*
X115487Y19922D01*
X115296Y20490D01*
X114989Y21265D01*
X116522D01*
G01X112658Y18167D02*
Y21265D01*
X113118Y20645D01*
G01Y18167D02*
X112198D01*
G01X151200Y195200D02*
X138800D01*
Y200800D01*
X151200D01*
Y195200D01*
G01X148500Y200500D02*
X151000D01*
Y195500D01*
X150000D01*
G01X140000D02*
X139000D01*
Y200500D01*
X141500D01*
G01X123000Y194000D02*
X141000D01*
X143000Y192000D01*
Y144000D01*
X121000D01*
Y192000D01*
X123000Y194000D01*
G01X121000Y186000D02*
Y144000D01*
X143000D01*
Y192000D01*
X141000Y194000D01*
X123000D01*
X121000Y192000D01*
Y186000D01*
G01X97500Y151000D02*
Y152000D01*
X102500D01*
Y149500D01*
G01Y142500D02*
Y140000D01*
X97500D01*
Y141000D01*
G01X97200Y139800D02*
Y152200D01*
X102800D01*
Y139800D01*
X97200D01*
G01X91500Y151000D02*
Y152000D01*
X96500D01*
Y149500D01*
G01Y142500D02*
Y140000D01*
X91500D01*
Y141000D01*
G01X91200Y139800D02*
Y152200D01*
X96800D01*
Y139800D01*
X91200D01*
G01X115600Y146600D02*
X103200D01*
Y152200D01*
X115600D01*
Y146600D01*
G01X112900Y151900D02*
X115400D01*
Y146900D01*
X114400D01*
G01X104400D02*
X103400D01*
Y151900D01*
X105900D01*
G01X169136Y110587D02*
X169328Y110277D01*
X169558Y110070D01*
X169826Y109967D01*
X170132Y110070D01*
X170362Y110277D01*
X170592Y110587D01*
X170669Y111000D01*
Y113065D01*
G01X172157Y110432D02*
X172387Y110174D01*
X172655Y110019D01*
X173000Y109967D01*
X173345Y110070D01*
X173613Y110277D01*
X173805Y110638D01*
X173843Y111052D01*
X173766Y111465D01*
X173575Y111723D01*
X173306Y111929D01*
X173038Y111981D01*
X172770Y111929D01*
X172425Y111723D01*
X172540Y113065D01*
X173575D01*
G01X176098D02*
X175791Y112962D01*
X175561Y112704D01*
X175408Y112394D01*
X175293Y111981D01*
X175255Y111516D01*
X175293Y111052D01*
X175408Y110638D01*
X175561Y110329D01*
X175791Y110070D01*
X176098Y109967D01*
X176404Y110070D01*
X176634Y110329D01*
X176787Y110638D01*
X176902Y111052D01*
X176940Y111516D01*
X176902Y111981D01*
X176787Y112394D01*
X176634Y112704D01*
X176404Y112962D01*
X176098Y113065D01*
G01X116993Y152704D02*
X116838Y152933D01*
X116735Y153202D01*
Y153508D01*
X116890Y153853D01*
X117148Y154121D01*
X117458Y154313D01*
X117974Y154466D01*
X118439Y154504D01*
X118903Y154428D01*
X119213Y154313D01*
X119523Y154083D01*
X119730Y153815D01*
X119833Y153546D01*
Y153278D01*
X119730Y153010D01*
X119575Y152780D01*
X119368Y152588D01*
G01X117251Y151177D02*
X116941Y150947D01*
X116786Y150679D01*
X116735Y150372D01*
X116838Y149989D01*
X117096Y149721D01*
X117406Y149644D01*
X117716Y149682D01*
X117974Y149836D01*
X118490Y150602D01*
X118852Y150947D01*
X119368Y151177D01*
X119833Y151253D01*
Y149644D01*
G01Y147351D02*
X119781Y147083D01*
X119626Y146777D01*
X119368Y146585D01*
X119007Y146508D01*
X118645Y146585D01*
X118335Y146815D01*
X118180Y147160D01*
Y147543D01*
X118077Y147773D01*
X117819Y147964D01*
X117458Y148041D01*
X117096Y147926D01*
X116838Y147658D01*
X116735Y147351D01*
X116838Y147045D01*
X117096Y146777D01*
X117458Y146662D01*
X117819Y146738D01*
X118077Y146930D01*
X118180Y147160D01*
Y147543D01*
X118335Y147888D01*
X118645Y148118D01*
X119007Y148194D01*
X119368Y148118D01*
X119626Y147926D01*
X119781Y147619D01*
X119833Y147351D01*
G01Y144254D02*
X119781Y143985D01*
X119626Y143679D01*
X119368Y143487D01*
X119007Y143411D01*
X118645Y143487D01*
X118335Y143717D01*
X118180Y144062D01*
Y144445D01*
X118077Y144675D01*
X117819Y144867D01*
X117458Y144943D01*
X117096Y144828D01*
X116838Y144560D01*
X116735Y144254D01*
X116838Y143947D01*
X117096Y143679D01*
X117458Y143564D01*
X117819Y143641D01*
X118077Y143832D01*
X118180Y144062D01*
Y144445D01*
X118335Y144790D01*
X118645Y145020D01*
X119007Y145096D01*
X119368Y145020D01*
X119626Y144828D01*
X119781Y144522D01*
X119833Y144254D01*
G01X112704Y145307D02*
X112933Y145462D01*
X113202Y145565D01*
X113508D01*
X113853Y145410D01*
X114121Y145152D01*
X114313Y144842D01*
X114466Y144326D01*
X114504Y143861D01*
X114428Y143397D01*
X114313Y143087D01*
X114083Y142777D01*
X113815Y142570D01*
X113546Y142467D01*
X113278D01*
X113010Y142570D01*
X112780Y142725D01*
X112588Y142932D01*
G01X111177Y145049D02*
X110947Y145359D01*
X110679Y145514D01*
X110372Y145565D01*
X109989Y145462D01*
X109721Y145204D01*
X109644Y144894D01*
X109683Y144584D01*
X109836Y144326D01*
X110602Y143810D01*
X110947Y143448D01*
X111177Y142932D01*
X111253Y142467D01*
X109644D01*
G01X108079Y143758D02*
X107811Y144120D01*
X107581Y144326D01*
X107275Y144429D01*
X107006Y144326D01*
X106815Y144120D01*
X106662Y143810D01*
X106623Y143448D01*
X106662Y143138D01*
X106815Y142829D01*
X107045Y142570D01*
X107313Y142467D01*
X107619Y142570D01*
X107888Y142880D01*
X108041Y143345D01*
X108079Y143861D01*
X108003Y144533D01*
X107888Y144894D01*
X107696Y145256D01*
X107428Y145514D01*
X107160Y145565D01*
X106891Y145462D01*
X106700Y145204D01*
G01X104254Y145565D02*
X104560Y145462D01*
X104790Y145204D01*
X104943Y144894D01*
X105058Y144481D01*
X105096Y144016D01*
X105058Y143552D01*
X104943Y143138D01*
X104790Y142829D01*
X104560Y142570D01*
X104254Y142467D01*
X103947Y142570D01*
X103717Y142829D01*
X103564Y143138D01*
X103449Y143552D01*
X103411Y144016D01*
X103449Y144481D01*
X103564Y144894D01*
X103717Y145204D01*
X103947Y145462D01*
X104254Y145565D01*
G01X134804Y198807D02*
X135033Y198962D01*
X135302Y199065D01*
X135608D01*
X135953Y198910D01*
X136221Y198652D01*
X136413Y198342D01*
X136566Y197826D01*
X136604Y197361D01*
X136528Y196897D01*
X136413Y196587D01*
X136183Y196277D01*
X135915Y196070D01*
X135646Y195967D01*
X135378D01*
X135110Y196070D01*
X134880Y196225D01*
X134688Y196432D01*
G01X133277Y198549D02*
X133047Y198859D01*
X132779Y199014D01*
X132472Y199065D01*
X132089Y198962D01*
X131821Y198704D01*
X131744Y198394D01*
X131782Y198084D01*
X131936Y197826D01*
X132702Y197310D01*
X133047Y196948D01*
X133277Y196432D01*
X133353Y195967D01*
X131744D01*
G01X130294Y196432D02*
X130064Y196174D01*
X129796Y196019D01*
X129451Y195967D01*
X129106Y196070D01*
X128838Y196277D01*
X128647Y196638D01*
X128608Y197052D01*
X128685Y197465D01*
X128877Y197723D01*
X129145Y197929D01*
X129413Y197981D01*
X129681Y197929D01*
X130026Y197723D01*
X129911Y199065D01*
X128877D01*
G01X127196Y196432D02*
X126967Y196174D01*
X126698Y196019D01*
X126354Y195967D01*
X126009Y196070D01*
X125741Y196277D01*
X125549Y196638D01*
X125511Y197052D01*
X125587Y197465D01*
X125779Y197723D01*
X126047Y197929D01*
X126315Y197981D01*
X126584Y197929D01*
X126928Y197723D01*
X126813Y199065D01*
X125779D01*
G01X96033Y164413D02*
X92935D01*
Y163455D01*
X93090Y163148D01*
X93296Y162957D01*
X93709Y162880D01*
X94122Y162957D01*
X94380Y163187D01*
X94535Y163455D01*
Y164413D01*
G01Y163455D02*
X96033Y162880D01*
G01Y160549D02*
X92935D01*
X93554Y161009D01*
G01X96033D02*
Y160089D01*
G01X95671Y158103D02*
X95930Y157834D01*
X96033Y157528D01*
X95930Y157221D01*
X95620Y156953D01*
X95155Y156762D01*
X94690Y156685D01*
X94122D01*
X93658Y156762D01*
X93245Y156953D01*
X93038Y157183D01*
X92935Y157451D01*
X93038Y157758D01*
X93245Y157988D01*
X93554Y158141D01*
X93967Y158218D01*
X94329Y158141D01*
X94690Y157949D01*
X94897Y157719D01*
X94948Y157451D01*
X94845Y157145D01*
X94587Y156915D01*
X94122Y156685D01*
G01X93451Y155082D02*
X93141Y154852D01*
X92986Y154584D01*
X92935Y154277D01*
X93038Y153894D01*
X93296Y153626D01*
X93606Y153549D01*
X93916Y153587D01*
X94174Y153741D01*
X94690Y154507D01*
X95052Y154852D01*
X95568Y155082D01*
X96033Y155158D01*
Y153549D01*
G01X98193Y162804D02*
X98038Y163033D01*
X97935Y163302D01*
Y163608D01*
X98090Y163953D01*
X98348Y164221D01*
X98658Y164413D01*
X99174Y164566D01*
X99639Y164604D01*
X100103Y164528D01*
X100413Y164413D01*
X100723Y164183D01*
X100930Y163915D01*
X101033Y163646D01*
Y163378D01*
X100930Y163110D01*
X100775Y162880D01*
X100568Y162688D01*
G01X98451Y161277D02*
X98141Y161047D01*
X97986Y160779D01*
X97935Y160472D01*
X98038Y160089D01*
X98296Y159821D01*
X98606Y159744D01*
X98916Y159782D01*
X99174Y159936D01*
X99690Y160702D01*
X100052Y161047D01*
X100568Y161277D01*
X101033Y161353D01*
Y159744D01*
G01Y157451D02*
X100981Y157183D01*
X100826Y156877D01*
X100568Y156685D01*
X100207Y156608D01*
X99845Y156685D01*
X99535Y156915D01*
X99380Y157260D01*
Y157643D01*
X99277Y157873D01*
X99019Y158064D01*
X98658Y158141D01*
X98296Y158026D01*
X98038Y157758D01*
X97935Y157451D01*
X98038Y157145D01*
X98296Y156877D01*
X98658Y156762D01*
X99019Y156838D01*
X99277Y157030D01*
X99380Y157260D01*
Y157643D01*
X99535Y157988D01*
X99845Y158218D01*
X100207Y158294D01*
X100568Y158218D01*
X100826Y158026D01*
X100981Y157719D01*
X101033Y157451D01*
G01Y153894D02*
X97935D01*
X100155Y155312D01*
Y153396D01*
G01X151200Y201200D02*
X138800D01*
Y206800D01*
X151200D01*
Y201200D01*
G01X148500Y206500D02*
X151000D01*
Y201500D01*
X150000D01*
G01X140000D02*
X139000D01*
Y206500D01*
X141500D01*
G01X153600Y209000D02*
X152000D01*
Y219000D01*
X153600D01*
Y209000D01*
G01D02*
X128400D01*
Y219000D01*
X153600D01*
Y209000D01*
G01X135500D02*
X128500D01*
Y219000D01*
X130500D01*
X135500D01*
G01X149000Y262000D02*
Y304000D01*
X127000D01*
Y256000D01*
X129000Y254000D01*
X147000D01*
X149000Y256000D01*
Y262000D01*
G01X147000Y254000D02*
X129000D01*
X127000Y256000D01*
Y304000D01*
X149000D01*
Y256000D01*
X147000Y254000D01*
G01X117804Y307807D02*
X118033Y307962D01*
X118302Y308065D01*
X118608D01*
X118953Y307910D01*
X119221Y307652D01*
X119413Y307342D01*
X119566Y306826D01*
X119604Y306361D01*
X119528Y305897D01*
X119413Y305587D01*
X119183Y305277D01*
X118915Y305070D01*
X118646Y304967D01*
X118378D01*
X118110Y305070D01*
X117880Y305225D01*
X117688Y305432D01*
G01X116277Y307549D02*
X116047Y307859D01*
X115779Y308014D01*
X115472Y308065D01*
X115089Y307962D01*
X114821Y307704D01*
X114744Y307394D01*
X114783Y307084D01*
X114936Y306826D01*
X115702Y306310D01*
X116047Y305948D01*
X116277Y305432D01*
X116353Y304967D01*
X114744D01*
G01X112528D02*
X112451Y305638D01*
X112336Y306206D01*
X112183Y306723D01*
X111991Y307291D01*
X111685Y308065D01*
X113218D01*
G01X109354Y304967D02*
X109085Y305019D01*
X108779Y305174D01*
X108587Y305432D01*
X108511Y305793D01*
X108587Y306155D01*
X108817Y306465D01*
X109162Y306620D01*
X109545D01*
X109775Y306723D01*
X109967Y306981D01*
X110043Y307342D01*
X109928Y307704D01*
X109660Y307962D01*
X109354Y308065D01*
X109047Y307962D01*
X108779Y307704D01*
X108664Y307342D01*
X108741Y306981D01*
X108932Y306723D01*
X109162Y306620D01*
X109545D01*
X109890Y306465D01*
X110120Y306155D01*
X110196Y305793D01*
X110120Y305432D01*
X109928Y305174D01*
X109622Y305019D01*
X109354Y304967D01*
G01X142413Y305967D02*
Y309065D01*
X141455D01*
X141148Y308910D01*
X140957Y308704D01*
X140880Y308291D01*
X140957Y307878D01*
X141187Y307620D01*
X141455Y307465D01*
X142413D01*
G01X141455D02*
X140880Y305967D01*
G01X138549D02*
Y309065D01*
X139009Y308446D01*
G01Y305967D02*
X138089D01*
G01X136103Y306329D02*
X135834Y306070D01*
X135528Y305967D01*
X135221Y306070D01*
X134953Y306380D01*
X134762Y306845D01*
X134685Y307310D01*
Y307878D01*
X134762Y308342D01*
X134953Y308756D01*
X135183Y308962D01*
X135451Y309065D01*
X135758Y308962D01*
X135988Y308756D01*
X136141Y308446D01*
X136218Y308033D01*
X136141Y307671D01*
X135949Y307310D01*
X135719Y307103D01*
X135451Y307052D01*
X135145Y307155D01*
X134915Y307413D01*
X134685Y307878D01*
G01X132430Y305967D02*
X132354Y306639D01*
X132239Y307206D01*
X132085Y307723D01*
X131894Y308291D01*
X131587Y309065D01*
X133120D01*
G01X118804Y252807D02*
X119033Y252962D01*
X119302Y253065D01*
X119608D01*
X119953Y252910D01*
X120221Y252652D01*
X120413Y252342D01*
X120566Y251826D01*
X120604Y251361D01*
X120528Y250897D01*
X120413Y250587D01*
X120183Y250277D01*
X119915Y250070D01*
X119646Y249967D01*
X119378D01*
X119110Y250070D01*
X118880Y250225D01*
X118688Y250432D01*
G01X117277Y252549D02*
X117047Y252859D01*
X116779Y253014D01*
X116472Y253065D01*
X116089Y252962D01*
X115821Y252704D01*
X115744Y252394D01*
X115783Y252084D01*
X115936Y251826D01*
X116702Y251310D01*
X117047Y250948D01*
X117277Y250432D01*
X117353Y249967D01*
X115744D01*
G01X113528D02*
X113451Y250639D01*
X113336Y251206D01*
X113183Y251723D01*
X112991Y252291D01*
X112685Y253065D01*
X114218D01*
G01X110430Y249967D02*
X110354Y250639D01*
X110239Y251206D01*
X110085Y251723D01*
X109894Y252291D01*
X109587Y253065D01*
X111120D01*
G01X112935Y236941D02*
X115155D01*
X115620Y236787D01*
X115930Y236481D01*
X116033Y236098D01*
X115930Y235714D01*
X115620Y235408D01*
X115155Y235255D01*
X112935D01*
G01X116033Y232540D02*
X112935D01*
X115155Y233958D01*
Y232042D01*
G01X113451Y230630D02*
X113141Y230400D01*
X112986Y230132D01*
X112935Y229826D01*
X113038Y229443D01*
X113296Y229174D01*
X113606Y229098D01*
X113916Y229136D01*
X114174Y229289D01*
X114690Y230056D01*
X115052Y230400D01*
X115568Y230630D01*
X116033Y230707D01*
Y229098D01*
G01X124804Y215807D02*
X125033Y215962D01*
X125302Y216065D01*
X125608D01*
X125953Y215910D01*
X126221Y215652D01*
X126413Y215342D01*
X126566Y214826D01*
X126604Y214361D01*
X126528Y213897D01*
X126413Y213587D01*
X126183Y213277D01*
X125915Y213070D01*
X125646Y212967D01*
X125378D01*
X125110Y213070D01*
X124880Y213225D01*
X124688Y213432D01*
G01X123277Y215549D02*
X123047Y215859D01*
X122779Y216014D01*
X122472Y216065D01*
X122089Y215962D01*
X121821Y215704D01*
X121744Y215394D01*
X121783Y215084D01*
X121936Y214826D01*
X122702Y214310D01*
X123047Y213948D01*
X123277Y213432D01*
X123353Y212967D01*
X121744D01*
G01X120103Y213329D02*
X119834Y213070D01*
X119528Y212967D01*
X119221Y213070D01*
X118953Y213380D01*
X118762Y213845D01*
X118685Y214310D01*
Y214878D01*
X118762Y215342D01*
X118953Y215756D01*
X119183Y215962D01*
X119451Y216065D01*
X119758Y215962D01*
X119988Y215756D01*
X120141Y215446D01*
X120218Y215033D01*
X120141Y214671D01*
X119949Y214310D01*
X119719Y214103D01*
X119451Y214052D01*
X119145Y214155D01*
X118915Y214413D01*
X118685Y214878D01*
G01X116354Y216065D02*
X116660Y215962D01*
X116890Y215704D01*
X117043Y215394D01*
X117158Y214981D01*
X117196Y214516D01*
X117158Y214052D01*
X117043Y213639D01*
X116890Y213329D01*
X116660Y213070D01*
X116354Y212967D01*
X116047Y213070D01*
X115817Y213329D01*
X115664Y213639D01*
X115549Y214052D01*
X115511Y214516D01*
X115549Y214981D01*
X115664Y215394D01*
X115817Y215704D01*
X116047Y215962D01*
X116354Y216065D01*
G01X124804Y215807D02*
X125033Y215962D01*
X125302Y216065D01*
X125608D01*
X125953Y215910D01*
X126221Y215652D01*
X126413Y215342D01*
X126566Y214826D01*
X126604Y214361D01*
X126528Y213897D01*
X126413Y213587D01*
X126183Y213277D01*
X125915Y213070D01*
X125646Y212967D01*
X125378D01*
X125110Y213070D01*
X124880Y213225D01*
X124688Y213432D01*
G01X123277Y215549D02*
X123047Y215859D01*
X122779Y216014D01*
X122472Y216065D01*
X122089Y215962D01*
X121821Y215704D01*
X121744Y215394D01*
X121783Y215084D01*
X121936Y214826D01*
X122702Y214310D01*
X123047Y213948D01*
X123277Y213432D01*
X123353Y212967D01*
X121744D01*
G01X120103Y213329D02*
X119834Y213070D01*
X119528Y212967D01*
X119221Y213070D01*
X118953Y213380D01*
X118762Y213845D01*
X118685Y214310D01*
Y214878D01*
X118762Y215342D01*
X118953Y215756D01*
X119183Y215962D01*
X119451Y216065D01*
X119758Y215962D01*
X119988Y215756D01*
X120141Y215446D01*
X120218Y215033D01*
X120141Y214671D01*
X119949Y214310D01*
X119719Y214103D01*
X119451Y214052D01*
X119145Y214155D01*
X118915Y214413D01*
X118685Y214878D01*
G01X116354Y216065D02*
X116660Y215962D01*
X116890Y215704D01*
X117043Y215394D01*
X117158Y214981D01*
X117196Y214516D01*
X117158Y214052D01*
X117043Y213639D01*
X116890Y213329D01*
X116660Y213070D01*
X116354Y212967D01*
X116047Y213070D01*
X115817Y213329D01*
X115664Y213639D01*
X115549Y214052D01*
X115511Y214516D01*
X115549Y214981D01*
X115664Y215394D01*
X115817Y215704D01*
X116047Y215962D01*
X116354Y216065D01*
G01X135804Y205807D02*
X136033Y205962D01*
X136302Y206065D01*
X136608D01*
X136953Y205910D01*
X137221Y205652D01*
X137413Y205342D01*
X137566Y204826D01*
X137604Y204361D01*
X137528Y203897D01*
X137413Y203587D01*
X137183Y203277D01*
X136915Y203070D01*
X136646Y202967D01*
X136378D01*
X136110Y203070D01*
X135880Y203225D01*
X135688Y203432D01*
G01X134277Y205549D02*
X134047Y205859D01*
X133779Y206014D01*
X133472Y206065D01*
X133089Y205962D01*
X132821Y205704D01*
X132744Y205394D01*
X132782Y205084D01*
X132936Y204826D01*
X133702Y204310D01*
X134047Y203948D01*
X134277Y203432D01*
X134353Y202967D01*
X132744D01*
G01X131294Y203432D02*
X131064Y203174D01*
X130796Y203019D01*
X130451Y202967D01*
X130106Y203070D01*
X129838Y203277D01*
X129647Y203638D01*
X129608Y204052D01*
X129685Y204465D01*
X129877Y204723D01*
X130145Y204929D01*
X130413Y204981D01*
X130681Y204929D01*
X131026Y204723D01*
X130911Y206065D01*
X129877D01*
G01X128082Y204258D02*
X127813Y204620D01*
X127584Y204826D01*
X127277Y204929D01*
X127009Y204826D01*
X126817Y204620D01*
X126664Y204310D01*
X126626Y203948D01*
X126664Y203638D01*
X126817Y203329D01*
X127047Y203070D01*
X127315Y202967D01*
X127622Y203070D01*
X127890Y203380D01*
X128043Y203845D01*
X128082Y204361D01*
X128005Y205033D01*
X127890Y205394D01*
X127698Y205755D01*
X127430Y206014D01*
X127162Y206065D01*
X126894Y205962D01*
X126702Y205704D01*
M02*
