G04 ================== begin FILE IDENTIFICATION RECORD ==================*
G04 Layout Name:  D:/project/IRISking/ikemb-0002/project/hardware/keyboard/keyboard.brd*
G04 Film Name:    BOTTOM*
G04 File Format:  Gerber RS274X*
G04 File Origin:  15.7-p007*
G04 Origin Date:  Tue Nov 17 15:33:27 2009*
G04 *
G04 Layer:  BOARD GEOMETRY/OUTLINE*
G04 Layer:  ETCH/BOTTOM*
G04 Layer:  PIN/BOTTOM*
G04 Layer:  VIA CLASS/BOTTOM*
G04 *
G04 Offset:    (0.0000 0.0000)*
G04 Mirror:    No*
G04 Mode:      Positive*
G04 Rotation:  0*
G04 FullContactRelief:  No*
G04 UndefLineWidth:     8.0000*
G04 ================== end FILE IDENTIFICATION RECORD ====================*
%FSLAX55Y55*MOIN*%
%IR0*IPPOS*OFA0.00000B0.00000*MIA0B0*SFA1.00000B1.00000*%
%ADD11C,.04*%
%ADD14C,.062*%
%ADD12R,.04X.03*%
%ADD15R,.062X.062*%
%ADD13C,.11*%
%ADD10C,.14*%
%ADD16C,.01*%
%ADD17C,.02*%
%ADD18C,.008*%
G75*
%LPD*%
G75*
G54D10*
X13780Y122047D03*
X124016Y9843D03*
Y218504D03*
X234252Y122047D03*
G54D11*
X49055Y31795D03*
X51220Y75530D03*
X49055Y118175D03*
Y162835D03*
G54D12*
X45819Y38976D03*
X51819D03*
X45819Y82677D03*
X51819D03*
X46213Y125984D03*
X52213D03*
X45819Y168898D03*
X51819D03*
G54D13*
X74803Y216535D03*
X157480Y11811D03*
X173228Y216535D03*
G54D14*
X115276Y255118D03*
Y265118D03*
X105276Y255118D03*
Y265118D03*
X145276D03*
X135276Y255118D03*
Y265118D03*
X125276Y255118D03*
Y265118D03*
G54D15*
X145276Y255118D03*
G54D16*
G01X49055Y31795D02*
Y36213D01*
X51819Y38976D01*
G01X51220Y75530D02*
Y82078D01*
X51819Y82677D01*
G01X49055Y118175D02*
Y122827D01*
X52213Y125984D01*
G01X49055Y162835D02*
Y166134D01*
X51819Y168898D01*
G54D17*
G01X45819Y82677D02*
X40380Y77238D01*
Y44415D01*
X45819Y38976D01*
G01X46213Y125984D02*
X45014D01*
X40380Y121350D01*
Y88116D01*
X45819Y82677D01*
G01Y168898D02*
Y167999D01*
X40380Y162560D01*
Y131817D01*
X46213Y125984D01*
G01X45819Y168898D02*
X46520Y169599D01*
Y177020D01*
X67480Y197980D01*
X130380D01*
X162560Y230160D01*
Y250940D01*
X148382Y265118D01*
X145276D01*
G54D18*
G01X0Y0D02*
X248032D01*
Y228346D01*
X208661D01*
Y287402D01*
X39370D01*
Y228346D01*
X0D01*
Y0D01*
M02*
