G04 ================== begin FILE IDENTIFICATION RECORD ==================*
G04 Layout Name:  D:/project/IRISking/ikemb-0002/project/hardware/keyboard/keyboard.brd*
G04 Film Name:    SOLDER_TOP*
G04 File Format:  Gerber RS274X*
G04 File Origin:  15.7-p007*
G04 Origin Date:  Tue Nov 17 15:33:27 2009*
G04 *
G04 Layer:  VIA CLASS/SOLDERMASK_TOP*
G04 Layer:  PIN/SOLDERMASK_TOP*
G04 Layer:  BOARD GEOMETRY/OUTLINE*
G04 *
G04 Offset:    (0.0000 0.0000)*
G04 Mirror:    No*
G04 Mode:      Positive*
G04 Rotation:  0*
G04 FullContactRelief:  No*
G04 UndefLineWidth:     8.0000*
G04 ================== end FILE IDENTIFICATION RECORD ====================*
%FSLAX55Y55*MOIN*%
%IR0*IPPOS*OFA0.00000B0.00000*MIA0B0*SFA1.00000B1.00000*%
%ADD12R,.108X.058*%
%ADD14C,.07*%
%ADD11C,.048*%
%ADD15R,.07X.07*%
%ADD13C,.11*%
%ADD10C,.15*%
%ADD16C,.008*%
G75*
%LPD*%
G75*
G54D10*
X13780Y122047D03*
X124016Y9843D03*
Y218504D03*
X234252Y122047D03*
G54D11*
X49055Y31795D03*
X51220Y75530D03*
X49055Y118175D03*
Y162835D03*
G54D12*
Y39213D03*
Y49213D03*
Y82520D03*
Y92520D03*
Y125827D03*
Y135827D03*
Y169134D03*
Y179134D03*
X69055Y49213D03*
Y39213D03*
Y82520D03*
Y92520D03*
Y135827D03*
Y125827D03*
Y169134D03*
Y179134D03*
X114016Y39213D03*
Y49213D03*
Y82520D03*
Y92520D03*
Y125827D03*
Y135827D03*
Y169134D03*
Y179134D03*
X134016Y49213D03*
Y39213D03*
Y82520D03*
Y92520D03*
Y135827D03*
Y125827D03*
Y169134D03*
Y179134D03*
X178976Y39213D03*
Y49213D03*
X198976D03*
Y39213D03*
X178976Y82520D03*
X198976D03*
X178976Y92520D03*
X198976D03*
X178976Y125827D03*
Y135827D03*
X198976D03*
Y125827D03*
X178976Y169134D03*
X198976D03*
X178976Y179134D03*
X198976D03*
G54D13*
X74803Y216535D03*
X157480Y11811D03*
X173228Y216535D03*
G54D14*
X115276Y255118D03*
Y265118D03*
X105276Y255118D03*
Y265118D03*
X145276D03*
X135276Y255118D03*
Y265118D03*
X125276Y255118D03*
Y265118D03*
G54D15*
X145276Y255118D03*
G54D16*
G01X0Y0D02*
X248032D01*
Y228346D01*
X208661D01*
Y287402D01*
X39370D01*
Y228346D01*
X0D01*
Y0D01*
M02*
