G04 ================== begin FILE IDENTIFICATION RECORD ==================*
G04 Layout Name:  D:/project/IRISking/ikemb-0002/project/hardware/keyboard/keyboard.brd*
G04 Film Name:    TOP*
G04 File Format:  Gerber RS274X*
G04 File Origin:  15.7-p007*
G04 Origin Date:  Tue Nov 17 15:33:27 2009*
G04 *
G04 Layer:  BOARD GEOMETRY/OUTLINE*
G04 Layer:  ETCH/TOP*
G04 Layer:  PIN/TOP*
G04 Layer:  VIA CLASS/TOP*
G04 *
G04 Offset:    (0.0000 0.0000)*
G04 Mirror:    No*
G04 Mode:      Positive*
G04 Rotation:  0*
G04 FullContactRelief:  No*
G04 UndefLineWidth:     8.0000*
G04 ================== end FILE IDENTIFICATION RECORD ====================*
%FSLAX55Y55*MOIN*%
%IR0*IPPOS*OFA0.00000B0.00000*MIA0B0*SFA1.00000B1.00000*%
%ADD11C,.04*%
%ADD14C,.062*%
%ADD15R,.062X.062*%
%ADD13C,.11*%
%ADD10C,.14*%
%ADD12R,.1X.05*%
%ADD16C,.01*%
%ADD17C,.008*%
G75*
%LPD*%
G75*
G54D10*
X13780Y122047D03*
X124016Y9843D03*
Y218504D03*
X234252Y122047D03*
G54D11*
X49055Y31795D03*
X51220Y75530D03*
X49055Y118175D03*
Y162835D03*
G54D12*
Y39213D03*
Y49213D03*
Y82520D03*
Y92520D03*
Y125827D03*
Y135827D03*
Y169134D03*
Y179134D03*
X69055Y49213D03*
Y39213D03*
Y82520D03*
Y92520D03*
Y135827D03*
Y125827D03*
Y169134D03*
Y179134D03*
X114016Y39213D03*
Y49213D03*
Y82520D03*
Y92520D03*
Y125827D03*
Y135827D03*
Y169134D03*
Y179134D03*
X134016Y49213D03*
Y39213D03*
Y82520D03*
Y92520D03*
Y135827D03*
Y125827D03*
Y169134D03*
Y179134D03*
X178976Y39213D03*
Y49213D03*
X198976D03*
Y39213D03*
X178976Y82520D03*
X198976D03*
X178976Y92520D03*
X198976D03*
X178976Y125827D03*
Y135827D03*
X198976D03*
Y125827D03*
X178976Y169134D03*
X198976D03*
X178976Y179134D03*
X198976D03*
G54D13*
X74803Y216535D03*
X157480Y11811D03*
X173228Y216535D03*
G54D14*
X115276Y255118D03*
Y265118D03*
X105276Y255118D03*
Y265118D03*
X145276D03*
X135276Y255118D03*
Y265118D03*
X125276Y255118D03*
Y265118D03*
G54D15*
X145276Y255118D03*
G54D16*
G01X49055Y49213D02*
X46555D01*
X36618Y59150D01*
Y86582D01*
X42555Y92520D01*
X46870D01*
G01X49055Y39213D02*
Y31795D01*
G01X114016Y39213D02*
X93555D01*
X88418Y44350D01*
X62693D01*
X57555Y39213D01*
X49055D01*
G01Y82520D02*
Y77695D01*
X51220Y75530D01*
G01X114016Y82520D02*
X93555D01*
X89555Y86520D01*
X61555D01*
X57555Y82520D01*
X49055D01*
G01X109780Y90260D02*
X108040Y88520D01*
X42826D01*
X40586Y86280D01*
Y71804D01*
X47177Y65213D01*
X73555D01*
X89555Y49213D01*
X114016D01*
G01X40200Y135827D02*
Y119540D01*
X45555Y114185D01*
Y114120D01*
X48870Y110805D01*
Y94520D01*
X46870Y92520D01*
G01D02*
X49055D01*
G01X40200Y135827D02*
X36680Y139347D01*
Y173634D01*
X42180Y179134D01*
X49055D01*
G01Y135827D02*
X40200D01*
G01X57555Y125827D02*
X49055D01*
G01D02*
Y118175D01*
G01Y169134D02*
Y162835D01*
G01Y169134D02*
X57555D01*
X62541Y174120D01*
X88569D01*
X93555Y169134D01*
X105276D01*
G01X57555Y125827D02*
X59350Y127622D01*
Y142032D01*
X40618Y160764D01*
Y170634D01*
X45118Y175134D01*
X54679D01*
X84679Y205134D01*
Y244279D01*
X100370Y259970D01*
X110424D01*
X115276Y255118D01*
G01X135276Y265118D02*
Y269354D01*
X128974Y275656D01*
X107555D01*
X57555Y225656D01*
Y185134D01*
X51555Y179134D01*
X49055D01*
G01X114016Y125827D02*
X105293D01*
X100190Y130930D01*
X62700D01*
X57597Y125827D01*
X57555D01*
G01X114016Y92520D02*
X111756Y90260D01*
X109780D01*
G01D02*
X114570Y95050D01*
Y103074D01*
X123806Y112310D01*
X179690D01*
X186590Y119210D01*
Y127932D01*
X184695Y129827D01*
X171976D01*
X166476Y135327D01*
Y139827D01*
G01X105276Y169134D02*
Y255118D01*
G01Y169134D02*
X114016D01*
G01X178976Y39213D02*
X158516D01*
X153378Y44350D01*
X127653D01*
X122516Y39213D01*
X114016D01*
G01X152516Y86520D02*
X151215Y87820D01*
X122130D01*
X116830Y82520D01*
X114016D01*
G01X166476Y139827D02*
X165073Y141230D01*
X127919D01*
X122516Y135827D01*
X114016D01*
G01Y125827D02*
X122516D01*
X127259Y130570D01*
X153773D01*
X158516Y125827D01*
X178976D01*
G01X114016Y169134D02*
X122516D01*
X127502Y174120D01*
X153530D01*
X158516Y169134D01*
X178976D01*
G01X114016Y179134D02*
X120516D01*
X128516Y187134D01*
X132516D01*
G01D02*
Y225084D01*
X120676Y236924D01*
Y260518D01*
X125276Y265118D01*
G01X166476Y139827D02*
X186230Y159580D01*
Y171599D01*
X184695Y173134D01*
X164516D01*
X150516Y187134D01*
X132516D01*
G01X125276Y255118D02*
Y243600D01*
X164372Y204504D01*
Y183758D01*
X172996Y175134D01*
X185976D01*
X188760Y172350D01*
Y155548D01*
X171476Y138264D01*
Y133389D01*
X173039Y131827D01*
X185976D01*
X189120Y128683D01*
Y116100D01*
X160570Y87550D01*
X153546D01*
X152516Y86520D01*
G01X115276Y265118D02*
X121844Y271687D01*
X127739D01*
X129876Y269550D01*
Y249605D01*
X185476Y194004D01*
Y179134D01*
G01X178976Y39213D02*
X185793D01*
X189670Y43090D01*
Y58630D01*
X209550Y78510D01*
Y190187D01*
X151976Y247761D01*
X142633D01*
X135276Y255118D01*
G01X178976Y82520D02*
X156516D01*
X152516Y86520D01*
G01X185476Y92520D02*
Y53213D01*
X181476Y49213D01*
X178976D01*
G01X185476Y92520D02*
X191650Y98693D01*
Y135827D01*
G01X178976Y92520D02*
X185476D01*
G01X191650Y135827D02*
X178976D01*
G01X191650D02*
Y172960D01*
X185476Y179134D01*
G01D02*
X178976D01*
G54D17*
G01X0Y0D02*
X248032D01*
Y228346D01*
X208661D01*
Y287402D01*
X39370D01*
Y228346D01*
X0D01*
Y0D01*
M02*
