G04 ================== begin FILE IDENTIFICATION RECORD ==================*
G04 Layout Name:  E:/EMB002/project/hardware/POWER/Power_PPC_V3.brd*
G04 Film Name:    Silk_Top*
G04 File Format:  Gerber RS274X*
G04 File Origin:  15.7-p007*
G04 Origin Date:  Sat May 09 08:58:49 2009*
G04 *
G04 Layer:  REF DES/ASSEMBLY_TOP*
G04 Layer:  PACKAGE GEOMETRY/SILKSCREEN_TOP*
G04 Layer:  BOARD GEOMETRY/OUTLINE*
G04 *
G04 Offset:    (0.000 0.000)*
G04 Mirror:    No*
G04 Mode:      Positive*
G04 Rotation:  0*
G04 FullContactRelief:  No*
G04 UndefLineWidth:     8.000*
G04 ================== end FILE IDENTIFICATION RECORD ====================*
%FSLAX53Y53*MOIN*%
%IR0*IPPOS*OFA0.00000B0.00000*MIA0B0*SFA1.00000B1.00000*%
%ADD10C,.008*%
G75*
%LPD*%
G75*
G54D10*
G01X27282Y17888D02*
X19991D01*
Y15577D01*
X27296D01*
Y17888D01*
X27282D01*
G01X20562Y16343D02*
X20565Y16347D01*
X20566Y16351D01*
Y16356D01*
X20564Y16362D01*
X20560Y16366D01*
X20555Y16370D01*
X20546Y16372D01*
X20539Y16373D01*
X20531Y16372D01*
X20526Y16370D01*
X20521Y16366D01*
X20518Y16361D01*
X20516Y16357D01*
Y16353D01*
X20518Y16348D01*
X20520Y16344D01*
X20524Y16341D01*
G01Y16320D02*
X20520Y16316D01*
X20517Y16312D01*
X20516Y16306D01*
X20518Y16300D01*
X20521Y16296D01*
X20527Y16293D01*
X20534Y16292D01*
X20540Y16293D01*
X20545Y16297D01*
X20548Y16301D01*
X20549Y16305D01*
X20548Y16310D01*
X20545Y16315D01*
X20566Y16314D01*
Y16297D01*
G01X20516Y16247D02*
X20566D01*
X20530Y16271D01*
Y16239D01*
G01X21028Y16225D02*
Y16175D01*
X21053D01*
G01X21090D02*
X21091Y16186D01*
X21093Y16195D01*
X21096Y16204D01*
X21099Y16213D01*
X21104Y16225D01*
X21079D01*
G01X21202Y16368D02*
Y16418D01*
X21218D01*
X21223Y16416D01*
X21226Y16412D01*
X21228Y16406D01*
X21226Y16399D01*
X21223Y16395D01*
X21218Y16392D01*
X21202D01*
G01X21218D02*
X21228Y16368D01*
G01X21266D02*
Y16418D01*
X21258Y16408D01*
G01Y16368D02*
X21274D01*
G01X21316D02*
X21317Y16379D01*
X21319Y16388D01*
X21321Y16397D01*
X21325Y16406D01*
X21330Y16418D01*
X21304D01*
G01X20743Y15991D02*
X20746Y15986D01*
X20750Y15983D01*
X20754Y15981D01*
X20759Y15983D01*
X20763Y15986D01*
X20767Y15991D01*
X20768Y15998D01*
Y16031D01*
G01X20794Y16002D02*
X20799Y16008D01*
X20803Y16011D01*
X20808Y16013D01*
X20812Y16011D01*
X20815Y16008D01*
X20818Y16003D01*
X20819Y15997D01*
X20818Y15992D01*
X20815Y15987D01*
X20812Y15983D01*
X20807Y15981D01*
X20802Y15983D01*
X20798Y15988D01*
X20795Y15996D01*
X20794Y16004D01*
X20796Y16015D01*
X20798Y16021D01*
X20801Y16026D01*
X20805Y16030D01*
X20810Y16031D01*
X20814Y16030D01*
X20817Y16025D01*
G01X20395Y16288D02*
Y16218D01*
X20495D01*
Y16238D01*
Y16288D01*
G01X20395Y16469D02*
X20495D01*
Y16217D01*
X20395D01*
Y16469D01*
G01X21139Y16347D02*
Y16047D01*
X21469D01*
Y16347D01*
X21139D01*
G01X20395Y16340D02*
X20020D01*
G01X20041Y16140D02*
X20049D01*
Y16131D01*
X20047Y16128D01*
X20044Y16126D01*
X20040Y16125D01*
X20036Y16126D01*
X20034Y16128D01*
X20031Y16131D01*
X20030Y16134D01*
X20029Y16139D01*
Y16142D01*
X20030Y16145D01*
X20031Y16149D01*
X20034Y16152D01*
X20036Y16154D01*
X20039Y16156D01*
X20042D01*
X20045Y16155D01*
X20047Y16153D01*
G01X20061Y16125D02*
Y16156D01*
X20079Y16125D01*
Y16156D01*
G01X20093Y16125D02*
Y16156D01*
X20100D01*
X20103Y16154D01*
X20106Y16152D01*
X20107Y16149D01*
X20109Y16145D01*
X20109Y16140D01*
X20109Y16135D01*
X20107Y16131D01*
X20106Y16128D01*
X20103Y16126D01*
X20100Y16125D01*
X20093D01*
G01X20487Y16059D02*
X20546D01*
Y15960D01*
X21628D01*
Y16059D01*
X21687D01*
Y15547D01*
X20487D01*
Y16059D01*
G01X20558Y17010D02*
X20561Y17014D01*
X20562Y17018D01*
Y17023D01*
X20560Y17029D01*
X20556Y17033D01*
X20551Y17037D01*
X20542Y17039D01*
X20535Y17040D01*
X20527Y17039D01*
X20522Y17037D01*
X20517Y17033D01*
X20514Y17028D01*
X20512Y17024D01*
Y17020D01*
X20514Y17015D01*
X20516Y17011D01*
X20520Y17008D01*
G01Y16987D02*
X20516Y16983D01*
X20513Y16979D01*
X20512Y16973D01*
X20514Y16967D01*
X20517Y16963D01*
X20523Y16960D01*
X20530Y16959D01*
X20536Y16960D01*
X20541Y16964D01*
X20544Y16968D01*
X20545Y16972D01*
X20544Y16977D01*
X20541Y16982D01*
X20562Y16981D01*
Y16964D01*
G01X20533Y16934D02*
X20539Y16930D01*
X20542Y16926D01*
X20544Y16921D01*
X20542Y16916D01*
X20539Y16913D01*
X20534Y16911D01*
X20528Y16910D01*
X20523Y16911D01*
X20518Y16913D01*
X20514Y16917D01*
X20512Y16921D01*
X20514Y16926D01*
X20519Y16931D01*
X20527Y16933D01*
X20535Y16934D01*
X20546Y16933D01*
X20552Y16931D01*
X20557Y16928D01*
X20562Y16923D01*
X20562Y16919D01*
X20561Y16914D01*
X20556Y16911D01*
G01X20560Y17355D02*
X20563Y17359D01*
X20564Y17363D01*
Y17368D01*
X20562Y17374D01*
X20558Y17378D01*
X20553Y17382D01*
X20544Y17384D01*
X20537Y17385D01*
X20529Y17384D01*
X20524Y17382D01*
X20519Y17378D01*
X20516Y17373D01*
X20514Y17369D01*
Y17365D01*
X20516Y17360D01*
X20518Y17356D01*
X20522Y17353D01*
G01Y17332D02*
X20518Y17328D01*
X20515Y17324D01*
X20514Y17318D01*
X20516Y17312D01*
X20519Y17308D01*
X20525Y17305D01*
X20532Y17304D01*
X20538Y17305D01*
X20543Y17309D01*
X20546Y17313D01*
X20547Y17317D01*
X20546Y17322D01*
X20543Y17327D01*
X20564Y17326D01*
Y17309D01*
G01X20522Y17281D02*
X20518Y17277D01*
X20515Y17273D01*
X20514Y17267D01*
X20516Y17261D01*
X20519Y17257D01*
X20525Y17254D01*
X20532Y17253D01*
X20538Y17254D01*
X20543Y17258D01*
X20546Y17262D01*
X20547Y17266D01*
X20546Y17271D01*
X20543Y17277D01*
X20564Y17275D01*
Y17258D01*
G01X21199Y16907D02*
Y16957D01*
X21215D01*
X21220Y16955D01*
X21223Y16951D01*
X21225Y16945D01*
X21223Y16938D01*
X21220Y16934D01*
X21215Y16931D01*
X21199D01*
G01X21215D02*
X21225Y16907D01*
G01X21263D02*
Y16957D01*
X21255Y16947D01*
G01Y16907D02*
X21271D01*
G01X21302Y16949D02*
X21306Y16954D01*
X21310Y16957D01*
X21315Y16957D01*
X21322Y16956D01*
X21326Y16951D01*
X21327Y16946D01*
X21327Y16941D01*
X21324Y16937D01*
X21311Y16929D01*
X21306Y16923D01*
X21302Y16915D01*
X21301Y16907D01*
X21327D01*
G01X21020Y17354D02*
Y17304D01*
X21045D01*
G01X21070Y17312D02*
X21073Y17308D01*
X21078Y17305D01*
X21083Y17304D01*
X21089Y17306D01*
X21094Y17309D01*
X21097Y17315D01*
X21097Y17322D01*
X21096Y17328D01*
X21093Y17333D01*
X21089Y17336D01*
X21084Y17337D01*
X21080Y17336D01*
X21074Y17333D01*
X21076Y17354D01*
X21093D01*
G01X21020Y16783D02*
Y16733D01*
X21045D01*
G01X21071Y16754D02*
X21076Y16760D01*
X21080Y16763D01*
X21085Y16765D01*
X21089Y16763D01*
X21092Y16760D01*
X21095Y16755D01*
X21096Y16749D01*
X21095Y16744D01*
X21092Y16739D01*
X21089Y16735D01*
X21084Y16733D01*
X21079Y16735D01*
X21075Y16740D01*
X21072Y16748D01*
X21071Y16756D01*
X21073Y16767D01*
X21075Y16772D01*
X21078Y16778D01*
X21082Y16782D01*
X21087Y16783D01*
X21091Y16782D01*
X21094Y16777D01*
G01X20024Y17330D02*
Y17361D01*
X20019Y17354D01*
G01Y17330D02*
X20028D01*
G01X20055Y17329D02*
X20054Y17329D01*
Y17330D01*
X20055Y17331D01*
X20055Y17330D01*
Y17329D01*
G01X20085Y17330D02*
X20088Y17330D01*
X20091Y17332D01*
X20093Y17334D01*
X20094Y17338D01*
X20093Y17342D01*
X20091Y17345D01*
X20087Y17346D01*
X20084D01*
X20081Y17347D01*
X20079Y17350D01*
X20079Y17353D01*
X20080Y17357D01*
X20082Y17360D01*
X20085Y17361D01*
X20089Y17360D01*
X20091Y17357D01*
X20092Y17353D01*
X20092Y17350D01*
X20090Y17347D01*
X20087Y17346D01*
X20084D01*
X20080Y17345D01*
X20078Y17342D01*
X20077Y17338D01*
X20078Y17334D01*
X20080Y17332D01*
X20083Y17330D01*
X20085Y17330D01*
G01X20107Y17361D02*
X20116Y17330D01*
X20126Y17361D01*
G01X20495Y17549D02*
X20395D01*
Y17565D01*
X20495D01*
Y17549D01*
G01D02*
X20395D01*
Y17801D01*
X20495D01*
Y17549D01*
G01X20395Y17394D02*
X20495D01*
Y17378D01*
X20395D01*
Y17394D01*
G01D02*
X20495D01*
Y17142D01*
X20395D01*
Y17394D01*
G01Y17213D02*
Y17143D01*
X20495D01*
Y17163D01*
Y17213D01*
G01Y17070D02*
Y17140D01*
X20395D01*
Y17120D01*
Y17070D01*
G01X20495Y16889D02*
X20395D01*
Y17141D01*
X20495D01*
Y16889D01*
G01D02*
X20395D01*
Y16905D01*
X20495D01*
Y16889D01*
G01X20395Y16469D02*
X20495D01*
Y16453D01*
X20395D01*
Y16469D01*
G01X21139Y17468D02*
Y17168D01*
X21469D01*
Y17468D01*
X21139D01*
G01X20395Y16640D02*
X20020D01*
G01X20395Y16740D02*
X20020D01*
G01X20225Y17440D02*
Y17535D01*
G01X20395Y17040D02*
X20020D01*
G01X20395Y17240D02*
X20020D01*
G01X20395Y17440D02*
X20020D01*
G01X20015Y16486D02*
X20017Y16482D01*
X20020Y16480D01*
X20024Y16480D01*
X20027Y16480D01*
X20030Y16483D01*
X20032Y16486D01*
X20032Y16489D01*
X20032Y16493D01*
X20029Y16495D01*
X20026Y16496D01*
X20023D01*
G01X20026D02*
X20029Y16498D01*
X20030Y16500D01*
X20031Y16503D01*
X20030Y16507D01*
X20029Y16509D01*
X20025Y16511D01*
X20022Y16510D01*
X20018Y16508D01*
G01X20055Y16479D02*
X20054Y16479D01*
Y16480D01*
X20055Y16481D01*
X20055Y16480D01*
Y16479D01*
G01X20077Y16486D02*
X20079Y16482D01*
X20082Y16480D01*
X20086Y16480D01*
X20089Y16480D01*
X20092Y16483D01*
X20094Y16486D01*
X20094Y16489D01*
X20094Y16493D01*
X20091Y16495D01*
X20088Y16496D01*
X20085D01*
G01X20088D02*
X20090Y16498D01*
X20092Y16500D01*
X20093Y16503D01*
X20092Y16507D01*
X20090Y16509D01*
X20087Y16511D01*
X20084Y16510D01*
X20080Y16508D01*
G01X20107Y16511D02*
X20116Y16480D01*
X20126Y16511D01*
G01X20041Y16695D02*
X20049D01*
Y16686D01*
X20047Y16683D01*
X20044Y16681D01*
X20040Y16680D01*
X20036Y16681D01*
X20034Y16683D01*
X20031Y16686D01*
X20030Y16689D01*
X20029Y16694D01*
Y16697D01*
X20030Y16700D01*
X20031Y16704D01*
X20034Y16707D01*
X20036Y16709D01*
X20039Y16711D01*
X20042D01*
X20045Y16710D01*
X20047Y16708D01*
G01X20061Y16680D02*
Y16711D01*
X20079Y16680D01*
Y16711D01*
G01X20093Y16680D02*
Y16711D01*
X20100D01*
X20103Y16709D01*
X20106Y16707D01*
X20107Y16704D01*
X20109Y16700D01*
X20109Y16695D01*
X20109Y16690D01*
X20107Y16686D01*
X20106Y16683D01*
X20103Y16681D01*
X20100Y16680D01*
X20093D01*
G01X20024Y16875D02*
Y16906D01*
X20019Y16899D01*
G01Y16875D02*
X20028D01*
G01X20055Y16874D02*
X20054Y16874D01*
Y16875D01*
X20055Y16876D01*
X20055Y16875D01*
Y16874D01*
G01X20090Y16875D02*
Y16906D01*
X20076Y16883D01*
X20095D01*
G01X20107Y16906D02*
X20116Y16875D01*
X20126Y16906D01*
G01X20041Y17145D02*
X20049D01*
Y17136D01*
X20047Y17133D01*
X20044Y17131D01*
X20040Y17130D01*
X20036Y17131D01*
X20034Y17133D01*
X20031Y17136D01*
X20030Y17139D01*
X20029Y17144D01*
Y17147D01*
X20030Y17150D01*
X20031Y17154D01*
X20034Y17157D01*
X20036Y17159D01*
X20039Y17161D01*
X20042D01*
X20045Y17160D01*
X20047Y17158D01*
G01X20061Y17130D02*
Y17161D01*
X20079Y17130D01*
Y17161D01*
G01X20093Y17130D02*
Y17161D01*
X20100D01*
X20103Y17159D01*
X20106Y17157D01*
X20107Y17154D01*
X20109Y17150D01*
X20109Y17145D01*
X20109Y17140D01*
X20107Y17136D01*
X20106Y17133D01*
X20103Y17131D01*
X20100Y17130D01*
X20093D01*
G01X20361Y17490D02*
X20369D01*
Y17481D01*
X20367Y17478D01*
X20364Y17476D01*
X20360Y17475D01*
X20356Y17476D01*
X20354Y17478D01*
X20351Y17481D01*
X20350Y17484D01*
X20349Y17489D01*
Y17492D01*
X20350Y17495D01*
X20351Y17499D01*
X20354Y17502D01*
X20356Y17504D01*
X20359Y17506D01*
X20362D01*
X20365Y17505D01*
X20367Y17503D01*
G01X20381Y17475D02*
Y17506D01*
X20399Y17475D01*
Y17506D01*
G01X20413Y17475D02*
Y17506D01*
X20420D01*
X20423Y17504D01*
X20426Y17502D01*
X20427Y17499D01*
X20429Y17495D01*
X20429Y17490D01*
X20429Y17485D01*
X20427Y17481D01*
X20426Y17478D01*
X20423Y17476D01*
X20420Y17475D01*
X20413D01*
G01X20027Y17505D02*
X20029Y17509D01*
X20032Y17510D01*
X20035Y17511D01*
X20039Y17510D01*
X20041Y17507D01*
X20042Y17504D01*
X20042Y17501D01*
X20040Y17498D01*
X20032Y17493D01*
X20029Y17489D01*
X20027Y17484D01*
X20026Y17480D01*
X20042D01*
G01X20058Y17505D02*
X20060Y17509D01*
X20063Y17510D01*
X20066Y17511D01*
X20070Y17510D01*
X20072Y17507D01*
X20073Y17504D01*
X20073Y17501D01*
X20071Y17498D01*
X20063Y17493D01*
X20060Y17489D01*
X20058Y17484D01*
X20057Y17480D01*
X20073D01*
G01X20086Y17511D02*
X20096Y17480D01*
X20106Y17511D01*
G01X21139Y16888D02*
Y16588D01*
X21469D01*
Y16888D01*
X21139D01*
G01X20085Y17640D02*
X20165D01*
X20125Y17600D01*
X20085Y17640D01*
G01X20715Y17688D02*
Y17638D01*
X20740D01*
G01X20768Y17644D02*
X20772Y17640D01*
X20777Y17638D01*
X20782Y17640D01*
X20787Y17645D01*
X20790Y17652D01*
X20791Y17660D01*
Y17669D01*
X20790Y17677D01*
X20787Y17683D01*
X20783Y17687D01*
X20778Y17688D01*
X20773Y17687D01*
X20770Y17683D01*
X20767Y17678D01*
X20766Y17672D01*
X20767Y17666D01*
X20770Y17660D01*
X20774Y17657D01*
X20778Y17656D01*
X20784Y17657D01*
X20787Y17662D01*
X20791Y17669D01*
G01X20559Y17712D02*
X20562Y17716D01*
X20563Y17720D01*
Y17725D01*
X20561Y17731D01*
X20557Y17735D01*
X20552Y17739D01*
X20543Y17741D01*
X20536Y17742D01*
X20528Y17741D01*
X20523Y17739D01*
X20518Y17735D01*
X20515Y17730D01*
X20513Y17726D01*
Y17722D01*
X20515Y17717D01*
X20517Y17713D01*
X20521Y17710D01*
G01Y17689D02*
X20517Y17685D01*
X20514Y17681D01*
X20513Y17675D01*
X20515Y17669D01*
X20518Y17665D01*
X20524Y17662D01*
X20531Y17661D01*
X20537Y17662D01*
X20542Y17666D01*
X20545Y17670D01*
X20546Y17674D01*
X20545Y17679D01*
X20542Y17684D01*
X20563Y17683D01*
Y17666D01*
G01X20519Y17635D02*
X20515Y17630D01*
X20513Y17625D01*
X20515Y17620D01*
X20520Y17616D01*
X20528Y17613D01*
X20535Y17611D01*
X20544D01*
X20552Y17613D01*
X20558Y17616D01*
X20562Y17620D01*
X20563Y17624D01*
X20562Y17629D01*
X20558Y17633D01*
X20553Y17635D01*
X20547Y17637D01*
X20541Y17635D01*
X20535Y17632D01*
X20532Y17628D01*
X20531Y17624D01*
X20532Y17619D01*
X20537Y17615D01*
X20544Y17611D01*
G01X20806Y17712D02*
X20876D01*
Y17812D01*
X20856D01*
X20806D01*
G01X20625Y17712D02*
Y17812D01*
X20877D01*
Y17712D01*
X20625D01*
G01D02*
Y17812D01*
X20641D01*
Y17712D01*
X20625D01*
G01X20495Y17730D02*
Y17800D01*
X20395D01*
Y17780D01*
Y17730D01*
G01X22108Y16239D02*
X22111Y16243D01*
X22112Y16247D01*
Y16252D01*
X22110Y16258D01*
X22106Y16262D01*
X22101Y16266D01*
X22092Y16268D01*
X22085Y16269D01*
X22077Y16268D01*
X22072Y16266D01*
X22067Y16262D01*
X22064Y16257D01*
X22062Y16253D01*
Y16249D01*
X22064Y16244D01*
X22066Y16240D01*
X22070Y16237D01*
G01X22083Y16214D02*
X22089Y16210D01*
X22092Y16206D01*
X22094Y16201D01*
X22092Y16196D01*
X22089Y16193D01*
X22084Y16191D01*
X22078Y16190D01*
X22073Y16191D01*
X22068Y16193D01*
X22064Y16197D01*
X22062Y16201D01*
X22064Y16206D01*
X22069Y16211D01*
X22076Y16213D01*
X22085Y16214D01*
X22096Y16213D01*
X22102Y16211D01*
X22107Y16208D01*
X22112Y16203D01*
X22112Y16199D01*
X22111Y16194D01*
X22106Y16191D01*
G01X22062Y16152D02*
X22073Y16151D01*
X22082Y16149D01*
X22091Y16147D01*
X22100Y16143D01*
X22112Y16138D01*
Y16164D01*
G01X22035Y16331D02*
X22031Y16334D01*
X22027Y16335D01*
X22022D01*
X22016Y16333D01*
X22012Y16329D01*
X22008Y16324D01*
X22006Y16315D01*
X22005Y16308D01*
X22006Y16300D01*
X22008Y16295D01*
X22012Y16290D01*
X22017Y16287D01*
X22021Y16285D01*
X22025D01*
X22030Y16287D01*
X22034Y16289D01*
X22037Y16293D01*
G01X22060Y16306D02*
X22064Y16312D01*
X22068Y16315D01*
X22073Y16317D01*
X22078Y16315D01*
X22081Y16312D01*
X22083Y16307D01*
X22084Y16301D01*
X22083Y16296D01*
X22081Y16291D01*
X22077Y16287D01*
X22073Y16285D01*
X22068Y16287D01*
X22063Y16292D01*
X22061Y16300D01*
X22060Y16308D01*
X22061Y16319D01*
X22063Y16324D01*
X22066Y16330D01*
X22071Y16335D01*
X22075Y16335D01*
X22080Y16334D01*
X22083Y16329D01*
G01X22131Y16285D02*
Y16335D01*
X22107Y16300D01*
X22139D01*
G01X22064Y16396D02*
X22060Y16399D01*
X22056Y16400D01*
X22051D01*
X22045Y16398D01*
X22041Y16394D01*
X22037Y16389D01*
X22035Y16380D01*
X22034Y16373D01*
X22035Y16365D01*
X22037Y16360D01*
X22041Y16355D01*
X22046Y16352D01*
X22050Y16350D01*
X22054D01*
X22059Y16352D01*
X22063Y16354D01*
X22066Y16358D01*
G01X22087D02*
X22091Y16354D01*
X22095Y16351D01*
X22101Y16350D01*
X22107Y16352D01*
X22111Y16355D01*
X22114Y16361D01*
X22115Y16368D01*
X22114Y16374D01*
X22110Y16379D01*
X22106Y16382D01*
X22102Y16383D01*
X22097Y16382D01*
X22092Y16379D01*
X22093Y16400D01*
X22110D01*
G01X22140Y16392D02*
X22144Y16397D01*
X22148Y16400D01*
X22153Y16400D01*
X22160Y16399D01*
X22164Y16394D01*
X22165Y16390D01*
X22165Y16384D01*
X22162Y16380D01*
X22149Y16372D01*
X22144Y16366D01*
X22140Y16358D01*
X22139Y16350D01*
X22165D01*
G01X22063Y16457D02*
X22059Y16460D01*
X22055Y16461D01*
X22050D01*
X22044Y16459D01*
X22040Y16455D01*
X22036Y16450D01*
X22034Y16441D01*
X22033Y16434D01*
X22034Y16426D01*
X22036Y16421D01*
X22040Y16416D01*
X22045Y16413D01*
X22049Y16411D01*
X22053D01*
X22058Y16413D01*
X22062Y16415D01*
X22065Y16419D01*
G01X22086D02*
X22090Y16415D01*
X22094Y16412D01*
X22100Y16411D01*
X22106Y16413D01*
X22110Y16416D01*
X22113Y16422D01*
X22114Y16429D01*
X22113Y16435D01*
X22109Y16440D01*
X22105Y16443D01*
X22101Y16444D01*
X22096Y16443D01*
X22091Y16440D01*
X22092Y16461D01*
X22109D01*
G01X22151Y16411D02*
Y16461D01*
X22143Y16451D01*
G01Y16411D02*
X22159D01*
G01X21348Y16365D02*
Y16421D01*
X21472D01*
Y16365D01*
X21348D01*
G01X21375Y16418D02*
X21350D01*
Y16368D01*
X21360D01*
G01X21460D02*
X21470D01*
Y16418D01*
X21445D01*
G01X21985Y16268D02*
X22041D01*
Y16144D01*
X21985D01*
Y16268D01*
G01X22038Y16241D02*
Y16266D01*
X21988D01*
Y16256D01*
G01Y16156D02*
Y16146D01*
X22038D01*
Y16171D01*
G01X21884Y16339D02*
X21984D01*
Y16323D01*
X21884D01*
Y16339D01*
G01D02*
X21984D01*
Y16087D01*
X21884D01*
Y16339D01*
G01Y16158D02*
Y16088D01*
X21984D01*
Y16108D01*
Y16158D01*
G01X21991Y16354D02*
X22016D01*
Y16404D01*
X22006D01*
G01X21906D02*
X21896D01*
Y16354D01*
X21921D01*
G01X21616Y16228D02*
X21790D01*
Y16484D01*
X21616D01*
Y16228D01*
G01X22018Y16407D02*
Y16351D01*
X21894D01*
Y16407D01*
X22018D01*
G01X21244Y17607D02*
X21240Y17610D01*
X21236Y17611D01*
X21231D01*
X21225Y17609D01*
X21221Y17605D01*
X21217Y17600D01*
X21215Y17591D01*
X21214Y17584D01*
X21215Y17576D01*
X21217Y17571D01*
X21221Y17566D01*
X21226Y17563D01*
X21230Y17561D01*
X21234D01*
X21239Y17563D01*
X21243Y17565D01*
X21246Y17569D01*
G01X21269Y17603D02*
X21273Y17608D01*
X21277Y17610D01*
X21282Y17611D01*
X21289Y17610D01*
X21293Y17605D01*
X21294Y17600D01*
X21294Y17595D01*
X21291Y17591D01*
X21278Y17583D01*
X21273Y17577D01*
X21269Y17569D01*
X21268Y17561D01*
X21294D01*
G01X21340D02*
Y17611D01*
X21316Y17576D01*
X21348D01*
G01X21245Y17028D02*
X21241Y17031D01*
X21237Y17032D01*
X21232D01*
X21226Y17030D01*
X21222Y17026D01*
X21218Y17021D01*
X21216Y17012D01*
X21215Y17005D01*
X21216Y16997D01*
X21218Y16992D01*
X21222Y16987D01*
X21227Y16984D01*
X21231Y16982D01*
X21235D01*
X21240Y16984D01*
X21244Y16986D01*
X21247Y16990D01*
G01X21290Y16982D02*
Y17032D01*
X21266Y16996D01*
X21298D01*
G01X21333Y17032D02*
X21328Y17031D01*
X21324Y17026D01*
X21322Y17022D01*
X21320Y17015D01*
X21319Y17007D01*
X21320Y17000D01*
X21322Y16993D01*
X21324Y16988D01*
X21328Y16984D01*
X21333Y16982D01*
X21338Y16984D01*
X21342Y16988D01*
X21344Y16993D01*
X21346Y17000D01*
X21347Y17007D01*
X21346Y17015D01*
X21344Y17022D01*
X21342Y17026D01*
X21338Y17031D01*
X21333Y17032D01*
G01X21241Y16499D02*
X21237Y16502D01*
X21233Y16503D01*
X21228D01*
X21222Y16501D01*
X21218Y16497D01*
X21214Y16492D01*
X21212Y16483D01*
X21211Y16476D01*
X21212Y16468D01*
X21214Y16463D01*
X21218Y16458D01*
X21223Y16455D01*
X21227Y16453D01*
X21231D01*
X21236Y16455D01*
X21240Y16457D01*
X21243Y16461D01*
G01X21264D02*
X21268Y16457D01*
X21272Y16454D01*
X21278Y16453D01*
X21284Y16455D01*
X21288Y16458D01*
X21291Y16464D01*
X21292Y16471D01*
X21291Y16477D01*
X21287Y16482D01*
X21283Y16485D01*
X21279Y16486D01*
X21274Y16485D01*
X21269Y16482D01*
X21270Y16503D01*
X21287D01*
G01X21315Y16463D02*
X21319Y16457D01*
X21324Y16454D01*
X21330Y16453D01*
X21335Y16454D01*
X21340Y16458D01*
X21343Y16463D01*
X21344Y16468D01*
X21342Y16474D01*
X21338Y16478D01*
X21333Y16480D01*
X21328D01*
G01X21333D02*
X21337Y16482D01*
X21340Y16487D01*
X21342Y16492D01*
X21340Y16497D01*
X21337Y16501D01*
X21332Y16503D01*
X21326Y16502D01*
X21320Y16499D01*
G01X21943Y16522D02*
Y16572D01*
X21959D01*
X21964Y16570D01*
X21967Y16566D01*
X21969Y16560D01*
X21967Y16553D01*
X21964Y16549D01*
X21959Y16546D01*
X21943D01*
G01X21959D02*
X21969Y16522D01*
G01X22007D02*
Y16572D01*
X21999Y16562D01*
G01Y16522D02*
X22015D01*
G01X22058D02*
X22062Y16523D01*
X22067Y16526D01*
X22071Y16530D01*
X22072Y16536D01*
X22071Y16541D01*
X22067Y16546D01*
X22061Y16549D01*
X22055D01*
X22051Y16551D01*
X22048Y16555D01*
X22047Y16561D01*
X22048Y16566D01*
X22053Y16571D01*
X22058Y16572D01*
X22063Y16571D01*
X22067Y16566D01*
X22069Y16561D01*
X22068Y16555D01*
X22065Y16551D01*
X22061Y16549D01*
X22055D01*
X22049Y16546D01*
X22045Y16541D01*
X22044Y16536D01*
X22045Y16530D01*
X22048Y16526D01*
X22054Y16523D01*
X22058Y16522D01*
G01X22102Y16765D02*
X22105Y16769D01*
X22106Y16773D01*
Y16778D01*
X22104Y16784D01*
X22100Y16788D01*
X22095Y16792D01*
X22086Y16794D01*
X22079Y16795D01*
X22071Y16794D01*
X22066Y16792D01*
X22061Y16788D01*
X22058Y16783D01*
X22056Y16779D01*
Y16775D01*
X22058Y16770D01*
X22060Y16766D01*
X22064Y16763D01*
G01X22056Y16720D02*
X22106D01*
X22070Y16744D01*
Y16712D01*
G01X22077Y16689D02*
X22083Y16685D01*
X22086Y16681D01*
X22088Y16676D01*
X22086Y16671D01*
X22083Y16668D01*
X22078Y16666D01*
X22072Y16665D01*
X22067Y16666D01*
X22062Y16668D01*
X22058Y16672D01*
X22056Y16676D01*
X22058Y16681D01*
X22063Y16686D01*
X22070Y16688D01*
X22079Y16689D01*
X22090Y16688D01*
X22096Y16686D01*
X22101Y16683D01*
X22106Y16678D01*
X22106Y16674D01*
X22105Y16669D01*
X22100Y16666D01*
G01X22031Y16865D02*
X22027Y16868D01*
X22023Y16869D01*
X22018D01*
X22012Y16867D01*
X22008Y16863D01*
X22004Y16858D01*
X22002Y16849D01*
X22001Y16842D01*
X22002Y16834D01*
X22004Y16829D01*
X22008Y16824D01*
X22013Y16821D01*
X22017Y16819D01*
X22021D01*
X22026Y16821D01*
X22030Y16823D01*
X22033Y16827D01*
G01X22076Y16819D02*
Y16869D01*
X22052Y16834D01*
X22084D01*
G01X22105Y16827D02*
X22109Y16823D01*
X22113Y16820D01*
X22119Y16819D01*
X22125Y16821D01*
X22129Y16824D01*
X22132Y16830D01*
X22133Y16837D01*
X22132Y16843D01*
X22128Y16848D01*
X22124Y16851D01*
X22120Y16852D01*
X22115Y16851D01*
X22109Y16848D01*
X22111Y16869D01*
X22128D01*
G01X22064Y16998D02*
X22060Y17001D01*
X22056Y17002D01*
X22051D01*
X22045Y17000D01*
X22041Y16996D01*
X22037Y16991D01*
X22035Y16982D01*
X22034Y16975D01*
X22035Y16967D01*
X22037Y16962D01*
X22041Y16957D01*
X22046Y16954D01*
X22050Y16952D01*
X22054D01*
X22059Y16954D01*
X22063Y16956D01*
X22066Y16960D01*
G01X22087Y16962D02*
X22091Y16956D01*
X22096Y16953D01*
X22102Y16952D01*
X22107Y16953D01*
X22112Y16957D01*
X22115Y16962D01*
X22116Y16967D01*
X22114Y16973D01*
X22110Y16977D01*
X22105Y16979D01*
X22100D01*
G01X22105D02*
X22109Y16982D01*
X22112Y16986D01*
X22114Y16991D01*
X22112Y16996D01*
X22109Y17000D01*
X22104Y17002D01*
X22098Y17002D01*
X22092Y16998D01*
G01X22140Y16973D02*
X22144Y16979D01*
X22148Y16982D01*
X22153Y16984D01*
X22158Y16982D01*
X22161Y16979D01*
X22163Y16974D01*
X22164Y16968D01*
X22163Y16963D01*
X22161Y16958D01*
X22157Y16954D01*
X22153Y16952D01*
X22148Y16954D01*
X22143Y16959D01*
X22141Y16966D01*
X22140Y16975D01*
X22141Y16986D01*
X22143Y16992D01*
X22146Y16997D01*
X22151Y17002D01*
X22155Y17002D01*
X22160Y17001D01*
X22163Y16996D01*
G01X22064Y16933D02*
X22060Y16936D01*
X22056Y16937D01*
X22051D01*
X22045Y16935D01*
X22041Y16931D01*
X22037Y16926D01*
X22035Y16917D01*
X22034Y16910D01*
X22035Y16902D01*
X22037Y16897D01*
X22041Y16892D01*
X22046Y16889D01*
X22050Y16887D01*
X22054D01*
X22059Y16889D01*
X22063Y16891D01*
X22066Y16895D01*
G01X22087Y16897D02*
X22091Y16891D01*
X22096Y16888D01*
X22102Y16887D01*
X22107Y16888D01*
X22112Y16892D01*
X22115Y16897D01*
X22116Y16902D01*
X22114Y16908D01*
X22110Y16912D01*
X22105Y16914D01*
X22100D01*
G01X22105D02*
X22109Y16916D01*
X22112Y16921D01*
X22114Y16926D01*
X22112Y16931D01*
X22109Y16935D01*
X22104Y16937D01*
X22098Y16936D01*
X22092Y16933D01*
G01X22151Y16887D02*
X22152Y16898D01*
X22154Y16907D01*
X22156Y16916D01*
X22160Y16925D01*
X22165Y16937D01*
X22139D01*
G01X21792Y17117D02*
Y17167D01*
X21808D01*
X21813Y17165D01*
X21816Y17161D01*
X21818Y17155D01*
X21816Y17148D01*
X21813Y17144D01*
X21808Y17141D01*
X21792D01*
G01X21808D02*
X21818Y17117D01*
G01X21856D02*
Y17167D01*
X21848Y17157D01*
G01Y17117D02*
X21864D01*
G01X21893Y17127D02*
X21897Y17121D01*
X21902Y17118D01*
X21908Y17117D01*
X21913Y17118D01*
X21918Y17122D01*
X21921Y17127D01*
X21922Y17132D01*
X21920Y17138D01*
X21916Y17142D01*
X21911Y17144D01*
X21906D01*
G01X21911D02*
X21915Y17146D01*
X21918Y17151D01*
X21920Y17156D01*
X21918Y17161D01*
X21915Y17165D01*
X21910Y17167D01*
X21904Y17166D01*
X21898Y17163D01*
G01X22095Y17363D02*
X22098Y17367D01*
X22099Y17371D01*
Y17376D01*
X22097Y17382D01*
X22093Y17386D01*
X22088Y17390D01*
X22079Y17392D01*
X22072Y17393D01*
X22064Y17392D01*
X22059Y17390D01*
X22054Y17386D01*
X22051Y17381D01*
X22049Y17377D01*
Y17373D01*
X22051Y17368D01*
X22053Y17364D01*
X22057Y17361D01*
G01X22059Y17340D02*
X22053Y17336D01*
X22050Y17331D01*
X22049Y17325D01*
X22050Y17320D01*
X22054Y17315D01*
X22059Y17312D01*
X22064Y17311D01*
X22070Y17313D01*
X22074Y17317D01*
X22076Y17322D01*
Y17327D01*
G01Y17322D02*
X22078Y17318D01*
X22083Y17315D01*
X22088Y17313D01*
X22093Y17315D01*
X22097Y17318D01*
X22099Y17323D01*
X22098Y17329D01*
X22095Y17335D01*
G01X22091Y17287D02*
X22096Y17283D01*
X22098Y17279D01*
X22099Y17274D01*
X22098Y17267D01*
X22093Y17263D01*
X22088Y17262D01*
X22083Y17262D01*
X22079Y17265D01*
X22071Y17278D01*
X22065Y17283D01*
X22057Y17287D01*
X22049Y17288D01*
Y17262D01*
G01X22022Y17454D02*
X22018Y17457D01*
X22014Y17458D01*
X22009D01*
X22003Y17456D01*
X21999Y17452D01*
X21995Y17447D01*
X21993Y17438D01*
X21992Y17431D01*
X21993Y17423D01*
X21995Y17418D01*
X21999Y17413D01*
X22004Y17410D01*
X22008Y17408D01*
X22012D01*
X22017Y17410D01*
X22021Y17412D01*
X22024Y17416D01*
G01X22045Y17418D02*
X22049Y17412D01*
X22054Y17409D01*
X22060Y17408D01*
X22065Y17409D01*
X22070Y17413D01*
X22073Y17418D01*
X22074Y17423D01*
X22072Y17429D01*
X22068Y17433D01*
X22063Y17435D01*
X22058D01*
G01X22063D02*
X22067Y17438D01*
X22070Y17442D01*
X22072Y17447D01*
X22070Y17452D01*
X22067Y17456D01*
X22062Y17458D01*
X22056Y17458D01*
X22050Y17454D01*
G01X22110Y17408D02*
Y17458D01*
X22102Y17448D01*
G01Y17408D02*
X22118D01*
G01X22066Y17582D02*
X22062Y17585D01*
X22058Y17586D01*
X22053D01*
X22047Y17584D01*
X22043Y17580D01*
X22039Y17575D01*
X22037Y17566D01*
X22036Y17559D01*
X22037Y17551D01*
X22039Y17546D01*
X22043Y17541D01*
X22048Y17538D01*
X22052Y17536D01*
X22056D01*
X22061Y17538D01*
X22065Y17540D01*
X22068Y17544D01*
G01X22091Y17578D02*
X22095Y17583D01*
X22099Y17586D01*
X22104Y17586D01*
X22111Y17585D01*
X22115Y17580D01*
X22116Y17576D01*
X22116Y17570D01*
X22113Y17566D01*
X22100Y17558D01*
X22095Y17552D01*
X22091Y17544D01*
X22090Y17536D01*
X22116D01*
G01X22154D02*
Y17586D01*
X22146Y17576D01*
G01Y17536D02*
X22162D01*
G01X22067Y17519D02*
X22063Y17522D01*
X22059Y17523D01*
X22054D01*
X22048Y17521D01*
X22044Y17517D01*
X22040Y17512D01*
X22038Y17503D01*
X22037Y17496D01*
X22038Y17488D01*
X22040Y17483D01*
X22044Y17478D01*
X22049Y17475D01*
X22053Y17473D01*
X22057D01*
X22062Y17475D01*
X22066Y17477D01*
X22069Y17481D01*
G01X22092Y17515D02*
X22096Y17520D01*
X22100Y17522D01*
X22105Y17523D01*
X22112Y17522D01*
X22116Y17517D01*
X22117Y17512D01*
X22117Y17507D01*
X22114Y17503D01*
X22101Y17495D01*
X22096Y17489D01*
X22092Y17481D01*
X22091Y17473D01*
X22117D01*
G01X22143Y17515D02*
X22147Y17520D01*
X22151Y17522D01*
X22156Y17523D01*
X22163Y17522D01*
X22167Y17517D01*
X22168Y17512D01*
X22168Y17507D01*
X22165Y17503D01*
X22152Y17495D01*
X22147Y17489D01*
X22143Y17481D01*
X22142Y17473D01*
X22168D01*
G01X21235Y17487D02*
Y17537D01*
X21251D01*
X21256Y17535D01*
X21259Y17531D01*
X21260Y17525D01*
X21259Y17518D01*
X21255Y17514D01*
X21251Y17511D01*
X21235D01*
G01X21251D02*
X21260Y17487D01*
G01X21297D02*
X21298Y17498D01*
X21300Y17507D01*
X21303Y17516D01*
X21306Y17525D01*
X21311Y17537D01*
X21286D01*
G01X21667Y16571D02*
Y16536D01*
X21669Y16528D01*
X21674Y16523D01*
X21681Y16521D01*
X21687Y16523D01*
X21692Y16528D01*
X21694Y16536D01*
Y16571D01*
G01X21719Y16542D02*
X21724Y16548D01*
X21728Y16551D01*
X21733Y16553D01*
X21737Y16551D01*
X21740Y16548D01*
X21743Y16543D01*
X21744Y16537D01*
X21743Y16532D01*
X21740Y16527D01*
X21737Y16523D01*
X21732Y16521D01*
X21727Y16523D01*
X21723Y16528D01*
X21720Y16536D01*
X21719Y16544D01*
X21721Y16555D01*
X21723Y16560D01*
X21726Y16566D01*
X21730Y16570D01*
X21735Y16571D01*
X21739Y16570D01*
X21742Y16565D01*
G01X21491Y16586D02*
Y16636D01*
X21507D01*
X21512Y16634D01*
X21515Y16630D01*
X21517Y16624D01*
X21515Y16617D01*
X21512Y16613D01*
X21507Y16610D01*
X21491D01*
G01X21507D02*
X21517Y16586D01*
G01X21555D02*
Y16636D01*
X21547Y16626D01*
G01Y16586D02*
X21563D01*
G01X21594Y16607D02*
X21598Y16613D01*
X21602Y16616D01*
X21607Y16618D01*
X21612Y16616D01*
X21615Y16613D01*
X21617Y16608D01*
X21618Y16602D01*
X21617Y16597D01*
X21615Y16592D01*
X21611Y16588D01*
X21607Y16586D01*
X21602Y16588D01*
X21597Y16593D01*
X21595Y16600D01*
X21594Y16609D01*
X21595Y16620D01*
X21597Y16626D01*
X21600Y16631D01*
X21605Y16636D01*
X21609Y16636D01*
X21614Y16635D01*
X21617Y16630D01*
G01X21464Y17111D02*
Y17161D01*
X21480D01*
X21485Y17159D01*
X21488Y17155D01*
X21490Y17149D01*
X21488Y17142D01*
X21485Y17138D01*
X21480Y17135D01*
X21464D01*
G01X21480D02*
X21490Y17111D01*
G01X21528D02*
Y17161D01*
X21520Y17151D01*
G01Y17111D02*
X21536D01*
G01X21579D02*
Y17161D01*
X21571Y17151D01*
G01Y17111D02*
X21587D01*
G01X21661Y17093D02*
Y17058D01*
X21663Y17050D01*
X21668Y17045D01*
X21675Y17043D01*
X21681Y17045D01*
X21686Y17050D01*
X21688Y17058D01*
Y17093D01*
G01X21712Y17051D02*
X21715Y17047D01*
X21720Y17044D01*
X21725Y17043D01*
X21731Y17045D01*
X21736Y17048D01*
X21739Y17054D01*
X21739Y17061D01*
X21738Y17067D01*
X21735Y17072D01*
X21731Y17075D01*
X21726Y17076D01*
X21722Y17075D01*
X21716Y17072D01*
X21718Y17093D01*
X21735D01*
G01X22018Y16943D02*
Y16887D01*
X21894D01*
Y16943D01*
X22018D01*
G01X21991Y16890D02*
X22016D01*
Y16940D01*
X22006D01*
G01X21906D02*
X21896D01*
Y16890D01*
X21921D01*
G01X22018Y17000D02*
Y16944D01*
X21894D01*
Y17000D01*
X22018D01*
G01X21991Y16947D02*
X22016D01*
Y16997D01*
X22006D01*
G01X21906D02*
X21896D01*
Y16947D01*
X21921D01*
G01X21348Y16451D02*
Y16507D01*
X21472D01*
Y16451D01*
X21348D01*
G01X21375Y16504D02*
X21350D01*
Y16454D01*
X21360D01*
G01X21460D02*
X21470D01*
Y16504D01*
X21445D01*
G01X21458Y16519D02*
Y16575D01*
X21582D01*
Y16519D01*
X21458D01*
G01X21485Y16572D02*
X21460D01*
Y16522D01*
X21470D01*
G01X21570D02*
X21580D01*
Y16572D01*
X21555D01*
G01X21458Y17043D02*
Y17099D01*
X21582D01*
Y17043D01*
X21458D01*
G01X21485Y17096D02*
X21460D01*
Y17046D01*
X21470D01*
G01X21570D02*
X21580D01*
Y17096D01*
X21555D01*
G01X21985Y17398D02*
X22041D01*
Y17274D01*
X21985D01*
Y17398D01*
G01X22038Y17371D02*
Y17396D01*
X21988D01*
Y17386D01*
G01Y17286D02*
Y17276D01*
X22038D01*
Y17301D01*
G01X21884Y17465D02*
X21984D01*
Y17449D01*
X21884D01*
Y17465D01*
G01D02*
X21984D01*
Y17213D01*
X21884D01*
Y17465D01*
G01Y17284D02*
Y17214D01*
X21984D01*
Y17234D01*
Y17284D01*
G01X22018Y17527D02*
Y17471D01*
X21894D01*
Y17527D01*
X22018D01*
G01X21991Y17474D02*
X22016D01*
Y17524D01*
X22006D01*
G01X21906D02*
X21896D01*
Y17474D01*
X21921D01*
G01X22018Y17584D02*
Y17528D01*
X21894D01*
Y17584D01*
X22018D01*
G01X21991Y17531D02*
X22016D01*
Y17581D01*
X22006D01*
G01X21906D02*
X21896D01*
Y17531D01*
X21921D01*
G01X21652Y17570D02*
G03I-12J8D01*
G01X21616Y17344D02*
X21790D01*
Y17600D01*
X21616D01*
Y17344D01*
G01X21985Y16799D02*
X22041D01*
Y16675D01*
X21985D01*
Y16799D01*
G01X22038Y16772D02*
Y16797D01*
X21988D01*
Y16787D01*
G01Y16687D02*
Y16677D01*
X22038D01*
Y16702D01*
G01X21884Y16874D02*
X21984D01*
Y16858D01*
X21884D01*
Y16874D01*
G01D02*
X21984D01*
Y16622D01*
X21884D01*
Y16874D01*
G01Y16693D02*
Y16623D01*
X21984D01*
Y16643D01*
Y16693D01*
G01X21921Y17099D02*
Y17043D01*
X21797D01*
Y17099D01*
X21921D01*
G01X21894Y17046D02*
X21919D01*
Y17096D01*
X21909D01*
G01X21809D02*
X21799D01*
Y17046D01*
X21824D01*
G01X21652Y16988D02*
G03I-12J8D01*
G01X21616Y16762D02*
X21790D01*
Y17018D01*
X21616D01*
Y16762D01*
G01X21921Y16575D02*
Y16519D01*
X21797D01*
Y16575D01*
X21921D01*
G01X21894Y16522D02*
X21919D01*
Y16572D01*
X21909D01*
G01X21809D02*
X21799D01*
Y16522D01*
X21824D01*
G01X22018Y16464D02*
Y16408D01*
X21894D01*
Y16464D01*
X22018D01*
G01X21991Y16411D02*
X22016D01*
Y16461D01*
X22006D01*
G01X21906D02*
X21896D01*
Y16411D01*
X21921D01*
G01X21652Y16454D02*
G03I-12J8D01*
G01X21460Y16982D02*
X21470D01*
Y17032D01*
X21445D01*
G01X21375D02*
X21350D01*
Y16982D01*
X21360D01*
G01X21348Y16979D02*
Y17035D01*
X21472D01*
Y16979D01*
X21348D01*
G01X21460Y16903D02*
X21470D01*
Y16953D01*
X21445D01*
G01X21375D02*
X21350D01*
Y16903D01*
X21360D01*
G01X21348Y16900D02*
Y16956D01*
X21472D01*
Y16900D01*
X21348D01*
G01X21460Y17484D02*
X21470D01*
Y17534D01*
X21445D01*
G01X21375D02*
X21350D01*
Y17484D01*
X21360D01*
G01X21348Y17481D02*
Y17537D01*
X21472D01*
Y17481D01*
X21348D01*
G01Y17561D02*
Y17617D01*
X21472D01*
Y17561D01*
X21348D01*
G01X21375Y17614D02*
X21350D01*
Y17564D01*
X21360D01*
G01X21460D02*
X21470D01*
Y17614D01*
X21445D01*
G01X21823Y17702D02*
Y17752D01*
X21839D01*
X21844Y17750D01*
X21847Y17746D01*
X21848Y17740D01*
X21847Y17733D01*
X21843Y17729D01*
X21839Y17726D01*
X21823D01*
G01X21839D02*
X21848Y17702D01*
G01X21886D02*
X21891Y17703D01*
X21896Y17706D01*
X21899Y17710D01*
X21900Y17716D01*
X21899Y17721D01*
X21895Y17726D01*
X21890Y17729D01*
X21883D01*
X21880Y17731D01*
X21876Y17735D01*
X21875Y17741D01*
X21877Y17746D01*
X21881Y17751D01*
X21886Y17752D01*
X21892Y17751D01*
X21896Y17746D01*
X21898Y17741D01*
X21897Y17735D01*
X21893Y17731D01*
X21890Y17729D01*
X21883D01*
X21878Y17726D01*
X21874Y17721D01*
X21873Y17716D01*
X21874Y17710D01*
X21877Y17706D01*
X21882Y17703D01*
X21886Y17702D01*
G01X21487Y17695D02*
Y17745D01*
X21503D01*
X21508Y17743D01*
X21511Y17739D01*
X21512Y17733D01*
X21511Y17726D01*
X21507Y17722D01*
X21503Y17719D01*
X21487D01*
G01X21503D02*
X21512Y17695D01*
G01X21538Y17716D02*
X21543Y17722D01*
X21547Y17725D01*
X21552Y17727D01*
X21556Y17725D01*
X21559Y17722D01*
X21562Y17717D01*
X21563Y17711D01*
X21562Y17706D01*
X21559Y17701D01*
X21556Y17697D01*
X21551Y17695D01*
X21546Y17697D01*
X21542Y17702D01*
X21539Y17710D01*
X21538Y17718D01*
X21540Y17729D01*
X21542Y17734D01*
X21545Y17740D01*
X21549Y17744D01*
X21554Y17745D01*
X21558Y17744D01*
X21561Y17739D01*
G01X21667Y17681D02*
Y17646D01*
X21669Y17638D01*
X21674Y17633D01*
X21681Y17631D01*
X21687Y17633D01*
X21692Y17638D01*
X21694Y17646D01*
Y17681D01*
G01X21719Y17673D02*
X21723Y17678D01*
X21728Y17681D01*
X21733Y17681D01*
X21739Y17680D01*
X21744Y17675D01*
X21745Y17670D01*
X21744Y17665D01*
X21742Y17661D01*
X21729Y17653D01*
X21723Y17647D01*
X21719Y17639D01*
X21718Y17631D01*
X21745D01*
G01X21458Y17626D02*
Y17682D01*
X21582D01*
Y17626D01*
X21458D01*
G01X21485Y17679D02*
X21460D01*
Y17629D01*
X21470D01*
G01X21570D02*
X21580D01*
Y17679D01*
X21555D01*
G01X21921Y17682D02*
Y17626D01*
X21797D01*
Y17682D01*
X21921D01*
G01X21894Y17629D02*
X21919D01*
Y17679D01*
X21909D01*
G01X21809D02*
X21799D01*
Y17629D01*
X21824D01*
G01X23592Y16384D02*
X23594Y16382D01*
X23597Y16380D01*
X23601Y16380D01*
X23604Y16381D01*
X23607Y16383D01*
X23609Y16386D01*
X23609Y16391D01*
X23608Y16395D01*
X23606Y16397D01*
X23604Y16399D01*
X23601Y16400D01*
X23598Y16399D01*
X23595Y16397D01*
X23596Y16411D01*
X23606D01*
G01X23622D02*
X23631Y16380D01*
X23641Y16411D01*
G01X23042Y16395D02*
X23044Y16391D01*
X23047Y16389D01*
X23051Y16389D01*
X23054Y16389D01*
X23057Y16392D01*
X23059Y16395D01*
X23059Y16398D01*
X23059Y16402D01*
X23056Y16404D01*
X23053Y16405D01*
X23050D01*
G01X23053D02*
X23056Y16407D01*
X23057Y16409D01*
X23058Y16412D01*
X23057Y16416D01*
X23056Y16418D01*
X23052Y16420D01*
X23049Y16419D01*
X23045Y16417D01*
G01X23082Y16388D02*
X23081Y16388D01*
Y16389D01*
X23082Y16390D01*
X23082Y16389D01*
Y16388D01*
G01X23104Y16395D02*
X23106Y16391D01*
X23109Y16389D01*
X23113Y16389D01*
X23116Y16389D01*
X23119Y16392D01*
X23121Y16395D01*
X23121Y16398D01*
X23121Y16402D01*
X23118Y16404D01*
X23115Y16405D01*
X23112D01*
G01X23115D02*
X23117Y16407D01*
X23119Y16409D01*
X23120Y16412D01*
X23119Y16416D01*
X23117Y16418D01*
X23114Y16420D01*
X23111Y16419D01*
X23107Y16417D01*
G01X23134Y16420D02*
X23143Y16389D01*
X23153Y16420D01*
G01X23350Y16300D02*
X23650D01*
Y16100D01*
X23350D01*
Y16300D01*
G01X22850D02*
X23150D01*
Y16100D01*
X22850D01*
Y16300D01*
G01X23021Y17219D02*
Y17313D01*
X23049D01*
X23058Y17308D01*
X23065Y17297D01*
X23067Y17284D01*
X23065Y17272D01*
X23059Y17263D01*
X23049Y17258D01*
X23021D01*
G01X23113Y17219D02*
Y17313D01*
X23141D01*
X23150Y17308D01*
X23157Y17297D01*
X23159Y17284D01*
X23157Y17272D01*
X23151Y17263D01*
X23141Y17258D01*
X23113D01*
G01X23253Y17305D02*
X23246Y17310D01*
X23238Y17313D01*
X23229D01*
X23219Y17308D01*
X23211Y17300D01*
X23205Y17291D01*
X23200Y17275D01*
X23199Y17261D01*
X23202Y17247D01*
X23205Y17237D01*
X23212Y17228D01*
X23220Y17222D01*
X23228Y17219D01*
X23236D01*
X23244Y17222D01*
X23251Y17226D01*
X23257Y17233D01*
G01X23285Y17187D02*
X23354D01*
G01X23389Y17219D02*
Y17313D01*
X23417D01*
X23426Y17308D01*
X23433Y17297D01*
X23435Y17284D01*
X23433Y17272D01*
X23427Y17263D01*
X23417Y17258D01*
X23389D01*
G01X23504Y17219D02*
X23495Y17220D01*
X23487Y17226D01*
X23480Y17236D01*
X23475Y17247D01*
X23473Y17259D01*
Y17272D01*
X23475Y17284D01*
X23480Y17295D01*
X23487Y17305D01*
X23495Y17311D01*
X23504Y17313D01*
X23513Y17311D01*
X23521Y17305D01*
X23528Y17295D01*
X23533Y17284D01*
X23535Y17272D01*
Y17259D01*
X23533Y17247D01*
X23528Y17236D01*
X23521Y17226D01*
X23513Y17220D01*
X23504Y17219D01*
G01X23561Y17313D02*
X23578Y17219D01*
X23596Y17313D01*
X23614Y17219D01*
X23631Y17313D01*
G01X23711Y17219D02*
X23665D01*
Y17313D01*
X23711D01*
G01X23693Y17267D02*
X23665D01*
G01X23757Y17219D02*
Y17313D01*
X23786D01*
X23795Y17308D01*
X23801Y17302D01*
X23803Y17289D01*
X23801Y17277D01*
X23794Y17269D01*
X23786Y17264D01*
X23757D01*
G01X23786D02*
X23803Y17219D01*
G01X23838Y17187D02*
X23907D01*
G01X23935Y17313D02*
X23964Y17219D01*
X23993Y17313D01*
G01X24031Y17237D02*
X24038Y17226D01*
X24047Y17220D01*
X24057Y17219D01*
X24066Y17220D01*
X24076Y17228D01*
X24081Y17237D01*
X24083Y17247D01*
X24080Y17258D01*
X24072Y17266D01*
X24064Y17269D01*
X24054D01*
G01X24064D02*
X24071Y17274D01*
X24077Y17281D01*
X24079Y17291D01*
X24077Y17300D01*
X24071Y17308D01*
X24061Y17313D01*
X24050Y17311D01*
X24040Y17305D01*
G01X24052Y16411D02*
X24054Y16415D01*
X24057Y16416D01*
X24060Y16417D01*
X24064Y16416D01*
X24066Y16413D01*
X24067Y16410D01*
X24067Y16407D01*
X24065Y16404D01*
X24057Y16399D01*
X24054Y16395D01*
X24052Y16390D01*
X24051Y16386D01*
X24067D01*
G01X24083Y16411D02*
X24085Y16415D01*
X24088Y16416D01*
X24091Y16417D01*
X24095Y16416D01*
X24097Y16413D01*
X24098Y16410D01*
X24098Y16407D01*
X24096Y16404D01*
X24088Y16399D01*
X24085Y16395D01*
X24083Y16390D01*
X24082Y16386D01*
X24098D01*
G01X24111Y16417D02*
X24121Y16386D01*
X24131Y16417D01*
G01X24460Y16102D02*
X24456Y16105D01*
X24452Y16106D01*
X24447D01*
X24441Y16104D01*
X24437Y16100D01*
X24433Y16095D01*
X24431Y16086D01*
X24430Y16079D01*
X24431Y16071D01*
X24433Y16066D01*
X24437Y16061D01*
X24442Y16058D01*
X24446Y16056D01*
X24450D01*
X24455Y16058D01*
X24459Y16060D01*
X24462Y16064D01*
G01X24497Y16056D02*
Y16106D01*
X24489Y16096D01*
G01Y16056D02*
X24505D01*
G01X24534Y16064D02*
X24538Y16060D01*
X24542Y16057D01*
X24548Y16056D01*
X24554Y16058D01*
X24558Y16061D01*
X24561Y16067D01*
X24562Y16074D01*
X24561Y16080D01*
X24557Y16085D01*
X24553Y16088D01*
X24549Y16089D01*
X24544Y16088D01*
X24538Y16085D01*
X24540Y16106D01*
X24557D01*
G01X24578Y16231D02*
X24628D01*
G01X24603Y16206D02*
Y16256D01*
G01X24703Y16331D02*
G03I-200J0D01*
G01X24788Y16219D02*
Y16149D01*
X24888D01*
Y16169D01*
Y16219D01*
G01X24788Y16400D02*
X24888D01*
Y16148D01*
X24788D01*
Y16400D01*
G01X23850Y16300D02*
X24150D01*
Y16100D01*
X23850D01*
Y16300D01*
G01X24794Y16435D02*
Y16485D01*
X24806D01*
X24811Y16483D01*
X24815Y16479D01*
X24818Y16474D01*
X24821Y16469D01*
X24821Y16460D01*
X24821Y16452D01*
X24818Y16446D01*
X24815Y16441D01*
X24811Y16438D01*
X24806Y16435D01*
X24794D01*
G01X24846Y16477D02*
X24850Y16482D01*
X24855Y16484D01*
X24860Y16485D01*
X24866Y16484D01*
X24871Y16479D01*
X24872Y16474D01*
X24871Y16469D01*
X24869Y16465D01*
X24856Y16457D01*
X24850Y16451D01*
X24846Y16443D01*
X24845Y16435D01*
X24872D01*
G01X25669Y15670D02*
Y15701D01*
X25664Y15694D01*
G01Y15670D02*
X25674D01*
G01X25693Y15695D02*
X25695Y15699D01*
X25698Y15700D01*
X25701Y15701D01*
X25705Y15700D01*
X25707Y15697D01*
X25708Y15694D01*
X25708Y15691D01*
X25706Y15688D01*
X25698Y15683D01*
X25695Y15679D01*
X25693Y15674D01*
X25692Y15670D01*
X25708D01*
G01X25721Y15701D02*
X25731Y15670D01*
X25741Y15701D01*
G01X25320Y15870D02*
X25620D01*
Y15670D01*
X25320D01*
Y15870D01*
G01X25520Y16391D02*
Y16441D01*
X25536D01*
X25541Y16439D01*
X25544Y16435D01*
X25546Y16429D01*
X25544Y16422D01*
X25541Y16418D01*
X25536Y16415D01*
X25520D01*
G01X25536D02*
X25546Y16391D01*
G01X25572Y16433D02*
X25576Y16438D01*
X25580Y16440D01*
X25585Y16441D01*
X25592Y16440D01*
X25596Y16435D01*
X25597Y16431D01*
X25597Y16425D01*
X25594Y16421D01*
X25581Y16413D01*
X25576Y16407D01*
X25572Y16399D01*
X25571Y16391D01*
X25597D01*
G01X25643D02*
Y16441D01*
X25619Y16406D01*
X25651D01*
G01X25014Y15964D02*
Y16014D01*
X25030D01*
X25035Y16012D01*
X25038Y16008D01*
X25040Y16002D01*
X25038Y15995D01*
X25035Y15991D01*
X25030Y15988D01*
X25014D01*
G01X25030D02*
X25040Y15964D01*
G01X25066Y16006D02*
X25070Y16011D01*
X25074Y16014D01*
X25079Y16014D01*
X25086Y16013D01*
X25090Y16008D01*
X25091Y16003D01*
X25091Y15998D01*
X25088Y15994D01*
X25075Y15986D01*
X25070Y15980D01*
X25066Y15972D01*
X25065Y15964D01*
X25091D01*
G01X25115Y15974D02*
X25119Y15968D01*
X25124Y15965D01*
X25130Y15964D01*
X25135Y15965D01*
X25140Y15969D01*
X25143Y15974D01*
X25144Y15979D01*
X25142Y15985D01*
X25138Y15989D01*
X25133Y15991D01*
X25128D01*
G01X25133D02*
X25137Y15994D01*
X25140Y15998D01*
X25142Y16003D01*
X25140Y16008D01*
X25137Y16012D01*
X25132Y16014D01*
X25126Y16014D01*
X25120Y16010D01*
G01X25197Y15963D02*
Y16013D01*
X25213D01*
X25218Y16011D01*
X25221Y16007D01*
X25223Y16001D01*
X25221Y15994D01*
X25218Y15990D01*
X25213Y15987D01*
X25197D01*
G01X25213D02*
X25223Y15963D01*
G01X25249Y16005D02*
X25253Y16010D01*
X25257Y16012D01*
X25262Y16013D01*
X25269Y16012D01*
X25273Y16007D01*
X25274Y16003D01*
X25274Y15997D01*
X25271Y15993D01*
X25258Y15985D01*
X25253Y15979D01*
X25249Y15971D01*
X25248Y15963D01*
X25274D01*
G01X25298Y15971D02*
X25302Y15967D01*
X25306Y15964D01*
X25312Y15963D01*
X25318Y15965D01*
X25322Y15968D01*
X25325Y15974D01*
X25326Y15981D01*
X25325Y15987D01*
X25321Y15992D01*
X25317Y15995D01*
X25313Y15996D01*
X25308Y15995D01*
X25302Y15992D01*
X25304Y16013D01*
X25321D01*
G01X25329Y16285D02*
Y16250D01*
X25331Y16242D01*
X25336Y16237D01*
X25343Y16235D01*
X25349Y16237D01*
X25354Y16242D01*
X25356Y16250D01*
Y16285D01*
G01X25401Y16235D02*
Y16285D01*
X25378Y16250D01*
X25409D01*
G01X25104Y16387D02*
Y16437D01*
X25120D01*
X25125Y16435D01*
X25128Y16431D01*
X25130Y16425D01*
X25128Y16418D01*
X25125Y16414D01*
X25120Y16411D01*
X25104D01*
G01X25120D02*
X25130Y16387D01*
G01X25156Y16429D02*
X25160Y16434D01*
X25164Y16436D01*
X25169Y16437D01*
X25176Y16436D01*
X25180Y16431D01*
X25181Y16426D01*
X25181Y16421D01*
X25178Y16417D01*
X25165Y16409D01*
X25160Y16403D01*
X25156Y16395D01*
X25155Y16387D01*
X25181D01*
G01X25207Y16429D02*
X25211Y16434D01*
X25215Y16436D01*
X25220Y16437D01*
X25227Y16436D01*
X25231Y16431D01*
X25232Y16426D01*
X25232Y16421D01*
X25229Y16417D01*
X25216Y16409D01*
X25211Y16403D01*
X25207Y16395D01*
X25206Y16387D01*
X25232D01*
G01X24982Y16402D02*
X24985Y16406D01*
X24986Y16410D01*
Y16415D01*
X24984Y16421D01*
X24980Y16425D01*
X24975Y16429D01*
X24966Y16431D01*
X24959Y16432D01*
X24951Y16431D01*
X24946Y16429D01*
X24941Y16425D01*
X24938Y16420D01*
X24936Y16416D01*
Y16412D01*
X24938Y16407D01*
X24940Y16403D01*
X24944Y16400D01*
G01X24957Y16377D02*
X24963Y16373D01*
X24966Y16369D01*
X24968Y16364D01*
X24966Y16359D01*
X24963Y16356D01*
X24958Y16354D01*
X24952Y16353D01*
X24947Y16354D01*
X24942Y16356D01*
X24938Y16360D01*
X24936Y16364D01*
X24938Y16369D01*
X24943Y16374D01*
X24950Y16376D01*
X24959Y16377D01*
X24970Y16376D01*
X24976Y16374D01*
X24981Y16371D01*
X24986Y16366D01*
X24986Y16362D01*
X24985Y16357D01*
X24980Y16354D01*
G01X24986Y16314D02*
X24985Y16319D01*
X24980Y16323D01*
X24976Y16325D01*
X24969Y16327D01*
X24961Y16328D01*
X24954Y16327D01*
X24947Y16325D01*
X24942Y16323D01*
X24938Y16319D01*
X24936Y16314D01*
X24938Y16309D01*
X24942Y16305D01*
X24947Y16303D01*
X24954Y16301D01*
X24961Y16300D01*
X24969Y16301D01*
X24976Y16303D01*
X24980Y16305D01*
X24985Y16309D01*
X24986Y16314D01*
G01X25036Y16043D02*
Y16099D01*
X25160D01*
Y16043D01*
X25036D01*
G01X26250Y16500D02*
Y15780D01*
X25710D01*
Y16500D01*
X26250D01*
G01X25281Y16045D02*
X25291D01*
Y16095D01*
X25266D01*
G01X25196D02*
X25171D01*
Y16045D01*
X25181D01*
G01X25169Y16042D02*
Y16098D01*
X25293D01*
Y16042D01*
X25169D01*
G01X25148Y16046D02*
X25158D01*
Y16096D01*
X25133D01*
G01X25063D02*
X25038D01*
Y16046D01*
X25048D01*
G01X24985Y16259D02*
Y16269D01*
X24935D01*
Y16244D01*
G01Y16174D02*
Y16149D01*
X24985D01*
Y16159D01*
G01X24988Y16147D02*
X24932D01*
Y16271D01*
X24988D01*
Y16147D01*
G01X24872Y16292D02*
X24806D01*
X24838Y16260D01*
X24840D01*
X24872Y16292D01*
G01X25482Y16395D02*
X25492D01*
Y16445D01*
X25467D01*
G01X25397D02*
X25372D01*
Y16395D01*
X25382D01*
G01X25370Y16392D02*
Y16448D01*
X25494D01*
Y16392D01*
X25370D01*
G01X25357Y16395D02*
X25367D01*
Y16445D01*
X25342D01*
G01X25272D02*
X25247D01*
Y16395D01*
X25257D01*
G01X25245Y16392D02*
Y16448D01*
X25369D01*
Y16392D01*
X25245D01*
G01X25117Y16364D02*
Y16164D01*
G01X25140Y16339D02*
G03I-10J0D01*
G01X25100Y16164D02*
Y16364D01*
X25234D01*
Y16164D01*
X25100D01*
G01X25528Y17656D02*
X25531Y17660D01*
X25532Y17664D01*
Y17669D01*
X25530Y17675D01*
X25526Y17679D01*
X25521Y17683D01*
X25512Y17685D01*
X25505Y17686D01*
X25497Y17685D01*
X25492Y17683D01*
X25487Y17679D01*
X25484Y17674D01*
X25482Y17670D01*
Y17666D01*
X25484Y17661D01*
X25486Y17657D01*
X25490Y17654D01*
G01X25482Y17619D02*
X25532D01*
X25522Y17627D01*
G01X25482D02*
Y17611D01*
G01X25524Y17580D02*
X25529Y17576D01*
X25532Y17572D01*
X25532Y17567D01*
X25531Y17560D01*
X25526Y17556D01*
X25522Y17555D01*
X25516Y17555D01*
X25512Y17558D01*
X25504Y17571D01*
X25498Y17576D01*
X25490Y17580D01*
X25482Y17581D01*
Y17555D01*
G01X25504Y17415D02*
X25501Y17418D01*
X25496Y17419D01*
X25491D01*
X25485Y17417D01*
X25481Y17413D01*
X25478Y17408D01*
X25475Y17399D01*
X25475Y17392D01*
X25476Y17384D01*
X25478Y17379D01*
X25482Y17374D01*
X25486Y17371D01*
X25491Y17369D01*
X25495D01*
X25499Y17371D01*
X25503Y17373D01*
X25506Y17377D01*
G01X25529Y17411D02*
X25533Y17416D01*
X25538Y17418D01*
X25543Y17419D01*
X25549Y17418D01*
X25554Y17413D01*
X25555Y17408D01*
X25554Y17403D01*
X25552Y17399D01*
X25539Y17391D01*
X25533Y17385D01*
X25529Y17377D01*
X25528Y17369D01*
X25555D01*
G01X25505Y17480D02*
X25502Y17483D01*
X25497Y17484D01*
X25492D01*
X25486Y17482D01*
X25482Y17478D01*
X25479Y17473D01*
X25476Y17464D01*
X25476Y17457D01*
X25477Y17449D01*
X25479Y17444D01*
X25483Y17439D01*
X25487Y17436D01*
X25492Y17434D01*
X25496D01*
X25500Y17436D01*
X25504Y17438D01*
X25507Y17442D01*
G01X25550Y17434D02*
Y17484D01*
X25527Y17448D01*
X25558D01*
G01X25803Y17268D02*
Y17318D01*
X25819D01*
X25824Y17316D01*
X25827Y17312D01*
X25828Y17306D01*
X25827Y17299D01*
X25823Y17295D01*
X25819Y17292D01*
X25803D01*
G01X25819D02*
X25828Y17268D01*
G01X25853Y17278D02*
X25856Y17272D01*
X25861Y17269D01*
X25867Y17268D01*
X25872Y17269D01*
X25877Y17273D01*
X25880Y17278D01*
X25881Y17283D01*
X25880Y17289D01*
X25875Y17293D01*
X25871Y17295D01*
X25865D01*
G01X25871D02*
X25875Y17298D01*
X25878Y17302D01*
X25879Y17307D01*
X25878Y17312D01*
X25875Y17316D01*
X25869Y17318D01*
X25863Y17318D01*
X25858Y17314D01*
G01X25938Y16571D02*
Y16536D01*
X25940Y16528D01*
X25945Y16523D01*
X25952Y16521D01*
X25958Y16523D01*
X25963Y16528D01*
X25965Y16536D01*
Y16571D01*
G01X25989Y16531D02*
X25992Y16525D01*
X25997Y16522D01*
X26003Y16521D01*
X26008Y16522D01*
X26013Y16526D01*
X26016Y16531D01*
X26017Y16536D01*
X26016Y16542D01*
X26011Y16546D01*
X26007Y16548D01*
X26001D01*
G01X26007D02*
X26011Y16550D01*
X26014Y16555D01*
X26015Y16560D01*
X26014Y16565D01*
X26011Y16569D01*
X26005Y16571D01*
X25999Y16570D01*
X25994Y16567D01*
G01X24919Y16621D02*
Y16571D01*
X24944D01*
G01X24970Y16613D02*
X24974Y16618D01*
X24979Y16620D01*
X24984Y16621D01*
X24990Y16620D01*
X24995Y16615D01*
X24996Y16610D01*
X24995Y16605D01*
X24993Y16601D01*
X24980Y16593D01*
X24974Y16587D01*
X24970Y16579D01*
X24969Y16571D01*
X24996D01*
G01X25385Y17098D02*
Y17048D01*
X25410D01*
G01X25435Y17058D02*
X25438Y17052D01*
X25443Y17049D01*
X25449Y17048D01*
X25454Y17049D01*
X25459Y17053D01*
X25462Y17058D01*
X25463Y17063D01*
X25462Y17069D01*
X25457Y17073D01*
X25453Y17075D01*
X25447D01*
G01X25453D02*
X25457Y17078D01*
X25460Y17082D01*
X25461Y17087D01*
X25460Y17092D01*
X25457Y17096D01*
X25451Y17098D01*
X25445Y17098D01*
X25440Y17094D01*
G01X25605Y17032D02*
Y16792D01*
X25235D01*
Y17032D01*
X25605D01*
G01X26317Y17166D02*
Y16666D01*
X25667D01*
Y17166D01*
X26317D01*
G01X26112Y17319D02*
Y17263D01*
X25988D01*
Y17319D01*
X26112D01*
G01X26000Y17316D02*
X25990D01*
Y17266D01*
X26015D01*
G01X25604Y17553D02*
X25548D01*
Y17677D01*
X25604D01*
Y17553D01*
G01X25551Y17580D02*
Y17555D01*
X25601D01*
Y17565D01*
G01X25705Y17490D02*
X25605D01*
Y17742D01*
X25705D01*
Y17490D01*
G01D02*
X25605D01*
Y17506D01*
X25705D01*
Y17490D01*
G01X25657Y17267D02*
Y17323D01*
X25781D01*
Y17267D01*
X25657D01*
G01X25684Y17320D02*
X25659D01*
Y17270D01*
X25669D01*
G01X25769D02*
X25779D01*
Y17320D01*
X25754D01*
G01X25569Y17373D02*
Y17429D01*
X25693D01*
Y17373D01*
X25569D01*
G01X25596Y17426D02*
X25571D01*
Y17376D01*
X25581D01*
G01X25681D02*
X25691D01*
Y17426D01*
X25666D01*
G01X25569Y17430D02*
Y17486D01*
X25693D01*
Y17430D01*
X25569D01*
G01X25596Y17483D02*
X25571D01*
Y17433D01*
X25581D01*
G01X25681D02*
X25691D01*
Y17483D01*
X25666D01*
G01X25962Y17608D02*
X25788D01*
Y17352D01*
X25962D01*
Y17608D01*
G01X25926Y17382D02*
G03I12J-8D01*
G01X25022Y16749D02*
Y16449D01*
X25352D01*
Y16749D01*
X25022D01*
G01X25848Y17684D02*
Y17649D01*
X25850Y17641D01*
X25855Y17636D01*
X25862Y17634D01*
X25868Y17636D01*
X25873Y17641D01*
X25875Y17649D01*
Y17684D01*
G01X25912Y17634D02*
Y17684D01*
X25905Y17674D01*
G01Y17634D02*
X25920D01*
G01X25770Y17783D02*
X25773Y17787D01*
X25774Y17791D01*
Y17796D01*
X25772Y17802D01*
X25768Y17806D01*
X25763Y17810D01*
X25754Y17812D01*
X25747Y17813D01*
X25739Y17812D01*
X25734Y17810D01*
X25729Y17806D01*
X25726Y17801D01*
X25724Y17797D01*
Y17793D01*
X25726Y17788D01*
X25728Y17784D01*
X25732Y17781D01*
G01X25724Y17746D02*
X25774D01*
X25764Y17754D01*
G01X25724D02*
Y17738D01*
G01Y17695D02*
X25774D01*
X25764Y17703D01*
G01X25724D02*
Y17687D01*
G01X25601Y17665D02*
Y17675D01*
X25551D01*
Y17650D01*
G01X25705Y17671D02*
Y17741D01*
X25605D01*
Y17721D01*
Y17671D01*
G01X26910Y16154D02*
X26913Y16158D01*
X26914Y16162D01*
Y16167D01*
X26912Y16173D01*
X26908Y16177D01*
X26903Y16181D01*
X26894Y16183D01*
X26887Y16184D01*
X26879Y16183D01*
X26874Y16181D01*
X26869Y16177D01*
X26866Y16172D01*
X26864Y16168D01*
Y16164D01*
X26866Y16159D01*
X26868Y16155D01*
X26872Y16152D01*
G01X26864Y16117D02*
X26914D01*
X26904Y16125D01*
G01X26864D02*
Y16109D01*
G01X26874Y16080D02*
X26868Y16076D01*
X26865Y16071D01*
X26864Y16065D01*
X26865Y16060D01*
X26869Y16055D01*
X26874Y16052D01*
X26879Y16051D01*
X26885Y16053D01*
X26889Y16057D01*
X26891Y16062D01*
Y16067D01*
G01Y16062D02*
X26894Y16058D01*
X26898Y16055D01*
X26903Y16053D01*
X26908Y16055D01*
X26912Y16058D01*
X26914Y16063D01*
X26914Y16069D01*
X26910Y16075D01*
G01X26551Y15725D02*
Y15675D01*
X26576D01*
G01X26614D02*
X26619Y15676D01*
X26624Y15679D01*
X26627Y15683D01*
X26628Y15689D01*
X26627Y15694D01*
X26623Y15699D01*
X26618Y15702D01*
X26611D01*
X26608Y15704D01*
X26604Y15708D01*
X26603Y15714D01*
X26605Y15719D01*
X26609Y15724D01*
X26614Y15725D01*
X26620Y15724D01*
X26624Y15719D01*
X26626Y15714D01*
X26625Y15708D01*
X26621Y15704D01*
X26618Y15702D01*
X26611D01*
X26606Y15699D01*
X26602Y15694D01*
X26601Y15689D01*
X26602Y15683D01*
X26605Y15679D01*
X26610Y15676D01*
X26614Y15675D01*
G01X26626Y16231D02*
X26676D01*
G01X26651Y16206D02*
Y16256D01*
G01X26751Y16331D02*
G03I-200J0D01*
G01X27174Y16125D02*
Y16156D01*
X27169Y16149D01*
G01Y16125D02*
X27179D01*
G01X27198Y16150D02*
X27200Y16154D01*
X27203Y16155D01*
X27206Y16156D01*
X27210Y16155D01*
X27212Y16152D01*
X27213Y16149D01*
X27213Y16146D01*
X27211Y16143D01*
X27203Y16138D01*
X27200Y16134D01*
X27198Y16129D01*
X27197Y16125D01*
X27213D01*
G01X27226Y16156D02*
X27236Y16125D01*
X27246Y16156D01*
G01X26885Y16340D02*
X27260D01*
G01X26934Y16389D02*
Y16459D01*
X26834D01*
Y16439D01*
Y16389D01*
G01X26934Y16208D02*
X26834D01*
Y16460D01*
X26934D01*
Y16208D01*
G01D02*
X26834D01*
Y16224D01*
X26934D01*
Y16208D01*
G01X26742Y15746D02*
Y16046D01*
X26412D01*
Y15746D01*
X26742D01*
G01X26135Y17264D02*
Y17314D01*
X26151D01*
X26156Y17312D01*
X26159Y17308D01*
X26160Y17302D01*
X26159Y17295D01*
X26155Y17291D01*
X26151Y17288D01*
X26135D01*
G01X26151D02*
X26160Y17264D01*
G01X26198D02*
Y17314D01*
X26191Y17304D01*
G01Y17264D02*
X26206D01*
G01X26562Y17449D02*
X26565Y17452D01*
X26566Y17457D01*
Y17462D01*
X26564Y17468D01*
X26560Y17472D01*
X26555Y17475D01*
X26546Y17478D01*
X26539Y17478D01*
X26531Y17477D01*
X26526Y17475D01*
X26521Y17471D01*
X26518Y17467D01*
X26516Y17462D01*
Y17458D01*
X26518Y17454D01*
X26520Y17450D01*
X26524Y17447D01*
G01X26522Y17422D02*
X26518Y17418D01*
X26516Y17413D01*
X26518Y17408D01*
X26523Y17403D01*
X26530Y17400D01*
X26538Y17399D01*
X26547D01*
X26555Y17400D01*
X26561Y17403D01*
X26565Y17407D01*
X26566Y17412D01*
X26565Y17417D01*
X26561Y17420D01*
X26556Y17423D01*
X26550Y17424D01*
X26544Y17423D01*
X26538Y17420D01*
X26535Y17416D01*
X26534Y17412D01*
X26535Y17406D01*
X26540Y17403D01*
X26547Y17399D01*
G01X26270Y17414D02*
Y17464D01*
X26286D01*
X26291Y17462D01*
X26294Y17458D01*
X26295Y17452D01*
X26294Y17445D01*
X26290Y17441D01*
X26286Y17438D01*
X26270D01*
G01X26286D02*
X26295Y17414D01*
G01X26321Y17456D02*
X26325Y17461D01*
X26330Y17464D01*
X26335Y17464D01*
X26341Y17463D01*
X26346Y17458D01*
X26347Y17454D01*
X26346Y17448D01*
X26344Y17444D01*
X26331Y17436D01*
X26325Y17430D01*
X26321Y17422D01*
X26320Y17414D01*
X26347D01*
G01X26296Y17382D02*
X26293Y17385D01*
X26288Y17386D01*
X26283D01*
X26277Y17384D01*
X26273Y17380D01*
X26270Y17375D01*
X26267Y17366D01*
X26267Y17359D01*
X26268Y17351D01*
X26270Y17346D01*
X26274Y17341D01*
X26278Y17338D01*
X26283Y17336D01*
X26287D01*
X26291Y17338D01*
X26295Y17340D01*
X26298Y17344D01*
G01X26320D02*
X26323Y17340D01*
X26328Y17337D01*
X26333Y17336D01*
X26339Y17338D01*
X26344Y17341D01*
X26347Y17347D01*
X26347Y17354D01*
X26346Y17360D01*
X26343Y17365D01*
X26339Y17368D01*
X26334Y17369D01*
X26330Y17368D01*
X26324Y17365D01*
X26326Y17386D01*
X26343D01*
G01X26866Y17626D02*
X26869Y17629D01*
X26870Y17634D01*
Y17639D01*
X26868Y17645D01*
X26864Y17649D01*
X26859Y17652D01*
X26850Y17655D01*
X26843Y17655D01*
X26835Y17654D01*
X26830Y17652D01*
X26825Y17648D01*
X26822Y17644D01*
X26820Y17639D01*
Y17635D01*
X26822Y17631D01*
X26824Y17627D01*
X26828Y17624D01*
G01X26820Y17590D02*
X26831Y17589D01*
X26840Y17587D01*
X26849Y17584D01*
X26858Y17581D01*
X26870Y17576D01*
Y17601D01*
G01X26767Y17322D02*
X26770Y17326D01*
X26771Y17330D01*
Y17335D01*
X26769Y17341D01*
X26765Y17345D01*
X26760Y17349D01*
X26751Y17351D01*
X26744Y17352D01*
X26736Y17351D01*
X26731Y17349D01*
X26726Y17345D01*
X26723Y17340D01*
X26721Y17336D01*
Y17332D01*
X26723Y17327D01*
X26725Y17323D01*
X26729Y17320D01*
G01Y17299D02*
X26725Y17295D01*
X26722Y17291D01*
X26721Y17285D01*
X26723Y17279D01*
X26726Y17275D01*
X26732Y17272D01*
X26739Y17271D01*
X26745Y17272D01*
X26750Y17276D01*
X26753Y17280D01*
X26754Y17284D01*
X26753Y17289D01*
X26750Y17294D01*
X26771Y17293D01*
Y17276D01*
G01X26721Y17235D02*
X26732Y17234D01*
X26741Y17232D01*
X26750Y17230D01*
X26759Y17226D01*
X26771Y17221D01*
Y17247D01*
G01X26856Y16668D02*
X26859Y16672D01*
X26860Y16676D01*
Y16681D01*
X26858Y16687D01*
X26854Y16691D01*
X26849Y16695D01*
X26840Y16697D01*
X26833Y16698D01*
X26825Y16697D01*
X26820Y16695D01*
X26815Y16691D01*
X26812Y16686D01*
X26810Y16682D01*
Y16678D01*
X26812Y16673D01*
X26814Y16669D01*
X26818Y16666D01*
G01X26831Y16643D02*
X26837Y16639D01*
X26840Y16635D01*
X26842Y16630D01*
X26840Y16625D01*
X26837Y16622D01*
X26832Y16620D01*
X26826Y16619D01*
X26821Y16620D01*
X26816Y16622D01*
X26812Y16626D01*
X26810Y16630D01*
X26812Y16635D01*
X26817Y16640D01*
X26824Y16642D01*
X26833Y16643D01*
X26844Y16642D01*
X26850Y16640D01*
X26855Y16637D01*
X26860Y16632D01*
X26860Y16628D01*
X26859Y16623D01*
X26854Y16620D01*
G01X26810Y16580D02*
X26811Y16576D01*
X26814Y16571D01*
X26818Y16567D01*
X26824Y16566D01*
X26829Y16567D01*
X26834Y16571D01*
X26837Y16577D01*
Y16583D01*
X26839Y16587D01*
X26843Y16590D01*
X26849Y16591D01*
X26854Y16590D01*
X26859Y16585D01*
X26860Y16580D01*
X26859Y16575D01*
X26854Y16571D01*
X26849Y16569D01*
X26843Y16570D01*
X26839Y16573D01*
X26837Y16577D01*
Y16583D01*
X26834Y16589D01*
X26829Y16593D01*
X26824Y16594D01*
X26818Y16593D01*
X26814Y16590D01*
X26811Y16584D01*
X26810Y16580D01*
G01X26517Y16598D02*
X26513Y16601D01*
X26509Y16602D01*
X26504D01*
X26498Y16600D01*
X26494Y16596D01*
X26490Y16591D01*
X26488Y16582D01*
X26487Y16575D01*
X26488Y16567D01*
X26490Y16562D01*
X26494Y16557D01*
X26499Y16554D01*
X26503Y16552D01*
X26507D01*
X26512Y16554D01*
X26516Y16556D01*
X26519Y16560D01*
G01X26554Y16552D02*
Y16602D01*
X26546Y16592D01*
G01Y16552D02*
X26562D01*
G01X26604D02*
X26605Y16563D01*
X26607Y16572D01*
X26609Y16581D01*
X26613Y16590D01*
X26618Y16602D01*
X26592D01*
G01X26338Y16927D02*
Y16877D01*
X26363D01*
G01X26409D02*
Y16927D01*
X26386Y16892D01*
X26417D01*
G01X26784Y16785D02*
Y16715D01*
X26884D01*
Y16735D01*
Y16785D01*
G01X26784Y16966D02*
X26884D01*
Y16714D01*
X26784D01*
Y16966D01*
G01D02*
X26884D01*
Y16950D01*
X26784D01*
Y16966D01*
G01Y17186D02*
Y17116D01*
X26884D01*
Y17136D01*
Y17186D01*
G01X26784Y17367D02*
X26884D01*
Y17115D01*
X26784D01*
Y17367D01*
G01D02*
X26884D01*
Y17351D01*
X26784D01*
Y17367D01*
G01X26606Y17432D02*
X26616Y17422D01*
X26776D01*
X26786Y17432D01*
G01X26586Y17452D02*
X26606Y17432D01*
X26786D01*
X26806Y17452D01*
Y17792D01*
X26586D01*
Y17452D01*
G01X26515Y17385D02*
X26571D01*
Y17261D01*
X26515D01*
Y17385D01*
G01X26568Y17358D02*
Y17383D01*
X26518D01*
Y17373D01*
G01Y17273D02*
Y17263D01*
X26568D01*
Y17288D01*
G01X26430Y17477D02*
Y17777D01*
X26100D01*
Y17477D01*
X26430D01*
G01X26085Y17266D02*
X26110D01*
Y17316D01*
X26100D01*
G01X26224Y17469D02*
Y17413D01*
X26100D01*
Y17469D01*
X26224D01*
G01X26197Y17416D02*
X26222D01*
Y17466D01*
X26212D01*
G01X26112D02*
X26102D01*
Y17416D01*
X26127D01*
G01X26224Y17391D02*
Y17335D01*
X26100D01*
Y17391D01*
X26224D01*
G01X26197Y17338D02*
X26222D01*
Y17388D01*
X26212D01*
G01X26112D02*
X26102D01*
Y17338D01*
X26127D01*
G01X27176Y16590D02*
X27184D01*
Y16581D01*
X27182Y16578D01*
X27179Y16576D01*
X27175Y16575D01*
X27171Y16576D01*
X27169Y16578D01*
X27166Y16581D01*
X27165Y16584D01*
X27164Y16589D01*
Y16592D01*
X27165Y16595D01*
X27166Y16599D01*
X27169Y16602D01*
X27171Y16604D01*
X27174Y16606D01*
X27177D01*
X27180Y16605D01*
X27182Y16603D01*
G01X27196Y16575D02*
Y16606D01*
X27214Y16575D01*
Y16606D01*
G01X27228Y16575D02*
Y16606D01*
X27235D01*
X27238Y16604D01*
X27241Y16602D01*
X27242Y16599D01*
X27244Y16595D01*
X27244Y16590D01*
X27244Y16585D01*
X27242Y16581D01*
X27241Y16578D01*
X27238Y16576D01*
X27235Y16575D01*
X27228D01*
G01X27196Y16879D02*
X27198Y16877D01*
X27201Y16875D01*
X27205Y16875D01*
X27208Y16876D01*
X27211Y16878D01*
X27213Y16881D01*
X27213Y16886D01*
X27212Y16890D01*
X27210Y16892D01*
X27208Y16894D01*
X27205Y16895D01*
X27202Y16894D01*
X27199Y16892D01*
X27200Y16906D01*
X27210D01*
G01X27226D02*
X27235Y16875D01*
X27245Y16906D01*
G01X27181Y17090D02*
X27189D01*
Y17081D01*
X27187Y17078D01*
X27184Y17076D01*
X27180Y17075D01*
X27176Y17076D01*
X27174Y17078D01*
X27171Y17081D01*
X27170Y17084D01*
X27169Y17089D01*
Y17092D01*
X27170Y17095D01*
X27171Y17099D01*
X27174Y17102D01*
X27176Y17104D01*
X27179Y17106D01*
X27182D01*
X27185Y17105D01*
X27187Y17103D01*
G01X27201Y17075D02*
Y17106D01*
X27219Y17075D01*
Y17106D01*
G01X27233Y17075D02*
Y17106D01*
X27240D01*
X27243Y17104D01*
X27246Y17102D01*
X27247Y17099D01*
X27249Y17095D01*
X27249Y17090D01*
X27249Y17085D01*
X27247Y17081D01*
X27246Y17078D01*
X27243Y17076D01*
X27240Y17075D01*
X27233D01*
G01X27205Y17375D02*
Y17406D01*
X27200Y17399D01*
G01Y17375D02*
X27209D01*
G01X27226Y17406D02*
X27235Y17375D01*
X27245Y17406D01*
G01X26885Y16840D02*
X27260D01*
G01X26885Y16940D02*
X27260D01*
G01X26885Y17240D02*
X27260D01*
G01X26915Y17640D02*
X26995D01*
X26955Y17600D01*
X26915Y17640D01*
G01X26224Y17850D02*
Y17800D01*
X26249D01*
G01X26287D02*
Y17850D01*
X26280Y17840D01*
G01Y17800D02*
X26295D01*
M02*
