G04 ================== begin FILE IDENTIFICATION RECORD ==================*
G04 Layout Name:  E:/EMB002/project/hardware/POWER/Power_PPC_V3.brd*
G04 Film Name:    Silk_Bottom*
G04 File Format:  Gerber RS274X*
G04 File Origin:  15.7-p007*
G04 Origin Date:  Sat May 09 08:58:49 2009*
G04 *
G04 Layer:  REF DES/ASSEMBLY_BOTTOM*
G04 Layer:  PACKAGE GEOMETRY/SILKSCREEN_BOTTOM*
G04 Layer:  BOARD GEOMETRY/OUTLINE*
G04 *
G04 Offset:    (0.000 0.000)*
G04 Mirror:    No*
G04 Mode:      Positive*
G04 Rotation:  0*
G04 FullContactRelief:  No*
G04 UndefLineWidth:     8.000*
G04 ================== end FILE IDENTIFICATION RECORD ====================*
%FSLAX53Y53*MOIN*%
%IR0*IPPOS*OFA0.00000B0.00000*MIA0B0*SFA1.00000B1.00000*%
%ADD10C,.008*%
G75*
%LPD*%
G75*
G54D10*
G01X27282Y17888D02*
X19991D01*
Y15577D01*
X27296D01*
Y17888D01*
X27282D01*
G01X21160Y16232D02*
X21157Y16236D01*
X21156Y16240D01*
Y16245D01*
X21158Y16251D01*
X21162Y16255D01*
X21167Y16259D01*
X21176Y16261D01*
X21183Y16262D01*
X21191Y16261D01*
X21196Y16259D01*
X21201Y16255D01*
X21204Y16250D01*
X21206Y16246D01*
Y16242D01*
X21204Y16237D01*
X21202Y16233D01*
X21198Y16230D01*
G01X21185Y16207D02*
X21179Y16203D01*
X21176Y16199D01*
X21174Y16194D01*
X21176Y16189D01*
X21179Y16186D01*
X21184Y16184D01*
X21190Y16183D01*
X21195Y16184D01*
X21200Y16186D01*
X21204Y16190D01*
X21206Y16194D01*
X21204Y16199D01*
X21199Y16204D01*
X21192Y16206D01*
X21183Y16207D01*
X21172Y16206D01*
X21166Y16204D01*
X21161Y16201D01*
X21156Y16196D01*
X21156Y16192D01*
X21157Y16187D01*
X21162Y16184D01*
G01X21185Y16156D02*
X21179Y16152D01*
X21176Y16148D01*
X21174Y16143D01*
X21176Y16138D01*
X21179Y16135D01*
X21184Y16133D01*
X21190Y16132D01*
X21195Y16133D01*
X21200Y16135D01*
X21204Y16139D01*
X21206Y16143D01*
X21204Y16148D01*
X21199Y16153D01*
X21192Y16155D01*
X21183Y16156D01*
X21172Y16155D01*
X21166Y16153D01*
X21161Y16150D01*
X21156Y16145D01*
X21156Y16141D01*
X21157Y16136D01*
X21162Y16133D01*
G01X20917Y16069D02*
X20914Y16073D01*
X20913Y16077D01*
Y16082D01*
X20915Y16088D01*
X20919Y16092D01*
X20924Y16096D01*
X20933Y16098D01*
X20940Y16099D01*
X20948Y16098D01*
X20953Y16096D01*
X20958Y16092D01*
X20961Y16087D01*
X20963Y16083D01*
Y16079D01*
X20961Y16074D01*
X20959Y16070D01*
X20955Y16067D01*
G01X20942Y16044D02*
X20936Y16040D01*
X20933Y16036D01*
X20931Y16031D01*
X20933Y16026D01*
X20936Y16023D01*
X20941Y16021D01*
X20947Y16020D01*
X20952Y16021D01*
X20957Y16023D01*
X20961Y16027D01*
X20963Y16031D01*
X20961Y16036D01*
X20956Y16041D01*
X20948Y16043D01*
X20940Y16044D01*
X20929Y16043D01*
X20924Y16041D01*
X20918Y16038D01*
X20914Y16033D01*
X20913Y16029D01*
X20914Y16024D01*
X20919Y16021D01*
G01X20921Y15993D02*
X20916Y15989D01*
X20914Y15985D01*
X20913Y15980D01*
X20914Y15973D01*
X20919Y15969D01*
X20924Y15968D01*
X20929Y15968D01*
X20933Y15971D01*
X20941Y15984D01*
X20947Y15989D01*
X20955Y15993D01*
X20963Y15994D01*
Y15968D01*
G01X20716Y16070D02*
X20713Y16074D01*
X20712Y16078D01*
Y16083D01*
X20714Y16089D01*
X20718Y16093D01*
X20723Y16097D01*
X20732Y16099D01*
X20739Y16100D01*
X20747Y16099D01*
X20752Y16097D01*
X20757Y16093D01*
X20760Y16088D01*
X20762Y16084D01*
Y16080D01*
X20760Y16075D01*
X20758Y16071D01*
X20754Y16068D01*
G01X20741Y16045D02*
X20735Y16041D01*
X20732Y16037D01*
X20730Y16032D01*
X20732Y16027D01*
X20735Y16024D01*
X20740Y16022D01*
X20746Y16021D01*
X20751Y16022D01*
X20756Y16024D01*
X20760Y16028D01*
X20762Y16032D01*
X20760Y16037D01*
X20755Y16042D01*
X20748Y16044D01*
X20739Y16045D01*
X20728Y16044D01*
X20722Y16042D01*
X20717Y16039D01*
X20713Y16034D01*
X20712Y16030D01*
X20713Y16025D01*
X20718Y16022D01*
G01X20752Y15996D02*
X20758Y15992D01*
X20761Y15987D01*
X20762Y15981D01*
X20761Y15976D01*
X20757Y15971D01*
X20752Y15968D01*
X20747Y15967D01*
X20741Y15969D01*
X20737Y15973D01*
X20735Y15978D01*
Y15983D01*
G01Y15978D02*
X20732Y15974D01*
X20728Y15971D01*
X20723Y15969D01*
X20718Y15971D01*
X20714Y15974D01*
X20712Y15979D01*
X20713Y15985D01*
X20716Y15991D01*
G01X21182Y16385D02*
X21186Y16388D01*
X21190Y16389D01*
X21195D01*
X21201Y16387D01*
X21205Y16383D01*
X21209Y16378D01*
X21211Y16369D01*
X21212Y16362D01*
X21211Y16354D01*
X21209Y16349D01*
X21205Y16344D01*
X21200Y16341D01*
X21196Y16339D01*
X21192D01*
X21187Y16341D01*
X21183Y16343D01*
X21180Y16347D01*
G01X21137Y16339D02*
Y16389D01*
X21161Y16354D01*
X21129D01*
G01X21105Y16345D02*
X21100Y16341D01*
X21095Y16339D01*
X21090Y16341D01*
X21086Y16346D01*
X21083Y16354D01*
X21081Y16361D01*
Y16370D01*
X21083Y16378D01*
X21086Y16384D01*
X21090Y16388D01*
X21094Y16389D01*
X21099Y16388D01*
X21103Y16384D01*
X21105Y16379D01*
X21107Y16373D01*
X21105Y16367D01*
X21102Y16361D01*
X21098Y16358D01*
X21094Y16357D01*
X21089Y16358D01*
X21085Y16363D01*
X21081Y16370D01*
G01X21139Y16260D02*
Y16136D01*
X21083D01*
Y16260D01*
X21139D01*
G01X21086Y16233D02*
Y16258D01*
X21136D01*
Y16248D01*
G01Y16148D02*
Y16138D01*
X21086D01*
Y16163D01*
G01X20610Y16458D02*
X20630Y16478D01*
X20810D01*
X20830Y16458D01*
Y16118D01*
X20610D01*
Y16458D01*
G01X20831D02*
X20851Y16478D01*
X21031D01*
X21051Y16458D01*
Y16118D01*
X20831D01*
Y16458D01*
G01X20175Y15890D02*
Y15690D01*
X20075D01*
Y15890D01*
X20175D01*
G01X20055Y17830D02*
Y15650D01*
X20395D01*
Y17830D01*
X20055D01*
G01X21274Y16522D02*
Y16572D01*
X21258D01*
X21253Y16570D01*
X21250Y16566D01*
X21248Y16560D01*
X21250Y16553D01*
X21253Y16549D01*
X21258Y16546D01*
X21274D01*
G01X21258D02*
X21248Y16522D01*
G01X21210D02*
Y16572D01*
X21218Y16562D01*
G01Y16522D02*
X21202D01*
G01X21170Y16528D02*
X21165Y16524D01*
X21160Y16522D01*
X21155Y16524D01*
X21151Y16529D01*
X21148Y16536D01*
X21146Y16544D01*
Y16553D01*
X21148Y16561D01*
X21151Y16567D01*
X21155Y16571D01*
X21159Y16572D01*
X21164Y16571D01*
X21168Y16567D01*
X21170Y16562D01*
X21172Y16556D01*
X21170Y16550D01*
X21167Y16544D01*
X21163Y16541D01*
X21159Y16540D01*
X21154Y16541D01*
X21150Y16546D01*
X21146Y16553D01*
G01X21161Y16751D02*
X21158Y16755D01*
X21157Y16759D01*
Y16764D01*
X21159Y16770D01*
X21163Y16774D01*
X21168Y16778D01*
X21177Y16780D01*
X21184Y16781D01*
X21192Y16780D01*
X21197Y16778D01*
X21202Y16774D01*
X21205Y16769D01*
X21207Y16765D01*
Y16761D01*
X21205Y16756D01*
X21203Y16752D01*
X21199Y16749D01*
G01X21207Y16706D02*
X21157D01*
X21192Y16730D01*
Y16698D01*
G01X21207Y16663D02*
X21206Y16659D01*
X21203Y16654D01*
X21199Y16650D01*
X21193Y16649D01*
X21188Y16650D01*
X21183Y16654D01*
X21180Y16660D01*
Y16666D01*
X21178Y16670D01*
X21174Y16673D01*
X21168Y16674D01*
X21163Y16673D01*
X21158Y16668D01*
X21157Y16663D01*
X21158Y16658D01*
X21163Y16654D01*
X21168Y16652D01*
X21174Y16653D01*
X21178Y16656D01*
X21180Y16660D01*
Y16666D01*
X21183Y16672D01*
X21188Y16676D01*
X21193Y16677D01*
X21199Y16676D01*
X21203Y16673D01*
X21206Y16667D01*
X21207Y16663D01*
G01X21274Y17060D02*
Y17110D01*
X21258D01*
X21253Y17108D01*
X21250Y17104D01*
X21248Y17098D01*
X21250Y17091D01*
X21253Y17087D01*
X21258Y17084D01*
X21274D01*
G01X21258D02*
X21248Y17060D01*
G01X21210D02*
Y17110D01*
X21218Y17100D01*
G01Y17060D02*
X21202D01*
G01X21151D02*
Y17110D01*
X21175Y17074D01*
X21143D01*
G01X21171Y17528D02*
X21175Y17531D01*
X21179Y17532D01*
X21184D01*
X21190Y17530D01*
X21194Y17526D01*
X21198Y17521D01*
X21200Y17512D01*
X21201Y17505D01*
X21200Y17497D01*
X21198Y17492D01*
X21194Y17487D01*
X21189Y17484D01*
X21185Y17482D01*
X21181D01*
X21176Y17484D01*
X21172Y17486D01*
X21169Y17490D01*
G01X21134Y17482D02*
Y17532D01*
X21142Y17522D01*
G01Y17482D02*
X21126D01*
G01X21094Y17488D02*
X21089Y17484D01*
X21084Y17482D01*
X21079Y17484D01*
X21075Y17489D01*
X21072Y17496D01*
X21070Y17504D01*
Y17513D01*
X21072Y17521D01*
X21075Y17527D01*
X21079Y17531D01*
X21083Y17532D01*
X21088Y17531D01*
X21092Y17527D01*
X21094Y17522D01*
X21096Y17516D01*
X21094Y17510D01*
X21091Y17504D01*
X21087Y17501D01*
X21083Y17500D01*
X21078Y17501D01*
X21074Y17506D01*
X21070Y17513D01*
G01X21075Y16955D02*
X21072Y16959D01*
X21071Y16963D01*
Y16968D01*
X21073Y16974D01*
X21077Y16978D01*
X21082Y16982D01*
X21091Y16984D01*
X21098Y16985D01*
X21106Y16984D01*
X21111Y16982D01*
X21116Y16978D01*
X21119Y16973D01*
X21121Y16969D01*
Y16965D01*
X21119Y16960D01*
X21117Y16956D01*
X21113Y16953D01*
G01X21121Y16910D02*
X21071D01*
X21106Y16934D01*
Y16902D01*
G01X21111Y16881D02*
X21117Y16877D01*
X21120Y16872D01*
X21121Y16866D01*
X21120Y16861D01*
X21116Y16856D01*
X21111Y16853D01*
X21106Y16852D01*
X21100Y16854D01*
X21096Y16858D01*
X21094Y16863D01*
Y16868D01*
G01Y16863D02*
X21092Y16859D01*
X21087Y16856D01*
X21082Y16854D01*
X21077Y16856D01*
X21073Y16859D01*
X21071Y16864D01*
X21072Y16870D01*
X21075Y16876D01*
G01X21284Y16850D02*
X21288Y16853D01*
X21292Y16854D01*
X21297D01*
X21303Y16852D01*
X21307Y16848D01*
X21311Y16843D01*
X21313Y16834D01*
X21314Y16827D01*
X21313Y16819D01*
X21311Y16814D01*
X21307Y16809D01*
X21302Y16806D01*
X21298Y16804D01*
X21294D01*
X21289Y16806D01*
X21285Y16808D01*
X21282Y16812D01*
G01X21261Y16814D02*
X21257Y16808D01*
X21252Y16805D01*
X21246Y16804D01*
X21241Y16805D01*
X21236Y16809D01*
X21233Y16814D01*
X21232Y16819D01*
X21234Y16825D01*
X21238Y16829D01*
X21243Y16831D01*
X21248D01*
G01X21243D02*
X21239Y16834D01*
X21236Y16838D01*
X21234Y16843D01*
X21236Y16848D01*
X21239Y16852D01*
X21244Y16854D01*
X21250Y16854D01*
X21256Y16850D01*
G01X21210Y16812D02*
X21206Y16808D01*
X21202Y16805D01*
X21196Y16804D01*
X21190Y16806D01*
X21186Y16809D01*
X21183Y16815D01*
X21182Y16822D01*
X21183Y16828D01*
X21187Y16833D01*
X21191Y16836D01*
X21195Y16837D01*
X21200Y16836D01*
X21206Y16833D01*
X21204Y16854D01*
X21187D01*
G01X20549Y16956D02*
X20546Y16960D01*
X20545Y16964D01*
Y16969D01*
X20547Y16975D01*
X20551Y16979D01*
X20556Y16983D01*
X20565Y16985D01*
X20572Y16986D01*
X20580Y16985D01*
X20585Y16983D01*
X20590Y16979D01*
X20593Y16974D01*
X20595Y16970D01*
Y16966D01*
X20593Y16961D01*
X20591Y16957D01*
X20587Y16954D01*
G01X20595Y16911D02*
X20545D01*
X20580Y16935D01*
Y16903D01*
G01X20595Y16860D02*
X20545D01*
X20580Y16884D01*
Y16852D01*
G01X20914Y17662D02*
X20911Y17666D01*
X20910Y17670D01*
Y17675D01*
X20912Y17681D01*
X20916Y17685D01*
X20921Y17689D01*
X20930Y17691D01*
X20937Y17692D01*
X20945Y17691D01*
X20950Y17689D01*
X20955Y17685D01*
X20958Y17680D01*
X20960Y17676D01*
Y17672D01*
X20958Y17667D01*
X20956Y17663D01*
X20952Y17660D01*
G01X20918Y17637D02*
X20913Y17633D01*
X20910Y17629D01*
X20910Y17624D01*
X20911Y17617D01*
X20916Y17613D01*
X20920Y17612D01*
X20926Y17612D01*
X20930Y17615D01*
X20938Y17628D01*
X20944Y17633D01*
X20952Y17637D01*
X20960Y17638D01*
Y17612D01*
G01Y17574D02*
X20959Y17570D01*
X20956Y17565D01*
X20952Y17561D01*
X20946Y17560D01*
X20941Y17561D01*
X20936Y17565D01*
X20933Y17571D01*
Y17577D01*
X20931Y17581D01*
X20927Y17584D01*
X20921Y17585D01*
X20916Y17584D01*
X20911Y17579D01*
X20910Y17574D01*
X20911Y17569D01*
X20916Y17565D01*
X20921Y17563D01*
X20927Y17564D01*
X20931Y17567D01*
X20933Y17571D01*
Y17577D01*
X20936Y17583D01*
X20941Y17587D01*
X20946Y17588D01*
X20952Y17587D01*
X20956Y17584D01*
X20959Y17578D01*
X20960Y17574D01*
G01X20700Y17664D02*
X20697Y17668D01*
X20696Y17672D01*
Y17677D01*
X20698Y17683D01*
X20702Y17687D01*
X20707Y17691D01*
X20716Y17693D01*
X20723Y17694D01*
X20731Y17693D01*
X20736Y17691D01*
X20741Y17687D01*
X20744Y17682D01*
X20746Y17678D01*
Y17674D01*
X20744Y17669D01*
X20742Y17665D01*
X20738Y17662D01*
G01X20736Y17641D02*
X20742Y17637D01*
X20745Y17632D01*
X20746Y17626D01*
X20745Y17621D01*
X20741Y17616D01*
X20736Y17613D01*
X20731Y17612D01*
X20725Y17614D01*
X20721Y17618D01*
X20719Y17623D01*
Y17628D01*
G01Y17623D02*
X20716Y17619D01*
X20712Y17616D01*
X20707Y17614D01*
X20702Y17616D01*
X20698Y17619D01*
X20696Y17624D01*
X20696Y17630D01*
X20700Y17636D01*
G01X20696Y17576D02*
X20697Y17581D01*
X20702Y17585D01*
X20707Y17587D01*
X20713Y17589D01*
X20721Y17590D01*
X20728Y17589D01*
X20735Y17587D01*
X20740Y17585D01*
X20744Y17581D01*
X20746Y17576D01*
X20744Y17571D01*
X20740Y17567D01*
X20735Y17565D01*
X20728Y17563D01*
X20721Y17562D01*
X20713Y17563D01*
X20707Y17565D01*
X20702Y17567D01*
X20697Y17571D01*
X20696Y17576D01*
G01X21171Y17357D02*
X21169Y17361D01*
X21167Y17365D01*
Y17370D01*
X21170Y17376D01*
X21174Y17380D01*
X21179Y17384D01*
X21187Y17386D01*
X21194Y17387D01*
X21202Y17386D01*
X21207Y17384D01*
X21212Y17380D01*
X21215Y17375D01*
X21217Y17371D01*
Y17367D01*
X21215Y17362D01*
X21213Y17358D01*
X21210Y17355D01*
G01X21175Y17332D02*
X21170Y17328D01*
X21168Y17324D01*
X21167Y17319D01*
X21169Y17312D01*
X21173Y17308D01*
X21178Y17307D01*
X21183Y17307D01*
X21187Y17310D01*
X21195Y17323D01*
X21201Y17328D01*
X21210Y17332D01*
X21217Y17333D01*
Y17307D01*
G01X21211Y17280D02*
X21215Y17275D01*
X21217Y17270D01*
X21215Y17265D01*
X21210Y17261D01*
X21203Y17258D01*
X21195Y17256D01*
X21186D01*
X21179Y17258D01*
X21172Y17261D01*
X21169Y17265D01*
X21167Y17269D01*
X21169Y17274D01*
X21172Y17278D01*
X21177Y17280D01*
X21184Y17282D01*
X21190Y17280D01*
X21195Y17277D01*
X21199Y17273D01*
X21200Y17269D01*
X21198Y17264D01*
X21194Y17260D01*
X21186Y17256D01*
G01X21139Y17380D02*
Y17256D01*
X21083D01*
Y17380D01*
X21139D01*
G01X21086Y17353D02*
Y17378D01*
X21136D01*
Y17368D01*
G01Y17268D02*
Y17258D01*
X21086D01*
Y17283D01*
G01X21083Y16677D02*
Y16801D01*
X21139D01*
Y16677D01*
X21083D01*
G01X21136Y16704D02*
Y16679D01*
X21086D01*
Y16689D01*
G01Y16789D02*
Y16799D01*
X21136D01*
Y16774D01*
G01X20630Y16478D02*
X20640Y16488D01*
X20800D01*
X20810Y16478D01*
G01X20851D02*
X20861Y16488D01*
X21021D01*
X21031Y16478D01*
G01X20175Y17790D02*
Y17590D01*
X20075D01*
Y17790D01*
X20175D01*
G01X21051Y16746D02*
X21031Y16726D01*
X20851D01*
X20831Y16746D01*
Y17086D01*
X21051D01*
Y16746D01*
G01X21031Y16726D02*
X21021Y16716D01*
X20861D01*
X20851Y16726D01*
G01X20830Y16746D02*
X20810Y16726D01*
X20630D01*
X20610Y16746D01*
Y17086D01*
X20830D01*
Y16746D01*
G01X20810Y16726D02*
X20800Y16716D01*
X20640D01*
X20630Y16726D01*
G01X20851Y17459D02*
X20861Y17469D01*
X21021D01*
X21031Y17459D01*
G01X20831Y17439D02*
X20851Y17459D01*
X21031D01*
X21051Y17439D01*
Y17099D01*
X20831D01*
Y17439D01*
G01X20610D02*
X20630Y17459D01*
X20810D01*
X20830Y17439D01*
Y17099D01*
X20610D01*
Y17439D01*
G01X20630Y17459D02*
X20640Y17469D01*
X20800D01*
X20810Y17459D01*
G01X20085Y17640D02*
X20165D01*
X20125Y17600D01*
X20085Y17640D01*
G01X21268Y17643D02*
Y17693D01*
X21252D01*
X21247Y17691D01*
X21244Y17687D01*
X21243Y17681D01*
X21244Y17674D01*
X21248Y17670D01*
X21252Y17667D01*
X21268D01*
G01X21252D02*
X21243Y17643D01*
G01X21215Y17649D02*
X21211Y17645D01*
X21206Y17643D01*
X21201Y17645D01*
X21196Y17650D01*
X21193Y17658D01*
X21192Y17665D01*
Y17674D01*
X21193Y17682D01*
X21196Y17688D01*
X21200Y17692D01*
X21205Y17693D01*
X21210Y17692D01*
X21213Y17688D01*
X21216Y17683D01*
X21217Y17677D01*
X21216Y17671D01*
X21213Y17665D01*
X21209Y17662D01*
X21205Y17661D01*
X21199Y17662D01*
X21196Y17667D01*
X21192Y17674D01*
G01X21739Y16263D02*
X21743Y16266D01*
X21747Y16267D01*
X21752D01*
X21758Y16265D01*
X21762Y16261D01*
X21766Y16256D01*
X21768Y16247D01*
X21769Y16240D01*
X21768Y16232D01*
X21766Y16227D01*
X21762Y16222D01*
X21757Y16219D01*
X21753Y16217D01*
X21749D01*
X21744Y16219D01*
X21740Y16221D01*
X21737Y16225D01*
G01X21714Y16238D02*
X21710Y16244D01*
X21706Y16247D01*
X21701Y16249D01*
X21696Y16247D01*
X21693Y16244D01*
X21691Y16239D01*
X21690Y16233D01*
X21691Y16228D01*
X21693Y16223D01*
X21697Y16219D01*
X21701Y16217D01*
X21706Y16219D01*
X21711Y16224D01*
X21713Y16232D01*
X21714Y16240D01*
X21713Y16251D01*
X21711Y16256D01*
X21708Y16262D01*
X21703Y16266D01*
X21699Y16267D01*
X21694Y16266D01*
X21691Y16261D01*
G01X21665Y16225D02*
X21661Y16221D01*
X21657Y16218D01*
X21651Y16217D01*
X21645Y16219D01*
X21641Y16222D01*
X21638Y16228D01*
X21637Y16235D01*
X21638Y16241D01*
X21642Y16246D01*
X21646Y16249D01*
X21650Y16250D01*
X21655Y16249D01*
X21661Y16246D01*
X21659Y16267D01*
X21642D01*
G01X21612Y16413D02*
X21616Y16416D01*
X21620Y16417D01*
X21625D01*
X21631Y16415D01*
X21635Y16411D01*
X21639Y16406D01*
X21641Y16397D01*
X21642Y16390D01*
X21641Y16382D01*
X21639Y16377D01*
X21635Y16372D01*
X21630Y16369D01*
X21626Y16367D01*
X21622D01*
X21617Y16369D01*
X21613Y16371D01*
X21610Y16375D01*
G01X21589D02*
X21585Y16371D01*
X21581Y16368D01*
X21575Y16367D01*
X21569Y16369D01*
X21565Y16372D01*
X21562Y16378D01*
X21561Y16385D01*
X21562Y16391D01*
X21566Y16396D01*
X21570Y16399D01*
X21574Y16400D01*
X21579Y16399D01*
X21584Y16396D01*
X21583Y16417D01*
X21566D01*
G01X21524D02*
X21529Y16416D01*
X21533Y16411D01*
X21535Y16406D01*
X21537Y16400D01*
X21538Y16392D01*
X21537Y16385D01*
X21535Y16378D01*
X21533Y16373D01*
X21529Y16369D01*
X21524Y16367D01*
X21519Y16369D01*
X21515Y16373D01*
X21513Y16378D01*
X21511Y16385D01*
X21510Y16392D01*
X21511Y16400D01*
X21513Y16406D01*
X21515Y16411D01*
X21519Y16416D01*
X21524Y16417D01*
G01X21609Y16344D02*
X21613Y16347D01*
X21617Y16348D01*
X21622D01*
X21628Y16346D01*
X21632Y16342D01*
X21636Y16337D01*
X21638Y16328D01*
X21639Y16321D01*
X21638Y16313D01*
X21636Y16308D01*
X21632Y16303D01*
X21627Y16300D01*
X21623Y16298D01*
X21619D01*
X21614Y16300D01*
X21610Y16302D01*
X21607Y16306D01*
G01X21584Y16319D02*
X21580Y16325D01*
X21576Y16328D01*
X21571Y16330D01*
X21566Y16328D01*
X21563Y16325D01*
X21561Y16320D01*
X21560Y16314D01*
X21561Y16309D01*
X21563Y16304D01*
X21567Y16300D01*
X21571Y16298D01*
X21576Y16300D01*
X21581Y16305D01*
X21583Y16312D01*
X21584Y16321D01*
X21583Y16332D01*
X21581Y16337D01*
X21578Y16343D01*
X21573Y16348D01*
X21569Y16348D01*
X21564Y16347D01*
X21561Y16342D01*
G01X21521Y16298D02*
Y16348D01*
X21529Y16338D01*
G01Y16298D02*
X21513D01*
G01X21341Y16365D02*
X21217D01*
Y16421D01*
X21341D01*
Y16365D01*
G01X21314Y16418D02*
X21339D01*
Y16368D01*
X21329D01*
G01X21229D02*
X21219D01*
Y16418D01*
X21244D01*
G01X21348Y16421D02*
X21472D01*
Y16365D01*
X21348D01*
Y16421D01*
G01X21375Y16368D02*
X21350D01*
Y16418D01*
X21360D01*
G01X21460D02*
X21470D01*
Y16368D01*
X21445D01*
G01X21884Y16182D02*
X21894Y16172D01*
Y16012D01*
X21884Y16002D01*
G01X21864Y16202D02*
X21884Y16182D01*
Y16002D01*
X21864Y15982D01*
X21524D01*
Y16202D01*
X21864D01*
G01X22027Y15993D02*
Y16393D01*
X22177D01*
Y15993D01*
X22027D01*
G01X22717Y16180D02*
X22317D01*
Y16330D01*
X22717D01*
Y16180D01*
G01X22261Y15757D02*
Y15887D01*
X22631D01*
Y15757D01*
X22261D01*
G01X21460Y16349D02*
X21470D01*
Y16299D01*
X21445D01*
G01X21375D02*
X21350D01*
Y16349D01*
X21360D01*
G01X21348Y16352D02*
X21472D01*
Y16296D01*
X21348D01*
Y16352D01*
G01X21639Y16450D02*
Y16500D01*
X21623D01*
X21618Y16498D01*
X21615Y16494D01*
X21613Y16488D01*
X21615Y16481D01*
X21618Y16477D01*
X21623Y16474D01*
X21639D01*
G01X21623D02*
X21613Y16450D01*
G01X21587Y16492D02*
X21583Y16497D01*
X21579Y16500D01*
X21574Y16500D01*
X21567Y16499D01*
X21563Y16494D01*
X21562Y16490D01*
X21562Y16484D01*
X21565Y16480D01*
X21578Y16472D01*
X21583Y16466D01*
X21587Y16458D01*
X21588Y16450D01*
X21562D01*
G01X21524Y16500D02*
X21529Y16499D01*
X21533Y16494D01*
X21535Y16490D01*
X21537Y16483D01*
X21538Y16475D01*
X21537Y16468D01*
X21535Y16461D01*
X21533Y16456D01*
X21529Y16452D01*
X21524Y16450D01*
X21519Y16452D01*
X21515Y16456D01*
X21513Y16461D01*
X21511Y16468D01*
X21510Y16475D01*
X21511Y16483D01*
X21513Y16490D01*
X21515Y16494D01*
X21519Y16499D01*
X21524Y16500D01*
G01X21645Y17563D02*
Y17613D01*
X21629D01*
X21624Y17611D01*
X21621Y17607D01*
X21619Y17601D01*
X21621Y17594D01*
X21624Y17590D01*
X21629Y17587D01*
X21645D01*
G01X21629D02*
X21619Y17563D01*
G01X21581D02*
Y17613D01*
X21589Y17603D01*
G01Y17563D02*
X21573D01*
G01X21530Y17613D02*
X21535Y17612D01*
X21539Y17607D01*
X21541Y17602D01*
X21543Y17596D01*
X21544Y17588D01*
X21543Y17581D01*
X21541Y17574D01*
X21539Y17569D01*
X21535Y17565D01*
X21530Y17563D01*
X21525Y17565D01*
X21521Y17569D01*
X21519Y17574D01*
X21517Y17581D01*
X21516Y17588D01*
X21517Y17596D01*
X21519Y17602D01*
X21521Y17607D01*
X21525Y17612D01*
X21530Y17613D01*
G01X21618Y17530D02*
X21622Y17533D01*
X21626Y17534D01*
X21631D01*
X21637Y17532D01*
X21641Y17528D01*
X21645Y17523D01*
X21647Y17514D01*
X21648Y17507D01*
X21647Y17499D01*
X21645Y17494D01*
X21641Y17489D01*
X21636Y17486D01*
X21632Y17484D01*
X21628D01*
X21623Y17486D01*
X21619Y17488D01*
X21616Y17492D01*
G01X21593Y17526D02*
X21589Y17531D01*
X21585Y17534D01*
X21580Y17534D01*
X21573Y17533D01*
X21569Y17528D01*
X21568Y17524D01*
X21568Y17518D01*
X21571Y17514D01*
X21584Y17506D01*
X21589Y17500D01*
X21593Y17492D01*
X21594Y17484D01*
X21568D01*
G01X21530Y17534D02*
X21535Y17533D01*
X21539Y17528D01*
X21541Y17524D01*
X21543Y17517D01*
X21544Y17509D01*
X21543Y17502D01*
X21541Y17495D01*
X21539Y17490D01*
X21535Y17486D01*
X21530Y17484D01*
X21525Y17486D01*
X21521Y17490D01*
X21519Y17495D01*
X21517Y17502D01*
X21516Y17509D01*
X21517Y17517D01*
X21519Y17524D01*
X21521Y17528D01*
X21525Y17533D01*
X21530Y17534D01*
G01X21616Y17458D02*
X21620Y17461D01*
X21624Y17462D01*
X21629D01*
X21635Y17460D01*
X21639Y17456D01*
X21643Y17451D01*
X21645Y17442D01*
X21646Y17435D01*
X21645Y17427D01*
X21643Y17422D01*
X21639Y17417D01*
X21634Y17414D01*
X21630Y17412D01*
X21626D01*
X21621Y17414D01*
X21617Y17416D01*
X21614Y17420D01*
G01X21591Y17454D02*
X21587Y17459D01*
X21583Y17462D01*
X21578Y17462D01*
X21571Y17461D01*
X21567Y17456D01*
X21566Y17452D01*
X21566Y17446D01*
X21569Y17442D01*
X21582Y17434D01*
X21587Y17428D01*
X21591Y17420D01*
X21592Y17412D01*
X21566D01*
G01X21529D02*
X21528Y17423D01*
X21526Y17432D01*
X21524Y17441D01*
X21520Y17450D01*
X21515Y17462D01*
X21541D01*
G01X21623Y16880D02*
X21627Y16883D01*
X21631Y16884D01*
X21636D01*
X21642Y16882D01*
X21646Y16878D01*
X21650Y16873D01*
X21652Y16864D01*
X21653Y16857D01*
X21652Y16849D01*
X21650Y16844D01*
X21646Y16839D01*
X21641Y16836D01*
X21637Y16834D01*
X21633D01*
X21628Y16836D01*
X21624Y16838D01*
X21621Y16842D01*
G01X21578Y16834D02*
Y16884D01*
X21602Y16848D01*
X21570D01*
G01X21547Y16876D02*
X21543Y16881D01*
X21539Y16884D01*
X21534Y16884D01*
X21527Y16883D01*
X21523Y16878D01*
X21522Y16874D01*
X21522Y16868D01*
X21525Y16864D01*
X21538Y16856D01*
X21543Y16850D01*
X21547Y16842D01*
X21548Y16834D01*
X21522D01*
G01X21645Y16977D02*
Y17027D01*
X21629D01*
X21624Y17025D01*
X21621Y17021D01*
X21619Y17015D01*
X21621Y17008D01*
X21624Y17004D01*
X21629Y17001D01*
X21645D01*
G01X21629D02*
X21619Y16977D01*
G01X21581D02*
Y17027D01*
X21589Y17017D01*
G01Y16977D02*
X21573D01*
G01X21544Y16985D02*
X21540Y16981D01*
X21536Y16978D01*
X21530Y16977D01*
X21524Y16979D01*
X21520Y16982D01*
X21517Y16988D01*
X21516Y16995D01*
X21517Y17001D01*
X21521Y17006D01*
X21525Y17009D01*
X21529Y17010D01*
X21534Y17009D01*
X21540Y17006D01*
X21538Y17027D01*
X21521D01*
G01X21616Y16949D02*
X21620Y16952D01*
X21624Y16953D01*
X21629D01*
X21635Y16951D01*
X21639Y16947D01*
X21643Y16942D01*
X21645Y16933D01*
X21646Y16926D01*
X21645Y16918D01*
X21643Y16913D01*
X21639Y16908D01*
X21634Y16905D01*
X21630Y16903D01*
X21626D01*
X21621Y16905D01*
X21617Y16907D01*
X21614Y16911D01*
G01X21593Y16913D02*
X21589Y16907D01*
X21584Y16904D01*
X21578Y16903D01*
X21573Y16904D01*
X21568Y16908D01*
X21565Y16913D01*
X21564Y16918D01*
X21566Y16924D01*
X21570Y16928D01*
X21575Y16930D01*
X21580D01*
G01X21575D02*
X21571Y16932D01*
X21568Y16937D01*
X21566Y16942D01*
X21568Y16947D01*
X21571Y16951D01*
X21576Y16953D01*
X21582Y16952D01*
X21588Y16949D01*
G01X21528Y16903D02*
X21524Y16904D01*
X21519Y16907D01*
X21515Y16911D01*
X21514Y16917D01*
X21515Y16922D01*
X21519Y16927D01*
X21525Y16930D01*
X21531D01*
X21535Y16932D01*
X21538Y16936D01*
X21539Y16942D01*
X21538Y16947D01*
X21533Y16952D01*
X21528Y16953D01*
X21523Y16952D01*
X21519Y16947D01*
X21517Y16942D01*
X21518Y16936D01*
X21521Y16932D01*
X21525Y16930D01*
X21531D01*
X21537Y16927D01*
X21541Y16922D01*
X21542Y16917D01*
X21541Y16911D01*
X21538Y16907D01*
X21532Y16904D01*
X21528Y16903D01*
G01X21737Y16798D02*
X21741Y16801D01*
X21745Y16802D01*
X21750D01*
X21756Y16800D01*
X21760Y16796D01*
X21764Y16791D01*
X21766Y16782D01*
X21767Y16775D01*
X21766Y16767D01*
X21764Y16762D01*
X21760Y16757D01*
X21755Y16754D01*
X21751Y16752D01*
X21747D01*
X21742Y16754D01*
X21738Y16756D01*
X21735Y16760D01*
G01X21692Y16752D02*
Y16802D01*
X21716Y16766D01*
X21684D01*
G01X21650Y16752D02*
X21649Y16763D01*
X21647Y16772D01*
X21645Y16781D01*
X21641Y16790D01*
X21636Y16802D01*
X21662D01*
G01X21731Y17383D02*
X21735Y17385D01*
X21739Y17387D01*
X21744D01*
X21750Y17384D01*
X21755Y17380D01*
X21758Y17375D01*
X21760Y17367D01*
X21761Y17360D01*
X21760Y17352D01*
X21758Y17347D01*
X21754Y17342D01*
X21749Y17339D01*
X21745Y17337D01*
X21741D01*
X21736Y17339D01*
X21732Y17341D01*
X21729Y17344D01*
G01X21708Y17347D02*
X21704Y17341D01*
X21699Y17338D01*
X21693Y17337D01*
X21688Y17338D01*
X21683Y17342D01*
X21680Y17347D01*
X21679Y17352D01*
X21681Y17358D01*
X21685Y17362D01*
X21690Y17364D01*
X21695D01*
G01X21690D02*
X21686Y17366D01*
X21683Y17370D01*
X21681Y17375D01*
X21683Y17380D01*
X21686Y17384D01*
X21691Y17387D01*
X21697Y17386D01*
X21703Y17383D01*
G01X21657Y17347D02*
X21653Y17341D01*
X21648Y17338D01*
X21642Y17337D01*
X21637Y17338D01*
X21632Y17342D01*
X21629Y17347D01*
X21628Y17352D01*
X21630Y17358D01*
X21634Y17362D01*
X21639Y17364D01*
X21644D01*
G01X21639D02*
X21635Y17366D01*
X21632Y17370D01*
X21630Y17375D01*
X21632Y17380D01*
X21635Y17384D01*
X21641Y17387D01*
X21646Y17386D01*
X21652Y17383D01*
G01X21460Y16885D02*
X21470D01*
Y16835D01*
X21445D01*
G01X21375D02*
X21350D01*
Y16885D01*
X21360D01*
G01X21348Y16888D02*
X21472D01*
Y16832D01*
X21348D01*
Y16888D01*
G01X21460Y17465D02*
X21470D01*
Y17415D01*
X21445D01*
G01X21375D02*
X21350D01*
Y17465D01*
X21360D01*
G01X21348Y17468D02*
X21472D01*
Y17412D01*
X21348D01*
Y17468D01*
G01X21342Y16900D02*
X21218D01*
Y16956D01*
X21342D01*
Y16900D01*
G01X21315Y16953D02*
X21340D01*
Y16903D01*
X21330D01*
G01X21230D02*
X21220D01*
Y16953D01*
X21245D01*
G01X21341Y17481D02*
X21217D01*
Y17537D01*
X21341D01*
Y17481D01*
G01X21314Y17534D02*
X21339D01*
Y17484D01*
X21329D01*
G01X21229D02*
X21219D01*
Y17534D01*
X21244D01*
G01X21217Y16507D02*
X21341D01*
Y16451D01*
X21217D01*
Y16507D01*
G01X21244Y16454D02*
X21219D01*
Y16504D01*
X21229D01*
G01X21329D02*
X21339D01*
Y16454D01*
X21314D01*
G01X21348Y16507D02*
X21472D01*
Y16451D01*
X21348D01*
Y16507D01*
G01X21375Y16454D02*
X21350D01*
Y16504D01*
X21360D01*
G01X21460D02*
X21470D01*
Y16454D01*
X21445D01*
G01X21864Y17317D02*
X21884Y17297D01*
Y17117D01*
X21864Y17097D01*
X21524D01*
Y17317D01*
X21864D01*
G01X21884Y17297D02*
X21894Y17287D01*
Y17127D01*
X21884Y17117D01*
G01X21864Y16740D02*
X21884Y16720D01*
Y16540D01*
X21864Y16520D01*
X21524D01*
Y16740D01*
X21864D01*
G01X21884Y16720D02*
X21894Y16710D01*
Y16550D01*
X21884Y16540D01*
G01X21348Y17035D02*
X21472D01*
Y16979D01*
X21348D01*
Y17035D01*
G01X21375Y16982D02*
X21350D01*
Y17032D01*
X21360D01*
G01X21460D02*
X21470D01*
Y16982D01*
X21445D01*
G01X21348Y16956D02*
X21472D01*
Y16900D01*
X21348D01*
Y16956D01*
G01X21375Y16903D02*
X21350D01*
Y16953D01*
X21360D01*
G01X21460D02*
X21470D01*
Y16903D01*
X21445D01*
G01X21330Y17032D02*
X21340D01*
Y16982D01*
X21315D01*
G01X21245D02*
X21220D01*
Y17032D01*
X21230D01*
G01X21218Y17035D02*
X21342D01*
Y16979D01*
X21218D01*
Y17035D01*
G01X21460Y17614D02*
X21470D01*
Y17564D01*
X21445D01*
G01X21375D02*
X21350D01*
Y17614D01*
X21360D01*
G01X21348Y17617D02*
X21472D01*
Y17561D01*
X21348D01*
Y17617D01*
G01X21460Y17534D02*
X21470D01*
Y17484D01*
X21445D01*
G01X21375D02*
X21350D01*
Y17534D01*
X21360D01*
G01X21348Y17537D02*
X21472D01*
Y17481D01*
X21348D01*
Y17537D01*
G01X21329Y17614D02*
X21339D01*
Y17564D01*
X21314D01*
G01X21244D02*
X21219D01*
Y17614D01*
X21229D01*
G01X21217Y17617D02*
X21341D01*
Y17561D01*
X21217D01*
Y17617D01*
G01X23304Y16184D02*
X22904D01*
Y16334D01*
X23304D01*
Y16184D01*
G01X22825Y15821D02*
Y15621D01*
X23175D01*
Y15821D01*
X22825D01*
G01X23161Y16389D02*
X23141Y16369D01*
X22961D01*
X22941Y16389D01*
Y16729D01*
X23161D01*
Y16389D01*
G01X23141Y16369D02*
X23131Y16359D01*
X22971D01*
X22961Y16369D01*
G01X23660Y16389D02*
X23640Y16369D01*
X23460D01*
X23440Y16389D01*
Y16729D01*
X23660D01*
Y16389D01*
G01X23640Y16369D02*
X23630Y16359D01*
X23470D01*
X23460Y16369D01*
G01X22881Y16606D02*
X22878Y16610D01*
X22877Y16614D01*
Y16619D01*
X22879Y16625D01*
X22883Y16629D01*
X22888Y16633D01*
X22897Y16635D01*
X22904Y16636D01*
X22912Y16635D01*
X22917Y16633D01*
X22922Y16629D01*
X22925Y16624D01*
X22927Y16620D01*
Y16616D01*
X22925Y16611D01*
X22923Y16607D01*
X22919Y16604D01*
G01X22927Y16561D02*
X22877D01*
X22912Y16585D01*
Y16553D01*
G01X22927Y16518D02*
X22877D01*
X22887Y16526D01*
G01X22927D02*
Y16510D01*
G01X24335Y15952D02*
Y16352D01*
X24485D01*
Y15952D01*
X24335D01*
G01X24525Y15881D02*
Y15505D01*
X25025D01*
Y15881D01*
X24525D01*
G01X23681Y16610D02*
X23678Y16614D01*
X23677Y16618D01*
Y16623D01*
X23679Y16629D01*
X23683Y16633D01*
X23688Y16637D01*
X23697Y16639D01*
X23704Y16640D01*
X23712Y16639D01*
X23717Y16637D01*
X23722Y16633D01*
X23725Y16628D01*
X23727Y16624D01*
Y16620D01*
X23725Y16615D01*
X23723Y16611D01*
X23719Y16608D01*
G01X23717Y16587D02*
X23723Y16583D01*
X23726Y16578D01*
X23727Y16572D01*
X23726Y16567D01*
X23722Y16562D01*
X23717Y16559D01*
X23712Y16558D01*
X23706Y16560D01*
X23702Y16564D01*
X23700Y16569D01*
Y16574D01*
G01Y16569D02*
X23698Y16565D01*
X23693Y16562D01*
X23688Y16560D01*
X23683Y16562D01*
X23679Y16565D01*
X23677Y16570D01*
X23678Y16576D01*
X23681Y16582D01*
G01X23721Y16533D02*
X23725Y16528D01*
X23727Y16523D01*
X23725Y16518D01*
X23720Y16514D01*
X23713Y16511D01*
X23705Y16509D01*
X23696D01*
X23688Y16511D01*
X23682Y16514D01*
X23678Y16518D01*
X23677Y16522D01*
X23678Y16527D01*
X23682Y16531D01*
X23687Y16533D01*
X23693Y16535D01*
X23699Y16533D01*
X23705Y16530D01*
X23708Y16526D01*
X23709Y16522D01*
X23708Y16517D01*
X23703Y16513D01*
X23696Y16509D01*
G01X23775Y17608D02*
Y17208D01*
X23625D01*
Y17608D01*
X23775D01*
G01Y18107D02*
Y17707D01*
X23625D01*
Y18107D01*
X23775D01*
G01X25952Y16473D02*
X25902D01*
Y16457D01*
X25904Y16452D01*
X25908Y16449D01*
X25914Y16447D01*
X25921Y16449D01*
X25925Y16452D01*
X25928Y16457D01*
Y16473D01*
G01Y16457D02*
X25952Y16447D01*
G01X25910Y16421D02*
X25905Y16417D01*
X25902Y16413D01*
X25902Y16408D01*
X25903Y16401D01*
X25908Y16397D01*
X25912Y16396D01*
X25918Y16396D01*
X25922Y16399D01*
X25930Y16412D01*
X25936Y16417D01*
X25944Y16421D01*
X25952Y16422D01*
Y16396D01*
G01Y16358D02*
X25902D01*
X25912Y16366D01*
G01X25952D02*
Y16350D01*
G01X25806Y16452D02*
X25803Y16456D01*
X25802Y16460D01*
Y16465D01*
X25804Y16471D01*
X25808Y16475D01*
X25813Y16479D01*
X25822Y16481D01*
X25829Y16482D01*
X25837Y16481D01*
X25842Y16479D01*
X25847Y16475D01*
X25850Y16470D01*
X25852Y16466D01*
Y16462D01*
X25850Y16457D01*
X25848Y16453D01*
X25844Y16450D01*
G01X25842Y16429D02*
X25848Y16425D01*
X25851Y16420D01*
X25852Y16414D01*
X25851Y16409D01*
X25847Y16404D01*
X25842Y16401D01*
X25837Y16400D01*
X25831Y16402D01*
X25827Y16406D01*
X25825Y16411D01*
Y16416D01*
G01Y16411D02*
X25822Y16407D01*
X25818Y16404D01*
X25813Y16402D01*
X25808Y16404D01*
X25804Y16407D01*
X25802Y16412D01*
X25803Y16418D01*
X25806Y16424D01*
G01X25852Y16356D02*
X25802D01*
X25838Y16380D01*
Y16348D01*
G01X25614Y16304D02*
X25611Y16308D01*
X25610Y16312D01*
Y16317D01*
X25612Y16323D01*
X25616Y16327D01*
X25621Y16331D01*
X25630Y16333D01*
X25637Y16334D01*
X25645Y16333D01*
X25650Y16331D01*
X25655Y16327D01*
X25658Y16322D01*
X25660Y16318D01*
Y16314D01*
X25658Y16309D01*
X25656Y16305D01*
X25652Y16302D01*
G01Y16281D02*
X25656Y16277D01*
X25659Y16273D01*
X25660Y16267D01*
X25658Y16261D01*
X25655Y16257D01*
X25649Y16254D01*
X25642Y16253D01*
X25636Y16254D01*
X25631Y16258D01*
X25628Y16262D01*
X25627Y16266D01*
X25628Y16271D01*
X25631Y16276D01*
X25610Y16275D01*
Y16258D01*
G01X25660Y16216D02*
X25659Y16212D01*
X25656Y16207D01*
X25652Y16203D01*
X25646Y16202D01*
X25641Y16203D01*
X25636Y16207D01*
X25633Y16213D01*
Y16219D01*
X25631Y16223D01*
X25627Y16226D01*
X25621Y16227D01*
X25616Y16226D01*
X25611Y16221D01*
X25610Y16216D01*
X25611Y16211D01*
X25616Y16207D01*
X25621Y16205D01*
X25627Y16206D01*
X25631Y16209D01*
X25633Y16213D01*
Y16219D01*
X25636Y16225D01*
X25641Y16229D01*
X25646Y16230D01*
X25652Y16229D01*
X25656Y16226D01*
X25659Y16220D01*
X25660Y16216D01*
G01X25021Y16239D02*
Y16639D01*
X25171D01*
Y16239D01*
X25021D01*
G01X25230Y15490D02*
X25100D01*
Y15810D01*
X25230D01*
Y15490D01*
G01X26235Y16259D02*
G03I-15J-424D01*
G01X25590Y16108D02*
X25570Y16088D01*
X25390D01*
X25370Y16108D01*
Y16448D01*
X25590D01*
Y16108D01*
G01X25570Y16088D02*
X25560Y16079D01*
X25400D01*
X25390Y16088D01*
G01X26023Y17460D02*
X26026Y17463D01*
X26031Y17464D01*
X26036D01*
X26042Y17462D01*
X26046Y17458D01*
X26049Y17453D01*
X26052Y17444D01*
X26052Y17437D01*
X26051Y17429D01*
X26049Y17424D01*
X26045Y17419D01*
X26041Y17416D01*
X26036Y17414D01*
X26032D01*
X26028Y17416D01*
X26024Y17418D01*
X26021Y17422D01*
G01X25999Y17424D02*
X25996Y17418D01*
X25991Y17415D01*
X25985Y17414D01*
X25980Y17415D01*
X25975Y17419D01*
X25972Y17424D01*
X25971Y17429D01*
X25972Y17435D01*
X25977Y17439D01*
X25981Y17441D01*
X25987D01*
G01X25981D02*
X25977Y17444D01*
X25974Y17448D01*
X25973Y17453D01*
X25974Y17458D01*
X25977Y17462D01*
X25983Y17464D01*
X25989Y17464D01*
X25994Y17460D01*
G01X26048Y17340D02*
Y17390D01*
X26032D01*
X26027Y17388D01*
X26024Y17384D01*
X26023Y17378D01*
X26024Y17371D01*
X26028Y17367D01*
X26032Y17364D01*
X26048D01*
G01X26032D02*
X26023Y17340D01*
G01X25998Y17348D02*
X25995Y17344D01*
X25990Y17341D01*
X25985Y17340D01*
X25979Y17342D01*
X25974Y17345D01*
X25971Y17351D01*
X25971Y17358D01*
X25972Y17364D01*
X25975Y17369D01*
X25979Y17372D01*
X25984Y17373D01*
X25988Y17372D01*
X25994Y17369D01*
X25992Y17390D01*
X25975D01*
G01X26022Y17527D02*
X26025Y17530D01*
X26030Y17531D01*
X26035D01*
X26041Y17529D01*
X26045Y17525D01*
X26048Y17520D01*
X26051Y17511D01*
X26051Y17504D01*
X26050Y17496D01*
X26048Y17491D01*
X26044Y17486D01*
X26040Y17483D01*
X26035Y17481D01*
X26031D01*
X26027Y17483D01*
X26023Y17485D01*
X26020Y17489D01*
G01X25997Y17502D02*
X25992Y17508D01*
X25988Y17511D01*
X25983Y17513D01*
X25979Y17511D01*
X25976Y17508D01*
X25973Y17503D01*
X25972Y17497D01*
X25973Y17492D01*
X25976Y17487D01*
X25979Y17483D01*
X25984Y17481D01*
X25989Y17483D01*
X25993Y17488D01*
X25996Y17496D01*
X25997Y17504D01*
X25995Y17515D01*
X25993Y17521D01*
X25990Y17526D01*
X25986Y17530D01*
X25981Y17531D01*
X25977Y17530D01*
X25974Y17525D01*
G01X25583Y16794D02*
X25587Y16797D01*
X25591Y16798D01*
X25596D01*
X25602Y16796D01*
X25606Y16792D01*
X25610Y16787D01*
X25612Y16778D01*
X25613Y16771D01*
X25612Y16763D01*
X25610Y16758D01*
X25606Y16753D01*
X25601Y16750D01*
X25597Y16748D01*
X25593D01*
X25588Y16750D01*
X25584Y16752D01*
X25581Y16756D01*
G01X25558Y16790D02*
X25554Y16795D01*
X25550Y16798D01*
X25545Y16798D01*
X25538Y16797D01*
X25534Y16792D01*
X25533Y16788D01*
X25533Y16782D01*
X25536Y16778D01*
X25549Y16770D01*
X25554Y16764D01*
X25558Y16756D01*
X25559Y16748D01*
X25533D01*
G01X25509Y16756D02*
X25505Y16752D01*
X25501Y16749D01*
X25495Y16748D01*
X25489Y16750D01*
X25485Y16753D01*
X25482Y16759D01*
X25481Y16766D01*
X25482Y16772D01*
X25486Y16777D01*
X25490Y16780D01*
X25494Y16781D01*
X25499Y16780D01*
X25505Y16777D01*
X25503Y16798D01*
X25486D01*
G01X25582Y17048D02*
X25586Y17051D01*
X25590Y17052D01*
X25595D01*
X25601Y17050D01*
X25605Y17046D01*
X25609Y17041D01*
X25611Y17032D01*
X25612Y17025D01*
X25611Y17017D01*
X25609Y17012D01*
X25605Y17007D01*
X25600Y17004D01*
X25596Y17002D01*
X25592D01*
X25587Y17004D01*
X25583Y17006D01*
X25580Y17010D01*
G01X25557Y17044D02*
X25553Y17049D01*
X25549Y17052D01*
X25544Y17052D01*
X25537Y17051D01*
X25533Y17046D01*
X25532Y17042D01*
X25532Y17036D01*
X25535Y17032D01*
X25548Y17024D01*
X25553Y17018D01*
X25557Y17010D01*
X25558Y17002D01*
X25532D01*
G01X25506Y17023D02*
X25502Y17029D01*
X25498Y17032D01*
X25493Y17034D01*
X25488Y17032D01*
X25485Y17029D01*
X25483Y17024D01*
X25482Y17018D01*
X25483Y17013D01*
X25485Y17008D01*
X25489Y17004D01*
X25493Y17002D01*
X25498Y17004D01*
X25503Y17009D01*
X25505Y17016D01*
X25506Y17025D01*
X25505Y17036D01*
X25503Y17042D01*
X25500Y17047D01*
X25495Y17052D01*
X25491Y17052D01*
X25486Y17051D01*
X25483Y17046D01*
G01X25955Y16545D02*
Y16535D01*
X25905D01*
Y16560D01*
G01Y16630D02*
Y16655D01*
X25955D01*
Y16645D01*
G01X25958Y16657D02*
Y16533D01*
X25902D01*
Y16657D01*
X25958D01*
G01X25855Y16545D02*
Y16535D01*
X25805D01*
Y16560D01*
G01Y16630D02*
Y16655D01*
X25855D01*
Y16645D01*
G01X25858Y16657D02*
Y16533D01*
X25802D01*
Y16657D01*
X25858D01*
G01X25295Y16742D02*
X25315Y16762D01*
Y16942D01*
X25295Y16962D01*
X24955D01*
Y16742D01*
X25295D01*
G01X25315Y16762D02*
X25325Y16772D01*
Y16932D01*
X25315Y16942D01*
G01X25625Y16822D02*
X25355D01*
Y16952D01*
X25625D01*
Y16822D01*
G01X25978Y16905D02*
X25998Y16885D01*
Y16705D01*
X25978Y16685D01*
X25638D01*
Y16905D01*
X25978D01*
G01X25998Y16885D02*
X26008Y16875D01*
Y16715D01*
X25998Y16705D01*
G01X25978Y17127D02*
X25998Y17107D01*
Y16927D01*
X25978Y16907D01*
X25638D01*
Y17127D01*
X25978D01*
G01X25998Y17107D02*
X26008Y17097D01*
Y16937D01*
X25998Y16927D01*
G01X25645Y17725D02*
X25648Y17728D01*
X25653Y17729D01*
X25658D01*
X25664Y17727D01*
X25668Y17723D01*
X25671Y17718D01*
X25674Y17709D01*
X25674Y17702D01*
X25673Y17694D01*
X25671Y17689D01*
X25667Y17684D01*
X25663Y17681D01*
X25658Y17679D01*
X25654D01*
X25650Y17681D01*
X25646Y17683D01*
X25643Y17687D01*
G01X25608Y17679D02*
X25603Y17680D01*
X25598Y17683D01*
X25595Y17687D01*
X25594Y17693D01*
X25595Y17698D01*
X25599Y17703D01*
X25604Y17706D01*
X25611D01*
X25614Y17708D01*
X25618Y17712D01*
X25619Y17718D01*
X25617Y17723D01*
X25613Y17728D01*
X25608Y17729D01*
X25602Y17728D01*
X25598Y17723D01*
X25596Y17718D01*
X25597Y17712D01*
X25601Y17708D01*
X25604Y17706D01*
X25611D01*
X25616Y17703D01*
X25620Y17698D01*
X25621Y17693D01*
X25620Y17687D01*
X25617Y17683D01*
X25612Y17680D01*
X25608Y17679D01*
G01X25700Y17645D02*
X25690Y17655D01*
Y17815D01*
X25700Y17825D01*
G01X25720Y17625D02*
X25700Y17645D01*
Y17825D01*
X25720Y17845D01*
X26060D01*
Y17625D01*
X25720D01*
G01X26548Y16397D02*
X26545Y16401D01*
X26544Y16405D01*
Y16410D01*
X26546Y16416D01*
X26550Y16420D01*
X26555Y16424D01*
X26564Y16426D01*
X26571Y16427D01*
X26579Y16426D01*
X26584Y16424D01*
X26589Y16420D01*
X26592Y16415D01*
X26594Y16411D01*
Y16407D01*
X26592Y16402D01*
X26590Y16398D01*
X26586Y16395D01*
G01X26594Y16360D02*
X26544D01*
X26554Y16368D01*
G01X26594D02*
Y16352D01*
G01Y16301D02*
X26544D01*
X26580Y16325D01*
Y16293D01*
G01X27004Y15890D02*
Y15690D01*
X26904D01*
Y15890D01*
X27004D01*
G01X26884Y17830D02*
Y15650D01*
X27224D01*
Y17830D01*
X26884D01*
G01X26684Y16133D02*
X26704Y16153D01*
X26844D01*
X26864Y16133D01*
X26684D01*
Y15913D01*
X26864D01*
Y16133D01*
G01X26358Y16377D02*
Y16259D01*
X26082D01*
Y16377D01*
X26358D01*
G01X26856Y16206D02*
X26836Y16186D01*
X26656D01*
X26636Y16206D01*
Y16546D01*
X26856D01*
Y16206D01*
G01X26836Y16186D02*
X26826Y16176D01*
X26666D01*
X26656Y16186D01*
G01X26509Y17333D02*
Y17383D01*
X26493D01*
X26488Y17381D01*
X26485Y17377D01*
X26484Y17371D01*
X26485Y17364D01*
X26489Y17360D01*
X26493Y17357D01*
X26509D01*
G01X26493D02*
X26484Y17333D01*
G01X26438D02*
Y17383D01*
X26461Y17348D01*
X26430D01*
G01X26429Y17471D02*
X26432Y17474D01*
X26437Y17475D01*
X26442D01*
X26448Y17473D01*
X26452Y17469D01*
X26455Y17464D01*
X26458Y17455D01*
X26458Y17448D01*
X26457Y17440D01*
X26455Y17435D01*
X26451Y17430D01*
X26447Y17427D01*
X26442Y17425D01*
X26438D01*
X26434Y17427D01*
X26430Y17429D01*
X26427Y17433D01*
G01X26392Y17425D02*
Y17475D01*
X26399Y17465D01*
G01Y17425D02*
X26384D01*
G01X26385Y16926D02*
X26335D01*
Y16914D01*
X26337Y16909D01*
X26341Y16905D01*
X26346Y16902D01*
X26351Y16899D01*
X26360Y16899D01*
X26368Y16899D01*
X26374Y16902D01*
X26379Y16905D01*
X26382Y16909D01*
X26385Y16914D01*
Y16926D01*
G01Y16862D02*
X26335D01*
X26345Y16869D01*
G01X26385D02*
Y16854D01*
G01X26260Y16610D02*
X26264Y16613D01*
X26268Y16614D01*
X26273D01*
X26279Y16612D01*
X26283Y16608D01*
X26287Y16603D01*
X26289Y16594D01*
X26290Y16587D01*
X26289Y16579D01*
X26287Y16574D01*
X26283Y16569D01*
X26278Y16566D01*
X26274Y16564D01*
X26270D01*
X26265Y16566D01*
X26261Y16568D01*
X26258Y16572D01*
G01X26235Y16606D02*
X26231Y16611D01*
X26227Y16614D01*
X26222Y16614D01*
X26215Y16613D01*
X26211Y16608D01*
X26210Y16604D01*
X26210Y16598D01*
X26213Y16594D01*
X26226Y16586D01*
X26231Y16580D01*
X26235Y16572D01*
X26236Y16564D01*
X26210D01*
G01X26186Y16574D02*
X26182Y16568D01*
X26177Y16565D01*
X26171Y16564D01*
X26166Y16565D01*
X26161Y16569D01*
X26158Y16574D01*
X26157Y16579D01*
X26159Y16585D01*
X26163Y16589D01*
X26168Y16591D01*
X26173D01*
G01X26168D02*
X26164Y16594D01*
X26161Y16598D01*
X26159Y16603D01*
X26161Y16608D01*
X26164Y16612D01*
X26169Y16614D01*
X26175Y16614D01*
X26181Y16610D01*
G01X26436Y17787D02*
X26456Y17767D01*
Y17587D01*
X26436Y17567D01*
X26096D01*
Y17787D01*
X26436D01*
G01X26456Y17767D02*
X26466Y17757D01*
Y17597D01*
X26456Y17587D01*
G01X26353Y17335D02*
X26229D01*
Y17391D01*
X26353D01*
Y17335D01*
G01X26326Y17388D02*
X26351D01*
Y17338D01*
X26341D01*
G01X26241D02*
X26231D01*
Y17388D01*
X26256D01*
G01X26229Y17469D02*
X26353D01*
Y17413D01*
X26229D01*
Y17469D01*
G01X26256Y17416D02*
X26231D01*
Y17466D01*
X26241D01*
G01X26341D02*
X26351D01*
Y17416D01*
X26326D01*
G01X26112Y17338D02*
X26102D01*
Y17388D01*
X26127D01*
G01X26197D02*
X26222D01*
Y17338D01*
X26212D01*
G01X26224Y17335D02*
X26100D01*
Y17391D01*
X26224D01*
Y17335D01*
G01X26112Y17416D02*
X26102D01*
Y17466D01*
X26127D01*
G01X26197D02*
X26222D01*
Y17416D01*
X26212D01*
G01X26224Y17413D02*
X26100D01*
Y17469D01*
X26224D01*
Y17413D01*
G01X27004Y17790D02*
Y17590D01*
X26904D01*
Y17790D01*
X27004D01*
G01X26130Y16615D02*
X26140D01*
Y16565D01*
X26115D01*
G01X26045D02*
X26020D01*
Y16615D01*
X26030D01*
G01X26018Y16618D02*
X26142D01*
Y16562D01*
X26018D01*
Y16618D01*
G01X26475Y17419D02*
X26255D01*
Y17549D01*
X26475D01*
Y17419D01*
G01X26156Y16921D02*
X26256D01*
X26196Y16861D01*
X26136Y16921D01*
X26156D01*
G01X26316Y17081D02*
Y16711D01*
X26076D01*
Y17081D01*
X26316D01*
G01X26224Y17470D02*
X26100D01*
Y17526D01*
X26224D01*
Y17470D01*
G01X26197Y17523D02*
X26222D01*
Y17473D01*
X26212D01*
G01X26112D02*
X26102D01*
Y17523D01*
X26127D01*
G01X26915Y17640D02*
X26995D01*
X26955Y17600D01*
X26915Y17640D01*
G01X26333Y17841D02*
X26337Y17844D01*
X26341Y17845D01*
X26346D01*
X26352Y17843D01*
X26356Y17839D01*
X26360Y17834D01*
X26362Y17825D01*
X26363Y17818D01*
X26362Y17810D01*
X26360Y17805D01*
X26356Y17800D01*
X26351Y17797D01*
X26347Y17795D01*
X26343D01*
X26338Y17797D01*
X26334Y17799D01*
X26331Y17803D01*
G01X26296Y17795D02*
Y17845D01*
X26304Y17835D01*
G01Y17795D02*
X26288D01*
G01X26245Y17845D02*
X26250Y17844D01*
X26254Y17839D01*
X26256Y17835D01*
X26258Y17828D01*
X26259Y17820D01*
X26258Y17813D01*
X26256Y17806D01*
X26254Y17801D01*
X26250Y17797D01*
X26245Y17795D01*
X26240Y17797D01*
X26236Y17801D01*
X26234Y17806D01*
X26232Y17813D01*
X26231Y17820D01*
X26232Y17828D01*
X26234Y17835D01*
X26236Y17839D01*
X26240Y17844D01*
X26245Y17845D01*
M02*
