G04 ================== begin FILE IDENTIFICATION RECORD ==================*
G04 Layout Name:  E:/EMB002/project/hardware/POWER/Power_PPC_V3.brd*
G04 Film Name:    Top*
G04 File Format:  Gerber RS274X*
G04 File Origin:  15.7-p007*
G04 Origin Date:  Sat May 09 08:58:49 2009*
G04 *
G04 Layer:  VIA CLASS/TOP*
G04 Layer:  PIN/TOP*
G04 Layer:  ETCH/TOP*
G04 Layer:  BOARD GEOMETRY/OUTLINE*
G04 *
G04 Offset:    (0.000 0.000)*
G04 Mirror:    No*
G04 Mode:      Positive*
G04 Rotation:  0*
G04 FullContactRelief:  No*
G04 UndefLineWidth:     8.000*
G04 ================== end FILE IDENTIFICATION RECORD ====================*
%FSLAX53Y53*MOIN*%
%IR0*IPPOS*OFA0.00000B0.00000*MIA0B0*SFA1.00000B1.00000*%
%ADD15R,.06X.12*%
%ADD27R,.075X.2*%
%ADD14C,.110236*%
%ADD28R,.17X.1*%
%ADD25R,.5X.5*%
%ADD20R,.03X.04*%
%ADD18R,.04X.03*%
%ADD21R,.15X.17*%
%ADD24R,.03X.08*%
%ADD26R,.05X.025*%
%ADD22R,.06X.015*%
%ADD23R,.062X.062*%
%ADD17C,.04*%
%ADD13C,.06*%
%ADD12C,.032012*%
%ADD10C,.062*%
%ADD19C,.09*%
%ADD11R,.06X.06*%
%ADD16C,.03937*%
%ADD29C,.03*%
%ADD30C,.015*%
%ADD31C,.025*%
%ADD32C,.008*%
%ADD36C,.13024*%
%ADD33C,.060004*%
%ADD37C,.080004*%
%ADD34C,.082004*%
%ADD35R,.082004X.082004*%
G75*
%LPD*%
G75*
G36*
G01X21034Y15610D02*
Y15900D01*
G03X21034Y15926I-27J13D01*
G01X21034Y15927D01*
Y15946D01*
X21175Y16087D01*
X21984D01*
X22041Y16144D01*
Y16201D01*
X22038Y16204D01*
Y16206D01*
X22036D01*
X22028Y16214D01*
X21895D01*
X21884Y16225D01*
Y16302D01*
X21877Y16309D01*
X21869D01*
Y16310D01*
X21797D01*
X21796Y16311D01*
Y16375D01*
X21798Y16377D01*
X21890D01*
X21894Y16373D01*
Y16356D01*
X21899Y16351D01*
X22049D01*
X22068Y16370D01*
Y16528D01*
X22013Y16583D01*
Y16652D01*
X22041Y16680D01*
Y16738D01*
X22035Y16744D01*
X21894D01*
X21884Y16754D01*
Y16837D01*
X21878Y16843D01*
X21869D01*
Y16844D01*
X21797D01*
X21795Y16846D01*
Y16908D01*
X21798Y16911D01*
X21891D01*
X21894Y16908D01*
Y16892D01*
X21899Y16887D01*
X22046D01*
X22065Y16906D01*
Y17084D01*
X22011Y17138D01*
Y17240D01*
X22041Y17270D01*
Y17336D01*
X22035Y17342D01*
X21892D01*
X21884Y17350D01*
Y17416D01*
X21875Y17425D01*
X21869D01*
Y17426D01*
X21798D01*
X21795Y17429D01*
Y17490D01*
X21798Y17493D01*
X21894D01*
X21896Y17491D01*
Y17474D01*
X21899Y17471D01*
X22142D01*
Y17560D01*
X22190Y17608D01*
X23774D01*
X24016Y17850D01*
X25757D01*
Y17747D01*
X25752Y17742D01*
X25555D01*
X25534Y17721D01*
Y17627D01*
X25553Y17608D01*
X25599D01*
X25617Y17590D01*
X25685D01*
X25698Y17577D01*
Y17532D01*
X25702Y17528D01*
X25709D01*
Y17526D01*
X25783D01*
X25784Y17525D01*
Y17464D01*
X25779Y17459D01*
X25695D01*
X25693Y17461D01*
Y17486D01*
X25683Y17496D01*
X25562D01*
X25543Y17477D01*
Y17252D01*
X25577Y17218D01*
X26396D01*
X26540Y17074D01*
X26787D01*
X26921Y16940D01*
X27260D01*
Y16840D01*
X26422D01*
X26364Y16898D01*
Y17075D01*
X26315Y17124D01*
X25427D01*
X25391Y17088D01*
Y16799D01*
X25382Y16790D01*
X24998D01*
X24811Y16977D01*
X23743D01*
X23650Y16884D01*
Y16100D01*
X23543Y15993D01*
X21835D01*
X21832Y15996D01*
X21217D01*
X21180Y15959D01*
Y15924D01*
G03X21180Y15902I27J-11D01*
G01X21180Y15610D01*
X21034D01*
G37*
G36*
G01X20030D02*
Y16640D01*
X20395D01*
X20504Y16531D01*
X21200D01*
X21243Y16488D01*
Y16371D01*
X21236Y16365D01*
G03X21242Y16317I13J-23D01*
G01X21243Y16317D01*
Y16139D01*
X21210Y16106D01*
X20902D01*
X20878Y16082D01*
Y15917D01*
G03X20878Y15910I29J-4D01*
G01X20878Y15610D01*
X20594D01*
G02X20591Y15616I0J4D01*
G03X20538I-26J14D01*
G02X20535Y15610I-4J-2D01*
G01X20030D01*
G37*
G36*
G01X20574Y16588D02*
X20431Y16731D01*
X20030D01*
Y17151D01*
X20166D01*
X20167Y17151D01*
G03X20183I8J39D01*
G01X20266Y17151D01*
X20267Y17151D01*
G03X20283I8J39D01*
G01X21192Y17151D01*
X21244Y17099D01*
Y16907D01*
X21237Y16901D01*
G03X21243Y16853I13J-23D01*
G01X21244Y16853D01*
Y16611D01*
X21221Y16588D01*
X20574D01*
G37*
G36*
G01X20030Y17230D02*
Y17440D01*
X20515D01*
X20735Y17660D01*
X21206D01*
X21238Y17628D01*
Y17481D01*
X21236Y17480D01*
G03X21237Y17434I13J-23D01*
G01X21238Y17433D01*
Y17246D01*
X21222Y17230D01*
X20532D01*
G03X20519Y17233I-13J-27D01*
G01X20485D01*
Y17243D01*
X20405D01*
Y17230D01*
X20277D01*
G03X20273Y17230I-2J-40D01*
G01X20272Y17230D01*
X20177D01*
G03X20173Y17230I-2J-40D01*
G01X20172Y17230D01*
X20030D01*
G37*
G36*
G01X21337Y15610D02*
Y15910D01*
G03X21337Y15916I-30J3D01*
G01X21337Y15932D01*
X21354Y15949D01*
X25266D01*
X25351Y16034D01*
Y16210D01*
X25336Y16225D01*
X25238D01*
X25235Y16228D01*
Y16249D01*
X25238Y16252D01*
X25399D01*
X25438Y16291D01*
Y16443D01*
X25444Y16449D01*
X25641D01*
X25677Y16413D01*
Y15782D01*
X25707Y15752D01*
X26241D01*
X26271Y15782D01*
Y16022D01*
X26282Y16033D01*
X26546D01*
X26559Y16020D01*
Y15610D01*
X25342D01*
X21645Y15610D01*
G02X21641Y15616I0J4D01*
G03X21589I-26J14D01*
G02X21585Y15610I-4J-2D01*
G01X21337D01*
G37*
G36*
G01X21665Y16103D02*
X21625Y16143D01*
Y16453D01*
X21617Y16461D01*
Y16463D01*
X21545D01*
X21524Y16484D01*
Y16561D01*
X21625Y16662D01*
Y16987D01*
X21617Y16995D01*
Y16997D01*
X21539D01*
X21526Y17010D01*
Y17123D01*
X21540Y17137D01*
X21575D01*
X21625Y17187D01*
Y17568D01*
X21617Y17576D01*
Y17579D01*
X21536D01*
X21526Y17589D01*
Y17681D01*
X21557Y17712D01*
X21997D01*
X22018Y17691D01*
Y17484D01*
X22016Y17482D01*
X21964D01*
X21961Y17485D01*
Y17592D01*
X21948Y17605D01*
X21885D01*
X21863Y17627D01*
Y17672D01*
X21859Y17676D01*
Y17679D01*
X21799D01*
X21781Y17661D01*
Y17428D01*
X21789Y17420D01*
Y17416D01*
X21794D01*
X21795Y17415D01*
X21868D01*
X21874Y17409D01*
Y17346D01*
X21888Y17332D01*
X21890D01*
X21894Y17328D01*
X22028D01*
X22030Y17326D01*
Y17286D01*
X21990Y17246D01*
Y17126D01*
X22018Y17098D01*
Y16901D01*
X22014Y16897D01*
X21966D01*
X21962Y16901D01*
Y17018D01*
X21950Y17030D01*
X21881D01*
X21865Y17046D01*
Y17090D01*
X21859Y17096D01*
X21799Y17096D01*
X21783Y17080D01*
Y16845D01*
X21785Y16843D01*
Y16842D01*
X21789Y16838D01*
Y16834D01*
X21793D01*
X21794Y16833D01*
X21869D01*
X21873Y16829D01*
Y16746D01*
X21890Y16729D01*
X22027D01*
X22030Y16726D01*
Y16687D01*
X21992Y16650D01*
Y16554D01*
X22018Y16529D01*
Y16366D01*
X22013Y16361D01*
X21965D01*
X21961Y16365D01*
Y16487D01*
X21946Y16502D01*
X21881D01*
X21863Y16520D01*
Y16568D01*
X21857Y16574D01*
X21800D01*
X21781Y16555D01*
Y16309D01*
X21789Y16301D01*
Y16300D01*
X21793D01*
X21794Y16299D01*
X21866D01*
X21870Y16295D01*
Y16219D01*
X21890Y16199D01*
X22028D01*
X22030Y16197D01*
Y16155D01*
X21978Y16103D01*
X21665D01*
G37*
G36*
G01X21382Y16105D02*
X21320Y16167D01*
Y16324D01*
X21348Y16352D01*
X21469D01*
G02X21471Y16345I0J-4D01*
G03X21515Y16326I18J-19D01*
G01X21515Y16327D01*
X21539Y16351D01*
X21609D01*
X21610Y16350D01*
Y16121D01*
X21594Y16105D01*
X21382D01*
G37*
G36*
G01X21334Y17168D02*
X21317Y17185D01*
Y17437D01*
X21348Y17468D01*
X21469D01*
G02X21471Y17461I0J-4D01*
G03X21513Y17439I16J-21D01*
G01X21513Y17440D01*
X21540Y17467D01*
X21609D01*
X21612Y17464D01*
Y17199D01*
X21581Y17168D01*
X21334D01*
G37*
G36*
G01Y16588D02*
X21316Y16606D01*
Y16856D01*
X21348Y16888D01*
X21469D01*
G02X21471Y16881I0J-4D01*
G03X21513Y16861I16J-21D01*
G01X21513Y16862D01*
X21536Y16885D01*
X21609D01*
X21610Y16884D01*
Y16674D01*
X21524Y16588D01*
X21334D01*
G37*
G36*
G01X24057Y16043D02*
X24002Y16098D01*
Y16356D01*
X24063Y16417D01*
X24707D01*
X24739Y16385D01*
Y16297D01*
X24788Y16248D01*
X24888D01*
X24899Y16237D01*
Y16154D01*
X24938Y16115D01*
X25076D01*
X25092Y16099D01*
Y16046D01*
X25092Y16043D01*
X24057D01*
G37*
G36*
G01X25084Y16729D02*
X25117Y16696D01*
Y16336D01*
X25105Y16324D01*
X24927D01*
X24888Y16285D01*
X24788D01*
X24769Y16304D01*
Y16690D01*
X24808Y16729D01*
X25084D01*
G37*
G36*
G01X25315Y16316D02*
Y16497D01*
X25295Y16517D01*
X25261D01*
X25244Y16534D01*
Y16699D01*
X25261Y16716D01*
X25385D01*
X25426Y16675D01*
Y16300D01*
X25402Y16276D01*
X25240D01*
X25235Y16281D01*
Y16299D01*
X25239Y16303D01*
X25302D01*
X25315Y16316D01*
G37*
G36*
G01X25890Y16385D02*
X25870D01*
X25859Y16396D01*
Y16656D01*
X25830Y16685D01*
X25493D01*
X25459Y16719D01*
Y17069D01*
X25495Y17105D01*
X25989D01*
X26030Y17064D01*
Y16630D01*
X25961Y16561D01*
X25923D01*
X25902Y16540D01*
Y16397D01*
X25890Y16385D01*
G37*
G36*
G01X25179Y16204D02*
X25313D01*
X25320Y16197D01*
Y16143D01*
X25298Y16121D01*
X25243D01*
X25228Y16106D01*
Y16050D01*
X25221Y16043D01*
X25109D01*
X25102Y16050D01*
Y16127D01*
X25179Y16204D01*
G37*
G36*
G01X26113Y17484D02*
G02X26110Y17489I0J4D01*
G03X26060Y17492I-25J9D01*
G01X26060Y17491D01*
X26054Y17485D01*
X26041D01*
X25967Y17485D01*
X25965Y17487D01*
Y17850D01*
X26274D01*
Y17499D01*
X26259Y17484D01*
X26113D01*
G37*
G36*
G01X25589Y17235D02*
X25562Y17262D01*
Y17478D01*
X25570Y17486D01*
X25621D01*
X25626Y17481D01*
Y17378D01*
X25631Y17373D01*
X25689D01*
X25693Y17369D01*
Y17327D01*
X25697Y17323D01*
X25711D01*
X25717Y17317D01*
Y17274D01*
X25719Y17272D01*
Y17270D01*
X25779D01*
X25794Y17285D01*
Y17460D01*
X25794Y17529D01*
X25789Y17534D01*
Y17536D01*
X25787D01*
X25785Y17538D01*
X25708D01*
Y17581D01*
X25705Y17584D01*
Y17595D01*
X25691Y17609D01*
X25621D01*
X25613Y17617D01*
X25604D01*
X25603Y17618D01*
X25558D01*
X25548Y17628D01*
Y17715D01*
X25561Y17728D01*
X25759D01*
X25774Y17743D01*
Y17850D01*
X25955D01*
Y17386D01*
X25961Y17380D01*
Y17373D01*
X26036D01*
X26043Y17366D01*
Y17249D01*
X26029Y17235D01*
X25589D01*
G37*
G36*
G01X26117Y16388D02*
X26113Y16392D01*
Y16496D01*
X26099Y16510D01*
X26076Y16533D01*
Y17039D01*
X26118Y17081D01*
X26274D01*
X26316Y17039D01*
Y16402D01*
X26302Y16388D01*
X26117D01*
G37*
G36*
G01X26617Y15610D02*
Y16020D01*
X26575Y16062D01*
X26280D01*
X26271Y16071D01*
Y16282D01*
X26244Y16309D01*
X26240D01*
Y16310D01*
X26076D01*
X26058Y16328D01*
Y16490D01*
X26068Y16500D01*
X26095D01*
X26103Y16492D01*
Y16384D01*
X26105Y16382D01*
Y16380D01*
X26107D01*
X26110Y16377D01*
X26317D01*
X26332Y16392D01*
Y16459D01*
X26352Y16479D01*
X26716D01*
X26855Y16340D01*
X27260D01*
Y15610D01*
X26617D01*
G37*
G36*
G01X26408Y17240D02*
X26353Y17295D01*
Y17526D01*
X26312Y17567D01*
Y17850D01*
X27260D01*
Y17240D01*
X26572D01*
X26571Y17241D01*
G03X26569Y17243I-28J-30D01*
G01X26568Y17243D01*
Y17298D01*
X26568Y17299D01*
Y17323D01*
X26518D01*
Y17263D01*
X26518Y17243D01*
X26517Y17243D01*
G03X26515Y17241I26J-32D01*
G01X26514Y17240D01*
X26408D01*
G37*
%LPC*%
G75*
G36*
G01X20476Y16212D02*
G02X20414I-31J-27D01*
G01X20415Y16213D01*
Y16238D01*
X20405D01*
Y16318D01*
X20485D01*
Y16238D01*
X20475D01*
Y16213D01*
X20476Y16212D01*
G37*
G36*
G01X20485Y17040D02*
X20405D01*
Y17120D01*
X20485D01*
Y17110D01*
X20519D01*
G02Y17050I0J-30D01*
G01X20485D01*
Y17040D01*
G37*
G36*
G01X26791Y17676D02*
X26601D01*
Y17736D01*
X26577D01*
X26576Y17735D01*
G02Y17797I-27J31D01*
G01X26577Y17796D01*
X26601D01*
Y17797D01*
X26791D01*
Y17676D01*
G37*
G54D36*
X20263Y15768D03*
X27092D03*
Y17712D03*
G54D33*
X23051Y16757D03*
X23550Y16755D03*
G54D37*
X20175Y15990D03*
X20275D03*
X20175Y16090D03*
X20275D03*
X20175Y16190D03*
X20275D03*
X20175Y16290D03*
X20275D03*
Y17090D03*
X20175D03*
X24403Y16331D03*
X26451D03*
G54D34*
X23450Y16200D03*
X22950D03*
X25420Y15770D03*
G54D35*
X23050Y16200D03*
%LPD*%
G75*
G54D10*
X20801Y15697D03*
X21078Y16422D03*
X20587D03*
X20445Y16185D03*
X20720Y16682D03*
X20941D03*
X20720Y17501D03*
X20941D03*
X21187Y17591D03*
Y16483D03*
X21190Y17007D03*
X21937Y16033D03*
X22063Y17226D03*
X22062Y16629D03*
X23450Y16200D03*
X22950D03*
X23950D03*
X25420Y15770D03*
X25816Y17055D03*
X25828Y16752D03*
X25645Y17795D03*
X26746Y16129D03*
X26702Y15662D03*
X26747Y16775D03*
X26754Y17178D03*
X26543Y17211D03*
X26387Y17363D03*
X26196Y16682D03*
X26549Y17766D03*
X26511Y17677D03*
G54D11*
X20445Y16278D03*
Y16408D03*
Y17610D03*
Y17333D03*
Y17203D03*
Y17080D03*
Y16950D03*
X20816Y17762D03*
X20686D03*
X20445Y17740D03*
X21934Y16278D03*
Y16148D03*
Y17404D03*
Y17274D03*
Y16813D03*
Y16683D03*
X24838Y16209D03*
Y16339D03*
X25655Y17551D03*
Y17681D03*
X26884Y16399D03*
Y16269D03*
X26834Y16775D03*
Y16905D03*
Y17176D03*
Y17306D03*
G54D20*
X22013Y16236D03*
Y16176D03*
Y17366D03*
Y17306D03*
Y16767D03*
Y16707D03*
X24960Y16239D03*
Y16179D03*
X25576Y17585D03*
Y17645D03*
X26543Y17353D03*
Y17293D03*
G54D30*
G01X21829Y16394D02*
X21911D01*
X21926Y16379D01*
G01X21577Y16420D02*
X21515D01*
X21488Y16393D01*
G01X21440D02*
X21488D01*
G01X21577Y16369D02*
X21532D01*
X21489Y16326D01*
G01X21829Y16928D02*
X21913D01*
X21926Y16915D01*
G01X21829Y16954D02*
X21908D01*
X21926Y16972D01*
G01X21829Y16420D02*
X21910D01*
X21926Y16436D01*
G01X21829Y17005D02*
Y17071D01*
G01X21487Y17440D02*
X21488D01*
X21533Y17485D01*
X21577D01*
G01X21487Y16860D02*
Y16861D01*
X21529Y16903D01*
X21577D01*
G01Y16954D02*
X21514D01*
X21488Y16928D01*
G01X21440D02*
X21488D01*
G01X21577Y16446D02*
X21522D01*
X21489Y16479D01*
G01X21440D02*
X21489D01*
G01D02*
Y16546D01*
X21490Y16547D01*
G01Y17007D02*
Y17005D01*
X21515Y16980D01*
X21577D01*
G01X21490Y17071D02*
Y17007D01*
G01D02*
X21440D01*
G01X21577Y17536D02*
X21512D01*
X21485Y17509D01*
G01D02*
X21440D01*
G01X21577Y17562D02*
X21515D01*
X21488Y17589D01*
G01D02*
Y17652D01*
X21490Y17654D01*
G01X21440Y17589D02*
X21488D01*
G01X21829Y17510D02*
X21915D01*
X21926Y17499D01*
G01X21829Y17536D02*
X21906D01*
X21926Y17556D01*
G01X21829Y17587D02*
Y17654D01*
G01X21829Y16471D02*
Y16547D01*
G01X25749Y17365D02*
Y17295D01*
G01Y17442D02*
X25677D01*
X25661Y17458D01*
G01X25749Y17416D02*
X25676D01*
X25661Y17401D01*
G01X26001Y17390D02*
X26051D01*
X26078Y17363D01*
G01X26001Y17416D02*
X26058D01*
X26083Y17441D01*
G01X26001Y17467D02*
X26061Y17467D01*
X26085Y17491D01*
Y17498D01*
G01X26080Y17291D02*
Y17361D01*
X26078Y17363D01*
G01D02*
X26132D01*
G01X26083Y17441D02*
X26132D01*
G54D12*
X21111Y16276D03*
Y17396D03*
Y16660D03*
X20445Y17804D03*
X21343Y16284D03*
X21488Y16393D03*
X21249Y16342D03*
X21489Y16326D03*
X21344Y17404D03*
X21339Y16819D03*
X21487Y17440D03*
Y16860D03*
X21488Y16928D03*
X21489Y16479D03*
X21490Y17007D03*
X21309Y16523D03*
X21310Y17050D03*
X21250Y16878D03*
X21249Y17457D03*
X21485Y17509D03*
X21488Y17589D03*
X21309Y17633D03*
X25311Y16070D03*
X25980Y16345D03*
X25135Y16289D03*
X25002Y16189D03*
X25830Y16510D03*
X25930D03*
X26321Y17484D03*
X26249Y17509D03*
X26261Y17322D03*
X26078Y17363D03*
X26083Y17441D03*
X26030Y16520D03*
X26110Y16525D03*
X26085Y17498D03*
G54D21*
X21703Y16356D03*
X21703Y17472D03*
Y16890D03*
X25767Y16916D03*
X25875Y17480D03*
X26217Y16916D03*
G54D31*
G01X25261Y16070D02*
X25311D01*
G01X25057Y16289D02*
X25135D01*
G01X25277Y16420D02*
Y16339D01*
G01X25002Y16189D02*
X24978D01*
X24968Y16179D01*
X24960D01*
G01X25057Y16189D02*
X25002D01*
G01X25057Y16239D02*
X24960D01*
G01X26261Y17322D02*
X26233D01*
X26192Y17363D01*
G54D13*
X20275Y15990D03*
X20175D03*
X20275Y16090D03*
X20175D03*
Y16390D03*
X20275D03*
X20175Y16290D03*
X20275D03*
X20175Y16190D03*
X20275D03*
X20175Y17490D03*
X20275D03*
X20175Y17390D03*
X20275D03*
X20175Y17290D03*
X20275D03*
X20175Y17190D03*
X20275D03*
X20175Y17090D03*
X20275D03*
X20175Y16990D03*
X20275D03*
X20175Y16890D03*
X20275D03*
X20175Y16790D03*
X20275D03*
X20175Y16690D03*
X20275D03*
X20175Y16590D03*
X20275D03*
X20175Y16490D03*
X20275D03*
X24403Y16331D03*
X24603D03*
X26451D03*
X26651D03*
X27004Y16390D03*
X27104D03*
X27004Y16290D03*
X27104D03*
X27004Y16190D03*
X27104D03*
X27004Y16090D03*
X27104D03*
X27004Y15990D03*
X27104D03*
X27004Y17490D03*
X27104D03*
X27004Y17390D03*
X27104D03*
X27004Y17290D03*
X27104D03*
X27004Y17190D03*
X27104D03*
X27004Y17090D03*
X27104D03*
X27004Y16990D03*
X27104D03*
X27004Y16890D03*
X27104D03*
X27004Y16790D03*
X27104D03*
X27004Y16690D03*
X27104D03*
X27004Y16590D03*
X27104D03*
X27004Y16490D03*
X27104D03*
G54D22*
X21829Y16394D03*
Y16369D03*
Y16343D03*
Y16318D03*
Y16292D03*
Y16266D03*
Y16241D03*
X21577D03*
Y16266D03*
Y16292D03*
Y16318D03*
Y16343D03*
Y16369D03*
Y16394D03*
X21829Y17587D03*
Y17562D03*
Y17536D03*
Y17510D03*
Y17485D03*
Y17459D03*
Y17434D03*
Y17408D03*
Y17382D03*
Y17357D03*
X21577D03*
Y17382D03*
Y17408D03*
Y17434D03*
Y17459D03*
Y17485D03*
Y17510D03*
Y17536D03*
Y17562D03*
Y17587D03*
X21829Y17005D03*
Y16980D03*
Y16954D03*
Y16928D03*
Y16903D03*
Y16877D03*
Y16852D03*
Y16826D03*
Y16801D03*
Y16775D03*
X21577D03*
Y16801D03*
Y16826D03*
Y16852D03*
Y16877D03*
Y16903D03*
Y16928D03*
Y16954D03*
Y16980D03*
Y17005D03*
X21829Y16471D03*
Y16446D03*
Y16420D03*
X21577D03*
Y16446D03*
Y16471D03*
X26001Y17365D03*
Y17390D03*
Y17416D03*
Y17442D03*
Y17467D03*
Y17493D03*
Y17518D03*
Y17544D03*
Y17570D03*
Y17595D03*
X25749D03*
Y17570D03*
Y17544D03*
Y17518D03*
Y17493D03*
Y17467D03*
Y17442D03*
Y17416D03*
Y17390D03*
Y17365D03*
G54D32*
G01X27282Y17888D02*
X19991D01*
Y15577D01*
X27296D01*
Y17888D01*
X27282D01*
G54D23*
X23550Y16200D03*
X23050D03*
X24050D03*
X25520Y15770D03*
G54D14*
X20263Y15768D03*
Y17712D03*
X27092Y15768D03*
Y17712D03*
G54D24*
X25830Y16430D03*
X25880D03*
X25930D03*
X25980D03*
X26030D03*
X26080D03*
X26130D03*
G54D15*
X21174Y16197D03*
Y17318D03*
Y16738D03*
X21434Y16197D03*
Y17318D03*
Y16738D03*
X25057Y16599D03*
X25317D03*
X26707Y15896D03*
X26447D03*
X26135Y17627D03*
X26395D03*
G54D16*
X20565Y15630D03*
X21207Y15913D03*
X21157D03*
X21107D03*
X21057D03*
X21007D03*
X20957D03*
X20907D03*
X20857D03*
X20807D03*
X20757D03*
X21615Y15630D03*
X21457Y15913D03*
X21407D03*
X21357D03*
X21307D03*
X21257D03*
G54D25*
X25980Y16050D03*
G54D17*
G01X20445Y16278D02*
Y16185D01*
G01Y17610D02*
X20534D01*
X20686Y17762D01*
G01X20445Y17610D02*
X20295D01*
X20175Y17490D01*
G01X20445Y17080D02*
X20519D01*
G01X20445Y17203D02*
X20519D01*
G01X20816Y17762D02*
X23757D01*
G01X20445Y17740D02*
Y17804D01*
G01X24603Y16915D02*
Y16331D01*
G01X27004Y16390D02*
X26893D01*
X26884Y16399D01*
G01X26834Y16775D02*
X26747D01*
G01X26549Y17766D02*
X26666D01*
X26696Y17736D01*
X20519Y17080D03*
Y17203D03*
X23051Y16757D03*
X23550Y16755D03*
X24603Y16915D03*
X23757Y17762D03*
X25480Y16047D03*
X25914Y15906D03*
X25794Y15907D03*
X25974Y16040D03*
X25850Y16039D03*
X25912Y16178D03*
X25790Y16180D03*
X26150Y15906D03*
X26036D03*
X26192Y16042D03*
X26088Y16041D03*
X26144Y16178D03*
X26030Y16176D03*
G54D26*
X25057Y16189D03*
Y16239D03*
Y16289D03*
Y16339D03*
X25277Y16189D03*
Y16239D03*
Y16339D03*
Y16289D03*
G54D18*
X21380Y16393D03*
X21440D03*
X21986Y16379D03*
X21926D03*
X21986Y16915D03*
X21926D03*
X21986Y16972D03*
X21926D03*
X21380Y16479D03*
X21440D03*
X21490Y16547D03*
X21550D03*
X21490Y17071D03*
X21550D03*
X21986Y17499D03*
X21926D03*
X21986Y17556D03*
X21926D03*
X21889Y17071D03*
X21829D03*
X21889Y16547D03*
X21829D03*
X21986Y16436D03*
X21926D03*
X21440Y17007D03*
X21380D03*
X21440Y16928D03*
X21380D03*
X21440Y17509D03*
X21380D03*
Y17589D03*
X21440D03*
X21490Y17654D03*
X21550D03*
X21889D03*
X21829D03*
X25261Y16070D03*
X25201D03*
X25128Y16071D03*
X25068D03*
X26020Y17291D03*
X25689Y17295D03*
X25749D03*
X25601Y17401D03*
X25661D03*
X25601Y17458D03*
X25661D03*
X25462Y16420D03*
X25402D03*
X25337D03*
X25277D03*
X26080Y17291D03*
X26192Y17441D03*
X26132D03*
X26192Y17363D03*
X26132D03*
G54D27*
X25295Y16912D03*
X25545D03*
G54D19*
X21703Y16356D03*
X21703Y17472D03*
Y16890D03*
X25875Y17480D03*
G54D28*
X26696Y17486D03*
Y17736D03*
G54D29*
G01X21380Y16393D02*
X21300D01*
X21249Y16342D01*
G01X21309Y16523D02*
X21336D01*
X21380Y16479D01*
G01X21310Y17050D02*
X21337D01*
X21380Y17007D01*
G01X21309Y17633D02*
X21336D01*
X21380Y17589D01*
G01Y16928D02*
X21300D01*
X21250Y16878D01*
G01X21380Y17509D02*
X21301D01*
X21249Y17457D01*
G01X25980Y16430D02*
Y16345D01*
G01X25830Y16430D02*
Y16510D01*
G01X25930Y16430D02*
Y16510D01*
G01X26834Y17176D02*
X26756D01*
X26754Y17178D01*
G01X26543Y17293D02*
Y17288D01*
X26543Y17231D01*
X26543Y17211D01*
G01X26192Y17441D02*
X26278D01*
X26321Y17484D01*
G01X26030Y16430D02*
Y16520D01*
M02*
