G04 ================== begin FILE IDENTIFICATION RECORD ==================*
G04 Layout Name:  D:/project/IRISking/ikemb-0002/project/hardware/keyboard/keyboard.brd*
G04 Film Name:    BOTTOM*
G04 File Format:  Gerber RS274X*
G04 File Origin:  15.7-p007*
G04 Origin Date:  Tue Nov 17 11:08:55 2009*
G04 *
G04 Layer:  BOARD GEOMETRY/OUTLINE*
G04 Layer:  ETCH/BOTTOM*
G04 Layer:  PIN/BOTTOM*
G04 Layer:  VIA CLASS/BOTTOM*
G04 *
G04 Offset:    (0.0000 0.0000)*
G04 Mirror:    No*
G04 Mode:      Positive*
G04 Rotation:  0*
G04 FullContactRelief:  No*
G04 UndefLineWidth:     0.0000*
G04 ================== end FILE IDENTIFICATION RECORD ====================*
%FSLAX55Y55*MOIN*%
%IR0*IPPOS*OFA0.00000B0.00000*MIA0B0*SFA1.00000B1.00000*%
%ADD11R,.04X.03*%
%ADD12C,.024*%
%ADD10C,.14*%
%ADD13C,.11*%
%ADD14C,.062*%
%ADD15R,.062X.062*%
%ADD16C,.019685*%
%ADD18C,.179386*%
%ADD17C,.149386*%
G75*
%LPD*%
G75*
G36*
G01X204524Y283464D02*
G02X204724Y283264I0J-200D01*
G01Y224409D01*
X243894D01*
G02X244094Y224209I0J-200D01*
G01Y4137D01*
G02X243894Y3937I-200J0D01*
G01X131597D01*
G02X131274Y4572I0J400D01*
G03X116758I-7258J5270D01*
G02X116434Y3937I-324J-235D01*
G01X4137D01*
G02X3937Y4137I0J200D01*
G01Y224209D01*
G02X4137Y224409I200J0D01*
G01X43307D01*
Y283264D01*
G02X43507Y283464I200J0D01*
G01X204524D01*
G37*
%LPC*%
G75*
G36*
G01X173774Y50328D02*
G02X167841I-2967J-1116D01*
G01X167854Y50363D01*
Y91370D01*
X167841Y91404D01*
G02Y93635I2966J1116D01*
G01X167854Y93670D01*
Y134677D01*
X167841Y134711D01*
G02Y136943I2966J1116D01*
G01X167854Y136977D01*
Y177984D01*
X167841Y178018D01*
G02X173774I2967J1116D01*
G01X173761Y177984D01*
Y136977D01*
X173774Y136943D01*
G02Y134711I-2966J-1116D01*
G01X173761Y134677D01*
Y93670D01*
X173774Y93635D01*
G02Y91404I-2966J-1116D01*
G01X173761Y91370D01*
Y50363D01*
X173774Y50328D01*
G37*
G36*
G01X106963Y36246D02*
G02Y42179I-1116J2967D01*
G01X106997Y42166D01*
X117182D01*
X120793Y45777D01*
G03X120698Y46413I-283J283D01*
G02X119218Y50328I1486J2799D01*
G01X119231Y50363D01*
Y79366D01*
G03X119031Y79566I-200J0D01*
G01X106997D01*
X106963Y79553D01*
G02Y85486I-1116J2967D01*
G01X106997Y85473D01*
X119031D01*
G03X119231Y85673I0J200D01*
G01Y89366D01*
G03X119031Y89566I-200J0D01*
G01X106997D01*
X106963Y89553D01*
G02Y95486I-1116J2967D01*
G01X106997Y95473D01*
X119031D01*
G03X119231Y95673I0J200D01*
G01Y134677D01*
X119218Y134711D01*
G02Y136943I2966J1116D01*
G01X119231Y136977D01*
Y177984D01*
X119218Y178018D01*
G02X125151I2967J1116D01*
G01X125138Y177984D01*
Y136977D01*
X125151Y136943D01*
G02Y134711I-2966J-1116D01*
G01X125138Y134677D01*
Y86331D01*
G03X125820Y86049I400J0D01*
G01X131015Y91243D01*
Y211853D01*
G03X130333Y212137I-400J0D01*
G02X115891Y214704I-6317J6367D01*
G03X115129Y214534I-362J-170D01*
G01Y130932D01*
X108749Y124552D01*
X108734Y124518D01*
G02X104539Y128713I-2887J1309D01*
G01X104572Y128728D01*
X109222Y133378D01*
Y167161D01*
G03X108489Y167383I-400J0D01*
G02X102881Y170250I-2641J1751D01*
G01X102894Y170284D01*
Y247270D01*
X102322Y247842D01*
Y250944D01*
X102280Y251028D01*
X102242Y251057D01*
G02X103221Y259752I3034J4061D01*
G03Y260484I-162J366D01*
G02X100318Y264062I2054J4634D01*
G03X99644Y264261I-391J-84D01*
G01X64330Y228948D01*
Y137050D01*
X65315Y136065D01*
Y92281D01*
X64330Y91296D01*
Y52142D01*
X60125Y47937D01*
X60110Y47904D01*
G02X55915Y52099I-2887J1309D01*
G01X55948Y52114D01*
X58423Y54589D01*
Y79198D01*
G03X57933Y79588I-400J0D01*
G02X56108Y79711I-710J3089D01*
G01X56074Y79724D01*
X55988D01*
G03X55788Y79524I0J-200D01*
G01Y79208D01*
X41850D01*
Y86146D01*
X55788D01*
Y85831D01*
G03X55988Y85631I200J0D01*
G01X56074D01*
X56108Y85644D01*
G02X57933Y85766I1116J-2966D01*
G03X58423Y86156I89J390D01*
G01Y89041D01*
G03X57933Y89431I-400J0D01*
G02X58339Y95486I-710J3089D01*
G01X58374Y95473D01*
X59207D01*
G03X59407Y95673I0J200D01*
G01Y122807D01*
G03X58825Y123163I-400J0D01*
G02X56671Y122895I-1444J2821D01*
G03X56182Y122515I-89J-390D01*
G01X42243D01*
Y129454D01*
X56182D01*
G03X56671Y129073I400J10D01*
G02X58825Y128806I710J-3089D01*
G03X59407Y129161I182J356D01*
G01Y132673D01*
G03X59207Y132873I-200J0D01*
G01X58374D01*
X58339Y132860D01*
G02X57933Y138916I-1116J2967D01*
G03X58423Y139306I89J390D01*
G01Y165419D01*
G03X57933Y165809I-400J0D01*
G02X56108Y165931I-710J3089D01*
G01X56074Y165944D01*
X55988D01*
G03X55788Y165744I0J-200D01*
G01Y165428D01*
X41850D01*
Y172367D01*
X55788D01*
Y172051D01*
G03X55988Y171851I200J0D01*
G01X56074D01*
X56108Y171864D01*
G02X57933Y171987I1116J-2966D01*
G03X58423Y172376I89J390D01*
G01Y175655D01*
G03X57933Y176045I-400J0D01*
G02Y182223I-710J3089D01*
G03X58423Y182613I89J390D01*
G01Y231394D01*
X101153Y274124D01*
X130446D01*
X134379Y270192D01*
G03X134549Y270135I142J141D01*
G02X139910Y267172I726J-5017D01*
G03X140641I366J162D01*
G02X148115Y260919I4634J-2054D01*
G03X148339Y260187I224J-331D01*
G01X150345D01*
Y250049D01*
X140206D01*
Y252054D01*
G03X139475Y252278I-400J0D01*
G02X138309Y251057I-4199J2840D01*
G01X138271Y251028D01*
X138229Y250944D01*
Y243730D01*
X140859Y241100D01*
Y57489D01*
X119629Y36259D01*
X106997D01*
X106963Y36246D01*
G37*
G36*
G01X55788Y35507D02*
X41850D01*
Y42446D01*
X55788D01*
Y42130D01*
G03X55988Y41930I200J0D01*
G01X56074D01*
X56108Y41943D01*
G02Y36010I1116J-2967D01*
G01X56074Y36023D01*
X55988D01*
G03X55788Y35823I0J-200D01*
G01Y35507D01*
G37*
G54D18*
X234252Y122047D03*
X13780D03*
G54D17*
X173228Y216535D03*
X74803D03*
X157480Y11811D03*
%LPD*%
G75*
G36*
G01X108855Y170135D02*
X108833Y170195D01*
G03X108814Y170250I-2992J-1045D01*
G01X108801Y170284D01*
Y249717D01*
X108229Y250289D01*
Y250944D01*
X108271Y251028D01*
X108309Y251057D01*
G03X109910Y253064I-3034J4061D01*
G02X110641I366J-162D01*
G03X112242Y251057I4634J2054D01*
G01X112280Y251028D01*
X112322Y250944D01*
Y243965D01*
X109222Y240865D01*
Y170262D01*
G02X109022Y170062I-200J0D01*
G01X108958D01*
X108855Y170135D01*
G37*
G36*
G01X110641Y257172D02*
G02X109910I-366J162D01*
G03X107330Y259752I-4634J-2054D01*
G02Y260484I162J366D01*
G03X109910Y263064I-2054J4634D01*
G02X110641I366J-162D01*
G03X113221Y260484I4634J2054D01*
G02Y259752I-162J-366D01*
G03X110641Y257172I2054J-4634D01*
G37*
G36*
G01X125820Y50805D02*
G02X125138Y51087I-283J283D01*
G01Y79366D01*
G02X125338Y79566I200J0D01*
G01X127692D01*
X134269Y86143D01*
G02X134952Y85861I283J-283D01*
G01Y59936D01*
X125820Y50805D01*
G37*
G36*
G01X115891Y222304D02*
G02X115129Y222474I-362J170D01*
G01Y238418D01*
X118229Y241518D01*
Y250944D01*
X118271Y251028D01*
X118309Y251057D01*
G03X119910Y253064I-3034J4061D01*
G02X120641I366J-162D01*
G03X122242Y251057I4634J2054D01*
G01X122280Y251028D01*
X122322Y250944D01*
Y240378D01*
X131015Y231685D01*
Y225155D01*
G02X130333Y224871I-400J0D01*
G03X115891Y222304I-6317J-6367D01*
G37*
G36*
G01X134952Y237067D02*
G02X134269Y236785I-400J0D01*
G01X128229Y242824D01*
Y250897D01*
G02X128309Y251057I200J0D01*
G03X129910Y253064I-3034J4061D01*
G02X130641I366J-162D01*
G03X132242Y251057I4634J2054D01*
G01X132280Y251028D01*
X132322Y250944D01*
Y241283D01*
X134952Y238653D01*
Y237067D01*
G37*
G36*
G01X120641Y257172D02*
G02X119910I-366J162D01*
G03X117330Y259752I-4634J-2054D01*
G02Y260484I162J366D01*
G03X119910Y263064I-2054J4634D01*
G02X120641I366J-162D01*
G03X123221Y260484I4634J2054D01*
G02Y259752I-162J-366D01*
G03X120641Y257172I2054J-4634D01*
G37*
G36*
G01X130641D02*
G02X129910I-366J162D01*
G03X127330Y259752I-4634J-2054D01*
G02Y260484I162J366D01*
G03X129910Y263064I-2054J4634D01*
G02X130641I366J-162D01*
G03X133221Y260484I4634J2054D01*
G02Y259752I-162J-366D01*
G03X130641Y257172I2054J-4634D01*
G37*
G36*
G01X140206Y258182D02*
G02X139475Y257958I-400J0D01*
G03X137330Y259752I-4199J-2840D01*
G02Y260484I162J366D01*
G03X139910Y263064I-2054J4634D01*
G02X140641I366J-162D01*
G03X142436Y260919I4634J2054D01*
G02X142212Y260187I-224J-331D01*
G01X140206D01*
Y258182D01*
G37*
G54D10*
X13780Y122047D03*
X124016Y9843D03*
Y218504D03*
X234252Y122047D03*
G54D11*
X45819Y38976D03*
X51819D03*
X45819Y82677D03*
X51819D03*
X46213Y125984D03*
X52213D03*
X45819Y168898D03*
X51819D03*
G54D12*
X57224Y49213D03*
Y38976D03*
Y82677D03*
Y92520D03*
Y135827D03*
X57381Y125984D03*
X57224Y168898D03*
Y179134D03*
X105847Y39213D03*
Y82520D03*
Y92520D03*
Y125827D03*
Y169134D03*
X122184Y49213D03*
Y135827D03*
Y179134D03*
X170808Y49213D03*
Y92520D03*
Y135827D03*
Y179134D03*
G54D13*
X74803Y216535D03*
X157480Y11811D03*
X173228Y216535D03*
G54D14*
X115276Y255118D03*
Y265118D03*
X105276Y255118D03*
Y265118D03*
X145276D03*
X135276Y255118D03*
Y265118D03*
X125276Y255118D03*
Y265118D03*
G54D15*
X145276Y255118D03*
G54D16*
G01X51819Y38976D02*
X57224D01*
G01X45819D02*
Y42645D01*
G01Y35308D02*
Y38976D01*
G01X40650Y43645D02*
X45319Y38976D01*
X45819D01*
G01X40650Y82677D02*
Y43645D01*
G01X51819Y82677D02*
X57224D01*
G01X45819D02*
Y86346D01*
G01Y79009D02*
Y82677D01*
G01D02*
X40650D01*
G01Y125984D02*
Y82677D01*
G01X52213Y125984D02*
X57381D01*
G01X46213D02*
Y129653D01*
G01Y122316D02*
Y125984D01*
G01X40650D02*
Y168898D01*
G01X46213Y125984D02*
X40650D01*
G01X51819Y168898D02*
X57224D01*
G01X45819D02*
Y172566D01*
G01Y165229D02*
Y168898D01*
G01X40650D02*
X41850D01*
G01X45819D02*
X41850D01*
G01D02*
Y195177D01*
G01D02*
X57439Y210766D01*
G01X61376Y92520D02*
Y53365D01*
X57224Y49213D01*
G01X61376Y135827D02*
X62361Y134842D01*
Y93504D01*
X61376Y92520D01*
G01D02*
X57224D01*
G01X61376Y179134D02*
Y135827D01*
G01D02*
X57224D01*
G01X61376Y179134D02*
X57224D01*
G01X135276Y265118D02*
X129223Y271171D01*
X102376D01*
X61376Y230171D01*
Y179134D01*
G01X57439Y232108D02*
X100439Y275108D01*
G01X57439Y210766D02*
Y232108D01*
G01X135276Y255118D02*
Y242506D01*
X137906Y239876D01*
Y58713D01*
X118406Y39213D01*
X105847D01*
G01X125276Y255118D02*
Y241601D01*
X133969Y232908D01*
Y90020D01*
X126469Y82520D01*
X105847D01*
G01X122184Y92520D02*
X105847D01*
G01X115276Y255118D02*
Y242741D01*
X112176Y239641D01*
Y132155D01*
X105847Y125827D01*
G01X105276Y255118D02*
Y249065D01*
X105847Y248494D01*
Y169134D01*
G01X100439Y275108D02*
X135286D01*
G01X122184Y92520D02*
Y49213D01*
G01Y135827D02*
Y92520D01*
G01Y179134D02*
Y135827D01*
G01X135286Y275108D02*
X145276Y265118D01*
G01X170808Y49213D02*
Y92520D01*
G01D02*
Y135827D01*
G01D02*
Y179134D01*
G01X145276Y265118D02*
X150544D01*
G01X145276D02*
Y270387D01*
M02*
