G04 ================== begin FILE IDENTIFICATION RECORD ==================*
G04 Layout Name:  D:/project/IRISking/ikemb-0002/project/hardware/keyboard/keyboard.brd*
G04 Film Name:    TOP*
G04 File Format:  Gerber RS274X*
G04 File Origin:  15.7-p007*
G04 Origin Date:  Tue Nov 17 11:08:55 2009*
G04 *
G04 Layer:  BOARD GEOMETRY/OUTLINE*
G04 Layer:  ETCH/TOP*
G04 Layer:  PIN/TOP*
G04 Layer:  VIA CLASS/TOP*
G04 *
G04 Offset:    (0.0000 0.0000)*
G04 Mirror:    No*
G04 Mode:      Positive*
G04 Rotation:  0*
G04 FullContactRelief:  No*
G04 UndefLineWidth:     0.0000*
G04 ================== end FILE IDENTIFICATION RECORD ====================*
%FSLAX55Y55*MOIN*%
%IR0*IPPOS*OFA0.00000B0.00000*MIA0B0*SFA1.00000B1.00000*%
%ADD12C,.024*%
%ADD11R,.1X.05*%
%ADD10C,.14*%
%ADD13C,.11*%
%ADD14C,.062*%
%ADD15R,.062X.062*%
%ADD16C,.019685*%
G75*
%LPD*%
G75*
G54D10*
X13780Y122047D03*
X124016Y9843D03*
Y218504D03*
X234252Y122047D03*
G54D11*
X49055Y39213D03*
Y49213D03*
Y82520D03*
Y92520D03*
Y125827D03*
Y135827D03*
Y169134D03*
Y179134D03*
X69055Y49213D03*
Y39213D03*
Y82520D03*
Y92520D03*
Y135827D03*
Y125827D03*
Y169134D03*
Y179134D03*
X114016Y39213D03*
Y49213D03*
Y82520D03*
Y92520D03*
Y125827D03*
Y135827D03*
Y169134D03*
Y179134D03*
X134016Y49213D03*
Y39213D03*
Y82520D03*
Y92520D03*
Y135827D03*
Y125827D03*
Y169134D03*
Y179134D03*
X178976Y39213D03*
Y49213D03*
X198976D03*
Y39213D03*
X178976Y82520D03*
X198976D03*
X178976Y92520D03*
X198976D03*
X178976Y125827D03*
Y135827D03*
X198976D03*
Y125827D03*
X178976Y169134D03*
X198976D03*
X178976Y179134D03*
X198976D03*
G54D12*
X57224Y49213D03*
Y38976D03*
Y82677D03*
Y92520D03*
Y135827D03*
X57381Y125984D03*
X57224Y168898D03*
Y179134D03*
X105847Y39213D03*
Y82520D03*
Y92520D03*
Y125827D03*
Y169134D03*
X122184Y49213D03*
Y135827D03*
Y179134D03*
X170808Y49213D03*
Y92520D03*
Y135827D03*
Y179134D03*
G54D13*
X74803Y216535D03*
X157480Y11811D03*
X173228Y216535D03*
G54D14*
X115276Y255118D03*
Y265118D03*
X105276Y255118D03*
Y265118D03*
X145276D03*
X135276Y255118D03*
Y265118D03*
X125276Y255118D03*
Y265118D03*
G54D15*
X145276Y255118D03*
G54D16*
G01X49055Y49213D02*
X57224D01*
G01X56024Y39213D02*
X49055D01*
G01X57066Y82520D02*
X49055D01*
G01Y92520D02*
X57224D01*
G01X49055Y135827D02*
X57224D01*
G01X49055Y125827D02*
X57224D01*
G01X56024Y169134D02*
X49055D01*
G01Y179134D02*
X57224D01*
G01X105847Y33760D02*
X62780D01*
X57327Y39213D01*
X56024D01*
G01X57224Y38976D02*
X56260D01*
X56024Y39213D01*
G01X105847Y77067D02*
X62832D01*
X57379Y82520D01*
X57066D01*
G01X57224Y82677D02*
X57066Y82520D01*
G01X105847Y120374D02*
X62832D01*
X57379Y125827D01*
X57224D01*
G01D02*
X57381Y125984D01*
G01X105847Y163681D02*
X62832D01*
X57379Y169134D01*
X56024D01*
G01X57224Y168898D02*
X56260D01*
X56024Y169134D01*
G01X105847Y33760D02*
X165355D01*
X170808Y39213D01*
X178976D01*
G01X105847D02*
Y33760D01*
G01X114016Y39213D02*
X105847D01*
G01Y77067D02*
X165355D01*
X170808Y82520D01*
X178976D01*
G01X105847D02*
Y77067D01*
G01X114016Y82520D02*
X105847D01*
G01X114016Y92520D02*
X105847D01*
G01Y120374D02*
X165355D01*
X170808Y125827D01*
X178976D01*
G01X105847D02*
Y120374D01*
G01X114016Y125827D02*
X105847D01*
G01Y163681D02*
X165355D01*
X170808Y169134D01*
X178976D01*
G01X105847D02*
Y163681D01*
G01X114016Y169134D02*
X105847D01*
G01X114016Y49213D02*
X122184D01*
G01X114016Y135827D02*
X122184D01*
G01X114016Y179134D02*
X122184D01*
G01X125276Y265118D02*
X131328Y271171D01*
X147783D01*
X155795Y263159D01*
Y247528D01*
X141449Y233181D01*
Y214921D01*
X122184Y195657D01*
Y179134D01*
G01X170808D02*
X159732Y190209D01*
Y264790D01*
X149414Y275108D01*
X129697D01*
X125760Y271171D01*
X121328D01*
X115276Y265118D01*
G01X178976Y49213D02*
X170808D01*
G01X178976Y92520D02*
X170808D01*
G01X178976Y135827D02*
X170808D01*
G01X178976Y179134D02*
X170808D01*
M02*
