G04 ================== begin FILE IDENTIFICATION RECORD ==================*
G04 Layout Name:  E:/EMB002/project/hardware/ikemb-0002-v2/12-ikemb-0002-v2.brd*
G04 Film Name:    Layer6*
G04 File Format:  Gerber RS274X*
G04 File Origin:  15.7-p007*
G04 Origin Date:  Fri Jun 13 17:33:33 2008*
G04 *
G04 Layer:  VIA CLASS/LAYER6*
G04 Layer:  PIN/LAYER6*
G04 Layer:  ETCH/LAYER6*
G04 Layer:  BOARD GEOMETRY/OUTLINE*
G04 *
G04 Offset:    (0.000 0.000)*
G04 Mirror:    No*
G04 Mode:      Positive*
G04 Rotation:  0*
G04 FullContactRelief:  No*
G04 UndefLineWidth:     8.000*
G04 ================== end FILE IDENTIFICATION RECORD ====================*
%FSLAX55Y55*MOIN*%
%IR0*IPPOS*OFA0.00000B0.00000*MIA0B0*SFA1.00000B1.00000*%
%ADD26R,.05X.12*%
%ADD25R,.12X.05*%
%ADD10C,.2*%
%ADD11C,.12*%
%ADD21C,.12598*%
%ADD18C,.04*%
%ADD14C,.05*%
%ADD15C,.032012*%
%ADD16C,.036*%
%ADD17C,.055*%
%ADD13C,.0433*%
%ADD23C,.083*%
%ADD20C,.04724*%
%ADD24C,.05984*%
%ADD19C,.06299*%
%ADD22R,.05984X.05984*%
%ADD12C,.017988*%
%ADD27C,.0041*%
%ADD28C,.0061*%
%ADD29C,.00455*%
%ADD30C,.01*%
%ADD31C,.008*%
G75*
%LPD*%
G75*
G54D10*
X41654Y352402D03*
X514094Y-37598D03*
X570210Y175337D03*
Y272537D03*
G54D20*
X559980Y18170D03*
X513520D03*
G54D11*
X176291Y22537D03*
Y42537D03*
Y62537D03*
Y82537D03*
X135291D03*
Y62537D03*
Y42537D03*
Y22537D03*
X134279Y317449D03*
Y297449D03*
Y277449D03*
Y257449D03*
X535500Y358500D03*
Y341500D03*
X518500D03*
Y358500D03*
G54D30*
G01X325032Y28180D02*
Y24284D01*
X324726Y23978D01*
G01X323237Y55248D02*
X320921Y57564D01*
Y70197D01*
G01D02*
X323352D01*
G01X320921D02*
Y75287D01*
G01X380388Y55703D02*
Y58509D01*
X380421Y58542D01*
Y60551D01*
G01X332033Y59369D02*
Y72233D01*
G54D12*
X200384Y29609D03*
X147291Y74528D03*
X143785Y52662D03*
X147291Y42546D03*
X187291Y18528D03*
Y58528D03*
X161300Y57300D03*
X147291Y61528D03*
X187291Y40546D03*
Y80546D03*
X160849Y131242D03*
X199180Y188910D03*
X144444Y121585D03*
X165849Y131242D03*
X199180Y185760D03*
X186580Y192060D03*
X196030D03*
X188122Y174334D03*
X192880Y188910D03*
X189730Y195210D03*
X196202Y174496D03*
X196030Y182610D03*
X200242Y174496D03*
X199180Y192060D03*
X170100Y181100D03*
X160862Y199938D03*
X183430Y182610D03*
Y188910D03*
X192880Y182610D03*
X183430Y198360D03*
X189730Y185760D03*
X186580Y188910D03*
X192880Y185760D03*
X189730Y192060D03*
X196030Y188910D03*
X192880Y195210D03*
X199180D03*
X196030Y198360D03*
X200618Y154353D03*
X156833Y173676D03*
X172601Y151466D03*
X181494Y99374D03*
X186580Y198360D03*
Y201510D03*
X182612Y127339D03*
X178872D03*
X165849Y117260D03*
X147229Y101430D03*
X182612Y116316D03*
X174935Y127339D03*
X150849Y131242D03*
X186580Y195210D03*
X184003Y163037D03*
X178872Y106297D03*
X196030Y185760D03*
X192162Y174416D03*
X196202Y143461D03*
X189730Y182610D03*
X199180D03*
Y201510D03*
Y198360D03*
X189500Y138144D03*
X192162Y163897D03*
X196202Y163978D03*
X200242Y163037D03*
X187686D03*
X175428Y199938D03*
X179582Y191508D03*
X175470Y195710D03*
X178000Y183105D03*
X176491Y187306D03*
X196030Y201510D03*
Y195210D03*
X192880Y192060D03*
X189730Y188910D03*
X186580Y185760D03*
X183430D03*
X186580Y182610D03*
X165600Y176700D03*
X175132Y106297D03*
X183430Y201510D03*
X184003Y174344D03*
X161852Y176235D03*
X178500Y189299D03*
X178876Y193843D03*
X179201Y201752D03*
X175469Y189499D03*
X183430Y229850D03*
X189730Y226700D03*
X173504Y237351D03*
X171600Y230300D03*
X183430Y233000D03*
Y239300D03*
X186580D03*
X196030Y229850D03*
X192880Y226700D03*
X188100Y271400D03*
X190600Y271200D03*
X193100D03*
X195600D03*
X198300Y271300D03*
X200400Y270000D03*
X173665Y245431D03*
X187638Y282163D03*
X183598D03*
X179558D03*
X175434Y282201D03*
X183430Y204660D03*
X196030Y207810D03*
X199180Y204660D03*
Y210960D03*
X162986Y249551D03*
Y253642D03*
X162985Y261833D03*
Y257793D03*
X162986Y265873D03*
Y269913D03*
X131846Y244655D03*
X136048D03*
X163147Y245431D03*
X183430Y220400D03*
Y226700D03*
Y242450D03*
Y251900D03*
Y264500D03*
X186580Y223550D03*
Y242450D03*
X189730Y223550D03*
Y239300D03*
Y255050D03*
X192880Y223550D03*
Y239300D03*
Y251900D03*
Y258200D03*
X196030Y233000D03*
Y239300D03*
Y248750D03*
Y255050D03*
Y264500D03*
X199180Y217250D03*
Y223550D03*
Y226700D03*
Y233000D03*
Y236150D03*
Y242450D03*
Y251900D03*
X146669Y316555D03*
X183383Y320083D03*
X199131Y311055D03*
X187320Y320083D03*
X146875Y269046D03*
X173504Y241391D03*
X183383Y308646D03*
X188200Y284600D03*
X175434Y287040D03*
X191200Y288300D03*
X193600Y289400D03*
X196100Y289300D03*
X198500Y288700D03*
X199094Y308646D03*
X201200Y289400D03*
X183804Y296214D03*
Y293806D03*
X186580Y258200D03*
X183430D03*
X186580Y255050D03*
Y251900D03*
X189730D03*
X183430Y255050D03*
X189730Y248750D03*
X186580D03*
X192880D03*
X183430D03*
X189730Y245600D03*
X186580D03*
X192880D03*
X183430D03*
X192880Y242450D03*
X189730D03*
X199180Y264500D03*
Y255050D03*
Y261350D03*
X185352Y311055D03*
X179858Y262864D03*
X183804Y285820D03*
X199180Y258200D03*
X189289Y311055D03*
X196030Y261350D03*
X191257Y313064D03*
X196030Y258200D03*
X195194Y309045D03*
X197081Y313064D03*
X192880Y261350D03*
X201100Y313064D03*
X192880Y264500D03*
X189730Y261350D03*
Y264500D03*
X183804Y299843D03*
X180634Y250386D03*
X191257Y320083D03*
X185300Y321700D03*
X199180Y248750D03*
Y245600D03*
X146669Y303555D03*
X146875Y256046D03*
X173504Y265873D03*
X187320Y313064D03*
X183383D03*
X199131Y320083D03*
X193226Y311055D03*
X199180Y239300D03*
Y229850D03*
Y220400D03*
X196030Y251900D03*
Y245600D03*
Y242450D03*
Y236150D03*
X192880Y255050D03*
X189730Y258200D03*
X186580Y264500D03*
Y261350D03*
Y226700D03*
X183430Y261350D03*
X160577Y237311D03*
X162986Y241391D03*
Y237351D03*
X177498Y204041D03*
X173503Y257793D03*
Y261833D03*
X179558Y271644D03*
X183598D03*
X173504Y253642D03*
Y249551D03*
X136048Y234136D03*
X131846Y234137D03*
X199180Y207810D03*
X196030Y210960D03*
Y204660D03*
X183430Y223550D03*
X175208Y234301D03*
X186580Y204660D03*
X183430Y207810D03*
X172787Y222490D03*
X186580Y207810D03*
X171083Y224458D03*
X189730Y207810D03*
X172787Y226427D03*
X192880Y207810D03*
X164064Y230364D03*
X186580Y210960D03*
X164065Y206280D03*
X189730Y210960D03*
X171083Y207812D03*
X192880Y210960D03*
X172787Y210135D03*
X174490Y212104D03*
X189730Y217250D03*
X172038Y214072D03*
X192880Y217250D03*
X173742Y216041D03*
X196030Y217250D03*
X186580Y220400D03*
X189730D03*
X192880D03*
X179507Y205855D03*
X196030Y220400D03*
X164064Y202261D03*
X196030Y223550D03*
X184489Y372048D03*
X162600Y351400D03*
X100857Y369641D03*
X162118Y354290D03*
X136694Y371830D03*
X125382Y328103D03*
X171670Y369579D03*
X139102Y354532D03*
X161733Y371202D03*
X103327Y362759D03*
X138303Y333200D03*
X183300Y366800D03*
X199131Y366382D03*
X193226Y322092D03*
X192580Y372048D03*
X167605Y356361D03*
X151733Y371202D03*
X128534Y361392D03*
X183600Y337800D03*
X173484Y355539D03*
X183600Y340300D03*
X185600Y347600D03*
X201100Y357354D03*
X198977Y355650D03*
X195194D03*
X191257Y366382D03*
X187474Y355650D03*
X168300Y339100D03*
X201100Y322092D03*
X197163D03*
X195194Y324102D03*
X189289Y322092D03*
X168600Y332600D03*
X183400Y354200D03*
X189289Y353947D03*
X191257Y357354D03*
X195276Y366382D03*
X193300Y345500D03*
X201540Y366382D03*
X121394Y369641D03*
X103327Y352759D03*
X156900Y344800D03*
X162118Y358184D03*
X140106Y350595D03*
X125327Y347759D03*
X103327D03*
X156207Y366086D03*
X167605Y343361D03*
X199131Y359363D03*
X187320D03*
X183383D03*
X193226Y359363D03*
X142284Y333200D03*
X179400Y366800D03*
X189489Y372048D03*
X196949Y372048D03*
X125382Y338621D03*
X128534Y371912D03*
X132654Y371830D03*
X151100Y351400D03*
X320921Y79489D03*
Y75287D03*
X312600Y42800D03*
X262339Y62917D03*
X312558Y36502D03*
X310403Y75287D03*
X312800Y59369D03*
X310334Y70197D03*
X310333Y64298D03*
X312719Y53086D03*
X308122Y79489D03*
X319509Y5320D03*
X312423Y23978D03*
X278622Y79701D03*
X295600Y41200D03*
X295200Y35500D03*
X297500Y30700D03*
X294900Y21600D03*
X297400Y26500D03*
X301100Y54500D03*
X283900Y33100D03*
X312554Y32301D03*
X312504Y28180D03*
X253981Y51899D03*
X256930Y80287D03*
X272694Y79988D03*
X211910Y25011D03*
X272694Y75287D03*
Y69988D03*
X250694Y59988D03*
Y79988D03*
Y64988D03*
Y74988D03*
Y69988D03*
X210752Y18253D03*
X235793Y49966D03*
X235788Y45926D03*
X214954Y18253D03*
X252984Y24047D03*
X249716D03*
X214469Y25011D03*
X242364Y52703D03*
X246448Y24047D03*
X209200Y35000D03*
X232101Y23885D03*
X316500Y14829D03*
X272694Y64988D03*
X305694D03*
X246600Y45700D03*
X235369Y23885D03*
X228833D03*
X308122Y68022D03*
X260404Y19059D03*
X243180Y24047D03*
X262218Y21638D03*
X272694Y59988D03*
X312100Y39800D03*
X311015Y55248D03*
X309208Y46885D03*
Y35533D03*
Y41189D03*
Y30645D03*
X217028Y33279D03*
X214954Y7735D03*
X246448Y38939D03*
X252984D03*
X249716D03*
X243180D03*
X223000Y35200D03*
X228833Y44368D03*
X233402Y31759D03*
X237778Y35268D03*
X210752Y7735D03*
X218384Y50109D03*
X309208Y26564D03*
Y21635D03*
X303879Y79701D03*
X294400Y59900D03*
X312117Y46548D03*
X310075Y51814D03*
X302150Y199810D03*
X301870Y196990D03*
X304840Y196880D03*
X307340Y196840D03*
X303451Y186521D03*
X269300Y154500D03*
X284800Y183500D03*
X304316Y124478D03*
X265185Y139056D03*
X320600Y166400D03*
X279828Y163382D03*
X218911Y169471D03*
X227475Y195210D03*
X277711Y195048D03*
X255870Y185760D03*
X277800Y168600D03*
X227520Y192060D03*
X216402Y174334D03*
X221518Y169568D03*
X305419Y184512D03*
X216967Y101517D03*
X240120Y201510D03*
X208630D03*
X265320Y182610D03*
Y201510D03*
X262170Y188910D03*
X252720Y182610D03*
X243270D03*
X233820D03*
X205480D03*
X218070D03*
X259020Y185760D03*
X252720D03*
X259020Y192060D03*
X227520Y185760D03*
X255870Y188910D03*
Y195210D03*
X252720Y192060D03*
X249570D03*
X252720Y198360D03*
X249570Y195210D03*
X240120D03*
X233820D03*
X224370D03*
X208630D03*
X236970Y198360D03*
X233820D03*
X227520D03*
X224370D03*
X205480D03*
X218070D03*
X211770D03*
X293532Y111177D03*
X301406Y143461D03*
X249437Y111177D03*
X271484Y122069D03*
X282508Y154353D03*
X263610D03*
X251012D03*
X219516D03*
X221091Y122069D03*
X321878D03*
X302981D03*
X258886D03*
X276604Y93596D03*
X208999Y89677D03*
X236932Y93434D03*
X319186Y93514D03*
X232811Y93434D03*
X278622Y91586D03*
X297681Y94749D03*
X241896Y91077D03*
X292190Y174014D03*
X253650Y163492D03*
X245408Y163654D03*
X261729Y163492D03*
X266739Y161273D03*
X257689Y163492D03*
X303200Y183200D03*
X278622Y88539D03*
X320140D03*
X294693Y102977D03*
X310928Y197140D03*
X315392Y188006D03*
X208322Y163037D03*
X275789Y163331D03*
X212362Y163037D03*
X282178Y175861D03*
X243270Y198360D03*
X221518Y161301D03*
X205500Y162800D03*
X224276Y170065D03*
X226636Y161301D03*
X205601Y179834D03*
X208322Y141037D03*
X228965D03*
X227485Y101517D03*
X314004Y165648D03*
X321377Y133469D03*
X218070Y195210D03*
X208322Y174496D03*
X204282D03*
X202330Y192060D03*
X307131Y171200D03*
X249570Y185760D03*
X284900Y174000D03*
X221220Y195210D03*
X212362Y174496D03*
X262170Y192060D03*
X271866Y184154D03*
X250694Y84988D03*
X259020Y182610D03*
X270163Y181948D03*
X269453Y175861D03*
X282354Y188264D03*
X311325Y184818D03*
X282354Y192539D03*
X309356Y186521D03*
X216366Y154353D03*
X292190Y163496D03*
X288069Y163416D03*
X224077Y161301D03*
X295718Y200812D03*
X246420Y188910D03*
X228965Y154353D03*
X224240Y122069D03*
X249570Y182610D03*
X232114Y154353D03*
X246420Y192060D03*
Y185760D03*
X230540Y122069D03*
X249448Y160422D03*
X243270Y188910D03*
X235264Y154353D03*
X246420Y182610D03*
X236839Y122069D03*
X254797Y139056D03*
X238414Y154353D03*
X243270Y192060D03*
X259125Y156762D03*
X244952Y134191D03*
X243270Y185760D03*
X243138Y122069D03*
X315579Y132361D03*
X240120Y185760D03*
X246288Y122069D03*
X247862Y154353D03*
X240120Y188910D03*
X273444Y138850D03*
X252587Y122069D03*
X240120Y182610D03*
X236970Y192060D03*
X254162Y154353D03*
X216402Y160422D03*
X236970Y185760D03*
X255736Y122069D03*
X257311Y154353D03*
X236970Y188910D03*
X294699Y169010D03*
X262036Y134176D03*
Y122069D03*
X236970Y182610D03*
X249448Y174172D03*
X233820Y188910D03*
X260461Y154353D03*
X221220Y188910D03*
X285658Y154353D03*
X229751Y125104D03*
X290382Y139056D03*
X221220Y185760D03*
X290382Y122069D03*
X281172Y143460D03*
X288807Y154353D03*
X221220Y192060D03*
X221330Y126918D03*
X296681Y122069D03*
X218070Y185760D03*
Y188910D03*
X295107Y154353D03*
X301645Y124478D03*
X299831Y122069D03*
X211770Y185760D03*
X232306Y178351D03*
X298256Y154353D03*
X218070Y192060D03*
X233188Y138521D03*
X211770Y182610D03*
X306130Y122069D03*
X307705Y154353D03*
X211770Y192060D03*
X208630Y182610D03*
X315579Y122069D03*
X310855Y154353D03*
X208630Y188910D03*
X318729Y122069D03*
X205480Y185760D03*
X269935Y161273D03*
X208630Y192060D03*
X314004Y154353D03*
X202330Y185760D03*
X296514Y167124D03*
X205480Y188910D03*
X320303Y154353D03*
X216862Y134515D03*
X202330Y182610D03*
X244713Y161245D03*
X286649Y143381D03*
X240778Y175874D03*
X244713Y154353D03*
X240120Y192060D03*
X265185Y130547D03*
X233820Y185760D03*
X265185Y122069D03*
X237510Y175874D03*
X306255Y143171D03*
X228451Y178814D03*
X287232Y122069D03*
X234242Y175874D03*
X230974D03*
X309280Y122069D03*
X208630Y185760D03*
X278764Y143461D03*
X283949Y163457D03*
X304555Y154353D03*
Y171200D03*
X211770Y188910D03*
X249448Y163654D03*
X261534Y161083D03*
X227520Y182610D03*
X266760Y154353D03*
X224370Y192060D03*
X279358Y154353D03*
X292036Y181665D03*
X205480Y192060D03*
X231374Y140870D03*
X284083Y122069D03*
X224370Y182610D03*
X230670D03*
X268335Y122069D03*
X202330Y188910D03*
X241324Y132361D03*
X230670Y185760D03*
X274634Y122069D03*
X266521Y134207D03*
X273059Y154353D03*
X230670Y188910D03*
X224370D03*
X276209Y154353D03*
X294599Y163087D03*
X267134Y184198D03*
X227520Y188910D03*
X291957Y154353D03*
X266739Y174292D03*
X261729Y174010D03*
X257689D03*
X240120Y198360D03*
X271749Y173850D03*
X299500Y186600D03*
X293850Y190050D03*
X278100Y199200D03*
X297455Y199109D03*
X316300Y177000D03*
X317700Y175000D03*
X316300Y173000D03*
X317800Y171000D03*
X311400Y171200D03*
X313200Y168200D03*
X315300Y170500D03*
X317700Y179000D03*
X211770Y201510D03*
X205480D03*
X202330D03*
X236970D03*
X202330Y198360D03*
X246420Y201510D03*
Y198360D03*
X249570Y201510D03*
Y198360D03*
X218070Y201510D03*
X233820D03*
X215518Y138144D03*
X272694Y84988D03*
X226636Y174587D03*
X282304Y180033D03*
X216402Y163037D03*
X282385Y184154D03*
X202800Y162900D03*
X234242Y160982D03*
X230974D03*
X240778D03*
X237510D03*
X309700Y182800D03*
X312632Y194990D03*
X312795Y199310D03*
X262339Y87575D03*
X314131Y83548D03*
X245408Y174172D03*
X253650Y174010D03*
X271749Y163331D03*
X241896Y104095D03*
X285690Y104258D03*
X232811Y103952D03*
X280680Y104114D03*
X236932Y103952D03*
X276604Y104114D03*
X319186Y104033D03*
X280933Y111177D03*
X239988D03*
X317154Y143461D03*
X288867Y173934D03*
X211770Y195210D03*
X221220Y198360D03*
X230670D03*
X208630D03*
X205480Y195210D03*
X202330D03*
X236970D03*
X243270D03*
X246420D03*
X252720Y201510D03*
Y195210D03*
X224370Y185760D03*
X262170Y182610D03*
Y185760D03*
X265320D03*
X262170Y195210D03*
X271836Y188264D03*
X259020Y195210D03*
X271836Y192539D03*
X262170Y198360D03*
X271000Y195400D03*
X259020Y198360D03*
X270300Y197900D03*
X255870Y198360D03*
X270300Y200400D03*
X262170Y201510D03*
X259020D03*
X255870D03*
X235950Y138950D03*
X240900Y154400D03*
X318968Y141357D03*
X287010Y195620D03*
X313040Y202660D03*
X294140Y207170D03*
X286940Y219770D03*
X287000Y208410D03*
X308810Y208670D03*
X313100Y212490D03*
X211770Y264500D03*
X230650Y269927D03*
X218070Y258200D03*
X246300Y267229D03*
X243000Y281700D03*
X218070Y255050D03*
X221220Y264500D03*
X248509Y266786D03*
X221220Y261350D03*
X250718Y267429D03*
X230670Y264500D03*
X252686Y268991D03*
X230670Y261350D03*
X254655Y267228D03*
X227570Y251924D03*
X233820Y255050D03*
X256864Y267229D03*
X274900Y252700D03*
X233820Y251900D03*
X261000Y268700D03*
X206800Y269100D03*
X211770Y261350D03*
X295536Y217916D03*
X221220Y258200D03*
X216488Y268018D03*
X221220Y255050D03*
X218500Y271000D03*
X224370Y264500D03*
X220425Y268991D03*
X224370Y258200D03*
X223806Y268913D03*
X224370Y255050D03*
X211300Y269900D03*
X227520Y264500D03*
Y258200D03*
Y255050D03*
X230670Y258200D03*
Y255050D03*
X202500Y271500D03*
X233820Y261350D03*
Y258200D03*
X204300Y269000D03*
X236970Y264500D03*
X232919Y268413D03*
X236556Y269438D03*
X236970Y261350D03*
Y258200D03*
X238524Y271000D03*
X240120Y255050D03*
X240493Y267875D03*
X224600Y282100D03*
X240120Y245600D03*
X242680Y218830D03*
X229100Y241860D03*
X231260Y225130D03*
X229100Y216670D03*
Y205250D03*
X219650Y241860D03*
X217480Y221980D03*
X219650Y205250D03*
X206060Y228280D03*
X265320Y264500D03*
Y251900D03*
X252720Y264500D03*
X265320Y242450D03*
X243270Y264500D03*
X233820D03*
X265320Y229850D03*
Y223550D03*
Y207810D03*
Y217250D03*
X262170Y258200D03*
Y242450D03*
Y226700D03*
X224370Y261350D03*
X262170Y204660D03*
Y220400D03*
Y210960D03*
X255870Y258200D03*
X259020Y239300D03*
X255870Y251900D03*
Y239300D03*
X252720Y248750D03*
X249570Y251900D03*
X252720Y239300D03*
X240120Y251900D03*
X252720Y207810D03*
X249570Y242450D03*
X243270Y248750D03*
X249570Y236150D03*
X236970Y248750D03*
X249570Y233000D03*
X233820Y248750D03*
X249570Y226700D03*
X227520Y248750D03*
X249570Y223550D03*
X224370Y248750D03*
X249570Y204660D03*
Y217250D03*
X218070Y248750D03*
X249570Y210960D03*
X246420Y239300D03*
Y207810D03*
X202330D03*
X227520Y223550D03*
X224370Y226700D03*
X240642Y290103D03*
X269000Y281600D03*
X264882Y281517D03*
X300300Y213400D03*
X307986Y214080D03*
X314100Y244300D03*
X317030Y226205D03*
X314610Y249423D03*
X290414Y292932D03*
X300932Y276761D03*
X300908Y268641D03*
X300892Y284801D03*
X285256Y279185D03*
Y275064D03*
X280394Y301093D03*
X314300Y269600D03*
X315149Y217093D03*
X206060Y218830D03*
X202330Y239300D03*
X205480Y248750D03*
Y264500D03*
X208630Y245600D03*
Y251900D03*
X211770Y248750D03*
X222800Y216670D03*
X225950Y230440D03*
X242680Y228280D03*
X262124Y308646D03*
X315300Y311100D03*
X312100Y320500D03*
X293300Y317300D03*
Y311100D03*
X308900Y320500D03*
X298100Y307300D03*
X312200Y311100D03*
X275601Y316307D03*
X275682Y309843D03*
X244407Y311055D03*
X250313Y309351D03*
X238502D03*
X210943Y313064D03*
X219650Y230440D03*
X205480Y261350D03*
X206200Y271500D03*
X295536Y220504D03*
X306400Y221500D03*
X319695Y226349D03*
X319161Y220504D03*
X277828Y212774D03*
X290656Y212709D03*
X283100Y294300D03*
X282936Y245910D03*
X277600Y221900D03*
X282900Y243500D03*
X208630Y264500D03*
X218070Y251900D03*
X243270Y258200D03*
X244682Y271000D03*
X268349Y247236D03*
X278300Y225000D03*
X278200Y201900D03*
X278300Y204500D03*
X278275Y206925D03*
X278300Y209500D03*
X227500Y267500D03*
X208630Y261350D03*
X232619Y270947D03*
X218070Y261350D03*
X226800Y270200D03*
X208630Y258200D03*
X242800Y288400D03*
X245500Y288600D03*
X248800Y290700D03*
X250700Y292300D03*
X252686Y288399D03*
X254655Y290103D03*
X256623Y288399D03*
X212911Y311055D03*
X256372Y306557D03*
X258592Y290103D03*
X208300Y289400D03*
X228659Y321786D03*
X217000Y292200D03*
X218457Y288076D03*
X216848Y321786D03*
X205000Y307000D03*
X220425Y289780D03*
X214880Y309351D03*
X222394Y288076D03*
X214880Y320083D03*
X216848Y313064D03*
X225000Y307400D03*
X244700Y292400D03*
X220785Y313064D03*
X222754Y320083D03*
X224722Y313064D03*
X226691Y320083D03*
X203400Y288300D03*
X220785Y321786D03*
X206000Y288100D03*
X242456Y294952D03*
X234587Y288399D03*
X236556Y290103D03*
X224600Y310100D03*
X240120Y264500D03*
X242441Y271000D03*
X240120Y261350D03*
X222244Y267151D03*
X240120Y258200D03*
X234481Y266851D03*
X236970Y255050D03*
X230196Y267719D03*
X220100Y301000D03*
X210429Y288076D03*
X269000Y308000D03*
X268900Y288500D03*
X264300Y289100D03*
X242398Y313064D03*
X246416D03*
X248344Y320083D03*
X252322Y313064D03*
X275254Y283945D03*
X254209Y320083D03*
X258187Y311055D03*
X275600Y263000D03*
X260155Y306636D03*
X264092Y320083D03*
X205480Y258200D03*
Y255050D03*
X202330Y264500D03*
Y255050D03*
Y261350D03*
Y258200D03*
X203028Y320083D03*
X207046D03*
X264133Y313064D03*
X259020Y264500D03*
Y261350D03*
X260155Y321786D03*
X258228Y320083D03*
X255870Y261350D03*
Y264500D03*
X254250Y311055D03*
X264161Y301083D03*
X252720Y258200D03*
Y261350D03*
X248303Y311361D03*
X252720Y255050D03*
X249570Y258200D03*
Y261350D03*
Y255050D03*
Y264500D03*
X268700Y266100D03*
X246420Y258200D03*
Y261350D03*
Y255050D03*
Y264500D03*
X243270Y255050D03*
X207006Y311055D03*
X259020Y242450D03*
X255870D03*
X203068Y311055D03*
X265320Y245600D03*
X255870D03*
X262170D03*
X259020D03*
X265320Y248750D03*
X269186Y261350D03*
X255870Y248750D03*
X262170D03*
X263600Y285800D03*
X259020Y248750D03*
X262170Y251900D03*
X259020D03*
X261500Y303200D03*
X259020Y255050D03*
X262170D03*
X265320D03*
Y258200D03*
X226800Y288800D03*
X232596Y320083D03*
X232200Y289700D03*
X228659Y309657D03*
X242600Y298500D03*
X230628Y313064D03*
X229600Y288900D03*
X243401Y308372D03*
X234565Y313064D03*
X277739Y229886D03*
X202330Y236150D03*
X242680Y225130D03*
Y221980D03*
X229100Y230440D03*
X225950Y241860D03*
Y205250D03*
X222800Y241860D03*
Y230440D03*
X224370Y223550D03*
X222800Y205250D03*
X217480Y225130D03*
X211770Y245600D03*
X205480D03*
X202330Y248750D03*
Y245600D03*
X206060Y225130D03*
X202330Y217250D03*
X227520Y226700D03*
X202330Y210960D03*
Y204660D03*
X246420Y210960D03*
Y217250D03*
Y204660D03*
X233820Y245600D03*
X236970D03*
X246420Y233000D03*
Y236150D03*
X243270Y245600D03*
X246420Y242450D03*
Y245600D03*
Y248750D03*
X249570Y245600D03*
Y248750D03*
X206060Y221980D03*
X202330Y233000D03*
Y242450D03*
X219650Y216670D03*
X225950D03*
X231260Y221980D03*
X218070Y245600D03*
X292800Y229000D03*
X286120Y316307D03*
X318600Y314400D03*
X315300Y320500D03*
X289900Y320300D03*
X286201Y309843D03*
X318600Y308000D03*
X289900Y314100D03*
X290100Y307900D03*
X308900Y314100D03*
X300200Y315700D03*
X242700Y285700D03*
X258601Y271000D03*
X210943Y320083D03*
X238502D03*
X244407D03*
X205037Y313064D03*
X264133Y310655D03*
X268070Y316573D03*
X256218Y313064D03*
X211770Y251900D03*
X202330D03*
X208630Y248750D03*
X205480Y251900D03*
X313300Y208100D03*
X262500Y271000D03*
X264882Y270999D03*
X224159Y271322D03*
X244288Y268791D03*
X214674Y289780D03*
X268922Y270837D03*
X249570Y207810D03*
X221220Y248750D03*
X249570Y220400D03*
X230670Y248750D03*
X249570Y229850D03*
X240120Y248750D03*
X249570Y239300D03*
X252720Y210960D03*
Y204660D03*
X236970Y251900D03*
X252720Y236150D03*
X246420Y251900D03*
X243270D03*
X252720Y245600D03*
Y242450D03*
Y251900D03*
X255870Y255050D03*
X259020Y258200D03*
X227520Y261350D03*
X262170Y223550D03*
X243270Y261350D03*
X262170D03*
Y264500D03*
X265320Y261350D03*
X238565Y288399D03*
X265320Y226700D03*
X272206Y219532D03*
X255870Y236150D03*
X272418Y245910D03*
X259020Y236150D03*
X272418Y241709D03*
X265320Y236150D03*
X270700Y222100D03*
X265320Y233000D03*
X270600Y224800D03*
X262170Y233000D03*
X270600Y227100D03*
X259020Y233000D03*
X270600Y229400D03*
X255870Y233000D03*
X270700Y231700D03*
X252720Y233000D03*
X270700Y234000D03*
X262170Y229850D03*
X270700Y236500D03*
X259020Y229850D03*
X270700Y239000D03*
X265320Y204660D03*
X272234Y215283D03*
X270400Y202700D03*
Y205100D03*
Y207400D03*
X259020Y204660D03*
X269900Y209600D03*
X255870Y204660D03*
X270800Y212400D03*
X304400Y248890D03*
X305300Y241100D03*
X308700Y229600D03*
X305904Y229092D03*
X303200Y229700D03*
X285614Y222430D03*
X286100Y227400D03*
X287600Y230500D03*
X285700Y232300D03*
X286900Y238100D03*
X285600Y240200D03*
X283000Y239900D03*
X287191Y244283D03*
X285500Y246200D03*
X297549Y256651D03*
X314170Y246990D03*
X309470Y246380D03*
X293480Y249800D03*
X298560Y244800D03*
X299370Y229740D03*
X303150Y243850D03*
X294570Y241930D03*
X314180Y236090D03*
X310650Y236020D03*
X307400Y257020D03*
X300010Y262080D03*
X314810Y267220D03*
X314750Y255480D03*
X312770Y257550D03*
X283500Y257500D03*
X305200Y214400D03*
X275100Y366700D03*
X259946Y372089D03*
X219748Y367030D03*
X209855Y372086D03*
X244887Y372048D03*
X234081Y372048D03*
X270046Y372089D03*
X201981Y372086D03*
X225162Y372048D03*
X291705Y353395D03*
X315300Y330000D03*
X275217Y344596D03*
X319400Y348200D03*
X308600Y333800D03*
X268070Y364882D03*
X275682Y322529D03*
X275601Y328993D03*
X275682Y335295D03*
X293200Y333100D03*
X296400D03*
X266061Y322092D03*
X256218D03*
Y359363D03*
X210943Y366382D03*
X238502Y355650D03*
X312200Y323600D03*
X293300Y323700D03*
X300200Y322000D03*
X246600Y354800D03*
X205037Y322092D03*
Y372086D03*
X244400Y357800D03*
X302000Y350800D03*
X306400Y342000D03*
X304200Y348600D03*
X306400Y355200D03*
X302000Y359600D03*
X306400Y350800D03*
X302000Y355200D03*
X304200Y361800D03*
Y366200D03*
Y353000D03*
X306400Y346400D03*
X304200Y357400D03*
X306400Y364000D03*
X302000D03*
X306400Y359400D03*
X304200Y335400D03*
X306400Y337600D03*
X304200Y339800D03*
X289000Y337900D03*
X304200Y331130D03*
X307900Y323600D03*
X293300Y330000D03*
X315300Y326800D03*
X296400Y330000D03*
X305900Y326900D03*
X318900Y329700D03*
X287674Y331526D03*
X318700Y323500D03*
X301627Y325227D03*
X304200Y344200D03*
X302000Y337600D03*
X306400Y333200D03*
X302000D03*
Y368400D03*
X286300Y336200D03*
X302000Y342000D03*
Y346400D03*
X236533Y372048D03*
Y322092D03*
X212911Y372048D03*
Y322092D03*
X236533Y357660D03*
X212911Y357354D03*
X248426Y343079D03*
X228500Y349700D03*
X220631Y353548D03*
X216848Y357660D03*
X216694Y354879D03*
X207046Y323796D03*
X214880Y351844D03*
X236379Y345758D03*
X217157Y366382D03*
X218816Y351844D03*
X220785Y355957D03*
X222754Y351844D03*
X224722Y366382D03*
X226691Y351733D03*
X205000Y349900D03*
X224568Y356954D03*
X210675Y343559D03*
X224876Y353548D03*
X218800Y323600D03*
X224722Y359363D03*
X224300Y323800D03*
X222754Y372048D03*
X230628Y323489D03*
X203223Y324102D03*
X230628Y359363D03*
X226956Y324102D03*
X264300Y366600D03*
X260155Y349622D03*
X251687Y328356D03*
X260350Y334050D03*
X250800Y366600D03*
X248344Y366382D03*
X246872Y334428D03*
X207006Y366382D03*
X203068Y355650D03*
X252281Y324102D03*
X246376Y322092D03*
X242439D03*
Y372048D03*
X274800Y348800D03*
X248303Y357660D03*
X252281Y351232D03*
X279514Y357354D03*
X253400Y366600D03*
X258187Y354347D03*
X275069Y338116D03*
X260200Y366400D03*
X264092Y355344D03*
X265312Y336302D03*
X264092Y325916D03*
X255000Y347500D03*
X256600Y327900D03*
X272500Y366200D03*
X207046Y357549D03*
X266546Y340494D03*
X208861Y355846D03*
X224568Y330170D03*
X232596Y366382D03*
X228659Y355251D03*
X230628Y372048D03*
X234565Y359363D03*
X318400Y336400D03*
X289900Y333100D03*
X286201Y322529D03*
X290000Y329900D03*
X309000Y326900D03*
X299600Y326800D03*
X315400Y336300D03*
X286120Y328993D03*
X290000Y345700D03*
X285736Y344596D03*
X319500Y354400D03*
X283400Y338100D03*
X250313Y353335D03*
X238502Y366382D03*
X210943Y359363D03*
X250313Y322092D03*
X244407Y366382D03*
X205037Y359363D03*
X270561Y362873D03*
X262124Y357354D03*
X227571Y372048D03*
X265046Y372089D03*
X239831Y372048D03*
X249887D03*
X207446Y372086D03*
X214748Y367030D03*
X254946Y372089D03*
X282870Y369560D03*
X391200Y16500D03*
X340000Y19000D03*
X418315Y37685D03*
X417080Y49320D03*
X367202Y-4474D03*
X351594Y19042D03*
X353521Y15906D03*
X343924Y23184D03*
X367187Y78418D03*
X372191Y78363D03*
X403447Y25761D03*
X373288Y28149D03*
X367342Y22980D03*
X363404D03*
Y66286D03*
X355736Y22980D03*
X336113Y78361D03*
X347862Y23184D03*
X416245Y60955D03*
X380591Y50723D03*
X367342Y58412D03*
X380753Y46683D03*
X371278Y54476D03*
X395874Y51573D03*
X380430Y38280D03*
X367342Y50538D03*
X380430Y30160D03*
X363404Y42664D03*
X390938Y64672D03*
X371278Y50538D03*
X393115Y44185D03*
X371278Y42664D03*
X380542Y42482D03*
X380430Y34240D03*
X367342Y42664D03*
X380420Y26140D03*
X367342Y54476D03*
X325032Y28180D03*
X324726Y23978D03*
X363404Y62350D03*
Y54476D03*
Y58412D03*
X323076Y45067D03*
X343720Y50538D03*
Y54476D03*
X363404Y34790D03*
X359468Y62350D03*
X323352Y70197D03*
X323271Y50077D03*
X323237Y55248D03*
X325485Y40785D03*
X323076Y36502D03*
X323072Y32301D03*
X343720Y34790D03*
X390948Y34240D03*
X371278Y62350D03*
X390948Y30160D03*
X402721Y-18118D03*
X371278Y58412D03*
X402741Y-27500D03*
X380420Y64672D03*
X367342Y62350D03*
X391060Y42482D03*
X402883Y-9230D03*
X367342Y66286D03*
X400874Y51573D03*
X402741Y0D03*
X391109Y50723D03*
X391272Y46683D03*
X398750Y34482D03*
X414465Y38401D03*
X371278Y70224D03*
X335846Y19042D03*
X349224Y18502D03*
X345688Y18517D03*
X363404Y19042D03*
X359468D03*
X371278D03*
X367342D03*
X339500Y10500D03*
X348500Y5100D03*
X372150Y8106D03*
X340153Y78401D03*
X380388Y55703D03*
X371278Y66286D03*
X380421Y60551D03*
X363404Y50538D03*
X367342Y34790D03*
X339782Y62350D03*
X335846Y30854D03*
X347656Y66286D03*
X332033Y78401D03*
Y59369D03*
Y72233D03*
X323318Y59369D03*
X323351Y64298D03*
X327912Y78396D03*
X380549Y21282D03*
X339782Y26917D03*
X371278Y30854D03*
X335846Y62350D03*
Y66286D03*
X371278Y22980D03*
X324680Y15957D03*
X347697Y26917D03*
X396789Y67574D03*
X400107Y31120D03*
X335846Y38728D03*
X356500Y200D03*
X430010Y25837D03*
X343720Y38728D03*
X430010Y37685D03*
X377275Y-15085D03*
X342500Y2000D03*
X330300Y3000D03*
X369100Y500D03*
X335846Y34790D03*
X324780Y47177D03*
X430010Y49320D03*
X347656Y54476D03*
X351594Y50538D03*
X359468Y30854D03*
X347656Y50538D03*
X359468Y34790D03*
X351594D03*
X372332Y-17455D03*
X367202Y-14992D03*
X363098Y-17170D03*
X351594Y58412D03*
X393567Y21282D03*
X351594Y54476D03*
X347656Y30854D03*
X359468Y58412D03*
X347656Y42664D03*
Y34790D03*
Y58412D03*
X324680Y5439D03*
X359468Y26917D03*
X351634D03*
X363404Y38728D03*
X359468Y42664D03*
Y54476D03*
Y50538D03*
Y38728D03*
X351594Y42664D03*
Y30854D03*
X430010Y60955D03*
X432387Y43694D03*
X347656Y38728D03*
X351594D03*
X381379Y-14992D03*
X339782Y34790D03*
Y50538D03*
X391101Y11940D03*
X377032Y5078D03*
X325481Y33148D03*
X413191Y67493D03*
X404950Y67492D03*
X388467Y67654D03*
X380350Y67684D03*
X414680Y80776D03*
X335846Y26917D03*
X384390Y78202D03*
X380350D03*
X392666Y78099D03*
X388467Y78172D03*
X400868Y78019D03*
X396789Y78092D03*
X404950Y78010D03*
X409100Y78018D03*
X417232Y78040D03*
X413191Y78011D03*
X413401Y-9230D03*
X413239Y-18118D03*
X371278Y38728D03*
X362500Y-3400D03*
X339782Y30854D03*
X344233Y78401D03*
X413259Y0D03*
Y-27500D03*
X343720Y30854D03*
X404400Y80518D03*
X390621Y80518D03*
X400463Y80518D03*
X396526D03*
X339782Y22980D03*
X351594Y70224D03*
X328962Y15790D03*
X359468Y70224D03*
X333082Y15790D03*
X343720Y70224D03*
X349000Y78000D03*
X354100Y77900D03*
X347656Y70224D03*
X363404D03*
X358975Y78431D03*
X367342Y70224D03*
X363096Y78431D03*
X343679Y26917D03*
X335846Y22980D03*
X339782Y54476D03*
Y66286D03*
X343720Y58412D03*
Y62350D03*
Y66286D03*
X335846Y54476D03*
Y50538D03*
X339782Y42664D03*
X343720D03*
X339782Y38728D03*
X390948Y36698D03*
X386684Y80518D03*
X392666Y67580D03*
X400868Y67501D03*
X409100Y67500D03*
X417232Y67522D03*
X384390Y67684D03*
X322907Y19748D03*
X323022Y26171D03*
X369800Y-21400D03*
X421200Y109000D03*
X419800Y94400D03*
X419700Y91600D03*
X437800Y86100D03*
X349602Y162301D03*
X357396Y109362D03*
X439300Y111000D03*
X333530Y176970D03*
X357740Y197530D03*
X336836Y175001D03*
X345930Y193590D03*
X335133Y173033D03*
X353810Y197530D03*
X333429Y171064D03*
X357740Y201460D03*
X436480Y185710D03*
X440420Y189650D03*
X428610Y193590D03*
X432550D03*
X436480D03*
X440420D03*
X426626Y126596D03*
X421506Y114676D03*
X417268Y113071D03*
X436480Y197530D03*
X432550D03*
X437900Y130400D03*
X369000Y199500D03*
X329752Y143461D03*
X337626Y111177D03*
X343925Y122069D03*
X331584Y93758D03*
X323306Y93515D03*
X327382Y93596D03*
X418663Y151466D03*
X366086Y162433D03*
X432637Y150805D03*
X372191Y91382D03*
X367187Y88936D03*
X439514Y101234D03*
X382243Y87950D03*
X379377Y89308D03*
X351825Y104472D03*
X347825Y104432D03*
X388263Y95208D03*
X394138D03*
X431626Y126596D03*
X439672Y106304D03*
X369480Y94568D03*
X328700Y195600D03*
X341405Y162353D03*
X322600Y168400D03*
X345526Y162272D03*
X353767Y162353D03*
X420740Y189650D03*
X383844Y93386D03*
X407698Y111102D03*
X390621Y111177D03*
X396546Y92386D03*
X405588Y107425D03*
X385300Y189650D03*
X424670D03*
X389240D03*
X404990Y181780D03*
X408920D03*
X432550Y201460D03*
X353810D03*
X342000Y185710D03*
X345930Y181780D03*
Y177840D03*
X357740Y189650D03*
X353810D03*
X369550Y181780D03*
X373490D03*
X392589Y92569D03*
X367776Y97323D03*
X385854Y95208D03*
X381835Y91417D03*
X379713Y84528D03*
X388652Y92569D03*
X428610Y201460D03*
X424670Y185710D03*
X388652Y123970D03*
X354334Y96713D03*
X435874Y116118D03*
X345316Y96673D03*
X386684Y115951D03*
X381543Y116884D03*
X392589Y123970D03*
X391538Y105726D03*
X398495Y115951D03*
X407597Y105721D03*
X406369Y115951D03*
X435874Y91118D03*
X403578Y105721D03*
X404400Y123970D03*
X399558Y105726D03*
X402432Y115951D03*
X395538Y105726D03*
X400463Y123970D03*
X387498Y105726D03*
X394558Y115951D03*
X408478Y86722D03*
X419189Y97323D03*
X408920Y177840D03*
X404990Y193590D03*
X438365Y171740D03*
X412860Y177840D03*
X424225Y142004D03*
X426738Y138132D03*
Y133014D03*
Y135573D03*
X338539Y172871D03*
X342000Y189650D03*
X353767Y172872D03*
X353810Y193590D03*
X349870D03*
X345526Y172790D03*
X345930Y197530D03*
X333460Y168400D03*
X342000Y193590D03*
X341405Y172872D03*
X342000Y197530D03*
X333460Y164300D03*
X432550Y181780D03*
X328470Y200069D03*
X329200Y190600D03*
X396526Y123970D03*
X361964Y159202D03*
X440420Y197530D03*
X420740Y193590D03*
X432550Y177840D03*
X378233Y155095D03*
X419570D03*
X428610Y177840D03*
X388806Y134000D03*
X416800Y193590D03*
X423198Y155929D03*
X428610Y181780D03*
X424670Y177840D03*
X386955Y150725D03*
X412560Y167444D03*
X416800Y185710D03*
X415034Y137574D03*
X420740Y185710D03*
X412860Y189650D03*
X409531Y140508D03*
X412860Y185710D03*
Y193590D03*
X416800Y181780D03*
X411346Y135166D03*
X408920Y193590D03*
X412860Y181780D03*
X408920Y185710D03*
X416800Y177840D03*
X397110Y193590D03*
X401050Y177840D03*
X383473Y150709D03*
X397110Y185710D03*
Y181780D03*
X385300Y177840D03*
X381370Y181780D03*
X385300Y185710D03*
X380302Y123970D03*
X389240Y193590D03*
X373490Y177840D03*
X370636Y132986D03*
X381370Y185710D03*
X377430Y181780D03*
X361553Y122069D03*
X385300Y193590D03*
X372450Y154353D03*
X377430Y185710D03*
X376673Y123884D03*
X377430Y189650D03*
X325028Y122069D03*
X377430Y177840D03*
X326842Y132986D03*
X369550Y177840D03*
X328177Y122069D03*
X411940Y140508D03*
X416800Y189650D03*
X392589Y130547D03*
X401050Y193590D03*
X397110Y177840D03*
X378781Y132986D03*
X381370Y177840D03*
X438365Y161222D03*
X340776Y122069D03*
X420740Y177840D03*
X393852Y168038D03*
X397110Y189650D03*
X433002Y173231D03*
X404990Y177840D03*
X381370Y189650D03*
X365620Y181780D03*
X332902Y154353D03*
X365620Y177840D03*
X384048Y168038D03*
X393852Y145470D03*
X426466Y173231D03*
X401050Y189650D03*
X380595Y135015D03*
X387316Y168038D03*
X401050Y185710D03*
X326603Y154353D03*
X428610Y185710D03*
X370900Y175000D03*
X377430Y193590D03*
X380439Y174977D03*
X334477Y135015D03*
Y122069D03*
X377171Y174977D03*
X373490Y185710D03*
X369550D03*
X373903Y174977D03*
X381370Y193590D03*
X339201Y154353D03*
X390584Y168038D03*
X401050Y181780D03*
X412249Y169853D03*
X423198Y173231D03*
X389240Y177840D03*
X429734Y173231D03*
X389240Y185710D03*
X404990D03*
X383538Y113071D03*
X345930Y185710D03*
X353045Y111177D03*
X349870Y189650D03*
Y181780D03*
X357740Y193590D03*
X398495Y88537D03*
X361680Y193590D03*
X353810Y177840D03*
X394558Y88537D03*
X361680Y189650D03*
X402432Y88537D03*
X349870Y185710D03*
X353810D03*
X406369Y88537D03*
X357740Y177840D03*
X373816Y105260D03*
X357740Y185710D03*
X384244Y107229D03*
X381835Y107541D03*
X361680Y185710D03*
X372113Y107165D03*
X379377Y118698D03*
X365620Y189650D03*
X373816Y109134D03*
X361680Y181780D03*
X381835Y111102D03*
X365620Y193590D03*
X371989Y102327D03*
X435874Y106454D03*
X369480Y99291D03*
X436782Y96118D03*
X346976Y85357D03*
X356034D03*
X349485Y93116D03*
X353525D03*
X358975Y88950D03*
X363096D03*
X338633Y184844D03*
X337000Y182900D03*
X342000Y201460D03*
X336818Y195733D03*
X339900Y180907D03*
X337948Y178938D03*
X349870Y201460D03*
X338300Y189500D03*
X438200Y121100D03*
X344233Y88919D03*
X342000Y181780D03*
X361680Y177840D03*
X357924Y172982D03*
X417268Y91417D03*
X419566Y84528D03*
X373490Y193590D03*
X361964Y172982D03*
X337203Y162353D03*
X339651Y177124D03*
X345930Y189650D03*
X349602Y172820D03*
X349870Y197530D03*
X335887Y91288D03*
X322700Y164300D03*
X361680Y197530D03*
X376800Y201100D03*
X412300Y199500D03*
X397110Y197530D03*
X345930Y201460D03*
X336113Y88879D03*
X340153Y88919D03*
X332033D03*
X327912Y88914D03*
X369550Y189650D03*
X373490D03*
X357740Y181780D03*
X353810D03*
X408920Y189650D03*
X436480Y177840D03*
X440420D03*
X432550Y189650D03*
X389240Y181780D03*
X384715Y123970D03*
X440420Y181780D03*
X436480D03*
X428610Y197530D03*
X440420Y201460D03*
X420740Y181780D03*
X424670D03*
X404990Y189650D03*
X426738Y140691D03*
X440420Y185710D03*
X385300Y181780D03*
X424225Y131486D03*
X390584Y160165D03*
X393852D03*
X373903Y160084D03*
X377171D03*
X384048Y160165D03*
X387316D03*
X426466Y165357D03*
X429734D03*
X433002Y158338D03*
X337100Y191800D03*
X336737Y200069D03*
X357924Y162463D03*
X361964D03*
X429266Y124576D03*
X379377Y115180D03*
X383947Y90060D03*
X396547Y95208D03*
X409166Y89377D03*
X409707Y115180D03*
X391538Y95208D03*
X376968Y89308D03*
X366086Y172952D03*
X423198Y158338D03*
X380439Y160084D03*
X370636D03*
X323306Y104033D03*
X327382Y104114D03*
X331584Y104276D03*
X331327Y111177D03*
X336051Y143461D03*
X350225Y111177D03*
X328293Y160541D03*
X351799Y143461D03*
X428610Y205400D03*
X436480D03*
X428610Y209340D03*
X432550D03*
X436480D03*
X440420D03*
X428610Y213270D03*
X440420Y240830D03*
X436480D03*
X428610Y264460D03*
X432550D03*
X428610Y268390D03*
X397500Y257100D03*
X419700Y228100D03*
X440420Y244770D03*
X436480D03*
X432550D03*
X428610D03*
X440420Y248710D03*
X436480D03*
X432550D03*
X428610D03*
X436480Y252640D03*
Y256580D03*
X440420Y260520D03*
Y264460D03*
X436480Y260520D03*
X428610Y256580D03*
X432550Y260520D03*
X325040Y221174D03*
X328600Y205200D03*
X373004Y246896D03*
X393180Y229020D03*
X365696Y234896D03*
X420200Y219200D03*
Y215200D03*
X397110Y229020D03*
X401050D03*
X381370Y236900D03*
X389240Y229020D03*
X385300D03*
X403000Y255900D03*
X413500Y228900D03*
X391200Y202100D03*
X383300Y202300D03*
X373004Y210896D03*
X420200Y295400D03*
X338331Y294331D03*
X371500Y224900D03*
X389240Y236900D03*
X403000Y202200D03*
X406900Y202400D03*
X397110Y221150D03*
X393180D03*
X389240D03*
X385300D03*
X381370D03*
X401050D03*
X369000Y258600D03*
X420600Y252400D03*
X382499Y255601D03*
X385300Y236900D03*
X393180D03*
X397110D03*
X401050D03*
X438926Y296026D03*
X325162Y217162D03*
X328550Y214802D03*
X327900Y284800D03*
X440420Y252640D03*
Y256580D03*
X381370Y229020D03*
X440420Y221150D03*
X408920Y276270D03*
X404990D03*
X389240Y268390D03*
X385300D03*
X424670Y260520D03*
X381370D03*
X420740Y268390D03*
X424670D03*
X432550Y236900D03*
X440420Y272330D03*
X436480D03*
X432550Y240830D03*
X407000Y255800D03*
X424670Y240830D03*
Y232960D03*
X440420Y225090D03*
X389240Y260520D03*
X432550Y232960D03*
X425000Y317000D03*
X424900Y313900D03*
X440700D03*
Y320100D03*
X428729Y321729D03*
X440600Y310700D03*
X425000D03*
X440420Y236900D03*
X436480Y232960D03*
X428610D03*
X432550Y225090D03*
X345930Y252640D03*
Y256580D03*
X361680Y252640D03*
X345930Y221150D03*
X342000Y272330D03*
X349870Y232960D03*
X361680D03*
X342000D03*
X360500Y317500D03*
Y311300D03*
X341600Y317600D03*
Y311200D03*
X344900Y311400D03*
X353607Y309693D03*
X345930Y225090D03*
X349870D03*
X353810Y236900D03*
Y240830D03*
X361680D03*
X369550Y276270D03*
X373490D03*
X353810Y260520D03*
X345930Y272330D03*
X349870Y268390D03*
X353810D03*
X342000Y276270D03*
X345930D03*
X353810Y272330D03*
X349870D03*
X357740D03*
X399499Y202401D03*
X440420Y217210D03*
X422700Y202800D03*
X432550Y205400D03*
X357740Y213270D03*
X349870Y221150D03*
X361680Y217210D03*
X342000Y209340D03*
X361680Y213270D03*
X349870Y217210D03*
X353810Y209340D03*
Y205400D03*
X342000Y213270D03*
Y256580D03*
X349870D03*
X357740Y244770D03*
X336150Y242250D03*
X335800Y245500D03*
X353810Y244770D03*
X335612Y253743D03*
X345930Y244770D03*
X335614Y249922D03*
X349870Y244770D03*
X335652Y269943D03*
X342000Y248710D03*
X385300Y264460D03*
X381370Y268390D03*
Y276270D03*
Y280200D03*
X385500D03*
X389240Y264460D03*
X385300Y272330D03*
X397110Y264460D03*
X401050Y276270D03*
X408920Y272330D03*
X389240D03*
X404990Y280200D03*
X401050Y272330D03*
X404990D03*
X401050Y264460D03*
Y268390D03*
X412860Y280200D03*
X401050D03*
X389500Y302700D03*
X325200Y306800D03*
X397110Y276270D03*
X365620D03*
X361680Y264460D03*
X412860D03*
X420740D03*
X369550Y280200D03*
X373490D03*
X377430Y272330D03*
X373490D03*
Y264460D03*
X381370D03*
X377430D03*
X369550Y272330D03*
Y264460D03*
X361680Y280200D03*
Y276270D03*
Y272330D03*
X365620D03*
Y268390D03*
X361680D03*
X357740Y280200D03*
X416800D03*
X412860Y268390D03*
X408920Y280200D03*
Y264460D03*
X429200Y319500D03*
X404990Y264460D03*
X412860Y272330D03*
X416800Y268390D03*
Y272330D03*
Y264460D03*
X428610Y280200D03*
X424670Y272330D03*
X420740D03*
X424670Y280200D03*
X420740D03*
X428610Y272330D03*
Y276270D03*
X365620Y280200D03*
Y264460D03*
X416800Y276270D03*
X432550Y280200D03*
X377430Y276270D03*
X381370Y272330D03*
X412860Y276270D03*
X432550D03*
Y272330D03*
X436480Y236900D03*
X432550Y268390D03*
X335655Y257793D03*
X353810Y248710D03*
X335695Y265902D03*
X345930Y248710D03*
X436480Y221150D03*
X335636Y278135D03*
X357740Y268390D03*
X428610Y221150D03*
X432550Y213270D03*
X428610Y217210D03*
X349870Y248710D03*
X335695Y261833D03*
X335656Y273995D03*
X357740Y252640D03*
X436480Y217210D03*
Y213270D03*
X428610Y260520D03*
X345930D03*
X328550Y209684D03*
X436480Y264460D03*
X349870Y260520D03*
X357740Y217210D03*
X342000Y260520D03*
X357740Y264460D03*
X322500Y306700D03*
X390400Y300290D03*
X377430Y268390D03*
Y280200D03*
X324200Y319900D03*
X437200Y314200D03*
X329900Y313400D03*
X357740Y236900D03*
X342000Y240830D03*
X353810Y225090D03*
Y232960D03*
X342000Y221150D03*
X335532Y233472D03*
X342000Y225090D03*
X330300Y231300D03*
X353810Y217210D03*
X349870Y205400D03*
X336818Y214802D03*
X336737Y205187D03*
X357740Y205400D03*
X342000Y264460D03*
X345930D03*
X349870D03*
X353810D03*
X345930Y232960D03*
X349870Y236900D03*
X397110Y272330D03*
Y268390D03*
X408920D03*
X404990D03*
X349870Y280200D03*
X345930D03*
Y268390D03*
X420740Y276270D03*
X424670D03*
X436480Y280200D03*
X440420D03*
X349870Y276270D03*
X342000Y268390D03*
X385300Y276270D03*
X357740D03*
X389240D03*
X440420D03*
X436480D03*
X418500Y320100D03*
Y313800D03*
X418600Y307600D03*
X437200Y317000D03*
X428730Y315430D03*
X353810Y276270D03*
Y280200D03*
X363700Y320700D03*
Y314300D03*
X335100Y320600D03*
X363700Y311200D03*
X335300Y317500D03*
Y308100D03*
X353600Y315900D03*
X345408Y315992D03*
X373490Y268390D03*
X369550D03*
X422700Y210400D03*
X404990Y221150D03*
X377000Y257100D03*
X377430Y232960D03*
Y236900D03*
Y240830D03*
X404990Y236900D03*
Y229020D03*
X417300Y258600D03*
X361680Y205400D03*
Y260520D03*
X440420Y232960D03*
X342000Y217210D03*
X353810Y213270D03*
X345930D03*
Y209340D03*
X381370Y244770D03*
X404990D03*
X401050D03*
X424670D03*
X397110D03*
X393180D03*
X389240D03*
X385300D03*
X357740Y225090D03*
X361680D03*
X377430Y244770D03*
Y225090D03*
X361680Y244770D03*
X404990Y213270D03*
X401050D03*
X397110D03*
X381370D03*
X393180D03*
X389240D03*
X385300D03*
X377430Y217210D03*
Y221150D03*
Y213270D03*
X363100Y223100D03*
X345930Y205400D03*
X335559Y221174D03*
X335555Y225254D03*
X428610Y236900D03*
X432550Y217210D03*
Y221150D03*
X436480Y268390D03*
X440420D03*
X432550Y252640D03*
X428610Y225090D03*
X432550Y256580D03*
X353810Y252640D03*
Y256580D03*
X440420Y205400D03*
X337000Y209684D03*
X345930Y236900D03*
X341700Y333300D03*
X364200Y348200D03*
X415200Y371300D03*
X424900Y332800D03*
X417800Y350600D03*
X360500Y330200D03*
X353700Y334100D03*
X334300Y370700D03*
X440600Y329600D03*
X407567Y339767D03*
X437100Y333500D03*
X341600Y327000D03*
X362600Y370700D03*
X324700Y329000D03*
X334800Y351400D03*
X440700Y323300D03*
X407530Y322970D03*
X421700Y323300D03*
X360500Y323900D03*
X373900Y322700D03*
X353600Y322200D03*
X344900Y323800D03*
X388600Y351600D03*
X347400Y351000D03*
X324600Y351600D03*
X430500Y350500D03*
X351800Y342200D03*
X329000Y342800D03*
X434900Y341700D03*
X400200Y343400D03*
X326800Y349400D03*
X432700Y348300D03*
X349600Y348800D03*
X394800Y349300D03*
X329000Y356000D03*
X351800Y355400D03*
X434900Y354900D03*
X400200Y355500D03*
X381400Y329300D03*
X324600Y360600D03*
X347400Y359800D03*
X430500Y359300D03*
X388900Y359600D03*
X351800Y351000D03*
X329000Y351600D03*
X434900Y350500D03*
X400200Y351500D03*
X388800Y355600D03*
X347400Y355400D03*
X324600Y356000D03*
X430500Y354900D03*
X394950Y361550D03*
X349600Y362000D03*
X326800Y362600D03*
X432700Y361700D03*
Y365900D03*
X349600Y366400D03*
X326800Y367000D03*
X394900Y365800D03*
X326800Y353800D03*
X432700Y352700D03*
X349600Y353200D03*
X394900Y353400D03*
X329000Y347200D03*
X434900Y346100D03*
X351800Y346600D03*
X400200Y347500D03*
X394900Y357300D03*
X349600Y357600D03*
X326800Y358200D03*
X432700Y357100D03*
X329000Y364800D03*
X351800Y364200D03*
X400100Y363500D03*
X435100Y363700D03*
X324600Y364800D03*
X347400Y364200D03*
X430300Y363700D03*
X388900Y363500D03*
X434900Y359300D03*
X329000Y360200D03*
X351800Y359800D03*
X400100Y359600D03*
X432700Y335100D03*
X326800Y336200D03*
X394700Y337300D03*
X349600Y335600D03*
X434900Y337300D03*
X329000Y338400D03*
X351800Y337800D03*
X400300Y338200D03*
X349600Y340000D03*
X326800Y340600D03*
X432700Y339500D03*
X394800Y341600D03*
X417200Y330700D03*
X349600Y331200D03*
X326800Y331800D03*
X432700Y330700D03*
X394600Y333100D03*
X353441Y325441D03*
X436700Y322500D03*
X338500Y327000D03*
X360500D03*
X347800Y326300D03*
X357400Y330200D03*
X364400Y330000D03*
X332100Y328500D03*
X363900Y324200D03*
X334800Y323700D03*
X424900Y326400D03*
X434300Y328900D03*
X436800D03*
X416600Y325700D03*
X417400Y323000D03*
X341600Y323900D03*
X429500Y324400D03*
X432700Y343900D03*
X326800Y345000D03*
X349600Y344400D03*
X394700Y345500D03*
X430500Y337300D03*
X324600Y338400D03*
X347400Y337800D03*
X388500Y339500D03*
X434900Y332900D03*
X351500Y333200D03*
X329000Y334000D03*
X400200Y333800D03*
X324600Y334000D03*
X430500Y332900D03*
X388500Y335800D03*
X347400Y333400D03*
Y368600D03*
X388900Y367900D03*
X430500Y368100D03*
X324600Y369200D03*
X414400Y330900D03*
X324600Y342800D03*
X347400Y342200D03*
X430500Y341700D03*
X388500Y343800D03*
X324600Y347200D03*
X430500Y346100D03*
X347400Y346600D03*
X388500Y347600D03*
X401700Y367900D03*
X369000Y338600D03*
X361900Y337900D03*
X421800Y326500D03*
X393100Y370400D03*
X418400Y345600D03*
X418000Y334700D03*
X364200Y354500D03*
X341500Y370900D03*
X373900Y325900D03*
X428300Y326300D03*
X364500Y327100D03*
X324400Y326500D03*
X367600Y370700D03*
X357300Y327000D03*
X334900Y345200D03*
X334800Y334200D03*
X335000Y327000D03*
X364500Y332800D03*
X345500Y329600D03*
X436100Y324900D03*
X534540Y53417D03*
X530456Y53378D03*
X483461Y21861D03*
X483639Y33561D03*
X483539Y17961D03*
Y29661D03*
X442141Y5100D03*
Y900D03*
X452659Y5100D03*
Y900D03*
X472447Y60861D03*
Y25761D03*
Y37461D03*
Y49161D03*
X449900Y127200D03*
X543068Y170790D03*
X536450Y174790D03*
X531430Y182790D03*
X444360Y201460D03*
Y189650D03*
Y193590D03*
X474600Y198800D03*
X481700Y195200D03*
X481268Y180790D03*
X458199Y174179D03*
X481268Y177199D03*
X481268Y174790D03*
X482800Y172800D03*
X474100Y172400D03*
X484859Y159199D03*
X486859Y160903D03*
X446200Y130100D03*
X445100Y113800D03*
X444700Y88600D03*
X531400Y141600D03*
X554300Y167400D03*
X553700Y185000D03*
X442405Y161298D03*
X462568Y197294D03*
X462729Y201496D03*
X462568Y193093D03*
X462450Y183054D03*
X462700Y179300D03*
X462406Y189053D03*
X470686Y161226D03*
X533300Y194100D03*
X471047Y190463D03*
X500000Y146800D03*
X531430Y166752D03*
X506839Y141939D03*
X502718D03*
X462450Y176822D03*
X454560Y161250D03*
X450484Y161252D03*
X524859Y152581D03*
X496859Y159199D03*
X474500Y192300D03*
X481268Y190790D03*
X533300Y199500D03*
X534440Y176790D03*
X543600Y190800D03*
X500859Y159199D03*
X458564Y171770D03*
X454560Y171768D03*
X529726Y184790D03*
X500000Y149800D03*
X514919Y152458D03*
X469874Y116118D03*
Y91118D03*
X449926Y96180D03*
Y85993D03*
X450032Y101234D03*
X486475Y91002D03*
X450190Y106304D03*
X450250Y111294D03*
X450291Y121070D03*
X442405Y171816D03*
X446445D03*
X463964Y130559D03*
X452848Y146132D03*
X466616Y141410D03*
X442619Y144691D03*
X466703Y194986D03*
X491391Y150643D03*
X481048Y150805D03*
X485028Y175463D03*
X478882Y160681D03*
X451638Y150805D03*
X462048D03*
X485028Y180463D03*
X476967Y158977D03*
X512430Y166752D03*
X493047Y185463D03*
X474762Y160681D03*
X503526Y171261D03*
X512430Y185821D03*
X472847Y158977D03*
X493047Y190463D03*
X503526Y190261D03*
X512430Y189362D03*
X451932Y176822D03*
X474650Y182790D03*
X520859Y150877D03*
X531430Y188790D03*
X518859Y152581D03*
X446445Y161298D03*
X450484Y171770D03*
X545572Y143368D03*
X483095Y164790D03*
X545572Y146636D03*
X483500Y167300D03*
X481391Y162790D03*
X545572Y140100D03*
Y149904D03*
X481391Y168790D03*
X466646Y171744D03*
X471300Y180500D03*
X462606Y171744D03*
X463028Y185463D03*
X543600Y186800D03*
X444360Y181780D03*
Y185710D03*
X474650Y186790D03*
X474600Y194900D03*
X494859Y152581D03*
X522859Y159199D03*
X543068Y178790D03*
X538000Y149300D03*
X458564Y161252D03*
X553446Y146636D03*
Y149904D03*
X544700Y200900D03*
X471048Y175463D03*
X466646Y161226D03*
X462606D03*
X470686Y171744D03*
X451888Y189053D03*
X451932Y184902D03*
Y180863D03*
X452211Y201496D03*
X452050Y193093D03*
Y197294D03*
X534647Y149286D03*
X518200Y148700D03*
X557900Y166600D03*
X545500Y194800D03*
X492859Y172561D03*
X505300Y159700D03*
X545782Y171400D03*
X502859Y160903D03*
X540448Y159450D03*
X507683Y279691D03*
X498562Y284473D03*
X496053Y276714D03*
X507682Y289691D03*
X474650Y210790D03*
X481268Y208790D03*
X544165Y251445D03*
X474650Y206790D03*
X542462Y245540D03*
X481268Y204790D03*
X559084Y241722D03*
X444360Y205400D03*
X557260Y255447D03*
X540647Y257505D03*
X473231Y227823D03*
X544165D03*
X444360Y209340D03*
X551184Y229792D03*
X544165Y231760D03*
X542462Y233729D03*
X544165Y235697D03*
X542462Y237666D03*
X557270Y235851D03*
X535183Y245386D03*
X444360Y244770D03*
X555566Y241656D03*
X542351Y261288D03*
X529309Y238650D03*
X555550Y263256D03*
X542462Y265225D03*
X544165Y267193D03*
X542462Y269162D03*
X474650Y202790D03*
X544165Y271130D03*
X481900Y202000D03*
X542462Y273099D03*
X464509D03*
X487846Y297423D03*
X466212Y265225D03*
X477343Y233729D03*
X464509Y263256D03*
X450110Y237666D03*
X466212Y261288D03*
X474934Y241603D03*
X479046Y257505D03*
X474934Y245540D03*
X464509Y241603D03*
X461100Y250600D03*
X473231Y239634D03*
X476944Y255382D03*
X474934Y237666D03*
X477343Y259319D03*
X473231Y235697D03*
X474934Y263256D03*
X466212Y233397D03*
Y239634D03*
X444360Y260520D03*
X466212Y243571D03*
X473231Y247508D03*
X475240Y253414D03*
X473231Y257351D03*
Y261288D03*
Y265225D03*
X523726Y274900D03*
X543726Y287918D03*
X542462Y241603D03*
X544165Y243571D03*
X466212Y257477D03*
X554100Y207500D03*
X460960Y277200D03*
X527700Y288500D03*
X496064Y297341D03*
X487846Y286904D03*
X489382Y284554D03*
X559557Y245000D03*
X455165Y230312D03*
X455766Y248534D03*
Y252736D03*
X555556Y260096D03*
X475200Y269700D03*
X473231Y231842D03*
X463098Y213778D03*
Y217818D03*
X463214Y226060D03*
X463093Y221898D03*
X507900Y309300D03*
X555556Y247591D03*
X525827Y309878D03*
X486200Y317000D03*
Y310700D03*
X507900Y315981D03*
X482600Y319800D03*
X484500Y306800D03*
X464832Y235806D03*
X444360Y272330D03*
X467300Y317000D03*
X443900D03*
X474300Y321700D03*
X471987Y306987D03*
X467300Y313900D03*
X499600Y214300D03*
X527300Y214200D03*
X514858Y202234D03*
X488768Y202434D03*
X477664Y284691D03*
X485682Y279691D03*
X544165Y263102D03*
X557639Y265189D03*
X451400Y307790D03*
X525486Y202134D03*
X504859Y214381D03*
X508859D03*
X451814Y235806D03*
X560755Y239842D03*
X555566Y237666D03*
X450436Y269032D03*
X450434Y264976D03*
X450393Y256925D03*
X444360Y248710D03*
X450393Y260925D03*
X452580Y213778D03*
X444360Y213270D03*
X452696Y226060D03*
X500742Y202242D03*
X450434Y273045D03*
X444360Y268390D03*
X452580Y217818D03*
X444360Y217210D03*
X462936Y205587D03*
X452418D03*
X452575Y221898D03*
X513726Y287918D03*
X533726D03*
X452579Y209738D03*
X463097D03*
X460954Y269032D03*
X460911Y260925D03*
X543600Y257000D03*
X544165Y247508D03*
X540758Y239634D03*
X539859Y247508D03*
X460952Y264976D03*
X460912Y256925D03*
X466212Y271130D03*
X474934Y267193D03*
X538833Y259319D03*
X542462Y249477D03*
X453120Y310510D03*
X456700Y315500D03*
X481700Y312300D03*
X444360Y276270D03*
X497441Y309300D03*
X492600Y320200D03*
X492700Y313900D03*
X492600Y307400D03*
X482341Y315459D03*
X497165Y315981D03*
X464100Y320200D03*
X464000Y313800D03*
X464100Y307600D03*
X443800Y320100D03*
Y313800D03*
X443900Y310700D03*
X474241Y315459D03*
X550784Y275446D03*
X473231Y251445D03*
X519700Y224200D03*
X472768Y224734D03*
X501300Y221500D03*
X444360Y236900D03*
X524859Y214381D03*
X496859D03*
X533467Y298868D03*
X513590Y299030D03*
X475240Y229792D03*
X555556Y253414D03*
X460700Y246100D03*
X460952Y273045D03*
X463525Y257736D03*
Y246024D03*
X465684Y230312D03*
X555556Y250000D03*
X555556Y257456D03*
X553041Y272948D03*
X553057Y232082D03*
X545000Y218800D03*
X519195Y281701D03*
X499664Y294691D03*
X542700Y307700D03*
X514192Y309878D03*
X545200Y213100D03*
X486100Y332800D03*
X507483Y328603D03*
X507900Y339500D03*
X468500Y370900D03*
X507900Y334763D03*
Y322140D03*
X493155Y346955D03*
X467200Y329600D03*
X450100Y329700D03*
X442400Y371000D03*
X474200Y328800D03*
X467300Y348500D03*
X447500Y345200D03*
X486100Y323300D03*
X467300D03*
X453400Y351100D03*
X475900Y350500D03*
X457800Y342300D03*
X480300Y341700D03*
X478100Y348300D03*
X455600Y348900D03*
X480300Y354900D03*
X457800Y355500D03*
X453400Y359900D03*
X475900Y359500D03*
X480300Y350500D03*
X457800Y351100D03*
X453400Y355500D03*
X475900Y354900D03*
X455600Y362100D03*
X478100Y361500D03*
X455600Y366500D03*
X478100Y365900D03*
Y352700D03*
X455600Y353300D03*
X480300Y346100D03*
X457800Y346700D03*
X455600Y357700D03*
X478100Y357100D03*
X480300Y363700D03*
X457800Y364300D03*
X475900Y363700D03*
X453400Y364300D03*
X457800Y359700D03*
X480300Y359300D03*
X455600Y335700D03*
X478100Y335100D03*
X457800Y337900D03*
X480300Y337300D03*
X455600Y340100D03*
X478100Y339500D03*
X455600Y331300D03*
X478100Y330700D03*
X482108Y324908D03*
X443800Y326500D03*
X447500Y329500D03*
X448000Y324900D03*
X467200Y326500D03*
X489300Y329600D03*
X470400Y329700D03*
X482400Y330400D03*
X493100Y331200D03*
X463600Y329500D03*
X493200Y323900D03*
X463800Y323200D03*
X474500Y324100D03*
X455600Y344500D03*
X478100Y343900D03*
X453400Y337900D03*
X475900Y337300D03*
X480300Y332900D03*
X458200Y333600D03*
X475900Y332900D03*
X453400Y333500D03*
X475900Y368100D03*
X453400Y368700D03*
X513726Y323874D03*
X536900Y324300D03*
X475900Y341700D03*
X453400Y342300D03*
X475900Y346100D03*
X453400Y346700D03*
X447900Y341200D03*
X500700Y342100D03*
X444300Y336400D03*
X490800Y337400D03*
X447200Y335600D03*
X492400Y326500D03*
X463500Y371000D03*
X497165Y328603D03*
X496965Y334763D03*
X493157Y334357D03*
X493354Y353254D03*
X497165Y322140D03*
X482400Y328000D03*
X464100Y326500D03*
X443900Y329600D03*
X447400Y371000D03*
X473700Y326400D03*
X447100Y355000D03*
X463700Y345800D03*
X463400Y334300D03*
X525827Y324622D03*
X578491Y193300D03*
X562900Y186900D03*
G54D21*
X560000Y75000D03*
Y120000D03*
G54D31*
G01X0Y374016D02*
X590551D01*
Y-137795D01*
X535433D01*
Y-49100D01*
X354324D01*
Y0D01*
X0D01*
Y374016D01*
G54D22*
X535020Y80000D03*
X500492Y115000D03*
G54D13*
X180933Y132765D03*
G54D23*
X524000Y66600D03*
X499100Y64000D03*
X537000Y128400D03*
X515100Y131000D03*
X578000Y64000D03*
Y131000D03*
G54D14*
X135739Y117673D03*
X127865Y196413D03*
X135739D03*
X127865Y188539D03*
X135739D03*
X127865Y180665D03*
X135739D03*
X127865Y172791D03*
X135739D03*
X127865Y164917D03*
X135739D03*
X127865Y157043D03*
X135739D03*
X127865Y149169D03*
X135739D03*
X127865Y141295D03*
X135739D03*
X127865Y133421D03*
X135739D03*
X127865Y125547D03*
X135739D03*
X127865Y117673D03*
Y227909D03*
X135739D03*
X127865Y220035D03*
X135739D03*
X127865Y212161D03*
X135739D03*
X127865Y204287D03*
X135739D03*
G54D24*
X510492Y80000D03*
X536750Y18170D03*
X517060Y31830D03*
X556440D03*
X535020Y90000D03*
Y100000D03*
Y110000D03*
X525020Y85000D03*
Y95000D03*
Y105000D03*
Y115000D03*
X500492Y105000D03*
Y95000D03*
Y85000D03*
X510492Y110000D03*
Y100000D03*
Y90000D03*
G54D15*
X224155Y65002D03*
X219155D03*
X224155Y70002D03*
X219155D03*
X224155Y75002D03*
X219155D03*
X224155Y80002D03*
X219155D03*
X255448Y15323D03*
Y10323D03*
X250448Y15323D03*
Y10323D03*
X245448Y15323D03*
Y10323D03*
X240448Y15323D03*
Y10323D03*
X235448Y15323D03*
Y10323D03*
X230448Y15323D03*
Y10323D03*
X225448Y15323D03*
Y10323D03*
X220448Y15323D03*
X257572Y97229D03*
X262572D03*
X224155Y85002D03*
X219155D03*
X224155Y90002D03*
X219155D03*
X224155Y95002D03*
X306535Y284191D03*
Y279191D03*
Y274191D03*
X470107Y139568D03*
Y134568D03*
X559621Y152174D03*
X467600Y294600D03*
Y289600D03*
X562282Y302289D03*
X564621Y147174D03*
Y152174D03*
X569621Y147174D03*
Y152174D03*
X574621Y147174D03*
Y152174D03*
X579621Y147174D03*
Y152174D03*
X572282Y302289D03*
X567282D03*
G54D16*
X220448Y10323D03*
X252572Y97229D03*
X219155Y95002D03*
X306535Y269191D03*
X559621Y147174D03*
X467600Y284600D03*
X577282Y302289D03*
G54D25*
X567284Y352337D03*
G54D17*
X307810Y178476D03*
X287810D03*
X283707Y287610D03*
Y267610D03*
X359683Y99114D03*
X339683D03*
X562429Y47837D03*
X542429D03*
X480282Y-1334D03*
X460282D03*
X564810Y202437D03*
X575610Y240237D03*
Y229437D03*
Y218637D03*
Y207837D03*
X564810Y245637D03*
Y234837D03*
Y224037D03*
Y213237D03*
G54D26*
X554284Y334837D03*
X580284D03*
G54D27*
G01X193976Y177000D02*
X191244Y179732D01*
Y227500D01*
X185744Y233000D01*
X183430D01*
G01X198428Y177000D02*
X197544Y177883D01*
Y224200D01*
X195044Y226700D01*
X192880D01*
G01X178000Y244837D02*
X181022Y241815D01*
Y198596D01*
X182772Y196846D01*
X188094D01*
X189730Y195210D01*
G01X186580D02*
X184866D01*
X184171Y195904D01*
X178000D01*
G01Y255456D02*
X181309D01*
X181716Y255050D01*
X183430D01*
G01Y248750D02*
X183450D01*
X185086Y247114D01*
X225854D01*
X226553Y246416D01*
X227084D01*
X232564Y240936D01*
X256520D01*
X257384Y241800D01*
Y246333D01*
X256603Y247114D01*
X236334D01*
X235334Y248114D01*
Y265563D01*
X235995Y266224D01*
Y267478D01*
X234741Y268732D01*
Y271000D01*
G01X202330Y258200D02*
X200694Y259836D01*
X198700D01*
X198579Y259714D01*
X198553D01*
X197666Y258827D01*
Y257666D01*
X196686Y256686D01*
X195403D01*
X194516Y257573D01*
Y259020D01*
X193700Y259836D01*
X192100D01*
Y259562D01*
X191366Y258827D01*
Y257666D01*
X190386Y256686D01*
X189103D01*
X188216Y257573D01*
Y259420D01*
X187800Y259836D01*
X186400D01*
X186279Y259714D01*
X185953D01*
X184944Y258706D01*
Y257573D01*
X184057Y256686D01*
X179714D01*
X178000Y258400D01*
G01X199180Y255050D02*
X197544Y253414D01*
X178000D01*
G01X192880Y261350D02*
Y261380D01*
X194486Y262986D01*
X209257D01*
X210144Y263873D01*
Y265456D01*
X209500Y266100D01*
X192338D01*
X191366Y265127D01*
Y263866D01*
X190400Y262900D01*
X182100D01*
X180200Y264800D01*
Y265800D01*
X181100Y266700D01*
X191400D01*
X191900Y267200D01*
X201900D01*
X202500Y267800D01*
Y268400D01*
X202100Y268800D01*
X201400D01*
X201000Y268400D01*
X180600D01*
X180200Y268800D01*
Y269600D01*
X180550Y269950D01*
X182868D01*
X182888Y269930D01*
X185254D01*
X185824Y270500D01*
G01X255870Y242450D02*
X254234Y244086D01*
X231214D01*
X228064Y247236D01*
X226893D01*
X226006Y248123D01*
Y249293D01*
X221884Y253414D01*
X217402D01*
X213652Y257164D01*
Y265004D01*
X212152Y266504D01*
X210710D01*
X208710Y268504D01*
Y271000D01*
G01X357740Y236900D02*
X356026D01*
X354511Y235386D01*
X339000D01*
G01X342000Y264460D02*
X340286D01*
X339591Y263766D01*
X339000D01*
G01Y242200D02*
X342000Y245200D01*
Y248710D01*
G01X267134Y179408D02*
Y184198D01*
G01X208916Y177000D02*
X215324Y183408D01*
Y192464D01*
X218070Y195210D01*
G01X243270Y188910D02*
X244169Y188011D01*
X244495D01*
X244784Y187721D01*
Y184414D01*
X245074Y184124D01*
X250916D01*
X251206Y183834D01*
Y181386D01*
X250916Y181096D01*
X248926D01*
X248636Y180806D01*
Y180156D01*
X248926Y179866D01*
X253694D01*
X254389Y179170D01*
Y178520D01*
X254099Y178230D01*
X254029Y178300D01*
X248900D01*
X248442Y177842D01*
Y177000D01*
G01X240120Y185760D02*
X238606Y184246D01*
X226295D01*
X226006Y183956D01*
Y177000D01*
G01X240120Y188910D02*
X241019Y188011D01*
X241345D01*
X241634Y187721D01*
Y178881D01*
X242700Y177816D01*
X246407D01*
X247222Y177000D01*
G01X255875D02*
Y178434D01*
X256115Y178674D01*
X257160D01*
X257400Y178914D01*
Y179254D01*
X257160Y179494D01*
X256115D01*
X255875Y179734D01*
Y180074D01*
X256115Y180314D01*
X257160D01*
X257400Y180555D01*
Y180894D01*
X257160Y181134D01*
X256115D01*
X255875Y181374D01*
Y181714D01*
X256115Y181954D01*
X257160D01*
X257400Y182194D01*
Y182534D01*
X257160Y182774D01*
X256115D01*
X255875Y183014D01*
Y183834D01*
X255585Y184124D01*
X254524D01*
X254234Y184414D01*
Y186387D01*
X253740Y186882D01*
Y190135D01*
X253450Y190424D01*
X252800D01*
X252510Y190135D01*
Y188254D01*
X252220Y187964D01*
X249269D01*
X248980Y188254D01*
Y188904D01*
X249269Y189194D01*
X250990D01*
X251280Y189484D01*
Y190134D01*
X250990Y190424D01*
X238159D01*
X237869Y190134D01*
Y189809D01*
X236970Y188910D01*
G01X202330Y182610D02*
Y177000D01*
G01X233820Y185760D02*
X232921Y186659D01*
Y186984D01*
X232631Y187274D01*
X217429D01*
X216144Y185990D01*
Y177000D01*
G01X228451D02*
Y178814D01*
G01X205480Y192060D02*
X206379Y192959D01*
Y193285D01*
X206669Y193574D01*
X214215D01*
X214504Y193864D01*
Y196434D01*
X214794Y196724D01*
X266544D01*
X266834Y196434D01*
Y190368D01*
X267124Y190078D01*
X271000D01*
G01X263684Y177000D02*
Y178155D01*
X263444Y178395D01*
X259940D01*
X259700Y178636D01*
Y178975D01*
X259940Y179215D01*
X263444D01*
X263684Y179456D01*
Y179795D01*
X263444Y180035D01*
X259940D01*
X259700Y180276D01*
Y180615D01*
X259940Y180855D01*
X263444D01*
X263684Y181096D01*
Y188108D01*
X263925Y188348D01*
X265360D01*
X265600Y188588D01*
Y188928D01*
X265360Y189168D01*
X263925D01*
X263684Y189408D01*
Y189748D01*
X263925Y189988D01*
X265360D01*
X265600Y190229D01*
Y190568D01*
X265360Y190808D01*
X263925D01*
X263684Y191048D01*
Y191388D01*
X263925Y191628D01*
X265360D01*
X265600Y191868D01*
Y192208D01*
X265360Y192448D01*
X263925D01*
X262798Y193574D01*
X226852D01*
X225884Y192606D01*
Y190424D01*
X224370Y188910D01*
G01X249570Y258200D02*
Y258170D01*
X247964Y256564D01*
X245793D01*
X244784Y255556D01*
Y251273D01*
X243897Y250386D01*
X239493D01*
X238606Y251273D01*
Y252706D01*
X239436Y253536D01*
X240747D01*
X241756Y254544D01*
Y255677D01*
X242764Y256686D01*
X243897D01*
X244784Y257573D01*
Y258930D01*
X244000Y259714D01*
X242764D01*
X241756Y260723D01*
Y261977D01*
X242643Y262864D01*
X243964D01*
X244800Y263700D01*
Y265700D01*
X243800Y266700D01*
X242707D01*
X242007Y267400D01*
Y268699D01*
X240626Y270080D01*
Y271000D01*
G01X307900Y323600D02*
X304641Y320341D01*
Y319521D01*
X304161Y319041D01*
X303480D01*
X303000Y318561D01*
Y317881D01*
X303480Y317401D01*
X304161D01*
X304641Y316921D01*
Y316241D01*
X304161Y315761D01*
X303480D01*
X303000Y315281D01*
Y314601D01*
X303480Y314121D01*
X304161D01*
X304641Y313641D01*
Y312961D01*
X304161Y312481D01*
X303480D01*
X303000Y312001D01*
Y311321D01*
X303480Y310841D01*
X304161D01*
X304641Y310361D01*
Y302059D01*
X316600Y290100D01*
X332900D01*
X343800Y279200D01*
Y268100D01*
X345200Y266700D01*
X359600D01*
X361680Y264620D01*
Y264460D01*
G01X305900Y326900D02*
X307686Y325114D01*
X308527D01*
X310500Y323142D01*
Y309800D01*
X311080Y309220D01*
Y308541D01*
X310009Y307470D01*
Y306791D01*
X310490Y306310D01*
X311169D01*
X312240Y307381D01*
X312919D01*
X313400Y306900D01*
Y306221D01*
X312329Y305150D01*
Y304471D01*
X312809Y303991D01*
X313488D01*
X314559Y305062D01*
X315238D01*
X315719Y304581D01*
Y303902D01*
X314648Y302831D01*
Y302152D01*
X315129Y301671D01*
X315808D01*
X316879Y302742D01*
X317558D01*
X318038Y302262D01*
Y301582D01*
X316968Y300512D01*
Y299832D01*
X317448Y299352D01*
X318127D01*
X319198Y300423D01*
X319877D01*
X326000Y294300D01*
X335400D01*
X347800Y281900D01*
Y275300D01*
X348800Y274300D01*
X359700D01*
X361670Y272330D01*
X361680D01*
G01X318700Y323500D02*
Y317700D01*
X338200Y298200D01*
X343200D01*
X343780Y297620D01*
Y296941D01*
X342209Y295370D01*
Y294691D01*
X342690Y294210D01*
X343369D01*
X344940Y295781D01*
X345619D01*
X346100Y295300D01*
Y294621D01*
X344529Y293050D01*
Y292371D01*
X345009Y291891D01*
X345688D01*
X347259Y293462D01*
X347938D01*
X348419Y292981D01*
Y292302D01*
X346848Y290731D01*
Y290052D01*
X347329Y289571D01*
X348008D01*
X349579Y291142D01*
X350258D01*
X350738Y290662D01*
Y289982D01*
X349168Y288412D01*
Y287732D01*
X349648Y287252D01*
X350327D01*
X351898Y288823D01*
X352577D01*
X353058Y288342D01*
Y287663D01*
X351487Y286092D01*
Y285413D01*
X351967Y284933D01*
X352647D01*
X354217Y286503D01*
X354897D01*
X355377Y286023D01*
Y285344D01*
X353806Y283773D01*
Y283094D01*
X354287Y282613D01*
X354966D01*
X356537Y284184D01*
X357216D01*
X359600Y281800D01*
Y279900D01*
X361200Y278300D01*
X362500D01*
X363200Y277600D01*
Y269900D01*
X361690Y268390D01*
X361680D01*
G01X218070Y255050D02*
X217110Y256010D01*
Y256090D01*
X214800Y258400D01*
Y271000D01*
G01X240493Y267875D02*
X238606Y265988D01*
Y257573D01*
X239493Y256686D01*
X239798D01*
Y255372D01*
X240120Y255050D01*
G01X259020Y261350D02*
X260534Y262864D01*
X266064D01*
X267400Y264200D01*
Y265100D01*
X266300Y266200D01*
X259800D01*
X258378Y267622D01*
Y267857D01*
X257491Y268744D01*
X255075D01*
X253314Y270505D01*
X251305D01*
X249900Y269100D01*
X248200D01*
X246700Y270600D01*
Y271000D01*
G01X271000Y256686D02*
X255234D01*
X254234Y257686D01*
Y258827D01*
X253226Y259836D01*
X251084D01*
X249570Y261350D01*
G01X246420Y255050D02*
X247934Y253536D01*
X271000D01*
G01X246420Y264500D02*
X248056Y262864D01*
X256603D01*
X257384Y262083D01*
Y260836D01*
X258384Y259836D01*
X269814D01*
X270814Y260836D01*
Y271000D01*
G01X270600Y227100D02*
X266336Y231364D01*
X263806D01*
X262170Y233000D01*
G01X315300Y326800D02*
X320500D01*
X322500Y324800D01*
Y318700D01*
X328386Y312814D01*
Y312773D01*
X329273Y311886D01*
X329314D01*
X336900Y304300D01*
X344500D01*
X345080Y303720D01*
Y303041D01*
X343509Y301470D01*
Y300791D01*
X343990Y300310D01*
X344669D01*
X346240Y301881D01*
X346919D01*
X347400Y301400D01*
Y300721D01*
X345829Y299150D01*
Y298471D01*
X346309Y297991D01*
X346988D01*
X348559Y299562D01*
X349238D01*
X349719Y299081D01*
Y298402D01*
X348148Y296831D01*
Y296152D01*
X348629Y295671D01*
X349308D01*
X350879Y297242D01*
X351558D01*
X352038Y296762D01*
Y296082D01*
X350468Y294512D01*
Y293832D01*
X350948Y293352D01*
X351627D01*
X353198Y294923D01*
X353877D01*
X354358Y294442D01*
Y293763D01*
X352787Y292192D01*
Y291513D01*
X353268Y291032D01*
X353947D01*
X355518Y292603D01*
X356197D01*
X356677Y292123D01*
Y291444D01*
X355106Y289873D01*
Y289194D01*
X355587Y288713D01*
X356266D01*
X357837Y290284D01*
X358516D01*
X358997Y289803D01*
Y289124D01*
X357426Y287553D01*
Y286874D01*
X357906Y286394D01*
X358586D01*
X360156Y287964D01*
X360836D01*
X361680Y287120D01*
Y280200D01*
G01X318900Y329700D02*
X320800D01*
X322886Y327614D01*
Y325873D01*
X323773Y324986D01*
X325514D01*
X327783Y322717D01*
Y322038D01*
X326262Y320517D01*
Y319838D01*
X326743Y319357D01*
X327422D01*
X328943Y320878D01*
X329622D01*
X330103Y320397D01*
Y319718D01*
X328582Y318197D01*
Y317518D01*
X329062Y317038D01*
X329742D01*
X331262Y318558D01*
X331942D01*
X332422Y318078D01*
Y317399D01*
X330901Y315878D01*
Y315199D01*
X331382Y314718D01*
X332061D01*
X333582Y316239D01*
X334261D01*
X334742Y315758D01*
Y315079D01*
X333221Y313558D01*
Y312879D01*
X333701Y312399D01*
X334380D01*
X335901Y313920D01*
X336580D01*
X337061Y313439D01*
Y312760D01*
X335540Y311239D01*
Y310560D01*
X336021Y310079D01*
X336700D01*
X338221Y311600D01*
X338900D01*
X339666Y310834D01*
Y310155D01*
X338845Y309334D01*
Y308655D01*
X339325Y308175D01*
X340004D01*
X340825Y308996D01*
X341504D01*
X343000Y307500D01*
X346000D01*
X364020Y289480D01*
Y274380D01*
X365620Y272780D01*
Y272330D01*
G01X344334Y175134D02*
Y191256D01*
X342000Y193590D01*
G01Y189650D02*
Y187936D01*
X343514Y186421D01*
Y177814D01*
X340700Y175000D01*
X340668D01*
G01X357740Y197530D02*
X355406Y199864D01*
X353134D01*
X351384Y201614D01*
Y211224D01*
X343884Y218724D01*
X341373D01*
X339858Y217210D01*
X339000D01*
G01X353810Y197530D02*
X351416Y195136D01*
Y175000D01*
G01X421384D02*
X424184D01*
X426184Y177000D01*
Y225724D01*
X401684Y250224D01*
X349870D01*
G01X407406Y175000D02*
Y190874D01*
X407696Y191164D01*
X414374D01*
X416800Y193590D01*
G01X415286Y175000D02*
Y183706D01*
X415576Y183996D01*
X416800D01*
Y185710D01*
G01X412860D02*
X410434Y183284D01*
Y175000D01*
G01X386814D02*
Y191164D01*
X389240Y193590D01*
G01X382884Y175000D02*
Y191174D01*
X385300Y193590D01*
G01X365620Y181780D02*
X363484D01*
X363194Y181490D01*
Y180556D01*
X362904Y180266D01*
X359544D01*
X359254Y179976D01*
Y175000D01*
X355581D01*
G01X401050Y189650D02*
Y187936D01*
X402274D01*
X402564Y187646D01*
Y175000D01*
G01X401050Y185710D02*
X398624Y183284D01*
Y177000D01*
X396624Y175000D01*
X388216D01*
G01X381370Y193590D02*
X378944Y191164D01*
Y181104D01*
X377194Y179354D01*
X364778D01*
X363778Y178354D01*
Y175000D01*
G01X353810Y177840D02*
X355524Y179554D01*
Y193542D01*
X357087Y195104D01*
X417533D01*
X418314Y194323D01*
Y176466D01*
X416848Y175000D01*
G01X339000Y189500D02*
X340014D01*
Y197794D01*
X341264Y199044D01*
X347454D01*
X349870Y201460D01*
G01Y197530D02*
X347788Y195448D01*
Y175000D01*
G01X400200Y343400D02*
X400000Y343600D01*
X394000D01*
X392300Y341900D01*
Y340700D01*
X389586Y337986D01*
X387286D01*
X385900Y336600D01*
Y334500D01*
X388400Y332000D01*
Y330742D01*
X387920Y330262D01*
X387480D01*
X387000Y329782D01*
Y329102D01*
X387480Y328622D01*
X387920D01*
X388400Y328142D01*
Y327462D01*
X387920Y326982D01*
X387480D01*
X387000Y326502D01*
Y325822D01*
X387480Y325342D01*
X387920D01*
X388400Y324862D01*
Y324182D01*
X387920Y323702D01*
X387480D01*
X387000Y323222D01*
Y322542D01*
X387480Y322062D01*
X387920D01*
X388400Y321582D01*
Y320902D01*
X387920Y320422D01*
X387480D01*
X387000Y319942D01*
Y319262D01*
X387480Y318782D01*
X387920D01*
X388400Y318302D01*
Y317622D01*
X387920Y317142D01*
X387480D01*
X387000Y316662D01*
Y315982D01*
X387480Y315502D01*
X387920D01*
X388400Y315022D01*
Y314342D01*
X387920Y313862D01*
X387480D01*
X387000Y313382D01*
Y312702D01*
X387480Y312222D01*
X387920D01*
X388400Y311742D01*
Y311062D01*
X387920Y310582D01*
X387480D01*
X387000Y310102D01*
Y309422D01*
X387480Y308942D01*
X387920D01*
X388400Y308462D01*
Y306842D01*
X387986Y306427D01*
Y302073D01*
X388886Y301173D01*
Y299663D01*
X390500Y298048D01*
Y297228D01*
X390020Y296748D01*
X387380D01*
X386900Y296268D01*
Y295588D01*
X387380Y295108D01*
X390020D01*
X390500Y294628D01*
Y293948D01*
X390020Y293468D01*
X387380D01*
X386900Y292988D01*
Y292308D01*
X387380Y291828D01*
X390020D01*
X390500Y291348D01*
Y290668D01*
X390020Y290188D01*
X387380D01*
X386900Y289708D01*
Y289028D01*
X387380Y288548D01*
X390020D01*
X390500Y288068D01*
Y287248D01*
X390020Y286767D01*
X387380D01*
X386900Y286287D01*
Y285608D01*
X387380Y285127D01*
X390020D01*
X390500Y284647D01*
Y283827D01*
X390140Y283467D01*
X389560D01*
X389200Y283106D01*
Y282597D01*
X389560Y282237D01*
X390140D01*
X390500Y281876D01*
Y280692D01*
X389570Y279762D01*
X389060D01*
X388566Y280256D01*
X388057D01*
X387696Y279896D01*
Y279387D01*
X388190Y278892D01*
Y278383D01*
X387208Y277400D01*
Y275308D01*
X385900Y274000D01*
X384300D01*
X383400Y273100D01*
Y272000D01*
X381370Y269970D01*
Y268390D01*
G01X394800Y349300D02*
X393900D01*
X392220Y347620D01*
Y343320D01*
X390180Y341280D01*
X385540D01*
X384340Y340080D01*
Y339570D01*
X384720Y339190D01*
Y338680D01*
X384360Y338320D01*
X383850D01*
X383470Y338701D01*
X382960D01*
X382325Y338066D01*
Y336836D01*
X382966Y336195D01*
Y335606D01*
X382325Y334965D01*
Y334376D01*
X382966Y333735D01*
Y333146D01*
X382325Y332505D01*
Y331916D01*
X382966Y331275D01*
Y327786D01*
X382605Y327425D01*
X381560D01*
X381200Y327065D01*
Y326556D01*
X381560Y326195D01*
X382605D01*
X382966Y325835D01*
Y325326D01*
X382605Y324965D01*
X381560D01*
X381200Y324605D01*
Y324096D01*
X381560Y323735D01*
X382605D01*
X382966Y323375D01*
Y322866D01*
X382605Y322505D01*
X381560D01*
X381200Y322145D01*
Y321636D01*
X381560Y321275D01*
X382605D01*
X382966Y320915D01*
Y320406D01*
X382605Y320045D01*
X381560D01*
X381200Y319685D01*
Y319176D01*
X381560Y318815D01*
X382605D01*
X382966Y318455D01*
Y317946D01*
X382605Y317585D01*
X381560D01*
X381200Y317225D01*
Y316716D01*
X381560Y316355D01*
X382605D01*
X382966Y315995D01*
Y315486D01*
X382605Y315125D01*
X381560D01*
X381200Y314765D01*
Y314256D01*
X381560Y313895D01*
X382605D01*
X382966Y313535D01*
Y313026D01*
X382605Y312665D01*
X381560D01*
X381200Y312305D01*
Y311796D01*
X381560Y311435D01*
X382605D01*
X382966Y311075D01*
Y310566D01*
X382605Y310205D01*
X381560D01*
X381200Y309845D01*
Y309336D01*
X381560Y308975D01*
X382605D01*
X382966Y308615D01*
Y308106D01*
X382605Y307745D01*
X381560D01*
X381200Y307385D01*
Y306876D01*
X381560Y306515D01*
X382605D01*
X382966Y306155D01*
Y305646D01*
X382605Y305285D01*
X381560D01*
X381200Y304925D01*
Y304416D01*
X381560Y304055D01*
X382605D01*
X382966Y303695D01*
Y303186D01*
X382605Y302825D01*
X381560D01*
X381200Y302465D01*
Y301956D01*
X381560Y301595D01*
X382605D01*
X382966Y301235D01*
Y300726D01*
X382605Y300365D01*
X381560D01*
X381200Y300005D01*
Y299496D01*
X381560Y299135D01*
X382605D01*
X382966Y298775D01*
Y298266D01*
X382605Y297905D01*
X381560D01*
X381200Y297545D01*
Y297036D01*
X381560Y296675D01*
X382605D01*
X382966Y296315D01*
Y295806D01*
X382605Y295445D01*
X381560D01*
X381200Y295085D01*
Y294576D01*
X381560Y294215D01*
X382605D01*
X382966Y293855D01*
Y293346D01*
X382605Y292985D01*
X381560D01*
X381200Y292625D01*
Y292116D01*
X381560Y291755D01*
X382605D01*
X382966Y291395D01*
Y290886D01*
X382605Y290525D01*
X381560D01*
X381200Y290165D01*
Y289656D01*
X381560Y289295D01*
X382605D01*
X382966Y288935D01*
Y288426D01*
X382605Y288065D01*
X381560D01*
X381200Y287705D01*
Y287196D01*
X381560Y286835D01*
X382605D01*
X382966Y286475D01*
Y285966D01*
X382605Y285605D01*
X381560D01*
X381200Y285245D01*
Y284736D01*
X381560Y284375D01*
X382605D01*
X382966Y284015D01*
Y280193D01*
X382884Y280112D01*
Y278484D01*
X381370Y276970D01*
Y276270D01*
G01X400200Y351500D02*
X400300D01*
X402200Y349600D01*
Y346660D01*
X403720Y345140D01*
Y342960D01*
X401540Y340780D01*
X397440D01*
X396214Y339555D01*
Y332314D01*
X393400Y329500D01*
Y326822D01*
X393880Y326342D01*
X394820D01*
X395300Y325861D01*
Y325182D01*
X394820Y324702D01*
X393880D01*
X393400Y324221D01*
Y323542D01*
X393880Y323062D01*
X394820D01*
X395300Y322581D01*
Y321902D01*
X394820Y321422D01*
X393880D01*
X393400Y320941D01*
Y320262D01*
X393880Y319782D01*
X394820D01*
X395300Y319301D01*
Y318622D01*
X394820Y318142D01*
X393880D01*
X393400Y317661D01*
Y316982D01*
X393880Y316502D01*
X394820D01*
X395300Y316021D01*
Y315342D01*
X394820Y314862D01*
X393880D01*
X393400Y314381D01*
Y313702D01*
X393880Y313222D01*
X394820D01*
X395300Y312741D01*
Y312062D01*
X394820Y311582D01*
X393880D01*
X393400Y311101D01*
Y310422D01*
X393880Y309942D01*
X394820D01*
X395300Y309461D01*
Y308782D01*
X394820Y308302D01*
X393880D01*
X393400Y307821D01*
Y307142D01*
X393880Y306662D01*
X394820D01*
X395300Y306181D01*
Y305502D01*
X394820Y305022D01*
X393880D01*
X393400Y304541D01*
Y303862D01*
X393880Y303382D01*
X394820D01*
X395300Y302901D01*
Y302222D01*
X394820Y301742D01*
X393880D01*
X393400Y301261D01*
Y300582D01*
X393880Y300102D01*
X394820D01*
X395300Y299621D01*
Y298942D01*
X394820Y298462D01*
X393880D01*
X393400Y297981D01*
Y297302D01*
X393880Y296822D01*
X394820D01*
X395300Y296341D01*
Y295662D01*
X394820Y295182D01*
X393880D01*
X393400Y294701D01*
Y294022D01*
X393880Y293542D01*
X394820D01*
X395300Y293061D01*
Y292382D01*
X394820Y291902D01*
X393880D01*
X393400Y291421D01*
Y290742D01*
X393880Y290262D01*
X394820D01*
X395300Y289781D01*
Y289102D01*
X394820Y288622D01*
X393880D01*
X393400Y288141D01*
Y285570D01*
X393880Y285090D01*
X394020D01*
X394500Y284610D01*
Y283930D01*
X394020Y283450D01*
X393880D01*
X393400Y282970D01*
Y282290D01*
X393880Y281810D01*
X394020D01*
X394500Y281330D01*
Y280650D01*
X394020Y280170D01*
X393880D01*
X393400Y279690D01*
Y277346D01*
X394100Y276646D01*
Y275706D01*
X393400Y275006D01*
Y268600D01*
X389260Y264460D01*
X389240D01*
G01X400200Y347500D02*
X402900Y344800D01*
Y343300D01*
X401200Y341600D01*
X397100D01*
X395586Y340086D01*
X393186D01*
X392400Y339300D01*
Y334514D01*
X391920Y334034D01*
X389780D01*
X389300Y333554D01*
Y332874D01*
X389780Y332394D01*
X391920D01*
X392400Y331914D01*
Y331234D01*
X391920Y330754D01*
X389780D01*
X389300Y330274D01*
Y329594D01*
X389780Y329114D01*
X391920D01*
X392400Y328634D01*
Y327954D01*
X391920Y327474D01*
X389780D01*
X389300Y326994D01*
Y326314D01*
X389780Y325834D01*
X391920D01*
X392400Y325354D01*
Y324674D01*
X391920Y324194D01*
X389780D01*
X389300Y323714D01*
Y323034D01*
X389780Y322554D01*
X391920D01*
X392400Y322074D01*
Y321394D01*
X391920Y320914D01*
X389780D01*
X389300Y320434D01*
Y319754D01*
X389780Y319274D01*
X391920D01*
X392400Y318794D01*
Y318114D01*
X391920Y317634D01*
X389780D01*
X389300Y317154D01*
Y316474D01*
X389780Y315994D01*
X391920D01*
X392400Y315514D01*
Y314834D01*
X391920Y314354D01*
X389780D01*
X389300Y313874D01*
Y313194D01*
X389780Y312714D01*
X391920D01*
X392400Y312234D01*
Y311554D01*
X391920Y311074D01*
X389780D01*
X389300Y310594D01*
Y309914D01*
X389780Y309434D01*
X391920D01*
X392400Y308953D01*
Y298834D01*
X391700Y298134D01*
Y297194D01*
X392400Y296494D01*
Y295554D01*
X391700Y294854D01*
Y293914D01*
X392400Y293214D01*
Y291922D01*
X391900Y291422D01*
Y290282D01*
X392400Y289782D01*
Y276600D01*
X389240Y273440D01*
Y272330D01*
G01X400300Y338200D02*
X400600D01*
X402183Y336617D01*
X403183D01*
X403843Y335957D01*
Y334957D01*
X405900Y332900D01*
Y331902D01*
X406380Y331421D01*
X407920D01*
X408400Y330941D01*
Y330262D01*
X407920Y329781D01*
X406380D01*
X405900Y329301D01*
Y328622D01*
X406380Y328141D01*
X407920D01*
X408400Y327661D01*
Y326982D01*
X407920Y326501D01*
X406380D01*
X405900Y326021D01*
Y321456D01*
X406380Y320975D01*
X408620D01*
X409100Y320495D01*
Y319816D01*
X408620Y319335D01*
X406380D01*
X405900Y318855D01*
Y318176D01*
X406380Y317695D01*
X408620D01*
X409100Y317215D01*
Y316536D01*
X408620Y316055D01*
X406380D01*
X405900Y315575D01*
Y314896D01*
X406380Y314415D01*
X408620D01*
X409100Y313935D01*
Y313256D01*
X408620Y312775D01*
X406380D01*
X405900Y312295D01*
Y311616D01*
X406380Y311135D01*
X408620D01*
X409100Y310655D01*
Y309976D01*
X408620Y309495D01*
X406380D01*
X405900Y309015D01*
Y308336D01*
X406380Y307855D01*
X408620D01*
X409100Y307375D01*
Y306696D01*
X408620Y306215D01*
X406380D01*
X405900Y305735D01*
Y305056D01*
X406380Y304575D01*
X408620D01*
X409100Y304095D01*
Y303416D01*
X408620Y302935D01*
X406380D01*
X405900Y302455D01*
Y301776D01*
X406380Y301295D01*
X408620D01*
X409100Y300815D01*
Y300136D01*
X408620Y299655D01*
X406380D01*
X405900Y299175D01*
Y298496D01*
X406380Y298015D01*
X408620D01*
X409100Y297535D01*
Y296856D01*
X408620Y296375D01*
X406380D01*
X405900Y295895D01*
Y295216D01*
X406380Y294735D01*
X408620D01*
X409100Y294255D01*
Y293576D01*
X408620Y293095D01*
X406380D01*
X405900Y292615D01*
Y291936D01*
X406380Y291455D01*
X408620D01*
X409100Y290975D01*
Y290296D01*
X408620Y289815D01*
X406380D01*
X405900Y289335D01*
Y287160D01*
X406637Y286423D01*
X407316D01*
X408177Y287284D01*
X408856D01*
X409337Y286803D01*
Y286124D01*
X408476Y285263D01*
Y284584D01*
X408957Y284104D01*
X409636D01*
X410496Y284964D01*
X411176D01*
X411656Y284484D01*
Y283805D01*
X410795Y282944D01*
Y282265D01*
X412860Y280200D01*
G01X400200Y333800D02*
Y333400D01*
X402799Y330801D01*
Y328059D01*
X402100Y327359D01*
Y326850D01*
X402460Y326490D01*
X404340D01*
X404700Y326129D01*
Y325620D01*
X404340Y325260D01*
X402460D01*
X402100Y324899D01*
Y324390D01*
X402460Y324030D01*
X404340D01*
X404700Y323669D01*
Y323160D01*
X404340Y322800D01*
X402460D01*
X402100Y322439D01*
Y321930D01*
X402460Y321570D01*
X404340D01*
X404700Y321209D01*
Y320700D01*
X404340Y320340D01*
X402460D01*
X402100Y319979D01*
Y319470D01*
X402460Y319110D01*
X404340D01*
X404700Y318749D01*
Y318240D01*
X404340Y317880D01*
X402460D01*
X402100Y317519D01*
Y317010D01*
X402460Y316650D01*
X404340D01*
X404700Y316289D01*
Y315780D01*
X404340Y315420D01*
X402460D01*
X402100Y315059D01*
Y314550D01*
X402460Y314190D01*
X404340D01*
X404700Y313829D01*
Y313320D01*
X404340Y312960D01*
X402460D01*
X402100Y312599D01*
Y312090D01*
X402460Y311730D01*
X404340D01*
X404700Y311369D01*
Y310860D01*
X404340Y310500D01*
X402460D01*
X402100Y310139D01*
Y309630D01*
X402460Y309270D01*
X404340D01*
X404700Y308909D01*
Y308400D01*
X404340Y308040D01*
X402460D01*
X402100Y307679D01*
Y307170D01*
X402460Y306810D01*
X404340D01*
X404700Y306449D01*
Y305940D01*
X404340Y305580D01*
X402460D01*
X402100Y305219D01*
Y304710D01*
X402460Y304350D01*
X404340D01*
X404700Y303989D01*
Y303480D01*
X404340Y303120D01*
X402460D01*
X402100Y302759D01*
Y302250D01*
X402460Y301890D01*
X404340D01*
X404700Y301529D01*
Y301020D01*
X404340Y300660D01*
X402460D01*
X402100Y300299D01*
Y299790D01*
X402460Y299430D01*
X404340D01*
X404700Y299069D01*
Y298560D01*
X404340Y298200D01*
X402460D01*
X402100Y297839D01*
Y297330D01*
X402460Y296970D01*
X404340D01*
X404700Y296609D01*
Y296100D01*
X404340Y295740D01*
X402460D01*
X402100Y295379D01*
Y294870D01*
X402460Y294510D01*
X404340D01*
X404700Y294149D01*
Y293640D01*
X404340Y293280D01*
X402460D01*
X402100Y292919D01*
Y292410D01*
X402460Y292050D01*
X404340D01*
X404700Y291689D01*
Y291180D01*
X404340Y290820D01*
X402460D01*
X402100Y290459D01*
Y289950D01*
X402460Y289590D01*
X404340D01*
X404700Y289229D01*
Y287000D01*
X405722Y285978D01*
Y284978D01*
X406092Y284608D01*
X407092D01*
X411100Y280600D01*
Y278100D01*
X412860Y276340D01*
Y276270D01*
G01X493100Y331200D02*
X489886Y334414D01*
X479673D01*
X478844Y333586D01*
X477473D01*
X476644Y334414D01*
X466514D01*
X463114Y331014D01*
X462973D01*
X461120Y329162D01*
X459861D01*
X459331Y328631D01*
Y327373D01*
X458800Y326842D01*
X457542D01*
X457011Y326312D01*
Y325053D01*
X454800Y322842D01*
Y306500D01*
X447800Y299500D01*
X433900D01*
X424670Y290270D01*
Y280200D01*
G01X429200Y319500D02*
X423700D01*
X422700Y318500D01*
X413100D01*
X410900Y316300D01*
Y286400D01*
X414374Y282926D01*
Y275643D01*
X413487Y274756D01*
X409204D01*
X407000Y272552D01*
Y266400D01*
X405060Y264460D01*
X404990D01*
G01X353441Y325441D02*
X352600Y326282D01*
Y328100D01*
X351300Y329400D01*
X350200D01*
X349299Y328499D01*
Y326943D01*
X349314Y326927D01*
Y325673D01*
X349299Y325657D01*
Y325479D01*
X347300Y323480D01*
Y322660D01*
X347780Y322179D01*
X350820D01*
X351300Y321699D01*
Y321020D01*
X350820Y320539D01*
X347780D01*
X347300Y320059D01*
Y319380D01*
X347780Y318899D01*
X350820D01*
X351300Y318419D01*
Y317740D01*
X350820Y317259D01*
X347780D01*
X347300Y316779D01*
Y316100D01*
X347780Y315619D01*
X350820D01*
X351300Y315139D01*
Y314460D01*
X350820Y313979D01*
X347780D01*
X347300Y313499D01*
Y311200D01*
X363800Y294700D01*
X363800Y294475D01*
X365461Y292814D01*
X366140D01*
X367374Y294047D01*
X368053D01*
X368533Y293567D01*
Y292888D01*
X367300Y291654D01*
Y290975D01*
X367880Y290395D01*
X370020D01*
X370500Y289914D01*
Y289235D01*
X370020Y288755D01*
X367880D01*
X367400Y288274D01*
Y287595D01*
X367880Y287115D01*
X370020D01*
X370500Y286634D01*
Y285955D01*
X370020Y285475D01*
X367880D01*
X367400Y284994D01*
Y284315D01*
X367880Y283835D01*
X370020D01*
X370500Y283354D01*
Y282675D01*
X370020Y282195D01*
X367880D01*
X367400Y281714D01*
Y278300D01*
X365620Y276520D01*
Y276270D01*
G01X436700Y322500D02*
X434920Y320720D01*
X434780D01*
X434300Y320239D01*
Y319560D01*
X434780Y319080D01*
X434920D01*
X435400Y318599D01*
Y317920D01*
X434920Y317440D01*
X434780D01*
X434300Y316959D01*
Y316280D01*
X434780Y315800D01*
X434920D01*
X435400Y315319D01*
Y314640D01*
X434920Y314160D01*
X434780D01*
X434300Y313679D01*
Y313000D01*
X434780Y312520D01*
X434920D01*
X435400Y312039D01*
Y311855D01*
X435880Y311375D01*
X437520D01*
X438000Y310894D01*
Y310215D01*
X437520Y309735D01*
X435880D01*
X435400Y309254D01*
Y308575D01*
X435880Y308095D01*
X437520D01*
X438000Y307614D01*
Y306935D01*
X437520Y306455D01*
X434915D01*
X434435Y306935D01*
Y307420D01*
X433955Y307900D01*
X433275D01*
X432795Y307420D01*
Y306935D01*
X432315Y306455D01*
X431142D01*
Y305827D01*
X430661Y305346D01*
Y304667D01*
X432074Y303254D01*
Y302574D01*
X431594Y302094D01*
X430915D01*
X429502Y303507D01*
X428822D01*
X428342Y303027D01*
Y302348D01*
X429755Y300934D01*
Y300255D01*
X429275Y299775D01*
X428595D01*
X427182Y301188D01*
X426503D01*
X426022Y300707D01*
Y300028D01*
X427436Y298615D01*
Y297936D01*
X426955Y297455D01*
X426276D01*
X424863Y298868D01*
X423269D01*
X422200Y297800D01*
Y296250D01*
X422750Y295700D01*
Y295650D01*
X423500Y294900D01*
Y293920D01*
X421990Y292410D01*
X420010D01*
X419000Y291400D01*
Y290600D01*
X419700Y289900D01*
X420980D01*
X421480Y289400D01*
Y288898D01*
X421000Y288417D01*
X419780D01*
X419300Y287937D01*
Y287258D01*
X419780Y286777D01*
X421000D01*
X421480Y286297D01*
Y285618D01*
X421000Y285137D01*
X419780D01*
X419300Y284657D01*
Y280902D01*
X419226Y280827D01*
Y279573D01*
X419300Y279498D01*
Y276972D01*
X419226Y276897D01*
Y275643D01*
X419300Y275568D01*
Y273032D01*
X419226Y272957D01*
Y272126D01*
X417800Y270700D01*
X416800D01*
X414900Y268800D01*
Y266500D01*
X412860Y264460D01*
G01X357400Y330200D02*
X355500Y328300D01*
Y310200D01*
X357099Y308602D01*
Y308092D01*
X354758Y305752D01*
Y305242D01*
X355118Y304882D01*
X355628D01*
X357968Y307222D01*
X358478D01*
X358838Y306862D01*
Y306352D01*
X356498Y304012D01*
Y303502D01*
X356858Y303142D01*
X357367D01*
X359708Y305483D01*
X360217D01*
X360578Y305122D01*
Y304613D01*
X358237Y302272D01*
Y301763D01*
X358598Y301402D01*
X359107D01*
X361448Y303743D01*
X361957D01*
X362317Y303383D01*
Y302873D01*
X359977Y300533D01*
Y300023D01*
X360337Y299663D01*
X360846D01*
X363187Y302004D01*
X363696D01*
X364057Y301643D01*
Y301134D01*
X361716Y298793D01*
Y298284D01*
X362077Y297923D01*
X362586D01*
X364927Y300264D01*
X365436D01*
X365797Y299904D01*
Y299394D01*
X363456Y297054D01*
Y296544D01*
X363816Y296184D01*
X364326D01*
X366666Y298524D01*
X367176D01*
X371400Y294300D01*
Y274400D01*
X373470Y272330D01*
X373490D01*
G01X436800Y328900D02*
X435220Y327320D01*
X433620D01*
X432200Y325900D01*
Y315800D01*
X426514Y310114D01*
Y310073D01*
X425627Y309186D01*
X424339Y307939D01*
X423659D01*
X421989Y309609D01*
X421309D01*
X420829Y309129D01*
Y308450D01*
X422500Y306779D01*
Y306100D01*
X419444Y303044D01*
X418765D01*
X417244Y304565D01*
X416565D01*
X416084Y304084D01*
Y303405D01*
X417605Y301884D01*
Y301205D01*
X417125Y300725D01*
X416445D01*
X414925Y302245D01*
X414245D01*
X413765Y301765D01*
Y301086D01*
X415286Y299565D01*
X415286Y298745D01*
X414805Y298264D01*
X412783Y298265D01*
X412303Y297784D01*
X412303Y297105D01*
X412783Y296625D01*
X414805Y296624D01*
X415285Y296144D01*
X415285Y295465D01*
X414804Y294984D01*
X412783Y294985D01*
X412302Y294504D01*
X412302Y293825D01*
X412782Y293345D01*
X414804Y293344D01*
X415284Y292864D01*
X415284Y292185D01*
X414804Y291704D01*
X412782Y291705D01*
X412302Y291224D01*
X412302Y290545D01*
X412782Y290065D01*
X414803Y290064D01*
X415284Y289584D01*
X415286Y287600D01*
Y274845D01*
X414285Y273844D01*
X412233D01*
X410800Y272412D01*
Y266300D01*
X408960Y264460D01*
X408920D01*
G01X416800Y268390D02*
X418710Y270300D01*
X421500D01*
X422300Y271100D01*
Y291300D01*
X436000Y305000D01*
X440342D01*
X445700Y310358D01*
Y312619D01*
X446180Y313100D01*
X451720D01*
X452200Y313580D01*
Y314259D01*
X451720Y314740D01*
X446180D01*
X445700Y315220D01*
Y315899D01*
X446180Y316380D01*
X451720D01*
X452200Y316860D01*
Y317539D01*
X451720Y318020D01*
X446180D01*
X445700Y318500D01*
Y319179D01*
X446180Y319660D01*
X451720D01*
X452200Y320140D01*
Y320819D01*
X451720Y321300D01*
X446180D01*
X445700Y321780D01*
Y322600D01*
X448000Y324900D01*
G01X463800Y323200D02*
X461900Y321300D01*
Y318061D01*
X461420Y317580D01*
X460680D01*
X460200Y317100D01*
Y316421D01*
X460680Y315941D01*
X461420D01*
X461900Y315460D01*
Y314781D01*
X461420Y314300D01*
X460680D01*
X460200Y313820D01*
Y313141D01*
X460680Y312660D01*
X461420D01*
X461900Y312180D01*
Y311501D01*
X461420Y311020D01*
X460680D01*
X460200Y310540D01*
Y309861D01*
X460680Y309380D01*
X461420D01*
X461900Y308900D01*
Y304000D01*
X457574Y299674D01*
X456300D01*
X455820Y299194D01*
X455180D01*
X454700Y298713D01*
Y298034D01*
X455180Y297554D01*
X455820D01*
X456300Y297073D01*
Y294100D01*
X455424Y293224D01*
X454745D01*
X453274Y294695D01*
X452595D01*
X452114Y294214D01*
Y293535D01*
X453585Y292064D01*
Y291385D01*
X452200Y290000D01*
X449611D01*
X449131Y290480D01*
Y292620D01*
X448651Y293100D01*
X447971D01*
X447491Y292620D01*
Y290480D01*
X447011Y290000D01*
X446331D01*
X445851Y290480D01*
Y292620D01*
X445371Y293100D01*
X444691D01*
X444211Y292620D01*
Y290480D01*
X443731Y290000D01*
X443051D01*
X442571Y290480D01*
Y292620D01*
X442091Y293100D01*
X441411D01*
X440931Y292620D01*
Y290480D01*
X440451Y290000D01*
X439771D01*
X439291Y290480D01*
Y292620D01*
X438811Y293100D01*
X438131D01*
X437651Y292620D01*
Y290480D01*
X437171Y290000D01*
X434700D01*
X434021Y290000D01*
X433400Y290621D01*
X432721D01*
X432240Y290140D01*
Y289461D01*
X432861Y288840D01*
Y288161D01*
X430600Y285900D01*
Y278200D01*
X428670Y276270D01*
X428610D01*
G01X474500Y324100D02*
X477700Y320900D01*
Y318246D01*
X477220Y317766D01*
X476980D01*
X476500Y317285D01*
Y316606D01*
X476980Y316126D01*
X477220D01*
X477700Y315645D01*
Y314966D01*
X477220Y314486D01*
X476980D01*
X476500Y314005D01*
Y313326D01*
X476980Y312846D01*
X477220D01*
X477700Y312365D01*
Y311686D01*
X477220Y311206D01*
X476980D01*
X476500Y310725D01*
Y310046D01*
X476980Y309566D01*
X477220D01*
X477700Y309085D01*
Y307900D01*
X473900Y304100D01*
X463600D01*
X458700Y299200D01*
Y292700D01*
X452720Y286720D01*
Y284580D01*
X452239Y284100D01*
X451560D01*
X451080Y284580D01*
Y286720D01*
X450599Y287200D01*
X449920D01*
X449440Y286720D01*
Y284580D01*
X448959Y284100D01*
X448280D01*
X447800Y284580D01*
Y286720D01*
X447319Y287200D01*
X446640D01*
X446160Y286720D01*
Y284580D01*
X445679Y284100D01*
X445000D01*
X444520Y284580D01*
Y286720D01*
X444039Y287200D01*
X443360D01*
X442880Y286720D01*
Y284580D01*
X442399Y284100D01*
X441720D01*
X441240Y284580D01*
Y286720D01*
X440759Y287200D01*
X440080D01*
X439600Y286720D01*
Y284580D01*
X439119Y284100D01*
X438440D01*
X437960Y284580D01*
Y286720D01*
X437479Y287200D01*
X436400D01*
X434200Y285000D01*
Y282800D01*
X432550Y281150D01*
Y280200D01*
G01X388500Y339500D02*
X388400Y339600D01*
X386800D01*
X385706Y338506D01*
Y337565D01*
X385306Y337166D01*
X384366D01*
X383786Y336586D01*
Y333340D01*
X384146Y332980D01*
X385540D01*
X385900Y332620D01*
Y332110D01*
X385540Y331750D01*
X384146D01*
X383786Y331390D01*
Y330880D01*
X384146Y330520D01*
X385540D01*
X385900Y330160D01*
Y329650D01*
X385540Y329290D01*
X384146D01*
X383786Y328930D01*
Y328420D01*
X384146Y328060D01*
X385540D01*
X385900Y327700D01*
Y327190D01*
X385540Y326830D01*
X384146D01*
X383786Y326470D01*
Y325960D01*
X384146Y325600D01*
X385540D01*
X385900Y325240D01*
Y324730D01*
X385540Y324370D01*
X384146D01*
X383786Y324010D01*
Y323500D01*
X384146Y323140D01*
X385540D01*
X385900Y322780D01*
Y322270D01*
X385540Y321910D01*
X384146D01*
X383786Y321550D01*
Y321040D01*
X384146Y320680D01*
X385540D01*
X385900Y320320D01*
Y319810D01*
X385540Y319450D01*
X384146D01*
X383786Y319090D01*
Y318580D01*
X384146Y318220D01*
X385540D01*
X385900Y317860D01*
Y317350D01*
X385540Y316990D01*
X384146D01*
X383786Y316630D01*
Y316120D01*
X384146Y315760D01*
X385540D01*
X385900Y315400D01*
Y314890D01*
X385540Y314530D01*
X384146D01*
X383786Y314170D01*
Y313660D01*
X384146Y313300D01*
X385540D01*
X385900Y312940D01*
Y312430D01*
X385540Y312070D01*
X384146D01*
X383786Y311710D01*
Y311200D01*
X384146Y310840D01*
X385540D01*
X385900Y310480D01*
Y309970D01*
X385540Y309610D01*
X384146D01*
X383786Y309250D01*
Y308740D01*
X384146Y308380D01*
X385540D01*
X385900Y308020D01*
Y307510D01*
X385540Y307150D01*
X384146D01*
X383786Y306790D01*
Y306280D01*
X384146Y305920D01*
X385540D01*
X385900Y305560D01*
Y305050D01*
X385540Y304690D01*
X384146D01*
X383786Y304330D01*
Y303820D01*
X384146Y303460D01*
X385540D01*
X385900Y303100D01*
Y302590D01*
X385540Y302230D01*
X384146D01*
X383786Y301870D01*
Y301360D01*
X384146Y301000D01*
X385540D01*
X385900Y300640D01*
Y300130D01*
X385540Y299770D01*
X384146D01*
X383786Y299410D01*
Y298900D01*
X384146Y298540D01*
X385540D01*
X385900Y298180D01*
Y297670D01*
X385540Y297310D01*
X384146D01*
X383786Y296950D01*
Y296440D01*
X384146Y296080D01*
X385540D01*
X385900Y295720D01*
Y295210D01*
X385540Y294850D01*
X384146D01*
X383786Y294490D01*
Y293980D01*
X384146Y293620D01*
X385540D01*
X385900Y293260D01*
Y292750D01*
X385540Y292390D01*
X384146D01*
X383786Y292030D01*
Y291520D01*
X384146Y291160D01*
X385540D01*
X385900Y290800D01*
Y290290D01*
X385540Y289930D01*
X384146D01*
X383786Y289570D01*
Y289060D01*
X384146Y288700D01*
X385540D01*
X385900Y288340D01*
Y287830D01*
X385540Y287470D01*
X384146D01*
X383786Y287110D01*
Y286600D01*
X384146Y286240D01*
X385540D01*
X385900Y285880D01*
Y285370D01*
X385540Y285010D01*
X384146D01*
X383786Y284650D01*
Y283830D01*
X384200Y283415D01*
Y282600D01*
X383786Y282185D01*
Y275586D01*
X381370Y273170D01*
Y272330D01*
G01X360500Y327000D02*
X358000Y324500D01*
Y322386D01*
X358600Y321785D01*
X361400D01*
X362000Y321185D01*
Y320336D01*
X361400Y319735D01*
X358600D01*
X358000Y319135D01*
Y315943D01*
X358480Y315462D01*
X360920D01*
X361400Y314982D01*
Y314303D01*
X360920Y313822D01*
X358480D01*
X358000Y313342D01*
Y309300D01*
X360395Y306906D01*
X360904D01*
X363244Y309246D01*
X363754D01*
X364114Y308886D01*
Y308376D01*
X361774Y306036D01*
Y305526D01*
X362134Y305166D01*
X362644D01*
X364984Y307506D01*
X365494D01*
X365854Y307146D01*
Y306637D01*
X363513Y304296D01*
Y303787D01*
X363874Y303426D01*
X364383D01*
X366724Y305767D01*
X367233D01*
X367594Y305406D01*
Y304897D01*
X365253Y302556D01*
Y302047D01*
X365613Y301687D01*
X366123D01*
X368463Y304027D01*
X368973D01*
X369333Y303667D01*
Y303157D01*
X366992Y300817D01*
Y300308D01*
X367353Y299947D01*
X367862D01*
X370203Y302288D01*
X370712D01*
X371073Y301927D01*
Y301418D01*
X368732Y299077D01*
Y298568D01*
X369093Y298208D01*
X369602D01*
X371942Y300548D01*
X372452D01*
X372812Y300188D01*
Y299678D01*
X370472Y297338D01*
Y296828D01*
X373490Y293810D01*
Y280200D01*
G01X363900Y324200D02*
X366480Y321620D01*
X370620D01*
X371100Y321139D01*
Y320460D01*
X370620Y319980D01*
X366480D01*
X366000Y319499D01*
Y318820D01*
X366480Y318340D01*
X370620D01*
X371100Y317859D01*
Y317180D01*
X370620Y316700D01*
X366480D01*
X366000Y316219D01*
Y315540D01*
X366480Y315060D01*
X370620D01*
X371100Y314579D01*
Y313900D01*
X370620Y313420D01*
X366480D01*
X366000Y312939D01*
Y309600D01*
X366848Y308752D01*
X367527D01*
X369248Y310473D01*
X369927D01*
X370407Y309993D01*
Y309314D01*
X368686Y307593D01*
Y306914D01*
X369167Y306433D01*
X369846D01*
X371567Y308154D01*
X372246D01*
X372727Y307673D01*
Y306994D01*
X371006Y305273D01*
Y304594D01*
X371486Y304114D01*
X372166D01*
X373886Y305834D01*
X374566D01*
X375046Y305354D01*
Y304675D01*
X373325Y302954D01*
Y302275D01*
X375004Y300596D01*
Y266896D01*
X377430Y264470D01*
Y264460D01*
G01X489300Y329600D02*
X486186Y326486D01*
X480514D01*
X477800Y329200D01*
X476500D01*
X475200Y330500D01*
X473100D01*
X472000Y329400D01*
Y328300D01*
X468514Y324814D01*
X462714D01*
X458500Y320600D01*
Y306400D01*
X453600Y301500D01*
Y298100D01*
X449800Y294300D01*
X447617D01*
X447137Y294780D01*
Y295320D01*
X446657Y295800D01*
X445977D01*
X445497Y295320D01*
Y294780D01*
X445017Y294300D01*
X444337D01*
X443857Y294780D01*
Y295320D01*
X443377Y295800D01*
X442697D01*
X442217Y295320D01*
Y294780D01*
X441737Y294300D01*
X433900D01*
X433221Y294300D01*
X432550Y294971D01*
X431871D01*
X431390Y294490D01*
Y293811D01*
X432061Y293140D01*
Y292461D01*
X431580Y291980D01*
X430901D01*
X430231Y292651D01*
X429551D01*
X429071Y292171D01*
Y291492D01*
X429742Y290821D01*
Y290142D01*
X428610Y289010D01*
Y280200D01*
G01X412860Y268390D02*
X414800Y270330D01*
Y273200D01*
X415900Y274300D01*
X416972D01*
X418314Y275643D01*
Y276897D01*
X417900Y277312D01*
Y279158D01*
X418314Y279573D01*
Y280827D01*
X417900Y281242D01*
Y285215D01*
X417420Y285695D01*
X416880D01*
X416400Y286176D01*
Y286855D01*
X416880Y287335D01*
X417420D01*
X417900Y287816D01*
Y288495D01*
X417420Y288975D01*
X416880D01*
X416400Y289456D01*
Y290135D01*
X416880Y290615D01*
X417420D01*
X417900Y291096D01*
Y291775D01*
X417420Y292255D01*
X416880D01*
X416400Y292736D01*
Y293415D01*
X416880Y293895D01*
X417420D01*
X417900Y294376D01*
Y295242D01*
X419573Y296914D01*
X420997Y298297D01*
Y298977D01*
X419377Y300597D01*
Y301277D01*
X419857Y301757D01*
X420536D01*
X422157Y300136D01*
X422836D01*
X423317Y300617D01*
Y301296D01*
X421696Y302917D01*
Y303596D01*
X422177Y304076D01*
X422856D01*
X424476Y302456D01*
X425156D01*
X425636Y302936D01*
Y303615D01*
X424015Y305236D01*
Y305915D01*
X424496Y306396D01*
X425175D01*
X426796Y304775D01*
X427475D01*
X427956Y305256D01*
Y305935D01*
X426335Y307556D01*
Y308235D01*
X426815Y308715D01*
X427494D01*
X429115Y307094D01*
X429794D01*
X430275Y307575D01*
Y308254D01*
X428654Y309875D01*
Y310554D01*
X429135Y311035D01*
X429814D01*
X431435Y309414D01*
X432114D01*
X433400Y310700D01*
Y324800D01*
X435100Y326500D01*
X443800D01*
G01X388500Y343800D02*
X385000D01*
X379700Y338500D01*
Y338340D01*
X379220Y337860D01*
X378080D01*
X377600Y337380D01*
Y336700D01*
X378080Y336220D01*
X379220D01*
X379700Y335740D01*
Y335060D01*
X379220Y334580D01*
X378080D01*
X377600Y334100D01*
Y333420D01*
X378080Y332940D01*
X379220D01*
X379700Y332460D01*
Y331780D01*
X379220Y331300D01*
X378080D01*
X377600Y330820D01*
Y330140D01*
X378080Y329660D01*
X379220D01*
X379700Y329180D01*
Y328500D01*
X379220Y328020D01*
X378080D01*
X377600Y327540D01*
Y326860D01*
X378080Y326380D01*
X379220D01*
X379700Y325900D01*
Y325220D01*
X379220Y324740D01*
X378080D01*
X377600Y324260D01*
Y323580D01*
X378080Y323100D01*
X379220D01*
X379700Y322620D01*
Y321940D01*
X379220Y321460D01*
X378080D01*
X377600Y320980D01*
Y320300D01*
X378080Y319820D01*
X379220D01*
X379700Y319340D01*
Y318660D01*
X379220Y318180D01*
X378080D01*
X377600Y317700D01*
Y317020D01*
X378080Y316540D01*
X379220D01*
X379700Y316060D01*
Y315380D01*
X379220Y314900D01*
X378080D01*
X377600Y314420D01*
Y313740D01*
X378080Y313260D01*
X379220D01*
X379700Y312780D01*
Y312100D01*
X379220Y311620D01*
X378080D01*
X377600Y311140D01*
Y310460D01*
X378080Y309980D01*
X379220D01*
X379700Y309500D01*
Y308820D01*
X379220Y308340D01*
X378080D01*
X377600Y307860D01*
Y307180D01*
X378080Y306700D01*
X379220D01*
X379700Y306220D01*
Y305540D01*
X379220Y305060D01*
X378080D01*
X377600Y304580D01*
Y303900D01*
X378080Y303420D01*
X379220D01*
X379700Y302940D01*
Y302260D01*
X379220Y301780D01*
X378080D01*
X377600Y301300D01*
Y300620D01*
X378080Y300140D01*
X379220D01*
X379700Y299660D01*
Y298980D01*
X379220Y298500D01*
X378080D01*
X377600Y298020D01*
Y297340D01*
X378080Y296860D01*
X379220D01*
X379700Y296380D01*
Y295700D01*
X379220Y295220D01*
X378080D01*
X377600Y294740D01*
Y294060D01*
X378080Y293580D01*
X379220D01*
X379700Y293100D01*
Y292420D01*
X379220Y291940D01*
X378080D01*
X377600Y291460D01*
Y290780D01*
X378080Y290300D01*
X379220D01*
X379700Y289820D01*
Y289140D01*
X379220Y288660D01*
X378080D01*
X377600Y288180D01*
Y287500D01*
X378080Y287020D01*
X379220D01*
X379700Y286540D01*
Y285860D01*
X379220Y285380D01*
X378080D01*
X377600Y284900D01*
Y284220D01*
X378080Y283740D01*
X379220D01*
X379700Y283260D01*
Y269700D01*
X378390Y268390D01*
X377430D01*
G01X388500Y347600D02*
X388400Y347500D01*
X385600D01*
X383848Y345748D01*
X383168D01*
X381298Y347618D01*
X380618D01*
X380138Y347138D01*
Y346458D01*
X382009Y344588D01*
Y343909D01*
X381528Y343428D01*
X380849D01*
X378978Y345299D01*
X378299D01*
X377818Y344818D01*
Y344139D01*
X379689Y342268D01*
Y341589D01*
X379209Y341109D01*
X378530D01*
X376659Y342979D01*
X375980D01*
X375499Y342499D01*
Y341820D01*
X377370Y339949D01*
Y339270D01*
X376500Y338400D01*
Y338195D01*
X376020Y337715D01*
X371980D01*
X371500Y337234D01*
Y336555D01*
X371980Y336075D01*
X376020D01*
X376500Y335594D01*
Y334915D01*
X376020Y334435D01*
X371980D01*
X371500Y333954D01*
Y333275D01*
X371980Y332795D01*
X376020D01*
X376500Y332314D01*
Y320827D01*
X376020Y320347D01*
X373780D01*
X373300Y319867D01*
Y319187D01*
X373780Y318707D01*
X376020D01*
X376500Y318227D01*
Y317547D01*
X376020Y317067D01*
X373780D01*
X373300Y316587D01*
Y315907D01*
X373780Y315427D01*
X376020D01*
X376500Y314947D01*
Y314267D01*
X376020Y313787D01*
X373780D01*
X373300Y313307D01*
Y312627D01*
X373780Y312147D01*
X376020D01*
X376500Y311667D01*
Y310987D01*
X376020Y310507D01*
X373780D01*
X373300Y310027D01*
Y309347D01*
X373780Y308867D01*
X376020D01*
X376500Y308387D01*
Y281130D01*
X377430Y280200D01*
G01X400100Y359600D02*
X404540Y355160D01*
Y342621D01*
X401819Y339900D01*
X398300D01*
X397100Y338700D01*
Y329156D01*
X397580Y328675D01*
X398120D01*
X398600Y328195D01*
Y327516D01*
X398120Y327035D01*
X397580D01*
X397100Y326555D01*
Y325876D01*
X397580Y325395D01*
X398120D01*
X398600Y324915D01*
Y324236D01*
X398120Y323755D01*
X397580D01*
X397100Y323275D01*
Y322596D01*
X397580Y322115D01*
X398120D01*
X398600Y321635D01*
Y320956D01*
X398120Y320475D01*
X397580D01*
X397100Y319995D01*
Y319316D01*
X397580Y318835D01*
X398120D01*
X398600Y318355D01*
Y317676D01*
X398120Y317195D01*
X397580D01*
X397100Y316715D01*
Y316036D01*
X397580Y315555D01*
X398120D01*
X398600Y315075D01*
Y314396D01*
X398120Y313915D01*
X397580D01*
X397100Y313435D01*
Y312756D01*
X397580Y312275D01*
X398120D01*
X398600Y311795D01*
Y311116D01*
X398120Y310635D01*
X397580D01*
X397100Y310155D01*
Y309476D01*
X397580Y308995D01*
X398120D01*
X398600Y308515D01*
Y307836D01*
X398120Y307355D01*
X397580D01*
X397100Y306875D01*
Y306196D01*
X397580Y305715D01*
X398120D01*
X398600Y305235D01*
Y304556D01*
X398120Y304075D01*
X397580D01*
X397100Y303595D01*
Y302916D01*
X397580Y302435D01*
X398120D01*
X398600Y301955D01*
Y301276D01*
X398120Y300795D01*
X397580D01*
X397100Y300315D01*
Y299636D01*
X397580Y299155D01*
X398120D01*
X398600Y298675D01*
Y297996D01*
X398120Y297515D01*
X397580D01*
X397100Y297035D01*
Y296356D01*
X397580Y295875D01*
X398120D01*
X398600Y295395D01*
Y294716D01*
X398120Y294235D01*
X397580D01*
X397100Y293755D01*
Y293076D01*
X397580Y292595D01*
X398120D01*
X398600Y292115D01*
Y291436D01*
X398120Y290955D01*
X397580D01*
X397100Y290475D01*
Y289269D01*
X397580Y288789D01*
X398020D01*
X398500Y288309D01*
Y287629D01*
X398020Y287149D01*
X397580D01*
X397100Y286669D01*
Y285136D01*
X397580Y284655D01*
X398120D01*
X398600Y284175D01*
Y283496D01*
X398120Y283015D01*
X397580D01*
X397100Y282535D01*
Y280624D01*
X398624Y279100D01*
Y266876D01*
X401040Y264460D01*
X401050D01*
G01X428610Y268390D02*
Y266676D01*
X430124Y265161D01*
Y221386D01*
X431874Y219636D01*
X447000D01*
G01X436480Y244770D02*
X438906Y242344D01*
X447000D01*
G01Y274756D02*
X428846D01*
X427096Y273006D01*
Y251939D01*
X428610Y250424D01*
Y248710D01*
G01X436480Y256580D02*
X438510Y254550D01*
X447000D01*
G01X436480Y260520D02*
X438194D01*
X439709Y262034D01*
X441995D01*
X447000Y267039D01*
G01X432550Y213270D02*
X434966Y210854D01*
X445000D01*
X447000Y208854D01*
Y205587D01*
G01X349870Y250224D02*
X346000D01*
X339000Y257224D01*
Y261833D01*
G01X349870Y250224D02*
Y248710D01*
G01X381400Y329300D02*
Y338300D01*
X385400Y342300D01*
X387858D01*
X387873Y342286D01*
X389886D01*
X391400Y343800D01*
Y349200D01*
X393700Y351500D01*
X396200D01*
X400200Y355500D01*
G01X440420Y244770D02*
X442134D01*
X443649Y246284D01*
X447000D01*
G01X444360Y268390D02*
X447000Y271030D01*
Y273045D01*
G54D18*
X306123Y97477D03*
X320400Y286900D03*
X408900Y10400D03*
X468100Y146500D03*
X587300Y156500D03*
X585800Y225800D03*
G54D28*
G01X216067Y98483D02*
X193976Y120573D01*
Y177000D01*
G01X224155Y95002D02*
Y97728D01*
X198428Y123456D01*
Y177000D01*
G01X173665Y245431D02*
X177406D01*
X178000Y244837D01*
G01Y195904D02*
X177284Y196620D01*
Y201689D01*
X175683Y203289D01*
Y204793D01*
X177284Y206393D01*
Y237612D01*
X173504Y241391D01*
G01X205000Y349900D02*
Y349759D01*
X184756Y329190D01*
Y329156D01*
X180349Y324749D01*
Y321599D01*
X180300Y321549D01*
Y299718D01*
X183804Y296214D01*
G01X203400Y288300D02*
X208820Y293720D01*
Y311878D01*
X205820Y314878D01*
X185319D01*
X181569Y318628D01*
Y322869D01*
X183901Y325200D01*
X192316D01*
X202058Y334942D01*
X202921D01*
X203050Y334813D01*
X203913D01*
X204776Y335676D01*
Y336538D01*
X204646Y336668D01*
Y337530D01*
X205509Y338393D01*
X206372D01*
X206501Y338264D01*
X207364D01*
X208227Y339127D01*
Y339989D01*
X208097Y340119D01*
Y340981D01*
X210675Y343559D01*
G01X173484Y355539D02*
Y290732D01*
X172769Y290018D01*
X172415D01*
X171700Y289303D01*
Y288292D01*
X172415Y287578D01*
X172769D01*
X173484Y286863D01*
Y285852D01*
X172769Y285138D01*
X172415D01*
X171700Y284423D01*
Y283412D01*
X172415Y282698D01*
X172769D01*
X173484Y281983D01*
Y280972D01*
X172769Y280258D01*
X172415D01*
X171700Y279543D01*
Y278532D01*
X172415Y277818D01*
X172769D01*
X173484Y277103D01*
Y276092D01*
X172769Y275378D01*
X172415D01*
X171700Y274663D01*
Y273652D01*
X172415Y272938D01*
X172769D01*
X173484Y272223D01*
Y269516D01*
X175319Y267681D01*
Y258138D01*
X178000Y255456D01*
G01X234741Y271000D02*
X241187Y277446D01*
X248656D01*
X260406Y289196D01*
Y295577D01*
X253778Y302205D01*
X252767D01*
X252586Y302024D01*
X251576D01*
X250861Y302739D01*
Y303750D01*
X251042Y303931D01*
Y304941D01*
X250327Y305656D01*
X249317D01*
X249136Y305475D01*
X248125D01*
X247410Y306190D01*
Y307201D01*
X247591Y307382D01*
Y308392D01*
X246416Y309567D01*
Y313064D01*
G01X178000Y258400D02*
X177600Y258800D01*
Y284541D01*
X178136Y285077D01*
X181064D01*
X181600Y285613D01*
Y286371D01*
X181064Y286907D01*
X178136D01*
X177600Y287443D01*
Y292618D01*
X177957Y292975D01*
X180943D01*
X181300Y293333D01*
Y293838D01*
X180943Y294195D01*
X177957D01*
X177600Y294553D01*
Y295058D01*
X177957Y295415D01*
X180943D01*
X181300Y295773D01*
Y296278D01*
X180943Y296635D01*
X177957D01*
X177600Y296993D01*
Y329023D01*
X180200Y331623D01*
X180958D01*
X182512Y330070D01*
X183270D01*
X183806Y330606D01*
Y331364D01*
X182252Y332917D01*
Y333675D01*
X182788Y334211D01*
X183546D01*
X185100Y332658D01*
X185858D01*
X186394Y333194D01*
Y333952D01*
X184841Y335505D01*
Y336263D01*
X185377Y336799D01*
X186135D01*
X187688Y335246D01*
X188446D01*
X188982Y335782D01*
Y336540D01*
X187429Y338094D01*
Y338852D01*
X187965Y339388D01*
X188723D01*
X190276Y337834D01*
X191034D01*
X191570Y338370D01*
Y339128D01*
X190017Y340682D01*
Y341440D01*
X191103Y342526D01*
Y348648D01*
X190567Y349184D01*
X189836D01*
X189300Y349720D01*
Y350478D01*
X189836Y351014D01*
X190567D01*
X191103Y351550D01*
Y354942D01*
X189443Y356602D01*
Y358105D01*
X191257Y359920D01*
Y366382D01*
G01X178000Y253414D02*
X176413Y251828D01*
X172541D01*
X165791Y258578D01*
Y316404D01*
X165076Y317118D01*
X163815D01*
X163100Y317833D01*
Y318844D01*
X163815Y319558D01*
X165076D01*
X165791Y320273D01*
Y321284D01*
X165076Y321998D01*
X163815D01*
X163100Y322713D01*
Y323724D01*
X163815Y324438D01*
X165076D01*
X165791Y325153D01*
Y326164D01*
X165076Y326878D01*
X163815D01*
X163100Y327593D01*
Y328604D01*
X163815Y329318D01*
X165076D01*
X165791Y330033D01*
Y331044D01*
X165076Y331758D01*
X163815D01*
X163100Y332473D01*
Y333484D01*
X163815Y334198D01*
X165076D01*
X165791Y334913D01*
Y336591D01*
X168300Y339100D01*
G01X185824Y270500D02*
Y273787D01*
X185288Y274323D01*
X180336D01*
X179800Y274859D01*
Y275617D01*
X180336Y276153D01*
X185288D01*
X185824Y276689D01*
Y277447D01*
X185288Y277983D01*
X180336D01*
X179800Y278519D01*
Y279277D01*
X180336Y279813D01*
X185288D01*
X185824Y280349D01*
Y287948D01*
X185109Y288663D01*
X180215D01*
X179500Y289378D01*
Y290388D01*
X180215Y291103D01*
X185109D01*
X185824Y291818D01*
Y295574D01*
X189781Y299531D01*
Y300542D01*
X188866Y301456D01*
Y302466D01*
X189581Y303181D01*
X190592D01*
X191506Y302267D01*
X192517D01*
X193232Y302982D01*
Y303992D01*
X192317Y304907D01*
Y305917D01*
X193032Y306632D01*
X194043D01*
X194957Y305718D01*
X195968D01*
X197081Y306832D01*
Y313064D01*
G01X208710Y271000D02*
Y272004D01*
X208007Y272707D01*
X207559D01*
X206952Y273314D01*
X203888D01*
X203352Y273850D01*
Y276464D01*
X202816Y277000D01*
X202058D01*
X201522Y276464D01*
Y273850D01*
X200986Y273314D01*
X200228D01*
X199692Y273850D01*
Y276464D01*
X199156Y277000D01*
X198398D01*
X197862Y276464D01*
Y273850D01*
X197326Y273314D01*
X196568D01*
X196032Y273850D01*
Y276464D01*
X195496Y277000D01*
X194738D01*
X194202Y276464D01*
Y273850D01*
X193666Y273314D01*
X192908D01*
X192372Y273850D01*
Y276464D01*
X191836Y277000D01*
X191078D01*
X190542Y276464D01*
Y273850D01*
X190006Y273314D01*
X188786D01*
X187500Y274600D01*
Y279300D01*
X189400Y281200D01*
X204200D01*
X205769Y279631D01*
X206631D01*
X208200Y281200D01*
Y283400D01*
X205114Y286486D01*
X190448D01*
X189386Y287548D01*
Y289052D01*
X203068Y302734D01*
Y311055D01*
G01X216067Y98483D02*
Y78090D01*
X219155Y75002D01*
G01X339000Y235386D02*
X330229D01*
X322729Y227886D01*
Y187376D01*
X314500Y179147D01*
Y177339D01*
X308946Y171784D01*
Y163041D01*
X315818Y156168D01*
Y152539D01*
X312314Y149035D01*
Y90035D01*
X305694Y83414D01*
Y64988D01*
G01X339000Y263766D02*
X330701D01*
X320084Y253149D01*
X304989D01*
X301300Y249460D01*
Y216966D01*
X298486Y214152D01*
Y207606D01*
X293903Y203023D01*
Y197631D01*
X301314Y190220D01*
Y153238D01*
X293771Y145695D01*
Y118404D01*
X290266Y114898D01*
Y73699D01*
X265266Y48699D01*
X246800D01*
X240550Y42449D01*
Y29066D01*
X235369Y23885D01*
G01X306400Y221500D02*
X306900D01*
X316964Y211436D01*
Y196694D01*
X307542Y187273D01*
Y185770D01*
X307810Y185501D01*
Y178476D01*
G01X335846Y50538D02*
X325167Y61217D01*
Y96746D01*
X324810Y97103D01*
X322057D01*
X321700Y97461D01*
Y97966D01*
X322057Y98323D01*
X324810D01*
X325167Y98681D01*
Y99186D01*
X324810Y99543D01*
X322057D01*
X321700Y99901D01*
Y100406D01*
X322057Y100763D01*
X324810D01*
X325167Y101121D01*
Y107467D01*
X324304Y108330D01*
Y108835D01*
X325482Y110013D01*
Y110518D01*
X325124Y110876D01*
X324619D01*
X323441Y109698D01*
X322936D01*
X322578Y110055D01*
Y110560D01*
X323756Y111738D01*
Y112244D01*
X323399Y112601D01*
X322894D01*
X321716Y111423D01*
X321211D01*
X320853Y111780D01*
Y112286D01*
X322031Y113464D01*
Y113969D01*
X321674Y114326D01*
X321168D01*
X319990Y113148D01*
X319485D01*
X319128Y113506D01*
Y114011D01*
X320306Y115189D01*
Y115694D01*
X319948Y116052D01*
X319443D01*
X318265Y114874D01*
X317760D01*
X317402Y115231D01*
Y115736D01*
X318580Y116915D01*
Y117420D01*
X318223Y117777D01*
X317718D01*
X316540Y116599D01*
X316034D01*
X313765Y118869D01*
Y126887D01*
X314375Y127497D01*
X318590D01*
X319200Y128107D01*
Y129327D01*
X318590Y129937D01*
X314375D01*
X313765Y130547D01*
Y147298D01*
X317038Y150572D01*
Y157388D01*
X311386Y163041D01*
Y169371D01*
X311400Y169386D01*
Y171200D01*
G01X335846Y54476D02*
X334020D01*
X329770Y58726D01*
Y90600D01*
X329513Y90857D01*
Y114148D01*
X329991Y114627D01*
Y126635D01*
X323294Y133332D01*
Y155600D01*
X322700Y156194D01*
X316200Y162700D01*
Y165600D01*
X315800Y166000D01*
Y166100D01*
X315800Y166856D01*
X316410Y167466D01*
X317800D01*
X318500Y166766D01*
Y165500D01*
X319700Y164300D01*
X322700D01*
G01X321377Y133469D02*
X315000Y139846D01*
Y146300D01*
X318258Y149558D01*
Y158608D01*
X314004Y162862D01*
Y165648D01*
G01X307131Y171200D02*
Y171931D01*
X313280Y178080D01*
Y180180D01*
X321509Y188409D01*
Y229809D01*
X331750Y240050D01*
X336850D01*
X339000Y242200D01*
G01X298256Y154353D02*
Y162344D01*
X288965Y171634D01*
X282853D01*
X280364Y174124D01*
Y181485D01*
X280921Y182042D01*
X283342D01*
X284800Y183500D01*
G01X291957Y154353D02*
Y160564D01*
X289883Y162638D01*
Y164917D01*
X288800Y166000D01*
X275635D01*
X275277Y166357D01*
Y169443D01*
X274920Y169800D01*
X274415D01*
X274057Y169443D01*
Y166357D01*
X273700Y166000D01*
X273195D01*
X272837Y166357D01*
Y169443D01*
X272480Y169800D01*
X271975D01*
X271617Y169443D01*
Y166357D01*
X271260Y166000D01*
X270755D01*
X270397Y166357D01*
Y169443D01*
X270040Y169800D01*
X269535D01*
X269177Y169443D01*
Y166357D01*
X268820Y166000D01*
X267600D01*
X265900Y167700D01*
Y170000D01*
X267100Y171200D01*
X272592D01*
X273563Y172171D01*
Y175937D01*
X271825Y177675D01*
X268867D01*
X267134Y179408D01*
G01X216967Y101517D02*
Y99703D01*
X216067D01*
Y98483D01*
G01X208322Y174496D02*
Y176406D01*
X208916Y177000D01*
G01X248442D02*
Y176800D01*
X249255Y175987D01*
X250200D01*
X251262Y174924D01*
Y174100D01*
X251836Y173527D01*
Y173259D01*
X252898Y172196D01*
X254125D01*
X254556Y171765D01*
Y169017D01*
X254199Y168659D01*
X252212D01*
X251855Y169017D01*
Y170743D01*
X251497Y171100D01*
X250992D01*
X250635Y170743D01*
Y169017D01*
X250277Y168659D01*
X249057D01*
X248700Y168302D01*
Y167797D01*
X249057Y167439D01*
X249867D01*
X250224Y167082D01*
Y166357D01*
X250581Y166000D01*
X251087D01*
X251444Y166357D01*
Y167082D01*
X251801Y167439D01*
X254199D01*
X254556Y167082D01*
Y165862D01*
X254000Y165306D01*
X252868D01*
X251262Y163700D01*
Y162237D01*
X249448Y160422D01*
G01X226006Y177000D02*
Y176523D01*
X224822Y175339D01*
Y173836D01*
X226006Y172652D01*
Y170902D01*
X226091Y170817D01*
Y169314D01*
X226006Y169229D01*
Y165986D01*
X225574Y165555D01*
X220135D01*
X219704Y165124D01*
Y159039D01*
X220135Y158608D01*
X222119D01*
X222550Y158176D01*
Y130384D01*
X222982Y129953D01*
X234517D01*
X234874Y130310D01*
Y134643D01*
X235231Y135000D01*
X235737D01*
X236094Y134643D01*
Y130310D01*
X236451Y129953D01*
X236957D01*
X237314Y130310D01*
Y134643D01*
X237671Y135000D01*
X238177D01*
X238534Y134643D01*
Y130310D01*
X238891Y129953D01*
X244957D01*
X245389Y129521D01*
Y124315D01*
X245820Y123884D01*
X246288D01*
Y122069D01*
G01X247222Y177000D02*
Y172400D01*
X245351Y170528D01*
X242103D01*
X241745Y170885D01*
Y173443D01*
X241388Y173800D01*
X240883D01*
X240525Y173443D01*
Y170885D01*
X240168Y170528D01*
X239663D01*
X239305Y170885D01*
Y173443D01*
X238948Y173800D01*
X238443D01*
X238085Y173443D01*
Y170885D01*
X237728Y170528D01*
X237223D01*
X236865Y170885D01*
Y173443D01*
X236508Y173800D01*
X236003D01*
X235645Y173443D01*
Y170885D01*
X235288Y170528D01*
X234783D01*
X234425Y170885D01*
Y173443D01*
X234068Y173800D01*
X233563D01*
X233205Y173443D01*
Y170885D01*
X232848Y170528D01*
X231628D01*
X231000Y169900D01*
Y167900D01*
X231600Y167300D01*
X232820D01*
X233177Y166943D01*
Y163157D01*
X233535Y162800D01*
X234040D01*
X234397Y163157D01*
Y166943D01*
X234755Y167300D01*
X235260D01*
X235617Y166943D01*
Y163157D01*
X235975Y162800D01*
X236480D01*
X236837Y163157D01*
Y166943D01*
X237195Y167300D01*
X237700D01*
X238057Y166943D01*
Y163157D01*
X238415Y162800D01*
X238920D01*
X239277Y163157D01*
Y166943D01*
X239635Y167300D01*
X240140D01*
X240497Y166943D01*
Y163157D01*
X240855Y162800D01*
X241360D01*
X241717Y163157D01*
Y166943D01*
X242075Y167300D01*
X243498D01*
X243500Y167298D01*
X246791D01*
X247222Y166867D01*
Y157708D01*
X247862Y157068D01*
Y154353D01*
G01X257311D02*
Y154789D01*
X255900Y156200D01*
X253955D01*
X253597Y156557D01*
Y157123D01*
X253240Y157480D01*
X252735D01*
X252377Y157123D01*
Y156557D01*
X252020Y156200D01*
X250800D01*
X249981Y157019D01*
Y157881D01*
X250800Y158700D01*
X253643D01*
X254790Y159847D01*
X256010D01*
X256367Y159490D01*
Y158770D01*
X256724Y158413D01*
X257230D01*
X257587Y158770D01*
Y159490D01*
X257944Y159847D01*
X259082D01*
X259513Y160278D01*
Y161246D01*
X259082Y161677D01*
X256306D01*
X255875Y162108D01*
Y166705D01*
X256306Y167136D01*
X259103D01*
X259535Y167567D01*
Y169935D01*
X259103Y170366D01*
X258136D01*
X257705Y169935D01*
Y169397D01*
X257273Y168966D01*
X256306D01*
X255875Y169397D01*
Y177000D01*
G01X262036Y134176D02*
Y122069D01*
G01X202330Y177000D02*
Y173069D01*
X210548Y164851D01*
Y137672D01*
X213705Y134515D01*
X216862D01*
G01X286649Y143381D02*
Y151364D01*
X286218Y151795D01*
X247272D01*
X244713Y154353D01*
G01X216144Y177000D02*
X214314Y175170D01*
Y168156D01*
X218484Y163987D01*
Y157591D01*
X219907Y156168D01*
X220899D01*
X221330Y155736D01*
Y129164D01*
X221762Y128733D01*
X233504D01*
X241997Y120239D01*
X263355D01*
X265185Y122069D01*
G01X287232D02*
X286333Y122969D01*
Y141131D01*
X276889Y150575D01*
X228691D01*
X227151Y152116D01*
Y156738D01*
X228451Y158038D01*
Y177000D01*
G01X261534Y161083D02*
Y156599D01*
X261966Y156168D01*
X264946D01*
X266760Y154353D01*
G01X271000Y190078D02*
X289774D01*
X290206Y190510D01*
Y191477D01*
X289774Y191908D01*
X285798D01*
X285367Y192340D01*
Y193307D01*
X285798Y193738D01*
X291604D01*
X292036Y193307D01*
Y181665D01*
G01X231374Y140870D02*
X240306D01*
X240664Y140513D01*
Y136857D01*
X241021Y136500D01*
X241526D01*
X241884Y136857D01*
Y140513D01*
X242241Y140870D01*
X242746D01*
X243104Y140513D01*
Y136857D01*
X243461Y136500D01*
X243966D01*
X244324Y136857D01*
Y140513D01*
X244681Y140870D01*
X245186D01*
X245544Y140513D01*
Y136857D01*
X245901Y136500D01*
X246406D01*
X246764Y136857D01*
Y140513D01*
X247121Y140870D01*
X274683D01*
X284083Y131470D01*
Y122069D01*
G01X276209Y154353D02*
Y157312D01*
X274914Y158608D01*
X264116D01*
X263684Y159039D01*
Y167411D01*
X263327Y167768D01*
X261357D01*
X261000Y168125D01*
Y168631D01*
X261357Y168988D01*
X263327D01*
X263684Y169345D01*
Y169851D01*
X263327Y170208D01*
X261357D01*
X261000Y170565D01*
Y171071D01*
X261357Y171428D01*
X263327D01*
X263684Y171785D01*
Y177000D01*
G01X343720Y58412D02*
X341052D01*
X337927Y61538D01*
Y92045D01*
X335812Y94160D01*
Y105558D01*
X336422Y106167D01*
X340790D01*
X341400Y106778D01*
Y107997D01*
X340790Y108608D01*
X336422D01*
X335812Y109217D01*
Y113720D01*
X336169Y114078D01*
X337143D01*
X337500Y114435D01*
Y114940D01*
X337143Y115297D01*
X336169D01*
X335812Y115655D01*
Y116875D01*
X334939Y117747D01*
Y118252D01*
X335591Y118904D01*
Y119409D01*
X335233Y119767D01*
X334728D01*
X334076Y119115D01*
X333571D01*
X332431Y120255D01*
Y123946D01*
X332789Y124303D01*
X336043D01*
X336400Y124661D01*
Y125166D01*
X336043Y125523D01*
X332789D01*
X332431Y125881D01*
Y126386D01*
X332789Y126743D01*
X336043D01*
X336400Y127101D01*
Y127606D01*
X336043Y127963D01*
X332789D01*
X332431Y128321D01*
Y128826D01*
X332789Y129183D01*
X336043D01*
X336400Y129541D01*
Y130046D01*
X336043Y130403D01*
X332789D01*
X332431Y130761D01*
Y131266D01*
X332789Y131623D01*
X336043D01*
X336400Y131981D01*
Y132486D01*
X336043Y132843D01*
X332789D01*
X332431Y133201D01*
Y136959D01*
X332789Y137316D01*
X336343D01*
X336700Y137673D01*
Y138179D01*
X336343Y138536D01*
X332789D01*
X332431Y138893D01*
Y139399D01*
X332789Y139756D01*
X336343D01*
X336700Y140113D01*
Y140619D01*
X336343Y140976D01*
X332789D01*
X332431Y141333D01*
Y142553D01*
X332789Y142911D01*
X333743D01*
X334100Y143268D01*
Y143773D01*
X333743Y144131D01*
X332789D01*
X330648Y146271D01*
Y146776D01*
X332512Y148639D01*
Y149145D01*
X332154Y149502D01*
X331649D01*
X329786Y147639D01*
X329280D01*
X328417Y148502D01*
Y149728D01*
X328775Y150085D01*
X329543D01*
X329900Y150443D01*
Y150948D01*
X329543Y151305D01*
X328775D01*
X328417Y151663D01*
Y156046D01*
X325734Y158729D01*
Y162935D01*
X326092Y163293D01*
X328443D01*
X328800Y163650D01*
Y164155D01*
X328443Y164513D01*
X326092D01*
X325734Y164870D01*
Y165375D01*
X326092Y165733D01*
X328443D01*
X328800Y166090D01*
Y166595D01*
X328443Y166953D01*
X326092D01*
X325734Y167310D01*
Y167815D01*
X326092Y168173D01*
X328443D01*
X328800Y168530D01*
Y169035D01*
X328443Y169393D01*
X326092D01*
X323632Y171853D01*
Y172611D01*
X325981Y174961D01*
Y175719D01*
X325445Y176255D01*
X324687D01*
X322337Y173905D01*
X321579D01*
X320484Y175000D01*
X317700D01*
G01X343720Y42664D02*
X341597Y44787D01*
Y55290D01*
X340597Y56290D01*
X339281D01*
X334031Y61540D01*
Y97279D01*
X333674Y97636D01*
X332757D01*
X332400Y97994D01*
Y98499D01*
X332757Y98856D01*
X333674D01*
X334031Y99214D01*
Y99719D01*
X333674Y100076D01*
X332757D01*
X332400Y100434D01*
Y100939D01*
X332757Y101296D01*
X333674D01*
X334031Y101654D01*
Y113251D01*
X333674Y113608D01*
X331657D01*
X331300Y113965D01*
Y114470D01*
X331657Y114828D01*
X333674D01*
X334031Y115185D01*
Y116405D01*
X331211Y119225D01*
Y129581D01*
X330854Y129938D01*
X329257D01*
X328900Y130295D01*
Y130801D01*
X329257Y131158D01*
X330854D01*
X331211Y131515D01*
Y132735D01*
X328471Y135476D01*
Y135981D01*
X330492Y138003D01*
Y138508D01*
X330135Y138865D01*
X329629D01*
X327608Y136844D01*
X327103D01*
X326745Y137201D01*
Y137707D01*
X328767Y139728D01*
Y140233D01*
X328409Y140591D01*
X327904D01*
X325883Y138569D01*
X325377D01*
X324514Y139432D01*
Y140890D01*
X324872Y141247D01*
X325843D01*
X326200Y141604D01*
Y142110D01*
X325843Y142467D01*
X324872D01*
X324514Y142824D01*
Y143330D01*
X324872Y143687D01*
X325843D01*
X326200Y144044D01*
Y144550D01*
X325843Y144907D01*
X324872D01*
X324514Y145264D01*
Y145770D01*
X324872Y146127D01*
X325843D01*
X326200Y146484D01*
Y146990D01*
X325843Y147347D01*
X324872D01*
X324514Y147704D01*
Y148210D01*
X324872Y148567D01*
X325843D01*
X326200Y148924D01*
Y149430D01*
X325843Y149787D01*
X324872D01*
X324514Y150144D01*
Y150650D01*
X324872Y151007D01*
X325843D01*
X326200Y151364D01*
Y151870D01*
X325843Y152227D01*
X324872D01*
X324514Y152584D01*
Y169052D01*
X323352Y170214D01*
X321848D01*
X320320Y168686D01*
X317114D01*
X315300Y170500D01*
G01X240626Y271000D02*
Y271752D01*
X242094Y273219D01*
Y273643D01*
X242452Y274000D01*
X242957D01*
X243314Y273643D01*
Y273219D01*
X243672Y272862D01*
X245562D01*
X247900Y275200D01*
X248292D01*
X261626Y288534D01*
Y296374D01*
X258341Y299660D01*
X258049D01*
X251204Y306504D01*
Y307504D01*
X251819Y308119D01*
X252681D01*
X253850Y306950D01*
Y306150D01*
X257300Y302700D01*
X258790D01*
X259400Y303310D01*
Y304200D01*
X258900Y304700D01*
X258841D01*
X258341Y305200D01*
Y307429D01*
X262319Y311407D01*
Y313816D01*
X262400Y313897D01*
Y315638D01*
X261058Y316980D01*
Y317642D01*
X260581Y318119D01*
X259719D01*
X259600Y318000D01*
Y315278D01*
X259200Y314878D01*
X258476D01*
X258119Y315236D01*
Y317843D01*
X257762Y318200D01*
X257256D01*
X256899Y317843D01*
Y315236D01*
X256542Y314878D01*
X256036D01*
X255679Y315236D01*
Y317843D01*
X255322Y318200D01*
X254816D01*
X254459Y317843D01*
Y315236D01*
X254102Y314878D01*
X253596D01*
X253239Y315236D01*
Y317843D01*
X252882Y318200D01*
X252376D01*
X252019Y317843D01*
Y315236D01*
X251662Y314878D01*
X251156D01*
X250799Y315236D01*
Y317843D01*
X250442Y318200D01*
X249936D01*
X249579Y317843D01*
Y315236D01*
X249222Y314878D01*
X248716D01*
X248359Y315236D01*
Y317843D01*
X248002Y318200D01*
X247496D01*
X247139Y317843D01*
Y315236D01*
X246782Y314878D01*
X246276D01*
X245919Y315236D01*
Y317843D01*
X245562Y318200D01*
X245056D01*
X244699Y317843D01*
Y315236D01*
X244342Y314878D01*
X243122D01*
X242400Y315600D01*
Y322054D01*
X242439Y322092D01*
G01X214800Y271000D02*
Y272659D01*
X215336Y273195D01*
X217764D01*
X218300Y273731D01*
Y274489D01*
X217764Y275025D01*
X215336D01*
X214800Y275561D01*
Y276319D01*
X215336Y276855D01*
X217764D01*
X218300Y277391D01*
Y278149D01*
X217764Y278685D01*
X215336D01*
X214800Y279221D01*
Y284100D01*
X216900Y286200D01*
X218600D01*
X219315Y285485D01*
Y281115D01*
X220030Y280400D01*
X221040D01*
X221755Y281115D01*
Y285485D01*
X222470Y286200D01*
X226414D01*
X226950Y285664D01*
Y275836D01*
X227486Y275300D01*
X228244D01*
X228780Y275836D01*
Y285664D01*
X229316Y286200D01*
X230074D01*
X230610Y285664D01*
Y275836D01*
X231146Y275300D01*
X231904D01*
X232440Y275836D01*
Y285664D01*
X232976Y286200D01*
X233734D01*
X234270Y285664D01*
Y275836D01*
X234806Y275300D01*
X235564D01*
X236100Y275836D01*
Y285664D01*
X236636Y286200D01*
X238500D01*
X243000Y281700D01*
G01X295536Y217916D02*
X290986Y222466D01*
Y250087D01*
X297549Y256651D01*
G01X220631Y353548D02*
Y333659D01*
X219461Y332489D01*
Y331984D01*
X221370Y330075D01*
Y329570D01*
X221012Y329212D01*
X220507D01*
X218598Y331121D01*
X218093D01*
X217735Y330764D01*
Y330259D01*
X219644Y328350D01*
Y327844D01*
X219287Y327487D01*
X218782D01*
X216873Y329396D01*
X216367D01*
X216010Y329038D01*
Y328533D01*
X217919Y326624D01*
Y326119D01*
X217561Y325762D01*
X217056D01*
X215147Y327670D01*
X214642D01*
X214284Y327313D01*
Y326808D01*
X216193Y324899D01*
Y324394D01*
X215836Y324036D01*
X215331D01*
X213422Y325945D01*
X212917D01*
X209128Y322157D01*
Y318218D01*
X211140Y316206D01*
X211645D01*
X213667Y318228D01*
X214172D01*
X214530Y317870D01*
Y317365D01*
X212508Y315343D01*
Y314838D01*
X212866Y314480D01*
X213371D01*
X215392Y316502D01*
X215898D01*
X216255Y316145D01*
Y315640D01*
X214233Y313618D01*
Y313113D01*
X217000Y310346D01*
Y307537D01*
X216643Y307180D01*
X211457D01*
X211100Y306822D01*
Y306317D01*
X211457Y305960D01*
X216643D01*
X217000Y305602D01*
Y305097D01*
X216643Y304740D01*
X211457D01*
X211100Y304382D01*
Y303877D01*
X211457Y303520D01*
X216643D01*
X217000Y303162D01*
Y302657D01*
X216643Y302300D01*
X211457D01*
X211100Y301942D01*
Y301437D01*
X211457Y301080D01*
X216643D01*
X217000Y300722D01*
Y300217D01*
X216643Y299860D01*
X211457D01*
X211100Y299502D01*
Y298997D01*
X211457Y298640D01*
X216643D01*
X217000Y298282D01*
Y297777D01*
X216643Y297420D01*
X211457D01*
X211100Y297062D01*
Y296557D01*
X211457Y296200D01*
X216643D01*
X217000Y295842D01*
Y292200D01*
G01X222394Y288076D02*
Y290062D01*
X222751Y290420D01*
X224943D01*
X225300Y290777D01*
Y291282D01*
X224943Y291640D01*
X222751D01*
X222394Y291997D01*
Y292502D01*
X222751Y292860D01*
X224943D01*
X225300Y293217D01*
Y293722D01*
X224943Y294080D01*
X222751D01*
X222394Y294437D01*
Y294942D01*
X222751Y295300D01*
X224943D01*
X225300Y295657D01*
Y296162D01*
X224943Y296520D01*
X222751D01*
X222394Y296877D01*
Y297382D01*
X222751Y297740D01*
X224943D01*
X225300Y298097D01*
Y298602D01*
X224943Y298960D01*
X222751D01*
X222394Y299317D01*
Y300537D01*
X223402Y301546D01*
Y302051D01*
X221779Y303674D01*
Y304179D01*
X222137Y304537D01*
X222642D01*
X224265Y302914D01*
X224770D01*
X225343Y303486D01*
X225848D01*
X227415Y301920D01*
X227920D01*
X228277Y302277D01*
Y302782D01*
X226711Y304349D01*
Y304854D01*
X227068Y305212D01*
X227574D01*
X229140Y303645D01*
X229645D01*
X230003Y304003D01*
Y304508D01*
X228436Y306074D01*
Y306580D01*
X228794Y306937D01*
X229299D01*
X230865Y305371D01*
X231371D01*
X231728Y305728D01*
Y306233D01*
X230162Y307800D01*
Y308305D01*
X230519Y308662D01*
X231024D01*
X232591Y307096D01*
X233096D01*
X233453Y307454D01*
Y307959D01*
X231887Y309525D01*
Y310030D01*
X232750Y310893D01*
Y315636D01*
X232393Y315993D01*
X229357D01*
X229000Y316350D01*
Y316856D01*
X229357Y317213D01*
X232393D01*
X232750Y317570D01*
Y317671D01*
X234719Y319639D01*
Y324419D01*
X235300Y325000D01*
X238004D01*
X238400Y325396D01*
Y325902D01*
X238043Y326259D01*
X236736D01*
X236379Y326616D01*
Y327122D01*
X236736Y327479D01*
X238043D01*
X238400Y327836D01*
Y328342D01*
X238043Y328699D01*
X236736D01*
X236379Y329056D01*
Y329562D01*
X236736Y329919D01*
X238043D01*
X238400Y330276D01*
Y330782D01*
X238043Y331139D01*
X236736D01*
X236379Y331497D01*
Y332002D01*
X236736Y332359D01*
X238043D01*
X238400Y332716D01*
Y333222D01*
X238043Y333579D01*
X236736D01*
X236379Y333936D01*
Y334442D01*
X236736Y334799D01*
X238043D01*
X238400Y335156D01*
Y335662D01*
X238043Y336019D01*
X236736D01*
X236379Y336376D01*
Y336882D01*
X236736Y337239D01*
X238043D01*
X238400Y337597D01*
Y338102D01*
X238043Y338459D01*
X236736D01*
X236379Y338816D01*
Y339322D01*
X236736Y339679D01*
X238043D01*
X238400Y340036D01*
Y340542D01*
X238043Y340899D01*
X236736D01*
X236379Y341257D01*
Y341762D01*
X236736Y342119D01*
X238043D01*
X238400Y342476D01*
Y342982D01*
X238043Y343339D01*
X236736D01*
X236379Y343696D01*
Y345758D01*
G01X222754Y372048D02*
Y364288D01*
X232442Y354600D01*
Y322738D01*
X227200Y317496D01*
Y312400D01*
X224900Y310100D01*
X224600D01*
G01X220100Y301000D02*
Y292600D01*
X215465Y287965D01*
X213922D01*
X213811Y288076D01*
X210429D01*
G01X248344Y320083D02*
X248190Y320237D01*
Y322844D01*
X246872Y324162D01*
Y326943D01*
X246157Y327658D01*
X245115D01*
X244400Y328372D01*
Y329383D01*
X245115Y330098D01*
X246157D01*
X246872Y330812D01*
Y334428D01*
G01X246700Y271000D02*
Y272000D01*
X247132Y272432D01*
X247994D01*
X248763Y271663D01*
X250388D01*
X250746Y272020D01*
Y274808D01*
X251103Y275166D01*
X251608D01*
X251966Y274808D01*
Y272020D01*
X252323Y271663D01*
X253543D01*
X253900Y272020D01*
Y278343D01*
X254258Y278700D01*
X254763D01*
X255120Y278343D01*
Y272020D01*
X255478Y271663D01*
X256698D01*
X257849Y272814D01*
X257876D01*
X258234Y273172D01*
Y277643D01*
X258591Y278000D01*
X259096D01*
X259454Y277643D01*
Y273172D01*
X259811Y272814D01*
X260316D01*
X260674Y273172D01*
Y277643D01*
X261031Y278000D01*
X261536D01*
X261894Y277643D01*
Y273172D01*
X262251Y272814D01*
X262756D01*
X263114Y273172D01*
Y277643D01*
X263471Y278000D01*
X263976D01*
X264334Y277643D01*
Y273172D01*
X264691Y272814D01*
X265911D01*
X266696Y273600D01*
Y279204D01*
X266197Y279703D01*
X257797D01*
X256700Y280800D01*
Y281800D01*
X257250Y282350D01*
X257350D01*
X260400Y285400D01*
X260900Y285400D01*
X261300Y285400D01*
X261900Y284800D01*
X262800Y283900D01*
X264800D01*
X265600Y284700D01*
Y284704D01*
X266696Y285800D01*
Y292706D01*
X266160Y293242D01*
X263736D01*
X263200Y293778D01*
Y294536D01*
X263736Y295072D01*
X266160D01*
X266696Y295609D01*
Y296366D01*
X266160Y296902D01*
X263736D01*
X263200Y297438D01*
Y298196D01*
X263736Y298732D01*
X266160D01*
X266696Y299268D01*
Y301010D01*
X267232Y301546D01*
X268364D01*
X268900Y302082D01*
Y302840D01*
X268364Y303376D01*
X267232D01*
X266696Y303912D01*
Y304186D01*
X265982Y304901D01*
X264554D01*
X263839Y305616D01*
Y306626D01*
X264554Y307341D01*
X265982D01*
X266696Y308056D01*
Y313067D01*
X262278Y317485D01*
Y319664D01*
X260155Y321786D01*
G01X242439Y372048D02*
Y371133D01*
X243338Y370234D01*
X265765D01*
X272400Y363599D01*
Y360926D01*
X271498Y360024D01*
X268036D01*
X267500Y359488D01*
Y358730D01*
X268036Y358194D01*
X271498D01*
X272034Y357658D01*
Y356900D01*
X271498Y356364D01*
X268036D01*
X267500Y355828D01*
Y355070D01*
X268036Y354534D01*
X271498D01*
X272034Y353998D01*
Y353240D01*
X271498Y352704D01*
X268036D01*
X267500Y352168D01*
Y351410D01*
X268036Y350874D01*
X271498D01*
X272034Y350338D01*
Y257720D01*
X271000Y256686D01*
G01Y253536D02*
X273254Y255790D01*
Y286827D01*
X273790Y287363D01*
X277664D01*
X278200Y287899D01*
Y288657D01*
X277664Y289193D01*
X273790D01*
X273254Y289729D01*
Y290487D01*
X273790Y291023D01*
X277664D01*
X278200Y291559D01*
Y292317D01*
X277664Y292853D01*
X273790D01*
X273254Y293389D01*
Y294147D01*
X273790Y294683D01*
X277664D01*
X278200Y295219D01*
Y295977D01*
X277664Y296513D01*
X273790D01*
X273254Y297049D01*
Y297807D01*
X273790Y298343D01*
X277664D01*
X278200Y298879D01*
Y299637D01*
X277664Y300173D01*
X273790D01*
X273254Y300709D01*
Y301467D01*
X273790Y302003D01*
X277664D01*
X278200Y302539D01*
Y303297D01*
X277664Y303833D01*
X273790D01*
X273254Y304369D01*
Y305127D01*
X273790Y305663D01*
X277664D01*
X278200Y306199D01*
Y306957D01*
X277664Y307493D01*
X273790D01*
X273254Y308029D01*
Y336302D01*
X275069Y338116D01*
G01X270814Y271000D02*
Y272809D01*
X270278Y273345D01*
X268836D01*
X268300Y273881D01*
Y274639D01*
X268836Y275175D01*
X270278D01*
X270814Y275711D01*
Y276469D01*
X270278Y277005D01*
X268836D01*
X268300Y277541D01*
Y278299D01*
X268836Y278835D01*
X270278D01*
X270814Y279371D01*
Y283784D01*
X270278Y284320D01*
X268636D01*
X268100Y284856D01*
Y285614D01*
X268636Y286150D01*
X270278D01*
X270814Y286686D01*
Y290609D01*
X270457Y290967D01*
X268657D01*
X268300Y291324D01*
Y291830D01*
X268657Y292187D01*
X270457D01*
X270814Y292544D01*
Y293764D01*
X270278Y294300D01*
X268636D01*
X268100Y294836D01*
Y295594D01*
X268636Y296130D01*
X270278D01*
X270814Y296666D01*
Y297424D01*
X270278Y297960D01*
X268636D01*
X268100Y298496D01*
Y299254D01*
X268636Y299790D01*
X270278D01*
X270814Y300326D01*
Y309923D01*
X269921Y310816D01*
X268993D01*
X268100Y311709D01*
Y312973D01*
X268993Y313866D01*
X269921D01*
X270814Y314759D01*
Y318421D01*
X270278Y318957D01*
X268896D01*
X268360Y319493D01*
Y320251D01*
X268896Y320787D01*
X270278D01*
X270814Y321323D01*
Y322081D01*
X270278Y322617D01*
X268896D01*
X268360Y323153D01*
Y323911D01*
X268896Y324447D01*
X270278D01*
X270814Y324983D01*
Y328939D01*
X270278Y329475D01*
X265136D01*
X264600Y330011D01*
Y330769D01*
X265136Y331305D01*
X270278D01*
X270814Y331841D01*
Y333061D01*
X270278Y333597D01*
X268896D01*
X268360Y334133D01*
Y334891D01*
X268896Y335427D01*
X270278D01*
X270814Y335963D01*
Y336721D01*
X270278Y337257D01*
X268896D01*
X268360Y337793D01*
Y338551D01*
X268896Y339087D01*
X270278D01*
X270814Y339623D01*
Y340381D01*
X270278Y340917D01*
X268896D01*
X268360Y341453D01*
Y342211D01*
X268896Y342747D01*
X270278D01*
X270814Y343283D01*
Y344680D01*
X260000Y355494D01*
Y366200D01*
X260200Y366400D01*
G01X232596Y366382D02*
X234410Y368196D01*
X239316D01*
X240316Y367196D01*
Y364983D01*
X240852Y364447D01*
X242050D01*
X242586Y363911D01*
Y363153D01*
X242050Y362617D01*
X240852D01*
X240316Y362081D01*
Y361323D01*
X240852Y360787D01*
X242050D01*
X242586Y360251D01*
Y359493D01*
X242050Y358957D01*
X240852D01*
X240316Y358421D01*
Y355586D01*
X240852Y355050D01*
X244250D01*
X244786Y354514D01*
Y353756D01*
X244250Y353220D01*
X240852D01*
X240316Y352684D01*
Y351464D01*
X240852Y350928D01*
X244664D01*
X245200Y350392D01*
Y349634D01*
X244664Y349098D01*
X240852D01*
X240316Y348562D01*
Y347804D01*
X240852Y347268D01*
X244664D01*
X245200Y346732D01*
Y345974D01*
X244664Y345438D01*
X240852D01*
X240316Y344902D01*
Y344144D01*
X240852Y343608D01*
X244664D01*
X245200Y343072D01*
Y342314D01*
X244664Y341778D01*
X240852D01*
X240316Y341242D01*
Y340484D01*
X240852Y339948D01*
X244664D01*
X245200Y339412D01*
Y338654D01*
X244664Y338118D01*
X240852D01*
X240316Y337582D01*
Y336144D01*
X241200Y335259D01*
Y333704D01*
X240316Y332819D01*
Y307352D01*
X226800Y293836D01*
Y288800D01*
G01X243401Y308372D02*
Y306547D01*
X229600Y292746D01*
Y288900D01*
G01X207046Y323796D02*
X216694Y333443D01*
Y354879D01*
G01X224722Y359363D02*
X225316Y358769D01*
X225320D01*
X226845Y357244D01*
Y354500D01*
X230400Y350944D01*
Y330310D01*
X224722Y324632D01*
X224300Y323800D01*
G01X383700Y53500D02*
X393947D01*
X395874Y51573D01*
G01X383700Y53500D02*
X372254D01*
X371278Y54476D01*
G01X380753Y46683D02*
X380783D01*
X383700Y49600D01*
Y53500D01*
G01X391109Y50723D02*
Y48909D01*
X391272Y48746D01*
Y46683D01*
G01X344233Y78401D02*
Y76586D01*
X345534Y75285D01*
Y37855D01*
X344284Y36605D01*
X342847D01*
X341597Y35355D01*
Y32668D01*
X339782Y30854D01*
G01X343720D02*
X345534Y32668D01*
X363873D01*
X365373Y34168D01*
Y90698D01*
X365478Y90804D01*
Y120849D01*
X366698Y122069D01*
G01X341405Y172872D02*
X342072D01*
X344334Y175134D01*
G01X340668Y175000D02*
X338539Y172871D01*
G01X339000Y217210D02*
X336655D01*
X333530Y214085D01*
Y176970D01*
G01X351416Y175000D02*
Y171976D01*
X350416Y170976D01*
X337189D01*
X335133Y173033D01*
G01X404400Y123970D02*
Y108803D01*
X403773Y108176D01*
Y106673D01*
X404400Y106046D01*
Y105721D01*
X403578D01*
G01X394558Y115951D02*
X392498D01*
X387498Y110951D01*
Y105726D01*
G01X426738Y133014D02*
X426144Y133608D01*
X424884D01*
X421384Y137108D01*
Y175000D01*
G01X366698Y122069D02*
Y154468D01*
X361964Y159202D01*
G01X396526Y123970D02*
X394626Y122069D01*
X366698D01*
G01X388806Y134000D02*
X398235Y143429D01*
X402820D01*
X407406Y148014D01*
Y175000D01*
G01X412560Y167444D02*
X415286Y170170D01*
Y175000D01*
G01X410434D02*
Y142753D01*
X410003Y142322D01*
X409531D01*
Y140508D01*
G01X380302Y123970D02*
Y128269D01*
X379870Y128701D01*
X374727D01*
X374295Y129132D01*
Y134369D01*
X373864Y134800D01*
X369237D01*
X368805Y135231D01*
Y138357D01*
X368600Y138563D01*
Y139859D01*
X369031Y140290D01*
X370204D01*
X370635Y140721D01*
Y141689D01*
X370204Y142120D01*
X369031D01*
X368600Y142551D01*
Y143519D01*
X369031Y143950D01*
X370204D01*
X370635Y144381D01*
Y145349D01*
X370204Y145780D01*
X368395D01*
X367964Y146211D01*
Y147179D01*
X368395Y147610D01*
X370204D01*
X370635Y148041D01*
Y150839D01*
X371067Y151270D01*
X372034D01*
X372465Y150839D01*
Y137001D01*
X372897Y136570D01*
X373864D01*
X374295Y137001D01*
Y145168D01*
X374727Y145599D01*
X381141D01*
X381573Y146031D01*
Y146998D01*
X381141Y147429D01*
X374727D01*
X374295Y147860D01*
Y152108D01*
X373864Y152539D01*
X371067D01*
X370635Y152970D01*
Y157838D01*
X370204Y158269D01*
X369884D01*
X368821Y159332D01*
Y160835D01*
X369884Y161898D01*
X370204D01*
X370635Y162329D01*
Y162971D01*
X371067Y163402D01*
X372034D01*
X372465Y163833D01*
Y166021D01*
X372897Y166452D01*
X376313D01*
X376744Y166883D01*
Y169681D01*
X377175Y170112D01*
X379973D01*
X380404Y170543D01*
Y171511D01*
X380835Y171942D01*
X383756D01*
X386814Y175000D01*
G01X361553Y122069D02*
Y123884D01*
X360581D01*
X360150Y124315D01*
Y163846D01*
X360581Y164277D01*
X368984D01*
X369415Y164708D01*
Y172731D01*
X369847Y173162D01*
X382453D01*
X382884Y173593D01*
Y175000D01*
G01X355581D02*
Y171598D01*
X356013Y171167D01*
X357542D01*
X357973Y170736D01*
Y169768D01*
X357542Y169337D01*
X356013D01*
X355581Y168906D01*
Y168368D01*
X355150Y167937D01*
X351642D01*
X351284Y167580D01*
Y164524D01*
X350927Y164167D01*
X350422D01*
X350064Y164524D01*
Y167580D01*
X349707Y167937D01*
X349202D01*
X348844Y167580D01*
Y164524D01*
X348487Y164167D01*
X347982D01*
X347624Y164524D01*
Y167580D01*
X347267Y167937D01*
X346762D01*
X346404Y167580D01*
Y164524D01*
X346047Y164167D01*
X345542D01*
X345184Y164524D01*
Y167580D01*
X344827Y167937D01*
X344322D01*
X343964Y167580D01*
Y164524D01*
X343607Y164167D01*
X343102D01*
X342744Y164524D01*
Y167580D01*
X342387Y167937D01*
X341882D01*
X341524Y167580D01*
Y164524D01*
X341167Y164167D01*
X340662D01*
X340304Y164524D01*
Y167580D01*
X339947Y167937D01*
X335705D01*
X335274Y167506D01*
Y166538D01*
X335705Y166107D01*
X337550D01*
X337981Y165676D01*
Y164708D01*
X337550Y164277D01*
X335705D01*
X335274Y163846D01*
Y162800D01*
X334843Y162368D01*
X332739D01*
X332308Y161937D01*
Y160970D01*
X332977Y160300D01*
X339500D01*
X349985Y149815D01*
Y132635D01*
X348750Y131400D01*
X343900D01*
X341900Y133400D01*
Y136840D01*
X342257Y137197D01*
X346743D01*
X347100Y137555D01*
Y138060D01*
X346743Y138417D01*
X342257D01*
X341900Y138775D01*
Y139280D01*
X342257Y139637D01*
X346743D01*
X347100Y139995D01*
Y140500D01*
X346743Y140857D01*
X342257D01*
X341900Y141215D01*
Y141720D01*
X342257Y142077D01*
X346743D01*
X347100Y142435D01*
Y142940D01*
X346743Y143297D01*
X342257D01*
X341900Y143655D01*
Y144160D01*
X342257Y144517D01*
X346743D01*
X347100Y144875D01*
Y145380D01*
X346743Y145737D01*
X342257D01*
X341900Y146095D01*
Y146600D01*
X342257Y146957D01*
X346743D01*
X347100Y147315D01*
Y147820D01*
X346743Y148177D01*
X342257D01*
X341900Y148535D01*
Y149040D01*
X342257Y149397D01*
X346743D01*
X347100Y149755D01*
Y150260D01*
X346743Y150617D01*
X342257D01*
X341900Y150975D01*
Y154600D01*
X339800Y156700D01*
X338700D01*
X337387Y155387D01*
Y153200D01*
X338800Y151787D01*
Y150660D01*
X338190Y150050D01*
X337150D01*
X335762Y151438D01*
Y151494D01*
X332902Y154353D01*
G01X402564Y175000D02*
Y156670D01*
X402133Y156239D01*
X401166D01*
X400734Y156670D01*
Y172739D01*
X400303Y173170D01*
X399336D01*
X398904Y172739D01*
Y155051D01*
X399336Y154620D01*
X404986D01*
X405418Y154189D01*
Y153221D01*
X404986Y152790D01*
X399336D01*
X398904Y152359D01*
Y145901D01*
X398473Y145470D01*
X393852D01*
G01X388216Y175000D02*
Y170752D01*
X387316Y169853D01*
Y168038D01*
G01X363778Y175000D02*
Y172693D01*
X365334Y171137D01*
X365363D01*
X367700Y168800D01*
Y166400D01*
X366800Y165500D01*
X363495D01*
X363137Y165857D01*
Y168743D01*
X362780Y169100D01*
X362275D01*
X361917Y168743D01*
Y165857D01*
X361560Y165500D01*
X361055D01*
X360697Y165857D01*
Y168743D01*
X360340Y169100D01*
X359835D01*
X359477Y168743D01*
Y165857D01*
X359120Y165500D01*
X357900D01*
X355700Y163300D01*
Y160648D01*
X356057Y160291D01*
X358243D01*
X358600Y159934D01*
Y159428D01*
X358243Y159071D01*
X356057D01*
X355700Y158714D01*
Y158208D01*
X356057Y157851D01*
X358243D01*
X358600Y157494D01*
Y156988D01*
X358243Y156631D01*
X356057D01*
X355700Y156274D01*
Y155768D01*
X356057Y155411D01*
X358243D01*
X358600Y155054D01*
Y154548D01*
X358243Y154191D01*
X356057D01*
X355700Y153834D01*
Y153328D01*
X356057Y152971D01*
X358243D01*
X358600Y152614D01*
Y152108D01*
X358243Y151751D01*
X356057D01*
X355700Y151394D01*
Y150888D01*
X356057Y150531D01*
X358243D01*
X358600Y150174D01*
Y149668D01*
X358243Y149311D01*
X356057D01*
X355700Y148954D01*
Y148448D01*
X356057Y148091D01*
X358243D01*
X358600Y147734D01*
Y147228D01*
X358243Y146871D01*
X356057D01*
X355700Y146514D01*
Y146008D01*
X356057Y145651D01*
X358243D01*
X358600Y145294D01*
Y144788D01*
X358243Y144431D01*
X356057D01*
X355700Y144074D01*
Y143568D01*
X356057Y143211D01*
X358243D01*
X358600Y142854D01*
Y142348D01*
X358243Y141991D01*
X356057D01*
X355700Y141634D01*
Y141128D01*
X356057Y140771D01*
X358243D01*
X358600Y140414D01*
Y139908D01*
X358243Y139551D01*
X356057D01*
X355700Y139194D01*
Y138688D01*
X356057Y138331D01*
X358243D01*
X358600Y137974D01*
Y137468D01*
X358243Y137111D01*
X356057D01*
X355700Y136754D01*
Y136248D01*
X356057Y135891D01*
X358243D01*
X358600Y135534D01*
Y135028D01*
X358243Y134671D01*
X356057D01*
X355700Y134314D01*
Y133808D01*
X356057Y133451D01*
X358243D01*
X358600Y133094D01*
Y132588D01*
X358243Y132231D01*
X356057D01*
X355700Y131874D01*
Y131368D01*
X356057Y131011D01*
X358243D01*
X358600Y130654D01*
Y130148D01*
X358243Y129791D01*
X356057D01*
X355700Y129434D01*
Y128928D01*
X356057Y128571D01*
X358243D01*
X358600Y128214D01*
Y127708D01*
X358243Y127351D01*
X356057D01*
X355700Y126994D01*
Y126488D01*
X356057Y126131D01*
X358243D01*
X358600Y125774D01*
Y125268D01*
X358243Y124911D01*
X356057D01*
X355700Y124554D01*
Y121900D01*
X353981Y120181D01*
X353119D01*
X340650Y132650D01*
Y152904D01*
X339201Y154353D01*
G01X416848Y175000D02*
Y120878D01*
X411521Y115551D01*
Y86963D01*
X407271Y82713D01*
X398722D01*
X396526Y80518D01*
G01X338300Y189500D02*
X339000D01*
G01X347788Y175000D02*
Y174634D01*
X349602Y172820D01*
G01X447000Y219636D02*
X468464D01*
X476464Y211636D01*
Y200436D01*
X481700Y195200D01*
G01X447000Y242344D02*
X448110D01*
X450110Y240344D01*
Y237666D01*
G01X474934Y263256D02*
X475773D01*
X478234Y265718D01*
Y269250D01*
X471884Y275600D01*
X461926D01*
X461711Y275386D01*
X460208D01*
X459993Y275600D01*
X449219D01*
X448619Y275000D01*
X447244D01*
X447000Y274756D01*
G01Y254550D02*
X459962D01*
X466212Y248300D01*
Y243571D01*
G01X447000Y267039D02*
X466967D01*
X470467Y263539D01*
Y260115D01*
X473231Y257351D01*
G01X447000Y205587D02*
X452418D01*
G01X339000Y261833D02*
X335695D01*
G01X543068Y170790D02*
X524783D01*
X506783Y188790D01*
Y276977D01*
X507683Y277877D01*
Y279691D01*
G01X536450Y174790D02*
X533672D01*
X516672Y191790D01*
Y273505D01*
X508672Y281505D01*
X500845D01*
X496053Y276714D01*
G01X531430Y182790D02*
X529014D01*
X521514Y190290D01*
Y275859D01*
X507682Y289691D01*
G01X474934Y245540D02*
X483714Y236760D01*
Y194604D01*
X481714Y192604D01*
X480454D01*
X479454Y191604D01*
Y175689D01*
X480353Y174790D01*
X481268D01*
G01X486859Y160903D02*
Y253256D01*
X477215Y262900D01*
X475291D01*
X474934Y263256D01*
G01X481048Y150805D02*
X489415D01*
X489577Y150643D01*
X491391D01*
G01X494862Y190463D02*
X501510D01*
X501712Y190261D01*
X503526D01*
G01X472847Y158977D02*
X474661Y157163D01*
X485862D01*
X494862Y166163D01*
Y190463D01*
G01D02*
X493047D01*
G01X447000Y246284D02*
X447145D01*
X464932Y228498D01*
X466435D01*
X471666Y233729D01*
X477343D01*
G01X474934Y241603D02*
X469247Y247290D01*
Y258253D01*
X466212Y261288D01*
G01X450393Y256925D02*
Y260925D01*
G01X447000Y273045D02*
X450434D01*
G01X460952Y264976D02*
Y262739D01*
X461663D01*
X462726Y261677D01*
Y260173D01*
X461663Y259111D01*
X460912D01*
Y256925D01*
G54D19*
X397469Y132765D03*
G54D29*
G01X358975Y88950D02*
X363270Y93245D01*
Y106658D01*
X337881Y132048D01*
Y145391D01*
X330100Y153172D01*
Y188133D01*
X330937Y188970D01*
Y216965D01*
X327498Y220403D01*
Y230954D01*
X329580Y233037D01*
X331020D01*
X331138Y232918D01*
X334979D01*
X335532Y233472D01*
G01X363096Y88950D02*
Y91125D01*
X363877Y91906D01*
X363904D01*
X364336Y92338D01*
Y107099D01*
X338946Y132489D01*
Y145832D01*
X331165Y153613D01*
Y187692D01*
X332002Y188528D01*
Y217406D01*
X328563Y220845D01*
Y229563D01*
X330300Y231300D01*
M02*
