G04 ================== begin FILE IDENTIFICATION RECORD ==================*
G04 Layout Name:  E:/EMB002/project/hardware/ikemb-0002-v2/12-ikemb-0002-v2.brd*
G04 Film Name:    Layer7*
G04 File Format:  Gerber RS274X*
G04 File Origin:  15.7-p007*
G04 Origin Date:  Fri Jun 13 17:33:33 2008*
G04 *
G04 Layer:  VIA CLASS/LAYER7*
G04 Layer:  PIN/LAYER7*
G04 Layer:  ETCH/LAYER7*
G04 Layer:  BOARD GEOMETRY/OUTLINE*
G04 *
G04 Offset:    (0.000 0.000)*
G04 Mirror:    No*
G04 Mode:      Positive*
G04 Rotation:  0*
G04 FullContactRelief:  No*
G04 UndefLineWidth:     8.000*
G04 ================== end FILE IDENTIFICATION RECORD ====================*
%FSLAX55Y55*MOIN*%
%IR0*IPPOS*OFA0.00000B0.00000*MIA0B0*SFA1.00000B1.00000*%
%ADD26R,.05X.12*%
%ADD25R,.12X.05*%
%ADD10C,.2*%
%ADD11C,.12*%
%ADD21C,.12598*%
%ADD18C,.04*%
%ADD14C,.05*%
%ADD15C,.032012*%
%ADD16C,.036*%
%ADD17C,.055*%
%ADD13C,.0433*%
%ADD23C,.083*%
%ADD20C,.04724*%
%ADD24C,.05984*%
%ADD19C,.06299*%
%ADD22R,.05984X.05984*%
%ADD12C,.017988*%
%ADD27C,.0041*%
%ADD28C,.0061*%
%ADD29C,.00455*%
%ADD30C,.01*%
%ADD31C,.03*%
%ADD32C,.008*%
G75*
%LPD*%
G75*
G54D10*
X41654Y352402D03*
X514094Y-37598D03*
X570210Y175337D03*
Y272537D03*
G54D20*
X559980Y18170D03*
X513520D03*
G54D11*
X176291Y22537D03*
Y42537D03*
Y62537D03*
Y82537D03*
X135291D03*
Y62537D03*
Y42537D03*
Y22537D03*
X134279Y317449D03*
Y297449D03*
Y277449D03*
Y257449D03*
X535500Y358500D03*
Y341500D03*
X518500D03*
Y358500D03*
G54D30*
G01X310650Y236020D02*
X310585Y235955D01*
X295445D01*
X287191Y244209D01*
Y244283D01*
G01X356966Y80830D02*
X338582D01*
X336113Y78361D01*
G01X363404Y66286D02*
X360466D01*
X356966Y69786D01*
Y80830D01*
G01X367187Y78418D02*
X364775Y80830D01*
X356966D01*
G01X363404Y62350D02*
X359468D01*
G01X373288Y48529D02*
Y37790D01*
X370288Y34790D01*
X367342D01*
G01X363404Y50538D02*
X365414Y48529D01*
X373288D01*
G01X380388Y55703D02*
X377788D01*
X373288Y51203D01*
Y48529D01*
G01X323318Y59369D02*
Y61378D01*
X323351Y61411D01*
Y64298D01*
G01X354864Y27304D02*
X357261Y24907D01*
X360300D01*
X362309Y26916D01*
X367341D01*
X371278Y30854D01*
G01X327912Y78396D02*
X332065Y74242D01*
X350614D01*
X354864Y69992D01*
Y27304D01*
G01D02*
X348735Y21175D01*
X343042D01*
X341792Y22425D01*
Y24489D01*
X341292Y24989D01*
X340682D01*
Y26017D01*
X339782Y26917D01*
G54D12*
X200384Y29609D03*
X147291Y74528D03*
X143785Y52662D03*
X147291Y42546D03*
X187291Y18528D03*
Y58528D03*
X161300Y57300D03*
X147291Y61528D03*
X187291Y40546D03*
Y80546D03*
X160849Y131242D03*
X199180Y188910D03*
X144444Y121585D03*
X165849Y131242D03*
X199180Y185760D03*
X186580Y192060D03*
X196030D03*
X188122Y174334D03*
X192880Y188910D03*
X189730Y195210D03*
X196202Y174496D03*
X196030Y182610D03*
X200242Y174496D03*
X199180Y192060D03*
X170100Y181100D03*
X160862Y199938D03*
X183430Y182610D03*
Y188910D03*
X192880Y182610D03*
X183430Y198360D03*
X189730Y185760D03*
X186580Y188910D03*
X192880Y185760D03*
X189730Y192060D03*
X196030Y188910D03*
X192880Y195210D03*
X199180D03*
X196030Y198360D03*
X200618Y154353D03*
X156833Y173676D03*
X172601Y151466D03*
X181494Y99374D03*
X186580Y198360D03*
Y201510D03*
X182612Y127339D03*
X178872D03*
X165849Y117260D03*
X147229Y101430D03*
X182612Y116316D03*
X174935Y127339D03*
X150849Y131242D03*
X186580Y195210D03*
X184003Y163037D03*
X178872Y106297D03*
X196030Y185760D03*
X192162Y174416D03*
X196202Y143461D03*
X189730Y182610D03*
X199180D03*
Y201510D03*
Y198360D03*
X189500Y138144D03*
X192162Y163897D03*
X196202Y163978D03*
X200242Y163037D03*
X187686D03*
X175428Y199938D03*
X179582Y191508D03*
X175470Y195710D03*
X178000Y183105D03*
X176491Y187306D03*
X196030Y201510D03*
Y195210D03*
X192880Y192060D03*
X189730Y188910D03*
X186580Y185760D03*
X183430D03*
X186580Y182610D03*
X165600Y176700D03*
X175132Y106297D03*
X183430Y201510D03*
X184003Y174344D03*
X161852Y176235D03*
X178500Y189299D03*
X178876Y193843D03*
X179201Y201752D03*
X175469Y189499D03*
X183430Y229850D03*
X189730Y226700D03*
X173504Y237351D03*
X171600Y230300D03*
X183430Y233000D03*
Y239300D03*
X186580D03*
X196030Y229850D03*
X192880Y226700D03*
X188100Y271400D03*
X190600Y271200D03*
X193100D03*
X195600D03*
X198300Y271300D03*
X200400Y270000D03*
X173665Y245431D03*
X187638Y282163D03*
X183598D03*
X179558D03*
X175434Y282201D03*
X183430Y204660D03*
X196030Y207810D03*
X199180Y204660D03*
Y210960D03*
X162986Y249551D03*
Y253642D03*
X162985Y261833D03*
Y257793D03*
X162986Y265873D03*
Y269913D03*
X131846Y244655D03*
X136048D03*
X163147Y245431D03*
X183430Y220400D03*
Y226700D03*
Y242450D03*
Y251900D03*
Y264500D03*
X186580Y223550D03*
Y242450D03*
X189730Y223550D03*
Y239300D03*
Y255050D03*
X192880Y223550D03*
Y239300D03*
Y251900D03*
Y258200D03*
X196030Y233000D03*
Y239300D03*
Y248750D03*
Y255050D03*
Y264500D03*
X199180Y217250D03*
Y223550D03*
Y226700D03*
Y233000D03*
Y236150D03*
Y242450D03*
Y251900D03*
X146669Y316555D03*
X183383Y320083D03*
X199131Y311055D03*
X187320Y320083D03*
X146875Y269046D03*
X173504Y241391D03*
X183383Y308646D03*
X188200Y284600D03*
X175434Y287040D03*
X191200Y288300D03*
X193600Y289400D03*
X196100Y289300D03*
X198500Y288700D03*
X199094Y308646D03*
X201200Y289400D03*
X183804Y296214D03*
Y293806D03*
X186580Y258200D03*
X183430D03*
X186580Y255050D03*
Y251900D03*
X189730D03*
X183430Y255050D03*
X189730Y248750D03*
X186580D03*
X192880D03*
X183430D03*
X189730Y245600D03*
X186580D03*
X192880D03*
X183430D03*
X192880Y242450D03*
X189730D03*
X199180Y264500D03*
Y255050D03*
Y261350D03*
X185352Y311055D03*
X179858Y262864D03*
X183804Y285820D03*
X199180Y258200D03*
X189289Y311055D03*
X196030Y261350D03*
X191257Y313064D03*
X196030Y258200D03*
X195194Y309045D03*
X197081Y313064D03*
X192880Y261350D03*
X201100Y313064D03*
X192880Y264500D03*
X189730Y261350D03*
Y264500D03*
X183804Y299843D03*
X180634Y250386D03*
X191257Y320083D03*
X185300Y321700D03*
X199180Y248750D03*
Y245600D03*
X146669Y303555D03*
X146875Y256046D03*
X173504Y265873D03*
X187320Y313064D03*
X183383D03*
X199131Y320083D03*
X193226Y311055D03*
X199180Y239300D03*
Y229850D03*
Y220400D03*
X196030Y251900D03*
Y245600D03*
Y242450D03*
Y236150D03*
X192880Y255050D03*
X189730Y258200D03*
X186580Y264500D03*
Y261350D03*
Y226700D03*
X183430Y261350D03*
X160577Y237311D03*
X162986Y241391D03*
Y237351D03*
X177498Y204041D03*
X173503Y257793D03*
Y261833D03*
X179558Y271644D03*
X183598D03*
X173504Y253642D03*
Y249551D03*
X136048Y234136D03*
X131846Y234137D03*
X199180Y207810D03*
X196030Y210960D03*
Y204660D03*
X183430Y223550D03*
X175208Y234301D03*
X186580Y204660D03*
X183430Y207810D03*
X172787Y222490D03*
X186580Y207810D03*
X171083Y224458D03*
X189730Y207810D03*
X172787Y226427D03*
X192880Y207810D03*
X164064Y230364D03*
X186580Y210960D03*
X164065Y206280D03*
X189730Y210960D03*
X171083Y207812D03*
X192880Y210960D03*
X172787Y210135D03*
X174490Y212104D03*
X189730Y217250D03*
X172038Y214072D03*
X192880Y217250D03*
X173742Y216041D03*
X196030Y217250D03*
X186580Y220400D03*
X189730D03*
X192880D03*
X179507Y205855D03*
X196030Y220400D03*
X164064Y202261D03*
X196030Y223550D03*
X184489Y372048D03*
X162600Y351400D03*
X100857Y369641D03*
X162118Y354290D03*
X136694Y371830D03*
X125382Y328103D03*
X171670Y369579D03*
X139102Y354532D03*
X161733Y371202D03*
X103327Y362759D03*
X138303Y333200D03*
X183300Y366800D03*
X199131Y366382D03*
X193226Y322092D03*
X192580Y372048D03*
X167605Y356361D03*
X151733Y371202D03*
X128534Y361392D03*
X183600Y337800D03*
X173484Y355539D03*
X183600Y340300D03*
X185600Y347600D03*
X201100Y357354D03*
X198977Y355650D03*
X195194D03*
X191257Y366382D03*
X187474Y355650D03*
X168300Y339100D03*
X201100Y322092D03*
X197163D03*
X195194Y324102D03*
X189289Y322092D03*
X168600Y332600D03*
X183400Y354200D03*
X189289Y353947D03*
X191257Y357354D03*
X195276Y366382D03*
X193300Y345500D03*
X201540Y366382D03*
X121394Y369641D03*
X103327Y352759D03*
X156900Y344800D03*
X162118Y358184D03*
X140106Y350595D03*
X125327Y347759D03*
X103327D03*
X156207Y366086D03*
X167605Y343361D03*
X199131Y359363D03*
X187320D03*
X183383D03*
X193226Y359363D03*
X142284Y333200D03*
X179400Y366800D03*
X189489Y372048D03*
X196949Y372048D03*
X125382Y338621D03*
X128534Y371912D03*
X132654Y371830D03*
X151100Y351400D03*
X320921Y79489D03*
Y75287D03*
X312600Y42800D03*
X262339Y62917D03*
X312558Y36502D03*
X310403Y75287D03*
X312800Y59369D03*
X310334Y70197D03*
X310333Y64298D03*
X312719Y53086D03*
X308122Y79489D03*
X319509Y5320D03*
X312423Y23978D03*
X278622Y79701D03*
X295600Y41200D03*
X295200Y35500D03*
X297500Y30700D03*
X294900Y21600D03*
X297400Y26500D03*
X301100Y54500D03*
X283900Y33100D03*
X312554Y32301D03*
X312504Y28180D03*
X253981Y51899D03*
X256930Y80287D03*
X272694Y79988D03*
X211910Y25011D03*
X272694Y75287D03*
Y69988D03*
X250694Y59988D03*
Y79988D03*
Y64988D03*
Y74988D03*
Y69988D03*
X210752Y18253D03*
X235793Y49966D03*
X235788Y45926D03*
X214954Y18253D03*
X252984Y24047D03*
X249716D03*
X214469Y25011D03*
X242364Y52703D03*
X246448Y24047D03*
X209200Y35000D03*
X232101Y23885D03*
X316500Y14829D03*
X272694Y64988D03*
X305694D03*
X246600Y45700D03*
X235369Y23885D03*
X228833D03*
X308122Y68022D03*
X260404Y19059D03*
X243180Y24047D03*
X262218Y21638D03*
X272694Y59988D03*
X312100Y39800D03*
X311015Y55248D03*
X309208Y46885D03*
Y35533D03*
Y41189D03*
Y30645D03*
X217028Y33279D03*
X214954Y7735D03*
X246448Y38939D03*
X252984D03*
X249716D03*
X243180D03*
X223000Y35200D03*
X228833Y44368D03*
X233402Y31759D03*
X237778Y35268D03*
X210752Y7735D03*
X218384Y50109D03*
X309208Y26564D03*
Y21635D03*
X303879Y79701D03*
X294400Y59900D03*
X312117Y46548D03*
X310075Y51814D03*
X302150Y199810D03*
X301870Y196990D03*
X304840Y196880D03*
X307340Y196840D03*
X303451Y186521D03*
X269300Y154500D03*
X284800Y183500D03*
X304316Y124478D03*
X265185Y139056D03*
X320600Y166400D03*
X279828Y163382D03*
X218911Y169471D03*
X227475Y195210D03*
X277711Y195048D03*
X255870Y185760D03*
X277800Y168600D03*
X227520Y192060D03*
X216402Y174334D03*
X221518Y169568D03*
X305419Y184512D03*
X216967Y101517D03*
X240120Y201510D03*
X208630D03*
X265320Y182610D03*
Y201510D03*
X262170Y188910D03*
X252720Y182610D03*
X243270D03*
X233820D03*
X205480D03*
X218070D03*
X259020Y185760D03*
X252720D03*
X259020Y192060D03*
X227520Y185760D03*
X255870Y188910D03*
Y195210D03*
X252720Y192060D03*
X249570D03*
X252720Y198360D03*
X249570Y195210D03*
X240120D03*
X233820D03*
X224370D03*
X208630D03*
X236970Y198360D03*
X233820D03*
X227520D03*
X224370D03*
X205480D03*
X218070D03*
X211770D03*
X293532Y111177D03*
X301406Y143461D03*
X249437Y111177D03*
X271484Y122069D03*
X282508Y154353D03*
X263610D03*
X251012D03*
X219516D03*
X221091Y122069D03*
X321878D03*
X302981D03*
X258886D03*
X276604Y93596D03*
X208999Y89677D03*
X236932Y93434D03*
X319186Y93514D03*
X232811Y93434D03*
X278622Y91586D03*
X297681Y94749D03*
X241896Y91077D03*
X292190Y174014D03*
X253650Y163492D03*
X245408Y163654D03*
X261729Y163492D03*
X266739Y161273D03*
X257689Y163492D03*
X303200Y183200D03*
X278622Y88539D03*
X320140D03*
X294693Y102977D03*
X310928Y197140D03*
X315392Y188006D03*
X208322Y163037D03*
X275789Y163331D03*
X212362Y163037D03*
X282178Y175861D03*
X243270Y198360D03*
X221518Y161301D03*
X205500Y162800D03*
X224276Y170065D03*
X226636Y161301D03*
X205601Y179834D03*
X208322Y141037D03*
X228965D03*
X227485Y101517D03*
X314004Y165648D03*
X321377Y133469D03*
X218070Y195210D03*
X208322Y174496D03*
X204282D03*
X202330Y192060D03*
X307131Y171200D03*
X249570Y185760D03*
X284900Y174000D03*
X221220Y195210D03*
X212362Y174496D03*
X262170Y192060D03*
X271866Y184154D03*
X250694Y84988D03*
X259020Y182610D03*
X270163Y181948D03*
X269453Y175861D03*
X282354Y188264D03*
X311325Y184818D03*
X282354Y192539D03*
X309356Y186521D03*
X216366Y154353D03*
X292190Y163496D03*
X288069Y163416D03*
X224077Y161301D03*
X295718Y200812D03*
X246420Y188910D03*
X228965Y154353D03*
X224240Y122069D03*
X249570Y182610D03*
X232114Y154353D03*
X246420Y192060D03*
Y185760D03*
X230540Y122069D03*
X249448Y160422D03*
X243270Y188910D03*
X235264Y154353D03*
X246420Y182610D03*
X236839Y122069D03*
X254797Y139056D03*
X238414Y154353D03*
X243270Y192060D03*
X259125Y156762D03*
X244952Y134191D03*
X243270Y185760D03*
X243138Y122069D03*
X315579Y132361D03*
X240120Y185760D03*
X246288Y122069D03*
X247862Y154353D03*
X240120Y188910D03*
X273444Y138850D03*
X252587Y122069D03*
X240120Y182610D03*
X236970Y192060D03*
X254162Y154353D03*
X216402Y160422D03*
X236970Y185760D03*
X255736Y122069D03*
X257311Y154353D03*
X236970Y188910D03*
X294699Y169010D03*
X262036Y134176D03*
Y122069D03*
X236970Y182610D03*
X249448Y174172D03*
X233820Y188910D03*
X260461Y154353D03*
X221220Y188910D03*
X285658Y154353D03*
X229751Y125104D03*
X290382Y139056D03*
X221220Y185760D03*
X290382Y122069D03*
X281172Y143460D03*
X288807Y154353D03*
X221220Y192060D03*
X221330Y126918D03*
X296681Y122069D03*
X218070Y185760D03*
Y188910D03*
X295107Y154353D03*
X301645Y124478D03*
X299831Y122069D03*
X211770Y185760D03*
X232306Y178351D03*
X298256Y154353D03*
X218070Y192060D03*
X233188Y138521D03*
X211770Y182610D03*
X306130Y122069D03*
X307705Y154353D03*
X211770Y192060D03*
X208630Y182610D03*
X315579Y122069D03*
X310855Y154353D03*
X208630Y188910D03*
X318729Y122069D03*
X205480Y185760D03*
X269935Y161273D03*
X208630Y192060D03*
X314004Y154353D03*
X202330Y185760D03*
X296514Y167124D03*
X205480Y188910D03*
X320303Y154353D03*
X216862Y134515D03*
X202330Y182610D03*
X244713Y161245D03*
X286649Y143381D03*
X240778Y175874D03*
X244713Y154353D03*
X240120Y192060D03*
X265185Y130547D03*
X233820Y185760D03*
X265185Y122069D03*
X237510Y175874D03*
X306255Y143171D03*
X228451Y178814D03*
X287232Y122069D03*
X234242Y175874D03*
X230974D03*
X309280Y122069D03*
X208630Y185760D03*
X278764Y143461D03*
X283949Y163457D03*
X304555Y154353D03*
Y171200D03*
X211770Y188910D03*
X249448Y163654D03*
X261534Y161083D03*
X227520Y182610D03*
X266760Y154353D03*
X224370Y192060D03*
X279358Y154353D03*
X292036Y181665D03*
X205480Y192060D03*
X231374Y140870D03*
X284083Y122069D03*
X224370Y182610D03*
X230670D03*
X268335Y122069D03*
X202330Y188910D03*
X241324Y132361D03*
X230670Y185760D03*
X274634Y122069D03*
X266521Y134207D03*
X273059Y154353D03*
X230670Y188910D03*
X224370D03*
X276209Y154353D03*
X294599Y163087D03*
X267134Y184198D03*
X227520Y188910D03*
X291957Y154353D03*
X266739Y174292D03*
X261729Y174010D03*
X257689D03*
X240120Y198360D03*
X271749Y173850D03*
X299500Y186600D03*
X293850Y190050D03*
X278100Y199200D03*
X297455Y199109D03*
X316300Y177000D03*
X317700Y175000D03*
X316300Y173000D03*
X317800Y171000D03*
X311400Y171200D03*
X313200Y168200D03*
X315300Y170500D03*
X317700Y179000D03*
X211770Y201510D03*
X205480D03*
X202330D03*
X236970D03*
X202330Y198360D03*
X246420Y201510D03*
Y198360D03*
X249570Y201510D03*
Y198360D03*
X218070Y201510D03*
X233820D03*
X215518Y138144D03*
X272694Y84988D03*
X226636Y174587D03*
X282304Y180033D03*
X216402Y163037D03*
X282385Y184154D03*
X202800Y162900D03*
X234242Y160982D03*
X230974D03*
X240778D03*
X237510D03*
X309700Y182800D03*
X312632Y194990D03*
X312795Y199310D03*
X262339Y87575D03*
X314131Y83548D03*
X245408Y174172D03*
X253650Y174010D03*
X271749Y163331D03*
X241896Y104095D03*
X285690Y104258D03*
X232811Y103952D03*
X280680Y104114D03*
X236932Y103952D03*
X276604Y104114D03*
X319186Y104033D03*
X280933Y111177D03*
X239988D03*
X317154Y143461D03*
X288867Y173934D03*
X211770Y195210D03*
X221220Y198360D03*
X230670D03*
X208630D03*
X205480Y195210D03*
X202330D03*
X236970D03*
X243270D03*
X246420D03*
X252720Y201510D03*
Y195210D03*
X224370Y185760D03*
X262170Y182610D03*
Y185760D03*
X265320D03*
X262170Y195210D03*
X271836Y188264D03*
X259020Y195210D03*
X271836Y192539D03*
X262170Y198360D03*
X271000Y195400D03*
X259020Y198360D03*
X270300Y197900D03*
X255870Y198360D03*
X270300Y200400D03*
X262170Y201510D03*
X259020D03*
X255870D03*
X235950Y138950D03*
X240900Y154400D03*
X318968Y141357D03*
X287010Y195620D03*
X313040Y202660D03*
X294140Y207170D03*
X286940Y219770D03*
X287000Y208410D03*
X308810Y208670D03*
X313100Y212490D03*
X211770Y264500D03*
X230650Y269927D03*
X218070Y258200D03*
X246300Y267229D03*
X243000Y281700D03*
X218070Y255050D03*
X221220Y264500D03*
X248509Y266786D03*
X221220Y261350D03*
X250718Y267429D03*
X230670Y264500D03*
X252686Y268991D03*
X230670Y261350D03*
X254655Y267228D03*
X227570Y251924D03*
X233820Y255050D03*
X256864Y267229D03*
X274900Y252700D03*
X233820Y251900D03*
X261000Y268700D03*
X206800Y269100D03*
X211770Y261350D03*
X295536Y217916D03*
X221220Y258200D03*
X216488Y268018D03*
X221220Y255050D03*
X218500Y271000D03*
X224370Y264500D03*
X220425Y268991D03*
X224370Y258200D03*
X223806Y268913D03*
X224370Y255050D03*
X211300Y269900D03*
X227520Y264500D03*
Y258200D03*
Y255050D03*
X230670Y258200D03*
Y255050D03*
X202500Y271500D03*
X233820Y261350D03*
Y258200D03*
X204300Y269000D03*
X236970Y264500D03*
X232919Y268413D03*
X236556Y269438D03*
X236970Y261350D03*
Y258200D03*
X238524Y271000D03*
X240120Y255050D03*
X240493Y267875D03*
X224600Y282100D03*
X240120Y245600D03*
X242680Y218830D03*
X229100Y241860D03*
X231260Y225130D03*
X229100Y216670D03*
Y205250D03*
X219650Y241860D03*
X217480Y221980D03*
X219650Y205250D03*
X206060Y228280D03*
X265320Y264500D03*
Y251900D03*
X252720Y264500D03*
X265320Y242450D03*
X243270Y264500D03*
X233820D03*
X265320Y229850D03*
Y223550D03*
Y207810D03*
Y217250D03*
X262170Y258200D03*
Y242450D03*
Y226700D03*
X224370Y261350D03*
X262170Y204660D03*
Y220400D03*
Y210960D03*
X255870Y258200D03*
X259020Y239300D03*
X255870Y251900D03*
Y239300D03*
X252720Y248750D03*
X249570Y251900D03*
X252720Y239300D03*
X240120Y251900D03*
X252720Y207810D03*
X249570Y242450D03*
X243270Y248750D03*
X249570Y236150D03*
X236970Y248750D03*
X249570Y233000D03*
X233820Y248750D03*
X249570Y226700D03*
X227520Y248750D03*
X249570Y223550D03*
X224370Y248750D03*
X249570Y204660D03*
Y217250D03*
X218070Y248750D03*
X249570Y210960D03*
X246420Y239300D03*
Y207810D03*
X202330D03*
X227520Y223550D03*
X224370Y226700D03*
X240642Y290103D03*
X269000Y281600D03*
X264882Y281517D03*
X300300Y213400D03*
X307986Y214080D03*
X314100Y244300D03*
X317030Y226205D03*
X314610Y249423D03*
X290414Y292932D03*
X300932Y276761D03*
X300908Y268641D03*
X300892Y284801D03*
X285256Y279185D03*
Y275064D03*
X280394Y301093D03*
X314300Y269600D03*
X315149Y217093D03*
X206060Y218830D03*
X202330Y239300D03*
X205480Y248750D03*
Y264500D03*
X208630Y245600D03*
Y251900D03*
X211770Y248750D03*
X222800Y216670D03*
X225950Y230440D03*
X242680Y228280D03*
X262124Y308646D03*
X315300Y311100D03*
X312100Y320500D03*
X293300Y317300D03*
Y311100D03*
X308900Y320500D03*
X298100Y307300D03*
X312200Y311100D03*
X275601Y316307D03*
X275682Y309843D03*
X244407Y311055D03*
X250313Y309351D03*
X238502D03*
X210943Y313064D03*
X219650Y230440D03*
X205480Y261350D03*
X206200Y271500D03*
X295536Y220504D03*
X306400Y221500D03*
X319695Y226349D03*
X319161Y220504D03*
X277828Y212774D03*
X290656Y212709D03*
X283100Y294300D03*
X282936Y245910D03*
X277600Y221900D03*
X282900Y243500D03*
X208630Y264500D03*
X218070Y251900D03*
X243270Y258200D03*
X244682Y271000D03*
X268349Y247236D03*
X278300Y225000D03*
X278200Y201900D03*
X278300Y204500D03*
X278275Y206925D03*
X278300Y209500D03*
X227500Y267500D03*
X208630Y261350D03*
X232619Y270947D03*
X218070Y261350D03*
X226800Y270200D03*
X208630Y258200D03*
X242800Y288400D03*
X245500Y288600D03*
X248800Y290700D03*
X250700Y292300D03*
X252686Y288399D03*
X254655Y290103D03*
X256623Y288399D03*
X212911Y311055D03*
X256372Y306557D03*
X258592Y290103D03*
X208300Y289400D03*
X228659Y321786D03*
X217000Y292200D03*
X218457Y288076D03*
X216848Y321786D03*
X205000Y307000D03*
X220425Y289780D03*
X214880Y309351D03*
X222394Y288076D03*
X214880Y320083D03*
X216848Y313064D03*
X225000Y307400D03*
X244700Y292400D03*
X220785Y313064D03*
X222754Y320083D03*
X224722Y313064D03*
X226691Y320083D03*
X203400Y288300D03*
X220785Y321786D03*
X206000Y288100D03*
X242456Y294952D03*
X234587Y288399D03*
X236556Y290103D03*
X224600Y310100D03*
X240120Y264500D03*
X242441Y271000D03*
X240120Y261350D03*
X222244Y267151D03*
X240120Y258200D03*
X234481Y266851D03*
X236970Y255050D03*
X230196Y267719D03*
X220100Y301000D03*
X210429Y288076D03*
X269000Y308000D03*
X268900Y288500D03*
X264300Y289100D03*
X242398Y313064D03*
X246416D03*
X248344Y320083D03*
X252322Y313064D03*
X275254Y283945D03*
X254209Y320083D03*
X258187Y311055D03*
X275600Y263000D03*
X260155Y306636D03*
X264092Y320083D03*
X205480Y258200D03*
Y255050D03*
X202330Y264500D03*
Y255050D03*
Y261350D03*
Y258200D03*
X203028Y320083D03*
X207046D03*
X264133Y313064D03*
X259020Y264500D03*
Y261350D03*
X260155Y321786D03*
X258228Y320083D03*
X255870Y261350D03*
Y264500D03*
X254250Y311055D03*
X264161Y301083D03*
X252720Y258200D03*
Y261350D03*
X248303Y311361D03*
X252720Y255050D03*
X249570Y258200D03*
Y261350D03*
Y255050D03*
Y264500D03*
X268700Y266100D03*
X246420Y258200D03*
Y261350D03*
Y255050D03*
Y264500D03*
X243270Y255050D03*
X207006Y311055D03*
X259020Y242450D03*
X255870D03*
X203068Y311055D03*
X265320Y245600D03*
X255870D03*
X262170D03*
X259020D03*
X265320Y248750D03*
X269186Y261350D03*
X255870Y248750D03*
X262170D03*
X263600Y285800D03*
X259020Y248750D03*
X262170Y251900D03*
X259020D03*
X261500Y303200D03*
X259020Y255050D03*
X262170D03*
X265320D03*
Y258200D03*
X226800Y288800D03*
X232596Y320083D03*
X232200Y289700D03*
X228659Y309657D03*
X242600Y298500D03*
X230628Y313064D03*
X229600Y288900D03*
X243401Y308372D03*
X234565Y313064D03*
X277739Y229886D03*
X202330Y236150D03*
X242680Y225130D03*
Y221980D03*
X229100Y230440D03*
X225950Y241860D03*
Y205250D03*
X222800Y241860D03*
Y230440D03*
X224370Y223550D03*
X222800Y205250D03*
X217480Y225130D03*
X211770Y245600D03*
X205480D03*
X202330Y248750D03*
Y245600D03*
X206060Y225130D03*
X202330Y217250D03*
X227520Y226700D03*
X202330Y210960D03*
Y204660D03*
X246420Y210960D03*
Y217250D03*
Y204660D03*
X233820Y245600D03*
X236970D03*
X246420Y233000D03*
Y236150D03*
X243270Y245600D03*
X246420Y242450D03*
Y245600D03*
Y248750D03*
X249570Y245600D03*
Y248750D03*
X206060Y221980D03*
X202330Y233000D03*
Y242450D03*
X219650Y216670D03*
X225950D03*
X231260Y221980D03*
X218070Y245600D03*
X292800Y229000D03*
X286120Y316307D03*
X318600Y314400D03*
X315300Y320500D03*
X289900Y320300D03*
X286201Y309843D03*
X318600Y308000D03*
X289900Y314100D03*
X290100Y307900D03*
X308900Y314100D03*
X300200Y315700D03*
X242700Y285700D03*
X258601Y271000D03*
X210943Y320083D03*
X238502D03*
X244407D03*
X205037Y313064D03*
X264133Y310655D03*
X268070Y316573D03*
X256218Y313064D03*
X211770Y251900D03*
X202330D03*
X208630Y248750D03*
X205480Y251900D03*
X313300Y208100D03*
X262500Y271000D03*
X264882Y270999D03*
X224159Y271322D03*
X244288Y268791D03*
X214674Y289780D03*
X268922Y270837D03*
X249570Y207810D03*
X221220Y248750D03*
X249570Y220400D03*
X230670Y248750D03*
X249570Y229850D03*
X240120Y248750D03*
X249570Y239300D03*
X252720Y210960D03*
Y204660D03*
X236970Y251900D03*
X252720Y236150D03*
X246420Y251900D03*
X243270D03*
X252720Y245600D03*
Y242450D03*
Y251900D03*
X255870Y255050D03*
X259020Y258200D03*
X227520Y261350D03*
X262170Y223550D03*
X243270Y261350D03*
X262170D03*
Y264500D03*
X265320Y261350D03*
X238565Y288399D03*
X265320Y226700D03*
X272206Y219532D03*
X255870Y236150D03*
X272418Y245910D03*
X259020Y236150D03*
X272418Y241709D03*
X265320Y236150D03*
X270700Y222100D03*
X265320Y233000D03*
X270600Y224800D03*
X262170Y233000D03*
X270600Y227100D03*
X259020Y233000D03*
X270600Y229400D03*
X255870Y233000D03*
X270700Y231700D03*
X252720Y233000D03*
X270700Y234000D03*
X262170Y229850D03*
X270700Y236500D03*
X259020Y229850D03*
X270700Y239000D03*
X265320Y204660D03*
X272234Y215283D03*
X270400Y202700D03*
Y205100D03*
Y207400D03*
X259020Y204660D03*
X269900Y209600D03*
X255870Y204660D03*
X270800Y212400D03*
X304400Y248890D03*
X305300Y241100D03*
X308700Y229600D03*
X305904Y229092D03*
X303200Y229700D03*
X285614Y222430D03*
X286100Y227400D03*
X287600Y230500D03*
X285700Y232300D03*
X286900Y238100D03*
X285600Y240200D03*
X283000Y239900D03*
X287191Y244283D03*
X285500Y246200D03*
X297549Y256651D03*
X314170Y246990D03*
X309470Y246380D03*
X293480Y249800D03*
X298560Y244800D03*
X299370Y229740D03*
X303150Y243850D03*
X294570Y241930D03*
X314180Y236090D03*
X310650Y236020D03*
X307400Y257020D03*
X300010Y262080D03*
X314810Y267220D03*
X314750Y255480D03*
X312770Y257550D03*
X283500Y257500D03*
X305200Y214400D03*
X275100Y366700D03*
X259946Y372089D03*
X219748Y367030D03*
X209855Y372086D03*
X244887Y372048D03*
X234081Y372048D03*
X270046Y372089D03*
X201981Y372086D03*
X225162Y372048D03*
X291705Y353395D03*
X315300Y330000D03*
X275217Y344596D03*
X319400Y348200D03*
X308600Y333800D03*
X268070Y364882D03*
X275682Y322529D03*
X275601Y328993D03*
X275682Y335295D03*
X293200Y333100D03*
X296400D03*
X266061Y322092D03*
X256218D03*
Y359363D03*
X210943Y366382D03*
X238502Y355650D03*
X312200Y323600D03*
X293300Y323700D03*
X300200Y322000D03*
X246600Y354800D03*
X205037Y322092D03*
Y372086D03*
X244400Y357800D03*
X302000Y350800D03*
X306400Y342000D03*
X304200Y348600D03*
X306400Y355200D03*
X302000Y359600D03*
X306400Y350800D03*
X302000Y355200D03*
X304200Y361800D03*
Y366200D03*
Y353000D03*
X306400Y346400D03*
X304200Y357400D03*
X306400Y364000D03*
X302000D03*
X306400Y359400D03*
X304200Y335400D03*
X306400Y337600D03*
X304200Y339800D03*
X289000Y337900D03*
X304200Y331130D03*
X307900Y323600D03*
X293300Y330000D03*
X315300Y326800D03*
X296400Y330000D03*
X305900Y326900D03*
X318900Y329700D03*
X287674Y331526D03*
X318700Y323500D03*
X301627Y325227D03*
X304200Y344200D03*
X302000Y337600D03*
X306400Y333200D03*
X302000D03*
Y368400D03*
X286300Y336200D03*
X302000Y342000D03*
Y346400D03*
X236533Y372048D03*
Y322092D03*
X212911Y372048D03*
Y322092D03*
X236533Y357660D03*
X212911Y357354D03*
X248426Y343079D03*
X228500Y349700D03*
X220631Y353548D03*
X216848Y357660D03*
X216694Y354879D03*
X207046Y323796D03*
X214880Y351844D03*
X236379Y345758D03*
X217157Y366382D03*
X218816Y351844D03*
X220785Y355957D03*
X222754Y351844D03*
X224722Y366382D03*
X226691Y351733D03*
X205000Y349900D03*
X224568Y356954D03*
X210675Y343559D03*
X224876Y353548D03*
X218800Y323600D03*
X224722Y359363D03*
X224300Y323800D03*
X222754Y372048D03*
X230628Y323489D03*
X203223Y324102D03*
X230628Y359363D03*
X226956Y324102D03*
X264300Y366600D03*
X260155Y349622D03*
X251687Y328356D03*
X260350Y334050D03*
X250800Y366600D03*
X248344Y366382D03*
X246872Y334428D03*
X207006Y366382D03*
X203068Y355650D03*
X252281Y324102D03*
X246376Y322092D03*
X242439D03*
Y372048D03*
X274800Y348800D03*
X248303Y357660D03*
X252281Y351232D03*
X279514Y357354D03*
X253400Y366600D03*
X258187Y354347D03*
X275069Y338116D03*
X260200Y366400D03*
X264092Y355344D03*
X265312Y336302D03*
X264092Y325916D03*
X255000Y347500D03*
X256600Y327900D03*
X272500Y366200D03*
X207046Y357549D03*
X266546Y340494D03*
X208861Y355846D03*
X224568Y330170D03*
X232596Y366382D03*
X228659Y355251D03*
X230628Y372048D03*
X234565Y359363D03*
X318400Y336400D03*
X289900Y333100D03*
X286201Y322529D03*
X290000Y329900D03*
X309000Y326900D03*
X299600Y326800D03*
X315400Y336300D03*
X286120Y328993D03*
X290000Y345700D03*
X285736Y344596D03*
X319500Y354400D03*
X283400Y338100D03*
X250313Y353335D03*
X238502Y366382D03*
X210943Y359363D03*
X250313Y322092D03*
X244407Y366382D03*
X205037Y359363D03*
X270561Y362873D03*
X262124Y357354D03*
X227571Y372048D03*
X265046Y372089D03*
X239831Y372048D03*
X249887D03*
X207446Y372086D03*
X214748Y367030D03*
X254946Y372089D03*
X282870Y369560D03*
X391200Y16500D03*
X340000Y19000D03*
X418315Y37685D03*
X417080Y49320D03*
X367202Y-4474D03*
X351594Y19042D03*
X353521Y15906D03*
X343924Y23184D03*
X367187Y78418D03*
X372191Y78363D03*
X403447Y25761D03*
X373288Y28149D03*
X367342Y22980D03*
X363404D03*
Y66286D03*
X355736Y22980D03*
X336113Y78361D03*
X347862Y23184D03*
X416245Y60955D03*
X380591Y50723D03*
X367342Y58412D03*
X380753Y46683D03*
X371278Y54476D03*
X395874Y51573D03*
X380430Y38280D03*
X367342Y50538D03*
X380430Y30160D03*
X363404Y42664D03*
X390938Y64672D03*
X371278Y50538D03*
X393115Y44185D03*
X371278Y42664D03*
X380542Y42482D03*
X380430Y34240D03*
X367342Y42664D03*
X380420Y26140D03*
X367342Y54476D03*
X325032Y28180D03*
X324726Y23978D03*
X363404Y62350D03*
Y54476D03*
Y58412D03*
X323076Y45067D03*
X343720Y50538D03*
Y54476D03*
X363404Y34790D03*
X359468Y62350D03*
X323352Y70197D03*
X323271Y50077D03*
X323237Y55248D03*
X325485Y40785D03*
X323076Y36502D03*
X323072Y32301D03*
X343720Y34790D03*
X390948Y34240D03*
X371278Y62350D03*
X390948Y30160D03*
X402721Y-18118D03*
X371278Y58412D03*
X402741Y-27500D03*
X380420Y64672D03*
X367342Y62350D03*
X391060Y42482D03*
X402883Y-9230D03*
X367342Y66286D03*
X400874Y51573D03*
X402741Y0D03*
X391109Y50723D03*
X391272Y46683D03*
X398750Y34482D03*
X414465Y38401D03*
X371278Y70224D03*
X335846Y19042D03*
X349224Y18502D03*
X345688Y18517D03*
X363404Y19042D03*
X359468D03*
X371278D03*
X367342D03*
X339500Y10500D03*
X348500Y5100D03*
X372150Y8106D03*
X340153Y78401D03*
X380388Y55703D03*
X371278Y66286D03*
X380421Y60551D03*
X363404Y50538D03*
X367342Y34790D03*
X339782Y62350D03*
X335846Y30854D03*
X347656Y66286D03*
X332033Y78401D03*
Y59369D03*
Y72233D03*
X323318Y59369D03*
X323351Y64298D03*
X327912Y78396D03*
X380549Y21282D03*
X339782Y26917D03*
X371278Y30854D03*
X335846Y62350D03*
Y66286D03*
X371278Y22980D03*
X324680Y15957D03*
X347697Y26917D03*
X396789Y67574D03*
X400107Y31120D03*
X335846Y38728D03*
X356500Y200D03*
X430010Y25837D03*
X343720Y38728D03*
X430010Y37685D03*
X377275Y-15085D03*
X342500Y2000D03*
X330300Y3000D03*
X369100Y500D03*
X335846Y34790D03*
X324780Y47177D03*
X430010Y49320D03*
X347656Y54476D03*
X351594Y50538D03*
X359468Y30854D03*
X347656Y50538D03*
X359468Y34790D03*
X351594D03*
X372332Y-17455D03*
X367202Y-14992D03*
X363098Y-17170D03*
X351594Y58412D03*
X393567Y21282D03*
X351594Y54476D03*
X347656Y30854D03*
X359468Y58412D03*
X347656Y42664D03*
Y34790D03*
Y58412D03*
X324680Y5439D03*
X359468Y26917D03*
X351634D03*
X363404Y38728D03*
X359468Y42664D03*
Y54476D03*
Y50538D03*
Y38728D03*
X351594Y42664D03*
Y30854D03*
X430010Y60955D03*
X432387Y43694D03*
X347656Y38728D03*
X351594D03*
X381379Y-14992D03*
X339782Y34790D03*
Y50538D03*
X391101Y11940D03*
X377032Y5078D03*
X325481Y33148D03*
X413191Y67493D03*
X404950Y67492D03*
X388467Y67654D03*
X380350Y67684D03*
X414680Y80776D03*
X335846Y26917D03*
X384390Y78202D03*
X380350D03*
X392666Y78099D03*
X388467Y78172D03*
X400868Y78019D03*
X396789Y78092D03*
X404950Y78010D03*
X409100Y78018D03*
X417232Y78040D03*
X413191Y78011D03*
X413401Y-9230D03*
X413239Y-18118D03*
X371278Y38728D03*
X362500Y-3400D03*
X339782Y30854D03*
X344233Y78401D03*
X413259Y0D03*
Y-27500D03*
X343720Y30854D03*
X404400Y80518D03*
X390621Y80518D03*
X400463Y80518D03*
X396526D03*
X339782Y22980D03*
X351594Y70224D03*
X328962Y15790D03*
X359468Y70224D03*
X333082Y15790D03*
X343720Y70224D03*
X349000Y78000D03*
X354100Y77900D03*
X347656Y70224D03*
X363404D03*
X358975Y78431D03*
X367342Y70224D03*
X363096Y78431D03*
X343679Y26917D03*
X335846Y22980D03*
X339782Y54476D03*
Y66286D03*
X343720Y58412D03*
Y62350D03*
Y66286D03*
X335846Y54476D03*
Y50538D03*
X339782Y42664D03*
X343720D03*
X339782Y38728D03*
X390948Y36698D03*
X386684Y80518D03*
X392666Y67580D03*
X400868Y67501D03*
X409100Y67500D03*
X417232Y67522D03*
X384390Y67684D03*
X322907Y19748D03*
X323022Y26171D03*
X369800Y-21400D03*
X421200Y109000D03*
X419800Y94400D03*
X419700Y91600D03*
X437800Y86100D03*
X349602Y162301D03*
X357396Y109362D03*
X439300Y111000D03*
X333530Y176970D03*
X357740Y197530D03*
X336836Y175001D03*
X345930Y193590D03*
X335133Y173033D03*
X353810Y197530D03*
X333429Y171064D03*
X357740Y201460D03*
X436480Y185710D03*
X440420Y189650D03*
X428610Y193590D03*
X432550D03*
X436480D03*
X440420D03*
X426626Y126596D03*
X421506Y114676D03*
X417268Y113071D03*
X436480Y197530D03*
X432550D03*
X437900Y130400D03*
X369000Y199500D03*
X329752Y143461D03*
X337626Y111177D03*
X343925Y122069D03*
X331584Y93758D03*
X323306Y93515D03*
X327382Y93596D03*
X418663Y151466D03*
X366086Y162433D03*
X432637Y150805D03*
X372191Y91382D03*
X367187Y88936D03*
X439514Y101234D03*
X382243Y87950D03*
X379377Y89308D03*
X351825Y104472D03*
X347825Y104432D03*
X388263Y95208D03*
X394138D03*
X431626Y126596D03*
X439672Y106304D03*
X369480Y94568D03*
X328700Y195600D03*
X341405Y162353D03*
X322600Y168400D03*
X345526Y162272D03*
X353767Y162353D03*
X420740Y189650D03*
X383844Y93386D03*
X407698Y111102D03*
X390621Y111177D03*
X396546Y92386D03*
X405588Y107425D03*
X385300Y189650D03*
X424670D03*
X389240D03*
X404990Y181780D03*
X408920D03*
X432550Y201460D03*
X353810D03*
X342000Y185710D03*
X345930Y181780D03*
Y177840D03*
X357740Y189650D03*
X353810D03*
X369550Y181780D03*
X373490D03*
X392589Y92569D03*
X367776Y97323D03*
X385854Y95208D03*
X381835Y91417D03*
X379713Y84528D03*
X388652Y92569D03*
X428610Y201460D03*
X424670Y185710D03*
X388652Y123970D03*
X354334Y96713D03*
X435874Y116118D03*
X345316Y96673D03*
X386684Y115951D03*
X381543Y116884D03*
X392589Y123970D03*
X391538Y105726D03*
X398495Y115951D03*
X407597Y105721D03*
X406369Y115951D03*
X435874Y91118D03*
X403578Y105721D03*
X404400Y123970D03*
X399558Y105726D03*
X402432Y115951D03*
X395538Y105726D03*
X400463Y123970D03*
X387498Y105726D03*
X394558Y115951D03*
X408478Y86722D03*
X419189Y97323D03*
X408920Y177840D03*
X404990Y193590D03*
X438365Y171740D03*
X412860Y177840D03*
X424225Y142004D03*
X426738Y138132D03*
Y133014D03*
Y135573D03*
X338539Y172871D03*
X342000Y189650D03*
X353767Y172872D03*
X353810Y193590D03*
X349870D03*
X345526Y172790D03*
X345930Y197530D03*
X333460Y168400D03*
X342000Y193590D03*
X341405Y172872D03*
X342000Y197530D03*
X333460Y164300D03*
X432550Y181780D03*
X328470Y200069D03*
X329200Y190600D03*
X396526Y123970D03*
X361964Y159202D03*
X440420Y197530D03*
X420740Y193590D03*
X432550Y177840D03*
X378233Y155095D03*
X419570D03*
X428610Y177840D03*
X388806Y134000D03*
X416800Y193590D03*
X423198Y155929D03*
X428610Y181780D03*
X424670Y177840D03*
X386955Y150725D03*
X412560Y167444D03*
X416800Y185710D03*
X415034Y137574D03*
X420740Y185710D03*
X412860Y189650D03*
X409531Y140508D03*
X412860Y185710D03*
Y193590D03*
X416800Y181780D03*
X411346Y135166D03*
X408920Y193590D03*
X412860Y181780D03*
X408920Y185710D03*
X416800Y177840D03*
X397110Y193590D03*
X401050Y177840D03*
X383473Y150709D03*
X397110Y185710D03*
Y181780D03*
X385300Y177840D03*
X381370Y181780D03*
X385300Y185710D03*
X380302Y123970D03*
X389240Y193590D03*
X373490Y177840D03*
X370636Y132986D03*
X381370Y185710D03*
X377430Y181780D03*
X361553Y122069D03*
X385300Y193590D03*
X372450Y154353D03*
X377430Y185710D03*
X376673Y123884D03*
X377430Y189650D03*
X325028Y122069D03*
X377430Y177840D03*
X326842Y132986D03*
X369550Y177840D03*
X328177Y122069D03*
X411940Y140508D03*
X416800Y189650D03*
X392589Y130547D03*
X401050Y193590D03*
X397110Y177840D03*
X378781Y132986D03*
X381370Y177840D03*
X438365Y161222D03*
X340776Y122069D03*
X420740Y177840D03*
X393852Y168038D03*
X397110Y189650D03*
X433002Y173231D03*
X404990Y177840D03*
X381370Y189650D03*
X365620Y181780D03*
X332902Y154353D03*
X365620Y177840D03*
X384048Y168038D03*
X393852Y145470D03*
X426466Y173231D03*
X401050Y189650D03*
X380595Y135015D03*
X387316Y168038D03*
X401050Y185710D03*
X326603Y154353D03*
X428610Y185710D03*
X370900Y175000D03*
X377430Y193590D03*
X380439Y174977D03*
X334477Y135015D03*
Y122069D03*
X377171Y174977D03*
X373490Y185710D03*
X369550D03*
X373903Y174977D03*
X381370Y193590D03*
X339201Y154353D03*
X390584Y168038D03*
X401050Y181780D03*
X412249Y169853D03*
X423198Y173231D03*
X389240Y177840D03*
X429734Y173231D03*
X389240Y185710D03*
X404990D03*
X383538Y113071D03*
X345930Y185710D03*
X353045Y111177D03*
X349870Y189650D03*
Y181780D03*
X357740Y193590D03*
X398495Y88537D03*
X361680Y193590D03*
X353810Y177840D03*
X394558Y88537D03*
X361680Y189650D03*
X402432Y88537D03*
X349870Y185710D03*
X353810D03*
X406369Y88537D03*
X357740Y177840D03*
X373816Y105260D03*
X357740Y185710D03*
X384244Y107229D03*
X381835Y107541D03*
X361680Y185710D03*
X372113Y107165D03*
X379377Y118698D03*
X365620Y189650D03*
X373816Y109134D03*
X361680Y181780D03*
X381835Y111102D03*
X365620Y193590D03*
X371989Y102327D03*
X435874Y106454D03*
X369480Y99291D03*
X436782Y96118D03*
X346976Y85357D03*
X356034D03*
X349485Y93116D03*
X353525D03*
X358975Y88950D03*
X363096D03*
X338633Y184844D03*
X337000Y182900D03*
X342000Y201460D03*
X336818Y195733D03*
X339900Y180907D03*
X337948Y178938D03*
X349870Y201460D03*
X338300Y189500D03*
X438200Y121100D03*
X344233Y88919D03*
X342000Y181780D03*
X361680Y177840D03*
X357924Y172982D03*
X417268Y91417D03*
X419566Y84528D03*
X373490Y193590D03*
X361964Y172982D03*
X337203Y162353D03*
X339651Y177124D03*
X345930Y189650D03*
X349602Y172820D03*
X349870Y197530D03*
X335887Y91288D03*
X322700Y164300D03*
X361680Y197530D03*
X376800Y201100D03*
X412300Y199500D03*
X397110Y197530D03*
X345930Y201460D03*
X336113Y88879D03*
X340153Y88919D03*
X332033D03*
X327912Y88914D03*
X369550Y189650D03*
X373490D03*
X357740Y181780D03*
X353810D03*
X408920Y189650D03*
X436480Y177840D03*
X440420D03*
X432550Y189650D03*
X389240Y181780D03*
X384715Y123970D03*
X440420Y181780D03*
X436480D03*
X428610Y197530D03*
X440420Y201460D03*
X420740Y181780D03*
X424670D03*
X404990Y189650D03*
X426738Y140691D03*
X440420Y185710D03*
X385300Y181780D03*
X424225Y131486D03*
X390584Y160165D03*
X393852D03*
X373903Y160084D03*
X377171D03*
X384048Y160165D03*
X387316D03*
X426466Y165357D03*
X429734D03*
X433002Y158338D03*
X337100Y191800D03*
X336737Y200069D03*
X357924Y162463D03*
X361964D03*
X429266Y124576D03*
X379377Y115180D03*
X383947Y90060D03*
X396547Y95208D03*
X409166Y89377D03*
X409707Y115180D03*
X391538Y95208D03*
X376968Y89308D03*
X366086Y172952D03*
X423198Y158338D03*
X380439Y160084D03*
X370636D03*
X323306Y104033D03*
X327382Y104114D03*
X331584Y104276D03*
X331327Y111177D03*
X336051Y143461D03*
X350225Y111177D03*
X328293Y160541D03*
X351799Y143461D03*
X428610Y205400D03*
X436480D03*
X428610Y209340D03*
X432550D03*
X436480D03*
X440420D03*
X428610Y213270D03*
X440420Y240830D03*
X436480D03*
X428610Y264460D03*
X432550D03*
X428610Y268390D03*
X397500Y257100D03*
X419700Y228100D03*
X440420Y244770D03*
X436480D03*
X432550D03*
X428610D03*
X440420Y248710D03*
X436480D03*
X432550D03*
X428610D03*
X436480Y252640D03*
Y256580D03*
X440420Y260520D03*
Y264460D03*
X436480Y260520D03*
X428610Y256580D03*
X432550Y260520D03*
X325040Y221174D03*
X328600Y205200D03*
X373004Y246896D03*
X393180Y229020D03*
X365696Y234896D03*
X420200Y219200D03*
Y215200D03*
X397110Y229020D03*
X401050D03*
X381370Y236900D03*
X389240Y229020D03*
X385300D03*
X403000Y255900D03*
X413500Y228900D03*
X391200Y202100D03*
X383300Y202300D03*
X373004Y210896D03*
X420200Y295400D03*
X338331Y294331D03*
X371500Y224900D03*
X389240Y236900D03*
X403000Y202200D03*
X406900Y202400D03*
X397110Y221150D03*
X393180D03*
X389240D03*
X385300D03*
X381370D03*
X401050D03*
X369000Y258600D03*
X420600Y252400D03*
X382499Y255601D03*
X385300Y236900D03*
X393180D03*
X397110D03*
X401050D03*
X438926Y296026D03*
X325162Y217162D03*
X328550Y214802D03*
X327900Y284800D03*
X440420Y252640D03*
Y256580D03*
X381370Y229020D03*
X440420Y221150D03*
X408920Y276270D03*
X404990D03*
X389240Y268390D03*
X385300D03*
X424670Y260520D03*
X381370D03*
X420740Y268390D03*
X424670D03*
X432550Y236900D03*
X440420Y272330D03*
X436480D03*
X432550Y240830D03*
X407000Y255800D03*
X424670Y240830D03*
Y232960D03*
X440420Y225090D03*
X389240Y260520D03*
X432550Y232960D03*
X425000Y317000D03*
X424900Y313900D03*
X440700D03*
Y320100D03*
X428729Y321729D03*
X440600Y310700D03*
X425000D03*
X440420Y236900D03*
X436480Y232960D03*
X428610D03*
X432550Y225090D03*
X345930Y252640D03*
Y256580D03*
X361680Y252640D03*
X345930Y221150D03*
X342000Y272330D03*
X349870Y232960D03*
X361680D03*
X342000D03*
X360500Y317500D03*
Y311300D03*
X341600Y317600D03*
Y311200D03*
X344900Y311400D03*
X353607Y309693D03*
X345930Y225090D03*
X349870D03*
X353810Y236900D03*
Y240830D03*
X361680D03*
X369550Y276270D03*
X373490D03*
X353810Y260520D03*
X345930Y272330D03*
X349870Y268390D03*
X353810D03*
X342000Y276270D03*
X345930D03*
X353810Y272330D03*
X349870D03*
X357740D03*
X399499Y202401D03*
X440420Y217210D03*
X422700Y202800D03*
X432550Y205400D03*
X357740Y213270D03*
X349870Y221150D03*
X361680Y217210D03*
X342000Y209340D03*
X361680Y213270D03*
X349870Y217210D03*
X353810Y209340D03*
Y205400D03*
X342000Y213270D03*
Y256580D03*
X349870D03*
X357740Y244770D03*
X336150Y242250D03*
X335800Y245500D03*
X353810Y244770D03*
X335612Y253743D03*
X345930Y244770D03*
X335614Y249922D03*
X349870Y244770D03*
X335652Y269943D03*
X342000Y248710D03*
X385300Y264460D03*
X381370Y268390D03*
Y276270D03*
Y280200D03*
X385500D03*
X389240Y264460D03*
X385300Y272330D03*
X397110Y264460D03*
X401050Y276270D03*
X408920Y272330D03*
X389240D03*
X404990Y280200D03*
X401050Y272330D03*
X404990D03*
X401050Y264460D03*
Y268390D03*
X412860Y280200D03*
X401050D03*
X389500Y302700D03*
X325200Y306800D03*
X397110Y276270D03*
X365620D03*
X361680Y264460D03*
X412860D03*
X420740D03*
X369550Y280200D03*
X373490D03*
X377430Y272330D03*
X373490D03*
Y264460D03*
X381370D03*
X377430D03*
X369550Y272330D03*
Y264460D03*
X361680Y280200D03*
Y276270D03*
Y272330D03*
X365620D03*
Y268390D03*
X361680D03*
X357740Y280200D03*
X416800D03*
X412860Y268390D03*
X408920Y280200D03*
Y264460D03*
X429200Y319500D03*
X404990Y264460D03*
X412860Y272330D03*
X416800Y268390D03*
Y272330D03*
Y264460D03*
X428610Y280200D03*
X424670Y272330D03*
X420740D03*
X424670Y280200D03*
X420740D03*
X428610Y272330D03*
Y276270D03*
X365620Y280200D03*
Y264460D03*
X416800Y276270D03*
X432550Y280200D03*
X377430Y276270D03*
X381370Y272330D03*
X412860Y276270D03*
X432550D03*
Y272330D03*
X436480Y236900D03*
X432550Y268390D03*
X335655Y257793D03*
X353810Y248710D03*
X335695Y265902D03*
X345930Y248710D03*
X436480Y221150D03*
X335636Y278135D03*
X357740Y268390D03*
X428610Y221150D03*
X432550Y213270D03*
X428610Y217210D03*
X349870Y248710D03*
X335695Y261833D03*
X335656Y273995D03*
X357740Y252640D03*
X436480Y217210D03*
Y213270D03*
X428610Y260520D03*
X345930D03*
X328550Y209684D03*
X436480Y264460D03*
X349870Y260520D03*
X357740Y217210D03*
X342000Y260520D03*
X357740Y264460D03*
X322500Y306700D03*
X390400Y300290D03*
X377430Y268390D03*
Y280200D03*
X324200Y319900D03*
X437200Y314200D03*
X329900Y313400D03*
X357740Y236900D03*
X342000Y240830D03*
X353810Y225090D03*
Y232960D03*
X342000Y221150D03*
X335532Y233472D03*
X342000Y225090D03*
X330300Y231300D03*
X353810Y217210D03*
X349870Y205400D03*
X336818Y214802D03*
X336737Y205187D03*
X357740Y205400D03*
X342000Y264460D03*
X345930D03*
X349870D03*
X353810D03*
X345930Y232960D03*
X349870Y236900D03*
X397110Y272330D03*
Y268390D03*
X408920D03*
X404990D03*
X349870Y280200D03*
X345930D03*
Y268390D03*
X420740Y276270D03*
X424670D03*
X436480Y280200D03*
X440420D03*
X349870Y276270D03*
X342000Y268390D03*
X385300Y276270D03*
X357740D03*
X389240D03*
X440420D03*
X436480D03*
X418500Y320100D03*
Y313800D03*
X418600Y307600D03*
X437200Y317000D03*
X428730Y315430D03*
X353810Y276270D03*
Y280200D03*
X363700Y320700D03*
Y314300D03*
X335100Y320600D03*
X363700Y311200D03*
X335300Y317500D03*
Y308100D03*
X353600Y315900D03*
X345408Y315992D03*
X373490Y268390D03*
X369550D03*
X422700Y210400D03*
X404990Y221150D03*
X377000Y257100D03*
X377430Y232960D03*
Y236900D03*
Y240830D03*
X404990Y236900D03*
Y229020D03*
X417300Y258600D03*
X361680Y205400D03*
Y260520D03*
X440420Y232960D03*
X342000Y217210D03*
X353810Y213270D03*
X345930D03*
Y209340D03*
X381370Y244770D03*
X404990D03*
X401050D03*
X424670D03*
X397110D03*
X393180D03*
X389240D03*
X385300D03*
X357740Y225090D03*
X361680D03*
X377430Y244770D03*
Y225090D03*
X361680Y244770D03*
X404990Y213270D03*
X401050D03*
X397110D03*
X381370D03*
X393180D03*
X389240D03*
X385300D03*
X377430Y217210D03*
Y221150D03*
Y213270D03*
X363100Y223100D03*
X345930Y205400D03*
X335559Y221174D03*
X335555Y225254D03*
X428610Y236900D03*
X432550Y217210D03*
Y221150D03*
X436480Y268390D03*
X440420D03*
X432550Y252640D03*
X428610Y225090D03*
X432550Y256580D03*
X353810Y252640D03*
Y256580D03*
X440420Y205400D03*
X337000Y209684D03*
X345930Y236900D03*
X341700Y333300D03*
X364200Y348200D03*
X415200Y371300D03*
X424900Y332800D03*
X417800Y350600D03*
X360500Y330200D03*
X353700Y334100D03*
X334300Y370700D03*
X440600Y329600D03*
X407567Y339767D03*
X437100Y333500D03*
X341600Y327000D03*
X362600Y370700D03*
X324700Y329000D03*
X334800Y351400D03*
X440700Y323300D03*
X407530Y322970D03*
X421700Y323300D03*
X360500Y323900D03*
X373900Y322700D03*
X353600Y322200D03*
X344900Y323800D03*
X388600Y351600D03*
X347400Y351000D03*
X324600Y351600D03*
X430500Y350500D03*
X351800Y342200D03*
X329000Y342800D03*
X434900Y341700D03*
X400200Y343400D03*
X326800Y349400D03*
X432700Y348300D03*
X349600Y348800D03*
X394800Y349300D03*
X329000Y356000D03*
X351800Y355400D03*
X434900Y354900D03*
X400200Y355500D03*
X381400Y329300D03*
X324600Y360600D03*
X347400Y359800D03*
X430500Y359300D03*
X388900Y359600D03*
X351800Y351000D03*
X329000Y351600D03*
X434900Y350500D03*
X400200Y351500D03*
X388800Y355600D03*
X347400Y355400D03*
X324600Y356000D03*
X430500Y354900D03*
X394950Y361550D03*
X349600Y362000D03*
X326800Y362600D03*
X432700Y361700D03*
Y365900D03*
X349600Y366400D03*
X326800Y367000D03*
X394900Y365800D03*
X326800Y353800D03*
X432700Y352700D03*
X349600Y353200D03*
X394900Y353400D03*
X329000Y347200D03*
X434900Y346100D03*
X351800Y346600D03*
X400200Y347500D03*
X394900Y357300D03*
X349600Y357600D03*
X326800Y358200D03*
X432700Y357100D03*
X329000Y364800D03*
X351800Y364200D03*
X400100Y363500D03*
X435100Y363700D03*
X324600Y364800D03*
X347400Y364200D03*
X430300Y363700D03*
X388900Y363500D03*
X434900Y359300D03*
X329000Y360200D03*
X351800Y359800D03*
X400100Y359600D03*
X432700Y335100D03*
X326800Y336200D03*
X394700Y337300D03*
X349600Y335600D03*
X434900Y337300D03*
X329000Y338400D03*
X351800Y337800D03*
X400300Y338200D03*
X349600Y340000D03*
X326800Y340600D03*
X432700Y339500D03*
X394800Y341600D03*
X417200Y330700D03*
X349600Y331200D03*
X326800Y331800D03*
X432700Y330700D03*
X394600Y333100D03*
X353441Y325441D03*
X436700Y322500D03*
X338500Y327000D03*
X360500D03*
X347800Y326300D03*
X357400Y330200D03*
X364400Y330000D03*
X332100Y328500D03*
X363900Y324200D03*
X334800Y323700D03*
X424900Y326400D03*
X434300Y328900D03*
X436800D03*
X416600Y325700D03*
X417400Y323000D03*
X341600Y323900D03*
X429500Y324400D03*
X432700Y343900D03*
X326800Y345000D03*
X349600Y344400D03*
X394700Y345500D03*
X430500Y337300D03*
X324600Y338400D03*
X347400Y337800D03*
X388500Y339500D03*
X434900Y332900D03*
X351500Y333200D03*
X329000Y334000D03*
X400200Y333800D03*
X324600Y334000D03*
X430500Y332900D03*
X388500Y335800D03*
X347400Y333400D03*
Y368600D03*
X388900Y367900D03*
X430500Y368100D03*
X324600Y369200D03*
X414400Y330900D03*
X324600Y342800D03*
X347400Y342200D03*
X430500Y341700D03*
X388500Y343800D03*
X324600Y347200D03*
X430500Y346100D03*
X347400Y346600D03*
X388500Y347600D03*
X401700Y367900D03*
X369000Y338600D03*
X361900Y337900D03*
X421800Y326500D03*
X393100Y370400D03*
X418400Y345600D03*
X418000Y334700D03*
X364200Y354500D03*
X341500Y370900D03*
X373900Y325900D03*
X428300Y326300D03*
X364500Y327100D03*
X324400Y326500D03*
X367600Y370700D03*
X357300Y327000D03*
X334900Y345200D03*
X334800Y334200D03*
X335000Y327000D03*
X364500Y332800D03*
X345500Y329600D03*
X436100Y324900D03*
X534540Y53417D03*
X530456Y53378D03*
X483461Y21861D03*
X483639Y33561D03*
X483539Y17961D03*
Y29661D03*
X442141Y5100D03*
Y900D03*
X452659Y5100D03*
Y900D03*
X472447Y60861D03*
Y25761D03*
Y37461D03*
Y49161D03*
X449900Y127200D03*
X543068Y170790D03*
X536450Y174790D03*
X531430Y182790D03*
X444360Y201460D03*
Y189650D03*
Y193590D03*
X474600Y198800D03*
X481700Y195200D03*
X481268Y180790D03*
X458199Y174179D03*
X481268Y177199D03*
X481268Y174790D03*
X482800Y172800D03*
X474100Y172400D03*
X484859Y159199D03*
X486859Y160903D03*
X446200Y130100D03*
X445100Y113800D03*
X444700Y88600D03*
X531400Y141600D03*
X554300Y167400D03*
X553700Y185000D03*
X442405Y161298D03*
X462568Y197294D03*
X462729Y201496D03*
X462568Y193093D03*
X462450Y183054D03*
X462700Y179300D03*
X462406Y189053D03*
X470686Y161226D03*
X533300Y194100D03*
X471047Y190463D03*
X500000Y146800D03*
X531430Y166752D03*
X506839Y141939D03*
X502718D03*
X462450Y176822D03*
X454560Y161250D03*
X450484Y161252D03*
X524859Y152581D03*
X496859Y159199D03*
X474500Y192300D03*
X481268Y190790D03*
X533300Y199500D03*
X534440Y176790D03*
X543600Y190800D03*
X500859Y159199D03*
X458564Y171770D03*
X454560Y171768D03*
X529726Y184790D03*
X500000Y149800D03*
X514919Y152458D03*
X469874Y116118D03*
Y91118D03*
X449926Y96180D03*
Y85993D03*
X450032Y101234D03*
X486475Y91002D03*
X450190Y106304D03*
X450250Y111294D03*
X450291Y121070D03*
X442405Y171816D03*
X446445D03*
X463964Y130559D03*
X452848Y146132D03*
X466616Y141410D03*
X442619Y144691D03*
X466703Y194986D03*
X491391Y150643D03*
X481048Y150805D03*
X485028Y175463D03*
X478882Y160681D03*
X451638Y150805D03*
X462048D03*
X485028Y180463D03*
X476967Y158977D03*
X512430Y166752D03*
X493047Y185463D03*
X474762Y160681D03*
X503526Y171261D03*
X512430Y185821D03*
X472847Y158977D03*
X493047Y190463D03*
X503526Y190261D03*
X512430Y189362D03*
X451932Y176822D03*
X474650Y182790D03*
X520859Y150877D03*
X531430Y188790D03*
X518859Y152581D03*
X446445Y161298D03*
X450484Y171770D03*
X545572Y143368D03*
X483095Y164790D03*
X545572Y146636D03*
X483500Y167300D03*
X481391Y162790D03*
X545572Y140100D03*
Y149904D03*
X481391Y168790D03*
X466646Y171744D03*
X471300Y180500D03*
X462606Y171744D03*
X463028Y185463D03*
X543600Y186800D03*
X444360Y181780D03*
Y185710D03*
X474650Y186790D03*
X474600Y194900D03*
X494859Y152581D03*
X522859Y159199D03*
X543068Y178790D03*
X538000Y149300D03*
X458564Y161252D03*
X553446Y146636D03*
Y149904D03*
X544700Y200900D03*
X471048Y175463D03*
X466646Y161226D03*
X462606D03*
X470686Y171744D03*
X451888Y189053D03*
X451932Y184902D03*
Y180863D03*
X452211Y201496D03*
X452050Y193093D03*
Y197294D03*
X534647Y149286D03*
X518200Y148700D03*
X557900Y166600D03*
X545500Y194800D03*
X492859Y172561D03*
X505300Y159700D03*
X545782Y171400D03*
X502859Y160903D03*
X540448Y159450D03*
X507683Y279691D03*
X498562Y284473D03*
X496053Y276714D03*
X507682Y289691D03*
X474650Y210790D03*
X481268Y208790D03*
X544165Y251445D03*
X474650Y206790D03*
X542462Y245540D03*
X481268Y204790D03*
X559084Y241722D03*
X444360Y205400D03*
X557260Y255447D03*
X540647Y257505D03*
X473231Y227823D03*
X544165D03*
X444360Y209340D03*
X551184Y229792D03*
X544165Y231760D03*
X542462Y233729D03*
X544165Y235697D03*
X542462Y237666D03*
X557270Y235851D03*
X535183Y245386D03*
X444360Y244770D03*
X555566Y241656D03*
X542351Y261288D03*
X529309Y238650D03*
X555550Y263256D03*
X542462Y265225D03*
X544165Y267193D03*
X542462Y269162D03*
X474650Y202790D03*
X544165Y271130D03*
X481900Y202000D03*
X542462Y273099D03*
X464509D03*
X487846Y297423D03*
X466212Y265225D03*
X477343Y233729D03*
X464509Y263256D03*
X450110Y237666D03*
X466212Y261288D03*
X474934Y241603D03*
X479046Y257505D03*
X474934Y245540D03*
X464509Y241603D03*
X461100Y250600D03*
X473231Y239634D03*
X476944Y255382D03*
X474934Y237666D03*
X477343Y259319D03*
X473231Y235697D03*
X474934Y263256D03*
X466212Y233397D03*
Y239634D03*
X444360Y260520D03*
X466212Y243571D03*
X473231Y247508D03*
X475240Y253414D03*
X473231Y257351D03*
Y261288D03*
Y265225D03*
X523726Y274900D03*
X543726Y287918D03*
X542462Y241603D03*
X544165Y243571D03*
X466212Y257477D03*
X554100Y207500D03*
X460960Y277200D03*
X527700Y288500D03*
X496064Y297341D03*
X487846Y286904D03*
X489382Y284554D03*
X559557Y245000D03*
X455165Y230312D03*
X455766Y248534D03*
Y252736D03*
X555556Y260096D03*
X475200Y269700D03*
X473231Y231842D03*
X463098Y213778D03*
Y217818D03*
X463214Y226060D03*
X463093Y221898D03*
X507900Y309300D03*
X555556Y247591D03*
X525827Y309878D03*
X486200Y317000D03*
Y310700D03*
X507900Y315981D03*
X482600Y319800D03*
X484500Y306800D03*
X464832Y235806D03*
X444360Y272330D03*
X467300Y317000D03*
X443900D03*
X474300Y321700D03*
X471987Y306987D03*
X467300Y313900D03*
X499600Y214300D03*
X527300Y214200D03*
X514858Y202234D03*
X488768Y202434D03*
X477664Y284691D03*
X485682Y279691D03*
X544165Y263102D03*
X557639Y265189D03*
X451400Y307790D03*
X525486Y202134D03*
X504859Y214381D03*
X508859D03*
X451814Y235806D03*
X560755Y239842D03*
X555566Y237666D03*
X450436Y269032D03*
X450434Y264976D03*
X450393Y256925D03*
X444360Y248710D03*
X450393Y260925D03*
X452580Y213778D03*
X444360Y213270D03*
X452696Y226060D03*
X500742Y202242D03*
X450434Y273045D03*
X444360Y268390D03*
X452580Y217818D03*
X444360Y217210D03*
X462936Y205587D03*
X452418D03*
X452575Y221898D03*
X513726Y287918D03*
X533726D03*
X452579Y209738D03*
X463097D03*
X460954Y269032D03*
X460911Y260925D03*
X543600Y257000D03*
X544165Y247508D03*
X540758Y239634D03*
X539859Y247508D03*
X460952Y264976D03*
X460912Y256925D03*
X466212Y271130D03*
X474934Y267193D03*
X538833Y259319D03*
X542462Y249477D03*
X453120Y310510D03*
X456700Y315500D03*
X481700Y312300D03*
X444360Y276270D03*
X497441Y309300D03*
X492600Y320200D03*
X492700Y313900D03*
X492600Y307400D03*
X482341Y315459D03*
X497165Y315981D03*
X464100Y320200D03*
X464000Y313800D03*
X464100Y307600D03*
X443800Y320100D03*
Y313800D03*
X443900Y310700D03*
X474241Y315459D03*
X550784Y275446D03*
X473231Y251445D03*
X519700Y224200D03*
X472768Y224734D03*
X501300Y221500D03*
X444360Y236900D03*
X524859Y214381D03*
X496859D03*
X533467Y298868D03*
X513590Y299030D03*
X475240Y229792D03*
X555556Y253414D03*
X460700Y246100D03*
X460952Y273045D03*
X463525Y257736D03*
Y246024D03*
X465684Y230312D03*
X555556Y250000D03*
X555556Y257456D03*
X553041Y272948D03*
X553057Y232082D03*
X545000Y218800D03*
X519195Y281701D03*
X499664Y294691D03*
X542700Y307700D03*
X514192Y309878D03*
X545200Y213100D03*
X486100Y332800D03*
X507483Y328603D03*
X507900Y339500D03*
X468500Y370900D03*
X507900Y334763D03*
Y322140D03*
X493155Y346955D03*
X467200Y329600D03*
X450100Y329700D03*
X442400Y371000D03*
X474200Y328800D03*
X467300Y348500D03*
X447500Y345200D03*
X486100Y323300D03*
X467300D03*
X453400Y351100D03*
X475900Y350500D03*
X457800Y342300D03*
X480300Y341700D03*
X478100Y348300D03*
X455600Y348900D03*
X480300Y354900D03*
X457800Y355500D03*
X453400Y359900D03*
X475900Y359500D03*
X480300Y350500D03*
X457800Y351100D03*
X453400Y355500D03*
X475900Y354900D03*
X455600Y362100D03*
X478100Y361500D03*
X455600Y366500D03*
X478100Y365900D03*
Y352700D03*
X455600Y353300D03*
X480300Y346100D03*
X457800Y346700D03*
X455600Y357700D03*
X478100Y357100D03*
X480300Y363700D03*
X457800Y364300D03*
X475900Y363700D03*
X453400Y364300D03*
X457800Y359700D03*
X480300Y359300D03*
X455600Y335700D03*
X478100Y335100D03*
X457800Y337900D03*
X480300Y337300D03*
X455600Y340100D03*
X478100Y339500D03*
X455600Y331300D03*
X478100Y330700D03*
X482108Y324908D03*
X443800Y326500D03*
X447500Y329500D03*
X448000Y324900D03*
X467200Y326500D03*
X489300Y329600D03*
X470400Y329700D03*
X482400Y330400D03*
X493100Y331200D03*
X463600Y329500D03*
X493200Y323900D03*
X463800Y323200D03*
X474500Y324100D03*
X455600Y344500D03*
X478100Y343900D03*
X453400Y337900D03*
X475900Y337300D03*
X480300Y332900D03*
X458200Y333600D03*
X475900Y332900D03*
X453400Y333500D03*
X475900Y368100D03*
X453400Y368700D03*
X513726Y323874D03*
X536900Y324300D03*
X475900Y341700D03*
X453400Y342300D03*
X475900Y346100D03*
X453400Y346700D03*
X447900Y341200D03*
X500700Y342100D03*
X444300Y336400D03*
X490800Y337400D03*
X447200Y335600D03*
X492400Y326500D03*
X463500Y371000D03*
X497165Y328603D03*
X496965Y334763D03*
X493157Y334357D03*
X493354Y353254D03*
X497165Y322140D03*
X482400Y328000D03*
X464100Y326500D03*
X443900Y329600D03*
X447400Y371000D03*
X473700Y326400D03*
X447100Y355000D03*
X463700Y345800D03*
X463400Y334300D03*
X525827Y324622D03*
X578491Y193300D03*
X562900Y186900D03*
G54D21*
X560000Y75000D03*
Y120000D03*
G54D31*
G01X320400Y286900D02*
Y267300D01*
X315100Y262000D01*
X306600D01*
X303650Y259050D01*
Y256150D01*
X297300Y249800D01*
X293480D01*
G54D22*
X535020Y80000D03*
X500492Y115000D03*
G54D13*
X180933Y132765D03*
G54D32*
G01X0Y374016D02*
X590551D01*
Y-137795D01*
X535433D01*
Y-49100D01*
X354324D01*
Y0D01*
X0D01*
Y374016D01*
G54D23*
X524000Y66600D03*
X499100Y64000D03*
X537000Y128400D03*
X515100Y131000D03*
X578000Y64000D03*
Y131000D03*
G54D14*
X135739Y117673D03*
X127865Y196413D03*
X135739D03*
X127865Y188539D03*
X135739D03*
X127865Y180665D03*
X135739D03*
X127865Y172791D03*
X135739D03*
X127865Y164917D03*
X135739D03*
X127865Y157043D03*
X135739D03*
X127865Y149169D03*
X135739D03*
X127865Y141295D03*
X135739D03*
X127865Y133421D03*
X135739D03*
X127865Y125547D03*
X135739D03*
X127865Y117673D03*
Y227909D03*
X135739D03*
X127865Y220035D03*
X135739D03*
X127865Y212161D03*
X135739D03*
X127865Y204287D03*
X135739D03*
G54D24*
X510492Y80000D03*
X536750Y18170D03*
X517060Y31830D03*
X556440D03*
X535020Y90000D03*
Y100000D03*
Y110000D03*
X525020Y85000D03*
Y95000D03*
Y105000D03*
Y115000D03*
X500492Y105000D03*
Y95000D03*
Y85000D03*
X510492Y110000D03*
Y100000D03*
Y90000D03*
G54D15*
X224155Y65002D03*
X219155D03*
X224155Y70002D03*
X219155D03*
X224155Y75002D03*
X219155D03*
X224155Y80002D03*
X219155D03*
X255448Y15323D03*
Y10323D03*
X250448Y15323D03*
Y10323D03*
X245448Y15323D03*
Y10323D03*
X240448Y15323D03*
Y10323D03*
X235448Y15323D03*
Y10323D03*
X230448Y15323D03*
Y10323D03*
X225448Y15323D03*
Y10323D03*
X220448Y15323D03*
X257572Y97229D03*
X262572D03*
X224155Y85002D03*
X219155D03*
X224155Y90002D03*
X219155D03*
X224155Y95002D03*
X306535Y284191D03*
Y279191D03*
Y274191D03*
X470107Y139568D03*
Y134568D03*
X559621Y152174D03*
X467600Y294600D03*
Y289600D03*
X562282Y302289D03*
X564621Y147174D03*
Y152174D03*
X569621Y147174D03*
Y152174D03*
X574621Y147174D03*
Y152174D03*
X579621Y147174D03*
Y152174D03*
X572282Y302289D03*
X567282D03*
G54D16*
X220448Y10323D03*
X252572Y97229D03*
X219155Y95002D03*
X306535Y269191D03*
X559621Y147174D03*
X467600Y284600D03*
X577282Y302289D03*
G54D25*
X567284Y352337D03*
G54D17*
X307810Y178476D03*
X287810D03*
X283707Y287610D03*
Y267610D03*
X359683Y99114D03*
X339683D03*
X562429Y47837D03*
X542429D03*
X480282Y-1334D03*
X460282D03*
X564810Y202437D03*
X575610Y240237D03*
Y229437D03*
Y218637D03*
Y207837D03*
X564810Y245637D03*
Y234837D03*
Y224037D03*
Y213237D03*
G54D26*
X554284Y334837D03*
X580284D03*
G54D27*
G01X196030Y192060D02*
X197544Y193574D01*
X263394D01*
X271000Y185968D01*
G01X190751Y190424D02*
X188903D01*
X188122Y189643D01*
Y177000D01*
G01X271000Y217718D02*
X266994D01*
X265947Y218764D01*
X244756D01*
X243307Y217316D01*
X242053D01*
X241166Y218203D01*
X207574D01*
X206687Y217316D01*
X205433D01*
X203984Y218764D01*
X192147D01*
X191366Y217983D01*
Y191039D01*
X190751Y190424D01*
G01D02*
X192265Y188910D01*
X192880D01*
G01X190348Y177000D02*
Y178346D01*
X190638Y178636D01*
X191375D01*
X191780Y178230D01*
X192636D01*
X192926Y178520D01*
Y179576D01*
X192636Y179866D01*
X190638D01*
X190348Y180156D01*
Y180606D01*
X190058Y180896D01*
X189730D01*
Y182610D01*
G01X377430Y193590D02*
Y195304D01*
X378024D01*
X378314Y195594D01*
Y196044D01*
X378604Y196334D01*
X380484D01*
X380774Y196624D01*
Y209342D01*
X380484Y209632D01*
X379834D01*
X379544Y209342D01*
Y197555D01*
X379254Y197265D01*
X378604D01*
X378314Y197555D01*
Y206724D01*
X378024Y207014D01*
X370550D01*
X370260Y207304D01*
Y209184D01*
X369970Y209474D01*
X355614D01*
X355324Y209184D01*
Y208534D01*
X355614Y208244D01*
X368740D01*
X369030Y207954D01*
Y207304D01*
X368740Y207014D01*
X339000D01*
G01X271000Y190724D02*
X268550Y193175D01*
Y196434D01*
X268260Y196724D01*
X194806D01*
X194516Y196434D01*
Y190714D01*
X194806Y190424D01*
X200404D01*
X200694Y190134D01*
Y184124D01*
X199180Y182610D01*
G01X227520Y255050D02*
X226006Y253536D01*
X224165D01*
X223925Y253295D01*
Y250940D01*
X223684Y250700D01*
X223345D01*
X223105Y250940D01*
Y253295D01*
X222864Y253536D01*
X222525D01*
X222285Y253295D01*
Y250940D01*
X222044Y250700D01*
X221705D01*
X221465Y250940D01*
Y253295D01*
X221224Y253536D01*
X220885D01*
X220645Y253295D01*
Y250940D01*
X220404Y250700D01*
X220065D01*
X219825Y250940D01*
Y253295D01*
X219584Y253536D01*
X216225D01*
X215985Y253295D01*
Y249940D01*
X215744Y249700D01*
X215405D01*
X215165Y249940D01*
Y253295D01*
X214924Y253536D01*
X214585D01*
X214345Y253295D01*
Y249940D01*
X214104Y249700D01*
X213765D01*
X213525Y249940D01*
Y253295D01*
X213284Y253536D01*
X198544D01*
X197544Y254536D01*
Y266062D01*
X195600Y268007D01*
Y271000D01*
G01X186580Y258200D02*
X186429D01*
X184914Y259714D01*
X179086D01*
X178000Y260800D01*
G01X182364Y253536D02*
X188094D01*
X189730Y251900D01*
G01X186580Y248750D02*
X188094Y250264D01*
X190244D01*
X191244Y251264D01*
Y258933D01*
X190463Y259714D01*
X186074D01*
X184944Y260844D01*
Y261977D01*
X183936Y262986D01*
X182803D01*
X181569Y264219D01*
Y271000D01*
G01X189730Y261350D02*
Y261530D01*
X191244Y263044D01*
Y265356D01*
X190500Y266100D01*
X183100D01*
X182800Y266400D01*
Y267200D01*
X183200Y267600D01*
X189000D01*
X189660Y268260D01*
Y268840D01*
X183860D01*
X183200Y269500D01*
X183530Y269830D01*
X184242D01*
X185412Y271000D01*
G01X235334D02*
Y270358D01*
X235041Y270065D01*
Y268811D01*
X235995Y267857D01*
Y266224D01*
X235334Y265563D01*
Y263994D01*
X236343Y262986D01*
X240756D01*
X241756Y261986D01*
Y244964D01*
X242756Y243964D01*
X257506D01*
X259020Y242450D01*
G01X262170Y245600D02*
Y245570D01*
X260600Y244000D01*
Y241888D01*
X259647Y240936D01*
X245793D01*
X245728Y241000D01*
X234400D01*
X233500Y240100D01*
X216300D01*
X215464Y240936D01*
X182364D01*
X180634Y242666D01*
Y250386D01*
G01X178000Y209324D02*
X188094D01*
X189730Y210960D01*
G01X178371Y212104D02*
X178474Y212000D01*
X184480D01*
X189730Y217250D01*
G01X196030Y223550D02*
X194394Y221914D01*
X182059D01*
X178000Y217855D01*
G01X262170Y251900D02*
X263684Y253414D01*
X265834D01*
X266834Y254414D01*
Y271000D01*
G01X339000Y202974D02*
X373484D01*
X373774Y203264D01*
Y203914D01*
X373484Y204204D01*
X363484D01*
X363194Y204494D01*
Y205145D01*
X363484Y205434D01*
X374714D01*
X375004Y205145D01*
Y197716D01*
X374714Y197427D01*
X374064D01*
X373774Y197716D01*
Y200634D01*
X373484Y200924D01*
X371440D01*
X371151Y200634D01*
Y196624D01*
X371440Y196334D01*
X374714D01*
X375004Y196044D01*
Y191454D01*
X375294Y191164D01*
X379366D01*
X379656Y190874D01*
Y189650D01*
X381370D01*
G01X271000Y180134D02*
X258346D01*
X254234Y184246D01*
X251084D01*
X249570Y185760D01*
G01X251836Y177000D02*
X245604D01*
X244195Y178409D01*
X242046D01*
X241756Y178699D01*
Y184246D01*
X243270Y185760D01*
G01X228451Y177000D02*
X228150Y177300D01*
X227226D01*
X226936Y177590D01*
Y180039D01*
X227226Y180329D01*
X234027D01*
X235334Y181636D01*
Y183834D01*
X235624Y184124D01*
X238606D01*
X240120Y182610D01*
G01X416800Y181780D02*
X414374Y179354D01*
Y175000D01*
G01X412860Y181780D02*
X411146D01*
Y181236D01*
X410434Y180525D01*
Y175000D01*
G01X236970Y182610D02*
Y177879D01*
X237260Y177589D01*
X242003D01*
X242592Y177000D01*
G01X218216D02*
X214121Y181096D01*
X213284D01*
X211770Y182610D01*
G01X208630Y188910D02*
X209529Y188011D01*
X210144D01*
X210881Y187274D01*
X244495D01*
X244784Y186984D01*
Y182096D01*
X246654Y180226D01*
X248525D01*
X250557Y178194D01*
X254681D01*
X255875Y177000D01*
G01X264925D02*
X262911Y179014D01*
X250897D01*
X248044Y181866D01*
Y190134D01*
X247755Y190424D01*
X210266D01*
X208630Y192060D01*
G01X202330Y185760D02*
Y184124D01*
X202957D01*
X203844Y183237D01*
Y181983D01*
X203450Y181588D01*
Y179646D01*
X206096Y177000D01*
G01X360150Y175000D02*
Y179064D01*
X360440Y179354D01*
X375426D01*
X375716Y179064D01*
Y177840D01*
X377430D01*
G01X208630Y185760D02*
X209324Y185066D01*
Y184057D01*
X210144Y183237D01*
Y181983D01*
X209324Y181163D01*
Y177000D01*
X214552D01*
G01X404990Y177840D02*
Y176126D01*
X404586D01*
X404296Y175836D01*
Y175000D01*
G01X222856Y177000D02*
Y183834D01*
X223146Y184124D01*
X229481D01*
X229771Y184414D01*
Y184861D01*
X230670Y185760D01*
G01X347444Y175000D02*
Y177424D01*
X347734Y177714D01*
X349546D01*
X349836Y177424D01*
Y175290D01*
X350126Y175000D01*
X350776D01*
X351066Y175290D01*
Y178654D01*
X350776Y178944D01*
X346970D01*
X346680Y179234D01*
Y179884D01*
X346970Y180174D01*
X387436D01*
X387726Y180464D01*
Y183706D01*
X388016Y183996D01*
X389240D01*
Y185710D01*
G01X296400Y330000D02*
X299600D01*
X305900Y323700D01*
Y314500D01*
X316900Y303500D01*
X319840D01*
X320320Y303020D01*
Y301580D01*
X320801Y301100D01*
X321480D01*
X321960Y301580D01*
Y303020D01*
X322441Y303500D01*
X323120D01*
X323600Y303020D01*
Y301580D01*
X324081Y301100D01*
X324760D01*
X325240Y301580D01*
Y303020D01*
X325721Y303500D01*
X326400D01*
X326880Y303020D01*
Y301580D01*
X327361Y301100D01*
X328040D01*
X328520Y301580D01*
Y303020D01*
X329001Y303500D01*
X329680D01*
X330160Y303020D01*
Y301580D01*
X330641Y301100D01*
X331320D01*
X331800Y301580D01*
Y303020D01*
X332281Y303500D01*
X333101D01*
X334001Y302600D01*
X334741D01*
X335641Y303500D01*
X336600D01*
X359500Y280600D01*
Y278450D01*
X361680Y276270D01*
G01X301627Y325227D02*
X302100Y324754D01*
Y315700D01*
X305366Y312434D01*
Y311755D01*
X303445Y309834D01*
Y309155D01*
X303926Y308674D01*
X304605D01*
X306526Y310595D01*
X307205D01*
X320700Y297100D01*
X339900D01*
X355500Y281500D01*
Y275200D01*
X356300Y274400D01*
X362400D01*
X363700Y273100D01*
Y266600D01*
X365620Y264680D01*
Y264460D01*
G01X230650Y269927D02*
X230600Y269978D01*
Y270700D01*
G01X212900Y271000D02*
Y269400D01*
X212814Y269314D01*
Y269273D01*
X211770Y268228D01*
Y267408D01*
X212010Y267168D01*
X214862D01*
X215102Y266928D01*
Y266588D01*
X214862Y266348D01*
X212010D01*
X211770Y266108D01*
Y264500D01*
G01X227520D02*
X227500D01*
X225900Y262900D01*
X211228D01*
X210256Y263873D01*
Y268856D01*
X211300Y269900D01*
G01X200400Y270000D02*
X200816Y269584D01*
Y257564D01*
X201780Y256600D01*
X206891D01*
X207371Y256120D01*
Y256080D01*
X207852Y255600D01*
X208531D01*
X209011Y256080D01*
Y256120D01*
X209492Y256600D01*
X210171D01*
X210651Y256120D01*
Y256080D01*
X211132Y255600D01*
X211811D01*
X212291Y256080D01*
Y256120D01*
X212772Y256600D01*
X213451D01*
X213931Y256120D01*
Y256080D01*
X214412Y255600D01*
X215091D01*
X215571Y256080D01*
Y256120D01*
X216052Y256600D01*
X231500D01*
X232306Y255794D01*
Y250900D01*
X231670Y250264D01*
X230600D01*
X230000Y250864D01*
Y252100D01*
X230670Y252770D01*
Y255050D01*
G01X204300Y269000D02*
Y267453D01*
X203966Y267118D01*
Y260714D01*
X204966Y259714D01*
X232306D01*
X233820Y258200D01*
G01X208410Y270504D02*
Y266722D01*
X206994Y265306D01*
Y262864D01*
X205480Y261350D01*
G01X259020Y264500D02*
X257506Y262986D01*
X255243D01*
X254356Y263873D01*
Y265244D01*
X253400Y266200D01*
X252278D01*
X251206Y265127D01*
Y263991D01*
X250200Y262986D01*
X245784D01*
X244784Y263986D01*
Y265360D01*
X243784Y266360D01*
X239760D01*
X238978Y267142D01*
Y268565D01*
X240626Y270213D01*
Y271000D01*
G01X268700Y266100D02*
X270000Y267400D01*
G01X265320Y248750D02*
X267136D01*
X269186Y250800D01*
Y261350D01*
G01X260400Y271000D02*
Y270600D01*
X259400Y269600D01*
Y267200D01*
X260534Y266066D01*
Y260723D01*
X259647Y259836D01*
X258393D01*
X257500Y258943D01*
Y250400D01*
X259020Y248880D01*
Y248750D01*
G01X271000Y265480D02*
X267671Y262151D01*
Y260723D01*
X267800Y260594D01*
Y252000D01*
X266186Y250386D01*
X260534D01*
X259020Y251900D01*
G01X357740Y201460D02*
X355324Y199044D01*
X340409D01*
X339619Y198255D01*
X339000D01*
G01X447000Y219632D02*
X440564D01*
X438814Y217882D01*
Y199864D01*
X436480Y197530D01*
G01X428610Y221150D02*
Y219436D01*
X430124Y217921D01*
Y197766D01*
X431874Y196016D01*
X442319D01*
X445412Y199108D01*
X447000D01*
G01X343712Y175000D02*
Y195312D01*
X345930Y197530D01*
G01X420740Y177840D02*
X422460Y176120D01*
X447000D01*
G01X365620Y177840D02*
Y176250D01*
X366870Y175000D01*
X367900D01*
G01X447000Y187239D02*
X403461D01*
X401050Y189650D01*
G01Y181780D02*
X398624Y179354D01*
Y177000D01*
X396624Y175000D01*
X390584D01*
G01X389240Y177840D02*
X394694Y183294D01*
X417533D01*
X418314Y182513D01*
Y175000D01*
G01X389240Y185710D02*
X391997D01*
X393592Y184114D01*
X417884D01*
X419134Y182864D01*
Y176350D01*
X419434Y176050D01*
Y175000D01*
X429734D01*
G01X447000Y195196D02*
X428684D01*
X426184Y197696D01*
Y218474D01*
X410184Y234474D01*
X367416D01*
X366323Y233382D01*
X365069D01*
X363776Y234674D01*
X346000D01*
X342000Y238674D01*
Y240830D01*
G01X385300Y264460D02*
Y264500D01*
X387634Y266834D01*
Y277665D01*
X388035D01*
Y282735D01*
X387835D01*
X387634Y282935D01*
Y284200D01*
X383000Y288834D01*
Y291955D01*
X383480Y292435D01*
X384320D01*
X384800Y292915D01*
Y293595D01*
X384320Y294075D01*
X383480D01*
X383000Y294555D01*
Y295235D01*
X383480Y295715D01*
X384320D01*
X384800Y296195D01*
Y296875D01*
X384320Y297355D01*
X383480D01*
X383000Y297835D01*
Y298515D01*
X383480Y298995D01*
X384320D01*
X384800Y299475D01*
Y300155D01*
X384320Y300635D01*
X383480D01*
X383000Y301115D01*
Y301795D01*
X383480Y302275D01*
X384320D01*
X384800Y302755D01*
Y303435D01*
X384320Y303915D01*
X383480D01*
X383000Y304395D01*
Y305075D01*
X383480Y305555D01*
X384320D01*
X384800Y306035D01*
Y306715D01*
X384320Y307195D01*
X383480D01*
X383000Y307675D01*
Y308355D01*
X383480Y308835D01*
X384320D01*
X384800Y309315D01*
Y309995D01*
X384320Y310475D01*
X383480D01*
X383000Y310955D01*
Y311635D01*
X383480Y312115D01*
X384320D01*
X384800Y312595D01*
Y313275D01*
X384320Y313755D01*
X383480D01*
X383000Y314235D01*
Y314915D01*
X383480Y315395D01*
X384320D01*
X384800Y315875D01*
Y316555D01*
X384320Y317035D01*
X383480D01*
X383000Y317515D01*
Y318195D01*
X383480Y318675D01*
X384320D01*
X384800Y319155D01*
Y319835D01*
X384320Y320315D01*
X383480D01*
X383000Y320795D01*
Y321475D01*
X383480Y321955D01*
X384320D01*
X384800Y322435D01*
Y323115D01*
X384320Y323595D01*
X383480D01*
X383000Y324075D01*
Y324755D01*
X383480Y325235D01*
X384320D01*
X384800Y325715D01*
Y326395D01*
X384320Y326875D01*
X383480D01*
X383000Y327355D01*
Y328035D01*
X383480Y328515D01*
X384320D01*
X384800Y328995D01*
Y329675D01*
X384320Y330155D01*
X383480D01*
X383000Y330635D01*
Y331315D01*
X383480Y331795D01*
X384320D01*
X384800Y332275D01*
Y332955D01*
X384320Y333435D01*
X383480D01*
X383000Y333915D01*
Y334595D01*
X383480Y335075D01*
X384320D01*
X384800Y335555D01*
Y336235D01*
X384320Y336715D01*
X383480D01*
X383000Y337195D01*
Y337875D01*
X383480Y338355D01*
X384320D01*
X384800Y338835D01*
Y339515D01*
X384320Y339995D01*
X383480D01*
X383000Y340475D01*
Y341155D01*
X383480Y341635D01*
X384320D01*
X384800Y342115D01*
Y342795D01*
X384320Y343275D01*
X383480D01*
X383000Y343755D01*
Y346000D01*
X388600Y351600D01*
G01X388800Y355600D02*
X386123Y352923D01*
X385444D01*
X385373Y352994D01*
X384694D01*
X384213Y352513D01*
Y351834D01*
X384284Y351763D01*
Y351084D01*
X383400Y350200D01*
X382721D01*
X382100Y350200D01*
X381590Y349690D01*
Y349011D01*
X381591Y348391D01*
X379720Y346520D01*
X378880D01*
X378400Y346039D01*
Y345360D01*
X378880Y344880D01*
X379720D01*
X380200Y344399D01*
Y343720D01*
X379720Y343240D01*
X378880D01*
X378400Y342759D01*
Y342080D01*
X378880Y341600D01*
X379720D01*
X380200Y341119D01*
Y340440D01*
X379720Y339960D01*
X378880D01*
X378400Y339479D01*
Y338800D01*
X378880Y338320D01*
X379720D01*
X380200Y337839D01*
Y337160D01*
X379720Y336680D01*
X378880D01*
X378400Y336199D01*
Y335520D01*
X378880Y335040D01*
X379720D01*
X380200Y334559D01*
Y333880D01*
X379720Y333400D01*
X378880D01*
X378400Y332919D01*
Y332240D01*
X378880Y331760D01*
X379720D01*
X380200Y331279D01*
Y330600D01*
X379720Y330120D01*
X378880D01*
X378400Y329639D01*
Y328960D01*
X378880Y328480D01*
X379720D01*
X380200Y327999D01*
Y327320D01*
X379720Y326840D01*
X378880D01*
X378400Y326359D01*
Y325680D01*
X378880Y325200D01*
X379720D01*
X380200Y324719D01*
Y324040D01*
X379720Y323560D01*
X378880D01*
X378400Y323079D01*
Y322400D01*
X378880Y321920D01*
X379720D01*
X380200Y321439D01*
Y320760D01*
X379720Y320280D01*
X378880D01*
X378400Y319799D01*
Y319120D01*
X378880Y318640D01*
X379720D01*
X380200Y318159D01*
Y317480D01*
X379720Y317000D01*
X378880D01*
X378400Y316519D01*
Y315840D01*
X378880Y315360D01*
X379720D01*
X380200Y314879D01*
Y314200D01*
X379720Y313720D01*
X378880D01*
X378400Y313239D01*
Y312560D01*
X378880Y312080D01*
X379720D01*
X380200Y311599D01*
Y310920D01*
X379720Y310440D01*
X378880D01*
X378400Y309959D01*
Y309280D01*
X378880Y308800D01*
X379720D01*
X380200Y308319D01*
Y307640D01*
X379720Y307160D01*
X378880D01*
X378400Y306679D01*
Y306000D01*
X378880Y305520D01*
X379720D01*
X380200Y305039D01*
Y304360D01*
X379720Y303880D01*
X378880D01*
X378400Y303399D01*
Y302720D01*
X378880Y302240D01*
X379720D01*
X380200Y301759D01*
Y301080D01*
X379720Y300600D01*
X378880D01*
X378400Y300119D01*
Y299440D01*
X378880Y298960D01*
X379720D01*
X380200Y298479D01*
Y297800D01*
X379720Y297320D01*
X378880D01*
X378400Y296839D01*
Y296160D01*
X378880Y295680D01*
X379720D01*
X380200Y295199D01*
Y294520D01*
X379720Y294040D01*
X378880D01*
X378400Y293559D01*
Y292880D01*
X378880Y292400D01*
X379720D01*
X380200Y291919D01*
Y289400D01*
X386814Y282786D01*
Y282115D01*
X387015Y281915D01*
X387215D01*
Y278485D01*
X386814D01*
Y274614D01*
X385300Y273100D01*
Y272330D01*
G01X385500Y280200D02*
X385400D01*
X385300Y280300D01*
Y281300D01*
X383473Y283127D01*
X382794D01*
X382273Y282606D01*
X381594D01*
X381114Y283086D01*
Y283766D01*
X381634Y284286D01*
Y284966D01*
X381154Y285446D01*
X380475D01*
X379954Y284925D01*
X379275D01*
X378794Y285406D01*
Y286085D01*
X379315Y286606D01*
Y287285D01*
X378834Y287766D01*
X378155D01*
X377634Y287245D01*
X376955D01*
X376475Y287725D01*
Y288404D01*
X376996Y288925D01*
Y289604D01*
X376014Y290586D01*
Y292584D01*
X375534Y293065D01*
X373980D01*
X373500Y293545D01*
Y294224D01*
X373980Y294705D01*
X375534D01*
X376014Y295185D01*
Y295864D01*
X375534Y296345D01*
X373980D01*
X373500Y296825D01*
Y297504D01*
X373980Y297985D01*
X375534D01*
X376014Y298465D01*
Y299144D01*
X375534Y299625D01*
X373980D01*
X373500Y300105D01*
Y300784D01*
X373980Y301265D01*
X375534D01*
X376014Y301745D01*
Y302424D01*
X375534Y302905D01*
X373980D01*
X373500Y303385D01*
Y304064D01*
X373980Y304545D01*
X375534D01*
X376014Y305025D01*
Y305704D01*
X375534Y306185D01*
X373980D01*
X373500Y306665D01*
Y307344D01*
X373980Y307825D01*
X375534D01*
X376014Y308305D01*
Y308984D01*
X375534Y309465D01*
X373980D01*
X373500Y309945D01*
Y310624D01*
X373980Y311105D01*
X375534D01*
X376014Y311585D01*
Y312264D01*
X375534Y312745D01*
X373980D01*
X373500Y313225D01*
Y313904D01*
X373980Y314385D01*
X375534D01*
X376014Y314865D01*
Y315544D01*
X375534Y316025D01*
X373980D01*
X373500Y316505D01*
Y317184D01*
X373980Y317665D01*
X375534D01*
X376014Y318145D01*
Y346714D01*
X388900Y359600D01*
G01X394950Y361550D02*
X390314Y356914D01*
Y334714D01*
X387900Y332300D01*
Y330617D01*
X387420Y330137D01*
X386880D01*
X386400Y329657D01*
Y328977D01*
X386880Y328497D01*
X387420D01*
X387900Y328017D01*
Y327337D01*
X387420Y326857D01*
X386880D01*
X386400Y326377D01*
Y325697D01*
X386880Y325217D01*
X387420D01*
X387900Y324737D01*
Y324057D01*
X387420Y323577D01*
X386880D01*
X386400Y323097D01*
Y322417D01*
X386880Y321937D01*
X387420D01*
X387900Y321457D01*
Y320777D01*
X387420Y320297D01*
X386880D01*
X386400Y319817D01*
Y319137D01*
X386880Y318657D01*
X387420D01*
X387900Y318177D01*
Y317497D01*
X387420Y317017D01*
X386880D01*
X386400Y316537D01*
Y315857D01*
X386880Y315377D01*
X387420D01*
X387900Y314897D01*
Y314217D01*
X387420Y313737D01*
X386880D01*
X386400Y313257D01*
Y312577D01*
X386880Y312097D01*
X387420D01*
X387900Y311617D01*
Y310937D01*
X387420Y310457D01*
X386880D01*
X386400Y309977D01*
Y309297D01*
X386880Y308817D01*
X387420D01*
X387900Y308337D01*
Y307657D01*
X387420Y307177D01*
X386880D01*
X386400Y306697D01*
Y306017D01*
X386880Y305537D01*
X387420D01*
X387900Y305057D01*
Y304377D01*
X387420Y303897D01*
X386880D01*
X386400Y303417D01*
Y302737D01*
X386880Y302257D01*
X387420D01*
X387900Y301777D01*
Y301097D01*
X387420Y300617D01*
X386880D01*
X386400Y300137D01*
Y299457D01*
X386880Y298977D01*
X387420D01*
X387900Y298497D01*
Y297817D01*
X387420Y297337D01*
X386880D01*
X386400Y296857D01*
Y296177D01*
X386880Y295697D01*
X387420D01*
X387900Y295217D01*
Y294206D01*
X387420Y293725D01*
X387380D01*
X386900Y293245D01*
Y292566D01*
X387380Y292085D01*
X387420D01*
X387900Y291605D01*
Y290926D01*
X387420Y290445D01*
X387380D01*
X386900Y289965D01*
Y289286D01*
X387380Y288805D01*
X387420D01*
X387900Y288325D01*
Y286100D01*
X391100Y282900D01*
Y269400D01*
X396040Y264460D01*
X397110D01*
G01X394900Y365800D02*
X398600Y362100D01*
Y360242D01*
X398586Y360227D01*
Y358973D01*
X397200Y357587D01*
Y355901D01*
X397680Y355421D01*
X398020D01*
X398500Y354941D01*
Y354261D01*
X398020Y353781D01*
X397680D01*
X397200Y353301D01*
Y352621D01*
X397680Y352141D01*
X398020D01*
X398500Y351661D01*
Y350981D01*
X398020Y350501D01*
X397680D01*
X397200Y350021D01*
Y349341D01*
X397680Y348861D01*
X398020D01*
X398500Y348381D01*
Y347701D01*
X398020Y347221D01*
X397680D01*
X397200Y346741D01*
Y346061D01*
X397680Y345581D01*
X398020D01*
X398500Y345101D01*
Y344421D01*
X398020Y343941D01*
X397680D01*
X397200Y343461D01*
Y342781D01*
X397680Y342301D01*
X398020D01*
X398500Y341821D01*
Y341141D01*
X398020Y340661D01*
X397680D01*
X397200Y340181D01*
Y339501D01*
X397680Y339021D01*
X398020D01*
X398500Y338541D01*
Y337861D01*
X398020Y337381D01*
X397680D01*
X397200Y336901D01*
Y336221D01*
X397680Y335741D01*
X398020D01*
X398500Y335261D01*
Y334581D01*
X398020Y334101D01*
X397680D01*
X397200Y333621D01*
Y332941D01*
X397680Y332461D01*
X398020D01*
X398500Y331981D01*
Y331301D01*
X398020Y330821D01*
X397680D01*
X397200Y330341D01*
Y328933D01*
X397680Y328453D01*
X398020D01*
X398500Y327972D01*
Y327293D01*
X398020Y326813D01*
X397680D01*
X397200Y326332D01*
Y325653D01*
X397680Y325173D01*
X398020D01*
X398500Y324692D01*
Y324013D01*
X398020Y323533D01*
X397680D01*
X397200Y323052D01*
Y322373D01*
X397680Y321893D01*
X398020D01*
X398500Y321412D01*
Y320733D01*
X398020Y320253D01*
X397680D01*
X397200Y319772D01*
Y319093D01*
X397680Y318613D01*
X398020D01*
X398500Y318132D01*
Y317453D01*
X398020Y316973D01*
X397680D01*
X397200Y316492D01*
Y315813D01*
X397680Y315333D01*
X398020D01*
X398500Y314852D01*
Y314173D01*
X398020Y313693D01*
X397680D01*
X397200Y313212D01*
Y312533D01*
X397680Y312053D01*
X398020D01*
X398500Y311572D01*
Y310893D01*
X398020Y310413D01*
X397680D01*
X397200Y309932D01*
Y309253D01*
X397680Y308773D01*
X398020D01*
X398500Y308292D01*
Y307613D01*
X398020Y307133D01*
X397680D01*
X397200Y306652D01*
Y305973D01*
X397680Y305493D01*
X398020D01*
X398500Y305012D01*
Y304333D01*
X398020Y303853D01*
X397680D01*
X397200Y303372D01*
Y302693D01*
X397680Y302213D01*
X398020D01*
X398500Y301732D01*
Y301053D01*
X398020Y300573D01*
X397680D01*
X397200Y300092D01*
Y297402D01*
X397680Y296922D01*
X398020D01*
X398500Y296442D01*
Y295762D01*
X398020Y295282D01*
X397680D01*
X397200Y294802D01*
Y287100D01*
X402564Y281736D01*
Y279573D01*
X401050Y278058D01*
Y276270D01*
G01X400100Y363500D02*
X402500Y361100D01*
Y341442D01*
X404814Y339127D01*
Y337873D01*
X403384Y336443D01*
Y334670D01*
X403865Y334190D01*
X405420D01*
X405900Y333709D01*
Y333030D01*
X405420Y332550D01*
X403865D01*
X403384Y332069D01*
Y331390D01*
X403865Y330910D01*
X405420D01*
X405900Y330429D01*
Y329750D01*
X405420Y329270D01*
X403865D01*
X403384Y328789D01*
Y328110D01*
X403865Y327630D01*
X405420D01*
X405900Y327149D01*
Y326470D01*
X405420Y325990D01*
X403865D01*
X403384Y325509D01*
Y317415D01*
X404100Y316700D01*
Y315775D01*
X403384Y315060D01*
Y311780D01*
X404200Y310964D01*
Y310140D01*
X403384Y309324D01*
Y306057D01*
X404100Y305341D01*
Y304417D01*
X403384Y303701D01*
Y295132D01*
X403865Y294652D01*
X405620D01*
X406100Y294171D01*
Y293492D01*
X405620Y293012D01*
X403865D01*
X403384Y292531D01*
Y291852D01*
X403865Y291372D01*
X405620D01*
X406100Y290891D01*
Y290212D01*
X405620Y289732D01*
X403865D01*
X403384Y289251D01*
Y288572D01*
X403865Y288092D01*
X405620D01*
X406100Y287611D01*
Y286932D01*
X405620Y286452D01*
X403865D01*
X403384Y285971D01*
Y285292D01*
X403865Y284812D01*
X405620D01*
X406100Y284331D01*
Y283652D01*
X405620Y283172D01*
X403865D01*
X403384Y282691D01*
Y276463D01*
X401050Y274128D01*
Y272330D01*
G01Y268390D02*
X400990D01*
X398900Y266300D01*
X396800D01*
X393800Y269300D01*
Y281920D01*
X391800Y283920D01*
Y285922D01*
X391320Y286402D01*
X389780D01*
X389300Y286883D01*
Y287562D01*
X389780Y288042D01*
X391320D01*
X391800Y288523D01*
Y289202D01*
X391320Y289682D01*
X389780D01*
X389300Y290163D01*
Y290842D01*
X389780Y291322D01*
X391320D01*
X391800Y291803D01*
Y292482D01*
X391320Y292962D01*
X389780D01*
X389300Y293443D01*
Y294122D01*
X389780Y294602D01*
X391320D01*
X391800Y295083D01*
Y295762D01*
X391320Y296242D01*
X389780D01*
X389300Y296723D01*
Y297402D01*
X389780Y297882D01*
X391320D01*
X391800Y298363D01*
Y299548D01*
X391914Y299663D01*
Y300917D01*
X391800Y301032D01*
Y305939D01*
X391407Y306332D01*
X391800Y306725D01*
Y308257D01*
X391440Y308617D01*
X389760D01*
X389400Y308978D01*
Y309487D01*
X389760Y309847D01*
X391440D01*
X391800Y310207D01*
Y311310D01*
X391440Y311670D01*
X390060D01*
X389700Y312030D01*
Y312540D01*
X390060Y312900D01*
X391440D01*
X391800Y313260D01*
Y313770D01*
X391440Y314130D01*
X390060D01*
X389700Y314490D01*
Y315000D01*
X390060Y315360D01*
X391440D01*
X391800Y315720D01*
Y316230D01*
X391440Y316590D01*
X390060D01*
X389700Y316950D01*
Y317460D01*
X390060Y317820D01*
X391440D01*
X391800Y318180D01*
Y318690D01*
X391440Y319050D01*
X390060D01*
X389700Y319410D01*
Y319920D01*
X390060Y320280D01*
X391440D01*
X391800Y320640D01*
Y321150D01*
X391440Y321510D01*
X390060D01*
X389700Y321870D01*
Y322380D01*
X390060Y322740D01*
X391440D01*
X391800Y323100D01*
Y323610D01*
X391440Y323970D01*
X390060D01*
X389700Y324330D01*
Y324840D01*
X390060Y325200D01*
X391440D01*
X391800Y325560D01*
Y326070D01*
X391440Y326430D01*
X390060D01*
X389700Y326790D01*
Y327300D01*
X390060Y327660D01*
X391440D01*
X391800Y328020D01*
Y328530D01*
X391440Y328890D01*
X390060D01*
X389700Y329250D01*
Y329760D01*
X390060Y330120D01*
X391440D01*
X391800Y330480D01*
Y330990D01*
X391440Y331350D01*
X390060D01*
X389700Y331710D01*
Y332220D01*
X390060Y332580D01*
X391440D01*
X391800Y332940D01*
Y334400D01*
X394700Y337300D01*
G01X394600Y333100D02*
X396100Y331600D01*
Y330780D01*
X395620Y330300D01*
X393580D01*
X393100Y329819D01*
Y329140D01*
X393580Y328660D01*
X395620D01*
X396100Y328179D01*
Y327500D01*
X395620Y327020D01*
X393580D01*
X393100Y326539D01*
Y325860D01*
X393580Y325380D01*
X395620D01*
X396100Y324899D01*
Y324220D01*
X395620Y323740D01*
X393580D01*
X393100Y323259D01*
Y322580D01*
X393580Y322100D01*
X395620D01*
X396100Y321619D01*
Y320940D01*
X395620Y320460D01*
X393580D01*
X393100Y319979D01*
Y319300D01*
X393580Y318820D01*
X395620D01*
X396100Y318339D01*
Y317660D01*
X395620Y317180D01*
X393580D01*
X393100Y316699D01*
Y316020D01*
X393580Y315540D01*
X395620D01*
X396100Y315059D01*
Y314380D01*
X395620Y313900D01*
X393580D01*
X393100Y313419D01*
Y312740D01*
X393580Y312260D01*
X395620D01*
X396100Y311779D01*
Y311100D01*
X395620Y310620D01*
X393580D01*
X393100Y310139D01*
Y309460D01*
X393580Y308980D01*
X395620D01*
X396100Y308499D01*
Y307820D01*
X395620Y307340D01*
X393580D01*
X393100Y306859D01*
Y306180D01*
X393580Y305700D01*
X395620D01*
X396100Y305219D01*
Y304540D01*
X395620Y304060D01*
X393580D01*
X393100Y303579D01*
Y302900D01*
X393580Y302420D01*
X395620D01*
X396100Y301939D01*
Y301260D01*
X395620Y300780D01*
X393580D01*
X393100Y300299D01*
Y299620D01*
X393580Y299140D01*
X395620D01*
X396100Y298659D01*
Y297980D01*
X395620Y297500D01*
X393580D01*
X393100Y297019D01*
Y296340D01*
X393580Y295860D01*
X395620D01*
X396100Y295379D01*
Y294700D01*
X395620Y294220D01*
X393580D01*
X393100Y293739D01*
Y293060D01*
X393580Y292580D01*
X395620D01*
X396100Y292099D01*
Y291420D01*
X395620Y290940D01*
X393580D01*
X393100Y290459D01*
Y289780D01*
X393580Y289300D01*
X395620D01*
X396100Y288819D01*
Y288140D01*
X395620Y287660D01*
X393580D01*
X393100Y287179D01*
Y286500D01*
X393580Y286020D01*
X395620D01*
X396100Y285539D01*
Y277300D01*
X397110Y276290D01*
Y276270D01*
G01X417400Y323000D02*
X414700Y320300D01*
Y318309D01*
X414220Y317829D01*
X411280D01*
X410800Y317349D01*
Y316669D01*
X411280Y316189D01*
X414220D01*
X414700Y315709D01*
Y315029D01*
X414220Y314549D01*
X411280D01*
X410800Y314069D01*
Y313389D01*
X411280Y312909D01*
X414220D01*
X414700Y312429D01*
Y311749D01*
X414220Y311269D01*
X411280D01*
X410800Y310789D01*
Y310109D01*
X411280Y309629D01*
X414220D01*
X414700Y309149D01*
Y308469D01*
X414220Y307989D01*
X411280D01*
X410800Y307509D01*
Y306829D01*
X411280Y306349D01*
X414220D01*
X414700Y305869D01*
Y305189D01*
X414220Y304709D01*
X411280D01*
X410800Y304229D01*
Y303549D01*
X411280Y303069D01*
X414220D01*
X414700Y302589D01*
Y301909D01*
X414220Y301429D01*
X411280D01*
X410800Y300949D01*
Y300269D01*
X411280Y299789D01*
X414220D01*
X414700Y299309D01*
Y298629D01*
X414220Y298149D01*
X411280D01*
X410800Y297669D01*
Y296989D01*
X411280Y296509D01*
X414220D01*
X415200Y295529D01*
Y291416D01*
X414220Y290435D01*
X412480D01*
X412000Y289955D01*
Y289276D01*
X412480Y288795D01*
X414220D01*
X414700Y288315D01*
Y287636D01*
X414220Y287155D01*
X412480D01*
X412000Y286675D01*
Y285996D01*
X412480Y285515D01*
X414220D01*
X414700Y285035D01*
Y274600D01*
X416800Y272500D01*
Y272330D01*
G01X424900Y326400D02*
X424800Y326300D01*
Y323700D01*
X424160Y323060D01*
Y322550D01*
X425600Y321110D01*
Y320600D01*
X425240Y320240D01*
X424731D01*
X423290Y321680D01*
X422780D01*
X422420Y321320D01*
Y320811D01*
X423861Y319370D01*
Y318861D01*
X423500Y318500D01*
X422991D01*
X421550Y319941D01*
X421041D01*
X420114Y319014D01*
Y318586D01*
X419754Y318225D01*
X418160D01*
X417800Y317865D01*
Y317356D01*
X418160Y316995D01*
X419754D01*
X420114Y316635D01*
Y316067D01*
X420595Y315587D01*
X422720D01*
X423200Y315106D01*
Y314427D01*
X422720Y313947D01*
X420595D01*
X420114Y313466D01*
Y312787D01*
X420595Y312307D01*
X422720D01*
X423200Y311826D01*
Y311147D01*
X422720Y310667D01*
X420595D01*
X420114Y310186D01*
Y308906D01*
X420595Y308425D01*
X426520D01*
X427000Y307945D01*
Y307266D01*
X426520Y306785D01*
X420595D01*
X420114Y306305D01*
Y305509D01*
X419722Y305117D01*
X421880Y302960D01*
Y302280D01*
X421400Y301800D01*
X420721D01*
X418171Y304350D01*
X417492D01*
X417361Y304219D01*
X416719D01*
X416460Y303960D01*
Y303318D01*
X416300Y303158D01*
Y302106D01*
X416780Y301626D01*
X417439D01*
X417919Y301146D01*
Y300466D01*
X417439Y299986D01*
X416780D01*
X416300Y299506D01*
Y298686D01*
X416780Y298205D01*
X418220D01*
X418700Y297725D01*
Y297046D01*
X418220Y296565D01*
X416780D01*
X416300Y296085D01*
Y295160D01*
X416660Y294800D01*
X418339D01*
X418699Y294440D01*
Y293930D01*
X418339Y293570D01*
X416660D01*
X416300Y293210D01*
Y292700D01*
X416660Y292340D01*
X418339D01*
X418699Y291980D01*
Y291470D01*
X418339Y291110D01*
X416660D01*
X416300Y290750D01*
Y288760D01*
X416780Y288280D01*
X416920D01*
X417400Y287800D01*
Y287120D01*
X416920Y286640D01*
X416780D01*
X416300Y286160D01*
Y285480D01*
X416780Y285000D01*
X416920D01*
X417400Y284520D01*
Y283840D01*
X416920Y283360D01*
X416780D01*
X416300Y282880D01*
Y280700D01*
X416800Y280200D01*
G01X434300Y328900D02*
X434250Y328950D01*
X415550D01*
X408920Y322320D01*
Y319105D01*
X408440Y318625D01*
X406480D01*
X406000Y318144D01*
Y317465D01*
X406480Y316985D01*
X408440D01*
X408920Y316504D01*
Y315825D01*
X408440Y315345D01*
X406480D01*
X406000Y314864D01*
Y314185D01*
X406480Y313705D01*
X408440D01*
X408920Y313224D01*
Y312545D01*
X408440Y312065D01*
X406480D01*
X406000Y311584D01*
Y310905D01*
X406480Y310425D01*
X408440D01*
X408920Y309944D01*
Y309265D01*
X408440Y308785D01*
X406480D01*
X406000Y308304D01*
Y307625D01*
X406480Y307145D01*
X408440D01*
X408920Y306664D01*
Y305985D01*
X408440Y305505D01*
X406480D01*
X406000Y305024D01*
Y304345D01*
X406480Y303865D01*
X408440D01*
X408920Y303384D01*
Y302705D01*
X408440Y302225D01*
X406480D01*
X406000Y301744D01*
Y301065D01*
X406480Y300585D01*
X408440D01*
X408920Y300104D01*
Y299425D01*
X408440Y298945D01*
X406480D01*
X406000Y298464D01*
Y297785D01*
X406480Y297305D01*
X408440D01*
X408920Y296824D01*
Y280200D01*
G01X369550Y272330D02*
X369470D01*
X367500Y274300D01*
X364700D01*
X363200Y275800D01*
Y284200D01*
X360811Y286589D01*
X360132D01*
X358861Y285318D01*
X358182D01*
X357702Y285798D01*
Y286478D01*
X358972Y287748D01*
Y288428D01*
X358492Y288908D01*
X357813D01*
X356542Y287637D01*
X355863D01*
X355382Y288118D01*
Y288797D01*
X356653Y290068D01*
Y290747D01*
X356173Y291227D01*
X355493D01*
X354223Y289957D01*
X353543D01*
X353063Y290437D01*
Y291116D01*
X354334Y292387D01*
Y293066D01*
X353853Y293547D01*
X353174D01*
X351903Y292276D01*
X351224D01*
X350744Y292756D01*
Y293436D01*
X352014Y294706D01*
Y295386D01*
X351534Y295866D01*
X350855D01*
X349584Y294595D01*
X348905D01*
X348424Y295076D01*
Y295755D01*
X349695Y297026D01*
Y297705D01*
X349214Y298186D01*
X348535D01*
X347264Y296915D01*
X346585D01*
X346105Y297395D01*
Y298074D01*
X347376Y299345D01*
Y300024D01*
X346895Y300505D01*
X346216D01*
X344945Y299234D01*
X344266D01*
X343785Y299715D01*
Y300394D01*
X345056Y301665D01*
Y302344D01*
X344576Y302824D01*
X343896D01*
X342626Y301554D01*
X341946D01*
X341466Y302034D01*
Y302713D01*
X342737Y303984D01*
Y304663D01*
X342256Y305144D01*
X341577D01*
X340306Y303873D01*
X339627D01*
X339146Y304354D01*
Y305033D01*
X340417Y306304D01*
Y306983D01*
X332200Y315200D01*
Y321100D01*
X334800Y323700D01*
G01X332100Y328500D02*
X333900Y330300D01*
X341300D01*
X343514Y328086D01*
X346127D01*
X346142Y328100D01*
X349400D01*
X351300Y326200D01*
Y314100D01*
X354193Y311207D01*
X354235D01*
X355122Y310320D01*
Y307078D01*
X356007Y306193D01*
X356686D01*
X356907Y306414D01*
X357586D01*
X358067Y305933D01*
Y305254D01*
X357846Y305033D01*
Y304354D01*
X358326Y303874D01*
X359006D01*
X359226Y304094D01*
X359906D01*
X360386Y303614D01*
Y302935D01*
X360165Y302714D01*
Y302035D01*
X360646Y301554D01*
X361325D01*
X361546Y301775D01*
X362225D01*
X362706Y301294D01*
Y300615D01*
X362485Y300395D01*
Y299715D01*
X362965Y299235D01*
X363644D01*
X363865Y299456D01*
X364544D01*
X365025Y298975D01*
Y298296D01*
X364804Y298075D01*
Y297396D01*
X365285Y296915D01*
X365964D01*
X366185Y297136D01*
X366864D01*
X367344Y296656D01*
Y295976D01*
X367124Y295756D01*
Y295076D01*
X367604Y294596D01*
X368283D01*
X368504Y294817D01*
X369183D01*
X369664Y294336D01*
Y293657D01*
X369443Y293436D01*
Y292757D01*
X369923Y292277D01*
X370603D01*
X370823Y292497D01*
X371503D01*
X371983Y292017D01*
Y291338D01*
X371762Y291117D01*
Y290438D01*
X379100Y283100D01*
Y266700D01*
X381340Y264460D01*
X381370D01*
G01X429500Y324400D02*
X430800Y323100D01*
Y321950D01*
X431280Y321469D01*
X432720D01*
X433200Y320989D01*
Y320310D01*
X432720Y319829D01*
X431280D01*
X430800Y319349D01*
Y316586D01*
X431280Y316105D01*
X435205D01*
X435686Y315625D01*
Y314946D01*
X435205Y314465D01*
X431280D01*
X430800Y313985D01*
Y313306D01*
X431280Y312825D01*
X435205D01*
X435686Y312345D01*
Y311666D01*
X435205Y311185D01*
X431280D01*
X430800Y310705D01*
Y310026D01*
X431280Y309545D01*
X435205D01*
X435686Y309065D01*
Y308386D01*
X435205Y307905D01*
X431280D01*
X430800Y307425D01*
Y306746D01*
X431280Y306265D01*
X435205D01*
X435686Y305785D01*
Y305106D01*
X435205Y304625D01*
X431280D01*
X430800Y304145D01*
Y302000D01*
X430220Y301420D01*
X429541D01*
X427970Y302991D01*
X427291D01*
X426810Y302510D01*
Y301831D01*
X428381Y300260D01*
Y299581D01*
X427900Y299100D01*
X427221D01*
X425650Y300671D01*
X424971D01*
X424491Y300191D01*
Y299512D01*
X426061Y297941D01*
Y297262D01*
X425581Y296781D01*
X424902D01*
X423331Y298352D01*
X422652D01*
X422171Y297871D01*
Y297192D01*
X423742Y295621D01*
Y293442D01*
X422975Y292674D01*
X421974D01*
X421315Y292015D01*
Y291015D01*
X418300Y288000D01*
Y280842D01*
X418314Y280827D01*
Y277914D01*
X416800Y276400D01*
Y276270D01*
G01X482108Y324908D02*
X479600Y322400D01*
Y320309D01*
X479120Y319829D01*
X478580D01*
X478100Y319349D01*
Y318669D01*
X478580Y318189D01*
X479120D01*
X479600Y317709D01*
Y317029D01*
X479120Y316549D01*
X478580D01*
X478100Y316069D01*
Y315389D01*
X478580Y314909D01*
X479120D01*
X480000Y314029D01*
Y308200D01*
X477000Y305200D01*
X462800D01*
X458200Y300600D01*
X458100D01*
X456892Y299392D01*
Y298374D01*
X457074Y298192D01*
Y297174D01*
X456353Y296453D01*
X455334D01*
X455153Y296634D01*
X454134D01*
X453413Y295913D01*
Y294894D01*
X453594Y294713D01*
Y293694D01*
X452874Y292974D01*
X451855D01*
X451674Y293155D01*
X450655D01*
X449934Y292434D01*
Y291416D01*
X450116Y291234D01*
Y290216D01*
X449395Y289495D01*
X448376D01*
X448195Y289676D01*
X447176D01*
X446455Y288955D01*
Y287936D01*
X446636Y287755D01*
Y286736D01*
X445916Y286016D01*
X444897D01*
X444716Y286197D01*
X443697D01*
X441700Y284200D01*
X441000D01*
X438500Y281700D01*
Y279700D01*
X437100Y278300D01*
X431900D01*
X430500Y276900D01*
Y276000D01*
X428344Y273844D01*
X427983D01*
X427096Y272957D01*
Y272296D01*
X425400Y270600D01*
X424300D01*
X422800Y269100D01*
Y266600D01*
X420740Y264540D01*
Y264460D01*
G01X467200Y326500D02*
X469100Y324600D01*
Y322300D01*
X461800Y315000D01*
X460800D01*
X449990Y304191D01*
Y303511D01*
X451011Y302491D01*
Y301811D01*
X450531Y301331D01*
X449852D01*
X448831Y302352D01*
X448152D01*
X447671Y301871D01*
Y301192D01*
X448692Y300171D01*
Y299492D01*
X448211Y299011D01*
X447532D01*
X446511Y300032D01*
X445832D01*
X445352Y299552D01*
Y298872D01*
X446372Y297852D01*
Y297172D01*
X445892Y296692D01*
X445213D01*
X444192Y297713D01*
X443513D01*
X443032Y297232D01*
Y296553D01*
X444053Y295532D01*
Y294853D01*
X443573Y294373D01*
X442893D01*
X441873Y295393D01*
X441193D01*
X440713Y294913D01*
Y294234D01*
X441734Y293213D01*
Y292534D01*
X441253Y292053D01*
X440574D01*
X439553Y293074D01*
X438874D01*
X438394Y292594D01*
Y291914D01*
X439414Y290894D01*
Y290214D01*
X438934Y289734D01*
X438255D01*
X437234Y290755D01*
X436555D01*
X435150Y289350D01*
X433350D01*
X426184Y282184D01*
Y275643D01*
X425297Y274756D01*
X424756D01*
X422900Y272900D01*
Y271500D01*
X421800Y270400D01*
X420000D01*
X418800Y269200D01*
Y266400D01*
X416860Y264460D01*
X416800D01*
G01X470400Y329700D02*
Y312200D01*
X468300Y310100D01*
X461500D01*
X453091Y301691D01*
Y301012D01*
X454362Y299741D01*
Y299062D01*
X453882Y298582D01*
X453202D01*
X451932Y299853D01*
X451252D01*
X450772Y299372D01*
Y298693D01*
X452043Y297422D01*
Y296743D01*
X451562Y296262D01*
X450883D01*
X449612Y297533D01*
X448933D01*
X448453Y297053D01*
Y296373D01*
X449723Y295103D01*
Y294423D01*
X449243Y293943D01*
X448564D01*
X447293Y295214D01*
X446614D01*
X446133Y294733D01*
Y294054D01*
X447404Y292783D01*
Y292104D01*
X446923Y291624D01*
X446244D01*
X444973Y292894D01*
X444294D01*
X443814Y292414D01*
Y291735D01*
X445085Y290464D01*
Y289785D01*
X444604Y289304D01*
X443925D01*
X442654Y290575D01*
X441975D01*
X441494Y290094D01*
Y289415D01*
X442765Y288144D01*
Y287465D01*
X442285Y286985D01*
X441606D01*
X440335Y288256D01*
X439656D01*
X438500Y287100D01*
X433200D01*
X427096Y280996D01*
Y279573D01*
X427100Y279568D01*
Y276902D01*
X427096Y276897D01*
Y274996D01*
X424670Y272570D01*
Y272330D01*
G01X482400Y330400D02*
X481000Y329000D01*
X476800D01*
X472600Y333200D01*
X465100D01*
X456500Y324600D01*
Y321200D01*
X445414Y310114D01*
Y310073D01*
X444527Y309186D01*
X433698Y298398D01*
X432679D01*
X432048Y299029D01*
X431029D01*
X430308Y298308D01*
Y297289D01*
X430939Y296658D01*
Y295639D01*
X430219Y294919D01*
X429200D01*
X428569Y295550D01*
X427550D01*
X426829Y294829D01*
Y293810D01*
X427460Y293179D01*
Y292160D01*
X426740Y291440D01*
X425721D01*
X425090Y292071D01*
X424071D01*
X423350Y291350D01*
Y290331D01*
X423981Y289700D01*
Y288681D01*
X419200Y283900D01*
Y274000D01*
X420740Y272460D01*
Y272330D01*
G01X493200Y323900D02*
X495500Y321600D01*
Y305700D01*
X492400Y302600D01*
X463100D01*
X460400Y299900D01*
Y285600D01*
X456100Y281300D01*
X446600D01*
X442400Y277100D01*
Y275600D01*
X441200Y274400D01*
X430500D01*
X428610Y272510D01*
Y272330D01*
G01X338500Y327000D02*
X340086Y325414D01*
Y324594D01*
X339605Y324114D01*
X337380D01*
X336900Y323634D01*
Y322954D01*
X337380Y322474D01*
X339605D01*
X340086Y321994D01*
Y321314D01*
X339605Y320834D01*
X337380D01*
X336900Y320354D01*
Y319674D01*
X337380Y319194D01*
X339605D01*
X340086Y318714D01*
Y318034D01*
X339605Y317554D01*
X337380D01*
X336900Y317074D01*
Y316394D01*
X337380Y315914D01*
X339605D01*
X340086Y315434D01*
Y314754D01*
X339605Y314274D01*
X337380D01*
X336900Y313794D01*
Y313114D01*
X337380Y312634D01*
X339605D01*
X340086Y312154D01*
Y309314D01*
X342145Y307255D01*
X342824D01*
X343745Y308176D01*
X344424D01*
X344905Y307695D01*
Y307016D01*
X343984Y306095D01*
Y305416D01*
X344465Y304935D01*
X345144D01*
X346065Y305856D01*
X346744D01*
X347224Y305376D01*
Y304696D01*
X346304Y303776D01*
Y303096D01*
X346784Y302616D01*
X347463D01*
X348384Y303537D01*
X349063D01*
X349544Y303056D01*
Y302377D01*
X348623Y301456D01*
Y300777D01*
X349103Y300297D01*
X349783D01*
X350703Y301217D01*
X351383D01*
X351863Y300737D01*
Y300058D01*
X350942Y299137D01*
Y298458D01*
X351423Y297977D01*
X352102D01*
X353023Y298898D01*
X353702D01*
X354182Y298418D01*
Y297738D01*
X353262Y296818D01*
Y296138D01*
X353742Y295658D01*
X354421D01*
X355342Y296579D01*
X356021D01*
X356502Y296098D01*
Y295419D01*
X355581Y294498D01*
Y293819D01*
X356062Y293338D01*
X356741D01*
X357662Y294259D01*
X358341D01*
X358821Y293779D01*
Y293100D01*
X357900Y292179D01*
Y291500D01*
X364100Y285300D01*
Y279400D01*
X365300Y278200D01*
X367500D01*
X369500Y280200D01*
X369550D01*
G01X347800Y326300D02*
Y312000D01*
X353189Y306611D01*
Y305932D01*
X351618Y304361D01*
Y303682D01*
X352098Y303202D01*
X352778D01*
X354348Y304772D01*
X355028D01*
X355508Y304292D01*
Y303613D01*
X353937Y302042D01*
Y301363D01*
X354418Y300882D01*
X355097D01*
X356668Y302453D01*
X357347D01*
X357828Y301972D01*
Y301293D01*
X356257Y299722D01*
Y299043D01*
X356737Y298563D01*
X357416D01*
X358987Y300134D01*
X359666D01*
X360147Y299653D01*
Y298974D01*
X358576Y297403D01*
Y296724D01*
X359057Y296243D01*
X359736D01*
X361307Y297814D01*
X361986D01*
X362466Y297334D01*
Y296654D01*
X360896Y295084D01*
Y294404D01*
X361376Y293924D01*
X362055D01*
X363626Y295495D01*
X364305D01*
X364786Y295014D01*
Y294335D01*
X363215Y292764D01*
Y292085D01*
X363696Y291604D01*
X364375D01*
X365946Y293175D01*
X366625D01*
X367105Y292695D01*
Y292016D01*
X365534Y290445D01*
Y289766D01*
X366015Y289285D01*
X366694D01*
X368265Y290856D01*
X368944D01*
X375300Y284500D01*
Y274500D01*
X377430Y272370D01*
Y272330D01*
G01X463600Y329500D02*
X461345Y327245D01*
Y326345D01*
X460635Y325635D01*
X459735D01*
X457320Y323220D01*
Y320860D01*
X457300Y320840D01*
Y319400D01*
X453979Y316079D01*
Y315400D01*
X455350Y314029D01*
Y313350D01*
X454869Y312869D01*
X454190D01*
X452819Y314240D01*
X452140D01*
X450394Y312494D01*
Y311815D01*
X451065Y311144D01*
Y310465D01*
X450585Y309984D01*
X449906D01*
X449234Y310655D01*
X448555D01*
X446785Y308885D01*
Y308206D01*
X448556Y306435D01*
Y305756D01*
X448076Y305276D01*
X447396D01*
X445626Y307046D01*
X444946D01*
X444466Y306566D01*
Y305887D01*
X446237Y304116D01*
Y303437D01*
X445756Y302956D01*
X445077D01*
X443306Y304727D01*
X442627D01*
X442147Y304247D01*
Y303567D01*
X443917Y301797D01*
Y301117D01*
X443437Y300637D01*
X442758D01*
X440987Y302408D01*
X440308D01*
X439827Y301927D01*
Y301248D01*
X441598Y299477D01*
Y298798D01*
X441117Y298318D01*
X440438D01*
X438667Y300088D01*
X437988D01*
X436050Y298150D01*
Y297471D01*
X436821Y296700D01*
Y296021D01*
X436340Y295540D01*
X435661D01*
X434890Y296311D01*
X434211D01*
X432500Y294600D01*
Y291900D01*
X431240Y290640D01*
X430561D01*
X429890Y291311D01*
X429211D01*
X428730Y290830D01*
Y290151D01*
X429401Y289480D01*
Y288801D01*
X428921Y288321D01*
X428242D01*
X427571Y288992D01*
X426892D01*
X426411Y288511D01*
Y287832D01*
X427082Y287161D01*
Y286482D01*
X426601Y286001D01*
X425922D01*
X425251Y286672D01*
X424572D01*
X424092Y286192D01*
Y285512D01*
X424762Y284842D01*
Y284162D01*
X420800Y280200D01*
X420740D01*
G01X436480Y205400D02*
Y207114D01*
X434966Y208629D01*
Y223082D01*
X443216Y231332D01*
X447000D01*
G01X436480Y209340D02*
Y211054D01*
X437994Y212569D01*
Y224823D01*
X440994Y227823D01*
X447000D01*
G01X436480Y248710D02*
X438692Y250922D01*
X447000D01*
G01X432550Y248710D02*
X434966Y251126D01*
Y253316D01*
X436716Y255066D01*
X447000D01*
G01X428610Y256580D02*
X431036Y259006D01*
X447000D01*
G01X353810Y244770D02*
X352096D01*
X350581Y246284D01*
X339000D01*
G01X432550Y268390D02*
X434264D01*
X435779Y269904D01*
X447000D01*
G01X353810Y248710D02*
X352096D01*
X350581Y250224D01*
X345750D01*
X339000Y256974D01*
Y257793D01*
G01X436480Y264460D02*
X438194D01*
X439709Y262946D01*
X447000D01*
G01X461400Y279400D02*
X454650D01*
X452250Y277000D01*
G01X447000Y266790D02*
X427040D01*
X422284Y262034D01*
X353099D01*
X351584Y260520D01*
X349870D01*
G01X324200Y319900D02*
Y319100D01*
X329900Y313400D01*
G01X440420Y209340D02*
X442134D01*
X443649Y207826D01*
X447000D01*
G01Y216004D02*
Y211980D01*
X444360Y209340D01*
G01Y244770D02*
X446074D01*
X446559Y244286D01*
X447000D01*
G54D18*
X306123Y97477D03*
X320400Y286900D03*
X408900Y10400D03*
X468100Y146500D03*
X587300Y156500D03*
X585800Y225800D03*
G54D28*
G01X271000Y185968D02*
X297566D01*
X298748Y184786D01*
X300386D01*
X301636Y186036D01*
Y187273D01*
X302699Y188336D01*
X304202D01*
X305265Y187273D01*
Y184666D01*
X305419Y184512D01*
G01X188122Y177000D02*
Y174334D01*
G01X308700Y229600D02*
Y227718D01*
X297084Y216102D01*
X294784D01*
X293168Y217718D01*
X271000D01*
G01X196202Y143461D02*
X190779D01*
X190348Y143892D01*
Y157131D01*
X189916Y157562D01*
X188949D01*
X188518Y157131D01*
Y143008D01*
X188086Y142576D01*
X187119D01*
X186688Y143008D01*
Y146047D01*
X186330Y146404D01*
X182157D01*
X181800Y146761D01*
Y147267D01*
X182157Y147624D01*
X186330D01*
X186688Y147981D01*
Y148487D01*
X186330Y148844D01*
X182157D01*
X181800Y149201D01*
Y149707D01*
X182157Y150064D01*
X186330D01*
X186688Y150421D01*
Y150927D01*
X186330Y151284D01*
X182157D01*
X181800Y151641D01*
Y152147D01*
X182157Y152504D01*
X186330D01*
X186688Y152861D01*
Y153367D01*
X186330Y153724D01*
X182157D01*
X181800Y154081D01*
Y154587D01*
X182157Y154944D01*
X186330D01*
X186688Y155301D01*
Y155807D01*
X186330Y156164D01*
X182157D01*
X181800Y156521D01*
Y157027D01*
X182157Y157384D01*
X186330D01*
X186688Y157741D01*
Y158961D01*
X187119Y159392D01*
X189916D01*
X190348Y159824D01*
Y177000D01*
G01X339000Y207014D02*
X325542D01*
X325111Y206583D01*
Y202696D01*
X324679Y202264D01*
X318604D01*
X318173Y201833D01*
Y199680D01*
X318604Y199249D01*
X322688D01*
X323873Y200434D01*
X324679D01*
X325111Y200003D01*
Y192970D01*
X324679Y192539D01*
X323712D01*
X323281Y192970D01*
Y195768D01*
X322849Y196199D01*
X316707D01*
X316276Y195768D01*
Y194800D01*
X316707Y194369D01*
X321019D01*
X321451Y193938D01*
Y192970D01*
X321019Y192539D01*
X310822D01*
X310464Y192896D01*
Y194393D01*
X310107Y194750D01*
X309602D01*
X309244Y194393D01*
Y192896D01*
X308887Y192539D01*
X307595D01*
X307238Y192896D01*
Y194528D01*
X306880Y194886D01*
X306375D01*
X306018Y194528D01*
Y192896D01*
X305660Y192539D01*
X305155D01*
X304798Y192896D01*
Y194528D01*
X304440Y194886D01*
X303935D01*
X303578Y194528D01*
Y192896D01*
X303220Y192539D01*
X302715D01*
X302358Y192896D01*
Y194528D01*
X302000Y194886D01*
X301495D01*
X301138Y194528D01*
Y192896D01*
X300780Y192539D01*
X300275D01*
X299918Y192896D01*
Y194528D01*
X299560Y194886D01*
X299055D01*
X298698Y194528D01*
Y192896D01*
X298340Y192539D01*
X297835D01*
X297478Y192896D01*
Y194528D01*
X297120Y194886D01*
X296615D01*
X296258Y194528D01*
Y192896D01*
X295900Y192539D01*
X295395D01*
X295038Y192896D01*
Y194528D01*
X294680Y194886D01*
X294175D01*
X293818Y194528D01*
Y192896D01*
X293460Y192539D01*
X292955D01*
X292598Y192896D01*
Y194528D01*
X292240Y194886D01*
X291735D01*
X291378Y194528D01*
Y192896D01*
X291020Y192539D01*
X290515D01*
X290158Y192896D01*
Y194528D01*
X289800Y194886D01*
X289295D01*
X288938Y194528D01*
Y192896D01*
X288580Y192539D01*
X284920D01*
X283106Y194353D01*
X281603D01*
X279789Y192539D01*
X277741D01*
X277310Y192108D01*
Y191156D01*
X276879Y190724D01*
X271000D01*
G01X168014Y202261D02*
Y196954D01*
X175469Y189499D01*
G01X195600Y271000D02*
Y271200D01*
G01X191200Y288300D02*
X191400D01*
X193200Y286500D01*
X202634D01*
X203648Y285486D01*
X204868D01*
X205404Y284950D01*
Y281936D01*
X205940Y281400D01*
X206698D01*
X207234Y281936D01*
Y284950D01*
X207770Y285486D01*
X208528D01*
X209064Y284950D01*
Y281936D01*
X209600Y281400D01*
X210358D01*
X210894Y281936D01*
Y284950D01*
X211430Y285486D01*
X212188D01*
X212724Y284950D01*
Y281936D01*
X213260Y281400D01*
X214018D01*
X214554Y281936D01*
Y284950D01*
X215090Y285486D01*
X215848D01*
X216384Y284950D01*
Y281936D01*
X216920Y281400D01*
X217678D01*
X218214Y281936D01*
Y284950D01*
X218750Y285486D01*
X219508D01*
X220044Y284950D01*
Y281936D01*
X220580Y281400D01*
X221338D01*
X221874Y281936D01*
Y284950D01*
X222410Y285486D01*
X223630D01*
X224316Y284800D01*
X225460D01*
X226146Y285486D01*
X228086D01*
X229100Y286500D01*
X239334D01*
X241948Y283886D01*
X244586D01*
X247400Y286700D01*
Y289534D01*
X246986Y289948D01*
Y290114D01*
X244700Y292400D01*
G01X222754Y320083D02*
X220939Y318268D01*
X213378D01*
X211855Y316745D01*
X211350D01*
X210150Y317945D01*
X209645D01*
X209287Y317587D01*
Y317082D01*
X210487Y315882D01*
Y315377D01*
X208800Y313690D01*
Y311826D01*
X208820Y311806D01*
Y310606D01*
X209177Y310249D01*
X210643D01*
X211000Y309892D01*
Y309386D01*
X210643Y309029D01*
X209177D01*
X208820Y308672D01*
Y307300D01*
X208800D01*
Y307000D01*
X206959Y305159D01*
Y304654D01*
X209954Y301659D01*
Y301154D01*
X209596Y300797D01*
X209091D01*
X206097Y303791D01*
X205591D01*
X205234Y303434D01*
Y302929D01*
X208229Y299934D01*
Y299429D01*
X207871Y299071D01*
X207366D01*
X204371Y302066D01*
X203866D01*
X203508Y301708D01*
Y301203D01*
X206503Y298209D01*
Y297703D01*
X206146Y297346D01*
X205641D01*
X202646Y300341D01*
X202141D01*
X201783Y299983D01*
Y299478D01*
X204778Y296483D01*
Y295978D01*
X204420Y295620D01*
X203915D01*
X200920Y298615D01*
X200415D01*
X200058Y298258D01*
Y297752D01*
X203052Y294758D01*
Y294253D01*
X202695Y293895D01*
X202190D01*
X199195Y296890D01*
X198690D01*
X198332Y296532D01*
Y296027D01*
X201327Y293032D01*
Y292527D01*
X200969Y292170D01*
X200464D01*
X197470Y295164D01*
X196964D01*
X196100Y294300D01*
Y289300D01*
G01X178000Y260800D02*
X177700Y261100D01*
Y283656D01*
X180048Y286004D01*
Y353514D01*
X184348Y357814D01*
X184414D01*
X185300Y358700D01*
Y361000D01*
X186698Y362398D01*
X259903D01*
X264096Y366600D01*
X264300D01*
G01X250800D02*
Y366272D01*
X248146Y363618D01*
X185018D01*
X178700Y357300D01*
Y293530D01*
X173620Y288450D01*
Y286288D01*
X173700Y286208D01*
Y283034D01*
X173620Y282953D01*
Y281450D01*
X174682Y280387D01*
X174813D01*
X176200Y279000D01*
Y259700D01*
X182364Y253536D01*
G01X181569Y271000D02*
Y327236D01*
X182284Y327951D01*
X186785D01*
X187500Y328666D01*
Y329676D01*
X186785Y330391D01*
X182284D01*
X181569Y331106D01*
Y332116D01*
X182284Y332831D01*
X186785D01*
X187500Y333546D01*
Y334556D01*
X186785Y335271D01*
X182284D01*
X181569Y335986D01*
Y343569D01*
X185600Y347600D01*
G01X185412Y271000D02*
X185618Y271206D01*
Y273534D01*
X185975Y273892D01*
X194143D01*
X194500Y274249D01*
Y274754D01*
X194143Y275112D01*
X185975D01*
X185618Y275469D01*
Y275974D01*
X185975Y276332D01*
X194143D01*
X194500Y276689D01*
Y277194D01*
X194143Y277552D01*
X185975D01*
X185618Y277909D01*
Y278414D01*
X185975Y278772D01*
X194143D01*
X194500Y279129D01*
Y279634D01*
X194143Y279992D01*
X185975D01*
X185618Y280349D01*
Y286800D01*
X185824Y287006D01*
Y289089D01*
X185288Y289625D01*
X183536D01*
X183000Y290161D01*
Y290919D01*
X183536Y291455D01*
X185288D01*
X185824Y291991D01*
Y295861D01*
X188591Y298628D01*
Y299134D01*
X184515Y303210D01*
Y303715D01*
X184872Y304072D01*
X185377D01*
X189454Y299996D01*
X189959D01*
X190316Y300354D01*
Y300859D01*
X186240Y304935D01*
Y305440D01*
X186598Y305798D01*
X187103D01*
X191179Y301722D01*
X191684D01*
X192042Y302079D01*
Y302584D01*
X187966Y306660D01*
Y307166D01*
X188323Y307523D01*
X188828D01*
X192904Y303447D01*
X193410D01*
X193767Y303805D01*
Y304310D01*
X189691Y308386D01*
Y308891D01*
X190048Y309248D01*
X190554D01*
X194630Y305172D01*
X195135D01*
X197081Y307119D01*
Y310498D01*
X195267Y312312D01*
Y314767D01*
X196300Y315800D01*
X198800D01*
X203028Y320028D01*
Y320083D01*
G01X207006Y311055D02*
X205401Y309450D01*
X204030D01*
X203820Y309240D01*
X203040D01*
X199600Y305800D01*
X198600D01*
X197737Y304937D01*
Y303926D01*
X200326Y301337D01*
Y300326D01*
X199612Y299612D01*
X198601D01*
X196012Y302201D01*
X195001D01*
X194286Y301486D01*
Y300476D01*
X196876Y297886D01*
Y296876D01*
X196161Y296161D01*
X195150D01*
X192561Y298750D01*
X191550D01*
X187400Y294600D01*
Y293380D01*
X187757Y293023D01*
X188843D01*
X189200Y292665D01*
Y292160D01*
X188843Y291803D01*
X187757D01*
X187400Y291445D01*
Y290940D01*
X187757Y290583D01*
X188843D01*
X189200Y290225D01*
Y289720D01*
X188843Y289363D01*
X187757D01*
X187400Y289005D01*
Y287100D01*
X188086Y286414D01*
X188952D01*
X190766Y284600D01*
Y284095D01*
X189788Y283117D01*
Y282612D01*
X190146Y282254D01*
X190651D01*
X191629Y283232D01*
X192134D01*
X193866Y281500D01*
X195434D01*
X195837Y281097D01*
X196342D01*
X198420Y283174D01*
X198926D01*
X199283Y282817D01*
Y282312D01*
X197205Y280234D01*
Y279729D01*
X198022Y278912D01*
Y277901D01*
X196728Y276607D01*
Y275597D01*
X197443Y274882D01*
X198454D01*
X199748Y276176D01*
X200758D01*
X201358Y275576D01*
X202578D01*
X202935Y275219D01*
Y273857D01*
X203293Y273500D01*
X203798D01*
X204155Y273857D01*
Y275219D01*
X204513Y275576D01*
X205018D01*
X205375Y275219D01*
Y273857D01*
X205733Y273500D01*
X206238D01*
X206595Y273857D01*
Y275219D01*
X206953Y275576D01*
X207458D01*
X207815Y275219D01*
Y273857D01*
X208173Y273500D01*
X208678D01*
X209035Y273857D01*
Y275219D01*
X209393Y275576D01*
X209898D01*
X210255Y275219D01*
Y273857D01*
X210613Y273500D01*
X211118D01*
X211475Y273857D01*
Y275219D01*
X211833Y275576D01*
X212338D01*
X212695Y275219D01*
Y273857D01*
X213053Y273500D01*
X213558D01*
X213915Y273857D01*
Y275219D01*
X214273Y275576D01*
X230758D01*
X235334Y271000D01*
G01X171083Y207812D02*
X176487D01*
X178000Y209324D01*
G01X174490Y212104D02*
X178371D01*
G01X178000Y217855D02*
X174493D01*
X172990Y217855D01*
X169234Y214099D01*
Y203481D01*
X168014Y202261D01*
G01D02*
X164064D01*
G01X197163Y322092D02*
X211372Y336302D01*
X265312D01*
G01X266834Y271000D02*
Y298402D01*
X267196Y298763D01*
Y302340D01*
X266296Y303239D01*
Y308527D01*
X267167Y309398D01*
Y311912D01*
X266256Y312824D01*
Y317325D01*
X267875Y318944D01*
Y336366D01*
X266125Y338116D01*
X208507D01*
X206777Y339846D01*
X205766D01*
X204915Y338995D01*
X203905D01*
X203190Y339710D01*
Y340721D01*
X204041Y341572D01*
Y342582D01*
X203326Y343297D01*
X202316D01*
X201465Y342446D01*
X200454D01*
X199739Y343161D01*
Y344172D01*
X200590Y345023D01*
Y346033D01*
X199367Y347256D01*
X198357D01*
X197106Y346005D01*
X196095D01*
X195380Y346720D01*
Y347731D01*
X196631Y348982D01*
Y349992D01*
X195916Y350707D01*
X194906D01*
X193655Y349456D01*
X192644D01*
X191929Y350171D01*
Y351181D01*
X193180Y352432D01*
Y353443D01*
X191257Y355366D01*
Y357354D01*
G01X219155Y75002D02*
Y70002D01*
G01X230448Y10323D02*
X227733Y7608D01*
X219296D01*
X216712Y10191D01*
Y16870D01*
X220121Y20279D01*
X228495D01*
X232101Y23885D01*
G01X260404Y19059D02*
X220626D01*
X217932Y16365D01*
Y14281D01*
X220448Y11765D01*
Y10323D01*
G01X262218Y21638D02*
Y13337D01*
X255468Y6587D01*
X244184D01*
X240448Y10323D01*
G01X292036Y181665D02*
Y176735D01*
X294870Y173900D01*
X311392D01*
X313139Y175647D01*
Y185569D01*
X312700Y186009D01*
Y190853D01*
X313166Y191319D01*
X324559D01*
X324991Y190888D01*
Y189920D01*
X324559Y189489D01*
X317638D01*
X317206Y189058D01*
Y188090D01*
X317638Y187659D01*
X318600D01*
X319800Y186459D01*
Y173400D01*
X321900Y171300D01*
X325600D01*
X326331Y172031D01*
Y174882D01*
X325973Y175239D01*
X323057D01*
X322700Y175596D01*
Y176102D01*
X323057Y176459D01*
X325973D01*
X326331Y176816D01*
Y177322D01*
X325973Y177679D01*
X323057D01*
X322700Y178036D01*
Y178542D01*
X323057Y178899D01*
X325973D01*
X326331Y179257D01*
Y179762D01*
X325973Y180119D01*
X323057D01*
X322700Y180477D01*
Y180982D01*
X323057Y181339D01*
X325973D01*
X326331Y181696D01*
Y182202D01*
X325973Y182559D01*
X323057D01*
X322700Y182916D01*
Y183422D01*
X323057Y183779D01*
X325973D01*
X326331Y184136D01*
Y184642D01*
X325973Y184999D01*
X323057D01*
X322700Y185356D01*
Y185862D01*
X323057Y186219D01*
X325973D01*
X326331Y186576D01*
Y202543D01*
X326762Y202974D01*
X339000D01*
G01X284900Y174000D02*
X280408D01*
X274274Y180134D01*
X271000D01*
G01X235264Y154353D02*
X237111Y156200D01*
X240134D01*
X240148Y156214D01*
X241652D01*
X241666Y156200D01*
X243688D01*
X244087Y156599D01*
Y158999D01*
X244519Y159430D01*
X245486D01*
X245917Y158999D01*
Y156599D01*
X246349Y156168D01*
X247450D01*
X248045Y156762D01*
X250184D01*
X250616Y157194D01*
Y158161D01*
X250184Y158592D01*
X249448D01*
Y160422D01*
G01X259125Y156762D02*
X254289D01*
X251836Y159216D01*
Y177000D01*
G01X244952Y134191D02*
Y127975D01*
X244521Y127544D01*
X243569D01*
X243138Y127112D01*
Y122069D01*
G01X409531Y140508D02*
Y146853D01*
X409100Y147284D01*
X273921D01*
X273490Y146853D01*
Y142260D01*
X273058Y141829D01*
X253414D01*
X252982Y142260D01*
Y149740D01*
X252551Y150171D01*
X248293D01*
X247862Y150603D01*
Y154353D01*
G01X252587Y122069D02*
X250773D01*
X249400Y123442D01*
Y145700D01*
X248589Y146511D01*
X246690D01*
X246333Y146154D01*
Y142357D01*
X245975Y142000D01*
X245470D01*
X245113Y142357D01*
Y146154D01*
X244755Y146511D01*
X244250D01*
X243893Y146154D01*
Y142357D01*
X243535Y142000D01*
X243030D01*
X242673Y142357D01*
Y146154D01*
X242315Y146511D01*
X241810D01*
X241453Y146154D01*
Y142357D01*
X241095Y142000D01*
X240590D01*
X240233Y142357D01*
Y146154D01*
X239875Y146511D01*
X226362D01*
X225931Y146943D01*
Y157772D01*
X228451Y160292D01*
Y177000D01*
G01X273444Y138850D02*
Y126755D01*
X273013Y126324D01*
X264667D01*
X264236Y126755D01*
Y127722D01*
X263804Y128154D01*
X262837D01*
X262406Y127722D01*
Y126755D01*
X261974Y126324D01*
X253018D01*
X252587Y125892D01*
Y122069D01*
G01X414374Y175000D02*
Y149310D01*
X413943Y148879D01*
X257323D01*
X256891Y148448D01*
Y147480D01*
X257323Y147049D01*
X269773D01*
X270205Y146618D01*
Y145650D01*
X269773Y145219D01*
X255493D01*
X255061Y145650D01*
Y152108D01*
X254630Y152539D01*
X254162D01*
Y154353D01*
G01X410434Y175000D02*
Y157340D01*
X410003Y156909D01*
X384139D01*
X383707Y156478D01*
Y155510D01*
X384139Y155079D01*
X401358D01*
X401789Y154648D01*
Y153681D01*
X401358Y153249D01*
X382309D01*
X381877Y153681D01*
Y156478D01*
X381446Y156909D01*
X371067D01*
X370635Y156478D01*
Y150530D01*
X370204Y150099D01*
X258642D01*
X258210Y150530D01*
Y152108D01*
X257779Y152539D01*
X257311D01*
Y154353D01*
G01X242592Y177000D02*
Y165129D01*
X242374Y164911D01*
Y162397D01*
X242592Y162178D01*
Y157819D01*
X242473Y157700D01*
X227894D01*
X227151Y156956D01*
Y148163D01*
X227582Y147731D01*
X251331D01*
X251762Y147300D01*
Y134607D01*
X252194Y134176D01*
X262036D01*
G01X233188Y138521D02*
Y142420D01*
X232757Y142851D01*
X223977D01*
X216366Y150462D01*
Y151632D01*
X214552Y153446D01*
Y155261D01*
X216366Y157075D01*
Y157547D01*
X218216Y159397D01*
Y165512D01*
X217097Y166631D01*
Y171052D01*
X218216Y172171D01*
Y177000D01*
G01X255875D02*
Y160893D01*
X258176Y158592D01*
X283529D01*
X306616Y158592D01*
X310855Y154353D01*
G01X269935Y161273D02*
Y165501D01*
X264925Y170511D01*
Y177000D01*
G01X206096D02*
Y170531D01*
X210600Y166028D01*
Y163841D01*
X210548Y163789D01*
Y162285D01*
X210600Y162233D01*
Y146300D01*
X213332Y143568D01*
Y143544D01*
X229957Y126918D01*
X230503D01*
X233038Y124384D01*
Y120897D01*
X234900Y119035D01*
X321994D01*
X325028Y122069D01*
G01X320303Y154353D02*
X322117D01*
Y155100D01*
X322422Y155405D01*
Y155736D01*
X322854Y156168D01*
X334285D01*
X334716Y155736D01*
Y154277D01*
X335148Y153846D01*
X336115D01*
X336546Y154277D01*
Y155736D01*
X336978Y156168D01*
X340584D01*
X341015Y156599D01*
Y157075D01*
X341447Y157506D01*
X342414D01*
X342845Y157075D01*
Y152970D01*
X343277Y152539D01*
X344244D01*
X344675Y152970D01*
Y157075D01*
X345107Y157506D01*
X346074D01*
X346505Y157075D01*
Y156599D01*
X346937Y156168D01*
X350033D01*
X350464Y156599D01*
Y160055D01*
X350896Y160486D01*
X351863D01*
X352294Y160055D01*
Y155379D01*
X351863Y154948D01*
X350896D01*
X350464Y154516D01*
Y153549D01*
X350896Y153118D01*
X352005D01*
X352584Y152539D01*
X353693D01*
X354124Y152970D01*
Y160055D01*
X354556Y160486D01*
X355523D01*
X355954Y160055D01*
Y152970D01*
X356386Y152539D01*
X357353D01*
X357784Y152970D01*
Y155736D01*
X358216Y156168D01*
X359977D01*
X360409Y156599D01*
Y157566D01*
X359977Y157998D01*
X357606D01*
X357174Y158429D01*
Y159396D01*
X357606Y159828D01*
X359718D01*
X360150Y160259D01*
Y163846D01*
X360581Y164277D01*
X381981D01*
X382412Y164708D01*
Y165676D01*
X381981Y166107D01*
X359361D01*
X358930Y165676D01*
Y164708D01*
X358498Y164277D01*
X357531D01*
X357100Y164708D01*
Y165676D01*
X356668Y166107D01*
X355701D01*
X355270Y165676D01*
Y164708D01*
X354838Y164277D01*
X353871D01*
X353440Y164708D01*
Y165676D01*
X353008Y166107D01*
X349096D01*
X348664Y166538D01*
Y167506D01*
X349096Y167937D01*
X356058D01*
X356490Y168368D01*
Y170626D01*
X356921Y171057D01*
X357888D01*
X358320Y170626D01*
Y168368D01*
X358751Y167937D01*
X369550D01*
X369981Y168368D01*
Y169336D01*
X369550Y169767D01*
X364761D01*
X364330Y170198D01*
Y170706D01*
X363899Y171137D01*
X362931D01*
X362500Y170706D01*
Y170198D01*
X362069Y169767D01*
X360581D01*
X360150Y170198D01*
Y175000D01*
G01X306255Y143171D02*
Y137688D01*
X306686Y137257D01*
X307654D01*
X308085Y137688D01*
Y141184D01*
X308516Y141615D01*
X309484D01*
X309915Y141184D01*
Y135858D01*
X309484Y135427D01*
X294983D01*
X294552Y134996D01*
Y134028D01*
X294983Y133597D01*
X307181D01*
X307612Y133166D01*
Y132198D01*
X307181Y131767D01*
X293153D01*
X292722Y132198D01*
Y134996D01*
X292291Y135427D01*
X291323D01*
X290892Y134996D01*
Y128890D01*
X290461Y128459D01*
X289493D01*
X289062Y128890D01*
Y134996D01*
X288631Y135427D01*
X287663D01*
X287232Y134996D01*
Y127060D01*
X287663Y126629D01*
X291590D01*
X292021Y126197D01*
Y125230D01*
X291590Y124799D01*
X289961D01*
X287232Y122069D01*
G01X378781Y132986D02*
X375121Y129326D01*
X339667D01*
X339236Y129757D01*
Y130724D01*
X339667Y131156D01*
X368192D01*
X368623Y131587D01*
Y132554D01*
X368192Y132986D01*
X337649D01*
X337217Y132554D01*
Y129148D01*
X336786Y128717D01*
X309711D01*
X309280Y128286D01*
Y122069D01*
G01X214552Y177000D02*
Y157998D01*
X213332Y156778D01*
Y151929D01*
X214552Y150709D01*
Y145048D01*
X235025Y124575D01*
Y120686D01*
X235456Y120255D01*
X307466D01*
X309280Y122069D01*
G01X404296Y175000D02*
Y172780D01*
X403864Y172349D01*
X399201D01*
X398769Y171918D01*
Y170950D01*
X399201Y170519D01*
X403864D01*
X404296Y170088D01*
Y167900D01*
X404727Y167469D01*
X405694D01*
X406126Y167900D01*
Y173632D01*
X406557Y174064D01*
X407524D01*
X407956Y173632D01*
Y171434D01*
X407346Y170824D01*
Y169730D01*
X407777Y169299D01*
X408783D01*
X409214Y168868D01*
Y167900D01*
X408783Y167469D01*
X408387D01*
X407956Y167038D01*
Y166070D01*
X407524Y165639D01*
X405456D01*
X404846Y166249D01*
X403753D01*
X403322Y165818D01*
Y160580D01*
X402890Y160149D01*
X401923D01*
X401492Y160580D01*
Y165818D01*
X401060Y166249D01*
X399966D01*
X399356Y165639D01*
X398263D01*
X397832Y166070D01*
Y167038D01*
X398263Y167469D01*
X402644D01*
X403076Y167900D01*
Y168868D01*
X402644Y169299D01*
X396433D01*
X396002Y168868D01*
Y162410D01*
X395570Y161979D01*
X393214D01*
X392782Y162410D01*
Y164456D01*
X392351Y164887D01*
X391384D01*
X390952Y164456D01*
Y162410D01*
X390521Y161979D01*
X389554D01*
X389122Y162410D01*
Y164456D01*
X388691Y164887D01*
X387724D01*
X387292Y164456D01*
Y162410D01*
X386861Y161979D01*
X385894D01*
X385462Y162410D01*
Y164456D01*
X385031Y164887D01*
X384064D01*
X383632Y164456D01*
Y162410D01*
X383201Y161979D01*
X368627D01*
X368195Y161548D01*
Y155410D01*
X367764Y154979D01*
X363631D01*
X363200Y154548D01*
Y151750D01*
X362768Y151319D01*
X361266D01*
X360834Y151750D01*
Y153602D01*
X360403Y154033D01*
X359436D01*
X359004Y153602D01*
Y151750D01*
X358573Y151319D01*
X280867D01*
X279647Y152539D01*
X279358D01*
Y154353D01*
G01X393852Y145470D02*
X284514D01*
X284083Y145039D01*
Y122069D01*
G01X241324Y132361D02*
Y138826D01*
X234859Y145291D01*
X224743D01*
X224312Y145723D01*
Y155084D01*
X219704Y159692D01*
Y162927D01*
X226091Y169314D01*
Y170817D01*
X222856Y174052D01*
Y177000D01*
G01X276209Y154353D02*
X278023Y156168D01*
X300859D01*
X301290Y155736D01*
Y152970D01*
X301722Y152539D01*
X318057D01*
X318489Y152970D01*
Y153938D01*
X318057Y154369D01*
X316250D01*
X315818Y154800D01*
Y155768D01*
X316250Y156199D01*
X318057D01*
X318489Y156630D01*
Y157598D01*
X318057Y158029D01*
X316250D01*
X315818Y158460D01*
Y159428D01*
X316250Y159859D01*
X318057D01*
X318489Y160290D01*
Y161955D01*
X318920Y162386D01*
X324083D01*
X324514Y162818D01*
Y165615D01*
X324946Y166046D01*
X325913D01*
X326344Y165615D01*
Y162453D01*
X326479Y162319D01*
Y160988D01*
X326047Y160556D01*
X320218D01*
X319787Y160125D01*
Y159158D01*
X320218Y158726D01*
X329676D01*
X330107Y159158D01*
Y162036D01*
X330539Y162467D01*
X331506D01*
X331937Y162036D01*
Y157819D01*
X332369Y157388D01*
X333336D01*
X333767Y157819D01*
Y161294D01*
X334199Y161725D01*
X335166D01*
X335597Y161294D01*
Y157819D01*
X336029Y157388D01*
X336996D01*
X337427Y157819D01*
Y160026D01*
X337859Y160457D01*
X338826D01*
X339257Y160026D01*
Y159158D01*
X339689Y158726D01*
X347053D01*
X347484Y159158D01*
Y163655D01*
X347053Y164086D01*
X343533D01*
X343102Y164517D01*
Y165485D01*
X343533Y165916D01*
X347013D01*
X347444Y166347D01*
Y167315D01*
X347013Y167746D01*
X343533D01*
X343102Y168177D01*
Y169145D01*
X343533Y169576D01*
X347013D01*
X347444Y170007D01*
Y175000D01*
G01X411940Y140508D02*
Y139593D01*
X411041Y138693D01*
X408065D01*
X407634Y139124D01*
Y141213D01*
X407202Y141644D01*
X399470D01*
X399183Y141357D01*
X318968D01*
G01X230600Y270700D02*
Y273300D01*
X229700Y274200D01*
X227995D01*
X227638Y273843D01*
Y273493D01*
X227280Y273136D01*
X226775D01*
X226418Y273493D01*
Y273843D01*
X226060Y274200D01*
X225555D01*
X225198Y273843D01*
Y273493D01*
X224841Y273136D01*
X224335D01*
X223978Y273493D01*
Y273843D01*
X223620Y274200D01*
X223115D01*
X222758Y273843D01*
Y273493D01*
X222400Y273136D01*
X221895D01*
X221538Y273493D01*
Y273843D01*
X221180Y274200D01*
X220675D01*
X220318Y273843D01*
Y273493D01*
X219960Y273136D01*
X219455D01*
X219098Y273493D01*
Y273843D01*
X218740Y274200D01*
X216100D01*
X214998Y273098D01*
Y272592D01*
X216392Y271198D01*
Y270692D01*
X216035Y270335D01*
X215530D01*
X213882Y271982D01*
X212900Y271000D01*
G01X206200Y271500D02*
X207414D01*
X208410Y270504D01*
G01X319161Y220504D02*
Y224001D01*
X319695Y224534D01*
Y226349D01*
G01X236533Y322092D02*
X239058D01*
X240316Y320834D01*
Y293784D01*
X245500Y288600D01*
G01X208300Y289400D02*
Y290281D01*
X209600Y291581D01*
Y292086D01*
X207996Y293691D01*
Y294196D01*
X208353Y294553D01*
X208859D01*
X210463Y292949D01*
X210968D01*
X211325Y293307D01*
Y293812D01*
X209721Y295416D01*
Y295921D01*
X210079Y296279D01*
X210584D01*
X212188Y294674D01*
X212693D01*
X213051Y295032D01*
Y295537D01*
X211447Y297141D01*
Y297646D01*
X211804Y298004D01*
X212309D01*
X213913Y296400D01*
X215384D01*
X215920Y296936D01*
Y301264D01*
X216456Y301800D01*
X217214D01*
X217750Y301264D01*
Y296936D01*
X218286Y296400D01*
X219800D01*
X221250Y297850D01*
Y298356D01*
X221006Y298600D01*
Y299106D01*
X221363Y299463D01*
X221868D01*
X222113Y299218D01*
X222618D01*
X223539Y300139D01*
Y300644D01*
X221344Y302839D01*
Y303344D01*
X221702Y303702D01*
X222207D01*
X224402Y301507D01*
X224907D01*
X225265Y301864D01*
Y302370D01*
X223070Y304564D01*
Y305070D01*
X223427Y305427D01*
X223932D01*
X226127Y303232D01*
X226632D01*
X228305Y304905D01*
Y305411D01*
X227194Y306522D01*
Y307027D01*
X227551Y307385D01*
X228056D01*
X229168Y306273D01*
X229673D01*
X230628Y307228D01*
Y310498D01*
X228659Y312466D01*
Y315256D01*
X229374Y315971D01*
X229585D01*
X230300Y316686D01*
Y317696D01*
X229585Y318411D01*
X229374D01*
X228659Y319126D01*
Y321786D01*
G01X201200Y289400D02*
Y290675D01*
X202414Y291889D01*
X203172D01*
X204823Y290239D01*
X205581D01*
X206117Y290775D01*
Y291533D01*
X204466Y293183D01*
Y293941D01*
X205329Y294804D01*
X205834D01*
X206104Y294535D01*
X206609D01*
X206967Y294892D01*
Y295397D01*
X206697Y295667D01*
Y296172D01*
X207055Y296530D01*
X207560D01*
X207829Y296260D01*
X208335D01*
X208692Y296618D01*
Y297123D01*
X208423Y297392D01*
Y297897D01*
X208780Y298255D01*
X209285D01*
X209555Y297985D01*
X210060D01*
X210418Y298343D01*
Y298848D01*
X210148Y299118D01*
Y299623D01*
X211174Y300649D01*
X211551D01*
X213500Y298700D01*
X214299D01*
X214700Y299100D01*
Y299500D01*
X212000Y302200D01*
X211963D01*
X209163Y305000D01*
Y305637D01*
X209613Y306087D01*
X209913D01*
X213969Y302031D01*
X214831D01*
X215263Y302463D01*
Y303325D01*
X211694Y306894D01*
Y308169D01*
X212158Y308632D01*
Y308700D01*
X212900D01*
X215000Y306600D01*
Y306500D01*
X218500Y303000D01*
X219200D01*
X222569Y306369D01*
Y307231D01*
X222137Y307663D01*
X221275D01*
X219606Y305994D01*
X217806D01*
X216900Y306900D01*
Y307800D01*
X217700Y308600D01*
X220400D01*
X221969Y310169D01*
Y311031D01*
X221900Y311100D01*
X215500D01*
X213100Y313500D01*
Y315948D01*
X214200Y317048D01*
X215420D01*
X215777Y316691D01*
Y315236D01*
X216135Y314878D01*
X216640D01*
X216997Y315236D01*
Y316691D01*
X217355Y317048D01*
X217860D01*
X218217Y316691D01*
Y315236D01*
X218575Y314878D01*
X219080D01*
X219437Y315236D01*
Y316691D01*
X219795Y317048D01*
X221052D01*
X221500Y316600D01*
Y315500D01*
X222122Y314878D01*
X226556D01*
X227739Y316061D01*
Y317561D01*
X226900Y318400D01*
Y319873D01*
X226691Y320083D01*
G01X226956Y324102D02*
X228770D01*
Y324304D01*
X229770Y325304D01*
X232160D01*
X234410Y323054D01*
Y319331D01*
X232596Y317517D01*
Y310270D01*
X232953Y309912D01*
X234726D01*
X235083Y309555D01*
Y309050D01*
X234726Y308692D01*
X232953D01*
X232596Y308335D01*
Y307830D01*
X232953Y307472D01*
X234726D01*
X235083Y307115D01*
Y306610D01*
X234726Y306252D01*
X232953D01*
X232596Y305895D01*
Y304352D01*
X232598Y304350D01*
X231885Y303637D01*
X229515D01*
X228800Y302922D01*
Y301912D01*
X229515Y301197D01*
X231885D01*
X232600Y300482D01*
Y299472D01*
X231885Y298757D01*
X229515D01*
X228800Y298042D01*
Y297032D01*
X229515Y296317D01*
X231885D01*
X232600Y295602D01*
Y292700D01*
X231100Y291200D01*
X227318D01*
X226603Y291915D01*
Y298285D01*
X225889Y299000D01*
X224878D01*
X224163Y298285D01*
Y296852D01*
X223806Y296494D01*
X221657D01*
X221300Y296137D01*
Y295632D01*
X221657Y295274D01*
X223806D01*
X224163Y294917D01*
Y291915D01*
X223449Y291200D01*
X222200D01*
X218500Y294900D01*
X214644D01*
X210429Y290684D01*
Y288076D01*
G01X268900Y288500D02*
Y307900D01*
X269000Y308000D01*
G01X240626Y271000D02*
Y272004D01*
X239816Y272814D01*
X236086D01*
X232104Y276796D01*
X202204D01*
X200700Y278300D01*
Y279900D01*
X201900Y281100D01*
X203100D01*
X205850Y278350D01*
X232550D01*
X236850Y274050D01*
X238070D01*
X238606Y274586D01*
Y277664D01*
X239142Y278200D01*
X239900D01*
X240436Y277664D01*
Y274586D01*
X240972Y274050D01*
X241730D01*
X242266Y274586D01*
Y277664D01*
X242802Y278200D01*
X243560D01*
X244096Y277664D01*
Y274586D01*
X244632Y274050D01*
X247143D01*
X250286Y277194D01*
X251297D01*
X251840Y276651D01*
X252851D01*
X253566Y277366D01*
Y278376D01*
X253023Y278919D01*
Y279930D01*
X253737Y280645D01*
X254748D01*
X255291Y280102D01*
X256302D01*
X257016Y280816D01*
Y281827D01*
X256473Y282370D01*
Y283381D01*
X262347Y289254D01*
Y295640D01*
X265976Y299268D01*
Y301835D01*
X265076Y302734D01*
Y309032D01*
X265947Y309904D01*
Y311407D01*
X264885Y312470D01*
X264727D01*
X264133Y313064D01*
G01X270000Y267400D02*
X271380Y268780D01*
Y272971D01*
X271023Y273328D01*
X268757D01*
X268400Y273686D01*
Y274191D01*
X268757Y274548D01*
X271023D01*
X271380Y274906D01*
Y275411D01*
X271023Y275768D01*
X268757D01*
X268400Y276126D01*
Y276631D01*
X268757Y276988D01*
X271023D01*
X271380Y277346D01*
Y277851D01*
X271023Y278208D01*
X268757D01*
X268400Y278566D01*
Y279071D01*
X268757Y279428D01*
X271023D01*
X271380Y279786D01*
Y283784D01*
X270844Y284320D01*
X268736D01*
X268200Y284856D01*
Y285614D01*
X268736Y286150D01*
X270844D01*
X271380Y286686D01*
Y291796D01*
X271023Y292153D01*
X270477D01*
X270120Y292510D01*
Y293016D01*
X270477Y293373D01*
X271023D01*
X271380Y293730D01*
Y294236D01*
X271023Y294593D01*
X270477D01*
X270120Y294950D01*
Y295456D01*
X270477Y295813D01*
X271023D01*
X271380Y296170D01*
Y296676D01*
X271023Y297033D01*
X270477D01*
X270120Y297390D01*
Y297896D01*
X270477Y298253D01*
X271023D01*
X271380Y298610D01*
Y299116D01*
X271023Y299473D01*
X270477D01*
X270120Y299830D01*
Y300336D01*
X270477Y300693D01*
X271023D01*
X271380Y301050D01*
Y301556D01*
X271023Y301913D01*
X270477D01*
X270120Y302270D01*
Y302776D01*
X270477Y303133D01*
X271023D01*
X271380Y303490D01*
Y303996D01*
X271023Y304353D01*
X270477D01*
X270120Y304710D01*
Y305216D01*
X270477Y305573D01*
X271023D01*
X271380Y305930D01*
Y310436D01*
X271023Y310793D01*
X268857D01*
X268500Y311151D01*
Y311656D01*
X268857Y312013D01*
X271023D01*
X271380Y312371D01*
Y312876D01*
X271023Y313233D01*
X268857D01*
X268500Y313591D01*
Y314096D01*
X268857Y314453D01*
X271023D01*
X271380Y314811D01*
Y317999D01*
X271023Y318356D01*
X269857D01*
X269500Y318714D01*
Y319219D01*
X269857Y319576D01*
X271023D01*
X271380Y319934D01*
Y320439D01*
X271023Y320796D01*
X269857D01*
X269500Y321154D01*
Y321659D01*
X269857Y322016D01*
X271023D01*
X271380Y322374D01*
Y322879D01*
X271023Y323236D01*
X269857D01*
X269500Y323594D01*
Y324099D01*
X269857Y324456D01*
X271023D01*
X271380Y324814D01*
Y325319D01*
X271023Y325676D01*
X269857D01*
X269500Y326034D01*
Y326539D01*
X269857Y326896D01*
X271023D01*
X271380Y327254D01*
Y327759D01*
X271023Y328116D01*
X269857D01*
X269500Y328474D01*
Y328979D01*
X269857Y329336D01*
X271023D01*
X271380Y329694D01*
Y330199D01*
X271023Y330556D01*
X269857D01*
X269500Y330914D01*
Y331419D01*
X269857Y331776D01*
X271023D01*
X271380Y332134D01*
Y332639D01*
X271023Y332996D01*
X269857D01*
X269500Y333354D01*
Y333859D01*
X269857Y334216D01*
X271023D01*
X271380Y334574D01*
Y335079D01*
X271023Y335436D01*
X269857D01*
X269500Y335794D01*
Y336299D01*
X269857Y336656D01*
X271023D01*
X271380Y337014D01*
Y338234D01*
X265014Y344600D01*
X255000D01*
X248498Y351102D01*
Y354532D01*
X248514Y354548D01*
Y356052D01*
X248498Y356068D01*
Y357465D01*
X248303Y357660D01*
G01X263600Y285800D02*
X260400Y282600D01*
Y271000D01*
G01X255000Y347500D02*
X269300D01*
X272600Y344200D01*
Y267080D01*
X271000Y265480D01*
G01X261500Y303200D02*
X261000D01*
X258341Y305859D01*
Y307841D01*
X262000Y311500D01*
Y322507D01*
X260907Y323600D01*
X260899D01*
X256600Y327900D01*
G01X212911Y357354D02*
Y351079D01*
X220911Y343079D01*
X248426D01*
G01X236379Y345758D02*
X220966D01*
X214880Y351844D01*
G01X266546Y340494D02*
X221546D01*
X207046Y354994D01*
Y357549D01*
G01X390938Y64672D02*
X382700Y56434D01*
Y55300D01*
X380700Y53300D01*
X380000D01*
X378500Y51800D01*
Y32000D01*
X380340Y30160D01*
X380430D01*
G01X393115Y44185D02*
X392900Y44400D01*
X382400D01*
X380542Y42542D01*
Y42482D01*
G01X398750Y34482D02*
X398700Y34532D01*
Y41300D01*
X393317Y46683D01*
X391272D01*
G01X409100Y78018D02*
Y80028D01*
X404600Y84528D01*
X379713D01*
G01X404950Y78010D02*
X406764D01*
X406772Y78018D01*
X409100D01*
G01X413191Y78011D02*
X415389D01*
X415418Y78040D01*
X417232D01*
G01X419700Y91600D02*
Y84662D01*
X419566Y84528D01*
G01X339000Y198255D02*
X336615D01*
X331615Y193255D01*
Y172879D01*
X333429Y171064D01*
G01X542462Y241603D02*
X482651D01*
X475529Y234480D01*
Y232069D01*
X477055Y230543D01*
Y226439D01*
X470249Y219632D01*
X447000D01*
G01Y199108D02*
X465186D01*
X472686Y191608D01*
Y191399D01*
X475436Y188649D01*
X487149D01*
X500742Y202242D01*
G01X333460Y168400D02*
X339712D01*
X343712Y172400D01*
Y175000D01*
G01X386955Y150725D02*
X412129D01*
X412560Y151156D01*
Y167444D01*
G01X438365Y161222D02*
X431619D01*
X431187Y160790D01*
Y152503D01*
X430756Y152072D01*
X429789D01*
X429357Y152503D01*
Y162620D01*
X428926Y163052D01*
X427959D01*
X427527Y162620D01*
Y152503D01*
X427096Y152072D01*
X426129D01*
X425697Y152503D01*
Y160790D01*
X425266Y161222D01*
X422770D01*
X422339Y161653D01*
Y162620D01*
X422770Y163052D01*
X424220D01*
X424652Y163483D01*
Y164450D01*
X424220Y164882D01*
X422770D01*
X422339Y165313D01*
Y166280D01*
X422770Y166712D01*
X424220D01*
X424652Y167143D01*
Y168110D01*
X424220Y168542D01*
X420940D01*
X420509Y168110D01*
Y161653D01*
X420077Y161222D01*
X419110D01*
X418678Y161653D01*
Y171579D01*
X418247Y172010D01*
X417280D01*
X416848Y171579D01*
Y160433D01*
X417280Y160002D01*
X420953D01*
X421384Y159570D01*
Y158603D01*
X420953Y158172D01*
X417280D01*
X416848Y157740D01*
Y146663D01*
X417280Y146232D01*
X418247D01*
X418678Y146663D01*
Y149220D01*
X419110Y149652D01*
X420077D01*
X420509Y149220D01*
Y146268D01*
X420581Y146196D01*
Y144833D01*
X420149Y144402D01*
X414330D01*
X413898Y143971D01*
Y143003D01*
X414330Y142572D01*
X421979D01*
X422411Y142141D01*
Y141173D01*
X421979Y140742D01*
X421012D01*
X420581Y140311D01*
Y137513D01*
X420149Y137082D01*
X419182D01*
X418751Y137513D01*
Y140311D01*
X418319Y140742D01*
X417280D01*
X416848Y140311D01*
Y135714D01*
X417280Y135283D01*
X423809D01*
X424241Y134852D01*
Y133884D01*
X423809Y133453D01*
X416257D01*
X415825Y133022D01*
Y132054D01*
X416257Y131623D01*
X421979D01*
X422411Y131192D01*
Y130224D01*
X421979Y129793D01*
X417280D01*
X416848Y129362D01*
Y128394D01*
X417280Y127963D01*
X421979D01*
X422411Y127532D01*
Y126564D01*
X421979Y126133D01*
X417280D01*
X416848Y125702D01*
Y118896D01*
X416417Y118464D01*
X415450D01*
X415019Y118896D01*
Y125353D01*
X414587Y125784D01*
X412945D01*
X412514Y126216D01*
Y127183D01*
X412945Y127614D01*
X415197D01*
X415628Y128046D01*
Y129013D01*
X415197Y129444D01*
X412335D01*
X411904Y129876D01*
Y130969D01*
X412514Y131579D01*
Y132673D01*
X412082Y133104D01*
X411115D01*
X410684Y132673D01*
Y126216D01*
X410252Y125784D01*
X409285D01*
X408854Y126216D01*
Y132673D01*
X408422Y133104D01*
X407455D01*
X407024Y132673D01*
Y126216D01*
X406592Y125784D01*
X405625D01*
X405194Y126216D01*
Y139993D01*
X404762Y140424D01*
X403795D01*
X403364Y139993D01*
Y133536D01*
X402932Y133104D01*
X401965D01*
X401534Y132673D01*
Y131706D01*
X401965Y131274D01*
X402932D01*
X403364Y130843D01*
Y129876D01*
X402932Y129444D01*
X401965D01*
X401534Y129013D01*
Y128046D01*
X401965Y127614D01*
X403132D01*
X403563Y127183D01*
Y126216D01*
X403132Y125784D01*
X360170D01*
X359738Y125353D01*
Y118896D01*
X359307Y118464D01*
X358340D01*
X357908Y118896D01*
Y125353D01*
X357477Y125784D01*
X356510D01*
X356078Y125353D01*
Y118896D01*
X355647Y118464D01*
X354680D01*
X354248Y118896D01*
Y125353D01*
X353817Y125784D01*
X352850D01*
X352418Y125353D01*
Y118896D01*
X351987Y118464D01*
X351020D01*
X350588Y118896D01*
Y125353D01*
X350157Y125784D01*
X349190D01*
X348758Y125353D01*
Y118896D01*
X348327Y118464D01*
X347360D01*
X346928Y118896D01*
Y125353D01*
X346497Y125784D01*
X341207D01*
X340776Y125353D01*
Y122069D01*
G01X447000Y176120D02*
X447949D01*
X450484Y173585D01*
Y171770D01*
G01X367900Y175000D02*
X374862Y168038D01*
X384048D01*
G01X426466Y173231D02*
X429771Y169926D01*
X455284D01*
X456374Y171017D01*
Y183051D01*
X452187Y187239D01*
X447000D01*
G01X390584Y175000D02*
Y168038D01*
G01X418314Y175000D02*
Y174012D01*
X419096Y173231D01*
X423198D01*
G01X429734Y175000D02*
Y173231D01*
G01X353045Y111177D02*
X354939Y113071D01*
X383538D01*
G01X435874Y106454D02*
X429387D01*
X422224Y99291D01*
X371989D01*
G01D02*
Y102327D01*
G01Y99291D02*
X369480D01*
G01X466646Y180500D02*
Y191696D01*
X463146Y195196D01*
X447000D01*
G01Y231332D02*
X453619D01*
X459907Y237620D01*
X467450D01*
X473247Y243417D01*
X540339D01*
X542462Y245540D01*
G01X447000Y227823D02*
X451893D01*
X451944Y227874D01*
X463966D01*
X464017Y227823D01*
X473231D01*
G01X447000Y250922D02*
X458856D01*
X460348Y252414D01*
X469933D01*
X472900Y255382D01*
X476944D01*
G01X447000Y255066D02*
X467509D01*
X471762Y259319D01*
X477343D01*
G01X447000Y259006D02*
X462228D01*
X462773Y259551D01*
X465383D01*
X465461Y259473D01*
X466964D01*
X468778Y261288D01*
X473231D01*
G01X339000Y246284D02*
X338399D01*
X337614Y245500D01*
X335800D01*
G01X447000Y269904D02*
X447749D01*
X448621Y269032D01*
X450436D01*
G01X339000Y257793D02*
X335655D01*
G01X447000Y262946D02*
X450970D01*
X453470Y265446D01*
Y268163D01*
X460220Y274913D01*
X480807D01*
X508212Y247508D01*
X539859D01*
G01X542462Y249477D02*
X512839D01*
X483301Y279014D01*
X461786D01*
X461400Y279400D01*
G01X452250Y277000D02*
Y268040D01*
X451000Y266790D01*
X447000D01*
G01X449900Y127200D02*
X483800D01*
X490400Y120600D01*
Y44900D01*
X503470Y31830D01*
X517060D01*
G01X556440D02*
X517060D01*
G01X449926Y96180D02*
Y97994D01*
X450032Y98100D01*
Y101234D01*
G01X463964Y139568D02*
X470107D01*
G01X463964Y130559D02*
Y139568D01*
G01D02*
X459412D01*
X452848Y146132D01*
G01X462048Y150805D02*
X451638D01*
G01X545572Y146636D02*
X516700D01*
X508653Y154683D01*
Y159050D01*
X500403Y167300D01*
X483500D01*
G01X545572Y149904D02*
X547596D01*
X553300Y144200D01*
X566647D01*
X569621Y147174D01*
G01X481391Y168790D02*
X481716Y169114D01*
X521229D01*
X537406Y152938D01*
X542538D01*
X545572Y149904D01*
G01X471300Y180500D02*
X466646D01*
G01D02*
Y171744D01*
G01X562900Y186900D02*
Y188800D01*
X559900Y191800D01*
Y219127D01*
X564810Y224037D01*
G01X557900Y166600D02*
Y227927D01*
X564810Y234837D01*
G01X545500Y194800D02*
Y185976D01*
X540500Y180976D01*
X501273D01*
X492859Y172561D01*
G01X544165Y251445D02*
X553057Y242553D01*
Y234648D01*
X554871Y232834D01*
Y226040D01*
X537621Y208790D01*
X481268D01*
G01X447000Y207826D02*
X466133D01*
X473091Y214784D01*
X491784D01*
X504824Y227823D01*
X544165D01*
G01X551184Y229792D02*
X500444D01*
X486656Y216004D01*
X447000D01*
G01Y244286D02*
X462698D01*
X462773Y244210D01*
X464277D01*
X469389Y249323D01*
X477220D01*
X481157Y245386D01*
X535183D01*
G54D19*
X397469Y132765D03*
G54D29*
G01X297455Y199109D02*
Y201532D01*
X297102Y201884D01*
Y203861D01*
X298478Y205237D01*
X319088D01*
X325272Y211421D01*
X329782D01*
X339532Y221171D01*
Y225201D01*
X341159Y226827D01*
X351292D01*
X352073Y226046D01*
Y224370D01*
X353277Y223166D01*
Y217743D01*
X353810Y217210D01*
G01X295718Y200812D02*
Y202549D01*
X296037Y202868D01*
Y204302D01*
X298037Y206302D01*
X318647D01*
X324831Y212486D01*
X329341D01*
X338467Y221612D01*
Y225642D01*
X340717Y227892D01*
X353464D01*
X355547Y225810D01*
Y224370D01*
X354342Y223166D01*
Y219134D01*
X355547Y217930D01*
Y217641D01*
X355978Y217210D01*
X357740D01*
M02*
