G04 ================== begin FILE IDENTIFICATION RECORD ==================*
G04 Layout Name:  E:/project/IRISking/ikemb-0001/project/hardware/DM642/v4/EMB001-V4.1.brd*
G04 Film Name:    LAYER4*
G04 File Format:  Gerber RS274X*
G04 File Origin:  16.0-p002*
G04 Origin Date:  Tue Aug 02 10:37:43 2011*
G04 *
G04 Layer:  VIA CLASS/LAYER4*
G04 Layer:  PIN/LAYER4*
G04 Layer:  ETCH/LAYER4*
G04 Layer:  BOARD GEOMETRY/OUTLINE*
G04 *
G04 Offset:    (0.000 0.000)*
G04 Mirror:    No*
G04 Mode:      Positive*
G04 Rotation:  0*
G04 FullContactRelief:  No*
G04 UndefLineWidth:     8.000*
G04 ================== end FILE IDENTIFICATION RECORD ====================*
%FSLAX55Y55*MOIN*%
%IR0*IPPOS*OFA0.00000B0.00000*MIA0B0*SFA1.00000B1.00000*%
%ADD15C,.2*%
%ADD18C,.12*%
%ADD19C,.13*%
%ADD12C,.04*%
%ADD17C,.05*%
%ADD16C,.062*%
%ADD10C,.08*%
%ADD13C,.055*%
%ADD14C,.022988*%
%ADD11C,.017988*%
%ADD20C,.004098*%
%ADD21C,.006098*%
%ADD22C,.01*%
%ADD23C,.02*%
%ADD24C,.008*%
%ADD27C,.0522*%
%ADD28C,.0742*%
%ADD25C,.030188*%
%ADD26C,.035188*%
G75*
%LPD*%
G75*
G36*
G01X27329Y-47097D02*
X-28281Y8513D01*
Y36109D01*
X-35808Y43636D01*
X-143530D01*
G02X-143839Y44295I0J402D01*
G03X-146161I-1161J965D01*
G02X-146470Y43636I-309J-257D01*
G01X-259600D01*
Y71350D01*
X-215859D01*
G02X-215477Y70822I0J-402D01*
G03X-210523I2477J-821D01*
G02X-210141Y71350I382J127D01*
G01X-200859D01*
G02X-200477Y70822I0J-402D01*
G03X-195523I2477J-821D01*
G02X-195141Y71350I382J127D01*
G01X-194671D01*
Y71108D01*
X-194687Y71070D01*
G03X-194419Y69469I1389J-591D01*
G02Y68931I-299J-269D01*
G03X-192176I1121J-1010D01*
G02Y69469I299J269D01*
G03X-191834Y70850I-1121J1010D01*
G02X-191444Y71350I390J99D01*
G01X-182532D01*
X-182488Y71210D01*
G03X-177512I2487J790D01*
G01X-177468Y71350D01*
X-111297D01*
G02X-110991Y70688I0J-402D01*
G03X-107009I1991J-1688D01*
G02X-106703Y71350I307J260D01*
G01X-105297D01*
G02X-104991Y70688I0J-402D01*
G03X-101009I1991J-1688D01*
G02X-100703Y71350I307J260D01*
G01X-99297D01*
G02X-98991Y70688I0J-402D01*
G03X-95009I1991J-1688D01*
G02X-94703Y71350I307J260D01*
G01X-17496D01*
X-17468Y71182D01*
G03X-10152I3658J618D01*
G01X-10124Y71350D01*
X-1360D01*
Y13740D01*
X8274Y4106D01*
G02X7922Y3426I-284J-284D01*
G03X10466Y882I-522J-3066D01*
G02X11146Y1234I396J67D01*
G01X26275Y-13895D01*
G02X25948Y-14579I-284J-284D01*
G03X27290Y-15921I-159J-1501D01*
G02X27974Y-15594I400J42D01*
G01X35400Y-23020D01*
X41435D01*
X41435Y-36149D01*
X44695Y-39409D01*
X85535D01*
X95067Y-29876D01*
X130963D01*
X135001Y-33915D01*
X148221D01*
X150689Y-36383D01*
X244251D01*
X250757Y-29876D01*
X320103D01*
X328569Y-38343D01*
X370741D01*
X379989Y-29095D01*
X383349D01*
X386989Y-25455D01*
X466849D01*
X469284Y-23020D01*
X482830D01*
Y115510D01*
X494570D01*
X494623Y115391D01*
G03X497377I1377J618D01*
G01X497430Y115510D01*
X520270D01*
Y-23020D01*
X535510D01*
Y-47097D01*
X523066D01*
G02X522782Y-46411I0J402D01*
G01X526594Y-42598D01*
Y-32598D01*
X519094Y-25098D01*
X509094D01*
X501594Y-32598D01*
Y-42598D01*
X505406Y-46411D01*
G02X505122Y-47097I-284J-284D01*
G01X27329D01*
G37*
G36*
G01X81889Y-37579D02*
Y-23020D01*
X145563D01*
X145582Y-23024D01*
G03X146145I282J1483D01*
G01X146164Y-23020D01*
X149500D01*
X149519Y-23024D01*
G03X150082I282J1483D01*
G01X150101Y-23020D01*
X157374D01*
X157393Y-23024D01*
G03X157956I282J1483D01*
G01X157975Y-23020D01*
X180996D01*
X181014Y-23024D01*
G03X181579I282J1483D01*
G01X181598Y-23020D01*
X188870D01*
X188888Y-23024D01*
G03X189453I282J1483D01*
G01X189472Y-23020D01*
X329873D01*
Y-36514D01*
X329327D01*
X320861Y-28047D01*
X249999D01*
X243493Y-34554D01*
X151447D01*
X148979Y-32085D01*
X148165D01*
Y-31739D01*
X148303Y-31693D01*
G03X146825Y-31384I-471J1434D01*
G02X146557Y-32085I-268J-299D01*
G01X145170D01*
G02X144902Y-31384I0J402D01*
G03X142888I-1007J1124D01*
G02X142620Y-32085I-268J-299D01*
G01X135759D01*
X131721Y-28047D01*
X94309D01*
X84777Y-37579D01*
X81889D01*
G37*
G36*
G01X45054Y-36210D02*
G02X44367Y-36494I-402J0D01*
G01X43265Y-35391D01*
Y-23020D01*
X45054D01*
Y-36210D01*
G37*
G36*
G01X368117Y-36514D02*
Y-23020D01*
X388582D01*
X388844Y-23282D01*
G02X388702Y-23625I-142J-142D01*
G01X386231D01*
X382591Y-27265D01*
X379231D01*
X369983Y-36514D01*
X368117D01*
G37*
G36*
G01X440804Y-23625D02*
G02X440662Y-23282I0J201D01*
G01X440924Y-23020D01*
X466211D01*
G02X466353Y-23363I0J-201D01*
G01X466091Y-23625D01*
X440804D01*
G37*
%LPC*%
G75*
G36*
G01X-193449Y61362D02*
G02X-195616Y61418I-1111J-1022D01*
G03X-195602Y61978I-281J287D01*
G02X-193435Y61922I1111J1022D01*
G03X-193449Y61362I281J-287D01*
G37*
G36*
G01X393911Y-29712D02*
G02X392496Y-31381I86J-1507D01*
G03X392074Y-31023I-400J-43D01*
G02X393489Y-29354I-86J1507D01*
G03X393911Y-29712I400J43D01*
G37*
G36*
G01X153270Y-31926D02*
G02X151823Y-30254I-1501J163D01*
G03X152237Y-29896I14J402D01*
G02X155238I1500J-163D01*
G03X155652Y-30254I400J44D01*
G02X154206Y-31926I54J-1508D01*
G03X153792Y-31568I-400J-44D01*
G02X153684I-54J1508D01*
G03X153270Y-31926I-14J-402D01*
G37*
G36*
G01X165088Y-31949D02*
G02X162072I-1508J76D01*
G03X161659Y-31568I-401J-20D01*
G02X161558Y-31568I-46J1509D01*
G03X161144Y-31926I-14J-402D01*
G02X159697Y-30254I-1501J163D01*
G03X160111Y-29896I14J402D01*
G02X163119Y-29983I1501J-163D01*
G03X163533Y-30365I401J20D01*
G02X163627I47J-1509D01*
G03X164041Y-29983I13J402D01*
G02X165502Y-31568I1507J-76D01*
G03X165088Y-31949I-13J-402D01*
G37*
G54D27*
X-97000Y63000D03*
X-103000D03*
X-109000D03*
X-180000Y62000D03*
X-97000Y57000D03*
X-103000D03*
X-109000D03*
X-39170Y55769D03*
X-213000Y55000D03*
X-103000Y51000D03*
X-109000D03*
G54D28*
X-13810Y61800D03*
Y51800D03*
Y41800D03*
Y31800D03*
X28280Y-24080D03*
X18280D03*
X307680Y-37550D03*
X297680D03*
X287680D03*
X277680D03*
X267680D03*
X257680D03*
G54D25*
X493191Y112500D03*
X516000Y108309D03*
X502500Y95491D03*
X496000D03*
X-31009Y68130D03*
X-140820Y66500D03*
X-157382Y65310D03*
X-21700Y65121D03*
X-147960Y63340D03*
X-207309Y63000D03*
X-18191Y58130D03*
X-31009D03*
X-156986Y57684D03*
X-207309Y56500D03*
X-168101Y55125D03*
X-194350D03*
X-207309Y50000D03*
X-127940Y48500D03*
X-18191Y48130D03*
X-31009D03*
X-16109Y15860D03*
X-11600Y11851D03*
X-4100Y10873D03*
X-11600Y4369D03*
X-2600Y4169D03*
X1909Y360D03*
X-16109D03*
X12971Y-9080D03*
Y-16080D03*
X437264Y-29316D03*
X433327D03*
X429390D03*
X425453D03*
X421516D03*
X417579D03*
X413642D03*
X409705D03*
X405768D03*
X401830D03*
X397894D03*
X388051D03*
X305690Y-32180D03*
X185234Y-30059D03*
X177360D03*
X173423D03*
X169486D03*
X139958D03*
G54D26*
X501939Y77461D03*
X502251Y52461D03*
%LPD*%
G75*
G54D10*
X-272000Y140000D03*
X-252000D03*
X-302000Y60000D03*
X-222000D03*
X-204651Y329847D03*
X-123922D03*
X581864Y15421D03*
X562179Y35106D03*
Y-4264D03*
Y15421D03*
X581864Y-4264D03*
Y35106D03*
X562179Y25264D03*
Y5578D03*
X555216Y72460D03*
Y131760D03*
G54D20*
G01X97473Y235827D02*
X95836Y234191D01*
X65349D01*
X64341Y233184D01*
Y221370D01*
G01X59677Y226378D02*
X58162Y227893D01*
X48390D01*
G01X105839Y237342D02*
X59050D01*
X58163Y236454D01*
Y232172D01*
X57033Y231042D01*
X48390D01*
G01X105839Y224296D02*
X104597Y225538D01*
Y225553D01*
X103772Y226378D01*
G01X93856Y221370D02*
X92687Y222539D01*
Y228013D01*
X91173Y229527D01*
G01X89659Y221370D02*
Y227892D01*
X88023Y229527D01*
G01X59677Y254725D02*
X64968D01*
X67491Y252202D01*
Y251069D01*
X68621Y249939D01*
X105839D01*
G01X73795Y221370D02*
Y230038D01*
X74798Y231042D01*
X86388D01*
X88024Y232677D01*
G01X105839Y231054D02*
X95946D01*
X94323Y232677D01*
G01X62827Y270473D02*
X61191Y272109D01*
Y278819D01*
G01X65976Y251575D02*
X64404Y250003D01*
X55965D01*
X55014Y249052D01*
Y247918D01*
X53081Y245985D01*
X48390D01*
G01X105839Y265760D02*
X104300Y264221D01*
X97472D01*
G01X50228Y270473D02*
Y278819D01*
G01X48390Y240820D02*
Y237665D01*
X50228Y235827D01*
G01X103772Y278819D02*
Y276772D01*
G01X105839Y256239D02*
X59050D01*
X58042Y255231D01*
Y254097D01*
X54005Y250061D01*
X52751D01*
X51742Y251070D01*
Y257796D01*
X50228Y259310D01*
Y261024D01*
G01X62827Y273622D02*
X67721D01*
X72918Y278819D01*
G01X84826Y267275D02*
X86540D01*
X88006Y265809D01*
X94292D01*
X95758Y267275D01*
X97472D01*
G01X59677Y264173D02*
X61391D01*
X62906Y262658D01*
X105839D01*
G01X84871Y248377D02*
X69351D01*
X67270Y246295D01*
X55406D01*
X51742Y242632D01*
Y234191D01*
X50228Y232677D01*
G01X105839Y240422D02*
X105770Y240491D01*
X61312D01*
X59677Y242126D01*
G01X105839Y244860D02*
X56112D01*
X53379Y242127D01*
G01X75425Y226378D02*
Y226259D01*
X76981Y224703D01*
Y221850D01*
X77461Y221370D01*
G01X75425Y229527D02*
X77025Y227927D01*
X79288D01*
X80156Y227059D01*
Y224851D01*
X83637Y221370D01*
G01X65977Y270473D02*
X64341Y268837D01*
X48390D01*
G01X89538Y278819D02*
Y276145D01*
X79128Y265735D01*
X55949D01*
X55013Y264800D01*
Y253210D01*
X53378Y251575D01*
G01X48390Y222519D02*
X49195Y221714D01*
X51857D01*
X52201Y221370D01*
G01X62827Y235827D02*
X61313Y234313D01*
Y221370D01*
G01X285075Y235648D02*
X289931D01*
X292575Y238291D01*
Y240433D01*
G01Y243582D02*
X290939Y241947D01*
X285075D01*
G01X295724Y240433D02*
X294089Y238797D01*
Y233506D01*
X292361Y231778D01*
X285075D01*
G01Y243582D02*
X289425D01*
G01X289889Y266839D02*
X294089Y262639D01*
Y243076D01*
X295219Y241947D01*
X299501D01*
X300388Y241060D01*
Y205866D01*
X298874Y204352D01*
Y202637D01*
G01X292575Y212086D02*
X291061Y213600D01*
X285075D01*
G01X346118Y180590D02*
Y176252D01*
G01X363380D02*
Y200115D01*
X362419Y201076D01*
X361286D01*
X357134Y205228D01*
Y219767D01*
X349127Y227774D01*
X341284D01*
X340683Y228375D01*
X338969D01*
G01X285877Y176252D02*
Y202239D01*
X289425Y205787D01*
G01X294186Y176252D02*
Y207398D01*
X295724Y208937D01*
G01X338305Y178066D02*
Y177947D01*
X340000Y176252D01*
G01X347754D02*
Y190545D01*
X343596Y194703D01*
X338222D01*
X331844Y201081D01*
X297281D01*
X295724Y202637D01*
G01X319686Y176252D02*
Y177668D01*
X315249Y182104D01*
X301518D01*
X300388Y183234D01*
Y197974D01*
X298874Y199488D01*
G01X289425Y208937D02*
X290939Y207422D01*
Y177127D01*
X291814Y176252D01*
G01X361866Y240433D02*
X360380Y238946D01*
X354913D01*
X353954Y239905D01*
Y247387D01*
X349946Y251396D01*
X333014D01*
X331932Y252478D01*
Y264688D01*
G01X366651Y266839D02*
Y249376D01*
X365643Y248367D01*
X357081D01*
X355567Y249882D01*
G01X350903Y266839D02*
Y254545D01*
X352417Y253031D01*
G01X368165Y246732D02*
X369801Y248367D01*
Y266839D01*
G01X354053D02*
Y257816D01*
X352417Y256181D01*
G01X358717D02*
X357202Y257695D01*
Y266839D01*
G01X375657Y216871D02*
X369801D01*
X368165Y215236D01*
G01X375657Y220021D02*
X361360D01*
X360352Y219013D01*
Y213600D01*
X361866Y212086D01*
G01X375657Y229348D02*
X363380D01*
X361866Y227834D01*
G01X375657Y207301D02*
X366651D01*
X365016Y208937D01*
G01X289425Y215236D02*
X285075D01*
G01Y210451D02*
X296230D01*
X297239Y211459D01*
Y230784D01*
X298874Y232419D01*
Y234133D01*
G01X365016Y212086D02*
X366651Y210451D01*
X375657D01*
G01Y178604D02*
Y202524D01*
X374029Y204152D01*
X363502D01*
X361866Y205787D01*
G01X365016Y224685D02*
X363502Y226199D01*
X361360D01*
X360352Y227207D01*
Y229373D01*
X363477Y232498D01*
X371860D01*
X373610Y234248D01*
Y253497D01*
X375657Y255544D01*
G01X344634Y266839D02*
Y264146D01*
X333520Y253031D01*
G01X361866Y215236D02*
X363502Y213600D01*
X375657D01*
G01X347754Y266839D02*
Y260966D01*
X346118Y259330D01*
G01Y266839D02*
Y262480D01*
G01X295724Y215236D02*
Y216244D01*
X294210Y217758D01*
Y229361D01*
X295724Y230875D01*
Y234085D01*
G01X297239Y266839D02*
Y262680D01*
X298874Y261044D01*
Y259330D01*
G01X302024D02*
Y264858D01*
X300043Y266839D01*
G01X335034Y176252D02*
Y187564D01*
X332559Y190039D01*
X311472D01*
G01Y180590D02*
X307134Y176252D01*
X304549D01*
G01X375657Y259481D02*
X373992Y257816D01*
X373524D01*
G01X328735Y176252D02*
Y184367D01*
X324698Y188403D01*
X309958D01*
X308323Y190039D01*
G01X369801Y176252D02*
Y188403D01*
X368165Y190039D01*
G01X366651Y176252D02*
Y194824D01*
X368165Y196338D01*
G01X343000Y176252D02*
X341333Y177919D01*
Y191674D01*
X339819Y193188D01*
G01X358717Y186889D02*
X357202Y188403D01*
X351912D01*
X350824Y189491D01*
Y200067D01*
X349867Y201024D01*
X335429D01*
X333580Y202873D01*
Y205928D01*
X334574Y206921D01*
Y237880D01*
X333580Y238873D01*
Y242804D01*
X328856Y247528D01*
Y263754D01*
X331941Y266839D01*
X338700D01*
G01X302024Y186889D02*
X303659Y185254D01*
X318399D01*
X321500Y182153D01*
Y176252D01*
G01X375657Y226320D02*
X369801D01*
X368165Y224685D01*
G01X375657Y215236D02*
X371315D01*
G01X295724Y243582D02*
X297944D01*
X303554Y249193D01*
Y263002D01*
X307391Y266839D01*
X325127D01*
G54D11*
X-206809Y127500D03*
Y121000D03*
Y114500D03*
X-207309Y63000D03*
Y56500D03*
Y50000D03*
X-167711Y116484D03*
X-192908Y134398D03*
Y139516D03*
Y136957D03*
X-168101Y55125D03*
X-193298Y73039D03*
Y75598D03*
Y78157D03*
X-144000Y128360D03*
X-140820Y66500D03*
X-127400Y107500D03*
X-144000Y104400D03*
X-192908Y129280D03*
Y131839D03*
X-192908Y126720D03*
X-193298Y67920D03*
Y70480D03*
X-127940Y48500D03*
X-145000Y45260D03*
X-180630Y95500D03*
X-182930Y104750D03*
X-194350Y55125D03*
X-145000Y77930D03*
X-156986Y57684D03*
X-194560Y60340D03*
X-144000Y135660D03*
X-156877Y119043D03*
X-193940Y124300D03*
X-146870Y122600D03*
X-193680Y116484D03*
X-193890Y121602D03*
X-156170Y126720D03*
X-147960Y63340D03*
X-157382Y65310D03*
X-194491Y63000D03*
X-83309Y274500D03*
X-174940Y253000D03*
X-174510Y246000D03*
X-156930Y204750D03*
X-83309Y290500D03*
Y282000D03*
X33590Y-9180D03*
X1709Y15860D03*
X-2600Y4169D03*
X-11600Y4369D03*
X-16109Y360D03*
X-11600Y11851D03*
X-16109Y15860D03*
X1909Y360D03*
X12971Y-9080D03*
X-4100Y10873D03*
X12971Y-16080D03*
X26370Y-2180D03*
X25789Y-9080D03*
X34770Y-5580D03*
X25789Y-16080D03*
X29984Y146418D03*
X23485Y155236D03*
X23685Y146608D03*
X39433Y99804D03*
X23230Y86531D03*
X32179Y83521D03*
X20368Y76502D03*
X30269Y71830D03*
X40311Y56000D03*
X32179Y44219D03*
X18323Y56100D03*
X20368Y51238D03*
X-75430Y100000D03*
X40211Y71386D03*
X-16990Y107500D03*
X-30728Y95098D03*
X-6790Y98817D03*
X36120Y83530D03*
X16430Y76500D03*
X26830Y99790D03*
X36270Y99794D03*
X-18191Y58130D03*
X18400Y83530D03*
X33130Y99790D03*
X32528Y146418D03*
X32600Y91597D03*
X26830Y146400D03*
X24300Y76500D03*
X38084Y96280D03*
X28242Y51238D03*
X38084D03*
X18399Y44219D03*
X-18191Y48130D03*
X30210Y42210D03*
X34147Y51238D03*
X36116Y44219D03*
X24305Y51238D03*
X14695D03*
X40053Y44219D03*
X22336D03*
X13035Y75973D03*
X36080Y108830D03*
X29780Y155440D03*
X26630Y108830D03*
X39230D03*
X29980Y128877D03*
X29780Y108830D03*
X26630Y155440D03*
X36080D03*
X32930D03*
X41633Y140509D03*
X40022Y156638D03*
X32930Y108830D03*
X22422Y117931D03*
X40050Y83530D03*
X34150Y76500D03*
X24236Y116117D03*
X36045Y143905D03*
X39433Y146418D03*
X26809Y159000D03*
X29984Y99804D03*
X21426Y104303D03*
X23485Y108622D03*
X23230Y99149D03*
X26273Y83521D03*
X18323Y71830D03*
X30369Y56100D03*
X26273Y44219D03*
X-31009Y68130D03*
Y58130D03*
Y48130D03*
X5160Y114330D03*
X-7030Y126021D03*
X-3195Y117899D03*
X-21700Y65121D03*
X-18140Y103090D03*
X-18750Y110180D03*
X-3250Y109330D03*
X-18960Y115870D03*
X21821Y274760D03*
X10797Y267287D03*
X26691Y233500D03*
X-17500Y272309D03*
X-31500Y279691D03*
X4691Y228500D03*
Y235500D03*
X-53500Y271809D03*
Y265809D03*
X-56809Y257000D03*
X-73765Y269000D03*
Y263000D03*
X24000Y168309D03*
X-53309Y220000D03*
X-40691Y226000D03*
X-66309D03*
X-16309Y173000D03*
X-53691Y214000D03*
X-67191Y204500D03*
X-37000Y185309D03*
X-74809Y214500D03*
X-47000Y185309D03*
X-64500Y199809D03*
X26100Y259500D03*
X26528Y225099D03*
X11000Y190759D03*
X12638Y278670D03*
X10942Y280823D03*
X-17500Y231191D03*
X-75232Y270633D03*
X13850Y267160D03*
X-66691Y237000D03*
X-56000Y194295D03*
X-44000Y201953D03*
X29500Y269000D03*
X-36000Y194509D03*
X-41000D03*
X24694Y245568D03*
X39861Y268837D03*
X-35235Y266425D03*
X33072Y242547D03*
X23704Y227893D03*
X-43253Y279220D03*
X-43991Y263000D03*
X-70509Y257000D03*
X-57491Y268984D03*
X-58991Y277500D03*
X-61000Y253991D03*
X-57491Y263000D03*
X-61000Y272009D03*
X-66341Y253991D03*
X15377Y173000D03*
X-43253Y276661D03*
X-43991Y257000D03*
X-35235Y271543D03*
X-43991Y269000D03*
X-45991Y277500D03*
X-35235Y263866D03*
Y268984D03*
X26054Y252390D03*
X-73765Y266425D03*
X-35235Y274102D03*
X18287Y227722D03*
X18787Y234222D03*
X39009Y271500D03*
X-53000Y185509D03*
X-41000Y172509D03*
X-65000Y172491D03*
Y185509D03*
X-51000Y164491D03*
X-46959Y172491D03*
X-43991Y176000D03*
X-36000Y164491D03*
X40946Y242547D03*
Y238610D03*
X26054Y240579D03*
X39009Y265500D03*
X-59000Y172501D03*
X26054Y248453D03*
X39885Y170513D03*
Y175518D03*
X38700Y204020D03*
X31516Y205954D03*
X35440Y204020D03*
X39009Y277500D03*
X39753Y190683D03*
X33072Y238610D03*
X-660Y271500D03*
X21627Y268491D03*
X24509Y271500D03*
X-53009Y205000D03*
X-15152Y213910D03*
X-16309Y188000D03*
X1179Y274760D03*
X-5809Y252000D03*
X39576Y225248D03*
X27160Y268000D03*
X-26500Y242809D03*
X-59000Y185309D03*
X-67309Y190500D03*
X-61000Y194309D03*
X-16309Y183000D03*
X-4500Y178691D03*
X3000Y182809D03*
X5691Y188000D03*
X-74000Y277309D03*
X-58991Y274102D03*
Y281780D03*
X39309Y233500D03*
X38760Y259030D03*
X26191Y277500D03*
X40946Y246484D03*
X-8500Y230991D03*
X-31000Y185509D03*
X-4500Y169491D03*
X5491Y183000D03*
X3000Y169991D03*
X11000D03*
X491Y278500D03*
X22509Y280500D03*
X2340Y258470D03*
X-34236Y176000D03*
X-16509Y178000D03*
X-27875Y176000D03*
X13814Y252000D03*
X21627Y264532D03*
X12009Y263000D03*
X1979Y267350D03*
X10997Y274509D03*
X-57000Y222419D03*
X-54509Y229009D03*
Y235509D03*
X-47000Y223000D03*
X-54509Y241500D03*
X-51000Y194509D03*
X-57000Y235509D03*
X-75009Y219500D03*
X-46000Y194509D03*
X-36000Y224000D03*
X-54000Y211000D03*
X-36491Y237000D03*
X-24991Y213000D03*
X-52000Y201000D03*
X-57000Y204991D03*
X-61453Y211774D03*
X-66509Y222419D03*
X-53000Y216870D03*
X-43280Y216898D03*
X-48000Y201890D03*
X-57000Y229009D03*
X-63080Y222820D03*
X-75009Y209500D03*
X-64509Y241500D03*
X-63000Y235509D03*
X5009Y213000D03*
X-36491Y232500D03*
X40946Y250421D03*
X35436Y211892D03*
X38704D03*
X28774Y207601D03*
X26221Y298780D03*
X26191Y283500D03*
X-43053Y294575D03*
X-67809Y306000D03*
X-56809Y297000D03*
X-59191Y306000D03*
X-73565Y297134D03*
X-75562Y286898D03*
X-60500Y300009D03*
X16030Y292289D03*
X-66500Y300009D03*
X-58991Y288500D03*
X-35235Y297134D03*
X-45991Y306000D03*
X-43991Y297000D03*
X-43253Y292016D03*
X-45991Y288500D03*
X-43253Y284339D03*
X-43253Y286898D03*
X39009Y283500D03*
X-1140Y300890D03*
X491Y282240D03*
X-74000Y284809D03*
Y293309D03*
X-58991Y292016D03*
X-43053Y289457D03*
X-31500Y292309D03*
X-55583Y306000D03*
X25339Y289280D03*
X23839Y307780D03*
X-2009Y289000D03*
X17012Y285009D03*
X11009Y289000D03*
X13021Y298780D03*
X11021Y307780D03*
X103091Y31880D03*
X157674Y-21541D03*
X149800D03*
X117459Y20555D03*
X139958Y-30059D03*
X82591Y31880D03*
X95959Y19555D03*
X64591Y31880D03*
X75459Y19555D03*
X155706Y-31762D03*
X143895Y-30259D03*
X141927Y-21341D03*
X147832Y-30259D03*
X159643Y-31762D03*
X151769D03*
X112341Y20755D03*
X70341Y19755D03*
X115709Y31880D03*
X112341Y28823D03*
X161612Y-30059D03*
X153738D03*
X145864Y-21541D03*
X95209Y31880D03*
X90841Y27823D03*
X77209Y31880D03*
X70341Y27823D03*
X114900Y20755D03*
X95959Y23005D03*
X75459Y28023D03*
X117459Y29023D03*
X150223Y11518D03*
X154461Y5218D03*
X72900Y14737D03*
X93400D03*
X78531Y44219D03*
X161024Y119384D03*
X143390Y160531D03*
X155071Y143532D03*
X143280Y126271D03*
X122788Y161272D03*
X148052Y121879D03*
Y110068D03*
Y131721D03*
X127660Y126061D03*
X105575Y146608D03*
X115769Y143532D03*
X122788Y131721D03*
Y149438D03*
X99076Y155426D03*
X143280Y102981D03*
X105375Y155236D03*
X80178Y146408D03*
X115769Y110068D03*
X122788Y104162D03*
X64430Y155236D03*
X115932Y76502D03*
X48882Y146418D03*
X89808Y99787D03*
X70729Y99794D03*
X99411Y71830D03*
X85540Y87151D03*
X58331Y99804D03*
X82468Y76502D03*
X99101Y55790D03*
X115932Y51238D03*
X64883Y87151D03*
X104121Y51238D03*
X94279Y44219D03*
X78291Y56000D03*
X82468Y44219D03*
X42021Y76502D03*
X43520Y86941D03*
X53832Y51038D03*
X42021Y51238D03*
X104121Y83559D03*
X54570Y86200D03*
X78611Y71386D03*
X105200Y87394D03*
X127635Y160538D03*
X127296Y103345D03*
X95030Y76159D03*
X76562Y51238D03*
X123014Y121879D03*
X64675Y143795D03*
X95930Y99790D03*
X80500Y83530D03*
X113960D03*
X77956Y124794D03*
X92780Y155440D03*
X115461Y150267D03*
X113882Y115814D03*
X86405Y76502D03*
X77708Y146408D03*
X106090Y76502D03*
X138050Y157130D03*
X106090Y44219D03*
X119870Y76500D03*
X102230Y155440D03*
X61480Y99790D03*
X42580Y146400D03*
X49900Y83530D03*
X102153Y44219D03*
X133109Y97025D03*
X92302Y99794D03*
Y74688D03*
X44430Y76500D03*
X46673Y138695D03*
X52030Y146400D03*
Y135661D03*
X55800Y76500D03*
X102191Y99794D03*
X78531Y76502D03*
X127357Y98090D03*
X45730Y146400D03*
X45960Y83530D03*
X45929Y99794D03*
X57770Y83530D03*
X52032Y99794D03*
X96250Y83530D03*
X73880Y99790D03*
X77508Y99794D03*
X44197Y111146D03*
X61959Y146408D03*
X58331Y159068D03*
X115769Y106131D03*
Y90970D03*
X45958Y51238D03*
X122788Y108099D03*
X51864Y44219D03*
X99752Y63868D03*
X55801Y44219D03*
X155071Y112036D03*
Y109232D03*
X57769Y42516D03*
X43990Y44219D03*
X49895Y51238D03*
X148052Y117942D03*
X148052Y114005D03*
X129468Y66944D03*
X121838Y44219D03*
X136314Y88574D03*
X59667Y76866D03*
X78420Y86688D03*
X113964Y44219D03*
X156774Y141523D03*
X42380Y155440D03*
X122790Y135660D03*
X86680Y146400D03*
X54980Y108830D03*
X74080D03*
X106573Y118340D03*
X102197Y134442D03*
X74080Y138070D03*
X92980Y108830D03*
X90758Y160449D03*
X122790Y112040D03*
X119869Y51238D03*
X99280Y146400D03*
X115760Y125820D03*
X75532Y127936D03*
X103326Y118775D03*
X102430Y108830D03*
X73980Y118888D03*
X58019Y155426D03*
X83530Y155440D03*
X45530D03*
X122790Y142010D03*
X52821Y157584D03*
X122790Y139600D03*
X89830Y108830D03*
X51830D03*
X77230D03*
X57662Y138070D03*
X115760Y117940D03*
X115435Y147253D03*
X99280Y108830D03*
X93238Y159522D03*
X80380Y108830D03*
X48680D03*
X67850Y99790D03*
X102430Y146400D03*
X122747Y124272D03*
X92980Y146400D03*
Y132628D03*
X115760Y129750D03*
X51191Y160318D03*
X77230Y155440D03*
X59709Y117025D03*
X58130Y108830D03*
X70930D03*
X92310Y51238D03*
X96130Y134442D03*
Y146400D03*
X122790Y127780D03*
X96130Y111882D03*
X78137Y134442D03*
X48680Y155440D03*
X122790Y145500D03*
X80380Y155440D03*
X80499Y51238D03*
X100184D03*
X98216Y44219D03*
X45530Y108830D03*
X88494Y122086D03*
X83501Y108830D03*
X61280D03*
X74080Y146400D03*
X88143Y110600D03*
X90342Y44219D03*
X161024Y95762D03*
X115760Y133690D03*
X99572Y159522D03*
X89830Y146400D03*
X86405Y44219D03*
X70930Y146400D03*
X84436Y51238D03*
X161024Y115447D03*
X115760Y114000D03*
X96130Y108830D03*
X108058Y51238D03*
X133109Y147469D03*
X118118Y44002D03*
X117901Y54866D03*
X111995Y51238D03*
X100180Y83530D03*
X67580Y146400D03*
X54631Y143256D03*
X115101Y157554D03*
X55180Y99790D03*
X115461Y141124D03*
X112000Y76500D03*
X86480Y155440D03*
X104790Y142772D03*
X84008Y146408D03*
Y125279D03*
X120790Y159063D03*
X107634Y123465D03*
X102150Y76500D03*
X73880Y155440D03*
X117900Y83530D03*
X95930Y155440D03*
X114837Y121786D03*
X51860Y76500D03*
X90342Y76502D03*
X82531Y98090D03*
X98220Y76500D03*
X67580Y108830D03*
X96247Y51238D03*
X161024Y91825D03*
X91229Y71386D03*
X87410Y83790D03*
X115769Y137627D03*
X47927Y44219D03*
X52929Y56000D03*
X52829Y71386D03*
X47927Y76502D03*
X43520Y99559D03*
X88373Y51238D03*
X90909Y56000D03*
X48882Y99804D03*
X64840Y99769D03*
X64630Y108622D03*
X110027Y44219D03*
X111719Y55790D03*
X112029Y71830D03*
X110154Y83521D03*
X80178Y99794D03*
X85540Y99769D03*
X105375Y108622D03*
X99076Y99794D03*
X42361Y159390D03*
X105200Y99979D03*
X107634Y104303D03*
X70729Y155426D03*
X68059Y159390D03*
X89627Y155426D03*
X122788Y115973D03*
X127450Y115809D03*
X88349Y159390D03*
X148252Y104162D03*
X143280Y115599D03*
X128212Y138127D03*
X101981Y159390D03*
X161024Y103636D03*
X155071Y115973D03*
X143280Y138889D03*
X148252Y137627D03*
X148052Y149438D03*
X148252Y161272D03*
X58259Y146418D03*
X155071Y119910D03*
Y147469D03*
Y127784D03*
Y133690D03*
X156774Y135658D03*
Y129753D03*
X148052Y145501D03*
X155071Y139595D03*
X156774Y121724D03*
X148052Y125816D03*
X148052Y141564D03*
X155071Y123847D03*
X109820Y223030D03*
X97473Y251575D03*
X91173D03*
X110281Y235240D03*
X88023Y248425D03*
X103772Y251575D03*
X128226Y225829D03*
X123059Y277090D03*
Y271090D03*
Y253090D03*
Y259090D03*
Y241090D03*
X148052Y200642D03*
X143280Y184641D03*
X148052Y178989D03*
Y188831D03*
X115769Y200642D03*
X148052Y167178D03*
X115769D03*
X86655Y198450D03*
X104790Y168699D03*
X66315Y198152D03*
X85540Y168699D03*
X65250D03*
X45170D03*
X69127Y238977D03*
X65977D03*
X155384Y261488D03*
Y257551D03*
X75425Y238976D03*
X78575Y238977D03*
X75425Y242126D03*
X56527Y232677D03*
X83309Y254000D03*
X70691Y246500D03*
X62827Y248425D03*
X65976Y267323D03*
X75425Y261024D03*
X62827Y261023D03*
X91173D03*
Y270473D03*
X103772Y248425D03*
X97473Y238977D03*
X88023Y235827D03*
X114200Y178989D03*
X127583Y184649D03*
X65976Y223228D03*
X50228Y226378D03*
X72276Y229528D03*
X97473Y232677D03*
X91173Y238977D03*
X88023D03*
X56528Y248424D03*
X84874Y251575D03*
X91173Y254725D03*
X103772Y261024D03*
X78575Y264173D03*
X56527D03*
X75425Y273622D03*
X59677D03*
X94323Y276772D03*
X102381Y168915D03*
X115901Y188831D03*
X122873Y206320D03*
X122850Y180551D03*
X56528Y254724D03*
X50228Y254725D03*
X130381Y277082D03*
X53379Y254724D03*
X155631Y238929D03*
X59677Y254725D03*
X127847Y218676D03*
X78575Y223228D03*
X127236Y198636D03*
X91173Y226378D03*
X84873Y235827D03*
X71064Y173547D03*
X88024Y232677D03*
X94323Y223228D03*
X127011Y251753D03*
X100621Y229528D03*
X97473Y235827D03*
X123099Y226039D03*
X97473Y223228D03*
X148546Y234635D03*
X100622Y223228D03*
X84873Y257873D03*
X155071Y196705D03*
X97472Y226379D03*
X116705Y226231D03*
X84874Y232677D03*
X113909Y226135D03*
X94323Y232677D03*
Y235827D03*
X127443Y207685D03*
X78576Y226379D03*
X103772Y232677D03*
X100621Y226379D03*
X103772Y235827D03*
X156774Y192768D03*
X120617Y226135D03*
X97472Y229528D03*
X91173Y267323D03*
X121827Y211319D03*
X84874Y223228D03*
X84873Y226379D03*
X103772Y223228D03*
Y229527D03*
X59677Y226378D03*
X136470Y217848D03*
X59677Y232677D03*
X88023Y264173D03*
X62827Y270473D03*
X97496Y257874D03*
X110241Y265090D03*
X91173Y242127D03*
X110241Y247090D03*
X97472Y248424D03*
X94323Y242126D03*
X44834Y249507D03*
X65976Y251575D03*
X91173Y276772D03*
X78575Y261023D03*
X155071Y190800D03*
X53378Y276772D03*
X97472Y242127D03*
X56527Y235827D03*
X91173Y273622D03*
X97472Y264221D03*
X75425Y257874D03*
X94323Y238976D03*
X155071Y186863D03*
X88024Y276772D03*
X161152Y215899D03*
X156774Y198674D03*
X53378Y267323D03*
X155071Y182926D03*
X53379Y248424D03*
X50228Y248425D03*
X62827Y257873D03*
X110281Y229240D03*
X94323Y248425D03*
X122790Y169150D03*
X72275Y235827D03*
X50228Y267323D03*
X156774Y204579D03*
X50228Y270473D03*
X42649Y244516D03*
X56527Y238977D03*
X155071Y202611D03*
X50228Y235827D03*
X53378Y235827D03*
X42649Y240579D03*
X59677Y235827D03*
X62827Y276772D03*
X50228Y251575D03*
X122824Y202621D03*
X101421Y191171D03*
X57380Y197110D03*
X103772Y276772D03*
X87098Y195236D03*
X83030Y204040D03*
X71064Y168309D03*
X157054Y232142D03*
X73190Y197010D03*
X65600Y182210D03*
X77120Y197010D03*
X115760Y196710D03*
X97334Y183836D03*
X97480Y204080D03*
X51470Y204140D03*
X55254Y194311D03*
X99890Y204080D03*
X64720Y178582D03*
X55410Y204140D03*
X93238Y184055D03*
X79090Y204040D03*
X63804Y173703D03*
X61310Y204140D03*
X115760Y192770D03*
X48868Y185835D03*
X75150Y204040D03*
X104012Y174743D03*
X69250Y197010D03*
X53440Y197110D03*
X115760Y204580D03*
X127265Y203685D03*
X55324Y185942D03*
X63280Y184619D03*
Y197110D03*
X71220Y204040D03*
X86717Y189463D03*
X94854Y194950D03*
X158616Y175616D03*
X115666Y185499D03*
X91580Y204080D03*
X71064Y178582D03*
X41970Y204020D03*
X122790Y198670D03*
X66265Y187649D03*
X49500Y197110D03*
X122790Y186860D03*
X89610Y197050D03*
X103830D03*
X93139Y187472D03*
X55254Y178395D03*
X45240Y204020D03*
X122790Y190800D03*
X157764Y178025D03*
X50228Y261024D03*
X62827Y273622D03*
X81060Y197010D03*
X93110Y197050D03*
X122790Y182960D03*
X97472Y267275D03*
X115760Y181400D03*
X75425Y232677D03*
X84826Y267275D03*
X122790Y177020D03*
X114082Y212656D03*
X75425Y223228D03*
X59677Y276772D03*
X46485Y236013D03*
X72275Y238977D03*
X115760Y175050D03*
X137908Y167336D03*
X115769Y171115D03*
X72275Y232677D03*
X72276Y226379D03*
X122790Y165210D03*
X59677Y270473D03*
X72275Y223228D03*
X115760Y163240D03*
X154960Y209670D03*
X59677Y264173D03*
X69127Y242127D03*
X65977Y261023D03*
X141030Y229649D03*
X53378Y261023D03*
X48868Y204133D03*
X84873Y238977D03*
X100622Y232677D03*
X126502Y201400D03*
X84871Y248377D03*
X50228Y232677D03*
X103772Y226378D03*
X91173Y229527D03*
X56527Y276772D03*
X65977Y248425D03*
X91173Y223228D03*
X50228Y242126D03*
X88023Y226378D03*
X59677Y242126D03*
X62827Y242127D03*
X127357Y180489D03*
X91173Y232677D03*
X53379Y242127D03*
X100622Y235827D03*
X56528Y242127D03*
X69174Y264173D03*
X154960Y251186D03*
X103874Y238929D03*
X84873Y229528D03*
X91173Y248425D03*
X88023Y229527D03*
X83028Y211907D03*
X59677Y223228D03*
X62827Y226378D03*
X79091Y211907D03*
X77122Y213610D03*
X62827Y232677D03*
X59499Y219436D03*
X69248Y211907D03*
X65977Y242127D03*
X71217Y213610D03*
X65977Y226378D03*
X62827Y223228D03*
X75154Y211907D03*
X73185Y215314D03*
X65977Y229527D03*
X56527Y267323D03*
X88024Y223228D03*
X78575Y232677D03*
X127721Y191490D03*
X155184Y269362D03*
X56527Y223228D03*
X53378Y264173D03*
X94323Y226378D03*
X103772Y254725D03*
X59677Y248425D03*
X91173Y235827D03*
X75425Y264173D03*
X69126Y251575D03*
X69127Y235827D03*
X88023Y261023D03*
X66315Y210770D03*
X86655Y211068D03*
X127450Y173149D03*
X143390D03*
X155071Y173083D03*
X148052Y194737D03*
X143280Y197259D03*
X123099Y229240D03*
Y235240D03*
X122999Y223030D03*
X137689Y222820D03*
X148052Y206548D03*
X110441Y241090D03*
Y259090D03*
X123059Y247090D03*
X110441Y253090D03*
X123059Y265090D03*
X110441Y271090D03*
X122814Y173083D03*
X122873Y194737D03*
X148052Y184894D03*
X62827Y229527D03*
X81059Y213610D03*
X99453Y213649D03*
X69127Y226379D03*
X103390Y213649D03*
X81677Y229504D03*
X65976Y232677D03*
X77180Y218699D03*
X93547Y211946D03*
X75425Y235827D03*
X101421Y211946D03*
X65977Y235827D03*
X95516Y213649D03*
X69127Y229528D03*
X97484Y211946D03*
X69126Y223228D03*
X84795Y214036D03*
X75425Y226378D03*
X91579Y213649D03*
X89610Y211946D03*
X75425Y229527D03*
X65976Y276772D03*
X42649Y252390D03*
X65977Y270473D03*
X50228Y229527D03*
X103772Y270473D03*
X59677Y267323D03*
X91173Y264173D03*
X72275D03*
X69126Y232677D03*
X97472Y254724D03*
X62827Y251575D03*
X69127Y257873D03*
X94323Y229527D03*
X91173Y257873D03*
X59677Y251575D03*
X78576Y229528D03*
X84873Y261023D03*
X88023Y242127D03*
X84873Y242127D03*
X83309Y246500D03*
X70691Y254000D03*
X65977Y264173D03*
X67491Y280780D03*
X53378Y251575D03*
X158588Y170960D03*
X50228Y264149D03*
X75425Y267323D03*
X153481Y275268D03*
X155184Y273299D03*
X110241Y277090D03*
X100622Y251575D03*
X155184Y265425D03*
X148052Y241055D03*
X148052Y171115D03*
X155071Y169146D03*
Y163241D03*
X156774Y165209D03*
X148052Y175052D03*
X53466Y212250D03*
X53378Y232677D03*
X45240Y212101D03*
X53342Y223164D03*
X56528Y229528D03*
X59677Y229527D03*
X57352Y212444D03*
X53379Y226379D03*
X59677Y238976D03*
X49503Y212250D03*
X50228Y223228D03*
X41972Y211892D03*
X56528Y226379D03*
X55409Y214044D03*
X51432Y213986D03*
X62827Y238977D03*
X61314Y212349D03*
X53378Y238977D03*
X59386Y214185D03*
X45426Y222512D03*
X50228Y238976D03*
X62827Y235827D03*
X63283Y214135D03*
X42649Y248453D03*
X53379Y229528D03*
X130950Y323891D03*
X134136Y312700D03*
X111100Y301059D03*
X117310Y300959D03*
X104580Y301059D03*
X92370D03*
X86260D03*
X80050D03*
X60900Y319699D03*
X54400D03*
X67630Y301059D03*
X73740Y300959D03*
X61530Y301159D03*
X55320Y301269D03*
X155184Y316606D03*
Y304795D03*
Y292984D03*
X154150Y296380D03*
X58316Y283348D03*
X121041Y300230D03*
X121251Y294030D03*
X155184Y322512D03*
X148171Y317968D03*
X140337Y283025D03*
X152190Y329678D03*
X54400Y304541D03*
X60900D03*
X98470Y288341D03*
X92370Y288241D03*
X155184Y300858D03*
X145343Y295247D03*
X111100Y288241D03*
X80050D03*
X114109Y289116D03*
X47801Y293995D03*
X73740Y288141D03*
X61530Y288341D03*
X134269Y294030D03*
X121251Y287820D03*
X107670Y291474D03*
X155184Y283142D03*
X67630Y288441D03*
X86260D03*
X98470Y301159D03*
X104580Y288441D03*
X134069Y287820D03*
X140950Y301891D03*
X145950D03*
X148759Y312700D03*
X135950Y323891D03*
X154701Y330160D03*
X55449Y288780D03*
X130450Y346910D03*
X117310Y288141D03*
X137303Y289003D03*
X134059Y300230D03*
X135950Y315709D03*
X157510Y339669D03*
X130950Y309709D03*
X140950Y331709D03*
X155184Y308732D03*
X145950Y331709D03*
X161001Y333245D03*
X152190Y291016D03*
X189171Y-21541D03*
X181297D03*
X173423Y-30059D03*
X165549D03*
X192109Y39960D03*
X179710Y30415D03*
X226009Y33565D03*
X205491Y21960D03*
Y36960D03*
X231941Y30005D03*
X278240Y33155D03*
X265089Y37880D03*
X269241Y22460D03*
X268821Y37880D03*
X226209Y27266D03*
X231741Y26856D03*
X179910Y27266D03*
X162842Y33565D03*
X226209Y39864D03*
X278040Y17407D03*
X217190Y17817D03*
X231741Y23706D03*
X179910Y24116D03*
X226209D03*
X278040Y25469D03*
X216614Y33951D03*
X231741Y20556D03*
X179910Y20966D03*
X231741Y17407D03*
X179910Y17817D03*
X245839Y36304D03*
X211375Y29080D03*
X231741Y36304D03*
X179910Y36714D03*
X226209Y20966D03*
X170891Y39864D03*
X231741Y39454D03*
Y14257D03*
X179910Y14667D03*
X163580Y-31873D03*
Y-21341D03*
X175391Y-21341D03*
X179328Y-19838D03*
X167517Y-21341D03*
X171454Y-21341D03*
X275220Y35071D03*
X185234Y-30059D03*
X177360D03*
X169486D03*
X182800Y37151D03*
X171091Y33565D03*
X226009Y14667D03*
Y30415D03*
X214800Y24769D03*
X226209Y36960D03*
X231941Y33155D03*
X278240Y14257D03*
Y30005D03*
X252471Y37880D03*
X183265Y-19838D03*
X187202D03*
X179900Y-1090D03*
X231741Y-1491D03*
X179910Y11518D03*
X231741Y11108D03*
X278040D03*
X217190Y11518D03*
X246630Y7958D03*
X217190Y8368D03*
X278040Y7958D03*
X231741D03*
X179910Y8368D03*
X217190Y-1081D03*
X278040Y-1491D03*
X246630Y4808D03*
X278040D03*
X226209Y5218D03*
X231741Y1659D03*
X179910Y2069D03*
Y5218D03*
X231741Y4808D03*
X226209Y2069D03*
X278040Y1659D03*
X186117Y131131D03*
X260169Y146270D03*
X198860Y156379D03*
X245996Y105604D03*
X223591Y104940D03*
X201865Y139950D03*
X182499Y104220D03*
X168043Y105604D03*
X169404Y156424D03*
X217613Y142558D03*
X207496Y158803D03*
X171843Y160740D03*
X278040Y48903D03*
X253860Y78005D03*
X220982D03*
X226209Y49313D03*
X266604Y123306D03*
X269749Y134214D03*
X238977Y93793D03*
X179910Y43014D03*
X231741Y42604D03*
X278040Y52052D03*
X260169Y72992D03*
X226209Y52462D03*
X247653Y81039D03*
X226209Y43014D03*
X213562Y84109D03*
X238252D03*
X278040Y42604D03*
X179910Y52462D03*
X210259Y76191D03*
X246346D03*
X231741Y52052D03*
X179818Y131131D03*
X278040Y45753D03*
X226209Y46163D03*
X181882Y149438D03*
X231741Y58352D03*
X179910Y58762D03*
X173518Y131131D03*
X247653Y47567D03*
X176668Y143337D03*
Y131131D03*
X231741Y55202D03*
X179910Y55612D03*
X231741Y45753D03*
X179910Y46163D03*
X217613Y140150D03*
X268060Y71178D03*
X217190Y55612D03*
X278040Y55202D03*
X271080Y152472D03*
X253860Y156761D03*
X208164Y140150D03*
X168043Y93793D03*
X189266Y131131D03*
X168043Y117415D03*
X214463Y140150D03*
X168043Y89856D03*
X205014Y140150D03*
X168043Y113478D03*
X195566Y131131D03*
X192416D03*
X202535Y145575D03*
X208176Y71330D03*
X176552Y153066D03*
X178366Y161227D03*
Y155475D03*
X238977Y111510D03*
Y97730D03*
X187977Y147469D03*
X245996Y113478D03*
Y95762D03*
X247699Y115447D03*
X211314Y140150D03*
X169772Y103851D03*
X198715Y139950D03*
X236209Y104940D03*
X223281Y115600D03*
X239177Y103636D03*
X198860Y143761D03*
X253860Y141579D03*
X247551Y146270D03*
X238977Y117415D03*
X236099Y115600D03*
X260929Y89364D03*
X179910Y61911D03*
X170369Y131131D03*
X231741Y61501D03*
X182967Y131131D03*
X170891Y49313D03*
X223391Y80885D03*
X231741Y48903D03*
X233361Y140150D03*
X278040Y61501D03*
X226209Y61911D03*
X220762Y140150D03*
Y131131D03*
X168043Y121198D03*
X223912Y140150D03*
X226209Y58762D03*
X278040Y58352D03*
X230211Y140150D03*
X227062Y131131D03*
X278040Y64651D03*
X217190Y65061D03*
X201633Y131131D03*
X167219Y131131D03*
X179910Y65061D03*
X231741Y64651D03*
X238539Y205004D03*
X186447Y188971D03*
X281500Y270309D03*
X265819Y275200D03*
X253191Y268000D03*
X228191Y279000D03*
X228191Y265000D03*
X224500Y265309D03*
X253191Y235500D03*
Y223000D03*
X265809Y205000D03*
X209500Y265309D03*
X196500D03*
X253191Y199000D03*
X175309Y268500D03*
Y280500D03*
X199045Y244089D03*
X265809Y187000D03*
X181000Y265309D03*
X217690Y219311D03*
X260929Y168157D03*
X269860Y163579D03*
X175309Y262500D03*
X201960Y219001D03*
X172000Y252809D03*
X198750Y213509D03*
X202195Y189171D03*
X198715Y186249D03*
X217490Y162391D03*
X201960Y162081D03*
X228575Y245384D03*
X208890Y252202D03*
X204953D03*
X195110Y245384D03*
X162202Y263457D03*
X171488Y245384D03*
X162202Y277236D03*
X169520Y252809D03*
X191590Y279120D03*
X248816Y263416D03*
X261559Y271753D03*
X183324Y252097D03*
X249202Y267864D03*
X273776Y263000D03*
X273000Y250991D03*
X208164Y177430D03*
X208494Y235270D03*
X211314Y186449D03*
X211644Y235270D03*
X179818Y186449D03*
X180148Y235270D03*
X259000Y271009D03*
X266009Y241500D03*
Y247500D03*
X183454Y276915D03*
X266009Y235500D03*
X180148Y188971D03*
X219808Y259628D03*
X232355Y227848D03*
X183297Y235270D03*
X182967Y186449D03*
X196924Y268024D03*
X248561Y247500D03*
X172513Y201072D03*
X173848Y188971D03*
X272894Y228134D03*
X176998Y188971D03*
X247553Y235489D03*
X264557Y183057D03*
X259072Y250509D03*
X217994Y277186D03*
X217943Y188971D03*
X230207Y216448D03*
X176668Y186449D03*
X176998Y235270D03*
X221092Y219111D03*
X266009Y211000D03*
X233691Y164489D03*
X192416Y186449D03*
X243825Y199309D03*
X175184Y204148D03*
X192746Y235270D03*
X186447D03*
X186117Y186449D03*
X226314Y275190D03*
X208494Y188971D03*
X243916Y191186D03*
X184149Y198624D03*
X236725Y259628D03*
X189596Y188971D03*
X201807Y177108D03*
X214463Y186449D03*
X180805Y177108D03*
X182446Y211051D03*
X214793Y235270D03*
Y198652D03*
Y188971D03*
X205344D03*
X271080Y190034D03*
X195896Y188971D03*
X192746D03*
X191173Y252202D03*
X250578Y235489D03*
X201960Y200691D03*
Y212865D03*
X205344Y235270D03*
X205014Y186449D03*
X185268Y258070D03*
X269637Y193000D03*
X266946Y259634D03*
X201759Y209237D03*
X187977Y174397D03*
X189596Y235270D03*
X189266Y186449D03*
X266946Y256366D03*
X195896Y235270D03*
X195566Y186449D03*
X242011Y243408D03*
X241798Y269362D03*
X260929Y181243D03*
X252991Y193000D03*
X197710Y216552D03*
X241798Y273299D03*
X248816Y271331D03*
X211644Y188971D03*
X281239Y222075D03*
X180948Y252619D03*
X203100Y266210D03*
X188820Y265900D03*
X181331Y245384D03*
X202984D03*
X224638D03*
X250733Y265425D03*
X201960Y174699D03*
X201865Y186249D03*
X217490Y175009D03*
X199045Y189171D03*
X217613Y186249D03*
X198750Y200891D03*
X255811Y176425D03*
X201960Y231619D03*
X162691Y280500D03*
X166000Y271309D03*
X217690Y231929D03*
X175309Y274500D03*
X202195Y235470D03*
X265809Y193000D03*
X217943Y244089D03*
X253191Y211000D03*
Y217000D03*
X224500Y252691D03*
X253191Y229000D03*
X240809Y265000D03*
X252254Y253098D03*
X253191Y247500D03*
Y241500D03*
X258872Y262902D03*
X228191Y273000D03*
X252254Y256366D03*
X252254Y259634D03*
X265809Y268000D03*
X253201Y275200D03*
X256441Y278443D03*
X278159Y272000D03*
X182446Y206828D03*
X221332Y210901D03*
X273000Y275009D03*
X278359Y254000D03*
X281500Y257491D03*
X252991Y205000D03*
X266009Y199000D03*
X258370Y172975D03*
X252991Y187000D03*
X266009Y217000D03*
Y223000D03*
X256441Y271009D03*
X162202Y271331D03*
X240897Y254505D03*
X162202Y267394D03*
X241798Y257551D03*
Y277236D03*
X237500Y269991D03*
X162002Y259520D03*
X210858Y245384D03*
X197079Y252202D03*
X206691Y256000D03*
X199309D03*
X166000Y259691D03*
X175309Y256000D03*
X250520Y281173D03*
X248816Y259520D03*
X162491Y250000D03*
X167551Y245184D03*
X162491Y256000D03*
X241009Y281415D03*
X248816Y279205D03*
X228128Y268024D03*
X162491Y274500D03*
X170699Y214084D03*
Y188971D03*
X259179Y259400D03*
X266946Y253098D03*
X266946Y262902D03*
X183297Y188971D03*
X233691D03*
X170699Y235270D03*
X170369Y177430D03*
X221092Y188971D03*
Y235270D03*
X220762Y186449D03*
X243870Y183544D03*
X224242Y235270D03*
X243903Y210751D03*
X223912Y186449D03*
X224242Y188971D03*
X173848Y235270D03*
X173518Y177430D03*
X233691Y235270D03*
X233361Y186449D03*
X227392Y205014D03*
Y235270D03*
X227062Y177430D03*
X230541Y188971D03*
X227392D03*
X198599Y174344D03*
X167549Y235270D03*
X167219Y186449D03*
X252471Y177430D03*
X238539Y199077D03*
X230541Y235270D03*
X230211Y177430D03*
X167549Y188971D03*
X266009Y229000D03*
X261559Y278643D03*
X228400Y346600D03*
X228575Y340009D03*
X248191Y337500D03*
X251500Y327809D03*
X262484Y311896D03*
X259925D03*
X228191Y325000D03*
X262484Y287486D03*
X259925D03*
X211000Y318191D03*
X228191Y312500D03*
Y300500D03*
X220799Y312650D03*
X219500Y318191D03*
X187000Y318191D03*
X170510Y326851D03*
X179000Y318191D03*
X175809Y318500D03*
X234480Y341371D03*
X241998Y322512D03*
Y326449D03*
X232512Y339809D03*
X248616Y291016D03*
X241798Y296921D03*
Y289047D03*
Y292984D03*
X199047Y331798D03*
X175425D03*
X162202Y302827D03*
Y296921D03*
X189347Y338816D03*
X258740Y340521D03*
X212827Y340727D03*
X239800Y322009D03*
X248937Y298855D03*
X241009Y334390D03*
X279402Y329072D03*
X267602Y320714D03*
X224638Y338816D03*
X178406Y313295D03*
X181640Y339196D03*
X280398Y287286D03*
X193142Y338816D03*
X195110Y316052D03*
X171488Y341372D03*
X241798Y318575D03*
X237500Y315991D03*
X204953Y331798D03*
X195110D03*
X185268Y338821D03*
X191173Y331798D03*
X275280Y287286D03*
X267602Y287286D03*
X272720D03*
X277839Y287286D03*
X265043Y296304D03*
X206921Y344454D03*
X270161Y287286D03*
X208890Y340826D03*
X222613Y325009D03*
X281009Y299500D03*
X176930Y339200D03*
X162202Y324480D03*
X248816Y306500D03*
X241798Y308732D03*
X226606Y331798D03*
X248816Y314680D03*
X272866Y329072D03*
X272720Y320714D03*
X241798Y304686D03*
X253891D03*
X231609Y295083D03*
X252187Y302827D03*
X277839Y320714D03*
X173457Y339669D03*
X269598Y329072D03*
X275280Y320714D03*
X276134Y329072D03*
X270161Y320714D03*
X162321Y291195D03*
X169520Y339669D03*
X248834Y310661D03*
X280398Y320714D03*
X240809Y312500D03*
X254160Y312110D03*
X250557Y300703D03*
X215585Y304472D03*
X179570Y340952D03*
X176210Y292390D03*
X176420Y286390D03*
X162202Y318575D03*
X202984Y338816D03*
X218732D03*
X175809Y309000D03*
X166500Y321309D03*
X164010Y326851D03*
X179000Y330809D03*
X228191Y285000D03*
X240809Y300500D03*
X208181Y312650D03*
X219500Y330809D03*
X228191Y306500D03*
Y319000D03*
X278000Y308809D03*
X264790Y331500D03*
Y337500D03*
X262480Y337809D03*
X197079Y338816D03*
X250520Y285110D03*
X162202Y306764D03*
X248816Y283142D03*
X210818Y338816D03*
X187277Y340520D03*
X257500Y315691D03*
X262480Y326786D03*
X264790Y325000D03*
X248819Y321878D03*
X231500Y328191D03*
X237500Y327809D03*
X211000Y330809D03*
X187000D03*
X241009Y285000D03*
X255000Y340509D03*
X247991Y331500D03*
X255000Y328009D03*
X251500Y315491D03*
X248816Y294953D03*
X164010Y339669D03*
X166500Y305991D03*
X248816Y287079D03*
X241009Y337000D03*
X236449Y343380D03*
X241009Y331000D03*
X191590Y305100D03*
X272866Y336946D03*
X269598D03*
X279402D03*
X276134D03*
X183299Y331798D03*
X241798Y316166D03*
X179167Y285982D03*
X222669Y331798D03*
X395448Y36657D03*
X390063Y28521D03*
X343371Y28760D03*
X397894Y-29316D03*
X388051D03*
X294261Y35050D03*
X287059Y26856D03*
Y39454D03*
X327209Y35140D03*
X287059Y36304D03*
X289068Y20556D03*
X387448Y36657D03*
X395925Y-20598D03*
X399862D03*
X390020D03*
X399448Y36657D03*
X393997Y-31219D03*
X401830Y-29316D03*
X287059Y22460D03*
X390288Y-11466D03*
X391988Y-29516D03*
X305690Y-32180D03*
X317700Y38831D03*
X314391Y35140D03*
X327209Y41640D03*
X398349Y-15569D03*
X307079Y29050D03*
X310070Y32041D03*
X303570Y38059D03*
X313079Y41550D03*
X362189Y35260D03*
X352680Y39251D03*
X356189Y22260D03*
X359180Y25751D03*
X352680Y31769D03*
X343171Y22260D03*
X294061Y29050D03*
X373919Y121257D03*
X387439Y105210D03*
X366900Y129131D03*
X361630Y121401D03*
X355630D03*
X393000Y85191D03*
X361551Y113740D03*
X350321Y117710D03*
X339341Y127163D03*
X387000Y97809D03*
X369130Y94401D03*
X375239Y94866D03*
X398000Y59191D03*
X381858Y84866D03*
X389000Y60691D03*
X346489Y107760D03*
X322069Y129211D03*
X359180Y78451D03*
X350371Y88760D03*
X346680Y85451D03*
X373877Y56866D03*
X309980Y120981D03*
X381858Y60866D03*
X381658Y54866D03*
X385500Y56809D03*
X375439Y58866D03*
X315250Y121337D03*
X337169Y91700D03*
X287691Y127243D03*
X300671Y117290D03*
X375239Y48866D03*
X309901Y114020D03*
X343371Y61760D03*
Y55260D03*
X355989Y48760D03*
X327010Y71040D03*
X303570Y85241D03*
X297070D03*
X324000Y57950D03*
X343371Y42260D03*
X294261Y81050D03*
X317700Y57449D03*
X294261Y74550D03*
X317700Y50949D03*
X294261Y55050D03*
Y49050D03*
Y42550D03*
X385000Y149000D03*
X335814Y141291D03*
X381858Y72866D03*
X375239Y70866D03*
X287691Y123306D03*
X339341Y123226D03*
X294710Y121337D03*
X337638Y121257D03*
X335610Y74640D03*
X287764Y79236D03*
X375239Y62866D03*
X389448Y43276D03*
X367148Y82864D03*
X385448Y43276D03*
X310082Y161428D03*
X375239Y78866D03*
Y82866D03*
X290000Y154491D03*
X388839Y158837D03*
X397448Y43276D03*
X381858Y68866D03*
X401448Y98457D03*
X399000Y98009D03*
X382814Y130000D03*
X401448Y43276D03*
X383686Y78681D03*
X375239Y74866D03*
X381858Y46867D03*
X327710Y54640D03*
X320290Y62040D03*
X381858Y80866D03*
X327209Y48140D03*
X327210Y78040D03*
X381858Y76866D03*
X330509Y160572D03*
X289070Y91241D03*
X393448Y43276D03*
X353180Y71951D03*
X381658Y50866D03*
X375439Y52866D03*
X388309Y47500D03*
X309980Y133599D03*
X283500Y154691D03*
X375239Y66866D03*
X401191Y48000D03*
X313879Y141179D03*
X389000Y82309D03*
X396691Y79000D03*
X398000Y71809D03*
X381000Y97809D03*
X393000D03*
X399000Y85191D03*
X389448Y98457D03*
X340000Y154691D03*
X391448Y105076D03*
X361630Y134019D03*
X361551Y141499D03*
X361009Y160572D03*
X294710Y125274D03*
X301980Y141579D03*
X351639Y125194D03*
X347630Y138719D03*
X387186Y84991D03*
X384243Y91415D03*
X336110Y58640D03*
X384266Y84991D03*
X375239Y88500D03*
X303996Y107001D03*
X289070Y104059D03*
X355646Y106921D03*
X353180Y84769D03*
X350171Y94760D03*
X359583Y106921D03*
X355689Y101260D03*
X369130Y107201D03*
X347630Y120701D03*
X366900Y123226D03*
X363139Y117710D03*
X363520Y106921D03*
X357614Y113940D03*
X343671Y94760D03*
X342671Y101260D03*
X303570Y58059D03*
X313079Y61550D03*
X313079Y54550D03*
X352680Y58269D03*
X362189Y48260D03*
Y55260D03*
X376000Y141000D03*
X390000Y127000D03*
X373919Y125194D03*
X336989Y123790D03*
X315250Y125274D03*
X322971Y141290D03*
X303570Y71541D03*
X313079Y67550D03*
Y74550D03*
X324078Y127243D03*
X333814Y107760D03*
X327480Y120781D03*
X313079Y48550D03*
X300655Y45559D03*
X303570Y46041D03*
X364891Y127163D03*
X379325Y124847D03*
X374621Y105210D03*
X307933Y107001D03*
X303570Y98059D03*
X306899Y101330D03*
X356171Y68760D03*
X352680Y64769D03*
X359180Y64769D03*
X305964Y114020D03*
X297070Y98059D03*
X293881Y101330D03*
X362189Y42260D03*
X343171Y48760D03*
X313079Y87550D03*
X303570Y78041D03*
X313079Y80550D03*
X315351Y91700D03*
X322269Y123306D03*
X305989Y124290D03*
X313489Y117290D03*
X311870Y107001D03*
X322269Y117400D03*
X310070Y97059D03*
X362189Y94760D03*
Y74760D03*
Y87760D03*
X366900Y117320D03*
X359180Y104269D03*
X305989Y134560D03*
X325598Y153554D03*
X307933Y143282D03*
X319085Y151851D03*
X335402Y153554D03*
X312491Y160915D03*
X313879Y138070D03*
X296000Y154491D03*
X294710Y117400D03*
X302000Y154491D03*
X298090Y114020D03*
X316902Y153554D03*
X300059Y143282D03*
X307098Y153554D03*
X294710Y129211D03*
X310366Y153554D03*
X287691Y131180D03*
X313634Y153554D03*
X298090Y141579D03*
X321500Y154491D03*
X287691Y119369D03*
X332134Y153554D03*
X305964Y141579D03*
X328866Y153554D03*
X303996Y143282D03*
X352000Y154491D03*
X346360Y117320D03*
X373598Y153554D03*
X353677Y141499D03*
X364402Y153554D03*
X351709Y134480D03*
X355630Y134219D03*
X383402Y153554D03*
X359583Y143508D03*
X354598Y153554D03*
X337332Y129131D03*
X346000Y154491D03*
X349740Y113940D03*
X337216Y151851D03*
X339341Y119289D03*
X357866Y153554D03*
X339341Y131100D03*
X369000Y154491D03*
X363520Y143508D03*
X361134Y153554D03*
X349740Y141499D03*
X380134Y153554D03*
X357614Y141499D03*
X376866Y153554D03*
X355646Y143202D03*
X373919Y131100D03*
X315250Y131180D03*
X287836Y194750D03*
X295724Y199488D03*
X305170Y199490D03*
X308250Y196250D03*
X352590Y196230D03*
X355650Y199380D03*
X386691Y279000D03*
X332059Y274057D03*
X311472Y262480D03*
X314460Y199310D03*
X352049Y206003D03*
X346140Y199366D03*
X352440Y237340D03*
X345940Y243370D03*
X314780Y243441D03*
X308090Y237430D03*
X312502Y207362D03*
X305090Y221560D03*
X312538Y235708D03*
X344543Y239533D03*
X352500Y231060D03*
X308248Y212000D03*
X308280Y231000D03*
X320800Y243700D03*
X339920Y243680D03*
X352500Y212000D03*
X340050Y199360D03*
X336810Y199430D03*
X320939Y199567D03*
X308248Y215249D03*
X308300Y227840D03*
X324080Y243570D03*
X336630D03*
X315000Y233441D03*
X319500D03*
X327212Y218377D03*
X323879Y216811D03*
X335094Y239500D03*
X325646D03*
X318059Y221500D03*
Y217000D03*
Y226000D03*
X328500Y233441D03*
X332500D03*
X345500D03*
X342441Y226000D03*
Y221500D03*
Y217000D03*
X345500Y209059D03*
X341000Y233000D03*
Y209059D03*
X332500D03*
X328500D03*
X323500Y223110D03*
X335094Y203500D03*
X325646D03*
X348500Y216811D03*
Y226259D03*
X337053Y219960D03*
X315000Y213640D03*
X319500Y213849D03*
X312419Y226259D03*
X312429Y216811D03*
X371315Y262480D03*
X360304Y264500D03*
X361866Y249882D03*
X358717Y253031D03*
X349268Y259330D03*
X371315Y212086D03*
X330370Y256181D03*
Y259330D03*
Y253031D03*
X292575D03*
Y249882D03*
X298874Y256181D03*
X295724D03*
Y259330D03*
X305173D03*
X308323D03*
X299059Y264500D03*
X289425Y240433D03*
X292575Y218385D03*
X289425Y212086D03*
X292575Y193188D03*
X298874Y196338D03*
X292575Y186889D03*
X295724D03*
X302024Y190039D03*
X300436Y178500D03*
X289425Y180590D03*
X311472Y183740D03*
X314622Y180590D03*
X317772Y183740D03*
X324071Y180590D03*
X327220Y183740D03*
X330370Y180590D03*
X349268Y183740D03*
X346118Y190039D03*
X360304Y178500D03*
X361866Y186889D03*
X358717Y190039D03*
X347870Y208280D03*
X317070Y240030D03*
X289425Y262480D03*
X305173D03*
X327220D03*
X333520D03*
X349268D03*
X358717D03*
X346118Y256181D03*
X361866D03*
X289425Y253031D03*
X302024D03*
X346118D03*
X365016D03*
X295724Y249882D03*
X317850Y246680D03*
X336680Y246780D03*
X343070Y246810D03*
X352440Y246760D03*
X355568Y243548D03*
X371315Y249882D03*
X305170Y243600D03*
X308380Y246700D03*
X330323Y243533D03*
X371315Y240433D03*
X305073Y234136D03*
X349270Y234670D03*
X355570Y234100D03*
X289425Y227834D03*
X352628Y228038D03*
X330317Y224841D03*
X336760Y227740D03*
X333060Y224191D03*
X368165Y221535D03*
X308380Y221500D03*
X352396Y221544D03*
X332000Y214000D03*
X305140Y215190D03*
X352500Y215140D03*
X305200Y208980D03*
X355568Y209033D03*
X289425Y202637D03*
X308213Y205775D03*
X371315Y202637D03*
X316760Y203680D03*
X343640Y203130D03*
X324000Y199400D03*
X330330Y199450D03*
X289425Y193188D03*
X298874D03*
X317740Y196330D03*
X343070Y196250D03*
X371315Y193188D03*
X295724Y190039D03*
X365016D03*
X298874Y186889D03*
X346118D03*
X333520Y183740D03*
X308323Y180590D03*
X336669D03*
X349268D03*
X358717D03*
X371315D03*
X339859Y256124D03*
X373968Y185667D03*
X342320Y267807D03*
X375085Y262824D03*
X368165Y249882D03*
X349268Y253031D03*
X361866Y259330D03*
X371315Y253031D03*
Y256181D03*
X365016Y240433D03*
X331932Y264688D03*
X361866Y240433D03*
X355567Y249882D03*
Y262480D03*
X368165Y243582D03*
X361866Y262480D03*
X365016Y249882D03*
X371315Y246732D03*
X365016Y259330D03*
X368165Y240433D03*
X361866Y246732D03*
X377402Y253730D03*
X368165Y253031D03*
X365016Y246732D03*
X349268Y256181D03*
X355567Y259330D03*
X381771Y263727D03*
X352417Y262480D03*
X386140Y248041D03*
X361866Y243582D03*
X371315D03*
X352417Y253031D03*
X358717Y259330D03*
X355567Y256181D03*
X352417Y259330D03*
X368165Y246732D03*
X355567Y253031D03*
X352417Y256181D03*
X358717D03*
X365016Y243582D03*
X371315Y205787D03*
X390111Y225120D03*
X365016Y237283D03*
X390111Y219120D03*
X368165Y234133D03*
X338969Y228375D03*
X289425Y205787D03*
X330322Y193140D03*
X295724Y205787D03*
X389174Y240167D03*
X368165Y215236D03*
X390111Y207120D03*
X368165Y227834D03*
X396192Y238199D03*
X361866Y212086D03*
X389174Y248041D03*
X361866Y227834D03*
X396192Y180573D03*
X365016Y208937D03*
X308323Y262480D03*
X282211Y228567D03*
X289425Y215236D03*
X365016D03*
X377992Y214263D03*
X396192Y194136D03*
X298874Y249882D03*
X295724Y253031D03*
X292575Y240433D03*
X396192Y263573D03*
X361866Y234133D03*
X295724Y227834D03*
X311472Y259330D03*
X292575Y243582D03*
X282280Y193000D03*
X298874Y234133D03*
X337216Y170149D03*
X342968Y186889D03*
X389174Y188230D03*
X365016Y212086D03*
X389174Y178604D03*
X361866Y205787D03*
X292575Y224685D03*
X396192Y190199D03*
X368165Y212086D03*
X389174Y265541D03*
X365016Y234133D03*
X389174Y236230D03*
X358717Y212086D03*
X292575Y246732D03*
Y234133D03*
X396192Y259636D03*
X365016Y224685D03*
X371315Y234133D03*
X383851Y224893D03*
X390111Y213120D03*
X358717Y224685D03*
X295724Y240433D03*
X396192Y202010D03*
X361866Y221535D03*
X289425Y243582D03*
X389174Y261604D03*
X371315Y227834D03*
X396192Y250010D03*
X365016Y227834D03*
X286889Y212086D03*
X295724Y237283D03*
X336669Y249882D03*
X368165Y237283D03*
X333520Y253031D03*
X289425Y224685D03*
X389174Y192167D03*
X361866Y215236D03*
X339819Y262480D03*
X341109Y273874D03*
X336669Y262480D03*
X298874Y237283D03*
X333520Y256181D03*
X346118Y259330D03*
Y262480D03*
X295724Y234085D03*
Y215236D03*
X298874Y227834D03*
X358717Y215236D03*
X289425Y234133D03*
X292575Y227834D03*
X286889Y224563D03*
X295724Y224685D03*
X289425Y237283D03*
X298874Y224685D03*
X314622Y253031D03*
X324071Y249882D03*
X327220Y259330D03*
X314622Y262480D03*
X330370Y249882D03*
X314622Y256181D03*
X324071Y253031D03*
X317772D03*
X327220D03*
X368165Y205787D03*
X317772Y262480D03*
Y259330D03*
X292575Y212086D03*
X314622Y259330D03*
X317772Y256181D03*
X324071D03*
X365016Y202637D03*
X327220Y256181D03*
X358717Y227834D03*
X327220Y249882D03*
X298826Y215188D03*
X314574Y183740D03*
X292575Y215236D03*
X298874Y259330D03*
X387360Y190199D03*
X368165Y193188D03*
X302024Y256181D03*
Y259330D03*
X365016Y193188D03*
Y199488D03*
X361866Y196338D03*
X336621Y193188D03*
X352417Y190039D03*
X371315Y186889D03*
X295724Y218385D03*
X325598Y168446D03*
X308323Y186889D03*
X354598Y168446D03*
X342968Y180590D03*
X361866D03*
X335402Y168446D03*
X311472Y190039D03*
X380134Y168446D03*
X336669Y183740D03*
X361866Y202637D03*
X383402Y168446D03*
X336669Y186889D03*
X361866Y237283D03*
Y193188D03*
X349591Y167509D03*
X339819Y180590D03*
X369000Y167509D03*
X333520Y180590D03*
X313634Y168446D03*
X305173Y190039D03*
X361866D03*
X311472Y180590D03*
X305173D03*
X373524Y193188D03*
X365016Y205787D03*
X290000Y167509D03*
X292575Y190039D03*
X329500Y273857D03*
X330370Y262480D03*
X302024Y180590D03*
X352417Y186889D03*
X373524Y257816D03*
X355567Y193188D03*
X346118Y180590D03*
X373598Y168446D03*
X339819Y190039D03*
X361866Y208937D03*
X328866Y168446D03*
X308323Y190039D03*
X311510Y199510D03*
X308300Y202620D03*
Y199490D03*
X349260D03*
X352410Y202640D03*
X352440Y199510D03*
X349280Y243570D03*
X352410Y240440D03*
X352440Y243570D03*
X308350Y240470D03*
X311460Y243570D03*
X308330Y243550D03*
X328795Y214059D03*
X311460Y202620D03*
X311480Y240440D03*
X349280D03*
X330500Y218500D03*
X349280Y202640D03*
X330550Y228671D03*
X324000Y228000D03*
X323500Y219960D03*
X312500Y213661D03*
X348500D03*
Y219960D03*
Y223110D03*
X330560Y221453D03*
X348559Y232559D03*
X348591Y229409D03*
X312441Y232559D03*
X312409Y229409D03*
X312390Y223110D03*
X312460Y219960D03*
X312489Y210511D03*
X348511D03*
X336500Y215500D03*
X337000Y224500D03*
X319346Y239500D03*
X322496D03*
X328795D03*
X331945D03*
X338244D03*
X341394D03*
X338244Y203500D03*
X331945D03*
X328795D03*
X319346D03*
X322496Y203496D03*
X341394Y203500D03*
X347441Y236120D03*
X346700Y238456D03*
X315600Y238190D03*
X313220Y237930D03*
X314380Y204430D03*
X347592Y204890D03*
X345630Y204090D03*
X355567Y183740D03*
X307098Y168446D03*
X305173Y183740D03*
X295724Y208937D03*
X352417Y183740D03*
X364402Y168446D03*
X339819Y186889D03*
X368165Y190039D03*
X361134Y168446D03*
X339819Y183740D03*
X368165Y196338D03*
X316902Y168446D03*
X308323Y183740D03*
X355567Y190039D03*
X332134Y168446D03*
X311472Y186889D03*
X358717Y183740D03*
X352417Y180590D03*
X310366Y168446D03*
X305173Y186889D03*
X295724Y212086D03*
X365016Y196338D03*
X371315Y190039D03*
Y199488D03*
X376866Y168446D03*
X339819Y193188D03*
X372877Y230862D03*
X390111Y231120D03*
X371315Y237283D03*
X374027Y180549D03*
X368165Y199488D03*
X361866D03*
X338700Y275688D03*
X358717Y186889D03*
X355567D03*
X361866Y183740D03*
X385546Y180727D03*
X349268Y186889D03*
X371315Y196338D03*
X338305Y178066D03*
X349268Y190039D03*
X284094Y194814D03*
X289425Y199488D03*
Y196338D03*
X368165Y186889D03*
X355567Y180590D03*
X292575Y205787D03*
X321500Y167509D03*
X302024Y186889D03*
X295700Y193140D03*
X292575Y202637D03*
X396192Y184510D03*
X371315Y208937D03*
X295724Y202637D03*
X292575Y199488D03*
X298874D03*
X389174Y257667D03*
X361866Y224685D03*
X298874Y221535D03*
X368165Y230984D03*
X298874Y208937D03*
X305173Y256181D03*
X389174Y253730D03*
X365016Y221535D03*
X289425Y208937D03*
X333520Y186937D03*
X305173Y253031D03*
X373524Y202516D03*
X389174Y196104D03*
X361866Y218385D03*
X324023Y183740D03*
X292575Y208937D03*
X389174Y182541D03*
X368165Y208937D03*
X389174Y244104D03*
X368165Y224685D03*
X389174Y200041D03*
X371315Y218385D03*
X396192Y246073D03*
X371315Y224685D03*
X396192Y242136D03*
X371315Y215236D03*
X396192Y255699D03*
X371315Y221535D03*
X396192Y198073D03*
X365016Y218385D03*
X298874Y202637D03*
X308350Y234130D03*
X333550Y196350D03*
Y246700D03*
X355620Y224690D03*
X305217Y224717D03*
X311440Y246730D03*
X305170Y240420D03*
X342920Y243570D03*
X352349Y208909D03*
X342940Y199510D03*
X349310Y196300D03*
X355600Y202590D03*
X317673Y199487D03*
X311430Y196300D03*
X305170Y202620D03*
X355540Y240460D03*
X349260Y246730D03*
X358700Y249910D03*
X358750Y193150D03*
X302040Y249820D03*
X371315Y183740D03*
X365016D03*
X371315Y259330D03*
X289425Y183740D03*
X365016Y256181D03*
X292575Y221535D03*
X333520Y259330D03*
X298874Y253031D03*
X330370Y183740D03*
X292575Y259330D03*
X368165Y218385D03*
Y202637D03*
Y259330D03*
X365016Y186889D03*
X305243Y230957D03*
X327190Y196330D03*
X327160Y246680D03*
X355520Y218370D03*
X305120Y212030D03*
X305220Y218350D03*
X317760Y243570D03*
X320950Y246730D03*
X339940Y246860D03*
X352410Y234100D03*
X355600Y231000D03*
X355475Y212091D03*
X339826Y196314D03*
X320870Y196280D03*
X302090Y193280D03*
X368165Y183740D03*
X292575D03*
X295724D03*
X368165Y256181D03*
X289425Y259330D03*
X292575Y256181D03*
X287863Y178500D03*
X372877D03*
X287863Y264500D03*
X372877D03*
X346118Y183740D03*
X289425Y218385D03*
X308323Y208937D03*
X302024Y224685D03*
X340000Y167509D03*
X298874Y183740D03*
X292575Y196338D03*
X289425Y221535D03*
X295724Y243582D03*
Y246732D03*
X298874Y240433D03*
X302024Y227834D03*
X283500Y167509D03*
X302000D03*
X298874Y180590D03*
X296000Y167509D03*
X302024Y183740D03*
X358000Y168446D03*
X346000Y167509D03*
X342968Y183740D03*
X352000Y167509D03*
X342968Y190039D03*
X298874Y246732D03*
X289425Y249882D03*
X316149Y176252D03*
X298874Y218385D03*
X400500Y332081D03*
X394500Y317691D03*
X355016Y311896D03*
X376309Y288500D03*
X359000Y308809D03*
X352809Y299500D03*
X329425Y320514D03*
X352457Y296104D03*
X331984Y320514D03*
X343809Y299500D03*
X320516Y311896D03*
X339661Y287486D03*
X331984Y287486D03*
X337102Y287486D03*
X323000Y308809D03*
X329425Y287486D03*
X332000Y296191D03*
X297484Y311896D03*
X294925D03*
X317957Y287486D03*
X285516Y320514D03*
X296000Y308809D03*
X287000D03*
X294925Y287486D03*
X282957Y296104D03*
X395439Y283509D03*
X349366Y329072D03*
X349898Y320714D03*
X316509Y299500D03*
X393509Y295000D03*
X313500Y309009D03*
X287866Y329072D03*
X282957Y320714D03*
X315398Y287286D03*
X344780D03*
X300043Y296304D03*
X342220Y287286D03*
X312839D03*
X307720D03*
X349898D03*
X302602D03*
X305161D03*
X310280D03*
X347339D03*
X297484D03*
X299009Y299500D03*
X307509D03*
X321634Y329072D03*
X312839Y320714D03*
X299598Y329072D03*
X307720Y320714D03*
X294402Y322054D03*
X340402Y329072D03*
X337102Y320714D03*
X315098Y329072D03*
X317957Y320714D03*
X324902Y329072D03*
X310280Y320714D03*
X337134Y329072D03*
X339661Y320714D03*
X302866Y329072D03*
X305161Y320714D03*
X333866Y329072D03*
X342220Y320714D03*
X378691Y309500D03*
X318366Y329072D03*
X315398Y320714D03*
X306134Y329072D03*
X302602Y320714D03*
X355902Y322054D03*
X344780Y320714D03*
X346098Y329072D03*
X352457Y320714D03*
X291134Y322054D03*
X309402Y329072D03*
X300043Y320714D03*
X352634Y329072D03*
X347339Y320714D03*
X288075Y287486D03*
X285516D03*
X287000Y296191D03*
X304500Y308809D03*
X326941Y286943D03*
X323075Y287486D03*
X320516D03*
X323000Y296191D03*
X355016Y296104D03*
X357575D03*
X361809Y299500D03*
X363691Y288500D03*
X364691Y295000D03*
X378691Y297500D03*
X389000Y345809D03*
X388000Y310509D03*
X400500Y317491D03*
X393000Y310509D03*
X398000D03*
X385241Y325085D03*
X398009Y336500D03*
X394500Y332509D03*
X398000Y332509D03*
X388500Y317491D03*
X401500Y346009D03*
X385991Y336500D03*
X385241Y328500D03*
X388500Y332509D03*
X395000Y346009D03*
X334543Y287286D03*
X332059Y282125D03*
X355902Y336946D03*
X337134D03*
X340402D03*
X324902D03*
X306134D03*
X321634D03*
X302866D03*
X318366D03*
X287866D03*
X315098D03*
X291134D03*
X333866D03*
X299598D03*
X294402D03*
X352634D03*
X349366D03*
X346098D03*
X309402D03*
X323075Y320714D03*
X332000Y309009D03*
X288075Y320714D03*
X350000Y309009D03*
X357575Y311696D03*
X341000Y309009D03*
X429496Y36705D03*
X426996Y28641D03*
X433448Y36657D03*
X421448Y36857D03*
X411448Y36657D03*
X437264Y-29316D03*
X429390D03*
X421516D03*
X413642D03*
X405768D03*
X419547Y-20598D03*
X423484D03*
X427421D03*
X411673D03*
X407736D03*
X403799D03*
X415610D03*
X403448Y36657D03*
X407448D03*
X417448Y35296D03*
X415448Y36857D03*
X433327Y-29316D03*
X425453D03*
X417579D03*
X409705D03*
X473590Y-17420D03*
X465690Y-12260D03*
X436325Y-11145D03*
X456890Y-5760D03*
X431358Y-20598D03*
X435295D03*
X464500Y108191D03*
X444500D03*
X417500Y127309D03*
X443809Y90866D03*
X443458Y78866D03*
X443809Y88500D03*
X429000Y85191D03*
X403000Y108191D03*
X423000Y85191D03*
X435000D03*
X419448Y98457D03*
X417000Y85191D03*
X409448Y98457D03*
X435000Y71691D03*
X437039Y56658D03*
X405000Y85191D03*
X446500Y42691D03*
X426000Y60691D03*
X437039Y58866D03*
X416000Y57309D03*
X419448Y43076D03*
X404000Y57309D03*
X413448Y43076D03*
X434236Y57545D03*
X459500Y42343D03*
X446344Y78591D03*
X427448Y43276D03*
X441249Y44757D03*
X433327Y62866D03*
X452500Y66610D03*
Y60693D03*
X446266Y72694D03*
X443598Y48790D03*
X496000Y143509D03*
X417500Y107991D03*
X413000Y107991D03*
X407991Y118000D03*
X443660Y52756D03*
X469169Y49612D03*
X453971Y78917D03*
X411448Y105076D03*
X415448D03*
X480229Y153505D03*
X434000Y44491D03*
X437039Y46676D03*
X405448Y43276D03*
X409448D03*
X443688Y60866D03*
X446533Y66629D03*
X454830Y72651D03*
X443179Y55164D03*
X449414Y48550D03*
X433000Y120809D03*
X416000Y44691D03*
X423448Y43276D03*
X411000Y85191D03*
X423000Y97809D03*
X425448Y105076D03*
X411000Y127309D03*
X454500Y128809D03*
X506000Y124691D03*
X518809Y161000D03*
X435000Y68000D03*
X502500Y115809D03*
X486000Y113300D03*
X516000Y108309D03*
X493191Y112500D03*
X474500Y137191D03*
X454500D03*
X423000Y136814D03*
X413415Y98009D03*
X421448Y105076D03*
X405448D03*
X405000Y98009D03*
X431448Y98457D03*
X429000Y98009D03*
X433448Y105076D03*
X435000Y98009D03*
X469991Y146500D03*
X474500Y156009D03*
X459009Y146500D03*
X454500Y156009D03*
X413000D03*
X444009Y94866D03*
X441000Y98009D03*
X429448Y105076D03*
X417000Y98009D03*
X501491Y134000D03*
X506000Y143509D03*
X502500Y95491D03*
X496000D03*
Y116009D03*
X418491Y145500D03*
X423000Y156009D03*
X499991Y161000D03*
X470721Y160652D03*
X499991Y151000D03*
X454500Y107991D03*
X449991Y119500D03*
X474500Y121009D03*
X444500Y156009D03*
X464500D03*
X485970Y199740D03*
X499294Y183489D03*
X499159Y234820D03*
X495650Y264148D03*
X492140Y207180D03*
X427421Y264740D03*
X498959Y207220D03*
X440039Y258740D03*
X452860Y240685D03*
X427421Y250740D03*
X495650Y177852D03*
X445841Y240685D03*
X427421Y238740D03*
X440039Y215240D03*
X427421Y209240D03*
Y197240D03*
X440039Y191240D03*
X427421Y184740D03*
X492140Y246591D03*
X452860Y252496D03*
X445841Y201315D03*
Y189504D03*
X499560Y178360D03*
X498959Y258402D03*
X492280Y264350D03*
X512509Y228000D03*
X510000Y191809D03*
X513309Y174000D03*
X507890Y233160D03*
X405769Y190199D03*
X445841Y217063D03*
X444138Y224937D03*
Y215094D03*
X454563Y226905D03*
X405769Y259636D03*
X441853Y240749D03*
X492140Y228874D03*
X499159Y213126D03*
X405769Y202010D03*
X409398Y217217D03*
X490437Y215094D03*
Y226905D03*
X404066Y200041D03*
X452860Y219032D03*
X465586D03*
X456266Y222968D03*
X404066Y182541D03*
X464630Y230990D03*
Y215330D03*
X492140Y211157D03*
X499159Y230843D03*
X404066Y253730D03*
X405769Y184510D03*
X454563Y221000D03*
X443433Y221440D03*
X499159Y219032D03*
X404066Y196104D03*
X470632Y185439D03*
X490437Y222968D03*
X454563Y230843D03*
X445841Y211157D03*
X405769Y255699D03*
X499159Y222968D03*
X490437Y219032D03*
X404066Y192167D03*
X492140Y221000D03*
X405769Y194136D03*
X501567Y221509D03*
X445841Y222968D03*
X404066Y188230D03*
X407584Y212544D03*
X444138Y219032D03*
X452860Y213126D03*
X444138Y228874D03*
X404066Y257667D03*
X405769Y198073D03*
X512509Y224937D03*
X409398Y199887D03*
X492140Y217063D03*
X488690Y191530D03*
X517915Y173473D03*
X507319Y256433D03*
X445841Y226905D03*
X454563Y215094D03*
X403129Y225120D03*
X445090Y262584D03*
X499159Y197378D03*
X490131Y203284D03*
X487030Y260370D03*
X443832Y203284D03*
Y199346D03*
X470632Y222814D03*
X484536Y264153D03*
Y279645D03*
X499159Y238716D03*
Y242654D03*
X499314Y181080D03*
X505244Y268401D03*
X445680Y244622D03*
X413949Y247887D03*
X499620Y192290D03*
X445760Y185567D03*
X441853Y201050D03*
X444158Y256235D03*
X452860Y191472D03*
X405538Y231120D03*
X423488Y264740D03*
X461114Y181630D03*
X452860Y181589D03*
X419860Y263998D03*
X485830Y203270D03*
X492140Y185567D03*
X499800Y273577D03*
X410617Y238044D03*
X454869Y238716D03*
X500968Y254465D03*
X445841Y193441D03*
X415290Y198126D03*
X445841Y197378D03*
X500968Y250528D03*
X422198Y239385D03*
X444138Y250528D03*
X443832Y242654D03*
X499159Y248559D03*
X513509Y187535D03*
X417451Y264739D03*
X452860Y248600D03*
X499159Y245062D03*
X475271Y254465D03*
X454869D03*
X443832Y187535D03*
X410617Y229968D03*
X403129Y213120D03*
X445841Y230843D03*
X454563Y211157D03*
X499159Y226905D03*
X403129Y231120D03*
X407584Y247887D03*
X512509Y215094D03*
X452860Y228874D03*
X441572Y234625D03*
X403129Y219120D03*
X442435Y213126D03*
X492140Y224937D03*
X514212Y217063D03*
X403129Y207120D03*
X427221Y191240D03*
X444138Y232811D03*
X405769Y238199D03*
X454716Y234625D03*
X500862Y232811D03*
X461023Y234625D03*
X404066Y236230D03*
X452860Y224937D03*
X462838Y248482D03*
X456266Y217063D03*
X404066Y267510D03*
X427221Y232740D03*
Y258740D03*
Y227070D03*
Y178240D03*
Y203240D03*
Y221240D03*
X464742Y203415D03*
X452860Y197419D03*
X455290Y193150D03*
X499491Y194780D03*
X490131Y183444D03*
X512509Y199346D03*
X445841Y248640D03*
Y181548D03*
X472446Y238716D03*
X491900Y238500D03*
X492140Y171392D03*
Y181630D03*
X427221Y244740D03*
X455820Y200854D03*
X465962Y199787D03*
X490131Y248559D03*
X427221Y172240D03*
X445841Y254465D03*
X454869Y260370D03*
X427221Y215240D03*
X492140Y260370D03*
X454869Y250528D03*
X480229Y252342D03*
X454674Y187535D03*
X512509Y203284D03*
X492140Y256433D03*
X503430Y273577D03*
X490131Y244622D03*
X461023Y244466D03*
X452860D03*
X422912Y163836D03*
X452860Y203284D03*
X443832Y191472D03*
X499510Y185930D03*
X470632Y192302D03*
X465598Y165062D03*
X492140Y191472D03*
X490437Y187535D03*
X421384Y172240D03*
X490131Y254465D03*
X488428Y250528D03*
X491830Y242810D03*
X475480Y185439D03*
X443832Y238716D03*
X465962Y197378D03*
X492140Y197419D03*
X454869Y242654D03*
X461023Y240531D03*
X452860Y185608D03*
X483857Y256433D03*
X452860Y256235D03*
X483857Y181787D03*
X455570Y248094D03*
X440039Y250740D03*
X456100Y185439D03*
X440039Y184740D03*
X456610Y197440D03*
X488590Y242550D03*
X505091Y221509D03*
X442679Y259864D03*
X440039Y172240D03*
Y178240D03*
Y197240D03*
X449350Y177852D03*
X446048Y179149D03*
X440039Y203240D03*
Y209240D03*
X445841Y207220D03*
X440039Y221240D03*
Y238740D03*
X499991Y174000D03*
X504000Y191809D03*
X445841Y234820D03*
X515000Y178191D03*
X439967Y264740D03*
X499159Y201315D03*
X492140Y201356D03*
X452860Y262339D03*
X449350Y264148D03*
X503000Y243009D03*
X498959Y252496D03*
X503000Y234514D03*
X492140Y252496D03*
X452860Y232811D03*
X405769Y250010D03*
X443832Y209189D03*
X405769Y246073D03*
X499159Y209629D03*
X443600Y264554D03*
X423343Y249701D03*
X404066Y240167D03*
X452860Y209189D03*
X405769Y242136D03*
X404066Y244104D03*
X465588Y209189D03*
X490437D03*
X492140Y232811D03*
X404066Y248041D03*
X513000Y267000D03*
X516830Y245141D03*
X508500Y211509D03*
X512500Y235191D03*
X504310Y245441D03*
X510620Y245391D03*
X520231Y248590D03*
X503430Y266290D03*
X507260Y253720D03*
X517500Y242809D03*
X514500Y209849D03*
X505270Y232350D03*
X521230Y268150D03*
X514970Y265050D03*
X518440Y266600D03*
X513630Y253610D03*
X518509Y181000D03*
X509000Y185509D03*
X506500Y165509D03*
X499991Y171000D03*
X514212Y197000D03*
X517909Y221320D03*
X518009Y207000D03*
X504190Y344670D03*
X419500Y330309D03*
X413000Y330309D03*
X406500D03*
X417000Y302809D03*
X403000Y302691D03*
X404798Y295500D03*
Y299240D03*
X408000Y332991D03*
Y346009D03*
X415821Y291760D03*
X413000Y317491D03*
X406500D03*
X404509Y336500D03*
X403000Y332509D03*
X414500Y332991D03*
X419500Y317491D03*
X404998Y291760D03*
X417000Y306991D03*
X414500Y346009D03*
X421509Y295500D03*
Y299240D03*
X514931Y357570D03*
X504390Y351670D03*
X514931Y349700D03*
X512790Y348270D03*
X514931Y342050D03*
X561191Y-81500D03*
X574009D03*
X561191Y-73500D03*
X549130Y-30930D03*
X574009Y-73500D03*
X535960Y-20110D03*
X528140Y82450D03*
X530330Y73920D03*
X523000Y82880D03*
X523490Y51910D03*
X560620Y66325D03*
X584510Y140161D03*
X571120Y134840D03*
X583809Y53170D03*
X535191Y151000D03*
X547809Y151500D03*
X571309Y160000D03*
X570991Y53170D03*
X567579Y62994D03*
X571001Y144170D03*
X581080Y137849D03*
X528509Y151500D03*
X558491Y160000D03*
X548009Y161000D03*
X535259Y236500D03*
Y240995D03*
X528509Y219000D03*
X560809Y259500D03*
X545600Y248290D03*
X538691Y236500D03*
X532500Y242809D03*
X527500Y244509D03*
X534691Y197000D03*
X535191Y171000D03*
X529000Y202000D03*
X530240Y185000D03*
X570809Y192000D03*
Y198000D03*
X563330Y255550D03*
X535310Y245231D03*
X557790Y210490D03*
X533880Y212380D03*
X557991Y198000D03*
X548009Y168000D03*
Y185000D03*
X526300Y265510D03*
X529050Y265009D03*
X523040Y265570D03*
X532059Y248590D03*
X528509Y168000D03*
X547509Y202000D03*
Y219000D03*
X522500Y244509D03*
X548009Y181000D03*
X557991Y192000D03*
X542000Y256490D03*
X561009Y252000D03*
X542490D03*
X547991Y259500D03*
X538600Y255510D03*
X534491Y207000D03*
X535310Y258049D03*
X527749Y357570D03*
Y342050D03*
Y349700D03*
G54D21*
G01X162842Y33565D02*
X161027D01*
X159318Y35275D01*
X23053D01*
X7505Y50823D01*
Y169251D01*
X-20403Y197159D01*
X-51734D01*
X-70509Y215934D01*
Y257000D01*
G01X217190Y17817D02*
X196106D01*
X175872Y38050D01*
X25940D01*
X20522Y43468D01*
Y44971D01*
X23280Y47728D01*
X34575D01*
X38084Y51238D01*
G01X22336Y44219D02*
X26691Y39864D01*
X170891D01*
G01X473590Y-17420D02*
X466470Y-24540D01*
X386610D01*
X382970Y-28180D01*
X379610D01*
X370362Y-37428D01*
X328948D01*
X320482Y-28962D01*
X250378D01*
X243872Y-35468D01*
X151068D01*
X148600Y-33000D01*
X135380D01*
X131342Y-28962D01*
X94688D01*
X85156Y-38494D01*
X45074D01*
X42350Y-35770D01*
Y-22641D01*
X11190Y8519D01*
Y17890D01*
X3346Y25734D01*
Y140984D01*
X-33485Y177814D01*
X-34305D01*
X-51000Y194509D01*
G01X-36491Y232500D02*
X-8468Y204477D01*
X-8220D01*
X8724Y187532D01*
Y51328D01*
X23558Y36494D01*
X162478D01*
X177514Y21458D01*
Y-1270D01*
X180769Y-4525D01*
X322640D01*
X328305Y1140D01*
X368243D01*
X368422Y961D01*
Y-1566D01*
X389268Y-22412D01*
X440238D01*
X456890Y-5760D01*
G01X64341Y221370D02*
X65097Y220615D01*
Y213384D01*
X61128Y209415D01*
X28022D01*
X21671Y203063D01*
Y154485D01*
X25295Y150861D01*
X38119D01*
X42580Y146400D01*
G01D02*
X17173Y120993D01*
Y95961D01*
X31427Y81707D01*
X48077D01*
X49900Y83530D01*
G01X123099Y226039D02*
X131246Y217892D01*
Y83586D01*
X116013Y68352D01*
X76708D01*
X56305Y88755D01*
X51759D01*
X41270Y99244D01*
Y100533D01*
X40185Y101618D01*
X28658D01*
X26830Y99790D01*
G01X32528Y146418D02*
Y143287D01*
X15953Y126712D01*
Y91242D01*
X27793Y79402D01*
X52898D01*
X55800Y76500D01*
G01X26830Y146400D02*
X14733Y134303D01*
Y90737D01*
X30784Y74686D01*
X56552D01*
X57770Y75904D01*
Y83530D01*
G01X61959Y146408D02*
Y139801D01*
X32802Y110644D01*
X22942D01*
X19612Y107314D01*
Y100202D01*
X23533Y96280D01*
X38084D01*
G01X29780Y155440D02*
Y159404D01*
X30390Y160014D01*
X34167D01*
X34777Y160624D01*
Y161844D01*
X34167Y162453D01*
X30390D01*
X29780Y163063D01*
Y164283D01*
X30390Y164893D01*
X34167D01*
X34777Y165502D01*
Y166722D01*
X34167Y167332D01*
X30390D01*
X29780Y167942D01*
Y169161D01*
X30390Y169771D01*
X34167D01*
X34777Y170381D01*
Y171600D01*
X34167Y172210D01*
X30390D01*
X29780Y172820D01*
Y174040D01*
X30390Y174649D01*
X34167D01*
X34777Y175259D01*
Y176479D01*
X34167Y177089D01*
X30390D01*
X29780Y177698D01*
Y178918D01*
X30390Y179528D01*
X34167D01*
X34777Y180138D01*
Y181357D01*
X34167Y181967D01*
X30390D01*
X29780Y182577D01*
Y185000D01*
X44746Y199966D01*
X70234D01*
X73190Y197010D01*
G01X69250D02*
X64737Y192497D01*
X50636D01*
X50026Y193107D01*
Y193775D01*
X49416Y194385D01*
X48196D01*
X47587Y193775D01*
Y193107D01*
X46977Y192497D01*
X45757D01*
X45147Y193107D01*
Y193775D01*
X44538Y194385D01*
X43318D01*
X42708Y193775D01*
Y193107D01*
X42098Y192497D01*
X39002D01*
X36080Y189575D01*
Y188127D01*
X36690Y187517D01*
X45857D01*
X46467Y186907D01*
Y185687D01*
X45857Y185078D01*
X36690D01*
X36080Y184468D01*
Y183248D01*
X36690Y182638D01*
X45857D01*
X46467Y182029D01*
Y180809D01*
X45857Y180199D01*
X36690D01*
X36080Y179589D01*
Y166885D01*
X36690Y166275D01*
X46448D01*
X47058Y165666D01*
Y164446D01*
X46448Y163836D01*
X36690D01*
X36080Y163226D01*
Y155440D01*
G01X54631Y143256D02*
X25678Y114303D01*
X24876D01*
X18392Y107820D01*
Y99697D01*
X31376Y86713D01*
X36867D01*
X40050Y83530D01*
G01X178406Y313295D02*
X161588D01*
X153370Y321513D01*
X44644D01*
X35941Y312810D01*
Y245416D01*
X33072Y242547D01*
G01X48390Y227893D02*
X23704D01*
G01X122824Y202621D02*
Y202660D01*
X118803Y206681D01*
Y229284D01*
X110745Y237342D01*
X105839D01*
G01X48390Y231042D02*
X38075D01*
X29272Y239845D01*
Y245235D01*
X26054Y248453D01*
G01X31516Y205954D02*
X77176D01*
X79090Y204040D01*
G01X39753Y190683D02*
X74733D01*
X81060Y197010D01*
G01X33072Y238610D02*
X31258Y240424D01*
Y252235D01*
X34721Y255698D01*
Y313315D01*
X57863Y336457D01*
X170245D01*
X173457Y339669D01*
G01X46485Y236013D02*
X40978D01*
X39132Y237859D01*
Y255482D01*
X40574Y256924D01*
Y260576D01*
X37195Y263954D01*
Y284251D01*
X46938Y293995D01*
X47801D01*
G01X23510Y326740D02*
X7744Y310974D01*
Y215735D01*
X5009Y213000D01*
G01X78531Y44219D02*
X74748Y48002D01*
Y55023D01*
X81642Y61917D01*
X112223D01*
X156885Y106579D01*
Y115244D01*
X161024Y119384D01*
G01X80500Y83530D02*
Y84676D01*
X88447Y92624D01*
X88764D01*
X95930Y99790D01*
G01X46673Y138695D02*
X52030Y144052D01*
Y146400D01*
G01X127357Y98090D02*
X130027Y100760D01*
Y205102D01*
X127443Y207685D01*
G01X102191Y99794D02*
Y96005D01*
X87892Y81707D01*
X83735D01*
X78531Y76502D01*
G01X52032Y99794D02*
X59540Y92286D01*
Y87891D01*
X77859Y69572D01*
X115507D01*
X124828Y78892D01*
Y122630D01*
X124687Y122771D01*
Y214756D01*
X120617Y218827D01*
Y226135D01*
G01X57769Y42516D02*
X59583D01*
X59912Y42187D01*
X174662D01*
X175650Y41200D01*
X182559D01*
X187523Y46163D01*
X226209D01*
G01X155071Y202611D02*
X155403D01*
X160430Y197584D01*
Y157010D01*
X182055Y135384D01*
X201670D01*
X219004Y118050D01*
Y57426D01*
X217190Y55612D01*
G01X89830Y108830D02*
Y109721D01*
X89957Y109848D01*
Y114030D01*
X90970Y115043D01*
X93100D01*
X93710Y115653D01*
Y124357D01*
X94320Y124967D01*
X95539D01*
X96149Y124357D01*
Y115653D01*
X96759Y115043D01*
X98424D01*
X99033Y114433D01*
Y111254D01*
X99643Y110644D01*
X100863D01*
X101473Y111254D01*
Y114433D01*
X102082Y115043D01*
X106158D01*
X109828Y118713D01*
Y195342D01*
X105185Y199986D01*
Y200848D01*
X108179Y203842D01*
Y204704D01*
X107316Y205567D01*
X106454D01*
X103460Y202573D01*
X102597D01*
X101090Y204080D01*
X99890D01*
G01X64720Y178582D02*
X62906D01*
X61279Y180209D01*
X54503D01*
X53440Y179146D01*
Y170667D01*
X60145Y163962D01*
Y140552D01*
X57662Y138070D01*
G01X93238Y159522D02*
Y184055D01*
G01X80380Y108830D02*
Y134764D01*
X71304Y143840D01*
X67574D01*
X62616Y148798D01*
Y170701D01*
X63804Y171889D01*
Y173703D01*
G01X168043Y93793D02*
X169857Y91979D01*
Y89105D01*
X133804Y53052D01*
X94124D01*
X92310Y51238D01*
G01X86717Y189463D02*
X62032D01*
X48680Y176111D01*
Y155440D01*
G01X168043Y89856D02*
X136001Y57814D01*
X90158D01*
X89095Y56752D01*
Y54519D01*
X90496Y53118D01*
Y50486D01*
X93254Y47728D01*
X94706D01*
X98216Y44219D01*
G01X88494Y122086D02*
X92595Y126186D01*
X96508D01*
X98350Y128029D01*
X99212D01*
X102572Y124669D01*
X103434D01*
X104296Y125532D01*
Y126394D01*
X100937Y129753D01*
Y130616D01*
X101800Y131478D01*
X102662D01*
X106021Y128118D01*
X106884D01*
X107746Y128981D01*
Y129843D01*
X104386Y133203D01*
Y134065D01*
X108609Y138287D01*
Y157648D01*
X107999Y158258D01*
X104822D01*
X104212Y158868D01*
Y160087D01*
X104822Y160697D01*
X107999D01*
X108609Y161307D01*
Y162526D01*
X107999Y163136D01*
X104822D01*
X104212Y163746D01*
Y164966D01*
X104822Y165575D01*
X107999D01*
X108609Y166185D01*
Y194837D01*
X102142Y201303D01*
X94357D01*
X91580Y204080D01*
G01X88143Y110600D02*
X81992Y116751D01*
Y128752D01*
X82602Y129362D01*
X85686D01*
X86296Y129971D01*
Y131191D01*
X85686Y131801D01*
X82602D01*
X81992Y132411D01*
Y133630D01*
X82602Y134240D01*
X85686D01*
X86296Y134850D01*
Y136069D01*
X85686Y136679D01*
X82602D01*
X81992Y137289D01*
Y138509D01*
X82602Y139118D01*
X85686D01*
X86296Y139728D01*
Y140948D01*
X85686Y141558D01*
X82602D01*
X81992Y142167D01*
Y147159D01*
X77784Y151367D01*
X72223D01*
X68915Y154675D01*
Y156178D01*
X69991Y157254D01*
X93536D01*
X95052Y158771D01*
Y184510D01*
X97334Y186791D01*
Y197802D01*
X96272Y198864D01*
X91424D01*
X89610Y197050D01*
G01X99572Y159522D02*
Y165420D01*
X98962Y166029D01*
X96882D01*
X96272Y166639D01*
Y167859D01*
X96882Y168469D01*
X98962D01*
X99572Y169078D01*
Y170298D01*
X98962Y170908D01*
X96882D01*
X96272Y171518D01*
Y172737D01*
X96882Y173347D01*
X98962D01*
X99572Y173957D01*
Y176867D01*
X100269Y177564D01*
Y178427D01*
X99356Y179340D01*
Y180202D01*
X100218Y181065D01*
X101080Y181065D01*
X101994Y180151D01*
X102856D01*
X103830Y181125D01*
Y197050D01*
G01X86405Y44219D02*
Y55786D01*
X89652Y59034D01*
X113598D01*
X168043Y113478D01*
G01X70930Y146400D02*
X66245Y151085D01*
Y161147D01*
X65635Y161757D01*
X64445D01*
X63836Y162366D01*
Y163586D01*
X64445Y164196D01*
X65635D01*
X66245Y164806D01*
Y166086D01*
X67064Y166905D01*
Y173009D01*
X63931Y176143D01*
X57506D01*
X55254Y178395D01*
G01X84436Y51238D02*
Y55542D01*
X89591Y60697D01*
X112728D01*
X159210Y107180D01*
Y113633D01*
X161024Y115447D01*
G01X55180Y99790D02*
X57183Y101793D01*
X113997D01*
X117928Y105724D01*
Y189370D01*
X117583Y189715D01*
Y211720D01*
X108409Y220894D01*
Y221726D01*
X105839Y224296D01*
G01X115461Y141124D02*
X112267Y144318D01*
Y209062D01*
X101589Y219741D01*
X95485D01*
X93856Y221370D01*
G01X86480Y155440D02*
X91059Y150861D01*
X103887D01*
X107389Y147359D01*
Y145371D01*
X104790Y142772D01*
G01X67580Y108830D02*
X69602Y106808D01*
X106126D01*
X111048Y111729D01*
Y208557D01*
X101702Y217903D01*
X93126D01*
X89659Y221370D01*
G01X217190Y65061D02*
Y118139D01*
X201165Y134165D01*
X158588D01*
X150239Y125816D01*
X148052D01*
G01X105839Y249939D02*
X127822D01*
X131681Y246080D01*
X148480D01*
X155631Y238929D01*
G01X71064Y173547D02*
X73366D01*
X88531Y188712D01*
Y190325D01*
X84841Y194016D01*
Y201030D01*
X84844Y201033D01*
Y204792D01*
X80679Y208956D01*
X75539D01*
X73340Y211156D01*
Y212902D01*
X74999Y214562D01*
Y220166D01*
X73795Y221370D01*
G01X113909Y226135D02*
Y228177D01*
X111032Y231054D01*
X105839D01*
G01X61191Y278819D02*
Y280473D01*
X58316Y283348D01*
G01X48390Y245985D02*
X48356D01*
X44834Y249507D01*
G01X237500Y315991D02*
Y307244D01*
X212570Y282314D01*
X160908D01*
X157498Y278904D01*
X115689D01*
X105839Y269054D01*
Y265760D01*
G01X50228Y278819D02*
Y305135D01*
X51448Y306355D01*
G01X40946Y242547D02*
X46663D01*
X48390Y240820D01*
G01X408000Y346009D02*
X405986Y343995D01*
X244265D01*
X231425Y356835D01*
X202937D01*
X200585Y354483D01*
Y345764D01*
X200861Y345488D01*
Y326254D01*
X155702Y281095D01*
X106048D01*
X103772Y278819D01*
G01X90758Y160449D02*
Y191576D01*
X87098Y195236D01*
G01X97334Y183836D02*
X98554Y185056D01*
Y198307D01*
X96777Y200084D01*
X93011D01*
X89766Y203329D01*
Y204832D01*
X90828Y205894D01*
X95666D01*
X97480Y204080D01*
G01X191173Y252202D02*
X187157Y248186D01*
X151860D01*
X143807Y256239D01*
X105839D01*
G01X72918Y278819D02*
X79030Y284930D01*
X107789D01*
X111100Y288241D01*
G01X105839Y262658D02*
X123310D01*
X137734Y277082D01*
X154232D01*
X156998Y274316D01*
Y273969D01*
X161759Y269208D01*
X164684D01*
X175822Y258070D01*
X185268D01*
G01X187977Y147469D02*
X175793D01*
X161650Y161613D01*
Y205546D01*
X153601Y213595D01*
X138157D01*
X131054Y220699D01*
Y229851D01*
X122344Y238561D01*
X107700D01*
X105839Y240422D01*
G01X193296Y242119D02*
X162386D01*
X157382Y237115D01*
X148469D01*
X140724Y244860D01*
X105839D01*
G01X77461Y221370D02*
X84795Y214036D01*
G01X83637Y221370D02*
X87176Y217831D01*
Y214380D01*
X89610Y211946D01*
G01X48390Y268837D02*
X42649Y263096D01*
Y252390D01*
G01X137303Y289003D02*
Y288488D01*
X131827Y283012D01*
X93731D01*
X89538Y278819D01*
G01X45426Y222512D02*
X48384D01*
X48390Y222519D01*
G01X52201Y221370D02*
X59386Y214185D01*
G01X61313Y221370D02*
Y216105D01*
X63283Y214135D01*
G01X51448Y306355D02*
X59086D01*
X60900Y304541D01*
G01X43797Y315837D02*
X51448Y308186D01*
Y306355D01*
G01X245839Y36304D02*
X272894Y63359D01*
Y228134D01*
G01X289068Y20556D02*
X259021D01*
X244025Y35553D01*
Y167604D01*
X247553Y171132D01*
Y235489D01*
G01X231741Y-1491D02*
X240991Y7759D01*
Y132519D01*
X233361Y140150D01*
G01X220762Y131131D02*
X222576Y132945D01*
X227813D01*
X229243Y131516D01*
Y13606D01*
X231741Y11108D01*
G01X278040D02*
X266745D01*
X242805Y35048D01*
Y146105D01*
X220762Y168148D01*
Y185549D01*
G01X217190Y8368D02*
X228863Y-3305D01*
X256819D01*
X268082Y7958D01*
X278040D01*
G01X230211Y140150D02*
X233755Y136606D01*
Y3673D01*
X231741Y1659D01*
G01Y4808D02*
X228023Y8527D01*
Y123032D01*
X227062Y123993D01*
Y131131D01*
G01X169404Y156424D02*
Y160866D01*
X177311Y168773D01*
X199507D01*
X208164Y177430D01*
G01X211314Y186449D02*
Y148857D01*
X217613Y142558D01*
G01X226209Y49313D02*
X220982Y54539D01*
Y78005D01*
G01X266009Y241500D02*
X263995Y239486D01*
Y186232D01*
X266604Y183623D01*
Y123306D01*
G01X269749Y134214D02*
X267823Y136139D01*
Y245686D01*
X266009Y247500D01*
G01X287059Y26856D02*
X288873Y28670D01*
Y66509D01*
X278027Y77355D01*
Y228674D01*
X285001Y235648D01*
X285075D01*
G01Y241947D02*
X276808Y233679D01*
Y68904D01*
X287059Y58653D01*
Y39454D01*
G01X285075Y231778D02*
X282857D01*
X279247Y228168D01*
Y87753D01*
X287764Y79236D01*
G01X278040Y45753D02*
X275588Y48206D01*
Y234184D01*
X284986Y243582D01*
X285075D01*
G01X208164Y140150D02*
Y148969D01*
X209978Y150783D01*
Y183693D01*
X208494Y185177D01*
Y188971D01*
G01X247699Y115447D02*
X249513Y117261D01*
Y178867D01*
X255005Y184359D01*
Y268751D01*
X253942Y269814D01*
X250333D01*
X248816Y271331D01*
G01X260929Y89364D02*
X262743Y91178D01*
Y175599D01*
X256441Y181902D01*
Y271009D01*
G01X170891Y49313D02*
X175144Y53566D01*
Y115318D01*
X182967Y123141D01*
Y131131D01*
G01X201633D02*
X199819Y132945D01*
X169033D01*
X167219Y131131D01*
G01X173848Y188971D02*
Y197922D01*
X172513Y199258D01*
Y201072D01*
G01X264557Y183057D02*
X259072Y188542D01*
Y250509D01*
G01X230207Y216448D02*
X217943Y204184D01*
Y188971D01*
G01X192746Y235270D02*
Y214562D01*
X182332Y204148D01*
X175184D01*
G01X205344Y188971D02*
Y230800D01*
X202712Y233433D01*
X201666D01*
X200381Y234719D01*
Y236222D01*
X205753Y241594D01*
X227350D01*
X238539Y252782D01*
Y265295D01*
X240792Y267548D01*
X242549D01*
X243612Y268611D01*
Y302872D01*
X241798Y304686D01*
G01X253891D02*
X254260Y304316D01*
Y290484D01*
X270857Y273888D01*
Y210966D01*
X271452Y210372D01*
Y192220D01*
X271080Y191848D01*
Y190034D01*
G01X266946Y259634D02*
X269637Y256943D01*
Y193000D01*
G01X187977Y174397D02*
X169112D01*
X162966Y180543D01*
Y234978D01*
X166292Y238304D01*
X186563D01*
X189596Y235270D01*
G01X197710Y216552D02*
Y237705D01*
X193296Y242119D01*
G01X241798Y273299D02*
X238243D01*
X230005Y265061D01*
Y264249D01*
X223570Y257814D01*
X198558D01*
X193296Y252552D01*
Y242119D01*
G01X211644Y188971D02*
Y228448D01*
X223569Y240374D01*
X229332D01*
X246051Y257093D01*
Y307878D01*
X248834Y310661D01*
G01X204600Y352820D02*
X218330D01*
X230389Y340761D01*
Y332355D01*
X238418Y324326D01*
X242749D01*
X244832Y322244D01*
Y260585D01*
X241798Y257551D01*
G01X170699Y188971D02*
Y214084D01*
G01X170369Y177430D02*
X165405Y182394D01*
Y221789D01*
X170699Y227083D01*
Y235270D01*
G01X221092D02*
X222907Y237084D01*
X234442D01*
X240353Y231174D01*
Y185006D01*
X230963Y175616D01*
X226310D01*
X221982Y179944D01*
Y185549D01*
X220762D01*
G01D02*
Y186449D01*
G01X243870Y183544D02*
X245730Y185404D01*
Y208923D01*
X243903Y210751D01*
G01X173848Y235270D02*
X172034Y237084D01*
X166798D01*
X164185Y234472D01*
Y181048D01*
X169617Y175616D01*
X171704D01*
X173518Y177430D01*
G01X233361Y186449D02*
X233734D01*
X235505Y188220D01*
Y233456D01*
X233691Y235270D01*
G01X167219Y186449D02*
X173814Y179854D01*
X193089D01*
X198599Y174344D01*
G01X230211Y177430D02*
X238539Y185758D01*
Y199077D01*
G01X267602Y320714D02*
Y320721D01*
X269410Y322528D01*
X272858D01*
X279402Y329072D01*
G01X248834Y310661D02*
X248856D01*
X249997Y309520D01*
X260729D01*
X289889Y280360D01*
Y266839D01*
G01X285075Y213600D02*
X280466Y208991D01*
Y105779D01*
X303290Y82955D01*
X313240D01*
X325196Y70999D01*
Y70288D01*
X328901Y66583D01*
X354736D01*
X384662Y36657D01*
X387448D01*
G01X346118Y176252D02*
Y176163D01*
X352020Y170260D01*
X384153D01*
X391814Y162599D01*
Y114838D01*
X385186Y108210D01*
Y93038D01*
X390814Y87409D01*
Y80719D01*
X391262Y80271D01*
Y41428D01*
X392102Y40588D01*
Y-18515D01*
X390020Y-20598D01*
G01X398349Y-15569D02*
X402773Y-11145D01*
X436325D01*
G01X407991Y118000D02*
Y149872D01*
X385164Y172699D01*
X366933D01*
X363380Y176252D01*
G01X381858Y72866D02*
X368180D01*
X354463Y86583D01*
X349978D01*
X347135Y89427D01*
X309637D01*
X285877Y113187D01*
Y176252D01*
G01X375239Y78866D02*
X370944Y83162D01*
Y149577D01*
X364016Y156505D01*
X335162D01*
X332908Y158758D01*
X308186D01*
X294186Y172758D01*
Y176252D01*
G01X340000D02*
Y170075D01*
X338186Y168261D01*
Y166758D01*
X342557Y162386D01*
X385290D01*
X388839Y158837D01*
G01X403448Y36657D02*
Y51112D01*
X394814Y59746D01*
Y161324D01*
X384658Y171480D01*
X352526D01*
X347754Y176252D01*
G01X383686Y78681D02*
Y81604D01*
X382423Y82866D01*
X381292D01*
X379186Y84973D01*
Y106594D01*
X386814Y114222D01*
Y152707D01*
X381796Y157724D01*
X338441D01*
X333780Y162386D01*
X324057D01*
X319686Y166758D01*
Y176252D01*
G01X291814D02*
Y169130D01*
X304022Y156922D01*
X321635D01*
X323314Y155242D01*
Y151740D01*
X334000Y141054D01*
Y122064D01*
X345289Y110776D01*
X348739D01*
X365334Y94181D01*
Y82113D01*
X370394Y77052D01*
X378044D01*
X381858Y80866D01*
G01X287691Y131180D02*
Y133745D01*
X304193Y150247D01*
X307060D01*
X310366Y153554D01*
G01X321500Y154491D02*
Y151700D01*
X307055Y137255D01*
X300187D01*
X291200Y128268D01*
Y122878D01*
X287691Y119369D01*
G01X339341Y131100D02*
Y135029D01*
X357866Y153554D01*
G01X445841Y217063D02*
X420858D01*
X412729Y208934D01*
X402313D01*
X399813Y206434D01*
Y189916D01*
X403313Y186416D01*
X407241D01*
X407803Y186979D01*
Y190199D01*
X405769D01*
G01X342320Y267807D02*
X358023Y283509D01*
X395439D01*
G01X499159Y238716D02*
X494862D01*
X493047Y240531D01*
X484704D01*
X454691Y270544D01*
X370356D01*
X366651Y266839D01*
G01X377402Y253730D02*
X379216Y251916D01*
X395237D01*
X405654Y262334D01*
X418195D01*
X419860Y263998D01*
G01X500968Y250528D02*
X498362D01*
X497145Y251745D01*
Y263090D01*
X497464Y263409D01*
Y264899D01*
X488161Y274202D01*
X358266D01*
X350903Y266839D01*
G01X369801D02*
X372286Y269324D01*
X451561D01*
X484199Y236686D01*
X506930D01*
X510686Y232930D01*
Y210485D01*
X516027Y205145D01*
Y190053D01*
X513509Y187535D01*
G01X499159Y245062D02*
X495174Y249047D01*
Y255965D01*
X492892Y258247D01*
X491698D01*
X489585Y260360D01*
Y261670D01*
X478272Y272983D01*
X360197D01*
X354053Y266839D01*
G01X357202D02*
X362126Y271763D01*
X457972D01*
X475271Y254465D01*
G01X389174Y240167D02*
X396789D01*
X398006Y238950D01*
Y236450D01*
X378853Y217297D01*
X376082D01*
X375657Y216871D01*
G01X396192Y238199D02*
X393835D01*
X375657Y220021D01*
G01X389174Y248041D02*
X375657Y234525D01*
Y229348D01*
G01X396192Y180573D02*
X391426Y185340D01*
X387891D01*
X379316Y193914D01*
Y203642D01*
X375657Y207301D01*
G01X285075Y215236D02*
X283053Y217258D01*
Y227725D01*
X282211Y228567D01*
G01X377992Y214263D02*
X378640D01*
X391539Y201364D01*
Y198789D01*
X396192Y194136D01*
G01X282280Y193000D02*
Y207656D01*
X285075Y210451D01*
G01X375657D02*
X382975Y203133D01*
Y191980D01*
X386725Y188230D01*
X389174D01*
G01Y178604D02*
X375657D01*
G01Y255544D02*
X392101D01*
X396192Y259636D01*
G01X403050Y362410D02*
X408000Y357460D01*
Y348575D01*
X409814Y346761D01*
Y301691D01*
X405437Y297314D01*
X404046D01*
X399814Y293082D01*
Y285318D01*
X395310Y280814D01*
X358279D01*
X344634Y267169D01*
Y266839D01*
G01X375657Y213600D02*
X386453Y202805D01*
Y194888D01*
X389174Y192167D01*
G01X433050Y352410D02*
Y304475D01*
X403997Y275422D01*
X356336D01*
X347754Y266839D01*
G01X413050Y352410D02*
Y348395D01*
X411034Y346379D01*
Y285704D01*
X401971Y276642D01*
X355831D01*
X346118Y266928D01*
Y266839D01*
G01X281009Y299500D02*
X286256D01*
X292110Y293647D01*
Y271968D01*
X297239Y266839D01*
G01X300043D02*
Y287806D01*
X307509Y295272D01*
Y299500D01*
G01X335402Y168446D02*
Y175884D01*
X335034Y176252D01*
G01X304549D02*
Y166961D01*
X310082Y161428D01*
G01X454869Y260370D02*
Y262895D01*
X451210Y266554D01*
X410955D01*
X409788Y265387D01*
X395441D01*
X390988Y260934D01*
Y260853D01*
X389616Y259481D01*
X375657D01*
G01X328866Y168446D02*
Y176120D01*
X328735Y176252D01*
G01X454674Y187535D02*
X454956Y187253D01*
X456852D01*
X457914Y186190D01*
Y183850D01*
X450102Y176038D01*
X370015D01*
X369801Y176252D01*
G01X512509Y203284D02*
X506500Y197274D01*
Y174944D01*
X500742Y169186D01*
X415990D01*
X411256Y173919D01*
X368984D01*
X366651Y176252D01*
G01X376866Y168446D02*
X374115Y165695D01*
X345248D01*
X343000Y167944D01*
Y176252D01*
G01X338700Y266839D02*
Y275688D01*
G01X321500Y176252D02*
Y167509D01*
G01X389174Y244104D02*
X379216Y234146D01*
Y229879D01*
X375657Y226320D01*
G01X396192Y242136D02*
X396546D01*
X399226Y239455D01*
Y231670D01*
X383634Y216077D01*
X377240D01*
X376399Y215236D01*
X375657D01*
G01X325127Y266839D02*
Y295702D01*
X344118Y314693D01*
X380184D01*
X398000Y332509D01*
G01X310280Y320714D02*
Y320721D01*
X313255Y323696D01*
X319526D01*
X324902Y329072D01*
G01X300043Y320714D02*
Y320721D01*
X305406Y326084D01*
X306413D01*
X309402Y329072D01*
G01X565216Y246614D02*
X554533D01*
X551551Y243632D01*
Y203477D01*
X510889Y162814D01*
X451305D01*
X444500Y156009D01*
G01X490437Y219032D02*
X481116D01*
X467402Y205318D01*
X461577D01*
X460967Y205927D01*
Y208270D01*
X460357Y208880D01*
X459138D01*
X458528Y208270D01*
Y205927D01*
X457918Y205318D01*
X439213D01*
X438603Y205927D01*
Y206816D01*
X437993Y207426D01*
X436773D01*
X436164Y206816D01*
Y205927D01*
X435554Y205318D01*
X433369D01*
X432759Y205927D01*
Y209420D01*
X432149Y210030D01*
X430930D01*
X430320Y209420D01*
Y205927D01*
X429710Y205318D01*
X422043D01*
X421433Y205927D01*
Y209482D01*
X420823Y210092D01*
X419604D01*
X418994Y209482D01*
Y205927D01*
X418384Y205318D01*
X417000D01*
X415506Y203824D01*
X405002D01*
X402252Y201074D01*
Y193981D01*
X404066Y192167D01*
G01D02*
X423387D01*
X424274Y193054D01*
X434302D01*
X443603Y183753D01*
X447011D01*
X452608Y189350D01*
X492674D01*
X495174Y191849D01*
Y218984D01*
X499159Y222968D01*
G01X501567Y221509D02*
Y223533D01*
X500317Y224783D01*
X498204D01*
X493954Y220533D01*
Y216005D01*
X473204Y195255D01*
X421556D01*
X420437Y194136D01*
X405769D01*
G01X404066Y188230D02*
X401032Y191264D01*
Y201794D01*
X404282Y205043D01*
X410815D01*
X417083Y211312D01*
X443186D01*
X447655Y215781D01*
Y221154D01*
X445841Y222968D01*
G01X444138Y219032D02*
X420528D01*
X419918Y219641D01*
Y220960D01*
X419308Y221570D01*
X418089D01*
X417479Y220960D01*
Y219641D01*
X416869Y219032D01*
X414071D01*
X407584Y212544D01*
G01X454563Y215094D02*
X452710D01*
X449960Y217845D01*
Y221687D01*
X446710Y224937D01*
X446704D01*
X444890Y226751D01*
X443386D01*
X441755Y225120D01*
X437572D01*
X436962Y224510D01*
Y221510D01*
X436352Y220900D01*
X435133D01*
X434523Y221510D01*
Y224510D01*
X433913Y225120D01*
X432694D01*
X432084Y224510D01*
Y221510D01*
X431474Y220900D01*
X430254D01*
X429645Y221510D01*
Y224510D01*
X429035Y225120D01*
X423607D01*
X422998Y225730D01*
Y229097D01*
X422388Y229706D01*
X421168D01*
X420558Y229097D01*
Y225730D01*
X419949Y225120D01*
X418729D01*
X418119Y225730D01*
Y229097D01*
X417509Y229706D01*
X416290D01*
X415680Y229097D01*
Y225730D01*
X415070Y225120D01*
X413353D01*
X412743Y225730D01*
Y227544D01*
X412134Y228154D01*
X410914D01*
X410304Y227544D01*
Y225730D01*
X409694Y225120D01*
X403129D01*
G01X405769Y238199D02*
X403469D01*
X402252Y236982D01*
Y235479D01*
X404056Y233675D01*
X417155D01*
X419904Y230926D01*
X442253D01*
X444138Y232811D01*
G01X404066Y236230D02*
X438672D01*
X439076Y236634D01*
X446651D01*
X448660Y234625D01*
X454716D01*
G01X490131Y183444D02*
X492583D01*
X496394Y187255D01*
Y191683D01*
X499491Y194780D01*
G01X503430Y273577D02*
X507058Y269949D01*
Y258738D01*
X505446Y257126D01*
Y250582D01*
X506124Y249903D01*
Y243568D01*
X503396Y240839D01*
X496366D01*
X492582Y244624D01*
X491078D01*
X491076Y244622D01*
X490131D01*
G01X490437Y187535D02*
X486994Y184092D01*
Y182358D01*
X478690Y174054D01*
X423198D01*
X421384Y172240D01*
G01X452860Y209189D02*
X455160D01*
X458080Y212109D01*
Y233826D01*
X455467Y236439D01*
X454540D01*
X448875Y242104D01*
Y243993D01*
X446432Y246436D01*
X441282D01*
X436982Y242136D01*
X405769D01*
G01X465588Y209189D02*
X462816Y211961D01*
Y231742D01*
X462838Y231763D01*
Y245217D01*
X461775Y246280D01*
X452095D01*
X445821Y252554D01*
X415452D01*
X407002Y244104D01*
X404066D01*
G01Y248041D02*
X403955Y248152D01*
Y250761D01*
X409627Y256433D01*
X441572D01*
X443189Y258050D01*
X459539D01*
X484777Y232811D01*
X492140D01*
G01X571654Y-51382D02*
Y-41603D01*
X560980Y-30930D01*
X549130D01*
G01X538600Y258049D02*
X540051Y259500D01*
X547991D01*
G01X538600Y255510D02*
Y258049D01*
G01D02*
X535310D01*
G01X534491Y207000D02*
X532066Y209425D01*
Y235872D01*
X534508Y238314D01*
X535144D01*
X538600Y241770D01*
Y255510D01*
G54D12*
X-204000Y152970D03*
X-213000Y55000D03*
X-208000Y85000D03*
X-213000D03*
X-208000Y90000D03*
X-198000Y70000D03*
X-213000D03*
X-198000Y75000D03*
X-203000D03*
X-208000D03*
X-213000D03*
X-198000Y80000D03*
X-203000D03*
X-208000D03*
X-213000D03*
X-205112Y292721D03*
X-174000Y128000D03*
X-179780Y133330D03*
X-180000Y72000D03*
Y62000D03*
Y153390D03*
X-80000Y155000D03*
X-107000D03*
X-100000D03*
X-93000D03*
X-107000Y149000D03*
X-100000D03*
X-93000D03*
X-107000Y143000D03*
X-100000D03*
X-93000D03*
X-86000Y155000D03*
X-103000Y69000D03*
X-109000Y51000D03*
X-97000Y57000D03*
X-103000D03*
X-109000D03*
X-97000Y63000D03*
X-103000D03*
X-109000D03*
X-97000Y69000D03*
X-109000D03*
X-103000Y51000D03*
X-131000Y238000D03*
X-119000Y244000D03*
X-125000D03*
X-131000D03*
X-113000Y250000D03*
X-119000D03*
X-125000D03*
X-131000D03*
X-113000Y256000D03*
X-119000D03*
X-125000D03*
X-131000D03*
X-113000Y263000D03*
X-119000D03*
X-125000D03*
X-131000D03*
X-113000Y270000D03*
X-119000D03*
X-125000D03*
X-131000D03*
X-113000Y277000D03*
X-119000D03*
X-131000D03*
X-125000Y238000D03*
X-119000D03*
X-147390Y258000D03*
X-125000Y277000D03*
X-113000Y244000D03*
Y238000D03*
X-146900Y267850D03*
X-176839Y275168D03*
X-177428Y267040D03*
X-101723Y347559D03*
X-142107Y288991D03*
X-38491Y116301D03*
X-39170Y55769D03*
X-39030Y140500D03*
X-38960Y80205D03*
X-17500Y244510D03*
X-75500Y252040D03*
X-26500Y228910D03*
X-1251Y240357D03*
X364000Y310000D03*
G54D22*
G01X1179Y274760D02*
X-5739D01*
X-5809Y274830D01*
G01Y282290D02*
X-5759Y282240D01*
X491D01*
G01X507260Y253720D02*
X514821Y246159D01*
Y244308D01*
X515998Y243132D01*
X517178D01*
X517500Y242809D01*
G01X535310Y245231D02*
X534022Y246518D01*
X521418D01*
X517709Y242809D01*
X517500D01*
G54D13*
X-143288Y161219D03*
Y191219D03*
X-98653Y186488D03*
Y216488D03*
X16479Y221803D03*
Y241803D03*
X398500Y22000D03*
X330134Y113481D03*
Y133481D03*
X383000Y119000D03*
Y139000D03*
X418500Y22000D03*
X536050Y58030D03*
X556050D03*
X555216Y242114D03*
X575216Y206114D03*
Y215114D03*
Y224114D03*
Y233114D03*
Y242114D03*
X565216Y210614D03*
Y219614D03*
Y228614D03*
Y237614D03*
Y246614D03*
X555216Y206114D03*
Y215114D03*
Y224114D03*
Y233114D03*
G54D23*
G01X-5809Y274830D02*
Y252000D01*
G01Y282290D02*
Y274830D01*
G01X-1140Y300890D02*
X-5809Y296221D01*
Y282290D01*
G54D14*
X-160920Y263000D03*
X-160950Y243000D03*
X-160600Y253000D03*
X449500Y99088D03*
Y83144D03*
X502251Y52461D03*
X501939Y77461D03*
G54D24*
G01X0Y374016D02*
Y319026D01*
X-2095Y316931D01*
X-79447D01*
X-83194Y320678D01*
Y375396D01*
X-85629Y377831D01*
X-219011D01*
X-222570Y374272D01*
Y162352D01*
X-319702D01*
X-319983Y162633D01*
X-322043Y160573D01*
Y41195D01*
X-318858Y38010D01*
X-38234D01*
X-35237Y35013D01*
Y918D01*
X14781Y-49100D01*
X356850D01*
G01X0Y374014D02*
Y374016D01*
X590551D01*
Y-137795D01*
X535433D01*
Y-55118D01*
G01X46000Y0D02*
Y-37000D01*
X81000D01*
Y0D01*
X46000D01*
G01X97000D02*
Y-19000D01*
X167000D01*
Y0D01*
X97000D01*
G01X331000D02*
Y-35000D01*
X367000D01*
Y0D01*
X331000D01*
G01X535361Y-49100D02*
X354324D01*
G01X535433Y-55119D02*
Y-49100D01*
X535361D01*
G54D15*
X41654Y15748D03*
Y352402D03*
X370500Y328000D03*
X514094Y-37598D03*
X565216Y274281D03*
Y175947D03*
X562378Y303640D03*
X567284Y352337D03*
X580284Y334837D03*
X554284D03*
G54D16*
X18280Y-24080D03*
X28280D03*
X-13810Y31800D03*
Y41800D03*
Y71800D03*
Y61800D03*
Y51800D03*
X-13500Y282500D03*
X23510Y326740D03*
X13510D03*
X13090Y361990D03*
Y351990D03*
X-13500Y302500D03*
Y292500D03*
X138940Y240570D03*
Y250570D03*
Y260570D03*
Y270570D03*
X77670Y362500D03*
X87670Y352500D03*
Y362500D03*
X97670Y352500D03*
Y362500D03*
X107670Y352500D03*
Y362500D03*
X117670Y352500D03*
Y362500D03*
X77670Y352500D03*
X257680Y-37550D03*
X267680D03*
X277680D03*
X164600Y362820D03*
X174600Y352820D03*
Y362820D03*
X184600Y352820D03*
Y362820D03*
X194600Y352820D03*
Y362820D03*
X204600Y352820D03*
Y362820D03*
X164600Y352820D03*
X287680Y-37550D03*
X297680D03*
X307680D03*
X403050Y362410D03*
Y352410D03*
X413050D03*
Y362410D03*
X423050Y352410D03*
X433050D03*
Y362410D03*
X443050Y352410D03*
Y362410D03*
X453050Y352410D03*
Y362410D03*
X463050Y352410D03*
Y362410D03*
G54D17*
X7400Y31860D03*
Y15360D03*
Y360D03*
X-12340Y139940D03*
X19000Y206000D03*
X2460Y241005D03*
X18500Y257500D03*
X43500Y282000D03*
X43797Y315837D03*
Y308337D03*
X281000Y280500D03*
X281656Y364090D03*
Y356216D03*
X273782Y364090D03*
Y356216D03*
X265908Y364090D03*
Y356216D03*
X258034Y364090D03*
Y356216D03*
X250160Y364090D03*
Y356216D03*
X242286Y364090D03*
Y356216D03*
X340000Y280000D03*
X368270Y356216D03*
X360396Y364090D03*
Y356216D03*
X352522Y364090D03*
Y356216D03*
X344648Y364090D03*
Y356216D03*
X336774Y364090D03*
Y356216D03*
X328900Y364090D03*
Y356216D03*
X321026Y364090D03*
Y356216D03*
X313152Y364090D03*
Y356216D03*
X305278Y364090D03*
Y356216D03*
X297404Y364090D03*
Y356216D03*
X289530Y364090D03*
Y356216D03*
X368270Y364090D03*
X403500Y283000D03*
X542716Y84660D03*
X532716Y89660D03*
X542716Y94660D03*
X532716Y99660D03*
X542716Y104660D03*
X532716Y109660D03*
X542716Y114660D03*
X532716Y119660D03*
G54D18*
X448380Y287010D03*
X478301D03*
X497986D03*
X517671D03*
Y316931D03*
X497986D03*
X478301D03*
X448380D03*
X571654Y-106513D03*
X561654Y-96513D03*
X581654D03*
Y-116513D03*
X561654D03*
X571654Y-51382D03*
X561654Y-41382D03*
X581654D03*
Y-61382D03*
X561654D03*
G54D19*
X567916Y81060D03*
Y123160D03*
M02*
