G04 ================== begin FILE IDENTIFICATION RECORD ==================*
G04 Layout Name:  E:/project/IRISking/ikemb-0001/project/hardware/DM642/v4/EMB001-V4.1.brd*
G04 Film Name:    Solder_Bottom*
G04 File Format:  Gerber RS274X*
G04 File Origin:  16.0-p002*
G04 Origin Date:  Tue Aug 02 10:37:41 2011*
G04 *
G04 Layer:  PIN/SOLDERMASK_BOTTOM*
G04 Layer:  BOARD GEOMETRY/OUTLINE*
G04 *
G04 Offset:    (0.000 0.000)*
G04 Mirror:    No*
G04 Mode:      Positive*
G04 Rotation:  0*
G04 FullContactRelief:  No*
G04 UndefLineWidth:     8.000*
G04 ================== end FILE IDENTIFICATION RECORD ====================*
%FSLAX55Y55*MOIN*%
%IR0*IPPOS*OFA0.00000B0.00000*MIA0B0*SFA1.00000B1.00000*%
%AMMACRO28*
21,1,.033,.028,0.0,0.0,135.*%
%ADD28MACRO28*%
%ADD14C,.21*%
%ADD31C,.128*%
%ADD33R,.068X.138*%
%ADD32C,.138*%
%ADD15R,.07X.07*%
%ADD20R,.07X.07*%
%AMMACRO27*
21,1,.033,.028,0.0,0.0,45.*%
%ADD27MACRO27*%
%ADD25R,.028X.033*%
%ADD13R,.082988X.207988*%
%ADD26R,.033X.028*%
%ADD19R,.036X.046*%
%ADD18R,.023X.068*%
%ADD10R,.046X.036*%
%ADD16C,.07*%
%ADD30R,.048X.018*%
%ADD22R,.056X.066*%
%AMMACRO24*
21,1,.08,.06,0.0,0.0,90.091*%
%ADD24MACRO24*%
%ADD21R,.066X.056*%
%ADD29R,.058X.058*%
%ADD12C,.075*%
%ADD17C,.058*%
%ADD11C,.088*%
%ADD34R,.075X.075*%
%ADD23R,.066X.066*%
%ADD35C,.008*%
G75*
%LPD*%
G75*
G54D10*
X-203500Y121000D03*
Y127500D03*
X-198000Y56500D03*
X-204000D03*
X-198000Y63000D03*
X-204000D03*
X-203500Y114500D03*
X-198000Y50000D03*
X-204000D03*
X-150000Y131500D03*
X-144000D03*
X-151000Y72500D03*
X-145000D03*
X-197500Y121000D03*
X-144000Y113500D03*
X-150000D03*
X-197500Y127500D03*
X-131000Y113500D03*
X-137000D03*
X-144000Y119500D03*
X-150000D03*
X-145000Y54500D03*
X-151000D03*
X-132000D03*
X-138000D03*
X-145000Y60500D03*
X-151000D03*
X-197500Y114500D03*
X-150000Y107500D03*
X-144000D03*
X-137000D03*
X-131000D03*
X-137000Y119500D03*
X-131000D03*
X-144000Y125500D03*
X-150000D03*
X-151000Y48500D03*
X-145000D03*
X-138000D03*
X-132000D03*
X-138000Y60500D03*
X-132000D03*
X-145000Y66500D03*
X-151000D03*
X-171000Y263000D03*
X-165000D03*
Y246000D03*
X-171000D03*
X-80000Y274500D03*
X-165000Y253000D03*
X-171000D03*
X-80000Y282000D03*
Y290500D03*
X16280Y-9080D03*
X22280D03*
X-10100Y15860D03*
X-4100D03*
X-9600Y360D03*
X-3600D03*
X16280Y-16080D03*
X22280D03*
X21060Y56100D03*
X27060D03*
X26960Y71830D03*
X20960D03*
X-27700Y68130D03*
X-21700D03*
Y58130D03*
X-27700D03*
X-21700Y48130D03*
X-27700D03*
X-6790Y103060D03*
X-12790D03*
X-6910Y115540D03*
X-12910D03*
X-7030Y121790D03*
X-13030D03*
X-6790Y109300D03*
X-12790D03*
X-50000Y226000D03*
X-44000D03*
X-63000Y214000D03*
X-57000D03*
X-50000Y208000D03*
X-44000D03*
X-50000Y220000D03*
X-44000D03*
X29500Y259500D03*
X35500D03*
X29500Y271500D03*
X35500D03*
X8000Y235500D03*
X14000D03*
X8000Y228500D03*
X14000D03*
X29978Y225099D03*
X35978D03*
X-74000Y274500D03*
X30000Y233500D03*
X36000D03*
X29500Y265500D03*
X35500D03*
X8000Y271500D03*
X2000D03*
X-67000Y257000D03*
X-61000D03*
X-67000Y269000D03*
X-61000D03*
X-67000Y263000D03*
X-61000D03*
X-53500Y257000D03*
X-47500D03*
X-53500Y263000D03*
X-47500D03*
X-53500Y269000D03*
X-47500D03*
X-63000Y232500D03*
X-57000D03*
Y220000D03*
X-63000D03*
X-57000Y226000D03*
X-63000D03*
X-50000Y214000D03*
X-44000D03*
X29500Y277500D03*
X35500D03*
X-57000Y208000D03*
X-63000D03*
X-50000Y232500D03*
X-44000D03*
X15000Y271500D03*
X21000D03*
X-53500Y297000D03*
X-47500D03*
X29500Y283500D03*
X35500D03*
X-74000Y282000D03*
Y290500D03*
X22030Y289280D03*
X16030D03*
X-60500Y297000D03*
X-66500D03*
X14530Y307780D03*
X20530D03*
X7500Y289000D03*
X1500D03*
X85900Y31880D03*
X91900D03*
X67900D03*
X73900D03*
X106400D03*
X112400D03*
X81600Y56000D03*
X87600D03*
X43620D03*
X49620D03*
X102720Y71830D03*
X108720D03*
X49520D03*
X43520D03*
X102410Y55790D03*
X108410D03*
X81920Y71930D03*
X87920D03*
X119750Y271090D03*
X113750D03*
X119750Y253090D03*
X113750D03*
X119750Y241090D03*
X113750D03*
X119750Y259090D03*
X113750D03*
X128380Y222820D03*
X134380D03*
X113690Y223030D03*
X119690D03*
X113790Y235240D03*
X119790D03*
X119750Y247090D03*
X113750D03*
X119790Y229240D03*
X113790D03*
X119750Y265090D03*
X113750D03*
X119750Y277090D03*
X113750D03*
X80000Y254000D03*
X74000D03*
Y246500D03*
X80000D03*
X139450Y312700D03*
X145450D03*
X124550Y300230D03*
X130550D03*
X124760Y287820D03*
X130760D03*
Y294030D03*
X124760D03*
X261780Y37880D03*
X255780D03*
X272130D03*
X278130D03*
X272550Y22460D03*
X278550D03*
X208800Y36960D03*
X214800D03*
X208800Y21960D03*
X214800D03*
X188800Y39960D03*
X182800D03*
X226900Y104940D03*
X232900D03*
X179190Y104220D03*
X173190D03*
X256860Y146270D03*
X250860D03*
X232590Y115600D03*
X226590D03*
X262510Y275200D03*
X256510D03*
X172000Y268500D03*
X166000D03*
X231500Y265000D03*
X237500D03*
X172000Y280500D03*
X166000D03*
X256500Y268000D03*
X262500D03*
X172000Y250000D03*
X166000D03*
X172000Y262500D03*
X166000D03*
Y256000D03*
X172000D03*
X256500Y193000D03*
X262500D03*
Y187000D03*
X256500D03*
X262500Y199000D03*
X256500D03*
Y211000D03*
X262500D03*
Y235500D03*
X256500D03*
X172000Y274500D03*
X166000D03*
X256500Y241500D03*
X262500D03*
X256500Y217000D03*
X262500D03*
X256500Y247500D03*
X262500D03*
Y223000D03*
X256500D03*
X262500Y229000D03*
X256500D03*
Y205000D03*
X262500D03*
X237500Y273000D03*
X231500D03*
X237500Y279000D03*
X231500D03*
X172500Y318500D03*
X166500D03*
X231500Y300500D03*
X237500D03*
X231500Y312500D03*
X237500D03*
X217490Y312650D03*
X211490D03*
X231500Y337000D03*
X237500D03*
X251500Y337500D03*
X257500D03*
X251500Y325000D03*
X257500D03*
X231500D03*
X237500D03*
Y331000D03*
X231500D03*
Y319000D03*
X237500D03*
X231500Y306500D03*
X237500D03*
X257500Y331500D03*
X251500D03*
Y318500D03*
X257500D03*
X237500Y285000D03*
X231500D03*
X172500Y309000D03*
X166500D03*
X165950Y292390D03*
X171950D03*
X165950Y286390D03*
X171950D03*
X297570Y35050D03*
X303570D03*
Y29050D03*
X297570D03*
X346680Y28760D03*
X352680D03*
Y22260D03*
X346680D03*
X317700Y41640D03*
X323700D03*
X317700Y35140D03*
X323700D03*
X297570Y42550D03*
X303570D03*
X297570Y55050D03*
X303570D03*
X332480Y141290D03*
X326480D03*
X303390Y101330D03*
X297390D03*
X343180Y107760D03*
X337180D03*
X297570Y74550D03*
X303570D03*
X303980Y117290D03*
X309980D03*
X387000Y145000D03*
X381000D03*
X384130Y105210D03*
X378130D03*
X352180Y101260D03*
X346180D03*
X346680Y42260D03*
X352680D03*
X346680Y55260D03*
X352680D03*
X346680Y61760D03*
X352680D03*
X353630Y117710D03*
X359630D03*
X297570Y49050D03*
X303570D03*
X327480Y123790D03*
X333480D03*
X297570Y81050D03*
X303570D03*
X380000Y127000D03*
X386000D03*
X352680Y48760D03*
X346680D03*
X317700Y48140D03*
X323700D03*
X317700Y54640D03*
X323700D03*
X373000Y288500D03*
X367000D03*
X406189Y26469D03*
X412189D03*
X446444Y75872D03*
X452444D03*
X459500Y45500D03*
X465500D03*
X446500D03*
X452500D03*
X446500Y69620D03*
X452500D03*
X446500Y63620D03*
X452500D03*
X452474Y57663D03*
X446474D03*
X452500Y51500D03*
X446500D03*
X516500Y52500D03*
X510500D03*
X516000Y70500D03*
X510000D03*
X515500Y161000D03*
X509500D03*
X430730Y238740D03*
X436730D03*
X430730Y209240D03*
X436730D03*
X430730Y250740D03*
X436730D03*
X430730Y264740D03*
X436730D03*
X430730Y197240D03*
X436730D03*
X430730Y184740D03*
X436730D03*
X509000Y239500D03*
X503000D03*
X509000Y228000D03*
X503000D03*
X510000Y189000D03*
X504000D03*
X510000Y174000D03*
X504000D03*
X430730Y258740D03*
X436730D03*
X508500Y207040D03*
X514500D03*
X436730Y172240D03*
X430730D03*
X436730Y178240D03*
X430730D03*
Y215240D03*
X436730D03*
X430730Y191240D03*
X436730D03*
Y227070D03*
X430730D03*
X436730Y221240D03*
X430730D03*
X436730Y203240D03*
X430730D03*
X436730Y244740D03*
X430730D03*
X515000Y181000D03*
X509000D03*
X508400Y221320D03*
X514400D03*
X436730Y232740D03*
X430730D03*
X518440Y357570D03*
Y342050D03*
Y349700D03*
X564500Y-81500D03*
X570500D03*
X564500Y-73500D03*
X570500D03*
X524000Y70500D03*
X530000D03*
X524000Y77500D03*
X530000D03*
X574500Y53170D03*
X580500D03*
X575080Y134840D03*
X581080D03*
X568000Y160000D03*
X562000D03*
X561500Y198000D03*
X567500D03*
Y192000D03*
X561500D03*
X551500Y252000D03*
X557500D03*
Y259500D03*
X551500D03*
X524440Y357570D03*
Y342050D03*
Y349700D03*
G54D11*
X-272000Y140000D03*
X-252000D03*
X-302000Y60000D03*
X-222000D03*
X-204651Y329847D03*
X-123922D03*
X581864Y15421D03*
X562179Y35106D03*
Y-4264D03*
Y15421D03*
X581864Y-4264D03*
Y35106D03*
X562179Y25264D03*
Y5578D03*
X555216Y72460D03*
Y131760D03*
G54D20*
X-13810Y71800D03*
X13090Y361990D03*
X-13500Y302500D03*
X138940Y240570D03*
G54D12*
X-143288Y161219D03*
Y191219D03*
X-98653Y186488D03*
Y216488D03*
X16479Y221803D03*
Y241803D03*
X398500Y22000D03*
X330134Y113481D03*
Y133481D03*
X383000Y119000D03*
Y139000D03*
X418500Y22000D03*
X536050Y58030D03*
X556050D03*
X575216Y206114D03*
Y215114D03*
Y224114D03*
Y233114D03*
Y242114D03*
X565216Y210614D03*
Y219614D03*
Y228614D03*
Y237614D03*
Y246614D03*
X555216Y206114D03*
Y215114D03*
Y224114D03*
Y233114D03*
G54D21*
X7500Y252000D03*
X-1500D03*
X7500Y263000D03*
X-1500D03*
G54D30*
X449350Y179661D03*
Y181630D03*
Y183598D03*
Y185567D03*
Y187535D03*
Y189504D03*
Y191472D03*
Y193441D03*
Y195409D03*
Y197378D03*
Y199346D03*
Y201315D03*
Y203284D03*
Y205252D03*
Y207220D03*
Y209189D03*
Y211157D03*
Y213126D03*
Y215094D03*
Y217063D03*
Y219032D03*
Y221000D03*
Y222968D03*
Y224937D03*
Y226905D03*
Y228874D03*
Y230843D03*
Y232811D03*
Y234780D03*
Y236748D03*
Y238716D03*
Y240685D03*
Y242654D03*
Y244622D03*
Y246591D03*
Y248559D03*
Y250528D03*
Y252496D03*
Y254465D03*
Y256433D03*
Y258402D03*
Y260370D03*
Y262339D03*
X495650D03*
Y260370D03*
Y258402D03*
Y256433D03*
Y254465D03*
Y252496D03*
Y250528D03*
Y248559D03*
Y246591D03*
Y244622D03*
Y242654D03*
Y240685D03*
Y238716D03*
Y236748D03*
Y234780D03*
Y232811D03*
Y230843D03*
Y228874D03*
Y226905D03*
Y224937D03*
Y222968D03*
Y221000D03*
Y219032D03*
Y217063D03*
Y215094D03*
Y213126D03*
Y211157D03*
Y209189D03*
Y207220D03*
Y205252D03*
Y203284D03*
Y201315D03*
Y199346D03*
Y197378D03*
Y195409D03*
Y193441D03*
Y191472D03*
Y189504D03*
Y187535D03*
Y185567D03*
Y183598D03*
Y181630D03*
Y179661D03*
G54D22*
X-4500Y183000D03*
Y174000D03*
X11000Y183500D03*
Y174500D03*
X301980Y124290D03*
Y133290D03*
X347630Y125210D03*
Y134210D03*
G54D13*
X-194981Y292721D03*
X-169981D03*
G54D31*
X448380Y287010D03*
X478301D03*
X497986D03*
X517671D03*
Y316931D03*
X497986D03*
X478301D03*
X448380D03*
X571654Y-106513D03*
X561654Y-96513D03*
X581654D03*
Y-116513D03*
X561654D03*
X571654Y-51382D03*
X561654Y-41382D03*
X581654D03*
Y-61382D03*
X561654D03*
G54D23*
X-47000Y241500D03*
X-60000D03*
X-63500Y277500D03*
X-50500D03*
X5000Y280500D03*
X18000D03*
X-63500Y306000D03*
X-50500D03*
X-63500Y288500D03*
X-50500D03*
X30530Y298780D03*
X17530D03*
X273000Y257500D03*
Y270500D03*
X332860Y91700D03*
X319860D03*
X369130Y98710D03*
Y111710D03*
X389000Y65000D03*
Y78000D03*
X401000Y79000D03*
X383000Y309500D03*
X370000D03*
Y297500D03*
X383000D03*
X510490Y44310D03*
X523000Y89500D03*
X510000D03*
X449500Y104500D03*
Y91500D03*
X426000Y65000D03*
Y78000D03*
X414000Y79000D03*
X417000Y298500D03*
Y311500D03*
X523490Y44310D03*
G54D32*
X567916Y81060D03*
Y123160D03*
G54D14*
X41654Y15748D03*
Y352402D03*
X514094Y-37598D03*
X562378Y303640D03*
G54D24*
X213590Y284160D03*
X191590D03*
Y300160D03*
X213590D03*
G54D15*
X18280Y-24080D03*
X23510Y326740D03*
X77670Y352500D03*
X257680Y-37550D03*
X164600Y352820D03*
X403050Y352410D03*
G54D33*
X524000Y151500D03*
X543000D03*
Y202000D03*
X524000D03*
Y236500D03*
X543000D03*
Y219000D03*
X524000D03*
X543000Y185000D03*
X524000D03*
Y168000D03*
X543000D03*
G54D34*
X555216Y242114D03*
G54D16*
X28280Y-24080D03*
X-13810Y31800D03*
Y41800D03*
Y61800D03*
Y51800D03*
X-13500Y282500D03*
X13510Y326740D03*
X13090Y351990D03*
X-13500Y292500D03*
X138940Y250570D03*
Y260570D03*
Y270570D03*
X77670Y362500D03*
X87670Y352500D03*
Y362500D03*
X97670Y352500D03*
Y362500D03*
X107670Y352500D03*
Y362500D03*
X117670Y352500D03*
Y362500D03*
X267680Y-37550D03*
X277680D03*
X164600Y362820D03*
X174600Y352820D03*
Y362820D03*
X184600Y352820D03*
Y362820D03*
X194600Y352820D03*
Y362820D03*
X204600Y352820D03*
Y362820D03*
X287680Y-37550D03*
X297680D03*
X307680D03*
X403050Y362410D03*
X370500Y328000D03*
X413050Y352410D03*
Y362410D03*
X423050Y352410D03*
X433050D03*
Y362410D03*
X443050Y352410D03*
Y362410D03*
X453050Y352410D03*
Y362410D03*
X463050Y352410D03*
Y362410D03*
X565216Y274281D03*
Y175947D03*
X567284Y352337D03*
X580284Y334837D03*
X554284D03*
G54D25*
X345500Y206500D03*
Y211500D03*
X341000Y236000D03*
Y231000D03*
X319500Y206500D03*
Y211500D03*
Y236000D03*
Y231000D03*
X328500Y236000D03*
Y231000D03*
X341000Y206500D03*
Y211500D03*
X332500Y236000D03*
Y231000D03*
X328500Y206500D03*
Y211500D03*
X315000Y206500D03*
Y211500D03*
Y236000D03*
Y231000D03*
X345500Y236000D03*
Y231000D03*
X324000Y211500D03*
Y206500D03*
Y231000D03*
Y236000D03*
X337000Y211500D03*
Y206500D03*
X315000Y196500D03*
Y201500D03*
Y246000D03*
Y241000D03*
X345500Y246000D03*
Y241000D03*
Y196500D03*
Y201500D03*
X352020Y224120D03*
Y219120D03*
X337000Y231000D03*
Y236000D03*
X332500Y206500D03*
Y211500D03*
X309390Y224120D03*
Y219120D03*
X337776Y258504D03*
Y253504D03*
X342027Y253485D03*
Y258485D03*
X310000Y251000D03*
Y256000D03*
X327325Y192496D03*
Y187496D03*
X373968Y183108D03*
Y188108D03*
X322838Y192496D03*
Y187496D03*
X287118Y258740D03*
Y253740D03*
X287178Y183521D03*
Y188521D03*
X377687Y207374D03*
Y202374D03*
X380521Y259920D03*
Y254920D03*
X284757Y222075D03*
Y227075D03*
X302294Y218592D03*
Y213592D03*
G54D35*
G01X0Y374016D02*
Y319026D01*
X-2095Y316931D01*
X-79447D01*
X-83194Y320678D01*
Y375396D01*
X-85629Y377831D01*
X-219011D01*
X-222570Y374272D01*
Y162352D01*
X-319702D01*
X-319983Y162633D01*
X-322043Y160573D01*
Y41195D01*
X-318858Y38010D01*
X-38234D01*
X-35237Y35013D01*
Y918D01*
X14781Y-49100D01*
X356850D01*
G01X0Y374014D02*
Y374016D01*
X590551D01*
Y-137795D01*
X535433D01*
Y-55118D01*
G01X46000Y0D02*
Y-37000D01*
X81000D01*
Y0D01*
X46000D01*
G01X97000D02*
Y-19000D01*
X167000D01*
Y0D01*
X97000D01*
G01X331000D02*
Y-35000D01*
X367000D01*
Y0D01*
X331000D01*
G01X535361Y-49100D02*
X354324D01*
G01X535433Y-55119D02*
Y-49100D01*
X535361D01*
G54D17*
X7400Y31860D03*
Y15360D03*
Y360D03*
X-12340Y139940D03*
X19000Y206000D03*
X2460Y241005D03*
X18500Y257500D03*
X43500Y282000D03*
X43797Y315837D03*
Y308337D03*
X281000Y280500D03*
X281656Y364090D03*
Y356216D03*
X273782Y364090D03*
Y356216D03*
X265908Y364090D03*
Y356216D03*
X258034Y364090D03*
Y356216D03*
X250160Y364090D03*
Y356216D03*
X242286Y364090D03*
Y356216D03*
X340000Y280000D03*
X368270Y356216D03*
X360396Y364090D03*
Y356216D03*
X352522Y364090D03*
Y356216D03*
X344648Y364090D03*
Y356216D03*
X336774Y364090D03*
Y356216D03*
X328900Y364090D03*
Y356216D03*
X321026Y364090D03*
Y356216D03*
X313152Y364090D03*
Y356216D03*
X305278Y364090D03*
Y356216D03*
X297404Y364090D03*
Y356216D03*
X289530Y364090D03*
Y356216D03*
X403500Y283000D03*
X542716Y84660D03*
X532716Y89660D03*
X542716Y94660D03*
X532716Y99660D03*
X542716Y104660D03*
X532716Y109660D03*
X542716Y114660D03*
X532716Y119660D03*
G54D26*
X345000Y226000D03*
X340000D03*
X315500Y221500D03*
X320500D03*
X315500Y226000D03*
X320500D03*
X345000Y217000D03*
X340000D03*
X315500D03*
X320500D03*
X345000Y221500D03*
X340000D03*
X291500Y264500D03*
X296500D03*
X369000D03*
X364000D03*
X305500Y206000D03*
X310500D03*
X305500Y236500D03*
X310500D03*
X369000Y178500D03*
X364000D03*
X291500D03*
X296500D03*
X355000Y236500D03*
X350000D03*
X333580Y243650D03*
X328580D03*
X332930Y200060D03*
X327930D03*
X355000Y206500D03*
X350000D03*
X333000Y226500D03*
X328000D03*
Y216000D03*
X333000D03*
Y221500D03*
X328000D03*
X358617Y231109D03*
X363617D03*
X330986Y178267D03*
X325986D03*
G54D18*
X39233Y104313D03*
X36083D03*
X32934D03*
X29784D03*
X26635D03*
X23485D03*
Y150927D03*
X26635D03*
X29784D03*
X32934D03*
X36083D03*
X39233D03*
X105375Y104313D03*
X102225D03*
X99076D03*
X95926D03*
X92776D03*
X89627D03*
X86477D03*
X83328D03*
X80178D03*
X77028D03*
X73879D03*
X70729D03*
X67580D03*
X64430D03*
X61280D03*
X58131D03*
X54981D03*
X51832D03*
X48682D03*
X45532D03*
X42383D03*
Y150927D03*
X45532D03*
X48682D03*
X51832D03*
X54981D03*
X58131D03*
X61280D03*
X64430D03*
X67580D03*
X70729D03*
X73879D03*
X77028D03*
X80178D03*
X83328D03*
X86477D03*
X89627D03*
X92776D03*
X95926D03*
X99076D03*
X102225D03*
X105375D03*
G54D27*
X302040Y193230D03*
X305576Y196766D03*
X358670Y249890D03*
X355134Y246355D03*
G54D19*
X23230Y89840D03*
Y95840D03*
X24000Y159000D03*
X-64500Y196500D03*
Y190500D03*
X-65000Y182000D03*
Y176000D03*
X-59000D03*
Y182000D03*
X-53000D03*
Y176000D03*
X-47000D03*
Y182000D03*
X24000Y165000D03*
X-31000Y182000D03*
Y176000D03*
X-37000D03*
Y182000D03*
X3000Y179500D03*
Y173500D03*
X-31500Y283000D03*
Y289000D03*
X45170Y159390D03*
X65250D03*
X127660Y129370D03*
Y135370D03*
X143280Y129580D03*
Y135580D03*
X127450Y106500D03*
Y112500D03*
X143280Y106290D03*
Y112290D03*
X105200Y90670D03*
Y96670D03*
X85540Y96460D03*
Y90460D03*
X64840D03*
Y96460D03*
X104790Y159390D03*
X43520Y90250D03*
Y96250D03*
X85540Y159390D03*
X66315Y201461D03*
Y207461D03*
X45170Y165390D03*
X65250D03*
X143280Y187950D03*
Y193950D03*
X127450Y163840D03*
Y169840D03*
X104790Y165390D03*
X85540D03*
X127550Y187950D03*
Y193950D03*
X143390Y163840D03*
Y169840D03*
X86655Y201759D03*
Y207759D03*
X67630Y297750D03*
Y291750D03*
X54400Y316390D03*
Y310390D03*
X60900Y316390D03*
Y310390D03*
X55320Y297960D03*
Y291960D03*
X117310Y297650D03*
Y291650D03*
X86260Y297750D03*
Y291750D03*
X104580Y297750D03*
Y291750D03*
X98470Y297850D03*
Y291850D03*
X92370Y291750D03*
Y297750D03*
X73740Y291650D03*
Y297650D03*
X61530Y291850D03*
Y297850D03*
X80050Y291750D03*
Y297750D03*
X111100Y291750D03*
Y297750D03*
X157510Y336160D03*
Y330160D03*
X198860Y153070D03*
Y147070D03*
X198750Y210200D03*
Y204200D03*
X181000Y262000D03*
Y256000D03*
X224500Y262000D03*
Y256000D03*
X217690Y222620D03*
Y228620D03*
X201960Y222310D03*
Y228310D03*
Y165390D03*
Y171390D03*
X217490Y165700D03*
Y171700D03*
X196500Y262000D03*
Y256000D03*
X209500Y262000D03*
Y256000D03*
X281500Y267000D03*
Y261000D03*
X203100Y255970D03*
Y261970D03*
X188820Y256070D03*
Y262070D03*
X219500Y321500D03*
Y327500D03*
X179000Y321500D03*
Y327500D03*
X211000Y321500D03*
Y327500D03*
X187000Y321500D03*
Y327500D03*
X278000Y305500D03*
Y299500D03*
X170510Y330160D03*
Y336160D03*
X164010D03*
Y330160D03*
X390063Y25212D03*
Y19212D03*
X359180Y42260D03*
X310070Y41550D03*
Y35550D03*
X359180Y35260D03*
Y29260D03*
X310070Y93550D03*
Y87550D03*
X297070Y94550D03*
Y88550D03*
X303570Y94550D03*
Y88550D03*
X346680Y94760D03*
Y88760D03*
X353180Y94760D03*
Y88760D03*
X359180Y100760D03*
Y94760D03*
X309980Y124290D03*
Y130290D03*
X393000Y88500D03*
Y94500D03*
X361630Y124710D03*
Y130710D03*
X385500Y53500D03*
Y47500D03*
X310070Y54550D03*
Y48550D03*
Y67550D03*
Y61550D03*
X359180Y48260D03*
Y61260D03*
Y55260D03*
X289070Y100550D03*
Y94550D03*
X327500Y158000D03*
X283500D03*
X399000Y94500D03*
Y88500D03*
X381000Y94500D03*
Y88500D03*
X387000D03*
Y94500D03*
X302000Y158000D03*
X296000D03*
X315500D03*
X321500D03*
X346000D03*
X352000D03*
X290000D03*
X369000D03*
X340000D03*
X334000D03*
X358000D03*
X310070Y80550D03*
Y74550D03*
X353180Y81260D03*
Y75260D03*
X355630Y124710D03*
Y130710D03*
X359180Y81760D03*
Y87760D03*
Y74760D03*
Y68760D03*
X398000Y62500D03*
Y68500D03*
X327500Y164000D03*
X283500D03*
X302000D03*
X296000D03*
X315500D03*
X321500D03*
X346000D03*
X352000D03*
X290000D03*
X369000D03*
X340000D03*
X334000D03*
X358000D03*
X323000Y305500D03*
Y299500D03*
X359000Y305500D03*
Y299500D03*
X287000Y305500D03*
Y299500D03*
X341000Y305500D03*
Y299500D03*
X332000Y305500D03*
Y299500D03*
X350000Y305500D03*
Y299500D03*
X313500D03*
Y305500D03*
X304500D03*
Y299500D03*
X296000D03*
Y305500D03*
X401500Y342500D03*
Y336500D03*
X400500Y327000D03*
Y321000D03*
X394500D03*
Y327000D03*
X388500D03*
Y321000D03*
X389000Y336500D03*
Y342500D03*
X395000Y336500D03*
Y342500D03*
X426996Y25332D03*
Y19332D03*
X416000Y54000D03*
Y48000D03*
X404000Y54000D03*
Y48000D03*
X423000Y88500D03*
Y94500D03*
X502500Y112500D03*
Y106500D03*
X417500Y124000D03*
Y118000D03*
X411000Y94500D03*
Y88500D03*
X434000Y54000D03*
Y48000D03*
X405000Y94500D03*
Y88500D03*
X435000Y94500D03*
Y88500D03*
X429000Y94500D03*
Y88500D03*
X441000Y94500D03*
Y88500D03*
X417000Y94500D03*
Y88500D03*
X474500Y140500D03*
Y146500D03*
X423000Y139500D03*
Y145500D03*
X454500Y140500D03*
Y146500D03*
Y125500D03*
Y119500D03*
X496000Y112500D03*
Y106500D03*
X506000Y128000D03*
Y134000D03*
X411000Y124000D03*
Y118000D03*
X435000Y75000D03*
Y81000D03*
X516830Y254650D03*
Y248650D03*
X510620Y248700D03*
Y254700D03*
X504310Y248750D03*
Y254750D03*
X419500Y327000D03*
Y321000D03*
X408000Y336500D03*
Y342500D03*
X414500Y336500D03*
Y342500D03*
X406500Y327000D03*
Y321000D03*
X413000Y327000D03*
Y321000D03*
X529050Y248590D03*
Y254590D03*
X523040Y248590D03*
Y254590D03*
X535310Y248540D03*
Y254540D03*
G54D28*
X358750Y193150D03*
X355214Y196686D03*
X302040Y249830D03*
X305576Y246295D03*
G54D29*
X368270Y364090D03*
M02*
