G04 ================== begin FILE IDENTIFICATION RECORD ==================*
G04 Layout Name:  D:/SVNUpdate/ikemb-0002/project/hardware/AUDIO/AUDIO_1.brd*
G04 Film Name:    Silk_Top*
G04 File Format:  Gerber RS274X*
G04 File Origin:  15.7-p007*
G04 Origin Date:  Thu Apr 10 11:30:43 2008*
G04 *
G04 Layer:  REF DES/ASSEMBLY_TOP*
G04 Layer:  PACKAGE GEOMETRY/SILKSCREEN_TOP*
G04 Layer:  BOARD GEOMETRY/OUTLINE*
G04 *
G04 Offset:    (0.0 0.0)*
G04 Mirror:    No*
G04 Mode:      Positive*
G04 Rotation:  0*
G04 FullContactRelief:  No*
G04 UndefLineWidth:     5.0*
G04 ================== end FILE IDENTIFICATION RECORD ====================*
%FSLAX53Y53*MOIN*%
%IR0*IPPOS*OFA0.00000B0.00000*MIA0B0*SFA1.00000B1.00000*%
%ADD10C,.005*%
G75*
%LPD*%
G75*
G54D10*
G01X1140Y1875D02*
X1155Y1890D01*
X5820D01*
X5845Y1865D01*
Y25D01*
G02X5835Y15I-10J0D01*
G01X5300D01*
G02X5295Y20I0J5D01*
G01Y305D01*
G03X5195I-50J0D01*
G01Y30D01*
G02X5185Y15I-16J0D01*
G01X3395D01*
Y305D01*
G03X3295I-50J0D01*
G01Y15D01*
X2745D01*
Y400D01*
X2730Y410D01*
X1705D01*
X1700Y405D01*
Y20D01*
X1685Y5D01*
X1145D01*
X1135Y15D01*
Y1870D01*
X1140Y1875D01*
G01X1639Y660D02*
X1147D01*
Y1250D01*
X1639D01*
Y660D01*
G01X1260Y1278D02*
X1262Y1279D01*
X1264Y1281D01*
X1265Y1282D01*
X1264Y1285D01*
X1262Y1286D01*
X1260Y1288D01*
X1257Y1288D01*
X1240D01*
G01X1265Y1305D02*
X1240D01*
X1245Y1302D01*
G01X1265D02*
Y1308D01*
G01X1748Y676D02*
X1744Y678D01*
X1741Y680D01*
X1736D01*
X1732Y678D01*
X1728Y673D01*
X1725Y668D01*
X1723Y660D01*
X1723Y652D01*
X1724Y645D01*
X1725Y640D01*
X1728Y635D01*
X1732Y632D01*
X1736Y630D01*
X1740D01*
X1744Y632D01*
X1747Y634D01*
X1749Y638D01*
G01X1770Y672D02*
X1773Y677D01*
X1777Y679D01*
X1781Y680D01*
X1786Y678D01*
X1790Y674D01*
X1791Y669D01*
X1791Y664D01*
X1788Y660D01*
X1778Y652D01*
X1773Y646D01*
X1770Y638D01*
X1769Y630D01*
X1791D01*
G01X1824D02*
X1828Y631D01*
X1832Y633D01*
X1835Y638D01*
X1836Y643D01*
X1835Y649D01*
X1832Y654D01*
X1827Y657D01*
X1821D01*
X1818Y658D01*
X1816Y662D01*
X1814Y668D01*
X1816Y674D01*
X1820Y678D01*
X1824Y680D01*
X1828Y678D01*
X1832Y674D01*
X1834Y668D01*
X1832Y662D01*
X1830Y658D01*
X1827Y657D01*
X1821D01*
X1816Y654D01*
X1813Y649D01*
X1812Y643D01*
X1813Y638D01*
X1816Y633D01*
X1820Y631D01*
X1824Y630D01*
G01X1647Y750D02*
Y800D01*
X1661D01*
X1665Y798D01*
X1668Y794D01*
X1669Y788D01*
X1668Y781D01*
X1664Y777D01*
X1661Y774D01*
X1647D01*
G01X1661D02*
X1669Y750D01*
G01X1708D02*
Y800D01*
X1689Y764D01*
X1715D01*
G01X1718Y757D02*
Y813D01*
X1842D01*
Y757D01*
X1718D01*
G01X1745Y810D02*
X1720D01*
Y760D01*
X1730D01*
G01X1842Y748D02*
Y692D01*
X1718D01*
Y748D01*
X1842D01*
G01X1730Y745D02*
X1720D01*
Y695D01*
X1745D01*
G01X1647Y885D02*
Y935D01*
X1661D01*
X1665Y932D01*
X1668Y929D01*
X1669Y922D01*
X1668Y916D01*
X1664Y912D01*
X1661Y909D01*
X1647D01*
G01X1661D02*
X1669Y885D01*
G01X1692Y906D02*
X1696Y912D01*
X1699Y915D01*
X1703Y917D01*
X1707Y915D01*
X1710Y912D01*
X1712Y907D01*
X1712Y901D01*
X1712Y896D01*
X1710Y891D01*
X1706Y887D01*
X1703Y885D01*
X1698Y887D01*
X1695Y892D01*
X1692Y899D01*
X1692Y908D01*
X1693Y918D01*
X1695Y924D01*
X1697Y930D01*
X1701Y934D01*
X1705Y935D01*
X1708Y933D01*
X1711Y929D01*
G01X1595Y1090D02*
Y1140D01*
X1609D01*
X1613Y1138D01*
X1616Y1134D01*
X1617Y1128D01*
X1616Y1121D01*
X1612Y1117D01*
X1609Y1114D01*
X1595D01*
G01X1609D02*
X1617Y1090D01*
G01X1650D02*
Y1140D01*
X1644Y1130D01*
G01Y1090D02*
X1656D01*
G01X1694D02*
Y1140D01*
X1688Y1130D01*
G01Y1090D02*
X1700D01*
G01X1652Y950D02*
Y1000D01*
X1666D01*
X1670Y998D01*
X1673Y994D01*
X1674Y988D01*
X1673Y981D01*
X1669Y977D01*
X1666Y974D01*
X1652D01*
G01X1666D02*
X1674Y950D01*
G01X1706D02*
X1707Y961D01*
X1709Y970D01*
X1711Y978D01*
X1713Y988D01*
X1718Y1000D01*
X1696D01*
G01X1643Y817D02*
Y873D01*
X1767D01*
Y817D01*
X1643D01*
G01X1670Y870D02*
X1645D01*
Y820D01*
X1655D01*
G01X1755D02*
X1765D01*
Y870D01*
X1740D01*
G01X1703Y1082D02*
Y1138D01*
X1827D01*
Y1082D01*
X1703D01*
G01X1730Y1135D02*
X1705D01*
Y1085D01*
X1715D01*
G01X1643Y1017D02*
Y1073D01*
X1767D01*
Y1017D01*
X1643D01*
G01X1670Y1070D02*
X1645D01*
Y1020D01*
X1655D01*
G01X1755D02*
X1765D01*
Y1070D01*
X1740D01*
G01X1728Y1276D02*
X1725Y1278D01*
X1721Y1280D01*
X1717D01*
X1712Y1278D01*
X1708Y1273D01*
X1705Y1268D01*
X1703Y1260D01*
X1703Y1252D01*
X1704Y1245D01*
X1705Y1240D01*
X1709Y1235D01*
X1712Y1232D01*
X1716Y1230D01*
X1720D01*
X1724Y1232D01*
X1727Y1234D01*
X1729Y1238D01*
G01X1748Y1240D02*
X1752Y1234D01*
X1756Y1231D01*
X1760Y1230D01*
X1765Y1231D01*
X1769Y1235D01*
X1772Y1240D01*
X1772Y1245D01*
X1771Y1251D01*
X1768Y1255D01*
X1764Y1257D01*
X1759D01*
G01X1764D02*
X1767Y1259D01*
X1770Y1263D01*
X1771Y1268D01*
X1770Y1273D01*
X1767Y1278D01*
X1762Y1280D01*
X1757Y1279D01*
X1752Y1276D01*
G01X1794Y1272D02*
X1797Y1277D01*
X1801Y1279D01*
X1805Y1280D01*
X1810Y1278D01*
X1814Y1274D01*
X1815Y1269D01*
X1815Y1264D01*
X1812Y1260D01*
X1802Y1252D01*
X1797Y1246D01*
X1794Y1238D01*
X1793Y1230D01*
X1815D01*
G01X1827Y1203D02*
Y1147D01*
X1703D01*
Y1203D01*
X1827D01*
G01X1715Y1200D02*
X1705D01*
Y1150D01*
X1730D01*
G01X1954Y558D02*
X1952Y559D01*
X1950Y560D01*
X1948D01*
X1946Y559D01*
X1944Y557D01*
X1943Y554D01*
X1942Y550D01*
X1941Y546D01*
X1942Y542D01*
X1943Y540D01*
X1944Y538D01*
X1946Y536D01*
X1948Y535D01*
X1950D01*
X1952Y536D01*
X1953Y537D01*
X1955Y539D01*
G01X1965Y556D02*
X1967Y558D01*
X1968Y560D01*
X1971Y560D01*
X1973Y559D01*
X1975Y557D01*
X1976Y555D01*
X1975Y552D01*
X1974Y550D01*
X1969Y546D01*
X1967Y543D01*
X1965Y539D01*
X1964Y535D01*
X1976D01*
G01X1988Y538D02*
X1989Y536D01*
X1992Y535D01*
X1994Y536D01*
X1996Y538D01*
X1997Y542D01*
X1997Y546D01*
Y550D01*
X1997Y554D01*
X1996Y558D01*
X1994Y559D01*
X1992Y560D01*
X1990Y559D01*
X1988Y558D01*
X1987Y555D01*
X1987Y552D01*
X1987Y549D01*
X1988Y546D01*
X1990Y544D01*
X1992Y544D01*
X1994Y545D01*
X1996Y547D01*
X1997Y550D01*
G01X1865Y785D02*
Y605D01*
X1885Y585D01*
X2365D01*
Y805D01*
X1885D01*
X1865Y785D01*
G01X1830Y760D02*
X1840D01*
Y810D01*
X1815D01*
G01Y695D02*
X1840D01*
Y745D01*
X1830D01*
G01X2065Y883D02*
X2115D01*
Y869D01*
X2112Y865D01*
X2109Y862D01*
X2102Y861D01*
X2096Y862D01*
X2092Y866D01*
X2089Y869D01*
Y883D01*
G01Y869D02*
X2065Y861D01*
G01Y828D02*
X2066Y824D01*
X2068Y820D01*
X2073Y817D01*
X2078Y816D01*
X2084Y817D01*
X2089Y820D01*
X2092Y825D01*
Y831D01*
X2093Y834D01*
X2098Y836D01*
X2103Y838D01*
X2109Y836D01*
X2113Y832D01*
X2115Y828D01*
X2113Y824D01*
X2109Y820D01*
X2103Y818D01*
X2098Y820D01*
X2093Y822D01*
X2092Y825D01*
Y831D01*
X2089Y836D01*
X2084Y839D01*
X2078Y840D01*
X2073Y839D01*
X2068Y836D01*
X2066Y832D01*
X2065Y828D01*
G01X2040Y898D02*
X1840D01*
Y1032D01*
X2040D01*
Y898D01*
G01X1875Y928D02*
G03I-10J0D01*
G01X1840Y915D02*
X2040D01*
G01X2113Y908D02*
X2057D01*
Y1032D01*
X2113D01*
Y908D01*
G01X2060Y935D02*
Y910D01*
X2110D01*
Y920D01*
G01Y1020D02*
Y1030D01*
X2060D01*
Y1005D01*
G01X1815Y1085D02*
X1825D01*
Y1135D01*
X1800D01*
G01X1845Y977D02*
X1863D01*
X1867Y978D01*
X1869Y980D01*
X1870Y983D01*
X1869Y986D01*
X1867Y988D01*
X1863Y989D01*
X1845D01*
G01X1865Y999D02*
X1868Y1001D01*
X1870Y1003D01*
X1870Y1005D01*
X1870Y1007D01*
X1868Y1010D01*
X1865Y1011D01*
X1862Y1011D01*
X1860Y1011D01*
X1858Y1009D01*
X1857Y1007D01*
Y1004D01*
G01Y1007D02*
X1855Y1008D01*
X1853Y1010D01*
X1851Y1010D01*
X1848Y1010D01*
X1846Y1008D01*
X1845Y1006D01*
X1845Y1004D01*
X1847Y1001D01*
G01X2042Y1120D02*
Y1170D01*
X2056D01*
X2060Y1168D01*
X2063Y1164D01*
X2064Y1158D01*
X2063Y1151D01*
X2059Y1147D01*
X2056Y1144D01*
X2042D01*
G01X2056D02*
X2064Y1120D01*
G01X2085Y1128D02*
X2089Y1123D01*
X2092Y1121D01*
X2097Y1120D01*
X2102Y1122D01*
X2106Y1125D01*
X2108Y1131D01*
X2109Y1138D01*
X2108Y1144D01*
X2105Y1148D01*
X2101Y1152D01*
X2098Y1152D01*
X2094Y1152D01*
X2089Y1148D01*
X2091Y1170D01*
X2105D01*
G01X1830Y1390D02*
Y1210D01*
X1850Y1190D01*
X2330D01*
Y1410D01*
X1850D01*
X1830Y1390D01*
G01X2027Y1173D02*
Y1117D01*
X1903D01*
Y1173D01*
X2027D01*
G01X2000Y1120D02*
X2025D01*
Y1170D01*
X2015D01*
G01X1915D02*
X1905D01*
Y1120D01*
X1930D01*
G01X1800Y1150D02*
X1825D01*
Y1200D01*
X1815D01*
G01X1989Y1458D02*
X1987Y1459D01*
X1985Y1460D01*
X1983D01*
X1981Y1459D01*
X1979Y1457D01*
X1978Y1454D01*
X1977Y1450D01*
X1976Y1446D01*
X1977Y1443D01*
X1978Y1440D01*
X1979Y1438D01*
X1981Y1436D01*
X1983Y1435D01*
X1985D01*
X1987Y1436D01*
X1988Y1437D01*
X1990Y1439D01*
G01X1999Y1440D02*
X2001Y1437D01*
X2003Y1435D01*
X2005Y1435D01*
X2007Y1435D01*
X2010Y1438D01*
X2011Y1440D01*
X2011Y1443D01*
X2011Y1445D01*
X2009Y1448D01*
X2007Y1448D01*
X2005D01*
G01X2007D02*
X2009Y1450D01*
X2010Y1452D01*
X2010Y1454D01*
X2010Y1457D01*
X2009Y1459D01*
X2006Y1460D01*
X2004Y1460D01*
X2001Y1458D01*
G01X2027Y1460D02*
X2025Y1459D01*
X2023Y1457D01*
X2022Y1455D01*
X2021Y1451D01*
X2021Y1448D01*
X2021Y1444D01*
X2022Y1440D01*
X2023Y1438D01*
X2025Y1436D01*
X2027Y1435D01*
X2029Y1436D01*
X2031Y1438D01*
X2032Y1440D01*
X2033Y1444D01*
X2033Y1448D01*
X2033Y1451D01*
X2032Y1455D01*
X2031Y1457D01*
X2029Y1459D01*
X2027Y1460D01*
G01X2372Y1115D02*
Y1165D01*
X2386D01*
X2390Y1162D01*
X2393Y1159D01*
X2394Y1152D01*
X2393Y1146D01*
X2389Y1142D01*
X2386Y1139D01*
X2372D01*
G01X2386D02*
X2394Y1115D01*
G01X2418Y1121D02*
X2422Y1117D01*
X2426Y1115D01*
X2430Y1117D01*
X2434Y1122D01*
X2437Y1129D01*
X2438Y1137D01*
Y1146D01*
X2437Y1153D01*
X2434Y1160D01*
X2431Y1163D01*
X2427Y1165D01*
X2423Y1163D01*
X2420Y1160D01*
X2417Y1155D01*
X2416Y1148D01*
X2417Y1142D01*
X2420Y1137D01*
X2423Y1133D01*
X2427Y1132D01*
X2431Y1134D01*
X2434Y1138D01*
X2438Y1146D01*
G01X2296Y1037D02*
X2298Y1040D01*
X2300Y1044D01*
Y1048D01*
X2298Y1053D01*
X2293Y1057D01*
X2288Y1060D01*
X2280Y1062D01*
X2272Y1062D01*
X2265Y1061D01*
X2260Y1060D01*
X2255Y1056D01*
X2252Y1053D01*
X2250Y1049D01*
Y1045D01*
X2252Y1042D01*
X2254Y1038D01*
X2258Y1036D01*
G01X2260Y1017D02*
X2254Y1014D01*
X2251Y1009D01*
X2250Y1004D01*
X2251Y1000D01*
X2255Y996D01*
X2260Y993D01*
X2265Y993D01*
X2271Y994D01*
X2275Y998D01*
X2277Y1001D01*
Y1006D01*
G01Y1001D02*
X2279Y998D01*
X2283Y995D01*
X2288Y994D01*
X2293Y995D01*
X2298Y998D01*
X2300Y1003D01*
X2299Y1008D01*
X2296Y1012D01*
G01X2250Y961D02*
X2300D01*
X2290Y967D01*
G01X2250D02*
Y955D01*
G01X2120Y1086D02*
X2220D01*
Y1070D01*
X2120D01*
Y1086D01*
G01D02*
X2220D01*
Y834D01*
X2120D01*
Y1086D01*
G01Y905D02*
Y835D01*
X2220D01*
Y855D01*
Y905D01*
G01X2357Y1178D02*
Y1122D01*
X2233D01*
Y1178D01*
X2357D01*
G01X2330Y1125D02*
X2355D01*
Y1175D01*
X2345D01*
G01X2245D02*
X2235D01*
Y1125D01*
X2260D01*
G01X2545Y1185D02*
Y1235D01*
X2559D01*
X2563Y1232D01*
X2566Y1229D01*
X2567Y1222D01*
X2566Y1216D01*
X2562Y1212D01*
X2559Y1209D01*
X2545D01*
G01X2559D02*
X2567Y1185D01*
G01X2600D02*
Y1235D01*
X2594Y1225D01*
G01Y1185D02*
X2606D01*
G01X2644Y1235D02*
X2640Y1233D01*
X2636Y1229D01*
X2634Y1224D01*
X2633Y1218D01*
X2632Y1210D01*
X2633Y1203D01*
X2634Y1196D01*
X2636Y1191D01*
X2640Y1187D01*
X2644Y1185D01*
X2648Y1187D01*
X2652Y1191D01*
X2654Y1196D01*
X2655Y1203D01*
X2656Y1210D01*
X2655Y1218D01*
X2654Y1224D01*
X2652Y1229D01*
X2648Y1233D01*
X2644Y1235D01*
G01X2700Y1320D02*
X2400D01*
Y1520D01*
X2700D01*
Y1320D01*
G01X2607Y1313D02*
Y1257D01*
X2483D01*
Y1313D01*
X2607D01*
G01X2580Y1260D02*
X2605D01*
Y1310D01*
X2595D01*
G01X2495D02*
X2485D01*
Y1260D01*
X2510D01*
G01X2500Y1527D02*
X2505Y1530D01*
X2508Y1534D01*
X2510Y1538D01*
X2508Y1543D01*
X2505Y1547D01*
X2500Y1551D01*
X2493Y1552D01*
X2460D01*
G01X2468Y1578D02*
X2463Y1582D01*
X2461Y1587D01*
X2460Y1592D01*
X2462Y1598D01*
X2466Y1602D01*
X2471Y1604D01*
X2476Y1603D01*
X2480Y1601D01*
X2488Y1588D01*
X2494Y1582D01*
X2502Y1578D01*
X2510Y1577D01*
Y1604D01*
G01X3861Y712D02*
Y703D01*
X3861Y702D01*
X3862Y700D01*
X3863Y700D01*
X3864Y700D01*
X3865Y702D01*
X3865Y703D01*
Y712D01*
G01X3875Y700D02*
Y712D01*
X3874Y709D01*
G01Y700D02*
X3876D01*
G01X3896Y754D02*
X4684D01*
Y1306D01*
X3896D01*
Y754D01*
G01X3734Y1118D02*
X3732Y1114D01*
X3730Y1111D01*
Y1106D01*
X3732Y1102D01*
X3737Y1098D01*
X3742Y1095D01*
X3750Y1093D01*
X3758Y1093D01*
X3765Y1094D01*
X3770Y1095D01*
X3775Y1098D01*
X3778Y1102D01*
X3780Y1106D01*
Y1110D01*
X3778Y1114D01*
X3776Y1117D01*
X3772Y1119D01*
G01X3738Y1140D02*
X3733Y1143D01*
X3731Y1147D01*
X3730Y1151D01*
X3732Y1156D01*
X3736Y1160D01*
X3741Y1161D01*
X3746Y1161D01*
X3750Y1158D01*
X3758Y1148D01*
X3764Y1143D01*
X3772Y1140D01*
X3780Y1139D01*
Y1161D01*
G01X3770Y1182D02*
X3776Y1186D01*
X3779Y1190D01*
X3780Y1195D01*
X3779Y1199D01*
X3775Y1203D01*
X3770Y1206D01*
X3765Y1206D01*
X3759Y1205D01*
X3755Y1202D01*
X3753Y1198D01*
Y1193D01*
G01Y1198D02*
X3751Y1201D01*
X3747Y1204D01*
X3742Y1205D01*
X3737Y1204D01*
X3732Y1201D01*
X3730Y1196D01*
X3731Y1191D01*
X3734Y1186D01*
G01X3782Y1073D02*
Y1017D01*
X3658D01*
Y1073D01*
X3782D01*
G01X3755Y1020D02*
X3780D01*
Y1070D01*
X3770D01*
G01X3670D02*
X3660D01*
Y1020D01*
X3685D01*
G01X3975Y794D02*
G03I0J39D01*
G01X4014D02*
G03I-39J39D01*
G01X4185Y1563D02*
X4235D01*
Y1549D01*
X4232Y1545D01*
X4229Y1542D01*
X4222Y1541D01*
X4216Y1542D01*
X4212Y1546D01*
X4209Y1549D01*
Y1563D01*
G01Y1549D02*
X4185Y1541D01*
G01Y1508D02*
X4235D01*
X4225Y1514D01*
G01X4185D02*
Y1502D01*
G01X4250Y1430D02*
Y1420D01*
X4300D01*
Y1445D01*
G01Y1515D02*
Y1540D01*
X4250D01*
Y1530D01*
G01X4247Y1542D02*
X4303D01*
Y1418D01*
X4247D01*
Y1542D01*
G01X4307Y1552D02*
X4363D01*
Y1428D01*
X4307D01*
Y1552D01*
G01X4360Y1525D02*
Y1550D01*
X4310D01*
Y1540D01*
G01Y1440D02*
Y1430D01*
X4360D01*
Y1455D01*
G01X4460Y1420D02*
X4370D01*
Y1590D01*
X4460D01*
Y1420D01*
G01X4370Y1470D02*
Y1420D01*
X4460D01*
Y1455D01*
G01Y1555D02*
Y1590D01*
X4370D01*
Y1540D01*
G01X4335Y1668D02*
X4385D01*
Y1654D01*
X4382Y1650D01*
X4379Y1647D01*
X4373Y1646D01*
X4366Y1647D01*
X4362Y1651D01*
X4359Y1654D01*
Y1668D01*
G01Y1654D02*
X4335Y1646D01*
G01X4377Y1623D02*
X4382Y1620D01*
X4384Y1616D01*
X4385Y1612D01*
X4383Y1607D01*
X4379Y1603D01*
X4374Y1602D01*
X4369Y1602D01*
X4365Y1604D01*
X4357Y1615D01*
X4351Y1620D01*
X4342Y1623D01*
X4335Y1624D01*
Y1602D01*
G01X4475Y1675D02*
X4425D01*
Y1653D01*
G01Y1620D02*
X4475D01*
X4465Y1626D01*
G01X4425D02*
Y1614D01*
G01X4795Y1180D02*
Y1270D01*
X4965D01*
Y1180D01*
X4795D01*
G01X4845Y1270D02*
X4795D01*
Y1180D01*
X4830D01*
G01X4644Y1188D02*
G03I-39J39D01*
G01X5025Y1445D02*
Y1625D01*
X5005Y1645D01*
X4525D01*
Y1425D01*
X5005D01*
X5025Y1445D01*
G01X4980Y1004D02*
X4994D01*
X5011Y1011D01*
G01Y996D02*
X4994Y1004D01*
G01X4980Y972D02*
X5011D01*
X5005Y977D01*
G01X4980D02*
Y968D01*
G01X5040Y1230D02*
X5190D01*
Y830D01*
X5040D01*
Y1230D01*
G01X4890Y1160D02*
Y1110D01*
X4912D01*
G01X4935Y1152D02*
X4938Y1157D01*
X4942Y1159D01*
X4946Y1160D01*
X4951Y1158D01*
X4955Y1154D01*
X4956Y1149D01*
X4956Y1144D01*
X4954Y1140D01*
X4943Y1132D01*
X4938Y1126D01*
X4935Y1118D01*
X4934Y1110D01*
X4956D01*
G01X5050Y1240D02*
X5230D01*
X5250Y1260D01*
Y1740D01*
X5030D01*
Y1260D01*
X5050Y1240D01*
G01X4932Y1343D02*
Y1287D01*
X4808D01*
Y1343D01*
X4932D01*
G01X4905Y1290D02*
X4930D01*
Y1340D01*
X4920D01*
G01X4820D02*
X4810D01*
Y1290D01*
X4835D01*
G01X4930Y1180D02*
X4965D01*
Y1270D01*
X4915D01*
G01X4933Y1396D02*
X4930Y1398D01*
X4926Y1400D01*
X4922D01*
X4917Y1398D01*
X4913Y1393D01*
X4910Y1388D01*
X4908Y1380D01*
X4908Y1372D01*
X4909Y1365D01*
X4910Y1360D01*
X4914Y1355D01*
X4917Y1352D01*
X4921Y1350D01*
X4925D01*
X4928Y1352D01*
X4932Y1354D01*
X4934Y1358D01*
G01X4965Y1350D02*
Y1400D01*
X4959Y1390D01*
G01Y1350D02*
X4971D01*
G01X4999Y1392D02*
X5002Y1397D01*
X5006Y1399D01*
X5010Y1400D01*
X5015Y1398D01*
X5019Y1394D01*
X5020Y1389D01*
X5020Y1384D01*
X5018Y1380D01*
X5007Y1372D01*
X5002Y1366D01*
X4999Y1358D01*
X4998Y1350D01*
X5020D01*
G01X4959Y1693D02*
X4957Y1694D01*
X4955Y1695D01*
X4953D01*
X4951Y1694D01*
X4949Y1692D01*
X4948Y1689D01*
X4947Y1685D01*
X4946Y1681D01*
X4947Y1678D01*
X4948Y1675D01*
X4949Y1672D01*
X4951Y1671D01*
X4953Y1670D01*
X4955D01*
X4957Y1671D01*
X4958Y1672D01*
X4960Y1674D01*
G01X4970Y1691D02*
X4972Y1693D01*
X4973Y1695D01*
X4976Y1695D01*
X4978Y1694D01*
X4980Y1692D01*
X4981Y1690D01*
X4980Y1687D01*
X4979Y1685D01*
X4974Y1681D01*
X4972Y1678D01*
X4970Y1674D01*
X4969Y1670D01*
X4981D01*
G01X5000D02*
Y1695D01*
X4990Y1677D01*
X5004D01*
G01X5207Y1162D02*
X5263D01*
Y1038D01*
X5207D01*
Y1162D01*
G01X5210Y1050D02*
Y1040D01*
X5260D01*
Y1065D01*
G01X5263Y908D02*
X5207D01*
Y1032D01*
X5263D01*
Y908D01*
G01X5313Y961D02*
X5310Y963D01*
X5306Y965D01*
X5302D01*
X5297Y962D01*
X5293Y958D01*
X5290Y953D01*
X5288Y945D01*
X5288Y938D01*
X5289Y930D01*
X5290Y925D01*
X5294Y920D01*
X5297Y917D01*
X5301Y915D01*
X5305D01*
X5308Y917D01*
X5312Y919D01*
X5314Y922D01*
G01X5335Y957D02*
X5338Y962D01*
X5342Y964D01*
X5346Y965D01*
X5351Y963D01*
X5355Y959D01*
X5356Y954D01*
X5356Y949D01*
X5354Y945D01*
X5343Y937D01*
X5338Y931D01*
X5335Y922D01*
X5334Y915D01*
X5356D01*
G01X5377Y922D02*
X5381Y918D01*
X5384Y916D01*
X5389Y915D01*
X5394Y917D01*
X5398Y920D01*
X5400Y926D01*
X5401Y932D01*
X5400Y939D01*
X5397Y943D01*
X5393Y947D01*
X5390Y948D01*
X5386Y947D01*
X5381Y943D01*
X5383Y965D01*
X5397D01*
G01X5210Y935D02*
Y910D01*
X5260D01*
Y920D01*
G01Y1020D02*
Y1030D01*
X5210D01*
Y1005D01*
G01X5298Y1166D02*
X5294Y1168D01*
X5291Y1170D01*
X5286D01*
X5282Y1168D01*
X5278Y1163D01*
X5275Y1158D01*
X5273Y1150D01*
X5273Y1142D01*
X5274Y1135D01*
X5275Y1130D01*
X5278Y1125D01*
X5282Y1122D01*
X5286Y1120D01*
X5290D01*
X5294Y1122D01*
X5297Y1124D01*
X5299Y1128D01*
G01X5320Y1162D02*
X5323Y1167D01*
X5327Y1169D01*
X5331Y1170D01*
X5336Y1168D01*
X5340Y1164D01*
X5341Y1159D01*
X5341Y1154D01*
X5338Y1150D01*
X5328Y1142D01*
X5323Y1136D01*
X5320Y1128D01*
X5319Y1120D01*
X5341D01*
G01X5373D02*
X5374Y1131D01*
X5376Y1140D01*
X5378Y1148D01*
X5380Y1158D01*
X5385Y1170D01*
X5363D01*
G01X5260Y1135D02*
Y1160D01*
X5210D01*
Y1150D01*
G01X5144Y1793D02*
X5142Y1794D01*
X5140Y1795D01*
X5138D01*
X5136Y1794D01*
X5134Y1792D01*
X5133Y1789D01*
X5132Y1785D01*
X5131Y1781D01*
X5132Y1778D01*
X5133Y1775D01*
X5134Y1772D01*
X5136Y1771D01*
X5138Y1770D01*
X5140D01*
X5142Y1771D01*
X5143Y1772D01*
X5145Y1774D01*
G01X5155Y1791D02*
X5156Y1793D01*
X5158Y1795D01*
X5160Y1795D01*
X5163Y1794D01*
X5165Y1792D01*
X5166Y1790D01*
X5165Y1787D01*
X5164Y1785D01*
X5159Y1781D01*
X5156Y1778D01*
X5155Y1774D01*
X5154Y1770D01*
X5166D01*
G01X5177Y1780D02*
X5179Y1783D01*
X5180Y1785D01*
X5182Y1786D01*
X5184Y1785D01*
X5186Y1783D01*
X5187Y1781D01*
X5187Y1778D01*
X5187Y1775D01*
X5186Y1773D01*
X5184Y1771D01*
X5182Y1770D01*
X5180Y1771D01*
X5178Y1773D01*
X5177Y1777D01*
X5177Y1781D01*
X5178Y1787D01*
X5178Y1790D01*
X5180Y1792D01*
X5182Y1795D01*
X5183Y1795D01*
X5185Y1794D01*
X5186Y1792D01*
M02*
