G04 ================== begin FILE IDENTIFICATION RECORD ==================*
G04 Layout Name:  D:/SVNUpdate/ikemb-0002/project/hardware/AUDIO/AUDIO_1.brd*
G04 Film Name:    Solder_Bottom*
G04 File Format:  Gerber RS274X*
G04 File Origin:  15.7-p007*
G04 Origin Date:  Thu Apr 10 11:30:42 2008*
G04 *
G04 Layer:  PIN/SOLDERMASK_BOTTOM*
G04 Layer:  BOARD GEOMETRY/OUTLINE*
G04 *
G04 Offset:    (0.0 0.0)*
G04 Mirror:    No*
G04 Mode:      Positive*
G04 Rotation:  0*
G04 FullContactRelief:  No*
G04 UndefLineWidth:     5.0*
G04 ================== end FILE IDENTIFICATION RECORD ====================*
%FSLAX53Y53*MOIN*%
%IR0*IPPOS*OFA0.00000B0.00000*MIA0B0*SFA1.00000B1.00000*%
%AMMACRO13*
4,1,4,-.025,-.14,
-.025,.14,
.025,.14,
.025,-.14,
-.025,-.14,
0.0*
%
%ADD13MACRO13*%
%ADD15R,.025X.022*%
%ADD12R,.07X.07*%
%ADD11C,.07*%
%ADD16R,.036X.046*%
%ADD14R,.046X.036*%
%ADD17C,.075*%
%ADD10C,.088*%
%ADD18C,.005*%
G75*
%LPD*%
G75*
G54D10*
X1245Y758D03*
Y955D03*
Y1152D03*
X1442Y758D03*
Y1053D03*
Y857D03*
Y955D03*
Y1152D03*
G54D11*
X2600Y1420D03*
G54D12*
X2500D03*
G54D13*
X2770Y165D03*
X2820D03*
X2870D03*
X2920D03*
X2970D03*
X3020D03*
X3070D03*
X3120D03*
X3170D03*
X3220D03*
X3270D03*
X3420D03*
X3470D03*
X3520D03*
X3570D03*
X3620D03*
X3670D03*
X3720D03*
X3770D03*
X3820D03*
X3870D03*
X3920D03*
X3970D03*
X4020D03*
X4070D03*
X4120D03*
X4170D03*
X4220D03*
X4270D03*
X4320D03*
X4370D03*
X4420D03*
X4470D03*
X4520D03*
X4570D03*
X4620D03*
X4670D03*
X4720D03*
X4770D03*
X4820D03*
X4870D03*
X4920D03*
X4970D03*
X5020D03*
X5070D03*
X5120D03*
X5170D03*
X5320D03*
X5370D03*
X5420D03*
X5470D03*
X5520D03*
X5570D03*
X5620D03*
X5670D03*
X5720D03*
X5770D03*
X5820D03*
G54D14*
X3315Y450D03*
X3375D03*
X4005Y935D03*
X3945D03*
X4180Y1290D03*
X4240D03*
X4565Y1060D03*
X4625D03*
X4565Y935D03*
X4625D03*
G54D15*
X3601Y924D03*
Y976D03*
X3519D03*
Y950D03*
Y924D03*
G54D16*
X3600Y1060D03*
Y1120D03*
X3540D03*
Y1060D03*
X4105Y810D03*
X3985D03*
X4105Y870D03*
X3985D03*
X3970Y1195D03*
Y1255D03*
X4455Y805D03*
X4265Y810D03*
X4455Y865D03*
X4265Y870D03*
X4350Y1195D03*
Y1255D03*
X4625Y810D03*
Y870D03*
G54D17*
X5115Y1130D03*
Y930D03*
G54D18*
G01X1140Y1875D02*
X1155Y1890D01*
X5820D01*
X5845Y1865D01*
Y25D01*
G02X5835Y15I-10J0D01*
G01X5300D01*
G02X5295Y20I0J5D01*
G01Y305D01*
G03X5195I-50J0D01*
G01Y30D01*
G02X5185Y15I-16J0D01*
G01X3395D01*
Y305D01*
G03X3295I-50J0D01*
G01Y15D01*
X2745D01*
Y400D01*
X2730Y410D01*
X1705D01*
X1700Y405D01*
Y20D01*
X1685Y5D01*
X1145D01*
X1135Y15D01*
Y1870D01*
X1140Y1875D01*
M02*
