G04 ================== begin FILE IDENTIFICATION RECORD ==================*
G04 Layout Name:  D:/SVNUpdate/ikemb-0002/project/hardware/AUDIO/AUDIO_1.brd*
G04 Film Name:    Solder_Top*
G04 File Format:  Gerber RS274X*
G04 File Origin:  15.7-p007*
G04 Origin Date:  Thu Apr 10 11:30:42 2008*
G04 *
G04 Layer:  PIN/SOLDERMASK_TOP*
G04 Layer:  BOARD GEOMETRY/OUTLINE*
G04 *
G04 Offset:    (0.0 0.0)*
G04 Mirror:    No*
G04 Mode:      Positive*
G04 Rotation:  0*
G04 FullContactRelief:  No*
G04 UndefLineWidth:     5.0*
G04 ================== end FILE IDENTIFICATION RECORD ====================*
%FSLAX53Y53*MOIN*%
%IR0*IPPOS*OFA0.00000B0.00000*MIA0B0*SFA1.00000B1.00000*%
%AMMACRO18*
4,1,4,-.025,-.14,
-.025,.14,
.025,.14,
.025,-.14,
-.025,-.14,
0.0*
%
%ADD18MACRO18*%
%ADD13R,.03X.055*%
%ADD17R,.07X.07*%
%ADD16C,.07*%
%ADD14R,.036X.046*%
%ADD11R,.046X.036*%
%ADD22C,.075*%
%ADD20R,.015X.078*%
%ADD19R,.078X.015*%
%ADD21R,.056X.066*%
%ADD24R,.066X.056*%
%ADD12R,.158X.178*%
%ADD10C,.088*%
%ADD23R,.178X.158*%
%ADD15R,.066X.066*%
%ADD25C,.005*%
G75*
%LPD*%
G75*
G54D10*
X1245Y758D03*
Y955D03*
Y1152D03*
X1442Y758D03*
Y1053D03*
Y857D03*
Y955D03*
Y1152D03*
G54D20*
X4201Y691D03*
X4182D03*
X4162D03*
X4142D03*
X4123D03*
X4103D03*
X4083D03*
X4064D03*
X4044D03*
X4024D03*
X4005D03*
X3985D03*
X3965D03*
X3946D03*
X3926D03*
Y1369D03*
X3946D03*
X3965D03*
X3985D03*
X4005D03*
X4024D03*
X4044D03*
X4064D03*
X4083D03*
X4103D03*
X4123D03*
X4142D03*
X4162D03*
X4182D03*
X4201D03*
X4497Y691D03*
X4477D03*
X4457D03*
X4438D03*
X4418D03*
X4398D03*
X4379D03*
X4359D03*
X4339D03*
X4320D03*
X4300D03*
X4280D03*
X4260D03*
X4241D03*
X4221D03*
Y1369D03*
X4241D03*
X4260D03*
X4280D03*
X4300D03*
X4320D03*
X4339D03*
X4359D03*
X4379D03*
X4398D03*
X4418D03*
X4438D03*
X4457D03*
X4477D03*
X4497D03*
X4654Y691D03*
X4634D03*
X4615D03*
X4595D03*
X4575D03*
X4556D03*
X4536D03*
X4516D03*
Y1369D03*
X4536D03*
X4556D03*
X4575D03*
X4595D03*
X4615D03*
X4634D03*
X4654D03*
G54D11*
X1750Y785D03*
X1810D03*
Y720D03*
X1750D03*
X1675Y845D03*
X1735D03*
Y1110D03*
X1795D03*
X1675Y1045D03*
X1735D03*
X1795Y1175D03*
X1735D03*
X1995Y1145D03*
X1935D03*
X2325Y1150D03*
X2265D03*
X2575Y1285D03*
X2515D03*
X3750Y1045D03*
X3690D03*
X4900Y1315D03*
X4840D03*
G54D12*
X1965Y695D03*
X1930Y1300D03*
X2265Y695D03*
X2230Y1300D03*
X4625Y1535D03*
X4925D03*
G54D21*
X4415Y1460D03*
Y1550D03*
G54D22*
X5115Y1130D03*
Y930D03*
G54D13*
X1915Y1075D03*
X1865D03*
X1965D03*
X2015D03*
X1865Y855D03*
X1915D03*
X1965D03*
X2015D03*
G54D23*
X5140Y1340D03*
Y1640D03*
G54D14*
X2085Y940D03*
Y1000D03*
X4275Y1450D03*
Y1510D03*
X4335Y1520D03*
Y1460D03*
X5235Y1070D03*
Y940D03*
Y1000D03*
Y1130D03*
G54D15*
X2170Y1025D03*
Y895D03*
G54D24*
X4835Y1225D03*
X4925D03*
G54D25*
G01X1140Y1875D02*
X1155Y1890D01*
X5820D01*
X5845Y1865D01*
Y25D01*
G02X5835Y15I-10J0D01*
G01X5300D01*
G02X5295Y20I0J5D01*
G01Y305D01*
G03X5195I-50J0D01*
G01Y30D01*
G02X5185Y15I-16J0D01*
G01X3395D01*
Y305D01*
G03X3295I-50J0D01*
G01Y15D01*
X2745D01*
Y400D01*
X2730Y410D01*
X1705D01*
X1700Y405D01*
Y20D01*
X1685Y5D01*
X1145D01*
X1135Y15D01*
Y1870D01*
X1140Y1875D01*
G54D16*
X2600Y1420D03*
G54D17*
X2500D03*
G54D18*
X2770Y165D03*
X2820D03*
X2870D03*
X2920D03*
X2970D03*
X3020D03*
X3070D03*
X3120D03*
X3170D03*
X3220D03*
X3270D03*
X3420D03*
X3470D03*
X3520D03*
X3570D03*
X3620D03*
X3670D03*
X3720D03*
X3770D03*
X3820D03*
X3870D03*
X3920D03*
X3970D03*
X4020D03*
X4070D03*
X4120D03*
X4170D03*
X4220D03*
X4270D03*
X4320D03*
X4370D03*
X4420D03*
X4470D03*
X4520D03*
X4570D03*
X4620D03*
X4670D03*
X4720D03*
X4770D03*
X4820D03*
X4870D03*
X4920D03*
X4970D03*
X5020D03*
X5070D03*
X5120D03*
X5170D03*
X5320D03*
X5370D03*
X5420D03*
X5470D03*
X5520D03*
X5570D03*
X5620D03*
X5670D03*
X5720D03*
X5770D03*
X5820D03*
G54D19*
X3833Y784D03*
Y804D03*
Y823D03*
Y843D03*
Y863D03*
Y882D03*
Y902D03*
Y922D03*
Y941D03*
Y961D03*
Y981D03*
Y1000D03*
Y1020D03*
Y1040D03*
Y1060D03*
Y1079D03*
Y1099D03*
Y1119D03*
Y1138D03*
Y1158D03*
Y1178D03*
Y1197D03*
Y1217D03*
Y1237D03*
Y1256D03*
Y1276D03*
X4747Y804D03*
Y784D03*
Y1099D03*
Y1079D03*
Y1060D03*
Y1040D03*
Y1020D03*
Y1000D03*
Y981D03*
Y961D03*
Y941D03*
Y922D03*
Y902D03*
Y882D03*
Y863D03*
Y843D03*
Y823D03*
Y1276D03*
Y1256D03*
Y1237D03*
Y1217D03*
Y1197D03*
Y1178D03*
Y1158D03*
Y1138D03*
Y1119D03*
M02*
