G04 ================== begin FILE IDENTIFICATION RECORD ==================*
G04 Layout Name:  D:/SVNUpdate/ikemb-0002/project/hardware/AUDIO/AUDIO_1.brd*
G04 Film Name:    TOP*
G04 File Format:  Gerber RS274X*
G04 File Origin:  15.7-p007*
G04 Origin Date:  Thu Apr 10 11:30:42 2008*
G04 *
G04 Layer:  BOARD GEOMETRY/OUTLINE*
G04 Layer:  ETCH/TOP*
G04 Layer:  PIN/TOP*
G04 Layer:  VIA CLASS/TOP*
G04 *
G04 Offset:    (0.0 0.0)*
G04 Mirror:    No*
G04 Mode:      Positive*
G04 Rotation:  0*
G04 FullContactRelief:  No*
G04 UndefLineWidth:     5.0*
G04 ================== end FILE IDENTIFICATION RECORD ====================*
%FSLAX53Y53*MOIN*%
%IR0*IPPOS*OFA0.00000B0.00000*MIA0B0*SFA1.00000B1.00000*%
%ADD15R,.03X.04*%
%ADD24R,.01X.07*%
%ADD11R,.04X.03*%
%ADD23R,.07X.01*%
%ADD13R,.15X.17*%
%ADD27R,.17X.15*%
%ADD25R,.05X.06*%
%ADD28R,.06X.05*%
%ADD16C,.03*%
%ADD14R,.025X.05*%
%ADD22C,.04*%
%ADD18C,.05*%
%ADD12C,.032*%
%ADD26C,.06*%
%AMMACRO21*
4,1,38,-.02,-.11,
-.02,.11,
-.019696,.113473,
-.018794,.11684,
-.017321,.12,
-.015321,.122856,
-.012856,.125321,
-.01,.127321,
-.00684,.128794,
-.003473,.129696,
0.0,.13,
.003473,.129696,
.00684,.128794,
.01,.127321,
.012856,.125321,
.015321,.122856,
.017321,.12,
.018794,.11684,
.019696,.113473,
.02,.11,
.02,-.11,
.019696,-.113473,
.018794,-.11684,
.017321,-.12,
.015321,-.122856,
.012856,-.125321,
.01,-.127321,
.00684,-.128794,
.003473,-.129696,
0.0,-.13,
-.003473,-.129696,
-.00684,-.128794,
-.01,-.127321,
-.012856,-.125321,
-.015321,-.122856,
-.017321,-.12,
-.018794,-.11684,
-.019696,-.113473,
-.02,-.11,
0.0*
%
%ADD21MACRO21*%
%ADD20R,.062X.062*%
%ADD19C,.062*%
%ADD10C,.08*%
%ADD17R,.06X.06*%
%ADD29C,.006*%
%ADD30C,.02*%
%ADD31C,.012*%
%ADD32C,.005*%
%ADD33C,.015*%
G75*
%LPD*%
G75*
G36*
G01X3045Y327D02*
Y425D01*
G02X3052Y428I4J0D01*
G01X3093Y386D01*
G02X3093Y384I-1J-1D01*
G03X3145Y386I27J-14D01*
G01X3145Y387D01*
Y405D01*
X2934Y616D01*
G02Y619I1J1D01*
G01X3908Y1592D01*
X4264D01*
X4265Y1592D01*
X4265Y1591D01*
G03X4313Y1580I30J19D01*
G01X4342Y1580D01*
X4366Y1557D01*
G02X4363Y1550I-3J-3D01*
G01X4310D01*
Y1537D01*
X4310Y1536D01*
G03Y1504I25J-16D01*
G01X4310Y1503D01*
Y1487D01*
G02X4308Y1485I-2J0D01*
G01X4275D01*
X4270Y1480D01*
X4250D01*
Y1462D01*
G02X4244Y1458I-4J0D01*
G03X4208Y1420I-16J-21D01*
G02X4205Y1414I-3J-3D01*
G01X4011D01*
G02X4008Y1419I0J4D01*
G03X3962I-23J11D01*
G02X3958Y1414I-4J-2D01*
G01X3911D01*
Y1324D01*
X3961D01*
Y1409D01*
G02X3967Y1412I4J0D01*
G03X3968Y1411I18J17D01*
G01X3969Y1410D01*
Y1369D01*
G03X3970Y1363I16J0D01*
G01X3970Y1324D01*
X4256D01*
G02X4259Y1317I0J-4D01*
G01X4229Y1287D01*
Y1265D01*
G02X4228Y1264I-2J0D01*
G03X4251Y1221I17J-19D01*
G02X4255Y1214I1J-4D01*
G01X4248Y1206D01*
X4247Y1206D01*
X4246Y1206D01*
G03X4271Y1183I-1J-26D01*
G02X4272Y1185I2J0D01*
G01X4333Y1246D01*
G02X4336I1J-1D01*
G01X4373Y1208D01*
G03X4385Y1203I14J14D01*
G03X4391Y1202I6J17D01*
G01X4700D01*
G02X4702Y1200I0J-2D01*
G01Y1084D01*
X4741D01*
G03X4747Y1083I6J15D01*
G01X4939D01*
X5077Y946D01*
G02X5077Y944I-1J-1D01*
G03X5075Y928I38J-13D01*
G02X5068Y925I-4J0D01*
G01X4956Y1036D01*
X4858D01*
G02X4854Y1042I0J4D01*
G03X4806Y1057I-24J8D01*
G02X4804Y1056I-2J1D01*
G01X4794D01*
G02X4792Y1058I0J2D01*
G01Y1075D01*
X4752D01*
G03X4747Y1076I-6J-15D01*
G01X4708D01*
X4707Y1075D01*
X4702D01*
Y1073D01*
X4685Y1056D01*
Y1052D01*
X4684Y1052D01*
G02X4682Y1051I-1J1D01*
G03X4695Y1004I-2J-26D01*
G02X4702Y1000I2J-3D01*
G01Y907D01*
X4741D01*
X4741Y906D01*
G03X4747Y906I5J15D01*
G01X4789D01*
X4790Y905D01*
X4790Y904D01*
G03X4791Y904I25J4D01*
G02X4787Y898I-4J-1D01*
G01X4747D01*
G03X4741Y898I0J-16D01*
G01X4702Y898D01*
Y769D01*
X4741D01*
G03X4747Y768I6J15D01*
G01X4749D01*
X5089Y428D01*
Y327D01*
G02X5087Y325I-2J0D01*
G01X5078D01*
G02X5076Y327I0J2D01*
G01Y352D01*
X4857Y571D01*
X4702D01*
X4630Y643D01*
G02X4629Y645I1J1D01*
G01X4630Y646D01*
Y686D01*
G03X4631Y691I-15J6D01*
G01Y737D01*
X4600Y767D01*
X4600Y768D01*
X4600Y769D01*
G03X4576Y745I-25J1D01*
G02X4578Y744I0J-2D01*
G01X4579Y743D01*
G02X4576Y736I-3J-3D01*
G01X4511D01*
G02X4509Y744I0J4D01*
G03X4474Y778I-14J21D01*
G01X4473Y778D01*
X4441Y746D01*
Y691D01*
G03X4442Y686I16J0D01*
G01X4442Y646D01*
X4459D01*
G02X4461Y644I0J-2D01*
G01Y546D01*
X4591Y416D01*
G02X4590Y410I-3J-3D01*
G03X4626Y403I15J-20D01*
G01X4626Y404D01*
Y412D01*
G02X4628Y414I2J0D01*
G01X4720D01*
X4721Y413D01*
G03X4770Y420I24J7D01*
G02X4777Y423I4J0D01*
G01X4868Y332D01*
G02X4866Y325I-3J-3D01*
G01X4653D01*
G02X4651Y328I0J2D01*
G01X4652Y329D01*
G02X4654Y330I1J-2D01*
G03X4630Y354I1J25D01*
G01X4630Y353D01*
X4630Y352D01*
X4604Y327D01*
Y326D01*
X4603Y325D01*
X4573D01*
G02X4571Y327I0J2D01*
G01Y427D01*
X4434Y564D01*
Y691D01*
G03X4433Y697I-16J0D01*
G01X4433Y736D01*
X4265D01*
Y697D01*
G03X4264Y691I15J-6D01*
G01Y636D01*
G02X4263Y634I-2J0D01*
G03X4278Y586I7J-24D01*
G02X4284Y582I1J-4D01*
G01Y526D01*
X4264Y507D01*
Y398D01*
X4304Y358D01*
Y327D01*
G02X4302Y325I-2J0D01*
G01X4239D01*
G02X4237Y327I0J2D01*
G01Y477D01*
X4251Y491D01*
Y541D01*
X4237Y555D01*
Y644D01*
G02X4239Y646I2J0D01*
G01X4256D01*
Y686D01*
G03X4257Y691I-15J6D01*
G01Y741D01*
X4233Y765D01*
X4233Y766D01*
G03X4209Y742I-25J2D01*
G02X4210Y742I0J-2D01*
G01X4212Y740D01*
G02X4211Y736I-1J-1D01*
G01X4166D01*
G02X4164Y744I0J4D01*
G03X4125Y764I-14J21D01*
G02X4124Y762I-2J0D01*
G01X4114Y752D01*
Y748D01*
X4107Y741D01*
Y691D01*
G03X4108Y686I16J0D01*
G01X4108Y646D01*
X4124D01*
G02X4126Y644I0J-2D01*
G01Y574D01*
X4086Y534D01*
G02X4080Y537I-3J3D01*
G01Y578D01*
G02X4085Y582I4J0D01*
G03X4101Y630I10J23D01*
G01X4100Y630D01*
X4099Y631D01*
Y691D01*
G03X4099Y697I-16J0D01*
G01X4098Y697D01*
Y736D01*
X3990D01*
Y697D01*
X3989Y697D01*
G03X3988Y691I15J-5D01*
G01Y626D01*
X3976Y613D01*
X3975Y613D01*
G03X3968Y609I10J-23D01*
G02X3962Y612I-3J3D01*
G01Y644D01*
G02X3964Y646I2J0D01*
G01X3980D01*
Y686D01*
G03X3981Y691I-15J6D01*
G01Y736D01*
X3966Y752D01*
G02X3965Y754I2J1D01*
G03X3918Y742I-25J1D01*
G02X3915Y736I-3J-2D01*
G01X3911D01*
Y697D01*
G03X3910Y691I15J-6D01*
G01Y638D01*
X3903Y631D01*
G02X3901Y630I-1J2D01*
G03X3894Y580I-1J-25D01*
G02X3896Y574I-1J-4D01*
G01X3841Y519D01*
Y327D01*
G02X3839Y325I-2J0D01*
G01X3838D01*
G02X3836Y327I0J2D01*
G01Y600D01*
X3836Y601D01*
X3837Y601D01*
G03X3803I-17J19D01*
G02X3804Y600I-1J-2D01*
G01Y327D01*
G02X3802Y325I-2J0D01*
G01X3788D01*
G02X3786Y327I0J2D01*
G01Y714D01*
X3841Y769D01*
X3878D01*
Y807D01*
G02X3885Y810I4J0D01*
G03X3900Y855I15J20D01*
G01X3899D01*
X3898Y856D01*
X3895Y859D01*
X3833D01*
G03X3828Y858I0J-16D01*
G01X3788Y858D01*
Y841D01*
G02X3786Y839I-2J0D01*
G01X3771D01*
G02X3769Y846I0J4D01*
G01X3789Y866D01*
X3833D01*
G03X3839Y867I0J16D01*
G01X3878Y867D01*
Y1002D01*
G02X3880Y1004I2J0D01*
G01X3885D01*
X3886Y1004D01*
X3886Y1003D01*
G03X3924Y1037I19J17D01*
G02Y1042I3J3D01*
G03X3886Y1076I-19J17D01*
G01X3885Y1076D01*
X3880D01*
G02X3878Y1078I0J2D01*
G01Y1291D01*
X3788D01*
Y1044D01*
X3828D01*
G03X3833Y1043I6J15D01*
G01X3885D01*
X3886Y1043D01*
G03X3886Y1042I20J16D01*
G02Y1037I-3J-3D01*
G01X3885Y1036D01*
X3833D01*
G03X3828Y1035I0J-16D01*
G01X3788Y1035D01*
Y1019D01*
G02X3786Y1017I-2J0D01*
G01X3722D01*
G02X3720Y1019I0J2D01*
G01Y1082D01*
G03X3660Y1082I-30J18D01*
G01X3660Y1019D01*
G02X3658Y1017I-2J0D01*
G01X3359D01*
X3279Y937D01*
Y925D01*
G02X3278Y924I-2J0D01*
G03X3313Y922I17J-19D01*
G02Y925I1J1D01*
G01X3372Y984D01*
X3668D01*
G02X3672Y979I0J-4D01*
G03X3672Y959I24J-9D01*
G02X3670Y954I-4J-2D01*
G03X3656Y944I7J-24D01*
G02X3649I-3J2D01*
G03X3608I-21J-14D01*
G02X3601I-3J2D01*
G03X3560I-21J-14D01*
G02X3553I-3J2D01*
G03X3532Y954I-21J-14D01*
G01X3516D01*
X3482Y920D01*
Y879D01*
G03X3493Y858I25J0D01*
G02Y852I-2J-3D01*
G03Y810I14J-21D01*
G02Y804I-2J-3D01*
G03X3482Y783I14J-21D01*
G01Y762D01*
G03X3493Y741I25J0D01*
G02Y735I-2J-3D01*
G03Y693I14J-21D01*
G02Y687I-2J-3D01*
G03Y645I14J-21D01*
G02Y639I-2J-3D01*
G03Y597I14J-21D01*
G02Y591I-2J-3D01*
G03Y549I14J-21D01*
G02Y543I-2J-3D01*
G03X3484Y532I14J-21D01*
G02X3477Y530I-4J2D01*
G01X3452Y556D01*
X3395D01*
X3394Y556D01*
X3394Y557D01*
G03Y523I-19J-17D01*
G01X3394Y524D01*
X3395Y524D01*
X3438D01*
X3454Y508D01*
Y327D01*
G02X3452Y325I-2J0D01*
G01X3397D01*
G02X3395Y327I0J2D01*
G01Y350D01*
X3375Y370D01*
X3310D01*
X3295Y355D01*
Y327D01*
G02X3293Y325I-2J0D01*
G01X3047D01*
G02X3045Y327I0J2D01*
G37*
G36*
G01X3918Y325D02*
X3896Y347D01*
Y350D01*
G02X3902Y353I4J0D01*
G03Y397I13J22D01*
G02X3896Y400I-2J3D01*
G01Y433D01*
X3970Y507D01*
G02X3976Y506I3J-3D01*
G03X4004Y490I23J9D01*
G02X4009Y486I1J-4D01*
G01Y327D01*
G02X4007Y325I-2J0D01*
G01X3918D01*
G37*
G36*
G01X4488D02*
G02X4486Y327I0J2D01*
G01Y398D01*
G02X4492Y401I4J0D01*
G03X4524Y419I9J24D01*
G02X4531Y421I4J-1D01*
G01X4539Y413D01*
Y327D01*
G02X4537Y325I-2J0D01*
G01X4488D01*
G37*
G36*
G01X5371D02*
G02X5369Y327I0J2D01*
G01Y369D01*
G02X5375Y372I4J0D01*
G01X5400Y347D01*
G03X5408Y332I25J3D01*
G02X5405Y325I-3J-3D01*
G01X5371D01*
G37*
%LPC*%
G75*
G36*
G01X4669Y646D02*
X4639D01*
Y686D01*
G02X4639Y697I15J6D01*
G01X4639Y736D01*
X4669D01*
Y710D01*
G03X4671Y708I2J0D01*
G01X4700D01*
G03X4701Y708I0J2D01*
G02Y675I19J-17D01*
G01X4700Y675D01*
X4671D01*
G03X4669Y673I0J-2D01*
G01Y646D01*
G37*
%LPD*%
G75*
G54D10*
X1245Y758D03*
Y955D03*
Y1152D03*
X1442Y758D03*
Y1053D03*
Y857D03*
Y955D03*
Y1152D03*
G54D20*
X2500Y1420D03*
G54D11*
X1750Y785D03*
X1810D03*
Y720D03*
X1750D03*
X1675Y845D03*
X1735D03*
Y1110D03*
X1795D03*
X1675Y1045D03*
X1735D03*
X1795Y1175D03*
X1735D03*
X1995Y1145D03*
X1935D03*
X2325Y1150D03*
X2265D03*
X2575Y1285D03*
X2515D03*
X3750Y1045D03*
X3690D03*
X4900Y1315D03*
X4840D03*
G54D30*
G01X1735Y845D02*
Y800D01*
X1750Y785D01*
G01D02*
Y720D01*
G01X1810Y785D02*
Y800D01*
X1865Y855D01*
G01X1735Y1045D02*
Y1110D01*
G01X1965Y1075D02*
Y1010D01*
X1945Y990D01*
X1795D01*
X1740Y1045D01*
X1735D01*
G01X1915Y855D02*
X1910Y860D01*
Y895D01*
X1890Y915D01*
X1790D01*
X1735Y860D01*
Y845D01*
G01Y1175D02*
Y1110D01*
G01X1795Y1175D02*
Y1110D01*
G01X1824Y1175D02*
X1795D01*
G01X1975Y805D02*
X1965Y815D01*
Y855D01*
G01X1810Y785D02*
Y720D01*
G01X1865Y855D02*
Y795D01*
X1965Y695D01*
G01X1824Y1175D02*
X1845D01*
X1892Y1128D01*
Y1098D01*
X1915Y1075D01*
G01X1845Y1120D02*
Y1095D01*
X1865Y1075D01*
G01X2090Y1060D02*
Y1005D01*
X2085Y1000D01*
G01X2015Y1075D02*
X2018Y1078D01*
Y1122D01*
X1995Y1145D01*
G01X2015Y1075D02*
Y1070D01*
X2085Y1000D01*
G01D02*
X2145D01*
X2170Y1025D01*
G01X2085Y940D02*
Y925D01*
X2015Y855D01*
G01X2170Y895D02*
X2130D01*
X2085Y940D01*
G01X1930Y1300D02*
Y1281D01*
X1824Y1175D01*
G01X2515Y1285D02*
Y970D01*
X2265Y720D01*
Y695D01*
G01X2230Y1300D02*
Y1185D01*
X2265Y1150D01*
G01X2325D02*
Y1460D01*
X2410Y1545D01*
X2590D01*
X2605Y1530D01*
Y1425D01*
X2600Y1420D01*
G01X2515Y1285D02*
Y1390D01*
X2500Y1405D01*
Y1420D01*
G01X2575Y1285D02*
Y1395D01*
X2600Y1420D01*
G01X4388Y1222D02*
X4355Y1255D01*
Y1300D01*
G54D21*
X2770Y165D03*
X2820D03*
X2870D03*
X2920D03*
X2970D03*
X3020D03*
X3070D03*
X3120D03*
X3170D03*
X3220D03*
X3270D03*
X3420D03*
X3470D03*
X3520D03*
X3570D03*
X3620D03*
X3670D03*
X3720D03*
X3770D03*
X3820D03*
X3870D03*
X3920D03*
X3970D03*
X4020D03*
X4070D03*
X4120D03*
X4170D03*
X4220D03*
X4270D03*
X4320D03*
X4370D03*
X4420D03*
X4470D03*
X4520D03*
X4570D03*
X4620D03*
X4670D03*
X4720D03*
X4770D03*
X4820D03*
X4870D03*
X4920D03*
X4970D03*
X5020D03*
X5070D03*
X5120D03*
X5170D03*
X5320D03*
X5370D03*
X5420D03*
X5470D03*
X5520D03*
X5570D03*
X5620D03*
X5670D03*
X5720D03*
X5770D03*
X5820D03*
G54D12*
X1975Y805D03*
X1845Y1120D03*
X2090Y1060D03*
X3900Y890D03*
X4103Y753D03*
X3970Y1300D03*
X4265Y760D03*
X4432Y753D03*
X4355Y1300D03*
X4245Y1180D03*
X4228Y1438D03*
X4625Y760D03*
X4680Y905D03*
X4672Y1092D03*
X4680Y1025D03*
G54D31*
G01X2870Y55D02*
Y385D01*
G01X3833Y1000D02*
X3706D01*
X3705Y1002D01*
X3684D01*
X3682Y1000D01*
X3366D01*
X3295Y930D01*
Y905D01*
G01X3375Y540D02*
X3445D01*
X3470Y515D01*
Y55D01*
G01X3570D02*
Y365D01*
X3620Y415D01*
G01X3946Y691D02*
Y600D01*
X3858Y512D01*
Y68D01*
X3870Y55D01*
G01X3770D02*
Y721D01*
X3833Y784D01*
G01X3720Y55D02*
Y780D01*
X3763Y823D01*
X3833D01*
G01X3620Y55D02*
Y315D01*
X3680Y375D01*
Y830D01*
X3752Y902D01*
X3833D01*
G01X3820Y55D02*
Y620D01*
G01X3920Y55D02*
Y300D01*
X3880Y340D01*
Y440D01*
X4024Y584D01*
Y691D01*
G01X3926D02*
Y631D01*
X3900Y605D01*
G01X3765Y770D02*
X3787Y792D01*
Y794D01*
X3797Y804D01*
X3833D01*
G01X3695Y970D02*
X3705Y960D01*
X3832D01*
X3833Y961D01*
G01Y843D02*
X3888D01*
X3900Y831D01*
Y830D01*
G01X3833Y1020D02*
X3905D01*
G01X3833Y1060D02*
X3905D01*
G01X3735Y845D02*
X3745D01*
X3782Y882D01*
X3833D01*
G01Y922D02*
X3732D01*
X3715Y905D01*
X3710D01*
G01X3873Y863D02*
X3900Y890D01*
G01X3833Y863D02*
X3873D01*
G01X4064Y691D02*
Y539D01*
X4025Y500D01*
Y60D01*
X4020Y55D01*
G01X4070D02*
Y325D01*
X4050Y345D01*
Y475D01*
X4142Y567D01*
Y691D01*
G01X4120Y55D02*
Y315D01*
X4145Y340D01*
Y390D01*
G01X4170Y55D02*
Y365D01*
X4175Y370D01*
Y530D01*
X4182Y537D01*
Y691D01*
G01X3970Y360D02*
Y55D01*
G01X4120Y490D02*
Y515D01*
X4162Y557D01*
Y691D01*
G01X3995Y385D02*
X3970Y360D01*
G01X4000Y515D02*
Y520D01*
X4044Y564D01*
Y691D01*
G01X4083D02*
Y617D01*
X4095Y605D01*
G01X4201Y691D02*
Y515D01*
G01X4103Y691D02*
Y753D01*
G01X3985Y590D02*
Y600D01*
X4005Y620D01*
Y691D01*
G01X4208Y768D02*
X4241Y734D01*
Y691D01*
G01X4123D02*
Y734D01*
X4130Y742D01*
Y745D01*
X4150Y765D01*
G01X3965Y691D02*
Y730D01*
X3940Y755D01*
G01X3985Y755D02*
G01Y691D02*
Y755D01*
G01X4103Y753D02*
X4105Y755D01*
G01X3985Y1369D02*
Y1430D01*
G01X3965Y1310D02*
G01X3965Y1310D02*
Y1369D01*
G01X4379Y691D02*
Y486D01*
X4470Y395D01*
Y55D01*
G01X4339Y691D02*
Y346D01*
X4360Y325D01*
Y65D01*
X4370Y55D01*
G01X4300Y691D02*
Y520D01*
X4280Y500D01*
Y405D01*
X4320Y365D01*
Y55D01*
G01X4420D02*
Y315D01*
X4385Y350D01*
G01X4221Y691D02*
Y548D01*
X4235Y535D01*
Y498D01*
X4221Y484D01*
Y56D01*
X4220Y55D01*
G01X4270D02*
Y335D01*
G01X4320Y691D02*
Y490D01*
X4310Y480D01*
G01X4570Y55D02*
X4555Y70D01*
Y420D01*
X4418Y557D01*
Y691D01*
G01X4500Y425D02*
X4398Y527D01*
Y691D01*
G01X4410Y404D02*
X4400D01*
X4359Y445D01*
Y691D01*
G01X4520Y350D02*
X4500Y370D01*
G01X4497Y691D02*
Y563D01*
X4630Y430D01*
X4735D01*
X4745Y420D01*
G01X4605Y390D02*
X4610Y395D01*
Y420D01*
X4477Y553D01*
Y691D01*
G01X4495Y765D02*
X4483D01*
X4457Y739D01*
Y691D01*
G01X4280D02*
Y620D01*
X4270Y610D01*
G01X4265Y750D02*
X4260Y746D01*
G01D02*
Y691D01*
G01X4435Y750D02*
X4438Y747D01*
G01D02*
Y691D01*
G01X4280Y1369D02*
Y1445D01*
X4275Y1450D01*
G01X4245Y1245D02*
Y1280D01*
X4288Y1323D01*
X4290D01*
X4296Y1329D01*
Y1331D01*
X4300Y1335D01*
Y1369D01*
G01X4245Y1180D02*
Y1181D01*
X4319Y1255D01*
Y1309D01*
X4320Y1309D01*
Y1369D01*
G01X4415Y1460D02*
X4395D01*
X4361Y1426D01*
Y1425D01*
X4355Y1419D01*
X4354D01*
X4343Y1408D01*
Y1372D01*
X4339Y1369D01*
G01X4620Y55D02*
Y320D01*
X4655Y355D01*
G01X4770Y335D02*
Y55D01*
G01X4520D02*
Y350D01*
G01X4536Y691D02*
Y594D01*
X4645Y485D01*
X4735D01*
G01X4970Y55D02*
Y320D01*
X4765Y525D01*
X4640D01*
X4556Y609D01*
Y691D01*
G01X4920Y55D02*
X4915Y60D01*
Y308D01*
X4773Y450D01*
X4645D01*
X4516Y579D01*
Y691D01*
G01X4765Y340D02*
X4770Y335D01*
G01X4875Y720D02*
X4867D01*
X4783Y804D01*
X4747D01*
G01Y784D02*
X4756D01*
X5105Y435D01*
Y70D01*
X5120Y55D01*
G01X4595Y691D02*
Y655D01*
X4695Y555D01*
X4850D01*
X5060Y345D01*
Y65D01*
X5070Y55D01*
G01X4575Y691D02*
Y629D01*
X4590Y615D01*
G01X4654Y691D02*
X4720D01*
G01X4615D02*
Y730D01*
X4575Y770D01*
G01X4634Y750D02*
X4625Y760D01*
G01X4634Y691D02*
Y750D01*
G01X4747Y1099D02*
X4946D01*
X5115Y930D01*
G01X4680Y1025D02*
X4701Y1046D01*
Y1049D01*
X4707Y1056D01*
X4711D01*
X4714Y1060D01*
X4747D01*
G01Y1040D02*
X4820D01*
X4830Y1050D01*
G01X4747Y1020D02*
X4950D01*
X5610Y360D01*
Y65D01*
X5620Y55D01*
G01X5135Y795D02*
X5130Y800D01*
X5125D01*
X4924Y1000D01*
X4747D01*
G01Y981D02*
X4909D01*
X5505Y385D01*
Y70D01*
X5520Y55D01*
G01X4900Y950D02*
X4896D01*
X4885Y961D01*
X4747D01*
G01X4815Y910D02*
X4810D01*
X4798Y922D01*
X4747D01*
G01X5425Y350D02*
X5415Y360D01*
X5410D01*
X4888Y882D01*
X4747D01*
G01Y863D02*
X4867D01*
X5352Y378D01*
Y72D01*
X5370Y55D01*
G01X4905Y780D02*
X4842Y843D01*
X4747D01*
G01Y823D02*
X4822D01*
X5315Y330D01*
Y60D01*
X5320Y55D01*
G01X5470D02*
X5462Y62D01*
Y358D01*
X4915Y905D01*
X4896D01*
X4860Y941D01*
X4747D01*
G01X4744Y905D02*
X4746Y903D01*
G01X4740Y905D02*
X4744D01*
G01X4739Y905D02*
X4740Y905D01*
G01X4680Y905D02*
X4739D01*
G01X4686Y1079D02*
X4672Y1092D01*
G01X4747Y1079D02*
X4686D01*
G01X4828Y1158D02*
X4788Y1197D01*
X4747D01*
G01Y1119D02*
X5104D01*
X5115Y1130D01*
G01X4855Y335D02*
X4870Y320D01*
Y55D01*
G01X5020D02*
Y320D01*
X4975Y365D01*
G01X5385Y335D02*
X5420Y300D01*
Y55D01*
G01X5385Y345D02*
Y335D01*
G01X5570Y55D02*
Y310D01*
X5535Y345D01*
G54D22*
G01X1442Y758D02*
X1552D01*
X1750Y560D01*
X2725D01*
X3835Y1670D01*
X4490D01*
X4625Y1535D01*
G01X1675Y1045D02*
X1450D01*
X1442Y1053D01*
G01X1675Y845D02*
X1454D01*
X1442Y857D01*
G01X5140Y1640D02*
X4975Y1805D01*
X1930D01*
X1442Y1317D01*
Y1152D01*
G01X2170Y895D02*
X2250D01*
G01X3690Y1045D02*
Y1100D01*
G01X4415Y1550D02*
X4355Y1610D01*
X4295D01*
G01X4335Y1520D02*
X4385D01*
X4415Y1550D01*
G01X4840Y1315D02*
Y1360D01*
G01X5235Y1070D02*
X5305D01*
X2900Y620D03*
X3120Y370D03*
X3600Y1195D03*
X4840Y1360D03*
X5770Y455D03*
G54D13*
X1965Y695D03*
X1930Y1300D03*
X2265Y695D03*
X2230Y1300D03*
X4625Y1535D03*
X4925D03*
G54D32*
G01X1140Y1875D02*
X1155Y1890D01*
X5820D01*
X5845Y1865D01*
Y25D01*
G02X5835Y15I-10J0D01*
G01X5300D01*
G02X5295Y20I0J5D01*
G01Y305D01*
G03X5195I-50J0D01*
G01Y30D01*
G02X5185Y15I-16J0D01*
G01X3395D01*
Y305D01*
G03X3295I-50J0D01*
G01Y15D01*
X2745D01*
Y400D01*
X2730Y410D01*
X1705D01*
X1700Y405D01*
Y20D01*
X1685Y5D01*
X1145D01*
X1135Y15D01*
Y1870D01*
X1140Y1875D01*
G54D14*
X1915Y1075D03*
X1865D03*
X1965D03*
X2015D03*
X1865Y855D03*
X1915D03*
X1965D03*
X2015D03*
G54D23*
X3833Y784D03*
Y804D03*
Y823D03*
Y843D03*
Y863D03*
Y882D03*
Y902D03*
Y922D03*
Y941D03*
Y961D03*
Y981D03*
Y1000D03*
Y1020D03*
Y1040D03*
Y1060D03*
Y1079D03*
Y1099D03*
Y1119D03*
Y1138D03*
Y1158D03*
Y1178D03*
Y1197D03*
Y1217D03*
Y1237D03*
Y1256D03*
Y1276D03*
X4747Y804D03*
Y784D03*
Y1099D03*
Y1079D03*
Y1060D03*
Y1040D03*
Y1020D03*
Y1000D03*
Y981D03*
Y961D03*
Y941D03*
Y922D03*
Y902D03*
Y882D03*
Y863D03*
Y843D03*
Y823D03*
Y1276D03*
Y1256D03*
Y1237D03*
Y1217D03*
Y1197D03*
Y1178D03*
Y1158D03*
Y1138D03*
Y1119D03*
G54D33*
G01X3833Y863D02*
X3835Y864D01*
G01X4228Y1438D02*
X4249Y1416D01*
X4251D01*
X4258Y1409D01*
Y1407D01*
X4260Y1404D01*
Y1369D01*
G01X4355Y1300D02*
X4340Y1315D01*
Y1368D01*
X4339Y1369D01*
G01X4747Y1217D02*
X4744Y1219D01*
X4391D01*
X4388Y1222D01*
G01X4635Y692D02*
X4634Y691D01*
G01X4746Y903D02*
X4747Y902D01*
G01X4654Y1369D02*
X4759D01*
X4925Y1535D01*
G01X5140Y1340D02*
X5075Y1405D01*
X4830D01*
X4747Y1322D01*
Y1276D01*
G01X4835Y1225D02*
X4793D01*
X4787Y1219D01*
X4749D01*
X4747Y1217D01*
G01X4900Y1315D02*
Y1290D01*
X4835Y1225D01*
G01X5115Y930D02*
X5225D01*
X5235Y940D01*
G01X5115Y1130D02*
X5235D01*
G54D24*
X4201Y691D03*
X4182D03*
X4162D03*
X4142D03*
X4123D03*
X4103D03*
X4083D03*
X4064D03*
X4044D03*
X4024D03*
X4005D03*
X3985D03*
X3965D03*
X3946D03*
X3926D03*
Y1369D03*
X3946D03*
X3965D03*
X3985D03*
X4005D03*
X4024D03*
X4044D03*
X4064D03*
X4083D03*
X4103D03*
X4123D03*
X4142D03*
X4162D03*
X4182D03*
X4201D03*
X4497Y691D03*
X4477D03*
X4457D03*
X4438D03*
X4418D03*
X4398D03*
X4379D03*
X4359D03*
X4339D03*
X4320D03*
X4300D03*
X4280D03*
X4260D03*
X4241D03*
X4221D03*
Y1369D03*
X4241D03*
X4260D03*
X4280D03*
X4300D03*
X4320D03*
X4339D03*
X4359D03*
X4379D03*
X4398D03*
X4418D03*
X4438D03*
X4457D03*
X4477D03*
X4497D03*
X4654Y691D03*
X4634D03*
X4615D03*
X4595D03*
X4575D03*
X4556D03*
X4536D03*
X4516D03*
Y1369D03*
X4536D03*
X4556D03*
X4575D03*
X4595D03*
X4615D03*
X4634D03*
X4654D03*
G54D15*
X2085Y940D03*
Y1000D03*
X4275Y1450D03*
Y1510D03*
X4335Y1520D03*
Y1460D03*
X5235Y1070D03*
Y940D03*
Y1000D03*
Y1130D03*
G54D16*
G01X1935Y1185D02*
Y1145D01*
G01X2970Y55D02*
Y545D01*
G01X3020Y495D02*
X2970Y545D01*
G01X3120Y370D02*
Y395D01*
X3020Y495D01*
G01X2900Y620D02*
X3898Y1618D01*
X4288D01*
X4295Y1610D01*
G01X2970Y545D02*
X2900Y615D01*
Y620D01*
G01X3020Y55D02*
Y495D01*
G01X4335Y1460D02*
X4285D01*
X4275Y1450D01*
G01X5770Y455D02*
Y1100D01*
X5655Y1215D01*
X4935D01*
X4925Y1225D01*
G01X5235Y1000D02*
Y1070D01*
G01X5820Y55D02*
Y335D01*
X5770Y385D01*
G01D02*
Y55D01*
G01Y385D02*
Y455D01*
X1935Y1185D03*
X2870Y385D03*
X3255Y450D03*
X3295Y905D03*
X3620Y415D03*
X3375Y540D03*
X3450Y1055D03*
X3915Y375D03*
X3765Y770D03*
X3900Y605D03*
X3820Y620D03*
X3823Y688D03*
X3695Y970D03*
X3905Y1020D03*
Y1060D03*
X3900Y830D03*
X3735Y845D03*
X3710Y905D03*
X4000Y515D03*
X4201D03*
X4120Y490D03*
X3995Y385D03*
X4145Y390D03*
X4095Y605D03*
X3985Y590D03*
Y755D03*
X4208Y768D03*
X4150Y765D03*
X3940Y755D03*
X4045Y770D03*
X3985Y1430D03*
X4410Y404D03*
X4310Y480D03*
X4500Y425D03*
X4385Y350D03*
X4500Y370D03*
X4495Y765D03*
X4270Y610D03*
X4345Y775D03*
X4245Y1245D03*
X4605Y390D03*
X4745Y420D03*
X4735Y485D03*
X4655Y355D03*
X4710Y350D03*
X4590Y615D03*
X4720Y691D03*
X4575Y770D03*
X4815Y910D03*
X4530Y825D03*
X4975Y365D03*
X4905Y780D03*
X4875Y720D03*
X4900Y950D03*
X4830Y1050D03*
X4828Y1158D03*
X5385Y345D03*
X5135Y795D03*
X5535Y345D03*
X5425Y350D03*
G54D25*
X4415Y1460D03*
Y1550D03*
G54D17*
X2170Y1025D03*
Y895D03*
G54D26*
X5115Y1130D03*
Y930D03*
G54D18*
X2250Y895D03*
X3690Y1100D03*
X4295Y1610D03*
X5305Y1070D03*
G54D27*
X5140Y1340D03*
Y1640D03*
G54D19*
X2600Y1420D03*
G54D28*
X4835Y1225D03*
X4925D03*
G54D29*
G01X3520Y55D02*
X3530Y65D01*
Y380D01*
X3495Y415D01*
Y426D01*
G02X3507Y438I12J0D01*
G01X3539D01*
G03Y462I0J12D01*
G01X3507D01*
G02Y486I0J12D01*
G01X3539D01*
G03Y510I0J12D01*
G01X3507D01*
G02Y534I0J12D01*
G01X3539D01*
G03Y558I0J12D01*
G01X3507D01*
G02Y582I0J12D01*
G01X3539D01*
G03Y606I0J12D01*
G01X3507D01*
G02Y630I0J12D01*
G01X3539D01*
G03Y654I0J12D01*
G01X3507D01*
G02Y678I0J12D01*
G01X3539D01*
G03Y702I0J12D01*
G01X3507D01*
G02Y726I0J12D01*
G01X3539D01*
G03Y750I0J12D01*
G01X3507D01*
G02X3495Y762I0J12D01*
G01Y783D01*
G02X3507Y795I12J0D01*
G01X3593D01*
G03Y819I0J12D01*
G01X3507D01*
G02Y843I0J12D01*
G01X3593D01*
G03Y867I0J12D01*
G01X3507D01*
G02X3495Y879I0J12D01*
G01Y915D01*
X3521Y941D01*
X3532D01*
G02X3544Y929I0J-12D01*
G01Y890D01*
G03X3568I12J0D01*
G01Y929D01*
G02X3592I12J0D01*
G01Y890D01*
G03X3616I12J0D01*
G01Y929D01*
G02X3640I12J0D01*
G01Y890D01*
G03X3664I12J0D01*
G01Y929D01*
G02X3676Y941I12J0D01*
G01X3833D01*
M02*
