G04 ================== begin FILE IDENTIFICATION RECORD ==================*
G04 Layout Name:  E:/EMB002/project/hardware/ikemb-0002-v3/12-ikemb-0002-v3-final.brd*
G04 Film Name:    Solder_Top*
G04 File Format:  Gerber RS274X*
G04 File Origin:  15.7-p007*
G04 Origin Date:  Wed May 06 18:11:56 2009*
G04 *
G04 Layer:  PIN/TOP*
G04 Layer:  BOARD GEOMETRY/OUTLINE*
G04 *
G04 Offset:    (0.000 0.000)*
G04 Mirror:    No*
G04 Mode:      Positive*
G04 Rotation:  0*
G04 FullContactRelief:  No*
G04 UndefLineWidth:     8.000*
G04 ================== end FILE IDENTIFICATION RECORD ====================*
%FSLAX55Y55*MOIN*%
%IR0*IPPOS*OFA0.00000B0.00000*MIA0B0*SFA1.00000B1.00000*%
%ADD10C,.2*%
%ADD29C,.12*%
%ADD40C,.13*%
%ADD38R,.059X.008*%
%ADD21C,.110236*%
%AMMACRO54*
21,1,.06,.04,0.0,0.0,179.909*%
%ADD54MACRO54*%
%ADD51R,.1X.2*%
%ADD52R,.1X.3*%
%ADD49R,.2X.1*%
%ADD13R,.1X.17*%
%ADD43R,.01X.04*%
%ADD14R,.17X.1*%
%ADD55R,.02X.04*%
%ADD37R,.04X.01*%
%ADD23R,.25X.14*%
%ADD48R,.04X.04*%
%ADD45R,.012X.05*%
%ADD31R,.01X.07*%
%ADD46R,.05X.012*%
%ADD41R,.04X.04*%
%ADD32R,.07X.01*%
%ADD30R,.02X.025*%
%ADD53R,.04X.014*%
%ADD34R,.017X.02*%
%ADD16R,.025X.02*%
%ADD24R,.05X.06*%
%ADD36R,.06X.05*%
%ADD26R,.032X.044*%
%ADD17R,.05X.025*%
%ADD22R,.05X.09*%
%ADD11R,.062X.062*%
%ADD56R,.062X.062*%
%ADD35R,.07X.018*%
%ADD42C,.04*%
%ADD47C,.023*%
%ADD28R,.036X.036*%
%ADD27C,.032*%
%ADD20C,.05*%
%ADD25C,.06*%
%ADD44C,.017*%
%ADD39C,.08*%
%ADD12C,.062*%
%ADD15R,.06X.06*%
%AMMACRO33*
21,1,.06,.04,0.0,0.0,89.909*%
%ADD33MACRO33*%
%ADD19C,.03937*%
%ADD18C,.094488*%
%ADD50R,.03X.1*%
%ADD57R,.1X.06*%
%ADD58C,.008*%
G75*
%LPD*%
G75*
G54D10*
X2059055Y1271654D03*
X2013189Y1805709D03*
X2186614Y1945134D03*
X2240700Y1556200D03*
X2391100Y1250100D03*
X2488300D03*
X2537795Y1945134D03*
X2665354Y1271654D03*
X2572300Y1556200D03*
X2711221Y1805709D03*
G54D20*
X1998426Y1582676D03*
X1998423Y1686816D03*
X1995700Y1823300D03*
X1998383Y1731811D03*
X2302548Y1253600D03*
X2298547Y1272600D03*
X2288548D03*
X2330548Y1245600D03*
X2326548Y1253600D03*
X2322548Y1245600D03*
X2318548Y1253600D03*
X2314547Y1245600D03*
X2310548Y1253600D03*
X2306548Y1245600D03*
X2344548Y1272600D03*
X2334548D03*
X2728000Y1822500D03*
X2728348Y1749007D03*
G54D11*
X2028179Y1341551D03*
X2310000Y1572100D03*
X2637795Y1793573D03*
G54D12*
X2018179Y1341551D03*
X2300000Y1572100D03*
X2290000D03*
X2637795Y1803573D03*
X2647795Y1793573D03*
Y1803573D03*
X2657795Y1793573D03*
Y1803573D03*
X2708878Y1459836D03*
X2718878D03*
X2708878Y1449836D03*
X2718878D03*
X2708878Y1439836D03*
X2718878D03*
X2708878Y1429836D03*
X2718878D03*
X2708878Y1419836D03*
X2718878D03*
X2708878Y1409836D03*
X2718878D03*
X2708878Y1399836D03*
X2718878D03*
X2708878Y1389836D03*
X2718878D03*
X2708878Y1379836D03*
X2718878D03*
X2708878Y1369836D03*
X2718878D03*
X2708878Y1359836D03*
X2718878D03*
X2708878Y1349836D03*
X2718878D03*
Y1469836D03*
X2667795Y1793573D03*
Y1803573D03*
X2677795Y1793573D03*
Y1803573D03*
G54D30*
X2116043Y1572680D03*
Y1567680D03*
X2089500Y1646500D03*
Y1641500D03*
X2367700Y1565500D03*
Y1560500D03*
X2343400Y1629300D03*
Y1624300D03*
X2347400Y1629300D03*
Y1624300D03*
X2581342Y1669178D03*
Y1674178D03*
X2581331Y1684197D03*
Y1679197D03*
X2683106Y1670285D03*
Y1665285D03*
Y1675293D03*
Y1680293D03*
G54D21*
X2026310Y1576837D03*
Y1771177D03*
X2709205Y1576837D03*
Y1771177D03*
G54D22*
X2050300Y1642800D03*
X2059300D03*
X2068300D03*
G54D31*
X2108146Y1581707D03*
X2110114D03*
X2112083D03*
X2114051D03*
X2116020D03*
X2117988D03*
X2119957D03*
X2121925D03*
X2123894D03*
X2125862D03*
X2127831D03*
X2129799D03*
X2131768D03*
X2133736D03*
X2135705D03*
X2137673D03*
X2139642D03*
X2141610D03*
X2143579D03*
X2145547D03*
X2147516D03*
X2149484D03*
X2151453D03*
X2153421D03*
X2155390D03*
X2157358D03*
X2159327D03*
X2161295D03*
X2163264D03*
X2165232D03*
X2167201D03*
X2169169D03*
X2171138D03*
X2173106D03*
X2175075D03*
X2177043D03*
X2179012D03*
X2180980D03*
Y1649423D03*
X2179012D03*
X2177043D03*
X2175075D03*
X2173106D03*
X2171138D03*
X2169169D03*
X2167201D03*
X2165232D03*
X2163264D03*
X2161295D03*
X2159327D03*
X2157358D03*
X2155390D03*
X2153421D03*
X2151453D03*
X2149484D03*
X2147516D03*
X2145547D03*
X2143579D03*
X2141610D03*
X2139642D03*
X2137673D03*
X2135705D03*
X2133736D03*
X2131768D03*
X2129799D03*
X2127831D03*
X2125862D03*
X2123894D03*
X2121925D03*
X2119957D03*
X2117988D03*
X2116020D03*
X2114051D03*
X2112083D03*
X2110114D03*
X2108146D03*
G54D13*
X2003221Y1375027D03*
X2028221D03*
X2525990Y1685174D03*
X2500990D03*
G54D40*
X2291548Y1236600D03*
X2341548D03*
G54D50*
X2459988Y1552260D03*
X2464988D03*
X2469988D03*
X2474988D03*
X2479988D03*
X2484988D03*
X2489988D03*
X2494988D03*
Y1586260D03*
X2489988D03*
X2484988D03*
X2479988D03*
X2474988D03*
X2469988D03*
X2464988D03*
X2459988D03*
G54D32*
X2098894Y1640171D03*
Y1638203D03*
Y1636234D03*
Y1634266D03*
Y1632297D03*
Y1630329D03*
Y1628360D03*
Y1626392D03*
Y1624423D03*
Y1622455D03*
Y1620486D03*
Y1618518D03*
Y1616549D03*
Y1614581D03*
Y1612612D03*
Y1610644D03*
Y1608675D03*
Y1606707D03*
Y1604738D03*
Y1602770D03*
Y1600801D03*
Y1598833D03*
Y1596864D03*
Y1594896D03*
Y1592927D03*
Y1590959D03*
X2190232D03*
Y1592927D03*
Y1594896D03*
Y1596864D03*
Y1598833D03*
Y1600801D03*
Y1602770D03*
Y1604738D03*
Y1606707D03*
Y1608675D03*
Y1610644D03*
Y1612612D03*
Y1614581D03*
Y1616549D03*
Y1618518D03*
Y1620486D03*
Y1622455D03*
Y1624423D03*
Y1626392D03*
Y1628360D03*
Y1630329D03*
Y1632297D03*
Y1634266D03*
Y1636234D03*
Y1638203D03*
Y1640171D03*
G54D41*
X2232100Y1583700D03*
X2244553Y1921571D03*
X2320573Y1816351D03*
X2556496Y1687163D03*
X2641507Y1746929D03*
X2655043Y1824530D03*
X2689574Y1824609D03*
G54D23*
X2059300Y1669800D03*
G54D14*
X2045485Y1394576D03*
Y1369576D03*
G54D33*
X2106842Y1728035D03*
X2128842D03*
Y1744035D03*
X2106842D03*
X2072336Y1727978D03*
X2094336D03*
Y1743978D03*
X2072336D03*
X2537828Y1746595D03*
Y1730595D03*
Y1720400D03*
Y1704400D03*
X2537731Y1772734D03*
Y1756734D03*
X2559828Y1746595D03*
Y1730595D03*
Y1720400D03*
Y1704400D03*
X2559731Y1772734D03*
Y1756734D03*
G54D15*
X2017400Y1450100D03*
X2004400D03*
X2048219Y1421874D03*
Y1408874D03*
X2036740Y1426009D03*
X2023740D03*
X1998367Y1626001D03*
Y1639001D03*
X1998406Y1663321D03*
Y1676321D03*
X1998372Y1708036D03*
Y1721036D03*
X1998702Y1768782D03*
Y1755782D03*
X2079300Y1566900D03*
X2092300D03*
X2174900Y1672300D03*
Y1685300D03*
X2156600Y1721500D03*
Y1734500D03*
X2085621Y1770081D03*
Y1783081D03*
X2277055Y1628588D03*
Y1641588D03*
X2236500Y1898700D03*
X2223500D03*
X2418200Y1255500D03*
X2306800Y1594300D03*
X2319800D03*
X2374400Y1666200D03*
Y1653200D03*
X2364200Y1666200D03*
Y1653200D03*
X2326723Y1701912D03*
X2313723D03*
X2335641Y1628604D03*
Y1641604D03*
X2306300Y1798800D03*
X2319300D03*
X2342961Y1750825D03*
X2329961D03*
X2505600Y1598900D03*
Y1611900D03*
X2516700Y1736700D03*
Y1749700D03*
X2574600Y1714000D03*
Y1727000D03*
X2728948Y1674789D03*
Y1687789D03*
X2728348Y1725518D03*
Y1738518D03*
G54D42*
X2237100Y1583700D03*
X2242100D03*
X2247100D03*
X2252100D03*
X2257100D03*
X2244553Y1916571D03*
X2239553Y1921571D03*
Y1916571D03*
X2234553Y1921571D03*
Y1916571D03*
X2229553Y1921571D03*
Y1916571D03*
X2224553Y1921571D03*
Y1916571D03*
X2219553Y1921571D03*
Y1916571D03*
X2214553Y1921571D03*
Y1916571D03*
X2320573Y1821351D03*
X2325573D03*
Y1816351D03*
X2330573D03*
Y1821351D03*
X2335573Y1816351D03*
Y1821351D03*
X2340573Y1816351D03*
Y1821351D03*
X2345573Y1816351D03*
Y1821351D03*
X2350573Y1816351D03*
Y1821351D03*
X2355573Y1816351D03*
Y1821351D03*
X2319671Y1847247D03*
Y1852247D03*
Y1857247D03*
Y1862247D03*
Y1867247D03*
Y1872247D03*
X2319830Y1903666D03*
Y1908666D03*
Y1913666D03*
Y1918666D03*
X2515000Y1560000D03*
Y1565000D03*
Y1570000D03*
Y1575000D03*
X2541496Y1687163D03*
X2551496D03*
X2546496D03*
X2572763Y1610026D03*
X2567763D03*
X2636507Y1746929D03*
X2631507D03*
X2655043Y1819530D03*
X2650043D03*
X2645043D03*
X2640043D03*
X2635043D03*
X2650043Y1824530D03*
X2645043D03*
X2640043D03*
X2635043D03*
X2683387Y1351966D03*
Y1356966D03*
Y1361966D03*
Y1366966D03*
Y1371966D03*
Y1376966D03*
Y1381966D03*
X2667425Y1377050D03*
Y1372050D03*
Y1367050D03*
Y1362050D03*
Y1357050D03*
Y1352050D03*
Y1347050D03*
X2689574Y1819609D03*
X2684574D03*
X2679574D03*
X2674574D03*
X2669574D03*
X2684574Y1824609D03*
X2679574D03*
X2674574D03*
X2669574D03*
G54D24*
X1998436Y1606280D03*
Y1615280D03*
X2082900Y1634700D03*
Y1643700D03*
X2728980Y1604883D03*
Y1613883D03*
X2728940Y1654980D03*
Y1663980D03*
X2728365Y1804060D03*
Y1795060D03*
G54D51*
X2560400Y1257600D03*
G54D25*
X2017490Y1699007D03*
X2027490D03*
X2017490Y1689007D03*
X2027490D03*
X2017490Y1679007D03*
X2027490D03*
X2017490Y1669007D03*
X2027490D03*
X2017490Y1659007D03*
X2027490D03*
X2017490Y1649007D03*
X2027490D03*
X2017490Y1639007D03*
X2027490D03*
X2017490Y1629007D03*
X2027490D03*
X2017490Y1619007D03*
X2027490D03*
X2017490Y1609007D03*
X2027490D03*
X2017490Y1599007D03*
X2027490D03*
X2017490Y1749007D03*
X2027490D03*
X2017490Y1739007D03*
X2027490D03*
X2017490Y1729007D03*
X2027490D03*
X2017490Y1719007D03*
X2027490D03*
X2017490Y1709007D03*
X2027490D03*
X2300361Y1625926D03*
X2210200Y1609300D03*
Y1629300D03*
X2261717Y1625452D03*
X2241717D03*
X2423600Y1244700D03*
X2364324Y1270632D03*
Y1250632D03*
X2320361Y1625926D03*
X2369970Y1750836D03*
Y1730836D03*
Y1800698D03*
Y1780698D03*
X2429000Y1255500D03*
X2439800D03*
X2450600D03*
X2461400D03*
X2434400Y1244700D03*
X2445200D03*
X2456000D03*
X2441000Y1605200D03*
Y1625200D03*
X2509608Y1633915D03*
Y1653915D03*
X2700385Y1699007D03*
X2710385D03*
X2700385Y1689007D03*
X2710385D03*
X2700385Y1679007D03*
X2710385D03*
X2700385Y1669007D03*
X2710385D03*
X2700385Y1659007D03*
X2710385D03*
X2700385Y1649007D03*
X2710385D03*
X2700385Y1639007D03*
X2710385D03*
X2700385Y1629007D03*
X2710385D03*
X2700385Y1619007D03*
X2710385D03*
X2700385Y1609007D03*
X2710385D03*
X2700385Y1599007D03*
X2710385D03*
X2700385Y1749007D03*
X2710385D03*
X2700385Y1739007D03*
X2710385D03*
X2700385Y1729007D03*
X2710385D03*
X2700385Y1719007D03*
X2710385D03*
X2700385Y1709007D03*
X2710385D03*
G54D16*
X2010051Y1426009D03*
X2015051D03*
X2080221Y1619773D03*
X2085221D03*
X2080215Y1615764D03*
X2085215D03*
X2080236Y1623816D03*
X2085236D03*
X2080236Y1627893D03*
X2085236D03*
X2453102Y1926040D03*
X2458102D03*
X2443077D03*
X2448077D03*
G54D34*
X2149207Y1757911D03*
X2151766D03*
X2154325D03*
Y1766179D03*
X2149207D03*
X2331351Y1828916D03*
X2333910D03*
X2336469D03*
Y1837184D03*
X2331351D03*
X2533437Y1641756D03*
X2535996D03*
X2538555D03*
Y1650024D03*
X2533437D03*
X2533338Y1654425D03*
X2535897D03*
X2538456D03*
Y1662693D03*
X2533338D03*
X2685883Y1445069D03*
X2683324Y1452352D03*
X2688442D03*
X2668250Y1445015D03*
X2665691Y1452298D03*
X2670809D03*
X2690095Y1504833D03*
X2692654D03*
X2695213D03*
Y1513101D03*
X2690095D03*
G54D43*
X2259475Y1669138D03*
X2257506D03*
X2255538D03*
X2253569D03*
X2251601D03*
X2249632D03*
X2247664D03*
X2245695D03*
Y1641580D03*
X2247664D03*
X2249632D03*
X2251601D03*
X2253569D03*
X2255538D03*
X2257506D03*
X2259475D03*
X2213497Y1816767D03*
X2215466D03*
X2217434D03*
X2219403D03*
X2221371D03*
X2223340D03*
X2225308D03*
X2227277D03*
X2231596D03*
X2233565D03*
X2235533D03*
X2237502D03*
X2239470D03*
X2241439D03*
X2243407D03*
X2245376D03*
X2195398D03*
X2197367D03*
X2199335D03*
X2201304D03*
X2203272D03*
X2205241D03*
X2207209D03*
X2209178D03*
X2249695D03*
X2251664D03*
X2253632D03*
X2255601D03*
X2257569D03*
X2259538D03*
X2261506D03*
X2263475D03*
X2227277Y1824641D03*
X2225308D03*
X2223340D03*
X2221371D03*
X2219403D03*
X2217434D03*
X2215466D03*
X2213497D03*
X2245376D03*
X2243407D03*
X2241439D03*
X2239470D03*
X2237502D03*
X2235533D03*
X2233565D03*
X2231596D03*
X2209178D03*
X2207209D03*
X2205241D03*
X2203272D03*
X2201304D03*
X2199335D03*
X2197367D03*
X2195398D03*
X2263475D03*
X2261506D03*
X2259538D03*
X2257569D03*
X2255601D03*
X2253632D03*
X2251664D03*
X2249695D03*
X2316878Y1669385D03*
X2314909D03*
X2312941D03*
X2310972D03*
X2309004D03*
X2307035D03*
X2305067D03*
X2303098D03*
Y1641826D03*
X2305067D03*
X2307035D03*
X2309004D03*
X2310972D03*
X2312941D03*
X2314909D03*
X2316878D03*
X2320621Y1710832D03*
X2322590D03*
X2324558D03*
X2326527D03*
X2328495D03*
X2330464D03*
X2332432D03*
X2334401D03*
Y1738392D03*
X2332432D03*
X2330464D03*
X2328495D03*
X2326527D03*
X2324558D03*
X2322590D03*
X2320621D03*
X2336880Y1760198D03*
X2338849D03*
X2340817D03*
X2342786D03*
X2344754D03*
X2346723D03*
X2348691D03*
X2350660D03*
Y1787756D03*
X2348691D03*
X2346723D03*
X2344754D03*
X2342786D03*
X2340817D03*
X2338849D03*
X2336880D03*
X2419646Y1814986D03*
Y1822860D03*
X2472146Y1814986D03*
X2474115D03*
X2476083D03*
X2478052D03*
X2480020D03*
X2481989D03*
X2483957D03*
X2485926D03*
X2454646D03*
X2456615D03*
X2458583D03*
X2460552D03*
X2462520D03*
X2464489D03*
X2466457D03*
X2468426D03*
X2437146D03*
X2439115D03*
X2441083D03*
X2443052D03*
X2445020D03*
X2446989D03*
X2448957D03*
X2450926D03*
X2421615D03*
X2423583D03*
X2425552D03*
X2427520D03*
X2429489D03*
X2431457D03*
X2433426D03*
X2485926Y1822860D03*
X2483957D03*
X2481989D03*
X2480020D03*
X2478052D03*
X2476083D03*
X2474115D03*
X2472146D03*
X2468426D03*
X2466457D03*
X2464489D03*
X2462520D03*
X2460552D03*
X2458583D03*
X2456615D03*
X2454646D03*
X2450926D03*
X2448957D03*
X2446989D03*
X2445020D03*
X2443052D03*
X2441083D03*
X2439115D03*
X2437146D03*
X2433426D03*
X2431457D03*
X2429489D03*
X2427520D03*
X2425552D03*
X2423583D03*
X2421615D03*
X2597968Y1649125D03*
X2599937D03*
X2601905D03*
X2603874D03*
X2605842D03*
X2607811D03*
X2609779D03*
X2611748D03*
X2613716D03*
X2615685D03*
X2617653D03*
X2619622D03*
X2621590D03*
X2623559D03*
X2625527D03*
X2627496D03*
X2629464D03*
X2631433D03*
X2633401D03*
X2635370D03*
X2637338D03*
X2639307D03*
X2641275D03*
X2643244D03*
X2645212D03*
X2647181D03*
X2649149D03*
X2651118D03*
X2653086D03*
X2655055D03*
X2657023D03*
X2658992D03*
X2660960D03*
Y1735739D03*
X2658992D03*
X2657023D03*
X2655055D03*
X2653086D03*
X2651118D03*
X2649149D03*
X2647181D03*
X2645212D03*
X2643244D03*
X2641275D03*
X2639307D03*
X2637338D03*
X2635370D03*
X2633401D03*
X2631433D03*
X2629464D03*
X2627496D03*
X2625527D03*
X2623559D03*
X2621590D03*
X2619622D03*
X2617653D03*
X2615685D03*
X2613716D03*
X2611748D03*
X2609779D03*
X2607811D03*
X2605842D03*
X2603874D03*
X2601905D03*
X2599937D03*
X2597968D03*
X2584523Y1839891D03*
X2586492D03*
X2588460D03*
X2590429D03*
X2592397D03*
X2594366D03*
X2596334D03*
X2598303D03*
X2600271D03*
X2602240D03*
X2604208D03*
X2606177D03*
X2608145D03*
X2610114D03*
X2612082D03*
X2614051D03*
X2616019D03*
X2617988D03*
X2619956D03*
X2621925D03*
X2623893D03*
X2625862D03*
X2627830D03*
X2629799D03*
Y1917843D03*
X2627830D03*
X2625862D03*
X2623893D03*
X2621925D03*
X2619956D03*
X2617988D03*
X2616019D03*
X2614051D03*
X2612082D03*
X2610114D03*
X2608145D03*
X2606177D03*
X2604208D03*
X2602240D03*
X2600271D03*
X2598303D03*
X2596334D03*
X2594366D03*
X2592397D03*
X2590429D03*
X2588460D03*
X2586492D03*
X2584523D03*
X2662929Y1649125D03*
X2664897D03*
X2666866D03*
Y1735739D03*
X2664897D03*
X2662929D03*
G54D52*
X2570263Y1590026D03*
G54D44*
X2190013Y1721404D03*
Y1724554D03*
Y1727703D03*
Y1730853D03*
Y1734002D03*
Y1737152D03*
Y1740302D03*
Y1743451D03*
Y1746601D03*
Y1749750D03*
Y1752900D03*
Y1756050D03*
Y1759199D03*
Y1762349D03*
Y1765498D03*
Y1768648D03*
Y1771798D03*
Y1774947D03*
Y1778097D03*
Y1781246D03*
Y1784396D03*
Y1787546D03*
Y1790695D03*
Y1793845D03*
Y1796995D03*
Y1800144D03*
X2193162Y1721404D03*
Y1724554D03*
Y1727703D03*
Y1730853D03*
Y1734002D03*
Y1737152D03*
Y1740302D03*
Y1743451D03*
Y1746601D03*
Y1749750D03*
Y1752900D03*
Y1756050D03*
Y1759199D03*
Y1762349D03*
Y1765498D03*
Y1768648D03*
Y1771798D03*
Y1774947D03*
Y1778097D03*
Y1781246D03*
Y1784396D03*
Y1787546D03*
Y1790695D03*
Y1793845D03*
Y1796995D03*
Y1800144D03*
X2196312Y1721404D03*
Y1724554D03*
Y1727703D03*
Y1730853D03*
Y1734002D03*
Y1737152D03*
Y1740302D03*
Y1743451D03*
Y1746601D03*
Y1749750D03*
Y1752900D03*
Y1756050D03*
Y1759199D03*
Y1762349D03*
Y1765498D03*
Y1768648D03*
Y1771798D03*
Y1774947D03*
Y1778097D03*
Y1781246D03*
Y1784396D03*
Y1787546D03*
Y1790695D03*
Y1793845D03*
Y1796995D03*
Y1800144D03*
X2199462Y1721404D03*
Y1724554D03*
Y1727703D03*
Y1730853D03*
Y1734002D03*
Y1737152D03*
Y1740302D03*
Y1743451D03*
Y1746601D03*
Y1749750D03*
Y1752900D03*
Y1756050D03*
Y1759199D03*
Y1762349D03*
Y1765498D03*
Y1768648D03*
Y1771798D03*
Y1774947D03*
Y1778097D03*
Y1781246D03*
Y1784396D03*
Y1787546D03*
Y1790695D03*
Y1793845D03*
Y1796995D03*
Y1800144D03*
X2202611Y1721404D03*
Y1724554D03*
Y1727703D03*
Y1730853D03*
Y1734002D03*
Y1737152D03*
Y1740302D03*
Y1743451D03*
Y1746601D03*
Y1749750D03*
Y1752900D03*
Y1756050D03*
Y1759199D03*
Y1762349D03*
Y1765498D03*
Y1768648D03*
Y1771798D03*
Y1774947D03*
Y1778097D03*
Y1781246D03*
Y1784396D03*
Y1787546D03*
Y1790695D03*
Y1793845D03*
Y1796995D03*
Y1800144D03*
X2205761Y1721404D03*
Y1724554D03*
Y1727703D03*
Y1730853D03*
Y1734002D03*
Y1737152D03*
Y1740302D03*
Y1743451D03*
Y1746601D03*
Y1749750D03*
Y1752900D03*
Y1756050D03*
Y1759199D03*
Y1762349D03*
Y1765498D03*
Y1768648D03*
Y1771798D03*
Y1774947D03*
Y1778097D03*
Y1781246D03*
Y1784396D03*
Y1787546D03*
Y1790695D03*
Y1793845D03*
Y1796995D03*
Y1800144D03*
X2208911Y1721404D03*
Y1724554D03*
Y1727703D03*
Y1730853D03*
Y1734002D03*
Y1737152D03*
Y1740302D03*
Y1743451D03*
Y1746601D03*
Y1749750D03*
Y1752900D03*
Y1756050D03*
Y1759199D03*
Y1762349D03*
Y1765498D03*
Y1768648D03*
Y1771798D03*
Y1774947D03*
Y1778097D03*
Y1781246D03*
Y1784396D03*
Y1787546D03*
Y1790695D03*
Y1793845D03*
Y1796995D03*
Y1800144D03*
X2212060Y1721404D03*
Y1724554D03*
Y1727703D03*
Y1730853D03*
Y1734002D03*
Y1737152D03*
Y1740302D03*
Y1781246D03*
Y1784396D03*
Y1787546D03*
Y1790695D03*
Y1793845D03*
Y1796995D03*
Y1800144D03*
X2215210Y1721404D03*
Y1724554D03*
Y1727703D03*
Y1730853D03*
Y1734002D03*
Y1737152D03*
Y1740302D03*
Y1781246D03*
Y1784396D03*
Y1787546D03*
Y1790695D03*
Y1793845D03*
Y1796995D03*
Y1800144D03*
X2218359Y1721404D03*
Y1724554D03*
Y1727703D03*
Y1730853D03*
Y1734002D03*
Y1737152D03*
Y1740302D03*
Y1781246D03*
Y1784396D03*
Y1787546D03*
Y1790695D03*
Y1793845D03*
Y1796995D03*
Y1800144D03*
X2221509Y1721404D03*
Y1724554D03*
Y1727703D03*
Y1730853D03*
Y1734002D03*
Y1737152D03*
Y1740302D03*
Y1781246D03*
Y1784396D03*
Y1787546D03*
Y1790695D03*
Y1793845D03*
Y1796995D03*
Y1800144D03*
X2224659Y1721404D03*
Y1724554D03*
Y1727703D03*
Y1730853D03*
Y1734002D03*
Y1737152D03*
Y1740302D03*
Y1756050D03*
Y1759199D03*
Y1762349D03*
Y1765498D03*
Y1781246D03*
Y1784396D03*
Y1787546D03*
Y1790695D03*
Y1793845D03*
Y1796995D03*
Y1800144D03*
X2227808Y1721404D03*
Y1724554D03*
Y1727703D03*
Y1730853D03*
Y1734002D03*
Y1737152D03*
Y1740302D03*
Y1756050D03*
Y1759199D03*
Y1762349D03*
Y1765498D03*
Y1781246D03*
Y1784396D03*
Y1787546D03*
Y1790695D03*
Y1793845D03*
Y1796995D03*
Y1800144D03*
X2230958Y1721404D03*
Y1724554D03*
Y1727703D03*
Y1730853D03*
Y1734002D03*
Y1737152D03*
Y1740302D03*
Y1756050D03*
Y1759199D03*
Y1762349D03*
Y1765498D03*
Y1781246D03*
Y1784396D03*
Y1787546D03*
Y1790695D03*
Y1793845D03*
Y1796995D03*
Y1800144D03*
X2234107Y1721404D03*
Y1724554D03*
Y1727703D03*
Y1730853D03*
Y1734002D03*
Y1737152D03*
Y1740302D03*
Y1756050D03*
Y1759199D03*
Y1762349D03*
Y1765498D03*
Y1781246D03*
Y1784396D03*
Y1787546D03*
Y1790695D03*
Y1793845D03*
Y1796995D03*
Y1800144D03*
X2237257Y1721404D03*
Y1724554D03*
Y1727703D03*
Y1730853D03*
Y1734002D03*
Y1737152D03*
Y1740302D03*
Y1781246D03*
Y1784396D03*
Y1787546D03*
Y1790695D03*
Y1793845D03*
Y1796995D03*
Y1800144D03*
X2240407Y1721404D03*
Y1724554D03*
Y1727703D03*
Y1730853D03*
Y1734002D03*
Y1737152D03*
Y1740302D03*
Y1781246D03*
Y1784396D03*
Y1787546D03*
Y1790695D03*
Y1793845D03*
Y1796995D03*
Y1800144D03*
X2243556Y1721404D03*
Y1724554D03*
Y1727703D03*
Y1730853D03*
Y1734002D03*
Y1737152D03*
Y1740302D03*
Y1781246D03*
Y1784396D03*
Y1787546D03*
Y1790695D03*
Y1793845D03*
Y1796995D03*
Y1800144D03*
X2246706Y1721404D03*
Y1724554D03*
Y1727703D03*
Y1730853D03*
Y1734002D03*
Y1737152D03*
Y1740302D03*
Y1781246D03*
Y1784396D03*
Y1787546D03*
Y1790695D03*
Y1793845D03*
Y1796995D03*
Y1800144D03*
X2249855Y1721404D03*
Y1724554D03*
Y1727703D03*
Y1730853D03*
Y1734002D03*
Y1737152D03*
Y1740302D03*
Y1743451D03*
Y1746601D03*
Y1749750D03*
Y1752900D03*
Y1756050D03*
Y1759199D03*
Y1762349D03*
Y1765498D03*
Y1768648D03*
Y1771798D03*
Y1774947D03*
Y1778097D03*
Y1781246D03*
Y1784396D03*
Y1787546D03*
Y1790695D03*
Y1793845D03*
Y1796995D03*
Y1800144D03*
X2253005Y1721404D03*
Y1724554D03*
Y1727703D03*
Y1730853D03*
Y1734002D03*
Y1737152D03*
Y1740302D03*
Y1743451D03*
Y1746601D03*
Y1749750D03*
Y1752900D03*
Y1756050D03*
Y1759199D03*
Y1762349D03*
Y1765498D03*
Y1768648D03*
Y1771798D03*
Y1774947D03*
Y1778097D03*
Y1781246D03*
Y1784396D03*
Y1787546D03*
Y1790695D03*
Y1793845D03*
Y1796995D03*
Y1800144D03*
X2256155Y1721404D03*
Y1724554D03*
Y1727703D03*
Y1730853D03*
Y1734002D03*
Y1737152D03*
Y1740302D03*
Y1743451D03*
Y1746601D03*
Y1749750D03*
Y1752900D03*
Y1756050D03*
Y1759199D03*
Y1762349D03*
Y1765498D03*
Y1768648D03*
Y1771798D03*
Y1774947D03*
Y1778097D03*
Y1781246D03*
Y1784396D03*
Y1787546D03*
Y1790695D03*
Y1793845D03*
Y1796995D03*
Y1800144D03*
X2259304Y1721404D03*
Y1724554D03*
Y1727703D03*
Y1730853D03*
Y1734002D03*
Y1737152D03*
Y1740302D03*
Y1743451D03*
Y1746601D03*
Y1749750D03*
Y1752900D03*
Y1756050D03*
Y1759199D03*
Y1762349D03*
Y1765498D03*
Y1768648D03*
Y1771798D03*
Y1774947D03*
Y1778097D03*
Y1781246D03*
Y1784396D03*
Y1787546D03*
Y1790695D03*
Y1793845D03*
Y1796995D03*
Y1800144D03*
X2262454Y1721404D03*
Y1724554D03*
Y1727703D03*
Y1730853D03*
Y1734002D03*
Y1737152D03*
Y1740302D03*
Y1743451D03*
Y1746601D03*
Y1749750D03*
Y1752900D03*
Y1756050D03*
Y1759199D03*
Y1762349D03*
Y1765498D03*
Y1768648D03*
Y1771798D03*
Y1774947D03*
Y1778097D03*
Y1781246D03*
Y1784396D03*
Y1787546D03*
Y1790695D03*
Y1793845D03*
Y1796995D03*
Y1800144D03*
X2265604Y1721404D03*
Y1724554D03*
Y1727703D03*
Y1730853D03*
Y1734002D03*
Y1737152D03*
Y1740302D03*
Y1743451D03*
Y1746601D03*
Y1749750D03*
Y1752900D03*
Y1756050D03*
Y1759199D03*
Y1762349D03*
Y1765498D03*
Y1768648D03*
Y1771798D03*
Y1774947D03*
Y1778097D03*
Y1781246D03*
Y1784396D03*
Y1787546D03*
Y1790695D03*
Y1793845D03*
Y1796995D03*
Y1800144D03*
X2268753Y1721404D03*
Y1724554D03*
Y1727703D03*
Y1730853D03*
Y1734002D03*
Y1737152D03*
Y1740302D03*
Y1743451D03*
Y1746601D03*
Y1749750D03*
Y1752900D03*
Y1756050D03*
Y1759199D03*
Y1762349D03*
Y1765498D03*
Y1768648D03*
Y1771798D03*
Y1774947D03*
Y1778097D03*
Y1781246D03*
Y1784396D03*
Y1787546D03*
Y1790695D03*
Y1793845D03*
Y1796995D03*
Y1800144D03*
X2395138Y1890772D03*
Y1897071D03*
Y1900221D03*
Y1893922D03*
Y1887622D03*
Y1884473D03*
Y1881323D03*
Y1878174D03*
Y1875024D03*
Y1871874D03*
Y1868725D03*
Y1865575D03*
Y1862426D03*
Y1859276D03*
X2398287Y1903370D03*
Y1900221D03*
Y1897071D03*
Y1893922D03*
Y1890772D03*
Y1887622D03*
Y1884473D03*
Y1881323D03*
Y1878174D03*
Y1875024D03*
Y1871874D03*
Y1868725D03*
Y1865575D03*
Y1862426D03*
Y1859276D03*
X2401437Y1903370D03*
Y1900221D03*
Y1897071D03*
Y1893922D03*
Y1890772D03*
Y1887622D03*
Y1884473D03*
Y1881323D03*
Y1878174D03*
Y1875024D03*
Y1871874D03*
Y1868725D03*
Y1865575D03*
Y1862426D03*
Y1859276D03*
X2420334Y1903370D03*
Y1897071D03*
Y1890772D03*
Y1881323D03*
Y1884473D03*
Y1878174D03*
Y1875024D03*
Y1871874D03*
Y1868725D03*
Y1865575D03*
Y1862426D03*
Y1859276D03*
X2417185Y1903370D03*
Y1900221D03*
Y1897071D03*
Y1893922D03*
Y1890772D03*
Y1887622D03*
Y1884473D03*
Y1881323D03*
Y1878174D03*
Y1875024D03*
Y1871874D03*
Y1868725D03*
Y1865575D03*
Y1862426D03*
Y1859276D03*
X2414035Y1862426D03*
Y1859276D03*
Y1865575D03*
Y1868725D03*
Y1871874D03*
Y1875024D03*
Y1878174D03*
Y1881323D03*
Y1884473D03*
Y1887622D03*
Y1890772D03*
Y1893922D03*
Y1897071D03*
Y1900221D03*
Y1903370D03*
X2340138Y1890772D03*
Y1897071D03*
Y1900221D03*
Y1893922D03*
Y1887622D03*
Y1884473D03*
Y1881323D03*
Y1878174D03*
Y1875024D03*
Y1871874D03*
Y1868725D03*
Y1865575D03*
Y1862426D03*
Y1859276D03*
X2343287Y1903370D03*
Y1900221D03*
Y1897071D03*
Y1893922D03*
Y1890772D03*
Y1887622D03*
Y1884473D03*
Y1881323D03*
Y1878174D03*
Y1875024D03*
Y1871874D03*
Y1868725D03*
Y1865575D03*
Y1862426D03*
Y1859276D03*
X2346437Y1903370D03*
Y1900221D03*
Y1897071D03*
Y1893922D03*
Y1890772D03*
Y1887622D03*
Y1884473D03*
Y1881323D03*
Y1878174D03*
Y1875024D03*
Y1871874D03*
Y1868725D03*
Y1865575D03*
Y1862426D03*
Y1859276D03*
X2365334Y1903370D03*
Y1897071D03*
Y1890772D03*
Y1881323D03*
Y1884473D03*
Y1878174D03*
Y1875024D03*
Y1871874D03*
Y1868725D03*
Y1865575D03*
Y1862426D03*
Y1859276D03*
X2362185Y1903370D03*
Y1900221D03*
Y1897071D03*
Y1893922D03*
Y1890772D03*
Y1887622D03*
Y1884473D03*
Y1881323D03*
Y1878174D03*
Y1875024D03*
Y1871874D03*
Y1868725D03*
Y1865575D03*
Y1862426D03*
Y1859276D03*
X2359035Y1862426D03*
Y1859276D03*
Y1865575D03*
Y1868725D03*
Y1871874D03*
Y1875024D03*
Y1878174D03*
Y1881323D03*
Y1884473D03*
Y1887622D03*
Y1890772D03*
Y1893922D03*
Y1897071D03*
Y1900221D03*
Y1903370D03*
X2540138Y1890772D03*
Y1897071D03*
Y1900221D03*
Y1893922D03*
Y1887622D03*
Y1884473D03*
Y1881323D03*
Y1878174D03*
Y1875024D03*
Y1871874D03*
Y1868725D03*
Y1865575D03*
Y1862426D03*
Y1859276D03*
X2485138Y1890772D03*
Y1897071D03*
Y1900221D03*
Y1893922D03*
Y1887622D03*
Y1884473D03*
Y1881323D03*
Y1878174D03*
Y1875024D03*
Y1871874D03*
Y1868725D03*
Y1865575D03*
Y1862426D03*
Y1859276D03*
X2488287Y1903370D03*
Y1900221D03*
Y1897071D03*
Y1893922D03*
Y1890772D03*
Y1887622D03*
Y1884473D03*
Y1881323D03*
Y1878174D03*
Y1875024D03*
Y1871874D03*
Y1868725D03*
Y1865575D03*
Y1862426D03*
Y1859276D03*
X2491437Y1903370D03*
Y1900221D03*
Y1897071D03*
Y1893922D03*
Y1890772D03*
Y1887622D03*
Y1884473D03*
Y1881323D03*
Y1878174D03*
Y1875024D03*
Y1871874D03*
Y1868725D03*
Y1865575D03*
Y1862426D03*
Y1859276D03*
X2510334Y1903370D03*
Y1897071D03*
Y1890772D03*
Y1881323D03*
Y1884473D03*
Y1878174D03*
Y1875024D03*
Y1871874D03*
Y1868725D03*
Y1865575D03*
Y1862426D03*
Y1859276D03*
X2507185Y1903370D03*
Y1900221D03*
Y1897071D03*
Y1893922D03*
Y1890772D03*
Y1887622D03*
Y1884473D03*
Y1881323D03*
Y1878174D03*
Y1875024D03*
Y1871874D03*
Y1868725D03*
Y1865575D03*
Y1862426D03*
Y1859276D03*
X2504035Y1862426D03*
Y1859276D03*
Y1865575D03*
Y1868725D03*
Y1871874D03*
Y1875024D03*
Y1878174D03*
Y1881323D03*
Y1884473D03*
Y1887622D03*
Y1890772D03*
Y1893922D03*
Y1897071D03*
Y1900221D03*
Y1903370D03*
X2543287D03*
Y1900221D03*
Y1897071D03*
Y1893922D03*
Y1890772D03*
Y1887622D03*
Y1884473D03*
Y1881323D03*
Y1878174D03*
Y1875024D03*
Y1871874D03*
Y1868725D03*
Y1865575D03*
Y1862426D03*
Y1859276D03*
X2546437Y1903370D03*
Y1900221D03*
Y1897071D03*
Y1893922D03*
Y1890772D03*
Y1887622D03*
Y1884473D03*
Y1881323D03*
Y1878174D03*
Y1875024D03*
Y1871874D03*
Y1868725D03*
Y1865575D03*
Y1862426D03*
Y1859276D03*
X2565334Y1903370D03*
Y1897071D03*
Y1890772D03*
Y1881323D03*
Y1884473D03*
Y1878174D03*
Y1875024D03*
Y1871874D03*
Y1868725D03*
Y1865575D03*
Y1862426D03*
Y1859276D03*
X2562185Y1903370D03*
Y1900221D03*
Y1897071D03*
Y1893922D03*
Y1890772D03*
Y1887622D03*
Y1884473D03*
Y1881323D03*
Y1878174D03*
Y1875024D03*
Y1871874D03*
Y1868725D03*
Y1865575D03*
Y1862426D03*
Y1859276D03*
X2559035Y1862426D03*
Y1859276D03*
Y1865575D03*
Y1868725D03*
Y1871874D03*
Y1875024D03*
Y1878174D03*
Y1881323D03*
Y1884473D03*
Y1887622D03*
Y1890772D03*
Y1893922D03*
Y1897071D03*
Y1900221D03*
Y1903370D03*
G54D35*
X2114382Y1789731D03*
Y1793471D03*
Y1797211D03*
X2103358D03*
Y1793471D03*
Y1789534D03*
X2072621Y1809508D03*
Y1805768D03*
Y1802028D03*
X2083645D03*
Y1805768D03*
Y1809705D03*
G54D17*
X2010038Y1401318D03*
Y1406318D03*
Y1411318D03*
Y1416318D03*
X2032038Y1401318D03*
Y1406318D03*
Y1416318D03*
Y1411318D03*
X2038384Y1790522D03*
Y1795522D03*
Y1800522D03*
Y1805522D03*
X2060384Y1790522D03*
Y1795522D03*
Y1805522D03*
Y1800522D03*
X2096685Y1765582D03*
Y1770582D03*
Y1775582D03*
Y1780582D03*
X2118685Y1765582D03*
Y1770582D03*
Y1780582D03*
Y1775582D03*
X2531688Y1559369D03*
Y1564369D03*
Y1569369D03*
Y1574369D03*
Y1579369D03*
X2522040Y1621949D03*
Y1616949D03*
Y1611949D03*
Y1606949D03*
X2531688Y1584369D03*
Y1589369D03*
Y1594369D03*
X2553688Y1564369D03*
Y1559369D03*
Y1569369D03*
Y1579369D03*
Y1574369D03*
X2553536Y1606949D03*
Y1611949D03*
Y1616949D03*
Y1621949D03*
X2548842Y1643795D03*
Y1648795D03*
Y1653795D03*
Y1658795D03*
X2570842Y1643795D03*
Y1648795D03*
Y1658795D03*
Y1653795D03*
X2660334Y1621144D03*
Y1626144D03*
Y1631144D03*
Y1636144D03*
X2553688Y1584369D03*
Y1594369D03*
Y1589369D03*
X2590322Y1748545D03*
Y1753545D03*
Y1758545D03*
Y1763545D03*
X2612322Y1748545D03*
Y1753545D03*
Y1763545D03*
Y1758545D03*
X2704590Y1503092D03*
Y1508092D03*
Y1513092D03*
Y1518092D03*
X2726590Y1503092D03*
Y1508092D03*
Y1518092D03*
Y1513092D03*
X2682334Y1621144D03*
Y1626144D03*
Y1636144D03*
Y1631144D03*
G54D26*
X2053460Y1814660D03*
X2060460D03*
X2056860Y1823060D03*
X2678472Y1403608D03*
X2685472D03*
X2681872Y1412008D03*
X2678471Y1421671D03*
X2685471D03*
X2681871Y1430071D03*
X2668719Y1508219D03*
X2675719D03*
X2672119Y1516619D03*
X2668418Y1489157D03*
X2675418D03*
X2671818Y1497557D03*
X2668443Y1469641D03*
X2675443D03*
X2671843Y1478041D03*
X2719739Y1531767D03*
X2726739D03*
X2723139Y1540167D03*
X2702604Y1532003D03*
X2709604D03*
X2706004Y1540403D03*
X2685112Y1531911D03*
X2692112D03*
X2688512Y1540311D03*
X2667714Y1531821D03*
X2674714D03*
X2671114Y1540221D03*
X2718869Y1548687D03*
X2725869D03*
X2722269Y1557087D03*
X2701774Y1548384D03*
X2708774D03*
X2705174Y1556784D03*
X2684242Y1548093D03*
X2691242D03*
X2687642Y1556493D03*
X2666844Y1548117D03*
X2673844D03*
X2670244Y1556517D03*
G54D53*
X2583825Y1618569D03*
Y1621128D03*
Y1623687D03*
Y1626246D03*
X2564140Y1618569D03*
Y1621128D03*
Y1623687D03*
Y1626246D03*
G54D18*
X2004708Y1512868D03*
X2054866D03*
G54D27*
X2181900Y1287800D03*
G54D36*
X2112122Y1808660D03*
Y1922833D03*
X2632483Y1767138D03*
X2623483D03*
X2640630D03*
X2649630D03*
G54D45*
X2363778Y1574204D03*
X2365746D03*
X2367715D03*
X2369684D03*
X2371652D03*
X2373620D03*
X2375589D03*
X2377558D03*
X2379526D03*
X2381494D03*
X2383463D03*
X2385432D03*
X2387400D03*
X2389368D03*
X2391337D03*
X2393306D03*
X2395274D03*
X2397242D03*
X2399211D03*
X2401180D03*
X2403148D03*
X2405116D03*
X2407085D03*
X2409054D03*
X2411022D03*
Y1637196D03*
X2409054D03*
X2407085D03*
X2405116D03*
X2403148D03*
X2401180D03*
X2399211D03*
X2397242D03*
X2395274D03*
X2393306D03*
X2391337D03*
X2389368D03*
X2387400D03*
X2385432D03*
X2383463D03*
X2381494D03*
X2379526D03*
X2377558D03*
X2375589D03*
X2373620D03*
X2371652D03*
X2369684D03*
X2367715D03*
X2365746D03*
X2363778D03*
X2485928Y1641302D03*
X2483959D03*
X2481991D03*
X2480022D03*
X2478054D03*
X2476085D03*
X2474117D03*
X2472148D03*
X2470180D03*
X2468211D03*
X2466243D03*
X2464274D03*
Y1605870D03*
X2466243D03*
X2468211D03*
X2470180D03*
X2472148D03*
X2474117D03*
X2476085D03*
X2478054D03*
X2480022D03*
X2481991D03*
X2483959D03*
X2485928D03*
G54D54*
X2663440Y1771164D03*
Y1749164D03*
X2679440D03*
Y1771164D03*
G54D19*
X2014787Y1513852D03*
X2019787D03*
X2024787D03*
X2029787D03*
X2034787D03*
X2039787D03*
X2044787D03*
G54D28*
X2176900Y1287800D03*
G54D46*
X2418896Y1582078D03*
Y1584046D03*
Y1586015D03*
Y1587984D03*
Y1589952D03*
Y1591920D03*
Y1593889D03*
Y1595858D03*
Y1597826D03*
Y1599794D03*
Y1601763D03*
Y1603732D03*
Y1605700D03*
Y1607669D03*
Y1609637D03*
Y1611606D03*
Y1613574D03*
Y1615542D03*
Y1617511D03*
Y1619480D03*
Y1621448D03*
Y1623416D03*
Y1625385D03*
Y1627354D03*
Y1629322D03*
X2355904D03*
Y1627354D03*
Y1625385D03*
Y1623416D03*
Y1621448D03*
Y1619480D03*
Y1617511D03*
Y1615542D03*
Y1613574D03*
Y1611606D03*
Y1609637D03*
Y1607669D03*
Y1605700D03*
Y1603732D03*
Y1601763D03*
Y1599794D03*
Y1597826D03*
Y1595858D03*
Y1593889D03*
Y1591920D03*
Y1589952D03*
Y1587984D03*
Y1586015D03*
Y1584046D03*
Y1582078D03*
X2457384Y1634413D03*
Y1632444D03*
Y1630476D03*
Y1628507D03*
Y1626539D03*
Y1624570D03*
Y1622602D03*
Y1620633D03*
Y1618665D03*
Y1616696D03*
Y1614728D03*
Y1612759D03*
X2492818D03*
Y1614728D03*
Y1616696D03*
Y1618665D03*
Y1620633D03*
Y1622602D03*
Y1624570D03*
Y1626539D03*
Y1628507D03*
Y1630476D03*
Y1634413D03*
Y1632444D03*
G54D37*
X2147805Y1783942D03*
Y1781974D03*
Y1780005D03*
Y1778037D03*
Y1776068D03*
Y1774099D03*
Y1772131D03*
Y1770162D03*
X2155679D03*
Y1772131D03*
Y1774099D03*
Y1776068D03*
Y1778037D03*
Y1780005D03*
Y1781974D03*
Y1783942D03*
X2147805Y1802203D03*
Y1800235D03*
Y1798266D03*
Y1796298D03*
Y1794329D03*
Y1792361D03*
Y1790392D03*
Y1788424D03*
X2155679D03*
Y1790392D03*
Y1792361D03*
Y1794329D03*
Y1796298D03*
Y1798266D03*
Y1800235D03*
Y1802203D03*
X2147805Y1820463D03*
Y1818494D03*
Y1816526D03*
Y1814558D03*
Y1812589D03*
Y1810620D03*
Y1808652D03*
Y1806683D03*
X2155679D03*
Y1808652D03*
Y1810620D03*
Y1812589D03*
Y1814558D03*
Y1816526D03*
Y1818494D03*
Y1820463D03*
X2151233Y1921113D03*
Y1919144D03*
Y1917176D03*
Y1915207D03*
Y1913239D03*
Y1911270D03*
Y1909302D03*
Y1907333D03*
Y1905365D03*
Y1903396D03*
Y1901428D03*
Y1899459D03*
Y1897491D03*
Y1895522D03*
Y1893554D03*
Y1891585D03*
Y1889617D03*
Y1887648D03*
Y1885680D03*
Y1883711D03*
Y1881743D03*
Y1879774D03*
Y1877806D03*
Y1875837D03*
Y1873869D03*
Y1871900D03*
Y1869932D03*
Y1867963D03*
Y1865995D03*
Y1864026D03*
Y1862058D03*
Y1860089D03*
Y1858121D03*
Y1856152D03*
Y1854184D03*
Y1852215D03*
Y1850246D03*
Y1848278D03*
Y1846310D03*
Y1844341D03*
Y1842372D03*
Y1840404D03*
Y1838436D03*
X2296208Y1662495D03*
Y1660526D03*
Y1658558D03*
Y1656589D03*
Y1654621D03*
Y1652652D03*
Y1650684D03*
Y1648715D03*
X2266365Y1648469D03*
Y1650438D03*
Y1652406D03*
Y1654375D03*
Y1656343D03*
Y1658312D03*
Y1660280D03*
Y1662249D03*
X2238806D03*
Y1660280D03*
Y1658312D03*
Y1656343D03*
Y1654375D03*
Y1652406D03*
Y1650438D03*
Y1648469D03*
X2299381Y1759802D03*
Y1757833D03*
Y1755865D03*
Y1753896D03*
Y1751928D03*
Y1749959D03*
Y1747991D03*
Y1746022D03*
Y1779274D03*
Y1777305D03*
Y1775337D03*
Y1773368D03*
Y1771400D03*
Y1769431D03*
Y1767463D03*
Y1765494D03*
X2261233Y1921113D03*
Y1919144D03*
Y1917176D03*
Y1915207D03*
Y1913239D03*
Y1911270D03*
Y1909302D03*
Y1907333D03*
Y1905365D03*
Y1903396D03*
Y1901428D03*
Y1899459D03*
Y1897491D03*
Y1895522D03*
Y1893554D03*
Y1891585D03*
Y1889617D03*
Y1887648D03*
Y1885680D03*
Y1883711D03*
Y1881743D03*
Y1879774D03*
Y1877806D03*
Y1875837D03*
Y1873869D03*
Y1871900D03*
Y1869932D03*
Y1867963D03*
Y1865995D03*
Y1864026D03*
Y1862058D03*
Y1860089D03*
Y1858121D03*
Y1856152D03*
Y1854184D03*
Y1852215D03*
Y1850246D03*
Y1848278D03*
Y1846310D03*
Y1844341D03*
Y1842372D03*
Y1840404D03*
Y1838436D03*
X2197533D03*
Y1840404D03*
Y1842372D03*
Y1844341D03*
Y1846310D03*
Y1848278D03*
Y1850246D03*
Y1852215D03*
Y1854184D03*
Y1856152D03*
Y1858121D03*
Y1860089D03*
Y1862058D03*
Y1864026D03*
Y1865995D03*
Y1867963D03*
Y1869932D03*
Y1871900D03*
Y1873869D03*
Y1875837D03*
Y1877806D03*
Y1879774D03*
Y1881743D03*
Y1883711D03*
Y1885680D03*
Y1887648D03*
Y1889617D03*
Y1891585D03*
Y1893554D03*
Y1895522D03*
Y1897491D03*
Y1899459D03*
Y1901428D03*
Y1903396D03*
Y1905365D03*
Y1907333D03*
Y1909302D03*
Y1911270D03*
Y1913239D03*
Y1915207D03*
Y1917176D03*
Y1919144D03*
Y1921113D03*
X2323768Y1648715D03*
Y1650684D03*
Y1652652D03*
Y1654621D03*
Y1656589D03*
Y1658558D03*
Y1660526D03*
Y1662495D03*
X2341290Y1717722D03*
Y1719691D03*
Y1721659D03*
Y1723628D03*
Y1725596D03*
Y1727565D03*
Y1729533D03*
Y1731502D03*
X2313731D03*
Y1729533D03*
Y1727565D03*
Y1725596D03*
Y1723628D03*
Y1721659D03*
Y1719691D03*
Y1717722D03*
X2357550Y1767087D03*
Y1769056D03*
Y1771024D03*
Y1772993D03*
Y1774961D03*
Y1776930D03*
Y1778898D03*
Y1780867D03*
X2329990D03*
Y1778898D03*
Y1776930D03*
Y1774961D03*
Y1772993D03*
Y1771024D03*
Y1769056D03*
Y1767087D03*
X2307255Y1746022D03*
Y1747991D03*
Y1749959D03*
Y1751928D03*
Y1753896D03*
Y1755865D03*
Y1757833D03*
Y1759802D03*
Y1765494D03*
Y1767463D03*
Y1769431D03*
Y1771400D03*
Y1773368D03*
Y1775337D03*
Y1777305D03*
Y1779274D03*
X2307533Y1838436D03*
Y1840404D03*
Y1842372D03*
Y1844341D03*
Y1846310D03*
Y1848278D03*
Y1850246D03*
Y1852215D03*
Y1854184D03*
Y1856152D03*
Y1858121D03*
Y1860089D03*
Y1862058D03*
Y1864026D03*
Y1865995D03*
Y1867963D03*
Y1869932D03*
Y1871900D03*
Y1873869D03*
Y1875837D03*
Y1877806D03*
Y1879774D03*
Y1881743D03*
Y1883711D03*
Y1885680D03*
Y1887648D03*
Y1889617D03*
Y1891585D03*
Y1893554D03*
Y1895522D03*
Y1897491D03*
Y1899459D03*
Y1901428D03*
Y1903396D03*
Y1905365D03*
Y1907333D03*
Y1909302D03*
Y1911270D03*
Y1913239D03*
Y1915207D03*
Y1917176D03*
Y1919144D03*
Y1921113D03*
X2534499Y1819400D03*
Y1817431D03*
Y1815463D03*
Y1813494D03*
Y1811526D03*
Y1809557D03*
Y1807589D03*
Y1805620D03*
Y1803652D03*
Y1801683D03*
Y1799715D03*
Y1797746D03*
Y1795778D03*
Y1793809D03*
Y1791841D03*
Y1789872D03*
Y1787904D03*
Y1785935D03*
Y1783967D03*
Y1781998D03*
Y1827274D03*
Y1825305D03*
Y1823337D03*
Y1821368D03*
X2589110Y1701290D03*
Y1699322D03*
Y1697353D03*
Y1695384D03*
Y1693416D03*
Y1691447D03*
Y1689479D03*
Y1687510D03*
Y1685542D03*
Y1683573D03*
Y1681605D03*
Y1679636D03*
Y1677668D03*
Y1675699D03*
Y1673731D03*
Y1671762D03*
Y1669794D03*
Y1667825D03*
Y1665857D03*
Y1663888D03*
Y1661920D03*
Y1659951D03*
Y1657983D03*
Y1726880D03*
Y1724912D03*
Y1722944D03*
Y1720975D03*
Y1719006D03*
Y1717038D03*
Y1715070D03*
Y1713101D03*
Y1711132D03*
Y1709164D03*
Y1707196D03*
Y1705227D03*
Y1703258D03*
X2612451Y1781998D03*
Y1783967D03*
Y1785935D03*
Y1787904D03*
Y1789872D03*
Y1791841D03*
Y1793809D03*
Y1795778D03*
Y1797746D03*
Y1799715D03*
Y1801683D03*
Y1803652D03*
Y1805620D03*
Y1807589D03*
Y1809557D03*
Y1811526D03*
Y1813494D03*
Y1815463D03*
Y1817431D03*
Y1819400D03*
Y1821368D03*
Y1823337D03*
Y1825305D03*
Y1827274D03*
X2675724Y1657983D03*
Y1659951D03*
Y1661920D03*
Y1663888D03*
Y1665857D03*
Y1667825D03*
Y1669794D03*
Y1671762D03*
Y1673731D03*
Y1675699D03*
Y1677668D03*
Y1679636D03*
Y1681605D03*
Y1683573D03*
Y1685542D03*
Y1687510D03*
Y1689479D03*
Y1691447D03*
Y1693416D03*
Y1695384D03*
Y1697353D03*
Y1699322D03*
Y1701290D03*
Y1703258D03*
Y1705227D03*
Y1707196D03*
Y1709164D03*
Y1711132D03*
Y1713101D03*
Y1715070D03*
Y1717038D03*
Y1719006D03*
Y1720975D03*
Y1722944D03*
Y1724912D03*
Y1726880D03*
G54D55*
X2570737Y1769846D03*
X2574477D03*
X2578217D03*
X2570737Y1758822D03*
X2578217D03*
G54D47*
X2407460Y1804036D03*
X2411397D03*
X2415334D03*
X2419271D03*
X2403523Y1800099D03*
X2407460D03*
X2411397D03*
X2415334D03*
X2419271D03*
X2403523Y1796162D03*
X2407460D03*
X2411397D03*
X2415334D03*
X2419271D03*
X2403523Y1792225D03*
X2407460D03*
X2411397D03*
X2415334D03*
X2419271D03*
X2403523Y1788288D03*
X2407460D03*
X2411397D03*
X2415334D03*
X2419271D03*
X2403523Y1784351D03*
X2407460D03*
X2411397D03*
X2415334D03*
X2419271D03*
X2403523Y1780414D03*
X2407460D03*
X2411397D03*
X2415334D03*
X2419271D03*
X2403523Y1776477D03*
X2407460D03*
X2411397D03*
X2415334D03*
X2419271D03*
X2403523Y1772540D03*
X2407460D03*
X2411397D03*
X2415334D03*
X2419271D03*
X2403523Y1768603D03*
X2407460D03*
X2411397D03*
X2415334D03*
X2419271D03*
X2403523Y1764666D03*
X2407460D03*
X2411397D03*
X2415334D03*
X2419271D03*
X2403523Y1760729D03*
X2407460D03*
X2411397D03*
X2415334D03*
X2419271D03*
X2403523Y1756792D03*
X2407460D03*
X2411397D03*
X2415334D03*
X2419271D03*
X2403523Y1752855D03*
X2407460D03*
X2411397D03*
X2415334D03*
X2419271D03*
X2403523Y1748918D03*
X2407460D03*
X2411397D03*
X2415334D03*
X2419271D03*
X2403523Y1744981D03*
X2407460D03*
X2411397D03*
X2415334D03*
X2419271D03*
X2403523Y1741044D03*
X2407460D03*
X2411397D03*
X2415334D03*
X2419271D03*
X2403523Y1737107D03*
X2407460D03*
X2411397D03*
X2415334D03*
X2419271D03*
X2403523Y1733170D03*
X2407460D03*
X2411397D03*
X2415334D03*
X2419271D03*
X2403523Y1729233D03*
X2407460D03*
X2411397D03*
X2415334D03*
X2419271D03*
X2403523Y1725296D03*
X2407460D03*
X2411397D03*
X2415334D03*
X2419271D03*
X2403523Y1721358D03*
X2407460D03*
X2411397D03*
X2415334D03*
X2419271D03*
X2403523Y1717422D03*
X2407460D03*
X2411397D03*
X2415334D03*
X2419271D03*
X2403523Y1713485D03*
X2407460D03*
X2411397D03*
X2415334D03*
X2419271D03*
X2403523Y1709548D03*
X2407460D03*
X2411397D03*
X2415334D03*
X2419271D03*
X2407460Y1705610D03*
X2411397D03*
X2415334D03*
X2419271D03*
X2423208Y1804036D03*
X2427145D03*
X2431082D03*
X2435020D03*
X2438956D03*
X2442894D03*
X2446830D03*
X2450768D03*
X2454704D03*
X2458642D03*
X2462578D03*
X2466516D03*
X2470452D03*
X2474390D03*
X2478327D03*
X2482264D03*
X2486201D03*
X2490138D03*
X2494075D03*
X2498012D03*
X2423208Y1800099D03*
X2427145D03*
X2431082D03*
X2435020D03*
X2438956D03*
X2442894D03*
X2446830D03*
X2450768D03*
X2454704D03*
X2458642D03*
X2462578D03*
X2466516D03*
X2470452D03*
X2474390D03*
X2478327D03*
X2482264D03*
X2486201D03*
X2490138D03*
X2494075D03*
X2498012D03*
X2501949D03*
X2423208Y1796162D03*
X2427145D03*
X2431082D03*
X2435020D03*
X2438956D03*
X2442894D03*
X2446830D03*
X2450768D03*
X2454704D03*
X2458642D03*
X2462578D03*
X2466516D03*
X2470452D03*
X2474390D03*
X2478327D03*
X2482264D03*
X2486201D03*
X2490138D03*
X2494075D03*
X2498012D03*
X2501949D03*
X2423208Y1792225D03*
X2427145D03*
X2431082D03*
X2435020D03*
X2438956D03*
X2442894D03*
X2446830D03*
X2450768D03*
X2454704D03*
X2458642D03*
X2462578D03*
X2466516D03*
X2470452D03*
X2474390D03*
X2478327D03*
X2482264D03*
X2486201D03*
X2490138D03*
X2494075D03*
X2498012D03*
X2501949D03*
X2423208Y1788288D03*
X2427145D03*
X2431082D03*
X2435020D03*
X2438956D03*
X2442894D03*
X2446830D03*
X2450768D03*
X2454704D03*
X2458642D03*
X2462578D03*
X2466516D03*
X2470452D03*
X2474390D03*
X2478327D03*
X2482264D03*
X2486201D03*
X2490138D03*
X2494075D03*
X2498012D03*
X2501949D03*
X2423208Y1784351D03*
X2431082D03*
X2438956D03*
X2442894D03*
X2450768D03*
X2454704D03*
X2462578D03*
X2466516D03*
X2474390D03*
X2482264D03*
X2486201D03*
X2490138D03*
X2494075D03*
X2498012D03*
X2501949D03*
X2486201Y1780414D03*
X2490138D03*
X2494075D03*
X2498012D03*
X2501949D03*
X2423208Y1776477D03*
X2482264D03*
X2486201D03*
X2490138D03*
X2494075D03*
X2498012D03*
X2501949D03*
X2486201Y1772540D03*
X2490138D03*
X2494075D03*
X2498012D03*
X2501949D03*
X2423208Y1768603D03*
X2438956D03*
X2442894D03*
X2446830D03*
X2450768D03*
X2454704D03*
X2458642D03*
X2462578D03*
X2466516D03*
X2482264D03*
X2486201D03*
X2490138D03*
X2494075D03*
X2498012D03*
X2501949D03*
X2423208Y1764666D03*
X2438956D03*
X2442894D03*
X2446830D03*
X2450768D03*
X2454704D03*
X2458642D03*
X2462578D03*
X2466516D03*
X2482264D03*
X2486201D03*
X2490138D03*
X2494075D03*
X2498012D03*
X2501949D03*
X2438956Y1760729D03*
X2442894D03*
X2446830D03*
X2450768D03*
X2454704D03*
X2458642D03*
X2462578D03*
X2466516D03*
X2486201D03*
X2490138D03*
X2494075D03*
X2498012D03*
X2501949D03*
X2423208Y1756792D03*
X2438956D03*
X2442894D03*
X2446830D03*
X2450768D03*
X2454704D03*
X2458642D03*
X2462578D03*
X2466516D03*
X2482264D03*
X2486201D03*
X2490138D03*
X2494075D03*
X2498012D03*
X2501949D03*
X2423208Y1752855D03*
X2438956D03*
X2442894D03*
X2446830D03*
X2450768D03*
X2454704D03*
X2458642D03*
X2462578D03*
X2466516D03*
X2482264D03*
X2486201D03*
X2490138D03*
X2494075D03*
X2498012D03*
X2501949D03*
X2438956Y1748918D03*
X2442894D03*
X2446830D03*
X2450768D03*
X2454704D03*
X2458642D03*
X2462578D03*
X2466516D03*
X2486201D03*
X2490138D03*
X2494075D03*
X2498012D03*
X2501949D03*
X2423208Y1744981D03*
X2438956D03*
X2442894D03*
X2446830D03*
X2450768D03*
X2454704D03*
X2458642D03*
X2462578D03*
X2466516D03*
X2482264D03*
X2486201D03*
X2490138D03*
X2494075D03*
X2498012D03*
X2501949D03*
X2423208Y1741044D03*
X2438956D03*
X2442894D03*
X2446830D03*
X2450768D03*
X2454704D03*
X2458642D03*
X2462578D03*
X2466516D03*
X2482264D03*
X2486201D03*
X2490138D03*
X2494075D03*
X2498012D03*
X2501949D03*
X2486201Y1737107D03*
X2490138D03*
X2494075D03*
X2498012D03*
X2501949D03*
X2423208Y1733170D03*
X2482264D03*
X2486201D03*
X2490138D03*
X2494075D03*
X2498012D03*
X2501949D03*
X2486201Y1729233D03*
X2490138D03*
X2494075D03*
X2498012D03*
X2501949D03*
X2423208Y1725296D03*
X2431082D03*
X2438956D03*
X2442894D03*
X2450768D03*
X2454704D03*
X2462578D03*
X2466516D03*
X2474390D03*
X2482264D03*
X2486201D03*
X2490138D03*
X2494075D03*
X2498012D03*
X2501949D03*
X2423208Y1721358D03*
X2427145D03*
X2431082D03*
X2435020D03*
X2438956D03*
X2442894D03*
X2446830D03*
X2450768D03*
X2454704D03*
X2458642D03*
X2462578D03*
X2466516D03*
X2470452D03*
X2474390D03*
X2478327D03*
X2482264D03*
X2486201D03*
X2490138D03*
X2494075D03*
X2498012D03*
X2501949D03*
X2423208Y1717422D03*
X2427145D03*
X2431082D03*
X2435020D03*
X2438956D03*
X2442894D03*
X2446830D03*
X2450768D03*
X2454704D03*
X2458642D03*
X2462578D03*
X2466516D03*
X2470452D03*
X2474390D03*
X2478327D03*
X2482264D03*
X2486201D03*
X2490138D03*
X2494075D03*
X2498012D03*
X2501949D03*
X2423208Y1713485D03*
X2427145D03*
X2431082D03*
X2435020D03*
X2438956D03*
X2442894D03*
X2446830D03*
X2450768D03*
X2454704D03*
X2458642D03*
X2462578D03*
X2466516D03*
X2470452D03*
X2474390D03*
X2478327D03*
X2482264D03*
X2486201D03*
X2490138D03*
X2494075D03*
X2498012D03*
X2501949D03*
X2423208Y1709548D03*
X2427145D03*
X2431082D03*
X2435020D03*
X2438956D03*
X2442894D03*
X2446830D03*
X2450768D03*
X2454704D03*
X2458642D03*
X2462578D03*
X2466516D03*
X2470452D03*
X2474390D03*
X2478327D03*
X2482264D03*
X2486201D03*
X2490138D03*
X2494075D03*
X2498012D03*
X2501949D03*
X2423208Y1705610D03*
X2427145D03*
X2431082D03*
X2435020D03*
X2438956D03*
X2442894D03*
X2446830D03*
X2450768D03*
X2454704D03*
X2458642D03*
X2462578D03*
X2466516D03*
X2470452D03*
X2474390D03*
X2478327D03*
X2482264D03*
X2486201D03*
X2490138D03*
X2494075D03*
X2498012D03*
G54D56*
X2708878Y1469836D03*
G54D38*
X2096374Y1822439D03*
Y1824408D03*
Y1826376D03*
Y1828344D03*
Y1830313D03*
Y1832281D03*
Y1834250D03*
Y1836218D03*
Y1838187D03*
Y1840156D03*
Y1842124D03*
Y1844092D03*
Y1846061D03*
Y1848030D03*
Y1849998D03*
Y1851967D03*
Y1853935D03*
Y1855904D03*
Y1857872D03*
Y1859841D03*
Y1861809D03*
Y1863778D03*
Y1865746D03*
Y1867715D03*
Y1869683D03*
Y1871652D03*
Y1873620D03*
Y1875589D03*
Y1877557D03*
Y1879526D03*
Y1881494D03*
Y1883463D03*
Y1885431D03*
Y1887400D03*
Y1889368D03*
Y1891337D03*
Y1893305D03*
Y1895274D03*
Y1897242D03*
Y1899211D03*
Y1901179D03*
Y1903148D03*
Y1905116D03*
Y1907085D03*
Y1909053D03*
G54D29*
X2165850Y1244450D03*
X2155850Y1254450D03*
X2175850D03*
Y1234450D03*
X2155850D03*
G54D57*
X2677429Y1596799D03*
Y1609799D03*
G54D39*
X2233800Y1242100D03*
X2253485Y1261785D03*
X2214115D03*
X2233800D03*
X2214115Y1242100D03*
X2253485D03*
X2243642Y1261785D03*
X2223958D03*
X2284548Y1250100D03*
X2348547D03*
X2622000Y1556971D03*
Y1637700D03*
G54D48*
X2319671Y1842247D03*
X2319830Y1898666D03*
X2515000Y1555000D03*
X2683387Y1346966D03*
X2667425Y1382050D03*
G54D58*
G01X2086614Y1830709D02*
Y1959134D01*
X2206614D01*
Y1929134D01*
X2517795D01*
Y1959134D01*
X2637795D01*
Y1830709D01*
X2736221D01*
Y1295276D01*
X2681102D01*
Y1224409D01*
X2043307D01*
Y1295276D01*
X1988189D01*
Y1830709D01*
X2086614D01*
G01X2070866Y1299213D02*
Y1417323D01*
X2149606D01*
Y1299213D01*
X2070866D01*
G01X2653543Y1417323D02*
X2574803D01*
Y1299213D01*
X2653543D01*
Y1417323D01*
G54D49*
X2542900Y1270600D03*
Y1244600D03*
M02*
