G04 ================== begin FILE IDENTIFICATION RECORD ==================*
G04 Layout Name:  E:/EMB002/project/hardware/ikemb-0002-v3/12-ikemb-0002-v3-final.brd*
G04 Film Name:    Solder_Bottom*
G04 File Format:  Gerber RS274X*
G04 File Origin:  15.7-p007*
G04 Origin Date:  Wed May 06 18:11:57 2009*
G04 *
G04 Layer:  PIN/BOTTOM*
G04 Layer:  BOARD GEOMETRY/OUTLINE*
G04 *
G04 Offset:    (0.000 0.000)*
G04 Mirror:    No*
G04 Mode:      Positive*
G04 Rotation:  0*
G04 FullContactRelief:  No*
G04 UndefLineWidth:     8.000*
G04 ================== end FILE IDENTIFICATION RECORD ====================*
%FSLAX55Y55*MOIN*%
%IR0*IPPOS*OFA0.00000B0.00000*MIA0B0*SFA1.00000B1.00000*%
%ADD10C,.2*%
%ADD23C,.12*%
%ADD27C,.13*%
%ADD17C,.110236*%
%ADD36R,.1X.2*%
%ADD35R,.2X.1*%
%ADD30R,.04X.01*%
%ADD18R,.03X.04*%
%ADD34R,.04X.04*%
%ADD24R,.04X.03*%
%ADD28R,.04X.04*%
%ADD19R,.02X.025*%
%ADD32R,.017X.02*%
%ADD13R,.025X.02*%
%ADD33R,.018X.04*%
%ADD25R,.04X.018*%
%ADD11R,.062X.062*%
%ADD37R,.062X.062*%
%ADD29C,.04*%
%ADD22R,.036X.036*%
%ADD21C,.032*%
%ADD16C,.05*%
%ADD20C,.06*%
%ADD26C,.08*%
%ADD12C,.062*%
%ADD31R,.06X.06*%
%ADD15C,.03937*%
%ADD14C,.094488*%
%ADD38C,.008*%
G75*
%LPD*%
G75*
G54D10*
X2059055Y1271654D03*
X2013189Y1805709D03*
X2186614Y1945134D03*
X2240700Y1556200D03*
X2391100Y1250100D03*
X2488300D03*
X2537795Y1945134D03*
X2665354Y1271654D03*
X2572300Y1556200D03*
X2711221Y1805709D03*
G54D20*
X2017490Y1699007D03*
X2027490D03*
X2017490Y1689007D03*
X2027490D03*
X2017490Y1679007D03*
X2027490D03*
X2017490Y1669007D03*
X2027490D03*
X2017490Y1659007D03*
X2027490D03*
X2017490Y1649007D03*
X2027490D03*
X2017490Y1639007D03*
X2027490D03*
X2017490Y1629007D03*
X2027490D03*
X2017490Y1619007D03*
X2027490D03*
X2017490Y1609007D03*
X2027490D03*
X2017490Y1599007D03*
X2027490D03*
X2017490Y1749007D03*
X2027490D03*
X2017490Y1739007D03*
X2027490D03*
X2017490Y1729007D03*
X2027490D03*
X2017490Y1719007D03*
X2027490D03*
X2017490Y1709007D03*
X2027490D03*
X2300361Y1625926D03*
X2210200Y1609300D03*
Y1629300D03*
X2261717Y1625452D03*
X2241717D03*
X2423600Y1244700D03*
X2364324Y1270632D03*
Y1250632D03*
X2320361Y1625926D03*
X2369970Y1750836D03*
Y1730836D03*
Y1800698D03*
Y1780698D03*
X2429000Y1255500D03*
X2439800D03*
X2450600D03*
X2461400D03*
X2434400Y1244700D03*
X2445200D03*
X2456000D03*
X2441000Y1605200D03*
Y1625200D03*
X2509608Y1633915D03*
Y1653915D03*
X2700385Y1699007D03*
X2710385D03*
X2700385Y1689007D03*
X2710385D03*
X2700385Y1679007D03*
X2710385D03*
X2700385Y1669007D03*
X2710385D03*
X2700385Y1659007D03*
X2710385D03*
X2700385Y1649007D03*
X2710385D03*
X2700385Y1639007D03*
X2710385D03*
X2700385Y1629007D03*
X2710385D03*
X2700385Y1619007D03*
X2710385D03*
X2700385Y1609007D03*
X2710385D03*
X2700385Y1599007D03*
X2710385D03*
X2700385Y1749007D03*
X2710385D03*
X2700385Y1739007D03*
X2710385D03*
X2700385Y1729007D03*
X2710385D03*
X2700385Y1719007D03*
X2710385D03*
X2700385Y1709007D03*
X2710385D03*
G54D11*
X2028179Y1341551D03*
X2310000Y1572100D03*
X2637795Y1793573D03*
G54D12*
X2018179Y1341551D03*
X2300000Y1572100D03*
X2290000D03*
X2637795Y1803573D03*
X2647795Y1793573D03*
Y1803573D03*
X2657795Y1793573D03*
Y1803573D03*
X2708878Y1459836D03*
X2718878D03*
X2708878Y1449836D03*
X2718878D03*
X2708878Y1439836D03*
X2718878D03*
X2708878Y1429836D03*
X2718878D03*
X2708878Y1419836D03*
X2718878D03*
X2708878Y1409836D03*
X2718878D03*
X2708878Y1399836D03*
X2718878D03*
X2708878Y1389836D03*
X2718878D03*
X2708878Y1379836D03*
X2718878D03*
X2708878Y1369836D03*
X2718878D03*
X2708878Y1359836D03*
X2718878D03*
X2708878Y1349836D03*
X2718878D03*
Y1469836D03*
X2667795Y1793573D03*
Y1803573D03*
X2677795Y1793573D03*
Y1803573D03*
G54D21*
X2181900Y1287800D03*
G54D30*
X2291291Y1743439D03*
Y1741470D03*
Y1739502D03*
Y1737533D03*
Y1735565D03*
Y1733596D03*
Y1731628D03*
Y1729659D03*
X2283417D03*
Y1731628D03*
Y1733596D03*
Y1735565D03*
Y1737533D03*
Y1739502D03*
Y1741470D03*
Y1743439D03*
X2291314Y1723771D03*
Y1721802D03*
Y1719834D03*
Y1717865D03*
Y1715897D03*
Y1713928D03*
Y1711960D03*
Y1709991D03*
X2283440D03*
Y1711960D03*
Y1713928D03*
Y1715897D03*
Y1717865D03*
Y1719834D03*
Y1721802D03*
Y1723771D03*
G54D31*
X2418200Y1255500D03*
G54D22*
X2176900Y1287800D03*
G54D13*
X2019410Y1406345D03*
X2024410D03*
X2000192Y1388644D03*
X2005192D03*
X2015270D03*
X2010270D03*
X2025323Y1388642D03*
X2020323D03*
X2025323Y1392683D03*
X2020323D03*
X2025353Y1396724D03*
X2020353D03*
X2000207Y1392706D03*
X2005207D03*
X2000208Y1396731D03*
X2005208D03*
X2010255Y1396739D03*
X2015255D03*
X2015253Y1392703D03*
X2010253D03*
X2051644Y1795501D03*
X2046644D03*
X2046643Y1791496D03*
X2051643D03*
X2046666Y1814671D03*
X2041666D03*
X2046785Y1823047D03*
X2041785D03*
X2107500Y1634200D03*
X2112500D03*
X2113431Y1614584D03*
X2108431D03*
X2180414Y1614558D03*
X2175414D03*
X2175384Y1600778D03*
X2180384D03*
X2113656Y1598831D03*
X2108656D03*
X2175480Y1622453D03*
X2180480D03*
X2175575Y1632255D03*
X2180575D03*
X2113276Y1622453D03*
X2108276D03*
X2177700Y1777900D03*
X2172700D03*
X2112781Y1785606D03*
X2107781D03*
X2099230Y1785646D03*
X2094230D03*
X2111477Y1765971D03*
X2106477D03*
X2111477Y1770040D03*
X2106477D03*
X2083436Y1818010D03*
X2078436D03*
X2078424Y1813994D03*
X2083424D03*
X2072643Y1796368D03*
X2077643D03*
X2107811Y1820220D03*
X2112811D03*
X2177761Y1748534D03*
X2172761D03*
X2177761Y1752540D03*
X2172761D03*
X2177474Y1788611D03*
X2172474D03*
X2177474Y1792621D03*
X2172474D03*
X2177474Y1796711D03*
X2172474D03*
X2177474Y1800721D03*
X2172474D03*
X2177474Y1804731D03*
X2172474D03*
X2177804Y1756601D03*
X2172804D03*
X2177804Y1760611D03*
X2172804D03*
X2177804Y1772811D03*
X2172804D03*
X2177804Y1768721D03*
X2172804D03*
X2177804Y1764621D03*
X2172804D03*
X2177714Y1712234D03*
X2172714D03*
X2177714Y1716244D03*
X2172714D03*
X2177634Y1720254D03*
X2172634D03*
X2177634Y1724274D03*
X2172634D03*
X2177634Y1728284D03*
X2172634D03*
X2172554Y1782271D03*
X2177554D03*
X2177714Y1732294D03*
X2172714D03*
X2177714Y1736344D03*
X2172714D03*
Y1740384D03*
X2177714D03*
X2172714Y1744394D03*
X2177714D03*
X2111861Y1903308D03*
X2116861D03*
X2111861Y1907338D03*
X2116861D03*
X2111840Y1895287D03*
X2116840D03*
X2111840Y1899297D03*
X2116840D03*
X2107811Y1824250D03*
X2112811D03*
X2158044Y1838341D03*
X2163044D03*
X2158044Y1842371D03*
X2163044D03*
X2158044Y1854121D03*
X2163044D03*
X2158044Y1865971D03*
X2163044D03*
X2158044Y1893551D03*
X2163044D03*
X2158044Y1905291D03*
X2163044D03*
X2158044Y1921577D03*
X2163044D03*
X2158036Y1917526D03*
X2163036D03*
X2298535Y1282833D03*
X2293535D03*
X2297400Y1641800D03*
X2292400D03*
X2189302Y1645381D03*
X2194302D03*
X2189302Y1649421D03*
X2194302D03*
X2189302Y1653461D03*
X2194302D03*
X2189302Y1657501D03*
X2194302D03*
X2189302Y1661541D03*
X2194302D03*
X2189302Y1665580D03*
X2194302D03*
X2210200Y1617200D03*
X2215200D03*
X2210200Y1621200D03*
X2215200D03*
X2290502Y1651678D03*
X2285502D03*
X2290533Y1647642D03*
X2285533D03*
X2274371Y1602468D03*
X2279371D03*
X2279388Y1606538D03*
X2274388D03*
X2274410Y1610567D03*
X2279410D03*
X2279428Y1614637D03*
X2274428D03*
X2279428Y1618708D03*
X2274428D03*
X2279428Y1628467D03*
X2274428D03*
X2279507Y1638262D03*
X2274507D03*
X2274529Y1642292D03*
X2279529D03*
X2279507Y1646361D03*
X2274507D03*
X2245305Y1662001D03*
X2250305D03*
X2259922Y1647929D03*
X2254922D03*
X2259923Y1651939D03*
X2254923D03*
X2256617Y1635277D03*
X2251617D03*
X2244869Y1647929D03*
X2249869D03*
X2279539Y1650431D03*
X2274539D03*
X2249731Y1630005D03*
X2254731D03*
X2282927Y1760187D03*
X2287927D03*
X2282922Y1764229D03*
X2287922D03*
X2282842Y1768239D03*
X2287842D03*
X2282842Y1772249D03*
X2287842D03*
X2282842Y1776269D03*
X2287842D03*
X2282614Y1806571D03*
X2287614D03*
X2282614Y1782341D03*
X2287614D03*
X2282614Y1786351D03*
X2287614D03*
X2282614Y1790361D03*
X2287614D03*
X2282614Y1794371D03*
X2287614D03*
X2282614Y1798461D03*
X2287614D03*
X2282614Y1802561D03*
X2287614D03*
X2245394Y1776241D03*
X2240394D03*
X2245394Y1772191D03*
X2240394D03*
X2245394Y1768131D03*
X2240394D03*
X2244234Y1763251D03*
X2239234D03*
X2239294Y1759191D03*
X2244294D03*
X2245584Y1749011D03*
X2240584D03*
X2245584Y1753061D03*
X2240584D03*
X2245584Y1744961D03*
X2240584D03*
X2213404Y1745211D03*
X2218404D03*
X2213394Y1749221D03*
X2218394D03*
X2213394Y1753231D03*
X2218394D03*
X2214404Y1758351D03*
X2219404D03*
X2219424Y1762381D03*
X2214424D03*
X2213524Y1768521D03*
X2218524D03*
X2213524Y1772541D03*
X2218524D03*
X2213514Y1776561D03*
X2218514D03*
X2300584Y1911331D03*
X2295584D03*
X2300584Y1899311D03*
X2295584D03*
X2300504Y1860021D03*
X2295504D03*
X2300504Y1848271D03*
X2295504D03*
X2267964Y1838401D03*
X2272964D03*
X2267964Y1842431D03*
X2272964D03*
X2267964Y1854121D03*
X2272964D03*
X2267964Y1866031D03*
X2272964D03*
X2267934Y1893571D03*
X2272934D03*
X2267934Y1905321D03*
X2272934D03*
X2267904Y1921467D03*
X2272904D03*
X2267909Y1917467D03*
X2272909D03*
X2190544Y1911251D03*
X2185544D03*
X2190544Y1899501D03*
X2185544D03*
X2190544Y1860071D03*
X2185544D03*
X2190554Y1848271D03*
X2185554D03*
X2334563Y1282833D03*
X2339563D03*
X2388000Y1692900D03*
X2383000D03*
X2353800Y1655100D03*
X2358800D03*
Y1651100D03*
X2353800D03*
X2348800Y1655100D03*
X2343800D03*
Y1651100D03*
X2348800D03*
X2368400Y1615500D03*
X2363400D03*
X2368800Y1655100D03*
X2363800D03*
X2363600Y1603700D03*
X2368600D03*
X2411600Y1582100D03*
X2406600D03*
X2411400Y1613600D03*
X2406400D03*
X2313995Y1635438D03*
X2308995D03*
X2332941Y1602682D03*
X2337941D03*
X2337925Y1606790D03*
X2332925D03*
X2332941Y1610844D03*
X2337941D03*
X2337925Y1614952D03*
X2332925D03*
X2337925Y1619060D03*
X2332925D03*
X2337925Y1628920D03*
X2332925D03*
X2337925Y1638616D03*
X2332925D03*
X2332913Y1642645D03*
X2337913D03*
X2337925Y1646671D03*
X2332925D03*
X2337926Y1650697D03*
X2332926D03*
X2302296Y1661911D03*
X2307296D03*
X2317318Y1651848D03*
X2312318D03*
X2317318Y1647801D03*
X2312318D03*
X2302296Y1647728D03*
X2307296D03*
X2307572Y1630482D03*
X2312572D03*
X2347600Y1664700D03*
X2342600D03*
X2309200Y1733000D03*
X2304200D03*
X2321700Y1784400D03*
X2316700D03*
X2388400Y1761000D03*
X2383400D03*
X2388400Y1733900D03*
X2383400D03*
X2388500Y1767000D03*
X2383500D03*
X2388500Y1775100D03*
X2383500D03*
X2388500Y1779200D03*
X2383500D03*
X2388400Y1791600D03*
X2383400D03*
X2388400Y1799700D03*
X2383400D03*
X2354648Y1710331D03*
X2349648D03*
X2349653Y1714350D03*
X2354653D03*
X2302104Y1725617D03*
X2307104D03*
X2370951Y1775044D03*
X2365951D03*
X2365955Y1771026D03*
X2370955D03*
X2318591Y1774970D03*
X2323591D03*
X2315601Y1741263D03*
X2310601D03*
X2315641Y1737193D03*
X2310641D03*
X2331757Y1792585D03*
X2326757D03*
X2331796Y1788515D03*
X2326796D03*
X2364588Y1718743D03*
X2369588D03*
X2369606Y1706614D03*
X2364606D03*
X2369606Y1714713D03*
X2364606D03*
X2364588Y1710644D03*
X2369588D03*
X2359554Y1719730D03*
X2354554D03*
X2359674Y1729410D03*
X2354674D03*
X2359714Y1739090D03*
X2354714D03*
X2354736Y1743119D03*
X2359736D03*
X2359714Y1747149D03*
X2354714D03*
X2359714Y1751216D03*
X2354714D03*
X2333260Y1720937D03*
X2328260D03*
X2333280Y1716809D03*
X2328280D03*
X2329259Y1726812D03*
X2324259D03*
X2329259Y1730842D03*
X2324259D03*
X2349956Y1766218D03*
X2344956D03*
X2349956Y1770350D03*
X2344956D03*
X2345713Y1776160D03*
X2340713D03*
X2345686Y1780256D03*
X2340686D03*
X2369947Y1743199D03*
X2364947D03*
X2369947Y1739186D03*
X2364947D03*
X2369947Y1792822D03*
X2364947D03*
X2369947Y1788752D03*
X2364947D03*
X2388433Y1807864D03*
X2383433D03*
X2388433Y1803809D03*
X2383433D03*
X2388500Y1771100D03*
X2383500D03*
X2388262Y1754265D03*
X2383262D03*
X2388500Y1783300D03*
X2383500D03*
X2388400Y1795700D03*
X2383400D03*
X2388542Y1787325D03*
X2383542D03*
X2388400Y1746100D03*
X2383400D03*
X2388400Y1738000D03*
X2383400D03*
X2388209Y1725522D03*
X2383209D03*
X2388129Y1717433D03*
X2383129D03*
X2388169Y1721522D03*
X2383169D03*
X2388249Y1729622D03*
X2383249D03*
X2388400Y1742000D03*
X2383400D03*
X2388400Y1750100D03*
X2383400D03*
X2383102Y1713415D03*
X2388102D03*
X2383102Y1709415D03*
X2388102D03*
X2325325Y1832869D03*
X2320325D03*
X2325325Y1828786D03*
X2320325D03*
X2397496Y1918368D03*
X2392496D03*
X2365216Y1918351D03*
X2360216D03*
X2390273Y1871009D03*
X2385273D03*
X2390273Y1875208D03*
X2385273D03*
X2369789Y1870163D03*
X2374789D03*
X2372497Y1875411D03*
X2377497D03*
X2333879Y1870502D03*
X2328879D03*
X2333879Y1876393D03*
X2328879D03*
X2333879Y1887838D03*
X2328879D03*
X2333879Y1894068D03*
X2328879D03*
X2420487Y1887912D03*
X2325300Y1862300D03*
X2330300D03*
X2515200Y1699400D03*
X2520200D03*
X2441000Y1617300D03*
X2446000D03*
X2441000Y1613300D03*
X2446000D03*
X2514031Y1612716D03*
X2509031D03*
X2514045Y1608703D03*
X2509045D03*
X2514031Y1604703D03*
X2509031D03*
X2514031Y1620733D03*
X2509031D03*
X2514028Y1628770D03*
X2509028D03*
X2509024Y1624740D03*
X2514024D03*
X2509031Y1616727D03*
X2514031D03*
X2464786Y1632502D03*
X2469786D03*
X2485702Y1634390D03*
X2480702D03*
X2509622Y1646018D03*
X2514622D03*
X2509616Y1641999D03*
X2514616D03*
X2538311Y1658498D03*
X2533311D03*
X2540639Y1616013D03*
Y1611948D03*
Y1607884D03*
X2529500Y1621900D03*
X2534500D03*
X2529500Y1617000D03*
X2534500D03*
X2515330Y1764590D03*
X2520330D03*
X2515460Y1742530D03*
X2520460D03*
X2515500Y1780800D03*
X2520500D03*
X2515400Y1784900D03*
X2520400D03*
X2515400Y1788960D03*
X2520400D03*
X2515400Y1793000D03*
X2520400D03*
X2515400Y1717400D03*
X2520400D03*
X2541318Y1784100D03*
Y1803502D03*
X2515419Y1805087D03*
X2520419D03*
X2515419Y1801012D03*
X2520419D03*
X2515204Y1725876D03*
X2520204D03*
X2515200Y1721800D03*
X2520200D03*
X2515204Y1711566D03*
X2520204D03*
X2515224Y1707554D03*
X2520224D03*
X2515218Y1703495D03*
X2520218D03*
X2515344Y1730046D03*
X2520344D03*
X2515400Y1797000D03*
X2520400D03*
X2515490Y1776730D03*
X2520490D03*
X2515490Y1772710D03*
X2520490D03*
Y1768610D03*
X2515490D03*
X2520434Y1754716D03*
X2515434D03*
Y1746566D03*
X2520434D03*
X2515384Y1750646D03*
X2520384D03*
X2520494Y1734316D03*
X2515494D03*
X2520474Y1738346D03*
X2515474D03*
X2471720Y1781122D03*
X2476720D03*
Y1777107D03*
X2471720D03*
X2476720Y1773091D03*
X2471720D03*
Y1769075D03*
X2476720D03*
Y1765059D03*
X2471720D03*
X2476720Y1761004D03*
X2471720D03*
X2476760Y1756988D03*
X2471760D03*
X2471720Y1752933D03*
X2476720D03*
X2471720Y1748918D03*
X2476720D03*
X2471720Y1744902D03*
X2476720D03*
X2471720Y1740886D03*
X2476720D03*
X2478295Y1736713D03*
X2473295D03*
Y1728642D03*
X2478295D03*
Y1732658D03*
X2473295D03*
X2423216Y1728760D03*
X2428216D03*
X2427823Y1732776D03*
X2432823D03*
X2423256Y1736792D03*
X2428256D03*
X2432665Y1740807D03*
X2427665D03*
Y1744823D03*
X2432665D03*
X2427665Y1748839D03*
X2432665D03*
X2427665Y1752855D03*
X2432665D03*
Y1756870D03*
X2427665D03*
X2432665Y1760886D03*
X2427665D03*
X2432665Y1764902D03*
X2427665D03*
X2432665Y1768918D03*
X2427665D03*
X2423177Y1772933D03*
X2428177D03*
X2432350Y1776988D03*
X2427350D03*
X2423216Y1781004D03*
X2428216D03*
X2537830Y1918488D03*
X2513510Y1918437D03*
X2508510D03*
X2448085Y1926050D03*
X2443085D03*
X2458100D03*
X2453100D03*
X2535191Y1876765D03*
X2530191D03*
X2534920Y1870942D03*
X2529920D03*
X2519886Y1878255D03*
X2524886D03*
X2515484Y1871415D03*
X2520484D03*
X2480509Y1870197D03*
X2475509D03*
X2480678Y1877443D03*
X2475678D03*
X2425199Y1870281D03*
X2430199D03*
X2426503Y1876173D03*
X2431503D03*
X2425487Y1887912D03*
X2510764Y1887287D03*
X2515764D03*
X2547277Y1580310D03*
X2542277D03*
X2592900Y1610000D03*
X2597900D03*
X2605000Y1609900D03*
X2610000D03*
X2616900D03*
X2621900D03*
X2628800D03*
X2633800D03*
X2563188Y1647924D03*
X2558188D03*
X2558215Y1643869D03*
X2563215D03*
X2545639Y1616013D03*
Y1611948D03*
Y1607884D03*
X2570900Y1619700D03*
X2575900D03*
X2547327Y1584350D03*
X2542327D03*
X2542339Y1589338D03*
X2547339D03*
X2547376Y1594375D03*
X2542376D03*
X2570900Y1627700D03*
X2575900D03*
X2570900Y1623700D03*
X2575900D03*
X2602952Y1656063D03*
X2597952D03*
X2597942Y1660113D03*
X2602942D03*
X2597942Y1664163D03*
X2602942D03*
X2598222Y1671833D03*
X2603222D03*
X2598222Y1683633D03*
X2603222D03*
X2605913Y1807760D03*
X2600913D03*
X2546318Y1784100D03*
Y1803502D03*
X2633905Y1760581D03*
X2628905D03*
X2638911Y1760554D03*
X2643911D03*
X2628900Y1756557D03*
X2633900D03*
X2643943Y1756550D03*
X2638943D03*
X2576900Y1759000D03*
X2571900D03*
X2603815Y1763526D03*
X2598815D03*
X2645500Y1702700D03*
X2650500D03*
X2661632Y1729153D03*
X2598222Y1718983D03*
X2603222D03*
X2550600Y1829300D03*
X2545600D03*
X2555600D03*
X2560600D03*
X2555600Y1825300D03*
X2560600D03*
X2550600D03*
X2545600D03*
X2542830Y1918488D03*
X2572131Y1870217D03*
X2577131D03*
X2572131Y1876501D03*
X2577131D03*
X2572131Y1903364D03*
X2577131D03*
X2572131Y1884479D03*
X2577131D03*
X2569050Y1888532D03*
X2574050D03*
X2688549Y1454838D03*
X2683549D03*
X2670804Y1454806D03*
X2665804D03*
X2688568Y1442726D03*
X2683568D03*
X2670813Y1442765D03*
X2665813D03*
X2688577Y1450799D03*
X2683577D03*
X2670813Y1450789D03*
X2665813D03*
X2665820Y1446768D03*
X2670820D03*
X2683577Y1446732D03*
X2688577D03*
X2680982Y1412228D03*
X2675982D03*
X2680982Y1430291D03*
X2675982D03*
X2684369Y1403809D03*
X2679369D03*
X2684340Y1421853D03*
X2679340D03*
X2718090Y1518144D03*
X2713090D03*
X2713078Y1503082D03*
X2718078D03*
X2669617Y1508444D03*
X2674617D03*
X2669310Y1489394D03*
X2674310D03*
X2669324Y1469867D03*
X2674324D03*
X2720629Y1531999D03*
X2725629D03*
X2668607Y1532041D03*
X2673607D03*
X2703502Y1532225D03*
X2708502D03*
X2686005Y1532127D03*
X2691005D03*
X2719758Y1548903D03*
X2724758D03*
X2702670Y1548607D03*
X2707670D03*
X2685128Y1548320D03*
X2690128D03*
X2667715D03*
X2672715D03*
X2722238Y1540468D03*
X2717238D03*
X2670214Y1540526D03*
X2665214D03*
X2705110Y1540712D03*
X2700110D03*
X2687618Y1540614D03*
X2682618D03*
X2721365Y1557407D03*
X2716365D03*
X2704260Y1557091D03*
X2699260D03*
X2686698Y1556814D03*
X2681698D03*
X2669355Y1556834D03*
X2664355D03*
X2671223Y1516929D03*
X2666223D03*
X2670920Y1497868D03*
X2665920D03*
X2670934Y1478352D03*
X2665934D03*
X2675259Y1620571D03*
X2670259D03*
X2670267Y1624597D03*
X2675267D03*
X2670320Y1628625D03*
X2675320D03*
X2667492Y1665703D03*
X2662492D03*
X2666702Y1701283D03*
X2661702D03*
X2666632Y1729153D03*
X2666672Y1725053D03*
X2661672D03*
X2666692Y1720993D03*
X2661692D03*
X2666702Y1715063D03*
X2661702D03*
G54D14*
X2004708Y1512868D03*
X2054866D03*
G54D32*
X2388102Y1697483D03*
X2382984D03*
Y1705751D03*
X2385543D03*
X2388102D03*
X2595363Y1597519D03*
X2597922Y1604802D03*
X2592804D03*
X2607463Y1597419D03*
X2610022Y1604702D03*
X2604904D03*
X2619363Y1597319D03*
X2621922Y1604602D03*
X2616804D03*
X2631263Y1597219D03*
X2633822Y1604502D03*
X2628704D03*
G54D23*
X2165850Y1244450D03*
X2155850Y1254450D03*
X2175850D03*
Y1234450D03*
X2155850D03*
G54D15*
X2014787Y1513852D03*
X2019787D03*
X2024787D03*
X2029787D03*
X2034787D03*
X2039787D03*
X2044787D03*
G54D33*
X2343056Y1810231D03*
X2346324D03*
X2349592D03*
X2352860D03*
Y1802357D03*
X2349592D03*
X2346324D03*
X2343056D03*
X2325751Y1810310D03*
X2329019D03*
X2332287D03*
X2335555D03*
Y1802436D03*
X2332287D03*
X2329019D03*
X2325751D03*
X2622814Y1676932D03*
X2619546D03*
X2616278D03*
X2613010D03*
Y1684806D03*
X2616278D03*
X2619546D03*
X2622814D03*
X2628790Y1824087D03*
X2625522D03*
X2622254D03*
X2618986D03*
Y1831961D03*
X2622254D03*
X2625522D03*
X2628790D03*
X2700902Y1784763D03*
X2697634D03*
X2694366D03*
X2691098D03*
Y1792637D03*
X2694366D03*
X2697634D03*
X2700902D03*
G54D24*
X2161504Y1627339D03*
X2167504D03*
X2173981D03*
X2179981D03*
X2279425Y1623568D03*
X2273425D03*
X2279504Y1633323D03*
X2273504D03*
X2337913Y1623990D03*
X2331913D03*
X2337913Y1633795D03*
X2331913D03*
X2359672Y1724550D03*
X2353672D03*
X2359711Y1734230D03*
X2353711D03*
X2522374Y1759766D03*
X2516374D03*
G54D16*
X1998426Y1582676D03*
X1998423Y1686816D03*
X1995700Y1823300D03*
X1998383Y1731811D03*
X2302548Y1253600D03*
X2298547Y1272600D03*
X2288548D03*
X2330548Y1245600D03*
X2326548Y1253600D03*
X2322548Y1245600D03*
X2318548Y1253600D03*
X2314547Y1245600D03*
X2310548Y1253600D03*
X2306548Y1245600D03*
X2344548Y1272600D03*
X2334548D03*
X2728000Y1822500D03*
X2728348Y1749007D03*
G54D25*
X2118899Y1891320D03*
Y1888052D03*
Y1884784D03*
Y1881516D03*
X2111025D03*
Y1884784D03*
Y1888052D03*
Y1891320D03*
G54D34*
X2319671Y1842247D03*
X2319830Y1898666D03*
X2515000Y1555000D03*
X2683387Y1346966D03*
X2667425Y1382050D03*
G54D26*
X2233800Y1242100D03*
X2253485Y1261785D03*
X2214115D03*
X2233800D03*
X2214115Y1242100D03*
X2253485D03*
X2243642Y1261785D03*
X2223958D03*
X2284548Y1250100D03*
X2348547D03*
X2622000Y1556971D03*
Y1637700D03*
G54D35*
X2542900Y1270600D03*
Y1244600D03*
G54D17*
X2026310Y1576837D03*
Y1771177D03*
X2709205Y1576837D03*
Y1771177D03*
G54D18*
X2050300Y1662000D03*
Y1656000D03*
X2068300Y1661700D03*
Y1655700D03*
X2166236Y1639429D03*
Y1633429D03*
X2117964Y1639355D03*
Y1633355D03*
X2231193Y1703401D03*
Y1709401D03*
X2347919Y1695279D03*
Y1701279D03*
X2338203Y1695281D03*
Y1701281D03*
X2469239Y1620105D03*
Y1614105D03*
X2578201Y1743894D03*
Y1749894D03*
G54D36*
X2560400Y1257600D03*
G54D27*
X2291548Y1236600D03*
X2341548D03*
G54D37*
X2708878Y1469836D03*
G54D19*
X1998381Y1631267D03*
Y1626267D03*
X2171064Y1635039D03*
Y1640039D03*
X2141505Y1634508D03*
Y1639508D03*
X2133730Y1591537D03*
Y1596537D03*
X2157329Y1591698D03*
Y1596698D03*
X2153321Y1591698D03*
Y1596698D03*
X2127855Y1591608D03*
Y1596608D03*
X2161372Y1596699D03*
Y1591699D03*
X2161399Y1634522D03*
Y1639522D03*
X2127026Y1634638D03*
Y1639638D03*
X2121928Y1596630D03*
Y1591630D03*
X2167208Y1596845D03*
Y1591845D03*
X2145548Y1596845D03*
Y1591845D03*
X2157358Y1634523D03*
Y1639523D03*
X2122966Y1634601D03*
Y1639601D03*
X2145548Y1634523D03*
Y1639523D03*
X2091267Y1804112D03*
Y1809112D03*
X2245100Y1635600D03*
Y1630600D03*
X2255602Y1676434D03*
Y1681434D03*
X2251583Y1681429D03*
Y1676429D03*
X2234700Y1641100D03*
Y1636100D03*
X2259644Y1676434D03*
Y1681434D03*
X2238800Y1641100D03*
Y1636100D03*
X2255898Y1661495D03*
Y1656495D03*
X2259930Y1661469D03*
Y1656469D03*
X2250389Y1657463D03*
Y1652463D03*
X2246370Y1657477D03*
Y1652477D03*
X2254314Y1625461D03*
Y1620461D03*
X2250245Y1625461D03*
Y1620461D03*
X2270744Y1812691D03*
Y1817691D03*
X2266674Y1812691D03*
Y1817691D03*
X2256900Y1812719D03*
Y1817719D03*
X2230464Y1811941D03*
Y1816941D03*
X2225834Y1811941D03*
Y1816941D03*
X2207304Y1812061D03*
Y1817061D03*
X2202854Y1812061D03*
Y1817061D03*
X2189114Y1811871D03*
Y1816871D03*
X2193494Y1811871D03*
Y1816871D03*
X2265233Y1709571D03*
Y1704571D03*
X2269315Y1709567D03*
Y1704567D03*
X2273345Y1709567D03*
Y1704567D03*
X2184314Y1704251D03*
Y1709251D03*
X2252800Y1709600D03*
Y1704600D03*
X2257000D03*
Y1709600D03*
X2226203Y1704461D03*
Y1709461D03*
X2236053Y1709411D03*
Y1704411D03*
X2240093Y1709411D03*
Y1704411D03*
X2204933Y1709221D03*
Y1704221D03*
X2196813Y1704254D03*
Y1709254D03*
X2216524Y1811961D03*
Y1816961D03*
X2236294Y1812631D03*
Y1817631D03*
X2220774Y1811961D03*
Y1816961D03*
X2248754Y1812721D03*
Y1817721D03*
X2252884Y1812721D03*
Y1817721D03*
X2244624Y1817661D03*
Y1812661D03*
X2240404Y1817581D03*
Y1812581D03*
X2188564Y1709281D03*
Y1704281D03*
X2192694Y1709281D03*
Y1704281D03*
X2248723Y1709561D03*
Y1704561D03*
X2210300Y1704200D03*
Y1709200D03*
X2217100Y1704300D03*
Y1709300D03*
X2221200Y1704300D03*
Y1709300D03*
X2212064Y1817051D03*
Y1812051D03*
X2200913Y1709254D03*
Y1704254D03*
X2261223Y1709571D03*
Y1704571D03*
X2244293Y1704471D03*
Y1709471D03*
X2223364Y1775731D03*
Y1770731D03*
X2227394Y1770721D03*
Y1775721D03*
X2231434Y1770721D03*
Y1775721D03*
X2235464Y1775731D03*
Y1770731D03*
X2235394Y1745731D03*
Y1750731D03*
X2231364Y1750721D03*
Y1745721D03*
X2227334Y1750721D03*
Y1745721D03*
X2223304Y1745731D03*
Y1750731D03*
X2344492Y1261551D03*
Y1266551D03*
X2348532Y1261551D03*
Y1266551D03*
X2302547Y1267586D03*
Y1262586D03*
X2318507Y1267586D03*
Y1262586D03*
X2371700Y1581600D03*
X2413100Y1692300D03*
Y1687300D03*
X2381700Y1653200D03*
Y1658200D03*
X2371700Y1586600D03*
X2377600Y1629600D03*
Y1624600D03*
X2312906Y1675870D03*
Y1680870D03*
X2308868Y1680884D03*
Y1675884D03*
X2316925Y1675870D03*
Y1680870D03*
X2368938Y1700294D03*
Y1695294D03*
X2364908Y1695276D03*
Y1700276D03*
X2360881Y1700294D03*
Y1695294D03*
X2356851Y1695276D03*
Y1700276D03*
X2352782Y1695276D03*
Y1700276D03*
X2343060Y1695276D03*
Y1700276D03*
X2333344Y1695279D03*
Y1700279D03*
X2329274Y1700297D03*
Y1695297D03*
X2325244Y1695279D03*
Y1700279D03*
X2321214Y1695279D03*
Y1700279D03*
X2313745Y1661401D03*
Y1656401D03*
X2317828Y1661400D03*
Y1656400D03*
X2307765Y1657317D03*
Y1652317D03*
X2303736Y1657317D03*
Y1652317D03*
X2312036Y1625938D03*
Y1620938D03*
X2308006Y1625938D03*
Y1620938D03*
X2408600Y1687300D03*
Y1692300D03*
X2417700Y1687100D03*
Y1692100D03*
X2404600Y1687300D03*
Y1692300D03*
X2400600Y1687300D03*
Y1692300D03*
X2341282Y1713370D03*
Y1708370D03*
X2357559Y1762321D03*
Y1757321D03*
X2333813Y1732316D03*
Y1727316D03*
X2323758Y1717283D03*
Y1722283D03*
X2319728Y1717303D03*
Y1722303D03*
Y1732314D03*
Y1727314D03*
X2336285Y1766594D03*
Y1771594D03*
X2340341Y1766594D03*
Y1771594D03*
X2350269Y1781718D03*
Y1776718D03*
X2336165Y1781678D03*
Y1776678D03*
X2374490Y1738752D03*
Y1743752D03*
Y1788357D03*
Y1793357D03*
X2370321Y1885351D03*
Y1880351D03*
X2415031Y1823677D03*
Y1828677D03*
X2407009Y1823677D03*
Y1828677D03*
X2402998Y1823677D03*
Y1828677D03*
X2398987Y1823677D03*
Y1828677D03*
X2464937Y1527431D03*
Y1532431D03*
X2489975Y1527431D03*
Y1532431D03*
X2489994Y1575306D03*
Y1570306D03*
X2464986Y1570290D03*
Y1575290D03*
X2479987Y1570329D03*
Y1575329D03*
X2475064Y1575323D03*
Y1570323D03*
X2469980Y1575320D03*
Y1570320D03*
X2459941Y1575302D03*
Y1570302D03*
X2485000Y1570311D03*
Y1575311D03*
X2494969Y1570329D03*
Y1575329D03*
X2537651Y1579413D03*
Y1574413D03*
X2446300Y1572300D03*
Y1577300D03*
X2500400Y1692300D03*
Y1687300D03*
X2446200Y1692100D03*
Y1687100D03*
X2434000Y1692100D03*
Y1687100D03*
X2462900Y1692300D03*
Y1687300D03*
X2483900Y1692300D03*
Y1687300D03*
X2516800Y1692300D03*
Y1687300D03*
X2512700Y1692300D03*
Y1687300D03*
X2508600Y1692300D03*
Y1687300D03*
X2504500Y1692300D03*
Y1687300D03*
X2486066Y1613350D03*
Y1618350D03*
X2482058Y1618358D03*
Y1613358D03*
X2474053Y1613338D03*
Y1618338D03*
X2474300Y1634364D03*
Y1629364D03*
X2478054Y1613342D03*
Y1618342D03*
X2462698Y1648676D03*
Y1653676D03*
X2458660Y1640893D03*
Y1645893D03*
X2470719Y1648662D03*
Y1653662D03*
X2466711Y1648663D03*
Y1653663D03*
X2454644Y1640893D03*
Y1645893D03*
X2529659Y1606946D03*
Y1611946D03*
X2537800Y1591981D03*
Y1586981D03*
X2517600Y1666800D03*
Y1671800D03*
X2421800Y1687100D03*
Y1692100D03*
X2450482Y1687115D03*
Y1692115D03*
X2492200Y1687300D03*
Y1692300D03*
X2458752Y1687195D03*
Y1692195D03*
X2471362Y1687355D03*
Y1692355D03*
X2429900Y1687100D03*
Y1692100D03*
X2438052Y1687105D03*
Y1692105D03*
X2496200Y1692300D03*
Y1687300D03*
X2454662Y1692265D03*
Y1687265D03*
X2442100Y1692100D03*
Y1687100D03*
X2425800Y1692100D03*
Y1687100D03*
X2479892Y1687345D03*
Y1692345D03*
X2467042Y1687435D03*
Y1692435D03*
X2475802Y1687345D03*
Y1692345D03*
X2509500Y1666800D03*
Y1671800D03*
X2513600Y1666800D03*
Y1671800D03*
X2488152Y1692295D03*
Y1687295D03*
X2422500Y1656900D03*
Y1651900D03*
X2442547Y1772855D03*
Y1777855D03*
X2438531Y1780453D03*
Y1775453D03*
X2446563Y1777855D03*
Y1772855D03*
X2450578Y1777855D03*
Y1772855D03*
X2454594Y1777855D03*
Y1772855D03*
X2458610D03*
Y1777855D03*
X2462665Y1772855D03*
Y1777855D03*
X2466681Y1772855D03*
Y1777855D03*
X2466838Y1735926D03*
Y1730926D03*
X2462823Y1735926D03*
Y1730926D03*
X2458807Y1735926D03*
Y1730926D03*
X2454791Y1729036D03*
Y1734036D03*
X2450775Y1736674D03*
Y1731674D03*
X2446760Y1736674D03*
Y1731674D03*
X2442744Y1736674D03*
Y1731674D03*
X2438689Y1729429D03*
Y1734429D03*
X2462783Y1744508D03*
Y1749508D03*
X2458768Y1744508D03*
Y1749508D03*
X2454752Y1744508D03*
Y1749508D03*
X2450736Y1744508D03*
Y1749508D03*
X2446720Y1744508D03*
Y1749508D03*
X2442704Y1744508D03*
Y1749508D03*
X2462783Y1765178D03*
Y1760178D03*
X2458768Y1765178D03*
Y1760178D03*
X2454752Y1765178D03*
Y1760178D03*
X2450736Y1765178D03*
Y1760178D03*
X2446720Y1765178D03*
Y1760178D03*
X2442704Y1765178D03*
Y1760178D03*
X2498442Y1823595D03*
Y1828595D03*
X2502452Y1823595D03*
Y1828595D03*
X2506463Y1823595D03*
Y1828595D03*
X2490391Y1823595D03*
Y1828595D03*
X2470546Y1823591D03*
Y1828591D03*
X2466461Y1823591D03*
Y1828591D03*
X2439021Y1823632D03*
Y1828632D03*
X2443037Y1823632D03*
Y1828632D03*
X2457554Y1823598D03*
Y1828598D03*
X2453494Y1823598D03*
Y1828598D03*
X2596200Y1586900D03*
Y1591900D03*
X2608500Y1586600D03*
Y1591600D03*
X2620400Y1586800D03*
Y1591800D03*
X2631600Y1586800D03*
Y1591800D03*
X2592100Y1591900D03*
Y1586900D03*
X2604400Y1591600D03*
Y1586600D03*
X2616300Y1591800D03*
Y1586800D03*
X2627500Y1591800D03*
Y1586800D03*
X2541479Y1675814D03*
Y1680814D03*
X2563061Y1658762D03*
Y1653762D03*
X2556864Y1658781D03*
Y1653781D03*
X2567755Y1598244D03*
Y1603244D03*
X2572771Y1598291D03*
Y1603291D03*
X2631864Y1682215D03*
Y1677215D03*
X2627630Y1682215D03*
Y1677215D03*
X2607462Y1656063D03*
Y1661063D03*
X2623752Y1658373D03*
Y1663373D03*
X2646932Y1658253D03*
Y1663253D03*
X2615672Y1658383D03*
Y1663383D03*
X2631642Y1658333D03*
Y1663333D03*
X2654842Y1658333D03*
Y1663333D03*
X2574137Y1776727D03*
Y1781727D03*
X2578199Y1776727D03*
Y1781727D03*
X2657122Y1729103D03*
Y1724103D03*
X2637222Y1726823D03*
Y1721823D03*
X2623252Y1726763D03*
Y1721763D03*
X2650509Y1727249D03*
Y1722249D03*
X2631242Y1726753D03*
Y1721753D03*
X2609732Y1727093D03*
Y1722093D03*
X2606151Y1910888D03*
Y1905888D03*
X2606205Y1846807D03*
Y1851807D03*
X2596333Y1851722D03*
Y1846722D03*
X2619960Y1846625D03*
Y1851625D03*
X2713477Y1513106D03*
Y1508106D03*
X2718316Y1508070D03*
Y1513070D03*
X2725661Y1628979D03*
Y1623979D03*
X2728949Y1680417D03*
Y1675417D03*
X2669998Y1638180D03*
Y1633180D03*
X2674078Y1638180D03*
Y1633180D03*
X2728365Y1782334D03*
Y1787334D03*
G54D28*
X2232100Y1583700D03*
X2244553Y1921571D03*
X2320573Y1816351D03*
X2556496Y1687163D03*
X2641507Y1746929D03*
X2655043Y1824530D03*
X2689574Y1824609D03*
G54D38*
G01X2086614Y1830709D02*
Y1959134D01*
X2206614D01*
Y1929134D01*
X2517795D01*
Y1959134D01*
X2637795D01*
Y1830709D01*
X2736221D01*
Y1295276D01*
X2681102D01*
Y1224409D01*
X2043307D01*
Y1295276D01*
X1988189D01*
Y1830709D01*
X2086614D01*
G01X2070866Y1299213D02*
Y1417323D01*
X2149606D01*
Y1299213D01*
X2070866D01*
G01X2653543Y1417323D02*
X2574803D01*
Y1299213D01*
X2653543D01*
Y1417323D01*
G54D29*
X2237100Y1583700D03*
X2242100D03*
X2247100D03*
X2252100D03*
X2257100D03*
X2244553Y1916571D03*
X2239553Y1921571D03*
Y1916571D03*
X2234553Y1921571D03*
Y1916571D03*
X2229553Y1921571D03*
Y1916571D03*
X2224553Y1921571D03*
Y1916571D03*
X2219553Y1921571D03*
Y1916571D03*
X2214553Y1921571D03*
Y1916571D03*
X2320573Y1821351D03*
X2325573D03*
Y1816351D03*
X2330573D03*
Y1821351D03*
X2335573Y1816351D03*
Y1821351D03*
X2340573Y1816351D03*
Y1821351D03*
X2345573Y1816351D03*
Y1821351D03*
X2350573Y1816351D03*
Y1821351D03*
X2355573Y1816351D03*
Y1821351D03*
X2319671Y1847247D03*
Y1852247D03*
Y1857247D03*
Y1862247D03*
Y1867247D03*
Y1872247D03*
X2319830Y1903666D03*
Y1908666D03*
Y1913666D03*
Y1918666D03*
X2515000Y1560000D03*
Y1565000D03*
Y1570000D03*
Y1575000D03*
X2541496Y1687163D03*
X2551496D03*
X2546496D03*
X2572763Y1610026D03*
X2567763D03*
X2636507Y1746929D03*
X2631507D03*
X2655043Y1819530D03*
X2650043D03*
X2645043D03*
X2640043D03*
X2635043D03*
X2650043Y1824530D03*
X2645043D03*
X2640043D03*
X2635043D03*
X2683387Y1351966D03*
Y1356966D03*
Y1361966D03*
Y1366966D03*
Y1371966D03*
Y1376966D03*
Y1381966D03*
X2667425Y1377050D03*
Y1372050D03*
Y1367050D03*
Y1362050D03*
Y1357050D03*
Y1352050D03*
Y1347050D03*
X2689574Y1819609D03*
X2684574D03*
X2679574D03*
X2674574D03*
X2669574D03*
X2684574Y1824609D03*
X2679574D03*
X2674574D03*
X2669574D03*
M02*
