G04 ================== begin FILE IDENTIFICATION RECORD ==================*
G04 Layout Name:  E:/EMB002/project/hardware/Mini-8738/Mini.brd*
G04 Film Name:    BOTTOM*
G04 File Format:  Gerber RS274X*
G04 File Origin:  15.7-p007*
G04 Origin Date:  Tue Jul 01 09:24:56 2008*
G04 *
G04 Layer:  ETCH/BOTTOM*
G04 Layer:  PIN/BOTTOM*
G04 Layer:  VIA CLASS/BOTTOM*
G04 *
G04 Offset:    (0.00 0.00)*
G04 Mirror:    No*
G04 Mode:      Positive*
G04 Rotation:  0*
G04 FullContactRelief:  No*
G04 UndefLineWidth:     8.00*
G04 ================== end FILE IDENTIFICATION RECORD ====================*
%FSLAX55Y55*MOIN*%
%IR0*IPPOS*OFA0.00000B0.00000*MIA0B0*SFA1.00000B1.00000*%
%ADD11C,.023*%
%ADD18C,.06*%
%ADD20C,.062*%
%ADD17C,.08*%
%ADD21R,.06X.06*%
%ADD13R,.01X.04*%
%ADD12R,.03X.04*%
%AMMACRO10*
4,1,4,-.01181,-.04528,
.01181,-.04528,
.01181,.04528,
-.01181,.04528,
-.01181,-.04528,
0.0*
%
%ADD10MACRO10*%
%ADD14R,.04X.03*%
%ADD15R,.017X.02*%
%ADD16R,.06X.05*%
%ADD22R,.05X.025*%
%ADD19R,.062X.062*%
%ADD23C,.012*%
%ADD24C,.015*%
%ADD25C,.0081*%
%ADD27C,.03524*%
%ADD26C,.09224*%
%ADD28R,.07424X.07424*%
G75*
%LPD*%
G75*
G36*
G01X26101Y10700D02*
G02X25901Y10900I0J200D01*
G01Y13900D01*
X24100Y15701D01*
X21600D01*
X19799Y13900D01*
Y10900D01*
G02X19599Y10700I-200J0D01*
G01X301D01*
G02X101Y10900I0J200D01*
G01Y70499D01*
G02X301Y70699I200J0D01*
G01X3600D01*
X8001Y75100D01*
Y81900D01*
X3200Y86701D01*
X301D01*
G02X101Y86901I0J200D01*
G01Y200299D01*
G02X301Y200499I200J0D01*
G01X234399D01*
G02X234599Y200299I0J-200D01*
G01Y90100D01*
X226399Y81900D01*
Y75200D01*
X231200Y70399D01*
X234399D01*
G02X234599Y70199I0J-200D01*
G01Y10900D01*
G02X234399Y10700I-200J0D01*
G01X181917D01*
G02X181562Y11285I0J400D01*
G03X181614Y12808I-1562J816D01*
G02X181655Y13030I183J81D01*
G01X186170Y17545D01*
X186237Y17554D01*
G03X184254Y19537I-237J1746D01*
G01X184245Y19470D01*
X178747Y13973D01*
G02X178465I-141J141D01*
G01X167563Y24874D01*
X161824D01*
G02X161624Y25074I0J200D01*
G01Y26470D01*
X147590D01*
Y21246D01*
X147684Y21152D01*
Y20736D01*
G02X147343Y20594I-200J0D01*
G01X145876Y22062D01*
Y26470D01*
X129872D01*
Y21246D01*
X129968Y21152D01*
Y19414D01*
X128746Y18193D01*
G02X128063Y18476I-283J283D01*
G01X128064Y21152D01*
X128158Y21246D01*
Y26470D01*
X118062D01*
Y21199D01*
X117679Y20816D01*
X106779D01*
X97784Y11821D01*
Y10900D01*
G02X97584Y10700I-200J0D01*
G01X96916D01*
G02X96716Y10900I0J200D01*
G01Y11521D01*
X84774Y23464D01*
Y26626D01*
X78972D01*
G02X78772Y26826I0J200D01*
G01Y28085D01*
X81191Y30504D01*
X100103D01*
X102394Y32795D01*
Y33424D01*
G02X102594Y33624I200J0D01*
G01X102840D01*
Y36238D01*
G02X103040Y36438I200J0D01*
G01X104834D01*
G02X105034Y36238I0J-200D01*
G01Y33624D01*
X107958D01*
Y36808D01*
X107989Y36857D01*
G03X105433Y39202I-1489J943D01*
G01X105380Y39162D01*
X99020D01*
X98967Y39202D01*
G03X96349Y36963I-1067J-1402D01*
G01X96374Y36919D01*
Y33624D01*
X99296D01*
X99297Y36238D01*
G02X99497Y36438I200J0D01*
G01X99716D01*
G02X99916Y36239I1J-199D01*
G01Y33624D01*
X99928D01*
X100028Y33558D01*
X100051Y33501D01*
G02X100008Y33283I-185J-77D01*
G01X99261Y32536D01*
X80349D01*
X76740Y28927D01*
X76739Y26826D01*
G02X76539Y26626I-200J0D01*
G01X75036D01*
G02X74836Y26826I0J200D01*
G01Y28482D01*
X80573Y34220D01*
X91056D01*
G02X91256Y34020I0J-200D01*
G01Y33624D01*
X94178D01*
Y36848D01*
X91256D01*
Y36452D01*
G02X91056Y36252I-200J0D01*
G01X79731D01*
X72802Y29324D01*
X72803Y26826D01*
G02X72603Y26626I-200J0D01*
G01X70740D01*
Y21877D01*
X61379Y12516D01*
X58579D01*
X56762Y10700D01*
X56286D01*
G02X56086Y10900I0J200D01*
G01Y11040D01*
X56041Y11085D01*
G02Y11368I141J142D01*
G01X56075Y11403D01*
X56123Y11417D01*
G03X55945Y14828I-523J1683D01*
G01X55886Y14840D01*
X53764Y16962D01*
X53664D01*
X53364Y17262D01*
X48871D01*
G02X48504Y17820I0J400D01*
G03X46681Y20268I-1618J698D01*
G01X46634Y20263D01*
X46549Y20292D01*
X45404Y21438D01*
Y26626D01*
X41212D01*
Y21404D01*
X41306Y21308D01*
Y20569D01*
X41267Y20488D01*
X41231Y20459D01*
G03X40574Y18863I1092J-1383D01*
G02X39894Y18531I-397J-49D01*
G01X23062Y35364D01*
Y38380D01*
X23102Y38433D01*
G03Y40567I-1402J1067D01*
G01X23062Y40620D01*
Y130236D01*
X24714Y131888D01*
X27512D01*
Y137112D01*
X24714D01*
X24620Y137206D01*
G02X24903Y137889I283J283D01*
G01X27512D01*
Y139938D01*
G02X27712Y140138I200J0D01*
G01X53480D01*
X53533Y140098D01*
G03X55667I1067J1402D01*
G01X55720Y140139D01*
X57288D01*
G02X57488Y139939I0J-200D01*
G01Y139788D01*
X61712D01*
Y142586D01*
X67264Y148138D01*
X125436D01*
X127288Y146286D01*
Y143488D01*
X131512D01*
Y143738D01*
G02X131712Y143938I200J0D01*
G01X133080D01*
X133133Y143898D01*
G03Y146702I1067J1402D01*
G01X133080Y146662D01*
X131712D01*
G02X131512Y146862I0J200D01*
G01Y148712D01*
X128714D01*
X126564Y150862D01*
X68262D01*
G02X68062Y151062I0J200D01*
G01Y154888D01*
G02X68262Y155088I200J0D01*
G01X69312D01*
Y159312D01*
X64088D01*
Y155088D01*
X65138D01*
G02X65338Y154888I0J-200D01*
G01Y150064D01*
X60286Y145012D01*
X57488D01*
Y143061D01*
G02X57288Y142861I-200J0D01*
G01X55720D01*
X55667Y142902D01*
G03X53533I-1067J-1402D01*
G01X53480Y142862D01*
X27712D01*
G02X27512Y143062I0J200D01*
G01Y143112D01*
X23288D01*
Y139503D01*
G02X22606Y139220I-400J0D01*
G01X22362Y139464D01*
Y145036D01*
X69864Y192538D01*
X94380D01*
X94433Y192498D01*
G03Y195302I1067J1402D01*
G01X94380Y195262D01*
X68736D01*
X19638Y146164D01*
Y138336D01*
X23288Y134686D01*
Y134314D01*
X20338Y131364D01*
X20339Y40620D01*
X20298Y40567D01*
G03Y38433I1402J-1067D01*
G01X20338Y38380D01*
Y34236D01*
X40036Y14538D01*
X50362D01*
G02X50702Y13928I0J-400D01*
G03X51855Y11272I1498J-928D01*
G01X51914Y11260D01*
X52133Y11041D01*
G02X51992Y10700I-141J-141D01*
G01X26101D01*
G37*
%LPC*%
G75*
G36*
G01X131512Y155988D02*
X127288D01*
Y156138D01*
G03X127088Y156338I-200J0D01*
G01X109155D01*
X104395Y161098D01*
X102511D01*
G03X102311Y160898I0J-200D01*
G01X102312Y160188D01*
X98088D01*
Y161238D01*
G03X97888Y161438I-200J0D01*
G01X96912D01*
G03X96712Y161238I0J-200D01*
G01Y160188D01*
X92488D01*
Y165412D01*
X93822D01*
G03X94022Y165612I0J200D01*
G01Y166978D01*
X93982Y167031D01*
G02X96786I1402J1067D01*
G01X96746Y166978D01*
X96745Y164362D01*
G03X96945Y164162I200J0D01*
G01X97759D01*
G03X97959Y164362I0J200D01*
G01X97960Y166978D01*
X97919Y167031D01*
G02X100723I1402J1067D01*
G01X100682Y166978D01*
Y165612D01*
G03X100882Y165412I200J0D01*
G01X102312D01*
Y164022D01*
G03X102512Y163822I200J0D01*
G01X105523D01*
X110283Y159062D01*
X126936D01*
X127288Y159414D01*
Y161212D01*
X129797D01*
G03X130080Y161894I0J400D01*
G01X129286Y162688D01*
X126488D01*
Y166912D01*
X131712D01*
Y164114D01*
X132364Y163462D01*
X132980D01*
X133033Y163502D01*
G02X134774Y160472I1067J-1402D01*
G03X134737Y159750I153J-370D01*
G02X132833Y156798I-836J-1551D01*
G01X132780Y156839D01*
X131712D01*
G03X131512Y156639I0J-200D01*
G01Y155988D01*
G37*
G36*
G01X63312Y155088D02*
X58088D01*
Y159312D01*
X59138D01*
G03X59338Y159512I0J200D01*
G01Y160688D01*
G03X59138Y160888I-200J0D01*
G01X58088D01*
Y165112D01*
X59138D01*
G03X59338Y165312I0J200D01*
G01Y166582D01*
X59318Y166624D01*
G02X62123Y166131I1582J776D01*
G01X62093Y166103D01*
X62062Y166028D01*
Y165312D01*
G03X62262Y165112I200J0D01*
G01X63312D01*
Y160888D01*
X62262D01*
G03X62062Y160688I0J-200D01*
G01Y159512D01*
G03X62262Y159312I200J0D01*
G01X63312D01*
Y155088D01*
G37*
G36*
G01X213412Y151688D02*
X209188D01*
Y156912D01*
X209738D01*
G03X209938Y157112I0J200D01*
G01X209939Y163278D01*
G03X209805Y163467I-200J0D01*
G02X212798Y163439I1537J4348D01*
G03X212662Y163249I65J-190D01*
G01X212661Y157112D01*
G03X212861Y156912I200J0D01*
G01X213412D01*
Y151688D01*
G37*
G36*
G01X193812D02*
X189588D01*
Y156912D01*
X190138D01*
G03X190338Y157112I0J200D01*
G01Y163314D01*
X190264Y163418D01*
X190202Y163439D01*
G02X193195Y163467I1456J4376D01*
G03X193062Y163278I67J-188D01*
G01X193061Y157111D01*
G03X193261Y156911I200J0D01*
G01X193812D01*
Y151688D01*
G37*
G36*
G01X164412Y148588D02*
X159188D01*
Y152812D01*
X160584D01*
G03X160784Y153012I0J200D01*
G01X160783Y154287D01*
G03X160647Y154477I-201J0D01*
G02X162953I1153J3423D01*
G03X162817Y154287I65J-190D01*
G01X162816Y153012D01*
G03X163016Y152812I200J0D01*
G01X164412D01*
Y148588D01*
G37*
G36*
G01X162953Y141323D02*
G02X160647I-1153J-3423D01*
G01X160709Y141344D01*
X160784Y141448D01*
Y142588D01*
G03X160584Y142788I-200J0D01*
G01X159188D01*
Y147012D01*
X164412D01*
Y142788D01*
X163016D01*
G03X162816Y142588I0J-200D01*
G01Y141448D01*
X162891Y141344D01*
X162953Y141323D01*
G37*
G36*
G01X107312Y123388D02*
X100088D01*
Y129612D01*
X102138D01*
G03X102338Y129812I0J200D01*
G01Y131180D01*
X102298Y131233D01*
G02X105102I1402J1067D01*
G01X105062Y131180D01*
X105061Y129812D01*
G03X105261Y129612I200J0D01*
G01X107312D01*
Y127762D01*
G03X107512Y127562I200J0D01*
G01X108188D01*
G03X108388Y127762I0J200D01*
G01Y128312D01*
X113612D01*
Y124088D01*
X108388D01*
Y124638D01*
G03X108188Y124838I-200J0D01*
G01X107512D01*
G03X107312Y124638I0J-200D01*
G01Y123388D01*
G37*
G36*
G01X56437Y125193D02*
G02X53298Y125967I-1737J-293D01*
G01X53338Y126020D01*
Y126064D01*
X56036Y128762D01*
X57188D01*
G03X57388Y128962I0J200D01*
G01Y130612D01*
X61612D01*
Y125388D01*
X57378D01*
G03X56706Y125580I-389J-91D01*
G01X56493Y125368D01*
G03X56437Y125193I142J-142D01*
G37*
G36*
G01X131512Y122088D02*
X127288D01*
Y127312D01*
X130086D01*
X130236Y127462D01*
X133280D01*
X133333Y127502D01*
G02Y124698I1067J-1402D01*
G01X133280Y124738D01*
X131712D01*
G03X131512Y124538I0J-200D01*
G01Y122088D01*
G37*
G36*
G01X130802Y112267D02*
G02X127998I-1402J-1067D01*
G01X128038Y112320D01*
Y115064D01*
X128088Y115114D01*
Y117912D01*
X133312D01*
Y113688D01*
X130961D01*
G03X130761Y113488I0J-200D01*
G01X130762Y112320D01*
X130802Y112267D01*
G37*
G36*
G01X93502Y112067D02*
G02X90698I-1402J-1067D01*
G01X90738Y112120D01*
Y114864D01*
X90988Y115114D01*
Y117912D01*
X92038D01*
G03X92238Y118112I0J200D01*
G01Y123188D01*
G03X92038Y123388I-200J0D01*
G01X91088D01*
Y125238D01*
G03X90888Y125438I-200J0D01*
G01X90112D01*
G03X89912Y125238I0J-200D01*
G01Y124688D01*
X84688D01*
Y128912D01*
X89912D01*
Y128362D01*
G03X90112Y128162I200J0D01*
G01X90888D01*
G03X91088Y128362I0J200D01*
G01Y129612D01*
X98312D01*
Y123388D01*
X95162D01*
G03X94962Y123188I0J-200D01*
G01Y118112D01*
G03X95162Y117912I200J0D01*
G01X96212D01*
Y113688D01*
X93661D01*
G03X93461Y113488I0J-200D01*
G01X93462Y112120D01*
X93502Y112067D01*
G37*
G36*
G01X110102Y111969D02*
G02X107298I-1402J-1067D01*
G01X107338Y112022D01*
Y113488D01*
G03X107138Y113688I-200J0D01*
G01X104688D01*
Y117912D01*
X109912D01*
Y115114D01*
X110062Y114964D01*
Y112022D01*
X110102Y111969D01*
G37*
G36*
G01X76602D02*
G02X73798I-1402J-1067D01*
G01X73838Y112022D01*
Y113636D01*
X73786Y113688D01*
X70988D01*
Y117912D01*
X76212D01*
Y115114D01*
X76562Y114764D01*
Y112022D01*
X76602Y111969D01*
G37*
G36*
G01X65802D02*
G02X62998I-1402J-1067D01*
G01X63038Y112022D01*
Y114864D01*
X63288Y115114D01*
Y117912D01*
X68512D01*
Y113688D01*
X65962D01*
G03X65762Y113488I0J-200D01*
G01Y112022D01*
X65802Y111969D01*
G37*
G36*
G01X214504Y93288D02*
G02X212254Y91363I-504J-1688D01*
G01X212245Y91430D01*
X211638Y92036D01*
Y97188D01*
G03X211438Y97388I-200J0D01*
G01X210388D01*
Y101612D01*
X211438D01*
G03X211638Y101812I0J200D01*
G01Y107638D01*
G03X211438Y107838I-200J0D01*
G01X210788D01*
Y111562D01*
X217012D01*
Y107838D01*
X214561D01*
G03X214361Y107638I0J-200D01*
G01X214362Y101812D01*
G03X214562Y101612I200J0D01*
G01X215612D01*
Y97388D01*
X214561D01*
G03X214361Y97188I0J-200D01*
G01X214362Y93413D01*
X214440Y93307D01*
X214504Y93288D01*
G37*
G36*
G01X210712Y82688D02*
X203488D01*
Y89912D01*
X205438D01*
G03X205638Y90112I0J200D01*
G01Y97188D01*
G03X205438Y97388I-200J0D01*
G01X204388D01*
Y97938D01*
G03X204188Y98138I-200J0D01*
G01X203012D01*
G03X202812Y97938I0J-200D01*
G01Y97288D01*
X197588D01*
Y101512D01*
X198638D01*
G03X198838Y101712I0J200D01*
G01Y119964D01*
X203433Y124559D01*
G03Y124841I-141J141D01*
G01X201636Y126638D01*
X189264D01*
X188862Y126236D01*
Y122564D01*
X189864Y121562D01*
X195012D01*
Y117839D01*
X189653D01*
G03X189370Y117156I0J-400D01*
G01X189964Y116562D01*
X195012D01*
Y112838D01*
X190053D01*
G03X189770Y112156I0J-400D01*
G01X190364Y111562D01*
X195012D01*
Y107838D01*
X191964D01*
X181062Y96936D01*
Y92420D01*
X181102Y92367D01*
G02X178298I-1402J-1067D01*
G01X178338Y92420D01*
Y98064D01*
X188788Y108514D01*
Y109286D01*
X180738Y117336D01*
Y133164D01*
X183188Y135614D01*
Y138412D01*
X184238D01*
G03X184438Y138612I0J200D01*
G01Y139688D01*
G03X184238Y139888I-200J0D01*
G01X183188D01*
Y144112D01*
X188412D01*
Y139888D01*
X187362D01*
G03X187162Y139688I0J-200D01*
G01Y138612D01*
G03X187362Y138412I200J0D01*
G01X188412D01*
X188411Y135803D01*
G03X189094Y135520I400J0D01*
G01X189188Y135614D01*
Y138412D01*
X190238D01*
G03X190438Y138612I0J200D01*
G01Y139688D01*
G03X190238Y139888I-200J0D01*
G01X189188D01*
Y144112D01*
X190138D01*
G03X190338Y144312I0J200D01*
G01Y145488D01*
G03X190138Y145688I-200J0D01*
G01X189588D01*
Y150912D01*
X193812D01*
Y145688D01*
X193262D01*
G03X193062Y145488I0J-200D01*
G01Y144312D01*
G03X193262Y144112I200J0D01*
G01X194412D01*
Y139888D01*
X193362D01*
G03X193162Y139688I0J-200D01*
G01Y138612D01*
G03X193362Y138412I200J0D01*
G01X194412D01*
Y134188D01*
X191614D01*
X186462Y129036D01*
Y128653D01*
G03X187144Y128370I400J0D01*
G01X188136Y129362D01*
X202764D01*
X206064Y126062D01*
X210589D01*
G03X210789Y126262I0J200D01*
G01X210788Y126562D01*
X217012D01*
Y123703D01*
G03X217694Y123420I400J0D01*
G01X217838Y123564D01*
Y129736D01*
X217036Y130538D01*
X213136D01*
X209838Y133836D01*
Y134088D01*
G03X209638Y134288I-200J0D01*
G01X208688D01*
Y138512D01*
X209738D01*
G03X209938Y138712I0J200D01*
G01Y139788D01*
G03X209738Y139988I-200J0D01*
G01X208688D01*
Y144212D01*
X209738D01*
G03X209938Y144412I0J200D01*
G01Y145488D01*
G03X209738Y145688I-200J0D01*
G01X209188D01*
Y150912D01*
X213412D01*
Y145688D01*
X212862D01*
G03X212662Y145488I0J-200D01*
G01Y144412D01*
G03X212862Y144212I200J0D01*
G01X213912D01*
Y139988D01*
X212862D01*
G03X212662Y139788I0J-200D01*
G01Y138712D01*
G03X212862Y138512I200J0D01*
G01X213912D01*
Y134288D01*
X213720D01*
G03X213578Y133947I0J-200D01*
G01X214264Y133262D01*
X218164D01*
X220256Y131170D01*
G03X220938Y131453I282J283D01*
G01Y133636D01*
X220253Y134322D01*
G03X220035Y134365I-141J-142D01*
G01X219912Y134314D01*
Y134288D01*
X214688D01*
Y138512D01*
X215738D01*
G03X215938Y138712I0J200D01*
G01Y139788D01*
G03X215738Y139988I-200J0D01*
G01X214688D01*
Y144212D01*
X219912D01*
Y139988D01*
X218862D01*
G03X218662Y139788I0J-200D01*
G01Y138712D01*
G03X218862Y138512I200J0D01*
G01X219912D01*
Y137762D01*
G03X220112Y137562I200J0D01*
G01X220864D01*
X223662Y134764D01*
Y101736D01*
X221212Y99286D01*
Y96488D01*
X216988D01*
Y101712D01*
X219786D01*
X220938Y102864D01*
Y114247D01*
G03X220256Y114530I-400J0D01*
G01X219064Y113338D01*
X217212D01*
G03X217012Y113138I0J-200D01*
G01Y112838D01*
X210788D01*
Y116562D01*
X217012D01*
Y116262D01*
G03X217212Y116062I200J0D01*
G01X217936D01*
X220938Y119064D01*
Y121847D01*
G03X220256Y122130I-400J0D01*
G01X217012Y118886D01*
Y117838D01*
X210788D01*
Y121562D01*
X215836D01*
X216430Y122156D01*
G03X216147Y122839I-283J283D01*
G01X210788D01*
Y123138D01*
G03X210588Y123338I-200J0D01*
G01X206064D01*
X201562Y118836D01*
Y101711D01*
G03X201762Y101511I200J0D01*
G01X202812D01*
Y101062D01*
G03X203012Y100862I200J0D01*
G01X204188D01*
G03X204388Y101062I0J200D01*
G01Y101612D01*
X209612D01*
Y97388D01*
X208562D01*
G03X208362Y97188I0J-200D01*
G01Y90112D01*
G03X208562Y89912I200J0D01*
G01X210712D01*
Y82688D01*
G37*
G36*
G01X43434Y53688D02*
X37274D01*
Y58910D01*
X39138D01*
G03X39338Y59110I0J200D01*
G01Y74424D01*
X29884Y83879D01*
Y129821D01*
X30426Y130363D01*
X30455Y130448D01*
X30450Y130495D01*
G02X32295Y128941I1750J205D01*
G03X31916Y128541I22J-400D01*
G01Y128498D01*
G03X32116Y128298I200J0D01*
G01X32170D01*
X32217Y128325D01*
G02X34309Y128082I883J-1525D01*
G03X34984Y128373I275J291D01*
G01Y134421D01*
X36926Y136363D01*
X36955Y136448D01*
X36950Y136495D01*
G02X40246Y135855I1750J205D01*
G03X40394Y135318I351J-192D01*
G02X39295Y132050I-894J-1518D01*
G03X39130Y131993I-23J-199D01*
G01X38516Y131379D01*
Y129220D01*
G03X39199Y128937I400J0D01*
G01X39463Y129200D01*
X39475Y129259D01*
G02X40563Y127257I1725J-359D01*
G01X40507Y127279D01*
X40392Y127255D01*
X40016Y126879D01*
Y126315D01*
G03X40561Y125942I400J0D01*
G02X42292Y122918I638J-1642D01*
G01X42256Y122889D01*
X42216Y122808D01*
Y118848D01*
G03X42775Y118481I400J0D01*
G02X44590Y115501I696J-1619D01*
G03X44516Y115346I127J-156D01*
G01Y96821D01*
X79994Y61344D01*
G03X80676Y61627I282J283D01*
G01Y62586D01*
X56984Y86279D01*
Y98829D01*
G03X56906Y98988I-201J0D01*
G02X59091Y99012I1077J1394D01*
G01X59055Y98983D01*
X59017Y98902D01*
X59016Y87121D01*
X62601Y83537D01*
G03X63284Y83820I283J283D01*
G01X63283Y97245D01*
G03X63218Y97394I-201J1D01*
G02X65403Y97251I1183J1306D01*
G01X65362Y97223D01*
X65316Y97136D01*
Y83821D01*
X84678Y64459D01*
Y59006D01*
X84774Y58910D01*
Y53688D01*
X70740D01*
Y59023D01*
X34984Y94779D01*
Y125227D01*
G03X34309Y125518I-400J0D01*
G02X34192Y125418I-1202J1288D01*
G03X34116Y125261I124J-157D01*
G01Y84621D01*
X43340Y75398D01*
Y59006D01*
X43434Y58910D01*
Y53688D01*
G37*
G36*
G01X161624Y53530D02*
X147590D01*
Y58754D01*
X147684Y58848D01*
Y82077D01*
X131187Y98575D01*
G03X131022Y98632I-142J-142D01*
G02X132567Y100177I-205J1750D01*
G01X132562Y100130D01*
X132591Y100045D01*
X148970Y83667D01*
G03X149652Y83950I282J283D01*
G01Y110210D01*
X145537Y114326D01*
X145452Y114355D01*
X145405Y114350D01*
G02X146950Y115895I-205J1750D01*
G03X147007Y115730I199J-23D01*
G01X150939Y111799D01*
G03X151622Y112082I283J283D01*
G01Y114441D01*
X148537Y117526D01*
X148452Y117555D01*
X148405Y117550D01*
G02X147600Y120957I-205J1750D01*
G03X147747Y121616I-136J376D01*
G01X146523Y122839D01*
G03X146332Y122892I-142J-141D01*
G02X147661Y124653I-432J1708D01*
G01X147664Y124574D01*
X154876Y117362D01*
G03X155558Y117645I282J283D01*
G01Y122104D01*
X148037Y129626D01*
X147952Y129655D01*
X147905Y129650D01*
G02X149450Y131195I-205J1750D01*
G01X149445Y131148D01*
X149474Y131063D01*
X156844Y123694D01*
G03X157526Y123977I282J283D01*
G01Y126036D01*
X148079Y135484D01*
X147192D01*
X147111Y135444D01*
X147082Y135408D01*
G02Y137592I-1382J1092D01*
G01X147111Y137556D01*
X147192Y137516D01*
X148921D01*
X158813Y127625D01*
G03X159496Y127908I283J283D01*
G01Y130267D01*
X149179Y140584D01*
X147292D01*
X147211Y140544D01*
X147182Y140508D01*
G02Y142692I-1382J1092D01*
G01X147211Y142656D01*
X147292Y142616D01*
X150021D01*
X161528Y131109D01*
Y58848D01*
X161624Y58754D01*
Y53530D01*
G37*
G36*
G01X67049Y53336D02*
G02X64763Y53346I-1149J-1336D01*
G01X64797Y53375D01*
X64834Y53454D01*
Y58910D01*
X67056D01*
Y53688D01*
X66979Y53610D01*
Y53488D01*
G03X67049Y53336I200J0D01*
G37*
G36*
G01X108812Y45488D02*
X103588D01*
Y49712D01*
X108812D01*
Y49012D01*
G03X109012Y48812I200J0D01*
G01X109321D01*
X109377Y48857D01*
G02X109190Y46322I1123J-1357D01*
G03X109041Y46388I-149J-135D01*
G01X109012D01*
G03X108812Y46188I0J-200D01*
G01Y45488D01*
G37*
G36*
G01X170813Y43976D02*
G02X168008Y43737I-1312J-1176D01*
G01X168038Y43786D01*
Y45088D01*
G03X167838Y45288I-200J0D01*
G01X167288D01*
X167289Y46488D01*
G03X167089Y46688I-200J0D01*
G01X145698D01*
X141488Y50898D01*
X141489Y53331D01*
G03X141289Y53531I-200J0D01*
G01X129872D01*
Y58772D01*
X128746Y59898D01*
G03X128064Y59615I-282J-283D01*
G01Y58848D01*
X128158Y58754D01*
Y53530D01*
X114124D01*
Y58753D01*
X114543D01*
G03X114826Y59436I0J400D01*
G01X104779Y69484D01*
X89879D01*
X68784Y90579D01*
Y98698D01*
X68743Y98780D01*
X68707Y98809D01*
G02X70892Y98816I1088J1386D01*
G03X70816Y98660I124J-157D01*
G01Y91421D01*
X90721Y71516D01*
X104263D01*
G03X104405Y71858I0J200D01*
G01X104179Y72084D01*
X92879D01*
X73884Y91079D01*
Y97461D01*
G03X73808Y97618I-200J0D01*
G02X75992I1092J1382D01*
G01X75956Y97589D01*
X75916Y97508D01*
Y91921D01*
X93721Y74116D01*
X93980D01*
G03X94263Y74799I0J400D01*
G01X80384Y88679D01*
Y96961D01*
G03X80308Y97118I-200J0D01*
G02X82492I1092J1382D01*
G01X82456Y97089D01*
X82416Y97008D01*
Y89521D01*
X95521Y76416D01*
X103763D01*
G03X103905Y76758I0J200D01*
G01X103579Y77084D01*
X97679D01*
X84784Y89979D01*
Y96908D01*
X84744Y96989D01*
X84708Y97018D01*
G02X86892I1092J1382D01*
G01X86856Y96989D01*
X86816Y96908D01*
Y90821D01*
X98521Y79116D01*
X104421D01*
X123721Y59816D01*
G03X124062Y59958I141J142D01*
G01Y60500D01*
X88884Y95679D01*
Y101921D01*
X91379Y104416D01*
X112821D01*
X115330Y101907D01*
G03X115495Y101850I142J142D01*
G02X116459Y98510I205J-1750D01*
G03X116293Y97936I172J-361D01*
G02X115892Y95618I-1493J-935D01*
G03X115816Y95461I124J-157D01*
G01Y84421D01*
X118801Y81437D01*
G03X119483Y81720I282J283D01*
G01Y93787D01*
G03X119397Y93951I-199J0D01*
G02X121582Y94094I1002J1449D01*
G03X121516Y93945I135J-149D01*
G01Y82021D01*
X141844Y61694D01*
Y58954D01*
G03X142044Y58754I200J0D01*
G01X143548D01*
G03X143748Y58954I0J200D01*
G01Y79815D01*
X126279Y97283D01*
X125739D01*
G03X125582Y97208I-1J-200D01*
G02Y99392I-1382J1092D01*
G03X125739Y99316I157J124D01*
G01X127121D01*
X145780Y80657D01*
Y58848D01*
X145876Y58754D01*
Y53530D01*
X144112D01*
G03X143912Y53330I0J-200D01*
G01Y51902D01*
X146702Y49112D01*
X167088D01*
G03X167288Y49312I0J200D01*
G01Y50512D01*
X171512D01*
Y45288D01*
X170961D01*
G03X170761Y45088I0J-200D01*
G01X170762Y44033D01*
X170813Y43976D01*
G37*
G36*
G01X105518Y24798D02*
G02X102441Y25088I-1618J-698D01*
G01X102476Y25139D01*
Y28580D01*
X107958D01*
Y25356D01*
X105885D01*
G03X105518Y24798I0J-400D01*
G37*
G36*
G01X94396Y22822D02*
G02X93400Y24917I-1696J478D01*
G03X93621Y24959I80J183D01*
G01X93814Y25152D01*
Y28580D01*
X99296D01*
Y25356D01*
X96516D01*
G03X96316Y25156I0J-200D01*
G01Y24779D01*
X94410Y22873D01*
X94396Y22822D01*
G37*
G54D27*
X9400Y133700D03*
Y115600D03*
G54D26*
X221185Y187500D03*
X181815D03*
X221185Y167815D03*
X201500D03*
X181815D03*
G54D28*
X215900Y51400D03*
%LPD*%
G75*
G54D10*
X16339Y5512D03*
X32677D03*
X35827D03*
X38976D03*
X42126D03*
X45276D03*
X48425D03*
X51575D03*
X54724D03*
X57874D03*
X61024D03*
X64173D03*
X67323D03*
X70472D03*
X73622D03*
X76772D03*
X79921D03*
X83071D03*
X86220D03*
X89370D03*
X92520D03*
X95669D03*
X98819D03*
X101969D03*
X105118D03*
X108268D03*
X111417D03*
X114567D03*
X117717D03*
X120866D03*
X124016D03*
X127165D03*
X130315D03*
X133465D03*
X136614D03*
X139764D03*
X142913D03*
X146063D03*
X149213D03*
X152362D03*
X155512D03*
X158661D03*
X161811D03*
X164961D03*
X168110D03*
X171260D03*
X174409D03*
X177559D03*
X180709D03*
X183858D03*
X187008D03*
X190157D03*
X193307D03*
X196457D03*
X199606D03*
X202756D03*
X205906D03*
X209055D03*
X212205D03*
X215354D03*
X218504D03*
X221654D03*
G54D20*
X215900Y61400D03*
G54D11*
X8700Y29300D03*
X21700Y39500D03*
X9400Y115600D03*
Y121300D03*
X9300Y128000D03*
X9400Y133700D03*
X77000Y15900D03*
X46886Y18518D03*
X42323Y19077D03*
X72600Y16100D03*
X79900Y17300D03*
X52200Y13000D03*
X63700Y18500D03*
X60200Y14100D03*
X55600Y13100D03*
X65900Y52000D03*
X66000Y36800D03*
X75200Y110902D03*
X64400D03*
X54700Y124900D03*
X57983Y100382D03*
X55000Y121700D03*
X61200Y110902D03*
X78200D03*
X41200Y124300D03*
X69795Y100195D03*
X43471Y116862D03*
X64400Y98700D03*
X74900Y99000D03*
X33100Y126800D03*
X32200Y130700D03*
X41200Y128900D03*
X60900Y167400D03*
X54600Y138000D03*
X65300Y167300D03*
X54600Y141500D03*
X39500Y133800D03*
X38700Y136700D03*
X92700Y23300D03*
X103900Y24100D03*
X110500Y47500D03*
X129100Y34600D03*
X129000Y52100D03*
X106500Y37800D03*
X97900D03*
X92100Y111000D03*
X108700Y110902D03*
X129400Y111200D03*
X88900Y111100D03*
X111700Y110902D03*
X126300Y111100D03*
X92200Y99400D03*
X97300Y99700D03*
X115700Y100100D03*
X114800Y97000D03*
X109500Y99400D03*
X103700Y132300D03*
X85800Y98400D03*
X101700Y98800D03*
X81400Y98500D03*
X106500Y99600D03*
X120400Y95400D03*
X130817Y100382D03*
X112500Y99400D03*
X124200Y98300D03*
X97353Y178618D03*
X99321Y168098D03*
X95384D03*
X85800Y190600D03*
X118400Y194700D03*
X124200D03*
X129800Y194200D03*
X95500Y193900D03*
X180000Y12100D03*
X169500Y42800D03*
X146800Y34400D03*
X146700Y52200D03*
X159400Y34300D03*
X175100Y62700D03*
X134400Y126100D03*
X145200Y116100D03*
X134500Y129100D03*
X148200Y119300D03*
X147700Y131400D03*
X145900Y124600D03*
X179700Y91300D03*
X133800Y155000D03*
X134400Y141400D03*
X172300Y150700D03*
Y144900D03*
X145800Y141600D03*
X134100Y162100D03*
X133900Y158200D03*
X134200Y145300D03*
X145700Y136500D03*
X135500Y194300D03*
X186000Y19300D03*
X205900Y11900D03*
X186100Y12000D03*
X204700Y33700D03*
X214000Y91600D03*
G54D12*
X25400Y134500D03*
Y140500D03*
X59500Y128000D03*
Y122000D03*
X59600Y142400D03*
Y136400D03*
X129400Y124700D03*
Y130700D03*
Y158600D03*
Y152600D03*
X100200Y162800D03*
Y156800D03*
X94600Y162800D03*
Y156800D03*
X129400Y146100D03*
Y140100D03*
X169400Y47900D03*
Y53900D03*
X219100Y99100D03*
Y93100D03*
X211300Y148300D03*
Y154300D03*
X191700Y148300D03*
Y154300D03*
G54D21*
X194100Y86300D03*
X207100D03*
G54D22*
X191900Y124700D03*
Y119700D03*
Y114700D03*
Y109700D03*
X213900Y124700D03*
Y119700D03*
Y109700D03*
Y114700D03*
G54D13*
X79725Y24015D03*
X77756D03*
X75788D03*
X73819D03*
X71851D03*
X69882D03*
X67914D03*
X65945D03*
X63977D03*
X62008D03*
X60040D03*
X58071D03*
X56103D03*
X54134D03*
X52166D03*
X50197D03*
X48229D03*
X46260D03*
X44292D03*
X42323D03*
X40355D03*
X38386D03*
Y56299D03*
X40355D03*
X42323D03*
X44292D03*
X46260D03*
X48229D03*
X50197D03*
X52166D03*
X54134D03*
X56103D03*
X58071D03*
X60040D03*
X62008D03*
X63977D03*
X65945D03*
X67914D03*
X69882D03*
X71851D03*
X73819D03*
X75788D03*
X77756D03*
X79725D03*
X83662Y24015D03*
X81693D03*
X130984Y23858D03*
X129016D03*
X127047D03*
X125079D03*
X123110D03*
X121142D03*
X119173D03*
X117205D03*
X115236D03*
X81693Y56299D03*
X83662D03*
X115236Y56142D03*
X117205D03*
X119173D03*
X121142D03*
X123110D03*
X125079D03*
X127047D03*
X129016D03*
X130984D03*
X160512Y23858D03*
X158543D03*
X156575D03*
X154606D03*
X152638D03*
X150669D03*
X148701D03*
X146732D03*
X144764D03*
X142795D03*
X140827D03*
X138858D03*
X136890D03*
X134921D03*
X132953D03*
Y56142D03*
X134921D03*
X136890D03*
X138858D03*
X140827D03*
X142795D03*
X144764D03*
X146732D03*
X148701D03*
X150669D03*
X152638D03*
X154606D03*
X156575D03*
X158543D03*
X160512D03*
G54D23*
G01X129016Y34516D02*
Y23858D01*
G01X106200Y47600D02*
X110400D01*
X110500Y47500D01*
G01X129100Y34600D02*
X129016Y34516D01*
G01Y52116D02*
Y56142D01*
G01X129000Y52100D02*
X129016Y52116D01*
G01X146732Y34332D02*
Y23858D01*
G01X142795Y56142D02*
X142700Y56047D01*
Y51400D01*
X146200Y47900D01*
X169400D01*
G01X146800Y34400D02*
X146732Y34332D01*
G01X146700Y56110D02*
Y52200D01*
G01X146732Y56142D02*
X146700Y56110D01*
G54D14*
X73600Y115800D03*
X79600D03*
X65900D03*
X59900D03*
X60700Y157200D03*
X66700D03*
X60700Y163000D03*
X66700D03*
X106200Y47600D03*
X100200D03*
X111000Y126200D03*
X117000D03*
X87300Y126800D03*
X81300D03*
X130700Y115800D03*
X124700D03*
X107300D03*
X113300D03*
X93600D03*
X87600D03*
X123100Y164800D03*
X129100D03*
X185800Y136300D03*
Y142000D03*
X167800Y150700D03*
X161800D03*
X167800Y144900D03*
X161800D03*
X200200Y99400D03*
X194200D03*
X213000Y99500D03*
X207000D03*
X217300Y136400D03*
X211300D03*
X191800Y136300D03*
X211300Y142100D03*
X217300D03*
X191800Y142000D03*
G54D24*
G01X21700Y39500D02*
Y34800D01*
X40600Y15900D01*
X52800D01*
X53100Y15600D01*
X53200D01*
X54800Y14000D01*
Y13900D01*
X55600Y13100D01*
G01X21700Y39500D02*
Y130800D01*
X25400Y134500D01*
G01D02*
X21000Y138900D01*
Y145600D01*
X69300Y193900D01*
X95500D01*
G01X54600Y141500D02*
X26400D01*
X25400Y140500D01*
G01X52200Y13000D02*
X53000Y12200D01*
Y12100D01*
X54600Y10500D01*
X54700D01*
X54724Y10476D01*
Y5512D01*
G01X75200Y110902D02*
Y114200D01*
X73600Y115800D01*
G01X64400Y110902D02*
Y114300D01*
X65900Y115800D01*
G01X54700Y124900D02*
Y125500D01*
X56600Y127400D01*
X58900D01*
X59500Y128000D01*
G01X59200Y121700D02*
X55000D01*
G01X59500Y122000D02*
X59200Y121700D01*
G01X61200Y114500D02*
Y110902D01*
G01X59900Y115800D02*
X61200Y114500D01*
G01X78200Y114400D02*
Y110902D01*
G01X79600Y115800D02*
X78200Y114400D01*
G01X60700Y157200D02*
Y163000D01*
G01D02*
Y167200D01*
X60900Y167400D01*
G01X58000Y138000D02*
X54600D01*
G01X59600Y136400D02*
X58000Y138000D01*
G01X65300Y164400D02*
Y167300D01*
G01X66700Y163000D02*
X65300Y164400D01*
G01X66700Y149500D02*
X59600Y142400D01*
G01X66700Y149500D02*
Y157200D01*
G01X129400Y146100D02*
X126000Y149500D01*
X66700D01*
G01X54600Y141500D02*
X58700D01*
X59600Y142400D01*
G01X106500Y37800D02*
X97900D01*
G01X92100Y111000D02*
Y114300D01*
X93600Y115800D01*
G01D02*
Y125400D01*
X94700Y126500D01*
G01X87300Y126800D02*
X94400D01*
X94700Y126500D01*
G01X108700Y110902D02*
Y114400D01*
X107300Y115800D01*
G01X129400Y111200D02*
Y114500D01*
X130700Y115800D01*
G01X134400Y126100D02*
X130800D01*
X129400Y124700D01*
G01X131000Y129100D02*
X134500D01*
G01X129400Y130700D02*
X131000Y129100D01*
G01X88900Y114500D02*
Y111100D01*
G01X87600Y115800D02*
X88900Y114500D01*
G01X111700Y114200D02*
Y110902D01*
G01X113300Y115800D02*
X111700Y114200D01*
G01X126300D02*
Y111100D01*
G01X124700Y115800D02*
X126300Y114200D01*
G01X111000Y126200D02*
X104000D01*
X103700Y126500D01*
G01D02*
Y132300D01*
G01X131400Y152600D02*
X129400D01*
G01X133800Y155000D02*
X131400Y152600D01*
G01X130700Y141400D02*
X134400D01*
G01X129400Y140100D02*
X130700Y141400D01*
G01X134100Y162100D02*
X131800D01*
X129100Y164800D01*
G01X100200Y162800D02*
X100540Y162460D01*
X104959D01*
X109719Y157700D01*
X127500D01*
X128400Y158600D01*
X129400D01*
G01X133900Y158200D02*
X129800D01*
X129400Y158600D01*
G01X99321Y168098D02*
Y163679D01*
X100200Y162800D01*
G01D02*
X94600D01*
G01X95384Y168098D02*
Y163584D01*
X94600Y162800D01*
G01X134200Y145300D02*
X130200D01*
X129400Y146100D01*
G01X180000Y12100D02*
Y13300D01*
X186000Y19300D01*
G01X169400Y47900D02*
Y42900D01*
X169500Y42800D01*
G01X179700Y91300D02*
Y97500D01*
X191900Y109700D01*
G01X185800Y136300D02*
X182100Y132600D01*
Y117900D01*
X190300Y109700D01*
X191900D01*
G01X186200Y12000D02*
X186100D01*
G01X205906Y11894D02*
X205900Y11900D01*
G01X205906Y5512D02*
Y11894D01*
G01X187000Y11200D02*
X186200Y12000D01*
G01X187008Y5512D02*
X187000Y5520D01*
Y11200D01*
G01X222300Y118500D02*
X218500Y114700D01*
X213900D01*
G01X217300Y136400D02*
X217500Y136200D01*
X220300D01*
X222300Y134200D01*
Y118500D01*
G01D02*
Y102300D01*
X219100Y99100D01*
G01X213000Y99500D02*
Y108800D01*
X213900Y109700D01*
G01X213000Y99500D02*
Y92600D01*
X214000Y91600D01*
G01X194100Y99300D02*
Y86300D01*
G01X197200Y102400D02*
Y122200D01*
G01X194700Y124700D02*
X191900D01*
G01X197200Y122200D02*
X194700Y124700D01*
G01X194200Y99400D02*
X197200Y102400D01*
G01X194200Y99400D02*
X194100Y99300D01*
G01X205500Y124700D02*
X202200Y128000D01*
X188700D01*
X187500Y126800D01*
Y122000D01*
X189800Y119700D01*
X191900D01*
G01X205500Y124700D02*
X213900D01*
G01X207000Y99500D02*
X200300D01*
X200200Y99400D01*
G01D02*
Y119400D01*
X205500Y124700D01*
G01X207000Y99500D02*
Y86400D01*
X207100Y86300D01*
G01X191800Y136300D02*
X185100Y129600D01*
Y119500D01*
X189900Y114700D01*
X191900D01*
G01X211300Y136400D02*
X211200Y136300D01*
Y134400D01*
X213700Y131900D01*
X217600D01*
X219200Y130300D01*
Y123000D01*
X215900Y119700D01*
X213900D01*
G01X217300Y142100D02*
Y136400D01*
G01X191700Y148300D02*
Y142100D01*
X191800Y142000D01*
G01D02*
Y136300D01*
G01X211300Y148300D02*
Y142100D01*
G01D02*
Y136400D01*
G01X191700Y154300D02*
Y167772D01*
X191657Y167815D01*
G01X211300Y154300D02*
Y167772D01*
X211343Y167815D01*
G01X185800Y142000D02*
Y136300D01*
G54D15*
X106496Y26968D03*
X103937D03*
X101378D03*
X97835D03*
X95276D03*
X92717D03*
X101378Y35236D03*
X106496D03*
X92717D03*
X97835D03*
G54D25*
G01X76772Y5512D02*
Y10472D01*
X78100Y11800D01*
Y11900D01*
X78200Y12000D01*
Y14700D01*
X77000Y15900D01*
G01X77756Y24015D02*
Y28506D01*
X80770Y31520D01*
X99682D01*
X101378Y33216D01*
Y35236D01*
G01X44292Y24015D02*
Y21112D01*
X46886Y18518D01*
G01X75788Y24015D02*
Y21188D01*
X74765Y20165D01*
Y15203D01*
X73700Y14138D01*
Y5590D01*
X73622Y5512D01*
G01X73819Y24015D02*
Y28903D01*
X80152Y35236D01*
X92717D01*
G01X42323Y24015D02*
Y19077D01*
G01X71851Y24015D02*
X71800Y23964D01*
Y21500D01*
X61800Y11500D01*
X59000D01*
X57874Y10374D01*
Y5512D01*
G01X67323D02*
Y13623D01*
X69800Y16100D01*
X72600D01*
G01X65900Y52000D02*
X65945Y52045D01*
Y56299D01*
G01X57983Y100382D02*
X58000Y100365D01*
Y86700D01*
X81693Y63007D01*
Y56299D01*
G01X77756D02*
Y59744D01*
X41200Y96300D01*
Y124300D01*
G01X79725Y56299D02*
Y60175D01*
X43500Y96400D01*
Y116833D01*
X43471Y116862D01*
G01X64400Y98700D02*
X64300Y98600D01*
Y83400D01*
X83662Y64038D01*
Y56299D01*
G01X73819D02*
Y59481D01*
X37500Y95800D01*
Y131800D01*
X39500Y133800D01*
G01X71851Y56299D02*
Y59349D01*
X36000Y95200D01*
Y134000D01*
X38700Y136700D01*
G01X33100Y126800D02*
Y84200D01*
X42323Y74977D01*
Y56299D01*
G01X40355D02*
Y74845D01*
X30900Y84300D01*
Y129400D01*
X32200Y130700D01*
G01X75788Y56299D02*
Y59612D01*
X39000Y96400D01*
Y127300D01*
X40600Y128900D01*
X41200D01*
G01X69795Y100195D02*
X69800Y100190D01*
Y91000D01*
X90300Y70500D01*
X105200D01*
X117205Y58495D01*
Y56142D01*
G01X119173D02*
Y58527D01*
X118625Y59075D01*
Y59084D01*
X105789Y71920D01*
X105780D01*
X104600Y73100D01*
X93300D01*
X74900Y91500D01*
Y99000D01*
G01X130315Y5512D02*
X130400Y5597D01*
Y10900D01*
X133100Y13600D01*
X135400D01*
X136890Y15090D01*
Y23858D01*
G01X117717Y5512D02*
X117700Y5529D01*
Y10800D01*
X119375Y12475D01*
X124466D01*
X130984Y18993D01*
Y23858D01*
G01X101969Y5512D02*
X102000Y5543D01*
Y11800D01*
X108500Y18300D01*
X119800D01*
X121142Y19642D01*
Y23858D01*
G01X132953D02*
Y18953D01*
X125055Y11055D01*
X121555D01*
X121100Y10600D01*
Y5746D01*
X120866Y5512D01*
G01X83662Y24015D02*
Y23138D01*
X95700Y11100D01*
Y5543D01*
X95669Y5512D01*
G01X81693Y24015D02*
Y21107D01*
X87900Y14900D01*
X89200D01*
X92400Y11700D01*
Y5632D01*
X92520Y5512D01*
G01X79725Y24015D02*
Y20975D01*
X86200Y14500D01*
Y5532D01*
X86220Y5512D01*
G01X95276Y26968D02*
X95300Y26944D01*
Y25200D01*
X93400Y23300D01*
X92700D01*
G01X103937Y26968D02*
Y24137D01*
G01X103900Y23400D02*
X103937Y23437D01*
Y24137D01*
G01D02*
X103900Y24100D01*
G01X79921Y5512D02*
Y17279D01*
X79900Y17300D01*
G01X125079Y23858D02*
Y17279D01*
X123200Y15400D01*
X116000D01*
X111400Y10800D01*
Y5529D01*
X111417Y5512D01*
G01X114567D02*
X114700Y5645D01*
Y10600D01*
X118000Y13900D01*
X123800D01*
X127047Y17147D01*
Y23858D01*
G01X123110D02*
Y18730D01*
X121200Y16820D01*
X114020D01*
X108300Y11100D01*
Y5544D01*
X108268Y5512D01*
G01X127165D02*
X127200Y5547D01*
Y10900D01*
X134921Y18621D01*
Y23858D01*
G01X119173D02*
Y20873D01*
X118100Y19800D01*
X107200D01*
X98800Y11400D01*
Y5531D01*
X98819Y5512D01*
G01X106496Y35236D02*
Y37796D01*
X106500Y37800D01*
G01X97835Y35236D02*
Y37735D01*
X97900Y37800D01*
G01X92200Y99400D02*
Y95900D01*
X102340Y85760D01*
Y85733D01*
X127047Y61026D01*
Y56142D01*
G01X97300Y99700D02*
X97200Y99600D01*
Y92909D01*
X103761Y86348D01*
Y86321D01*
X130984Y59098D01*
Y56142D01*
G01X115700Y100100D02*
X112400Y103400D01*
X91800D01*
X89900Y101500D01*
Y96100D01*
X125079Y60921D01*
Y56142D01*
G01X138858D02*
Y59942D01*
X114800Y84000D01*
Y97000D01*
G01X123110Y56142D02*
Y58990D01*
X104000Y78100D01*
X98100D01*
X85800Y90400D01*
Y98400D01*
G01X101700Y98800D02*
Y90419D01*
X105181Y86937D01*
Y86910D01*
X132953Y59138D01*
Y56142D01*
G01X121142D02*
Y58758D01*
X104500Y75400D01*
X95100D01*
X81400Y89100D01*
Y98500D01*
G01X134921Y56142D02*
Y59179D01*
X106600Y87500D01*
Y99500D01*
X106500Y99600D01*
G01X140827Y56142D02*
Y61273D01*
X120500Y81600D01*
Y95300D01*
X120400Y95400D01*
G01X112500Y99400D02*
Y83700D01*
X136890Y59310D01*
Y56142D01*
G01X148701D02*
Y82498D01*
X130817Y100382D01*
G01X124200Y98300D02*
X126700D01*
X144764Y80236D01*
Y56142D01*
G01X133465Y5512D02*
X133500Y5547D01*
Y10800D01*
X134600Y11900D01*
X136300D01*
X138858Y14458D01*
Y23858D01*
G01X158661Y5512D02*
X158600Y5573D01*
Y12600D01*
X150669Y20531D01*
Y23858D01*
G01X139764Y5512D02*
X139800Y5548D01*
Y12100D01*
X140827Y13127D01*
Y23858D01*
G01X146063Y5512D02*
X146200Y5649D01*
Y17900D01*
X142795Y21305D01*
Y23858D01*
G01X149213Y5512D02*
X149100Y5625D01*
Y17400D01*
X144764Y21736D01*
Y23858D01*
G01X171260Y5512D02*
X171300Y5552D01*
Y14600D01*
X166850Y19050D01*
X158650D01*
X156575Y21125D01*
Y23858D01*
G01X174409Y5512D02*
X174300Y5621D01*
Y14000D01*
X167700Y20600D01*
X159800D01*
X158543Y21857D01*
Y23858D01*
G01X177559Y5512D02*
X177500Y5571D01*
Y13500D01*
X167142Y23858D01*
X160512D01*
G01X152362Y5512D02*
X152300Y5574D01*
Y16600D01*
X148701Y20199D01*
Y23858D01*
G01X161811Y5512D02*
X161800Y5523D01*
Y14900D01*
X160900Y15800D01*
X157500D01*
X152638Y20662D01*
Y23858D01*
G01X168110Y5512D02*
X168200Y5602D01*
Y14700D01*
X165600Y17300D01*
X158100D01*
X154606Y20794D01*
Y23858D01*
G01X150669Y56142D02*
Y110631D01*
X145200Y116100D01*
G01X152638Y56142D02*
Y114862D01*
X148200Y119300D01*
G01X145800Y141600D02*
X149600D01*
X160512Y130688D01*
Y56142D01*
G01X147700Y131400D02*
X156575Y122525D01*
Y56142D01*
G01X154606D02*
Y116194D01*
X146200Y124600D01*
X145900D01*
G01X145700Y136500D02*
X148500D01*
X158543Y126457D01*
Y56142D01*
G01X167800Y150700D02*
X172300D01*
G01X167800Y144900D02*
X172300D01*
G01X161800D02*
Y137900D01*
G01Y150700D02*
Y157900D01*
G54D16*
X103700Y126500D03*
X94700D03*
G54D17*
X181815Y167815D03*
Y187500D03*
X201500D03*
X221185Y167815D03*
X201500D03*
X221185Y187500D03*
X191657Y167815D03*
X211343D03*
G54D18*
X161800Y157900D03*
Y137900D03*
G54D19*
X215900Y51400D03*
M02*
