G04 ================== begin FILE IDENTIFICATION RECORD ==================*
G04 Layout Name:  E:/EMB002/project/hardware/Mini-8738/Mini.brd*
G04 Film Name:    Solder_Top*
G04 File Format:  Gerber RS274X*
G04 File Origin:  15.7-p007*
G04 Origin Date:  Tue Jul 01 09:24:56 2008*
G04 *
G04 Layer:  PIN/SOLDERMASK_TOP*
G04 Layer:  BOARD GEOMETRY/OUTLINE*
G04 *
G04 Offset:    (0.00 0.00)*
G04 Mirror:    No*
G04 Mode:      Positive*
G04 Rotation:  0*
G04 FullContactRelief:  No*
G04 UndefLineWidth:     8.00*
G04 ================== end FILE IDENTIFICATION RECORD ====================*
%FSLAX55Y55*MOIN*%
%IR0*IPPOS*OFA0.00000B0.00000*MIA0B0*SFA1.00000B1.00000*%
%ADD21C,.07*%
%ADD19C,.075*%
%ADD18C,.088*%
%ADD10R,.066X.066*%
%AMMACRO11*
4,1,4,-.01575,-.06398,
.01575,-.06398,
.01575,.06397,
-.01575,.06397,
-.01575,-.06398,
0.0*
%
%ADD11MACRO11*%
%ADD20R,.07X.07*%
%ADD13R,.036X.046*%
%ADD12R,.046X.036*%
%ADD16R,.018X.048*%
%ADD14R,.015X.078*%
%ADD15R,.078X.015*%
%ADD17R,.178X.158*%
%ADD22C,.008*%
G75*
%LPD*%
G75*
G54D10*
X8700Y24200D03*
X21700D03*
X8700Y34400D03*
X21700D03*
X186000Y33700D03*
X199000D03*
G54D20*
X215900Y51400D03*
G54D11*
X14764Y6398D03*
X31102D03*
X34252D03*
X37402D03*
X40551D03*
X43701D03*
X46850D03*
X50000D03*
X53150D03*
X56299D03*
X59449D03*
X62598D03*
X65748D03*
X68898D03*
X72047D03*
X75197D03*
X78346D03*
X81496D03*
X84646D03*
X87795D03*
X90945D03*
X94094D03*
X97244D03*
X100394D03*
X103543D03*
X106693D03*
X109843D03*
X112992D03*
X116142D03*
X119291D03*
X122441D03*
X125591D03*
X128740D03*
X131890D03*
X135039D03*
X138189D03*
X141339D03*
X144488D03*
X150787D03*
X147638D03*
X153937D03*
X157087D03*
X160236D03*
X163386D03*
X166535D03*
X169685D03*
X172835D03*
X175984D03*
X179134D03*
X182283D03*
X185433D03*
X188583D03*
X191732D03*
X194882D03*
X198031D03*
X201181D03*
X204331D03*
X207480D03*
X210630D03*
X213780D03*
X216929D03*
X220079D03*
G54D12*
X20400Y121300D03*
X14400D03*
Y115600D03*
X20400D03*
Y128000D03*
X14400D03*
Y133700D03*
X20400D03*
G54D21*
X215900Y61400D03*
G54D22*
G01X0Y86614D02*
G02Y70866I0J-7874D01*
G01Y0D01*
X19882D01*
Y12598D01*
G01D02*
G02X25787I2952J0D01*
G01Y0D01*
X234646D01*
Y70866D01*
G01D02*
G02Y86614I0J7874D01*
G01Y200591D01*
X0D01*
Y86614D01*
G54D13*
X66000Y46800D03*
Y40800D03*
X129800Y185000D03*
X124100D03*
X118400D03*
X89900Y184600D03*
X101100D03*
X95500D03*
X129800Y191000D03*
X124100D03*
X118400D03*
X89900Y190600D03*
X101100D03*
X95500D03*
X175100Y51300D03*
Y57300D03*
X135500Y185000D03*
Y191000D03*
G54D14*
X57983Y105642D03*
X59951D03*
X61920D03*
X63888D03*
X65857D03*
X67825D03*
X69794D03*
X71762D03*
X73731D03*
X75699D03*
X77668D03*
X79636D03*
Y173358D03*
X77668D03*
X75699D03*
X73731D03*
X71762D03*
X69794D03*
X67825D03*
X65857D03*
X63888D03*
X61920D03*
X59951D03*
X57983D03*
X81605Y105642D03*
X83573D03*
X85542D03*
X87510D03*
X89479D03*
X91447D03*
X93416D03*
X95384D03*
X97353D03*
X99321D03*
X101290D03*
X103258D03*
X105227D03*
X107195D03*
X109164D03*
X111132D03*
X113101D03*
X115069D03*
X117038D03*
X119006D03*
X120975D03*
X122943D03*
X124912D03*
X126880D03*
X128849D03*
X130817D03*
Y173358D03*
X128849D03*
X126880D03*
X124912D03*
X122943D03*
X120975D03*
X119006D03*
X117038D03*
X115069D03*
X113101D03*
X111132D03*
X109164D03*
X107195D03*
X105227D03*
X103258D03*
X101290D03*
X99321D03*
X97353D03*
X95384D03*
X93416D03*
X91447D03*
X89479D03*
X87510D03*
X85542D03*
X83573D03*
X81605D03*
G54D15*
X48731Y132610D03*
Y130642D03*
Y128673D03*
Y126705D03*
Y124736D03*
Y122768D03*
Y120799D03*
Y118831D03*
Y116862D03*
Y114894D03*
Y164106D03*
Y162138D03*
Y160169D03*
Y158201D03*
Y156232D03*
Y154264D03*
Y152295D03*
Y150327D03*
Y148358D03*
Y146390D03*
Y144421D03*
Y142453D03*
Y140484D03*
Y138516D03*
Y136547D03*
Y134579D03*
X140069Y114894D03*
Y116862D03*
Y118831D03*
Y120799D03*
Y122768D03*
Y124736D03*
Y126705D03*
Y128673D03*
Y130642D03*
Y132610D03*
Y134579D03*
Y136547D03*
Y138516D03*
Y140484D03*
Y142453D03*
Y144421D03*
Y146390D03*
Y148358D03*
Y150327D03*
Y152295D03*
Y154264D03*
Y156232D03*
Y158201D03*
Y160169D03*
Y162138D03*
Y164106D03*
G54D16*
X131010Y62542D03*
X129042D03*
X127073D03*
X125105D03*
X123136D03*
X121168D03*
X119199D03*
X117231D03*
X115262D03*
Y30258D03*
X117231D03*
X119199D03*
X121168D03*
X123136D03*
X125105D03*
X127073D03*
X129042D03*
X131010D03*
X160538Y62542D03*
X158569D03*
X156601D03*
X154632D03*
X152664D03*
X150695D03*
X148727D03*
X146758D03*
X144790D03*
X142821D03*
X140853D03*
X138884D03*
X136916D03*
X134947D03*
X132979D03*
Y30258D03*
X134947D03*
X136916D03*
X138884D03*
X140853D03*
X142821D03*
X144790D03*
X146758D03*
X148727D03*
X150695D03*
X152664D03*
X154632D03*
X156601D03*
X158569D03*
X160538D03*
G54D17*
X191600Y81400D03*
Y51400D03*
X191700Y132000D03*
Y102000D03*
X213900Y132100D03*
Y102100D03*
G54D18*
X181815Y167815D03*
Y187500D03*
X201500D03*
X221185Y167815D03*
X201500D03*
X221185Y187500D03*
X191657Y167815D03*
X211343D03*
G54D19*
X161800Y157900D03*
Y137900D03*
M02*
