G04 ================== begin FILE IDENTIFICATION RECORD ==================*
G04 Layout Name:  E:/EMB002/project/hardware/Mini-8738/Mini.brd*
G04 Film Name:    Solder_Bottom*
G04 File Format:  Gerber RS274X*
G04 File Origin:  15.7-p007*
G04 Origin Date:  Tue Jul 01 09:24:56 2008*
G04 *
G04 Layer:  PIN/SOLDERMASK_BOTTOM*
G04 Layer:  BOARD GEOMETRY/OUTLINE*
G04 *
G04 Offset:    (0.00 0.00)*
G04 Mirror:    No*
G04 Mode:      Positive*
G04 Rotation:  0*
G04 FullContactRelief:  No*
G04 UndefLineWidth:     8.00*
G04 ================== end FILE IDENTIFICATION RECORD ====================*
%FSLAX55Y55*MOIN*%
%IR0*IPPOS*OFA0.00000B0.00000*MIA0B0*SFA1.00000B1.00000*%
%ADD19C,.07*%
%ADD17C,.075*%
%ADD16C,.088*%
%ADD20R,.066X.066*%
%ADD14R,.022X.025*%
%AMMACRO10*
4,1,4,-.01575,-.09154,
.01575,-.09154,
.01575,.09153,
-.01575,.09153,
-.01575,-.09154,
0.0*
%
%ADD10MACRO10*%
%ADD21R,.055X.03*%
%ADD18R,.07X.07*%
%ADD11R,.036X.046*%
%ADD13R,.046X.036*%
%ADD12R,.018X.048*%
%ADD15R,.066X.056*%
%ADD22C,.008*%
G75*
%LPD*%
G75*
G54D10*
X16339Y9154D03*
X32677D03*
X35827D03*
X38976D03*
X42126D03*
X45276D03*
X48425D03*
X51575D03*
X54724D03*
X57874D03*
X61024D03*
X64173D03*
X67323D03*
X70472D03*
X73622D03*
X76772D03*
X79921D03*
X83071D03*
X86220D03*
X89370D03*
X92520D03*
X95669D03*
X98819D03*
X101969D03*
X105118D03*
X108268D03*
X111417D03*
X114567D03*
X117717D03*
X120866D03*
X124016D03*
X127165D03*
X130315D03*
X133465D03*
X136614D03*
X139764D03*
X142913D03*
X146063D03*
X149213D03*
X152362D03*
X155512D03*
X158661D03*
X161811D03*
X164961D03*
X168110D03*
X171260D03*
X174409D03*
X177559D03*
X180709D03*
X183858D03*
X187008D03*
X190157D03*
X193307D03*
X196457D03*
X199606D03*
X202756D03*
X205906D03*
X209055D03*
X212205D03*
X215354D03*
X218504D03*
X221654D03*
G54D11*
X25400Y134500D03*
Y140500D03*
X59500Y128000D03*
Y122000D03*
X59600Y142400D03*
Y136400D03*
X129400Y124700D03*
Y130700D03*
Y158600D03*
Y152600D03*
X100200Y162800D03*
Y156800D03*
X94600Y162800D03*
Y156800D03*
X129400Y146100D03*
Y140100D03*
X169400Y47900D03*
Y53900D03*
X219100Y99100D03*
Y93100D03*
X211300Y148300D03*
Y154300D03*
X191700Y148300D03*
Y154300D03*
G54D20*
X194100Y86300D03*
X207100D03*
G54D12*
X79725Y24015D03*
X77756D03*
X75788D03*
X73819D03*
X71851D03*
X69882D03*
X67914D03*
X65945D03*
X63977D03*
X62008D03*
X60040D03*
X58071D03*
X56103D03*
X54134D03*
X52166D03*
X50197D03*
X48229D03*
X46260D03*
X44292D03*
X42323D03*
X40355D03*
X38386D03*
Y56299D03*
X40355D03*
X42323D03*
X44292D03*
X46260D03*
X48229D03*
X50197D03*
X52166D03*
X54134D03*
X56103D03*
X58071D03*
X60040D03*
X62008D03*
X63977D03*
X65945D03*
X67914D03*
X69882D03*
X71851D03*
X73819D03*
X75788D03*
X77756D03*
X79725D03*
X83662Y24015D03*
X81693D03*
X130984Y23858D03*
X129016D03*
X127047D03*
X125079D03*
X123110D03*
X121142D03*
X119173D03*
X117205D03*
X115236D03*
X81693Y56299D03*
X83662D03*
X115236Y56142D03*
X117205D03*
X119173D03*
X121142D03*
X123110D03*
X125079D03*
X127047D03*
X129016D03*
X130984D03*
X160512Y23858D03*
X158543D03*
X156575D03*
X154606D03*
X152638D03*
X150669D03*
X148701D03*
X146732D03*
X144764D03*
X142795D03*
X140827D03*
X138858D03*
X136890D03*
X134921D03*
X132953D03*
Y56142D03*
X134921D03*
X136890D03*
X138858D03*
X140827D03*
X142795D03*
X144764D03*
X146732D03*
X148701D03*
X150669D03*
X152638D03*
X154606D03*
X156575D03*
X158543D03*
X160512D03*
G54D21*
X191900Y124700D03*
Y119700D03*
Y114700D03*
Y109700D03*
X213900Y124700D03*
Y119700D03*
Y109700D03*
Y114700D03*
G54D22*
G01X0Y86614D02*
G02Y70866I0J-7874D01*
G01Y0D01*
X19882D01*
Y12598D01*
G01D02*
G02X25787I2952J0D01*
G01Y0D01*
X234646D01*
Y70866D01*
G01D02*
G02Y86614I0J7874D01*
G01Y200591D01*
X0D01*
Y86614D01*
G54D13*
X73600Y115800D03*
X79600D03*
X65900D03*
X59900D03*
X60700Y157200D03*
X66700D03*
X60700Y163000D03*
X66700D03*
X106200Y47600D03*
X100200D03*
X111000Y126200D03*
X117000D03*
X87300Y126800D03*
X81300D03*
X130700Y115800D03*
X124700D03*
X107300D03*
X113300D03*
X93600D03*
X87600D03*
X123100Y164800D03*
X129100D03*
X185800Y136300D03*
Y142000D03*
X167800Y150700D03*
X161800D03*
X167800Y144900D03*
X161800D03*
X200200Y99400D03*
X194200D03*
X213000Y99500D03*
X207000D03*
X217300Y136400D03*
X211300D03*
X191800Y136300D03*
X211300Y142100D03*
X217300D03*
X191800Y142000D03*
G54D14*
X106496Y26968D03*
X103937D03*
X101378D03*
X97835D03*
X95276D03*
X92717D03*
X101378Y35236D03*
X106496D03*
X92717D03*
X97835D03*
G54D15*
X103700Y126500D03*
X94700D03*
G54D16*
X181815Y167815D03*
Y187500D03*
X201500D03*
X221185Y167815D03*
X201500D03*
X221185Y187500D03*
X191657Y167815D03*
X211343D03*
G54D17*
X161800Y157900D03*
Y137900D03*
G54D18*
X215900Y51400D03*
G54D19*
Y61400D03*
M02*
