G04 ================== begin FILE IDENTIFICATION RECORD ==================*
G04 Layout Name:  E:/EMB002/project/hardware/Mini-8738/Mini.brd*
G04 Film Name:    TOP*
G04 File Format:  Gerber RS274X*
G04 File Origin:  15.7-p007*
G04 Origin Date:  Tue Jul 01 09:24:56 2008*
G04 *
G04 Layer:  ETCH/TOP*
G04 Layer:  PIN/TOP*
G04 Layer:  VIA CLASS/TOP*
G04 *
G04 Offset:    (0.00 0.00)*
G04 Mirror:    No*
G04 Mode:      Positive*
G04 Rotation:  0*
G04 FullContactRelief:  No*
G04 UndefLineWidth:     8.00*
G04 ================== end FILE IDENTIFICATION RECORD ====================*
%FSLAX55Y55*MOIN*%
%IR0*IPPOS*OFA0.00000B0.00000*MIA0B0*SFA1.00000B1.00000*%
%ADD12C,.023*%
%ADD20C,.06*%
%ADD22C,.062*%
%ADD19C,.08*%
%ADD10R,.06X.06*%
%ADD17R,.01X.04*%
%ADD14R,.03X.04*%
%AMMACRO11*
4,1,4,-.01181,-.04528,
.01181,-.04528,
.01181,.04528,
-.01181,.04528,
-.01181,-.04528,
0.0*
%
%ADD11MACRO11*%
%ADD15R,.01X.07*%
%ADD13R,.04X.03*%
%ADD16R,.07X.01*%
%ADD18R,.17X.15*%
%ADD21R,.062X.062*%
%ADD23C,.012*%
%ADD24C,.015*%
%ADD25C,.0081*%
G75*
%LPD*%
G75*
G36*
G01X90890Y110000D02*
G02X90690Y110200I0J200D01*
G01Y111023D01*
X90663Y111050D01*
X90662Y111130D01*
G03X87233Y110530I-1762J-30D01*
G02X86854Y110000I-379J-129D01*
G01X80303D01*
G02X79914Y110493I0J400D01*
G03X76454Y110666I-1714J409D01*
G01X76456Y110652D01*
Y110200D01*
G02X76256Y110000I-200J0D01*
G01X63332D01*
G02X63132Y110200I0J200D01*
G01Y110684D01*
X62963Y110852D01*
X62962Y110933D01*
G03X59486Y110493I-1762J-32D01*
G02X59097Y110000I-389J-93D01*
G01X55400D01*
X53400Y112000D01*
Y119388D01*
G02X53600Y119588I200J0D01*
G01X54601D01*
X54950Y119937D01*
X55031Y119938D01*
G03X54022Y123166I-31J1762D01*
G02X53400Y123498I-222J332D01*
G01Y132300D01*
X56300Y135200D01*
Y137536D01*
X56306Y137561D01*
X56312Y137585D01*
G03Y138415I-1712J415D01*
G01X56306Y138439D01*
X56300Y138464D01*
Y141036D01*
X56306Y141061D01*
X56312Y141085D01*
G03Y141915I-1712J415D01*
G01X56306Y141939D01*
X56300Y141964D01*
Y163800D01*
X52000Y168100D01*
X44900D01*
X16800Y140000D01*
Y132400D01*
X15800Y131400D01*
X8500D01*
X7100Y130000D01*
Y120200D01*
X9100Y118200D01*
X15700D01*
X16900Y117000D01*
Y40600D01*
X18806Y38694D01*
G02X18523Y38012I-283J-282D01*
G01X18088D01*
Y30788D01*
X25312D01*
Y31223D01*
G02X25994Y31506I400J0D01*
G01X43000Y14500D01*
X49200D01*
X50400Y15700D01*
X52700D01*
X53600Y14800D01*
Y12700D01*
X52500Y11600D01*
X26101D01*
G02X25901Y11800I0J200D01*
G01Y13900D01*
X24100Y15701D01*
X21600D01*
X19799Y13900D01*
Y11900D01*
G02X19599Y11700I-200J0D01*
G01X301D01*
G02X101Y11900I0J200D01*
G01Y70499D01*
G02X301Y70699I200J0D01*
G01X3600D01*
X8001Y75100D01*
Y81900D01*
X3200Y86701D01*
X301D01*
G02X101Y86901I0J200D01*
G01Y143400D01*
X100Y143401D01*
Y200300D01*
G02X300Y200500I200J0D01*
G01X234400D01*
G02X234600Y200300I0J-200D01*
G01Y90100D01*
X226400Y81900D01*
Y75200D01*
X231200Y70400D01*
X234400D01*
G02X234600Y70200I0J-200D01*
G01Y17800D01*
G02X234400Y17600I-200J0D01*
G01X183900D01*
X167200Y34300D01*
Y45200D01*
X167900Y45900D01*
X174600D01*
X179300Y41200D01*
X214800D01*
X222600Y49000D01*
Y62400D01*
X211900Y73100D01*
Y91400D01*
X213600Y93100D01*
X227300D01*
X230600Y96400D01*
Y172200D01*
X227500Y175300D01*
Y191500D01*
X226000Y193000D01*
X178200D01*
X177000Y191800D01*
X143200D01*
X138800Y196200D01*
X125127D01*
X125080Y196227D01*
G03X123320I-880J-1527D01*
G01X123273Y196200D01*
X119327D01*
X119280Y196227D01*
G03X117520I-880J-1527D01*
G01X117473Y196200D01*
X105500D01*
X103600Y194300D01*
Y188900D01*
X102800Y188100D01*
X99700D01*
X98500Y189300D01*
Y194400D01*
X97100Y195800D01*
X73400D01*
X54900Y177300D01*
Y170500D01*
X57000Y168400D01*
X60700D01*
X60900Y168600D01*
X62417D01*
G02X62559Y168541I0J-200D01*
G01X62676Y168423D01*
Y168210D01*
X63537Y167350D01*
X63538Y167269D01*
G03X63683Y166599I1762J31D01*
G01X63700Y166561D01*
Y132100D01*
X65900Y129900D01*
X130600D01*
X133300Y127200D01*
X135200D01*
X135600Y126800D01*
Y125200D01*
X131400Y121000D01*
Y110500D01*
X130900Y110000D01*
X128292D01*
G02X128092Y110200I0J200D01*
G01Y111022D01*
X128064Y111050D01*
X128062Y111132D01*
G03X124633Y110530I-1762J-32D01*
G02X124254Y110000I-379J-129D01*
G01X113803D01*
G02X113414Y110493I0J400D01*
G03X109938Y110933I-1714J408D01*
G01X109929Y110198D01*
G02X109729Y110000I-200J2D01*
G01X90890D01*
G37*
%LPC*%
G75*
G36*
G01X12312Y20588D02*
X5088D01*
Y27812D01*
X7138D01*
G03X7338Y28012I0J200D01*
G01Y28180D01*
X7298Y28233D01*
G02Y30367I1402J1067D01*
G01X7338Y30420D01*
Y30588D01*
G03X7138Y30788I-200J0D01*
G01X5088D01*
Y38012D01*
X12312D01*
Y30788D01*
X10261D01*
G03X10061Y30588I0J-200D01*
G01X10062Y30420D01*
X10102Y30367D01*
G02Y28233I-1402J-1067D01*
G01X10062Y28180D01*
X10061Y28012D01*
G03X10261Y27812I200J0D01*
G01X12312D01*
Y20588D01*
G37*
G36*
G01X202612Y30088D02*
X195388D01*
Y37312D01*
X202612D01*
Y35262D01*
G03X202812Y35062I200J0D01*
G01X203580D01*
X203634Y35103D01*
G02Y32297I1066J-1403D01*
G01X203580Y32338D01*
X202812D01*
G03X202612Y32138I0J-200D01*
G01Y30088D01*
G37*
%LPD*%
G75*
G54D10*
X8700Y24200D03*
X21700D03*
X8700Y34400D03*
X21700D03*
X186000Y33700D03*
X199000D03*
G54D11*
X14764Y5512D03*
X31102D03*
X34252D03*
X37402D03*
X40551D03*
X43701D03*
X46850D03*
X50000D03*
X53150D03*
X56299D03*
X59449D03*
X62598D03*
X65748D03*
X68898D03*
X72047D03*
X75197D03*
X78346D03*
X81496D03*
X84646D03*
X87795D03*
X90945D03*
X94094D03*
X97244D03*
X100394D03*
X103543D03*
X106693D03*
X109843D03*
X112992D03*
X116142D03*
X119291D03*
X122441D03*
X125591D03*
X128740D03*
X131890D03*
X135039D03*
X138189D03*
X141339D03*
X144488D03*
X150787D03*
X147638D03*
X153937D03*
X157087D03*
X160236D03*
X163386D03*
X166535D03*
X169685D03*
X172835D03*
X175984D03*
X179134D03*
X182283D03*
X185433D03*
X188583D03*
X191732D03*
X194882D03*
X198031D03*
X201181D03*
X204331D03*
X207480D03*
X210630D03*
X213780D03*
X216929D03*
X220079D03*
G54D20*
X161800Y157900D03*
Y137900D03*
G54D21*
X215900Y51400D03*
G54D12*
X8700Y29300D03*
X21700Y39500D03*
X9400Y115600D03*
Y121300D03*
X9300Y128000D03*
X9400Y133700D03*
X77000Y15900D03*
X46886Y18518D03*
X42323Y19077D03*
X72600Y16100D03*
X79900Y17300D03*
X52200Y13000D03*
X63700Y18500D03*
X60200Y14100D03*
X55600Y13100D03*
X65900Y52000D03*
X66000Y36800D03*
X75200Y110902D03*
X64400D03*
X54700Y124900D03*
X57983Y100382D03*
X55000Y121700D03*
X61200Y110902D03*
X78200D03*
X41200Y124300D03*
X69795Y100195D03*
X43471Y116862D03*
X64400Y98700D03*
X74900Y99000D03*
X33100Y126800D03*
X32200Y130700D03*
X41200Y128900D03*
X60900Y167400D03*
X54600Y138000D03*
X65300Y167300D03*
X54600Y141500D03*
X39500Y133800D03*
X38700Y136700D03*
X92700Y23300D03*
X103900Y24100D03*
X110500Y47500D03*
X129100Y34600D03*
X129000Y52100D03*
X106500Y37800D03*
X97900D03*
X92100Y111000D03*
X108700Y110902D03*
X129400Y111200D03*
X88900Y111100D03*
X111700Y110902D03*
X126300Y111100D03*
X92200Y99400D03*
X97300Y99700D03*
X115700Y100100D03*
X114800Y97000D03*
X109500Y99400D03*
X103700Y132300D03*
X85800Y98400D03*
X101700Y98800D03*
X81400Y98500D03*
X106500Y99600D03*
X120400Y95400D03*
X130817Y100382D03*
X112500Y99400D03*
X124200Y98300D03*
X97353Y178618D03*
X99321Y168098D03*
X95384D03*
X85800Y190600D03*
X118400Y194700D03*
X124200D03*
X129800Y194200D03*
X95500Y193900D03*
X180000Y12100D03*
X169500Y42800D03*
X146800Y34400D03*
X146700Y52200D03*
X159400Y34300D03*
X175100Y62700D03*
X134400Y126100D03*
X145200Y116100D03*
X134500Y129100D03*
X148200Y119300D03*
X147700Y131400D03*
X145900Y124600D03*
X179700Y91300D03*
X133800Y155000D03*
X134400Y141400D03*
X172300Y150700D03*
Y144900D03*
X145800Y141600D03*
X134100Y162100D03*
X133900Y158200D03*
X134200Y145300D03*
X145700Y136500D03*
X135500Y194300D03*
X186000Y19300D03*
X205900Y11900D03*
X186100Y12000D03*
X204700Y33700D03*
X214000Y91600D03*
G54D13*
X20400Y121300D03*
X14400D03*
Y115600D03*
X20400D03*
Y128000D03*
X14400D03*
Y133700D03*
X20400D03*
G54D22*
X215900Y61400D03*
G54D23*
G01X63888Y110390D02*
Y105642D01*
G01X75699Y110403D02*
Y105642D01*
G01X64400Y110902D02*
X63888Y110390D01*
G01X75200Y110902D02*
X75699Y110403D01*
G01X48731Y122768D02*
X52568D01*
X54700Y124900D01*
G01X48731Y120799D02*
X54099D01*
X55000Y121700D01*
G01X61920Y105642D02*
Y110182D01*
X61200Y110902D01*
G01X77668Y105642D02*
Y110370D01*
X78200Y110902D01*
G01X48731Y124736D02*
X41636D01*
X41200Y124300D01*
G01X61920Y168420D02*
Y173358D01*
G01X60900Y167400D02*
X61920Y168420D01*
G01X48731Y138516D02*
X54084D01*
X54600Y138000D01*
G01X63888Y173358D02*
Y168712D01*
X65300Y167300D01*
G01X48731Y140484D02*
X53584D01*
X54600Y141500D01*
G01X39500Y133800D02*
X43200D01*
X44390Y132610D01*
X48731D01*
G01X132979Y62542D02*
X132900Y62463D01*
Y51500D01*
X128900Y47500D01*
G01D02*
X110500D01*
G01X128849Y110649D02*
Y105642D01*
G01X109164Y110438D02*
Y105642D01*
G01X91447Y110347D02*
Y105642D01*
G01X129400Y111200D02*
X128849Y110649D01*
G01X108700Y110902D02*
X109164Y110438D01*
G01X92100Y111000D02*
X91447Y110347D01*
G01X89479Y105642D02*
Y110521D01*
X88900Y111100D01*
G01X111132Y105642D02*
Y110334D01*
X111700Y110902D01*
G01X126880Y105642D02*
Y110520D01*
X126300Y111100D01*
G01X97353Y173358D02*
Y178618D01*
G01X91447Y173358D02*
Y183053D01*
X89900Y184600D01*
G01X93416Y173358D02*
Y182516D01*
X95500Y184600D01*
G01X126880Y173358D02*
Y182080D01*
X129800Y185000D01*
G01X124912Y173358D02*
Y184188D01*
X124100Y185000D01*
G01X122943Y173358D02*
Y180457D01*
X118400Y185000D01*
G01X128849Y173358D02*
Y178349D01*
X135500Y185000D01*
G01X101100Y184600D02*
X100900Y184800D01*
X95700D01*
X95500Y184600D01*
G01X134800Y126500D02*
X135005Y126705D01*
G01D02*
X135705D01*
G01X140069Y128673D02*
X134927D01*
X134500Y129100D01*
G01X140069Y142453D02*
X135453D01*
X134400Y141400D01*
G54D14*
X66000Y46800D03*
Y40800D03*
X129800Y185000D03*
X124100D03*
X118400D03*
X89900Y184600D03*
X101100D03*
X95500D03*
X129800Y191000D03*
X124100D03*
X118400D03*
X89900Y190600D03*
X101100D03*
X95500D03*
X175100Y51300D03*
Y57300D03*
X135500Y185000D03*
Y191000D03*
G54D24*
G01X8700Y24200D02*
Y29300D01*
G01Y34400D02*
Y29300D01*
G01X21700Y39500D02*
X28400Y32800D01*
X69600D01*
X74600Y37800D01*
X97900D01*
G01X21700Y34400D02*
Y39500D01*
G01X14400Y115600D02*
X9400D01*
G01X14400Y121300D02*
X9400D01*
G01X14400Y128000D02*
X9300D01*
G01X20400Y115600D02*
Y121300D01*
G01D02*
X38200D01*
X41200Y124300D01*
G01X20400Y128000D02*
Y133700D01*
G01X14400D02*
X9400D01*
G01X20400D02*
X39400D01*
X39500Y133800D01*
G01X62598Y5512D02*
Y11702D01*
X60200Y14100D01*
G01X56299Y5512D02*
Y12401D01*
X55600Y13100D01*
G01X66000Y46800D02*
X109800D01*
X110500Y47500D01*
G01X66000Y40800D02*
Y36800D01*
G01X169500Y42800D02*
X133600D01*
X128900Y47500D01*
G01X213900Y132100D02*
X214100Y132300D01*
Y152100D01*
X209900Y156300D01*
X184500D01*
X167442Y173358D01*
X130817D01*
G01X99321D02*
Y168098D01*
G01X103700Y132300D02*
Y163719D01*
X99321Y168098D01*
G01X95384Y173358D02*
Y168098D01*
G01X89900Y190600D02*
X85800D01*
G01X118400Y191000D02*
Y194700D01*
G01X124100Y191000D02*
Y194600D01*
X124200Y194700D01*
G01X129800Y191000D02*
Y194200D01*
G01X95500Y190600D02*
Y193900D01*
G01X179134Y5512D02*
Y11234D01*
X180000Y12100D01*
G01X160538Y30258D02*
Y33162D01*
X159400Y34300D01*
G01X158569Y30258D02*
Y33469D01*
X159400Y34300D01*
G01X175100Y57300D02*
Y62700D01*
G01Y51300D02*
X191500D01*
X191600Y51400D01*
G01X135705Y126705D02*
X140069D01*
G01X134400Y126100D02*
X134800Y126500D01*
G01X191600Y81400D02*
X189600D01*
X179700Y91300D01*
G01X140069Y156232D02*
X135532D01*
X134900Y155600D01*
X134400D01*
X133800Y155000D01*
G01X191700Y132000D02*
Y143100D01*
X170694Y164106D01*
X140069D01*
G01Y160169D02*
X136031D01*
X134100Y162100D01*
G01X140069Y144421D02*
X135079D01*
X134200Y145300D01*
G01X181815Y167815D02*
X189900Y175900D01*
X222800D01*
X227900Y170800D01*
Y116400D01*
X213900Y102400D01*
Y102100D01*
G01X135500Y191000D02*
Y194300D01*
G01X185433Y5512D02*
Y11333D01*
X186100Y12000D01*
G01X199000Y33700D02*
X204700D01*
G01X215900Y51400D02*
X191600D01*
G01X221185Y167815D02*
X225000Y164000D01*
Y122000D01*
X222200Y119200D01*
X208800D01*
X191700Y102100D01*
Y102000D01*
G54D15*
X57983Y105642D03*
X59951D03*
X61920D03*
X63888D03*
X65857D03*
X67825D03*
X69794D03*
X71762D03*
X73731D03*
X75699D03*
X77668D03*
X79636D03*
Y173358D03*
X77668D03*
X75699D03*
X73731D03*
X71762D03*
X69794D03*
X67825D03*
X65857D03*
X63888D03*
X61920D03*
X59951D03*
X57983D03*
X81605Y105642D03*
X83573D03*
X85542D03*
X87510D03*
X89479D03*
X91447D03*
X93416D03*
X95384D03*
X97353D03*
X99321D03*
X101290D03*
X103258D03*
X105227D03*
X107195D03*
X109164D03*
X111132D03*
X113101D03*
X115069D03*
X117038D03*
X119006D03*
X120975D03*
X122943D03*
X124912D03*
X126880D03*
X128849D03*
X130817D03*
Y173358D03*
X128849D03*
X126880D03*
X124912D03*
X122943D03*
X120975D03*
X119006D03*
X117038D03*
X115069D03*
X113101D03*
X111132D03*
X109164D03*
X107195D03*
X105227D03*
X103258D03*
X101290D03*
X99321D03*
X97353D03*
X95384D03*
X93416D03*
X91447D03*
X89479D03*
X87510D03*
X85542D03*
X83573D03*
X81605D03*
G54D25*
G01X46886Y18518D02*
X49368Y21000D01*
X64600D01*
X72100Y13500D01*
Y5565D01*
X72047Y5512D01*
G01X78346D02*
X78400Y5566D01*
Y12000D01*
X84000Y17600D01*
X95700D01*
X99900Y21800D01*
X110400D01*
X115262Y26662D01*
Y30258D01*
G01X65748Y5512D02*
X65800Y5564D01*
Y12800D01*
X61100Y17500D01*
X49500D01*
X48353Y16353D01*
X44947D01*
X42323Y18977D01*
Y19077D01*
G01X92700Y23300D02*
X79800D01*
X72600Y16100D01*
G01X63700Y18500D02*
X67600Y14600D01*
Y11300D01*
X68898Y10002D01*
Y5512D01*
G01X66000Y46800D02*
X65900Y46900D01*
Y52000D01*
G01X48731Y118831D02*
X48462Y119100D01*
X42400D01*
X40200Y116900D01*
Y100500D01*
X74500Y66200D01*
X112800D01*
X115262Y63738D01*
Y62542D01*
G01X59951Y105642D02*
X60150Y105443D01*
Y95450D01*
X77900Y77700D01*
X106400D01*
X119199Y64901D01*
Y62542D01*
G01X117231D02*
Y64669D01*
X114100Y67800D01*
X75000D01*
X43600Y99200D01*
Y113700D01*
X44700Y114800D01*
X48637D01*
X48731Y114894D01*
G01X79636Y105642D02*
X79600Y105606D01*
Y100800D01*
X79100Y100300D01*
Y96900D01*
X92200Y83800D01*
X107200D01*
X125105Y65895D01*
Y62542D01*
G01X57983Y105642D02*
Y100382D01*
G01X121168Y62542D02*
Y65232D01*
X106400Y80000D01*
X83100D01*
X67700Y95400D01*
Y99228D01*
X67630Y99298D01*
Y101092D01*
X67700Y101162D01*
Y105517D01*
X67825Y105642D01*
G01X123136Y62542D02*
Y65264D01*
X122600Y65800D01*
Y65900D01*
X107000Y81500D01*
X106900D01*
X106600Y81800D01*
X84900D01*
X71900Y94800D01*
Y99238D01*
X71960Y99298D01*
Y101092D01*
X71900Y101152D01*
Y105504D01*
X71762Y105642D01*
G01X69794D02*
Y100906D01*
X69795Y100195D01*
G01X48731Y116862D02*
X43471D01*
G01X65857Y105642D02*
Y100157D01*
X64400Y98700D01*
G01X73731Y105642D02*
Y100169D01*
X74900Y99000D01*
G01X48731Y126705D02*
X48636Y126800D01*
X42500D01*
X42450Y126750D01*
X42112D01*
X42097Y126735D01*
X40303D01*
X40288Y126750D01*
X40150D01*
X40100Y126800D01*
X33100D01*
G01X32200Y130700D02*
X32600Y131100D01*
X42100D01*
X42500Y130700D01*
X48673D01*
X48731Y130642D01*
G01X41200Y128900D02*
X41427Y128673D01*
X48731D01*
G01X38700Y136700D02*
X48578D01*
X48731Y136547D01*
G01X81496Y5512D02*
X81600Y5616D01*
Y12800D01*
X83100Y14300D01*
X85200D01*
X86820Y15920D01*
X96111D01*
X100491Y20300D01*
X111000D01*
X117231Y26531D01*
Y30258D01*
G01X125105D02*
Y23026D01*
X125079Y23000D01*
Y19519D01*
X123900Y18340D01*
X117422D01*
X113522Y14440D01*
X103340D01*
X100400Y11500D01*
Y5518D01*
X100394Y5512D01*
G01X87795D02*
X87300Y6007D01*
Y10400D01*
X86600Y11100D01*
Y13300D01*
X87800Y14500D01*
X96700D01*
X101000Y18800D01*
X111700D01*
X115700Y22800D01*
X118180D01*
X119199Y23819D01*
Y30258D01*
G01X132979D02*
Y15599D01*
X131400Y14020D01*
X119220D01*
X116200Y11000D01*
Y5570D01*
X116142Y5512D01*
G01X90945D02*
X91000Y5567D01*
Y11100D01*
X92200Y12300D01*
X96600D01*
X101600Y17300D01*
X112300D01*
X116300Y21300D01*
X120500D01*
X121168Y21968D01*
Y30258D01*
G01X123136D02*
Y23884D01*
X123110Y23858D01*
Y20610D01*
X122300Y19800D01*
X116873D01*
X112933Y15860D01*
X102260D01*
X97300Y10900D01*
Y5568D01*
X97244Y5512D01*
G01X106693D02*
X106900Y5719D01*
Y10800D01*
X109120Y13020D01*
X114111D01*
X118011Y16920D01*
X125700D01*
X127047Y18267D01*
Y23858D01*
X127073Y23884D01*
Y30258D01*
G01X131010D02*
Y18450D01*
X128060Y15500D01*
X118600D01*
X114700Y11600D01*
X110800D01*
X109800Y10600D01*
Y5555D01*
X109843Y5512D01*
G01X134947Y30258D02*
Y21726D01*
X134921Y21700D01*
Y14721D01*
X132800Y12600D01*
X121000D01*
X119300Y10900D01*
Y5521D01*
X119291Y5512D01*
G01X122441D02*
X122400Y5553D01*
Y10700D01*
X122800Y11100D01*
X135300D01*
X136916Y12716D01*
Y30258D01*
G01X103900Y24100D02*
X96900D01*
X92800Y20000D01*
X82600D01*
X79900Y17300D01*
G01X136916Y62542D02*
Y68884D01*
X113800Y92000D01*
X102600D01*
X99300Y95300D01*
Y98600D01*
X99500Y98800D01*
Y100600D01*
X99300Y100800D01*
Y105621D01*
X99321Y105642D01*
G01X129042Y30258D02*
Y34542D01*
X129100Y34600D01*
G01X129042Y62542D02*
Y52142D01*
X129000Y52100D01*
G01X140853Y62542D02*
Y69147D01*
X140320Y69680D01*
Y69689D01*
X117900Y92109D01*
Y101000D01*
X117038Y101862D01*
Y105642D01*
G01X87510D02*
X87500Y105632D01*
Y101000D01*
X88000Y100500D01*
Y95100D01*
X95000Y88100D01*
X108000D01*
X131010Y65090D01*
Y62542D01*
G01X103258Y105642D02*
Y100642D01*
X104200Y99700D01*
Y96700D01*
X107400Y93500D01*
X114500D01*
X138900Y69100D01*
Y62558D01*
X138884Y62542D01*
G01X83573Y105642D02*
X83600Y105615D01*
Y96200D01*
X94400Y85400D01*
X108100D01*
X127073Y66427D01*
Y62542D01*
G01X134947D02*
Y67953D01*
X113300Y89600D01*
X99000D01*
X95300Y93300D01*
Y98500D01*
X95135Y98665D01*
Y100597D01*
X95300Y100762D01*
Y105558D01*
X95384Y105642D01*
G01X93416D02*
Y100616D01*
X92200Y99400D01*
G01X97353Y105642D02*
Y99753D01*
X97300Y99700D01*
G01X115069Y105642D02*
Y100731D01*
X115700Y100100D01*
G01X114800Y97000D02*
X111900D01*
X111700Y97200D01*
X111600D01*
X110300Y98500D01*
Y98600D01*
X109500Y99400D01*
G01D02*
Y99700D01*
X107195Y102005D01*
Y105642D01*
G01X142821Y62542D02*
Y76479D01*
X121000Y98300D01*
Y105617D01*
X120975Y105642D01*
G01X85800Y98400D02*
Y101500D01*
X85542Y101758D01*
Y105642D01*
G01X124912D02*
X125200Y105354D01*
Y101300D01*
X144790Y81710D01*
Y62542D01*
G01X101290Y105642D02*
Y99210D01*
X101700Y98800D01*
G01X81400Y98500D02*
Y101500D01*
X81605Y101705D01*
Y105642D01*
G01X105227D02*
X105400Y105469D01*
Y100700D01*
X106500Y99600D01*
G01X120400Y95400D02*
X119400Y96400D01*
Y101900D01*
X119006Y102294D01*
Y105642D01*
G01X130817D02*
Y100382D01*
G01X113101Y105642D02*
Y100001D01*
X112500Y99400D01*
G01X124200Y98300D02*
X123700Y98800D01*
Y101300D01*
X122943Y102057D01*
Y105642D01*
G01X175984Y5512D02*
X175900Y5596D01*
Y11300D01*
X174200Y13000D01*
X170200D01*
X164600Y18600D01*
X155500D01*
X154632Y19468D01*
Y30258D01*
G01X148727D02*
Y19125D01*
X148701Y19099D01*
X153500Y14300D01*
X153591D01*
X153711Y14180D01*
X157620D01*
X160200Y11600D01*
Y5548D01*
X160236Y5512D01*
G01X182283D02*
X182200Y5595D01*
Y13100D01*
X179100Y16200D01*
X169100D01*
X165200Y20100D01*
X157900D01*
X156601Y21399D01*
Y30258D01*
G01X150787Y5512D02*
X150800Y5525D01*
Y11000D01*
X142821Y18979D01*
Y30258D01*
G01X150695D02*
Y19257D01*
X150669Y19231D01*
X154300Y15600D01*
X159600D01*
X163400Y11800D01*
Y5526D01*
X163386Y5512D01*
G01X153937D02*
X153900Y5549D01*
Y11300D01*
X144790Y20410D01*
Y30258D01*
G01X152664D02*
Y19388D01*
X152638Y19362D01*
X154900Y17100D01*
X164000D01*
X169700Y11400D01*
Y5527D01*
X169685Y5512D01*
G01X141339D02*
X141400Y5573D01*
Y11900D01*
X138884Y14416D01*
Y30258D01*
G01X140853D02*
Y14999D01*
X140827Y14973D01*
X144500Y11300D01*
Y5524D01*
X144488Y5512D01*
G01X148727Y62542D02*
Y109273D01*
X143100Y114900D01*
X140075D01*
X140069Y114894D01*
G01X146758Y30258D02*
Y34358D01*
X146800Y34400D01*
G01X146758Y62542D02*
Y52258D01*
X146700Y52200D01*
G01X140069Y130642D02*
X140211Y130500D01*
X145300D01*
X154632Y121168D01*
Y62542D01*
G01X158569D02*
Y128131D01*
X148000Y138700D01*
X140253D01*
X140069Y138516D01*
G01Y122768D02*
X140237Y122600D01*
X144838D01*
X145003Y122435D01*
X149465D01*
X152664Y119236D01*
Y62542D01*
G01X156601D02*
Y126699D01*
X149000Y134300D01*
X140348D01*
X140069Y134579D01*
G01X150695Y62542D02*
Y113705D01*
X145700Y118700D01*
X140200D01*
X140069Y118831D01*
G01Y116862D02*
X144438D01*
X145200Y116100D01*
G01X140069Y120799D02*
X146701D01*
X148200Y119300D01*
G01X140069Y132610D02*
X140079Y132600D01*
X146600D01*
X147700Y131500D01*
Y131400D01*
G01X140069Y124736D02*
X140105Y124700D01*
X145700D01*
X145800Y124600D01*
X145900D01*
G01X140069Y140484D02*
X144684D01*
X145800Y141600D01*
G01X140069Y158201D02*
X133901D01*
X133900Y158200D01*
G01X140069Y146390D02*
X153310D01*
X161800Y137900D01*
G01X140069Y136547D02*
X145653D01*
X145700Y136500D01*
G01X140069Y148358D02*
X152258D01*
X161800Y157900D01*
G54D16*
X48731Y132610D03*
Y130642D03*
Y128673D03*
Y126705D03*
Y124736D03*
Y122768D03*
Y120799D03*
Y118831D03*
Y116862D03*
Y114894D03*
Y164106D03*
Y162138D03*
Y160169D03*
Y158201D03*
Y156232D03*
Y154264D03*
Y152295D03*
Y150327D03*
Y148358D03*
Y146390D03*
Y144421D03*
Y142453D03*
Y140484D03*
Y138516D03*
Y136547D03*
Y134579D03*
X140069Y114894D03*
Y116862D03*
Y118831D03*
Y120799D03*
Y122768D03*
Y124736D03*
Y126705D03*
Y128673D03*
Y130642D03*
Y132610D03*
Y134579D03*
Y136547D03*
Y138516D03*
Y140484D03*
Y142453D03*
Y144421D03*
Y146390D03*
Y148358D03*
Y150327D03*
Y152295D03*
Y154264D03*
Y156232D03*
Y158201D03*
Y160169D03*
Y162138D03*
Y164106D03*
G54D17*
X131010Y62542D03*
X129042D03*
X127073D03*
X125105D03*
X123136D03*
X121168D03*
X119199D03*
X117231D03*
X115262D03*
Y30258D03*
X117231D03*
X119199D03*
X121168D03*
X123136D03*
X125105D03*
X127073D03*
X129042D03*
X131010D03*
X160538Y62542D03*
X158569D03*
X156601D03*
X154632D03*
X152664D03*
X150695D03*
X148727D03*
X146758D03*
X144790D03*
X142821D03*
X140853D03*
X138884D03*
X136916D03*
X134947D03*
X132979D03*
Y30258D03*
X134947D03*
X136916D03*
X138884D03*
X140853D03*
X142821D03*
X144790D03*
X146758D03*
X148727D03*
X150695D03*
X152664D03*
X154632D03*
X156601D03*
X158569D03*
X160538D03*
G54D18*
X191600Y81400D03*
Y51400D03*
X191700Y132000D03*
Y102000D03*
X213900Y132100D03*
Y102100D03*
G54D19*
X181815Y167815D03*
Y187500D03*
X201500D03*
X221185Y167815D03*
X201500D03*
X221185Y187500D03*
X191657Y167815D03*
X211343D03*
M02*
