G04 ================== begin FILE IDENTIFICATION RECORD ==================*
G04 Layout Name:  E:/project/IRISking/ikemb-0001/project/hardware/OV7720/ov7720_V3_TOP.brd*
G04 Film Name:    BOTTOM*
G04 File Format:  Gerber RS274X*
G04 File Origin:  16.0-p002*
G04 Origin Date:  Tue Mar 01 10:20:20 2011*
G04 *
G04 Layer:  BOARD GEOMETRY/OUTLINE*
G04 Layer:  ETCH/BOTTOM*
G04 Layer:  PIN/BOTTOM*
G04 Layer:  VIA CLASS/BOTTOM*
G04 *
G04 Offset:    (0.0000 0.0000)*
G04 Mirror:    No*
G04 Mode:      Positive*
G04 Rotation:  0*
G04 FullContactRelief:  No*
G04 UndefLineWidth:     8.0000*
G04 ================== end FILE IDENTIFICATION RECORD ====================*
%FSLAX55Y55*MOIN*%
%IR0*IPPOS*OFA0.00000B0.00000*MIA0B0*SFA1.00000B1.00000*%
%ADD11C,.04*%
%ADD12C,.023*%
%ADD20C,.018*%
%ADD10C,.09*%
%ADD19R,.06X.06*%
%ADD21R,.25X.14*%
%ADD18R,.03X.04*%
%ADD14R,.04X.03*%
%ADD13R,.04X.04*%
%ADD15R,.04X.06*%
%ADD22R,.05X.09*%
%ADD16R,.04X.018*%
%ADD17C,.2*%
%ADD23C,.01*%
%ADD24C,.0101*%
%ADD25C,.02*%
%ADD26C,.0041*%
%ADD27C,.0061*%
%ADD28C,.008*%
G75*
%LPD*%
G75*
G54D10*
X0Y0D03*
X129921Y129921D03*
G54D20*
X68953Y75450D03*
X53552Y62949D03*
X65438Y64504D03*
X62754Y59800D03*
G54D11*
X446Y49151D03*
Y44151D03*
Y39151D03*
Y34151D03*
Y29151D03*
X5446D03*
Y34151D03*
Y39151D03*
Y44151D03*
Y49151D03*
X446Y74151D03*
Y69151D03*
Y64151D03*
Y59151D03*
Y54151D03*
X5446D03*
Y59151D03*
Y64151D03*
Y69151D03*
Y74151D03*
Y79151D03*
X123760Y51020D03*
Y46020D03*
X128760D03*
Y51020D03*
X123760Y81020D03*
Y76020D03*
Y71020D03*
Y66020D03*
Y61020D03*
Y56020D03*
X128760D03*
Y61020D03*
Y66020D03*
Y71020D03*
Y76020D03*
Y81020D03*
X123760Y91020D03*
Y86020D03*
X128760D03*
Y91020D03*
Y96020D03*
G54D21*
X99110Y1448D03*
G54D12*
X18011Y31212D03*
X11891Y39151D03*
X15593Y45887D03*
X21071Y79640D03*
X10026Y54151D03*
X12736Y59151D03*
X19455Y53672D03*
X15705Y110882D03*
X-241Y99657D03*
X41481Y14085D03*
X51262Y44253D03*
X50490Y48810D03*
X44745Y37748D03*
Y34838D03*
X24027Y37927D03*
X36671Y33275D03*
X37691Y25484D03*
X46786Y32901D03*
X40184Y49094D03*
X49005Y55429D03*
X46709Y78859D03*
X50302Y69241D03*
X51112Y71827D03*
X44758Y55717D03*
X24131Y65973D03*
X36570Y76186D03*
X26441Y78859D03*
X44644Y62705D03*
Y65973D03*
X37689Y69290D03*
X50520Y65964D03*
X44812Y103362D03*
X50138Y84009D03*
X44644Y85395D03*
X29450Y82127D03*
X50812Y113041D03*
X71441Y8078D03*
X71436Y-2197D03*
X63402Y2993D03*
X78073Y39003D03*
X66190Y45305D03*
X81724Y51745D03*
X67152Y51054D03*
X72275Y77376D03*
X78073Y53454D03*
X62505Y69988D03*
X56080Y75143D03*
X76314Y69717D03*
X75443Y60884D03*
X60130Y53339D03*
X62849Y65115D03*
X54548Y60239D03*
X74892Y67116D03*
X66358Y69893D03*
X60210Y76794D03*
X76024Y76447D03*
X66475Y66974D03*
X54075Y91065D03*
X60210Y90836D03*
X75351Y86923D03*
X68853Y86869D03*
X83900Y1448D03*
X99110Y19906D03*
X90110Y20948D03*
X105392Y20228D03*
X111646Y47860D03*
X100902Y80631D03*
X101845Y72506D03*
X107435Y79379D03*
X86970Y55881D03*
X81822Y60129D03*
X101419Y54971D03*
X87082Y75698D03*
X97037Y55593D03*
X107435Y66406D03*
X82896Y69446D03*
X101741Y95190D03*
X93038Y101153D03*
X89869Y114140D03*
X113460Y1448D03*
G54D22*
X108110Y28448D03*
X99110D03*
X90110D03*
G54D13*
X446Y79151D03*
X123760Y96020D03*
G54D23*
G01X-241Y99657D02*
Y94882D01*
G01X15705Y110882D02*
X21759D01*
G01X49005Y55429D02*
X53783D01*
G01X44812Y103362D02*
Y108186D01*
G01X71436Y-2197D02*
X67402D01*
G01X78073Y39003D02*
Y42681D01*
G01Y53454D02*
Y48681D01*
G01X59783Y55429D02*
X60130Y55082D01*
Y53339D01*
G01X50812Y113041D02*
Y108186D01*
G01X101419Y54971D02*
X104861Y51529D01*
X105646D01*
G01X111646D02*
Y47860D01*
G54D14*
X17251Y84614D03*
X23251D03*
X50812Y108186D03*
X44812D03*
X67402Y-2197D03*
X61402D03*
X55955Y45305D03*
X61955D03*
X79193Y72506D03*
X59783Y55429D03*
X53783D03*
X111646Y51529D03*
X105646D03*
X91954Y72506D03*
X97954D03*
X85193D03*
X83869Y109179D03*
X89869D03*
G54D24*
G01X66190Y45305D02*
X61955D01*
G01X51262Y44253D02*
X52314Y45305D01*
X55955D01*
G54D15*
X-241Y110882D03*
X21759D03*
Y94882D03*
X-241D03*
G54D25*
G01X50138Y84009D02*
X53224Y80923D01*
X54075D01*
G01X81822Y60129D02*
X78785D01*
G01X72275Y77376D02*
Y80923D01*
G01X76024Y76447D02*
X77912D01*
X82096Y80631D01*
G01X75646Y64556D02*
X77212D01*
X78785Y66129D01*
G01X86816Y63302D02*
X83989Y66129D01*
X78785D01*
G01X75646Y64556D02*
X70705D01*
X68287Y66974D01*
X66475D01*
G01X54075Y91065D02*
Y86923D01*
G01X60210Y90836D02*
Y86869D01*
G01X75351Y86923D02*
X72275D01*
G01X68853Y86869D02*
X66358D01*
G01X83900Y1448D02*
X99110D01*
G01X113460D02*
X99110D01*
G01Y19906D02*
Y28448D01*
G01X90110Y20948D02*
Y28448D01*
G01X105392Y20228D02*
X108110Y22946D01*
Y28448D01*
G01X86970Y55881D02*
X86816Y55727D01*
Y50302D01*
G01X97037Y55593D02*
Y50302D01*
G01X100902Y80631D02*
X95096D01*
G01X101845Y72506D02*
X97954D01*
G01X107435Y79379D02*
Y73976D01*
G01X87082Y75698D02*
X85193Y73809D01*
Y72506D01*
G01X107435Y66406D02*
Y60976D01*
G01X82096Y90892D02*
Y80631D01*
G01X91954Y72506D02*
Y75496D01*
X90486Y76964D01*
Y77180D01*
X87189Y80477D01*
X82250D01*
X82096Y80631D01*
G01X97037Y63302D02*
X86816D01*
G01X101741Y95190D02*
X99668Y97263D01*
Y101153D01*
G01X89869Y114140D02*
Y109179D01*
G01X86668Y101153D02*
X83869Y103952D01*
Y109179D01*
G01X95096Y90892D02*
X86668Y99320D01*
Y101153D01*
G01X93038D02*
X86668D01*
G54D16*
X35843Y43868D03*
Y47136D03*
Y50404D03*
X27969D03*
Y47136D03*
Y43868D03*
X40985Y27944D03*
Y31212D03*
Y34480D03*
Y37748D03*
X33111D03*
Y34480D03*
Y31212D03*
Y27944D03*
X40884Y75591D03*
Y78859D03*
X33010D03*
Y75591D03*
X35843Y53672D03*
X27969D03*
X40884Y59437D03*
Y62705D03*
Y65973D03*
Y69241D03*
X33010D03*
Y65973D03*
Y62705D03*
Y59437D03*
X40884Y82127D03*
Y85395D03*
X33010D03*
Y82127D03*
G54D26*
G01X53044Y58420D02*
X55836D01*
X57133Y59717D01*
Y64616D01*
X62505Y69988D01*
G01X46676Y53314D02*
X56038D01*
X56716Y53992D01*
Y57368D01*
X60740Y61392D01*
Y65598D01*
X64270Y69128D01*
Y71704D01*
X61145Y74829D01*
X58202D01*
X57888Y75143D01*
X56080D01*
G01X53528Y60239D02*
X54548D01*
G01X82896Y69446D02*
X76645D01*
X76374Y69717D01*
X76314D01*
G01X66358Y69893D02*
Y75610D01*
G54D17*
X65840Y24800D03*
Y103540D03*
G54D27*
G01X33111Y31212D02*
X18011D01*
G01X446Y49151D02*
X-3289Y52886D01*
Y82386D01*
X-2789Y82886D01*
X9276D01*
X22921Y69241D01*
X33010D01*
G01X33111Y27944D02*
X18641D01*
X11891Y34694D01*
Y39151D01*
G01X446Y44151D02*
X-6044Y50641D01*
Y81176D01*
X-2294Y84926D01*
X9969D01*
X23019Y71876D01*
X34475D01*
X35725Y70626D01*
Y64320D01*
X34110Y62705D01*
X33010D01*
G01X15593Y45887D02*
X12249Y49231D01*
Y51928D01*
X10026Y54151D01*
G01X27969Y47136D02*
X21736D01*
X12736Y56136D01*
Y59151D01*
G01X27969Y43868D02*
X10370D01*
X9370Y42868D01*
Y35734D01*
X19620Y25484D01*
X37691D01*
G01X446Y29151D02*
X6046Y23551D01*
X47738D01*
X75443Y51256D01*
Y60884D01*
G01X21071Y79640D02*
X17714D01*
X11791Y85563D01*
Y95456D01*
X16157Y99822D01*
X25423D01*
X29878Y95367D01*
Y87427D01*
X31910Y85395D01*
X33010D01*
G01X446Y64151D02*
X-2269Y66866D01*
Y81866D01*
X8340D01*
X16570Y73636D01*
Y53904D01*
X20070Y50404D01*
X27969D01*
G01Y53672D02*
X19455D01*
G01X21759Y94882D02*
Y88592D01*
X20196Y87029D01*
X20166D01*
X17751Y84614D01*
X17251D01*
G01X81724Y51745D02*
X83101Y50368D01*
Y47006D01*
X83520Y46587D01*
Y27085D01*
X70520Y14085D01*
X41481D01*
G01X35843Y43868D02*
X34743D01*
X32928Y45683D01*
Y55112D01*
X33928Y56112D01*
X35523Y57707D01*
X52331D01*
X53044Y58420D01*
G01X35843Y50404D02*
X38744D01*
X40147Y51807D01*
X40165D01*
X41010Y52652D01*
X46014D01*
X46676Y53314D01*
G01X35843Y47136D02*
X48726D01*
X50400Y48810D01*
X50490D01*
G01X40985Y37748D02*
X44745D01*
G01X40985Y34480D02*
X42085D01*
X42443Y34838D01*
X44745D01*
G01X24027Y37927D02*
X32932D01*
X33111Y37748D01*
G01Y34480D02*
X35521D01*
X36671Y33330D01*
Y33275D01*
G01X40985Y31212D02*
X45097D01*
X46786Y32901D01*
G01X40184Y49094D02*
X42564Y51474D01*
X66732D01*
X67152Y51054D01*
G01X40884Y78859D02*
X46709D01*
G01X40884Y75591D02*
X44862D01*
X46015Y74438D01*
X46026D01*
X47118Y73346D01*
Y73335D01*
X48862Y71591D01*
Y70681D01*
X50302Y69241D01*
G01X40884Y82127D02*
X46427D01*
X50927Y77627D01*
Y72012D01*
X51112Y71827D01*
G01X35843Y53672D02*
X39653D01*
X40527Y54546D01*
X43973D01*
X44758Y55331D01*
Y55717D01*
G01X33010Y65973D02*
X24131D01*
G01X33010Y75591D02*
X34110D01*
X34705Y76186D01*
X36570D01*
G01X33010Y78859D02*
X26441D01*
G01X44644Y62705D02*
X48768D01*
X51234Y60239D01*
X53528D01*
G01X40884Y62705D02*
X44644D01*
G01X40884Y65973D02*
X44644D01*
G01X40884Y69241D02*
X40835Y69290D01*
X37689D01*
G01X50520Y65964D02*
X43392Y73092D01*
X28779D01*
X23251Y78620D01*
Y84614D01*
G01X40884Y85395D02*
X44644D01*
G01X33010Y82127D02*
X29450D01*
G01X23751Y84614D02*
X23251D01*
G01X61402Y-2197D02*
Y622D01*
X63402Y2622D01*
Y2993D01*
G01X60130Y53339D02*
X60260D01*
X61280Y54359D01*
X62849D01*
Y57611D01*
X64369Y59131D01*
Y60469D01*
X62849Y61988D01*
Y65115D01*
G01X75646Y72506D02*
X75637D01*
X74015Y70884D01*
Y67993D01*
X74892Y67116D01*
G01X79193Y72506D02*
X75646D01*
G01X66358Y75610D02*
Y75615D01*
G01Y80869D02*
Y75615D01*
G01X60210Y80869D02*
Y76794D01*
G54D18*
X78073Y48681D03*
Y42681D03*
X78785Y66129D03*
Y60129D03*
X60210Y80869D03*
X66358D03*
X72275Y80923D03*
X54075D03*
X60210Y86869D03*
X66358D03*
X72275Y86923D03*
X54075D03*
G54D28*
G01X-9436Y-11033D02*
X119364D01*
Y8967D01*
X139364D01*
Y140967D01*
X10564D01*
Y120967D01*
X-9436D01*
Y-11033D01*
G54D19*
X82096Y80631D03*
Y90892D03*
X86816Y50302D03*
X97037D03*
X86816Y63302D03*
X107435Y60976D03*
Y73976D03*
X97037Y63302D03*
X95096Y80631D03*
X86668Y101153D03*
X99668D03*
X95096Y90892D03*
M02*
