G04 ================== begin FILE IDENTIFICATION RECORD ==================*
G04 Layout Name:  E:/project/IRISking/ikemb-0001/project/hardware/OV7720/ov7720_V3_TOP.brd*
G04 Film Name:    POWER*
G04 File Format:  Gerber RS274X*
G04 File Origin:  16.0-p002*
G04 Origin Date:  Tue Mar 01 10:20:20 2011*
G04 *
G04 Layer:  VIA CLASS/POWER*
G04 Layer:  PIN/POWER*
G04 Layer:  ETCH/POWER*
G04 Layer:  BOARD GEOMETRY/OUTLINE*
G04 *
G04 Offset:    (0.0000 0.0000)*
G04 Mirror:    No*
G04 Mode:      Positive*
G04 Rotation:  0*
G04 FullContactRelief:  No*
G04 UndefLineWidth:     8.0000*
G04 ================== end FILE IDENTIFICATION RECORD ====================*
%FSLAX55Y55*MOIN*%
%IR0*IPPOS*OFA0.00000B0.00000*MIA0B0*SFA1.00000B1.00000*%
%ADD11C,.04*%
%ADD12C,.023*%
%ADD14C,.018*%
%ADD10C,.09*%
%ADD13C,.105*%
%ADD15C,.02*%
%ADD16C,.0061*%
%ADD17C,.008*%
%ADD18C,.043396*%
%ADD20C,.038396*%
%ADD19C,.125396*%
G75*
%LPD*%
G75*
G36*
G01X-7120Y-8925D02*
X-7177Y-8902D01*
G02X-7300Y-8717I77J185D01*
G01Y-5666D01*
G02X-6617Y-5383I400J0D01*
G01X-4000Y-8000D01*
X4000D01*
X8500Y-3500D01*
Y3500D01*
X3500Y8500D01*
X-3500D01*
X-6617Y5383D01*
G02X-7300Y5666I-283J283D01*
G01Y118000D01*
X-7200Y118100D01*
X14000D01*
Y137300D01*
G02X14200Y137500I200J0D01*
G01X124534D01*
G02X124817Y136817I0J-400D01*
G01X121421Y133421D01*
Y126421D01*
X125921Y121921D01*
X133921D01*
X135917Y123917D01*
G02X136600Y123634I283J-283D01*
G01Y11900D01*
G02X136400Y11700I-200J0D01*
G01X116100D01*
X116300Y11500D01*
Y-8700D01*
X116100Y-8900D01*
X-7000D01*
X-7001Y-8901D01*
X-7120Y-8925D01*
G37*
%LPC*%
G75*
G36*
G01X2654Y27090D02*
G02X-1615Y31359I-2208J2061D01*
G03Y31943I-273J292D01*
G02Y36359I2061J2208D01*
G03Y36943I-273J292D01*
G02Y41359I2061J2208D01*
G03Y41943I-273J292D01*
G02Y46359I2061J2208D01*
G03Y46943I-273J292D01*
G02Y51359I2061J2208D01*
G03Y51943I-273J292D01*
G02Y56359I2061J2208D01*
G03Y56943I-273J292D01*
G02Y61359I2061J2208D01*
G03Y61943I-273J292D01*
G02Y66359I2061J2208D01*
G03Y66943I-273J292D01*
G02Y71359I2061J2208D01*
G03Y71943I-273J292D01*
G02Y76359I2061J2208D01*
G03Y76943I-273J292D01*
G02X2654Y81212I2061J2208D01*
G03X3238I292J273D01*
G02X7507Y76943I2208J-2061D01*
G03Y76359I273J-292D01*
G02Y71943I-2061J-2208D01*
G03Y71359I273J-292D01*
G02Y66943I-2061J-2208D01*
G03Y66359I273J-292D01*
G02Y61943I-2061J-2208D01*
G03Y61359I273J-292D01*
G02Y56943I-2061J-2208D01*
G03Y56359I273J-292D01*
G02X7959Y55826I-2061J-2208D01*
G03X8562Y55752I333J222D01*
G02Y52550I1464J-1601D01*
G03X7959Y52476I-270J-295D01*
G02X7507Y51943I-2513J1675D01*
G03Y51359I273J-292D01*
G02Y46943I-2061J-2208D01*
G03Y46359I273J-292D01*
G02Y41943I-2061J-2208D01*
G03Y41359I273J-292D01*
G02Y36943I-2061J-2208D01*
G03Y36359I273J-292D01*
G02Y31943I-2061J-2208D01*
G03Y31359I273J-292D01*
G02X3238Y27090I-2061J-2208D01*
G03X2654I-292J-273D01*
G37*
G36*
G01X28514Y79499D02*
G02X26908Y80978I-2073J-640D01*
G03X27377Y81487I86J391D01*
G02X28983Y80008I2073J640D01*
G03X28514Y79499I-86J-391D01*
G37*
G36*
G01X58227Y74831D02*
G02X57420Y76850I-2147J313D01*
G03X58063Y77107I247J315D01*
G02X58870Y75088I2147J-313D01*
G03X58227Y74831I-247J-315D01*
G37*
G36*
G01X77028Y67495D02*
G02X74057Y69119I-2137J-379D01*
G03X74177Y69339I-77J185D01*
G02X77148Y67714I2137J379D01*
G03X77028Y67495I77J-185D01*
G37*
G36*
G01X46216Y64201D02*
G02X43072I-1572J-1496D01*
G03Y64477I-145J138D01*
G02X46216I1572J1496D01*
G03Y64201I145J-138D01*
G37*
G36*
G01X47294Y56764D02*
G02X47130Y54337I1711J-1335D01*
G03X46469Y54382I-346J-201D01*
G02X46633Y56809I-1711J1335D01*
G03X47294Y56764I346J201D01*
G37*
G36*
G01X125968Y43959D02*
G02X121699Y48228I-2208J2061D01*
G03Y48812I-273J292D01*
G02Y53228I2061J2208D01*
G03Y53812I-273J292D01*
G02Y58228I2061J2208D01*
G03Y58812I-273J292D01*
G02Y63228I2061J2208D01*
G03Y63812I-273J292D01*
G02Y68228I2061J2208D01*
G03Y68812I-273J292D01*
G02Y73228I2061J2208D01*
G03Y73812I-273J292D01*
G02Y78228I2061J2208D01*
G03Y78812I-273J292D01*
G02Y83228I2061J2208D01*
G03Y83812I-273J292D01*
G02Y88228I2061J2208D01*
G03Y88812I-273J292D01*
G02Y93228I2061J2208D01*
G03Y93812I-273J292D01*
G02X125968Y98081I2061J2208D01*
G03X126552I292J273D01*
G02X130821Y93812I2208J-2061D01*
G03Y93228I273J-292D01*
G02Y88812I-2061J-2208D01*
G03Y88228I273J-292D01*
G02Y83812I-2061J-2208D01*
G03Y83228I273J-292D01*
G02Y78812I-2061J-2208D01*
G03Y78228I273J-292D01*
G02Y73812I-2061J-2208D01*
G03Y73228I273J-292D01*
G02Y68812I-2061J-2208D01*
G03Y68228I273J-292D01*
G02Y63812I-2061J-2208D01*
G03Y63228I273J-292D01*
G02Y58812I-2061J-2208D01*
G03Y58228I273J-292D01*
G02Y53812I-2061J-2208D01*
G03Y53228I273J-292D01*
G02Y48812I-2061J-2208D01*
G03Y48228I273J-292D01*
G02X126552Y43959I-2061J-2208D01*
G03X125968I-292J-273D01*
G37*
G36*
G01X47054Y35054D02*
G02X44650Y32521I-268J-2153D01*
G03X44477Y32684I-197J-35D01*
G02X43032Y36170I268J2153D01*
G03Y36415I-158J123D01*
G02X46458I1713J1332D01*
G03Y36170I158J-123D01*
G02X46881Y35218I-1713J-1332D01*
G03X47054Y35054I197J35D01*
G37*
G36*
G01X109386Y17070D02*
X103063D01*
X101373Y18760D01*
Y18823D01*
X101256Y18940D01*
X101119D01*
X101025Y18885D01*
X100999Y18838D01*
G02X100683Y21401I-1889J1068D01*
G03X101373Y21676I290J276D01*
G01Y27160D01*
X92608Y35925D01*
X91762D01*
X88078Y39609D01*
Y44504D01*
X85961Y46621D01*
X68591D01*
G03X68217Y46078I0J-400D01*
G02X64276Y46327I-2027J-773D01*
G01X64299Y46371D01*
Y46421D01*
G03X64099Y46621I-200J0D01*
G01X64024D01*
X59319Y51326D01*
X59283Y51341D01*
G02X58132Y52492I847J1998D01*
G01X58117Y52528D01*
X56955Y53690D01*
Y58634D01*
G03X56243Y58884I-400J0D01*
G02X52559Y61106I-1695J1355D01*
G03X52487Y61352I-183J80D01*
G02X51691Y63419I1066J1597D01*
G03X51181Y63897I-388J98D01*
G02X48859Y67360I-661J2067D01*
G03X48841Y67637I-153J129D01*
G02X48974Y70957I1461J1604D01*
G03X49042Y71175I-122J158D01*
G02X52440Y70111I2070J652D01*
G03X52372Y69893I122J-158D01*
G02X51963Y67845I-2070J-652D01*
G03X51981Y67568I153J-129D01*
G02X52590Y65315I-1461J-1604D01*
G03X53072Y64808I382J-120D01*
G02X55398Y62422I480J-1859D01*
G03X55503Y62188I192J-55D01*
G02X56243Y61594I-955J-1949D01*
G03X56955Y61844I312J250D01*
G01Y66963D01*
X58285Y68293D01*
Y68653D01*
X60111D01*
G03X60484Y69199I0J400D01*
G02X64167Y71383I2021J789D01*
G03X64767Y71368I306J257D01*
G02X68119Y68625I1591J-1475D01*
G03X68129Y68379I162J-117D01*
G02X67440Y65031I-1654J-1405D01*
G03X67332Y64819I89J-179D01*
G02X64077Y63150I-1894J-314D01*
G03X63844Y63187I-142J-141D01*
G02X62883Y62945I-995J1928D01*
G03X62489Y62545I6J-400D01*
G01Y61970D01*
X61280Y60761D01*
Y56447D01*
X65096Y52631D01*
G03X65655Y52624I283J283D01*
G02X69208Y51747I1497J-1570D01*
G03X69398Y51611I190J64D01*
G01X79355D01*
G03X79555Y51805I0J200D01*
G02X83893I2169J-60D01*
G03X84093Y51611I200J6D01*
G01X91921D01*
X98204Y45328D01*
Y38801D01*
X103403Y33602D01*
X105941D01*
X111318Y28225D01*
Y19002D01*
X109386Y17070D01*
G37*
G54D18*
X15593Y45887D03*
X11891Y39151D03*
X89869Y114140D03*
X15705Y110882D03*
X44812Y103362D03*
X101741Y95190D03*
X54075Y91065D03*
X60210Y90836D03*
X75351Y86923D03*
X68853Y86869D03*
X44644Y85395D03*
X100902Y80631D03*
X21071Y79640D03*
X107435Y79379D03*
X46709Y78859D03*
X76024Y76447D03*
X36570Y76186D03*
X87082Y75698D03*
X101845Y72506D03*
X82896Y69446D03*
X37689Y69290D03*
X24131Y65973D03*
X75443Y60884D03*
X81822Y60129D03*
X12736Y59151D03*
X86970Y55881D03*
X101419Y54971D03*
X19455Y53672D03*
X40184Y49094D03*
X50490Y48810D03*
X78073Y39003D03*
X36671Y33275D03*
X18011Y31212D03*
X37691Y25484D03*
X41481Y14085D03*
X71441Y8078D03*
X63402Y2993D03*
X113460Y1448D03*
X83900D03*
X24027Y37927D03*
G54D20*
X68953Y75450D03*
G54D19*
X65840Y103540D03*
Y24800D03*
%LPD*%
G75*
G36*
G01X103233Y17480D02*
X101783Y18930D01*
Y27330D01*
X92778Y36335D01*
X91932D01*
X88488Y39779D01*
Y44674D01*
X86131Y47031D01*
X67507D01*
X67454Y47068D01*
G03X64926I-1264J-1763D01*
G01X64873Y47031D01*
X64194D01*
X57365Y53860D01*
Y66793D01*
X58695Y68123D01*
Y68126D01*
X58812Y68243D01*
X61051D01*
X62079Y67215D01*
Y62140D01*
X60870Y60931D01*
Y60171D01*
X60867Y60153D01*
G03Y59446I1887J-353D01*
G01X60870Y59428D01*
Y56277D01*
X65087Y52060D01*
G02X65132Y51846I-141J-141D01*
G03X69321Y51005I2020J-792D01*
G02X69521Y51201I200J-4D01*
G01X79474D01*
G02X79664Y51064I0J-200D01*
G03X83784I2060J681D01*
G02X83974Y51201I190J-63D01*
G01X91751D01*
X97794Y45158D01*
Y38631D01*
X103233Y33192D01*
X105771D01*
X110908Y28055D01*
Y19172D01*
X109216Y17480D01*
X103233D01*
G37*
G54D10*
X0Y0D03*
X129921Y129921D03*
G54D11*
X446Y49151D03*
Y44151D03*
Y39151D03*
Y34151D03*
Y29151D03*
X5446D03*
Y34151D03*
Y39151D03*
Y44151D03*
Y49151D03*
X446Y79151D03*
Y74151D03*
Y69151D03*
Y64151D03*
Y59151D03*
Y54151D03*
X5446D03*
Y59151D03*
Y64151D03*
Y69151D03*
Y74151D03*
Y79151D03*
X123760Y51020D03*
Y46020D03*
X128760D03*
Y51020D03*
X123760Y81020D03*
Y76020D03*
Y71020D03*
Y66020D03*
Y61020D03*
Y56020D03*
X128760D03*
Y61020D03*
Y66020D03*
Y71020D03*
Y76020D03*
Y81020D03*
X123760Y96020D03*
Y91020D03*
Y86020D03*
X128760D03*
Y91020D03*
Y96020D03*
G54D12*
X18011Y31212D03*
X11891Y39151D03*
X15593Y45887D03*
X21071Y79640D03*
X10026Y54151D03*
X12736Y59151D03*
X19455Y53672D03*
X15705Y110882D03*
X-241Y99657D03*
X41481Y14085D03*
X51262Y44253D03*
X50490Y48810D03*
X44745Y37748D03*
Y34838D03*
X24027Y37927D03*
X36671Y33275D03*
X37691Y25484D03*
X46786Y32901D03*
X40184Y49094D03*
X49005Y55429D03*
X46709Y78859D03*
X50302Y69241D03*
X51112Y71827D03*
X44758Y55717D03*
X24131Y65973D03*
X36570Y76186D03*
X26441Y78859D03*
X44644Y62705D03*
Y65973D03*
X37689Y69290D03*
X50520Y65964D03*
X44812Y103362D03*
X50138Y84009D03*
X44644Y85395D03*
X29450Y82127D03*
X50812Y113041D03*
X71441Y8078D03*
X71436Y-2197D03*
X63402Y2993D03*
X78073Y39003D03*
X66190Y45305D03*
X81724Y51745D03*
X67152Y51054D03*
X72275Y77376D03*
X78073Y53454D03*
X62505Y69988D03*
X56080Y75143D03*
X76314Y69717D03*
X75443Y60884D03*
X60130Y53339D03*
X62849Y65115D03*
X54548Y60239D03*
X74892Y67116D03*
X66358Y69893D03*
X60210Y76794D03*
X76024Y76447D03*
X66475Y66974D03*
X54075Y91065D03*
X60210Y90836D03*
X75351Y86923D03*
X68853Y86869D03*
X83900Y1448D03*
X99110Y19906D03*
X90110Y20948D03*
X105392Y20228D03*
X111646Y47860D03*
X100902Y80631D03*
X101845Y72506D03*
X107435Y79379D03*
X86970Y55881D03*
X81822Y60129D03*
X101419Y54971D03*
X87082Y75698D03*
X97037Y55593D03*
X107435Y66406D03*
X82896Y69446D03*
X101741Y95190D03*
X93038Y101153D03*
X89869Y114140D03*
X113460Y1448D03*
G54D13*
X65840Y24800D03*
Y103540D03*
G54D14*
X68953Y75450D03*
X53552Y62949D03*
X65438Y64504D03*
X62754Y59800D03*
G54D15*
G01X5446Y34151D02*
X7816D01*
X11138Y30829D01*
G01X9899Y69151D02*
X10380Y69632D01*
G01X5567Y69151D02*
X9899D01*
G01X5446D02*
X5567D01*
G01X128760Y46020D02*
Y51020D01*
G01Y40253D02*
X128572Y40065D01*
G01X128760Y42800D02*
Y40253D01*
G01Y46020D02*
Y42800D01*
G01X133220Y46020D02*
X133799Y46599D01*
G01X131980Y46020D02*
X133220D01*
G01X128760D02*
X131980D01*
G01X133061Y51020D02*
X133561Y50520D01*
G01X128760Y76020D02*
Y81020D01*
G01Y71020D02*
Y76020D01*
G01Y66020D02*
Y71020D01*
G01Y61020D02*
Y66020D01*
G01Y56020D02*
Y61020D01*
G01Y51020D02*
Y56020D01*
G01Y51020D02*
X133061D01*
G01X133240Y56020D02*
X133680Y56460D01*
G01X128760Y56020D02*
X133240D01*
G01X133607Y61020D02*
X133918Y61331D01*
G01X128760Y61020D02*
X133607D01*
G01X132317Y66020D02*
X132373Y65964D01*
G01X128760Y66020D02*
X132317D01*
G01X134089Y71020D02*
X134512Y70597D01*
G01X128760Y71020D02*
X134089D01*
G01X133128Y76020D02*
X133324Y75824D01*
G01X128760Y76020D02*
X133128D01*
G01X132405Y81020D02*
X132730Y80695D01*
G01X128760Y101198D02*
X129522Y101960D01*
G01X128760Y99240D02*
Y101198D01*
G01Y96020D02*
Y99240D01*
G01Y91020D02*
Y96020D01*
G01Y86020D02*
Y91020D01*
G01Y81020D02*
Y86020D01*
G01Y81020D02*
X132405D01*
G01X132395Y86020D02*
X133324Y85091D01*
G01X128760Y86020D02*
X132395D01*
G01X134403Y91020D02*
X134749Y90674D01*
G01X128760Y91020D02*
X134403D01*
G01X132611Y96020D02*
X133086Y95545D01*
G01X131980Y96020D02*
X132611D01*
G01X128760D02*
X131980D01*
G54D16*
G01X5567Y69151D02*
X5628Y69212D01*
G54D17*
G01X-9436Y-11033D02*
X119364D01*
Y8967D01*
X139364D01*
Y140967D01*
X10564D01*
Y120967D01*
X-9436D01*
Y-11033D01*
M02*
