G04 ================== begin FILE IDENTIFICATION RECORD ==================*
G04 Layout Name:  D:/project/IRISking/ikemb-0002/project/PPC/IKEMB0002-V1.brd*
G04 Film Name:    Power*
G04 File Format:  Gerber RS274X*
G04 File Origin:  15.7-p007*
G04 Origin Date:  Thu Jan 17 15:53:32 2008*
G04 *
G04 Layer:  VIA CLASS/POWER1*
G04 Layer:  PIN/POWER1*
G04 Layer:  ETCH/POWER1*
G04 Layer:  BOARD GEOMETRY/OUTLINE*
G04 *
G04 Offset:    (0.000 0.000)*
G04 Mirror:    No*
G04 Mode:      Positive*
G04 Rotation:  0*
G04 FullContactRelief:  No*
G04 UndefLineWidth:     8.000*
G04 ================== end FILE IDENTIFICATION RECORD ====================*
%FSLAX55Y55*MOIN*%
%IR0*IPPOS*OFA0.00000B0.00000*MIA0B0*SFA1.00000B1.00000*%
%ADD20R,.05X.12*%
%ADD19R,.12X.05*%
%ADD10C,.2*%
%ADD12C,.12*%
%ADD21C,.13*%
%ADD14C,.05*%
%ADD18C,.08*%
%ADD15C,.062*%
%ADD16C,.09*%
%ADD17C,.055*%
%ADD11C,.065*%
%ADD13C,.017988*%
%ADD22C,.008*%
%ADD26C,.212204*%
%ADD30C,.132204*%
%ADD32C,.142204*%
%ADD28C,.062204*%
%ADD23C,.030192*%
%ADD31C,.092204*%
%ADD27C,.074204*%
%ADD29C,.067204*%
%ADD25C,.026192*%
%ADD24C,.077204*%
G75*
%LPD*%
G75*
G36*
G01X1000Y-112065D02*
Y249030D01*
X36356D01*
X39002Y251676D01*
Y258691D01*
X46695D01*
Y245831D01*
X44725Y243861D01*
X8540D01*
X8356Y244045D01*
X7248Y242937D01*
Y230441D01*
X7230Y230402D01*
G03Y227834I2833J-1284D01*
G01X7248Y227795D01*
Y222567D01*
X7230Y222528D01*
G03Y219960I2833J-1284D01*
G01X7248Y219921D01*
Y214693D01*
X7230Y214654D01*
G03Y212086I2833J-1284D01*
G01X7248Y212047D01*
Y206819D01*
X7230Y206780D01*
G03Y204212I2833J-1284D01*
G01X7248Y204173D01*
Y198945D01*
X7230Y198906D01*
G03Y196338I2833J-1284D01*
G01X7248Y196299D01*
Y191071D01*
X7230Y191032D01*
G03Y188464I2833J-1284D01*
G01X7248Y188425D01*
Y183197D01*
X7230Y183158D01*
G03Y180590I2833J-1284D01*
G01X7248Y180551D01*
Y175323D01*
X7230Y175284D01*
G03Y172716I2833J-1284D01*
G01X7248Y172677D01*
Y167449D01*
X7230Y167410D01*
G03Y164842I2833J-1284D01*
G01X7248Y164803D01*
Y159575D01*
X7230Y159536D01*
G03Y156968I2833J-1284D01*
G01X7248Y156929D01*
Y151701D01*
X7230Y151662D01*
G03Y149094I2833J-1284D01*
G01X7248Y149055D01*
Y143827D01*
X7230Y143788D01*
G03Y141220I2833J-1284D01*
G01X7248Y141181D01*
Y135953D01*
X7230Y135914D01*
G03Y133346I2833J-1284D01*
G01X7248Y133307D01*
Y128079D01*
X7230Y128040D01*
G03Y125472I2833J-1284D01*
G01X7248Y125433D01*
Y120205D01*
X7230Y120166D01*
G03Y117598I2833J-1284D01*
G01X7248Y117559D01*
Y115513D01*
X19187D01*
X22689Y119015D01*
Y124342D01*
X26634Y128287D01*
X33688D01*
X34496Y129095D01*
X34536Y129110D01*
G03X35411Y129985I-536J1411D01*
G01X35427Y130026D01*
X36598Y131197D01*
Y131711D01*
X36675Y131772D01*
G03X37084Y132262I-929J1190D01*
G01X37098Y132289D01*
X37486Y132677D01*
X38078D01*
X38127Y132726D01*
X38719D01*
X40297Y131148D01*
Y128928D01*
X35464Y124095D01*
X27227D01*
X25550Y122418D01*
Y118127D01*
X22182Y114759D01*
X22165Y114748D01*
G03X21742Y114325I835J-1258D01*
G01X21731Y114308D01*
X19237Y111814D01*
X7248D01*
Y42756D01*
X12110Y37894D01*
X24415D01*
Y38817D01*
X47597Y61999D01*
X102201D01*
X102255Y61958D01*
G03X104075I910J1205D01*
G01X104129Y61999D01*
X122467D01*
X131049Y70581D01*
X145254D01*
X145688Y70147D01*
X145680Y70055D01*
G03X147301Y68435I1505J-115D01*
G01X147393Y68442D01*
X153787Y62048D01*
X154094D01*
G02X154493Y61596I0J-402D01*
G03X156637Y60045I1498J-187D01*
G01X156766Y60106D01*
X158374Y58497D01*
Y56870D01*
X157681Y56177D01*
G02X156994Y56460I-284J284D01*
G03X154102Y55854I-1510J-2D01*
G02X153733Y55291I-368J-161D01*
G01X151468D01*
X146624Y60135D01*
X146696Y60267D01*
G03X144648Y62316I-1325J724D01*
G01X144516Y62243D01*
X140321Y66438D01*
X134946D01*
X126413Y57905D01*
X56771D01*
X34140Y35274D01*
Y24458D01*
X34194Y24404D01*
Y22711D01*
X34140Y22657D01*
Y18694D01*
X34121D01*
Y-78875D01*
X44171Y-88925D01*
X91748D01*
Y-66734D01*
G02X92169Y-66332I402J0D01*
G03Y-58620I180J3856D01*
G02X91748Y-58218I-19J402D01*
G01Y-46734D01*
G02X92169Y-46332I402J0D01*
G03Y-38620I180J3856D01*
G02X91748Y-38218I-19J401D01*
G01Y-25195D01*
X91996Y-25092D01*
X92044Y-25140D01*
X92045D01*
X92638Y-24547D01*
X106878D01*
X107472Y-25141D01*
Y-28613D01*
X107275Y-28616D01*
G03Y-36336I74J-3859D01*
G01X107472Y-36339D01*
Y-38124D01*
X115069D01*
X116450Y-39505D01*
Y-45029D01*
X114773Y-46706D01*
X107472D01*
Y-48613D01*
X107275Y-48616D01*
G03Y-56336I74J-3859D01*
G01X107472Y-56339D01*
Y-88925D01*
X375068D01*
Y-65217D01*
X375124Y-65159D01*
G03Y-59793I-2775J2683D01*
G01X375068Y-59735D01*
Y-45217D01*
X375124Y-45159D01*
G03Y-39793I-2775J2683D01*
G01X375068Y-39735D01*
Y-38787D01*
X370767Y-34486D01*
Y-34271D01*
X370789Y-34228D01*
G03Y-30724I-3440J1752D01*
G01X370767Y-30681D01*
Y-23648D01*
X370806Y-23594D01*
G03Y-21806I-1216J894D01*
G01X370767Y-21752D01*
Y-20542D01*
X358454D01*
X352670Y-14758D01*
Y-1258D01*
X347924Y3488D01*
X343621D01*
X341396Y5713D01*
Y7911D01*
X341407Y7942D01*
G03Y8909I-1430J484D01*
G01X341396Y8940D01*
Y15234D01*
G02X341764Y15634I402J0D01*
G03X343135Y16958I-128J1504D01*
G01X343156Y17135D01*
X349258D01*
X351335Y15058D01*
Y6158D01*
X356526Y967D01*
X357268D01*
X362163Y-3928D01*
Y-14164D01*
X373289D01*
X375847Y-16722D01*
Y-19837D01*
X375810Y-19874D01*
Y-19949D01*
X379073Y-23212D01*
X387380D01*
X389457Y-21135D01*
X397912D01*
X399544Y-22767D01*
Y-30332D01*
X394797D01*
X388270Y-36859D01*
Y-42614D01*
X388136Y-42661D01*
G03Y-52291I1713J-4815D01*
G01X388270Y-52338D01*
Y-88925D01*
X413664D01*
Y7054D01*
X408140Y12578D01*
X401136D01*
X398374Y15340D01*
Y18103D01*
X399360Y19089D01*
X411887D01*
X419582Y11394D01*
Y-88433D01*
X420074Y-88925D01*
X431716D01*
Y-76004D01*
X432801Y-74919D01*
X441087D01*
X441777Y-75609D01*
Y-88925D01*
X451906D01*
Y-111472D01*
X451313Y-112065D01*
X35053D01*
X34993Y-111983D01*
G03X17905I-8544J-6291D01*
G01X17845Y-112065D01*
X1000D01*
G37*
G36*
G01X296308Y240780D02*
X298074D01*
X298134Y240714D01*
G03X300380Y241883I968J882D01*
G02X300772Y242373I392J88D01*
G01X301813D01*
G02X302188Y241826I0J-402D01*
G03X304633I1222J-471D01*
G02X305008Y242373I375J145D01*
G01X305620D01*
G02X306019Y241928I0J-402D01*
G03X308624I1302J-140D01*
G02X309024Y242373I400J43D01*
G01X309594D01*
G02X309985Y241877I0J-402D01*
G03X312532I1274J-305D01*
G02X312923Y242373I391J94D01*
G01X313192D01*
G02X313567Y241826I0J-402D01*
G03X316011I1222J-471D01*
G02X316386Y242373I375J145D01*
G01X321477D01*
G02X321850Y241820I0J-402D01*
G03X324279I1214J-490D01*
G02X324651Y242373I373J151D01*
G01X328950D01*
G02X329322Y241820I0J-402D01*
G03X331751I1214J-490D01*
G02X332124Y242373I373J151D01*
G01X333133D01*
G02X333530Y241906I0J-402D01*
G03X336114I1292J-212D01*
G02X336511Y242373I397J65D01*
G01X336712D01*
G02X337111Y241922I0J-402D01*
G03X339711I1300J-159D01*
G02X340110Y242373I399J49D01*
G01X348635D01*
G02X349007Y241820I0J-402D01*
G03X351436I1214J-490D01*
G02X351809Y242373I373J151D01*
G01X352536D01*
G02X352911Y241826I0J-402D01*
G03X355355I1222J-471D01*
G02X355730Y242373I375J145D01*
G01X356509D01*
G02X356881Y241820I0J-402D01*
G03X359310I1214J-490D01*
G02X359683Y242373I373J151D01*
G01X360446D01*
G02X360818Y241820I0J-402D01*
G03X363247I1214J-490D01*
G02X363620Y242373I373J151D01*
G01X364550D01*
G02X364932Y241848I0J-402D01*
G03X367428I1248J-398D01*
G02X367810Y242373I383J122D01*
G01X369034D01*
X370627Y240780D01*
X372194D01*
X372449Y241035D01*
X372619Y240864D01*
X372634Y240828D01*
G03X374544Y242436I1209J502D01*
G02X374474Y243060I215J340D01*
G01X376334Y244920D01*
X377132D01*
X377193Y244845D01*
G03X379227I1017J825D01*
G01X379288Y244920D01*
X380659D01*
X380710Y244795D01*
G03X383133I1211J498D01*
G01X383184Y244920D01*
X407326D01*
X408745Y246339D01*
Y250697D01*
G02X409117Y251098I402J0D01*
G03Y254108I-114J1505D01*
G02X408745Y254509I30J401D01*
G01Y257997D01*
X408835Y258057D01*
G03X409143Y258329I-835J1258D01*
G02X409797Y258265I304J-263D01*
G03X409967Y259996I1313J745D01*
G02X409313Y260060I-304J263D01*
G03X408835Y260572I-1313J-745D01*
G01X408745Y260632D01*
Y264614D01*
X408853Y264671D01*
G03Y267348I-698J1339D01*
G01X408745Y267404D01*
Y285344D01*
X410617Y287216D01*
X448190D01*
X464043Y303069D01*
Y373000D01*
X498993D01*
G02X499278Y372314I0J-402D01*
G01X497964Y371000D01*
Y285961D01*
X501624Y282301D01*
X541269D01*
Y275572D01*
X537183Y271486D01*
G02X536500Y271817I-284J284D01*
G03X535939Y270808I-1500J174D01*
G01X536079Y270920D01*
X536348Y270651D01*
X535531Y269834D01*
X520071D01*
X517202Y266965D01*
Y250546D01*
G02X516564Y250221I-402J0D01*
G03Y247779I-888J-1221D01*
G02X517202Y247454I236J-325D01*
G01Y244417D01*
G02X516534Y244116I-402J0D01*
G03Y241856I-1001J-1130D01*
G02X517202Y241555I267J-301D01*
G01Y236518D01*
G02X516556Y236199I-402J0D01*
G03Y233801I-918J-1199D01*
G02X517202Y233482I244J-319D01*
G01Y205506D01*
G02X516508Y205230I-402J0D01*
G03Y203154I-1096J-1038D01*
G02X517202Y202878I292J-276D01*
G01Y136507D01*
X521346Y132363D01*
Y111005D01*
X517760Y107419D01*
X469147D01*
X467712Y105984D01*
Y51793D01*
X468190Y51315D01*
X537403D01*
X543461Y45257D01*
Y44620D01*
X589500D01*
Y-137000D01*
X1000D01*
Y-112675D01*
X16740D01*
G02X17095Y-113267I0J-402D01*
G03X35803I9354J-5007D01*
G02X36158Y-112675I354J190D01*
G01X451566D01*
X452516Y-111725D01*
Y-87936D01*
G03X452173Y-87794I-201J0D01*
G01X451652Y-88315D01*
X442387D01*
Y-75356D01*
X441340Y-74309D01*
X432548D01*
X431106Y-75751D01*
Y-88315D01*
X420327D01*
X420192Y-88180D01*
Y8644D01*
G02X420849Y8955I402J0D01*
G03Y11291I956J1168D01*
G02X420192Y11602I-255J311D01*
G01Y11647D01*
X412140Y19699D01*
X399107D01*
X397764Y18356D01*
Y15087D01*
X400883Y11968D01*
X407887D01*
X413054Y6801D01*
Y-88315D01*
X388880D01*
Y-52959D01*
G02X389324Y-52559I402J0D01*
G03Y-42393I526J5083D01*
G02X388880Y-41993I-41J400D01*
G01Y-37112D01*
X395050Y-30942D01*
X400154D01*
Y-22514D01*
X398165Y-20525D01*
X389204D01*
X387127Y-22602D01*
X386243D01*
G02X385884Y-22019I0J402D01*
G03X383188I-1348J679D01*
G02X382829Y-22602I-359J-181D01*
G01X380404D01*
G02X380114Y-21922I0J402D01*
G03X377674Y-20202I-1090J1045D01*
G02X377030Y-20306I-360J180D01*
G01X376457Y-19733D01*
Y-16469D01*
X373542Y-13554D01*
X362773D01*
Y-3675D01*
X359684Y-586D01*
G02X359826Y74I284J284D01*
G03X357805Y1744I-534J1412D01*
G01X357776Y1577D01*
X356779D01*
X351945Y6411D01*
Y9111D01*
G02X352704Y9296I402J0D01*
G03Y12704I3296J1704D01*
G02X351945Y12889I-357J185D01*
G01Y15311D01*
X349511Y17745D01*
X343023D01*
X342966Y17851D01*
G03X340442Y18062I-1331J-713D01*
G02X339755Y18150I-318J246D01*
G03X337078Y18337I-1387J-596D01*
G02X336391I-344J209D01*
G03Y16770I-1290J-784D01*
G02X337078I344J-209D01*
G03X339562Y16630I1290J784D01*
G02X340249Y16542I318J-246D01*
G03X340708Y15947I1387J596D01*
G01X340786Y15887D01*
Y10293D01*
G02X340298Y9900I-402J0D01*
G03Y6950I-322J-1475D01*
G02X340786Y6558I86J-393D01*
G01Y5460D01*
X343368Y2878D01*
X347671D01*
X352060Y-1511D01*
Y-15011D01*
X358201Y-21152D01*
X370157D01*
Y-34739D01*
X373421Y-38003D01*
G02X373062Y-38682I-284J-284D01*
G03X373895Y-46013I-713J-3794D01*
G02X374458Y-46382I161J-368D01*
G01Y-49917D01*
X374410Y-49974D01*
G03Y-54978I2939J-2502D01*
G01X374458Y-55035D01*
Y-58570D01*
G02X373895Y-58939I-402J0D01*
G03Y-66013I-1546J-3537D01*
G02X374458Y-66382I161J-368D01*
G01Y-88315D01*
X108082D01*
Y-56269D01*
X108237Y-56233D01*
G03Y-48719I-888J3757D01*
G01X108082Y-48683D01*
Y-47316D01*
X115026D01*
X115166Y-47176D01*
G02X115850Y-47413I284J-284D01*
G03X116197Y-48211I1499J177D01*
G02X116028Y-48849I-307J-260D01*
G03X118670I1321J-3627D01*
G02X118501Y-48211I138J378D01*
G03X117014Y-45763I-1152J976D01*
G01X116796Y-45546D01*
X117060Y-45282D01*
Y-39252D01*
X115322Y-37514D01*
X108082D01*
Y-36269D01*
X108237Y-36233D01*
G03Y-28719I-888J3757D01*
G01X108082Y-28683D01*
Y-24888D01*
X107131Y-23937D01*
X92385D01*
X92044Y-24278D01*
X91481Y-23714D01*
G03X91138Y-23856I-142J-142D01*
G01Y-29888D01*
G02X90416Y-30132I-402J0D01*
G03Y-34820I-3067J-2344D01*
G02X91138Y-35064I319J-244D01*
G01Y-38808D01*
X91007Y-38857D01*
G03Y-46095I1342J-3619D01*
G01X91138Y-46144D01*
Y-49888D01*
G02X90416Y-50132I-402J0D01*
G03Y-54820I-3067J-2344D01*
G02X91138Y-55064I319J-244D01*
G01Y-58808D01*
X91007Y-58857D01*
G03Y-66095I1342J-3619D01*
G01X91138Y-66144D01*
Y-88315D01*
X44424D01*
X34731Y-78622D01*
Y18084D01*
X34750D01*
Y22404D01*
X34804Y22458D01*
Y24657D01*
X34750Y24711D01*
Y35021D01*
X57024Y57295D01*
X126666D01*
X135199Y65828D01*
X140068D01*
X144092Y61804D01*
X144026Y61674D01*
G03X146055Y59645I1346J-684D01*
G01X146185Y59711D01*
X151215Y54681D01*
X157048D01*
X158984Y56617D01*
Y58750D01*
X157218Y60516D01*
X157296Y60650D01*
G03X155190Y62689I-1305J759D01*
G01X155141Y62658D01*
X155057D01*
G02X154655Y63060I0J402D01*
G03X154538Y63344I-402J0D01*
G01X154267Y63615D01*
G02X154410Y63958I142J142D01*
G01X171750D01*
G02X172152Y63540I0J-402D01*
G03X175096Y63947I1508J-59D01*
G01X175091Y63962D01*
X175045Y64095D01*
X176892Y65942D01*
Y70641D01*
X173970Y73563D01*
X151627D01*
X147040Y78150D01*
X145598D01*
X143712Y76264D01*
Y74179D01*
X146220Y71671D01*
G02X146199Y71082I-284J-284D01*
G03X146175Y71062I986J-1143D01*
G02X145622Y71076I-269J299D01*
G01X145507Y71191D01*
X141293D01*
X141233Y71274D01*
G03X138786I-1223J-884D01*
G01X138726Y71191D01*
X130796D01*
X122214Y62609D01*
X105071D01*
G02X104670Y63043I0J402D01*
G03X102924Y64653I-1505J120D01*
G02X102469Y65143I-64J397D01*
G03X101241Y64000I-1469J347D01*
G02X101696Y63510I64J-397D01*
G03X101660Y63043I1469J-347D01*
G02X101259Y62609I-401J-32D01*
G01X61648D01*
G02X61438Y63354I0J402D01*
G03X54562I-3438J5645D01*
G02X54352Y62609I-209J-343D01*
G01X47344D01*
X23805Y39070D01*
Y38504D01*
X12363D01*
X7858Y43009D01*
Y111204D01*
X19490D01*
X26160Y117874D01*
Y122165D01*
X27480Y123485D01*
X35717D01*
X40907Y128675D01*
Y129710D01*
G02X41615Y129971I402J0D01*
G03X41303Y131334I1148J980D01*
G01X41263Y131184D01*
X40907D01*
Y131401D01*
X38972Y133336D01*
X37874D01*
X37825Y133287D01*
X37227D01*
X37182Y133426D01*
G03X34296Y132542I-1436J-465D01*
G02X33929Y132029I-386J-112D01*
G03X32839Y129556I71J-1508D01*
G02X32530Y128897I-309J-257D01*
G01X28015D01*
X27912Y129145D01*
X27985Y129218D01*
Y137504D01*
X42535Y152054D01*
X42671Y151967D01*
G03X44755Y154051I811J1273D01*
G01X44668Y154187D01*
X48601Y158120D01*
Y166912D01*
G02X49000Y167314I402J0D01*
G03Y170333I-10J1510D01*
G02X48601Y170735I3J402D01*
G01Y207631D01*
G02X49133Y208011I402J0D01*
G03Y210869I487J1429D01*
G02X48604Y211201I-130J381D01*
G01X43965Y215840D01*
Y221549D01*
X44398Y221982D01*
X44482Y221980D01*
G03X46010Y223508I18J1509D01*
G01X46008Y223593D01*
X48256Y225840D01*
Y233695D01*
X44792Y237159D01*
X42325D01*
X41351Y238133D01*
Y241093D01*
X39879Y242564D01*
G02X40164Y243251I284J284D01*
G01X44978D01*
X47305Y245578D01*
Y258063D01*
G02X47946Y258387I402J0D01*
G03X47336Y259682I898J1214D01*
G02X46935Y259301I-401J22D01*
G01X39189D01*
Y270985D01*
X43116Y274912D01*
Y307663D01*
X43240Y307715D01*
G03Y310501I-581J1393D01*
G01X43116Y310553D01*
Y315327D01*
X43232Y315382D01*
G03Y318118I-637J1368D01*
G01X43116Y318173D01*
Y322240D01*
G02X43746Y322571I402J0D01*
G03X43468Y324810I857J1243D01*
G01X43408Y324741D01*
X43116D01*
Y325435D01*
X52948Y335267D01*
X215647D01*
Y326706D01*
X215614Y326656D01*
G03Y324996I1261J-829D01*
G01X215647Y324946D01*
Y321328D01*
X215632Y321292D01*
G03Y320170I1402J-561D01*
G01X215647Y320134D01*
Y293355D01*
X215288Y292996D01*
X250393Y257891D01*
X250567D01*
Y223328D01*
X255170Y218725D01*
X280947D01*
X285039Y214633D01*
X292378D01*
X294336Y212675D01*
X299445D01*
Y211792D01*
G02X299082Y211392I-402J0D01*
G03X299123Y208782I128J-1303D01*
G02X299498Y208381I-27J-401D01*
G01Y200893D01*
X292747D01*
G02X292377Y201451I0J402D01*
G03X289963I-1207J509D01*
G02X289593Y200893I-370J-156D01*
G01X288852D01*
G02X288506Y201500I0J402D01*
G03X286250I-1128J666D01*
G02X285904Y200893I-346J-204D01*
G01X284788D01*
G02X284484Y201559I0J402D01*
G03X282508I-988J859D01*
G02X282205Y200893I-303J-264D01*
G01X281786D01*
X281213Y201466D01*
G03X280870Y201324I-142J-142D01*
G01Y186763D01*
X281599Y186034D01*
X294228D01*
X294269Y185887D01*
G03X296791I1261J353D01*
G01X296832Y186034D01*
X297712D01*
X297753Y185887D01*
G03X299077Y184929I1262J351D01*
G02X299498Y184528I19J-402D01*
G01Y184444D01*
G02X299083Y184042I-402J0D01*
G03Y181424I-42J-1309D01*
G02X299498Y181023I13J-402D01*
G01Y180480D01*
G02X299077Y180078I-402J0D01*
G03Y177462I-62J-1308D01*
G02X299498Y177061I19J-402D01*
G01Y173842D01*
X299192Y173536D01*
X299855Y172873D01*
X365424D01*
X365835Y173284D01*
Y193200D01*
X366024Y193211D01*
G03Y195826I-80J1307D01*
G01X365835Y195837D01*
Y198510D01*
X365874Y198564D01*
G03Y200113I-1056J775D01*
G01X365835Y200166D01*
Y204734D01*
X366035Y204735D01*
G03X366917Y205086I-10J1310D01*
G01X366975Y205140D01*
X368686D01*
X369429Y204397D01*
X382088D01*
X382658Y204967D01*
Y205446D01*
X382702Y205502D01*
G03Y207139I-1022J818D01*
G01X382658Y207194D01*
Y210302D01*
X382089Y210871D01*
X365835D01*
Y216422D01*
X366025Y216432D01*
G03Y219048I-75J1308D01*
G01X365835Y219058D01*
Y228179D01*
X366027Y228188D01*
G03X366486Y230699I-58J1308D01*
G02X366266Y231203I159J369D01*
G03X365903Y232619I-1234J438D01*
G01X365835Y232679D01*
Y238785D01*
X304176D01*
Y238319D01*
X299712Y233855D01*
Y231452D01*
G02X299348Y231052I-402J0D01*
G03X298632Y228745I125J-1304D01*
G02X298658Y228153I-258J-308D01*
G01X298046Y227541D01*
X293769D01*
X293238Y228072D01*
Y238838D01*
X292085D01*
G03X291114I-486J-1216D01*
G01X287919D01*
G03X286947I-486J-1216D01*
G01X278443D01*
X277951Y239330D01*
Y241262D01*
G02X278491Y241639I402J0D01*
G03X278901Y241561I448J1231D01*
G01X279096Y241555D01*
Y240780D01*
X280800D01*
X280858Y240682D01*
G03X283105I1123J673D01*
G01X283163Y240780D01*
X289972D01*
X290030Y240679D01*
G03X292303I1136J651D01*
G01X292361Y240780D01*
X294226D01*
X294286Y240712D01*
G03X296248I981J868D01*
G01X296308Y240780D01*
G37*
G36*
G01X8269Y116123D02*
X7858Y116534D01*
Y123742D01*
G02X8466Y124087I402J0D01*
G03Y129425I1596J2669D01*
G02X7858Y129770I-206J345D01*
G01Y131616D01*
G02X8466Y131961I402J0D01*
G03Y137299I1596J2669D01*
G02X7858Y137644I-206J345D01*
G01Y139490D01*
G02X8466Y139835I402J0D01*
G03Y145173I1596J2669D01*
G02X7858Y145518I-206J345D01*
G01Y147364D01*
G02X8466Y147709I402J0D01*
G03Y153047I1596J2669D01*
G02X7858Y153392I-206J345D01*
G01Y155238D01*
G02X8466Y155583I402J0D01*
G03Y160921I1596J2669D01*
G02X7858Y161266I-206J345D01*
G01Y163112D01*
G02X8466Y163457I402J0D01*
G03Y168795I1596J2669D01*
G02X7858Y169140I-206J345D01*
G01Y170986D01*
G02X8466Y171331I402J0D01*
G03Y176669I1596J2669D01*
G02X7858Y177014I-206J345D01*
G01Y178860D01*
G02X8466Y179205I402J0D01*
G03Y184543I1596J2669D01*
G02X7858Y184888I-206J345D01*
G01Y186734D01*
G02X8466Y187079I402J0D01*
G03Y192417I1596J2669D01*
G02X7858Y192762I-206J345D01*
G01Y194608D01*
G02X8466Y194953I402J0D01*
G03Y200291I1596J2669D01*
G02X7858Y200636I-206J345D01*
G01Y202482D01*
G02X8466Y202827I402J0D01*
G03Y208165I1596J2669D01*
G02X7858Y208510I-206J345D01*
G01Y210356D01*
G02X8466Y210701I402J0D01*
G03Y216039I1596J2669D01*
G02X7858Y216384I-206J345D01*
G01Y218230D01*
G02X8466Y218575I402J0D01*
G03Y223913I1596J2669D01*
G02X7858Y224258I-206J345D01*
G01Y226104D01*
G02X8466Y226449I402J0D01*
G03Y231787I1596J2669D01*
G02X7858Y232132I-206J345D01*
G01Y242039D01*
X9070Y243251D01*
X38330D01*
X40741Y240840D01*
Y237880D01*
X42072Y236549D01*
X44539D01*
X47646Y233442D01*
Y226093D01*
X46123Y224570D01*
G02X45557Y224568I-284J284D01*
G03X43626Y224721I-1057J-1077D01*
G02X43045Y224848I-233J328D01*
G03X42394Y225455I-1309J-752D01*
G02X42333Y226142I175J362D01*
G03X42526Y228420I-887J1222D01*
G02Y228982I287J281D01*
G03X42596Y231016I-1079J1055D01*
G02X42596Y231538I306J261D01*
G03X40301Y231541I-1146J982D01*
G02X40300Y231019I-306J-261D01*
G03X40367Y228982I1146J-982D01*
G02Y228420I-287J-281D01*
G03X40788Y226006I1079J-1055D01*
G02X40849Y225318I-175J-362D01*
G03X42610Y222866I887J-1222D01*
G02X43191Y222738I233J-328D01*
G03X43422Y222433I1309J752D01*
G02X43420Y221867I-287J-282D01*
G01X43355Y221802D01*
Y215587D01*
X44704Y214238D01*
G02X44408Y213552I-284J-284D01*
G03X43265Y213076I-42J-1509D01*
G02X42651Y213109I-293J275D01*
G03X42547Y211166I-1205J-910D01*
G02X43161Y211133I293J-275D01*
G03X45875Y212085I1205J910D01*
G02X46561Y212381I402J11D01*
G01X47991Y210951D01*
Y205078D01*
X47978Y205044D01*
G03Y203976I1412J-534D01*
G01X47991Y203942D01*
Y169958D01*
X47931Y169899D01*
G03Y167748I1060J-1075D01*
G01X47991Y167689D01*
Y158373D01*
X44195Y154577D01*
X44071Y154630D01*
G03X42092Y152651I-589J-1390D01*
G01X42145Y152527D01*
X27375Y137757D01*
Y129471D01*
X26801Y128897D01*
X26381D01*
X22079Y124595D01*
Y124440D01*
X21752D01*
Y119607D01*
X21622Y119477D01*
G02X20948Y119660I-284J284D01*
G03X15631Y116795I-3011J-778D01*
G02X15333Y116123I-298J-270D01*
G01X8269D01*
G37*
G36*
G01X300108Y173483D02*
Y178047D01*
X300137Y178095D01*
G03Y179446I-1122J675D01*
G01X300108Y179494D01*
Y181972D01*
X300140Y182022D01*
G03Y183445I-1100J711D01*
G01X300108Y183494D01*
Y185514D01*
X300137Y185562D01*
G03X297816Y186764I-1122J675D01*
G01X297763Y186644D01*
X296783D01*
X296730Y186764D01*
G03X294330I-1200J-524D01*
G01X294277Y186644D01*
X281852D01*
X281480Y187016D01*
Y200283D01*
X300108D01*
Y208987D01*
X300161Y209040D01*
Y209186D01*
X300209Y209242D01*
G03X300117Y211034I-999J847D01*
G01X300055Y211093D01*
Y213003D01*
X300124Y213063D01*
G03X297985Y213772I-859J988D01*
G02X297593Y213285I-393J-86D01*
G01X294589D01*
X292631Y215243D01*
X287569D01*
X287550Y215247D01*
G03X287052I-249J-1286D01*
G01X287033Y215243D01*
X285292D01*
X281200Y219335D01*
X255423D01*
X251177Y223581D01*
Y258289D01*
X250965Y258501D01*
X250646D01*
X216151Y292996D01*
X216257Y293102D01*
Y311552D01*
G02X216912Y311864I402J0D01*
G03X219265Y313596I951J1173D01*
G02X219541Y314135I373J149D01*
G03X217967Y315040I-317J1271D01*
G02X217640Y314530I-386J-112D01*
G03X216912Y314210I223J-1493D01*
G02X216257Y314522I-253J312D01*
G01Y318856D01*
G02X216738Y319251I402J0D01*
G03Y322211I296J1480D01*
G02X216257Y322606I-79J394D01*
G01Y323927D01*
G02X216704Y324326I402J0D01*
G03Y327326I171J1500D01*
G02X216257Y327725I-45J400D01*
G01Y329504D01*
G02X216790Y329884I402J0D01*
G03Y332739I491J1427D01*
G02X216257Y333119I-131J380D01*
G01Y335771D01*
X216151Y335877D01*
X61733D01*
X61688Y335902D01*
G03X60227I-731J-1321D01*
G01X60181Y335877D01*
X52695D01*
X42506Y325688D01*
Y318266D01*
X42339Y318238D01*
G03Y315262I256J-1488D01*
G01X42506Y315234D01*
Y310619D01*
X42347Y310585D01*
G03Y307631I312J-1477D01*
G01X42506Y307597D01*
Y275165D01*
X38579Y271238D01*
Y259301D01*
X38392D01*
Y251929D01*
X36103Y249640D01*
X1000D01*
Y267841D01*
X17988D01*
X26161Y276014D01*
Y337044D01*
X34083Y344966D01*
X34225Y344826D01*
G03X52263Y352237I7429J7575D01*
G01X52266Y352435D01*
X77888D01*
G02X78290Y352030I0J-402D01*
G03X85710I3710J-30D01*
G02X86112Y352435I402J3D01*
G01X87888D01*
G02X88290Y352030I0J-402D01*
G03X95710I3710J-30D01*
G02X96112Y352435I402J3D01*
G01X97888D01*
G02X98290Y352030I0J-402D01*
G03X105710I3710J-30D01*
G02X106112Y352435I402J3D01*
G01X107888D01*
G02X108290Y352030I0J-402D01*
G03X115710I3710J-30D01*
G02X116112Y352435I402J3D01*
G01X117888D01*
G02X118290Y352030I0J-402D01*
G03X125710I3710J-30D01*
G02X126112Y352435I402J3D01*
G01X127888D01*
G02X128290Y352030I0J-402D01*
G03X135710I3710J-30D01*
G02X136112Y352435I402J3D01*
G01X137888D01*
G02X138290Y352030I0J-402D01*
G03X145710I3710J-30D01*
G02X146112Y352435I402J3D01*
G01X200398D01*
G02X200735Y351814I0J-402D01*
G03X200551Y351413I1265J-824D01*
G02X199920Y351207I-386J113D01*
G03X200449Y349587I-920J-1197D01*
G02X201080Y349793I386J-113D01*
G03X202920I920J1197D01*
G02X203551Y349587I245J-319D01*
G03X204080Y351207I1449J423D01*
G02X203449Y351413I-245J319D01*
G03X203265Y351814I-1449J-423D01*
G02X203602Y352435I337J219D01*
G01X228039D01*
Y334814D01*
G02X227599Y334414I-402J0D01*
G03X226616Y334096I-122J-1304D01*
G02X226097Y334088I-264J303D01*
G03X226130Y332087I-828J-1014D01*
G02X226649Y332096I264J-303D01*
G03X227599Y331806I828J1014D01*
G02X228039Y331406I38J-400D01*
G01Y299789D01*
X252026Y275802D01*
X264179D01*
Y260518D01*
X271503Y253194D01*
X275398D01*
G02X275702Y252529I0J-402D01*
G03X276919Y250035I1143J-986D01*
G02X277341Y249634I20J-401D01*
G01Y243426D01*
G02X276742Y243075I-402J0D01*
G03Y240446I-742J-1315D01*
G02X277341Y240095I197J-350D01*
G01Y239077D01*
X278190Y238228D01*
X285734D01*
G02X286133Y237778I0J-402D01*
G03X288733I1300J-156D01*
G02X289132Y238228I399J48D01*
G01X289900D01*
G02X290299Y237778I0J-402D01*
G03X292079Y236403I1300J-156D01*
G02X292628Y236029I147J-374D01*
G01Y231101D01*
G02X292073Y230729I-402J0D01*
G03Y228308I-499J-1211D01*
G02X292628Y227936I153J-372D01*
G01Y227819D01*
X293516Y226931D01*
X294085D01*
G02X294420Y226306I0J-402D01*
G03X296601I1091J-725D01*
G02X296936Y226931I335J223D01*
G01X298299D01*
X299866Y228498D01*
X299909Y228513D01*
G03X300383Y230690I-435J1235D01*
G01X300322Y230749D01*
Y233129D01*
X300336Y233165D01*
G03X300430Y233630I-1215J488D01*
G01X300432Y233712D01*
X304895Y238175D01*
X341105D01*
G02X341499Y237690I0J-402D01*
G03X341471Y237460I1281J-270D01*
G02X340955Y237086I-402J12D01*
G03X341892Y235791I-372J-1256D01*
G02X342408Y236164I402J-12D01*
G03X344061Y237690I372J1256D01*
G02X344455Y238175I393J83D01*
G01X344634D01*
G02X345029Y237700I0J-402D01*
G03X347605I1288J-236D01*
G02X348000Y238175I395J73D01*
G01X348525D01*
G02X348919Y237690I0J-402D01*
G03X351481I1281J-270D01*
G02X351875Y238175I393J83D01*
G01X365225D01*
Y232952D01*
X365025Y232951D01*
G03X364515Y230438I7J-1310D01*
G02X364736Y229934I-159J-369D01*
G03X365150Y228475I1234J-438D01*
G01X365225Y228414D01*
Y226914D01*
G02X364677Y226540I-402J0D01*
G03Y224100I-477J-1220D01*
G02X365225Y223726I146J-374D01*
G01Y218835D01*
X365147Y218775D01*
G03Y216705I803J-1035D01*
G01X365225Y216645D01*
Y215009D01*
X365159Y214949D01*
G03Y213013I882J-968D01*
G01X365225Y212953D01*
Y210261D01*
X381836D01*
X382048Y210049D01*
Y208031D01*
G02X381654Y207629I-402J0D01*
G03X380571Y205623I26J-1309D01*
G02X380231Y205007I-340J-214D01*
G01X375500D01*
G02X375129Y205565I0J402D01*
G03X372715I-1207J507D01*
G02X372344Y205007I-371J-156D01*
G01X371740D01*
G02X371404Y205630I0J402D01*
G03X369009Y206198I-1094J720D01*
G02X368610Y205750I-399J-47D01*
G01X367733D01*
G02X367332Y206127I0J402D01*
G03X365157Y205064I-1307J-82D01*
G01X365225Y205004D01*
Y201050D01*
G02X364822Y200648I-402J0D01*
G03Y198029I-4J-1310D01*
G02X365225Y197627I1J-402D01*
G01Y195618D01*
X365146Y195557D01*
G03Y193480I797J-1039D01*
G01X365225Y193419D01*
Y182437D01*
G02X364722Y182047I-402J0D01*
G03Y179512I-328J-1268D01*
G02X365225Y179123I101J-389D01*
G01Y173537D01*
X365171Y173483D01*
X353578D01*
G02X353300Y174175I0J402D01*
G03X351488I-906J946D01*
G02X351210Y173483I-278J-290D01*
G01X336080D01*
G02X335697Y174006I0J402D01*
G03X333199I-1249J394D01*
G02X332816Y173483I-383J-121D01*
G01X305017D01*
G02X304633Y174006I0J402D01*
G03X302136I-1249J394D01*
G02X301752Y173483I-383J-121D01*
G01X300108D01*
G37*
G36*
G01X376894Y245530D02*
X376081D01*
X375797Y245246D01*
G02X375115Y245475I-284J284D01*
G03X373636Y243996I-1297J-182D01*
G02X373864Y243313I-56J-398D01*
G01X371941Y241390D01*
X370880D01*
X369287Y242983D01*
X338887D01*
X338854Y242995D01*
G03X337967I-444J-1232D01*
G01X337934Y242983D01*
X335054D01*
X335038Y242986D01*
G03X334606I-216J-1292D01*
G01X334590Y242983D01*
X307860D01*
X307823Y242998D01*
G03X306820I-501J-1210D01*
G01X306783Y242983D01*
X300085D01*
X299809Y242707D01*
X299680Y242771D01*
G03X297792Y241593I-578J-1175D01*
G01Y241390D01*
X296578D01*
X296577Y241590D01*
G03X293957I-1310J-9D01*
G01X293956Y241390D01*
X292486D01*
X292457Y241556D01*
G03X289877I-1290J-226D01*
G01X289848Y241390D01*
X283302D01*
X283275Y241560D01*
G03X280688I-1294J-204D01*
G01X280661Y241390D01*
X279706D01*
Y241805D01*
X279778Y241865D01*
G03Y243875I-840J1005D01*
G01X279706Y243935D01*
Y247292D01*
G02X280386Y247583I402J0D01*
G03X282513Y248998I904J947D01*
G02X282915Y249543I375J144D01*
G03X281777Y250382I85J1307D01*
G02X281375Y249837I-375J-144D01*
G03X280386Y249477I-85J-1307D01*
G02X279706Y249768I-278J291D01*
G01Y252641D01*
X278326Y254021D01*
X272382D01*
X271568Y254835D01*
G02X271780Y255515I284J284D01*
G03X271979Y258435I-271J1485D01*
G02X271790Y259068I125J382D01*
G03X270141Y258575I-1180J942D01*
G02X270330Y257942I-125J-382D01*
G03X270024Y257271I1180J-942D01*
G02X269344Y257058I-395J72D01*
G01X265165Y261238D01*
Y276947D01*
X252004D01*
X228760Y300191D01*
Y320416D01*
G02X229314Y320788I402J0D01*
G03Y323214I494J1213D01*
G02X228760Y323586I-152J372D01*
G01Y332847D01*
X228765Y332872D01*
X228767Y332882D01*
G03Y333338I-1290J228D01*
G01X228765Y333348D01*
X228760Y333373D01*
Y353262D01*
X213391D01*
G02X212995Y353735I0J402D01*
G03X210023I-1486J265D01*
G02X209628Y353262I-396J-71D01*
G01X191709D01*
G02X191348Y353840I0J402D01*
G03X188632I-1358J660D01*
G02X188271Y353262I-361J-176D01*
G01X169709D01*
G02X169348Y353840I0J402D01*
G03X166632I-1358J660D01*
G02X166271Y353262I-362J-176D01*
G01X145492D01*
X145441Y353388D01*
G03X138559I-3441J-1388D01*
G01X138508Y353262D01*
X135492D01*
X135441Y353388D01*
G03X128559I-3441J-1388D01*
G01X128508Y353262D01*
X125492D01*
X125441Y353388D01*
G03X118559I-3441J-1388D01*
G01X118508Y353262D01*
X115492D01*
X115441Y353388D01*
G03X108559I-3441J-1388D01*
G01X108508Y353262D01*
X105492D01*
X105441Y353388D01*
G03X98559I-3441J-1388D01*
G01X98508Y353262D01*
X95492D01*
X95441Y353388D01*
G03X88559I-3441J-1388D01*
G01X88508Y353262D01*
X85492D01*
X85441Y353388D01*
G03X78559I-3441J-1388D01*
G01X78508Y353262D01*
X52231D01*
X52213Y353443D01*
G03X33010Y346249I-10559J-1041D01*
G01X33109Y346111D01*
X25349Y338351D01*
Y292817D01*
X19987Y287455D01*
X7252D01*
X1000Y293707D01*
Y373000D01*
X463433D01*
Y303322D01*
X447937Y287826D01*
X410364D01*
X408135Y285597D01*
Y281557D01*
G02X407497Y281232I-402J0D01*
G03Y278788I-887J-1222D01*
G02X408135Y278463I236J-325D01*
G01Y267529D01*
X407960Y267506D01*
G03Y264512I195J-1497D01*
G01X408135Y264490D01*
Y260830D01*
X407942Y260823D01*
G03Y257806I58J-1509D01*
G01X408135Y257798D01*
Y253842D01*
X408060Y253782D01*
G03Y251424I943J-1178D01*
G01X408135Y251364D01*
Y246592D01*
X407073Y245530D01*
X383218D01*
X383174Y245673D01*
G03X380668I-1253J-380D01*
G01X380625Y245530D01*
X379526D01*
X379518Y245723D01*
G03X376902I-1309J-53D01*
G01X376894Y245530D01*
G37*
G36*
G01X154186Y64568D02*
X148692Y70062D01*
X148683Y70130D01*
G03X147376Y71438I-1498J-190D01*
G01X147308Y71446D01*
X144322Y74432D01*
Y76011D01*
X145851Y77540D01*
X146787D01*
X151374Y72953D01*
X159787D01*
G02X160158Y72397I0J-402D01*
G03X160113Y71362I1394J-579D01*
G02X159615Y70856I-383J-121D01*
G03X158248Y68225I-430J-1447D01*
G02X158352Y67719I-250J-315D01*
G03X160617Y68184I1328J-719D01*
G02X160513Y68690I250J315D01*
G03X160625Y69864I-1327J719D01*
G02X161123Y70370I383J121D01*
G03X162946Y72397I430J1447D01*
G02X163318Y72953I371J154D01*
G01X173717D01*
X176282Y70388D01*
Y66195D01*
X174687Y64600D01*
X174548Y64702D01*
G03X172666Y64618I-889J-1220D01*
G01X172609Y64568D01*
X154186D01*
G37*
G36*
G01X548000Y49000D02*
X543000Y54000D01*
X489000D01*
X488500Y54500D01*
Y104000D01*
X522500D01*
X525000Y106500D01*
Y134000D01*
X525500Y134500D01*
X589500D01*
Y49000D01*
X548000D01*
G37*
G36*
G01X533811Y138942D02*
X533713Y139040D01*
Y151362D01*
G02X534319Y151709I402J0D01*
G03Y154310I766J1301D01*
G02X533713Y154657I-204J346D01*
G01Y223343D01*
G02X534319Y223690I402J0D01*
G03Y226291I766J1301D01*
G02X533713Y226638I-204J346D01*
G01Y262640D01*
X539435D01*
X548510Y271715D01*
Y318473D01*
X550088Y320051D01*
X589500D01*
Y138942D01*
X533811D01*
G37*
G36*
G01X501877Y282911D02*
X498574Y286214D01*
Y370747D01*
X500827Y373000D01*
X544241D01*
Y346845D01*
X560175D01*
X561730Y345290D01*
Y323720D01*
X560758Y322748D01*
X544241D01*
Y285437D01*
X541715Y282911D01*
X501877D01*
G37*
%LPC*%
G75*
G36*
G01X210280Y330262D02*
G02X208188Y329919I-872J-1232D01*
G03X208095Y330484I-325J237D01*
G02X210187Y330827I872J1232D01*
G03X210280Y330262I325J-237D01*
G37*
G36*
G01X172027Y311972D02*
G02X170840Y313165I-1482J-287D01*
G03X171314Y313636I79J394D01*
G02X172501Y312442I1482J287D01*
G03X172027Y311972I-79J-394D01*
G37*
G36*
G01X76017Y306077D02*
G02X74429Y307497I-1507J-87D01*
G03X74808Y307922I-22J401D01*
G02X76397Y306502I1507J87D01*
G03X76017Y306077I22J-401D01*
G37*
G36*
G01X100048Y307233D02*
G02X98273Y306421I-408J-1453D01*
G03X98018Y306979I-364J171D01*
G02X99793Y307791I408J1453D01*
G03X100048Y307233I364J-171D01*
G37*
G36*
G01X62102Y304109D02*
G02X61533Y301887I667J-1354D01*
G03X61027Y302016I-329J-231D01*
G02X61595Y304238I-667J1354D01*
G03X62102Y304109I329J231D01*
G37*
G36*
G01X194879Y297376D02*
G02X193900Y296350I475J-1433D01*
G03X193387Y296840I-387J108D01*
G02X191404Y298198I-475J1433D01*
G03X191023Y298580I-402J-20D01*
G02X192605Y300162I75J1508D01*
G03X192987Y299781I402J20D01*
G02X194366Y297866I-75J-1508D01*
G03X194879Y297376I387J-108D01*
G37*
G36*
G01X156905Y291980D02*
G02X155396Y293457I-1509J-33D01*
G03X155798Y293868I0J402D01*
G02X157307Y292391I1509J33D01*
G03X156905Y291980I0J-402D01*
G37*
G36*
G01X53146Y286148D02*
G02X51474Y287595I-1509J-54D01*
G03X51832Y288009I-44J400D01*
G02X53504Y286562I1509J54D01*
G03X53146Y286148I44J-400D01*
G37*
G36*
G01X208657Y282274D02*
G02X207612Y283595I-1505J-117D01*
G03X208135Y284009I122J383D01*
G02X209181Y282688I1505J117D01*
G03X208657Y282274I-122J-383D01*
G37*
G36*
G01X65821Y283129D02*
G02X64200Y282024I-164J-1501D01*
G03X63856Y282528I-388J105D01*
G02X65477Y283634I164J1501D01*
G03X65821Y283129I388J-105D01*
G37*
G36*
G01X192497Y278449D02*
G02X191384Y279832I-1508J-75D01*
G03X191890Y280240I105J388D01*
G02X193003Y278857I1508J75D01*
G03X192497Y278449I-105J-388D01*
G37*
G36*
G01X100473Y277593D02*
G02X98677Y277496I-832J-1259D01*
G03X98642Y278141I-257J309D01*
G02X100438Y278238I832J1259D01*
G03X100473Y277593I257J-309D01*
G37*
G36*
G01X425134Y269898D02*
G02X423953Y268844I266J-1486D01*
G03X423497Y269354I-385J115D01*
G02X421744Y271102I-266J1486D01*
G03X421238Y271558I-396J70D01*
G02X422309Y272748I-416J1451D01*
G03X422815Y272291I396J-70D01*
G02X424677Y270409I415J-1451D01*
G03X425134Y269898I385J-115D01*
G37*
G36*
G01X161200Y264696D02*
G02X158204Y264366I-1488J-255D01*
G03X157822Y264747I-402J-20D01*
G02X159401Y266330I71J1508D01*
G03X159783Y265949I402J20D01*
G02X159879Y265941I-71J-1508D01*
G03X160092Y266204I22J200D01*
G02X161459Y268183I1434J471D01*
G03X161840Y268541I-18J402D01*
G02X163409Y266870I1501J-163D01*
G03X163027Y266512I18J-402D01*
G02X161582Y265166I-1501J163D01*
G03X161200Y264696I15J-402D01*
G37*
G36*
G01X107471Y264461D02*
G02X105841Y264465I-818J-1269D01*
G03X105842Y265141I-216J339D01*
G02X105612Y267496I818J1269D01*
G03X105612Y268075I-279J289D01*
G02X107707Y268076I1047J1087D01*
G03X107707Y267497I279J-289D01*
G02X107472Y265138I-1047J-1087D01*
G03X107471Y264461I216J-339D01*
G37*
G36*
G01X424515Y258461D02*
G02X422937Y257122I-78J-1508D01*
G03X422558Y257569I-399J45D01*
G02X421129Y259001I78J1508D01*
G03X420747Y259383I-402J-20D01*
G02X422330Y260966I75J1508D01*
G03X422711Y260584I402J20D01*
G02X424136Y258908I-75J-1508D01*
G03X424515Y258461I399J-45D01*
G37*
G36*
G01X205399Y255501D02*
G02X203872Y256714I-1480J-296D01*
G03X204253Y257195I-13J402D01*
G02X207127Y258071I1480J296D01*
G03X207698Y257877I371J155D01*
G02X207054Y255986I750J-1310D01*
G03X206483Y256180I-371J-155D01*
G02X205781Y255982I-750J1310D01*
G03X205399Y255501I13J-402D01*
G37*
G36*
G01X108286Y255898D02*
G02X106188Y255320I-770J-1298D01*
G03X106040Y255857I-353J192D01*
G02X108138Y256436I770J1298D01*
G03X108286Y255898I353J-192D01*
G37*
G36*
G01X483780Y255936D02*
G02X482737Y254754I444J-1443D01*
G03X482223Y255208I-396J70D01*
G02X483266Y256390I-444J1443D01*
G03X483780Y255936I396J-70D01*
G37*
G36*
G01X133398Y245075D02*
G02X131815Y246657I-1508J75D01*
G03X132196Y247039I-20J402D01*
G02X132215Y247213I1508J-74D01*
G03X132005Y247447I-198J33D01*
G02X133421Y248889I-92J1507D01*
G03X133798Y248471I402J-17D01*
G02X133779Y245456I-94J-1507D01*
G03X133398Y245075I20J-402D01*
G37*
G36*
G01X108089Y244413D02*
G02X106485Y245927I-1510J7D01*
G03X106862Y246326I-25J401D01*
G02X108908Y247730I1510J-7D01*
G03X109450Y248055I143J376D01*
G02X112394Y248294I1497J-191D01*
G03X113013Y248082I385J115D01*
G02X113843Y245344I877J-1229D01*
G03X113429Y244963I-12J-402D01*
G02X110646Y245847I-1508J76D01*
G03X110442Y246441I-340J215D01*
G02X110410Y246453I506J1422D01*
G03X109869Y246128I-143J-376D01*
G02X108465Y244812I-1497J191D01*
G03X108089Y244413I25J-401D01*
G37*
G36*
G01X155175Y243335D02*
G02X154067Y244903I-1505J111D01*
G03X154573Y245261I106J388D01*
G02X155682Y243693I1505J-111D01*
G03X155175Y243335I-106J-388D01*
G37*
G36*
G01X413003Y244836D02*
G02X411418Y243284I-76J-1508D01*
G03X411036Y243673I-402J-12D01*
G02X412621Y245226I76J1508D01*
G03X413003Y244836I402J12D01*
G37*
G36*
G01X185252Y241989D02*
G02X183320Y242934I-1432J-479D01*
G03X183568Y243441I-133J379D01*
G02X185500Y242496I1432J479D01*
G03X185252Y241989I133J-379D01*
G37*
G36*
G01X135610Y241530D02*
G02X134091Y243019I-1509J-20D01*
G03X134490Y243426I-3J402D01*
G02X136140Y244949I1509J20D01*
G03X136577Y245308I37J400D01*
G02X139579Y245313I1501J-158D01*
G03X139993Y244955I400J44D01*
G02X140094Y244955I55J-1509D01*
G03X140508Y245378I12J402D01*
G02X142068Y246964I1508J78D01*
G03X142482Y247407I14J402D01*
G02X145441Y247163I1502J152D01*
G03X145855Y246656I388J-105D01*
G02X147454Y245313I98J-1506D01*
G03X147868Y244955I400J44D01*
G02X147975I54J-1509D01*
G03X148389Y245313I14J402D01*
G02X149941Y246658I1501J-164D01*
G03X150355Y247017I14J402D01*
G02X151804Y245344I1501J-164D01*
G03X151390Y244986I-14J-402D01*
G02X149836Y243641I-1501J164D01*
G03X149422Y243283I-14J-402D01*
G02X146421I-1501J164D01*
G03X146007Y243641I-400J-44D01*
G02X144496Y245546I-54J1509D01*
G03X144082Y246052I-388J105D01*
G02X143932Y246050I-98J1506D01*
G03X143518Y245608I-14J-402D01*
G02X141969Y243947I-1502J-152D01*
G03X141555Y243524I-12J-402D01*
G02X138546Y243283I-1508J-78D01*
G03X138132Y243641I-400J-44D01*
G02X137938Y243647I-54J1509D01*
G03X137501Y243288I-37J-400D01*
G02X136010Y241937I-1501J158D01*
G03X135610Y241530I3J-402D01*
G37*
G36*
G01X388192Y237023D02*
G02X387768Y238404I-1256J369D01*
G03X388408Y238601I255J311D01*
G02X388833Y237221I1256J-369D01*
G03X388192Y237023I-255J-311D01*
G37*
G36*
G01X422293Y237154D02*
G02X420696Y238319I-1471J-340D01*
G03X421054Y238810I-34J401D01*
G02X422651Y237645I1471J340D01*
G03X422293Y237154I34J-401D01*
G37*
G36*
G01X197888Y231920D02*
G02X197026Y233775I-1438J460D01*
G03X197562Y234024I153J372D01*
G02X198424Y232169I1438J-460D01*
G03X197888Y231920I-153J-372D01*
G37*
G36*
G01X424031Y227691D02*
G02X422966Y229024I-1506J-111D01*
G03X423484Y229438I117J384D01*
G02X423480Y229536I1505J112D01*
G03X422962Y229918I-402J-3D01*
G02X421017Y231302I-436J1445D01*
G03X420659Y231685I-402J-16D01*
G02X422330Y233247I163J1501D01*
G03X422688Y232864I402J16D01*
G02X424035Y231376I-163J-1501D01*
G03X424553Y230994I402J3D01*
G02X424549Y228105I437J-1445D01*
G03X424031Y227691I-117J-384D01*
G37*
G36*
G01X131358Y228917D02*
G02X130520Y226871I532J-1413D01*
G03X130013Y227078I-365J-169D01*
G02X130851Y229124I-532J1413D01*
G03X131358Y228917I365J169D01*
G37*
G36*
G01X125019Y226026D02*
G02X123114I-952J-1171D01*
G03Y226650I-254J312D01*
G02X125019I952J1171D01*
G03Y226026I254J-312D01*
G37*
G36*
G01X115085Y224970D02*
G02X113316Y224660I-720J-1094D01*
G03X113183Y225256I-322J241D01*
G02X115008Y225576I707J1334D01*
G03X115085Y224970I298J-270D01*
G37*
G36*
G01X105958Y222430D02*
G02X105117Y223585I-1308J-69D01*
G03X105659Y224008I143J376D01*
G02X106527Y222817I1499J180D01*
G03X105958Y222430I-168J-365D01*
G37*
G36*
G01X427845Y220838D02*
G02Y223024I-1041J1093D01*
G03X428400I277J291D01*
G02Y220838I1041J-1093D01*
G03X427845I-277J-291D01*
G37*
G36*
G01X63838Y220731D02*
G02X61595I-1121J-1011D01*
G03Y221269I-299J269D01*
G02X61595Y223290I1121J1011D01*
G03Y223829I-299J269D01*
G02Y225849I1122J1010D01*
G03Y226388I-299J269D01*
G02X63838I1122J1010D01*
G03Y225849I299J-269D01*
G02Y223829I-1122J-1010D01*
G03Y223290I299J-269D01*
G02X63838Y221269I-1122J-1010D01*
G03Y220731I299J-269D01*
G37*
G36*
G01X465650Y215141D02*
G02Y217278I-1066J1069D01*
G03X465934I142J142D01*
G02Y215141I1066J-1069D01*
G03X465650I-142J-142D01*
G37*
G36*
G01X206582Y217023D02*
G02X204438I-1072J-1063D01*
G03Y217307I-143J142D01*
G02X206582I1071J1063D01*
G03Y217023I143J-142D01*
G37*
G36*
G01X157824Y216162D02*
G02X156184Y215932I-679J-1120D01*
G03X156098Y216549I-295J273D01*
G02X157738Y216778I679J1120D01*
G03X157824Y216162I295J-273D01*
G37*
G36*
G01X123555Y214035D02*
G02X120968Y214153I-1302J-138D01*
G03X120599Y214633I-394J79D01*
G02X121964Y215684I81J1307D01*
G03X122334Y215204I394J-79D01*
G02X122448Y215192I-82J-1307D01*
G03X122672Y215444I30J199D01*
G02X123950Y214480I1263J345D01*
G03X123555Y214035I5J-402D01*
G37*
G36*
G01X439956Y208787D02*
G02Y210394I-1278J803D01*
G03X440637I340J214D01*
G02Y208787I1278J-803D01*
G03X439956I-340J-214D01*
G37*
G36*
G01X472949Y208312D02*
G02X472948Y209708I-1339J698D01*
G03X473661Y209708I356J186D01*
G02X473662Y208312I1339J-698D01*
G03X472949Y208312I-356J-186D01*
G37*
G36*
G01X500421Y200072D02*
G02X498838Y201508I-1508J-72D01*
G03X499219Y201928I-20J401D01*
G02X499220Y202079I1508J72D01*
G03X498861Y202499I-401J21D01*
G02X500531Y203921I162J1501D01*
G03X500890Y203501I401J-21D01*
G02X500802Y200492I-162J-1501D01*
G03X500421Y200072I20J-401D01*
G37*
G36*
G01X488353Y197150D02*
G02X488272Y198633I-1353J670D01*
G03X488971Y198670I339J216D01*
G02X489052Y197187I1353J-670D01*
G03X488353Y197150I-339J-216D01*
G37*
G36*
G01X425834Y196757D02*
G02X425788Y198755I-1154J973D01*
G03X426391Y198769I295J273D01*
G02X426437Y196771I1154J-973D01*
G03X425834Y196757I-295J-273D01*
G37*
G36*
G01X259017Y195079D02*
G02X257435Y196508I-1508J-79D01*
G03X257816Y196930I-20J402D01*
G02X260380Y198088I1508J79D01*
G03X260943Y198088I281J287D01*
G02X260944Y195932I1057J-1078D01*
G03X260381Y195932I-281J-287D01*
G02X259398Y195502I-1057J1078D01*
G03X259017Y195079I20J-402D01*
G37*
G36*
G01X479543Y191434D02*
G02X478513Y190146I473J-1433D01*
G03X477987Y190566I-400J39D01*
G02X479017Y191854I-473J1433D01*
G03X479543Y191434I400J-39D01*
G37*
G36*
G01X69615Y188447D02*
G02X67365I-1125J-1007D01*
G03Y188983I-300J268D01*
G02X69615I1125J1007D01*
G03Y188447I300J-268D01*
G37*
G36*
G01X413428Y183516D02*
G02X412024Y181802I91J-1507D01*
G03X411601Y182148I-398J-55D01*
G02X413005Y183862I-91J1507D01*
G03X413428Y183516I398J55D01*
G37*
G36*
G01X274633Y182463D02*
G02X272405I-1114J-1019D01*
G03Y183006I-297J271D01*
G02X274633I1114J1019D01*
G03Y182463I297J-271D01*
G37*
G36*
G01X257885Y181753D02*
G02X256982Y180440I605J-1383D01*
G03X256419Y180828I-402J19D01*
G02X257322Y182140I-605J1383D01*
G03X257885Y181753I402J-19D01*
G37*
G36*
G01X498717Y176086D02*
G02X497053Y177501I-1507J-86D01*
G03X497413Y177924I-42J400D01*
G02X497934Y179153I1507J86D01*
G03X498007Y179679I-263J304D01*
G02X500253Y179367I1260J831D01*
G03X500180Y178841I263J-304D01*
G02X499077Y176509I-1260J-831D01*
G03X498717Y176086I42J-400D01*
G37*
G36*
G01X429513Y176250D02*
G02X426656Y175777I-1358J-659D01*
G03X426268Y176228I-399J49D01*
G02X425301Y178864I38J1509D01*
G03X425256Y179499I-268J300D01*
G02X424900Y181686I834J1258D01*
G03X424869Y182215I-317J247D01*
G02X426937Y184412I1077J1058D01*
G03X427535Y184492I264J303D01*
G02X427800Y182516I1256J-838D01*
G03X427202Y182435I-264J-303D01*
G02X427136Y182344I-1256J838D01*
G03X427167Y181815I317J-247D01*
G02X427095Y179630I-1077J-1058D01*
G03X427140Y178995I268J-300D01*
G02X427167Y178977I-834J-1258D01*
G03X427689Y179033I229J330D01*
G02X429646Y176757I1101J-1033D01*
G03X429513Y176250I228J-331D01*
G37*
G36*
G01X54813Y175929D02*
G02X52573Y175936I-1123J-1009D01*
G03X52575Y176475I-297J270D01*
G02X54814Y176468I1123J1009D01*
G03X54813Y175929I297J-270D01*
G37*
G36*
G01X242793Y169597D02*
G02X241301Y169621I-768J-1300D01*
G03X241312Y170320I-193J353D01*
G02X242804Y170295I768J1300D01*
G03X242793Y169597I193J-353D01*
G37*
G36*
G01X219553Y169102D02*
G02X219249Y167680I1142J-987D01*
G03X218560Y167827I-385J-116D01*
G02X218864Y169249I-1142J987D01*
G03X219553Y169102I385J116D01*
G37*
G36*
G01X181105Y166750D02*
G02X181103Y164948I950J-902D01*
G03X180520Y164948I-292J-276D01*
G02X180521Y166750I-950J902D01*
G03X181105Y166750I292J276D01*
G37*
G36*
G01X67519Y163476D02*
G02X66459Y164918I-1510J2D01*
G03X66980Y165302I120J384D01*
G02X68041Y163859I1510J-2D01*
G03X67519Y163476I-120J-384D01*
G37*
G36*
G01X482665Y162472D02*
G02X480173Y162133I-1358J658D01*
G03X479600Y162165I-302J-266D01*
G02X479717Y164278I-1016J1116D01*
G03X480290Y164246I302J266D01*
G02X481953Y164494I1016J-1116D01*
G03X482220Y164588I86J182D01*
G02X482931Y162566I1358J-658D01*
G03X482665Y162472I-86J-182D01*
G37*
G36*
G01X227573Y158679D02*
G02X225667Y159645I-1435J-468D01*
G03X225923Y160152I-126J382D01*
G02X227830Y159186I1435J468D01*
G03X227573Y158679I126J-382D01*
G37*
G36*
G01X414823Y157963D02*
G02X413399Y159507I-1509J37D01*
G03X413824Y159899I23J401D01*
G02X413827Y159956I1509J-37D01*
G03X413613Y160170I-201J13D01*
G02X415026Y161751I-95J1507D01*
G03X415408Y161369I402J20D01*
G02X415248Y158355I-75J-1508D01*
G03X414823Y157963I-23J-401D01*
G37*
G36*
G01X180434Y158213D02*
G02X180378Y156212I816J-1024D01*
G03X179860Y156227I-268J-300D01*
G02X179916Y158227I-816J1024D01*
G03X180434Y158213I268J300D01*
G37*
G36*
G01X206305Y158023D02*
G02X204714Y158024I-796J-1283D01*
G03X204714Y158707I-212J342D01*
G02X206305Y158707I796J1283D01*
G03X206305Y158023I212J-342D01*
G37*
G36*
G01X65417Y154251D02*
G02X63174I-1122J-1010D01*
G03Y154789I-299J269D01*
G02X63136Y156766I1122J1010D01*
G03X63115Y157304I-309J258D01*
G02X65354Y157392I1080J1055D01*
G03X65376Y156854I309J-258D01*
G02X65417Y154789I-1080J-1055D01*
G03Y154251I299J-269D01*
G37*
G36*
G01X339169Y153404D02*
G02X337795Y153349I-643J-1141D01*
G03X337768Y154033I-224J334D01*
G02X339142Y154088I643J1141D01*
G03X339169Y153404I224J-334D01*
G37*
G36*
G01X181594Y151428D02*
G02X179781Y152047I-1195J-535D01*
G03X179958Y152566I-190J354D01*
G02X181771Y151946I1195J535D01*
G03X181594Y151428I190J-354D01*
G37*
G36*
G01X96849Y150682D02*
G02X94850Y150582I-957J-894D01*
G03X94824Y151100I-320J244D01*
G02X96823Y151200I957J894D01*
G03X96849Y150682I320J-244D01*
G37*
G36*
G01X354993Y148781D02*
G02X353159Y149306I-1239J-863D01*
G03X353352Y149871I-159J369D01*
G02X355128Y149363I1143J638D01*
G03X354993Y148781I194J-352D01*
G37*
G36*
G01X248297Y146934D02*
G02X246715Y148517I-1508J75D01*
G03X247096Y148899I-20J402D01*
G02X247100Y148957I1508J-73D01*
G03X246853Y149170I-200J18D01*
G02X248008Y150707I-353J1468D01*
G03X248450Y150326I402J18D01*
G02X248624Y150333I154J-1502D01*
G03X249029Y150692I5J402D01*
G02X250509Y149018I1501J-164D01*
G03X250104Y148659I-5J-402D01*
G02X248679Y147316I-1501J164D01*
G03X248297Y146934I20J-402D01*
G37*
G36*
G01X346687Y145367D02*
G02Y147526I-1055J1079D01*
G03X347249I281J287D01*
G02Y145367I1055J-1080D01*
G03X346687I-281J-287D01*
G37*
G36*
G01X306917Y145953D02*
G02X303986Y146559I-1426J494D01*
G03X303581Y146990I-401J30D01*
G02X305075Y148388I-12J1510D01*
G03X305479Y147956I401J-30D01*
G02X305967Y147879I12J-1510D01*
G03X306473Y148129I127J382D01*
G02X307424Y146203I1427J-494D01*
G03X306917Y145953I-127J-382D01*
G37*
G36*
G01X179791Y143649D02*
G02X179693Y145646I-894J957D01*
G03X180212Y145671I244J319D01*
G02X180310Y143674I894J-957D01*
G03X179791Y143649I-244J-319D01*
G37*
G36*
G01X190423Y143366D02*
G02Y144722I-1349J678D01*
G03X191142I359J181D01*
G02Y143366I1349J-678D01*
G03X190423I-359J-181D01*
G37*
G36*
G01X63771Y144011D02*
G02X61529I-1121J-1011D01*
G03Y144549I-299J269D01*
G02X63771I1121J1011D01*
G03Y144011I299J-269D01*
G37*
G36*
G01X492111Y141271D02*
G02X489869Y141270I-1121J-1011D01*
G03X489869Y141809I-299J269D01*
G02X492111Y141809I1121J1011D01*
G03X492111Y141271I299J-269D01*
G37*
G36*
G01X36834Y140126D02*
G02X36385Y138598I1006J-1126D01*
G03X35730Y138791I-387J-107D01*
G02X36179Y140319I-1006J1126D01*
G03X36834Y140126I387J107D01*
G37*
G36*
G01X307530Y137692D02*
G02X304945Y137650I-1305J759D01*
G03X304432Y137801I-341J-213D01*
G02X302722Y138099I-643J1366D01*
G03X302437Y138098I-142J-142D01*
G02X302431Y140228I-1073J1062D01*
G03X302716Y140229I142J142D01*
G02X305070Y139967I1073J-1062D01*
G03X305582Y139816I341J213D01*
G02X306973Y139762I643J-1366D01*
G03X307246Y139835I100J175D01*
G02X307803Y137765I1305J-759D01*
G03X307530Y137692I-100J-175D01*
G37*
G36*
G01X259539Y139044D02*
G02X257395Y139082I-1091J-1044D01*
G03X257400Y139365I-140J144D01*
G02X259544Y139327I1091J1044D01*
G03X259539Y139044I140J-144D01*
G37*
G36*
G01X273191Y139427D02*
G02X271267Y138480I-492J-1427D01*
G03X271017Y138988I-381J128D01*
G02X272941Y139935I492J1427D01*
G03X273191Y139427I381J-128D01*
G37*
G36*
G01X180943Y132544D02*
G02X179914Y130828I210J-1293D01*
G03X179470Y131094I-380J-130D01*
G02X180498Y132811I-210J1293D01*
G03X180943Y132544I380J130D01*
G37*
G36*
G01X355203Y130879D02*
G02X353249Y130625I-830J-1261D01*
G03X353170Y131229I-300J268D01*
G02X355125Y131483I830J1261D01*
G03X355203Y130879I300J-268D01*
G37*
G36*
G01X139489Y130502D02*
G02X138039Y129761I-258J-1284D01*
G03X137753Y130322I-366J167D01*
G02X139202Y131063I258J1284D01*
G03X139489Y130502I366J-167D01*
G37*
G36*
G01X145035Y130076D02*
G02X143468Y130076I-784J-1049D01*
G03X143468Y130720I-240J322D01*
G02X145036Y130720I784J1049D01*
G03X145035Y130076I240J-322D01*
G37*
G36*
G01X132475Y129936D02*
G02X130642Y129987I-942J-910D01*
G03X130658Y130561I-273J295D01*
G02X132490Y130510I942J910D01*
G03X132475Y129936I273J-295D01*
G37*
G36*
G01X298551Y125090D02*
G02X298476Y126982I-1212J899D01*
G03X299102Y127008I303J264D01*
G02X299318Y127242I1212J-900D01*
G03X299274Y127880I-265J302D01*
G02X301102Y128006I832J1260D01*
G03X301146Y127368I265J-302D01*
G02X301431Y127124I-832J-1260D01*
G03X301714Y127110I149J135D01*
G02X301609Y124974I1012J-1120D01*
G03X301326Y124988I-149J-135D01*
G02X299177Y125115I-1012J1120D01*
G03X298551Y125090I-303J-264D01*
G37*
G36*
G01X350047Y123269D02*
G02X348611Y121686I73J-1508D01*
G03X348190Y122067I-401J-20D01*
G02X349626Y123650I-73J1508D01*
G03X350047Y123269I401J20D01*
G37*
G36*
G01X273438Y121208D02*
G02X271388Y120485I-676J-1350D01*
G03X271202Y121011I-366J167D01*
G02X273252Y121734I676J1350D01*
G03X273438Y121208I366J-167D01*
G37*
G36*
G01X297655Y110339D02*
G02X297123Y108101I685J-1345D01*
G03X296616Y108221I-324J-238D01*
G02X297148Y110459I-685J1345D01*
G03X297655Y110339I324J238D01*
G37*
G36*
G01X289023Y107753D02*
G02X288553Y109574I-1378J615D01*
G03X289162Y109731I242J321D01*
G02X289632Y107910I1378J-615D01*
G03X289023Y107753I-242J-321D01*
G37*
G36*
G01X162072Y106145D02*
G02X159928I-1072J-1063D01*
G03Y106428I-143J142D01*
G02X162072I1072J1063D01*
G03Y106145I143J-141D01*
G37*
G36*
G01X189990Y105743D02*
G02X188010I-990J-1140D01*
G03Y106350I-264J303D01*
G02X189990I990J1140D01*
G03Y105743I264J-303D01*
G37*
G36*
G01X133834Y105549D02*
G02X132209Y105531I-799J-1281D01*
G03X132202Y106209I-220J336D01*
G02X133827Y106227I799J1281D01*
G03X133834Y105549I220J-336D01*
G37*
G36*
G01X313356Y105049D02*
G02X311261Y105367I-1209J-904D01*
G03X311304Y105650I-118J163D01*
G02X313399Y105332I1209J904D01*
G03X313356Y105049I118J-163D01*
G37*
G36*
G01X391351Y101673D02*
G02X391215Y103808I-1131J1000D01*
G03X391498Y103827I132J151D01*
G02X391634Y101691I1131J-1000D01*
G03X391351Y101673I-132J-151D01*
G37*
G36*
G01X442293Y101853D02*
G02X440819Y101158I-195J-1497D01*
G03X440531Y101770I-341J214D01*
G02X439446Y104068I195J1497D01*
G03X439285Y104640I-341J213D01*
G02X441240Y105190I675J1350D01*
G03X441401Y104617I341J-213D01*
G02X442005Y102465I-675J-1350D01*
G03X442293Y101853I341J-214D01*
G37*
G36*
G01X202990Y98370D02*
G02X201660Y97351I100J-1506D01*
G03X201253Y97882I-380J130D01*
G02X202583Y98901I-100J1506D01*
G03X202990Y98370I380J-130D01*
G37*
G36*
G01X215712Y96110D02*
G02X214270Y97563I-1509J-55D01*
G03X214690Y97980I18J402D01*
G02X214692Y98129I1509J55D01*
G03X214478Y98342I-201J13D01*
G02X215891Y99924I-95J1507D01*
G03X216273Y99542I402J20D01*
G02X216132Y96526I-75J-1508D01*
G03X215712Y96110I-18J-402D01*
G37*
G36*
G01X149260Y93175D02*
G02X147695Y94285I-1457J-396D01*
G03X148055Y94791I-29J401D01*
G02X148004Y95113I1457J396D01*
G03X147622Y95494I-402J-20D01*
G02X149204Y97077I75J1508D01*
G03X149586Y96695I402J20D01*
G02X149619Y93682I-75J-1508D01*
G03X149260Y93175I29J-401D01*
G37*
G36*
G01X396211Y90119D02*
G02X396101Y88097I1063J-1072D01*
G03X395506Y88129I-312J-253D01*
G02X395616Y90152I-1063J1072D01*
G03X396211Y90119I312J253D01*
G37*
G36*
G01X410954Y89161D02*
G02X408954Y89098I-965J-1161D01*
G03X408936Y89700I-276J293D01*
G02X410936Y89763I965J1161D01*
G03X410954Y89161I276J-293D01*
G37*
G36*
G01X174138Y85908D02*
G02X171994I-1072J-1063D01*
G03Y86191I-143J141D01*
G02X174138I1072J1063D01*
G03Y85908I143J-141D01*
G37*
G36*
G01X382822Y83333D02*
G02X381926Y84659I-1509J-53D01*
G03X382491Y85040I163J367D01*
G02X383387Y83714I1509J53D01*
G03X382822Y83333I-163J-367D01*
G37*
G36*
G01X442991Y83747D02*
G02X440921Y84486I-1383J-605D01*
G03X441107Y85005I-183J358D01*
G02X443177Y84266I1383J605D01*
G03X442991Y83747I183J-358D01*
G37*
G36*
G01X299230Y82032D02*
G02X297694Y83266I-1484J-274D01*
G03X298076Y83741I-14J402D01*
G02X299612Y82506I1484J274D01*
G03X299230Y82032I14J-402D01*
G37*
G36*
G01X426324Y81095D02*
G02X424156Y81860I-1410J-540D01*
G03X424329Y82351I-202J348D01*
G02X426498Y81586I1410J540D01*
G03X426324Y81095I202J-348D01*
G37*
G36*
G01X223581Y77820D02*
G02X221437I-1072J-1063D01*
G03Y78104I-143J141D01*
G02X223581I1072J1063D01*
G03Y77820I143J-142D01*
G37*
G36*
G01X203396Y74518D02*
G02X201976Y73384I42J-1509D01*
G03X201444Y73859I-389J100D01*
G02X203050Y75142I-1194J3141D01*
G03X203396Y74518I335J-222D01*
G37*
G36*
G01X384424Y69958D02*
G02X383090Y69714I-424J-1449D01*
G03X382960Y70420I-242J321D01*
G02X384294Y70665I424J1449D01*
G03X384424Y69958I242J-321D01*
G37*
G36*
G01X419307Y68074D02*
G02X418023Y69473I-1507J-94D01*
G03X418483Y69896I59J398D01*
G02X419767Y68497I1507J94D01*
G03X419307Y68074I-59J-398D01*
G37*
G36*
G01X360170Y69063D02*
G02X358114Y67243I822J-3000D01*
G03X357831Y67787I-372J152D01*
G02X359664Y69410I331J1473D01*
G03X360170Y69063I400J40D01*
G37*
G36*
G01X432882Y63133D02*
G02X431099Y63133I-891J-1218D01*
G03X431099Y63782I-237J324D01*
G02X432882Y63782I891J1218D01*
G03X432882Y63133I237J-324D01*
G37*
G36*
G01X29794Y59392D02*
X9392D01*
Y106098D01*
X10395Y107101D01*
X27984D01*
X28013Y107268D01*
G02X30987I1487J-258D01*
G01X31016Y107101D01*
X45645D01*
G03X46033Y107608I0J402D01*
G02X48948I1458J392D01*
G03X49336Y107101I388J-104D01*
G01X78748D01*
X86708Y115061D01*
X93316D01*
X108775Y130520D01*
G03X108753Y131109I-284J284D01*
G02X110599Y132956I853J994D01*
G03X111189Y132934I305J262D01*
G01X111874Y133619D01*
G03X111864Y134198I-284J284D01*
G02X113533Y136211I892J959D01*
G01X113672Y136108D01*
X115002Y137438D01*
X114899Y137577D01*
G02X116730Y139408I1054J777D01*
G01X116870Y139305D01*
X118709Y141145D01*
X120495D01*
G03X120896Y141526I0J402D01*
G02X123512I1308J-70D01*
G03X123913Y141145I402J21D01*
G01X126794D01*
G03X127196Y141526I0J402D01*
G02X129226Y142548I1308J-70D01*
G01X129363Y142458D01*
X130651Y143746D01*
X130561Y143883D01*
G02X132051Y145853I1092J722D01*
G03X132575Y146236I122J383D01*
G01Y147711D01*
X131367Y148919D01*
X130088D01*
G03X129732Y148331I0J-402D01*
G02X127409I-1161J-605D01*
G03X127052Y148919I-357J186D01*
G01X123836D01*
G03X123466Y148360I0J-402D01*
G02X121054I-1206J-510D01*
G03X120684Y148919I-370J157D01*
G01X114657D01*
X110617Y152959D01*
Y154939D01*
X111910Y156232D01*
X111793Y156373D01*
G02X113637Y158217I1007J837D01*
G01X113778Y158100D01*
X114972Y159294D01*
X116411D01*
X116965Y159848D01*
Y161026D01*
X115787Y162205D01*
X115721Y162214D01*
G02X114614Y163321I189J1296D01*
G01X114605Y163386D01*
X114347Y163644D01*
X114154Y163452D01*
X114147Y163381D01*
G02X113167Y164783I-1303J133D01*
G03X113668Y165173I99J390D01*
G01Y167776D01*
X114762Y168870D01*
X116340D01*
X116930Y169460D01*
Y171374D01*
X116460Y171845D01*
X116340Y171803D01*
G02X114673Y173470I-430J1237D01*
G01X114715Y173590D01*
X113739Y174565D01*
Y180877D01*
G03X113199Y181255I-402J0D01*
G02Y183717I-447J1231D01*
G03X113739Y184095I137J378D01*
G01Y200473D01*
X114252D01*
G03X114641Y200975I0J402D01*
G02X117179I1269J325D01*
G03X117568Y200473I389J-100D01*
G01X119020D01*
X120584Y198909D01*
G03X121202Y198969I284J284D01*
G02X123546Y197868I1088J-729D01*
G03X123931Y197351I385J-114D01*
G01X126845D01*
G03X127236Y197846I0J402D01*
G02X129784I1274J304D01*
G03X130175Y197351I391J-93D01*
G01X130488D01*
Y197597D01*
X130469Y197638D01*
G02X132918Y197857I1184J559D01*
G03X133306Y197351I388J-104D01*
G01X136295D01*
G03X136686Y197846I0J402D01*
G02X139234I1274J304D01*
G03X139625Y197351I391J-93D01*
G01X139924D01*
Y197594D01*
X139907Y197632D01*
G02X142384Y197846I1203J518D01*
G03X142775Y197351I391J-93D01*
G01X148949D01*
G03X149334Y197868I0J402D01*
G02X151846I1255J373D01*
G03X152231Y197351I385J-114D01*
G01X155200D01*
G03X155589Y197857I0J402D01*
G02X158118I1265J340D01*
G03X158507Y197351I388J-104D01*
G01X158887D01*
Y197597D01*
X158868Y197638D01*
G02X161317Y197857I1184J559D01*
G03X161705Y197351I388J-104D01*
G01X162079D01*
Y197603D01*
X162055Y197647D01*
G02X162695Y197062I1154J620D01*
G03X162135Y196693I-158J-370D01*
G01Y190302D01*
G03X162711Y189939I402J0D01*
G02Y187577I565J-1181D01*
G03X162135Y187214I-174J-363D01*
G01Y184054D01*
G03X162685Y183680I402J0D01*
G02Y181244I482J-1218D01*
G03X162135Y180870I-148J-374D01*
G01Y180360D01*
X162393D01*
X162441Y180390D01*
G02X162676Y178044I685J-1116D01*
G03X162135Y177667I-138J-377D01*
G01Y174638D01*
G03X162685Y174264I402J0D01*
G02Y171828I482J-1218D01*
G03X162135Y171455I-148J-374D01*
G01Y168212D01*
G03X162703Y167846I402J0D01*
G02Y165460I541J-1192D01*
G03X162135Y165094I-166J-366D01*
G01Y165062D01*
G03X162703Y164696I402J0D01*
G02Y162311I541J-1192D01*
G03X162135Y161945I-166J-366D01*
G01Y158904D01*
G03X162683Y158529I402J0D01*
G02X164103Y156403I475J-1221D01*
G03X164110Y155840I290J-278D01*
G01X165362Y154588D01*
Y149907D01*
X164189Y148734D01*
X164293Y148594D01*
G02X162460Y146761I-1049J-784D01*
G01X162320Y146865D01*
X161012Y145557D01*
X161121Y145417D01*
G02X159104Y145471I-1032J-807D01*
G03X159085Y146020I-303J264D01*
G01X158314Y146792D01*
G03X157753Y146800I-284J-284D01*
G02X156583Y146470I-899J952D01*
G03X156098Y146077I-83J-393D01*
G01Y143227D01*
G03X156582Y142834I402J0D01*
G02Y140270I267J-1282D01*
G03X156098Y139876I-82J-393D01*
G01Y139471D01*
X156344D01*
X156385Y139490D01*
G02X156605Y137042I560J-1184D01*
G03X156098Y136654I-105J-388D01*
G01Y136363D01*
X156337D01*
X156372Y136376D01*
G02X156582Y133875I477J-1220D01*
G03X156098Y133481I-82J-393D01*
G01Y131614D01*
G03X156562Y131217I402J0D01*
G02Y128629I201J-1294D01*
G03X156098Y128232I-62J-397D01*
G01Y126315D01*
X146533Y116750D01*
X139651D01*
X137009Y119392D01*
Y121092D01*
X138637Y122720D01*
G03X138628Y123297I-284J284D01*
G02X140833Y124189I897J954D01*
G03X141235Y123768I402J-19D01*
G01X144936D01*
X147273Y126105D01*
Y130171D01*
X147128Y130214D01*
G02Y132727I368J1257D01*
G01X147273Y132770D01*
Y137007D01*
X147128Y137050D01*
G02Y139563I368J1257D01*
G01X147273Y139606D01*
Y140143D01*
X147116Y140178D01*
G02Y142734I285J1278D01*
G01X147273Y142769D01*
Y143598D01*
X147749D01*
X148143Y143992D01*
Y145361D01*
X147767Y145737D01*
X147273D01*
Y146446D01*
X147127Y146488D01*
G02X146318Y148336I361J1259D01*
G03X145960Y148919I-359J181D01*
G01X142206D01*
Y142198D01*
X142237Y142150D01*
G02Y140763I-1111J-693D01*
G01X142206Y140714D01*
Y139671D01*
X141899Y139364D01*
X142038Y139222D01*
G02X140186Y137370I-936J-916D01*
G01X140044Y137509D01*
X138400Y135865D01*
X136487D01*
G03X136091Y135391I0J-402D01*
G02X133514I-1288J-234D01*
G03X133119Y135865I-396J72D01*
G01X132875D01*
Y135629D01*
X132887Y135596D01*
G02X130419I-1234J-439D01*
G01X130431Y135629D01*
Y135865D01*
X130042D01*
X126843Y132666D01*
Y131818D01*
X126200Y131175D01*
G03X126190Y130616I284J-284D01*
G02X124340Y128765I-956J-895D01*
G03X123780Y128756I-275J-293D01*
G01X109822Y114797D01*
X104091D01*
X102962Y113668D01*
Y107087D01*
X92203Y96328D01*
X81932D01*
X81825Y96435D01*
X50597D01*
X39703Y85541D01*
Y69301D01*
X29794Y59392D01*
G37*
G36*
G01X186194Y55507D02*
G02X184685Y54625I-134J-1504D01*
G03X184354Y55191I-366J166D01*
G02X185864Y56073I134J1504D01*
G03X186194Y55507I366J-166D01*
G37*
G36*
G01X161316Y52263D02*
G02X159664Y52264I-826J-1263D01*
G03X159664Y52936I-220J336D01*
G02X161317Y52936I826J1263D01*
G03X161316Y52263I220J-336D01*
G37*
G36*
G01X229738Y45312D02*
G02X227284Y47050I-1148J980D01*
G03X227192Y47561I-348J202D01*
G02X229376Y47834I963J1162D01*
G03X229427Y47549I163J-118D01*
G02X229473Y47516I-835J-1258D01*
G03X229756Y47565I118J163D01*
G02X231408Y48160I1242J-858D01*
G03X231917Y48592I109J387D01*
G02X233084Y46493I3091J345D01*
G03X232449Y46289I-249J-316D01*
G02X230244Y45400I-1450J419D01*
G03X229738Y45312I-201J-348D01*
G37*
G36*
G01X202660Y42422D02*
G02X201077Y44004I-1508J75D01*
G03X201459Y44386I-20J402D01*
G02X203042Y42804I1508J-75D01*
G03X202660Y42422I20J-402D01*
G37*
G36*
G01X149801Y34177D02*
G02X148199I-801J-1280D01*
G03Y34858I-213J341D01*
G02X149801I801J1280D01*
G03Y34177I213J-341D01*
G37*
G36*
G01X103359Y31852D02*
G02X103097Y33547I-1359J658D01*
G03X103751Y33648I292J276D01*
G02X104013Y31953I1359J-658D01*
G03X103359Y31852I-292J-276D01*
G37*
G36*
G01X247444Y30426D02*
G02Y32390I-1146J982D01*
G03X248054I305J262D01*
G02Y30426I1146J-982D01*
G03X247444I-305J-262D01*
G37*
G36*
G01X164935Y31177D02*
G02X163053Y31184I-945J-1177D01*
G03X163055Y31812I-250J315D01*
G02X164937Y31806I945J1177D01*
G03X164935Y31177I250J-315D01*
G37*
G36*
G01X216231Y31103D02*
G02X214697Y29429I-33J-1509D01*
G03X214306Y29788I-400J-44D01*
G02X215840Y31461I33J1509D01*
G03X216231Y31103I400J44D01*
G37*
G36*
G01X93797Y24350D02*
G02X92229Y25459I-1457J-397D01*
G03X92587Y25965I-30J401D01*
G02X93967Y27870I1457J397D01*
G03X94349Y28284I-20J401D01*
G02X95934Y26823I1509J47D01*
G03X95552Y26409I20J-401D01*
G02X94155Y24857I-1509J-47D01*
G03X93797Y24350I30J-401D01*
G37*
G36*
G01X415020Y21601D02*
G02X413954Y23054I-1510J10D01*
G03X414475Y23435I118J384D01*
G02X415540Y21983I1510J-10D01*
G03X415020Y21601I-118J-384D01*
G37*
G36*
G01X241039Y22031D02*
G02X239733Y22947I-1389J-591D01*
G03X240125Y23506I22J401D01*
G02X240068Y24532I1389J591D01*
G03X239675Y25050I-385J116D01*
G02X241089Y26124I-32J1509D01*
G03X241482Y25607I385J-116D01*
G02X241431Y22590I32J-1509D01*
G03X241039Y22031I-22J-401D01*
G37*
G36*
G01X133963Y21651D02*
G02X132633Y19996I172J-1500D01*
G03X132188Y20355I-400J-41D01*
G02X133517Y22009I-172J1500D01*
G03X133963Y21651I400J41D01*
G37*
G36*
G01X119513Y21493D02*
G02X118755Y19729I691J-1342D01*
G03X118185Y19974I-386J-112D01*
G02X118943Y21738I-691J1342D01*
G03X119513Y21493I386J112D01*
G37*
G36*
G01X323975Y20198D02*
G02X322464I-756J-1307D01*
G03Y20894I-201J348D01*
G02X323975I756J1307D01*
G03Y20198I201J-348D01*
G37*
G36*
G01X191899Y10514D02*
G02X190743Y12016I-1509J35D01*
G03X191239Y12398I94J391D01*
G02X192395Y10895I1509J-35D01*
G03X191899Y10514I-94J-391D01*
G37*
G36*
G01X364422Y6903D02*
G02X363012Y7784I-1372J-629D01*
G03X363295Y8461I-10J402D01*
G02X365911Y14709I2705J2539D01*
G03X366266Y15280I-10J402D01*
G02X368352Y14586I1370J634D01*
G03X368294Y13916I191J-354D01*
G02X364906Y7455I-2294J-2916D01*
G03X364422Y6903I-119J-384D01*
G37*
G36*
G01X389003Y6257D02*
G02X387017I-993J-1137D01*
G03Y6863I-264J303D01*
G02X389003I993J1137D01*
G03Y6257I264J-303D01*
G37*
G36*
G01X395923Y6116D02*
G02X394096I-914J-1202D01*
G03Y6756I-243J320D01*
G02X395923I914J1202D01*
G03Y6116I243J-320D01*
G37*
G36*
G01X444574Y5597D02*
G02X444573Y3384I1026J-1107D01*
G03X444026Y3384I-273J-295D01*
G02X444027Y5597I-1026J1107D01*
G03X444574Y5597I273J295D01*
G37*
G36*
G01X179245Y-109D02*
G02X177574Y1460I-1508J68D01*
G03X177932Y1841I-43J400D01*
G02X179603Y272I1508J-68D01*
G03X179245Y-109I43J-400D01*
G37*
G36*
G01X519397Y-405D02*
G02X517397Y380I-1388J-595D01*
G03X517603Y905I-163J367D01*
G02X519603Y120I1388J595D01*
G03X519397Y-405I163J-367D01*
G37*
G36*
G01X438901Y-867D02*
G02X437118I-892J-1218D01*
G03Y-218I-237J324D01*
G02X438901I892J1218D01*
G03Y-867I237J-324D01*
G37*
G36*
G01X207438Y-3579D02*
G02X205179Y-4057I-928J-1191D01*
G03X205072Y-3551I-354J190D01*
G02X207331Y-3073I928J1191D01*
G03X207438Y-3579I354J-190D01*
G37*
G36*
G01X121847Y-6470D02*
G02X120073Y-7673I-291J-1481D01*
G03X119914Y-7439I-198J37D01*
G02X121688Y-6235I291J1481D01*
G03X121847Y-6470I198J-37D01*
G37*
G36*
G01X238161Y-6886D02*
G02X236038Y-6887I-1061J-1074D01*
G03X236038Y-6601I-141J143D01*
G02X238161Y-6600I1061J1074D01*
G03X238161Y-6886I141J-143D01*
G37*
G36*
G01X439244Y-9954D02*
G02X439193Y-8148I-1234J869D01*
G03X439837Y-8131I315J249D01*
G02X439887Y-9936I1234J-869D01*
G03X439244Y-9954I-315J-249D01*
G37*
G36*
G01X304821Y-9122D02*
G02X303269Y-7839I-1493J-225D01*
G03X303650Y-7378I-16J402D01*
G02X305203Y-8661I1493J225D01*
G03X304821Y-9122I16J-402D01*
G37*
G36*
G01X201563Y-15754D02*
G02X199509Y-16583I-643J-1366D01*
G03X199304Y-16076I-376J143D01*
G02X198440Y-14787I643J1366D01*
G03X198025Y-14405I-401J-20D01*
G02X199485Y-12820I-48J1509D01*
G03X199899Y-13202I401J20D01*
G02X201358Y-15247I48J-1509D01*
G03X201563Y-15754I376J-143D01*
G37*
G36*
G01X286455Y-18300D02*
G02X284913Y-16714I-1508J76D01*
G03X285305Y-16332I-9J402D01*
G02X286847Y-17918I1508J-76D01*
G03X286455Y-18300I9J-402D01*
G37*
G36*
G01X308734Y-18266D02*
G02X306934I-900J-1212D01*
G03Y-17621I-240J323D01*
G02X308734I900J1212D01*
G03Y-18266I240J-323D01*
G37*
G36*
G01X253973Y-22222D02*
G02X253967Y-20488I-1239J862D01*
G03X254625Y-20486I328J232D01*
G02X256822Y-20181I1239J-862D01*
G03X257403Y-20105I255J311D01*
G02X257672Y-22152I1226J-880D01*
G03X257090Y-22228I-255J-311D01*
G02X254631Y-22220I-1226J880D01*
G03X253973Y-22222I-328J-232D01*
G37*
G36*
G01X164707Y-22244D02*
G02X164641Y-24386I1030J-1104D01*
G03X164358Y-24377I-146J-138D01*
G02X164424Y-22235I-1030J1104D01*
G03X164707Y-22244I146J138D01*
G37*
G36*
G01X131166Y-33055D02*
G02X130441Y-30165I-3817J579D01*
G03X131046Y-30210I322J241D01*
G02X131678Y-32730I1062J-1073D01*
G03X131166Y-33055I-115J-385D01*
G37*
G36*
G01X281624Y-33847D02*
G02X280623Y-35547I485J-1430D01*
G03X279956Y-35323I-395J-72D01*
G02X278390Y-28759I-2607J2847D01*
G03X278876Y-28234I108J387D01*
G02X280464Y-29217I1418J517D01*
G03X280211Y-29886I45J-399D01*
G02X281104Y-33373I-2862J-2590D01*
G03X281624Y-33847I391J-93D01*
G37*
G36*
G01X285914Y-43957D02*
G02X285856Y-40862I-3565J1481D01*
G03X286407Y-41050I365J168D01*
G02X288104Y-41252I701J-1337D01*
G03X288745Y-41094I265J302D01*
G02X288700Y-43734I3604J-1382D01*
G03X288065Y-43554I-380J-131D01*
G02X286458Y-43749I-956J1168D01*
G03X285914Y-43957I-173J-363D01*
G37*
G36*
G01X358670Y-48849D02*
G02X356028I-1321J-3627D01*
G03X356197Y-48211I-138J378D01*
G02X358501I1152J976D01*
G03X358670Y-48849I307J-260D01*
G37*
G36*
G01X311055Y-51395D02*
G02X309786Y-49482I-3706J-1081D01*
G03X310438Y-49226I254J312D01*
G02X311544Y-50894I1495J-209D01*
G03X311055Y-51395I-104J-388D01*
G37*
G36*
G01X251104Y-51579D02*
G02X249956Y-49629I-3755J-897D01*
G03X250623Y-49405I272J296D01*
G02X251624Y-51105I1485J-271D01*
G03X251104Y-51579I-129J-381D01*
G37*
G36*
G01X220211Y-55067D02*
G02X221209Y-52448I-2862J2591D01*
G03X221716Y-52833I402J3D01*
G02X220845Y-55117I393J-1458D01*
G03X220211Y-55067I-336J-220D01*
G37*
G36*
G01X203601Y-55051D02*
G02X202934Y-53562I-1493J224D01*
G03X203549Y-53155I220J337D01*
G02X204315Y-54862I3800J679D01*
G03X203601Y-55051I-316J-249D01*
G37*
G36*
G01X174220Y-50215D02*
G02X173492Y-52318I3129J-2261D01*
G03X172884Y-51957I-402J16D01*
G02X173519Y-50123I-776J1295D01*
G03X174220Y-50215I376J143D01*
G37*
G36*
G01X131175Y-51963D02*
G02X129294Y-49142I-3826J-513D01*
G03X129887Y-48698I203J347D01*
G02X137886Y-43366I4962J1222D01*
G03X138523Y-42989I239J323D01*
G02X140404Y-45810I3826J513D01*
G03X139811Y-46254I-203J-347D01*
G02X131812Y-51586I-4962J-1222D01*
G03X131175Y-51963I-239J-323D01*
G37*
G36*
G01X276181Y-62011D02*
G02X275048Y-59716I-3832J-465D01*
G03X275703Y-59575I281J287D01*
G02X278601Y-59901I1406J-551D01*
G03X279315Y-60090I398J60D01*
G02X278549Y-61797I3034J-2386D01*
G03X277934Y-61390I-396J71D01*
G02X276691Y-61576I-825J1264D01*
G03X276181Y-62011I-111J-386D01*
G37*
G36*
G01X175906Y-65144D02*
G02X174210Y-66514I-192J-1497D01*
G03X173672Y-66102I-401J34D01*
G02X175617Y-64531I-1323J3626D01*
G03X175906Y-65144I340J-214D01*
G37*
G36*
G01X223567Y-66602D02*
G02X220870Y-66516I-1370J-633D01*
G03X220689Y-65961I-353J192D01*
G02X223782Y-66060I1660J3485D01*
G03X223567Y-66602I149J-373D01*
G37*
G36*
G01X29772Y204831D02*
G02X27690Y205625I-1404J-555D01*
G03X27884Y206132I-180J359D01*
G02X29965Y205338I1404J555D01*
G03X29772Y204831I180J-359D01*
G37*
G36*
G01X20799Y198840D02*
G02X19271Y200432I-2862J-1218D01*
G03X19845Y200817I172J363D01*
G02X21207Y199397I1507J83D01*
G03X20799Y198840I-39J-400D01*
G37*
G36*
G01X42520Y195655D02*
G02X40952I-784J-1290D01*
G03Y196342I-209J344D01*
G02X40952Y198922I784J1290D01*
G03Y199609I-209J344D01*
G02X42520I784J1290D01*
G03Y198922I209J-344D01*
G02X42520Y196342I-784J-1290D01*
G03Y195655I209J-344D01*
G37*
G36*
G01X42952Y187603D02*
G02X41374Y189228I-1505J117D01*
G03X41756Y189598I-19J401D01*
G02X43933Y190833I1505J-117D01*
G03X44509Y191256I179J360D01*
G02X45328Y190138I1491J235D01*
G03X44752Y189716I-179J-360D01*
G02X43333Y187973I-1491J-235D01*
G03X42952Y187603I19J-401D01*
G37*
G36*
G01X26247Y185086D02*
G02X24664Y186669I-1508J75D01*
G03X25046Y187050I-20J402D01*
G02X26629Y185468I1508J-75D01*
G03X26247Y185086I20J-402D01*
G37*
G36*
G01X43337Y176438D02*
G02X41762Y175009I-67J-1508D01*
G03X41379Y175432I-401J21D01*
G02X42954Y176861I67J1508D01*
G03X43337Y176438I401J-21D01*
G37*
G36*
G01X42163Y157307D02*
G02X40102Y158041I-1380J-613D01*
G03X40288Y158563I-181J359D01*
G02X40884Y160466I1380J613D01*
G03Y161153I-209J344D01*
G02X40884Y163734I784J1290D01*
G03Y164421I-209J344D01*
G02X40485Y166650I784J1290D01*
G03X40425Y167211I-315J250D01*
G02X40629Y169689I955J1169D01*
G03X40798Y170197I-200J349D01*
G02X42936Y169485I1387J597D01*
G03X42767Y168977I200J-349D01*
G02X42562Y167441I-1387J-597D01*
G03X42623Y166880I315J-250D01*
G02X42451Y164421I-955J-1169D01*
G03Y163734I209J-344D01*
G02X42451Y161153I-784J-1290D01*
G03Y160466I209J-344D01*
G02X42349Y157829I-784J-1290D01*
G03X42163Y157307I181J-359D01*
G37*
G36*
G01X25199Y148734D02*
G02X23632I-784J-1290D01*
G03Y149421I-209J344D01*
G02X25199I784J1290D01*
G03Y148734I209J-344D01*
G37*
G36*
G01X362869Y177264D02*
G02X360553Y176046I-1129J-664D01*
G03X360056Y176255I-364J-170D01*
G02X360229Y178649I-435J1235D01*
G03X360815Y178952I187J356D01*
G02X362956Y177776I1298J-174D01*
G03X362869Y177264I259J-307D01*
G37*
G36*
G01X343610Y180001D02*
G02X343420Y178350I911J-941D01*
G03X342803Y178421I-338J-218D01*
G02X342992Y180072I-911J941D01*
G03X343610Y180001I338J218D01*
G37*
G36*
G01X361638Y200139D02*
G02X360524Y201296I-1302J-139D01*
G03X360982Y201736I58J398D01*
G02X362096Y200579I1302J139D01*
G03X361638Y200139I-58J-398D01*
G37*
G36*
G01X308604Y211027D02*
G02X306683Y211444I-1144J-637D01*
G03X306796Y211963I-238J324D01*
G02X306925Y213427I1144J637D01*
G03X306844Y214010I-312J254D01*
G02X308611Y214255I752J1072D01*
G03X308692Y213672I312J-254D01*
G02X308717Y211546I-752J-1072D01*
G03X308604Y211027I238J-324D01*
G37*
G36*
G01X304332Y213167D02*
G02X302508Y212616I-652J-1136D01*
G03X302349Y213144I-360J179D01*
G02X304173Y213695I652J1136D01*
G03X304332Y213167I360J-179D01*
G37*
G36*
G01X317331Y221505D02*
G02X315797Y220573I-272J-1281D01*
G03X315493Y221074I-387J107D01*
G02X314478Y222112I272J1281D01*
G03X313843Y222360I-395J-74D01*
G02X314347Y223653I-783J1050D01*
G03X314982Y223405I395J74D01*
G02X315040Y223445I782J-1051D01*
G03X315182Y223949I-223J335D01*
G02X317095Y223410I1188J551D01*
G03X316953Y222906I223J-335D01*
G02X317027Y222005I-1188J-551D01*
G03X317331Y221505I387J-107D01*
G37*
G36*
G01X258750Y230173D02*
G02X257395Y230454I-951J-1173D01*
G03X257540Y231154I-108J387D01*
G02X258895Y230872I951J1173D01*
G03X258750Y230173I108J-387D01*
G37*
G36*
G01X276744Y233640D02*
G02X275256I-744J-1314D01*
G03Y234340I-198J350D01*
G02X276744I744J1314D01*
G03Y233640I198J-350D01*
G37*
G36*
G01X316011Y233868D02*
G02X314477Y234726I-1241J-418D01*
G03X314768Y235246I-90J392D01*
G02X316302Y234388I1241J418D01*
G03X316011Y233868I90J-392D01*
G37*
G36*
G01X179518Y345079D02*
G02X178066Y346509I-1508J-79D01*
G03X178482Y346931I15J402D01*
G02X179934Y345501I1508J79D01*
G03X179518Y345079I-15J-402D01*
G37*
G36*
G01X354702Y366147D02*
G02Y367833I-1002J843D01*
G03X355318I308J259D01*
G02Y366147I1002J-843D01*
G03X354702I-308J-259D01*
G37*
G36*
G01X189822Y365766D02*
G02X188330Y365852I-822J-1266D01*
G03X188370Y366550I-178J360D01*
G02X189862Y366464I822J1266D01*
G03X189822Y365766I178J-360D01*
G37*
G36*
G01X15450Y360634D02*
G02Y363366I-3450J1366D01*
G03X16069Y363196I374J148D01*
G02Y360804I922J-1195D01*
G03X15450Y360634I-245J-318D01*
G37*
G36*
G01X270364Y352343D02*
G02X269443Y353264I-1264J-343D01*
G03X269936Y353757I105J388D01*
G02X270857Y352836I1264J343D01*
G03X270364Y352343I-105J-388D01*
G37*
G36*
G01X412294Y347991D02*
G02X411399Y348993I-1286J-247D01*
G03X411914Y349453I120J384D01*
G02X412809Y348450I1286J247D01*
G03X412294Y347991I-120J-384D01*
G37*
G36*
G01X438764Y347943D02*
G02X437843Y348864I-1264J-343D01*
G03X438336Y349357I105J388D01*
G02X439257Y348436I1264J343D01*
G03X438764Y347943I-105J-388D01*
G37*
G36*
G01X412295Y343698D02*
G02X411312Y345166I-1295J196D01*
G03X411805Y345496I96J390D01*
G02X412788Y344028I1295J-196D01*
G03X412295Y343698I-96J-390D01*
G37*
G36*
G01X270297Y334880D02*
G02X269408Y335850I-1279J-280D01*
G03X269921Y336320I120J384D01*
G02X270809Y335350I1279J280D01*
G03X270297Y334880I-120J-384D01*
G37*
G36*
G01X300958Y328699D02*
G02X300729Y330687I-954J897D01*
G03X301244Y330746I223J335D01*
G02X301473Y328758I954J-897D01*
G03X300958Y328699I-223J-335D01*
G37*
G36*
G01X414389Y327832D02*
G02X413571Y328822I-1289J-232D01*
G03X414111Y329268I145J375D01*
G02X414929Y328278I1289J232D01*
G03X414389Y327832I-145J-375D01*
G37*
G36*
G01X387869Y327924D02*
G02X386854Y328885I-1269J-324D01*
G03X387322Y329378I78J394D01*
G02X388992Y330949I1269J324D01*
G03X389472Y331146I123J383D01*
G02X390233Y329295I1162J-604D01*
G03X389753Y329098I-123J-383D01*
G02X388337Y328417I-1162J604D01*
G03X387869Y327924I-78J-394D01*
G37*
G36*
G01X246426Y327725D02*
G02X245095Y328843I-1296J-191D01*
G03X245482Y329304I-11J402D01*
G02X247221Y330726I1296J190D01*
G03X247731Y330954I136J378D01*
G02X248502Y329234I1215J-488D01*
G03X247992Y329006I-136J-378D01*
G02X246812Y328185I-1215J488D01*
G03X246426Y327725I11J-402D01*
G37*
G36*
G01X370674Y326772D02*
G02X368735Y326280I-762J-1065D01*
G03X368607Y326783I-362J176D01*
G02X370547Y327275I762J1065D01*
G03X370674Y326772I362J-176D01*
G37*
G36*
G01X280904Y322180D02*
G02X279558Y323102I-1252J-384D01*
G03X279914Y323621I-29J401D01*
G02X281259Y322698I1252J384D01*
G03X280904Y322180I29J-401D01*
G37*
G36*
G01X241566Y319700D02*
G02X239566Y319691I-996J-850D01*
G03X239564Y320210I-308J258D01*
G02X240657Y322366I996J850D01*
G03X241087Y322733I30J401D01*
G02X242295Y321316I1305J-111D01*
G03X241865Y320949I-30J-401D01*
G02X241564Y320219I-1305J111D01*
G03X241566Y319700I308J-258D01*
G37*
G36*
G01X267636Y313222D02*
G02X266579Y312091I243J-1287D01*
G03X266105Y312534I-399J48D01*
G02X267163Y313665I-243J1287D01*
G03X267636Y313222I399J-48D01*
G37*
G36*
G01X359212Y312646D02*
G02X359028Y310722I788J-1046D01*
G03X358488Y310774I-298J-270D01*
G02X358672Y312697I-788J1046D01*
G03X359212Y312646I298J270D01*
G37*
G36*
G01X406943Y306744D02*
G02X405261Y307276I-1133J-657D01*
G03X405440Y307843I-169J365D01*
G02X407122Y307311I1133J657D01*
G03X406943Y306744I169J-365D01*
G37*
G36*
G01X389932Y305333D02*
G02X389089Y303761I423J-1239D01*
G03X388570Y304039I-389J-102D01*
G02X389413Y305611I-423J1239D01*
G03X389932Y305333I389J102D01*
G37*
G36*
G01X262451Y302285D02*
G02Y303847I-1051J781D01*
G03X263097I323J240D01*
G02Y302285I1051J-781D01*
G03X262451I-323J-240D01*
G37*
G36*
G01X351581Y294814D02*
G02X350102Y295793I-1272J-314D01*
G03X350428Y296286I-64J397D01*
G02X351908Y295307I1272J314D01*
G03X351581Y294814I64J-397D01*
G37*
G36*
G01X357501Y288919D02*
G02X356174Y287517I-21J-1309D01*
G03X355779Y287891I-401J-28D01*
G02X357106Y289293I21J1309D01*
G03X357501Y288919I401J28D01*
G37*
G36*
G01X305492Y287970D02*
G02X303868Y288799I-1239J-424D01*
G03X304131Y289313I-118J384D01*
G02X305755Y288485I1239J424D01*
G03X305492Y287970I118J-384D01*
G37*
G36*
G01X339083Y287142D02*
G02X337348Y287602I-1112J-692D01*
G03X337498Y288168I-191J354D01*
G02X339233Y287708I1112J692D01*
G03X339083Y287142I191J-354D01*
G37*
G36*
G01X385969Y286061D02*
G02X384214Y285380I-548J-1189D01*
G03X384012Y285901I-371J156D01*
G02X385767Y286582I548J1189D01*
G03X385969Y286061I371J-156D01*
G37*
G36*
G01X368152Y284384D02*
G02X366807Y285306I-1252J-384D01*
G03X367162Y285825I-29J401D01*
G02X368508Y284902I1252J384D01*
G03X368152Y284384I29J-401D01*
G37*
G36*
G01X380309Y283336D02*
G02X379592Y284478I-1309J-26D01*
G03X380175Y284845I182J359D01*
G02X380893Y283703I1309J26D01*
G03X380309Y283336I-182J-359D01*
G37*
G36*
G01X289416Y283210D02*
G02X288310Y284604I-1306J99D01*
G03X288773Y284970I62J397D01*
G02X289878Y283577I1306J-99D01*
G03X289416Y283210I-62J-397D01*
G37*
G36*
G01X285036Y278882D02*
G02X283521Y278723I-646J-1139D01*
G03X283453Y279374I-267J301D01*
G02X284967Y279533I646J1139D01*
G03X285036Y278882I267J-301D01*
G37*
G36*
G01X348666Y270409D02*
G02X348467Y268500I787J-1047D01*
G03X347923Y268556I-303J-265D01*
G02X348122Y270465I-787J1047D01*
G03X348666Y270409I303J265D01*
G37*
G36*
G01X385641Y268137D02*
G02Y269608I-1084J735D01*
G03X386306I333J226D01*
G02Y268137I1084J-735D01*
G03X385641I-333J-226D01*
G37*
G36*
G01X378118Y267890D02*
G02Y269855I-866J982D01*
G03X378650I266J302D01*
G02Y267890I866J-982D01*
G03X378118I-266J-302D01*
G37*
G36*
G01X359805Y268412D02*
G02X359409Y269885I-1226J461D01*
G03X360040Y270055I255J311D01*
G02X360436Y268581I1226J-461D01*
G03X359805Y268412I-255J-311D01*
G37*
G36*
G01X346066Y261136D02*
G02X345911Y262973I-1005J840D01*
G03X346480Y263021I261J306D01*
G02X346635Y261184I1005J-840D01*
G03X346066Y261136I-261J-306D01*
G37*
G36*
G01X319191Y261608D02*
G02X318083Y260395I199J-1294D01*
G03X317620Y260818I-401J25D01*
G02X318728Y262030I-199J1294D01*
G03X319191Y261608I401J-25D01*
G37*
G36*
G01X396500Y260038D02*
G02X395149Y261135I-1453J-409D01*
G03X395562Y261645I27J401D01*
G02X398520Y261924I1453J409D01*
G03X398966Y261490I401J-34D01*
G02X397634Y260120I172J-1500D01*
G03X397188Y260554I-401J34D01*
G02X396914Y260547I-173J1500D01*
G03X396500Y260038I-27J-401D01*
G37*
G36*
G01X384210Y260344D02*
X384372Y260665D01*
G02X385421Y260139I1050J783D01*
G01X385260Y259817D01*
G02X384210Y260344I-1050J-783D01*
G37*
G36*
G01X343347Y259912D02*
G02X342241Y258519I200J-1294D01*
G03X341779Y258886I-401J-30D01*
G02X342884Y260279I-200J1294D01*
G03X343347Y259912I401J30D01*
G37*
G54D26*
X485004Y359408D03*
X514094Y-37598D03*
X513534Y-116999D03*
X570210Y272537D03*
Y175337D03*
G54D30*
X17000Y49000D03*
X58000Y29000D03*
X17002Y318197D03*
X535500Y358500D03*
Y341500D03*
G54D32*
X567916Y81060D03*
Y123160D03*
G54D28*
X495250Y125750D03*
Y118250D03*
X360992Y73937D03*
X353118D03*
X337370D03*
X329496D03*
X321622D03*
X313748D03*
X305874D03*
X290126D03*
X282252D03*
X274378D03*
X266504D03*
X258630D03*
X250756D03*
X235008D03*
X353118Y66063D03*
X345244D03*
X337370D03*
X329496D03*
X321622D03*
X313748D03*
X305874D03*
X298000D03*
X290126D03*
X282252D03*
X274378D03*
X266504D03*
X258630D03*
X250756D03*
X242882D03*
X235008D03*
X360992Y48937D03*
X353118D03*
X345244D03*
X337370D03*
X329496D03*
X321622D03*
X313748D03*
X305874D03*
X298000D03*
X290126D03*
X282252D03*
X274378D03*
X266504D03*
X258630D03*
X250756D03*
X242882D03*
X360992Y41063D03*
X345244D03*
X337370D03*
X329496D03*
X321622D03*
X313748D03*
X305874D03*
X290126D03*
X282252D03*
X274378D03*
X266504D03*
X258630D03*
X242882D03*
X235008D03*
X192748Y-15000D03*
X184874D03*
X177000D03*
X169126D03*
X161252D03*
X17937Y229118D03*
Y221244D03*
Y213370D03*
Y205496D03*
Y189748D03*
Y181874D03*
Y174000D03*
Y166126D03*
Y158252D03*
Y150378D03*
Y142504D03*
Y134630D03*
X542716Y84660D03*
X532716Y89660D03*
X542716Y94660D03*
X532716Y99660D03*
X542716Y104660D03*
X532716Y109660D03*
X542716Y114660D03*
X532716Y119660D03*
G54D23*
X144000Y65490D03*
X373938Y-28311D03*
X170908Y252630D03*
X99640Y333340D03*
X195491Y333000D03*
X74510Y332000D03*
X190890Y331500D03*
X159322Y331370D03*
X89800D03*
X205000Y329990D03*
X99640Y329400D03*
X53341Y329003D03*
X136000Y327990D03*
X182000Y327433D03*
X79695D03*
X172991Y327279D03*
X201936Y326184D03*
X60649Y325465D03*
X191972Y323548D03*
X195490Y323500D03*
X170360D03*
X53340D03*
X48326Y323436D03*
X80406Y323286D03*
X84190Y323000D03*
X188333Y321528D03*
X184110Y321510D03*
X69286Y321505D03*
X163341Y320509D03*
X107549Y320373D03*
X91560Y319559D03*
X99640Y317590D03*
X208951Y317544D03*
X74510Y317290D03*
X186519Y316729D03*
X190154Y315622D03*
X92780D03*
X160426Y315222D03*
X51332Y313654D03*
X60360Y311690D03*
X195370Y311640D03*
X85490D03*
X207152Y309716D03*
X67409Y309585D03*
X192464Y308558D03*
X133591Y307440D03*
X209640Y305780D03*
X123708Y305625D03*
X184510Y305500D03*
X137220Y303811D03*
X117055D03*
X76519Y302754D03*
X53341Y302000D03*
X140627Y301842D03*
X131777Y301626D03*
X135352Y299812D03*
X96011Y297981D03*
X209640Y297906D03*
X149736D03*
X115899D03*
X62174D03*
X47703Y295937D03*
X113959Y294094D03*
X60670Y293968D03*
X99270Y292445D03*
X122026Y292332D03*
X129567Y292154D03*
X161911Y292000D03*
X74700D03*
X53341D03*
X94197Y291963D03*
X139320Y291861D03*
X86171Y291692D03*
X145953Y290764D03*
X201446Y290032D03*
X60360D03*
X151767Y289973D03*
X113233D03*
X170360Y289877D03*
X204998Y288063D03*
X140047Y286249D03*
X115047Y286150D03*
X153519Y286096D03*
X201150Y286094D03*
X99640D03*
X110140Y285499D03*
X415334Y284879D03*
X86128Y284757D03*
X68082D03*
X172179Y284159D03*
X158800Y284126D03*
X60360D03*
X195212Y283972D03*
X112456Y282538D03*
X86128Y281129D03*
X138079Y280779D03*
X200464Y280189D03*
X416788Y279556D03*
X184510Y278500D03*
X131382Y278274D03*
X216660Y278220D03*
X74510Y277990D03*
X490447Y277858D03*
X435146D03*
X86171Y277164D03*
X159708Y276406D03*
X142170Y275991D03*
X488586Y272856D03*
X194300Y272490D03*
X163274Y272315D03*
X151704D03*
X60930Y272310D03*
X174280Y271729D03*
X491544Y270887D03*
X128827Y270490D03*
X156079Y270478D03*
X170649Y270346D03*
X47195D03*
X411509Y270000D03*
X501157Y269302D03*
X62659Y269009D03*
X89000Y268990D03*
X436961Y268919D03*
X194309Y268378D03*
X99270D03*
X184510Y267490D03*
X123316Y267387D03*
X440589Y266950D03*
X151704Y266608D03*
X216660Y266410D03*
X74510Y266000D03*
X433332Y264982D03*
X422042D03*
X411509Y263868D03*
X125984Y263527D03*
X197430Y263509D03*
X500590Y263010D03*
X170649Y262472D03*
X99640D03*
X163303Y261760D03*
X442404Y261045D03*
X508915Y260729D03*
X60360Y260500D03*
X85490Y260000D03*
X429703Y259564D03*
X141022Y259176D03*
X438775Y259076D03*
X170649Y258535D03*
X53341D03*
X192490Y258530D03*
X218668Y258340D03*
X74510Y258000D03*
X489258Y256866D03*
X99270Y256567D03*
X60360D03*
X498775Y255139D03*
X435146Y254985D03*
X81930Y254770D03*
X131861Y254738D03*
X121893Y254617D03*
X216660Y254600D03*
X51332Y253912D03*
X99640Y252630D03*
X184510Y252500D03*
X421999Y251640D03*
X191669Y251576D03*
X67534Y251160D03*
X127222Y250985D03*
X216660Y250660D03*
X107515D03*
X476746Y250611D03*
X498780Y248990D03*
X412830Y248575D03*
X61515Y247729D03*
X420822Y247220D03*
X97721Y246514D03*
X199550Y246330D03*
X424786Y246290D03*
X498975Y245297D03*
X472443Y245143D03*
X81699Y244695D03*
X120079Y243446D03*
X459973Y243174D03*
X467227Y242804D03*
X397129Y242000D03*
X94010Y241760D03*
X87000Y241510D03*
X115899Y241509D03*
X498980Y241118D03*
X215678Y240853D03*
X97613Y239937D03*
X412896Y239700D03*
X464889Y239391D03*
X468819Y239382D03*
X240805Y239136D03*
X514997Y238915D03*
X408608Y238629D03*
X443500Y237589D03*
X425562Y237412D03*
X167010Y236420D03*
X396701Y236418D03*
X132991Y235572D03*
X125881D03*
X482629Y235454D03*
X470629Y235000D03*
X411510D03*
X427651Y233382D03*
X487662Y231517D03*
X461418Y231363D03*
X408789Y231259D03*
X203919Y230694D03*
X438775Y229395D03*
X160016Y228554D03*
X145799Y228491D03*
X464889Y228306D03*
X220483Y227824D03*
X411820Y227580D03*
X118110Y226705D03*
X203695Y226009D03*
X198450D03*
X53690Y225950D03*
X143984Y225485D03*
X498690Y225320D03*
X138233Y225219D03*
X68490Y225000D03*
X451851Y224756D03*
X458229Y224543D03*
X213269Y220187D03*
X475000Y219830D03*
X504810Y219500D03*
X460568Y219012D03*
X511101Y218976D03*
X496393Y218449D03*
X68490Y218000D03*
X415428Y217991D03*
X408000Y217990D03*
X485000Y217950D03*
X50500Y217730D03*
X451000Y216209D03*
X273918Y215201D03*
X258490Y215000D03*
X411510Y214000D03*
X396481D03*
X68490Y211140D03*
X420940Y210850D03*
X515109Y209729D03*
X447000Y209590D03*
X62720Y209490D03*
X466000Y209299D03*
X454915Y209009D03*
X205510Y209000D03*
X411510Y207000D03*
X52290Y206930D03*
X426758Y206819D03*
X67820Y206610D03*
X393714Y206118D03*
X501991Y206000D03*
X231990Y205000D03*
X408692Y203339D03*
X426757Y203057D03*
X390880Y202489D03*
X84287Y202449D03*
X190668Y202000D03*
X396481Y201581D03*
X258490Y200600D03*
X474644Y200101D03*
X450311Y200088D03*
X211455Y199832D03*
X276000Y199568D03*
X478629Y197629D03*
X215083Y197624D03*
X271509Y196718D03*
X443987Y196328D03*
X416000Y196299D03*
X62720Y196110D03*
X447389Y195814D03*
X393814Y195771D03*
X398332Y195251D03*
X224781Y195190D03*
X480443Y194000D03*
X462915D03*
X436991D03*
X428080Y193352D03*
X63905Y192839D03*
X467695Y192244D03*
X236824Y191824D03*
X501233Y190656D03*
X84339Y190032D03*
X262000Y190010D03*
X257509Y189814D03*
X275333Y188814D03*
X427520Y188503D03*
X52000Y188330D03*
X244490Y188000D03*
X205510D03*
X229566Y187365D03*
X225544D03*
X443668Y186689D03*
X450005Y185833D03*
X490591Y184018D03*
X515009Y184000D03*
X419727Y183015D03*
X86769Y182559D03*
X408000Y182010D03*
X238991Y181000D03*
X205510D03*
X189209Y180825D03*
X391446Y180690D03*
X452000Y180248D03*
X62716Y180043D03*
X435409Y180000D03*
X223135Y179000D03*
X484443Y178324D03*
X411817Y177629D03*
X438190Y177490D03*
X215604Y174000D03*
X205510D03*
X258490Y173000D03*
X69760Y172700D03*
X514510Y172000D03*
X482629Y171814D03*
X227752Y171621D03*
X444355Y170488D03*
X262000Y169010D03*
X231381Y169009D03*
X499267Y167196D03*
X476353Y167025D03*
X77532Y167009D03*
X205510Y166990D03*
X212173Y166300D03*
X62650Y166040D03*
X490078Y165058D03*
X436137Y163500D03*
X457085Y163490D03*
X500991Y162000D03*
X409940Y161990D03*
X189209Y159638D03*
X52000Y159490D03*
X257710Y159000D03*
X250915Y158679D03*
X246500Y156849D03*
X270995Y155629D03*
X451729Y154991D03*
X480000Y154990D03*
X473000D03*
X447000D03*
X408214Y154447D03*
X467000Y154409D03*
X81509Y154163D03*
X219232Y153362D03*
X74572Y153240D03*
X514010Y152000D03*
X258490Y151990D03*
X226945Y151548D03*
X395629Y151000D03*
X86769Y150902D03*
X191483Y150638D03*
X256269Y149380D03*
X287008Y149297D03*
X218012Y148824D03*
X313065Y148531D03*
X293960Y148099D03*
X473000Y147790D03*
X444600D03*
X319096Y147635D03*
X277097Y147009D03*
X328900Y146736D03*
X41380Y145570D03*
X494010Y145510D03*
X440708D03*
X430990D03*
X417000D03*
X410396D03*
X487000Y145509D03*
X480000D03*
X403000D03*
X396000D03*
X497990Y145030D03*
X241910Y144648D03*
X84955Y144366D03*
X44342Y143749D03*
X274576Y142229D03*
X192490Y139158D03*
X205510Y139000D03*
X338745Y138930D03*
X297730Y138572D03*
X469991Y137701D03*
X504560Y137041D03*
X399010Y136000D03*
X86769Y135000D03*
X55000Y134299D03*
X258523Y132814D03*
X491835Y132491D03*
X452000D03*
X314000Y132490D03*
X439960Y131824D03*
X270995Y131568D03*
X410000Y131381D03*
X375000Y131276D03*
X389000Y131150D03*
X361000Y131070D03*
X322725Y131007D03*
X293000Y130810D03*
X383814Y130481D03*
X423921Y130009D03*
X459000Y129924D03*
X368000Y129750D03*
X338526Y128831D03*
X312861D03*
X255985Y128508D03*
X408000Y128010D03*
X68490Y128000D03*
X345632Y127804D03*
X381548Y126232D03*
X244975Y125990D03*
X47260Y125000D03*
X339046Y124175D03*
X293300D03*
X360367Y124143D03*
X126000Y122509D03*
X301506Y122361D03*
X192110Y122233D03*
X343061Y121761D03*
X311047D03*
X205476Y121446D03*
X55000Y121010D03*
X68490Y121000D03*
X361599Y119939D03*
X34000Y119790D03*
X29980Y119500D03*
X437000Y118990D03*
X261060Y118044D03*
X414585Y117839D03*
X402915Y116229D03*
X346304Y115619D03*
X418016Y115540D03*
X333000Y115009D03*
X325777D03*
X366757Y114514D03*
X431906Y114360D03*
X466000Y114186D03*
X301020Y114116D03*
X60509Y114000D03*
X204904Y113877D03*
X198729D03*
X195100D03*
X257800Y113195D03*
X228759D03*
X44000Y112490D03*
X397967Y111671D03*
X216198Y111381D03*
X269775Y109256D03*
X243096Y108420D03*
X233195Y108368D03*
X431940Y107810D03*
X400287Y107760D03*
X182000Y107490D03*
X175000D03*
X154010D03*
X112000D03*
X389000Y107081D03*
X361683Y106747D03*
X410070Y105700D03*
X415733Y104738D03*
X194899Y104337D03*
X425009Y103593D03*
X126022Y103583D03*
X254047Y103117D03*
X238247Y102883D03*
X217661D03*
X182248Y102195D03*
X303564Y102138D03*
X299560D03*
X257800Y101713D03*
X243096Y101663D03*
X139990Y101640D03*
X455510Y101000D03*
X432700Y100850D03*
X281982Y100194D03*
X275948D03*
X207324Y100098D03*
X361896Y99346D03*
X175616Y99232D03*
X263706Y99114D03*
X330327Y98509D03*
X268555Y98379D03*
X118588Y98263D03*
X243096Y98034D03*
X237238Y96901D03*
X254171Y96055D03*
X432009Y96000D03*
X327755Y95914D03*
X161060Y95188D03*
X425113Y95065D03*
X313748Y95005D03*
X409990Y95000D03*
X303676Y94403D03*
X262567Y94384D03*
X181399Y94241D03*
X337849Y93052D03*
X442622Y92885D03*
X190984Y92185D03*
X101767Y92019D03*
X428040Y91509D03*
X455996Y91500D03*
X319000D03*
X241281Y91207D03*
X383814Y91016D03*
X288556Y90710D03*
X181679Y89986D03*
X106019Y89682D03*
X235424Y89392D03*
X231381D03*
X432700Y89050D03*
X250418Y88172D03*
X196899D03*
X135950Y87870D03*
X132016Y87868D03*
X226138Y87564D03*
X231381Y85750D03*
X333000Y85491D03*
X351000Y85480D03*
X432166Y85178D03*
X250418Y84543D03*
X243974Y84537D03*
X216198Y84521D03*
X207644D03*
X320911Y84046D03*
X226138D03*
X280167Y84015D03*
X260444D03*
X183679Y83911D03*
X325182Y83564D03*
X358593Y83279D03*
X409910Y83150D03*
X255985Y82232D03*
X290547Y82201D03*
X283853Y81638D03*
X269919D03*
X175616Y81503D03*
X432619Y81173D03*
X419968Y80999D03*
X331927Y80709D03*
X207324Y79673D03*
X173066Y78650D03*
X406000Y78490D03*
X413167Y78293D03*
X104010Y77840D03*
X183273Y76836D03*
X131540Y76580D03*
X226357Y75538D03*
X207068Y75434D03*
X222509Y73129D03*
X455742Y72752D03*
X192798Y72709D03*
X228156Y71292D03*
X442490Y71000D03*
X207510Y70000D03*
X424261Y68999D03*
X187308Y67229D03*
X94186Y67000D03*
X455509Y66500D03*
X184036Y65280D03*
X442057Y65000D03*
X406000D03*
X392500D03*
X389010D03*
X69000Y64990D03*
X219827Y64050D03*
X207510Y64000D03*
X419990Y63770D03*
X394991Y61915D03*
X185298Y61667D03*
X214384Y61428D03*
X139890Y60991D03*
X419991Y60009D03*
X403597D03*
X392000D03*
X380000D03*
X442490Y59000D03*
X208271Y58421D03*
X458513Y57003D03*
X339046Y54981D03*
X205253Y54792D03*
X92472Y53285D03*
X438010Y53000D03*
X173650Y51950D03*
X413009Y50415D03*
X190984Y49984D03*
X209491Y49943D03*
X202654Y49830D03*
X183679Y49770D03*
X29000Y49010D03*
X521490Y49000D03*
X142010Y48560D03*
X213987Y48016D03*
X198399D03*
X173660D03*
X82051Y47477D03*
X442490Y47000D03*
X162685Y46796D03*
X183679Y46047D03*
X457440Y46000D03*
X413990D03*
X173660Y44079D03*
X209138Y43981D03*
X537363Y43947D03*
X110966Y43931D03*
X218836Y43692D03*
X141858Y43349D03*
X426190Y42490D03*
X190984Y42110D03*
X183679D03*
X92340D03*
X431415Y41991D03*
X419415D03*
X404000Y41990D03*
X392000D03*
X380000D03*
X550877Y41383D03*
X442490Y41000D03*
X133864Y40393D03*
X173660Y40229D03*
X92340Y38327D03*
X183680Y38220D03*
X153360Y38196D03*
X196255Y36994D03*
X129610Y36138D03*
X539481Y35000D03*
X297215Y34964D03*
X379024Y34614D03*
X114000Y34324D03*
X183679Y34190D03*
X69000Y34010D03*
X238120Y33785D03*
X260444Y33222D03*
X317163Y32729D03*
X289326D03*
X97814Y32670D03*
X129000Y32280D03*
X173660Y32268D03*
X402814Y31884D03*
X353000Y31510D03*
X120205Y31509D03*
X268103Y30977D03*
X312235Y30709D03*
X92350Y30300D03*
X183679Y30299D03*
X205281Y30235D03*
X291140Y29757D03*
X199604Y29705D03*
X260231Y29594D03*
X319201Y29489D03*
X274378Y29163D03*
X173660Y28331D03*
X191594Y28177D03*
X277579Y27049D03*
X125956Y26565D03*
X183679Y26362D03*
X265230Y25829D03*
X392000Y25510D03*
X534509Y25000D03*
X521490D03*
X209491Y24548D03*
X173660Y24394D03*
X230999Y24024D03*
X234624Y24000D03*
X165490Y20160D03*
X169417Y20151D03*
X161543D03*
X157606D03*
X153669D03*
X145795D03*
X141858D03*
X137921D03*
X124142D03*
X110362D03*
X106425D03*
X97695D03*
X72040D03*
X209490Y19000D03*
X428012Y18915D03*
X353000Y18491D03*
X381814Y17882D03*
X435000Y17799D03*
X364368Y17554D03*
X230000Y14509D03*
X223000D03*
X547058Y14000D03*
X334000Y13509D03*
X186912Y13257D03*
X209491Y12200D03*
X79287Y11285D03*
X454010Y10500D03*
X163512Y10132D03*
X159575D03*
X155638D03*
X151783D03*
X143827D03*
X139890D03*
X135953D03*
X126110D03*
X122173D03*
X108394D03*
X96583D03*
X100520Y10130D03*
X518991Y10000D03*
X147563Y9376D03*
X208138Y8734D03*
X118236Y8123D03*
X323219Y8089D03*
X129760Y7747D03*
X112177Y6308D03*
X104457Y6110D03*
X438009Y5085D03*
X505214Y5000D03*
X528491Y3000D03*
X184900Y2480D03*
X409590Y123D03*
X388010Y120D03*
X538000Y-10D03*
X155126Y-41D03*
X505990Y-1000D03*
X148873Y-1855D03*
X391607Y-2434D03*
X349700Y-3387D03*
X334000D03*
X243328Y-3934D03*
X544491Y-4000D03*
X309648Y-4475D03*
X518009Y-5085D03*
X328666Y-6957D03*
X538000Y-7010D03*
X259201Y-7152D03*
X367818Y-7180D03*
X245977Y-7341D03*
X221514Y-7453D03*
X152090Y-7940D03*
X190934Y-8016D03*
X376229Y-8288D03*
X316378Y-8803D03*
X266638Y-8924D03*
X337100Y-8960D03*
X505198Y-9000D03*
X232349Y-9267D03*
X102349Y-9269D03*
X294330Y-9360D03*
X143673Y-9830D03*
X271015Y-10729D03*
X229391Y-11082D03*
X518991Y-11335D03*
X349163Y-11918D03*
X112177Y-12814D03*
X104611D03*
X505010Y-13500D03*
X383629D03*
X542990Y-14000D03*
X394000Y-14010D03*
X277020Y-14357D03*
X259216Y-14711D03*
X252235Y-17119D03*
X321015Y-17172D03*
X118236Y-17357D03*
X515000Y-17509D03*
X98397Y-19177D03*
X315949Y-19525D03*
X219163Y-21360D03*
X214548D03*
X182638Y-21459D03*
X435000Y-21510D03*
X290099Y-21985D03*
X193402Y-23769D03*
X339822Y-25199D03*
X325008Y-25776D03*
X354432Y-26107D03*
X124796Y-26382D03*
X136756Y-28311D03*
X157349Y-46107D03*
X398044Y-57717D03*
X327349Y-66641D03*
X267349Y-68455D03*
X297529Y-78630D03*
X152349Y-81608D03*
X367100Y-84990D03*
X342100D03*
X308100D03*
X287100D03*
X277100D03*
X252100D03*
X227100D03*
X197100D03*
X167100D03*
X541491Y-85000D03*
X554509Y-96000D03*
Y-108000D03*
X163341Y255261D03*
X171000Y247033D03*
X37937Y238662D03*
X23166Y224096D03*
X29288Y221309D03*
X25767Y215632D03*
X23166Y212364D03*
X24860Y209097D03*
X38310Y206680D03*
X24844Y204282D03*
X26554Y197957D03*
X26377Y194364D03*
X41446Y182632D03*
X44168Y179364D03*
X24860Y178459D03*
X45930Y159560D03*
X26214Y159176D03*
Y153979D03*
X258490Y222000D03*
X262000Y225990D03*
Y232990D03*
Y246310D03*
X257509Y250000D03*
X262000Y253010D03*
X258490Y257000D03*
X262000Y260990D03*
X36010Y264000D03*
X262000Y268990D03*
X31000Y284990D03*
Y322010D03*
X201915Y337991D03*
X161137Y338116D03*
X165500Y339990D03*
X189085Y344286D03*
X178771Y367924D03*
X207790Y366000D03*
X162977Y365807D03*
X208500Y362060D03*
X166000Y359490D03*
X160000D03*
X153990D03*
X150415Y357000D03*
X213324Y356953D03*
X272579Y276946D03*
X392000Y269638D03*
X391110Y261953D03*
X276516Y261457D03*
X402921Y259162D03*
X394887Y253229D03*
X390890Y248900D03*
X505491Y66500D03*
Y91500D03*
X520385Y66000D03*
X582345Y294000D03*
X551000Y266009D03*
X547000Y249509D03*
X557324Y242476D03*
X555509Y228000D03*
X557009Y218637D03*
Y200000D03*
X544009Y199491D03*
X559491Y194000D03*
X526000Y320813D03*
X504000Y320009D03*
X530990Y290000D03*
X509000Y286229D03*
X530000Y285666D03*
X515000Y285009D03*
G54D31*
X581864Y35106D03*
X562179D03*
Y25264D03*
X581864Y15421D03*
X562179D03*
Y5578D03*
X581864Y-4264D03*
X562179D03*
G54D27*
X486000Y324000D03*
Y314000D03*
Y304000D03*
Y294000D03*
X513000Y125000D03*
Y115000D03*
X529000Y42000D03*
Y32000D03*
X453000Y31000D03*
X443000D03*
X433000D03*
X317000Y20000D03*
X307000D03*
X297000D03*
X287000D03*
X277000D03*
X267000D03*
X257000D03*
X247000D03*
X317000Y10000D03*
X307000D03*
X297000D03*
X287000D03*
X277000D03*
X267000D03*
X257000D03*
X247000D03*
X578000Y-72000D03*
X568000D03*
X578000Y-82000D03*
X568000D03*
X578000Y-92000D03*
X568000D03*
X578000Y-102000D03*
Y-112000D03*
X568000D03*
X142000Y362000D03*
X132000D03*
X122000D03*
X112000D03*
X102000D03*
X92000D03*
X82000D03*
X12000Y352000D03*
X564747Y146815D03*
G54D29*
X419000Y121750D03*
X399000D03*
X200250Y57000D03*
X556929Y57337D03*
X564810Y245637D03*
X575610Y240237D03*
X564810Y234837D03*
X575610Y229437D03*
X564810Y224037D03*
X575610Y218637D03*
X564810Y213237D03*
X575610Y207837D03*
X564810Y202437D03*
G54D25*
X467900Y351650D03*
X468260Y343000D03*
Y338000D03*
X467900Y332650D03*
Y327650D03*
Y322650D03*
Y317650D03*
X299015Y237826D03*
X377781Y237396D03*
X381921Y237393D03*
X370314D03*
X295530Y233753D03*
X381882Y233733D03*
X377781Y233482D03*
X370314Y233456D03*
X386349Y233073D03*
X377781Y229740D03*
X381692Y229545D03*
X370314Y229519D03*
X389188Y225608D03*
X378214D03*
X373818D03*
X149890Y223671D03*
X100137Y223466D03*
X186814Y222950D03*
X130018Y222314D03*
X370340Y222078D03*
X385655Y221874D03*
X382321D03*
X377984D03*
X374277Y221645D03*
X137952Y221376D03*
X142616Y221370D03*
X96089Y220347D03*
X124424Y219887D03*
X184634Y219205D03*
X174929D03*
X147921Y218705D03*
X137832Y218354D03*
X369881Y218025D03*
X144189Y217746D03*
X377781Y217708D03*
X374047D03*
X181337Y216974D03*
X159926D03*
X390186Y215893D03*
X147422Y214922D03*
X117528Y214656D03*
X178010Y214530D03*
X164770D03*
X126976Y214530D03*
X109587Y214304D03*
X370330Y214200D03*
X88583Y213945D03*
X95864Y213900D03*
X153748Y213897D03*
X141102D03*
X134803D03*
X112755D03*
X377781Y213885D03*
X381819Y213834D03*
X373820Y213800D03*
X187121Y212262D03*
X137992Y210844D03*
X109608Y210760D03*
X125449Y210759D03*
X106444Y210759D03*
X172646Y210748D03*
X159999D03*
X153748D03*
X147401D03*
X134803D03*
X131653D03*
X122204D03*
X119102D03*
X115905D03*
X112755D03*
X181730Y210738D03*
X283690Y210270D03*
X88583Y210033D03*
X295080Y209860D03*
X94072Y207755D03*
X106476Y207701D03*
X122204Y207694D03*
X115953D03*
X109606D03*
X175750Y207600D03*
X169500D03*
X166375Y207598D03*
X163149D03*
X159999D03*
X156850D03*
X153748D03*
X150551D03*
X147401D03*
X144251D03*
X141102D03*
X134803D03*
X131653D03*
X125449D03*
X119055D03*
X112847D03*
X295411Y206235D03*
X291141Y205922D03*
X287480Y205900D03*
X141197Y204544D03*
X131653D03*
X128503D03*
X112803D03*
X103300Y204528D03*
X175748Y204496D03*
X172646D03*
X166299D03*
X147401D03*
X163149Y204448D03*
X159999D03*
X156850D03*
X153748D03*
X150551D03*
X144251D03*
X134803D03*
X125354D03*
X122300D03*
X119055D03*
X115905D03*
X185696Y202934D03*
X373960Y202270D03*
X377957Y202221D03*
X138048Y201394D03*
X131653D03*
X106500Y201374D03*
X169487Y201371D03*
X97050Y201350D03*
X175748Y201346D03*
X172646D03*
X147401D03*
X100157D03*
X109713Y201310D03*
X144251Y201299D03*
X103307D03*
X179897Y201175D03*
X172646Y198245D03*
X103307D03*
X377781Y198235D03*
X169448Y198149D03*
X106456D03*
X370110Y198023D03*
X181130Y196622D03*
X172621Y195118D03*
X109616Y195095D03*
X166293Y195090D03*
X106504Y195047D03*
X103307Y194999D03*
X100157D03*
X370110Y194518D03*
X378043Y194428D03*
X373911Y194289D03*
X387169Y193756D03*
X97100Y191900D03*
X100157Y191898D03*
X175833Y191871D03*
X172598Y191850D03*
X169448D03*
X106552D03*
X179020Y191831D03*
X370110Y190582D03*
X93252Y190335D03*
X389378Y189966D03*
X103382Y188813D03*
X100157Y188796D03*
X169517Y188758D03*
X172557Y188756D03*
X106550Y188710D03*
X278910Y188410D03*
X386349Y186937D03*
X382125Y186670D03*
X377781D03*
X374251D03*
X369881Y186644D03*
X103400Y185640D03*
X169544Y185598D03*
X109651Y185590D03*
X172598Y185551D03*
X370110Y182733D03*
X387864Y182504D03*
X378143D03*
X374277D03*
X172598Y182413D03*
X169544Y182401D03*
X166394D03*
X381762Y182274D03*
X283726D03*
X278911Y180311D03*
X109606Y179347D03*
X172694Y179251D03*
X169448D03*
X166299D03*
X291370Y178796D03*
X283496D03*
X369907Y178770D03*
X373895Y178744D03*
X295336Y178465D03*
X377755Y178363D03*
X179530Y177670D03*
X96779Y176225D03*
X109606Y176150D03*
X169448Y176102D03*
X166299D03*
X106456D03*
X103402D03*
X88583Y176029D03*
X381718Y174833D03*
X295104Y174745D03*
X373844Y174401D03*
X100181Y173068D03*
X172690Y173040D03*
X103297Y173038D03*
X106414Y173007D03*
X178900Y172960D03*
X112800D03*
X169544Y172952D03*
X166394D03*
X291167Y170922D03*
X326574Y170896D03*
X318700D03*
X377781Y170693D03*
X374251D03*
X334448D03*
X322637D03*
X307322D03*
X303410D03*
X295104D03*
X358529Y170605D03*
X350222D03*
X346259D03*
X362007Y170489D03*
X338411Y170464D03*
X342701Y170383D03*
X183524Y169923D03*
X109701Y169850D03*
X175773Y169829D03*
X172598Y169803D03*
X169448D03*
X106552D03*
X103402D03*
X91612Y169790D03*
X96470Y168280D03*
X381718Y166985D03*
X365970Y166980D03*
X362284Y166763D03*
X342551Y166756D03*
X338614D03*
X334448D03*
X330960Y166750D03*
X327030D03*
X295530D03*
X311095Y166668D03*
X175843Y166653D03*
X172598D03*
X169544D03*
X166346D03*
X109606D03*
X106456D03*
X291370Y166641D03*
X377984Y166530D03*
X358096Y166527D03*
X354159D03*
X322663D03*
X307322D03*
X287345D03*
X92527Y165077D03*
X389466Y163957D03*
X166346Y163503D03*
X106456D03*
X103307D03*
X370110Y163048D03*
X346692D03*
X377984Y162819D03*
X342551D03*
X338385D03*
X334448D03*
X330511D03*
X326574D03*
X322637D03*
X314992D03*
X310826D03*
X307348D03*
X302952D03*
X299244D03*
X291141Y162731D03*
X362007Y162615D03*
X354133D03*
X365970Y162590D03*
X358096D03*
X350425D03*
X183524Y161153D03*
X109700Y160360D03*
X172598Y160354D03*
X169544D03*
X93945Y160341D03*
X319133Y159111D03*
X315190Y159110D03*
X350200Y159080D03*
X342551Y158882D03*
X307121Y158794D03*
X373844Y158767D03*
X295131Y158689D03*
X326574Y158678D03*
X303131D03*
X370022Y158653D03*
X358096D03*
X322663D03*
X175748Y157204D03*
X172693D03*
X106456D03*
X96470Y155680D03*
X282067Y155434D03*
X350425Y155148D03*
X334677Y154945D03*
X326574D03*
X322725D03*
X307118D03*
X295224Y154902D03*
X303410Y154801D03*
X299244D03*
X172598Y154150D03*
X175759Y154130D03*
X169448Y154055D03*
X373810Y154029D03*
X370543D03*
X346488Y153200D03*
X357702Y152807D03*
X361124Y152442D03*
X283496Y151916D03*
X387186Y151824D03*
X305384Y151765D03*
X312570Y151765D03*
X299244Y151450D03*
X109687Y151008D03*
X169544Y151001D03*
X103328Y150928D03*
X100207D03*
X172598Y150905D03*
X369642Y150058D03*
X172598Y147851D03*
X169544D03*
X106552D03*
X175843Y147755D03*
X109689Y147742D03*
X95700Y144763D03*
X103402Y144701D03*
X166360Y144700D03*
X115920Y144659D03*
X163161Y144633D03*
X106460Y144610D03*
X128600Y144607D03*
X175843Y144606D03*
X172694D03*
X119150D03*
X144280Y144577D03*
X116001Y141552D03*
X112755D03*
X169490Y141511D03*
X166390Y141460D03*
X163197Y141456D03*
X144251D03*
X109701D03*
X187560Y139901D03*
X96470Y139870D03*
X169436Y138390D03*
X100200Y138380D03*
X106552Y138354D03*
X109624Y138309D03*
X163245Y138306D03*
X144251D03*
X112755D03*
X175786Y138282D03*
X144251Y135253D03*
X163149Y135205D03*
X141145Y135201D03*
X103350Y135200D03*
X166350Y135160D03*
X106550D03*
X160095Y135157D03*
X109606D03*
X89906Y133570D03*
X160095Y132103D03*
X175795Y132055D03*
X169448D03*
X134850D03*
X95919Y131850D03*
X187560Y131810D03*
X141104Y131796D03*
X100535Y130495D03*
X174281Y125690D03*
X121901Y122813D03*
X310282Y175293D03*
X318656Y175587D03*
X327294Y176817D03*
X308165Y178236D03*
X332709Y179059D03*
X324830Y179060D03*
X348460D03*
X313447Y180271D03*
X317500Y181500D03*
X351798Y182370D03*
X335484Y182954D03*
X318287Y187550D03*
X313144Y189882D03*
X362796Y189941D03*
X295510Y190150D03*
X354924Y190310D03*
X299333Y190315D03*
X283501Y190419D03*
X307610Y192340D03*
X287230Y194090D03*
X354924Y194147D03*
X295349Y194428D03*
X307610Y196280D03*
X361740D03*
X295080Y198050D03*
X312988Y198110D03*
X326695Y198132D03*
X322828Y198176D03*
X291453Y198195D03*
X330808Y198238D03*
X338645Y198282D03*
X346505Y198286D03*
X334705Y198325D03*
X342628Y198368D03*
X299265Y198420D03*
X287230Y198480D03*
X305205Y199410D03*
X313014Y201789D03*
Y205685D03*
X354989Y205858D03*
X322754Y206056D03*
X326814Y206114D03*
X346468Y206203D03*
X362280Y206320D03*
X342350Y206330D03*
X360766Y209521D03*
X362117Y213047D03*
X355075Y213954D03*
X322681Y213973D03*
X346615D03*
X334640Y213976D03*
X326804Y214019D03*
X342541D03*
X330743Y214041D03*
X287209Y217712D03*
X327033Y221704D03*
X287433Y221874D03*
X295307D03*
X299244D03*
X320720Y223930D03*
X287637Y225608D03*
X355142Y226074D03*
X333987Y226919D03*
X349869Y227157D03*
X303410Y229550D03*
X287406Y229708D03*
X343880Y232060D03*
X348000Y232260D03*
X335563Y232850D03*
X324830Y233190D03*
X287326Y233852D03*
X351662Y234309D03*
X310719Y234606D03*
X330240Y235650D03*
X361740D03*
X219263Y345620D03*
X219157Y348751D03*
X334642Y206127D03*
X330759Y205942D03*
X338760Y205900D03*
X398911Y286738D03*
X395554Y289000D03*
X400953D03*
X444860Y370900D03*
X303260D03*
X418060Y370700D03*
X407940D03*
X276360D03*
X266240D03*
X391760Y370600D03*
X250217D03*
X350210Y369800D03*
X337190D03*
X317911D03*
X346700Y366790D03*
X340700D03*
X333640Y366582D03*
X437400Y365200D03*
X411000D03*
X384400D03*
X295900D03*
X269000D03*
X242900D03*
X439600Y363000D03*
X413200D03*
X386600D03*
X343865D03*
X271200D03*
X245100D03*
X298100Y362900D03*
X221975Y361900D03*
X384400Y360900D03*
X441800Y360800D03*
X437400D03*
X415300D03*
X411000D03*
X388800D03*
X300300D03*
X273400D03*
X269000D03*
X247300D03*
X242900D03*
X295900Y360700D03*
X337900Y358800D03*
X439600Y358700D03*
X343900D03*
X271200Y358600D03*
X245100D03*
X413200Y358500D03*
X386600D03*
X298100D03*
X437400Y356600D03*
X247316Y356514D03*
X242900Y356500D03*
X441800Y356400D03*
X415400D03*
X410900D03*
X388800D03*
X384400D03*
X349800D03*
X300402D03*
X295900D03*
X273400D03*
X269000D03*
X343600Y354400D03*
X413100Y354300D03*
X386600D03*
X245100D03*
X439600Y354200D03*
X337800D03*
X298100Y354100D03*
X247300Y352100D03*
X441800Y352000D03*
X437400D03*
X415400D03*
X411000D03*
X388800D03*
X384400D03*
X349800D03*
X300400D03*
X295900D03*
X273400D03*
X242900D03*
X232110Y350570D03*
X386600Y349900D03*
X298100D03*
X343900Y349800D03*
X271200D03*
X245100D03*
X282127Y348109D03*
X371492Y347774D03*
X415500Y347700D03*
X388800D03*
X349800D03*
X441800Y347600D03*
X384400D03*
X337800D03*
X300300D03*
X296000D03*
X273400D03*
X268900D03*
X364497Y347596D03*
X242900Y347500D03*
X247400Y347413D03*
X321690Y347330D03*
X428765Y345623D03*
X233680Y345620D03*
X386600Y345500D03*
X439600Y345400D03*
X343900D03*
X298100D03*
X271200D03*
X245100D03*
X260485Y344793D03*
X454460Y344050D03*
X441800Y343200D03*
X437400D03*
X415400D03*
X388800D03*
X384400D03*
X349800D03*
X300300D03*
X295900D03*
X273400D03*
X269000D03*
X247300D03*
X242900D03*
X337800Y343000D03*
X312449Y342864D03*
X401708Y342261D03*
X271200Y341100D03*
X245100D03*
X439600Y341000D03*
X413200D03*
X386600D03*
X343800D03*
X298100D03*
X269121Y338821D03*
X441800Y338800D03*
X437400D03*
X415400D03*
X411100D03*
X388800D03*
X384400D03*
X321690D03*
X300300D03*
X295900D03*
X273400D03*
X247400D03*
X242900D03*
X349800Y338700D03*
X337900Y338600D03*
X357190Y338440D03*
X343800Y336700D03*
X439600Y336600D03*
X413200D03*
X386600D03*
X298100D03*
X245100D03*
X437400Y334373D03*
X415379Y334221D03*
X388779D03*
X441800Y334200D03*
X411000D03*
X384400D03*
X337900D03*
X300300D03*
X295900D03*
X273500D03*
X247400D03*
X242884D03*
X321690Y334120D03*
X349800Y334100D03*
X309616Y333859D03*
X397571Y333190D03*
X258806Y333030D03*
X450720Y333020D03*
X457780Y332650D03*
X245100Y332100D03*
X386597Y332080D03*
X439662Y332038D03*
X413200Y332000D03*
X298100D03*
X271300D03*
X343600Y331900D03*
X289618Y329963D03*
X305336Y329907D03*
X447639Y329905D03*
X308492Y329904D03*
X411000Y329900D03*
X233600Y329895D03*
X236820Y329892D03*
X269058Y329842D03*
X441800Y329835D03*
X378568Y329821D03*
X437400Y329800D03*
X384400D03*
X349600D03*
X337800D03*
X295900D03*
X273400D03*
X242900Y329700D03*
X317031Y329114D03*
X455388Y328300D03*
X271200Y327700D03*
X439600Y327600D03*
X343900D03*
X450720Y326730D03*
X428680D03*
X394270D03*
X255720D03*
X305374Y326725D03*
X435570Y325950D03*
X337800Y325400D03*
X260633Y325400D03*
X349800Y325300D03*
X266365Y323685D03*
X405000Y323673D03*
X378447Y323624D03*
X289630Y323580D03*
X450676Y323528D03*
X428629D03*
X286524D03*
X343900Y323100D03*
X299533Y321551D03*
X428720Y320470D03*
X375413Y320462D03*
X292689Y320436D03*
X447570Y320430D03*
X394270D03*
X308520D03*
X252570D03*
X233680D03*
X425527Y320378D03*
X305326D03*
X321690Y320370D03*
X295984Y319106D03*
X435570Y318850D03*
X382270D03*
X301630D03*
X356299Y317417D03*
X444470Y317320D03*
X394230D03*
X249470D03*
X330200Y317300D03*
X252570Y317280D03*
X390776Y317229D03*
X378478D03*
X294180Y316612D03*
X447570Y314130D03*
X428680D03*
X397420D03*
X378530D03*
X308520D03*
X286480D03*
X233680D03*
X305370Y314127D03*
X347500Y313000D03*
X314203Y312612D03*
X394270Y310980D03*
X378530D03*
X428682Y310926D03*
X386293Y310917D03*
X443795Y309402D03*
X390540D03*
X301640D03*
X378480Y307870D03*
X447570Y307830D03*
X428680D03*
X308520D03*
X286480D03*
X255720D03*
X233680D03*
X394230Y307780D03*
X252530D03*
X293570Y307720D03*
X356339Y306973D03*
X301630Y304780D03*
X446000Y304090D03*
X433400D03*
X238400D03*
X323011Y302820D03*
X344470Y301020D03*
X369188Y299813D03*
X364200Y299600D03*
X402490Y299459D03*
X341700Y297100D03*
X442233Y296907D03*
X411665Y295651D03*
X339200Y295000D03*
X427089Y294596D03*
X356100Y293500D03*
X265862Y293476D03*
X245430Y292523D03*
X335480Y290200D03*
X362516Y288362D03*
X285780Y288022D03*
X299533Y287714D03*
X404890Y287009D03*
X376905Y286847D03*
X293981Y286051D03*
X278484Y285997D03*
X360900Y285700D03*
X325000Y285000D03*
X373833Y284903D03*
X307728Y284378D03*
X354300Y284200D03*
X299921Y283309D03*
X295984D03*
X354904Y280586D03*
X297953Y280502D03*
X398984Y280009D03*
X276849Y280000D03*
X326100Y279200D03*
X374809Y278486D03*
X393079Y278253D03*
X292047Y276746D03*
X340064Y270128D03*
X337000Y269928D03*
X353390Y269362D03*
X324579D03*
X297953D03*
X293330D03*
X290079D03*
X368421Y268872D03*
X364484D03*
X315453D03*
X311509D03*
X301890D03*
X282421D03*
X278484D03*
X362516Y262189D03*
X351421Y262181D03*
X309547Y262144D03*
X305610D03*
X295984D03*
X292047D03*
X299921Y262096D03*
X284390Y262057D03*
X280453D03*
X332453Y262054D03*
X328494Y261943D03*
X381484Y261496D03*
X375579Y261440D03*
X370390Y261369D03*
X366453D03*
X330484Y259172D03*
X284390Y257924D03*
X348999Y257798D03*
X369907Y257192D03*
X373818Y257104D03*
X314992Y257078D03*
X365970Y257078D03*
X354159D03*
X318936D03*
X307322D03*
X314733Y253510D03*
X350242Y253407D03*
X310771Y253401D03*
X326600Y253370D03*
X307348Y253282D03*
X369907Y253259D03*
X346438Y253245D03*
X373818Y253167D03*
X354566Y253141D03*
X342348D03*
X338385Y249637D03*
X291150Y249430D03*
X307322Y249318D03*
X303385D03*
X369907Y249236D03*
X358096Y249231D03*
X373818Y249230D03*
X342322D03*
X334448D03*
X322637D03*
X365970Y249220D03*
X354159Y249204D03*
X350425D03*
X346285D03*
X330537D03*
X326600D03*
X314992D03*
X311259D03*
X362033Y245726D03*
X330917Y245517D03*
X291313Y245504D03*
X366180Y245500D03*
X295330Y245477D03*
X334727Y245473D03*
X326574Y245293D03*
X322637D03*
X299401D03*
X370314Y245267D03*
X358096D03*
X354159D03*
X338818D03*
X303385D03*
G54D24*
X102349Y-42476D03*
X357349Y-32476D03*
X347349D03*
X327349D03*
X317349D03*
X307349D03*
X287349D03*
X257349D03*
X247349D03*
X227349D03*
X217349D03*
X197349D03*
X187349D03*
X167349D03*
X157349D03*
X147349D03*
X117349D03*
X77349D03*
X362349Y-42476D03*
X352349D03*
X342349D03*
X332349D03*
X322349D03*
X312349D03*
X302349D03*
X272349D03*
X262349D03*
X252349D03*
X242349D03*
X232349D03*
X222349D03*
X212349D03*
X202349D03*
X192349D03*
X182349D03*
X172349D03*
X162349D03*
X82349D03*
X347349Y-52476D03*
X337349D03*
X327349D03*
X317349D03*
X297349D03*
X267349D03*
X257349D03*
X237349D03*
X187349D03*
X157349D03*
X147349D03*
X77349D03*
X362349Y-62476D03*
X352349D03*
X332349D03*
X322349D03*
X312349D03*
X302349D03*
X292349D03*
X262349D03*
X242349D03*
X232349D03*
X212349D03*
X202349D03*
X192349D03*
X182349D03*
X162349D03*
X152349D03*
X142349D03*
X122349D03*
X112349D03*
X82349D03*
%LPD*%
G75*
G36*
G01X10783Y86755D02*
G03Y91245I6217J2245D01*
G02X10002Y91381I-378J137D01*
G01Y105845D01*
X10648Y106491D01*
X28076D01*
X28130Y106374D01*
G03X30870I1370J635D01*
G01X30924Y106491D01*
X47448D01*
X47450Y106491D01*
G03X47530I40J1509D01*
G01X47533Y106491D01*
X79001D01*
X86961Y114451D01*
X93569D01*
X109959Y130841D01*
X110005Y130856D01*
G03X110853Y131703I-400J1247D01*
G01X110868Y131750D01*
X112984Y133866D01*
X113041Y133879D01*
G03X114033Y134871I-286J1278D01*
G01X114046Y134928D01*
X114424Y135306D01*
X114618Y135113D01*
X114624Y135040D01*
G03X115280Y136294I1304J117D01*
G01X115146Y136218D01*
X114896Y136469D01*
X115535Y137108D01*
X115645Y137082D01*
G03X117226Y138662I308J1273D01*
G01X117199Y138772D01*
X117714Y139287D01*
X117960Y139041D01*
X117892Y138910D01*
G03X119023Y139616I1162J-604D01*
G02X118729Y140302I-10J402D01*
G01X118962Y140535D01*
X121270D01*
X121327Y140483D01*
G03X123081I877J973D01*
G01X123138Y140535D01*
X127569D01*
X127627Y140483D01*
G03X129756Y141838I877J973D01*
G01X129721Y141953D01*
X131156Y143388D01*
X131271Y143353D01*
G03X132906Y144987I381J1253D01*
G01X132871Y145103D01*
X133185Y145417D01*
Y147964D01*
X132824Y148325D01*
X132809Y148355D01*
G03X132220Y148944I-1173J-583D01*
G01X132190Y148959D01*
X131620Y149529D01*
X129914D01*
G02X129584Y150161I0J402D01*
G03X127436I-1074J749D01*
G02X127106Y149529I-330J-230D01*
G01X126777D01*
G02X126463Y150182I0J402D01*
G03X124417I-1023J818D01*
G02X124103Y149529I-314J-251D01*
G01X114910D01*
X111227Y153212D01*
Y154686D01*
X112478Y155936D01*
X112580Y155919D01*
G03X114091Y157430I220J1291D01*
G01X114073Y157532D01*
X115225Y158684D01*
X116664D01*
X117575Y159595D01*
Y161279D01*
X116837Y162017D01*
G02X116837Y162585I284J284D01*
G03X114985Y164437I-927J925D01*
G02X114417Y164437I-284J285D01*
G01X114278Y164576D01*
Y167523D01*
X115015Y168260D01*
X116593D01*
X117540Y169207D01*
Y171627D01*
X116945Y172222D01*
X117028Y172357D01*
G03X115227Y174158I-1117J683D01*
G01X115092Y174075D01*
X114349Y174818D01*
Y184383D01*
G02X115036Y184667I402J0D01*
G03Y186513I929J923D01*
G02X114349Y186797I-285J283D01*
G01Y190590D01*
G02X115023Y190886I402J0D01*
G03Y192814I887J964D01*
G02X114349Y193110I-272J296D01*
G01Y199863D01*
X118767D01*
X121889Y196741D01*
X122232D01*
Y196362D01*
X122055Y196340D01*
G03X123063Y196034I155J-1300D01*
G02X123324Y196741I262J305D01*
G01X146240D01*
G02X146515Y196046I0J-402D01*
G03X148305I895J-956D01*
G02X148580Y196741I275J293D01*
G01X149390D01*
G02X149665Y196046I0J-402D01*
G03X151455I895J-956D01*
G02X151730Y196741I275J293D01*
G01X161525D01*
Y193270D01*
G02X160863Y192964I-402J0D01*
G03Y190964I-846J-1000D01*
G02X161525Y190657I260J-307D01*
G01Y186835D01*
G02X160868Y186524I-402J0D01*
G03Y184498I-830J-1013D01*
G02X161525Y184187I255J-311D01*
G01Y177475D01*
G02X160880Y177154I-402J0D01*
G03Y175066I-790J-1044D01*
G02X161525Y174745I243J-321D01*
G01Y171227D01*
G02X160870Y170915I-402J0D01*
G03Y168879I-824J-1018D01*
G02X161525Y168567I253J-312D01*
G01Y168047D01*
G02X160876Y167729I-402J0D01*
G03Y165661I-803J-1034D01*
G02X161525Y165343I247J-318D01*
G01Y161701D01*
G02X160879Y161382I-402J0D01*
G03Y159302I-796J-1040D01*
G02X161525Y158982I244J-319D01*
G01Y158575D01*
G02X160880Y158254I-402J0D01*
G03X161400Y157203I-790J-1044D01*
G01X161400Y157286D01*
X161601Y157486D01*
X161848Y157239D01*
X161856Y157169D01*
G03X163018Y156006I1302J140D01*
G01X163088Y155999D01*
X164752Y154335D01*
Y152179D01*
G02X164078Y151883I-402J0D01*
G03X163795Y149759I-888J-963D01*
G01X163926Y149827D01*
X164172Y149580D01*
X163652Y149060D01*
X163543Y149085D01*
G03X161969Y147511I-299J-1275D01*
G01X161994Y147402D01*
X160894Y146302D01*
X159666D01*
X158164Y147804D01*
X158157Y147876D01*
G03X156978Y149055I-1304J-124D01*
G01X156906Y149062D01*
X156439Y149529D01*
X155898D01*
Y149723D01*
X155351Y150270D01*
X152419D01*
X152385Y150236D01*
X150203D01*
X149496Y149529D01*
X142514D01*
G02X142184Y150161I0J402D01*
G03X141174Y149602I-1074J749D01*
G02X141596Y149201I20J-401D01*
G01Y143166D01*
G02X141178Y142765I-402J0D01*
G03X141320Y140161I-52J-1309D01*
G01X141420Y140176D01*
X141634Y139962D01*
X141279Y139607D01*
X141188Y139613D01*
G03X139795Y138220I-86J-1307D01*
G01X139801Y138129D01*
X139442Y137770D01*
X139226Y137985D01*
X139243Y138087D01*
G03X138171Y137015I-1291J219D01*
G01X138274Y137033D01*
X138489Y136817D01*
X138178Y136506D01*
X138091Y136510D01*
G03X137758Y136480I-49J-1309D01*
G01X137737Y136475D01*
X129789D01*
X126233Y132919D01*
Y132071D01*
X125194Y131032D01*
X125121Y131026D01*
G03X123930Y129834I113J-1305D01*
G01X123923Y129761D01*
X109569Y115407D01*
X103838D01*
X102352Y113921D01*
Y107340D01*
X91950Y96938D01*
X82185D01*
X82078Y97045D01*
X50344D01*
X39093Y85794D01*
Y69554D01*
X29541Y60002D01*
X10002D01*
Y86619D01*
G02X10783Y86755I402J0D01*
G37*
G36*
G01X140249Y123158D02*
X145189D01*
X147883Y125852D01*
Y130212D01*
X148006Y130264D01*
G03Y132677I-509J1206D01*
G01X147883Y132729D01*
Y137048D01*
X148006Y137100D01*
G03Y139513I-509J1206D01*
G01X147883Y139565D01*
Y140232D01*
X147993Y140288D01*
G03X148178Y142510I-592J1168D01*
G02X148132Y143118I238J324D01*
G01X148753Y143739D01*
Y144438D01*
X148754Y144450D01*
G03Y144760I-1300J155D01*
G01X148753Y144772D01*
Y145614D01*
X148255Y146112D01*
G02X148292Y146713I284J284D01*
G03X148757Y148071I-804J1033D01*
G01X148729Y148182D01*
X149129Y148582D01*
X149355Y148356D01*
X149322Y148242D01*
G03X150220Y149140I1259J-361D01*
G01X150106Y149107D01*
X149880Y149333D01*
X150265Y149718D01*
X150373Y149692D01*
G03X151270Y149804I297J1276D01*
G01X151313Y149826D01*
X152555D01*
X152589Y149860D01*
X155181D01*
X155488Y149553D01*
Y130223D01*
X155483Y130202D01*
G03Y129644I1280J-279D01*
G01X155488Y129623D01*
Y126568D01*
X146280Y117360D01*
X139904D01*
X137619Y119645D01*
Y120839D01*
X139737Y122957D01*
X139796Y122970D01*
G03X140201Y123129I-271J1281D01*
G01X140249Y123158D01*
G37*
%LPC*%
G75*
G36*
G01X146293Y164353D02*
G02X143691Y164511I-1293J207D01*
G03X143156Y164875I-402J-15D01*
G02X144029Y166159I-436J1235D01*
G03X144564Y165795I402J15D01*
G02X145038Y165869I436J-1235D01*
G03X145447Y166207I12J402D01*
G02X146702Y164691I1293J-207D01*
G03X146293Y164353I-12J-402D01*
G37*
G36*
G01X125973Y168509D02*
G02X125198Y167167I527J-1199D01*
G03X124637Y167491I-400J-44D01*
G02X123357Y167619I-527J1199D01*
G03X122777Y167490I-231J-329D01*
G02X122394Y169213I-1136J652D01*
G03X122974Y169342I231J329D01*
G02X125412Y168833I1136J-652D01*
G03X125973Y168509I400J44D01*
G37*
G36*
G01X132018Y179980D02*
G02X131367Y181078I-1309J-34D01*
G03X131971Y181436I202J348D01*
G02X132622Y180338I1309J34D01*
G03X132018Y179980I-202J-348D01*
G37*
G36*
G01X143369Y180700D02*
G02X143309Y182317I-1059J770D01*
G03X143941Y182340I307J260D01*
G02X144001Y180723I1059J-770D01*
G03X143369Y180700I-307J-260D01*
G37*
G54D23*
X29000Y90010D03*
X65010Y100000D03*
X84000Y107490D03*
X97990D03*
X87990Y111000D03*
G54D25*
X112000Y123204D03*
X122204Y131470D03*
X115953Y132055D03*
X119122Y132094D03*
X119055Y135157D03*
X122204D03*
X125449D03*
X122205Y138306D03*
X125354D03*
X131653D03*
X134803D03*
X131653Y141456D03*
X137952D03*
X134850Y144606D03*
X137957Y144671D03*
X138004Y147710D03*
X133667Y158500D03*
X142982Y158609D03*
X151318Y162507D03*
X123924Y162612D03*
X142309Y163020D03*
X131000Y165460D03*
X131050Y168690D03*
X150630D03*
X134890Y169810D03*
X141150Y169850D03*
X149972Y172605D03*
X141190Y173040D03*
X134848Y176099D03*
X119964Y176856D03*
X149500Y177490D03*
X156310Y177690D03*
X124173Y177733D03*
X128370Y183310D03*
X149500Y183490D03*
X129253Y186850D03*
X133310Y186890D03*
X142690Y187050D03*
X140397Y191476D03*
X135546Y191500D03*
X134810Y195000D03*
X128510Y195010D03*
X153700Y131135D03*
X150598Y132055D03*
X153700Y135157D03*
Y138306D03*
X150551Y141456D03*
X153748Y141504D03*
X150656Y144632D03*
%LPD*%
G75*
G54D10*
X26449Y-118274D03*
X41654Y352402D03*
X513534Y-116999D03*
X514094Y-37598D03*
X570210Y175337D03*
Y272537D03*
X485004Y359408D03*
G54D11*
X82349Y-42476D03*
X77349Y-52476D03*
X82349Y-62476D03*
X77349Y-32476D03*
X202349Y-62476D03*
X192349D03*
X182349D03*
X172349D03*
X162349D03*
X152349D03*
X142349D03*
X197349Y-52476D03*
X187349D03*
X177349D03*
X167349D03*
X157349D03*
X147349D03*
X202349Y-42476D03*
X192349D03*
X182349D03*
X172349D03*
X162349D03*
X152349D03*
X142349D03*
X122349D03*
X112349D03*
X102349D03*
X92349D03*
X127349Y-52476D03*
X117349D03*
X107349D03*
X97349D03*
X87349D03*
X122349Y-62476D03*
X112349D03*
X102349D03*
X92349D03*
X197349Y-32476D03*
X187349D03*
X177349D03*
X167349D03*
X157349D03*
X147349D03*
X127349D03*
X117349D03*
X107349D03*
X97349D03*
X87349D03*
X322349Y-62476D03*
X312349D03*
X302349D03*
X292349D03*
X282349D03*
X272349D03*
X262349D03*
X252349D03*
X242349D03*
X232349D03*
X222349D03*
X212349D03*
X317349Y-52476D03*
X307349D03*
X297349D03*
X287349D03*
X277349D03*
X267349D03*
X257349D03*
X247349D03*
X237349D03*
X227349D03*
X217349D03*
X207349D03*
X322349Y-42476D03*
X312349D03*
X302349D03*
X292349D03*
X282349D03*
X272349D03*
X262349D03*
X252349D03*
X242349D03*
X232349D03*
X222349D03*
X212349D03*
X317349Y-32476D03*
X307349D03*
X297349D03*
X287349D03*
X277349D03*
X267349D03*
X257349D03*
X247349D03*
X237349D03*
X227349D03*
X217349D03*
X207349D03*
X382349Y-62476D03*
X372349D03*
X362349D03*
X352349D03*
X342349D03*
X332349D03*
X377349Y-52476D03*
X367349D03*
X357349D03*
X347349D03*
X337349D03*
X327349D03*
X382349Y-42476D03*
X372349D03*
X362349D03*
X352349D03*
X342349D03*
X332349D03*
X377349Y-32476D03*
X367349D03*
X357349D03*
X347349D03*
X337349D03*
X327349D03*
G54D20*
X554284Y334837D03*
X580284D03*
G54D21*
X567916Y81060D03*
Y123160D03*
G54D12*
X58000Y29000D03*
Y49000D03*
Y69000D03*
X17000D03*
Y49000D03*
Y29000D03*
X58000Y89000D03*
X17000D03*
X17002Y318197D03*
Y298197D03*
Y278197D03*
Y258197D03*
X535500Y358500D03*
Y341500D03*
X518500D03*
Y358500D03*
G54D22*
G01X590500Y-138000D02*
Y374000D01*
X0D01*
Y-138000D01*
X590500D01*
G54D13*
X79287Y11285D03*
X69000Y64990D03*
Y34010D03*
X29000Y49010D03*
X72040Y20151D03*
X29000Y67990D03*
X69000Y47010D03*
X29000Y26991D03*
X42763Y130951D03*
X62716Y180043D03*
X53698Y177484D03*
X63905Y192839D03*
X66009Y163477D03*
X81509Y154163D03*
X25631Y172399D03*
X45932Y172588D03*
X41667Y165711D03*
X44168Y179364D03*
X41736Y197632D03*
Y194364D03*
X43261Y189481D03*
X41446Y187720D03*
Y182632D03*
X24739Y185161D03*
X41667Y162443D03*
Y159176D03*
X40784Y156694D03*
X34724Y139917D03*
X43482Y153240D03*
X44342Y143749D03*
X34000Y130521D03*
X55000Y134299D03*
X60509Y114000D03*
X29500Y107009D03*
X35746Y132961D03*
X21352Y200900D03*
X26377Y194364D03*
X42184Y170794D03*
X26554Y186975D03*
X24860Y178459D03*
X26214Y159176D03*
Y153979D03*
X24416Y150711D03*
Y147443D03*
X47490Y108000D03*
X62720Y196110D03*
X46000Y191490D03*
X68490Y189990D03*
X52000Y188330D03*
X68490Y187440D03*
Y165300D03*
X69760Y172700D03*
X62650Y166040D03*
X52000Y159490D03*
X53690Y174920D03*
X43270Y174930D03*
X45930Y159560D03*
X62650Y145560D03*
X68490Y121000D03*
X41380Y168380D03*
X68490Y128000D03*
X62650Y143000D03*
X37840Y139000D03*
X41380Y145570D03*
X55000Y121010D03*
X65010Y100000D03*
X47260Y125000D03*
X44000Y112490D03*
X34000Y119790D03*
X29980Y119500D03*
X29000Y90010D03*
X41736Y200900D03*
X26554Y197957D03*
X41446Y176940D03*
X68990Y100000D03*
X78000Y186990D03*
X80650Y179990D03*
X74500Y179710D03*
X68490Y157620D03*
X65060Y167000D03*
X78000Y160990D03*
X51210Y172510D03*
X67550Y147630D03*
Y144370D03*
Y141100D03*
X74580Y150830D03*
X53620Y172510D03*
X68490Y135000D03*
X81510Y128000D03*
X69000Y87010D03*
X23000Y113490D03*
X37740Y130553D03*
X64296Y153240D03*
X74572D03*
X64296Y155799D03*
X64195Y158359D03*
X77532Y167009D03*
X48991Y168824D03*
X52525Y238475D03*
X24844Y204282D03*
X42595Y316750D03*
X42659Y309108D03*
X62716Y219720D03*
Y227398D03*
Y224839D03*
X46000Y204510D03*
X36009Y242000D03*
X29288Y221309D03*
X41446Y212199D03*
X53341Y302000D03*
X62174Y297906D03*
X51332Y253912D03*
X62659Y269009D03*
X47195Y270346D03*
X76316Y308009D03*
X67409Y309585D03*
X60360Y290032D03*
X53341Y292000D03*
X60670Y293968D03*
X53341Y288063D03*
X60360Y284126D03*
X37937Y238662D03*
X41446Y230037D03*
Y227364D03*
X41736Y224096D03*
X44366Y212043D03*
X25767Y215632D03*
X23166Y224096D03*
Y212364D03*
X28368Y204276D03*
X24860Y209097D03*
X69286Y321505D03*
X38310Y206680D03*
X67820Y206610D03*
X74510Y317290D03*
Y305990D03*
X60360Y311690D03*
X74700Y292000D03*
X74510Y258000D03*
Y266000D03*
X31000Y284990D03*
X74510Y277990D03*
X60930Y272310D03*
X60360Y260500D03*
X36010Y264000D03*
X53690Y225950D03*
X50500Y217730D03*
X68490Y225000D03*
Y211140D03*
X44500Y223490D03*
X49620Y209440D03*
X68490Y218000D03*
X41450Y232520D03*
X52290Y206930D03*
X62720Y209490D03*
X60360Y303371D03*
X65657Y281629D03*
X47703Y295937D03*
X51638Y286094D03*
X51332Y313654D03*
X76519Y302754D03*
X62769D03*
X67534Y251160D03*
X53341Y258535D03*
X60360Y256567D03*
X61515Y247729D03*
X29288Y206687D03*
X31000Y281010D03*
X62720Y203080D03*
X49390Y204510D03*
X65000Y320010D03*
X60360Y317590D03*
X65000Y310000D03*
X51940Y305780D03*
X62990Y292000D03*
X53340Y278220D03*
X65000Y274990D03*
Y251200D03*
X53340Y266400D03*
X65000Y271110D03*
X53340Y255930D03*
Y250660D03*
X40390Y268510D03*
X62720Y232520D03*
X81510Y211000D03*
X49010Y242000D03*
X50500Y236510D03*
X62720Y235070D03*
X45980Y217620D03*
X53690Y204520D03*
X39990Y253000D03*
X62716Y222280D03*
X64020Y284029D03*
X68082Y284757D03*
X81699Y244695D03*
X77805Y214795D03*
X48844Y259601D03*
X47197Y326644D03*
X44603Y323814D03*
X49767Y329225D03*
X60957Y334581D03*
X53341Y329003D03*
X48326Y323436D03*
X16991Y362000D03*
X74510Y332000D03*
X53340Y323500D03*
X31000Y322010D03*
X60649Y325465D03*
X79695Y327433D03*
X60360Y329400D03*
X61490Y332000D03*
X80406Y323286D03*
X157349Y-46107D03*
X152349Y-81608D03*
X172108Y-50662D03*
X197100Y-84990D03*
X167100D03*
X175714Y-66641D03*
X117349Y-47235D03*
X197100Y-71960D03*
X167100D03*
X129100Y-84990D03*
X137100D03*
X121100D03*
X149000Y32897D03*
X121557Y-7951D03*
X153669Y20151D03*
X153587Y22836D03*
X147563Y9376D03*
X184036Y65280D03*
X187308Y67229D03*
X112500Y9647D03*
X117494Y21316D03*
X131388Y9701D03*
X129760Y7747D03*
X82051Y47477D03*
X96001Y54630D03*
X92472Y53285D03*
X103165Y63163D03*
X129000Y32280D03*
X173066Y78650D03*
X192798Y72709D03*
X182638Y-21459D03*
X151783Y10132D03*
X104611Y-12814D03*
X112177D03*
X141858Y43349D03*
Y20151D03*
X147186Y69940D03*
X145795Y20151D03*
X120205Y31509D03*
X160491Y54200D03*
X95858Y28331D03*
X136756Y-28311D03*
X97814Y32670D03*
X193402Y-23769D03*
X96583Y10132D03*
X149000Y36138D03*
X157606Y20151D03*
X145371Y60991D03*
X165737Y-23347D03*
X159575Y10132D03*
X163512D03*
X183679Y46047D03*
X192748Y12363D03*
X162685Y46796D03*
X173660Y63481D03*
X184488Y56695D03*
X175616Y81503D03*
X191594Y28177D03*
X173509Y67500D03*
X147010Y75000D03*
X105110Y32990D03*
X163990Y30000D03*
X183680Y38220D03*
X159680Y67000D03*
X131540Y76580D03*
X160490Y51000D03*
X164000Y32990D03*
X173650Y51950D03*
X144000Y65490D03*
X142010Y48560D03*
X104010Y77840D03*
X165490Y20160D03*
X184900Y2480D03*
X101000Y65490D03*
X152090Y-7940D03*
X100520Y10130D03*
X102000Y32510D03*
X92350Y30300D03*
X110966Y43931D03*
X102349Y-9269D03*
X94186Y67000D03*
X186060Y54003D03*
X197978Y-12896D03*
X183679Y49770D03*
X190984Y49984D03*
X183273Y76836D03*
X173660Y48016D03*
X198399D03*
X173660Y44079D03*
X179440Y1773D03*
X183679Y42110D03*
X190984D03*
X173660Y40229D03*
X155485Y56459D03*
X183679Y34190D03*
X173660Y32268D03*
X159186Y69409D03*
X190390Y10548D03*
X173660Y28331D03*
X155991Y61409D03*
X186912Y13257D03*
X183679Y26362D03*
X173660Y24394D03*
X169417Y20151D03*
X161543D03*
X153360Y38196D03*
X114000Y34324D03*
X135953Y10132D03*
X129610Y36138D03*
X143673Y-9830D03*
X134135Y20151D03*
X132016Y21854D03*
X126110Y10132D03*
X132108Y-31283D03*
X124142Y20151D03*
X122173Y10132D03*
X190934Y-8016D03*
X120205Y20151D03*
X125956Y26565D03*
X120205Y-5957D03*
X118236Y8123D03*
Y-17357D03*
X108394Y10132D03*
X112177Y6308D03*
X163328Y-23273D03*
X106425Y20151D03*
X104457Y6110D03*
X97695Y20151D03*
X92340Y23953D03*
X94043Y26362D03*
X98397Y-19177D03*
X124796Y-26382D03*
X183679Y30299D03*
X199604Y29705D03*
X155638Y10132D03*
X137921Y20151D03*
X148873Y-1855D03*
X110362Y20151D03*
X139890Y10132D03*
Y60991D03*
X92340Y38327D03*
Y42110D03*
X143827Y10132D03*
X133864Y40393D03*
X155126Y-41D03*
X177737D03*
X199947Y-14711D03*
X92350Y49980D03*
X125990Y23010D03*
X173510Y36000D03*
X185690Y36200D03*
X184050Y52180D03*
X172310Y54360D03*
X170010Y24000D03*
X167450Y10130D03*
X121000Y65490D03*
X104010Y75000D03*
X180620Y-4380D03*
X121000Y43140D03*
X152090Y-21460D03*
X92370Y35910D03*
X106210Y23000D03*
X82320Y32270D03*
X100530Y7720D03*
X122100Y-20990D03*
X140009Y70390D03*
X155991Y59000D03*
X200920Y-17119D03*
X201152Y42497D03*
X196255Y36994D03*
X161552Y71818D03*
X185298Y61667D03*
X140620Y120960D03*
X139525Y124251D03*
X122102Y110029D03*
X126022Y103583D03*
X125988Y107027D03*
X118588Y98263D03*
X118693Y107408D03*
X153935Y121025D03*
X192110Y122233D03*
X121901Y122813D03*
X85969Y121037D03*
X161000Y107491D03*
X131419Y172702D03*
X191043Y174000D03*
X144252Y131769D03*
X141104Y131796D03*
X139231Y129218D03*
X138011Y131606D03*
X156763Y129923D03*
X160046Y195082D03*
X125418Y147780D03*
X96407Y129570D03*
X100535Y130495D03*
X95919Y131850D03*
X150656Y144632D03*
X147454Y144605D03*
X144280Y144577D03*
X163222Y160330D03*
X160083Y160342D03*
X166342Y160345D03*
X160073Y166695D03*
X160046Y169897D03*
X163233Y169910D03*
X163167Y173046D03*
X103382Y188813D03*
X122216Y201323D03*
X125365Y198256D03*
X172557Y188756D03*
X169517Y188758D03*
X172598Y191850D03*
X163276Y188758D03*
X172621Y195118D03*
X166321Y191866D03*
X150629Y201283D03*
X163144Y195090D03*
X166293Y195090D03*
X163181Y185570D03*
X163167Y182462D03*
X163126Y179274D03*
X160018Y191964D03*
X175773Y169829D03*
X181251Y157189D03*
X179043Y157251D03*
X175759Y154130D03*
X175786Y138282D03*
X180780Y134238D03*
X179259Y132387D03*
X169490Y141511D03*
X169436Y138390D03*
X109624Y138309D03*
X119122Y132094D03*
X115920Y144659D03*
X115910Y160360D03*
X112835Y160466D03*
X115925Y157184D03*
X95781Y151994D03*
X95892Y149788D03*
X103328Y150928D03*
X100207D03*
X138041Y135201D03*
X141145D03*
X131636Y147772D03*
X128570Y147726D03*
X144350Y147758D03*
X125463Y144674D03*
X128600Y144607D03*
X112785Y179377D03*
X112752Y182486D03*
X112772Y166637D03*
X112844Y163514D03*
X160057Y201434D03*
X156923Y201417D03*
X163204Y201404D03*
X163209Y198267D03*
X160052Y198197D03*
X156854D03*
X169487Y201371D03*
X140410Y154690D03*
X137957Y144671D03*
X138004Y147710D03*
X160129Y147789D03*
X156854Y147751D03*
X163244Y147810D03*
X147488Y147747D03*
X156930Y144619D03*
X150581Y147881D03*
X137884Y185096D03*
X123924Y162612D03*
X133667Y158500D03*
X151318Y162507D03*
X151830Y183973D03*
X154478Y183521D03*
X106414Y173007D03*
X103297Y173038D03*
X100181Y173068D03*
Y176155D03*
X96779Y176225D03*
X109710Y182409D03*
X109651Y185590D03*
X119964Y176856D03*
X124173Y177733D03*
X121612Y178610D03*
X120622Y183556D03*
X115965Y185590D03*
X109616Y195095D03*
X109722Y191904D03*
X109651Y188747D03*
X112808Y185625D03*
X109606Y176150D03*
X109701Y169850D03*
X106552Y169803D03*
X103402D03*
X106456Y166653D03*
X103307Y163503D03*
X92527Y165077D03*
X88583Y176029D03*
X172598Y166653D03*
X189209Y159638D03*
X169448Y154055D03*
X172598Y154150D03*
X178897Y144606D03*
X183679Y83911D03*
X172598Y150905D03*
X180399Y150892D03*
X172598Y147851D03*
X181154Y153101D03*
X175843Y147755D03*
Y144606D03*
X183524Y161153D03*
X166346Y166653D03*
X166394Y172952D03*
X173066Y87254D03*
X166299Y179251D03*
X183524Y169923D03*
X169448Y179251D03*
X166394Y182401D03*
X169544D03*
X189209Y180825D03*
X172598Y185551D03*
X172646Y201346D03*
X175748D03*
X172646Y198245D03*
X169448Y191850D03*
X106504Y195047D03*
X106456Y198149D03*
X103307Y201299D03*
X138048Y201394D03*
X144251Y138306D03*
X181679Y89986D03*
X131532Y129026D03*
X115953Y132055D03*
X122204Y141456D03*
X144251D03*
X150598Y132055D03*
X147497Y138306D03*
X147697Y97002D03*
X163197Y141456D03*
X109606Y135157D03*
X132016Y87868D03*
X192490Y144044D03*
X175795Y132055D03*
X192490Y139158D03*
X189075Y144044D03*
X134850Y144606D03*
X131653Y198197D03*
X93252Y190335D03*
X163149Y135205D03*
X95700Y144763D03*
X112000Y123204D03*
X106552Y147851D03*
X84955Y144366D03*
X103402Y144701D03*
X131653Y201394D03*
X109606Y179347D03*
X175616Y99232D03*
X106552Y138354D03*
X190984Y92185D03*
X182248Y102195D03*
X109701Y141456D03*
X126000Y122509D03*
X141126Y141456D03*
X147803Y92779D03*
X86769Y135000D03*
X112755Y135157D03*
Y138306D03*
X147401Y201346D03*
X169448Y132055D03*
X84339Y190032D03*
X103402Y176102D03*
X86769Y182559D03*
X100157Y188796D03*
X106456Y176102D03*
X89906Y133570D03*
X109606Y132103D03*
X86769Y150902D03*
X112755Y141552D03*
X103350Y135200D03*
X106550Y135160D03*
X97100Y191900D03*
X103400Y185640D03*
X141110Y198150D03*
X179570Y165850D03*
X178900Y172960D03*
X150590Y198240D03*
X172690Y173040D03*
X134810Y195000D03*
X100200Y138380D03*
X96470Y139870D03*
X106460Y144610D03*
X154010Y107490D03*
X106550Y188710D03*
X166390Y141460D03*
X166360Y144700D03*
X122210Y195040D03*
X128510Y198150D03*
X122290Y198240D03*
X137960Y198150D03*
X147410Y195090D03*
X150560D03*
X142690Y187050D03*
X122260Y147850D03*
X109700Y160360D03*
X115910Y163510D03*
X128510Y150910D03*
X112800Y172960D03*
X115910Y173040D03*
X126500Y167310D03*
X131000Y165460D03*
X124110Y168690D03*
X166350Y135160D03*
X160090Y144610D03*
X115910Y191850D03*
X128370Y183310D03*
X146740Y166000D03*
X160090Y157210D03*
X150630Y168690D03*
X163190Y150920D03*
X141110Y150910D03*
X145000Y164560D03*
X149500Y177490D03*
Y183490D03*
X134890Y169810D03*
X131050Y168690D03*
X141150Y169850D03*
X156310Y177690D03*
X179530Y177670D03*
X160090Y176110D03*
X115910Y201300D03*
X97050Y201350D03*
X112800Y157210D03*
X96470Y168280D03*
X131600Y131470D03*
X96470Y155680D03*
X133310Y186890D03*
X189000Y107490D03*
X128510Y195010D03*
X175000Y107490D03*
X125440Y151000D03*
X182000Y107490D03*
X139990Y101640D03*
X133000Y107490D03*
X112000D03*
X97990D03*
X135950Y87870D03*
X84000Y107490D03*
X87990Y111000D03*
X133280Y181470D03*
X142720Y166110D03*
X142310Y181470D03*
X141190Y173040D03*
X116001Y141552D03*
X131653Y144606D03*
X130709Y179946D03*
X163245Y138306D03*
X181154Y131251D03*
X160095Y135157D03*
X156945Y138306D03*
X160095Y132103D03*
X156850Y141552D03*
Y135157D03*
X153700D03*
Y138306D03*
X153700Y131135D03*
X150551Y141456D03*
X147401D03*
X144251Y129026D03*
X134803Y138306D03*
Y135157D03*
X131653Y141456D03*
Y135157D03*
Y138306D03*
X125449Y135157D03*
X128504Y141456D03*
X125234Y129721D03*
X125354Y138306D03*
X122204Y131470D03*
X122205Y138306D03*
X119055Y135157D03*
X115929D03*
X119055Y138306D03*
X101767Y92019D03*
X194899Y104337D03*
X195100Y113877D03*
X161000Y105082D03*
X153748Y141504D03*
X147497Y131470D03*
X149511Y95188D03*
X161060D03*
X198729Y113877D03*
X134850Y132055D03*
X122204Y135157D03*
X137952Y141456D03*
X119150Y144606D03*
X106019Y89682D03*
X173066Y84845D03*
X189000Y104604D03*
X115953Y138354D03*
X142309Y163020D03*
X144251Y135253D03*
X137952Y138306D03*
X141102D03*
X133036Y104268D03*
X144251Y201299D03*
X100157Y201346D03*
X103307Y198245D03*
Y194999D03*
X100157D03*
X106552Y191850D03*
X100157Y191898D03*
X181130Y196622D03*
X169448Y198149D03*
X141110Y195000D03*
X137960D03*
X125360D03*
X119060Y198150D03*
X133310Y191310D03*
X144340Y195000D03*
X119060D03*
Y150910D03*
X119690Y174570D03*
X133690Y161770D03*
X163150Y154060D03*
X154490Y168510D03*
X131660Y195000D03*
X155950Y171430D03*
X115910Y195000D03*
X126970Y162310D03*
X134810Y166740D03*
X138040Y169810D03*
X156310Y174570D03*
X141110Y176110D03*
X147500Y168490D03*
X144890Y171430D03*
Y175970D03*
X144260Y198150D03*
X192120Y181000D03*
X96470Y136780D03*
X103310Y138310D03*
X106460Y141460D03*
X119060Y201300D03*
X134810Y198150D03*
X122210Y144700D03*
X166350Y185560D03*
X112760Y144700D03*
X192490Y166990D03*
Y160000D03*
Y129650D03*
X189000Y120510D03*
X182000D03*
X175000D03*
X105000Y107490D03*
X91000Y120510D03*
X82210Y121000D03*
X100520Y88800D03*
X112800Y198200D03*
X166350Y201350D03*
X169544Y185598D03*
X172598Y182413D03*
X172694Y179251D03*
X169448Y176102D03*
X166299D03*
X181399Y94241D03*
X169544Y172952D03*
X172598Y169803D03*
X169448D03*
X187560Y139901D03*
Y131810D03*
X172694Y144606D03*
X174281Y125690D03*
X169544Y147851D03*
X181106Y144714D03*
X191483Y150638D03*
X169544Y151001D03*
X196899Y88172D03*
X175748Y157204D03*
X169544Y160354D03*
X172693Y157204D03*
X172598Y160354D03*
X182054Y165848D03*
X175843Y166653D03*
X169544D03*
X201154Y99388D03*
X163245Y163503D03*
Y166653D03*
X166346Y163503D03*
X106456Y157204D03*
X93945Y160341D03*
X106456Y163503D03*
X109606Y166653D03*
X91612Y169790D03*
X145000Y181570D03*
X153758Y198129D03*
X160038Y185511D03*
X146187Y179100D03*
X160079Y182513D03*
X160114Y163580D03*
X156866Y163560D03*
X149972Y172605D03*
X138058Y173003D03*
X115901Y147759D03*
X112795Y154116D03*
X115943Y150948D03*
X115927Y154172D03*
X119948Y162484D03*
X109647Y154156D03*
X109687Y151008D03*
X109689Y147742D03*
X109686Y144590D03*
X109687Y157304D03*
X121641Y168142D03*
X120167Y170852D03*
X115944Y166788D03*
X131683Y151008D03*
X142561Y155312D03*
X160090Y150910D03*
X166350Y147807D03*
X163161Y144633D03*
X166367Y151028D03*
X166309Y154156D03*
X160053Y154076D03*
X163158Y157308D03*
X175826Y135140D03*
X175884Y172992D03*
X175833Y191871D03*
X179020Y191831D03*
X179897Y201175D03*
X129253Y186850D03*
X123595Y183005D03*
X128634Y201333D03*
X115903Y188743D03*
X106500Y201374D03*
X109713Y201310D03*
X134865Y173082D03*
X163249Y176106D03*
X153830Y147788D03*
X150670Y150968D03*
X135546Y191500D03*
X142575Y189256D03*
X140397Y191476D03*
X142982Y158609D03*
X134848Y176099D03*
X161911Y292000D03*
X131913Y248954D03*
X160426Y315222D03*
X99474Y279400D03*
X175189Y255898D03*
X163303Y261760D03*
X163274Y272315D03*
X106476Y207701D03*
X103268Y207635D03*
X103300Y204528D03*
X100283Y214121D03*
X95864Y213900D03*
X175152Y214735D03*
X169505Y204528D03*
X141114Y210844D03*
X137992D03*
X140627Y301842D03*
X133704Y246964D03*
X96011Y297981D03*
X190989Y278375D03*
X129567Y292154D03*
X136000Y243446D03*
X194309Y268378D03*
X175748Y204496D03*
X191669Y251576D03*
X172646Y204496D03*
X170649Y258535D03*
Y262472D03*
X198450Y226009D03*
X159712Y264441D03*
X170649Y270346D03*
X159926Y216974D03*
X181337D03*
X159999Y204448D03*
X185696Y202934D03*
X159999Y207598D03*
X190154Y315622D03*
X156079Y270478D03*
X163149Y204448D03*
X186814Y222950D03*
X172646Y210748D03*
X174929Y219205D03*
X106659Y269162D03*
X99640Y262472D03*
X109606Y207694D03*
X99640Y252630D03*
X112755Y210748D03*
X115905D03*
Y204448D03*
X117528Y214656D03*
X119055Y204448D03*
X115899Y297906D03*
Y241509D03*
X150551Y204448D03*
X190668Y202000D03*
X153748Y207598D03*
Y210748D03*
Y213897D03*
X170360Y289877D03*
X156079Y245150D03*
X153670Y243446D03*
X151704Y272315D03*
X149890Y245150D03*
X147921Y243446D03*
X193398Y280314D03*
X159708Y276406D03*
X145953Y245150D03*
X123708Y305625D03*
X143984Y247559D03*
X99640Y276334D03*
X201446Y290032D03*
X142016Y245456D03*
X140047Y286249D03*
Y243446D03*
X201150Y286094D03*
X138079Y280779D03*
X99640Y286094D03*
X138079Y245150D03*
X128827Y270490D03*
X134101Y241509D03*
X113890Y246853D03*
X121893Y254617D03*
X158800Y284126D03*
X200464Y280189D03*
X131890Y245150D03*
X199550Y246330D03*
X157893Y266255D03*
X133591Y307440D03*
X125984Y263527D03*
X137220Y303811D03*
X120079Y243446D03*
X117055Y303811D03*
X122204Y207694D03*
X131653Y210748D03*
X114365Y223876D03*
X122204Y210748D03*
X156850Y207598D03*
X145799Y228491D03*
X122300Y204448D03*
X122252Y213897D03*
X119102Y210748D03*
X160016Y228554D03*
X153748Y204448D03*
X156777Y217668D03*
X150551Y207598D03*
X149890Y223671D03*
X147401Y207598D03*
X147921Y218705D03*
X147401Y210748D03*
X151856Y246853D03*
X144251Y204448D03*
X143984Y225485D03*
X144251Y207598D03*
X141197Y204544D03*
X142616Y221370D03*
X141102Y207598D03*
X137952Y221376D03*
X138233Y225219D03*
X141102Y213897D03*
X137832Y218354D03*
X134803Y204448D03*
X113890Y226589D03*
X134803Y207598D03*
X130018Y222314D03*
X131653Y207598D03*
X125354Y204448D03*
X104650Y222361D03*
X125449Y207598D03*
Y210759D03*
X129481Y228491D03*
X147401Y204496D03*
X132991Y235572D03*
X144189Y217746D03*
X125881Y235572D03*
X134803Y210748D03*
Y213897D03*
X124067Y227821D03*
X131653Y204544D03*
X124067Y224854D03*
X118110Y226705D03*
X128503Y204544D03*
X126976Y214530D03*
X131890Y227504D03*
X178010Y214530D03*
X175750Y207600D03*
X164770Y214530D03*
X169500Y207600D03*
X120680Y215940D03*
X195370Y311640D03*
X184110Y321510D03*
X184510Y305500D03*
X194300Y272490D03*
X192490Y258530D03*
X184510Y278500D03*
X196450Y232380D03*
X185000Y243920D03*
X184510Y267490D03*
X183820Y241510D03*
X184510Y252500D03*
X99640Y305780D03*
X167010Y236420D03*
X85490Y311640D03*
X99640Y317590D03*
X89000Y268990D03*
X85490Y260000D03*
X106660Y266410D03*
X94010Y241760D03*
X87000Y241510D03*
X199000Y233564D03*
X86171Y291692D03*
X97613Y239937D03*
X131861Y254738D03*
X94072Y207755D03*
X88583Y213945D03*
Y210033D03*
X92780Y315622D03*
X91560Y319559D03*
X84287Y202449D03*
X119055Y207598D03*
X115953Y207694D03*
X112755Y213897D03*
X112803Y204544D03*
X86171Y277164D03*
X163341Y320509D03*
X166375Y207598D03*
X166299Y204496D03*
X186519Y316729D03*
X163341Y255261D03*
X163149Y207598D03*
X171000Y247033D03*
X188333Y321528D03*
X159999Y210748D03*
X187121Y212262D03*
X156850Y204448D03*
X161527Y266675D03*
X163341Y268378D03*
X197430Y263509D03*
X174280Y271729D03*
X184634Y219205D03*
X87000Y228490D03*
X174990Y249490D03*
X175760Y210750D03*
X100160D03*
X163340Y278230D03*
X156850Y210750D03*
X109610Y204450D03*
X106460Y204540D03*
X163340Y317590D03*
X170360Y305780D03*
X171490Y318500D03*
X136000Y314990D03*
X172990Y295630D03*
X171490Y278330D03*
X201560Y240650D03*
X192490Y216000D03*
Y223000D03*
X95000Y317500D03*
X184990Y228490D03*
X192490Y209000D03*
X178000Y228490D03*
X170990Y241510D03*
X95000Y307990D03*
X139990Y236420D03*
X106680Y272310D03*
X96610Y228490D03*
X181730Y210738D03*
X178980Y210858D03*
X157145Y215042D03*
X147422Y214922D03*
X111921Y245039D03*
X110947Y247864D03*
X94197Y291963D03*
X131777Y301626D03*
X135352Y299812D03*
X139320Y291861D03*
X145953Y290764D03*
X153519Y286096D03*
X151767Y289973D03*
X110140Y285499D03*
X86128Y284757D03*
Y281129D03*
X112456Y282538D03*
X123316Y267387D03*
X195212Y283972D03*
X131382Y278274D03*
X122026Y292332D03*
X113959Y294094D03*
X113233Y289973D03*
X115047Y286150D03*
X127222Y250985D03*
X149736Y297906D03*
X157307Y293901D03*
X151704Y266608D03*
X141022Y259176D03*
X142170Y275991D03*
X155396Y291947D03*
X192912Y298273D03*
X191098Y300087D03*
X192464Y308558D03*
X195354Y295943D03*
X172179Y284159D03*
X173559Y308510D03*
X172796Y313922D03*
X170545Y311685D03*
X81930Y254770D03*
X100137Y223466D03*
X96089Y220347D03*
X99270Y292445D03*
Y260000D03*
Y272000D03*
Y268378D03*
Y256567D03*
X98426Y308432D03*
X99638Y311702D03*
X97721Y246514D03*
X112847Y207598D03*
X109608Y210760D03*
X106444Y210759D03*
X109587Y214304D03*
X107515Y250660D03*
Y254600D03*
X106811Y257156D03*
X106720Y260784D03*
X106653Y263192D03*
X107549Y320373D03*
X108371Y246319D03*
X106579Y244420D03*
X170917Y266409D03*
X107158Y224188D03*
X124424Y219887D03*
X123935Y215789D03*
X163331Y251144D03*
X170908Y252630D03*
X85242Y331753D03*
X178771Y367924D03*
X189192Y367816D03*
X162977Y365807D03*
X115194Y331398D03*
X182000Y327433D03*
X191972Y323548D03*
X172991Y327279D03*
X159322Y331370D03*
X189085Y344286D03*
X195491Y333000D03*
X189000Y364500D03*
X161137Y338116D03*
X150415Y357000D03*
X179990Y347010D03*
X166000Y359490D03*
X178010Y345000D03*
X195490Y323500D03*
X153990Y359490D03*
X190890Y331500D03*
X170360Y323500D03*
X136000Y327990D03*
X99640Y329400D03*
Y333340D03*
X84190Y323000D03*
X89800Y331370D03*
X178010Y359500D03*
X179990Y341000D03*
X189990Y354500D03*
X199000Y350010D03*
X167990Y354500D03*
X160000Y359490D03*
X165500Y339990D03*
X170360Y329400D03*
X163340Y333330D03*
X171490Y333190D03*
X99640Y323500D03*
X277108Y-60125D03*
X202108Y-54827D03*
X308100Y-84990D03*
X287100D03*
X277100D03*
X252100D03*
X227100D03*
X267349Y-68455D03*
X297529Y-78630D03*
X287108Y-42387D03*
X222197Y-67235D03*
X222108Y-54290D03*
X252108Y-49675D03*
X316100Y-84990D03*
X277100Y-71960D03*
X287100D03*
X252100Y-71260D03*
X227100Y-71960D03*
X311933Y-49435D03*
X209490Y19000D03*
X226140Y18380D03*
X205281Y30235D03*
X266638Y-8924D03*
X218836Y43692D03*
X274378Y29163D03*
X249201Y31408D03*
X222509Y73129D03*
X228590Y46292D03*
X202967Y44311D03*
X214384Y61428D03*
X219827Y64050D03*
X222509Y76758D03*
X277020Y-14357D03*
X303328Y-9348D03*
X282108Y-35277D03*
X209138Y43981D03*
X317163Y32729D03*
X289326D03*
X286813Y-16409D03*
X290099Y-21985D03*
X307834Y-16409D03*
X319201Y29489D03*
X321015Y-17172D03*
X230999Y24024D03*
Y46708D03*
X230000Y14509D03*
X223000D03*
X239643Y26559D03*
X206000Y-2360D03*
X294330Y-9360D03*
X207510Y70000D03*
X239650Y21440D03*
X207510Y64000D03*
X237100Y-7960D03*
X206510Y-4770D03*
X246297Y31408D03*
X229391Y-11082D03*
X271015Y-10729D03*
X234624Y24000D03*
X312235Y30709D03*
X265230Y25829D03*
X269919Y81638D03*
X260444Y33222D03*
X214340Y31297D03*
X208138Y8734D03*
X309648Y-4475D03*
X232349Y-9267D03*
X255864Y-21348D03*
X268103Y30977D03*
X297746Y81757D03*
X209491Y12200D03*
Y24548D03*
X315949Y-19525D03*
X280294Y-27717D03*
X241514Y24098D03*
X307834Y-19479D03*
X203439Y73009D03*
X207324Y79673D03*
X243328Y-3934D03*
X316378Y-8803D03*
X221514Y-7453D03*
X214548Y-21360D03*
X219163D03*
X226357Y75538D03*
X237099Y-5527D03*
X258629Y-20985D03*
X245977Y-7341D03*
X252734Y-21360D03*
X259216Y-14711D03*
X284947Y-18223D03*
X297215Y34964D03*
X291140Y29757D03*
X226350Y26560D03*
X239560Y17800D03*
X222990Y-60D03*
X237100Y-20990D03*
X207100D03*
X222509Y79166D03*
X207068Y75434D03*
X283853Y81638D03*
X213987Y48016D03*
X252235Y-17119D03*
X228156Y48723D03*
Y71292D03*
X205253Y54792D03*
X277579Y27049D03*
X202654Y49830D03*
X305143Y-7152D03*
X259201D03*
X260231Y29594D03*
X216198D03*
X208271Y58421D03*
X209491Y49943D03*
X238120Y33785D03*
X297339Y125990D03*
X300314Y126108D03*
X293960Y148099D03*
X295131Y158689D03*
X295221Y162785D03*
X290540Y109116D03*
X243096Y108420D03*
X301020Y114116D03*
X318656Y175587D03*
X310282Y175293D03*
X306225Y138450D03*
X308551Y139077D03*
X295224Y154902D03*
X303131Y158678D03*
X311095Y166668D03*
X317500Y181500D03*
X303676Y94403D03*
X205476Y121446D03*
X305205Y199410D03*
X258448Y138000D03*
X299265Y198420D03*
X218012Y148824D03*
X217661Y102883D03*
X246790Y147009D03*
X227752Y171621D03*
X231381Y169009D03*
X303564Y102138D03*
X246500Y150638D03*
X244975Y125990D03*
X217418Y168814D03*
X216198Y111381D03*
X215604Y174000D03*
X226138Y84046D03*
X313748Y95005D03*
X214384Y99849D03*
X250418Y84543D03*
X290547Y82201D03*
X231381Y85750D03*
X238991Y181000D03*
X250418Y88172D03*
X298340Y108994D03*
X269775Y109256D03*
X259324Y197009D03*
X254047Y103117D03*
X255814Y182211D03*
X255985Y82232D03*
X257800Y101713D03*
X225544Y187365D03*
X226138Y158211D03*
X248604Y148824D03*
X242025Y168297D03*
X291141Y162731D03*
X303385Y174401D03*
X319096Y147635D03*
X272762Y119858D03*
X310826Y162819D03*
X314992D03*
X262567Y94384D03*
X270995Y131568D03*
X305491Y146446D03*
X307118Y154945D03*
X307121Y158794D03*
X270995Y155629D03*
X241910Y144648D03*
X241281Y91207D03*
X307900Y147635D03*
X271509Y140415D03*
X257800Y113195D03*
X216198Y98034D03*
X216198Y84521D03*
X243096Y98034D03*
X238247Y102883D03*
X272698Y138000D03*
X283496Y151916D03*
X295104Y174745D03*
X220695Y168115D03*
X227358Y160620D03*
X228759Y113195D03*
X250915Y158679D03*
X229566Y187365D03*
X273519Y184025D03*
X257509Y195000D03*
X299041Y182733D03*
X271509Y196718D03*
X291370Y178796D03*
X283496D03*
X291167Y170922D03*
X276000Y199568D03*
X215083Y197624D03*
X233195Y108368D03*
X205510Y174000D03*
Y181000D03*
X314000Y132490D03*
X287230Y194090D03*
X295530Y186240D03*
X295510Y190150D03*
X287230Y198480D03*
X295080Y198050D03*
X307610Y192340D03*
X315190Y159110D03*
X278910Y188410D03*
X295530Y166750D03*
X258490Y200600D03*
X262000Y197010D03*
Y190010D03*
Y169010D03*
X258490Y173000D03*
X242080Y171620D03*
X293000Y130810D03*
X244490Y188000D03*
X258490Y151990D03*
Y180370D03*
X257710Y159000D03*
X319000Y91500D03*
X205510Y188000D03*
Y166990D03*
Y159990D03*
Y139000D03*
X307610Y196280D03*
X299015Y186238D03*
X224781Y195190D03*
X287345Y166527D03*
X299015Y178770D03*
X278911Y180311D03*
X313065Y148531D03*
X226945Y151548D03*
X305384Y151765D03*
X219232Y153362D03*
X256269Y149380D03*
X212173Y166300D03*
X312570Y151765D03*
X246500Y156849D03*
X295931Y109566D03*
X319133Y159111D03*
X320911Y84046D03*
X312512Y106554D03*
X312861Y128831D03*
X237238Y96901D03*
X243096Y101663D03*
X204904Y113877D03*
X293300Y124175D03*
X255985Y128508D03*
X271878Y122361D03*
X301506D03*
X307348Y162819D03*
X301364Y139160D03*
X277097Y147009D03*
X303789Y139167D03*
X311047Y121761D03*
X258491Y140409D03*
X254171Y96055D03*
X291370Y166641D03*
X295104Y170693D03*
X297730Y138572D03*
X303410Y154801D03*
X303569Y148500D03*
X318700Y170896D03*
X303410Y170693D03*
X300106Y129140D03*
X307322Y170693D03*
X299244Y162819D03*
Y154801D03*
Y151450D03*
X302952Y162819D03*
X302726Y125990D03*
X307322Y166527D03*
X263706Y99114D03*
X281982Y100194D03*
X287645Y108368D03*
X312148Y104145D03*
X211455Y199832D03*
X299560Y84015D03*
X280167D03*
X291170Y190150D03*
X306910Y174740D03*
X291170Y194090D03*
X306890Y182700D03*
X318690Y178710D03*
X320880Y189720D03*
X318430Y199580D03*
Y196330D03*
X207320Y113180D03*
X315010Y170470D03*
X298000Y131550D03*
X271630Y175410D03*
X268000Y176510D03*
Y190010D03*
X300410Y131550D03*
X314000Y145510D03*
X248000Y198010D03*
X271510Y194000D03*
X319090Y131550D03*
X319010Y105990D03*
X285670Y138580D03*
X277100Y131550D03*
X244090Y157280D03*
X235010Y179000D03*
X258490Y145010D03*
X244490Y170000D03*
X202000Y198010D03*
X205510Y153010D03*
X250529Y150527D03*
X273519Y181444D03*
X261060Y118044D03*
X257509Y189814D03*
X235424Y89392D03*
X236824Y191824D03*
X268555Y98379D03*
X275333Y188814D03*
X223135Y179000D03*
X231381Y89392D03*
X299560Y102138D03*
X226138Y87564D03*
X288556Y90710D03*
X207644Y84521D03*
X207324Y100098D03*
X275948Y100194D03*
X283726Y182274D03*
X260444Y84015D03*
X258523Y132814D03*
X205509Y156741D03*
X203089Y96864D03*
X274576Y142229D03*
X214204Y96055D03*
X303099Y190472D03*
X295349Y194428D03*
X291453Y198195D03*
X313014Y201789D03*
X299333Y190315D03*
X308165Y178236D03*
X313447Y180271D03*
X313144Y189882D03*
X312988Y198110D03*
X299081Y194085D03*
X283421Y198229D03*
X318287Y187550D03*
X287008Y149297D03*
X282067Y155434D03*
X299240Y158861D03*
X295336Y178465D03*
X287486Y178425D03*
X287526Y182689D03*
X283501Y190419D03*
X206078Y144792D03*
X243974Y84537D03*
X292985Y145627D03*
X287209Y217712D03*
X287301Y213961D03*
X291500Y210000D03*
X295267Y241580D03*
X278818Y217412D03*
X276845Y251543D03*
X276849Y280000D03*
X318234Y268979D03*
X291313Y245504D03*
X295330Y245477D03*
X299401Y245293D03*
X299102Y241596D03*
X295530Y233753D03*
X314733Y253510D03*
X310771Y253401D03*
X310934Y245586D03*
X314896Y245423D03*
X315765Y222355D03*
X307596Y215082D03*
X303001Y214280D03*
X299265Y214051D03*
X299210Y210089D03*
X295411Y206235D03*
X287378Y202165D03*
X217034Y320731D03*
X208951Y317544D03*
X245430Y292523D03*
X304253Y287547D03*
X291141Y205922D03*
X205734Y257491D03*
X218668Y258340D03*
X208447Y256567D03*
X213269Y220187D03*
X209640Y297906D03*
X204998Y288063D03*
X209640Y284126D03*
X207152Y282158D03*
X309547Y262144D03*
X315453Y268872D03*
X314789Y241356D03*
X305610Y262144D03*
X303410Y241356D03*
X307348Y253282D03*
X311509Y268872D03*
X319390Y260313D03*
X317421Y262112D03*
X299015Y237826D03*
X240805Y239136D03*
X284390Y262057D03*
Y257924D03*
X280453Y262057D03*
X307322Y241788D03*
X278484Y268872D03*
X307322Y249318D03*
X276516Y261457D03*
X303385Y249318D03*
X301890Y268872D03*
X311259Y249204D03*
X318936Y257078D03*
X299921Y262096D03*
X297953Y269362D03*
X292047Y262144D03*
X290079Y269362D03*
X314992Y257078D03*
X291574Y229519D03*
X203695Y226009D03*
X240570Y312550D03*
X249470Y314080D03*
X293570Y312550D03*
X301630D03*
X230530Y304680D03*
Y310980D03*
X258870Y304680D03*
X230530Y317280D03*
X255720D03*
X258870Y310980D03*
X283330Y304680D03*
Y314130D03*
X311670Y307830D03*
X283330Y317280D03*
X311670Y310980D03*
Y317280D03*
X264148Y303066D03*
X252530Y307780D03*
X238400Y304090D03*
X301630Y304780D03*
X293570Y307720D03*
X240570Y318850D03*
X249470Y317320D03*
X301630Y318850D03*
X321690Y320370D03*
X233680Y307830D03*
Y314130D03*
X252570Y317280D03*
X255720Y307830D03*
X233680Y320430D03*
X252570D03*
X286480Y307830D03*
Y314130D03*
X308520Y307830D03*
Y314130D03*
Y320430D03*
X272579Y276946D03*
X261400Y303066D03*
X301640Y309402D03*
X284390Y277743D03*
X265862Y313821D03*
Y293476D03*
X267879Y311935D03*
X278484Y285997D03*
X279651Y321796D03*
X285780Y288022D03*
X314203Y312612D03*
X299921Y283309D03*
X297953Y280502D03*
X295984Y319106D03*
Y283309D03*
X299533Y321551D03*
Y287714D03*
X294180Y316612D03*
X292047Y276746D03*
X290079Y284871D03*
X288110Y283309D03*
X240560Y321060D03*
X305370Y314127D03*
Y289737D03*
X305326Y320378D03*
X215678Y240853D03*
X283690Y210270D03*
X307460Y210390D03*
X307940Y212600D03*
X287480Y205900D03*
X295080Y209860D03*
X313060Y223410D03*
X283000Y250850D03*
X291150Y249430D03*
X316370Y224500D03*
X281290Y248530D03*
X320720Y223930D03*
X291170Y201960D03*
X262000Y260990D03*
Y268990D03*
X209640Y305780D03*
X262000Y253010D03*
X258490Y257000D03*
X262000Y232990D03*
Y246310D03*
X258490Y222000D03*
X262000Y225990D03*
X216660Y266410D03*
X258490Y215000D03*
X216660Y250660D03*
Y278220D03*
Y254600D03*
X231990Y205000D03*
X205510Y215960D03*
Y209000D03*
Y218370D03*
X303410Y229550D03*
X314770Y233450D03*
X299244Y221874D03*
X273918Y215201D03*
X295307Y221874D03*
X257799Y229000D03*
X287433Y221874D03*
X283496Y202418D03*
X276000Y232327D03*
X258491D03*
X293330Y269362D03*
X314992Y249204D03*
X295984Y262144D03*
X316009Y235664D03*
X270610Y260009D03*
X311259Y241572D03*
X282421Y268872D03*
X303385Y245267D03*
X287637Y225608D03*
X317059Y220224D03*
X271509Y257000D03*
X257509Y250000D03*
X295511Y225582D03*
X299474Y229748D03*
X287433Y237622D03*
X291600D03*
X276000Y235654D03*
X307322Y257078D03*
X303680Y212032D03*
X276000Y241760D03*
X281982Y241356D03*
X291167Y241330D03*
X207152Y309716D03*
X203919Y255205D03*
Y230694D03*
X220483Y227824D03*
X278938Y242870D03*
X295510Y249430D03*
X291590Y253570D03*
X299240Y249430D03*
X295510Y253590D03*
X281940Y253060D03*
X287630Y245270D03*
X307870Y270120D03*
X283000Y243520D03*
X295540Y269090D03*
X287860Y270120D03*
X284640Y269100D03*
X266830Y268300D03*
X268000Y278810D03*
X302980Y206350D03*
X303410Y221680D03*
X318430Y204050D03*
X319150Y221790D03*
X307610Y204160D03*
X306890Y229690D03*
X318430Y235650D03*
X306890Y237420D03*
X295510Y229520D03*
X209640Y311690D03*
X205000Y308000D03*
Y319500D03*
X244490Y243000D03*
X241640Y250000D03*
X218480Y272320D03*
X248000Y232010D03*
X271510Y215000D03*
X208110Y275510D03*
X216660Y260500D03*
X244890Y208630D03*
X258490Y208010D03*
X208110Y266260D03*
X244990Y205000D03*
X205510Y202000D03*
X313014Y205685D03*
X310719Y234606D03*
X312985Y230282D03*
X317343Y230666D03*
X303145Y202094D03*
X287326Y233852D03*
X287406Y229708D03*
X299121Y233653D03*
X317929Y210103D03*
X318287Y206318D03*
X318486Y216838D03*
X284099Y280513D03*
X293981Y286051D03*
X307728Y284378D03*
X292689Y320436D03*
X219224Y315406D03*
X217863Y313037D03*
X282697Y331564D03*
X289618Y329963D03*
X293812Y326093D03*
X221975Y361900D03*
X229194Y355061D03*
X217281Y331312D03*
X308492Y329904D03*
X311802Y329788D03*
X236820Y329892D03*
X233600Y329895D03*
X283341Y323620D03*
X219157Y348751D03*
X219263Y345620D03*
X216875Y325826D03*
X208967Y331716D03*
X209408Y329030D03*
X209073Y323597D03*
X201936Y326184D03*
X213324Y356953D03*
X201915Y337991D03*
X302198Y329849D03*
X300004Y329596D03*
X225268Y333073D03*
X309616Y333859D03*
X281808Y342091D03*
X282127Y348109D03*
X248946Y330466D03*
X260043Y351081D03*
X260485Y344793D03*
X239801Y370600D03*
X250217D03*
X312449Y342864D03*
X230530Y342470D03*
X255770Y332990D03*
X308570Y351920D03*
X239930Y323620D03*
X248830Y323500D03*
X302270Y326680D03*
X321690Y351920D03*
X293140Y370900D03*
X230530Y326730D03*
Y329870D03*
X258870Y326730D03*
X311670D03*
X276360Y370700D03*
X321690Y334120D03*
X305336Y329907D03*
X271200Y327700D03*
X245130Y327534D03*
X227477Y333110D03*
X321690Y338800D03*
X266240Y370700D03*
X321690Y347330D03*
X303260Y370900D03*
X233680Y345620D03*
X255720Y326730D03*
X289630Y323580D03*
X242392Y322622D03*
X266365Y323685D03*
X295900Y338800D03*
X269121Y338821D03*
X242900Y338800D03*
X295900Y329800D03*
X269058Y329842D03*
X242900Y329700D03*
X273400Y329800D03*
X246777Y329494D03*
X295900Y334200D03*
X269017Y334600D03*
X242884Y334200D03*
X300300D03*
X273500D03*
X247400D03*
X298100Y362900D03*
X271200Y363000D03*
X245100D03*
X242900Y352000D03*
X295900D03*
X269100D03*
X317911Y369800D03*
X317031Y329114D03*
X229807Y322001D03*
X281166Y324005D03*
X305374Y326725D03*
X286524Y323528D03*
X242900Y343200D03*
X269000D03*
X295900D03*
X242900Y365200D03*
X269000D03*
X295900D03*
X245100Y341100D03*
X271200D03*
X298100Y341000D03*
X245100Y336600D03*
X271200D03*
X298100D03*
X245100Y332100D03*
X271300Y332000D03*
X298100D03*
X247316Y356514D03*
X273400Y356400D03*
X300402D03*
X242900Y360800D03*
X269000D03*
X295900Y360700D03*
X247300Y360800D03*
X273400D03*
X300300D03*
X245100Y354300D03*
X271200Y354100D03*
X298100D03*
X247300Y343200D03*
X273400D03*
X300300D03*
X245100Y349800D03*
X271200D03*
X298100Y349900D03*
Y358500D03*
X245100Y358600D03*
X271200D03*
X247400Y347413D03*
X273400Y347600D03*
X300300D03*
X242900Y356500D03*
X269000Y356400D03*
X295900D03*
X247300Y352100D03*
X273400Y352000D03*
X300400D03*
X245100Y345400D03*
X271200D03*
X298100D03*
X247400Y338800D03*
X273400D03*
X300300D03*
X242900Y347500D03*
X268900Y347600D03*
X296000D03*
X232110Y350570D03*
X207790Y366000D03*
X205000Y350010D03*
Y329990D03*
X211509Y354000D03*
X208500Y362060D03*
X202000Y350990D03*
X260633Y325400D03*
X258806Y333030D03*
X435612Y-80443D03*
Y-93661D03*
X327349Y-66641D03*
X367100Y-84990D03*
X342100D03*
X398044Y-57717D03*
X357349Y-47235D03*
X367100Y-71960D03*
X342100D03*
X358162Y69260D03*
X383384Y71869D03*
X424261Y68999D03*
X432619Y81173D03*
X424914Y80555D03*
X419968Y80999D03*
X367636Y15914D03*
X376229Y-8288D03*
X413167Y78293D03*
X349163Y-11918D03*
X402814Y31884D03*
X328666Y-6957D03*
X334000Y-3387D03*
X349700D03*
X334000Y13509D03*
X391607Y-2434D03*
X335100Y17554D03*
X431415Y41991D03*
X419415D03*
X413009Y50415D03*
X392000Y60009D03*
X380000D03*
X438010Y53000D03*
X438009Y1000D03*
Y5085D03*
Y-2085D03*
Y-9085D03*
X435000Y17799D03*
X431991Y61915D03*
X419991Y60009D03*
X403597D03*
X394991Y61915D03*
X384000Y68509D03*
X428012Y18915D03*
X395009Y4915D03*
X409590Y123D03*
X421805Y10123D03*
X431990Y65000D03*
X417800Y67980D03*
X406000Y78490D03*
X419990Y63770D03*
Y69990D03*
X426190Y42490D03*
X406000Y65000D03*
X392500D03*
X413990Y46000D03*
X404000Y41990D03*
X389010Y65000D03*
X380000Y41990D03*
X435000Y-21510D03*
X392000Y41990D03*
Y25510D03*
X388010Y8000D03*
Y120D03*
X353000Y31510D03*
X388010Y5120D03*
X394000Y-14010D03*
X337100Y-8960D03*
X413510Y21611D03*
X441071Y-9000D03*
X364368Y17554D03*
X415984Y23425D03*
X363049Y6274D03*
X323219Y8089D03*
X359292Y1486D03*
X381814Y17882D03*
X373938Y-28311D03*
X384536Y-21340D03*
X379024Y-20877D03*
Y34614D03*
X383629Y-13500D03*
X339822Y-25199D03*
X331927Y80709D03*
X354432Y-26107D03*
X395009Y7958D03*
X341636Y17138D03*
X338368Y17554D03*
X323219Y22201D03*
X339976Y8425D03*
X369590Y-22700D03*
X363050Y25420D03*
X367240D03*
X439000Y41780D03*
X410140Y78300D03*
X423620Y41990D03*
X410000D03*
X399860Y41420D03*
X387630Y41990D03*
X335100Y32450D03*
X350480Y31510D03*
X338370Y32450D03*
X336870Y-22700D03*
X353000Y18491D03*
X411101Y15123D03*
X372320Y-22887D03*
X394000Y-27009D03*
X401000Y16009D03*
X339046Y54981D03*
X323219Y18891D03*
X343061Y33140D03*
X325008Y-25776D03*
X367818Y-7180D03*
X425739Y82891D03*
X369642Y150058D03*
X400287Y107760D03*
X322637Y170693D03*
X364394Y180780D03*
X362113Y178777D03*
X425113Y95065D03*
X432166Y85178D03*
X415733Y104738D03*
X397967Y111671D03*
X410070Y105700D03*
X409910Y103290D03*
X431906Y114360D03*
X428040Y91509D03*
X419727Y183015D03*
X427545Y197796D03*
X426306Y177737D03*
X426090Y180757D03*
X425946Y183273D03*
X428080Y193352D03*
X428778Y181246D03*
X398490Y184875D03*
X427520Y188503D03*
X411510Y183655D03*
X428791D03*
X438190Y177490D03*
X436137Y163500D03*
X410396Y145510D03*
X411817Y177629D03*
X373911Y194289D03*
X424680Y197730D03*
X438622Y199463D03*
X375000Y131276D03*
X439459Y194329D03*
X381548Y126232D03*
X327271Y104305D03*
X361683Y106747D03*
X367436Y103328D03*
X378143Y182504D03*
X381762Y182274D03*
X373895Y178744D03*
X337849Y93052D03*
X432009Y96000D03*
X397274Y89047D03*
X384000Y85094D03*
X334677Y154945D03*
X370110Y163048D03*
X342551Y166756D03*
X334448D03*
X338614D03*
X361124Y152442D03*
X348118Y123575D03*
X345632Y127804D03*
X322637Y162819D03*
X357702Y152807D03*
X350425Y162590D03*
X350222Y170605D03*
X370543Y154029D03*
X381718Y174833D03*
X435409Y180000D03*
X387864Y182504D03*
X333000Y85491D03*
X393814Y195771D03*
X416000Y196299D03*
X377781Y198235D03*
X348305Y146446D03*
X350425Y155148D03*
X418016Y115540D03*
X423921Y130009D03*
X439960Y131824D03*
Y105991D03*
X414585Y117839D03*
X410000Y131381D03*
X369907Y178770D03*
X373844Y174401D03*
X440726Y103267D03*
X396481Y201581D03*
X415333Y159862D03*
X374251Y170693D03*
X369881Y186644D03*
X386349Y186937D03*
X382125Y186670D03*
X370110Y190582D03*
X391446Y180690D03*
X370110Y182733D03*
X436991Y194000D03*
X377984Y166530D03*
X374277Y182504D03*
X389378Y189966D03*
X374251Y186670D03*
X377781D03*
X365944Y194518D03*
X377984Y162819D03*
X381718Y166985D03*
X413519Y161676D03*
X377781Y170693D03*
X389466Y163957D03*
X387169Y193756D03*
X377755Y178363D03*
X350200Y159080D03*
X344520Y179060D03*
X330960Y166750D03*
X348460Y179060D03*
X408000Y182010D03*
X359620Y177490D03*
X365970Y166980D03*
X361740Y176600D03*
X327030Y166750D03*
X428790Y178000D03*
X409940Y161990D03*
X430990Y145510D03*
X417000D03*
X437000Y118990D03*
X399010Y136000D03*
X408000Y128010D03*
X431940Y107810D03*
X432700Y89050D03*
X389000Y131150D03*
X432700Y100850D03*
X409990Y95000D03*
X361000Y131070D03*
X368000Y129750D03*
X409990Y88000D03*
X354000Y132490D03*
X409910Y83150D03*
X351000Y85480D03*
X324830Y179060D03*
X361740Y196280D03*
X365970Y162590D03*
X403000Y145509D03*
X396000D03*
X395629Y151000D03*
X373844Y158767D03*
X346259Y170605D03*
X345632Y146446D03*
X413519Y182009D03*
X361599Y119939D03*
X358529Y170605D03*
X364818Y199338D03*
X333000Y115009D03*
X370110Y194518D03*
Y198023D03*
X428155Y175591D03*
X362007Y170489D03*
X373810Y154029D03*
X370022Y158653D03*
X387186Y151824D03*
X358096Y162590D03*
X362007Y162615D03*
X354159Y166527D03*
X354133Y162615D03*
X389000Y107081D03*
X353754Y147918D03*
X352394Y175121D03*
X358096Y158653D03*
X381313Y83279D03*
X358593D03*
X354495Y150509D03*
X338411Y170464D03*
X338385Y162819D03*
X338411Y155174D03*
X326574Y158678D03*
X330511Y162819D03*
X325182Y83564D03*
X326574Y170896D03*
Y162819D03*
X322663Y158653D03*
X327294Y176817D03*
X322725Y154945D03*
Y131007D03*
X358096Y166527D03*
X338526Y152263D03*
Y128831D03*
X326574Y154945D03*
X325777Y115009D03*
X339046Y124175D03*
X346488Y153200D03*
X328900Y146736D03*
X322663Y166527D03*
X342551Y162819D03*
Y158882D03*
X334448Y162819D03*
X330327Y98509D03*
X346692Y163048D03*
X350119Y121761D03*
X392629Y102827D03*
X366757Y114514D03*
X390220Y102673D03*
X441608Y83142D03*
X425009Y103593D03*
X334448Y170693D03*
X360367Y124143D03*
X409900Y90862D03*
X394443Y89201D03*
X334448Y174401D03*
X402915Y116229D03*
X383814Y130481D03*
Y91016D03*
X361896Y99346D03*
X354374Y129618D03*
X339110Y176640D03*
X327030Y190580D03*
X338420Y190600D03*
X323090Y190580D03*
X342780D03*
X362820Y186940D03*
X339310Y179940D03*
X350200Y166610D03*
X376020Y154450D03*
X381700Y155140D03*
X370030Y166530D03*
X373820Y198050D03*
X411510Y193000D03*
X334450Y158880D03*
X409000Y101000D03*
X435990Y173000D03*
X398490Y179000D03*
X437490Y158000D03*
X438000Y145510D03*
X402000Y161990D03*
X427010Y142000D03*
X438140Y116580D03*
X398490Y158000D03*
X431010Y125500D03*
X403010Y130920D03*
X389000Y145510D03*
X382000D03*
X375000D03*
X403490Y109720D03*
X368000Y145510D03*
X354000D03*
X416010Y82000D03*
X334000Y145510D03*
X322360Y138580D03*
X327755Y95914D03*
X346304Y115619D03*
X354924Y190310D03*
X362284Y166763D03*
X381940Y158753D03*
X387049Y158840D03*
X377957D03*
X381983Y162953D03*
X370077Y174513D03*
X381940Y178582D03*
X378043Y194428D03*
X350291Y198087D03*
X350161Y190207D03*
X354924Y194147D03*
X341892Y179362D03*
X332709Y179059D03*
X362284Y201875D03*
X360336Y200000D03*
X335484Y182954D03*
X330808Y198238D03*
X334705Y198325D03*
X338645Y198282D03*
X342628Y198368D03*
X326695Y198132D03*
X330998Y190499D03*
X351440Y179661D03*
X351798Y182370D03*
X362796Y189941D03*
X362278Y158822D03*
X365984Y159100D03*
X346578Y166711D03*
X342701Y170383D03*
X338745Y138930D03*
X343061Y121761D03*
X346505Y198286D03*
X322828Y198176D03*
X398332Y195251D03*
X413314Y158000D03*
X408214Y154447D03*
X440708Y145510D03*
X426757Y203057D03*
X426758Y206819D03*
X361266Y269594D03*
X350242Y253407D03*
X355142Y226074D03*
X349869Y227157D03*
X411665Y295651D03*
X413466Y204983D03*
X412530Y261045D03*
X408608Y238629D03*
X412896Y239700D03*
X365970Y229496D03*
X360766Y209521D03*
X428682Y310926D03*
X412830Y248575D03*
X421999Y251640D03*
X424786Y246290D03*
X409003Y252603D03*
X412495Y250960D03*
X412400Y272856D03*
X373960Y202270D03*
X370121Y202178D03*
X365032Y231641D03*
X361333Y224046D03*
X335563Y232850D03*
X323011Y302820D03*
X428720Y320470D03*
X347136Y269603D03*
X366041Y213981D03*
X362117Y213047D03*
X366025Y206045D03*
X373922Y206072D03*
X385890Y213861D03*
X381819Y213834D03*
X330745Y253332D03*
X362171Y253401D03*
X366187D03*
X334653Y253347D03*
X373833Y284903D03*
X328494Y261943D03*
X334822Y241694D03*
X356339Y306973D03*
X338385Y249637D03*
X337000Y269928D03*
X322637Y245293D03*
X370390Y261369D03*
X373818Y249230D03*
X368421Y268872D03*
X373818Y253167D03*
X326600Y249204D03*
X373818Y257104D03*
X354566Y253141D03*
X366453Y261369D03*
X362033Y241330D03*
X354133Y241356D03*
X362516Y262189D03*
X349453Y269362D03*
X345062Y261976D03*
X364484Y268872D03*
X354159Y257078D03*
X343547Y258618D03*
X338818Y245267D03*
X351421Y262181D03*
X340583Y235831D03*
X353390Y269362D03*
X346285Y249204D03*
X340064Y270128D03*
X342322Y249230D03*
X334448D03*
X330484Y259172D03*
X358579Y268872D03*
X350425Y249204D03*
X347484Y262181D03*
X342348Y253141D03*
X338411Y241763D03*
X341579Y260180D03*
X332453Y262054D03*
X330537Y249204D03*
X326600Y253370D03*
X326574Y245293D03*
X324579Y269362D03*
X330537Y241330D03*
X422525Y227580D03*
X429441Y221931D03*
X408000Y259314D03*
X424437Y256954D03*
X373844Y241330D03*
X426804Y221931D03*
X411509Y270000D03*
X429703Y259564D03*
X397129Y242000D03*
X373818Y245293D03*
X396481Y214000D03*
X377781Y213885D03*
X392000Y269638D03*
X365970Y257078D03*
X397016Y262054D03*
X362033Y245726D03*
X384210Y259034D03*
X369907Y257192D03*
X391110Y261953D03*
X358096Y241330D03*
X387390Y268872D03*
X358096Y249231D03*
X385421Y261448D03*
X358096Y245267D03*
X384557Y268872D03*
X354159Y249204D03*
X381484Y261496D03*
X379516Y268872D03*
X350222Y241330D03*
X377252Y268872D03*
X348999Y257798D03*
X375579Y261440D03*
X354159Y245267D03*
X323064Y241330D03*
X322637Y249230D03*
X424990Y229549D03*
X370314Y229519D03*
X374047Y217708D03*
X411510Y235000D03*
X386349Y233073D03*
X370314Y233456D03*
X389665Y238232D03*
X377781Y237396D03*
X394887Y253229D03*
X377781Y233482D03*
X420822Y236814D03*
X415334Y284879D03*
X390880Y202489D03*
X382321Y221874D03*
X370314Y245267D03*
X381692Y229545D03*
X435146Y277858D03*
Y254985D03*
X433332Y264982D03*
X436961Y268919D03*
X375413Y320462D03*
X356299Y317417D03*
Y321190D03*
X382270Y312550D03*
X390530D03*
X390480Y321810D03*
X435570Y312550D03*
X345800Y296810D03*
X397420Y307830D03*
X372230Y304680D03*
Y310980D03*
X397420D03*
Y317280D03*
X372230D03*
X425530Y304680D03*
Y310980D03*
Y317280D03*
X339200Y295000D03*
X338610Y288860D03*
X405810Y306087D03*
X378480Y307870D03*
X394230Y307780D03*
X433400Y304090D03*
X382270Y318850D03*
X394230Y317320D03*
X435570Y318850D03*
X344470Y301020D03*
X394270Y310980D03*
X378530D03*
X394270Y320430D03*
X397420Y314130D03*
X378530D03*
X428680Y307830D03*
Y314130D03*
X337971Y286450D03*
X406572Y308500D03*
X366900Y284000D03*
X360900Y285700D03*
X330200Y317300D03*
X364200Y299600D03*
X335480Y290200D03*
X390540Y309402D03*
X425527Y320378D03*
X404890Y287009D03*
X400953Y289000D03*
X398984Y280009D03*
X393079Y278253D03*
X427089Y294596D03*
X390355Y304094D03*
X385421Y284871D03*
X402490Y299459D03*
X381484Y284871D03*
X388147Y305278D03*
X376905Y286847D03*
X386293Y310917D03*
X374809Y278486D03*
X369188Y299813D03*
X395554Y289000D03*
X378478Y317229D03*
X354904Y280586D03*
X368414Y286209D03*
X390776Y317229D03*
X362516Y288362D03*
X350309Y294500D03*
X341700Y297100D03*
X356100Y293500D03*
X354300Y284200D03*
X355800Y289200D03*
X360000Y311600D03*
X351700Y296600D03*
X357700Y311819D03*
X325000Y285000D03*
X347500Y313000D03*
X326100Y279200D03*
X420822Y273009D03*
X440589Y266950D03*
X390186Y215893D03*
X438775Y259076D03*
Y229395D03*
X351662Y234309D03*
X377781Y217708D03*
X385655Y221874D03*
X422525Y231363D03*
X411112Y245181D03*
X377984Y221874D03*
X422042Y264982D03*
X369881Y218025D03*
X422636Y259076D03*
X422525Y239149D03*
X399138Y259991D03*
X389188Y225608D03*
X396701Y236418D03*
X420822Y247220D03*
X378214Y225608D03*
X412926Y243328D03*
X420822Y260891D03*
X370340Y222078D03*
X373818Y225608D03*
X420822Y233186D03*
X425400Y268412D03*
X423231Y270840D03*
X377781Y229740D03*
X411509Y263868D03*
X386936Y237393D03*
X381921Y245293D03*
Y237393D03*
X408789Y231259D03*
X370314Y237393D03*
X370310Y206350D03*
X330240Y235650D03*
X381680Y206320D03*
X362280D03*
X365950Y217740D03*
X350200Y237420D03*
X370330Y214200D03*
X378210Y245670D03*
X373820Y213800D03*
X348000Y232260D03*
X343880Y232060D03*
X342350Y206330D03*
X338760Y205900D03*
X408000Y217990D03*
X411110Y259010D03*
X411820Y227580D03*
X390890Y248900D03*
X366180Y241450D03*
Y245500D03*
X406610Y280010D03*
X379000Y283310D03*
X384560Y287090D03*
X357480Y287610D03*
X411510Y214000D03*
Y207000D03*
X324830Y233190D03*
X361740Y235650D03*
X364200Y225320D03*
X374277Y221645D03*
X395047Y259629D03*
X365970Y249220D03*
X402921Y259162D03*
X369907Y249236D03*
X408156Y266009D03*
X369907Y253259D03*
X415428Y217991D03*
X327033Y221704D03*
X393714Y206118D03*
X377760Y253370D03*
X381700Y249300D03*
X385630D03*
X389690Y270000D03*
X381730Y269100D03*
X372010Y269620D03*
X355090Y277560D03*
X343990Y269070D03*
X377780Y206320D03*
X330940Y221650D03*
X338840Y221680D03*
X364200Y222370D03*
X378210Y241760D03*
X405010Y238010D03*
X402000Y224990D03*
X422250Y249230D03*
X373820Y229550D03*
X411510Y284000D03*
X434560Y221650D03*
X398490Y207000D03*
X350118Y202179D03*
X330917Y245517D03*
X334727Y245473D03*
X346438Y253245D03*
X346221Y221748D03*
X377957Y202221D03*
X373850Y233488D03*
X384841Y254565D03*
X322972Y221553D03*
X326804Y214019D03*
X330743Y214041D03*
X334640Y213976D03*
X342541Y214019D03*
X342520Y221942D03*
X350161Y213825D03*
X350378Y206023D03*
X354989Y205858D03*
X355075Y213954D03*
X359058Y234866D03*
X330759Y205942D03*
X326814Y206114D03*
X333987Y226919D03*
X334983Y221818D03*
X361122Y228871D03*
X381882Y233733D03*
X416788Y279556D03*
X346468Y206203D03*
X346615Y213973D03*
X322681D03*
X322754Y206056D03*
X342780Y237420D03*
X346317Y237464D03*
X350404Y245679D03*
X438678Y209591D03*
X402000Y203057D03*
X425562Y237412D03*
X427651Y233382D03*
X420940Y210850D03*
X334642Y206127D03*
X397594Y256000D03*
X398471Y249204D03*
X398911Y286738D03*
X411840Y278220D03*
X397276Y222945D03*
X408692Y203339D03*
X357131Y333207D03*
X400925Y351546D03*
X343865Y363000D03*
X371492Y347774D03*
X401708Y342261D03*
X424837Y331450D03*
X378568Y329821D03*
X428765Y345623D03*
X390634Y330542D03*
X388591Y329702D03*
X375410Y323626D03*
X333640Y366582D03*
X359700Y366729D03*
X424679Y343095D03*
X371398Y331827D03*
X370170Y343099D03*
X397571Y333190D03*
X400616Y333071D03*
X382140Y323655D03*
X364497Y347596D03*
X434930Y323620D03*
X361810Y352190D03*
X363010Y369800D03*
X381440Y370600D03*
X434740Y370900D03*
X397420Y326730D03*
X425530Y323580D03*
X350210Y369800D03*
X346700Y366790D03*
X353700Y366990D03*
X356320D03*
X418060Y370700D03*
X386600Y327600D03*
X343900Y323100D03*
X439600Y327600D03*
X413100D03*
X369913Y325707D03*
X435570Y325950D03*
X357190Y338440D03*
X337190Y369800D03*
X340700Y366790D03*
X391760Y370600D03*
X407940Y370700D03*
X394270Y326730D03*
X428680D03*
X437400Y338800D03*
X411100D03*
X337900Y334200D03*
X384400Y338800D03*
X369369Y327848D03*
X337800Y325400D03*
X437400Y329800D03*
X411000Y329900D03*
X384400Y329800D03*
X349800Y325300D03*
X441800Y329835D03*
X415400Y329500D03*
X384400Y334200D03*
X437400Y334373D03*
X411000Y334200D03*
X337800Y329800D03*
X349600D03*
X441800Y334200D03*
X415379Y334221D03*
X388779D03*
X386600Y363000D03*
X343900Y358700D03*
X413200Y363000D03*
X439600D03*
X437400Y352000D03*
X411000D03*
X337800Y347600D03*
X384400Y352000D03*
X428629Y323528D03*
X378447Y323624D03*
X384400Y343200D03*
X411000Y343894D03*
X437400Y343200D03*
X337900Y338600D03*
X384400Y365200D03*
X411000D03*
X437400D03*
X386600Y341000D03*
X413200D03*
X439600D03*
X343800Y336700D03*
X386600Y336600D03*
X413200D03*
X439600D03*
X343600Y331900D03*
X386597Y332080D03*
X413200Y332000D03*
X439662Y332038D03*
X343900Y327600D03*
X388800Y356400D03*
X415400D03*
X441800D03*
X349800Y352000D03*
X384400Y360900D03*
X411000Y360800D03*
X437400D03*
X337900Y358800D03*
X388800Y360800D03*
X415300D03*
X441800D03*
X349800Y356400D03*
X386600Y354300D03*
X413100D03*
X439600Y354200D03*
X343900Y349800D03*
X388800Y343200D03*
X415400D03*
X441800D03*
X349800Y338700D03*
X386600Y349900D03*
X413200Y349700D03*
X439600D03*
X343900Y345400D03*
X386600Y358500D03*
X413200D03*
X439600Y358700D03*
X343600Y354400D03*
X388800Y347700D03*
X415500D03*
X441800Y347600D03*
X349800Y343200D03*
X384400Y356400D03*
X410900D03*
X437400Y356600D03*
X337800Y354200D03*
X388800Y352000D03*
X415400D03*
X441800D03*
X349800Y347700D03*
X386600Y345500D03*
X413100Y345300D03*
X439600Y345400D03*
X343800Y341000D03*
X388800Y338800D03*
X415400D03*
X441800D03*
X349800Y334100D03*
X384400Y347600D03*
X411008Y347743D03*
X437500Y347600D03*
X337800Y343000D03*
X323480Y329120D03*
X405000Y323673D03*
X541491Y-85000D03*
X554509Y-96000D03*
Y-108000D03*
X556330Y-73000D03*
Y-85000D03*
X541490Y-108000D03*
Y-96000D03*
X544860Y54402D03*
X537363Y43947D03*
X550877Y41383D03*
X455742Y72752D03*
X458513Y57003D03*
X457440Y46000D03*
X455509Y66500D03*
X442057Y65000D03*
X505491Y66500D03*
X443000Y4491D03*
X518991Y-11335D03*
X518009Y-5085D03*
X534509Y25000D03*
X505214Y5000D03*
X544491Y-4000D03*
X515000Y-17509D03*
X539481Y35000D03*
X518010Y-1000D03*
X505990D03*
X518509Y73000D03*
X505198Y-9000D03*
X521490Y49000D03*
Y25000D03*
X538000Y-7010D03*
X542990Y-14000D03*
X538000Y-10D03*
X442490Y71000D03*
Y41000D03*
X505010Y-13500D03*
X442490Y59000D03*
Y47000D03*
X454010Y10500D03*
X445600Y4490D03*
X455510Y77000D03*
X443000Y17510D03*
X454010Y15500D03*
X449750Y18260D03*
X528491Y3000D03*
X518991Y10000D03*
Y1500D03*
X547058Y14000D03*
X520385Y66000D03*
X474644Y200101D03*
X459792Y200499D03*
X450311Y200088D03*
X452000Y180248D03*
X474000Y197205D03*
X442098Y100356D03*
X442622Y92885D03*
X500991Y162000D03*
X490991Y140260D03*
X549009Y150000D03*
X498913Y200000D03*
X491835Y132491D03*
X469991Y137701D03*
X452000Y132491D03*
X459000Y129924D03*
X466000Y114186D03*
X505491Y91500D03*
X559491Y194000D03*
X544009Y199491D03*
X557009Y200000D03*
X457085Y163490D03*
X467000Y154409D03*
X535085Y153009D03*
X527981Y157000D03*
X450005Y185833D03*
X518509Y98000D03*
X529991Y141000D03*
X528991Y200000D03*
Y184000D03*
Y168000D03*
X444355Y170488D03*
X490591Y184018D03*
X484443Y178324D03*
X451729Y154991D03*
X480016Y190000D03*
X477514Y192000D03*
X480443Y194000D03*
X478629Y197629D03*
X490324Y198000D03*
X444600Y147790D03*
X514510Y172000D03*
X487000Y197820D03*
X498920Y178010D03*
X497210Y176000D03*
X514010Y152000D03*
X480000Y154990D03*
X494010Y145510D03*
X497990Y145030D03*
X490990Y142820D03*
X473000Y147790D03*
Y154990D03*
X447000D03*
X455510Y101000D03*
X442490Y85610D03*
X462915Y194000D03*
X480000Y145509D03*
X487000D03*
X447010Y147790D03*
X514510Y168000D03*
Y148000D03*
X490180Y178320D03*
X475000Y145530D03*
X480000Y132490D03*
X473000D03*
X459990Y154990D03*
X466000Y145510D03*
X487000Y132490D03*
X458990Y145520D03*
X469990Y135150D03*
X452000Y145510D03*
X446000Y126010D03*
X515009Y184000D03*
X455996Y91500D03*
X447389Y195814D03*
X480810Y176110D03*
X482629Y171814D03*
X443987Y196328D03*
X499267Y167196D03*
Y180510D03*
X497873Y182475D03*
X501991Y195163D03*
X489510Y159814D03*
X476353Y167025D03*
X490344Y174000D03*
X490078Y165058D03*
X478584Y163281D03*
X481306Y163130D03*
X483578Y163930D03*
X467695Y192244D03*
X501233Y190656D03*
X504560Y137041D03*
X443668Y186689D03*
X443500Y237589D03*
X476746Y250611D03*
X484224Y254493D03*
X481779Y256651D03*
X468819Y239382D03*
X467227Y242804D03*
X458229Y224543D03*
X471610Y209009D03*
X467000Y216209D03*
X557000Y252991D03*
X542000Y239509D03*
X515000Y297991D03*
X501991Y206000D03*
X500727Y202000D03*
X499024Y204000D03*
X464889Y239391D03*
X464584Y216209D03*
X464889Y228306D03*
X489258Y256866D03*
X530000Y285666D03*
X509000Y286229D03*
X508915Y260729D03*
X557009Y218637D03*
X557324Y242476D03*
X535085Y224991D03*
X547000Y249509D03*
X532000Y261009D03*
X454915Y209009D03*
X466000Y209299D03*
X526000Y320813D03*
X504000Y320009D03*
X459973Y243174D03*
X551000Y266009D03*
X555509Y228000D03*
X528991Y216000D03*
X496393Y218449D03*
X487662Y231517D03*
X498775Y255139D03*
X491544Y270887D03*
X457534Y317815D03*
X443830Y312550D03*
X453870Y304680D03*
Y310980D03*
Y317280D03*
X446000Y304090D03*
X444470Y317320D03*
X467900Y317650D03*
X447570Y307830D03*
Y314130D03*
Y320430D03*
X443795Y309402D03*
X442233Y296907D03*
X490447Y277858D03*
X488586Y272856D03*
X442404Y261045D03*
X451851Y224756D03*
X498975Y245297D03*
X461418Y231363D03*
X482629Y235454D03*
X504810Y219500D03*
X470629Y235000D03*
X472443Y245143D03*
X485000Y217950D03*
X515000Y285009D03*
X535000Y271991D03*
X498980Y241118D03*
X530990Y290000D03*
X500590Y263010D03*
X498780Y248990D03*
X498690Y225320D03*
X475000Y219830D03*
Y209010D03*
X447000Y209590D03*
X460568Y219012D03*
X451000Y216209D03*
X500990Y242830D03*
X530000Y271490D03*
X509000D03*
X501990Y245810D03*
X490320Y251050D03*
X502290Y249000D03*
X501990Y234670D03*
X485000Y202990D03*
X477010Y216210D03*
X449410Y209590D03*
X441915Y209591D03*
X514997Y238915D03*
X515533Y242986D03*
X515412Y204192D03*
X515109Y209729D03*
X511101Y218976D03*
X515533Y227559D03*
X515638Y235000D03*
X515676Y249000D03*
X512009Y260001D03*
X501157Y269302D03*
X529759Y239009D03*
X447639Y329905D03*
X443558Y325150D03*
X457571Y322653D03*
X454460Y350350D03*
Y331450D03*
X457780Y327650D03*
X457940Y338000D03*
X457780Y343000D03*
Y351650D03*
X453870Y323580D03*
X457780Y332650D03*
X450720Y333020D03*
X454460Y344050D03*
X467900Y322650D03*
X468260Y343000D03*
X467900Y327650D03*
Y351650D03*
Y332650D03*
X444860Y370900D03*
X468260Y338000D03*
X450720Y326730D03*
X455388Y328300D03*
X450676Y323528D03*
X572509Y194000D03*
X582345Y294000D03*
G54D14*
X10063Y197622D03*
X17937Y118882D03*
X10063D03*
X17937Y126756D03*
X10063D03*
X17937Y134630D03*
X10063D03*
X17937Y142504D03*
X10063D03*
X17937Y150378D03*
X10063D03*
X17937Y158252D03*
X10063D03*
X17937Y166126D03*
X10063D03*
X17937Y174000D03*
X10063D03*
X17937Y181874D03*
X10063D03*
X17937Y189748D03*
X10063D03*
X17937Y197622D03*
Y205496D03*
X10063D03*
X17937Y213370D03*
X10063D03*
X17937Y221244D03*
X10063D03*
X17937Y229118D03*
X10063D03*
X192748Y-15000D03*
X184874D03*
X177000D03*
X169126D03*
X161252D03*
X235008Y66063D03*
Y73937D03*
X242882Y66063D03*
Y73937D03*
X250756Y66063D03*
Y73937D03*
X258630Y66063D03*
Y73937D03*
X266504Y66063D03*
Y73937D03*
X274378Y66063D03*
Y73937D03*
X282252Y66063D03*
Y73937D03*
X290126Y66063D03*
Y73937D03*
X298000Y66063D03*
Y73937D03*
X305874Y66063D03*
Y73937D03*
X313748Y66063D03*
Y73937D03*
X321622Y66063D03*
Y73937D03*
X266504Y41063D03*
X258630Y48937D03*
Y41063D03*
X250756Y48937D03*
Y41063D03*
X242882Y48937D03*
Y41063D03*
X321622Y48937D03*
Y41063D03*
X313748Y48937D03*
Y41063D03*
X305874Y48937D03*
X235008D03*
X305874Y41063D03*
X298000Y48937D03*
Y41063D03*
X290126Y48937D03*
Y41063D03*
X282252Y48937D03*
Y41063D03*
X274378Y48937D03*
Y41063D03*
X266504Y48937D03*
X235008Y41063D03*
X329496Y73937D03*
X337370Y66063D03*
Y73937D03*
X345244Y66063D03*
Y73937D03*
X353118Y66063D03*
Y73937D03*
X360992Y66063D03*
X329496D03*
X360992Y73937D03*
Y48937D03*
Y41063D03*
X353118Y48937D03*
Y41063D03*
X345244Y48937D03*
Y41063D03*
X337370Y48937D03*
Y41063D03*
X329496Y48937D03*
Y41063D03*
X532716Y119660D03*
X542716Y114660D03*
X532716Y109660D03*
X542716Y104660D03*
X532716Y99660D03*
X542716Y94660D03*
X532716Y89660D03*
X542716Y84660D03*
X495250Y125750D03*
Y118250D03*
G54D15*
X12000Y352000D03*
Y362000D03*
X82000D03*
Y352000D03*
X122000D03*
X112000Y362000D03*
Y352000D03*
X102000Y362000D03*
Y352000D03*
X92000Y362000D03*
Y352000D03*
X142000Y362000D03*
Y352000D03*
X132000Y362000D03*
Y352000D03*
X122000Y362000D03*
X267000Y20000D03*
X257000D03*
X287000Y10000D03*
X247000D03*
X257000D03*
X277000D03*
X297000D03*
X267000D03*
X307000Y20000D03*
X297000D03*
X287000D03*
X247000D03*
X307000Y10000D03*
X317000Y20000D03*
Y10000D03*
X277000Y20000D03*
X346000Y11000D03*
X356000D03*
X366000D03*
X443000Y31000D03*
X433000D03*
X529000Y32000D03*
Y42000D03*
X453000Y31000D03*
X513000Y125000D03*
Y115000D03*
X486000Y324000D03*
Y314000D03*
Y304000D03*
Y294000D03*
X578000Y-72000D03*
X568000Y-82000D03*
X578000D03*
X568000Y-92000D03*
X578000D03*
X568000Y-102000D03*
X578000D03*
X568000Y-112000D03*
Y-72000D03*
X578000Y-112000D03*
X564747Y146815D03*
X574747D03*
G54D16*
X134849Y-47476D03*
X389849D03*
G54D17*
X200250Y57000D03*
Y77000D03*
X399000Y121750D03*
X419000D03*
X556929Y57337D03*
X576929D03*
X564810Y202437D03*
X575610Y240237D03*
Y229437D03*
Y218637D03*
Y207837D03*
X564810Y245637D03*
Y234837D03*
Y224037D03*
Y213237D03*
G54D18*
X555216Y72460D03*
X562179Y5578D03*
Y25264D03*
Y-4264D03*
Y35106D03*
Y15421D03*
X555216Y131760D03*
X581864Y15421D03*
Y-4264D03*
Y35106D03*
G54D19*
X567284Y352337D03*
M02*
