G04 ================== begin FILE IDENTIFICATION RECORD ==================*
G04 Layout Name:  D:/project/IRISking/ikemb-0002/project/PPC/IKEMB0002-V1.brd*
G04 Film Name:    Silk_Top*
G04 File Format:  Gerber RS274X*
G04 File Origin:  15.7-p007*
G04 Origin Date:  Thu Jan 17 16:10:02 2008*
G04 *
G04 Layer:  REF DES/ASSEMBLY_TOP*
G04 Layer:  REF DES/SILKSCREEN_TOP*
G04 Layer:  PACKAGE GEOMETRY/SILKSCREEN_TOP*
G04 Layer:  BOARD GEOMETRY/OUTLINE*
G04 *
G04 Offset:    (0.000 0.000)*
G04 Mirror:    No*
G04 Mode:      Positive*
G04 Rotation:  0*
G04 FullContactRelief:  No*
G04 UndefLineWidth:     7.988*
G04 ================== end FILE IDENTIFICATION RECORD ====================*
%FSLAX55Y55*MOIN*%
%IR0*IPPOS*OFA0.00000B0.00000*MIA0B0*SFA1.00000B1.00000*%
%ADD10C,.007988*%
G75*
%LPD*%
G75*
G54D10*
G01X406349Y-27476D02*
X65849D01*
Y-67476D01*
X406349D01*
Y-27476D01*
G01X590500Y-138000D02*
Y374000D01*
X0D01*
Y-138000D01*
X590500D01*
G01X43000Y104000D02*
X38000D01*
Y99000D01*
X43000D01*
Y84000D01*
X38000D01*
Y79000D01*
X43000D01*
Y64000D01*
X38000D01*
Y59000D01*
X43000D01*
Y44000D01*
X38000D01*
Y39000D01*
X43000D01*
Y24000D01*
X38000D01*
Y19000D01*
X43000D01*
G01X73000Y109000D02*
Y9000D01*
X43000D01*
Y109000D01*
X73000D01*
Y99000D01*
X63000Y109000D01*
X43000D01*
Y9000D01*
X63000D01*
X73000Y19000D01*
G01X32000Y14000D02*
X37000D01*
Y19000D01*
X32000D01*
Y34000D01*
X37000D01*
Y39000D01*
X32000D01*
Y54000D01*
X37000D01*
Y59000D01*
X32000D01*
Y74000D01*
X37000D01*
Y79000D01*
X32000D01*
Y94000D01*
X37000D01*
Y99000D01*
X32000D01*
G01X2000Y9000D02*
Y109000D01*
X32000D01*
Y9000D01*
X2000D01*
Y19000D01*
X12000Y9000D01*
X32000D01*
Y109000D01*
X12000D01*
X2000Y99000D01*
G01X125Y90D02*
Y374105D01*
X590676D01*
Y-137705D01*
X535558D01*
Y-49010D01*
X354449D01*
Y90D01*
X125D01*
G01X67913Y11636D02*
X68223Y11828D01*
X68430Y12058D01*
X68533Y12326D01*
X68430Y12632D01*
X68223Y12862D01*
X67913Y13092D01*
X67500Y13169D01*
X65435D01*
G01X68533Y15960D02*
X65435D01*
X67655Y14542D01*
Y16458D01*
G01X68068Y17755D02*
X68326Y17984D01*
X68481Y18253D01*
X68533Y18598D01*
X68430Y18942D01*
X68223Y19211D01*
X67862Y19402D01*
X67448Y19440D01*
X67035Y19364D01*
X66777Y19172D01*
X66571Y18904D01*
X66519Y18636D01*
X66571Y18368D01*
X66777Y18023D01*
X65435Y18138D01*
Y19172D01*
G01X25811Y236992D02*
Y111008D01*
X2189D01*
Y236992D01*
X25811D01*
G01X42342Y200640D02*
G03I-1450J710D01*
G01X38128Y173843D02*
X53876D01*
Y204157D01*
X38128D01*
Y173843D01*
G01X42274Y168719D02*
G03I-1450J710D01*
G01X38060Y141922D02*
X53808D01*
Y172236D01*
X38060D01*
Y141922D01*
G01X28291Y123346D02*
Y116654D01*
X39709D01*
Y123346D01*
X28291D01*
G01X38817Y120000D02*
G03I-880J0D01*
G01X50000Y117500D02*
Y110500D01*
X60000D01*
Y112500D01*
Y117500D01*
G01X50000Y135600D02*
X60000D01*
Y110400D01*
X50000D01*
Y135600D01*
G01D02*
X60000D01*
Y134000D01*
X50000D01*
Y135600D01*
G01X41500Y114000D02*
Y113000D01*
X46500D01*
Y115500D01*
G01Y122500D02*
Y125000D01*
X41500D01*
Y124000D01*
G01X41200Y125200D02*
X46800D01*
Y112800D01*
X41200D01*
Y125200D01*
G01X6413Y89136D02*
X6723Y89328D01*
X6930Y89558D01*
X7033Y89826D01*
X6930Y90132D01*
X6723Y90362D01*
X6413Y90592D01*
X6000Y90669D01*
X3935D01*
G01X7033Y93460D02*
X3935D01*
X6155Y92042D01*
Y93958D01*
G01X5742Y95370D02*
X5380Y95638D01*
X5174Y95868D01*
X5071Y96174D01*
X5174Y96442D01*
X5380Y96634D01*
X5690Y96787D01*
X6052Y96826D01*
X6362Y96787D01*
X6671Y96634D01*
X6930Y96404D01*
X7033Y96136D01*
X6930Y95829D01*
X6620Y95561D01*
X6155Y95408D01*
X5639Y95370D01*
X4967Y95446D01*
X4606Y95561D01*
X4244Y95753D01*
X3986Y96021D01*
X3935Y96289D01*
X4038Y96557D01*
X4296Y96749D01*
G01X62060Y173065D02*
Y170845D01*
X62213Y170380D01*
X62519Y170070D01*
X62902Y169967D01*
X63286Y170070D01*
X63592Y170380D01*
X63745Y170845D01*
Y173065D01*
G01X65157Y170587D02*
X65387Y170225D01*
X65694Y170019D01*
X66038Y169967D01*
X66345Y170019D01*
X66651Y170277D01*
X66843Y170587D01*
X66881Y170897D01*
X66805Y171258D01*
X66536Y171516D01*
X66268Y171620D01*
X65923D01*
G01X66268D02*
X66498Y171774D01*
X66690Y172033D01*
X66766Y172342D01*
X66690Y172652D01*
X66498Y172910D01*
X66153Y173065D01*
X65808Y173014D01*
X65464Y172807D01*
G01X68255Y170587D02*
X68484Y170225D01*
X68791Y170019D01*
X69136Y169967D01*
X69442Y170019D01*
X69749Y170277D01*
X69940Y170587D01*
X69979Y170897D01*
X69902Y171258D01*
X69634Y171516D01*
X69366Y171620D01*
X69021D01*
G01X69366D02*
X69596Y171774D01*
X69787Y172033D01*
X69864Y172342D01*
X69787Y172652D01*
X69596Y172910D01*
X69251Y173065D01*
X68906Y173014D01*
X68561Y172807D01*
G01X62060Y173065D02*
Y170845D01*
X62213Y170380D01*
X62519Y170070D01*
X62902Y169967D01*
X63286Y170070D01*
X63592Y170380D01*
X63745Y170845D01*
Y173065D01*
G01X65157Y170587D02*
X65387Y170225D01*
X65694Y170019D01*
X66038Y169967D01*
X66345Y170019D01*
X66651Y170277D01*
X66843Y170587D01*
X66881Y170897D01*
X66805Y171258D01*
X66536Y171516D01*
X66268Y171620D01*
X65923D01*
G01X66268D02*
X66498Y171774D01*
X66690Y172033D01*
X66766Y172342D01*
X66690Y172652D01*
X66498Y172910D01*
X66153Y173065D01*
X65808Y173014D01*
X65464Y172807D01*
G01X68255Y170587D02*
X68484Y170225D01*
X68791Y170019D01*
X69136Y169967D01*
X69442Y170019D01*
X69749Y170277D01*
X69940Y170587D01*
X69979Y170897D01*
X69902Y171258D01*
X69634Y171516D01*
X69366Y171620D01*
X69021D01*
G01X69366D02*
X69596Y171774D01*
X69787Y172033D01*
X69864Y172342D01*
X69787Y172652D01*
X69596Y172910D01*
X69251Y173065D01*
X68906Y173014D01*
X68561Y172807D01*
G01X30060Y137065D02*
Y134845D01*
X30213Y134380D01*
X30519Y134070D01*
X30902Y133967D01*
X31286Y134070D01*
X31592Y134380D01*
X31745Y134845D01*
Y137065D01*
G01X34460Y133967D02*
Y137065D01*
X33042Y134845D01*
X34958D01*
G01X36446Y134329D02*
X36714Y134070D01*
X37021Y133967D01*
X37328Y134070D01*
X37596Y134380D01*
X37787Y134845D01*
X37864Y135310D01*
Y135878D01*
X37787Y136342D01*
X37596Y136756D01*
X37366Y136962D01*
X37098Y137065D01*
X36791Y136962D01*
X36561Y136756D01*
X36408Y136446D01*
X36331Y136033D01*
X36408Y135671D01*
X36600Y135310D01*
X36829Y135103D01*
X37098Y135052D01*
X37404Y135155D01*
X37634Y135413D01*
X37864Y135878D01*
G01X30060Y137065D02*
Y134845D01*
X30213Y134380D01*
X30519Y134070D01*
X30902Y133967D01*
X31286Y134070D01*
X31592Y134380D01*
X31745Y134845D01*
Y137065D01*
G01X34460Y133967D02*
Y137065D01*
X33042Y134845D01*
X34958D01*
G01X36446Y134329D02*
X36714Y134070D01*
X37021Y133967D01*
X37328Y134070D01*
X37596Y134380D01*
X37787Y134845D01*
X37864Y135310D01*
Y135878D01*
X37787Y136342D01*
X37596Y136756D01*
X37366Y136962D01*
X37098Y137065D01*
X36791Y136962D01*
X36561Y136756D01*
X36408Y136446D01*
X36331Y136033D01*
X36408Y135671D01*
X36600Y135310D01*
X36829Y135103D01*
X37098Y135052D01*
X37404Y135155D01*
X37634Y135413D01*
X37864Y135878D01*
G01X42193Y128196D02*
X42038Y127967D01*
X41935Y127698D01*
Y127392D01*
X42090Y127047D01*
X42348Y126779D01*
X42658Y126587D01*
X43174Y126434D01*
X43639Y126396D01*
X44103Y126472D01*
X44413Y126587D01*
X44723Y126817D01*
X44930Y127085D01*
X45033Y127354D01*
Y127622D01*
X44930Y127890D01*
X44775Y128120D01*
X44568Y128312D01*
G01X42451Y129723D02*
X42141Y129953D01*
X41986Y130221D01*
X41935Y130528D01*
X42038Y130911D01*
X42296Y131179D01*
X42606Y131256D01*
X42916Y131218D01*
X43174Y131064D01*
X43690Y130298D01*
X44052Y129953D01*
X44568Y129723D01*
X45033Y129647D01*
Y131256D01*
G01X42451Y132821D02*
X42141Y133051D01*
X41986Y133319D01*
X41935Y133625D01*
X42038Y134009D01*
X42296Y134277D01*
X42606Y134353D01*
X42916Y134315D01*
X43174Y134162D01*
X43690Y133396D01*
X44052Y133051D01*
X44568Y132821D01*
X45033Y132744D01*
Y134353D01*
G01X43742Y135918D02*
X43380Y136187D01*
X43174Y136416D01*
X43071Y136723D01*
X43174Y136991D01*
X43380Y137183D01*
X43690Y137336D01*
X44052Y137374D01*
X44362Y137336D01*
X44671Y137183D01*
X44930Y136953D01*
X45033Y136685D01*
X44930Y136378D01*
X44620Y136110D01*
X44155Y135957D01*
X43639Y135918D01*
X42967Y135995D01*
X42606Y136110D01*
X42244Y136302D01*
X41986Y136570D01*
X41935Y136838D01*
X42038Y137106D01*
X42296Y137298D01*
G01X61193Y130196D02*
X61038Y129967D01*
X60935Y129698D01*
Y129392D01*
X61090Y129047D01*
X61348Y128779D01*
X61658Y128587D01*
X62174Y128434D01*
X62639Y128396D01*
X63103Y128472D01*
X63413Y128587D01*
X63723Y128817D01*
X63929Y129085D01*
X64033Y129354D01*
Y129622D01*
X63929Y129890D01*
X63775Y130120D01*
X63568Y130312D01*
G01X61451Y131723D02*
X61141Y131953D01*
X60986Y132221D01*
X60935Y132528D01*
X61038Y132911D01*
X61296Y133179D01*
X61606Y133256D01*
X61916Y133218D01*
X62174Y133064D01*
X62690Y132298D01*
X63052Y131953D01*
X63568Y131723D01*
X64033Y131647D01*
Y133256D01*
G01Y135472D02*
X63362Y135549D01*
X62794Y135664D01*
X62277Y135817D01*
X61709Y136009D01*
X60935Y136315D01*
Y134782D01*
G01X62742Y137918D02*
X62380Y138187D01*
X62174Y138416D01*
X62071Y138723D01*
X62174Y138991D01*
X62380Y139183D01*
X62690Y139336D01*
X63052Y139374D01*
X63362Y139336D01*
X63671Y139183D01*
X63929Y138953D01*
X64033Y138685D01*
X63929Y138378D01*
X63620Y138110D01*
X63155Y137957D01*
X62639Y137918D01*
X61967Y137995D01*
X61606Y138110D01*
X61244Y138302D01*
X60986Y138570D01*
X60935Y138838D01*
X61038Y139106D01*
X61296Y139298D01*
G01X61193Y130196D02*
X61038Y129967D01*
X60935Y129698D01*
Y129392D01*
X61090Y129047D01*
X61348Y128779D01*
X61658Y128587D01*
X62174Y128434D01*
X62639Y128396D01*
X63103Y128472D01*
X63413Y128587D01*
X63723Y128817D01*
X63929Y129085D01*
X64033Y129354D01*
Y129622D01*
X63929Y129890D01*
X63775Y130120D01*
X63568Y130312D01*
G01X61451Y131723D02*
X61141Y131953D01*
X60986Y132221D01*
X60935Y132528D01*
X61038Y132911D01*
X61296Y133179D01*
X61606Y133256D01*
X61916Y133218D01*
X62174Y133064D01*
X62690Y132298D01*
X63052Y131953D01*
X63568Y131723D01*
X64033Y131647D01*
Y133256D01*
G01Y135472D02*
X63362Y135549D01*
X62794Y135664D01*
X62277Y135817D01*
X61709Y136009D01*
X60935Y136315D01*
Y134782D01*
G01X62742Y137918D02*
X62380Y138187D01*
X62174Y138416D01*
X62071Y138723D01*
X62174Y138991D01*
X62380Y139183D01*
X62690Y139336D01*
X63052Y139374D01*
X63362Y139336D01*
X63671Y139183D01*
X63929Y138953D01*
X64033Y138685D01*
X63929Y138378D01*
X63620Y138110D01*
X63155Y137957D01*
X62639Y137918D01*
X61967Y137995D01*
X61606Y138110D01*
X61244Y138302D01*
X60986Y138570D01*
X60935Y138838D01*
X61038Y139106D01*
X61296Y139298D01*
G01X42342Y232640D02*
G03I-1450J710D01*
G01X38128Y205843D02*
X53876D01*
Y236157D01*
X38128D01*
Y205843D01*
G01X32002Y243197D02*
X37002D01*
Y248197D01*
X32002D01*
Y263197D01*
X37002D01*
Y268197D01*
X32002D01*
Y283197D01*
X37002D01*
Y288197D01*
X32002D01*
Y303197D01*
X37002D01*
Y308197D01*
X32002D01*
Y323197D01*
X37002D01*
Y328197D01*
X32002D01*
G01X2002Y238197D02*
Y338197D01*
X32002D01*
Y238197D01*
X2002D01*
Y248197D01*
X12002Y238197D01*
X32002D01*
Y338197D01*
X12002D01*
X2002Y328197D01*
G01X60000Y248260D02*
X100000D01*
Y335740D01*
X60000D01*
Y248260D01*
G01X76060Y295098D02*
Y292878D01*
X76213Y292413D01*
X76519Y292103D01*
X76902Y292000D01*
X77286Y292103D01*
X77592Y292413D01*
X77745Y292878D01*
Y295098D01*
G01X79272Y294582D02*
X79502Y294891D01*
X79770Y295046D01*
X80077Y295098D01*
X80460Y294995D01*
X80728Y294736D01*
X80805Y294427D01*
X80766Y294117D01*
X80613Y293859D01*
X79847Y293342D01*
X79502Y292981D01*
X79272Y292465D01*
X79195Y292000D01*
X80805D01*
G01X83098D02*
X83366Y292052D01*
X83672Y292206D01*
X83864Y292465D01*
X83940Y292826D01*
X83864Y293188D01*
X83634Y293497D01*
X83289Y293652D01*
X82906D01*
X82676Y293755D01*
X82484Y294014D01*
X82408Y294375D01*
X82523Y294736D01*
X82791Y294995D01*
X83098Y295098D01*
X83404Y294995D01*
X83672Y294736D01*
X83787Y294375D01*
X83711Y294014D01*
X83519Y293755D01*
X83289Y293652D01*
X82906D01*
X82561Y293497D01*
X82331Y293188D01*
X82255Y292826D01*
X82331Y292465D01*
X82523Y292206D01*
X82829Y292052D01*
X83098Y292000D01*
G01X7913Y251636D02*
X8223Y251828D01*
X8430Y252058D01*
X8533Y252326D01*
X8430Y252632D01*
X8223Y252862D01*
X7913Y253092D01*
X7500Y253169D01*
X5435D01*
G01X8533Y255960D02*
X5435D01*
X7655Y254542D01*
Y256458D01*
G01X5951Y257870D02*
X5641Y258100D01*
X5486Y258368D01*
X5435Y258674D01*
X5538Y259057D01*
X5796Y259326D01*
X6106Y259402D01*
X6416Y259364D01*
X6674Y259211D01*
X7190Y258444D01*
X7552Y258100D01*
X8068Y257870D01*
X8533Y257793D01*
Y259402D01*
G01X5413Y227136D02*
X5723Y227328D01*
X5930Y227558D01*
X6033Y227826D01*
X5930Y228132D01*
X5723Y228362D01*
X5413Y228592D01*
X5000Y228669D01*
X2935D01*
G01X6033Y231000D02*
X2935D01*
X3554Y230540D01*
G01X6033D02*
Y231460D01*
G01Y234557D02*
X2935D01*
X5155Y233140D01*
Y235056D01*
G01X57060Y241065D02*
Y238845D01*
X57213Y238380D01*
X57519Y238070D01*
X57902Y237967D01*
X58286Y238070D01*
X58592Y238380D01*
X58745Y238845D01*
Y241065D01*
G01X60157Y238587D02*
X60387Y238225D01*
X60694Y238019D01*
X61038Y237967D01*
X61345Y238019D01*
X61651Y238277D01*
X61843Y238587D01*
X61881Y238897D01*
X61805Y239258D01*
X61536Y239516D01*
X61268Y239620D01*
X60923D01*
G01X61268D02*
X61498Y239774D01*
X61690Y240033D01*
X61766Y240342D01*
X61690Y240652D01*
X61498Y240910D01*
X61153Y241065D01*
X60808Y241014D01*
X60464Y240807D01*
G01X63370Y240549D02*
X63600Y240859D01*
X63868Y241014D01*
X64174Y241065D01*
X64557Y240962D01*
X64826Y240704D01*
X64902Y240394D01*
X64864Y240084D01*
X64711Y239826D01*
X63944Y239310D01*
X63600Y238948D01*
X63370Y238432D01*
X63293Y237967D01*
X64902D01*
G01X57060Y241065D02*
Y238845D01*
X57213Y238380D01*
X57519Y238070D01*
X57902Y237967D01*
X58286Y238070D01*
X58592Y238380D01*
X58745Y238845D01*
Y241065D01*
G01X60157Y238587D02*
X60387Y238225D01*
X60694Y238019D01*
X61038Y237967D01*
X61345Y238019D01*
X61651Y238277D01*
X61843Y238587D01*
X61881Y238897D01*
X61805Y239258D01*
X61536Y239516D01*
X61268Y239620D01*
X60923D01*
G01X61268D02*
X61498Y239774D01*
X61690Y240033D01*
X61766Y240342D01*
X61690Y240652D01*
X61498Y240910D01*
X61153Y241065D01*
X60808Y241014D01*
X60464Y240807D01*
G01X63370Y240549D02*
X63600Y240859D01*
X63868Y241014D01*
X64174Y241065D01*
X64557Y240962D01*
X64826Y240704D01*
X64902Y240394D01*
X64864Y240084D01*
X64711Y239826D01*
X63944Y239310D01*
X63600Y238948D01*
X63370Y238432D01*
X63293Y237967D01*
X64902D01*
G01X62060Y206065D02*
Y203845D01*
X62213Y203380D01*
X62519Y203070D01*
X62902Y202967D01*
X63286Y203070D01*
X63592Y203380D01*
X63745Y203845D01*
Y206065D01*
G01X65157Y203587D02*
X65387Y203225D01*
X65694Y203019D01*
X66038Y202967D01*
X66345Y203019D01*
X66651Y203277D01*
X66843Y203587D01*
X66881Y203897D01*
X66805Y204258D01*
X66536Y204516D01*
X66268Y204620D01*
X65923D01*
G01X66268D02*
X66498Y204774D01*
X66690Y205033D01*
X66766Y205342D01*
X66690Y205652D01*
X66498Y205910D01*
X66153Y206065D01*
X65808Y206014D01*
X65464Y205807D01*
G01X69098Y202967D02*
Y206065D01*
X68638Y205446D01*
G01Y202967D02*
X69557D01*
G01X62060Y206065D02*
Y203845D01*
X62213Y203380D01*
X62519Y203070D01*
X62902Y202967D01*
X63286Y203070D01*
X63592Y203380D01*
X63745Y203845D01*
Y206065D01*
G01X65157Y203587D02*
X65387Y203225D01*
X65694Y203019D01*
X66038Y202967D01*
X66345Y203019D01*
X66651Y203277D01*
X66843Y203587D01*
X66881Y203897D01*
X66805Y204258D01*
X66536Y204516D01*
X66268Y204620D01*
X65923D01*
G01X66268D02*
X66498Y204774D01*
X66690Y205033D01*
X66766Y205342D01*
X66690Y205652D01*
X66498Y205910D01*
X66153Y206065D01*
X65808Y206014D01*
X65464Y205807D01*
G01X69098Y202967D02*
Y206065D01*
X68638Y205446D01*
G01Y202967D02*
X69557D01*
G01X2000Y342000D02*
Y372000D01*
X22000D01*
Y342000D01*
X2000D01*
G01X64646Y331370D02*
G03I-1181J787D01*
G01X62000Y372000D02*
X162000D01*
Y342000D01*
X62000D01*
Y372000D01*
G01X44060Y335565D02*
Y333345D01*
X44213Y332880D01*
X44519Y332570D01*
X44902Y332467D01*
X45286Y332570D01*
X45592Y332880D01*
X45745Y333345D01*
Y335565D01*
G01X47272Y335049D02*
X47502Y335359D01*
X47770Y335514D01*
X48077Y335565D01*
X48460Y335462D01*
X48728Y335204D01*
X48805Y334894D01*
X48766Y334584D01*
X48613Y334326D01*
X47847Y333810D01*
X47502Y333448D01*
X47272Y332932D01*
X47195Y332467D01*
X48805D01*
G01X51098D02*
X51366Y332519D01*
X51672Y332674D01*
X51864Y332932D01*
X51940Y333293D01*
X51864Y333655D01*
X51634Y333965D01*
X51289Y334120D01*
X50906D01*
X50676Y334223D01*
X50484Y334481D01*
X50408Y334842D01*
X50523Y335204D01*
X50791Y335462D01*
X51098Y335565D01*
X51404Y335462D01*
X51672Y335204D01*
X51787Y334842D01*
X51711Y334481D01*
X51519Y334223D01*
X51289Y334120D01*
X50906D01*
X50561Y333965D01*
X50331Y333655D01*
X50255Y333293D01*
X50331Y332932D01*
X50523Y332674D01*
X50829Y332519D01*
X51098Y332467D01*
G01X24136Y366587D02*
X24328Y366277D01*
X24558Y366070D01*
X24826Y365967D01*
X25132Y366070D01*
X25362Y366277D01*
X25592Y366587D01*
X25669Y367000D01*
Y369065D01*
G01X28460Y365967D02*
Y369065D01*
X27042Y366845D01*
X28958D01*
G01X30446Y366329D02*
X30714Y366070D01*
X31021Y365967D01*
X31327Y366070D01*
X31596Y366380D01*
X31787Y366845D01*
X31864Y367310D01*
Y367878D01*
X31787Y368342D01*
X31596Y368755D01*
X31366Y368962D01*
X31098Y369065D01*
X30791Y368962D01*
X30561Y368755D01*
X30408Y368446D01*
X30331Y368033D01*
X30408Y367671D01*
X30600Y367310D01*
X30829Y367103D01*
X31098Y367052D01*
X31404Y367155D01*
X31634Y367413D01*
X31864Y367878D01*
G01X24136Y366587D02*
X24328Y366277D01*
X24558Y366070D01*
X24826Y365967D01*
X25132Y366070D01*
X25362Y366277D01*
X25592Y366587D01*
X25669Y367000D01*
Y369065D01*
G01X28460Y365967D02*
Y369065D01*
X27042Y366845D01*
X28958D01*
G01X30446Y366329D02*
X30714Y366070D01*
X31021Y365967D01*
X31327Y366070D01*
X31596Y366380D01*
X31787Y366845D01*
X31864Y367310D01*
Y367878D01*
X31787Y368342D01*
X31596Y368755D01*
X31366Y368962D01*
X31098Y369065D01*
X30791Y368962D01*
X30561Y368755D01*
X30408Y368446D01*
X30331Y368033D01*
X30408Y367671D01*
X30600Y367310D01*
X30829Y367103D01*
X31098Y367052D01*
X31404Y367155D01*
X31634Y367413D01*
X31864Y367878D01*
G01X67685Y345587D02*
X67876Y345277D01*
X68106Y345070D01*
X68375Y344967D01*
X68681Y345070D01*
X68911Y345277D01*
X69141Y345587D01*
X69218Y346000D01*
Y348065D01*
G01X71549Y344967D02*
X71817Y345019D01*
X72124Y345174D01*
X72315Y345432D01*
X72392Y345793D01*
X72315Y346155D01*
X72085Y346465D01*
X71740Y346620D01*
X71357D01*
X71127Y346723D01*
X70936Y346981D01*
X70859Y347342D01*
X70974Y347704D01*
X71242Y347962D01*
X71549Y348065D01*
X71855Y347962D01*
X72124Y347704D01*
X72238Y347342D01*
X72162Y346981D01*
X71970Y346723D01*
X71740Y346620D01*
X71357D01*
X71012Y346465D01*
X70782Y346155D01*
X70706Y345793D01*
X70782Y345432D01*
X70974Y345174D01*
X71281Y345019D01*
X71549Y344967D01*
G01X192750Y87000D02*
X207750D01*
Y47000D01*
X192750D01*
Y87000D01*
G01X198000Y30000D02*
X224000D01*
Y0D01*
X198000D01*
Y30000D01*
G01X153378Y-7126D02*
X200622D01*
Y-22874D01*
X153378D01*
Y-7126D01*
G01X93630Y21441D02*
X172370D01*
Y76559D01*
X93630D01*
Y21441D01*
G01X107072Y29315D02*
G03I-5568J0D01*
G01X105441D02*
G03I-3937J0D01*
G01X170064Y68685D02*
G03I-5568J0D01*
G01X199560Y36065D02*
Y33845D01*
X199713Y33380D01*
X200019Y33070D01*
X200402Y32967D01*
X200786Y33070D01*
X201092Y33380D01*
X201245Y33845D01*
Y36065D01*
G01X203500Y32967D02*
Y36065D01*
X203040Y35446D01*
G01Y32967D02*
X203960D01*
G01X206521D02*
X206598Y33638D01*
X206713Y34206D01*
X206866Y34723D01*
X207057Y35291D01*
X207364Y36065D01*
X205831D01*
G01X155636Y-4413D02*
X155828Y-4723D01*
X156058Y-4930D01*
X156326Y-5033D01*
X156632Y-4930D01*
X156862Y-4723D01*
X157092Y-4413D01*
X157169Y-4000D01*
Y-1935D01*
G01X159960Y-5033D02*
Y-1935D01*
X158542Y-4155D01*
X160458D01*
G01X162598Y-5033D02*
X162866Y-4981D01*
X163172Y-4826D01*
X163364Y-4568D01*
X163440Y-4207D01*
X163364Y-3845D01*
X163134Y-3535D01*
X162789Y-3380D01*
X162406D01*
X162176Y-3277D01*
X161984Y-3019D01*
X161908Y-2658D01*
X162023Y-2296D01*
X162291Y-2038D01*
X162598Y-1935D01*
X162904Y-2038D01*
X163172Y-2296D01*
X163287Y-2658D01*
X163211Y-3019D01*
X163019Y-3277D01*
X162789Y-3380D01*
X162406D01*
X162061Y-3535D01*
X161831Y-3845D01*
X161755Y-4207D01*
X161831Y-4568D01*
X162023Y-4826D01*
X162329Y-4981D01*
X162598Y-5033D01*
G01X86560Y83565D02*
Y81345D01*
X86713Y80880D01*
X87019Y80570D01*
X87402Y80467D01*
X87786Y80570D01*
X88092Y80880D01*
X88245Y81345D01*
Y83565D01*
G01X89772Y81758D02*
X90040Y82120D01*
X90270Y82326D01*
X90577Y82429D01*
X90845Y82326D01*
X91036Y82120D01*
X91190Y81810D01*
X91228Y81448D01*
X91190Y81138D01*
X91036Y80829D01*
X90807Y80570D01*
X90538Y80467D01*
X90232Y80570D01*
X89964Y80880D01*
X89810Y81345D01*
X89772Y81861D01*
X89849Y82533D01*
X89964Y82894D01*
X90155Y83256D01*
X90423Y83514D01*
X90692Y83565D01*
X90960Y83462D01*
X91151Y83204D01*
G01X92870Y83049D02*
X93100Y83359D01*
X93368Y83514D01*
X93674Y83565D01*
X94057Y83462D01*
X94326Y83204D01*
X94402Y82894D01*
X94364Y82584D01*
X94211Y82326D01*
X93444Y81810D01*
X93100Y81448D01*
X92870Y80932D01*
X92793Y80467D01*
X94402D01*
G01X86727Y195267D02*
X86527Y195387D01*
X86427Y195528D01*
X86394Y195688D01*
X86460Y195888D01*
X86627Y196028D01*
X86827Y196068D01*
X87027Y196048D01*
X87194Y195968D01*
X87527Y195568D01*
X87760Y195387D01*
X88094Y195267D01*
X88394Y195227D01*
Y196068D01*
G01Y196947D02*
X86394D01*
X86794Y196707D01*
G01X88394D02*
Y197187D01*
G01X86727Y198417D02*
X86527Y198537D01*
X86427Y198677D01*
X86394Y198837D01*
X86460Y199038D01*
X86627Y199178D01*
X86827Y199218D01*
X87027Y199198D01*
X87194Y199118D01*
X87527Y198717D01*
X87760Y198537D01*
X88094Y198417D01*
X88394Y198377D01*
Y199218D01*
G01X86727Y199716D02*
X86527Y199836D01*
X86427Y199976D01*
X86394Y200136D01*
X86460Y200337D01*
X86627Y200477D01*
X86827Y200517D01*
X87027Y200497D01*
X87194Y200417D01*
X87527Y200016D01*
X87760Y199836D01*
X88094Y199716D01*
X88394Y199676D01*
Y200517D01*
G01X86727Y192118D02*
X86527Y192238D01*
X86427Y192378D01*
X86394Y192538D01*
X86460Y192738D01*
X86627Y192878D01*
X86827Y192918D01*
X87027Y192898D01*
X87194Y192818D01*
X87527Y192418D01*
X87760Y192238D01*
X88094Y192118D01*
X88394Y192078D01*
Y192918D01*
G01X86394Y193797D02*
X86460Y193637D01*
X86627Y193517D01*
X86827Y193437D01*
X87094Y193377D01*
X87394Y193357D01*
X87694Y193377D01*
X87960Y193437D01*
X88160Y193517D01*
X88327Y193637D01*
X88394Y193797D01*
X88327Y193957D01*
X88160Y194077D01*
X87960Y194158D01*
X87694Y194218D01*
X87394Y194238D01*
X87094Y194218D01*
X86827Y194158D01*
X86627Y194077D01*
X86460Y193957D01*
X86394Y193797D01*
G01X88394Y189348D02*
X86394D01*
X86794Y189108D01*
G01X88394D02*
Y189588D01*
G01X88160Y190307D02*
X88327Y190448D01*
X88394Y190608D01*
X88327Y190768D01*
X88127Y190908D01*
X87827Y191008D01*
X87527Y191048D01*
X87160D01*
X86860Y191008D01*
X86594Y190908D01*
X86460Y190788D01*
X86394Y190648D01*
X86460Y190488D01*
X86594Y190367D01*
X86794Y190287D01*
X87060Y190247D01*
X87294Y190287D01*
X87527Y190387D01*
X87660Y190508D01*
X87694Y190648D01*
X87627Y190808D01*
X87460Y190928D01*
X87160Y191048D01*
G01X88394Y186199D02*
X86394D01*
X86794Y185959D01*
G01X88394D02*
Y186439D01*
G01Y187498D02*
X88360Y187638D01*
X88260Y187798D01*
X88094Y187898D01*
X87860Y187938D01*
X87627Y187898D01*
X87427Y187778D01*
X87327Y187598D01*
Y187398D01*
X87260Y187278D01*
X87094Y187178D01*
X86860Y187138D01*
X86627Y187198D01*
X86460Y187338D01*
X86394Y187498D01*
X86460Y187658D01*
X86627Y187798D01*
X86860Y187858D01*
X87094Y187818D01*
X87260Y187718D01*
X87327Y187598D01*
Y187398D01*
X87427Y187218D01*
X87627Y187098D01*
X87860Y187058D01*
X88094Y187098D01*
X88260Y187198D01*
X88360Y187358D01*
X88394Y187498D01*
G01Y183049D02*
X86394D01*
X86794Y182809D01*
G01X88394D02*
Y183289D01*
G01Y184308D02*
X87960Y184348D01*
X87594Y184408D01*
X87260Y184488D01*
X86894Y184589D01*
X86394Y184749D01*
Y183948D01*
G01X88394Y179900D02*
X86394D01*
X86794Y179659D01*
G01X88394D02*
Y180140D01*
G01X87560Y180818D02*
X87327Y180959D01*
X87194Y181079D01*
X87127Y181239D01*
X87194Y181379D01*
X87327Y181479D01*
X87527Y181559D01*
X87760Y181579D01*
X87960Y181559D01*
X88160Y181479D01*
X88327Y181359D01*
X88394Y181219D01*
X88327Y181059D01*
X88127Y180919D01*
X87827Y180838D01*
X87494Y180818D01*
X87060Y180859D01*
X86827Y180919D01*
X86594Y181019D01*
X86427Y181159D01*
X86394Y181299D01*
X86460Y181439D01*
X86627Y181539D01*
G01X88394Y176750D02*
X86394D01*
X86794Y176510D01*
G01X88394D02*
Y176990D01*
G01X88094Y177609D02*
X88260Y177729D01*
X88360Y177869D01*
X88394Y178049D01*
X88327Y178229D01*
X88194Y178369D01*
X87960Y178470D01*
X87694Y178490D01*
X87427Y178450D01*
X87260Y178349D01*
X87127Y178209D01*
X87094Y178069D01*
X87127Y177929D01*
X87260Y177749D01*
X86394Y177809D01*
Y178349D01*
G01X88394Y173600D02*
X86394D01*
X86794Y173360D01*
G01X88394D02*
Y173840D01*
G01Y175140D02*
X86394D01*
X87827Y174399D01*
Y175400D01*
G01X88394Y170451D02*
X86394D01*
X86794Y170211D01*
G01X88394D02*
Y170691D01*
G01X87994Y171310D02*
X88227Y171430D01*
X88360Y171590D01*
X88394Y171770D01*
X88360Y171930D01*
X88194Y172090D01*
X87994Y172190D01*
X87794Y172210D01*
X87560Y172170D01*
X87394Y172030D01*
X87327Y171890D01*
Y171710D01*
G01Y171890D02*
X87227Y172010D01*
X87060Y172110D01*
X86860Y172150D01*
X86660Y172110D01*
X86494Y172010D01*
X86394Y171830D01*
X86427Y171650D01*
X86560Y171470D01*
G01X88394Y167301D02*
X86394D01*
X86794Y167061D01*
G01X88394D02*
Y167541D01*
G01X86727Y168220D02*
X86527Y168340D01*
X86427Y168480D01*
X86394Y168640D01*
X86460Y168841D01*
X86627Y168981D01*
X86827Y169021D01*
X87027Y169001D01*
X87194Y168921D01*
X87527Y168520D01*
X87760Y168340D01*
X88094Y168220D01*
X88394Y168180D01*
Y169021D01*
G01Y164152D02*
X86394D01*
X86794Y163911D01*
G01X88394D02*
Y164392D01*
G01Y165451D02*
X86394D01*
X86794Y165211D01*
G01X88394D02*
Y165691D01*
G01Y161002D02*
X86394D01*
X86794Y160762D01*
G01X88394D02*
Y161242D01*
G01X86394Y162301D02*
X86460Y162141D01*
X86627Y162021D01*
X86827Y161941D01*
X87094Y161881D01*
X87394Y161861D01*
X87694Y161881D01*
X87960Y161941D01*
X88160Y162021D01*
X88327Y162141D01*
X88394Y162301D01*
X88327Y162461D01*
X88160Y162581D01*
X87960Y162662D01*
X87694Y162722D01*
X87394Y162742D01*
X87094Y162722D01*
X86827Y162662D01*
X86627Y162581D01*
X86460Y162461D01*
X86394Y162301D01*
G01X88160Y158300D02*
X88327Y158440D01*
X88394Y158600D01*
X88327Y158760D01*
X88127Y158900D01*
X87827Y159000D01*
X87527Y159040D01*
X87160D01*
X86860Y159000D01*
X86594Y158900D01*
X86460Y158780D01*
X86394Y158640D01*
X86460Y158480D01*
X86594Y158360D01*
X86794Y158280D01*
X87060Y158240D01*
X87294Y158280D01*
X87527Y158380D01*
X87660Y158500D01*
X87694Y158640D01*
X87627Y158800D01*
X87460Y158920D01*
X87160Y159040D01*
G01X88394Y155490D02*
X88360Y155630D01*
X88260Y155790D01*
X88094Y155890D01*
X87860Y155931D01*
X87627Y155890D01*
X87427Y155770D01*
X87327Y155590D01*
Y155390D01*
X87260Y155270D01*
X87094Y155170D01*
X86860Y155130D01*
X86627Y155190D01*
X86460Y155330D01*
X86394Y155490D01*
X86460Y155650D01*
X86627Y155790D01*
X86860Y155851D01*
X87094Y155810D01*
X87260Y155710D01*
X87327Y155590D01*
Y155390D01*
X87427Y155210D01*
X87627Y155090D01*
X87860Y155050D01*
X88094Y155090D01*
X88260Y155190D01*
X88360Y155350D01*
X88394Y155490D01*
G01Y152301D02*
X87960Y152341D01*
X87594Y152401D01*
X87260Y152481D01*
X86894Y152581D01*
X86394Y152741D01*
Y151940D01*
G01X87560Y148811D02*
X87327Y148951D01*
X87194Y149071D01*
X87127Y149231D01*
X87194Y149371D01*
X87327Y149471D01*
X87527Y149551D01*
X87760Y149571D01*
X87960Y149551D01*
X88160Y149471D01*
X88327Y149351D01*
X88394Y149211D01*
X88327Y149051D01*
X88127Y148911D01*
X87827Y148831D01*
X87494Y148811D01*
X87060Y148851D01*
X86827Y148911D01*
X86594Y149011D01*
X86427Y149151D01*
X86394Y149291D01*
X86460Y149431D01*
X86627Y149531D01*
G01X88094Y145601D02*
X88260Y145721D01*
X88360Y145861D01*
X88394Y146041D01*
X88327Y146221D01*
X88194Y146362D01*
X87960Y146462D01*
X87694Y146482D01*
X87427Y146442D01*
X87260Y146342D01*
X87127Y146201D01*
X87094Y146061D01*
X87127Y145921D01*
X87260Y145741D01*
X86394Y145801D01*
Y146342D01*
G01X88394Y143132D02*
X86394D01*
X87827Y142391D01*
Y143392D01*
G01X87994Y139302D02*
X88227Y139422D01*
X88360Y139582D01*
X88394Y139762D01*
X88360Y139922D01*
X88194Y140082D01*
X87994Y140182D01*
X87794Y140202D01*
X87560Y140162D01*
X87394Y140022D01*
X87327Y139882D01*
Y139702D01*
G01Y139882D02*
X87227Y140002D01*
X87060Y140102D01*
X86860Y140142D01*
X86660Y140102D01*
X86494Y140002D01*
X86394Y139822D01*
X86427Y139642D01*
X86560Y139462D01*
G01X86727Y136212D02*
X86527Y136332D01*
X86427Y136472D01*
X86394Y136632D01*
X86460Y136833D01*
X86627Y136973D01*
X86827Y137013D01*
X87027Y136993D01*
X87194Y136913D01*
X87527Y136512D01*
X87760Y136332D01*
X88094Y136212D01*
X88394Y136172D01*
Y137013D01*
G01Y133443D02*
X86394D01*
X86794Y133203D01*
G01X88394D02*
Y133683D01*
G01X159260Y122419D02*
X158360D01*
X157260Y122019D01*
G01Y122820D02*
X158360Y122419D01*
G01X178158Y121919D02*
X176158Y122419D01*
X178158Y122920D01*
G01X177458Y122740D02*
Y122099D01*
G01X178158Y123338D02*
X176158D01*
Y124099D01*
G01X177124Y123819D02*
Y123338D01*
G01X175008Y121919D02*
X173008Y122419D01*
X175008Y122920D01*
G01X174308Y122740D02*
Y122099D01*
G01X175008Y124119D02*
Y123318D01*
X173008D01*
Y124119D01*
G01X173974Y123799D02*
Y123318D01*
G01X171858Y121919D02*
X169858Y122419D01*
X171858Y122920D01*
G01X171158Y122740D02*
Y122099D01*
G01X171858Y123278D02*
X169858D01*
Y123678D01*
X169958Y123839D01*
X170092Y123959D01*
X170292Y124059D01*
X170525Y124139D01*
X170858Y124159D01*
X171192Y124139D01*
X171425Y124059D01*
X171625Y123959D01*
X171758Y123839D01*
X171858Y123678D01*
Y123278D01*
G01X168709Y121919D02*
X166709Y122419D01*
X168709Y122920D01*
G01X168009Y122740D02*
Y122099D01*
G01X166875Y124159D02*
X166775Y124039D01*
X166709Y123899D01*
Y123738D01*
X166809Y123558D01*
X166975Y123418D01*
X167175Y123318D01*
X167509Y123238D01*
X167809Y123218D01*
X168109Y123258D01*
X168309Y123318D01*
X168509Y123438D01*
X168642Y123578D01*
X168709Y123718D01*
Y123859D01*
X168642Y123999D01*
X168542Y124119D01*
X168409Y124219D01*
G01X165559Y121919D02*
X163559Y122419D01*
X165559Y122920D01*
G01X164859Y122740D02*
Y122099D01*
G01X164492Y123879D02*
X164392Y123959D01*
X164226Y124019D01*
X163992Y124059D01*
X163792Y124019D01*
X163659Y123939D01*
X163559Y123799D01*
Y123258D01*
X165559D01*
Y123919D01*
X165426Y124059D01*
X165226Y124139D01*
X164992Y124179D01*
X164759Y124139D01*
X164559Y124019D01*
X164492Y123879D01*
Y123258D01*
G01X162409Y121919D02*
X160409Y122419D01*
X162409Y122920D01*
G01X161709Y122740D02*
Y122099D01*
G01X162409Y123218D02*
X160409Y123718D01*
X162409Y124219D01*
G01X161709Y124039D02*
Y123398D01*
G01X154110Y121819D02*
X156110Y122099D01*
X154110Y122419D01*
X156110Y122740D01*
X154110Y123020D01*
G01X150961Y121919D02*
X152961Y122419D01*
X150961Y122920D01*
G01X147811Y121979D02*
X149244D01*
X149544Y122059D01*
X149744Y122219D01*
X149811Y122419D01*
X149744Y122619D01*
X149544Y122780D01*
X149244Y122860D01*
X147811D01*
G01X144661Y122419D02*
X146661D01*
G01X144661Y121959D02*
Y122880D01*
G01X143512Y122019D02*
X141512D01*
Y122519D01*
X141612Y122680D01*
X141745Y122780D01*
X142012Y122820D01*
X142279Y122780D01*
X142445Y122660D01*
X142545Y122519D01*
Y122019D01*
G01Y122519D02*
X143512Y122820D01*
G01X140362Y122019D02*
X138362D01*
Y122499D01*
X138462Y122660D01*
X138696Y122780D01*
X138962Y122820D01*
X139229Y122780D01*
X139429Y122680D01*
X139529Y122499D01*
Y122019D01*
G01X137213Y121959D02*
X135213D01*
X137213Y122880D01*
X135213D01*
G01X134063Y121899D02*
X132063D01*
X133730Y122419D01*
X132063Y122940D01*
X134063D01*
G01X128913Y122019D02*
X130913D01*
Y122820D01*
G01X127764Y121979D02*
X125764D01*
G01Y122740D02*
X126997Y121979D01*
G01X127764Y122860D02*
X126430Y122319D01*
G01X124214Y122019D02*
X124414Y122119D01*
X124547Y122239D01*
X124614Y122379D01*
X124547Y122539D01*
X124414Y122660D01*
X124214Y122780D01*
X123948Y122820D01*
X122614D01*
G01X121465Y121999D02*
X119465D01*
G01Y122840D02*
X121465D01*
G01X120465D02*
Y121999D01*
G01X117315Y122539D02*
Y122940D01*
X117915D01*
X118115Y122820D01*
X118248Y122680D01*
X118315Y122479D01*
X118248Y122279D01*
X118115Y122139D01*
X117915Y122019D01*
X117682Y121939D01*
X117415Y121899D01*
X117182D01*
X116982Y121939D01*
X116748Y122019D01*
X116548Y122139D01*
X116415Y122259D01*
X116315Y122419D01*
Y122559D01*
X116382Y122720D01*
X116515Y122840D01*
G01X115165Y122039D02*
X113165D01*
Y122800D01*
G01X114132Y122519D02*
Y122039D01*
G01X112016Y122820D02*
Y122019D01*
X110016D01*
Y122820D01*
G01X110982Y122499D02*
Y122019D01*
G01X108866Y121979D02*
X106866D01*
Y122379D01*
X106966Y122539D01*
X107099Y122660D01*
X107299Y122760D01*
X107533Y122840D01*
X107866Y122860D01*
X108199Y122840D01*
X108433Y122760D01*
X108633Y122660D01*
X108766Y122539D01*
X108866Y122379D01*
Y121979D01*
G01X103883Y122860D02*
X103783Y122740D01*
X103716Y122599D01*
Y122439D01*
X103816Y122259D01*
X103983Y122119D01*
X104183Y122019D01*
X104516Y121939D01*
X104816Y121919D01*
X105116Y121959D01*
X105316Y122019D01*
X105516Y122139D01*
X105650Y122279D01*
X105716Y122419D01*
Y122559D01*
X105650Y122699D01*
X105550Y122820D01*
X105417Y122920D01*
G01X101500Y122579D02*
X101400Y122660D01*
X101234Y122720D01*
X101000Y122760D01*
X100800Y122720D01*
X100667Y122639D01*
X100567Y122499D01*
Y121959D01*
X102567D01*
Y122619D01*
X102434Y122760D01*
X102234Y122840D01*
X102000Y122880D01*
X101767Y122840D01*
X101567Y122720D01*
X101500Y122579D01*
Y121959D01*
G01X99417Y121919D02*
X97417Y122419D01*
X99417Y122920D01*
G01X98717Y122740D02*
Y122099D01*
G01X183276Y127724D02*
Y218276D01*
X92724D01*
Y127724D01*
X183276D01*
G01X112134Y101983D02*
Y104203D01*
X111980Y104668D01*
X111674Y104978D01*
X111291Y105081D01*
X110907Y104978D01*
X110601Y104668D01*
X110448Y104203D01*
Y101983D01*
G01X107733Y105081D02*
Y101983D01*
X109151Y104203D01*
X107235D01*
G01X105823Y102499D02*
X105594Y102189D01*
X105325Y102034D01*
X105019Y101983D01*
X104636Y102086D01*
X104367Y102344D01*
X104291Y102654D01*
X104329Y102964D01*
X104482Y103222D01*
X105249Y103738D01*
X105594Y104100D01*
X105823Y104616D01*
X105900Y105081D01*
X104291D01*
G01X115693Y107048D02*
X139693D01*
Y97048D01*
X115693D01*
Y107048D01*
G01X122500Y120144D02*
X115500D01*
Y110144D01*
X117500D01*
X122500D01*
G01X144696Y116951D02*
X144467Y117106D01*
X144198Y117209D01*
X143892D01*
X143547Y117054D01*
X143279Y116796D01*
X143087Y116486D01*
X142934Y115970D01*
X142896Y115505D01*
X142972Y115041D01*
X143087Y114731D01*
X143317Y114421D01*
X143585Y114214D01*
X143854Y114111D01*
X144122D01*
X144390Y114214D01*
X144620Y114369D01*
X144812Y114576D01*
G01X146223Y116693D02*
X146453Y117003D01*
X146721Y117158D01*
X147028Y117209D01*
X147411Y117106D01*
X147679Y116848D01*
X147756Y116538D01*
X147718Y116228D01*
X147564Y115970D01*
X146798Y115454D01*
X146453Y115092D01*
X146223Y114576D01*
X146147Y114111D01*
X147756D01*
G01X149972D02*
X150049Y114783D01*
X150164Y115350D01*
X150317Y115867D01*
X150509Y116435D01*
X150815Y117209D01*
X149282D01*
G01X153146D02*
X152840Y117106D01*
X152610Y116848D01*
X152457Y116538D01*
X152342Y116125D01*
X152304Y115660D01*
X152342Y115196D01*
X152457Y114783D01*
X152610Y114473D01*
X152840Y114214D01*
X153146Y114111D01*
X153453Y114214D01*
X153683Y114473D01*
X153836Y114783D01*
X153951Y115196D01*
X153989Y115660D01*
X153951Y116125D01*
X153836Y116538D01*
X153683Y116848D01*
X153453Y117106D01*
X153146Y117209D01*
G01X144696Y116951D02*
X144467Y117106D01*
X144198Y117209D01*
X143892D01*
X143547Y117054D01*
X143279Y116796D01*
X143087Y116486D01*
X142934Y115970D01*
X142896Y115505D01*
X142972Y115041D01*
X143087Y114731D01*
X143317Y114421D01*
X143585Y114214D01*
X143854Y114111D01*
X144122D01*
X144390Y114214D01*
X144620Y114369D01*
X144812Y114576D01*
G01X146223Y116693D02*
X146453Y117003D01*
X146721Y117158D01*
X147028Y117209D01*
X147411Y117106D01*
X147679Y116848D01*
X147756Y116538D01*
X147718Y116228D01*
X147564Y115970D01*
X146798Y115454D01*
X146453Y115092D01*
X146223Y114576D01*
X146147Y114111D01*
X147756D01*
G01X149972D02*
X150049Y114783D01*
X150164Y115350D01*
X150317Y115867D01*
X150509Y116435D01*
X150815Y117209D01*
X149282D01*
G01X153146D02*
X152840Y117106D01*
X152610Y116848D01*
X152457Y116538D01*
X152342Y116125D01*
X152304Y115660D01*
X152342Y115196D01*
X152457Y114783D01*
X152610Y114473D01*
X152840Y114214D01*
X153146Y114111D01*
X153453Y114214D01*
X153683Y114473D01*
X153836Y114783D01*
X153951Y115196D01*
X153989Y115660D01*
X153951Y116125D01*
X153836Y116538D01*
X153683Y116848D01*
X153453Y117106D01*
X153146Y117209D01*
G01X140600Y120144D02*
Y110144D01*
X115400D01*
Y120144D01*
X140600D01*
G01D02*
Y110144D01*
X139000D01*
Y120144D01*
X140600D01*
G01X86727Y211015D02*
X86527Y211136D01*
X86427Y211276D01*
X86394Y211436D01*
X86460Y211636D01*
X86627Y211776D01*
X86827Y211816D01*
X87027Y211796D01*
X87194Y211716D01*
X87527Y211316D01*
X87760Y211136D01*
X88094Y211015D01*
X88394Y210975D01*
Y211816D01*
G01X87560Y212315D02*
X87327Y212455D01*
X87194Y212575D01*
X87127Y212735D01*
X87194Y212875D01*
X87327Y212975D01*
X87527Y213055D01*
X87760Y213075D01*
X87960Y213055D01*
X88160Y212975D01*
X88327Y212855D01*
X88394Y212715D01*
X88327Y212555D01*
X88127Y212415D01*
X87827Y212335D01*
X87494Y212315D01*
X87060Y212355D01*
X86827Y212415D01*
X86594Y212515D01*
X86427Y212655D01*
X86394Y212795D01*
X86460Y212935D01*
X86627Y213035D01*
G01X86727Y207866D02*
X86527Y207986D01*
X86427Y208126D01*
X86394Y208286D01*
X86460Y208486D01*
X86627Y208626D01*
X86827Y208666D01*
X87027Y208646D01*
X87194Y208566D01*
X87527Y208166D01*
X87760Y207986D01*
X88094Y207866D01*
X88394Y207826D01*
Y208666D01*
G01X88094Y209105D02*
X88260Y209225D01*
X88360Y209365D01*
X88394Y209545D01*
X88327Y209725D01*
X88194Y209866D01*
X87960Y209966D01*
X87694Y209986D01*
X87427Y209946D01*
X87260Y209846D01*
X87127Y209705D01*
X87094Y209565D01*
X87127Y209425D01*
X87260Y209245D01*
X86394Y209305D01*
Y209846D01*
G01X86727Y204716D02*
X86527Y204836D01*
X86427Y204976D01*
X86394Y205136D01*
X86460Y205337D01*
X86627Y205477D01*
X86827Y205517D01*
X87027Y205497D01*
X87194Y205417D01*
X87527Y205016D01*
X87760Y204836D01*
X88094Y204716D01*
X88394Y204676D01*
Y205517D01*
G01Y206636D02*
X86394D01*
X87827Y205895D01*
Y206896D01*
G01X86727Y201567D02*
X86527Y201687D01*
X86427Y201827D01*
X86394Y201987D01*
X86460Y202187D01*
X86627Y202327D01*
X86827Y202367D01*
X87027Y202347D01*
X87194Y202267D01*
X87527Y201867D01*
X87760Y201687D01*
X88094Y201567D01*
X88394Y201527D01*
Y202367D01*
G01X87994Y202806D02*
X88227Y202926D01*
X88360Y203086D01*
X88394Y203266D01*
X88360Y203426D01*
X88194Y203586D01*
X87994Y203686D01*
X87794Y203706D01*
X87560Y203666D01*
X87394Y203526D01*
X87327Y203386D01*
Y203206D01*
G01Y203386D02*
X87227Y203506D01*
X87060Y203606D01*
X86860Y203646D01*
X86660Y203606D01*
X86494Y203506D01*
X86394Y203326D01*
X86427Y203146D01*
X86560Y202966D01*
G01X133268Y233047D02*
Y238953D01*
X116732D01*
Y233047D01*
X133268D01*
G01X151268D02*
Y238953D01*
X134732D01*
Y233047D01*
X151268D01*
G01X169268D02*
Y238953D01*
X152732D01*
Y233047D01*
X169268D01*
G01X115268D02*
Y238953D01*
X98732D01*
Y233047D01*
X115268D01*
G01X170000Y248260D02*
X210000D01*
Y335740D01*
X170000D01*
Y248260D01*
G01X186060Y295098D02*
Y292878D01*
X186213Y292413D01*
X186519Y292103D01*
X186902Y292000D01*
X187286Y292103D01*
X187592Y292413D01*
X187745Y292878D01*
Y295098D01*
G01X189272Y294582D02*
X189502Y294891D01*
X189770Y295046D01*
X190077Y295098D01*
X190460Y294995D01*
X190728Y294736D01*
X190805Y294427D01*
X190766Y294117D01*
X190613Y293859D01*
X189847Y293342D01*
X189502Y292981D01*
X189272Y292465D01*
X189195Y292000D01*
X190805D01*
G01X192446Y292361D02*
X192714Y292103D01*
X193021Y292000D01*
X193328Y292103D01*
X193596Y292413D01*
X193787Y292878D01*
X193864Y293342D01*
Y293910D01*
X193787Y294375D01*
X193596Y294788D01*
X193366Y294995D01*
X193098Y295098D01*
X192791Y294995D01*
X192561Y294788D01*
X192408Y294478D01*
X192331Y294065D01*
X192408Y293704D01*
X192600Y293342D01*
X192829Y293136D01*
X193098Y293084D01*
X193404Y293188D01*
X193634Y293446D01*
X193864Y293910D01*
G01X102636Y243967D02*
Y247065D01*
X103594D01*
X103901Y246910D01*
X104092Y246704D01*
X104169Y246291D01*
X104092Y245878D01*
X103862Y245620D01*
X103594Y245465D01*
X102636D01*
G01X103594D02*
X104169Y243967D01*
G01X105734D02*
Y247065D01*
X106653D01*
X106960Y246910D01*
X107190Y246549D01*
X107266Y246136D01*
X107190Y245723D01*
X106998Y245413D01*
X106653Y245258D01*
X105734D01*
G01X108755Y244432D02*
X108984Y244174D01*
X109253Y244019D01*
X109598Y243967D01*
X109942Y244070D01*
X110211Y244277D01*
X110402Y244639D01*
X110441Y245052D01*
X110364Y245465D01*
X110172Y245723D01*
X109904Y245929D01*
X109636Y245981D01*
X109368Y245929D01*
X109023Y245723D01*
X109138Y247065D01*
X110172D01*
G01X102636Y243967D02*
Y247065D01*
X103594D01*
X103901Y246910D01*
X104092Y246704D01*
X104169Y246291D01*
X104092Y245878D01*
X103862Y245620D01*
X103594Y245465D01*
X102636D01*
G01X103594D02*
X104169Y243967D01*
G01X105734D02*
Y247065D01*
X106653D01*
X106960Y246910D01*
X107190Y246549D01*
X107266Y246136D01*
X107190Y245723D01*
X106998Y245413D01*
X106653Y245258D01*
X105734D01*
G01X108755Y244432D02*
X108984Y244174D01*
X109253Y244019D01*
X109598Y243967D01*
X109942Y244070D01*
X110211Y244277D01*
X110402Y244639D01*
X110441Y245052D01*
X110364Y245465D01*
X110172Y245723D01*
X109904Y245929D01*
X109636Y245981D01*
X109368Y245929D01*
X109023Y245723D01*
X109138Y247065D01*
X110172D01*
G01X121136Y243967D02*
Y247065D01*
X122094D01*
X122401Y246910D01*
X122592Y246704D01*
X122669Y246291D01*
X122592Y245878D01*
X122362Y245620D01*
X122094Y245465D01*
X121136D01*
G01X122094D02*
X122669Y243967D01*
G01X124234D02*
Y247065D01*
X125153D01*
X125460Y246910D01*
X125690Y246549D01*
X125766Y246136D01*
X125690Y245723D01*
X125498Y245413D01*
X125153Y245258D01*
X124234D01*
G01X128098Y243967D02*
X128366Y244019D01*
X128672Y244174D01*
X128864Y244432D01*
X128940Y244793D01*
X128864Y245155D01*
X128634Y245465D01*
X128289Y245620D01*
X127906D01*
X127676Y245723D01*
X127484Y245981D01*
X127408Y246342D01*
X127523Y246704D01*
X127791Y246962D01*
X128098Y247065D01*
X128404Y246962D01*
X128672Y246704D01*
X128787Y246342D01*
X128711Y245981D01*
X128519Y245723D01*
X128289Y245620D01*
X127906D01*
X127561Y245465D01*
X127331Y245155D01*
X127255Y244793D01*
X127331Y244432D01*
X127523Y244174D01*
X127829Y244019D01*
X128098Y243967D01*
G01X121136D02*
Y247065D01*
X122094D01*
X122401Y246910D01*
X122592Y246704D01*
X122669Y246291D01*
X122592Y245878D01*
X122362Y245620D01*
X122094Y245465D01*
X121136D01*
G01X122094D02*
X122669Y243967D01*
G01X124234D02*
Y247065D01*
X125153D01*
X125460Y246910D01*
X125690Y246549D01*
X125766Y246136D01*
X125690Y245723D01*
X125498Y245413D01*
X125153Y245258D01*
X124234D01*
G01X128098Y243967D02*
X128366Y244019D01*
X128672Y244174D01*
X128864Y244432D01*
X128940Y244793D01*
X128864Y245155D01*
X128634Y245465D01*
X128289Y245620D01*
X127906D01*
X127676Y245723D01*
X127484Y245981D01*
X127408Y246342D01*
X127523Y246704D01*
X127791Y246962D01*
X128098Y247065D01*
X128404Y246962D01*
X128672Y246704D01*
X128787Y246342D01*
X128711Y245981D01*
X128519Y245723D01*
X128289Y245620D01*
X127906D01*
X127561Y245465D01*
X127331Y245155D01*
X127255Y244793D01*
X127331Y244432D01*
X127523Y244174D01*
X127829Y244019D01*
X128098Y243967D01*
G01X139636D02*
Y247065D01*
X140594D01*
X140900Y246910D01*
X141092Y246704D01*
X141169Y246291D01*
X141092Y245878D01*
X140862Y245620D01*
X140594Y245465D01*
X139636D01*
G01X140594D02*
X141169Y243967D01*
G01X142734D02*
Y247065D01*
X143653D01*
X143960Y246910D01*
X144190Y246549D01*
X144266Y246136D01*
X144190Y245723D01*
X143998Y245413D01*
X143653Y245258D01*
X142734D01*
G01X145870D02*
X146138Y245620D01*
X146368Y245826D01*
X146674Y245929D01*
X146942Y245826D01*
X147134Y245620D01*
X147287Y245310D01*
X147326Y244948D01*
X147287Y244639D01*
X147134Y244329D01*
X146904Y244070D01*
X146636Y243967D01*
X146329Y244070D01*
X146061Y244380D01*
X145908Y244845D01*
X145870Y245361D01*
X145946Y246033D01*
X146061Y246394D01*
X146253Y246756D01*
X146521Y247014D01*
X146789Y247065D01*
X147057Y246962D01*
X147249Y246704D01*
G01X139636Y243967D02*
Y247065D01*
X140594D01*
X140900Y246910D01*
X141092Y246704D01*
X141169Y246291D01*
X141092Y245878D01*
X140862Y245620D01*
X140594Y245465D01*
X139636D01*
G01X140594D02*
X141169Y243967D01*
G01X142734D02*
Y247065D01*
X143653D01*
X143960Y246910D01*
X144190Y246549D01*
X144266Y246136D01*
X144190Y245723D01*
X143998Y245413D01*
X143653Y245258D01*
X142734D01*
G01X145870D02*
X146138Y245620D01*
X146368Y245826D01*
X146674Y245929D01*
X146942Y245826D01*
X147134Y245620D01*
X147287Y245310D01*
X147326Y244948D01*
X147287Y244639D01*
X147134Y244329D01*
X146904Y244070D01*
X146636Y243967D01*
X146329Y244070D01*
X146061Y244380D01*
X145908Y244845D01*
X145870Y245361D01*
X145946Y246033D01*
X146061Y246394D01*
X146253Y246756D01*
X146521Y247014D01*
X146789Y247065D01*
X147057Y246962D01*
X147249Y246704D01*
G01X156636Y243967D02*
Y247065D01*
X157594D01*
X157901Y246910D01*
X158092Y246704D01*
X158169Y246291D01*
X158092Y245878D01*
X157862Y245620D01*
X157594Y245465D01*
X156636D01*
G01X157594D02*
X158169Y243967D01*
G01X159734D02*
Y247065D01*
X160653D01*
X160960Y246910D01*
X161190Y246549D01*
X161266Y246136D01*
X161190Y245723D01*
X160998Y245413D01*
X160653Y245258D01*
X159734D01*
G01X163521Y243967D02*
X163598Y244639D01*
X163713Y245206D01*
X163866Y245723D01*
X164057Y246291D01*
X164364Y247065D01*
X162831D01*
G01X156636Y243967D02*
Y247065D01*
X157594D01*
X157901Y246910D01*
X158092Y246704D01*
X158169Y246291D01*
X158092Y245878D01*
X157862Y245620D01*
X157594Y245465D01*
X156636D01*
G01X157594D02*
X158169Y243967D01*
G01X159734D02*
Y247065D01*
X160653D01*
X160960Y246910D01*
X161190Y246549D01*
X161266Y246136D01*
X161190Y245723D01*
X160998Y245413D01*
X160653Y245258D01*
X159734D01*
G01X163521Y243967D02*
X163598Y244639D01*
X163713Y245206D01*
X163866Y245723D01*
X164057Y246291D01*
X164364Y247065D01*
X162831D01*
G01X86060Y225065D02*
Y222845D01*
X86213Y222380D01*
X86519Y222071D01*
X86902Y221967D01*
X87286Y222071D01*
X87592Y222380D01*
X87745Y222845D01*
Y225065D01*
G01X90000Y221967D02*
Y225065D01*
X89540Y224446D01*
G01Y221967D02*
X90460D01*
G01X93098D02*
X93366Y222019D01*
X93672Y222174D01*
X93864Y222432D01*
X93940Y222793D01*
X93864Y223155D01*
X93634Y223465D01*
X93289Y223620D01*
X92906D01*
X92676Y223723D01*
X92484Y223981D01*
X92408Y224342D01*
X92523Y224704D01*
X92791Y224962D01*
X93098Y225065D01*
X93404Y224962D01*
X93672Y224704D01*
X93787Y224342D01*
X93711Y223981D01*
X93519Y223723D01*
X93289Y223620D01*
X92906D01*
X92561Y223465D01*
X92331Y223155D01*
X92255Y222793D01*
X92331Y222432D01*
X92523Y222174D01*
X92829Y222019D01*
X93098Y221967D01*
G01X86060Y225065D02*
Y222845D01*
X86213Y222380D01*
X86519Y222071D01*
X86902Y221967D01*
X87286Y222071D01*
X87592Y222380D01*
X87745Y222845D01*
Y225065D01*
G01X90000Y221967D02*
Y225065D01*
X89540Y224446D01*
G01Y221967D02*
X90460D01*
G01X93098D02*
X93366Y222019D01*
X93672Y222174D01*
X93864Y222432D01*
X93940Y222793D01*
X93864Y223155D01*
X93634Y223465D01*
X93289Y223620D01*
X92906D01*
X92676Y223723D01*
X92484Y223981D01*
X92408Y224342D01*
X92523Y224704D01*
X92791Y224962D01*
X93098Y225065D01*
X93404Y224962D01*
X93672Y224704D01*
X93787Y224342D01*
X93711Y223981D01*
X93519Y223723D01*
X93289Y223620D01*
X92906D01*
X92561Y223465D01*
X92331Y223155D01*
X92255Y222793D01*
X92331Y222432D01*
X92523Y222174D01*
X92829Y222019D01*
X93098Y221967D01*
G01X194000Y345000D02*
X164000D01*
Y365000D01*
X194000D01*
Y345000D01*
G01X174646Y331370D02*
G03I-1181J787D01*
G01X151560Y335065D02*
Y332845D01*
X151713Y332380D01*
X152019Y332070D01*
X152402Y331967D01*
X152786Y332070D01*
X153092Y332380D01*
X153245Y332845D01*
Y335065D01*
G01X154772Y334549D02*
X155002Y334859D01*
X155270Y335014D01*
X155577Y335065D01*
X155960Y334962D01*
X156228Y334704D01*
X156305Y334394D01*
X156266Y334084D01*
X156113Y333826D01*
X155347Y333310D01*
X155002Y332948D01*
X154772Y332432D01*
X154695Y331967D01*
X156305D01*
G01X157946Y332329D02*
X158214Y332070D01*
X158521Y331967D01*
X158828Y332070D01*
X159096Y332380D01*
X159287Y332845D01*
X159364Y333310D01*
Y333878D01*
X159287Y334342D01*
X159096Y334756D01*
X158866Y334962D01*
X158598Y335065D01*
X158291Y334962D01*
X158061Y334756D01*
X157908Y334446D01*
X157831Y334033D01*
X157908Y333671D01*
X158100Y333310D01*
X158329Y333103D01*
X158598Y333052D01*
X158904Y333155D01*
X159134Y333413D01*
X159364Y333878D01*
G01X165620Y351098D02*
X165878Y351404D01*
X166033Y351749D01*
Y352056D01*
X165878Y352362D01*
X165620Y352592D01*
X165258Y352707D01*
X164897Y352630D01*
X164587Y352439D01*
X164380Y352094D01*
X164277Y351634D01*
X164071Y351366D01*
X163709Y351251D01*
X163348Y351328D01*
X163090Y351519D01*
X162935Y351787D01*
Y352056D01*
X163038Y352324D01*
X163296Y352554D01*
G01X162935Y353851D02*
X166033Y354387D01*
X162935Y355000D01*
X166033Y355613D01*
X162935Y356149D01*
G01X166033Y358098D02*
X162935D01*
X163554Y357638D01*
G01X166033D02*
Y358557D01*
G01X237559Y-96935D02*
Y-99155D01*
X237713Y-99620D01*
X238019Y-99930D01*
X238402Y-100033D01*
X238786Y-99930D01*
X239092Y-99620D01*
X239245Y-99155D01*
Y-96935D01*
G01X241500Y-100033D02*
X241768Y-99981D01*
X242075Y-99826D01*
X242266Y-99568D01*
X242343Y-99207D01*
X242266Y-98845D01*
X242036Y-98535D01*
X241692Y-98380D01*
X241308D01*
X241078Y-98277D01*
X240887Y-98019D01*
X240810Y-97658D01*
X240925Y-97296D01*
X241194Y-97038D01*
X241500Y-96935D01*
X241806Y-97038D01*
X242075Y-97296D01*
X242190Y-97658D01*
X242113Y-98019D01*
X241922Y-98277D01*
X241692Y-98380D01*
X241308D01*
X240964Y-98535D01*
X240734Y-98845D01*
X240657Y-99207D01*
X240734Y-99568D01*
X240925Y-99826D01*
X241232Y-99981D01*
X241500Y-100033D01*
G01X244598Y-96935D02*
X244291Y-97038D01*
X244061Y-97296D01*
X243908Y-97606D01*
X243793Y-98019D01*
X243755Y-98484D01*
X243793Y-98948D01*
X243908Y-99362D01*
X244061Y-99671D01*
X244291Y-99930D01*
X244598Y-100033D01*
X244904Y-99930D01*
X245134Y-99671D01*
X245287Y-99362D01*
X245402Y-98948D01*
X245441Y-98484D01*
X245402Y-98019D01*
X245287Y-97606D01*
X245134Y-97296D01*
X244904Y-97038D01*
X244598Y-96935D01*
G01X337000Y30000D02*
Y0D01*
X227000D01*
Y30000D01*
X337000D01*
G01X227134Y56811D02*
X368866D01*
Y33189D01*
X227134D01*
Y56811D01*
G01X368866Y58189D02*
X227134D01*
Y81811D01*
X368866D01*
Y58189D01*
G01X209000Y30000D02*
X214000D01*
Y29000D01*
X209000D01*
Y30000D01*
G01X212533Y65951D02*
X211139D01*
X209435Y65185D01*
G01Y66718D02*
X211139Y65951D01*
G01X211242Y68321D02*
X210880Y68589D01*
X210674Y68819D01*
X210571Y69125D01*
X210674Y69394D01*
X210880Y69585D01*
X211190Y69738D01*
X211552Y69777D01*
X211861Y69738D01*
X212171Y69585D01*
X212430Y69355D01*
X212533Y69087D01*
X212430Y68781D01*
X212120Y68512D01*
X211655Y68359D01*
X211139Y68321D01*
X210467Y68397D01*
X210106Y68512D01*
X209744Y68704D01*
X209486Y68972D01*
X209435Y69240D01*
X209538Y69509D01*
X209796Y69700D01*
G01X212533Y65951D02*
X211139D01*
X209435Y65185D01*
G01Y66718D02*
X211139Y65951D01*
G01X211242Y68321D02*
X210880Y68589D01*
X210674Y68819D01*
X210571Y69125D01*
X210674Y69394D01*
X210880Y69585D01*
X211190Y69738D01*
X211552Y69777D01*
X211861Y69738D01*
X212171Y69585D01*
X212430Y69355D01*
X212533Y69087D01*
X212430Y68781D01*
X212120Y68512D01*
X211655Y68359D01*
X211139Y68321D01*
X210467Y68397D01*
X210106Y68512D01*
X209744Y68704D01*
X209486Y68972D01*
X209435Y69240D01*
X209538Y69509D01*
X209796Y69700D01*
G01X229636Y35087D02*
X229828Y34777D01*
X230057Y34570D01*
X230326Y34467D01*
X230632Y34570D01*
X230862Y34777D01*
X231092Y35087D01*
X231169Y35500D01*
Y37565D01*
G01X232657Y35087D02*
X232887Y34725D01*
X233194Y34519D01*
X233538Y34467D01*
X233845Y34519D01*
X234151Y34777D01*
X234343Y35087D01*
X234381Y35397D01*
X234305Y35758D01*
X234036Y36016D01*
X233768Y36120D01*
X233423D01*
G01X233768D02*
X233998Y36275D01*
X234190Y36533D01*
X234266Y36842D01*
X234190Y37152D01*
X233998Y37410D01*
X233653Y37565D01*
X233308Y37514D01*
X232964Y37307D01*
G01X236598Y34467D02*
Y37565D01*
X236138Y36946D01*
G01Y34467D02*
X237057D01*
G01X277691Y156913D02*
X278191Y158913D01*
X278691Y156913D01*
G01X278511Y157613D02*
X277871D01*
G01X279111Y156913D02*
Y158913D01*
X279871D01*
G01X279591Y157947D02*
X279111D01*
G01X277691Y160850D02*
X278191Y162850D01*
X278691Y160850D01*
G01X278511Y161550D02*
X277871D01*
G01X279891Y160850D02*
X279091D01*
Y162850D01*
X279891D01*
G01X279571Y161884D02*
X279091D01*
G01X277691Y164787D02*
X278191Y166787D01*
X278691Y164787D01*
G01X278511Y165487D02*
X277871D01*
G01X279051Y164787D02*
Y166787D01*
X279451D01*
X279611Y166687D01*
X279731Y166554D01*
X279831Y166354D01*
X279911Y166121D01*
X279931Y165787D01*
X279911Y165454D01*
X279831Y165221D01*
X279731Y165021D01*
X279611Y164887D01*
X279451Y164787D01*
X279051D01*
G01X277691Y168724D02*
X278191Y170724D01*
X278691Y168724D01*
G01X278511Y169424D02*
X277871D01*
G01X279931Y170558D02*
X279811Y170658D01*
X279671Y170724D01*
X279511D01*
X279331Y170624D01*
X279191Y170458D01*
X279091Y170258D01*
X279011Y169924D01*
X278991Y169624D01*
X279031Y169324D01*
X279091Y169124D01*
X279211Y168924D01*
X279351Y168791D01*
X279491Y168724D01*
X279631D01*
X279771Y168791D01*
X279891Y168891D01*
X279991Y169024D01*
G01X277691Y172661D02*
X278191Y174661D01*
X278691Y172661D01*
G01X278511Y173361D02*
X277871D01*
G01X279651Y173728D02*
X279731Y173828D01*
X279791Y173995D01*
X279831Y174228D01*
X279791Y174428D01*
X279711Y174561D01*
X279571Y174661D01*
X279031D01*
Y172661D01*
X279691D01*
X279831Y172795D01*
X279911Y172995D01*
X279951Y173228D01*
X279911Y173461D01*
X279791Y173661D01*
X279651Y173728D01*
X279031D01*
G01X277691Y176598D02*
X278191Y178598D01*
X278691Y176598D01*
G01X278511Y177298D02*
X277871D01*
G01X278991Y176598D02*
X279491Y178598D01*
X279991Y176598D01*
G01X279811Y177298D02*
X279171D01*
G01X278191Y180535D02*
Y181435D01*
X277791Y182535D01*
G01X278591D02*
X278191Y181435D01*
G01X277591Y186472D02*
X277871Y184472D01*
X278191Y186472D01*
X278511Y184472D01*
X278791Y186472D01*
G01X277691Y190410D02*
X278191Y188410D01*
X278691Y190410D01*
G01X277751Y194346D02*
Y192913D01*
X277831Y192613D01*
X277991Y192413D01*
X278191Y192346D01*
X278391Y192413D01*
X278551Y192613D01*
X278631Y192913D01*
Y194346D01*
G01X278191Y198284D02*
Y196284D01*
G01X277731Y198284D02*
X278651D01*
G01X277791Y200220D02*
Y202220D01*
X278291D01*
X278451Y202120D01*
X278551Y201987D01*
X278591Y201720D01*
X278551Y201454D01*
X278431Y201287D01*
X278291Y201187D01*
X277791D01*
G01X278291D02*
X278591Y200220D01*
G01X281528Y152976D02*
X387827D01*
Y259276D01*
X281528D01*
Y152976D01*
G01X303000Y115000D02*
X329000D01*
Y85000D01*
X303000D01*
Y115000D01*
G01X314000D02*
X319000D01*
Y114000D01*
X314000D01*
Y115000D01*
G01X306060Y121565D02*
Y119345D01*
X306213Y118880D01*
X306519Y118570D01*
X306902Y118467D01*
X307286Y118570D01*
X307592Y118880D01*
X307745Y119345D01*
Y121565D01*
G01X309923Y118467D02*
X310000Y119138D01*
X310115Y119706D01*
X310268Y120223D01*
X310460Y120791D01*
X310766Y121565D01*
X309234D01*
G01X312255Y119087D02*
X312484Y118725D01*
X312791Y118519D01*
X313136Y118467D01*
X313442Y118519D01*
X313749Y118777D01*
X313941Y119087D01*
X313979Y119397D01*
X313902Y119758D01*
X313634Y120016D01*
X313366Y120120D01*
X313021D01*
G01X313366D02*
X313596Y120274D01*
X313787Y120533D01*
X313864Y120842D01*
X313787Y121152D01*
X313596Y121410D01*
X313251Y121565D01*
X312906Y121514D01*
X312561Y121307D01*
G01X285339Y301628D02*
X285151Y301838D01*
X284936Y301922D01*
X284720Y301838D01*
X284532Y301586D01*
X284398Y301208D01*
X284344Y300830D01*
Y300368D01*
X284398Y299990D01*
X284532Y299654D01*
X284694Y299486D01*
X284882Y299402D01*
X285097Y299486D01*
X285258Y299654D01*
X285366Y299906D01*
X285420Y300242D01*
X285366Y300536D01*
X285232Y300830D01*
X285070Y300998D01*
X284882Y301040D01*
X284667Y300956D01*
X284505Y300746D01*
X284344Y300368D01*
G01X288032Y301922D02*
X287843Y301880D01*
X287628Y301754D01*
X287493Y301544D01*
X287440Y301250D01*
X287493Y300956D01*
X287655Y300704D01*
X287897Y300578D01*
X288166D01*
X288327Y300494D01*
X288462Y300284D01*
X288516Y299990D01*
X288435Y299696D01*
X288247Y299486D01*
X288032Y299402D01*
X287816Y299486D01*
X287628Y299696D01*
X287547Y299990D01*
X287601Y300284D01*
X287736Y300494D01*
X287897Y300578D01*
X288166D01*
X288408Y300704D01*
X288570Y300956D01*
X288623Y301250D01*
X288570Y301544D01*
X288435Y301754D01*
X288220Y301880D01*
X288032Y301922D01*
G01X291235D02*
X291181Y301376D01*
X291100Y300914D01*
X290993Y300494D01*
X290858Y300032D01*
X290643Y299402D01*
X291719D01*
G01X304371Y301418D02*
X304210Y301712D01*
X303995Y301880D01*
X303753Y301922D01*
X303537Y301880D01*
X303322Y301670D01*
X303188Y301418D01*
X303161Y301166D01*
X303214Y300872D01*
X303403Y300662D01*
X303591Y300578D01*
X303833D01*
G01X303591D02*
X303430Y300452D01*
X303295Y300242D01*
X303241Y299990D01*
X303295Y299738D01*
X303430Y299528D01*
X303672Y299402D01*
X303914Y299444D01*
X304156Y299612D01*
G01X307440Y299822D02*
X307279Y299570D01*
X307090Y299444D01*
X306875Y299402D01*
X306606Y299486D01*
X306418Y299696D01*
X306364Y299948D01*
X306391Y300200D01*
X306499Y300410D01*
X307037Y300830D01*
X307279Y301124D01*
X307440Y301544D01*
X307494Y301922D01*
X306364D01*
G01X310079D02*
Y299402D01*
X310402Y299906D01*
G01Y301922D02*
X309756D01*
G01X318169Y353891D02*
X276831D01*
Y302709D01*
X318169D01*
Y353891D01*
G01X313248Y306646D02*
G03I1968J0D01*
G01X316433Y261477D02*
X316573Y261311D01*
X316733Y261244D01*
X316893Y261311D01*
X317033Y261511D01*
X317133Y261811D01*
X317173Y262111D01*
Y262477D01*
X317133Y262777D01*
X317033Y263044D01*
X316913Y263177D01*
X316773Y263244D01*
X316613Y263177D01*
X316493Y263044D01*
X316413Y262844D01*
X316373Y262577D01*
X316413Y262344D01*
X316513Y262111D01*
X316633Y261977D01*
X316773Y261944D01*
X316933Y262011D01*
X317053Y262177D01*
X317173Y262477D01*
G01X312836Y261244D02*
X312976Y261277D01*
X313136Y261377D01*
X313236Y261544D01*
X313276Y261777D01*
X313236Y262011D01*
X313116Y262211D01*
X312936Y262311D01*
X312736D01*
X312616Y262377D01*
X312516Y262544D01*
X312476Y262777D01*
X312536Y263011D01*
X312676Y263177D01*
X312836Y263244D01*
X312996Y263177D01*
X313136Y263011D01*
X313196Y262777D01*
X313156Y262544D01*
X313056Y262377D01*
X312936Y262311D01*
X312736D01*
X312556Y262211D01*
X312436Y262011D01*
X312396Y261777D01*
X312436Y261544D01*
X312536Y261377D01*
X312696Y261277D01*
X312836Y261244D01*
G01X308859D02*
X308899Y261677D01*
X308959Y262044D01*
X309039Y262377D01*
X309139Y262744D01*
X309299Y263244D01*
X308499D01*
G01X304582Y262077D02*
X304722Y262311D01*
X304842Y262444D01*
X305002Y262511D01*
X305142Y262444D01*
X305242Y262311D01*
X305322Y262111D01*
X305342Y261877D01*
X305322Y261677D01*
X305242Y261477D01*
X305122Y261311D01*
X304982Y261244D01*
X304822Y261311D01*
X304682Y261511D01*
X304602Y261811D01*
X304582Y262144D01*
X304622Y262577D01*
X304682Y262811D01*
X304782Y263044D01*
X304922Y263211D01*
X305062Y263244D01*
X305202Y263177D01*
X305302Y263011D01*
G01X300585Y261544D02*
X300705Y261377D01*
X300845Y261277D01*
X301025Y261244D01*
X301205Y261311D01*
X301345Y261444D01*
X301445Y261677D01*
X301465Y261944D01*
X301425Y262211D01*
X301325Y262377D01*
X301185Y262511D01*
X301045Y262544D01*
X300905Y262511D01*
X300725Y262377D01*
X300785Y263244D01*
X301325D01*
G01X297328Y261244D02*
Y263244D01*
X296588Y261811D01*
X297588D01*
G01X292711Y261644D02*
X292831Y261411D01*
X292991Y261277D01*
X293171Y261244D01*
X293331Y261277D01*
X293491Y261444D01*
X293591Y261644D01*
X293611Y261844D01*
X293571Y262077D01*
X293431Y262244D01*
X293291Y262311D01*
X293111D01*
G01X293291D02*
X293411Y262411D01*
X293511Y262577D01*
X293551Y262777D01*
X293511Y262977D01*
X293411Y263144D01*
X293231Y263244D01*
X293051Y263211D01*
X292871Y263077D01*
G01X288834Y262911D02*
X288954Y263111D01*
X289094Y263211D01*
X289254Y263244D01*
X289454Y263177D01*
X289594Y263011D01*
X289634Y262811D01*
X289614Y262611D01*
X289534Y262444D01*
X289134Y262111D01*
X288954Y261877D01*
X288834Y261544D01*
X288794Y261244D01*
X289634D01*
G01X285277D02*
Y263244D01*
X285037Y262844D01*
G01Y261244D02*
X285517D01*
G01X277731Y208095D02*
Y210095D01*
X278651Y208095D01*
Y210095D01*
G01X277791Y204158D02*
Y206158D01*
X278271D01*
X278431Y206058D01*
X278551Y205824D01*
X278591Y205557D01*
X278551Y205291D01*
X278451Y205091D01*
X278271Y204991D01*
X277791D01*
G01X277671Y212032D02*
Y214032D01*
X278191Y212365D01*
X278711Y214032D01*
Y212032D01*
G01X277791Y217968D02*
Y215968D01*
X278591D01*
G01X277751Y219906D02*
Y221906D01*
G01X278511D02*
X277751Y220672D01*
G01X278631Y219906D02*
X278091Y221239D01*
G01X277791Y224243D02*
X277891Y224042D01*
X278011Y223909D01*
X278151Y223843D01*
X278311Y223909D01*
X278431Y224042D01*
X278551Y224243D01*
X278591Y224509D01*
Y225843D01*
G01X277771Y227780D02*
Y229780D01*
G01X278611D02*
Y227780D01*
G01Y228780D02*
X277771D01*
G01X278311Y232717D02*
X278711D01*
Y232117D01*
X278591Y231917D01*
X278451Y231783D01*
X278251Y231717D01*
X278051Y231783D01*
X277911Y231917D01*
X277791Y232117D01*
X277711Y232350D01*
X277671Y232617D01*
Y232850D01*
X277711Y233050D01*
X277791Y233283D01*
X277911Y233483D01*
X278031Y233617D01*
X278191Y233717D01*
X278331D01*
X278491Y233650D01*
X278611Y233517D01*
G01X277811Y235654D02*
Y237654D01*
X278571D01*
G01X278291Y236687D02*
X277811D01*
G01X278591Y239591D02*
X277791D01*
Y241591D01*
X278591D01*
G01X278271Y240624D02*
X277791D01*
G01X277751Y243528D02*
Y245528D01*
X278151D01*
X278311Y245428D01*
X278431Y245294D01*
X278531Y245094D01*
X278611Y244861D01*
X278631Y244528D01*
X278611Y244194D01*
X278531Y243961D01*
X278431Y243761D01*
X278311Y243628D01*
X278151Y243528D01*
X277751D01*
G01X278631Y249298D02*
X278511Y249398D01*
X278371Y249465D01*
X278211D01*
X278031Y249365D01*
X277891Y249198D01*
X277791Y248998D01*
X277711Y248665D01*
X277691Y248365D01*
X277731Y248065D01*
X277791Y247865D01*
X277911Y247665D01*
X278051Y247531D01*
X278191Y247465D01*
X278331D01*
X278471Y247531D01*
X278591Y247631D01*
X278691Y247764D01*
G01X278351Y252468D02*
X278431Y252568D01*
X278491Y252735D01*
X278531Y252968D01*
X278491Y253168D01*
X278411Y253302D01*
X278271Y253402D01*
X277731D01*
Y251402D01*
X278391D01*
X278531Y251535D01*
X278611Y251735D01*
X278651Y251968D01*
X278611Y252202D01*
X278491Y252402D01*
X278351Y252468D01*
X277731D01*
G01X320768Y266547D02*
Y272453D01*
X304232D01*
Y266547D01*
X320768D01*
G01X303268D02*
Y272453D01*
X286732D01*
Y266547D01*
X303268D01*
G01X285768D02*
Y272453D01*
X269232D01*
Y266547D01*
X285768D01*
G01X267764Y320032D02*
X268840D01*
Y317513D01*
X267764D01*
G01X268195Y318730D02*
X268840D01*
G01X268894Y316883D02*
Y314363D01*
X268356D01*
X268141Y314489D01*
X267980Y314657D01*
X267845Y314909D01*
X267737Y315203D01*
X267710Y315623D01*
X267737Y316043D01*
X267845Y316337D01*
X267980Y316589D01*
X268141Y316757D01*
X268356Y316883D01*
X268894D01*
G01X267710Y311423D02*
X267872Y311297D01*
X268060Y311213D01*
X268275D01*
X268518Y311339D01*
X268706Y311549D01*
X268840Y311801D01*
X268948Y312221D01*
X268975Y312599D01*
X268921Y312977D01*
X268840Y313229D01*
X268679Y313481D01*
X268491Y313649D01*
X268302Y313733D01*
X268114D01*
X267926Y313649D01*
X267764Y313523D01*
X267630Y313355D01*
G01X268087Y309240D02*
X267980Y309114D01*
X267899Y308904D01*
X267845Y308610D01*
X267899Y308358D01*
X268006Y308190D01*
X268195Y308064D01*
X268921D01*
Y310584D01*
X268033D01*
X267845Y310416D01*
X267737Y310164D01*
X267684Y309870D01*
X267737Y309576D01*
X267899Y309324D01*
X268087Y309240D01*
X268921D01*
G01X268975Y307434D02*
X268302Y304914D01*
X267630Y307434D01*
G01X267872Y306552D02*
X268733D01*
G01X232539Y301628D02*
X232351Y301838D01*
X232136Y301922D01*
X231921Y301838D01*
X231732Y301586D01*
X231598Y301208D01*
X231544Y300830D01*
Y300368D01*
X231598Y299990D01*
X231732Y299654D01*
X231894Y299486D01*
X232082Y299402D01*
X232297Y299486D01*
X232458Y299654D01*
X232566Y299906D01*
X232620Y300242D01*
X232566Y300536D01*
X232432Y300830D01*
X232270Y300998D01*
X232082Y301040D01*
X231867Y300956D01*
X231705Y300746D01*
X231544Y300368D01*
G01X235232Y301922D02*
X235043Y301880D01*
X234828Y301754D01*
X234693Y301544D01*
X234640Y301250D01*
X234693Y300956D01*
X234855Y300704D01*
X235097Y300578D01*
X235366D01*
X235527Y300494D01*
X235662Y300284D01*
X235716Y299990D01*
X235635Y299696D01*
X235447Y299486D01*
X235232Y299402D01*
X235016Y299486D01*
X234828Y299696D01*
X234747Y299990D01*
X234801Y300284D01*
X234936Y300494D01*
X235097Y300578D01*
X235366D01*
X235608Y300704D01*
X235770Y300956D01*
X235823Y301250D01*
X235770Y301544D01*
X235635Y301754D01*
X235420Y301880D01*
X235232Y301922D01*
G01X238435D02*
X238381Y301376D01*
X238300Y300914D01*
X238193Y300494D01*
X238058Y300032D01*
X237843Y299402D01*
X238919D01*
G01X251571Y301418D02*
X251410Y301712D01*
X251195Y301880D01*
X250953Y301922D01*
X250737Y301880D01*
X250522Y301670D01*
X250388Y301418D01*
X250361Y301166D01*
X250414Y300872D01*
X250603Y300662D01*
X250791Y300578D01*
X251033D01*
G01X250791D02*
X250630Y300452D01*
X250495Y300242D01*
X250441Y299990D01*
X250495Y299738D01*
X250630Y299528D01*
X250872Y299402D01*
X251114Y299444D01*
X251356Y299612D01*
G01X254640Y299822D02*
X254479Y299570D01*
X254291Y299444D01*
X254075Y299402D01*
X253806Y299486D01*
X253618Y299696D01*
X253564Y299948D01*
X253591Y300200D01*
X253699Y300410D01*
X254237Y300830D01*
X254479Y301124D01*
X254640Y301544D01*
X254694Y301922D01*
X253564D01*
G01X257279D02*
Y299402D01*
X257602Y299906D01*
G01Y301922D02*
X256956D01*
G01X260448Y306646D02*
G03I1968J0D01*
G01X265369Y353891D02*
X224031D01*
Y302709D01*
X265369D01*
Y353891D01*
G01X272087Y277967D02*
Y281065D01*
X273045D01*
X273352Y280910D01*
X273543Y280704D01*
X273620Y280291D01*
X273543Y279878D01*
X273313Y279620D01*
X273045Y279465D01*
X272087D01*
G01X273045D02*
X273620Y277967D01*
G01X275185D02*
Y281065D01*
X276104D01*
X276411Y280910D01*
X276641Y280549D01*
X276718Y280136D01*
X276641Y279723D01*
X276449Y279413D01*
X276104Y279258D01*
X275185D01*
G01X279049Y277967D02*
Y281065D01*
X278589Y280446D01*
G01Y277967D02*
X279508D01*
G01X282070D02*
X282146Y278638D01*
X282261Y279206D01*
X282415Y279723D01*
X282606Y280291D01*
X282913Y281065D01*
X281380D01*
G01X289587Y278467D02*
Y281565D01*
X290545D01*
X290852Y281410D01*
X291043Y281204D01*
X291120Y280791D01*
X291043Y280378D01*
X290813Y280120D01*
X290545Y279965D01*
X289587D01*
G01X290545D02*
X291120Y278467D01*
G01X292685D02*
Y281565D01*
X293604D01*
X293911Y281410D01*
X294141Y281049D01*
X294218Y280636D01*
X294141Y280223D01*
X293949Y279913D01*
X293604Y279758D01*
X292685D01*
G01X296549Y278467D02*
Y281565D01*
X296089Y280946D01*
G01Y278467D02*
X297008D01*
G01X299646D02*
X299915Y278519D01*
X300221Y278674D01*
X300413Y278932D01*
X300489Y279293D01*
X300413Y279655D01*
X300183Y279965D01*
X299838Y280120D01*
X299455D01*
X299225Y280223D01*
X299033Y280481D01*
X298957Y280842D01*
X299072Y281204D01*
X299340Y281462D01*
X299646Y281565D01*
X299953Y281462D01*
X300221Y281204D01*
X300336Y280842D01*
X300259Y280481D01*
X300068Y280223D01*
X299838Y280120D01*
X299455D01*
X299110Y279965D01*
X298880Y279655D01*
X298804Y279293D01*
X298880Y278932D01*
X299072Y278674D01*
X299378Y278519D01*
X299646Y278467D01*
G01X307087D02*
Y281565D01*
X308045D01*
X308352Y281410D01*
X308543Y281204D01*
X308620Y280791D01*
X308543Y280378D01*
X308313Y280120D01*
X308045Y279965D01*
X307087D01*
G01X308045D02*
X308620Y278467D01*
G01X310185D02*
Y281565D01*
X311104D01*
X311411Y281410D01*
X311641Y281049D01*
X311718Y280636D01*
X311641Y280223D01*
X311449Y279913D01*
X311104Y279758D01*
X310185D01*
G01X314049Y278467D02*
Y281565D01*
X313589Y280946D01*
G01Y278467D02*
X314508D01*
G01X316418Y281049D02*
X316648Y281359D01*
X316916Y281514D01*
X317223Y281565D01*
X317606Y281462D01*
X317874Y281204D01*
X317951Y280894D01*
X317913Y280584D01*
X317759Y280326D01*
X316993Y279810D01*
X316648Y279448D01*
X316418Y278932D01*
X316342Y278467D01*
X317951D01*
G01X307087D02*
Y281565D01*
X308045D01*
X308352Y281410D01*
X308543Y281204D01*
X308620Y280791D01*
X308543Y280378D01*
X308313Y280120D01*
X308045Y279965D01*
X307087D01*
G01X308045D02*
X308620Y278467D01*
G01X310185D02*
Y281565D01*
X311104D01*
X311411Y281410D01*
X311641Y281049D01*
X311718Y280636D01*
X311641Y280223D01*
X311449Y279913D01*
X311104Y279758D01*
X310185D01*
G01X314049Y278467D02*
Y281565D01*
X313589Y280946D01*
G01Y278467D02*
X314508D01*
G01X316418Y281049D02*
X316648Y281359D01*
X316916Y281514D01*
X317223Y281565D01*
X317606Y281462D01*
X317874Y281204D01*
X317951Y280894D01*
X317913Y280584D01*
X317759Y280326D01*
X316993Y279810D01*
X316648Y279448D01*
X316418Y278932D01*
X316342Y278467D01*
X317951D01*
G01X289587D02*
Y281565D01*
X290545D01*
X290852Y281410D01*
X291043Y281204D01*
X291120Y280791D01*
X291043Y280378D01*
X290813Y280120D01*
X290545Y279965D01*
X289587D01*
G01X290545D02*
X291120Y278467D01*
G01X292685D02*
Y281565D01*
X293604D01*
X293911Y281410D01*
X294141Y281049D01*
X294218Y280636D01*
X294141Y280223D01*
X293949Y279913D01*
X293604Y279758D01*
X292685D01*
G01X296549Y278467D02*
Y281565D01*
X296089Y280946D01*
G01Y278467D02*
X297008D01*
G01X299646D02*
X299915Y278519D01*
X300221Y278674D01*
X300413Y278932D01*
X300489Y279293D01*
X300413Y279655D01*
X300183Y279965D01*
X299838Y280120D01*
X299455D01*
X299225Y280223D01*
X299033Y280481D01*
X298957Y280842D01*
X299072Y281204D01*
X299340Y281462D01*
X299646Y281565D01*
X299953Y281462D01*
X300221Y281204D01*
X300336Y280842D01*
X300259Y280481D01*
X300068Y280223D01*
X299838Y280120D01*
X299455D01*
X299110Y279965D01*
X298880Y279655D01*
X298804Y279293D01*
X298880Y278932D01*
X299072Y278674D01*
X299378Y278519D01*
X299646Y278467D01*
G01X272087Y277967D02*
Y281065D01*
X273045D01*
X273352Y280910D01*
X273543Y280704D01*
X273620Y280291D01*
X273543Y279878D01*
X273313Y279620D01*
X273045Y279465D01*
X272087D01*
G01X273045D02*
X273620Y277967D01*
G01X275185D02*
Y281065D01*
X276104D01*
X276411Y280910D01*
X276641Y280549D01*
X276718Y280136D01*
X276641Y279723D01*
X276449Y279413D01*
X276104Y279258D01*
X275185D01*
G01X279049Y277967D02*
Y281065D01*
X278589Y280446D01*
G01Y277967D02*
X279508D01*
G01X282070D02*
X282146Y278638D01*
X282261Y279206D01*
X282415Y279723D01*
X282606Y280291D01*
X282913Y281065D01*
X281380D01*
G01X226060Y296065D02*
Y293845D01*
X226213Y293380D01*
X226519Y293070D01*
X226902Y292967D01*
X227286Y293070D01*
X227592Y293380D01*
X227745Y293845D01*
Y296065D01*
G01X229923Y292967D02*
X230000Y293639D01*
X230115Y294206D01*
X230268Y294723D01*
X230460Y295291D01*
X230766Y296065D01*
X229234D01*
G01X232255Y293432D02*
X232484Y293174D01*
X232753Y293019D01*
X233098Y292967D01*
X233443Y293070D01*
X233711Y293277D01*
X233902Y293639D01*
X233941Y294052D01*
X233864Y294465D01*
X233672Y294723D01*
X233404Y294929D01*
X233136Y294981D01*
X232868Y294929D01*
X232523Y294723D01*
X232638Y296065D01*
X233672D01*
G01X278560Y297065D02*
Y294845D01*
X278713Y294380D01*
X279019Y294070D01*
X279402Y293967D01*
X279786Y294070D01*
X280092Y294380D01*
X280245Y294845D01*
Y297065D01*
G01X282423Y293967D02*
X282500Y294638D01*
X282615Y295206D01*
X282768Y295723D01*
X282960Y296291D01*
X283266Y297065D01*
X281734D01*
G01X286057Y293967D02*
Y297065D01*
X284640Y294845D01*
X286556D01*
G01X275108Y264565D02*
Y262345D01*
X275262Y261880D01*
X275568Y261571D01*
X275951Y261467D01*
X276334Y261571D01*
X276641Y261880D01*
X276794Y262345D01*
Y264565D01*
G01X279049Y261467D02*
Y264565D01*
X278589Y263946D01*
G01Y261467D02*
X279508D01*
G01X275108Y264565D02*
Y262345D01*
X275262Y261880D01*
X275568Y261571D01*
X275951Y261467D01*
X276334Y261571D01*
X276641Y261880D01*
X276794Y262345D01*
Y264565D01*
G01X279049Y261467D02*
Y264565D01*
X278589Y263946D01*
G01Y261467D02*
X279508D01*
G01X277691Y255339D02*
X278191Y257339D01*
X278691Y255339D01*
G01X278511Y256039D02*
X277871D01*
G01X268840Y351922D02*
Y349402D01*
X268168D01*
X267953Y349528D01*
X267818Y349696D01*
X267764Y350032D01*
X267818Y350368D01*
X267980Y350578D01*
X268168Y350704D01*
X268840D01*
G01X268168D02*
X267764Y351922D01*
G01X268840Y348379D02*
Y345859D01*
X268195D01*
X267980Y345985D01*
X267818Y346279D01*
X267764Y346615D01*
X267818Y346951D01*
X267953Y347203D01*
X268195Y347329D01*
X268840D01*
G01X268921Y345229D02*
Y342709D01*
X267684Y345229D01*
Y342709D01*
G01X269002Y342080D02*
Y339560D01*
X268302Y341660D01*
X267603Y339560D01*
Y342080D01*
G01X268840Y336410D02*
Y338930D01*
X267764D01*
G01X268894Y335780D02*
Y333261D01*
G01X267872D02*
X268894Y334814D01*
G01X267710Y335780D02*
X268437Y334101D01*
G01X269234Y331733D02*
X269100Y331985D01*
X268938Y332153D01*
X268750Y332237D01*
X268535Y332153D01*
X268373Y331985D01*
X268212Y331733D01*
X268158Y331397D01*
Y329717D01*
G01X268867Y329087D02*
Y326568D01*
G01X267737D02*
Y329087D01*
G01Y327828D02*
X268867D01*
G01X268141Y325072D02*
X267603D01*
Y325828D01*
X267764Y326080D01*
X267953Y326248D01*
X268222Y326332D01*
X268491Y326248D01*
X268679Y326080D01*
X268840Y325828D01*
X268948Y325534D01*
X269002Y325198D01*
Y324904D01*
X268948Y324652D01*
X268840Y324358D01*
X268679Y324106D01*
X268518Y323938D01*
X268302Y323812D01*
X268114D01*
X267899Y323896D01*
X267737Y324064D01*
G01X268814Y323182D02*
Y320662D01*
X267791D01*
G01X268168Y321880D02*
X268814D01*
G01X405220Y105780D02*
Y78220D01*
X432780D01*
Y105780D01*
X405220D01*
G01X338500Y21000D02*
Y1000D01*
X373500D01*
Y21000D01*
X338500D01*
G01X434000Y18000D02*
Y-22000D01*
G01X436750Y15500D02*
G03I-1000J0D01*
G01X432250Y-22000D02*
Y18000D01*
X445750D01*
Y-22000D01*
X432250D01*
G01X460500Y21000D02*
Y41000D01*
X425500D01*
Y21000D01*
X460500D01*
G01X379500Y46000D02*
Y42500D01*
X388500D01*
Y47500D01*
G01Y54500D02*
Y59500D01*
X379500D01*
Y56000D01*
G01X385300Y51600D02*
X382700D01*
X384100Y50200D01*
X385500Y51600D01*
X385300D01*
G01X379500Y59500D02*
X388500D01*
Y42500D01*
X379500D01*
Y59500D01*
G01X391500Y46000D02*
Y42500D01*
X400500D01*
Y47500D01*
G01Y54500D02*
Y59500D01*
X391500D01*
Y56000D01*
G01X397300Y51600D02*
X394700D01*
X396100Y50200D01*
X397500Y51600D01*
X397300D01*
G01X391500Y59500D02*
X400500D01*
Y42500D01*
X391500D01*
Y59500D01*
G01X403500Y46000D02*
Y42500D01*
X412500D01*
Y47500D01*
G01Y54500D02*
Y59500D01*
X403500D01*
Y56000D01*
G01X409300Y51600D02*
X406700D01*
X408100Y50200D01*
X409500Y51600D01*
X409300D01*
G01X403500Y59500D02*
X412500D01*
Y42500D01*
X403500D01*
Y59500D01*
G01X416500Y46000D02*
Y42500D01*
X425500D01*
Y47500D01*
G01Y54500D02*
Y59500D01*
X416500D01*
Y56000D01*
G01X422300Y51600D02*
X419700D01*
X421100Y50200D01*
X422500Y51600D01*
X422300D01*
G01X416500Y59500D02*
X425500D01*
Y42500D01*
X416500D01*
Y59500D01*
G01X428500Y46000D02*
Y42500D01*
X437500D01*
Y47500D01*
G01Y54500D02*
Y59500D01*
X428500D01*
Y56000D01*
G01X434300Y51600D02*
X431700D01*
X433100Y50200D01*
X434500Y51600D01*
X434300D01*
G01X428500Y59500D02*
X437500D01*
Y42500D01*
X428500D01*
Y59500D01*
G01X389581Y17623D02*
Y-2377D01*
G01X391831Y15123D02*
G03I-1000J0D01*
G01X387831Y-2377D02*
Y17623D01*
X401331D01*
Y-2377D01*
X387831D01*
G01X442380Y28685D02*
X442690Y28876D01*
X442897Y29106D01*
X443000Y29375D01*
X442897Y29681D01*
X442690Y29911D01*
X442380Y30141D01*
X441967Y30218D01*
X439902D01*
G01X442380Y31706D02*
X442742Y31936D01*
X442948Y32242D01*
X443000Y32587D01*
X442948Y32894D01*
X442690Y33200D01*
X442380Y33392D01*
X442071Y33430D01*
X441709Y33353D01*
X441451Y33085D01*
X441348Y32817D01*
Y32472D01*
G01Y32817D02*
X441193Y33047D01*
X440935Y33238D01*
X440625Y33315D01*
X440315Y33238D01*
X440057Y33047D01*
X439902Y32702D01*
X439954Y32357D01*
X440160Y32012D01*
G01X442380Y43383D02*
X442690Y43575D01*
X442897Y43804D01*
X443000Y44073D01*
X442897Y44379D01*
X442690Y44609D01*
X442380Y44839D01*
X441967Y44916D01*
X439902D01*
G01X442380Y46404D02*
X442742Y46634D01*
X442948Y46940D01*
X443000Y47285D01*
X442948Y47592D01*
X442690Y47898D01*
X442380Y48090D01*
X442071Y48128D01*
X441709Y48052D01*
X441451Y47783D01*
X441348Y47515D01*
Y47170D01*
G01Y47515D02*
X441193Y47745D01*
X440935Y47937D01*
X440625Y48013D01*
X440315Y47937D01*
X440057Y47745D01*
X439902Y47400D01*
X439954Y47055D01*
X440160Y46711D01*
G01X363185Y2587D02*
X363376Y2277D01*
X363606Y2070D01*
X363875Y1967D01*
X364181Y2070D01*
X364411Y2277D01*
X364641Y2587D01*
X364718Y3000D01*
Y5065D01*
G01X367049Y1967D02*
Y5065D01*
X366589Y4446D01*
G01Y1967D02*
X367508D01*
G01X386033Y36108D02*
X382935D01*
Y36875D01*
X383090Y37181D01*
X383296Y37411D01*
X383606Y37603D01*
X383967Y37756D01*
X384484Y37794D01*
X385000Y37756D01*
X385362Y37603D01*
X385671Y37411D01*
X385878Y37181D01*
X386033Y36875D01*
Y36108D01*
G01Y39972D02*
X385362Y40049D01*
X384794Y40164D01*
X384277Y40317D01*
X383709Y40509D01*
X382935Y40815D01*
Y39282D01*
G01X386033Y36108D02*
X382935D01*
Y36875D01*
X383090Y37181D01*
X383296Y37411D01*
X383606Y37603D01*
X383967Y37756D01*
X384484Y37794D01*
X385000Y37756D01*
X385362Y37603D01*
X385671Y37411D01*
X385878Y37181D01*
X386033Y36875D01*
Y36108D01*
G01Y39972D02*
X385362Y40049D01*
X384794Y40164D01*
X384277Y40317D01*
X383709Y40509D01*
X382935Y40815D01*
Y39282D01*
G01X397033Y36608D02*
X393935D01*
Y37375D01*
X394090Y37681D01*
X394296Y37911D01*
X394606Y38103D01*
X394967Y38256D01*
X395484Y38294D01*
X396000Y38256D01*
X396362Y38103D01*
X396671Y37911D01*
X396878Y37681D01*
X397033Y37375D01*
Y36608D01*
G01Y40549D02*
X396981Y40817D01*
X396826Y41124D01*
X396568Y41315D01*
X396207Y41392D01*
X395845Y41315D01*
X395535Y41085D01*
X395380Y40740D01*
Y40357D01*
X395277Y40127D01*
X395019Y39936D01*
X394658Y39859D01*
X394296Y39974D01*
X394038Y40242D01*
X393935Y40549D01*
X394038Y40855D01*
X394296Y41124D01*
X394658Y41238D01*
X395019Y41162D01*
X395277Y40970D01*
X395380Y40740D01*
Y40357D01*
X395535Y40012D01*
X395845Y39782D01*
X396207Y39706D01*
X396568Y39782D01*
X396826Y39974D01*
X396981Y40281D01*
X397033Y40549D01*
G01Y36608D02*
X393935D01*
Y37375D01*
X394090Y37681D01*
X394296Y37911D01*
X394606Y38103D01*
X394967Y38256D01*
X395484Y38294D01*
X396000Y38256D01*
X396362Y38103D01*
X396671Y37911D01*
X396878Y37681D01*
X397033Y37375D01*
Y36608D01*
G01Y40549D02*
X396981Y40817D01*
X396826Y41124D01*
X396568Y41315D01*
X396207Y41392D01*
X395845Y41315D01*
X395535Y41085D01*
X395380Y40740D01*
Y40357D01*
X395277Y40127D01*
X395019Y39936D01*
X394658Y39859D01*
X394296Y39974D01*
X394038Y40242D01*
X393935Y40549D01*
X394038Y40855D01*
X394296Y41124D01*
X394658Y41238D01*
X395019Y41162D01*
X395277Y40970D01*
X395380Y40740D01*
Y40357D01*
X395535Y40012D01*
X395845Y39782D01*
X396207Y39706D01*
X396568Y39782D01*
X396826Y39974D01*
X396981Y40281D01*
X397033Y40549D01*
G01X409033Y36108D02*
X405935D01*
Y36875D01*
X406090Y37181D01*
X406296Y37411D01*
X406606Y37603D01*
X406967Y37756D01*
X407484Y37794D01*
X408000Y37756D01*
X408362Y37603D01*
X408671Y37411D01*
X408878Y37181D01*
X409033Y36875D01*
Y36108D01*
G01X408671Y39397D02*
X408930Y39666D01*
X409033Y39972D01*
X408930Y40279D01*
X408620Y40547D01*
X408155Y40738D01*
X407690Y40815D01*
X407122D01*
X406658Y40738D01*
X406245Y40547D01*
X406038Y40317D01*
X405935Y40049D01*
X406038Y39742D01*
X406245Y39512D01*
X406554Y39359D01*
X406967Y39282D01*
X407329Y39359D01*
X407690Y39551D01*
X407897Y39781D01*
X407948Y40049D01*
X407845Y40355D01*
X407587Y40585D01*
X407122Y40815D01*
G01X409033Y36108D02*
X405935D01*
Y36875D01*
X406090Y37181D01*
X406296Y37411D01*
X406606Y37603D01*
X406967Y37756D01*
X407484Y37794D01*
X408000Y37756D01*
X408362Y37603D01*
X408671Y37411D01*
X408878Y37181D01*
X409033Y36875D01*
Y36108D01*
G01X408671Y39397D02*
X408930Y39666D01*
X409033Y39972D01*
X408930Y40279D01*
X408620Y40547D01*
X408155Y40738D01*
X407690Y40815D01*
X407122D01*
X406658Y40738D01*
X406245Y40547D01*
X406038Y40317D01*
X405935Y40049D01*
X406038Y39742D01*
X406245Y39512D01*
X406554Y39359D01*
X406967Y39282D01*
X407329Y39359D01*
X407690Y39551D01*
X407897Y39781D01*
X407948Y40049D01*
X407845Y40355D01*
X407587Y40585D01*
X407122Y40815D01*
G01X430060Y36967D02*
Y40065D01*
X430826D01*
X431132Y39910D01*
X431362Y39704D01*
X431554Y39394D01*
X431707Y39033D01*
X431745Y38516D01*
X431707Y38000D01*
X431554Y37638D01*
X431362Y37329D01*
X431132Y37122D01*
X430826Y36967D01*
X430060D01*
G01X434000D02*
Y40065D01*
X433540Y39446D01*
G01Y36967D02*
X434460D01*
G01X437098D02*
Y40065D01*
X436638Y39446D01*
G01Y36967D02*
X437557D01*
G01X416060Y37467D02*
Y40565D01*
X416826D01*
X417132Y40410D01*
X417362Y40204D01*
X417554Y39894D01*
X417707Y39533D01*
X417745Y39016D01*
X417707Y38500D01*
X417554Y38138D01*
X417362Y37829D01*
X417132Y37622D01*
X416826Y37467D01*
X416060D01*
G01X420000D02*
Y40565D01*
X419540Y39946D01*
G01Y37467D02*
X420460D01*
G01X423098Y40565D02*
X422791Y40462D01*
X422561Y40204D01*
X422408Y39894D01*
X422293Y39481D01*
X422255Y39016D01*
X422293Y38552D01*
X422408Y38138D01*
X422561Y37829D01*
X422791Y37570D01*
X423098Y37467D01*
X423404Y37570D01*
X423634Y37829D01*
X423787Y38138D01*
X423902Y38552D01*
X423940Y39016D01*
X423902Y39481D01*
X423787Y39894D01*
X423634Y40204D01*
X423404Y40462D01*
X423098Y40565D01*
G01X416060Y37467D02*
Y40565D01*
X416826D01*
X417132Y40410D01*
X417362Y40204D01*
X417554Y39894D01*
X417707Y39533D01*
X417745Y39016D01*
X417707Y38500D01*
X417554Y38138D01*
X417362Y37829D01*
X417132Y37622D01*
X416826Y37467D01*
X416060D01*
G01X420000D02*
Y40565D01*
X419540Y39946D01*
G01Y37467D02*
X420460D01*
G01X423098Y40565D02*
X422791Y40462D01*
X422561Y40204D01*
X422408Y39894D01*
X422293Y39481D01*
X422255Y39016D01*
X422293Y38552D01*
X422408Y38138D01*
X422561Y37829D01*
X422791Y37570D01*
X423098Y37467D01*
X423404Y37570D01*
X423634Y37829D01*
X423787Y38138D01*
X423902Y38552D01*
X423940Y39016D01*
X423902Y39481D01*
X423787Y39894D01*
X423634Y40204D01*
X423404Y40462D01*
X423098Y40565D01*
G01X430060Y36967D02*
Y40065D01*
X430826D01*
X431132Y39910D01*
X431362Y39704D01*
X431554Y39394D01*
X431707Y39033D01*
X431745Y38516D01*
X431707Y38000D01*
X431554Y37638D01*
X431362Y37329D01*
X431132Y37122D01*
X430826Y36967D01*
X430060D01*
G01X434000D02*
Y40065D01*
X433540Y39446D01*
G01Y36967D02*
X434460D01*
G01X437098D02*
Y40065D01*
X436638Y39446D01*
G01Y36967D02*
X437557D01*
G01X433560Y22065D02*
Y19845D01*
X433713Y19380D01*
X434019Y19070D01*
X434402Y18967D01*
X434786Y19070D01*
X435092Y19380D01*
X435245Y19845D01*
Y22065D01*
G01X437500Y18967D02*
Y22065D01*
X437040Y21446D01*
G01Y18967D02*
X437960D01*
G01X439870Y20258D02*
X440138Y20620D01*
X440368Y20826D01*
X440674Y20929D01*
X440943Y20826D01*
X441134Y20620D01*
X441287Y20310D01*
X441326Y19948D01*
X441287Y19638D01*
X441134Y19329D01*
X440904Y19070D01*
X440636Y18967D01*
X440329Y19070D01*
X440061Y19380D01*
X439908Y19845D01*
X439870Y20361D01*
X439946Y21033D01*
X440061Y21394D01*
X440253Y21756D01*
X440521Y22014D01*
X440789Y22065D01*
X441057Y21962D01*
X441249Y21704D01*
G01X433560Y22065D02*
Y19845D01*
X433713Y19380D01*
X434019Y19070D01*
X434402Y18967D01*
X434786Y19070D01*
X435092Y19380D01*
X435245Y19845D01*
Y22065D01*
G01X437500Y18967D02*
Y22065D01*
X437040Y21446D01*
G01Y18967D02*
X437960D01*
G01X439870Y20258D02*
X440138Y20620D01*
X440368Y20826D01*
X440674Y20929D01*
X440943Y20826D01*
X441134Y20620D01*
X441287Y20310D01*
X441326Y19948D01*
X441287Y19638D01*
X441134Y19329D01*
X440904Y19070D01*
X440636Y18967D01*
X440329Y19070D01*
X440061Y19380D01*
X439908Y19845D01*
X439870Y20361D01*
X439946Y21033D01*
X440061Y21394D01*
X440253Y21756D01*
X440521Y22014D01*
X440789Y22065D01*
X441057Y21962D01*
X441249Y21704D01*
G01X401560Y-3435D02*
Y-5655D01*
X401713Y-6120D01*
X402019Y-6430D01*
X402402Y-6533D01*
X402786Y-6430D01*
X403092Y-6120D01*
X403245Y-5655D01*
Y-3435D01*
G01X404772Y-3951D02*
X405002Y-3641D01*
X405270Y-3486D01*
X405577Y-3435D01*
X405960Y-3538D01*
X406228Y-3796D01*
X406305Y-4106D01*
X406266Y-4416D01*
X406113Y-4674D01*
X405347Y-5190D01*
X405002Y-5552D01*
X404772Y-6068D01*
X404695Y-6533D01*
X406305D01*
G01X408521D02*
X408598Y-5862D01*
X408713Y-5294D01*
X408866Y-4777D01*
X409057Y-4209D01*
X409364Y-3435D01*
X407831D01*
G01X401560D02*
Y-5655D01*
X401713Y-6120D01*
X402019Y-6430D01*
X402402Y-6533D01*
X402786Y-6430D01*
X403092Y-6120D01*
X403245Y-5655D01*
Y-3435D01*
G01X404772Y-3951D02*
X405002Y-3641D01*
X405270Y-3486D01*
X405577Y-3435D01*
X405960Y-3538D01*
X406228Y-3796D01*
X406305Y-4106D01*
X406266Y-4416D01*
X406113Y-4674D01*
X405347Y-5190D01*
X405002Y-5552D01*
X404772Y-6068D01*
X404695Y-6533D01*
X406305D01*
G01X408521D02*
X408598Y-5862D01*
X408713Y-5294D01*
X408866Y-4777D01*
X409057Y-4209D01*
X409364Y-3435D01*
X407831D01*
G01X325136Y2087D02*
X325328Y1777D01*
X325558Y1570D01*
X325826Y1467D01*
X326132Y1570D01*
X326362Y1777D01*
X326592Y2087D01*
X326669Y2500D01*
Y4565D01*
G01X328157Y2087D02*
X328387Y1725D01*
X328694Y1519D01*
X329038Y1467D01*
X329345Y1519D01*
X329651Y1777D01*
X329843Y2087D01*
X329881Y2397D01*
X329805Y2758D01*
X329536Y3016D01*
X329268Y3120D01*
X328923D01*
G01X329268D02*
X329498Y3274D01*
X329690Y3533D01*
X329766Y3842D01*
X329690Y4152D01*
X329498Y4410D01*
X329153Y4565D01*
X328808Y4514D01*
X328464Y4307D01*
G01X331370Y2758D02*
X331638Y3120D01*
X331868Y3326D01*
X332174Y3429D01*
X332442Y3326D01*
X332634Y3120D01*
X332787Y2810D01*
X332826Y2448D01*
X332787Y2138D01*
X332634Y1829D01*
X332404Y1570D01*
X332136Y1467D01*
X331829Y1570D01*
X331561Y1880D01*
X331408Y2345D01*
X331370Y2861D01*
X331446Y3533D01*
X331561Y3894D01*
X331753Y4256D01*
X332021Y4514D01*
X332289Y4565D01*
X332557Y4462D01*
X332749Y4204D01*
G01X363185Y2587D02*
X363376Y2277D01*
X363606Y2070D01*
X363875Y1967D01*
X364181Y2070D01*
X364411Y2277D01*
X364641Y2587D01*
X364718Y3000D01*
Y5065D01*
G01X367049Y1967D02*
Y5065D01*
X366589Y4446D01*
G01Y1967D02*
X367508D01*
G01X490600Y156000D02*
Y208000D01*
X489000Y209600D01*
X437000D01*
X435400Y208000D01*
Y156000D01*
X437000Y154400D01*
X489000D01*
X490600Y156000D01*
G01X409158Y99874D02*
G03I0J1968D01*
G01X429000Y129250D02*
Y114250D01*
X389000D01*
Y129250D01*
X429000D01*
G01X343000Y115000D02*
X369000D01*
Y85000D01*
X343000D01*
Y115000D01*
G01X354000D02*
X359000D01*
Y114000D01*
X354000D01*
Y115000D01*
G01X368483Y89065D02*
X368292Y89375D01*
X368062Y89582D01*
X367793Y89685D01*
X367487Y89582D01*
X367257Y89375D01*
X367027Y89065D01*
X366950Y88652D01*
Y86587D01*
G01X365462Y89065D02*
X365232Y89427D01*
X364926Y89633D01*
X364581Y89685D01*
X364274Y89633D01*
X363968Y89375D01*
X363776Y89065D01*
X363738Y88756D01*
X363815Y88394D01*
X364083Y88136D01*
X364351Y88033D01*
X364696D01*
G01X364351D02*
X364121Y87878D01*
X363930Y87620D01*
X363853Y87310D01*
X363930Y87000D01*
X364121Y86742D01*
X364466Y86587D01*
X364811Y86639D01*
X365156Y86845D01*
G01X361522Y86587D02*
X361828Y86690D01*
X362058Y86948D01*
X362211Y87258D01*
X362326Y87671D01*
X362364Y88136D01*
X362326Y88601D01*
X362211Y89014D01*
X362058Y89324D01*
X361828Y89582D01*
X361522Y89685D01*
X361215Y89582D01*
X360985Y89324D01*
X360832Y89014D01*
X360717Y88601D01*
X360679Y88136D01*
X360717Y87671D01*
X360832Y87258D01*
X360985Y86948D01*
X361215Y86690D01*
X361522Y86587D01*
G01X422098Y91694D02*
X419878D01*
X419413Y91540D01*
X419103Y91234D01*
X419000Y90851D01*
X419103Y90467D01*
X419413Y90161D01*
X419878Y90008D01*
X422098D01*
G01X419620Y88596D02*
X419258Y88366D01*
X419052Y88060D01*
X419000Y87715D01*
X419052Y87408D01*
X419310Y87102D01*
X419620Y86910D01*
X419929Y86872D01*
X420291Y86948D01*
X420549Y87217D01*
X420652Y87485D01*
Y87830D01*
G01Y87485D02*
X420807Y87255D01*
X421065Y87063D01*
X421375Y86987D01*
X421685Y87063D01*
X421943Y87255D01*
X422098Y87600D01*
X422046Y87945D01*
X421840Y88289D01*
G01X422098Y84655D02*
X421995Y84962D01*
X421736Y85192D01*
X421427Y85345D01*
X421014Y85460D01*
X420549Y85498D01*
X420084Y85460D01*
X419671Y85345D01*
X419361Y85192D01*
X419103Y84962D01*
X419000Y84655D01*
X419103Y84349D01*
X419361Y84119D01*
X419671Y83966D01*
X420084Y83851D01*
X420549Y83812D01*
X421014Y83851D01*
X421427Y83966D01*
X421736Y84119D01*
X421995Y84349D01*
X422098Y84655D01*
G01X347560Y121065D02*
Y118845D01*
X347713Y118380D01*
X348019Y118070D01*
X348402Y117967D01*
X348786Y118070D01*
X349092Y118380D01*
X349245Y118845D01*
Y121065D01*
G01X351423Y117967D02*
X351500Y118638D01*
X351615Y119206D01*
X351768Y119723D01*
X351960Y120291D01*
X352266Y121065D01*
X350734D01*
G01X354598D02*
X354291Y120962D01*
X354061Y120704D01*
X353908Y120394D01*
X353793Y119981D01*
X353755Y119516D01*
X353793Y119052D01*
X353908Y118638D01*
X354061Y118329D01*
X354291Y118070D01*
X354598Y117967D01*
X354904Y118070D01*
X355134Y118329D01*
X355287Y118638D01*
X355402Y119052D01*
X355441Y119516D01*
X355402Y119981D01*
X355287Y120394D01*
X355134Y120704D01*
X354904Y120962D01*
X354598Y121065D01*
G01X415951Y129967D02*
Y131361D01*
X415185Y133065D01*
G01X416718D02*
X415951Y131361D01*
G01X418972Y129967D02*
X419049Y130638D01*
X419164Y131206D01*
X419317Y131723D01*
X419509Y132291D01*
X419815Y133065D01*
X418282D01*
G01X415951Y129967D02*
Y131361D01*
X415185Y133065D01*
G01X416718D02*
X415951Y131361D01*
G01X418972Y129967D02*
X419049Y130638D01*
X419164Y131206D01*
X419317Y131723D01*
X419509Y132291D01*
X419815Y133065D01*
X418282D01*
G01X320564Y320032D02*
X321640D01*
Y317513D01*
X320564D01*
G01X320995Y318730D02*
X321640D01*
G01X321694Y316883D02*
Y314363D01*
X321156D01*
X320941Y314489D01*
X320780Y314657D01*
X320645Y314909D01*
X320537Y315203D01*
X320510Y315623D01*
X320537Y316043D01*
X320645Y316337D01*
X320780Y316589D01*
X320941Y316757D01*
X321156Y316883D01*
X321694D01*
G01X320510Y311423D02*
X320672Y311297D01*
X320860Y311213D01*
X321075D01*
X321318Y311339D01*
X321506Y311549D01*
X321640Y311801D01*
X321748Y312221D01*
X321775Y312599D01*
X321721Y312977D01*
X321640Y313229D01*
X321479Y313481D01*
X321291Y313649D01*
X321102Y313733D01*
X320914D01*
X320726Y313649D01*
X320564Y313523D01*
X320430Y313355D01*
G01X320887Y309240D02*
X320780Y309114D01*
X320699Y308904D01*
X320645Y308610D01*
X320699Y308358D01*
X320806Y308190D01*
X320995Y308064D01*
X321721D01*
Y310584D01*
X320833D01*
X320645Y310416D01*
X320537Y310164D01*
X320484Y309870D01*
X320537Y309576D01*
X320699Y309324D01*
X320887Y309240D01*
X321721D01*
G01X321775Y307434D02*
X321102Y304914D01*
X320430Y307434D01*
G01X320672Y306552D02*
X321533D01*
G01X409464Y320032D02*
X410540D01*
Y317513D01*
X409464D01*
G01X409895Y318730D02*
X410540D01*
G01X410594Y316883D02*
Y314363D01*
X410056D01*
X409841Y314489D01*
X409680Y314657D01*
X409545Y314909D01*
X409437Y315203D01*
X409410Y315623D01*
X409437Y316043D01*
X409545Y316337D01*
X409680Y316589D01*
X409841Y316757D01*
X410056Y316883D01*
X410594D01*
G01X409410Y311423D02*
X409572Y311297D01*
X409760Y311213D01*
X409975D01*
X410218Y311339D01*
X410406Y311549D01*
X410540Y311801D01*
X410648Y312221D01*
X410675Y312599D01*
X410621Y312977D01*
X410540Y313229D01*
X410379Y313481D01*
X410191Y313649D01*
X410002Y313733D01*
X409814D01*
X409626Y313649D01*
X409464Y313523D01*
X409330Y313355D01*
G01X409787Y309240D02*
X409680Y309114D01*
X409599Y308904D01*
X409545Y308610D01*
X409599Y308358D01*
X409706Y308190D01*
X409895Y308064D01*
X410621D01*
Y310584D01*
X409733D01*
X409545Y310416D01*
X409437Y310164D01*
X409384Y309870D01*
X409437Y309576D01*
X409599Y309324D01*
X409787Y309240D01*
X410621D01*
G01X410675Y307434D02*
X410002Y304914D01*
X409330Y307434D01*
G01X409572Y306552D02*
X410433D01*
G01X374239Y301628D02*
X374051Y301838D01*
X373836Y301922D01*
X373620Y301838D01*
X373432Y301586D01*
X373298Y301208D01*
X373244Y300830D01*
Y300368D01*
X373298Y299990D01*
X373432Y299654D01*
X373594Y299486D01*
X373782Y299402D01*
X373997Y299486D01*
X374158Y299654D01*
X374266Y299906D01*
X374320Y300242D01*
X374266Y300536D01*
X374132Y300830D01*
X373970Y300998D01*
X373782Y301040D01*
X373567Y300956D01*
X373405Y300746D01*
X373244Y300368D01*
G01X376932Y301922D02*
X376743Y301880D01*
X376528Y301754D01*
X376393Y301544D01*
X376340Y301250D01*
X376393Y300956D01*
X376555Y300704D01*
X376797Y300578D01*
X377066D01*
X377227Y300494D01*
X377362Y300284D01*
X377416Y299990D01*
X377335Y299696D01*
X377147Y299486D01*
X376932Y299402D01*
X376716Y299486D01*
X376528Y299696D01*
X376447Y299990D01*
X376501Y300284D01*
X376636Y300494D01*
X376797Y300578D01*
X377066D01*
X377308Y300704D01*
X377470Y300956D01*
X377523Y301250D01*
X377470Y301544D01*
X377335Y301754D01*
X377120Y301880D01*
X376932Y301922D01*
G01X380135D02*
X380081Y301376D01*
X380000Y300914D01*
X379893Y300494D01*
X379758Y300032D01*
X379543Y299402D01*
X380619D01*
G01X393271Y301418D02*
X393110Y301712D01*
X392895Y301880D01*
X392653Y301922D01*
X392437Y301880D01*
X392222Y301670D01*
X392088Y301418D01*
X392061Y301166D01*
X392114Y300872D01*
X392303Y300662D01*
X392491Y300578D01*
X392733D01*
G01X392491D02*
X392330Y300452D01*
X392195Y300242D01*
X392141Y299990D01*
X392195Y299738D01*
X392330Y299528D01*
X392572Y299402D01*
X392814Y299444D01*
X393056Y299612D01*
G01X396340Y299822D02*
X396179Y299570D01*
X395991Y299444D01*
X395775Y299402D01*
X395506Y299486D01*
X395318Y299696D01*
X395264Y299948D01*
X395291Y300200D01*
X395399Y300410D01*
X395937Y300830D01*
X396179Y301124D01*
X396340Y301544D01*
X396394Y301922D01*
X395264D01*
G01X398979D02*
Y299402D01*
X399302Y299906D01*
G01Y301922D02*
X398656D01*
G01X407069Y353891D02*
X365731D01*
Y302709D01*
X407069D01*
Y353891D01*
G01X402148Y306646D02*
G03I1968J0D01*
G01X427539Y301628D02*
X427351Y301838D01*
X427136Y301922D01*
X426921Y301838D01*
X426732Y301586D01*
X426598Y301208D01*
X426544Y300830D01*
Y300368D01*
X426598Y299990D01*
X426732Y299654D01*
X426894Y299486D01*
X427082Y299402D01*
X427297Y299486D01*
X427458Y299654D01*
X427566Y299906D01*
X427620Y300242D01*
X427566Y300536D01*
X427432Y300830D01*
X427270Y300998D01*
X427082Y301040D01*
X426867Y300956D01*
X426705Y300746D01*
X426544Y300368D01*
G01X430232Y301922D02*
X430043Y301880D01*
X429828Y301754D01*
X429693Y301544D01*
X429640Y301250D01*
X429693Y300956D01*
X429855Y300704D01*
X430097Y300578D01*
X430366D01*
X430527Y300494D01*
X430662Y300284D01*
X430716Y299990D01*
X430635Y299696D01*
X430447Y299486D01*
X430232Y299402D01*
X430016Y299486D01*
X429828Y299696D01*
X429747Y299990D01*
X429801Y300284D01*
X429936Y300494D01*
X430097Y300578D01*
X430366D01*
X430608Y300704D01*
X430770Y300956D01*
X430823Y301250D01*
X430770Y301544D01*
X430635Y301754D01*
X430420Y301880D01*
X430232Y301922D01*
G01X433435D02*
X433381Y301376D01*
X433300Y300914D01*
X433193Y300494D01*
X433058Y300032D01*
X432843Y299402D01*
X433919D01*
G01X460369Y353891D02*
X419031D01*
Y302709D01*
X460369D01*
Y353891D01*
G01X383322Y262911D02*
X383442Y263111D01*
X383582Y263211D01*
X383742Y263244D01*
X383942Y263177D01*
X384082Y263011D01*
X384122Y262811D01*
X384102Y262611D01*
X384022Y262444D01*
X383622Y262111D01*
X383442Y261877D01*
X383322Y261544D01*
X383282Y261244D01*
X384122D01*
G01X384622Y262077D02*
X384762Y262311D01*
X384882Y262444D01*
X385042Y262511D01*
X385182Y262444D01*
X385282Y262311D01*
X385362Y262111D01*
X385382Y261877D01*
X385362Y261677D01*
X385282Y261477D01*
X385162Y261311D01*
X385022Y261244D01*
X384862Y261311D01*
X384722Y261511D01*
X384642Y261811D01*
X384622Y262144D01*
X384662Y262577D01*
X384722Y262811D01*
X384822Y263044D01*
X384962Y263211D01*
X385102Y263244D01*
X385242Y263177D01*
X385342Y263011D01*
G01X379385Y262911D02*
X379505Y263111D01*
X379645Y263211D01*
X379805Y263244D01*
X380005Y263177D01*
X380145Y263011D01*
X380185Y262811D01*
X380165Y262611D01*
X380085Y262444D01*
X379685Y262111D01*
X379505Y261877D01*
X379385Y261544D01*
X379345Y261244D01*
X380185D01*
G01X380625Y261544D02*
X380745Y261377D01*
X380885Y261277D01*
X381065Y261244D01*
X381245Y261311D01*
X381385Y261444D01*
X381485Y261677D01*
X381505Y261944D01*
X381465Y262211D01*
X381365Y262377D01*
X381225Y262511D01*
X381085Y262544D01*
X380945Y262511D01*
X380765Y262377D01*
X380825Y263244D01*
X381365D01*
G01X375448Y262911D02*
X375568Y263111D01*
X375708Y263211D01*
X375868Y263244D01*
X376068Y263177D01*
X376208Y263011D01*
X376248Y262811D01*
X376228Y262611D01*
X376148Y262444D01*
X375748Y262111D01*
X375568Y261877D01*
X375448Y261544D01*
X375408Y261244D01*
X376248D01*
G01X377368D02*
Y263244D01*
X376628Y261811D01*
X377628D01*
G01X371511Y262911D02*
X371631Y263111D01*
X371771Y263211D01*
X371931Y263244D01*
X372131Y263177D01*
X372271Y263011D01*
X372311Y262811D01*
X372291Y262611D01*
X372211Y262444D01*
X371811Y262111D01*
X371631Y261877D01*
X371511Y261544D01*
X371471Y261244D01*
X372311D01*
G01X372751Y261644D02*
X372871Y261411D01*
X373031Y261277D01*
X373211Y261244D01*
X373371Y261277D01*
X373531Y261444D01*
X373631Y261644D01*
X373651Y261844D01*
X373611Y262077D01*
X373471Y262244D01*
X373331Y262311D01*
X373151D01*
G01X373331D02*
X373451Y262411D01*
X373551Y262577D01*
X373591Y262777D01*
X373551Y262977D01*
X373451Y263144D01*
X373271Y263244D01*
X373091Y263211D01*
X372911Y263077D01*
G01X367574Y262911D02*
X367694Y263111D01*
X367834Y263211D01*
X367994Y263244D01*
X368194Y263177D01*
X368334Y263011D01*
X368374Y262811D01*
X368354Y262611D01*
X368274Y262444D01*
X367874Y262111D01*
X367694Y261877D01*
X367574Y261544D01*
X367534Y261244D01*
X368374D01*
G01X368874Y262911D02*
X368994Y263111D01*
X369134Y263211D01*
X369294Y263244D01*
X369494Y263177D01*
X369634Y263011D01*
X369674Y262811D01*
X369654Y262611D01*
X369574Y262444D01*
X369174Y262111D01*
X368994Y261877D01*
X368874Y261544D01*
X368834Y261244D01*
X369674D01*
G01X363637Y262911D02*
X363757Y263111D01*
X363897Y263211D01*
X364057Y263244D01*
X364257Y263177D01*
X364397Y263011D01*
X364437Y262811D01*
X364417Y262611D01*
X364337Y262444D01*
X363937Y262111D01*
X363757Y261877D01*
X363637Y261544D01*
X363597Y261244D01*
X364437D01*
G01X365317D02*
Y263244D01*
X365077Y262844D01*
G01Y261244D02*
X365557D01*
G01X359700Y262911D02*
X359820Y263111D01*
X359960Y263211D01*
X360120Y263244D01*
X360320Y263177D01*
X360460Y263011D01*
X360500Y262811D01*
X360480Y262611D01*
X360400Y262444D01*
X360000Y262111D01*
X359820Y261877D01*
X359700Y261544D01*
X359660Y261244D01*
X360500D01*
G01X361380Y263244D02*
X361220Y263177D01*
X361100Y263011D01*
X361020Y262811D01*
X360960Y262544D01*
X360940Y262244D01*
X360960Y261944D01*
X361020Y261677D01*
X361100Y261477D01*
X361220Y261311D01*
X361380Y261244D01*
X361540Y261311D01*
X361660Y261477D01*
X361740Y261677D01*
X361800Y261944D01*
X361820Y262244D01*
X361800Y262544D01*
X361740Y262811D01*
X361660Y263011D01*
X361540Y263177D01*
X361380Y263244D01*
G01X356143Y261244D02*
Y263244D01*
X355903Y262844D01*
G01Y261244D02*
X356383D01*
G01X357103Y261477D02*
X357243Y261311D01*
X357403Y261244D01*
X357563Y261311D01*
X357703Y261511D01*
X357803Y261811D01*
X357843Y262111D01*
Y262477D01*
X357803Y262777D01*
X357703Y263044D01*
X357583Y263177D01*
X357443Y263244D01*
X357283Y263177D01*
X357163Y263044D01*
X357083Y262844D01*
X357043Y262577D01*
X357083Y262344D01*
X357183Y262111D01*
X357303Y261977D01*
X357443Y261944D01*
X357603Y262011D01*
X357723Y262177D01*
X357843Y262477D01*
G01X352206Y261244D02*
Y263244D01*
X351966Y262844D01*
G01Y261244D02*
X352446D01*
G01X353506D02*
X353646Y261277D01*
X353806Y261377D01*
X353906Y261544D01*
X353946Y261777D01*
X353906Y262011D01*
X353786Y262211D01*
X353606Y262311D01*
X353406D01*
X353286Y262377D01*
X353186Y262544D01*
X353146Y262777D01*
X353206Y263011D01*
X353346Y263177D01*
X353506Y263244D01*
X353666Y263177D01*
X353806Y263011D01*
X353866Y262777D01*
X353826Y262544D01*
X353726Y262377D01*
X353606Y262311D01*
X353406D01*
X353226Y262211D01*
X353106Y262011D01*
X353066Y261777D01*
X353106Y261544D01*
X353206Y261377D01*
X353366Y261277D01*
X353506Y261244D01*
G01X348269D02*
Y263244D01*
X348029Y262844D01*
G01Y261244D02*
X348509D01*
G01X349529D02*
X349569Y261677D01*
X349629Y262044D01*
X349709Y262377D01*
X349809Y262744D01*
X349969Y263244D01*
X349169D01*
G01X344332Y261244D02*
Y263244D01*
X344092Y262844D01*
G01Y261244D02*
X344572D01*
G01X345252Y262077D02*
X345392Y262311D01*
X345512Y262444D01*
X345672Y262511D01*
X345812Y262444D01*
X345912Y262311D01*
X345992Y262111D01*
X346012Y261877D01*
X345992Y261677D01*
X345912Y261477D01*
X345792Y261311D01*
X345652Y261244D01*
X345492Y261311D01*
X345352Y261511D01*
X345272Y261811D01*
X345252Y262144D01*
X345292Y262577D01*
X345352Y262811D01*
X345452Y263044D01*
X345592Y263211D01*
X345732Y263244D01*
X345872Y263177D01*
X345972Y263011D01*
G01X340395Y261244D02*
Y263244D01*
X340155Y262844D01*
G01Y261244D02*
X340635D01*
G01X341255Y261544D02*
X341375Y261377D01*
X341515Y261277D01*
X341695Y261244D01*
X341875Y261311D01*
X342015Y261444D01*
X342115Y261677D01*
X342135Y261944D01*
X342095Y262211D01*
X341995Y262377D01*
X341855Y262511D01*
X341715Y262544D01*
X341575Y262511D01*
X341395Y262377D01*
X341455Y263244D01*
X341995D01*
G01X336458Y261244D02*
Y263244D01*
X336218Y262844D01*
G01Y261244D02*
X336698D01*
G01X337998D02*
Y263244D01*
X337258Y261811D01*
X338258D01*
G01X332521Y261244D02*
Y263244D01*
X332281Y262844D01*
G01Y261244D02*
X332761D01*
G01X333381Y261644D02*
X333501Y261411D01*
X333661Y261277D01*
X333841Y261244D01*
X334001Y261277D01*
X334161Y261444D01*
X334261Y261644D01*
X334281Y261844D01*
X334241Y262077D01*
X334101Y262244D01*
X333961Y262311D01*
X333781D01*
G01X333961D02*
X334081Y262411D01*
X334181Y262577D01*
X334221Y262777D01*
X334181Y262977D01*
X334081Y263144D01*
X333901Y263244D01*
X333721Y263211D01*
X333541Y263077D01*
G01X328584Y261244D02*
Y263244D01*
X328344Y262844D01*
G01Y261244D02*
X328824D01*
G01X329504Y262911D02*
X329624Y263111D01*
X329764Y263211D01*
X329924Y263244D01*
X330124Y263177D01*
X330264Y263011D01*
X330304Y262811D01*
X330284Y262611D01*
X330204Y262444D01*
X329804Y262111D01*
X329624Y261877D01*
X329504Y261544D01*
X329464Y261244D01*
X330304D01*
G01X324647D02*
Y263244D01*
X324407Y262844D01*
G01Y261244D02*
X324887D01*
G01X325947D02*
Y263244D01*
X325707Y262844D01*
G01Y261244D02*
X326187D01*
G01X320710D02*
Y263244D01*
X320470Y262844D01*
G01Y261244D02*
X320950D01*
G01X322010Y263244D02*
X321850Y263177D01*
X321730Y263011D01*
X321650Y262811D01*
X321590Y262544D01*
X321570Y262244D01*
X321590Y261944D01*
X321650Y261677D01*
X321730Y261477D01*
X321850Y261311D01*
X322010Y261244D01*
X322170Y261311D01*
X322290Y261477D01*
X322370Y261677D01*
X322430Y261944D01*
X322450Y262244D01*
X322430Y262544D01*
X322370Y262811D01*
X322290Y263011D01*
X322170Y263177D01*
X322010Y263244D01*
G01X492027Y277777D02*
X419586D01*
Y222659D01*
X492027D01*
Y277777D01*
G01X371768Y266547D02*
Y272453D01*
X355232D01*
Y266547D01*
X371768D01*
G01X354768D02*
Y272453D01*
X338232D01*
Y266547D01*
X354768D01*
G01X337768D02*
Y272453D01*
X321232D01*
Y266547D01*
X337768D01*
G01X388768D02*
Y272453D01*
X372232D01*
Y266547D01*
X388768D01*
G01X406268D02*
Y272453D01*
X389732D01*
Y266547D01*
X406268D01*
G01X324087Y278467D02*
Y281565D01*
X325045D01*
X325352Y281410D01*
X325543Y281204D01*
X325620Y280791D01*
X325543Y280378D01*
X325313Y280120D01*
X325045Y279965D01*
X324087D01*
G01X325045D02*
X325620Y278467D01*
G01X327185D02*
Y281565D01*
X328104D01*
X328411Y281410D01*
X328641Y281049D01*
X328718Y280636D01*
X328641Y280223D01*
X328449Y279913D01*
X328104Y279758D01*
X327185D01*
G01X331049Y278467D02*
Y281565D01*
X330589Y280946D01*
G01Y278467D02*
X331508D01*
G01X333304Y279087D02*
X333533Y278725D01*
X333840Y278519D01*
X334185Y278467D01*
X334491Y278519D01*
X334798Y278777D01*
X334989Y279087D01*
X335028Y279397D01*
X334951Y279758D01*
X334683Y280016D01*
X334415Y280120D01*
X334070D01*
G01X334415D02*
X334644Y280274D01*
X334836Y280533D01*
X334913Y280842D01*
X334836Y281152D01*
X334644Y281410D01*
X334300Y281565D01*
X333955Y281514D01*
X333610Y281307D01*
G01X340587Y278467D02*
Y281565D01*
X341545D01*
X341852Y281410D01*
X342043Y281204D01*
X342120Y280791D01*
X342043Y280378D01*
X341813Y280120D01*
X341545Y279965D01*
X340587D01*
G01X341545D02*
X342120Y278467D01*
G01X343685D02*
Y281565D01*
X344604D01*
X344911Y281410D01*
X345141Y281049D01*
X345218Y280636D01*
X345141Y280223D01*
X344949Y279913D01*
X344604Y279758D01*
X343685D01*
G01X347549Y278467D02*
Y281565D01*
X347089Y280946D01*
G01Y278467D02*
X348009D01*
G01X351106D02*
Y281565D01*
X349688Y279345D01*
X351604D01*
G01X358087Y278467D02*
Y281565D01*
X359045D01*
X359352Y281410D01*
X359543Y281204D01*
X359620Y280791D01*
X359543Y280378D01*
X359313Y280120D01*
X359045Y279965D01*
X358087D01*
G01X359045D02*
X359620Y278467D01*
G01X361185D02*
Y281565D01*
X362104D01*
X362411Y281410D01*
X362641Y281049D01*
X362718Y280636D01*
X362641Y280223D01*
X362449Y279913D01*
X362104Y279758D01*
X361185D01*
G01X365049Y278467D02*
Y281565D01*
X364589Y280946D01*
G01Y278467D02*
X365508D01*
G01X367304Y278932D02*
X367533Y278674D01*
X367802Y278519D01*
X368146Y278467D01*
X368491Y278570D01*
X368759Y278777D01*
X368951Y279139D01*
X368989Y279552D01*
X368913Y279965D01*
X368721Y280223D01*
X368453Y280429D01*
X368185Y280481D01*
X367916Y280429D01*
X367572Y280223D01*
X367687Y281565D01*
X368721D01*
G01X374587Y278467D02*
Y281565D01*
X375545D01*
X375852Y281410D01*
X376043Y281204D01*
X376120Y280791D01*
X376043Y280378D01*
X375813Y280120D01*
X375545Y279965D01*
X374587D01*
G01X375545D02*
X376120Y278467D01*
G01X377685D02*
Y281565D01*
X378604D01*
X378911Y281410D01*
X379141Y281049D01*
X379218Y280636D01*
X379141Y280223D01*
X378949Y279913D01*
X378604Y279758D01*
X377685D01*
G01X380821Y281049D02*
X381051Y281359D01*
X381319Y281514D01*
X381625Y281565D01*
X382009Y281462D01*
X382277Y281204D01*
X382353Y280894D01*
X382315Y280584D01*
X382162Y280326D01*
X381396Y279810D01*
X381051Y279448D01*
X380821Y278932D01*
X380744Y278467D01*
X382353D01*
G01X384646Y281565D02*
X384340Y281462D01*
X384110Y281204D01*
X383957Y280894D01*
X383842Y280481D01*
X383804Y280016D01*
X383842Y279552D01*
X383957Y279139D01*
X384110Y278829D01*
X384340Y278570D01*
X384646Y278467D01*
X384953Y278570D01*
X385183Y278829D01*
X385336Y279139D01*
X385451Y279552D01*
X385489Y280016D01*
X385451Y280481D01*
X385336Y280894D01*
X385183Y281204D01*
X384953Y281462D01*
X384646Y281565D01*
G01X391587Y278467D02*
Y281565D01*
X392545D01*
X392852Y281410D01*
X393043Y281204D01*
X393120Y280791D01*
X393043Y280378D01*
X392813Y280120D01*
X392545Y279965D01*
X391587D01*
G01X392545D02*
X393120Y278467D01*
G01X394685D02*
Y281565D01*
X395604D01*
X395911Y281410D01*
X396141Y281049D01*
X396218Y280636D01*
X396141Y280223D01*
X395949Y279913D01*
X395604Y279758D01*
X394685D01*
G01X398549Y278467D02*
Y281565D01*
X398089Y280946D01*
G01Y278467D02*
X399008D01*
G01X400918Y279758D02*
X401187Y280120D01*
X401416Y280326D01*
X401723Y280429D01*
X401991Y280326D01*
X402183Y280120D01*
X402336Y279810D01*
X402374Y279448D01*
X402336Y279139D01*
X402183Y278829D01*
X401953Y278570D01*
X401685Y278467D01*
X401378Y278570D01*
X401110Y278880D01*
X400957Y279345D01*
X400918Y279861D01*
X400995Y280533D01*
X401110Y280894D01*
X401302Y281255D01*
X401570Y281514D01*
X401838Y281565D01*
X402106Y281462D01*
X402298Y281204D01*
G01X391587Y278467D02*
Y281565D01*
X392545D01*
X392852Y281410D01*
X393043Y281204D01*
X393120Y280791D01*
X393043Y280378D01*
X392813Y280120D01*
X392545Y279965D01*
X391587D01*
G01X392545D02*
X393120Y278467D01*
G01X394685D02*
Y281565D01*
X395604D01*
X395911Y281410D01*
X396141Y281049D01*
X396218Y280636D01*
X396141Y280223D01*
X395949Y279913D01*
X395604Y279758D01*
X394685D01*
G01X398549Y278467D02*
Y281565D01*
X398089Y280946D01*
G01Y278467D02*
X399008D01*
G01X400918Y279758D02*
X401187Y280120D01*
X401416Y280326D01*
X401723Y280429D01*
X401991Y280326D01*
X402183Y280120D01*
X402336Y279810D01*
X402374Y279448D01*
X402336Y279139D01*
X402183Y278829D01*
X401953Y278570D01*
X401685Y278467D01*
X401378Y278570D01*
X401110Y278880D01*
X400957Y279345D01*
X400918Y279861D01*
X400995Y280533D01*
X401110Y280894D01*
X401302Y281255D01*
X401570Y281514D01*
X401838Y281565D01*
X402106Y281462D01*
X402298Y281204D01*
G01X374587Y278467D02*
Y281565D01*
X375545D01*
X375852Y281410D01*
X376043Y281204D01*
X376120Y280791D01*
X376043Y280378D01*
X375813Y280120D01*
X375545Y279965D01*
X374587D01*
G01X375545D02*
X376120Y278467D01*
G01X377685D02*
Y281565D01*
X378604D01*
X378911Y281410D01*
X379141Y281049D01*
X379218Y280636D01*
X379141Y280223D01*
X378949Y279913D01*
X378604Y279758D01*
X377685D01*
G01X380821Y281049D02*
X381051Y281359D01*
X381319Y281514D01*
X381625Y281565D01*
X382009Y281462D01*
X382277Y281204D01*
X382353Y280894D01*
X382315Y280584D01*
X382162Y280326D01*
X381396Y279810D01*
X381051Y279448D01*
X380821Y278932D01*
X380744Y278467D01*
X382353D01*
G01X384646Y281565D02*
X384340Y281462D01*
X384110Y281204D01*
X383957Y280894D01*
X383842Y280481D01*
X383804Y280016D01*
X383842Y279552D01*
X383957Y279139D01*
X384110Y278829D01*
X384340Y278570D01*
X384646Y278467D01*
X384953Y278570D01*
X385183Y278829D01*
X385336Y279139D01*
X385451Y279552D01*
X385489Y280016D01*
X385451Y280481D01*
X385336Y280894D01*
X385183Y281204D01*
X384953Y281462D01*
X384646Y281565D01*
G01X358087Y278467D02*
Y281565D01*
X359045D01*
X359352Y281410D01*
X359543Y281204D01*
X359620Y280791D01*
X359543Y280378D01*
X359313Y280120D01*
X359045Y279965D01*
X358087D01*
G01X359045D02*
X359620Y278467D01*
G01X361185D02*
Y281565D01*
X362104D01*
X362411Y281410D01*
X362641Y281049D01*
X362718Y280636D01*
X362641Y280223D01*
X362449Y279913D01*
X362104Y279758D01*
X361185D01*
G01X365049Y278467D02*
Y281565D01*
X364589Y280946D01*
G01Y278467D02*
X365508D01*
G01X367304Y278932D02*
X367533Y278674D01*
X367802Y278519D01*
X368146Y278467D01*
X368491Y278570D01*
X368759Y278777D01*
X368951Y279139D01*
X368989Y279552D01*
X368913Y279965D01*
X368721Y280223D01*
X368453Y280429D01*
X368185Y280481D01*
X367916Y280429D01*
X367572Y280223D01*
X367687Y281565D01*
X368721D01*
G01X340587Y278467D02*
Y281565D01*
X341545D01*
X341852Y281410D01*
X342043Y281204D01*
X342120Y280791D01*
X342043Y280378D01*
X341813Y280120D01*
X341545Y279965D01*
X340587D01*
G01X341545D02*
X342120Y278467D01*
G01X343685D02*
Y281565D01*
X344604D01*
X344911Y281410D01*
X345141Y281049D01*
X345218Y280636D01*
X345141Y280223D01*
X344949Y279913D01*
X344604Y279758D01*
X343685D01*
G01X347549Y278467D02*
Y281565D01*
X347089Y280946D01*
G01Y278467D02*
X348009D01*
G01X351106D02*
Y281565D01*
X349688Y279345D01*
X351604D01*
G01X324087Y278467D02*
Y281565D01*
X325045D01*
X325352Y281410D01*
X325543Y281204D01*
X325620Y280791D01*
X325543Y280378D01*
X325313Y280120D01*
X325045Y279965D01*
X324087D01*
G01X325045D02*
X325620Y278467D01*
G01X327185D02*
Y281565D01*
X328104D01*
X328411Y281410D01*
X328641Y281049D01*
X328718Y280636D01*
X328641Y280223D01*
X328449Y279913D01*
X328104Y279758D01*
X327185D01*
G01X331049Y278467D02*
Y281565D01*
X330589Y280946D01*
G01Y278467D02*
X331508D01*
G01X333304Y279087D02*
X333533Y278725D01*
X333840Y278519D01*
X334185Y278467D01*
X334491Y278519D01*
X334798Y278777D01*
X334989Y279087D01*
X335028Y279397D01*
X334951Y279758D01*
X334683Y280016D01*
X334415Y280120D01*
X334070D01*
G01X334415D02*
X334644Y280274D01*
X334836Y280533D01*
X334913Y280842D01*
X334836Y281152D01*
X334644Y281410D01*
X334300Y281565D01*
X333955Y281514D01*
X333610Y281307D01*
G01X366560Y298065D02*
Y295845D01*
X366713Y295380D01*
X367019Y295070D01*
X367402Y294967D01*
X367786Y295070D01*
X368092Y295380D01*
X368245Y295845D01*
Y298065D01*
G01X370423Y294967D02*
X370500Y295639D01*
X370615Y296206D01*
X370768Y296723D01*
X370960Y297291D01*
X371266Y298065D01*
X369734D01*
G01X372870Y296258D02*
X373138Y296620D01*
X373368Y296826D01*
X373674Y296929D01*
X373942Y296826D01*
X374134Y296620D01*
X374287Y296310D01*
X374326Y295948D01*
X374287Y295639D01*
X374134Y295329D01*
X373904Y295070D01*
X373636Y294967D01*
X373329Y295070D01*
X373061Y295380D01*
X372908Y295845D01*
X372870Y296361D01*
X372946Y297033D01*
X373061Y297394D01*
X373253Y297756D01*
X373521Y298014D01*
X373789Y298065D01*
X374057Y297962D01*
X374249Y297704D01*
G01X420060Y298065D02*
Y295845D01*
X420213Y295380D01*
X420519Y295070D01*
X420902Y294967D01*
X421286Y295070D01*
X421592Y295380D01*
X421745Y295845D01*
Y298065D01*
G01X423923Y294967D02*
X424000Y295639D01*
X424115Y296206D01*
X424268Y296723D01*
X424460Y297291D01*
X424766Y298065D01*
X423234D01*
G01X427021Y294967D02*
X427098Y295639D01*
X427213Y296206D01*
X427366Y296723D01*
X427557Y297291D01*
X427864Y298065D01*
X426331D01*
G01X321640Y351922D02*
Y349402D01*
X320968D01*
X320753Y349528D01*
X320618Y349696D01*
X320564Y350032D01*
X320618Y350368D01*
X320780Y350578D01*
X320968Y350704D01*
X321640D01*
G01X320968D02*
X320564Y351922D01*
G01X321640Y348379D02*
Y345859D01*
X320995D01*
X320780Y345985D01*
X320618Y346279D01*
X320564Y346615D01*
X320618Y346951D01*
X320753Y347203D01*
X320995Y347329D01*
X321640D01*
G01X321721Y345229D02*
Y342709D01*
X320484Y345229D01*
Y342709D01*
G01X321802Y342080D02*
Y339560D01*
X321102Y341660D01*
X320403Y339560D01*
Y342080D01*
G01X321640Y336410D02*
Y338930D01*
X320564D01*
G01X321694Y335780D02*
Y333261D01*
G01X320672D02*
X321694Y334814D01*
G01X320510Y335780D02*
X321237Y334101D01*
G01X322034Y331733D02*
X321900Y331985D01*
X321738Y332153D01*
X321550Y332237D01*
X321335Y332153D01*
X321173Y331985D01*
X321012Y331733D01*
X320958Y331397D01*
Y329717D01*
G01X321667Y329087D02*
Y326568D01*
G01X320537D02*
Y329087D01*
G01Y327828D02*
X321667D01*
G01X320941Y325072D02*
X320403D01*
Y325828D01*
X320564Y326080D01*
X320753Y326248D01*
X321022Y326332D01*
X321291Y326248D01*
X321479Y326080D01*
X321640Y325828D01*
X321748Y325534D01*
X321802Y325198D01*
Y324904D01*
X321748Y324652D01*
X321640Y324358D01*
X321479Y324106D01*
X321318Y323938D01*
X321102Y323812D01*
X320914D01*
X320699Y323896D01*
X320537Y324064D01*
G01X321614Y323182D02*
Y320662D01*
X320591D01*
G01X320968Y321880D02*
X321614D01*
G01X410540Y351922D02*
Y349402D01*
X409868D01*
X409653Y349528D01*
X409518Y349696D01*
X409464Y350032D01*
X409518Y350368D01*
X409680Y350578D01*
X409868Y350704D01*
X410540D01*
G01X409868D02*
X409464Y351922D01*
G01X410540Y348379D02*
Y345859D01*
X409895D01*
X409680Y345985D01*
X409518Y346279D01*
X409464Y346615D01*
X409518Y346951D01*
X409653Y347203D01*
X409895Y347329D01*
X410540D01*
G01X410621Y345229D02*
Y342709D01*
X409384Y345229D01*
Y342709D01*
G01X410702Y342080D02*
Y339560D01*
X410002Y341660D01*
X409303Y339560D01*
Y342080D01*
G01X410540Y336410D02*
Y338930D01*
X409464D01*
G01X410594Y335780D02*
Y333261D01*
G01X409572D02*
X410594Y334814D01*
G01X409410Y335780D02*
X410137Y334101D01*
G01X410934Y331733D02*
X410800Y331985D01*
X410638Y332153D01*
X410450Y332237D01*
X410235Y332153D01*
X410073Y331985D01*
X409912Y331733D01*
X409858Y331397D01*
Y329717D01*
G01X410567Y329087D02*
Y326568D01*
G01X409437D02*
Y329087D01*
G01Y327828D02*
X410567D01*
G01X409841Y325072D02*
X409303D01*
Y325828D01*
X409464Y326080D01*
X409653Y326248D01*
X409922Y326332D01*
X410191Y326248D01*
X410379Y326080D01*
X410540Y325828D01*
X410648Y325534D01*
X410702Y325198D01*
Y324904D01*
X410648Y324652D01*
X410540Y324358D01*
X410379Y324106D01*
X410218Y323938D01*
X410002Y323812D01*
X409814D01*
X409599Y323896D01*
X409437Y324064D01*
G01X410514Y323182D02*
Y320662D01*
X409491D01*
G01X409868Y321880D02*
X410514D01*
G01X338700Y372300D02*
X337700D01*
Y367300D01*
X340200D01*
G01X347200D02*
X349700D01*
Y372300D01*
X348700D01*
G01X349900Y372600D02*
Y367000D01*
X337500D01*
Y372600D01*
X349900D01*
G01X351700Y372300D02*
X350700D01*
Y367300D01*
X353200D01*
G01X360200D02*
X362700D01*
Y372300D01*
X361700D01*
G01X362900Y372600D02*
Y367000D01*
X350500D01*
Y372600D01*
X362900D01*
G01X353196Y364807D02*
X352967Y364962D01*
X352698Y365065D01*
X352392D01*
X352047Y364910D01*
X351779Y364652D01*
X351587Y364342D01*
X351434Y363826D01*
X351396Y363361D01*
X351472Y362897D01*
X351587Y362587D01*
X351817Y362277D01*
X352085Y362070D01*
X352354Y361967D01*
X352622D01*
X352890Y362070D01*
X353120Y362225D01*
X353312Y362432D01*
G01X355911Y361967D02*
Y365065D01*
X354493Y362845D01*
X356409D01*
G01X358472Y361967D02*
X358549Y362639D01*
X358664Y363206D01*
X358817Y363723D01*
X359009Y364291D01*
X359315Y365065D01*
X357782D01*
G01X360995Y362329D02*
X361263Y362070D01*
X361570Y361967D01*
X361876Y362070D01*
X362144Y362380D01*
X362336Y362845D01*
X362413Y363310D01*
Y363878D01*
X362336Y364342D01*
X362144Y364756D01*
X361915Y364962D01*
X361646Y365065D01*
X361340Y364962D01*
X361110Y364756D01*
X360957Y364446D01*
X360880Y364033D01*
X360957Y363671D01*
X361148Y363310D01*
X361378Y363103D01*
X361646Y363052D01*
X361953Y363155D01*
X362183Y363413D01*
X362413Y363878D01*
G01X339696Y364807D02*
X339467Y364962D01*
X339198Y365065D01*
X338892D01*
X338547Y364910D01*
X338279Y364652D01*
X338087Y364342D01*
X337934Y363826D01*
X337896Y363361D01*
X337972Y362897D01*
X338087Y362587D01*
X338317Y362277D01*
X338585Y362070D01*
X338854Y361967D01*
X339122D01*
X339390Y362070D01*
X339620Y362225D01*
X339812Y362432D01*
G01X342411Y361967D02*
Y365065D01*
X340993Y362845D01*
X342909D01*
G01X345049Y361967D02*
X345317Y362019D01*
X345624Y362174D01*
X345815Y362432D01*
X345892Y362793D01*
X345815Y363155D01*
X345585Y363465D01*
X345240Y363620D01*
X344857D01*
X344627Y363723D01*
X344436Y363981D01*
X344359Y364342D01*
X344474Y364704D01*
X344742Y364962D01*
X345049Y365065D01*
X345355Y364962D01*
X345624Y364704D01*
X345739Y364342D01*
X345662Y363981D01*
X345470Y363723D01*
X345240Y363620D01*
X344857D01*
X344512Y363465D01*
X344282Y363155D01*
X344206Y362793D01*
X344282Y362432D01*
X344474Y362174D01*
X344781Y362019D01*
X345049Y361967D01*
G01X348146Y365065D02*
X347840Y364962D01*
X347610Y364704D01*
X347457Y364394D01*
X347342Y363981D01*
X347304Y363516D01*
X347342Y363052D01*
X347457Y362639D01*
X347610Y362329D01*
X347840Y362070D01*
X348146Y361967D01*
X348453Y362070D01*
X348683Y362329D01*
X348836Y362639D01*
X348951Y363052D01*
X348989Y363516D01*
X348951Y363981D01*
X348836Y364394D01*
X348683Y364704D01*
X348453Y364962D01*
X348146Y365065D01*
G01X558000Y-132000D02*
Y-52000D01*
X588000D01*
Y-132000D01*
X558000D01*
G01X546929Y49837D02*
Y64837D01*
X586929D01*
Y49837D01*
X546929D01*
G01X525216Y69660D02*
X610216D01*
Y134660D01*
X525216D01*
Y129660D01*
G01D02*
Y69660D01*
G01X542494Y44949D02*
X591706D01*
Y-14107D01*
X542494D01*
Y44949D01*
G01X461200Y54000D02*
X498800D01*
Y104000D01*
X461200D01*
Y54000D01*
G01X519000Y22000D02*
Y52000D01*
X539000D01*
Y22000D01*
X519000D01*
G01X467000Y49000D02*
Y31000D01*
X469000Y29000D01*
X517000D01*
Y51000D01*
X469000D01*
X467000Y49000D01*
G01Y26000D02*
Y8000D01*
X469000Y6000D01*
X517000D01*
Y28000D01*
X469000D01*
X467000Y26000D01*
G01X507000Y4000D02*
Y-16000D01*
G01X509250Y1500D02*
G03I-1000J0D01*
G01X505250Y-16000D02*
Y4000D01*
X518750D01*
Y-16000D01*
X505250D01*
G01X519060Y8565D02*
Y6345D01*
X519213Y5880D01*
X519519Y5570D01*
X519902Y5467D01*
X520286Y5570D01*
X520592Y5880D01*
X520745Y6345D01*
Y8565D01*
G01X523000Y5467D02*
Y8565D01*
X522540Y7946D01*
G01Y5467D02*
X523460D01*
G01X526098D02*
Y8565D01*
X525638Y7946D01*
G01Y5467D02*
X526557D01*
G01X522745Y18307D02*
X522515Y18462D01*
X522247Y18565D01*
X521941D01*
X521596Y18410D01*
X521328Y18152D01*
X521136Y17842D01*
X520983Y17326D01*
X520944Y16861D01*
X521021Y16397D01*
X521136Y16087D01*
X521366Y15777D01*
X521634Y15571D01*
X521902Y15467D01*
X522171D01*
X522439Y15571D01*
X522669Y15725D01*
X522860Y15932D01*
G01X524272Y18049D02*
X524502Y18359D01*
X524770Y18514D01*
X525077Y18565D01*
X525460Y18462D01*
X525728Y18204D01*
X525805Y17894D01*
X525766Y17584D01*
X525613Y17326D01*
X524847Y16810D01*
X524502Y16448D01*
X524272Y15932D01*
X524195Y15467D01*
X525805D01*
G01X528098D02*
X528366Y15519D01*
X528672Y15674D01*
X528864Y15932D01*
X528940Y16293D01*
X528864Y16655D01*
X528634Y16965D01*
X528289Y17120D01*
X527906D01*
X527676Y17223D01*
X527484Y17481D01*
X527408Y17842D01*
X527523Y18204D01*
X527791Y18462D01*
X528098Y18565D01*
X528404Y18462D01*
X528672Y18204D01*
X528787Y17842D01*
X528711Y17481D01*
X528519Y17223D01*
X528289Y17120D01*
X527906D01*
X527561Y16965D01*
X527331Y16655D01*
X527255Y16293D01*
X527331Y15932D01*
X527523Y15674D01*
X527829Y15519D01*
X528098Y15467D01*
G01X537685Y71087D02*
X537876Y70777D01*
X538106Y70570D01*
X538375Y70467D01*
X538681Y70570D01*
X538911Y70777D01*
X539141Y71087D01*
X539218Y71500D01*
Y73565D01*
G01X540706Y70932D02*
X540936Y70674D01*
X541204Y70519D01*
X541549Y70467D01*
X541894Y70570D01*
X542162Y70777D01*
X542353Y71138D01*
X542392Y71552D01*
X542315Y71965D01*
X542123Y72223D01*
X541855Y72429D01*
X541587Y72481D01*
X541319Y72429D01*
X540974Y72223D01*
X541089Y73565D01*
X542123D01*
G01X538745Y65807D02*
X538515Y65962D01*
X538247Y66065D01*
X537941D01*
X537596Y65910D01*
X537328Y65652D01*
X537136Y65342D01*
X536983Y64826D01*
X536944Y64361D01*
X537021Y63897D01*
X537136Y63587D01*
X537366Y63277D01*
X537634Y63071D01*
X537902Y62967D01*
X538171D01*
X538439Y63071D01*
X538669Y63225D01*
X538860Y63432D01*
G01X540923Y62967D02*
X541000Y63638D01*
X541115Y64206D01*
X541268Y64723D01*
X541460Y65291D01*
X541766Y66065D01*
X540234D01*
G01X544557Y62967D02*
Y66065D01*
X543140Y63845D01*
X545056D01*
G01X538745Y65807D02*
X538515Y65962D01*
X538247Y66065D01*
X537941D01*
X537596Y65910D01*
X537328Y65652D01*
X537136Y65342D01*
X536983Y64826D01*
X536944Y64361D01*
X537021Y63897D01*
X537136Y63587D01*
X537366Y63277D01*
X537634Y63071D01*
X537902Y62967D01*
X538171D01*
X538439Y63071D01*
X538669Y63225D01*
X538860Y63432D01*
G01X540923Y62967D02*
X541000Y63638D01*
X541115Y64206D01*
X541268Y64723D01*
X541460Y65291D01*
X541766Y66065D01*
X540234D01*
G01X544557Y62967D02*
Y66065D01*
X543140Y63845D01*
X545056D01*
G01X535136Y39587D02*
X535328Y39277D01*
X535558Y39070D01*
X535826Y38967D01*
X536132Y39070D01*
X536362Y39277D01*
X536592Y39587D01*
X536669Y40000D01*
Y42065D01*
G01X539000Y38967D02*
Y42065D01*
X538540Y41446D01*
G01Y38967D02*
X539460D01*
G01X542098Y42065D02*
X541791Y41962D01*
X541561Y41704D01*
X541408Y41394D01*
X541293Y40981D01*
X541255Y40516D01*
X541293Y40052D01*
X541408Y39638D01*
X541561Y39329D01*
X541791Y39070D01*
X542098Y38967D01*
X542404Y39070D01*
X542634Y39329D01*
X542787Y39638D01*
X542902Y40052D01*
X542940Y40516D01*
X542902Y40981D01*
X542787Y41394D01*
X542634Y41704D01*
X542404Y41962D01*
X542098Y42065D01*
G01X535136Y39587D02*
X535328Y39277D01*
X535558Y39070D01*
X535826Y38967D01*
X536132Y39070D01*
X536362Y39277D01*
X536592Y39587D01*
X536669Y40000D01*
Y42065D01*
G01X539000Y38967D02*
Y42065D01*
X538540Y41446D01*
G01Y38967D02*
X539460D01*
G01X542098Y42065D02*
X541791Y41962D01*
X541561Y41704D01*
X541408Y41394D01*
X541293Y40981D01*
X541255Y40516D01*
X541293Y40052D01*
X541408Y39638D01*
X541561Y39329D01*
X541791Y39070D01*
X542098Y38967D01*
X542404Y39070D01*
X542634Y39329D01*
X542787Y39638D01*
X542902Y40052D01*
X542940Y40516D01*
X542902Y40981D01*
X542787Y41394D01*
X542634Y41704D01*
X542404Y41962D01*
X542098Y42065D01*
G01X459245Y51307D02*
X459015Y51462D01*
X458747Y51565D01*
X458441D01*
X458096Y51410D01*
X457828Y51152D01*
X457636Y50842D01*
X457483Y50326D01*
X457444Y49861D01*
X457521Y49397D01*
X457636Y49087D01*
X457866Y48777D01*
X458134Y48570D01*
X458402Y48467D01*
X458671D01*
X458939Y48570D01*
X459169Y48725D01*
X459360Y48932D01*
G01X461500Y48467D02*
Y51565D01*
X461040Y50946D01*
G01Y48467D02*
X461960D01*
G01X465057D02*
Y51565D01*
X463640Y49345D01*
X465556D01*
G01X519844Y4431D02*
Y2211D01*
X519998Y1746D01*
X520304Y1436D01*
X520687Y1333D01*
X521071Y1436D01*
X521377Y1746D01*
X521530Y2211D01*
Y4431D01*
G01X523785Y1333D02*
Y4431D01*
X523325Y3812D01*
G01Y1333D02*
X524245D01*
G01X526883D02*
Y4431D01*
X526423Y3812D01*
G01Y1333D02*
X527342D01*
G01X554747Y156815D02*
X584747D01*
Y136815D01*
X554747D01*
Y156815D01*
G01X489900Y157600D02*
G03I-2500J0D01*
G01X555310Y289237D02*
X610210D01*
Y159237D01*
X555310D01*
Y289237D01*
G01X473300Y98900D02*
G03I-2000J1100D01*
G01X534004Y183400D02*
G03I-2404J0D01*
G01X536000Y219000D02*
Y179000D01*
X516000D01*
Y219000D01*
X536000D01*
G01X523000Y135000D02*
Y105000D01*
X503000D01*
Y135000D01*
X523000D01*
G01X499250Y113750D02*
X448750D01*
Y130250D01*
X499250D01*
Y113750D01*
G01X533004Y141400D02*
G03I-2404J0D01*
G01X535000Y177000D02*
Y137000D01*
X515000D01*
Y177000D01*
X535000D01*
G01X491906Y144906D02*
X480094D01*
Y133094D01*
X491906D01*
Y144906D01*
G01X491087Y134748D02*
G03I-835J0D01*
G01X509136Y107087D02*
X509328Y106777D01*
X509558Y106570D01*
X509826Y106467D01*
X510132Y106570D01*
X510362Y106777D01*
X510592Y107087D01*
X510669Y107500D01*
Y109565D01*
G01X513460Y106467D02*
Y109565D01*
X512042Y107345D01*
X513958D01*
G01X516021Y106467D02*
X516098Y107138D01*
X516213Y107706D01*
X516366Y108223D01*
X516557Y108791D01*
X516864Y109565D01*
X515331D01*
G01X509136Y107087D02*
X509328Y106777D01*
X509558Y106570D01*
X509826Y106467D01*
X510132Y106570D01*
X510362Y106777D01*
X510592Y107087D01*
X510669Y107500D01*
Y109565D01*
G01X513460Y106467D02*
Y109565D01*
X512042Y107345D01*
X513958D01*
G01X516021Y106467D02*
X516098Y107138D01*
X516213Y107706D01*
X516366Y108223D01*
X516557Y108791D01*
X516864Y109565D01*
X515331D01*
G01X491060Y149565D02*
Y147345D01*
X491213Y146880D01*
X491519Y146570D01*
X491902Y146467D01*
X492286Y146570D01*
X492592Y146880D01*
X492745Y147345D01*
Y149565D01*
G01X494923Y146467D02*
X495000Y147138D01*
X495115Y147706D01*
X495268Y148223D01*
X495460Y148791D01*
X495766Y149565D01*
X494234D01*
G01X498098Y146467D02*
X498366Y146519D01*
X498672Y146674D01*
X498864Y146932D01*
X498940Y147293D01*
X498864Y147655D01*
X498634Y147965D01*
X498289Y148120D01*
X497906D01*
X497676Y148223D01*
X497484Y148481D01*
X497408Y148842D01*
X497523Y149204D01*
X497791Y149462D01*
X498098Y149565D01*
X498404Y149462D01*
X498672Y149204D01*
X498787Y148842D01*
X498711Y148481D01*
X498519Y148223D01*
X498289Y148120D01*
X497906D01*
X497561Y147965D01*
X497331Y147655D01*
X497255Y147293D01*
X497331Y146932D01*
X497523Y146674D01*
X497829Y146519D01*
X498098Y146467D01*
G01X491060Y155565D02*
Y153345D01*
X491213Y152880D01*
X491519Y152570D01*
X491902Y152467D01*
X492286Y152570D01*
X492592Y152880D01*
X492745Y153345D01*
Y155565D01*
G01X495000Y152467D02*
Y155565D01*
X494540Y154946D01*
G01Y152467D02*
X495460D01*
G01X497255Y153087D02*
X497484Y152725D01*
X497791Y152519D01*
X498136Y152467D01*
X498442Y152519D01*
X498749Y152777D01*
X498940Y153087D01*
X498979Y153397D01*
X498902Y153758D01*
X498634Y154016D01*
X498366Y154120D01*
X498021D01*
G01X498366D02*
X498596Y154274D01*
X498787Y154533D01*
X498864Y154842D01*
X498787Y155152D01*
X498596Y155410D01*
X498251Y155565D01*
X497906Y155514D01*
X497561Y155307D01*
G01X502533Y119951D02*
X501139D01*
X499435Y119185D01*
G01Y120717D02*
X501139Y119951D01*
G01X502533Y123049D02*
X502481Y123317D01*
X502326Y123624D01*
X502068Y123815D01*
X501707Y123892D01*
X501345Y123815D01*
X501035Y123585D01*
X500880Y123240D01*
Y122857D01*
X500777Y122627D01*
X500519Y122436D01*
X500158Y122359D01*
X499796Y122474D01*
X499538Y122742D01*
X499435Y123049D01*
X499538Y123355D01*
X499796Y123624D01*
X500158Y123738D01*
X500519Y123662D01*
X500777Y123470D01*
X500880Y123240D01*
Y122857D01*
X501035Y122512D01*
X501345Y122282D01*
X501707Y122206D01*
X502068Y122282D01*
X502326Y122474D01*
X502481Y122781D01*
X502533Y123049D01*
G01X544560Y138065D02*
Y135845D01*
X544713Y135380D01*
X545019Y135070D01*
X545402Y134967D01*
X545786Y135070D01*
X546092Y135380D01*
X546245Y135845D01*
Y138065D01*
G01X547657Y135432D02*
X547887Y135174D01*
X548155Y135019D01*
X548500Y134967D01*
X548845Y135070D01*
X549113Y135277D01*
X549305Y135638D01*
X549343Y136052D01*
X549266Y136465D01*
X549075Y136723D01*
X548806Y136929D01*
X548538Y136981D01*
X548270Y136929D01*
X547925Y136723D01*
X548040Y138065D01*
X549075D01*
G01X552057Y134967D02*
Y138065D01*
X550640Y135845D01*
X552556D01*
G01X544560Y138065D02*
Y135845D01*
X544713Y135380D01*
X545019Y135070D01*
X545402Y134967D01*
X545786Y135070D01*
X546092Y135380D01*
X546245Y135845D01*
Y138065D01*
G01X547657Y135432D02*
X547887Y135174D01*
X548155Y135019D01*
X548500Y134967D01*
X548845Y135070D01*
X549113Y135277D01*
X549305Y135638D01*
X549343Y136052D01*
X549266Y136465D01*
X549075Y136723D01*
X548806Y136929D01*
X548538Y136981D01*
X548270Y136929D01*
X547925Y136723D01*
X548040Y138065D01*
X549075D01*
G01X552057Y134967D02*
Y138065D01*
X550640Y135845D01*
X552556D01*
G01X556136Y152587D02*
X556328Y152277D01*
X556558Y152070D01*
X556826Y151967D01*
X557132Y152070D01*
X557362Y152277D01*
X557592Y152587D01*
X557669Y153000D01*
Y155065D01*
G01X560460Y151967D02*
Y155065D01*
X559042Y152845D01*
X560958D01*
G01X562255Y152587D02*
X562484Y152225D01*
X562791Y152019D01*
X563136Y151967D01*
X563442Y152019D01*
X563749Y152277D01*
X563940Y152587D01*
X563979Y152897D01*
X563902Y153258D01*
X563634Y153516D01*
X563366Y153620D01*
X563021D01*
G01X563366D02*
X563596Y153774D01*
X563787Y154033D01*
X563864Y154342D01*
X563787Y154652D01*
X563596Y154910D01*
X563251Y155065D01*
X562906Y155014D01*
X562561Y154807D01*
G01X540060Y179565D02*
Y177345D01*
X540213Y176880D01*
X540519Y176570D01*
X540902Y176467D01*
X541286Y176570D01*
X541592Y176880D01*
X541745Y177345D01*
Y179565D01*
G01X543272Y177758D02*
X543540Y178120D01*
X543770Y178326D01*
X544077Y178429D01*
X544345Y178326D01*
X544536Y178120D01*
X544690Y177810D01*
X544728Y177448D01*
X544690Y177138D01*
X544536Y176829D01*
X544306Y176570D01*
X544038Y176467D01*
X543732Y176570D01*
X543464Y176880D01*
X543310Y177345D01*
X543272Y177861D01*
X543349Y178533D01*
X543464Y178894D01*
X543655Y179256D01*
X543923Y179514D01*
X544192Y179565D01*
X544460Y179462D01*
X544651Y179204D01*
G01X547098Y179565D02*
X546791Y179462D01*
X546561Y179204D01*
X546408Y178894D01*
X546293Y178481D01*
X546255Y178016D01*
X546293Y177552D01*
X546408Y177138D01*
X546561Y176829D01*
X546791Y176570D01*
X547098Y176467D01*
X547404Y176570D01*
X547634Y176829D01*
X547787Y177138D01*
X547902Y177552D01*
X547940Y178016D01*
X547902Y178481D01*
X547787Y178894D01*
X547634Y179204D01*
X547404Y179462D01*
X547098Y179565D01*
G01X478685Y107587D02*
X478877Y107277D01*
X479106Y107070D01*
X479375Y106967D01*
X479681Y107070D01*
X479911Y107277D01*
X480141Y107587D01*
X480218Y108000D01*
Y110065D01*
G01X483009Y106967D02*
Y110065D01*
X481591Y107845D01*
X483507D01*
G01X478685Y107587D02*
X478877Y107277D01*
X479106Y107070D01*
X479375Y106967D01*
X479681Y107070D01*
X479911Y107277D01*
X480141Y107587D01*
X480218Y108000D01*
Y110065D01*
G01X483009Y106967D02*
Y110065D01*
X481591Y107845D01*
X483507D01*
G01X540060Y179565D02*
Y177345D01*
X540213Y176880D01*
X540519Y176570D01*
X540902Y176467D01*
X541286Y176570D01*
X541592Y176880D01*
X541745Y177345D01*
Y179565D01*
G01X543272Y177758D02*
X543540Y178120D01*
X543770Y178326D01*
X544077Y178429D01*
X544345Y178326D01*
X544536Y178120D01*
X544690Y177810D01*
X544728Y177448D01*
X544690Y177138D01*
X544536Y176829D01*
X544306Y176570D01*
X544038Y176467D01*
X543732Y176570D01*
X543464Y176880D01*
X543310Y177345D01*
X543272Y177861D01*
X543349Y178533D01*
X543464Y178894D01*
X543655Y179256D01*
X543923Y179514D01*
X544192Y179565D01*
X544460Y179462D01*
X544651Y179204D01*
G01X547098Y179565D02*
X546791Y179462D01*
X546561Y179204D01*
X546408Y178894D01*
X546293Y178481D01*
X546255Y178016D01*
X546293Y177552D01*
X546408Y177138D01*
X546561Y176829D01*
X546791Y176570D01*
X547098Y176467D01*
X547404Y176570D01*
X547634Y176829D01*
X547787Y177138D01*
X547902Y177552D01*
X547940Y178016D01*
X547902Y178481D01*
X547787Y178894D01*
X547634Y179204D01*
X547404Y179462D01*
X547098Y179565D01*
G01X491060Y155565D02*
Y153345D01*
X491213Y152880D01*
X491519Y152570D01*
X491902Y152467D01*
X492286Y152570D01*
X492592Y152880D01*
X492745Y153345D01*
Y155565D01*
G01X495000Y152467D02*
Y155565D01*
X494540Y154946D01*
G01Y152467D02*
X495460D01*
G01X497255Y153087D02*
X497484Y152725D01*
X497791Y152519D01*
X498136Y152467D01*
X498442Y152519D01*
X498749Y152777D01*
X498940Y153087D01*
X498979Y153397D01*
X498902Y153758D01*
X498634Y154016D01*
X498366Y154120D01*
X498021D01*
G01X498366D02*
X498596Y154274D01*
X498787Y154533D01*
X498864Y154842D01*
X498787Y155152D01*
X498596Y155410D01*
X498251Y155565D01*
X497906Y155514D01*
X497561Y155307D01*
G01X462764Y320032D02*
X463840D01*
Y317513D01*
X462764D01*
G01X463195Y318730D02*
X463840D01*
G01X463894Y316883D02*
Y314363D01*
X463356D01*
X463141Y314489D01*
X462980Y314657D01*
X462845Y314909D01*
X462737Y315203D01*
X462710Y315623D01*
X462737Y316043D01*
X462845Y316337D01*
X462980Y316589D01*
X463141Y316757D01*
X463356Y316883D01*
X463894D01*
G01X462710Y311423D02*
X462872Y311297D01*
X463060Y311213D01*
X463275D01*
X463518Y311339D01*
X463706Y311549D01*
X463840Y311801D01*
X463948Y312221D01*
X463975Y312599D01*
X463921Y312977D01*
X463840Y313229D01*
X463679Y313481D01*
X463491Y313649D01*
X463302Y313733D01*
X463114D01*
X462926Y313649D01*
X462764Y313523D01*
X462630Y313355D01*
G01X463087Y309240D02*
X462980Y309114D01*
X462899Y308904D01*
X462845Y308610D01*
X462899Y308358D01*
X463006Y308190D01*
X463195Y308064D01*
X463921D01*
Y310584D01*
X463033D01*
X462845Y310416D01*
X462737Y310164D01*
X462684Y309870D01*
X462737Y309576D01*
X462899Y309324D01*
X463087Y309240D01*
X463921D01*
G01X463975Y307434D02*
X463302Y304914D01*
X462630Y307434D01*
G01X462872Y306552D02*
X463733D01*
G01X446571Y301418D02*
X446410Y301712D01*
X446195Y301880D01*
X445953Y301922D01*
X445737Y301880D01*
X445522Y301670D01*
X445388Y301418D01*
X445361Y301166D01*
X445415Y300872D01*
X445603Y300662D01*
X445791Y300578D01*
X446033D01*
G01X445791D02*
X445630Y300452D01*
X445495Y300242D01*
X445441Y299990D01*
X445495Y299738D01*
X445630Y299528D01*
X445872Y299402D01*
X446114Y299444D01*
X446356Y299612D01*
G01X449640Y299822D02*
X449479Y299570D01*
X449290Y299444D01*
X449075Y299402D01*
X448806Y299486D01*
X448618Y299696D01*
X448564Y299948D01*
X448591Y300200D01*
X448699Y300410D01*
X449237Y300830D01*
X449479Y301124D01*
X449640Y301544D01*
X449694Y301922D01*
X448564D01*
G01X452279D02*
Y299402D01*
X452602Y299906D01*
G01Y301922D02*
X451956D01*
G01X455448Y306646D02*
G03I1968J0D01*
G01X496000Y334000D02*
Y284000D01*
X476000D01*
Y334000D01*
X496000D01*
G01X489720Y230533D02*
G03I-5568J0D01*
G01X610284Y317337D02*
X554284D01*
Y352337D01*
X610284D01*
Y317337D01*
G01X522804Y255600D02*
G03I-2404J0D01*
G01X516000Y220000D02*
Y260000D01*
X536000D01*
Y220000D01*
X516000D01*
G01X506804Y290400D02*
G03I-2404J0D01*
G01X540000Y286000D02*
X500000D01*
Y306000D01*
X540000D01*
Y286000D01*
G01X516560Y264065D02*
Y261845D01*
X516713Y261380D01*
X517019Y261070D01*
X517402Y260967D01*
X517786Y261070D01*
X518092Y261380D01*
X518245Y261845D01*
Y264065D01*
G01X519657Y261432D02*
X519887Y261174D01*
X520155Y261019D01*
X520500Y260967D01*
X520845Y261070D01*
X521113Y261277D01*
X521305Y261639D01*
X521343Y262052D01*
X521266Y262465D01*
X521075Y262723D01*
X520806Y262929D01*
X520538Y262981D01*
X520270Y262929D01*
X519925Y262723D01*
X520040Y264065D01*
X521075D01*
G01X522946Y261329D02*
X523214Y261070D01*
X523521Y260967D01*
X523828Y261070D01*
X524096Y261380D01*
X524287Y261845D01*
X524364Y262310D01*
Y262878D01*
X524287Y263342D01*
X524096Y263756D01*
X523866Y263962D01*
X523598Y264065D01*
X523291Y263962D01*
X523061Y263756D01*
X522908Y263446D01*
X522831Y263033D01*
X522908Y262671D01*
X523100Y262310D01*
X523329Y262103D01*
X523598Y262052D01*
X523904Y262155D01*
X524134Y262413D01*
X524364Y262878D01*
G01X516560Y264065D02*
Y261845D01*
X516713Y261380D01*
X517019Y261070D01*
X517402Y260967D01*
X517786Y261070D01*
X518092Y261380D01*
X518245Y261845D01*
Y264065D01*
G01X519657Y261432D02*
X519887Y261174D01*
X520155Y261019D01*
X520500Y260967D01*
X520845Y261070D01*
X521113Y261277D01*
X521305Y261639D01*
X521343Y262052D01*
X521266Y262465D01*
X521075Y262723D01*
X520806Y262929D01*
X520538Y262981D01*
X520270Y262929D01*
X519925Y262723D01*
X520040Y264065D01*
X521075D01*
G01X522946Y261329D02*
X523214Y261070D01*
X523521Y260967D01*
X523828Y261070D01*
X524096Y261380D01*
X524287Y261845D01*
X524364Y262310D01*
Y262878D01*
X524287Y263342D01*
X524096Y263756D01*
X523866Y263962D01*
X523598Y264065D01*
X523291Y263962D01*
X523061Y263756D01*
X522908Y263446D01*
X522831Y263033D01*
X522908Y262671D01*
X523100Y262310D01*
X523329Y262103D01*
X523598Y262052D01*
X523904Y262155D01*
X524134Y262413D01*
X524364Y262878D01*
G01X541935Y292060D02*
X544155D01*
X544620Y292213D01*
X544930Y292519D01*
X545033Y292902D01*
X544930Y293286D01*
X544620Y293592D01*
X544155Y293745D01*
X541935D01*
G01X544568Y295157D02*
X544826Y295387D01*
X544981Y295655D01*
X545033Y296000D01*
X544930Y296345D01*
X544723Y296613D01*
X544362Y296805D01*
X543948Y296843D01*
X543535Y296766D01*
X543277Y296575D01*
X543071Y296306D01*
X543019Y296038D01*
X543071Y295770D01*
X543277Y295425D01*
X541935Y295540D01*
Y296575D01*
G01X545033Y299098D02*
X541935D01*
X542554Y298638D01*
G01X545033D02*
Y299557D01*
G01X541935Y292060D02*
X544155D01*
X544620Y292213D01*
X544930Y292519D01*
X545033Y292902D01*
X544930Y293286D01*
X544620Y293592D01*
X544155Y293745D01*
X541935D01*
G01X544568Y295157D02*
X544826Y295387D01*
X544981Y295655D01*
X545033Y296000D01*
X544930Y296345D01*
X544723Y296613D01*
X544362Y296805D01*
X543948Y296843D01*
X543535Y296766D01*
X543277Y296575D01*
X543071Y296306D01*
X543019Y296038D01*
X543071Y295770D01*
X543277Y295425D01*
X541935Y295540D01*
Y296575D01*
G01X545033Y299098D02*
X541935D01*
X542554Y298638D01*
G01X545033D02*
Y299557D01*
G01X473413Y290185D02*
X473723Y290376D01*
X473930Y290606D01*
X474033Y290875D01*
X473930Y291181D01*
X473723Y291411D01*
X473413Y291641D01*
X473000Y291718D01*
X470935D01*
G01X473671Y293397D02*
X473930Y293666D01*
X474033Y293972D01*
X473930Y294279D01*
X473620Y294547D01*
X473155Y294738D01*
X472690Y294815D01*
X472122D01*
X471658Y294738D01*
X471244Y294547D01*
X471038Y294317D01*
X470935Y294049D01*
X471038Y293742D01*
X471244Y293512D01*
X471554Y293359D01*
X471967Y293282D01*
X472329Y293359D01*
X472690Y293551D01*
X472897Y293781D01*
X472948Y294049D01*
X472845Y294355D01*
X472587Y294585D01*
X472122Y294815D01*
G01X487560Y220565D02*
Y218345D01*
X487713Y217880D01*
X488019Y217570D01*
X488402Y217467D01*
X488786Y217570D01*
X489092Y217880D01*
X489245Y218345D01*
Y220565D01*
G01X490772Y218758D02*
X491040Y219120D01*
X491270Y219326D01*
X491577Y219429D01*
X491845Y219326D01*
X492036Y219120D01*
X492190Y218810D01*
X492228Y218448D01*
X492190Y218138D01*
X492036Y217829D01*
X491806Y217570D01*
X491538Y217467D01*
X491232Y217570D01*
X490964Y217880D01*
X490810Y218345D01*
X490772Y218861D01*
X490849Y219533D01*
X490964Y219894D01*
X491155Y220255D01*
X491423Y220514D01*
X491692Y220565D01*
X491960Y220462D01*
X492151Y220204D01*
G01X495057Y217467D02*
Y220565D01*
X493640Y218345D01*
X495556D01*
G01X473413Y290185D02*
X473723Y290376D01*
X473930Y290606D01*
X474033Y290875D01*
X473930Y291181D01*
X473723Y291411D01*
X473413Y291641D01*
X473000Y291718D01*
X470935D01*
G01X473671Y293397D02*
X473930Y293666D01*
X474033Y293972D01*
X473930Y294279D01*
X473620Y294547D01*
X473155Y294738D01*
X472690Y294815D01*
X472122D01*
X471658Y294738D01*
X471244Y294547D01*
X471038Y294317D01*
X470935Y294049D01*
X471038Y293742D01*
X471244Y293512D01*
X471554Y293359D01*
X471967Y293282D01*
X472329Y293359D01*
X472690Y293551D01*
X472897Y293781D01*
X472948Y294049D01*
X472845Y294355D01*
X472587Y294585D01*
X472122Y294815D01*
G01X463840Y351922D02*
Y349402D01*
X463168D01*
X462953Y349528D01*
X462818Y349696D01*
X462764Y350032D01*
X462818Y350368D01*
X462980Y350578D01*
X463168Y350704D01*
X463840D01*
G01X463168D02*
X462764Y351922D01*
G01X463840Y348379D02*
Y345859D01*
X463195D01*
X462980Y345985D01*
X462818Y346279D01*
X462764Y346615D01*
X462818Y346951D01*
X462953Y347203D01*
X463195Y347329D01*
X463840D01*
G01X463921Y345229D02*
Y342709D01*
X462684Y345229D01*
Y342709D01*
G01X464002Y342080D02*
Y339560D01*
X463302Y341660D01*
X462603Y339560D01*
Y342080D01*
G01X463840Y336410D02*
Y338930D01*
X462764D01*
G01X463894Y335780D02*
Y333261D01*
G01X462872D02*
X463894Y334814D01*
G01X462710Y335780D02*
X463437Y334101D01*
G01X464234Y331733D02*
X464100Y331985D01*
X463938Y332153D01*
X463750Y332237D01*
X463535Y332153D01*
X463373Y331985D01*
X463212Y331733D01*
X463158Y331397D01*
Y329717D01*
G01X463867Y329087D02*
Y326568D01*
G01X462737D02*
Y329087D01*
G01Y327828D02*
X463867D01*
G01X463141Y325072D02*
X462603D01*
Y325828D01*
X462764Y326080D01*
X462953Y326248D01*
X463222Y326332D01*
X463491Y326248D01*
X463679Y326080D01*
X463840Y325828D01*
X463948Y325534D01*
X464002Y325198D01*
Y324904D01*
X463948Y324652D01*
X463840Y324358D01*
X463679Y324106D01*
X463518Y323938D01*
X463302Y323812D01*
X463114D01*
X462899Y323896D01*
X462737Y324064D01*
G01X463814Y323182D02*
Y320662D01*
X462791D01*
G01X463168Y321880D02*
X463814D01*
G01X507000Y370000D02*
X547000D01*
Y330000D01*
X507000D01*
Y370000D01*
G01Y360000D02*
Y335000D01*
G01Y360000D02*
Y345000D01*
G01Y355000D02*
X502000D01*
Y345000D01*
X507000D01*
G01X497413Y343136D02*
X497723Y343328D01*
X497930Y343558D01*
X498033Y343826D01*
X497930Y344132D01*
X497723Y344362D01*
X497413Y344592D01*
X497000Y344669D01*
X494935D01*
G01X498033Y347460D02*
X494935D01*
X497155Y346042D01*
Y347958D01*
G01X498033Y350098D02*
X494935D01*
X495554Y349638D01*
G01X498033D02*
Y350557D01*
G01X562413Y361136D02*
X562723Y361328D01*
X562930Y361558D01*
X563033Y361826D01*
X562930Y362132D01*
X562723Y362362D01*
X562413Y362592D01*
X562000Y362669D01*
X559935D01*
G01X560451Y364272D02*
X560141Y364502D01*
X559986Y364770D01*
X559935Y365077D01*
X560038Y365460D01*
X560296Y365728D01*
X560606Y365805D01*
X560916Y365766D01*
X561174Y365613D01*
X561690Y364847D01*
X562052Y364502D01*
X562568Y364272D01*
X563033Y364195D01*
Y365805D01*
G01X561742Y367370D02*
X561380Y367638D01*
X561174Y367868D01*
X561071Y368174D01*
X561174Y368442D01*
X561380Y368634D01*
X561690Y368787D01*
X562052Y368826D01*
X562362Y368787D01*
X562671Y368634D01*
X562930Y368404D01*
X563033Y368136D01*
X562930Y367829D01*
X562620Y367561D01*
X562155Y367408D01*
X561639Y367370D01*
X560967Y367446D01*
X560606Y367561D01*
X560244Y367753D01*
X559986Y368021D01*
X559935Y368289D01*
X560038Y368557D01*
X560296Y368749D01*
G01X610236Y374016D02*
Y-137795D01*
G01X577685Y-47413D02*
X577877Y-47723D01*
X578106Y-47930D01*
X578375Y-48033D01*
X578681Y-47930D01*
X578911Y-47723D01*
X579141Y-47413D01*
X579218Y-47000D01*
Y-44935D01*
G01X580821Y-45451D02*
X581051Y-45141D01*
X581319Y-44986D01*
X581625Y-44935D01*
X582009Y-45038D01*
X582277Y-45296D01*
X582353Y-45606D01*
X582315Y-45916D01*
X582162Y-46174D01*
X581396Y-46690D01*
X581051Y-47052D01*
X580821Y-47568D01*
X580744Y-48033D01*
X582353D01*
G01X577185Y-21413D02*
X577376Y-21723D01*
X577606Y-21930D01*
X577875Y-22033D01*
X578181Y-21930D01*
X578411Y-21723D01*
X578641Y-21413D01*
X578718Y-21000D01*
Y-18935D01*
G01X580321Y-20742D02*
X580589Y-20380D01*
X580819Y-20174D01*
X581125Y-20071D01*
X581394Y-20174D01*
X581585Y-20380D01*
X581739Y-20690D01*
X581777Y-21052D01*
X581739Y-21362D01*
X581585Y-21671D01*
X581355Y-21930D01*
X581087Y-22033D01*
X580781Y-21930D01*
X580512Y-21620D01*
X580359Y-21155D01*
X580321Y-20639D01*
X580397Y-19967D01*
X580512Y-19606D01*
X580704Y-19244D01*
X580972Y-18986D01*
X581240Y-18935D01*
X581509Y-19038D01*
X581700Y-19296D01*
G01X565367Y134432D02*
X565057Y134240D01*
X564850Y134010D01*
X564747Y133742D01*
X564850Y133436D01*
X565057Y133206D01*
X565367Y132976D01*
X565780Y132899D01*
X567845D01*
G01X564747Y130108D02*
X567845D01*
X565625Y131526D01*
Y129610D01*
G01X565367Y128313D02*
X565005Y128084D01*
X564799Y127777D01*
X564747Y127432D01*
X564799Y127126D01*
X565057Y126819D01*
X565367Y126628D01*
X565676Y126589D01*
X566038Y126666D01*
X566296Y126934D01*
X566399Y127202D01*
Y127547D01*
G01Y127202D02*
X566554Y126972D01*
X566812Y126781D01*
X567122Y126704D01*
X567432Y126781D01*
X567690Y126972D01*
X567845Y127317D01*
X567793Y127662D01*
X567587Y128007D01*
G01X581967Y251815D02*
X585065D01*
Y250895D01*
X584910Y250589D01*
X584549Y250359D01*
X584136Y250282D01*
X583723Y250359D01*
X583413Y250551D01*
X583258Y250895D01*
Y251815D01*
G01X581967Y247951D02*
X585065D01*
X584446Y248411D01*
G01X581967D02*
Y247492D01*
G01Y251815D02*
X585065D01*
Y250895D01*
X584910Y250589D01*
X584549Y250359D01*
X584136Y250282D01*
X583723Y250359D01*
X583413Y250551D01*
X583258Y250895D01*
Y251815D01*
G01X581967Y247951D02*
X585065D01*
X584446Y248411D01*
G01X581967D02*
Y247492D01*
M02*
