G04 ================== begin FILE IDENTIFICATION RECORD ==================*
G04 Layout Name:  E:/EMB002/project/hardware/LED_LCD_WIG/WIEGAND.brd*
G04 Film Name:    Silk_Bottom*
G04 File Format:  Gerber RS274X*
G04 File Origin:  15.7-p007*
G04 Origin Date:  Fri May 15 15:34:58 2009*
G04 *
G04 Layer:  REF DES/ASSEMBLY_BOTTOM*
G04 Layer:  PACKAGE GEOMETRY/SILKSCREEN_BOTTOM*
G04 Layer:  BOARD GEOMETRY/OUTLINE*
G04 *
G04 Offset:    (0.000 0.000)*
G04 Mirror:    No*
G04 Mode:      Positive*
G04 Rotation:  0*
G04 FullContactRelief:  No*
G04 UndefLineWidth:     10.000*
G04 ================== end FILE IDENTIFICATION RECORD ====================*
%FSLAX53Y53*MOIN*%
%IR0*IPPOS*OFA0.00000B0.00000*MIA0B0*SFA1.00000B1.00000*%
%ADD10C,.01*%
G75*
%LPD*%
G75*
G54D10*
G01X4742Y1508D02*
X6002D01*
Y800D01*
X8758D01*
Y1508D01*
X10018D01*
Y-1208D01*
X4742D01*
Y1508D01*
G01X4979Y911D02*
X5179D01*
Y-689D01*
X4779D01*
Y911D01*
X4979D01*
G01X5399Y-603D02*
Y-553D01*
X5407Y-563D01*
G01Y-603D02*
X5391D01*
G01X5360Y-562D02*
X5356Y-557D01*
X5352Y-554D01*
X5347Y-553D01*
X5340Y-555D01*
X5336Y-559D01*
X5335Y-564D01*
X5335Y-569D01*
X5338Y-573D01*
X5351Y-582D01*
X5356Y-588D01*
X5360Y-596D01*
X5361Y-603D01*
X5335D01*
G01X5313Y-553D02*
X5297Y-603D01*
X5281Y-553D01*
G01X5396Y-409D02*
Y-359D01*
X5404Y-369D01*
G01Y-409D02*
X5389D01*
G01X5357Y-367D02*
X5353Y-362D01*
X5349Y-360D01*
X5344Y-359D01*
X5338Y-361D01*
X5333Y-365D01*
X5332Y-370D01*
X5333Y-375D01*
X5335Y-379D01*
X5348Y-387D01*
X5353Y-393D01*
X5357Y-401D01*
X5359Y-409D01*
X5332D01*
G01X5310Y-359D02*
X5294Y-409D01*
X5278Y-359D01*
G01X5388Y-184D02*
X5375D01*
Y-199D01*
X5379Y-204D01*
X5383Y-208D01*
X5390Y-209D01*
X5396Y-208D01*
X5400Y-204D01*
X5404Y-199D01*
X5407Y-193D01*
X5408Y-187D01*
Y-181D01*
X5407Y-176D01*
X5404Y-170D01*
X5400Y-165D01*
X5397Y-162D01*
X5392Y-159D01*
X5387D01*
X5382Y-161D01*
X5378Y-164D01*
G01X5355Y-209D02*
Y-159D01*
X5326Y-209D01*
Y-159D01*
G01X5303Y-209D02*
Y-159D01*
X5291D01*
X5286Y-162D01*
X5282Y-165D01*
X5279Y-170D01*
X5276Y-176D01*
X5276Y-184D01*
X5276Y-193D01*
X5279Y-198D01*
X5282Y-203D01*
X5286Y-207D01*
X5291Y-209D01*
X5303D01*
G01X5392Y10D02*
X5380D01*
Y-5D01*
X5384Y-10D01*
X5388Y-13D01*
X5394Y-15D01*
X5401Y-13D01*
X5405Y-10D01*
X5409Y-5D01*
X5411Y1D01*
X5413Y8D01*
Y14D01*
X5411Y19D01*
X5409Y24D01*
X5405Y29D01*
X5401Y33D01*
X5396Y35D01*
X5392D01*
X5387Y34D01*
X5383Y30D01*
G01X5360Y-15D02*
Y35D01*
X5331Y-15D01*
Y35D01*
G01X5308Y-15D02*
Y35D01*
X5296D01*
X5290Y33D01*
X5287Y29D01*
X5283Y24D01*
X5281Y19D01*
X5280Y10D01*
X5281Y2D01*
X5283Y-4D01*
X5287Y-9D01*
X5290Y-12D01*
X5296Y-15D01*
X5308D01*
G01X5416Y440D02*
X5401D01*
G01X5409D02*
Y390D01*
G01X5416D02*
X5401D01*
G01X5358D02*
X5363Y390D01*
X5367Y394D01*
X5371Y399D01*
X5374Y405D01*
X5375Y411D01*
Y418D01*
X5374Y425D01*
X5371Y430D01*
X5367Y435D01*
X5363Y439D01*
X5358Y440D01*
X5353Y439D01*
X5348Y435D01*
X5345Y430D01*
X5342Y425D01*
X5341Y418D01*
Y411D01*
X5342Y405D01*
X5345Y399D01*
X5348Y394D01*
X5353Y390D01*
X5358Y390D01*
G01X5315Y406D02*
X5299D01*
G01X5270Y400D02*
X5266Y394D01*
X5261Y390D01*
X5255Y390D01*
X5250Y390D01*
X5245Y395D01*
X5242Y400D01*
X5241Y405D01*
X5243Y410D01*
X5247Y415D01*
X5251Y416D01*
X5257D01*
G01X5251D02*
X5248Y419D01*
X5244Y423D01*
X5243Y428D01*
X5244Y433D01*
X5248Y437D01*
X5253Y440D01*
X5259Y439D01*
X5265Y435D01*
G01X5419Y240D02*
X5404D01*
G01X5412D02*
Y190D01*
G01X5419D02*
X5404D01*
G01X5361D02*
X5366Y191D01*
X5370Y194D01*
X5374Y199D01*
X5376Y205D01*
X5378Y212D01*
Y218D01*
X5376Y225D01*
X5374Y231D01*
X5370Y236D01*
X5366Y239D01*
X5361Y240D01*
X5356Y239D01*
X5351Y236D01*
X5347Y231D01*
X5345Y225D01*
X5343Y218D01*
Y212D01*
X5345Y205D01*
X5347Y199D01*
X5351Y194D01*
X5356Y191D01*
X5361Y190D01*
G01X5318Y207D02*
X5301D01*
G01X5251Y190D02*
Y240D01*
X5274Y204D01*
X5243D01*
G01X5416Y647D02*
X5401D01*
G01X5409D02*
Y597D01*
G01X5416D02*
X5401D01*
G01X5358D02*
X5363Y597D01*
X5367Y601D01*
X5371Y606D01*
X5374Y612D01*
X5375Y618D01*
Y625D01*
X5374Y632D01*
X5371Y637D01*
X5367Y642D01*
X5363Y646D01*
X5358Y647D01*
X5353Y646D01*
X5348Y642D01*
X5345Y637D01*
X5342Y632D01*
X5341Y625D01*
Y618D01*
X5342Y612D01*
X5345Y606D01*
X5348Y601D01*
X5353Y597D01*
X5358Y597D01*
G01X5315Y613D02*
X5299D01*
G01X5268Y638D02*
X5264Y643D01*
X5260Y646D01*
X5255Y647D01*
X5248Y645D01*
X5244Y641D01*
X5243Y636D01*
X5243Y631D01*
X5246Y627D01*
X5258Y618D01*
X5264Y612D01*
X5268Y604D01*
X5269Y597D01*
X5243D01*
G01X5411Y831D02*
X5396D01*
G01X5404D02*
Y781D01*
G01X5411D02*
X5396D01*
G01X5353D02*
X5358Y782D01*
X5362Y785D01*
X5366Y790D01*
X5369Y796D01*
X5370Y803D01*
Y810D01*
X5369Y816D01*
X5366Y822D01*
X5362Y827D01*
X5358Y830D01*
X5353Y831D01*
X5348Y830D01*
X5343Y827D01*
X5339Y822D01*
X5337Y816D01*
X5336Y810D01*
Y803D01*
X5337Y796D01*
X5339Y790D01*
X5343Y785D01*
X5348Y782D01*
X5353Y781D01*
G01X5310Y798D02*
X5293D01*
G01X5251Y781D02*
Y831D01*
X5258Y821D01*
G01Y781D02*
X5243D01*
G01X8227Y-684D02*
X8427D01*
Y-984D01*
X8227D01*
Y-684D01*
G01X9504Y-601D02*
Y-551D01*
X9528Y-586D01*
X9496D01*
G01X9461Y-601D02*
X9456Y-600D01*
X9451Y-597D01*
X9448Y-593D01*
X9447Y-587D01*
X9448Y-581D01*
X9452Y-576D01*
X9458Y-574D01*
X9464D01*
X9468Y-572D01*
X9471Y-568D01*
X9472Y-562D01*
X9470Y-556D01*
X9466Y-552D01*
X9461Y-551D01*
X9456Y-552D01*
X9451Y-556D01*
X9449Y-562D01*
X9451Y-568D01*
X9454Y-572D01*
X9458Y-574D01*
X9464D01*
X9470Y-576D01*
X9473Y-581D01*
X9475Y-587D01*
X9473Y-593D01*
X9470Y-597D01*
X9465Y-600D01*
X9461Y-601D01*
G01X9424Y-593D02*
X9420Y-597D01*
X9415Y-600D01*
X9410Y-601D01*
X9404Y-599D01*
X9400Y-596D01*
X9396Y-590D01*
X9396Y-583D01*
X9397Y-576D01*
X9400Y-572D01*
X9405Y-569D01*
X9409Y-568D01*
X9414Y-569D01*
X9419Y-572D01*
X9417Y-551D01*
X9400D01*
G01X9354Y-574D02*
X9351Y-571D01*
X9349Y-567D01*
X9348Y-561D01*
X9349Y-556D01*
X9352Y-553D01*
X9356Y-551D01*
X9373D01*
Y-601D01*
X9352D01*
X9348Y-597D01*
X9345Y-592D01*
X9344Y-586D01*
X9345Y-581D01*
X9349Y-576D01*
X9354Y-574D01*
X9373D01*
G01X9493Y-174D02*
X9480D01*
Y-189D01*
X9484Y-194D01*
X9488Y-197D01*
X9494Y-199D01*
X9501Y-197D01*
X9505Y-194D01*
X9509Y-189D01*
X9512Y-183D01*
X9513Y-176D01*
Y-170D01*
X9512Y-165D01*
X9509Y-159D01*
X9505Y-154D01*
X9501Y-151D01*
X9496Y-149D01*
X9492D01*
X9487Y-150D01*
X9483Y-154D01*
G01X9460Y-199D02*
Y-149D01*
X9431Y-199D01*
Y-149D01*
G01X9408Y-199D02*
Y-149D01*
X9396D01*
X9391Y-151D01*
X9387Y-154D01*
X9384Y-159D01*
X9381Y-165D01*
X9380Y-174D01*
X9381Y-182D01*
X9384Y-188D01*
X9387Y-193D01*
X9391Y-196D01*
X9396Y-199D01*
X9408D01*
G01X9501Y-403D02*
Y-353D01*
X9525Y-389D01*
X9493D01*
G01X9458Y-403D02*
X9454Y-402D01*
X9448Y-400D01*
X9445Y-396D01*
X9444Y-390D01*
X9445Y-384D01*
X9449Y-379D01*
X9455Y-377D01*
X9461D01*
X9465Y-375D01*
X9468Y-371D01*
X9469Y-365D01*
X9467Y-359D01*
X9463Y-355D01*
X9458Y-353D01*
X9453Y-355D01*
X9448Y-359D01*
X9447Y-365D01*
X9448Y-371D01*
X9451Y-375D01*
X9455Y-377D01*
X9461D01*
X9467Y-379D01*
X9471Y-384D01*
X9472Y-390D01*
X9471Y-396D01*
X9467Y-400D01*
X9462Y-402D01*
X9458Y-403D01*
G01X9421Y-396D02*
X9417Y-400D01*
X9413Y-402D01*
X9407Y-403D01*
X9401Y-402D01*
X9397Y-398D01*
X9394Y-392D01*
X9393Y-386D01*
X9394Y-379D01*
X9397Y-375D01*
X9402Y-372D01*
X9406Y-371D01*
X9411Y-372D01*
X9416Y-375D01*
X9415Y-353D01*
X9397D01*
G01X9372Y-403D02*
X9356Y-353D01*
X9340Y-403D01*
G01X9346Y-386D02*
X9366D01*
G01X9548Y44D02*
X9539Y-6D01*
X9529Y44D01*
X9519Y-6D01*
X9510Y44D01*
G01X9497Y-23D02*
X9459D01*
G01X9427Y-6D02*
X9432Y-6D01*
X9437Y-2D01*
X9440Y3D01*
X9443Y9D01*
X9444Y15D01*
Y22D01*
X9443Y29D01*
X9440Y34D01*
X9437Y39D01*
X9432Y43D01*
X9427Y44D01*
X9422Y43D01*
X9418Y39D01*
X9414Y34D01*
X9411Y29D01*
X9410Y22D01*
Y15D01*
X9411Y9D01*
X9414Y3D01*
X9418Y-2D01*
X9422Y-6D01*
X9427Y-6D01*
G01X9390Y44D02*
Y8D01*
X9387Y0D01*
X9382Y-5D01*
X9376Y-6D01*
X9370Y-5D01*
X9365Y0D01*
X9362Y8D01*
Y44D01*
G01X9325D02*
Y-6D01*
G01X9340Y44D02*
X9310D01*
G01X9274Y-6D02*
Y44D01*
X9282Y34D01*
G01Y-6D02*
X9266D01*
G01X9491Y418D02*
X9479D01*
Y403D01*
X9483Y398D01*
X9487Y394D01*
X9493Y393D01*
X9500Y394D01*
X9504Y398D01*
X9508Y403D01*
X9510Y409D01*
X9512Y415D01*
Y421D01*
X9510Y426D01*
X9508Y432D01*
X9504Y437D01*
X9500Y440D01*
X9495Y443D01*
X9491D01*
X9486Y441D01*
X9482Y438D01*
G01X9459Y393D02*
Y443D01*
X9430Y393D01*
Y443D01*
G01X9407Y393D02*
Y443D01*
X9394D01*
X9389Y440D01*
X9386Y437D01*
X9382Y432D01*
X9380Y426D01*
X9379Y418D01*
X9380Y409D01*
X9382Y404D01*
X9386Y399D01*
X9389Y395D01*
X9394Y393D01*
X9407D01*
G01X9544Y243D02*
X9535Y193D01*
X9525Y243D01*
X9515Y193D01*
X9506Y243D01*
G01X9493Y177D02*
X9455D01*
G01X9423Y193D02*
X9428Y194D01*
X9433Y197D01*
X9436Y202D01*
X9439Y208D01*
X9440Y215D01*
Y222D01*
X9439Y228D01*
X9436Y234D01*
X9433Y239D01*
X9428Y242D01*
X9423Y243D01*
X9418Y242D01*
X9414Y239D01*
X9410Y234D01*
X9407Y228D01*
X9406Y222D01*
Y215D01*
X9407Y208D01*
X9410Y202D01*
X9414Y197D01*
X9418Y194D01*
X9423Y193D01*
G01X9386Y243D02*
Y207D01*
X9383Y200D01*
X9378Y195D01*
X9372Y193D01*
X9366Y195D01*
X9361Y200D01*
X9358Y207D01*
Y243D01*
G01X9321D02*
Y193D01*
G01X9336Y243D02*
X9307D01*
G01X9270D02*
X9275Y242D01*
X9279Y237D01*
X9281Y232D01*
X9283Y226D01*
X9284Y218D01*
X9283Y211D01*
X9281Y204D01*
X9279Y199D01*
X9275Y195D01*
X9270Y193D01*
X9265Y195D01*
X9261Y199D01*
X9259Y204D01*
X9257Y211D01*
X9256Y218D01*
X9257Y226D01*
X9259Y232D01*
X9261Y237D01*
X9265Y242D01*
X9270Y243D01*
G01X9531Y645D02*
X9523Y595D01*
X9512Y645D01*
X9502Y595D01*
X9493Y645D01*
G01X9480Y578D02*
X9442D01*
G01X9418Y645D02*
X9403D01*
G01X9410D02*
Y595D01*
G01X9418D02*
X9403D01*
G01X9374D02*
Y645D01*
X9345Y595D01*
Y645D01*
G01X9308Y595D02*
Y645D01*
X9316Y635D01*
G01Y595D02*
X9301D01*
G01X9534Y837D02*
X9525Y787D01*
X9515Y837D01*
X9505Y787D01*
X9496Y837D01*
G01X9483Y770D02*
X9445D01*
G01X9421Y837D02*
X9406D01*
G01X9413D02*
Y787D01*
G01X9421D02*
X9406D01*
G01X9377D02*
Y837D01*
X9348Y787D01*
Y837D01*
G01X9311D02*
X9316Y835D01*
X9320Y831D01*
X9323Y826D01*
X9325Y819D01*
X9325Y812D01*
X9325Y804D01*
X9323Y798D01*
X9320Y793D01*
X9316Y789D01*
X9311Y787D01*
X9306Y789D01*
X9302Y793D01*
X9300Y798D01*
X9298Y804D01*
X9297Y812D01*
X9298Y819D01*
X9300Y826D01*
X9302Y831D01*
X9306Y835D01*
X9311Y837D01*
G01X9782Y911D02*
X9982D01*
Y-689D01*
X9582D01*
Y911D01*
X9782D01*
M02*
