G04 ================== begin FILE IDENTIFICATION RECORD ==================*
G04 Layout Name:  E:/EMB002/project/hardware/LED_LCD_WIG/WIEGAND.brd*
G04 Film Name:    Silk_Top*
G04 File Format:  Gerber RS274X*
G04 File Origin:  15.7-p007*
G04 Origin Date:  Fri May 15 15:34:58 2009*
G04 *
G04 Layer:  REF DES/ASSEMBLY_TOP*
G04 Layer:  PACKAGE GEOMETRY/SILKSCREEN_TOP*
G04 Layer:  BOARD GEOMETRY/OUTLINE*
G04 *
G04 Offset:    (0.000 0.000)*
G04 Mirror:    No*
G04 Mode:      Positive*
G04 Rotation:  0*
G04 FullContactRelief:  No*
G04 UndefLineWidth:     10.000*
G04 ================== end FILE IDENTIFICATION RECORD ====================*
%FSLAX53Y53*MOIN*%
%IR0*IPPOS*OFA0.00000B0.00000*MIA0B0*SFA1.00000B1.00000*%
%ADD10C,.01*%
G75*
%LPD*%
G75*
G54D10*
G01X4742Y1508D02*
X6002D01*
Y800D01*
X8758D01*
Y1508D01*
X10018D01*
Y-1208D01*
X4742D01*
Y1508D01*
G01X4821Y996D02*
X5136D01*
Y-775D01*
X4821D01*
Y996D01*
G01X4979Y911D02*
X5179D01*
Y-689D01*
X4779D01*
Y911D01*
X4979D01*
G01X4935Y160D02*
X4942D01*
G01X4938D02*
Y135D01*
G01X4935D02*
X4942D01*
G01X4960D02*
X4958Y135D01*
X4956Y137D01*
X4955Y140D01*
X4954Y143D01*
X4953Y146D01*
Y149D01*
X4954Y153D01*
X4955Y155D01*
X4956Y158D01*
X4958Y160D01*
X4960Y160D01*
X4962Y160D01*
X4964Y158D01*
X4966Y155D01*
X4967Y153D01*
X4968Y149D01*
Y146D01*
X4967Y143D01*
X4966Y140D01*
X4964Y137D01*
X4962Y135D01*
X4960Y135D01*
G01X4979Y143D02*
X4986D01*
G01X5008Y135D02*
Y160D01*
X4998Y142D01*
X5011D01*
G01X4951Y-658D02*
Y-633D01*
X4948Y-638D01*
G01Y-658D02*
X4954D01*
G01X4968Y-637D02*
X4969Y-635D01*
X4971Y-634D01*
X4973Y-633D01*
X4976Y-634D01*
X4978Y-636D01*
X4979Y-639D01*
X4978Y-641D01*
X4977Y-643D01*
X4972Y-647D01*
X4969Y-650D01*
X4968Y-655D01*
X4967Y-658D01*
X4979D01*
G01X4988Y-633D02*
X4995Y-658D01*
X5002Y-633D01*
G01X4954Y-464D02*
Y-439D01*
X4951Y-444D01*
G01Y-464D02*
X4957D01*
G01X4971Y-443D02*
X4972Y-440D01*
X4974Y-439D01*
X4976Y-439D01*
X4979Y-440D01*
X4981Y-442D01*
X4981Y-444D01*
X4981Y-447D01*
X4980Y-449D01*
X4975Y-453D01*
X4972Y-456D01*
X4971Y-460D01*
X4970Y-464D01*
X4981D01*
G01X4991Y-439D02*
X4998Y-464D01*
X5004Y-439D01*
G01X4960Y-252D02*
X4965D01*
Y-259D01*
X4964Y-262D01*
X4962Y-263D01*
X4959Y-264D01*
X4957Y-263D01*
X4955Y-262D01*
X4953Y-259D01*
X4952Y-256D01*
X4951Y-253D01*
Y-250D01*
X4952Y-248D01*
X4953Y-245D01*
X4955Y-242D01*
X4956Y-240D01*
X4958Y-239D01*
X4960D01*
X4962Y-240D01*
X4964Y-242D01*
G01X4974Y-264D02*
Y-239D01*
X4987Y-264D01*
Y-239D01*
G01X4997Y-264D02*
Y-239D01*
X5002D01*
X5004Y-240D01*
X5006Y-242D01*
X5007Y-245D01*
X5008Y-248D01*
X5008Y-252D01*
X5008Y-256D01*
X5007Y-259D01*
X5006Y-261D01*
X5004Y-263D01*
X5002Y-264D01*
X4997D01*
G01X4955Y-57D02*
X4961D01*
Y-65D01*
X4959Y-67D01*
X4957Y-69D01*
X4955Y-70D01*
X4952Y-69D01*
X4950Y-67D01*
X4948Y-65D01*
X4947Y-62D01*
X4947Y-58D01*
Y-56D01*
X4947Y-53D01*
X4948Y-50D01*
X4950Y-48D01*
X4952Y-46D01*
X4954Y-45D01*
X4956D01*
X4958Y-46D01*
X4959Y-47D01*
G01X4970Y-70D02*
Y-45D01*
X4982Y-70D01*
Y-45D01*
G01X4992Y-70D02*
Y-45D01*
X4997D01*
X4999Y-46D01*
X5001Y-48D01*
X5002Y-50D01*
X5003Y-53D01*
X5004Y-57D01*
X5003Y-61D01*
X5002Y-64D01*
X5001Y-67D01*
X4999Y-68D01*
X4997Y-70D01*
X4992D01*
G01X4938Y360D02*
X4944D01*
G01X4941D02*
Y335D01*
G01X4938D02*
X4944D01*
G01X4963D02*
X4961Y335D01*
X4959Y337D01*
X4958Y339D01*
X4956Y342D01*
X4956Y345D01*
Y349D01*
X4956Y352D01*
X4958Y355D01*
X4959Y358D01*
X4961Y359D01*
X4963Y360D01*
X4965Y359D01*
X4967Y358D01*
X4969Y355D01*
X4970Y352D01*
X4970Y349D01*
Y345D01*
X4970Y342D01*
X4969Y339D01*
X4967Y337D01*
X4965Y335D01*
X4963Y335D01*
G01X4982Y343D02*
X4989D01*
G01X5001Y340D02*
X5003Y337D01*
X5005Y335D01*
X5007Y335D01*
X5010Y335D01*
X5012Y337D01*
X5013Y340D01*
X5013Y342D01*
X5013Y345D01*
X5011Y347D01*
X5009Y348D01*
X5007D01*
G01X5009D02*
X5011Y349D01*
X5012Y351D01*
X5012Y354D01*
X5012Y356D01*
X5011Y358D01*
X5008Y360D01*
X5006Y359D01*
X5003Y358D01*
G01X4938Y567D02*
X4944D01*
G01X4941D02*
Y542D01*
G01X4938D02*
X4944D01*
G01X4963D02*
X4961Y542D01*
X4959Y544D01*
X4958Y546D01*
X4956Y549D01*
X4956Y553D01*
Y556D01*
X4956Y559D01*
X4958Y562D01*
X4959Y565D01*
X4961Y566D01*
X4963Y567D01*
X4965Y566D01*
X4967Y565D01*
X4969Y562D01*
X4970Y559D01*
X4970Y556D01*
Y553D01*
X4970Y549D01*
X4969Y546D01*
X4967Y544D01*
X4965Y542D01*
X4963Y542D01*
G01X4982Y550D02*
X4989D01*
G01X5002Y563D02*
X5004Y565D01*
X5006Y566D01*
X5008Y567D01*
X5010Y566D01*
X5012Y564D01*
X5013Y561D01*
X5012Y559D01*
X5011Y557D01*
X5006Y553D01*
X5004Y550D01*
X5002Y545D01*
X5002Y542D01*
X5013D01*
G01X4943Y751D02*
X4949D01*
G01X4946D02*
Y726D01*
G01X4943D02*
X4949D01*
G01X4968D02*
X4966Y727D01*
X4964Y728D01*
X4963Y731D01*
X4962Y734D01*
X4961Y737D01*
Y741D01*
X4962Y744D01*
X4963Y747D01*
X4964Y749D01*
X4966Y751D01*
X4968Y751D01*
X4970Y751D01*
X4972Y749D01*
X4974Y747D01*
X4975Y744D01*
X4975Y741D01*
Y737D01*
X4975Y734D01*
X4974Y731D01*
X4972Y728D01*
X4970Y727D01*
X4968Y726D01*
G01X4987Y735D02*
X4994D01*
G01X5012Y726D02*
Y751D01*
X5009Y746D01*
G01Y726D02*
X5015D01*
G01X5609Y1263D02*
X5809D01*
Y363D01*
X5609D01*
Y1263D01*
G01Y892D02*
X5665D01*
Y735D01*
X5609D01*
G01X5710Y1275D02*
X5670Y1314D01*
X5749D01*
X5710Y1275D01*
G01X5640Y1403D02*
X5643Y1398D01*
X5647Y1395D01*
X5651Y1393D01*
X5656Y1395D01*
X5660Y1398D01*
X5664Y1403D01*
X5665Y1410D01*
Y1443D01*
G01X5691Y1435D02*
X5695Y1440D01*
X5700Y1442D01*
X5705Y1443D01*
X5711Y1441D01*
X5715Y1437D01*
X5717Y1432D01*
X5716Y1427D01*
X5713Y1423D01*
X5701Y1415D01*
X5695Y1409D01*
X5691Y1400D01*
X5690Y1393D01*
X5717D01*
G01X5754Y1443D02*
X5749Y1441D01*
X5745Y1437D01*
X5743Y1432D01*
X5741Y1425D01*
X5740Y1418D01*
X5741Y1410D01*
X5743Y1404D01*
X5745Y1399D01*
X5749Y1395D01*
X5754Y1393D01*
X5759Y1395D01*
X5763Y1399D01*
X5766Y1404D01*
X5768Y1410D01*
X5768Y1418D01*
X5768Y1425D01*
X5766Y1432D01*
X5763Y1437D01*
X5759Y1441D01*
X5754Y1443D01*
G01X8365Y-855D02*
G03I-40J21D01*
G01X8404Y-755D02*
X8246D01*
Y-913D01*
X8404D01*
Y-755D01*
G01X8758Y426D02*
X8458D01*
Y626D01*
X8758D01*
Y426D01*
G01X8458Y690D02*
X8461Y685D01*
X8465Y682D01*
X8469Y680D01*
X8474Y682D01*
X8478Y685D01*
X8482Y690D01*
X8483Y697D01*
Y730D01*
G01X8510Y722D02*
X8513Y727D01*
X8518Y729D01*
X8523Y730D01*
X8529Y728D01*
X8534Y724D01*
X8535Y719D01*
X8534Y714D01*
X8532Y710D01*
X8519Y702D01*
X8513Y696D01*
X8510Y687D01*
X8508Y680D01*
X8535D01*
G01X8564Y697D02*
X8581D01*
G01X8612Y722D02*
X8615Y727D01*
X8620Y729D01*
X8625Y730D01*
X8631Y728D01*
X8636Y724D01*
X8637Y719D01*
X8636Y714D01*
X8634Y710D01*
X8621Y702D01*
X8615Y696D01*
X8612Y687D01*
X8610Y680D01*
X8637D01*
G01X8694Y663D02*
X8662Y713D01*
Y722D01*
X8668Y730D01*
X8675D01*
X8681Y722D01*
Y713D01*
X8675Y705D01*
X8662Y697D01*
X8656Y688D01*
Y672D01*
X8662Y663D01*
X8681D01*
X8694Y680D01*
G01X8712Y690D02*
X8715Y684D01*
X8721Y681D01*
X8726Y680D01*
X8731Y681D01*
X8736Y685D01*
X8740Y690D01*
X8740Y695D01*
X8739Y701D01*
X8734Y705D01*
X8730Y707D01*
X8724D01*
G01X8730D02*
X8734Y709D01*
X8737Y713D01*
X8738Y718D01*
X8737Y723D01*
X8734Y727D01*
X8728Y730D01*
X8722Y729D01*
X8717Y726D01*
G01X8556Y427D02*
Y473D01*
X8661D01*
Y427D01*
G01X8991Y1263D02*
X9191D01*
Y363D01*
X8991D01*
Y1263D01*
G01X8991Y891D02*
X9045D01*
Y731D01*
X8991D01*
G01X9095Y1279D02*
X9056Y1318D01*
X9135D01*
X9095Y1279D01*
G01X9021Y1386D02*
X9024Y1381D01*
X9028Y1377D01*
X9032Y1376D01*
X9037Y1377D01*
X9041Y1381D01*
X9045Y1386D01*
X9046Y1392D01*
Y1426D01*
G01X9084Y1376D02*
Y1426D01*
X9077Y1416D01*
G01Y1376D02*
X9092D01*
G01X9135D02*
X9140Y1377D01*
X9145Y1379D01*
X9148Y1383D01*
X9149Y1389D01*
X9148Y1395D01*
X9144Y1400D01*
X9138Y1402D01*
X9132D01*
X9128Y1404D01*
X9125Y1408D01*
X9124Y1414D01*
X9126Y1420D01*
X9130Y1424D01*
X9135Y1426D01*
X9140Y1424D01*
X9145Y1420D01*
X9147Y1414D01*
X9145Y1408D01*
X9142Y1404D01*
X9138Y1402D01*
X9132D01*
X9126Y1400D01*
X9123Y1395D01*
X9121Y1389D01*
X9123Y1383D01*
X9126Y1379D01*
X9131Y1377D01*
X9135Y1376D01*
G01X9939Y996D02*
X9624D01*
Y-775D01*
X9939D01*
Y996D01*
G01X9782Y911D02*
X9982D01*
Y-689D01*
X9582D01*
Y911D01*
X9782D01*
G01X9717Y-34D02*
X9721Y-59D01*
X9725Y-34D01*
X9730Y-59D01*
X9733Y-34D01*
G01X9739Y-68D02*
X9755D01*
G01X9769Y-59D02*
X9767Y-59D01*
X9765Y-57D01*
X9764Y-55D01*
X9763Y-52D01*
X9762Y-49D01*
Y-45D01*
X9763Y-42D01*
X9764Y-39D01*
X9765Y-37D01*
X9767Y-35D01*
X9769Y-34D01*
X9772Y-35D01*
X9773Y-37D01*
X9775Y-39D01*
X9776Y-42D01*
X9777Y-45D01*
Y-49D01*
X9776Y-52D01*
X9775Y-55D01*
X9773Y-57D01*
X9772Y-59D01*
X9769Y-59D01*
G01X9786Y-34D02*
Y-52D01*
X9787Y-56D01*
X9789Y-59D01*
X9791Y-59D01*
X9794Y-59D01*
X9796Y-56D01*
X9797Y-52D01*
Y-34D01*
G01X9813D02*
Y-59D01*
G01X9807Y-34D02*
X9820D01*
G01X9835Y-59D02*
Y-34D01*
X9832Y-39D01*
G01Y-59D02*
X9839D01*
G01X9721Y165D02*
X9725Y140D01*
X9729Y165D01*
X9734Y140D01*
X9737Y165D01*
G01X9743Y132D02*
X9759D01*
G01X9773Y140D02*
X9771Y141D01*
X9769Y142D01*
X9768Y145D01*
X9767Y148D01*
X9766Y151D01*
Y154D01*
X9767Y158D01*
X9768Y161D01*
X9769Y163D01*
X9771Y165D01*
X9773Y165D01*
X9775Y165D01*
X9777Y163D01*
X9779Y161D01*
X9780Y158D01*
X9781Y154D01*
Y151D01*
X9780Y148D01*
X9779Y145D01*
X9777Y142D01*
X9775Y141D01*
X9773Y140D01*
G01X9789Y165D02*
Y147D01*
X9791Y143D01*
X9793Y141D01*
X9795Y140D01*
X9798Y141D01*
X9800Y143D01*
X9801Y147D01*
Y165D01*
G01X9817D02*
Y140D01*
G01X9811Y165D02*
X9823D01*
G01X9839D02*
X9837Y164D01*
X9836Y162D01*
X9835Y160D01*
X9834Y156D01*
X9833Y153D01*
X9834Y149D01*
X9835Y146D01*
X9836Y143D01*
X9837Y141D01*
X9839Y140D01*
X9841Y141D01*
X9843Y143D01*
X9844Y146D01*
X9845Y149D01*
X9845Y153D01*
X9845Y156D01*
X9844Y160D01*
X9843Y162D01*
X9841Y164D01*
X9839Y165D01*
G01X9731Y759D02*
X9735Y734D01*
X9739Y759D01*
X9743Y734D01*
X9747Y759D01*
G01X9753Y726D02*
X9769D01*
G01X9780Y759D02*
X9786D01*
G01X9783D02*
Y734D01*
G01X9780D02*
X9786D01*
G01X9799D02*
Y759D01*
X9811Y734D01*
Y759D01*
G01X9827D02*
X9825Y758D01*
X9823Y756D01*
X9822Y753D01*
X9822Y750D01*
X9821Y746D01*
X9822Y743D01*
X9822Y739D01*
X9823Y737D01*
X9825Y735D01*
X9827Y734D01*
X9829Y735D01*
X9831Y737D01*
X9832Y739D01*
X9833Y743D01*
X9833Y746D01*
X9833Y750D01*
X9832Y753D01*
X9831Y756D01*
X9829Y758D01*
X9827Y759D01*
G01X9746Y-654D02*
Y-629D01*
X9736Y-646D01*
X9749D01*
G01X9765Y-654D02*
X9767Y-653D01*
X9769Y-652D01*
X9770Y-650D01*
X9771Y-647D01*
X9770Y-644D01*
X9768Y-641D01*
X9766Y-640D01*
X9763D01*
X9762Y-639D01*
X9760Y-637D01*
X9760Y-634D01*
X9761Y-631D01*
X9763Y-629D01*
X9765Y-629D01*
X9767Y-629D01*
X9769Y-631D01*
X9770Y-634D01*
X9769Y-637D01*
X9768Y-639D01*
X9766Y-640D01*
X9763D01*
X9761Y-641D01*
X9759Y-644D01*
X9759Y-647D01*
X9759Y-650D01*
X9761Y-652D01*
X9763Y-653D01*
X9765Y-654D01*
G01X9781Y-650D02*
X9782Y-652D01*
X9784Y-653D01*
X9787Y-654D01*
X9789Y-653D01*
X9791Y-651D01*
X9792Y-648D01*
X9793Y-645D01*
X9792Y-641D01*
X9791Y-639D01*
X9789Y-638D01*
X9787Y-637D01*
X9785Y-638D01*
X9783Y-639D01*
X9784Y-629D01*
X9791D01*
G01X9811Y-640D02*
X9812Y-639D01*
X9813Y-637D01*
X9813Y-634D01*
X9813Y-631D01*
X9812Y-630D01*
X9810Y-629D01*
X9803D01*
Y-654D01*
X9811D01*
X9813Y-652D01*
X9814Y-649D01*
X9815Y-646D01*
X9814Y-644D01*
X9813Y-641D01*
X9811Y-640D01*
X9803D01*
G01X9749Y-456D02*
Y-431D01*
X9739Y-449D01*
X9752D01*
G01X9767Y-456D02*
X9769Y-456D01*
X9771Y-455D01*
X9773Y-453D01*
X9773Y-450D01*
X9773Y-447D01*
X9771Y-444D01*
X9769Y-443D01*
X9766D01*
X9765Y-442D01*
X9763Y-440D01*
X9763Y-437D01*
X9763Y-434D01*
X9765Y-432D01*
X9767Y-431D01*
X9770Y-432D01*
X9771Y-434D01*
X9772Y-437D01*
X9772Y-440D01*
X9770Y-442D01*
X9769Y-443D01*
X9766D01*
X9764Y-444D01*
X9762Y-447D01*
X9762Y-450D01*
X9762Y-453D01*
X9763Y-455D01*
X9766Y-456D01*
X9767Y-456D01*
G01X9784Y-453D02*
X9785Y-455D01*
X9787Y-456D01*
X9789Y-456D01*
X9792Y-455D01*
X9794Y-454D01*
X9795Y-451D01*
X9795Y-448D01*
X9795Y-444D01*
X9793Y-442D01*
X9792Y-440D01*
X9790Y-440D01*
X9788Y-440D01*
X9785Y-442D01*
X9786Y-431D01*
X9793D01*
G01X9805Y-456D02*
X9811Y-431D01*
X9818Y-456D01*
G01X9816Y-448D02*
X9807D01*
G01X9760Y-239D02*
X9765D01*
Y-247D01*
X9763Y-249D01*
X9762Y-251D01*
X9759Y-252D01*
X9756Y-251D01*
X9754Y-249D01*
X9753Y-247D01*
X9752Y-244D01*
X9751Y-240D01*
Y-237D01*
X9752Y-235D01*
X9753Y-232D01*
X9754Y-229D01*
X9756Y-228D01*
X9758Y-227D01*
X9760D01*
X9762Y-227D01*
X9764Y-229D01*
G01X9774Y-252D02*
Y-227D01*
X9786Y-252D01*
Y-227D01*
G01X9796Y-252D02*
Y-227D01*
X9802D01*
X9804Y-228D01*
X9805Y-229D01*
X9807Y-232D01*
X9808Y-235D01*
X9808Y-239D01*
X9808Y-243D01*
X9807Y-246D01*
X9805Y-249D01*
X9804Y-250D01*
X9802Y-252D01*
X9796D01*
G01X9761Y352D02*
X9766D01*
Y345D01*
X9765Y342D01*
X9763Y341D01*
X9760Y340D01*
X9757Y341D01*
X9756Y342D01*
X9754Y345D01*
X9753Y348D01*
X9752Y351D01*
Y354D01*
X9753Y356D01*
X9754Y359D01*
X9756Y362D01*
X9757Y364D01*
X9759Y365D01*
X9761D01*
X9763Y364D01*
X9765Y362D01*
G01X9775Y340D02*
Y365D01*
X9787Y340D01*
Y365D01*
G01X9797Y340D02*
Y365D01*
X9803D01*
X9805Y364D01*
X9806Y362D01*
X9808Y359D01*
X9809Y356D01*
X9809Y352D01*
X9809Y348D01*
X9808Y345D01*
X9806Y343D01*
X9805Y341D01*
X9803Y340D01*
X9797D01*
G01X9734Y567D02*
X9738Y542D01*
X9742Y567D01*
X9746Y542D01*
X9750Y567D01*
G01X9756Y533D02*
X9772D01*
G01X9783Y567D02*
X9789D01*
G01X9786D02*
Y542D01*
G01X9783D02*
X9789D01*
G01X9802D02*
Y567D01*
X9814Y542D01*
Y567D01*
G01X9830Y542D02*
Y567D01*
X9827Y562D01*
G01Y542D02*
X9833D01*
M02*
