G04 ================== begin FILE IDENTIFICATION RECORD ==================*
G04 Layout Name:  E:/EMB002/project/hardware/LED_LCD_WIG/USB.brd*
G04 Film Name:    Silk_Top*
G04 File Format:  Gerber RS274X*
G04 File Origin:  15.7-p007*
G04 Origin Date:  Thu May 14 14:47:13 2009*
G04 *
G04 Layer:  REF DES/ASSEMBLY_TOP*
G04 Layer:  PACKAGE GEOMETRY/SILKSCREEN_TOP*
G04 Layer:  BOARD GEOMETRY/OUTLINE*
G04 *
G04 Offset:    (0.000 0.000)*
G04 Mirror:    No*
G04 Mode:      Positive*
G04 Rotation:  0*
G04 FullContactRelief:  No*
G04 UndefLineWidth:     10.000*
G04 ================== end FILE IDENTIFICATION RECORD ====================*
%FSLAX53Y53*MOIN*%
%IR0*IPPOS*OFA0.00000B0.00000*MIA0B0*SFA1.00000B1.00000*%
%ADD10C,.01*%
G75*
%LPD*%
G75*
G54D10*
G01X3312Y485D02*
X1737D01*
Y-263D01*
X3312D01*
Y485D01*
G01X2842Y-27D02*
X2206D01*
Y603D01*
X2842D01*
Y-27D01*
G01X2273Y-48D02*
X2773D01*
Y-248D01*
X2273D01*
Y-48D01*
G01X2463Y-236D02*
Y-211D01*
X2468D01*
X2470Y-212D01*
X2472Y-214D01*
X2473Y-217D01*
X2474Y-220D01*
X2474Y-224D01*
X2474Y-228D01*
X2473Y-231D01*
X2472Y-233D01*
X2470Y-235D01*
X2468Y-236D01*
X2463D01*
G01X2488Y-228D02*
X2494D01*
G01X2491Y-222D02*
Y-233D01*
G01X2352Y-224D02*
X2357D01*
Y-231D01*
X2356Y-234D01*
X2354Y-235D01*
X2351Y-236D01*
X2349Y-235D01*
X2347Y-234D01*
X2345Y-231D01*
X2344Y-228D01*
X2344Y-225D01*
Y-222D01*
X2344Y-220D01*
X2345Y-217D01*
X2347Y-214D01*
X2348Y-212D01*
X2351Y-211D01*
X2352D01*
X2355Y-212D01*
X2356Y-214D01*
G01X2366Y-236D02*
Y-211D01*
X2379Y-236D01*
Y-211D01*
G01X2389Y-236D02*
Y-211D01*
X2394D01*
X2396Y-212D01*
X2398Y-214D01*
X2399Y-217D01*
X2400Y-220D01*
X2400Y-224D01*
X2400Y-228D01*
X2399Y-231D01*
X2398Y-233D01*
X2396Y-235D01*
X2394Y-236D01*
X2389D01*
G01X2435Y-50D02*
Y-105D01*
X2615D01*
Y-50D01*
G01X2776Y-157D02*
X2815Y-118D01*
Y-197D01*
X2776Y-157D01*
G01X2660Y-232D02*
X2661Y-235D01*
X2663Y-236D01*
X2665Y-236D01*
X2668Y-235D01*
X2670Y-234D01*
X2671Y-231D01*
X2671Y-227D01*
X2671Y-224D01*
X2669Y-222D01*
X2668Y-220D01*
X2666Y-220D01*
X2664Y-220D01*
X2661Y-222D01*
X2662Y-211D01*
X2669D01*
G01X2681D02*
X2687Y-236D01*
X2694Y-211D01*
G01X2561Y-236D02*
Y-211D01*
X2567D01*
X2569Y-212D01*
X2570Y-214D01*
X2572Y-217D01*
X2573Y-220D01*
X2573Y-224D01*
X2573Y-228D01*
X2572Y-231D01*
X2570Y-233D01*
X2569Y-235D01*
X2567Y-236D01*
X2561D01*
G01X2586Y-228D02*
X2593D01*
G01X2854Y-164D02*
X2856Y-167D01*
X2858Y-169D01*
X2861Y-170D01*
X2864Y-169D01*
X2866Y-167D01*
X2868Y-164D01*
X2869Y-160D01*
Y-139D01*
G01X2892Y-170D02*
Y-139D01*
X2888Y-145D01*
G01Y-170D02*
X2897D01*
G01X2917Y-166D02*
X2920Y-169D01*
X2923Y-170D01*
X2926Y-169D01*
X2928Y-166D01*
X2930Y-161D01*
X2931Y-157D01*
Y-151D01*
X2930Y-146D01*
X2928Y-142D01*
X2926Y-140D01*
X2924Y-139D01*
X2920Y-140D01*
X2918Y-142D01*
X2917Y-145D01*
X2916Y-149D01*
X2917Y-153D01*
X2919Y-157D01*
X2921Y-159D01*
X2924Y-159D01*
X2927Y-158D01*
X2929Y-156D01*
X2931Y-151D01*
M02*
